<svg width="44" height="30" viewBox="0 0 44 30" fill="none" xmlns="http://www.w3.org/2000/svg">
<path d="M42.8673 0.7428H1.13272C0.506374 0.7428 0 1.24995 0 1.87552V28.1244C0 28.75 0.506374 29.2579 1.13272 29.2579H42.8673C43.4936 29.2579 44 28.7507 44 28.1252V1.87552C44 1.24995 43.4936 0.7428 42.8673 0.7428ZM10.8239 13.7714L10.6931 13.4746V13.491C10.6931 13.8719 10.3838 14.1812 10.0028 14.1812H7.97033C7.68987 14.1812 7.43824 14.0121 7.33152 13.7535L7.12351 13.2487H5.96586L5.75475 13.7566C5.6488 14.0137 5.39639 14.182 5.11905 14.182H4.03307C3.80092 14.182 3.58435 14.0651 3.45659 13.8719C3.3296 13.6771 3.30701 13.4325 3.39894 13.2199L5.18761 9.0388C5.29589 8.7856 5.54596 8.6204 5.82252 8.6204H7.30581C7.58237 8.6204 7.83088 8.7848 7.94072 9.038L8.31544 9.9121V9.3114C8.31544 8.9305 8.62394 8.6212 9.00567 8.6212H10.6377C10.9057 8.6212 11.1511 8.7786 11.2649 9.0224L11.9185 10.4418L12.5121 9.0427C12.6196 8.7871 12.8705 8.6212 13.1462 8.6212H14.8118C14.9521 8.6212 15.0744 8.6734 15.1842 8.7451C15.2933 8.6734 15.4156 8.6212 15.5566 8.6212H18.894C19.0233 8.6212 19.1378 8.6664 19.2399 8.7279C19.3435 8.6664 19.4572 8.6212 19.5865 8.6212H21.8847C22.4791 8.6212 22.9707 8.6422 23.4404 8.9133C23.488 8.9422 23.5222 8.9788 23.5651 9.0099C23.6773 8.7825 23.9079 8.6212 24.1797 8.6212H25.1995C25.5446 8.6212 25.8188 8.8783 25.8695 9.2078C26.3166 8.8206 26.9259 8.6212 27.7454 8.6212H28.7122C28.8657 8.6212 29.0098 8.6718 29.1243 8.7583C29.2404 8.6711 29.3845 8.6212 29.5372 8.6212H31.0337C31.3095 8.6212 31.558 8.7864 31.6678 9.0395L32.0348 9.898V9.3114C32.0348 8.9305 32.3441 8.6212 32.7258 8.6212H34.2472C34.4895 8.6212 34.7131 8.7474 34.8377 8.9546L35.313 9.7422V9.3106C35.313 8.9297 35.623 8.6204 36.0047 8.6204H37.0268C37.4086 8.6204 37.7171 8.9297 37.7171 9.3106V13.4917C37.7171 13.8727 37.407 14.182 37.0268 14.182H35.6121C35.3683 14.182 35.1447 14.0558 35.0193 13.8485L34.4062 12.8319V13.4917C34.4062 13.8727 34.0961 14.182 33.7159 14.182H31.6819C31.4038 14.182 31.1537 14.0145 31.0446 13.7574L30.8335 13.2495H29.6821L29.478 13.7504C29.3744 14.0114 29.1204 14.1827 28.8407 14.1827H27.6706C27.2258 14.1827 26.4296 14.1025 25.8617 13.6265C25.797 13.9412 25.5322 14.1827 25.1979 14.1827H24.1774C24.0644 14.1827 23.9608 14.1485 23.865 14.0994C23.7708 14.1485 23.6687 14.1827 23.555 14.1827H22.5469C22.1675 14.1827 21.859 13.8766 21.8559 13.498L21.852 12.9706L21.8535 12.8786C21.8535 12.8225 21.8551 12.7384 21.8504 12.6675C21.8045 12.6644 21.7429 12.6621 21.6564 12.6621H21.2755V13.4925C21.2755 13.8735 20.9662 14.1827 20.5853 14.1827H19.585C19.4557 14.1827 19.3427 14.1376 19.2383 14.076C19.1363 14.1376 19.0217 14.1827 18.8924 14.1827H15.555C15.414 14.1827 15.2917 14.1298 15.1826 14.0589C15.0728 14.1298 14.9505 14.1827 14.8103 14.1827H13.7858C13.4041 14.1827 13.0956 13.8742 13.0956 13.4933V13.4762L12.9632 13.7722C12.8525 14.0223 12.6064 14.1835 12.3322 14.1835H11.4542C11.1815 14.1835 10.9338 14.0215 10.8239 13.7714ZM38.3995 21.3779H36.4535C36.1683 21.3779 35.9245 21.2042 35.8186 20.958C35.4392 21.2268 34.9375 21.3779 34.3166 21.3779H32.3705C32.2607 21.3779 32.1625 21.3475 32.0706 21.3031C31.9795 21.3475 31.8805 21.3779 31.7715 21.3779H28.4372C28.3258 21.3779 28.2237 21.3475 28.1318 21.3C28.0391 21.346 27.9386 21.3779 27.828 21.3779H26.8254C26.4428 21.3779 26.1343 21.0686 26.1343 20.6877V20.0801C26.1359 20.0208 26.1359 19.9305 26.1312 19.8565C26.0853 19.8534 26.0206 19.8502 25.9287 19.8502H25.5516V20.6877C25.5516 21.0694 25.2424 21.3779 24.8614 21.3779H23.8572C23.4747 21.3779 23.1662 21.0686 23.1662 20.6877V19.6251C22.8118 19.8362 22.3225 19.9749 21.6479 19.9749H21.0924V20.6877C21.0924 21.0694 20.7831 21.3779 20.4014 21.3779H18.4593C18.2622 21.3779 18.0737 21.2938 17.9428 21.1466L17.2191 20.3317L16.4564 21.1575C16.3255 21.2985 16.1424 21.3795 15.95 21.3795H11.9917C11.61 21.3795 11.3015 21.0694 11.3015 20.6885V16.5074C11.3015 16.1249 11.6108 15.8164 11.9917 15.8164H16.01C16.2071 15.8164 16.3933 15.899 16.5234 16.0454L17.2494 16.8533L18.0059 16.0368C18.1368 15.8958 18.3198 15.8164 18.5123 15.8164H21.7047C22.4043 15.8164 22.8967 15.9714 23.2465 16.2004C23.3594 15.9745 23.5869 15.8164 23.8572 15.8164H26.1647C26.696 15.8164 27.2102 15.8366 27.6924 16.0945C27.7446 16.1249 27.7781 16.1646 27.8264 16.1973C27.9402 15.9737 28.1653 15.8164 28.4348 15.8164H31.7691C32.0278 15.8164 32.2459 15.9652 32.3643 16.1763C32.6931 15.9535 33.1293 15.8164 33.6793 15.8164H35.6814C35.9829 15.8164 36.2307 16.0104 36.3265 16.2776C36.6693 15.9995 37.1375 15.8164 37.7615 15.8164H39.7652C40.1461 15.8164 40.4546 16.1257 40.4546 16.5074V17.397C40.4546 17.6409 40.33 17.8551 40.1391 17.9782C40.1445 17.9844 40.1523 17.9915 40.1593 17.9985C40.5021 18.3506 40.6579 18.7853 40.6579 19.3696C40.6579 20.6269 39.8142 21.3795 38.3995 21.3779Z" fill="#9598A1"/>
<path d="M22.8943 11.552C23.1545 11.4492 23.5986 11.1041 23.5986 10.438C23.5986 9.9714 23.4085 9.6987 23.0937 9.5117C22.7697 9.3248 22.3934 9.3115 21.8831 9.3115H19.585V13.4926H20.5852V11.9727H21.6564C22.0163 11.9727 22.2391 12.0047 22.3848 12.1511C22.5663 12.3521 22.5422 12.7136 22.5422 12.9652L22.5469 13.4926H23.5549V12.6707C23.5549 12.2976 23.5308 12.1122 23.389 11.9042C23.3002 11.7819 23.1132 11.6354 22.8943 11.552ZM22.2929 11.0254C22.1542 11.1088 21.9922 11.1111 21.7982 11.1111H20.5837L20.5845 10.1833H21.8153C21.9883 10.1833 22.1706 10.1918 22.289 10.2588C22.4183 10.3196 22.4986 10.4489 22.4986 10.6281C22.4986 10.8104 22.4214 10.9576 22.2929 11.0254Z" fill="#9598A1"/>
<path d="M25.2014 9.3123H24.1816V13.4933H25.2014V9.3123Z" fill="#9598A1"/>
<path d="M36.0049 9.3123V12.2243L34.2474 9.3123H32.7259V13.2666L31.0338 9.3123H29.5373L28.1257 12.5998H27.6777C27.4168 12.5998 27.1348 12.5499 26.9813 12.384C26.7935 12.1737 26.7063 11.8504 26.7063 11.4032C26.7063 10.9638 26.8224 10.6319 26.993 10.4559C27.1908 10.2627 27.3957 10.2081 27.7627 10.2081H28.7092V9.3123H27.7424C27.0537 9.3123 26.5466 9.4657 26.2248 9.7992C25.7964 10.2471 25.6865 10.8142 25.6865 11.4344C25.6865 12.1939 25.8704 12.6754 26.2225 13.0306C26.57 13.3851 27.1846 13.4926 27.6715 13.4933H28.8416L29.2171 12.5608H31.2925L31.682 13.4933H33.7161V10.3554L35.6122 13.4933H37.027V9.3123H36.0049ZM29.5747 11.6883L30.261 10.022L30.9536 11.6883H29.5747Z" fill="#9598A1"/>
<path d="M27.7652 10.8976C27.5299 10.8968 27.5057 10.9218 27.4769 10.949C27.4676 10.9623 27.3975 11.1126 27.3975 11.4024C27.3975 11.6891 27.4434 11.827 27.4769 11.8893C27.512 11.8987 27.5766 11.9096 27.6732 11.9096L28.1064 10.8976H27.7652Z" fill="#9598A1"/>
<path d="M31.7708 17.3714V16.5067H28.4365V20.6886H31.7708V19.8215L29.4306 19.8161V18.9856H31.7132V18.1318H29.4306V17.3714H31.7708Z" fill="#9598A1"/>
<path d="M21.7052 16.5082H18.5127L17.2413 17.8777L16.0105 16.5082H11.9922V20.6893H15.9505L17.2297 19.3049L18.4605 20.6893H20.4027V19.287H21.6491C22.5224 19.287 23.3887 19.0471 23.3887 17.8855C23.3887 16.7279 22.4983 16.5066 21.7052 16.5082ZM15.4449 19.8191H12.9894V18.9871H15.1823V18.1333H12.9894V17.3729H15.494L16.5869 18.5906L15.4449 19.8191ZM19.4071 20.3091L17.8724 18.6046L19.4071 16.9561V20.3091ZM21.6928 18.4363H20.4027V17.3714H21.7052C22.0667 17.3714 22.316 17.5186 22.316 17.8847C22.316 18.247 22.0776 18.4379 21.6928 18.4363Z" fill="#9598A1"/>
<path d="M27.1736 18.7449C27.4354 18.6405 27.8817 18.3008 27.8833 17.6316C27.8833 17.1549 27.6846 16.8931 27.3707 16.703C27.0404 16.5277 26.6727 16.5067 26.1671 16.5067H23.8604V20.6878H24.8638V19.1609H25.931C26.2956 19.1609 26.5176 19.1967 26.6641 19.3463C26.8495 19.5411 26.8254 19.9134 26.8254 20.1651V20.6878H27.828V19.8589C27.8249 19.4904 27.8046 19.3003 27.6621 19.0962C27.5779 18.9755 27.3948 18.8259 27.1736 18.7449ZM26.5714 18.2253C26.4374 18.3047 26.2715 18.3117 26.0767 18.3117H24.8622V17.3722H26.0931C26.2691 17.3722 26.4483 17.3761 26.5698 17.4478C26.6992 17.5156 26.7763 17.6457 26.7763 17.8241C26.7763 18.0025 26.6992 18.1481 26.5714 18.2253Z" fill="#9598A1"/>
<path d="M35.5897 18.4807C35.3599 18.2532 34.9875 18.1598 34.4453 18.1473L33.9086 18.1317C33.738 18.1317 33.6258 18.1208 33.5191 18.0842C33.3936 18.0367 33.3009 17.9307 33.3009 17.7726C33.3009 17.6401 33.3414 17.5396 33.4521 17.4711C33.5518 17.4033 33.6694 17.3955 33.8525 17.3955H35.6848V16.5059H33.6827C32.6341 16.5059 32.2539 17.1431 32.2539 17.7508C32.2539 19.0728 33.4248 19.0136 34.3581 19.044C34.5334 19.044 34.6378 19.0728 34.7141 19.1367C34.7842 19.1959 34.8356 19.2909 34.8356 19.4132C34.8356 19.527 34.7873 19.622 34.7188 19.6859C34.6346 19.7654 34.4999 19.7895 34.3113 19.7895H32.3731V20.6862H34.3191C35.3264 20.6862 35.8897 20.2663 35.8897 19.3665C35.8897 18.9372 35.7845 18.6817 35.5897 18.4807Z" fill="#9598A1"/>
<path d="M13.1454 9.3107L11.9449 12.1471L10.6369 9.3107H9.0056V13.2697L7.30496 9.3107H5.82167L4.03223 13.4918H5.11742L5.50538 12.5593H7.58541L7.96948 13.4918H10.0028V10.2144L11.4541 13.491L12.3336 13.4918L13.7826 10.2175L13.7865 13.4918H14.811V9.3107H13.1454ZM5.8614 11.6883L6.54072 10.0219L7.22394 11.6883H5.8614Z" fill="#9598A1"/>
<path d="M18.8921 10.1816V9.3107H15.5547V13.4925H18.8921V12.6278H16.5534V11.7919H18.8368V10.9357H16.5534V10.1816H18.8921Z" fill="#9598A1"/>
<path d="M39.6718 18.4807C39.4435 18.2532 39.0704 18.1598 38.5281 18.1473L37.9906 18.1317C37.8216 18.1317 37.7086 18.1208 37.6011 18.0842C37.4772 18.0367 37.3837 17.9307 37.3837 17.7726C37.3837 17.6401 37.4243 17.5396 37.5341 17.4711C37.6346 17.4033 37.753 17.3955 37.9353 17.3955H39.7684V16.5059H37.7647C36.7177 16.5059 36.3359 17.1431 36.3359 17.7508C36.3359 19.0728 37.5076 19.0136 38.4417 19.044C38.6162 19.044 38.7198 19.0728 38.7977 19.1367C38.8662 19.1959 38.9184 19.2909 38.9184 19.4132C38.9184 19.527 38.8694 19.622 38.8024 19.6859C38.7175 19.7654 38.5827 19.7895 38.3942 19.7895H36.4567V20.6862H38.4027C39.41 20.6862 39.9717 20.2663 39.9717 19.3665C39.9717 18.9372 39.8681 18.6817 39.6718 18.4807Z" fill="#9598A1"/>
</svg>
