<svg width="44" height="30" viewBox="0 0 44 30" fill="none" xmlns="http://www.w3.org/2000/svg">
<path d="M11.7257 13.1085C10.9015 13.1085 10.2697 13.3734 10.2697 13.3734L10.0952 14.4095C10.0952 14.4095 10.6163 14.1976 11.4055 14.1976C11.8534 14.1976 12.1806 14.2475 12.1806 14.6113C12.1806 14.8325 12.1409 14.9143 12.1409 14.9143C12.1409 14.9143 11.788 14.8855 11.6244 14.8855C10.5844 14.8855 9.49219 15.328 9.49219 16.6672C9.49219 17.722 10.2081 17.9627 10.653 17.9627C11.5013 17.9627 11.8675 17.4127 11.8862 17.4111L11.8464 17.8708H12.9051L13.3772 14.5599C13.3765 13.1537 12.151 13.1085 11.7257 13.1085ZM11.1321 16.9554C10.7589 16.9554 10.6615 16.6711 10.6615 16.5012C10.6615 16.1725 10.8399 15.7767 11.721 15.7767C11.9267 15.7775 11.9485 15.7985 11.9828 15.8048C12.0061 16.0073 11.8566 16.9554 11.1321 16.9554Z" fill="#9598A1"/>
<path d="M15.5487 14.2186C15.7177 14.2186 16.3698 14.2724 16.3698 14.2724L16.5217 13.2113C16.5217 13.2113 16.0994 13.1171 15.4123 13.1171C14.5227 13.1171 13.6205 13.4723 13.6205 14.6868C13.6205 16.0642 15.1256 15.9239 15.1256 16.5051C15.1256 16.8915 14.705 16.9234 14.3809 16.9234C13.8192 16.9234 13.3144 16.7318 13.3128 16.7396L13.1523 17.7921C13.1812 17.7999 13.4928 17.9385 14.5016 17.9385C14.772 17.9385 16.3199 18.0086 16.3199 16.4108C16.3199 14.9166 14.8873 15.2119 14.8873 14.6113C14.8873 14.3121 15.1202 14.2186 15.5487 14.2186Z" fill="#9598A1"/>
<path d="M18.0779 14.3541H18.7144L18.8678 13.223H18.268L18.3903 12.5219H17.1882C17.1617 12.5476 16.4785 16.4762 16.4785 16.953C16.4785 17.6627 16.8766 17.9774 17.4367 17.972C17.8753 17.9689 18.2173 17.8473 18.3381 17.8138L18.4884 16.7918C18.4059 16.7918 18.2851 16.8276 18.1784 16.8276C17.76 16.8276 17.7141 16.604 17.7406 16.4396L18.0779 14.3541Z" fill="#9598A1"/>
<path d="M23.1162 7.7915H20.9708C20.6825 8.181 20.4114 8.5955 20.166 9.0006H23.9934C23.7278 8.5783 23.4341 8.1748 23.1162 7.7915Z" fill="#9598A1"/>
<path d="M39.8562 21.392C39.8329 21.3569 39.8134 21.3304 39.7978 21.3141C39.7892 21.3063 39.7783 21.2977 39.7643 21.2938C39.7978 21.2915 39.8258 21.279 39.8461 21.258C39.8656 21.2369 39.8765 21.212 39.8765 21.1832C39.8765 21.1629 39.8703 21.1435 39.8586 21.1255C39.8469 21.1076 39.8297 21.0944 39.8087 21.0874C39.7892 21.0796 39.7557 21.0757 39.7098 21.0757H39.5742V21.4691H39.6381V21.3024H39.6747C39.6965 21.3024 39.7144 21.3071 39.7246 21.3164C39.7409 21.3296 39.7643 21.36 39.7916 21.4076L39.8258 21.4699H39.9045L39.8562 21.392ZM39.7144 21.2502H39.6365V21.1318H39.7098C39.7402 21.1318 39.7604 21.1341 39.7721 21.1388C39.7846 21.1435 39.7923 21.1505 39.7994 21.159C39.8056 21.1684 39.8087 21.1785 39.8087 21.1894C39.8087 21.2073 39.8025 21.2229 39.7892 21.2338C39.776 21.244 39.7503 21.2502 39.7144 21.2502Z" fill="#9598A1"/>
<path d="M24.6442 10.1871H19.4971C19.1683 10.8096 18.9502 11.2801 18.8887 11.397H25.1319C24.9909 10.981 24.8288 10.5782 24.6442 10.1871Z" fill="#9598A1"/>
<path d="M8.01882 12.1511L6.83391 15.6646L6.77236 12.1511H5.01797L4.05664 17.8763H5.21663L5.94814 13.5604L6.05565 17.8763H6.88377L8.4286 13.5604L7.74382 17.8763H8.9747L9.92279 12.1511H8.01882Z" fill="#9598A1"/>
<path d="M31.2155 13.1085C30.3897 13.1085 29.7587 13.3734 29.7587 13.3734L29.5834 14.4095C29.5834 14.4095 30.1054 14.1976 30.8938 14.1976C31.3417 14.1976 31.6697 14.2475 31.6697 14.6113C31.6697 14.8325 31.6284 14.9143 31.6284 14.9143C31.6284 14.9143 31.2763 14.8855 31.1111 14.8855C30.0719 14.8855 28.9805 15.328 28.9805 16.6672C28.9805 17.722 29.6972 17.9627 30.1412 17.9627C30.9888 17.9627 31.355 17.4127 31.3744 17.4111L31.3347 17.8708H32.3926L32.8647 14.5599C32.8671 13.1537 31.6409 13.1085 31.2155 13.1085ZM30.6235 16.9554C30.2495 16.9554 30.1529 16.6711 30.1529 16.5012C30.1529 16.1725 30.3313 15.7767 31.2124 15.7767C31.4173 15.7775 31.4391 15.7985 31.4742 15.8048C31.4968 16.0073 31.3464 16.9554 30.6235 16.9554Z" fill="#9598A1"/>
<path d="M39.8947 17.3488C39.8628 17.2896 39.8161 17.2445 39.7576 17.2133C39.7 17.1814 39.6408 17.1658 39.5785 17.1658C39.5185 17.1666 39.4585 17.1821 39.3993 17.2133C39.3409 17.2445 39.2957 17.2896 39.2629 17.3488C39.2302 17.4073 39.2139 17.468 39.2139 17.5311C39.2139 17.5942 39.2302 17.6542 39.2629 17.7119C39.2949 17.7695 39.3401 17.8155 39.3977 17.8482C39.4561 17.8801 39.5161 17.8965 39.5785 17.8965C39.6423 17.8965 39.7031 17.8801 39.76 17.8482C39.8176 17.8155 39.8628 17.7695 39.8947 17.7119C39.9282 17.6542 39.943 17.5942 39.943 17.5311C39.943 17.4665 39.9275 17.4057 39.8947 17.3488ZM39.8441 17.6815C39.8176 17.7298 39.7802 17.7664 39.7311 17.7952C39.6828 17.8217 39.633 17.8357 39.5808 17.8357C39.5278 17.8357 39.4772 17.8217 39.4297 17.7952C39.3806 17.768 39.344 17.7306 39.3159 17.6815C39.2879 17.6324 39.2754 17.5826 39.2754 17.5304C39.2754 17.4782 39.2887 17.4275 39.3175 17.3784C39.3447 17.3301 39.3814 17.2928 39.4312 17.2655C39.4811 17.2382 39.5302 17.2265 39.5808 17.2265C39.6314 17.2265 39.6813 17.239 39.7288 17.2655C39.7787 17.2928 39.8153 17.3294 39.8426 17.3784C39.8698 17.4275 39.8846 17.4782 39.8846 17.5304C39.8846 17.5826 39.8714 17.6332 39.8441 17.6815Z" fill="#9598A1"/>
<path d="M39.7017 17.6549C39.6791 17.6183 39.6589 17.5926 39.6441 17.577C39.6347 17.5684 39.6246 17.5614 39.6106 17.5568C39.6441 17.5544 39.6714 17.542 39.6916 17.5209C39.7111 17.5007 39.7228 17.4742 39.7228 17.4461C39.7228 17.4267 39.7165 17.4064 39.7041 17.3885C39.6916 17.3713 39.6752 17.3581 39.6558 17.3503C39.6363 17.3425 39.602 17.3386 39.5561 17.3386H39.4189V17.7313H39.4828V17.5645H39.5194C39.542 17.5645 39.5599 17.5692 39.5709 17.5778C39.5872 17.5918 39.609 17.6214 39.6379 17.6705L39.6714 17.732H39.75L39.7017 17.6549ZM39.5615 17.5108H39.4844V17.3916H39.5561C39.5872 17.3916 39.6075 17.3939 39.6199 17.3978C39.6301 17.4033 39.6394 17.4087 39.6456 17.4189C39.6527 17.429 39.6558 17.4376 39.6558 17.4508C39.6558 17.4679 39.6488 17.4827 39.6371 17.4937C39.6223 17.5069 39.5981 17.5108 39.5615 17.5108Z" fill="#9598A1"/>
<path d="M35.3005 13.1654C34.7622 13.1654 34.3626 13.9 34.3626 13.9L34.4701 13.2246H33.3498L32.5996 17.8848H33.8336C34.1849 15.8936 34.2488 14.2786 35.0832 14.5739C35.2304 13.8042 35.3722 13.5058 35.5319 13.181C35.5319 13.1818 35.4571 13.1654 35.3005 13.1654Z" fill="#9598A1"/>
<path d="M38.4012 12.1572L38.1417 13.766C38.1417 13.766 37.6899 13.1404 36.981 13.1404C35.8786 13.1412 34.9609 14.4694 34.9609 15.9948C34.9609 16.9803 35.451 17.9455 36.4512 17.9455C37.1718 17.9455 37.5707 17.443 37.5707 17.443L37.5185 17.8723H38.6878L39.6071 12.1549L38.4012 12.1572ZM36.8766 16.7769C36.4434 16.7769 36.2409 16.4139 36.2409 15.8436C36.2409 14.9111 36.6592 14.2965 37.1882 14.2965C37.6198 14.2973 37.8418 14.5941 37.8418 15.2936C37.8418 15.9286 37.5279 16.7769 36.8766 16.7769Z" fill="#9598A1"/>
<path d="M42.8673 0.7428H1.13272C0.506374 0.7428 0 1.24995 0 1.87552V28.1252C0 28.7507 0.506374 29.2579 1.13272 29.2579H42.8673C43.4936 29.2579 44 28.7507 44 28.1252V1.87552C44 1.24995 43.4936 0.7428 42.8673 0.7428ZM40.0495 21.4488C40.0168 21.508 39.9724 21.5532 39.9147 21.5852C39.8571 21.6171 39.7963 21.6335 39.734 21.6335C39.6701 21.6335 39.6093 21.6171 39.5517 21.5852C39.4948 21.5532 39.4496 21.508 39.4161 21.4488C39.3842 21.392 39.3678 21.3312 39.3678 21.2681C39.3678 21.205 39.3842 21.145 39.4169 21.0858C39.4489 21.0266 39.4956 20.9822 39.5533 20.9502C39.6117 20.9199 39.6709 20.9035 39.7332 20.9035C39.7948 20.9035 39.854 20.9199 39.9116 20.9502C39.97 20.9822 40.016 21.0266 40.0479 21.0858C40.0807 21.145 40.0962 21.2058 40.0962 21.2681C40.0962 21.3304 40.0822 21.3935 40.0495 21.4488ZM40.8659 15.0007C40.8675 21.2369 35.8147 26.2944 29.5777 26.296C26.661 26.2968 24.0013 25.1913 21.9977 23.3754C19.994 25.1882 17.3398 26.2929 14.4278 26.2929C8.19469 26.2929 3.13562 21.2346 3.13562 15.0007C3.13562 8.7918 8.15496 3.7483 14.3553 3.7078C14.3795 3.7078 14.4036 3.7078 14.4278 3.7078C17.3398 3.7078 19.9948 4.8125 21.9984 6.6253C24.0013 4.8117 26.6579 3.7063 29.5722 3.7055C35.8092 3.7031 40.8659 8.7583 40.8675 14.9953C40.8659 14.9968 40.8659 14.9976 40.8659 15.0007Z" fill="#9598A1"/>
<path d="M20.8418 22.1406C21.1994 22.5784 21.578 22.996 21.9963 23.3746C22.0057 23.3661 22.0158 23.3583 22.0252 23.3505C22.0252 23.3505 22.0244 23.3505 22.0244 23.3497H22.0267C22.438 22.975 22.8221 22.5714 23.1735 22.1406H20.8418Z" fill="#9598A1"/>
<path d="M22.3796 15.9426C22.3796 15.9426 22.5378 15.1636 22.5378 14.8465C22.5378 14.0543 22.1436 13.0883 20.8239 13.0883C19.6148 13.089 18.7197 14.3916 18.7197 15.864C18.7197 17.563 19.8408 17.9666 20.7966 17.9666C21.6785 17.9666 22.0665 17.7687 22.0665 17.7687L22.2784 16.6095C22.2784 16.6095 21.6076 16.9055 21.0015 16.9055C19.7107 16.9055 19.9366 15.9426 19.9366 15.9426H22.3796ZM20.8278 14.1672C21.5063 14.1672 21.3809 14.9299 21.3809 14.9907H20.0464C20.0464 14.912 20.1726 14.1672 20.8278 14.1672Z" fill="#9598A1"/>
<path d="M28.0177 13.248C28.6292 13.248 29.1208 13.5915 29.1208 13.5915L29.3171 12.3178C29.3171 12.3178 28.5895 12.0233 27.9631 12.0233C26.5757 12.0233 25.2256 13.2277 25.2256 15.4893C25.2256 16.9889 25.954 17.9791 27.389 17.9791C27.7941 17.9791 28.4407 17.8147 28.4407 17.8147L28.6557 16.5028C28.6557 16.5028 28.0667 16.798 27.6616 16.798C26.8078 16.7973 26.4658 16.146 26.4658 15.448C26.4658 14.0278 27.1997 13.248 28.0177 13.248Z" fill="#9598A1"/>
<path d="M19.334 19.7686C19.5295 20.1885 19.757 20.5881 20.0008 20.9776H24.0074C24.2505 20.5897 24.4694 20.1861 24.6649 19.7686H19.334Z" fill="#9598A1"/>
<path d="M25.2044 13.167C24.6661 13.167 24.2673 13.9016 24.2673 13.9016L24.3755 13.2262H23.2561L22.5059 17.8864H23.7399C24.0896 15.8959 24.1551 14.2802 24.9894 14.5755C25.1359 13.805 25.2769 13.5066 25.4366 13.181C25.4366 13.181 25.3618 13.1654 25.2044 13.167Z" fill="#9598A1"/>
</svg>
