<svg width="44" height="30" viewBox="0 0 44 30" fill="none" xmlns="http://www.w3.org/2000/svg">
<path d="M9.44269 12.3676C9.26429 12.2507 8.99864 12.1915 8.64963 12.1915L8.35126 12.1931C8.15572 12.1915 7.95551 12.3489 7.91733 12.539L7.64233 13.7231C7.59949 13.9148 7.72179 14.0713 7.91967 14.0713H8.14247C8.63716 14.0713 9.02045 13.9708 9.29545 13.7683C9.57045 13.5673 9.71145 13.2814 9.70522 12.9114C9.70678 12.6667 9.61875 12.4837 9.44269 12.3676Z" fill="#9598A1"/>
<path d="M14.3115 15.0966C14.2578 15.0981 13.8456 15.1449 13.6369 15.1706C13.4031 15.2041 13.2006 15.2508 13.0362 15.3061L12.6498 15.5694C12.5594 15.6832 12.5166 15.8281 12.5166 16.0143L12.6927 16.3555C12.8119 16.4225 12.9879 16.4552 13.2123 16.4552C13.3603 16.4552 13.5208 16.4194 13.6891 16.3508L14.0474 16.1662L14.1892 15.9776C14.2453 15.758 14.3614 15.2695 14.3746 15.2087L14.3115 15.0966Z" fill="#9598A1"/>
<path d="M42.8673 0.7428H1.13272C0.506374 0.7428 0 1.24995 0 1.87552V28.1244C0 28.75 0.506374 29.2579 1.13272 29.2579H42.8673C43.4936 29.2579 44 28.7507 44 28.1252V1.87552C44 1.24995 43.4936 0.7428 42.8673 0.7428ZM10.5045 14.5754C9.88442 15.0319 9.02125 15.2594 7.90567 15.2609H7.64547C7.44525 15.2609 7.24972 15.4183 7.20843 15.6068L6.89525 16.9608C6.85085 17.154 6.65531 17.3082 6.45744 17.3082H5.54596C5.34809 17.3082 5.22422 17.1493 5.27096 16.9608L6.55248 11.3805C6.59922 11.1889 6.7932 11.0354 6.99108 11.0323L8.89504 11.0315C9.30637 11.0354 9.66239 11.0604 9.97089 11.1165C10.2747 11.1741 10.5396 11.2707 10.764 11.4078C10.979 11.5434 11.1527 11.7249 11.2618 11.9446C11.3833 12.1643 11.437 12.4393 11.437 12.7665C11.437 13.5143 11.1293 14.1189 10.5045 14.5754ZM16.1619 13.8633L16.1276 14.0978L15.4623 16.974C15.4234 17.147 15.252 17.2942 15.0705 17.3152L15.058 17.3199H14.9263H14.2268H14.2104L14.2073 17.3168C14.0336 17.3004 13.9261 17.1532 13.9635 16.9756V16.974L13.965 16.9686L13.9993 16.8221L13.9946 16.8167L13.6511 17.0434L13.2771 17.2521L12.8362 17.4033C12.7006 17.436 12.5098 17.4555 12.2636 17.4555C11.8749 17.4555 11.5492 17.3487 11.303 17.1283C11.0584 16.9031 10.9322 16.6157 10.9322 16.2635C10.9322 15.8896 11.0187 15.5733 11.1924 15.31C11.3724 15.0483 11.6295 14.8441 11.9769 14.6915C12.3002 14.5442 12.689 14.4352 13.133 14.3736C13.5864 14.3082 13.9603 14.2606 14.4784 14.2279L14.6093 14.1469L14.6256 14.0184C14.6256 13.8205 14.5337 13.6842 14.3506 13.6039C14.1652 13.526 13.8863 13.4871 13.5217 13.4871C13.274 13.4839 12.9624 13.5346 12.6671 13.6016C12.3579 13.6717 12.2729 13.7177 12.1218 13.7628C12.0517 13.787 11.8826 13.7987 11.9458 13.5058L12.0572 13.0469C12.0572 13.0469 12.1117 12.7002 12.4584 12.6247C12.6258 12.5873 12.6523 12.5803 12.9258 12.5382C13.2958 12.4813 13.662 12.4525 14.0289 12.4525C14.7713 12.4525 15.3151 12.5491 15.6586 12.7431C16.0038 12.9363 16.1798 13.2386 16.1783 13.6444L16.1619 13.8633ZM17.6273 19.5301L16.6831 19.5316C16.4868 19.5316 16.4221 19.3758 16.5421 19.1842L17.3499 17.7757C17.3499 17.7757 17.4146 17.6954 17.3569 17.2358C17.2323 16.4053 16.6122 12.8747 16.6122 12.8747C16.567 12.6839 16.6885 12.5273 16.8848 12.5273L17.7021 12.5257C17.9521 12.5257 18.1531 12.6901 18.1983 12.8833L18.605 15.3318L18.7561 15.3334C18.8831 15.1082 20.1887 12.8677 20.1887 12.8677C20.3134 12.6792 20.5658 12.5195 20.7621 12.5195C20.7621 12.5195 21.6401 12.5218 21.8559 12.5195C22.18 12.5148 21.8309 13.0399 21.8309 13.0399L18.1975 19.1842C18.0807 19.3758 17.822 19.5301 17.6273 19.5301ZM27.0669 14.5995C26.4444 15.0537 25.5773 15.2835 24.4618 15.2835H24.2016C24.0052 15.2804 23.8089 15.4401 23.7637 15.6286L23.4552 16.9849C23.4101 17.1742 23.2106 17.3301 23.0174 17.3277L22.1036 17.3301C21.9096 17.3308 21.7819 17.1735 21.8286 16.9842L23.1109 11.4008C23.1576 11.2115 23.3493 11.0572 23.5472 11.0541L25.4535 11.0526C25.8625 11.0541 26.2224 11.083 26.5246 11.1367C26.8324 11.1928 27.0972 11.2894 27.3185 11.4273C27.5358 11.5667 27.7064 11.7451 27.8202 11.9664C27.937 12.1845 27.9939 12.4603 27.9955 12.7875C27.9955 13.5346 27.6831 14.1376 27.0669 14.5995ZM32.7211 13.8672L32.6876 14.1033L32.0208 16.9771C31.9834 17.1509 31.8112 17.2981 31.632 17.3199L31.6195 17.3246H31.4887C31.3001 17.3246 30.9028 17.3246 30.7883 17.3246H30.772L30.7704 17.3199C30.5936 17.3036 30.4845 17.1571 30.5273 16.9787L30.5258 16.9764L30.5297 16.9733L30.5601 16.8268L30.5546 16.8198L30.2134 17.0496L29.8371 17.2576L29.397 17.4064C29.2614 17.4415 29.0698 17.4563 28.8259 17.4601C28.4364 17.4601 28.1139 17.3495 27.8661 17.1306C27.62 16.9078 27.493 16.6188 27.493 16.2651C27.493 15.8935 27.5795 15.5757 27.754 15.3139C27.9324 15.0521 28.1933 14.8488 28.5377 14.6946C28.8633 14.5466 29.2544 14.439 29.6961 14.3767C30.1464 14.3113 30.5203 14.2638 31.0423 14.2318L31.1732 14.1492L31.1872 14.0207C31.1872 13.8244 31.0968 13.6865 30.9114 13.607C30.726 13.5284 30.4471 13.4894 30.0841 13.4894C29.8348 13.4878 29.5224 13.5377 29.2279 13.6039C28.9202 13.6756 28.8368 13.72 28.6865 13.7652C28.6101 13.7878 28.4458 13.801 28.5081 13.5081L28.6195 13.05C28.6195 13.05 28.6717 12.7026 29.0199 12.6278C29.1889 12.5912 29.2162 12.5826 29.4889 12.5429C29.8566 12.4837 30.2251 12.4548 30.592 12.4548C31.3313 12.4548 31.8743 12.553 32.221 12.747C32.5684 12.9402 32.7421 13.2409 32.7421 13.6468L32.7211 13.8672ZM35.6425 11.4468L34.421 16.9787L34.3781 17.0441C34.3057 17.2 34.1514 17.3262 33.9839 17.3262H33.1363L33.1208 17.3067C32.9595 17.2818 32.8543 17.1517 32.8925 16.9818L32.8909 16.9779L32.9275 16.8182L34.0696 11.6283L34.1101 11.4475L34.1561 11.3767C34.2301 11.224 34.3812 11.1001 34.5487 11.1001H35.3644C35.563 11.1001 35.6822 11.2551 35.6402 11.4452L35.6425 11.4468ZM37.2613 10.8485H36.9559V11.2543L36.9583 11.3634L36.9793 11.4366L37.0276 11.4834L37.1211 11.4982L37.1975 11.4873L37.2543 11.4701H37.2613V11.6034L37.1702 11.6213L37.0837 11.6283L36.8765 11.5543L36.8056 11.3206V10.8485H36.7028V10.7223H36.8056V10.4691H36.9559V10.7223H37.2613V10.8485ZM38.7376 11.0347V11.6088H38.5904V11.1024L38.581 10.9941L38.5615 10.9085L38.5101 10.8578L38.4112 10.8399L38.2873 10.8718L38.1603 10.9521L38.1627 10.9957L38.1642 11.0424V11.6104H38.0162V11.104L38.01 10.9941L37.989 10.9092L37.9391 10.8586L37.8386 10.8407L37.7163 10.8711L37.5924 10.9482V11.6104H37.446V10.723H37.5924V10.822L37.7342 10.7316L37.8807 10.6989L38.0349 10.7355L38.13 10.8415L38.2936 10.7316L38.4533 10.6989L38.6691 10.7869L38.7392 11.0347H38.7376Z" fill="#9598A2"/>
<path d="M30.8719 15.1013C30.8181 15.1005 30.4076 15.1488 30.2019 15.1753C29.9658 15.2088 29.7641 15.2548 29.6013 15.3109C29.4345 15.3763 29.299 15.4644 29.211 15.5742C29.1237 15.6879 29.0801 15.8328 29.0801 16.0198L29.2585 16.3602C29.3722 16.428 29.5459 16.4607 29.7773 16.4607C29.923 16.4607 30.0835 16.4249 30.251 16.3571L30.607 16.1725L30.7535 15.984C30.808 15.7619 30.9264 15.2751 30.9357 15.2143L30.8719 15.1013Z" fill="#9598A1"/>
<path d="M25.9977 12.3886C25.8177 12.271 25.556 12.2134 25.2062 12.2118L24.9094 12.2134C24.7131 12.2118 24.5136 12.3707 24.4731 12.56L24.1973 13.7434C24.1529 13.9335 24.2799 14.0924 24.477 14.0908H24.7037C25.1968 14.0908 25.5793 13.9896 25.8551 13.7917C26.1278 13.5884 26.2665 13.3048 26.2649 12.9316C26.2602 12.6886 26.1753 12.5055 25.9977 12.3886Z" fill="#9598A1"/>
</svg>
