<?xml version="1.0" encoding="utf-8"?>
<!-- Generator: Adobe Illustrator 24.2.3, SVG Export Plug-In . SVG Version: 6.00 Build 0)  -->
<svg version="1.1" id="Layer_1" xmlns="http://www.w3.org/2000/svg" xmlns:xlink="http://www.w3.org/1999/xlink" x="0px" y="0px"
	 viewBox="0 0 992 439.9" style="enable-background:new 0 0 992 439.9;" xml:space="preserve">
<style type="text/css">
	.st0{fill:#CE9B9B;}
	.st1{fill:#FFBD9C;}
	.st2{fill:#362349;}
	.st3{fill:#563B6B;}
	.st4{fill:#D89682;}
	.st5{fill:#262B40;}
	.st6{fill:#00053F;}
	.st7{opacity:0.8;}
	.st8{fill:#FFFFFF;}
	.st9{fill:#F8BD7A;}
	.st10{fill:#18214D;}
	.st11{fill:#FFF1E9;}
	.st12{fill:#7E2E3B;}
	.st13{opacity:0.35;}
	.st14{fill:#561A25;}
	.st15{fill:#F7F7F7;}
	.st16{opacity:0.24;}
	.st17{fill:#B7652E;}
	.st18{fill:#040055;}
	.st19{fill:#B56835;}
	.st20{fill:#422D51;}
	.st21{fill:#00B493;}
	.st22{fill:#009198;}
	.st23{fill:#FCA054;}
	.st24{fill:#9E6235;}
	.st25{fill:#0C0C0C;}
	.st26{fill:#C8BDD1;}
	.st27{fill:#B56326;}
	.st28{fill:#383838;}
	.st29{fill:#161616;}
	.st30{fill:#EE5050;}
	.st31{fill:#C48362;}
	.st32{fill:#2D2D2D;}
	.st33{fill:#694582;}
	.st34{fill:#191919;}
	.st35{fill:#663A3A;}
	.st36{fill:#3F2222;}
	.st37{fill:#111111;}
	.st38{fill:#432254;}
	.st39{fill:#1C1C1C;}
	.st40{fill:#D35050;}
</style>
<g>
	<g>
		<g>
			<g>
				<g>
					<g>
						<g>
							<g>
								<path class="st0" d="M274,437.6H69.9c-0.4,0-0.7,0.3-0.7,0.7c0,0.4,0.3,0.7,0.7,0.7h204.2c0-0.1,0-0.2,0-0.2
									C274.1,438.5,274.1,438,274,437.6z"/>
							</g>
						</g>
					</g>
				</g>
			</g>
			<g>
				<g>
					<g>
						<g>
							<path class="st1" d="M229,348.7c-0.3-0.2,9-6.3,0-7.9c-8.1-1.5,8.2-33.5,8.2-33.5l-9-24c0,0-14.9,42-21.3,55
								c-1.3,2.6,0.1,9.5,2.5,11.1c1.3,0.8,2.8,1.8,4.5,2.9C216.1,347.7,226.9,353.5,229,348.7z"/>
						</g>
					</g>
					<g>
						<g>
							<path class="st1" d="M221.8,333.1c-2.1,4.8-4.3,15.7-6.4,20.4c9.8,6.3,45.2,25.6,45.2,25.6l3.9-10.7
								C264.4,368.4,238.1,334.6,221.8,333.1z"/>
						</g>
					</g>
				</g>
			</g>
			<g>
				<g>
					<g>
						<path class="st1" d="M262.7,286.4l-2.1,3.8l-24.3,44.6l-0.4,0.7l-0.6,1c0,0-2.5,20-4.6,28.2c-2.6,10.5-19.3,44.9-19.3,44.9
							l-7.6,20l-8.9-8.7l32.4-137.1l0.8-2.6C228.2,281.1,263,285.5,262.7,286.4z"/>
					</g>
				</g>
			</g>
			<g>
				<g>
					<g>
						<rect x="196.2" y="434.2" class="st2" width="11.3" height="4.9"/>
					</g>
				</g>
				<g>
					<g>
						<g>
							<g>
								<g>
									<path class="st3" d="M198.3,422.7c-3.9,1.8-7.6,3.9-11,6.4c-3.2,2.4-7.9,5.2-12.4,5.4c-9.2,0.3-9.9,4.5-5.8,4.7
										c3.2,0.2,9.9,0.5,18,0c7-0.5,14.1-1.8,17.8-2.1c1.5-0.1,2.5-0.7,2.9-3.1c0.6-3.8,0-7.3-2.1-9.7c-1.8-2-4.7-2.7-7.2-1.6
										L198.3,422.7z"/>
								</g>
							</g>
						</g>
					</g>
					<g>
						<g>
							<g>
								<g>
									<path class="st1" d="M205.7,424.7c-1.8,4.9-11.3,11-33.6,10c0,0,22-6.2,22.9-13.8c0.2-1.6,7.2,0.9,10.2,2
										C205.9,423.1,206,423.9,205.7,424.7z"/>
								</g>
							</g>
						</g>
					</g>
				</g>
			</g>
			<g>
				<g>
					<g>
						
							<rect x="273.9" y="366.4" transform="matrix(0.9999 -1.002969e-02 1.002969e-02 0.9999 -3.7178 2.7907)" class="st2" width="4.9" height="11.3"/>
					</g>
				</g>
				<g>
					<g>
						<g>
							<g>
								<g>
									<path class="st3" d="M262.5,375.8c1.8,3.9,3.9,7.6,6.5,10.9c2.4,3.2,5.3,7.9,5.5,12.3c0.4,9.2,4.6,9.9,4.7,5.8
										c0.1-3.2,0.4-9.9-0.2-18c-0.5-7-1.9-14.1-2.3-17.8c-0.1-1.5-0.7-2.5-3.2-2.9c-3.8-0.6-7.3,0.1-9.6,2.2
										c-2,1.8-2.6,4.8-1.5,7.2L262.5,375.8z"/>
								</g>
							</g>
						</g>
					</g>
					<g>
						<g>
							<g>
								<g>
									<path class="st1" d="M264.4,368.2c4.9,1.8,11.1,11.4,10.4,33.6c0,0-7.2-18.9-14.1-22.7c-1.4-0.8,1.1-8.4,2.2-11.4
										C263.2,367,263.7,368,264.4,368.2z"/>
								</g>
							</g>
						</g>
					</g>
				</g>
			</g>
			<g>
				<g>
					<path class="st4" d="M211.5,351.1L211.5,351.1c-0.2-0.1-0.4-0.2-0.3-0.4l16.2-66.9c0-0.2,0.2-0.3,0.4-0.2
						c0.2,0,0.3,0.2,0.2,0.4l-16.2,66.9C211.8,351,211.7,351.1,211.5,351.1z"/>
				</g>
			</g>
			<g>
				<g>
					<g>
						<g>
							<path class="st5" d="M278,223.7c0.9,13.6-10.5,24.4-24.1,24.1c-13.6-0.4-23.2-11.8-22.9-25.4c0.1-4,1.3-14.2,2.8-19.9
								c3.6-13.8,10.6-24.3,20.2-24.1C267.6,178.7,277.1,209.4,278,223.7z"/>
						</g>
					</g>
				</g>
				<g>
					<g>
						<g>
							<path class="st5" d="M277.9,228c-5.2,46.7-20.2,67.6-20.2,67.6l-31.1-5.4l-0.4-0.1H226h-0.2v-0.6l0.1-1.6l5-65.5
								C231,222.3,279.2,216,277.9,228z"/>
						</g>
					</g>
				</g>
				<g>
					<g>
						<path class="st6" d="M226.1,290.2C226.1,290.2,226.1,290.1,226.1,290.2c-0.3-0.1-0.4-0.2-0.3-0.4c0.1-0.3,7.2-27.6,8.4-36.3
							c0-0.2,0.2-0.3,0.4-0.3s0.3,0.2,0.3,0.4c-1.2,8.7-8.4,36.1-8.4,36.3C226.4,290.1,226.3,290.2,226.1,290.2z"/>
					</g>
				</g>
			</g>
			<g>
				<g>
					<path class="st4" d="M219.4,334.5c-0.2,0-0.3-0.1-0.3-0.3c0-0.2,0.1-0.3,0.3-0.3c3.6,0,5.1-7.8,5.1-7.9c0-0.2,0.2-0.3,0.4-0.3
						s0.3,0.2,0.3,0.4C225.1,326.5,223.6,334.5,219.4,334.5z"/>
				</g>
			</g>
			<g>
				<g>
					<path class="st6" d="M252.7,214.9c-0.5,0-1-0.1-1.4-0.4c-0.6-0.4-1.1-1-1.3-1.7l-3.8-15c0-0.2,0.1-0.3,0.2-0.4l13.5-3.4
						c0.1,0,0.2,0,0.2,0c0.1,0,0.1,0.1,0.1,0.2l3.8,15c0.2,0.7,0.1,1.4-0.3,2.1c-0.4,0.6-1,1.1-1.7,1.3l-0.1-0.3l0.1,0.3l-8.8,2.2
						C253.1,214.8,252.9,214.9,252.7,214.9z M246.9,198l3.7,14.6c0.1,0.5,0.5,1,1,1.3s1,0.4,1.6,0.2l8.8-2.2c0.5-0.1,1-0.5,1.3-1
						s0.4-1,0.2-1.6l-3.7-14.6L246.9,198z"/>
				</g>
			</g>
			<g>
				<g>
					<path class="st6" d="M257.2,213.6c-1.2,0-2.3-0.8-2.7-2.1l-3.8-15c0-0.1,0-0.2,0-0.2c0-0.1,0.1-0.1,0.2-0.1l13.5-3.4
						c0.2,0,0.3,0.1,0.4,0.2l3.8,15c0.4,1.5-0.5,3-2,3.3l-0.1-0.3l0.1,0.3l-8.8,2.2C257.6,213.6,257.4,213.6,257.2,213.6z
						 M251.4,196.8l3.7,14.6c0.3,1.1,1.4,1.8,2.5,1.5l8.8-2.2l0,0c0.5-0.1,1-0.5,1.3-1s0.4-1,0.2-1.6l-3.7-14.6L251.4,196.8z"/>
				</g>
			</g>
			<g class="st7">
				<g>
					<g>
						<g>
							
								<rect x="130" y="219.9" transform="matrix(0.7151 -0.699 0.699 0.7151 -119.8527 155.3703)" class="st8" width="1.3" height="9.7"/>
						</g>
					</g>
				</g>
				<g>
					<g>
						<g>
							
								<rect x="125.8" y="224" transform="matrix(0.7244 -0.6893 0.6893 0.7244 -118.8691 151.9347)" class="st8" width="9.7" height="1.3"/>
						</g>
					</g>
				</g>
			</g>
			<g>
				<g>
					<g>
						<g>
							<polygon class="st9" points="197.5,158.4 192.5,154.9 196.3,150.3 225.6,151.8 225.8,177.6 							"/>
						</g>
					</g>
				</g>
				<g>
					<g>
						<path class="st1" d="M182.4,139.3c0,0,3.1,0.8,5.7,2.8c1.3,1,2.8,1.8,4.1,2.3c1.6,0.7,3,1.9,4,3.3l0,0l3.5,2.8
							c0,0-1.6,7.1-2.2,7.9c-0.8,1-3.3-1-3.3-1l-5.4-2.1l-5.5-13.9L182.4,139.3z"/>
					</g>
				</g>
				<g>
					<g>
						<g>
							<path class="st10" d="M196,153.3l-8.8,9.8c0,0-14-14.3-18.1-18.4c-0.6-0.6-0.6-1.6,0.1-2.1l8.1-7.4c0.4-0.4,1.2-0.4,1.6,0
								l1,1l13.3,13.4c0.9,0.9,1.6,1.6,1.6,1.6l1.1,1.1C196.2,152.6,196.2,153,196,153.3z"/>
						</g>
					</g>
				</g>
				<g>
					<g>
						<g>
							<path class="st11" d="M194.9,151.3l-7.8,8.7l-15.8-15.5l8.7-8.2l13.3,13.4C194.2,150.6,194.9,151.3,194.9,151.3z"/>
						</g>
					</g>
				</g>
				<g>
					<g>
						<path class="st10" d="M169.7,142.1l18.9,18.5l-2.1,1.8l-17.3-17.8c-0.6-0.6-0.6-1.6,0.1-2.1L169.7,142.1z"/>
					</g>
				</g>
				<g>
					<g>
						<g>
							<g>
								<g>
									<g>
										<g>
											<path class="st12" d="M226.4,53.2c2.6,2.5,6,3.7,9.2,3.5c2.2-0.2,4.2-1,5.8-2.6c0.8-0.9,1.4-1.8,1.7-2.8
												c1.2-3.5-0.5-7.6-3.8-11.2c-6.2-6.8-13.1-4.8-17.1-1.4c-0.4,0.3-0.7,0.6-1,0.9c-0.6,0.6-1,1.3-1.2,2.1
												C218.9,45.2,222.6,49.6,226.4,53.2z"/>
										</g>
									</g>
								</g>
							</g>
						</g>
						<g class="st13">
							<g>
								<g>
									<g>
										<g>
											<path d="M219.9,41.6l1.5,2.8l14.1,12.3c2.2-0.2,4.2-1,5.8-2.6c0.8-0.9,1.4-1.8,1.7-2.8c-0.1-0.2-0.2-0.4-0.3-0.6
												c-4.6-8.6-14.9-11.2-20.6-12c-0.4,0.3-0.7,0.6-1,0.9C220.5,40.2,220.1,40.9,219.9,41.6z"/>
										</g>
									</g>
								</g>
							</g>
						</g>
						<g>
							<g>
								<g>
									<g>
										<g>
											<path class="st12" d="M204.9,70.3c5.2,10.6,15.5,16.6,24.5,14.7c1.3-0.3,2.6-0.7,3.9-1.3c5.9-2.9,9.4-9.1,9.9-16.3
												c0.3-4.6-0.6-9.6-2.9-14.4c-5.9-12.2-18.7-16.6-28.6-12.1C192.8,49.5,198.9,58.1,204.9,70.3z"/>
										</g>
									</g>
								</g>
							</g>
						</g>
						<g class="st13">
							<g>
								<g>
									<g>
										<g>
											<path d="M229.4,85c1.3-0.3,2.6-0.7,3.9-1.3c5.9-2.9,9.4-9.1,9.9-16.3c-5,4.1-12.4,8.1-12.4,8.1S229.7,82.9,229.4,85z"/>
										</g>
									</g>
								</g>
							</g>
						</g>
						<g>
							<g>
								<g>
									<g>
										<g>
											<path class="st1" d="M225.4,115.5c-0.1,1.4,15.8-8.7,21.8-12.1c1-0.6,1.1-1.9,0.2-2.6c-4.6-3.6-15.4-13.7-14.8-24.8
												c0.3-4.6-18.1,8.8-18.1,8.8C229.1,99.7,226.2,107,225.4,115.5z"/>
										</g>
									</g>
								</g>
							</g>
						</g>
						<g>
							<g>
								<g>
									<g>
										<g>
											<path class="st4" d="M220.9,92c0.3-0.2,7.7-5.9,7.2-3.9c-0.4,1.6-6.1,5.9-6.1,5.9L220.9,92z"/>
										</g>
									</g>
								</g>
							</g>
						</g>
						<g>
							<g>
								<g>
									<g>
										<g>
											<path class="st1" d="M202.1,76.9c1.5,3.1,3.9,6.6,6.1,9.6c0.6,0.8,1.2,1.6,1.8,2.4c2.6,3.3,4.7,5.7,4.7,5.7
												s12.2-3.7,15.8-8.6c3.2-4.4,7.8-10,1.2-23.6s-17.5-21.7-26.1-17.6C197.1,48.9,195.5,63.3,202.1,76.9z"/>
										</g>
									</g>
								</g>
							</g>
						</g>
						<g>
							<g>
								<g>
									<g>
										<g>
											<path class="st1" d="M237.5,70.7c-0.8,4.4-3.5,7.7-5.9,7.2c-2.4-0.4-3.7-4.4-2.9-8.8s3.5-7.7,5.9-7.2
												C237,62.3,238.3,66.2,237.5,70.7z"/>
										</g>
									</g>
								</g>
							</g>
						</g>
						<g>
							<g>
								<g>
									<g>
										<g>
											<path class="st1" d="M199.9,70.3c0,0,1.2,3.1,1.8,7.2c0.4,2.5-0.9,6.7,0.6,6.3l6.2-2.6L199.9,70.3z"/>
										</g>
									</g>
								</g>
							</g>
						</g>
						<g>
							<g>
								<g>
									<g>
										<g>
											<path class="st14" d="M209.1,74.4c0.8,0.7,1,1.7,0.5,2.2s-1.5,0.3-2.2-0.5c-0.8-0.7-1-1.7-0.5-2.2
												C207.3,73.5,208.3,73.7,209.1,74.4z"/>
										</g>
									</g>
								</g>
							</g>
						</g>
						<g>
							<g>
								<g>
									<g>
										<g>
											<path class="st12" d="M212.8,67.9c0.6-0.1-2.1-0.6-6.9,1.4c-1.4,0.6-2.6,1.2-3.1,2c-0.4,0.6,0.9,1.3,2.3,0.4
												C206.7,70.5,209.6,68.6,212.8,67.9z"/>
										</g>
									</g>
								</g>
							</g>
						</g>
						<g>
							<g>
								<g>
									<g>
										<g>
											<polygon class="st14" points="210.2,71.9 206,74 206.9,75.6 210.5,72.4 											"/>
										</g>
									</g>
								</g>
							</g>
						</g>
						<g>
							<g>
								<g>
									<g>
										<g>
											<path class="st12" d="M236.5,54.8c-1,5.8-5.3,9.9-11.1,11.1c-7.8,1.6-23.8,1-27.4-5.5c-1.5-2.8,0.9-10.2,3-12.5
												c3.3-3.7,7.3-5.3,7.3-5.3h14.3l11,7.7L236.5,54.8z"/>
										</g>
									</g>
								</g>
							</g>
						</g>
						<g>
							<g>
								<g>
									<g>
										<g>
											<path class="st15" d="M208.2,86.5c0.6,0.8,1.2,1.6,1.8,2.4c1.4-0.3,3.5-2.1,2.9-4.9C212.7,82.9,209.4,85.6,208.2,86.5z"
												/>
										</g>
									</g>
								</g>
							</g>
						</g>
						<g>
							<g>
								<g>
									<g>
										<g>
											<path class="st4" d="M235.6,67.5c0.1-0.1,0.2-0.2,0.2-0.3c0-1.2-0.3-2-1-2.4c-0.9-0.6-1.9-0.1-2-0.1
												c-0.2,0.1-0.3,0.3-0.2,0.4c0.1,0.2,0.3,0.3,0.4,0.2c0,0,0.8-0.3,1.3,0c0.4,0.3,0.6,0.9,0.7,1.8c0,0.2,0.2,0.3,0.3,0.3
												C235.5,67.6,235.6,67.5,235.6,67.5z"/>
										</g>
									</g>
								</g>
							</g>
						</g>
						<g>
							<g>
								<g>
									<g>
										<g>
											<path class="st4" d="M234.7,72.5c0.1-0.1,0.2-0.2,0.2-0.3c0-0.2-0.1-0.3-0.3-0.4c-0.7,0-1.2-0.2-1.4-0.6
												c-0.4-0.6,0-1.6,0.2-2c0.1-0.2,0-0.4-0.1-0.5c-0.2-0.1-0.4,0-0.5,0.1c0,0.1-0.8,1.6-0.2,2.6c0.3,0.6,1,0.9,1.9,0.9
												C234.6,72.5,234.7,72.5,234.7,72.5z"/>
										</g>
									</g>
								</g>
							</g>
						</g>
					</g>
					<g class="st16">
						<g>
							<g>
								<path d="M225.2,59.4c-11.9,0.5-20.3-5.4-22.2-7.5c-0.4-0.4-0.6-0.7-0.4-1c0.1-0.3,0.4-0.4,0.6-0.3c0.2,0.1,0.3,0.2,0.3,0.4
									c0.7,1.1,13.1,11,30.1,6c0.3-0.1,0.5,0.1,0.6,0.3c0.1,0.3-0.1,0.5-0.3,0.6C230.8,58.8,227.9,59.3,225.2,59.4z"/>
							</g>
						</g>
					</g>
				</g>
				<g>
					<g>
						<path class="st17" d="M195.1,155.4c-2.2,1.2-3.9,3.2-4.8,5.5c-1.5,3.6-3,8.2-0.3,7.3c9.2-3.2,7.7-14.3,7.4-14.1
							C196.6,154.5,195.9,155,195.1,155.4z"/>
					</g>
				</g>
				<g>
					<g>
						<g>
							<path class="st9" d="M263,144.6c1.5,16.7-0.2,24.1,1.3,31.9c0.5,2.8,3.2,11.9,5.9,17.9c3.8,8.6-37.1,11-37.1,11l-0.9-18.8
								l-11.8-22.2l-0.5-1.6l-1.7-5.7c-2-6.4-2.1-13.3-0.4-19.8c1.9-7.4,5.6-18.9,8.2-22.5c8.5-11.5,13.5-15.9,18.6-15.6
								C247.2,99.3,259.7,108.2,263,144.6z"/>
						</g>
					</g>
				</g>
				<g>
					<g>
						<path class="st18" d="M255,124.7c-0.2,0-0.3-0.1-0.3-0.3c-1.4-7.5-5.2-9.6-8.3-10c-3.9-0.5-7.7,1.6-8.4,3.3
							c-0.1,0.2-0.3,0.2-0.4,0.2c-0.2-0.1-0.2-0.3-0.2-0.4c1-2.1,5.2-4.2,9.1-3.6c2.6,0.3,7.3,2.2,8.8,10.5
							C255.3,124.5,255.2,124.7,255,124.7L255,124.7z"/>
					</g>
				</g>
				<g>
					<g>
						<path class="st1" d="M199,160l0.8,5.6l-5.9,2.5c0,0-15.9-9.4-15.9-10.9c0-0.1,0-0.2,0-0.3c0,0,0-0.1,0-0.2
							c0-0.2,0.1-0.3,0.1-0.5v-0.1c0.1-0.5,0.4-1,0.6-1.5c0.1-0.2,0.2-0.4,0.3-0.6l0,0c0.2-0.4,0.4-0.7,0.4-0.7
							c6.6-10.1,13.5,3.1,13.5,3.1L199,160z"/>
					</g>
				</g>
				<g>
					<g>
						<g>
							<path class="st9" d="M249.6,156.4v0.2c-0.4,10.5-1.8,21.5-4.9,28.9l0,0c-1.1,2.5-2.3,4.7-3.8,6.3c-1.1,1.2-2.5,0.2-3.7,0.7
								c-1.6,0.7-3.4,2.3-5.7,1.7c-0.5-0.1-0.8,0.2-1.4,0l0,0c-1.2-0.3-2.5-0.8-3.8-1.4c-8-3.6-17.3-9.3-24.5-15.3
								c-2.8-2.4-5.7-4.5-8-6.1c-0.2-0.1-0.4-0.3-0.6-0.4c-2.5-1.7-4.2-2.8-4.2-2.8s3.9-2.5,6-6c3.1-5.3,2.4-8.1,2.4-8.1l4.1,1.9
								l0.6,0.3l23.8,10.8c0,0-2.1-37.1,4.1-44.7c3.2-3.8,12.3-5.4,16.6,3.5c1.3,2.6,2.4,9.3,2.8,17.5
								C249.7,147.3,249.7,151.8,249.6,156.4z"/>
						</g>
					</g>
				</g>
				<g>
					<g>
						<path class="st18" d="M227.7,168.1h-0.1l-7.4-3.4c-0.2-0.1-0.2-0.3-0.2-0.4c0.1-0.2,0.3-0.2,0.4-0.2l7,3.3l5.2-31
							c0-0.2,0.2-0.3,0.4-0.3s0.3,0.2,0.3,0.4l-5.3,31.4C228,168,227.9,168.1,227.7,168.1C227.8,168.1,227.8,168.1,227.7,168.1z"/>
					</g>
				</g>
				<g>
					<g>
						<path class="st18" d="M233.2,194.9c-1,0-2.1-0.1-3.2-0.4c-0.2,0-0.3-0.2-0.2-0.4c0-0.2,0.2-0.3,0.4-0.2
							c3.8,0.9,7.2,0.2,10.2-2.2c14.4-11.4,14.5-56.8,14.5-57.2c0-0.2,0.1-0.3,0.3-0.3l0,0c0.2,0,0.3,0.1,0.3,0.3
							c0,1.9-0.1,46.2-14.7,57.7C238.4,194,235.9,194.9,233.2,194.9z"/>
					</g>
				</g>
				<g>
					<g>
						<path class="st18" d="M230.7,150.1L230.7,150.1c-0.2,0-0.3-0.1-0.3-0.3c0.1-3.4-1.6-7.2-1.6-7.3c-0.1-0.2,0-0.4,0.2-0.4
							c0.2-0.1,0.4,0,0.4,0.2c0.1,0.2,1.7,4,1.7,7.5C231,150,230.9,150.1,230.7,150.1z"/>
					</g>
				</g>
				<g>
					<g>
						<path class="st18" d="M233.1,171.8c-0.1,0-0.1,0-0.2-0.1c-3.8-2.9-8-4.8-8-4.9c-0.2-0.1-0.2-0.3-0.2-0.4
							c0.1-0.2,0.3-0.2,0.4-0.2c0,0,4.3,2,8.2,4.9c0.1,0.1,0.2,0.3,0.1,0.4C233.3,171.7,233.2,171.8,233.1,171.8z"/>
					</g>
				</g>
				<g>
					<g>
						<path class="st1" d="M173.3,148.9c0,0-0.8,1.2-0.7,1.9c0.2,0.7,0.7,1.8,1.7,2.2c1.4,0.5,5.7,1.1,5.7,1.1l4-4.4l-8.8,1.1
							L173.3,148.9z"/>
					</g>
				</g>
				<g>
					<g>
						<path class="st1" d="M187.1,147c-0.5-0.2-1.2-0.1-1.6,0.3c-0.7,0.6-1.9,2.2-1.7,2.4c0.2,0.3,1.3-0.1,1.7,0l-0.5,2.1l4.6,1.5
							l-0.8-4.2C188.7,148.2,188,147.4,187.1,147L187.1,147z"/>
					</g>
				</g>
				<g>
					<g>
						<g>
							<path class="st4" d="M182,155.7c-0.1,0.1-0.2,0.2-0.3,0.2s-0.1,0-0.1,0s-1.8-0.8-2.9-1.3c0.1-0.2,0.2-0.4,0.3-0.6
								c1.1,0.5,2.8,1.3,2.8,1.3C182,155.3,182,155.5,182,155.7z"/>
						</g>
					</g>
				</g>
				<g>
					<g>
						<g>
							<path class="st4" d="M180.1,157.8c-0.1,0.1-0.2,0.2-0.3,0.2c0,0-0.1,0-0.2-0.1c-0.1,0-0.8-0.5-1.7-1c0,0,0-0.1,0-0.2
								c0-0.2,0.1-0.3,0.1-0.5c0.7,0.5,1.5,0.9,1.9,1.2C180.1,157.4,180.2,157.6,180.1,157.8z"/>
						</g>
					</g>
				</g>
				<g>
					<g>
						<path class="st4" d="M185.7,148.3v0.9c0,0,0,0.5-0.1,0.4c-0.1,0-0.9-0.1-0.9-0.1L185.7,148.3z"/>
					</g>
				</g>
				<g>
					<g>
						<path d="M177,138.1l-3.6,3.3c-0.2,0.2-0.5,0.2-0.7,0l0,0c-0.2-0.2-0.2-0.5,0-0.7l3.6-3.3c0.2-0.2,0.5-0.2,0.7,0l0,0
							C177.3,137.6,177.2,137.9,177,138.1z"/>
					</g>
				</g>
				<g>
					<g>
						<polygon class="st4" points="189.5,145.8 190.4,146.7 191.7,146.2 						"/>
					</g>
				</g>
				<g>
					<g>
						<path class="st1" d="M192.2,145.8c0,0-3.3,1-3.4,1.5c0,0.4,0.8,1.5,2.3,1.6c0.7,0.1,2.6,0.1,2.6,0.1L192.2,145.8z"/>
					</g>
				</g>
			</g>
			<g>
				<g>
					<g>
						<path class="st8" d="M167.2,136c-0.1,0-0.2,0-0.3-0.1l-7-4.5c-0.3-0.2-0.4-0.6-0.2-0.9c0.2-0.3,0.6-0.4,0.9-0.2l7,4.5
							c0.3,0.2,0.4,0.6,0.2,0.9C167.6,135.9,167.4,136,167.2,136z"/>
					</g>
				</g>
				<g>
					<g>
						<path class="st8" d="M170.9,132.9c-0.3,0-0.5-0.2-0.6-0.5l-2.3-7.5c-0.1-0.3,0.1-0.7,0.4-0.8c0.3-0.1,0.7,0.1,0.8,0.4l2.3,7.5
							c0.1,0.3-0.1,0.7-0.4,0.8C171,132.9,171,132.9,170.9,132.9z"/>
					</g>
				</g>
				<g>
					<g>
						<path class="st8" d="M177,131.6L177,131.6c-0.4,0-0.7-0.3-0.6-0.7l0.4-7.8c0-0.4,0.3-0.6,0.7-0.6s0.6,0.3,0.6,0.7l-0.4,7.8
							C177.6,131.3,177.4,131.6,177,131.6z"/>
					</g>
				</g>
				<g>
					<g>
						<path class="st8" d="M157.8,141.2c-0.4,0-0.6-0.3-0.6-0.6c0-0.4,0.3-0.6,0.6-0.6l8.2-0.1l0,0c0.4,0,0.6,0.3,0.6,0.6
							c0,0.4-0.3,0.6-0.6,0.6L157.8,141.2L157.8,141.2z"/>
					</g>
				</g>
			</g>
			<g>
				<g>
					<g>
						<path class="st19" d="M202.1,156.2c-0.8,3.9-2.9,10.9-8.3,15.2c-0.2-0.1-0.4-0.3-0.6-0.4c5.4-4.2,7.5-11.3,8.3-15.1
							L202.1,156.2z"/>
					</g>
				</g>
			</g>
			<g>
				<g>
					<g>
						<g>
							<g>
								<g>
									<g>
										<path class="st20" d="M141,389.6c0,2.1-10.9,3.9-24.3,3.9s-24.3-1.8-24.3-3.9s11.2-2.5,24.7-2.5
											C130.4,387.1,141,387.5,141,389.6z"/>
									</g>
								</g>
							</g>
						</g>
					</g>
					<g>
						<g>
							<g>
								<g>
									<g>
										<path class="st21" d="M161.7,289.2c0,0,0,0.2,0,0.6c-0.2,4.7-2.5,36.7-20.9,63.9c-19.9,29.5-9.4,40.6-9.4,40.6h-11.6
											c0,0,5.1-86.4,41.4-104.8C161.4,289.4,161.5,289.3,161.7,289.2z"/>
									</g>
								</g>
							</g>
						</g>
					</g>
					<g>
						<g>
							<g>
								<g>
									<g>
										<g>
											<path class="st22" d="M161.7,289.2c0,0,0,0.2,0,0.6c-1.9,3.2-14.1,23.5-25,49.3c-12.2,28.9-9.9,51.9-9.9,52.1
												s-0.1,0.3-0.3,0.3l0,0c-0.1,0-0.3-0.1-0.3-0.3c0-0.2-2.4-23.4,9.9-52.4c11-25.9,23.2-46.3,25.1-49.4
												C161.4,289.4,161.5,289.3,161.7,289.2z"/>
										</g>
									</g>
								</g>
							</g>
						</g>
					</g>
					<g class="st16">
						<g>
							<g>
								<g>
									<g>
										<path d="M124,362.2l6,13c0,0-2,7.9-1.3,11.5c0.7,3.7,1,4.6,1,4.6h-3.4l-2.7-27.2L124,362.2z"/>
									</g>
								</g>
							</g>
						</g>
					</g>
					<g>
						<g>
							<g>
								<g>
									<g>
										<path class="st21" d="M119.4,394.3h-10c0,0-5.5-27.5-28.7-48.8c-0.3-0.3-0.4-0.7-0.3-1c0-0.2,0.1-0.4,0.3-0.5
											c0.3-0.3,0.7-0.5,1.1-0.4c5.4,1,16.8,4.9,28.8,19.9C127.4,384.3,119.4,394.3,119.4,394.3z"/>
									</g>
								</g>
							</g>
						</g>
					</g>
					<g>
						<g>
							<g>
								<g>
									<g>
										<path class="st21" d="M130,395.7h-9.7c0,0-1.6-4.6-9.7-32.3c-7.5-25.7,9.1-66.3,11.4-71.9l0,0c0.2-0.4,0.3-0.6,0.3-0.6
											c0.1,0,0.2-0.1,0.3-0.1c3.9-1.2,10.8,19.6,5.1,36.7C116.7,361,130,395.7,130,395.7z"/>
									</g>
								</g>
							</g>
						</g>
					</g>
					<g>
						<g>
							<g>
								<g>
									<g>
										<g>
											<path class="st22" d="M123.1,393.3c0.1,0.2,0,0.3-0.2,0.4h-0.1c-0.1,0-0.2-0.1-0.3-0.2c-4.7-12.4-9.9-39.8-4.7-64.7
												c4.4-21.5,4.4-34.3,4.3-37.2l0,0c0.2-0.4,0.3-0.6,0.3-0.6c0.1,0,0.2-0.1,0.3-0.1v0.1c0,0.1,0.8,13.4-4.3,38
												C113.3,353.7,118.4,381,123.1,393.3z"/>
										</g>
									</g>
								</g>
							</g>
						</g>
					</g>
					<g>
						<g>
							<g>
								<g>
									<g>
										<g>
											<path class="st22" d="M115.1,392.4c0,0.2-0.1,0.3-0.3,0.3l0,0c-0.2,0-0.3-0.1-0.3-0.3c-2.6-29.9-32.8-47.2-34.1-47.9
												c0-0.2,0.1-0.4,0.3-0.5C81.7,344.5,112.4,362,115.1,392.4z"/>
										</g>
									</g>
								</g>
							</g>
						</g>
					</g>
					<g>
						<g>
							<g>
								<g>
									<g>
										<path class="st23" d="M141,389.6l-0.8,7.7l-0.1,0.7l-0.6,6.2l-0.1,0.7l-3.4,34.4H95.7l-2.4-34.4v-0.7l-0.4-6.4v-0.7
											l-0.5-7.4c0,0,7,1.6,24.7,1.6C135.7,391.2,141,389.6,141,389.6z"/>
									</g>
								</g>
							</g>
						</g>
					</g>
				</g>
				<g>
					<g>
						<g>
							<path class="st24" d="M140.2,397.3l-0.1,0.7c-7.7,1.2-15.2,1.6-22.1,1.6c-10.2,0-19.1-0.9-25.2-1.8v-0.7
								C103.1,398.5,121.1,400.1,140.2,397.3z"/>
						</g>
					</g>
				</g>
				<g>
					<g>
						<g>
							<path class="st24" d="M139.6,404.1l-0.1,0.7c-7.8,1.2-15.4,1.6-22.3,1.6c-9.5,0-17.8-0.8-23.8-1.6v-0.7
								C103.8,405.5,121.1,406.9,139.6,404.1z"/>
						</g>
					</g>
				</g>
			</g>
			<g class="st7">
				<g>
					<path class="st8" d="M177.2,269.9c-1.7,0-3-1.4-3-3c0-1.7,1.4-3,3-3c1.7,0,3,1.4,3,3S178.9,269.9,177.2,269.9z M177.2,265.1
						c-1,0-1.8,0.8-1.8,1.8s0.8,1.8,1.8,1.8s1.8-0.8,1.8-1.8S178.2,265.1,177.2,265.1z"/>
				</g>
			</g>
			<g class="st7">
				<g>
					<path class="st8" d="M135.9,79.2c-2.3,0-4.3-1.9-4.3-4.3c0-2.3,1.9-4.3,4.3-4.3c2.3,0,4.3,1.9,4.3,4.3
						C140.1,77.3,138.2,79.2,135.9,79.2z M135.9,72c-1.6,0-3,1.3-3,3c0,1.6,1.3,3,3,3c1.6,0,3-1.3,3-3C138.8,73.3,137.5,72,135.9,72
						z"/>
				</g>
			</g>
		</g>
	</g>
</g>
<g>
	<g>
		<g>
			<g>
				<g>
					<g>
						<g>
							<g>
								<path class="st0" d="M1007.3,437.9H717.1c0.2,0.5,0.4,0.9,0.6,1.4h289.7c0.4,0,0.7-0.3,0.7-0.7
									C1008.1,438.2,1007.7,437.9,1007.3,437.9z"/>
							</g>
						</g>
					</g>
				</g>
			</g>
			<g>
				<g>
					<g>
						<g>
							<g>
								<g>
									<path class="st5" d="M958.4,432.8c0,0-3.8,3-14.4,3.7c-12.5,0.9-14.4-1-14.4-1l-1.6-31c-2.4-47.2-8.2-94.3-17.4-140.7
										l-3.9-19.6l9.2,1l15.7-10.1c0.5-0.3,0.9-0.8,1.2-1.4l0,0c1.1-2.9,4-9.5,4.5-6.4l8.8,59.7c4.3,29.1,7.3,58.3,8.9,87.6
										L958.4,432.8z"/>
								</g>
							</g>
						</g>
					</g>
				</g>
			</g>
			<g>
				<g>
					<g>
						<g>
							<g>
								<g>
									<g>
										<path class="st25" d="M857.6,436.7c-0.3,0.7,0.1,1.4,0.8,1.5c1.2,0.3,3,0.7,3.8,0.8c6.9,0.9,12.1,0.9,16.5,0.8
											c5.7-0.1,14.7-2.3,14.7-2.3v1.9h9.1c0,0,0.9-10.1-0.5-13.3c-0.7-1.7-5.1-6.1-5.1-6.1l-1.3,3.1l-18.2-4.6
											c0,0,6.6,8.1-1.4,10.9c-0.1,0.1-0.3,0.1-0.4,0.2c-0.4,0.2-0.6,0.6-1,0.8c-0.2,0.1-1.8,0.4-2.4,0.5
											c-0.2,0.1-0.3,0.1-0.5,0.1c-0.1,0-0.2,0.1-0.3,0.1c-0.2,0-0.4,0.1-0.5,0.1c-0.7,0.2-1.6,0.4-2.4,0.6h-0.1
											c-0.2,0-0.3,0.1-0.5,0.1l0,0c-0.1,0-0.2,0-0.3,0.1c-6.4,1.2-8.9,2.6-9.6,3.7c-0.1,0.1-0.1,0.2-0.1,0.2
											C857.9,435.9,857.8,436.3,857.6,436.7z"/>
									</g>
								</g>
							</g>
						</g>
					</g>
				</g>
			</g>
			<g>
				<g>
					<g>
						<g>
							<g>
								<path class="st8" d="M942.6,142.5l-7.1,62.5l-56.9,4H878l-0.1-1.5l-7-61.1l-0.9-28.3c-0.3-3.6,2-6.9,5.5-7.8l28.1-7.7
									l17.8,2.1l11.5,2.6L942.6,142.5z"/>
							</g>
						</g>
					</g>
				</g>
			</g>
			<g>
				<g>
					
						<rect x="897.2" y="110.9" transform="matrix(0.9993 -3.846490e-02 3.846490e-02 0.9993 -5.4442 34.6411)" class="st26" width="0.6" height="95.8"/>
				</g>
			</g>
			<g>
				<g>
					
						<rect x="915.3" y="107.9" transform="matrix(0.9996 -2.766469e-02 2.766469e-02 0.9996 -4.0012 25.3896)" class="st26" width="0.6" height="98.8"/>
				</g>
			</g>
			<g>
				<g>
					<g>
						<g>
							<path class="st23" d="M775.2,429.1c0,0-29.9,1.8-29.9,8.8s32.8,3.4,32.8,3.4L775.2,429.1z"/>
						</g>
					</g>
				</g>
				<g>
					<g>
						<path class="st27" d="M757.1,441.3L757.1,441.3c-0.3,0-6.9-0.4-8.7-3.1c-0.3-0.4-0.3-0.8-0.1-1.3c0.9-2.2,8-3.6,8.8-3.8
							c0.2,0,0.3,0.1,0.4,0.2c0,0.2-0.1,0.3-0.2,0.4c-2.1,0.4-7.7,1.9-8.3,3.4c-0.1,0.2-0.1,0.4,0.1,0.7c1.6,2.4,8.1,2.8,8.2,2.8
							c0.2,0,0.3,0.2,0.3,0.3C757.4,441.2,757.3,441.3,757.1,441.3z"/>
					</g>
				</g>
				<g>
					<g>
						<path class="st27" d="M762.8,441.3c-0.2,0-0.3-0.1-0.3-0.3l-1.1-8.5c0-0.2,0.1-0.3,0.3-0.3s0.3,0.1,0.3,0.3l1.1,8.5
							C763.2,441.1,763.1,441.3,762.8,441.3C762.9,441.3,762.9,441.3,762.8,441.3z"/>
					</g>
				</g>
				<g>
					<g>
						<path class="st27" d="M768.3,440.8c-0.2,0-0.3-0.1-0.3-0.3l-1.1-8.5c0-0.2,0.1-0.3,0.3-0.3s0.3,0.1,0.3,0.3l1.1,8.5
							C768.6,440.6,768.5,440.8,768.3,440.8L768.3,440.8z"/>
					</g>
				</g>
			</g>
			<g>
				<g>
					<g>
						
							<rect x="775" y="383.2" transform="matrix(2.388083e-02 -0.9997 0.9997 2.388083e-02 355.9244 1188.8165)" class="st28" width="23.5" height="57.9"/>
					</g>
				</g>
			</g>
			<g>
				<g>
					<g>
						<path class="st28" d="M794.9,405.9c0.1,0.1,20.1-0.4,20.8-0.4c15.6-0.2,28.8-1.3,34.5,5.5c6.3,7.5,0.9,18.8-4.7,21
							c-5.7,2.2-67.5,9.4-67.5,9.4l-4.2-18l38.6-9.7L794.9,405.9z"/>
					</g>
				</g>
			</g>
			<g>
				<g>
					<g>
						<path class="st28" d="M777.1,405.6c-0.1,0.1-20.1-0.6-20.8-0.6c-15.6-0.4-28.8-1.5-34.5,5.2c-6.4,7.4-1.1,18.8,4.5,21
							s67.4,10,67.4,10l4.4-18l-38.5-10.1L777.1,405.6z"/>
					</g>
				</g>
			</g>
			<g>
				<g>
					<path class="st29" d="M796.6,429.6C796.6,429.6,796.5,429.6,796.6,429.6l-49.5-14c-0.2,0-0.3-0.2-0.2-0.4
						c0-0.2,0.2-0.3,0.4-0.2l49.4,14c0.2,0,0.3,0.2,0.2,0.4C796.8,429.5,796.7,429.6,796.6,429.6z"/>
				</g>
			</g>
			<g>
				<g>
					<path class="st29" d="M789,427.4c-0.1,0-0.3-0.1-0.3-0.2c0-0.2,0.1-0.3,0.2-0.4l40.8-11.3c0.2,0,0.3,0.1,0.4,0.2
						c0,0.2-0.1,0.3-0.2,0.4L789,427.4C789.1,427.4,789,427.4,789,427.4z"/>
				</g>
			</g>
			<g>
				<g>
					<path class="st29" d="M755.8,418c-0.1,0-0.1,0-0.2-0.1l-4.3-3.8c-0.1-0.1-0.1-0.3,0-0.4s0.3-0.1,0.4,0l4.3,3.8
						c0.1,0.1,0.1,0.3,0,0.4C756,418,755.9,418,755.8,418z"/>
				</g>
			</g>
			<g>
				<g>
					<path class="st29" d="M822.6,418c-0.1,0-0.2,0-0.2-0.1c-0.1-0.1-0.1-0.3,0-0.4l4.3-3.8c0.1-0.1,0.3-0.1,0.4,0
						c0.1,0.1,0.1,0.3,0,0.4l-4.3,3.8C822.7,418,822.7,418,822.6,418z"/>
				</g>
			</g>
			<g>
				<g>
					<g>
						<path class="st30" d="M813.3,405.3l-12.4,0.6l-30.7-0.3h-2.3c0,0-2.5-2.8-7.3-4.9c-0.7-0.3-2.3-48.6,6-59.8
							c0.1-0.2,0.3-0.4,0.4-0.5c0.2-0.2,0.3-0.3,0.5-0.5c0.1-0.1,0.1-0.1,0.2-0.2c0.3-0.3,0.5-0.5,0.8-0.6c0.1-0.1,0.1-0.1,0.2-0.1
							c0.3-0.2,0.6-0.3,0.9-0.5l0,0l0.1-0.1l0.1-0.1c12.6-6.3,26.5-2.4,26.5-2.4c0.9,0.5,2.8,1,5,1.9c0.4,0.2,0.8,0.4,1.2,0.5
							c0.5,0.2,1.1,0.5,1.6,0.8c0.2,0.1,0.4,0.2,0.6,0.3c0.9,0.5,1.7,1.1,2.5,1.7v0.1c0.9,0.7,1.7,1.5,2.4,2.5
							C813.6,349.2,813.3,405.3,813.3,405.3z"/>
					</g>
				</g>
			</g>
			<g>
				<g>
					<g>
						<g>
							<g>
								<g>
									<polygon class="st5" points="875.9,240.4 874.6,430.3 902.8,432.8 908.8,245.2 881.7,231.4 									"/>
								</g>
							</g>
						</g>
					</g>
				</g>
			</g>
			<g>
				<g>
					<g>
						<g>
							<g>
								<path class="st5" d="M938.7,250.4c-0.3,2.2-15.9,4.7-32.7,4c-16.8-0.6-30.9-2-30.1-14.1c1.5-24.6,0-31.6,9.6-28.7
									c10.7,3.2,50.3-3.7,50.3-3.7S939.2,246.3,938.7,250.4z"/>
							</g>
						</g>
					</g>
				</g>
				<g>
					<g>
						<path class="st6" d="M908.2,223.8c-1.2,0-2.3-1-2.3-2.2l-0.7-13.8h0.6l0.7,13.8c0,0.9,0.8,1.7,1.8,1.6l2.8-0.1v0.6
							L908.2,223.8C908.3,223.8,908.3,223.8,908.2,223.8z"/>
					</g>
				</g>
				<g>
					<g>
						<path class="st6" d="M911.3,229.8c-0.2,0-0.3-0.1-0.3-0.3l-0.6-17.8c0-0.2,0.1-0.3,0.3-0.3s0.3,0.1,0.3,0.3l0.6,17.8
							C911.6,229.6,911.5,229.8,911.3,229.8L911.3,229.8z"/>
					</g>
				</g>
			</g>
			<g>
				<g>
					<g>
						<g>
							<g>
								<path class="st1" d="M894.5,82c1.6,8.3-0.3,16.1-3.6,21.9c-1.9,3.4,0.8,7.6,4.7,7l24.2-3.6c0,0-13-15-8.1-31.4l-18,2.7
									C893.8,78.6,894,79.6,894.5,82z"/>
							</g>
						</g>
					</g>
				</g>
			</g>
			<g>
				<g>
					<g>
						<g>
							<g>
								<path class="st31" d="M893.7,84.3c0,0,11.1,6.2,15,3.3l2.1-1.9c0.2,2.5-4.1,6.7-7.3,6.6C900.1,92.1,895.2,88.5,893.7,84.3z"
									/>
							</g>
						</g>
					</g>
				</g>
			</g>
			<g>
				<g>
					<g>
						<g>
							<g>
								<path class="st32" d="M897.4,86.3C886,84.7,882,70.9,880.9,59.1c-0.3-3.1-0.4-6.1-0.4-8.7c0-0.1,0-0.2,0-0.3
									c0.2-12,7.5-17.9,18.6-18.1c15.3-0.2,22,6.7,21.8,18.8C920.8,63,926.2,90.2,897.4,86.3z"/>
							</g>
						</g>
					</g>
				</g>
			</g>
			<g>
				<g>
					<g>
						<g>
							<g>
								<path class="st1" d="M919.5,65.2c-0.1,12.6-7.3,25.2-16.3,25.1c-9.1-0.1-19-14.6-18.9-27.2s6.4-28.5,15.5-28.4
									C908.9,34.7,919.7,52.6,919.5,65.2z"/>
							</g>
						</g>
					</g>
				</g>
			</g>
			<g>
				<g>
					<g>
						<g>
							<g>
								<path class="st9" d="M923.5,105.2l-4.9,7.5l-14-2.9l-12.8,4.2l-7.3-6.2l1.5-1.2l0.5-0.4l0.9-0.7l0.9-0.7l3.8-3.1
									c0,0,17,3.6,22.7-2l5.6,3.6l0.9,0.7l0,0l0.5,0.4L923.5,105.2z"/>
							</g>
						</g>
					</g>
				</g>
			</g>
			<g>
				<g>
					<g>
						<g>
							<g>
								<path class="st31" d="M903.6,78c-0.1,0-0.1-0.1-0.2-0.1c-0.1-0.1-0.1-0.3,0.1-0.4c0.7-0.4,1.4-0.8,2.1-1.2
									c0.6-0.3,1.3-0.7,1.5-0.9c-3.1-1.8-4.5-5-3.8-8.6c0-0.2,0.2-0.3,0.3-0.2c0.2,0,0.3,0.2,0.2,0.3c-0.7,3.4,0.6,6.4,3.5,8
									c0.3,0.1,0.3,0.3,0.3,0.4c0,0.4-0.6,0.7-1.8,1.4c-0.6,0.3-1.4,0.7-2,1.2C903.8,78,903.7,78,903.6,78z"/>
							</g>
						</g>
					</g>
				</g>
			</g>
			<g>
				<g>
					<g>
						<g>
							<g>
								<g>
									<path class="st26" d="M906.9,123.9c0,1.6-0.6,3-1.3,3s-1.3-1.3-1.3-3c0-1.6,0.6-3,1.3-3
										C906.3,120.9,906.9,122.3,906.9,123.9z"/>
								</g>
							</g>
						</g>
					</g>
				</g>
				<g>
					<g>
						<g>
							<g>
								<g>
									<path class="st26" d="M907.6,140.5c0,1.6-0.6,3-1.3,3s-1.3-1.3-1.3-3c0-1.6,0.6-3,1.3-3S907.6,138.9,907.6,140.5z"/>
								</g>
							</g>
						</g>
					</g>
				</g>
				<g>
					<g>
						<g>
							<g>
								<g>
									<path class="st33" d="M908.2,157.1c0,1.6-0.6,3-1.3,3s-1.3-1.3-1.3-3c0-1.6,0.6-3,1.3-3
										C907.6,154.1,908.2,155.4,908.2,157.1z"/>
								</g>
							</g>
						</g>
					</g>
				</g>
				<g>
					<g>
						<g>
							<g>
								<g>
									<path class="st33" d="M908.9,173.7c0,1.6-0.6,3-1.3,3s-1.3-1.3-1.3-3c0-1.6,0.6-3,1.3-3C908.3,170.7,908.9,172,908.9,173.7
										z"/>
								</g>
							</g>
						</g>
					</g>
				</g>
				<g>
					<g>
						<g>
							<g>
								<g>
									<path class="st26" d="M909.5,190.4c0,1.6-0.6,3-1.3,3s-1.3-1.3-1.3-3c0-1.6,0.6-3,1.3-3C909,187.4,909.5,188.7,909.5,190.4
										z"/>
								</g>
							</g>
						</g>
					</g>
				</g>
			</g>
			<g>
				<g>
					<g>
						<g>
							<g>
								<g>
									<path class="st1" d="M889.6,68.2c3.3,3.7,4.8,7.7,3.3,9.1c-1.5,1.3-5.4-0.6-8.7-4.2c-3.3-3.7-4.8-7.7-3.3-9.1
										C882.4,62.6,886.3,64.5,889.6,68.2z"/>
								</g>
							</g>
						</g>
					</g>
				</g>
				<g>
					<g>
						<g>
							<g>
								<g>
									<path class="st31" d="M881.5,66.8c-0.1,0-0.2-0.1-0.2-0.2c-0.2-0.7-0.2-1.2,0.1-1.6c0.5-0.6,1.5-0.6,1.6-0.6
										s0.3,0.1,0.3,0.3c0,0.2-0.1,0.3-0.3,0.3s-0.8,0-1.1,0.4c-0.2,0.2-0.2,0.6,0,1.1c0,0.2,0,0.3-0.2,0.4
										C881.6,66.8,881.6,66.8,881.5,66.8z"/>
								</g>
							</g>
						</g>
					</g>
				</g>
				<g>
					<g>
						<g>
							<g>
								<g>
									<path class="st31" d="M886,72.6L886,72.6c-1.9-1-3.9-4.1-4-4.3c-0.1-0.1,0-0.3,0.1-0.4s0.3,0,0.4,0.1c0,0,2,3.2,3.7,4
										c0.1,0.1,0.2,0.2,0.1,0.4C886.3,72.6,886.1,72.7,886,72.6z"/>
								</g>
							</g>
						</g>
					</g>
				</g>
			</g>
			<g>
				<g>
					<g>
						<g>
							<g>
								<g>
									<path class="st32" d="M917.7,59.6c-0.2-0.8-6.6-2.4-9.5-1.1c-3,1.4-2.7,3.7-2.1,3.2c0.6-0.4,3.7-1.6,5.5-1.6
										C913.3,60.1,917.8,60.1,917.7,59.6z"/>
								</g>
							</g>
						</g>
					</g>
				</g>
			</g>
			<g>
				<g>
					<g>
						<g>
							<g>
								<g>
									<path class="st32" d="M886.2,64c0-0.8,5.6-4.2,8.8-3.7s3.6,2.8,2.9,2.5c-0.7-0.2-4-0.5-5.7,0
										C890.6,63.3,886.2,64.5,886.2,64z"/>
								</g>
							</g>
						</g>
					</g>
				</g>
			</g>
			<g>
				<g>
					<g>
						<g>
							<g>
								<g>
									<g>
										<polygon class="st32" points="914.4,64.4 909.1,65 909.3,66.3 915,65.2 										"/>
									</g>
								</g>
							</g>
						</g>
					</g>
				</g>
				<g>
					<g>
						<g>
							<g>
								<g>
									<g>
										<path class="st32" d="M910.7,67.2c0.2,1.2,0.9,2.1,1.7,2c0.7-0.1,1.1-1.2,1-2.4c-0.2-1.2-0.9-2.1-1.7-2
											C911,64.9,910.5,65.9,910.7,67.2z"/>
									</g>
								</g>
							</g>
						</g>
					</g>
				</g>
			</g>
			<g>
				<g>
					<g>
						<g>
							<g>
								<g>
									<g>
										<polygon class="st32" points="891.1,67.1 896.2,66 896.5,67.2 890.8,68.1 										"/>
									</g>
								</g>
							</g>
						</g>
					</g>
				</g>
				<g>
					<g>
						<g>
							<g>
								<g>
									<g>
										<path class="st32" d="M895.4,68.7c0.1,1.2-0.4,2.3-1.1,2.3c-0.7,0.1-1.4-0.9-1.5-2.1s0.4-2.3,1.1-2.3
											C894.6,66.5,895.3,67.5,895.4,68.7z"/>
									</g>
								</g>
							</g>
						</g>
					</g>
				</g>
			</g>
			<g>
				<g>
					<g>
						<g>
							<g>
								<path class="st31" d="M901.6,81.6c-1.3-0.3-2.2-0.6-2.3-0.7s-0.2-0.2-0.2-0.4c0.1-0.1,0.2-0.2,0.4-0.2c0,0,2.5,1,4.8,0.8
									c2.9-0.3,4.7-1.8,4.7-1.8c0.1-0.1,0.3-0.1,0.4,0c0.1,0.1,0.1,0.3,0,0.4s-1.9,1.7-5.1,2C903.4,81.9,902.5,81.8,901.6,81.6z"
									/>
							</g>
						</g>
					</g>
				</g>
			</g>
			<g>
				<g>
					<g>
						<g>
							<g>
								<path class="st34" d="M886.1,50.4l-1.3,6.6l0,0c-1.9,1-4.2-0.3-4.3-2.4c-0.1-1.5-0.1-2.9-0.1-4.2c0.1,0,0.1,0,0.2-0.1
									C881.5,50.9,882.8,49.3,886.1,50.4z"/>
							</g>
						</g>
					</g>
				</g>
			</g>
			<g>
				<g>
					<g>
						<g>
							<g>
								<path class="st32" d="M919,62.9l-3.5-10.2v-0.1v-0.1c0,0-0.2,0.1-0.6,0.2c-0.5,0.2-1.4,0.4-2.6,0.8l0,0
									c-7.2,2.1-24.7,6.5-29.6,2.3c-3.9-3.4-7.9-11.7,0.4-18.1c14.3-11.2,27.9-2.2,33.4,5.8s4,8.6,4.4,11.8
									C921.4,58.4,919,62.9,919,62.9z"/>
							</g>
						</g>
					</g>
				</g>
			</g>
			<g>
				<g>
					<g>
						<g>
							<g>
								<g>
									<path class="st29" d="M915.5,52.4L915.5,52.4c0,0-0.2,0.1-0.6,0.2c-0.5,0.2-1.4,0.4-2.6,0.8l0,0c0.9-1.1,3.9-6.4,3.7-8.5
										c0-0.1,0-0.1,0-0.2c0-0.2,0.1-0.3,0.3-0.3c0.1,0,0.3,0.1,0.3,0.3v0.1C916.9,49.5,916.2,51.4,915.5,52.4z"/>
								</g>
							</g>
						</g>
					</g>
				</g>
			</g>
			<g>
				<g>
					<g>
						<g>
							<g>
								<path class="st31" d="M903.7,84.7c-0.8-0.2-1.3-0.5-1.3-0.5c-0.1-0.1-0.2-0.3-0.1-0.4c0.1-0.1,0.3-0.2,0.4-0.1
									c0.1,0.1,1.9,1.3,3.8-0.3c0.1-0.1,0.3-0.1,0.4,0c0.1,0.1,0.1,0.3,0,0.4C905.7,84.8,904.6,84.8,903.7,84.7z"/>
							</g>
						</g>
					</g>
				</g>
			</g>
			<g>
				<g>
					<g>
						<path class="st35" d="M798.9,274.3c3.2,1.4,5.9,10.7,5.6,14.4c-0.5,7.6-2.7,9.4-2.7,9.4l-5.5-14.7
							C796.4,283.5,796.8,273.3,798.9,274.3z"/>
					</g>
				</g>
			</g>
			<g>
				<g>
					<g>
						<g>
							<g>
								<path class="st1" d="M798.6,336.9c0,0-2.1,4.7-13.1,5.1c-7.5,0.3-14.8-2.8-12.2-5.1c2.4-2.1,4-8.9,3.5-16.5
									c0-0.7-0.1-1.3-0.2-2c-0.1-1-0.3-1.9-0.4-2.9c-0.4-2.2-0.6-3.2-0.6-3.2l16.9-2.1c-1,3.5-1.5,6.7-1.5,9.4c0,0.4,0,0.7,0,1
									C791.5,331.9,798.6,336.9,798.6,336.9z"/>
							</g>
						</g>
					</g>
				</g>
			</g>
			<g>
				<g>
					<g>
						<g>
							<g>
								<path class="st31" d="M791.4,319.4c0,0.4-0.1,0.8-0.3,1.3c-0.9,2.3-4.2,4.9-6.7,4.7c-2.4-0.2-5.6-2.2-7.6-5
									c0-0.7-0.1-1.3-0.2-2c2.8,1.5,9.8,4.8,12.7,2.8l1.7-1.5L791.4,319.4z"/>
							</g>
						</g>
					</g>
				</g>
			</g>
			<g>
				<g>
					<g>
						<g>
							<g>
								<path class="st35" d="M778.6,317.8c-12-1.6-13.8-12.9-14.6-23.9c-0.2-2.9-0.2-5.8-0.1-8.1c0-0.1,0-0.2,0-0.3
									c0.5-11.2,8-14.1,18.4-14c14.3,0.1,19.7,4.3,19.3,15.6C801.2,298.4,807.2,321.7,778.6,317.8z"/>
							</g>
						</g>
					</g>
				</g>
			</g>
			<g>
				<g>
					<g>
						<g>
							<g>
								<path class="st1" d="M800,300.5c-0.4,11.8-7.3,23.4-15.8,23.1s-17.4-14-17-25.8s6.7-26.5,15.1-26.2
									C790.7,271.8,800.4,288.7,800,300.5z"/>
							</g>
						</g>
					</g>
				</g>
			</g>
			<g>
				<g>
					<g>
						<g>
							<g>
								<path class="st31" d="M785.7,312.6c0.1,0,0.1-0.1,0.1-0.2s0-0.3-0.2-0.3c-0.7-0.2-1.5-0.4-2.2-0.5c-0.6-0.1-1.3-0.3-1.6-0.4
									c2.3-2.4,2.7-5.6,1.1-8.7c-0.1-0.1-0.2-0.2-0.4-0.1c-0.1,0.1-0.2,0.2-0.1,0.4c1.5,2.9,1.2,5.9-1,8.1
									c-0.2,0.2-0.2,0.4-0.1,0.5c0.1,0.4,0.7,0.5,2,0.8c0.7,0.1,1.4,0.3,2.1,0.5C785.6,312.6,785.6,312.6,785.7,312.6z"/>
							</g>
						</g>
					</g>
				</g>
			</g>
			<g>
				<g>
					<g>
						<g>
							<g>
								<g>
									<path class="st36" d="M798.6,298.1c-0.1-0.7-6.1-2.4-8.9-1.2s-2.6,3.4-2,3s3.5-1.5,5.1-1.4
										C794.5,298.5,798.7,298.6,798.6,298.1z"/>
								</g>
							</g>
						</g>
					</g>
				</g>
			</g>
			<g>
				<g>
					<g>
						<g>
							<g>
								<g>
									<path class="st36" d="M768.6,300.7c0-0.7,5.3-3.8,8.3-3.3s3.3,2.7,2.7,2.4c-0.7-0.2-3.8-0.6-5.3-0.2
										C772.7,300.1,768.6,301.2,768.6,300.7z"/>
								</g>
							</g>
						</g>
					</g>
				</g>
			</g>
			<g>
				<g>
					<g>
						<g>
							<g>
								<g>
									<g>
										<polygon class="st32" points="773.3,302.9 778.2,302 778.4,303.2 773,303.8 										"/>
									</g>
								</g>
							</g>
						</g>
					</g>
				</g>
				<g>
					<g>
						<g>
							<g>
								<g>
									<g>
										<path class="st32" d="M777.2,304.4c0.1,1-0.4,1.9-1,2c-0.6,0-1.2-0.8-1.2-1.8c-0.1-1,0.4-1.9,1-2S777.2,303.3,777.2,304.4
											z"/>
									</g>
								</g>
							</g>
						</g>
					</g>
				</g>
			</g>
			<g>
				<g>
					<g>
						<g>
							<g>
								<g>
									<g>
										<polygon class="st32" points="794.9,302.4 790,301.5 789.8,302.7 795.2,303.3 										"/>
									</g>
								</g>
							</g>
						</g>
					</g>
				</g>
				<g>
					<g>
						<g>
							<g>
								<g>
									<g>
										<path class="st32" d="M791,303.9c-0.1,1,0.4,1.9,1,2c0.6,0,1.2-0.8,1.2-1.8c0.1-1-0.4-1.9-1-2
											C791.6,302,791,302.8,791,303.9z"/>
									</g>
								</g>
							</g>
						</g>
					</g>
				</g>
			</g>
			<g>
				<g>
					<g>
						<g>
							<g>
								<path class="st31" d="M782.9,315.4c-1.2-0.3-2.1-0.7-2.1-0.7c-0.1-0.1-0.2-0.2-0.1-0.4c0.1-0.1,0.2-0.2,0.4-0.1
									c0,0,2.3,1,4.4,0.9c2.8-0.2,4.5-1.6,4.5-1.6c0.1-0.1,0.3-0.1,0.4,0c0.1,0.1,0.1,0.3,0,0.4s-1.8,1.5-4.8,1.7
									C784.6,315.7,783.7,315.5,782.9,315.4z"/>
							</g>
						</g>
					</g>
				</g>
			</g>
			<g>
				<g>
					<g>
						<g>
							<g>
								<g>
									<path class="st35" d="M766.5,301.5l1.1-10v-0.1v-0.1c0,0,0.2,0,0.6,0c0.5,0,1.4,0.1,2.5,0.2l0,0c7,0.4,23.8,0.9,27.4-4
										c2.9-3.9,4.6-15.3-5.6-19c-25-9-25.7,4.6-29.1,13c-3.3,8.4-2.8,11.1-1.7,13.8C762.8,298.1,766.5,301.5,766.5,301.5z"/>
								</g>
							</g>
						</g>
					</g>
				</g>
				<g>
					<g>
						<g>
							<g>
								<g>
									<g>
										<path class="st36" d="M767.9,291.3c0,0-0.1,0,0.2,0c0.5,0,1.4,0.1,2.5,0.2l0,0c-1-0.8-4.8-5.1-5.1-6.9c0-0.1,0-0.1,0-0.2
											c0-0.2-0.2-0.2-0.3-0.2s-0.2,0.2-0.2,0.3v0.1C765.7,288.8,767.9,291.3,767.9,291.3z"/>
									</g>
								</g>
							</g>
						</g>
					</g>
				</g>
			</g>
			<g>
				<g>
					<g>
						<g>
							<g>
								<path class="st31" d="M784.5,317.9c-0.8-0.2-1.3-0.6-1.3-0.6c-0.1-0.1-0.2-0.3-0.1-0.4c0.1-0.1,0.3-0.2,0.4-0.1
									c0.1,0.1,1.9,1.3,3.9-0.2c0.1-0.1,0.3-0.1,0.4,0.1c0.1,0.1,0.1,0.3-0.1,0.4C786.5,318.1,785.3,318.1,784.5,317.9z"/>
							</g>
						</g>
					</g>
				</g>
			</g>
			<g>
				<g>
					<g>
						<g>
							<g>
								<g>
									<path class="st1" d="M772,302.6c3,3.5,4.3,7.3,2.9,8.6c-1.4,1.2-5-0.6-8-4.1s-4.3-7.3-2.9-8.6
										C765.4,297.2,769,299.1,772,302.6z"/>
								</g>
							</g>
						</g>
					</g>
				</g>
				<g>
					<g>
						<g>
							<g>
								<g>
									<path class="st31" d="M764.5,301.1c-0.1,0-0.2-0.1-0.2-0.2c-0.2-0.6-0.1-1.1,0.1-1.5c0.5-0.6,1.4-0.5,1.5-0.5
										s0.3,0.1,0.2,0.3c0,0.1-0.1,0.3-0.3,0.2c-0.2,0-0.8,0-1,0.3c-0.2,0.2-0.2,0.5-0.1,1c0,0.1,0,0.3-0.2,0.3
										C764.6,301.1,764.5,301.1,764.5,301.1z"/>
								</g>
							</g>
						</g>
					</g>
				</g>
				<g>
					<g>
						<g>
							<g>
								<g>
									<path class="st31" d="M768.5,306.7C768.5,306.7,768.5,306.6,768.5,306.7c-1.8-1-3.5-4-3.6-4.1s0-0.3,0.1-0.4s0.3,0,0.4,0.1
										c0,0,1.8,3,3.3,3.9c0.1,0.1,0.2,0.2,0.1,0.4C768.8,306.6,768.6,306.7,768.5,306.7z"/>
								</g>
							</g>
						</g>
					</g>
				</g>
			</g>
			<g>
				<g>
					<g>
						<g>
							<g>
								<g>
									<path class="st1" d="M801.3,305c-1.8,4.2-4.7,7.1-6.4,6.4s-1.7-4.8,0.1-9s4.7-7.1,6.4-6.4
										C803.2,296.7,803.1,300.7,801.3,305z"/>
								</g>
							</g>
						</g>
					</g>
				</g>
				<g>
					<g>
						<g>
							<g>
								<g>
									<path class="st31" d="M801.5,299.5L801.5,299.5c-0.1,0-0.2-0.2-0.2-0.3c0-0.2,0.1-0.7-0.2-1c-0.2-0.2-0.5-0.3-1-0.2
										c-0.1,0-0.3-0.1-0.3-0.2s0.1-0.3,0.2-0.3c0.6-0.1,1.1,0.1,1.4,0.4c0.5,0.6,0.3,1.5,0.3,1.5
										C801.8,299.4,801.7,299.5,801.5,299.5z"/>
								</g>
							</g>
						</g>
					</g>
				</g>
				<g>
					<g>
						<g>
							<g>
								<g>
									<path class="st31" d="M799.1,306.4c0,0-0.1,0-0.1-0.1c-0.1-0.1-0.1-0.3,0-0.4c1.3-1.2,2.2-4.5,2.2-4.6s0.2-0.2,0.3-0.2
										s0.2,0.2,0.2,0.3c0,0.1-1,3.5-2.4,4.8C799.3,306.4,799.2,306.4,799.1,306.4z"/>
								</g>
							</g>
						</g>
					</g>
				</g>
			</g>
			<g class="st7">
				<g>
					<g>
						<g>
							
								<rect x="976.8" y="225.3" transform="matrix(0.7151 -0.699 0.699 0.7151 117.7229 748.7574)" class="st8" width="1.3" height="9.4"/>
						</g>
					</g>
				</g>
				<g>
					<g>
						<g>
							
								<rect x="972.6" y="229.3" transform="matrix(0.7244 -0.6893 0.6893 0.7244 110.7849 737.0927)" class="st8" width="9.4" height="1.3"/>
						</g>
					</g>
				</g>
			</g>
			<g class="st7">
				<g>
					<g>
						<g>
							
								<rect x="839.2" y="92.9" transform="matrix(0.7151 -0.699 0.699 0.7151 171.0239 614.8525)" class="st8" width="1.3" height="9.4"/>
						</g>
					</g>
				</g>
				<g>
					<g>
						<g>
							
								<rect x="835.1" y="97.1" transform="matrix(0.7244 -0.6893 0.6893 0.7244 164.0625 605.8253)" class="st8" width="9.4" height="1.3"/>
						</g>
					</g>
				</g>
			</g>
			<g class="st7">
				<g>
					<g>
						<g>
							
								<rect x="407.7" y="225.7" transform="matrix(0.7151 -0.699 0.699 0.7151 -44.691 351.0466)" class="st8" width="1.3" height="9.4"/>
						</g>
					</g>
				</g>
				<g>
					<g>
						<g>
							
								<rect x="403.6" y="229.8" transform="matrix(0.7244 -0.6893 0.6893 0.7244 -46.3306 344.9565)" class="st8" width="9.4" height="1.3"/>
						</g>
					</g>
				</g>
			</g>
			<g class="st7">
				<g>
					<g>
						<g>
							
								<rect x="839.4" y="304.2" transform="matrix(0.8116 -0.5843 0.5843 0.8116 -19.0473 550.6115)" class="st8" width="9.4" height="1.3"/>
						</g>
					</g>
				</g>
				<g>
					<g>
						<g>
							
								<rect x="843.4" y="300.1" transform="matrix(0.8193 -0.5733 0.5733 0.8193 -22.2545 538.9558)" class="st8" width="1.3" height="9.4"/>
						</g>
					</g>
				</g>
			</g>
			<g>
				<g>
					<g>
						<path class="st8" d="M443.9,144c-0.1,0-0.2,0-0.3-0.1l-6.8-4.4c-0.3-0.2-0.4-0.6-0.2-0.9c0.2-0.3,0.6-0.4,0.9-0.2l6.8,4.4
							c0.3,0.2,0.4,0.6,0.2,0.9C444.3,143.9,444.1,144,443.9,144z"/>
					</g>
				</g>
				<g>
					<g>
						<path class="st8" d="M447.5,140.9c-0.3,0-0.5-0.2-0.6-0.4l-2.2-7.3c-0.1-0.3,0.1-0.7,0.4-0.8s0.7,0.1,0.8,0.4l2.2,7.3
							c0.1,0.3-0.1,0.7-0.4,0.8C447.6,140.9,447.6,140.9,447.5,140.9z"/>
					</g>
				</g>
				<g>
					<g>
						<path class="st8" d="M453.5,139.7L453.5,139.7c-0.4,0-0.6-0.3-0.6-0.7l0.3-7.6c0-0.3,0.3-0.6,0.7-0.6c0.3,0,0.6,0.3,0.6,0.7
							l-0.3,7.6C454.1,139.4,453.8,139.7,453.5,139.7z"/>
					</g>
				</g>
				<g>
					<g>
						<path class="st8" d="M434.8,149c-0.3,0-0.6-0.3-0.6-0.6s0.3-0.6,0.6-0.6l8-0.1l0,0c0.3,0,0.6,0.3,0.6,0.6s-0.3,0.6-0.6,0.6
							L434.8,149L434.8,149z"/>
					</g>
				</g>
			</g>
			<g>
				<g>
					<g>
						<path class="st8" d="M783.2,374.6c-0.3,0-0.5-0.2-0.6-0.5l-2.1-7.5c-0.1-0.3,0.1-0.7,0.4-0.8c0.3-0.1,0.7,0.1,0.8,0.4l2.1,7.5
							c0.1,0.3-0.1,0.7-0.4,0.8C783.3,374.6,783.2,374.6,783.2,374.6z"/>
					</g>
				</g>
				<g>
					<g>
						<path class="st8" d="M787.9,374.7c-0.1,0-0.2,0-0.3-0.1c-0.3-0.1-0.5-0.5-0.3-0.8l3.2-6.9c0.1-0.3,0.5-0.4,0.8-0.3
							s0.5,0.5,0.3,0.8l-3.2,6.9C788.4,374.6,788.1,374.7,787.9,374.7z"/>
					</g>
				</g>
				<g>
					<g>
						<path class="st8" d="M793.2,377.7c-0.2,0-0.3-0.1-0.4-0.2c-0.2-0.2-0.3-0.6,0-0.9l5.3-5.5c0.2-0.2,0.6-0.3,0.9,0
							c0.2,0.2,0.3,0.6,0,0.9l-5.3,5.5C793.5,377.7,793.4,377.7,793.2,377.7z"/>
					</g>
				</g>
				<g>
					<g>
						<path class="st8" d="M779,377.5c-0.1,0-0.3-0.1-0.4-0.2l-6-5.3c-0.3-0.2-0.3-0.6-0.1-0.9s0.6-0.3,0.9-0.1l6,5.3
							c0.3,0.2,0.3,0.6,0.1,0.9C779.3,377.4,779.2,377.5,779,377.5z"/>
					</g>
				</g>
			</g>
			<g>
				<g>
					<g>
						<g>
							<path class="st23" d="M796.6,429c0,0,29.9,1.8,29.9,8.8s-32.8,3.4-32.8,3.4L796.6,429z"/>
						</g>
					</g>
				</g>
				<g>
					<g>
						<path class="st27" d="M814.8,441.2c-0.2,0-0.3-0.1-0.3-0.3c0-0.2,0.1-0.3,0.3-0.3c0.1,0,6.6-0.4,8.2-2.8
							c0.2-0.2,0.2-0.4,0.1-0.7c-0.7-1.6-6.2-3-8.3-3.4c-0.2,0-0.3-0.2-0.2-0.4c0-0.2,0.2-0.3,0.4-0.2c0.8,0.2,7.9,1.6,8.8,3.8
							c0.2,0.4,0.1,0.9-0.1,1.3C821.7,440.8,815.1,441.2,814.8,441.2L814.8,441.2z"/>
					</g>
				</g>
				<g>
					<g>
						<path class="st27" d="M809,441.2L809,441.2c-0.2,0-0.3-0.2-0.3-0.4l1.1-8.5c0-0.2,0.2-0.3,0.3-0.3c0.2,0,0.3,0.2,0.3,0.3
							l-1.1,8.5C809.3,441.1,809.2,441.2,809,441.2z"/>
					</g>
				</g>
				<g>
					<g>
						<path class="st27" d="M803.6,440.7C803.6,440.7,803.5,440.7,803.6,440.7c-0.2,0-0.3-0.2-0.3-0.4l1.1-8.5
							c0-0.2,0.2-0.3,0.3-0.3c0.2,0,0.3,0.2,0.3,0.3l-1.1,8.5C803.9,440.5,803.7,440.7,803.6,440.7z"/>
					</g>
				</g>
			</g>
			<g>
				<g>
					<g>
						<path class="st8" d="M922,104.2l-4.7,5.8c-0.1,0.1-0.2,0.1-0.3,0.1l-12.3-3.3l-11.8,4.5h-0.1c-0.1,0-0.1,0-0.2-0.1
							c-1.6-1.1-4.6-3.3-6.5-4.7l0.5-0.4c1.7,1.2,4.3,3.1,6.2,4.5l11.7-4.4c0.1,0,0.1,0,0.2,0l12.2,3.2l4.6-5.6L922,104.2z"/>
					</g>
				</g>
			</g>
			<g>
				<g>
					<path class="st6" d="M953.1,435.4c0-0.3-0.8-29.1-2.9-58.3c-3.1-43.2-12.8-119.1-20.1-164.7l0.6-0.1
						c7.3,45.6,17.1,121.6,20.1,164.8c2.1,29.2,2.9,58,2.9,58.3H953.1z"/>
				</g>
			</g>
			<g>
				<g>
					<polygon class="st6" points="880.5,430.8 879.8,430.8 882.8,213.3 883.4,213.3 					"/>
				</g>
			</g>
			<g>
				<g>
					<g>
						<g>
							<g>
								<path class="st25" d="M957.8,439.1l-26.3,0.6v-0.2c-0.1-4.1,1.2-5.2,4.1-7.2c2.1-1.4,4.1-1.9,7.8-2.3c3.8-0.4,5.3,0,8.4,1.2
									C955.1,432.5,957.7,435,957.8,439.1L957.8,439.1z"/>
							</g>
						</g>
					</g>
				</g>
			</g>
			<g>
				<g>
					<g>
						<g>
							<g>
								<g>
									<path class="st37" d="M877.4,216.7c0.8-0.2,58.7-4.4,58.7-4.4l-0.5-8.7l-57.8,4.7L877.4,216.7z"/>
								</g>
							</g>
						</g>
					</g>
				</g>
				<g>
					<g>
						<g>
							<g>
								<g>
									
										<rect x="891.6" y="207.1" transform="matrix(0.998 -6.322763e-02 6.322763e-02 0.998 -11.592 56.8919)" class="st5" width="3" height="9"/>
								</g>
							</g>
						</g>
					</g>
				</g>
				<g>
					<g>
						<g>
							<g>
								<g>
									<polygon class="st5" points="930.7,212.7 927.7,212.9 927.2,204.3 930.2,204.1 									"/>
								</g>
							</g>
						</g>
					</g>
				</g>
				<g>
					<g>
						<g>
							<g>
								<g>
									<polygon class="st5" points="921.8,213.8 918.8,214 918.3,205 921.3,204.8 									"/>
								</g>
							</g>
						</g>
					</g>
				</g>
				<g>
					<g>
						<g>
							<g>
								<g>
									<polygon class="st5" points="886.4,216 883.4,216.9 882.9,208 885.9,207.7 									"/>
								</g>
							</g>
						</g>
					</g>
				</g>
				<g>
					<g>
						<g>
							<g>
								<g>
									<polygon class="st9" points="913.5,214 903.2,214.7 902.6,206.3 913,205.5 									"/>
								</g>
							</g>
						</g>
					</g>
				</g>
			</g>
			<g>
				<g>
					<g>
						<g>
							<g>
								<g>
									<g>
										<g>
											<path class="st1" d="M880.2,227.6c-1.1,0-0.4-8-2-4.6c-0.5,1.1,0.2,6.1-0.3,10.6c-0.1,1.3,0,4.5-0.7,5.2
												c-0.3,0.3-0.6-0.1-0.8-0.2c-0.1,0-0.1,0-0.2,0.1c-0.2,0.3-0.3,0.8-0.4,1.3l0,0c-0.1,0.4-0.3,0.8-0.5,0.9
												c-0.2,0.2-0.6-0.1-0.9-0.2c-0.1-0.1-0.3-0.1-0.4,0c-0.1,0-0.2,0.2-0.3,0.3l0,0c-0.2,0.3-0.4,0.7-0.7,0.7
												c-0.2,0-0.4-0.4-0.6-0.7c-0.1-0.1-0.2-0.2-0.3-0.3c-0.1,0-0.2,0-0.3,0c-0.4,0.1-0.9,0.7-1.1-0.2c-0.9-4.3,0-17.5-3-24.5
												c-1.2-2.9,10.7-8.9,10.7-8.9s1.3,3.4,2.5,10.4C881.2,219.2,883.1,227.6,880.2,227.6z"/>
										</g>
									</g>
								</g>
							</g>
						</g>
					</g>
				</g>
				<g>
					<g>
						<g>
							<g>
								<g>
									<g>
										<g>
											<g>
												<path class="st31" d="M874.4,240.8c-0.1-0.1-0.3-0.1-0.4,0c-0.1,0-0.2,0.2-0.3,0.3c-0.1-2.2-0.2-7.5-0.1-9
													c0-0.2,0.1-0.3,0.3-0.3s0.3,0.2,0.3,0.3C874.2,233.4,874.3,238.4,874.4,240.8z"/>
											</g>
										</g>
									</g>
								</g>
							</g>
						</g>
					</g>
				</g>
				<g>
					<g>
						<g>
							<g>
								<g>
									<g>
										<g>
											<g>
												<path class="st31" d="M876.4,238.6c-0.1,0-0.1,0-0.2,0.1c-0.2,0.3-0.3,0.8-0.4,1.3c0-2.2-0.1-8.8,0-10.3
													c0-0.2,0.2-0.3,0.3-0.3c0.2,0,0.3,0.2,0.3,0.3C876.3,231,876.3,235.8,876.4,238.6z"/>
											</g>
										</g>
									</g>
								</g>
							</g>
						</g>
					</g>
				</g>
				<g>
					<g>
						<g>
							<g>
								<g>
									<g>
										<g>
											<g>
												<path class="st31" d="M872.4,241.1c-0.1-0.1-0.2-0.2-0.3-0.3c-0.1,0-0.2,0-0.3,0c-0.1-4.5-0.2-10.4-0.2-10.7
													c0-0.2,0.1-0.3,0.3-0.4c0.2,0,0.3,0.1,0.3,0.3C872.3,230.4,872.4,238.1,872.4,241.1z"/>
											</g>
										</g>
									</g>
								</g>
							</g>
						</g>
					</g>
				</g>
				<g>
					<g>
						<g>
							<g>
								<g>
									<g>
										<g>
											<path class="st1" d="M875.4,204.8l3.4,5.5l-11.1,5.9l-0.7-0.9C867.1,215.3,869.8,208.9,875.4,204.8z"/>
										</g>
									</g>
								</g>
							</g>
						</g>
					</g>
				</g>
			</g>
			<g>
				<g>
					<g>
						<g>
							<g>
								<path class="st8" d="M864.7,173.6l16.2,34.5c0,0-3.7,6-5.3,7.5c-4.7,4.4-7.8,3.3-7.8,3.3l-21.2-30.4
									c-3.7-5.4-2.6-8.5-1.7-15c2.7-20.5,10.7-59.3,31-63.4c2.8-0.6,5.9,18.1,5.9,18.1l-16.7,44l-0.3,0.8l-0.1,0.4L864.7,173.6
									L864.7,173.6z"/>
							</g>
						</g>
					</g>
				</g>
			</g>
			<g>
				<g>
					<g>
						<path class="st26" d="M864.7,173.6L864.7,173.6l-5.6,1.3H859c-0.1,0-0.3-0.1-0.3-0.2c0-0.2,0.1-0.3,0.2-0.4l5.8-1.3V173.6z"/>
					</g>
				</g>
			</g>
			<g>
				<g>
					<path class="st26" d="M880.9,208.4c-0.1,0-0.2-0.1-0.3-0.2l-4.1-8.9c-0.1-0.2,0-0.3,0.2-0.4c0.2-0.1,0.3,0,0.4,0.2l4.1,8.9
						c0.1,0.2,0,0.3-0.2,0.4C881,208.4,881,208.4,880.9,208.4z"/>
				</g>
			</g>
			<g>
				<g>
					<path class="st26" d="M871.7,154.7L871.7,154.7c-0.2,0-0.3-0.2-0.3-0.4c3.8-20.9,3.3-29.7,3.3-29.8c0-0.2,0.1-0.3,0.3-0.3
						s0.3,0.1,0.3,0.3c0,0.1,0.5,8.9-3.3,29.9C872,154.6,871.9,154.7,871.7,154.7z"/>
				</g>
			</g>
			<g>
				<g>
					<path class="st26" d="M874.7,134.4c-0.2,0-0.3-0.1-0.3-0.3c0-1.8-1.9-7-1.9-7.1c-0.1-0.2,0-0.3,0.2-0.4s0.3,0,0.4,0.2
						c0.1,0.2,2,5.4,2,7.3C875,134.2,874.8,134.4,874.7,134.4z"/>
				</g>
			</g>
			<g>
				<g>
					<path class="st38" d="M936.6,409.8L936.6,409.8c-0.3-0.1-0.3-0.3-0.2-0.4c4.5-9.5,3.2-45.4,3.1-45.8c0-0.2,0.1-0.3,0.3-0.3
						s0.3,0.1,0.3,0.3c0.1,1.5,1.4,36.4-3.2,46.1C936.8,409.7,936.7,409.8,936.6,409.8z"/>
				</g>
			</g>
			<g>
				<g>
					<path class="st26" d="M924.8,169.9c0,3.7-1.5,6.8-3.4,6.8s-3.4-3-3.4-6.8c0-3.7,1.5-6.8,3.4-6.8
						C923.3,163.1,924.8,166.1,924.8,169.9z"/>
				</g>
			</g>
			<g>
				<g>
					<g>
						<g>
							<polygon class="st31" points="912.3,155.5 918.7,160.6 923.3,161.3 919.4,167.1 913.4,166.2 							"/>
						</g>
					</g>
				</g>
				<g>
					<g>
						<g>
							<path class="st39" d="M915.6,178.9h-11.3c-1,0-1.9-0.9-1.9-1.9v-24.7c0-1,0.9-1.9,1.9-1.9h11.3c1,0,1.9,0.9,1.9,1.9V177
								C917.5,178.1,916.7,178.9,915.6,178.9z"/>
						</g>
					</g>
				</g>
				<g>
					<g>
						<g>
							<path class="st1" d="M923.6,161.2c0,0-5.5,0.8-8.5,2.9c-2.6,1.9-2.8,7.8-0.2,9.2c0.6,0.3,1.2,0.5,1.9,0.7
								c2.8,0.7,5.8,0.2,8.5-1l4.6-2.2L923.6,161.2z"/>
						</g>
					</g>
				</g>
				<g>
					<g>
						<g>
							<path class="st1" d="M916.8,163.2c0,0-14.5,0.9-15,2c-0.4,0.9,6.1,1.6,9.1,1.4c2.9-0.2,5.5-0.2,5.5-0.2L916.8,163.2z"/>
						</g>
					</g>
				</g>
				<g>
					<g>
						<g>
							<path class="st1" d="M915.5,166.8l-6.7,0.4c0,0-4.8-0.1-6.5,0.1c-1.2,0.1-1.2,1-1.1,1.3c0.3,1.3,6.7,0.9,9.7,0.7
								c2.9-0.2,5.5-0.2,5.5-0.2L915.5,166.8z"/>
						</g>
					</g>
				</g>
				<g>
					<g>
						<g>
							<path class="st1" d="M916.2,169.6l-7.6,0.5c0,0-6.2,0-6.5,0c-1.1,0.2-0.9,1.6-0.1,1.8c1.6,0.6,7,0.4,9.5,0.2
								c2.9-0.2,5.6-0.1,5.6-0.1L916.2,169.6z"/>
						</g>
					</g>
				</g>
				<g>
					<g>
						<g>
							<path class="st1" d="M918.7,172.1c0,0-8.4,0.4-12.1,0.9c-1.1,0.1-1.2,0.5-1.2,0.9c0,0.5,1.8,0.7,2.2,0.8
								c2.7,0.1,4,0.1,6.6-0.1c2.9-0.2,5.7-0.2,5.7-0.2L918.7,172.1z"/>
						</g>
					</g>
				</g>
			</g>
			<g>
				<g>
					<g>
						<path class="st8" d="M932.7,107.3c20.8,4,39.5,65.6,34,75.4c-5.6,9.8-44.8-6-44.8-6s1-1.6,1.7-6.8c0.3-2.6,0-8.7,0-8.7
							l25.1,3.4c0,0-8.5-8.1-11.8-18.8C931.6,128.8,924.5,105.8,932.7,107.3z"/>
					</g>
				</g>
			</g>
			<g>
				<g>
					<path class="st26" d="M948.7,165C948.6,165,948.6,165,948.7,165l-25.2-3.1c-0.2,0-0.3-0.2-0.3-0.3c0-0.2,0.2-0.3,0.3-0.3
						l25.1,3.1c0.2,0,0.3,0.2,0.3,0.3C949,164.9,948.8,165,948.7,165z"/>
				</g>
			</g>
			<g>
				<g>
					<path class="st26" d="M937.7,182.5L937.7,182.5l-17.2-6c-0.2-0.1-0.2-0.2-0.2-0.4c0.1-0.2,0.2-0.2,0.4-0.2l17.1,6
						c0.2,0.1,0.2,0.2,0.2,0.4C938,182.4,937.9,182.5,937.7,182.5z"/>
				</g>
			</g>
			<g>
				<g>
					<path class="st26" d="M941.1,154.9c-0.2,0-0.3-0.1-0.3-0.3s-3.4-22-2.8-30.1c0-0.2,0.2-0.3,0.3-0.3c0.2,0,0.3,0.2,0.3,0.3
						c-0.6,8,2.8,29.7,2.8,29.9C941.4,154.7,941.3,154.9,941.1,154.9L941.1,154.9z"/>
				</g>
			</g>
			<g>
				<g>
					<path class="st26" d="M959.2,168.9c-0.1,0-0.1,0-0.2,0c-4.8-2.6-10.4-3.9-10.4-3.9c-0.1,0-0.2-0.2-0.2-0.3s0.1-0.3,0.2-0.3
						c3.6-0.9,4.9-0.8,4.9-0.8c0.2,0,0.3,0.1,0.3,0.3s-0.1,0.3-0.3,0.3l0,0c0,0-0.9,0-3.5,0.5c2,0.5,5.9,1.7,9.3,3.6
						c0.2,0.1,0.2,0.3,0.1,0.4C959.4,168.8,959.3,168.9,959.2,168.9z"/>
				</g>
			</g>
			<g>
				<g>
					<path class="st26" d="M938.6,135.2L938.6,135.2c-0.2,0-0.3-0.2-0.3-0.4s1.1-5.2,1.8-7.1c0.1-0.2,0.2-0.2,0.4-0.2
						c0.2,0.1,0.2,0.2,0.2,0.4c-0.7,1.9-1.7,7-1.7,7C938.9,135.1,938.8,135.2,938.6,135.2z"/>
				</g>
			</g>
			<g>
				<g>
					<path class="st1" d="M901.5,164.1c-0.1,0.9,0.4,1.3,0.4,1.3l6.3-1.1l-5.8-0.8C902.4,163.6,901.5,163.6,901.5,164.1z"/>
				</g>
			</g>
			<g>
				<g>
					<path class="st1" d="M902.4,167.3c-0.5,0-1.5,0.3-1.1,1.3l2.5-1.3C903.8,167.2,902.8,167.2,902.4,167.3z"/>
				</g>
			</g>
			<g>
				<g>
					<g>
						<path class="st26" d="M907.6,155.5L907.6,155.5h-2.3c-0.4,0-0.7-0.1-1-0.4c-0.3-0.3-0.4-0.6-0.4-1v-0.9c0-0.8,0.6-1.4,1.4-1.4
							l0,0h2.3c0.8,0,1.4,0.6,1.4,1.4v0.9C909,154.9,908.3,155.5,907.6,155.5z M907.6,154.9L907.6,154.9c0.4,0,0.8-0.3,0.8-0.7v-0.9
							c0-0.4-0.3-0.8-0.7-0.8h-2.3l0,0c-0.4,0-0.7,0.3-0.7,0.7v0.9c0,0.2,0.1,0.4,0.2,0.5c0.1,0.1,0.3,0.2,0.5,0.2L907.6,154.9z"/>
					</g>
				</g>
				<g>
					<g>
						<path class="st26" d="M908.7,157.3L908.7,157.3h-4.5c-0.2,0-0.3-0.1-0.3-0.3s0.1-0.3,0.3-0.3l0,0h4.5c0.2,0,0.3,0.1,0.3,0.3
							S908.9,157.3,908.7,157.3z"/>
					</g>
				</g>
			</g>
			<g>
				<g>
					<g>
						<g>
							<g>
								<g>
									<path class="st1" d="M921.1,70c-1.8,4.6-4.8,7.7-6.7,7s-1.9-5.1-0.1-9.7c1.8-4.6,4.8-7.7,6.7-7
										C922.9,61.1,922.9,65.4,921.1,70z"/>
								</g>
							</g>
						</g>
					</g>
				</g>
				<g>
					<g>
						<g>
							<g>
								<g>
									<path class="st31" d="M921.2,64.1L921.2,64.1c-0.2,0-0.3-0.2-0.2-0.3c0-0.2,0.1-0.8-0.2-1.1c-0.2-0.2-0.6-0.3-1-0.2
										c-0.2,0-0.3-0.1-0.3-0.2c0-0.2,0.1-0.3,0.2-0.3c0.7-0.1,1.2,0,1.5,0.4c0.6,0.6,0.3,1.6,0.3,1.6
										C921.5,64.1,921.3,64.2,921.2,64.1z"/>
								</g>
							</g>
						</g>
					</g>
				</g>
				<g>
					<g>
						<g>
							<g>
								<g>
									<path class="st31" d="M918.8,71.6C918.7,71.6,918.7,71.6,918.8,71.6c-0.2-0.2-0.2-0.4-0.1-0.5c1.3-1.4,2.3-4.9,2.3-5
										c0-0.2,0.2-0.3,0.3-0.2c0.2,0,0.2,0.2,0.2,0.3c0,0.2-1,3.8-2.4,5.2C919,71.6,918.9,71.6,918.8,71.6z"/>
								</g>
							</g>
						</g>
					</g>
				</g>
			</g>
			<g>
				<g>
					<path class="st40" d="M771.3,400.1c0,2.9,0.3,5.6-1.1,5.6c-1.4,0-4-2.7-4-5.6s0.5-8.8,1.9-8.8
						C769.5,391.3,771.3,397.2,771.3,400.1z"/>
				</g>
			</g>
			<g>
				<g>
					<path class="st40" d="M803.6,400.1c0,2.9,1.2,5.7-0.2,5.7s-3.8-2.9-3.8-5.9c0-2.9,0-5.1,1.4-5.1S803.6,397.1,803.6,400.1z"/>
				</g>
			</g>
			<g>
				<g>
					<g>
						<g>
							<path class="st31" d="M789.8,388.2c0,0,10.6,2,12.3,4.8c0.6,0.9-4.1,2-4.1,2l-6.6-1.2L789.8,388.2z"/>
						</g>
					</g>
				</g>
				<g>
					<g>
						<g>
							<path class="st8" d="M790.7,408.7l-11-0.3c-1.1,0-1.9-0.9-1.9-2l0.6-25.5c0-1.1,0.9-1.9,2-1.9l11,0.3c1.1,0,1.9,0.9,1.9,2
								l-0.6,25.5C792.6,407.9,791.8,408.7,790.7,408.7z"/>
						</g>
					</g>
				</g>
				<g>
					<g>
						<g>
							<g>
								<path class="st1" d="M801.8,392.8c0,0-5.2-3.5-8.6-1.2c-3,2-3.3,8.6-0.5,10.3c1.9,1.1,4.8,1.1,6.5,1c0.7,0,1.4-0.1,2.1-0.3
									L815,400L801.8,392.8z"/>
							</g>
						</g>
					</g>
					<g>
						<g>
							<g>
								<path class="st1" d="M795.8,390.8c0,0-14.2,0.8-14.1,2.3c0.1,1.1,4,1.2,7.3,1.1c3.2-0.1,6.1,0,6.1,0L795.8,390.8z"/>
							</g>
						</g>
					</g>
					<g>
						<g>
							<g>
								<path class="st1" d="M793.7,394.5c0,0-12.5,0.2-12.4,1.7c0.1,1.1,4,1.2,7.3,1.1c3.2-0.1,6.1,0,6.1,0L793.7,394.5z"/>
							</g>
						</g>
					</g>
					<g>
						<g>
							<g>
								<path class="st1" d="M794.4,397.6c0,0-12.5,0.2-12.4,1.7c0.1,1.1,4,1.2,7.3,1.1c3.2-0.1,6.1,0,6.1,0L794.4,397.6z"/>
							</g>
						</g>
					</g>
					<g>
						<g>
							<g>
								<path class="st1" d="M797,400.6c0,0-12.5,0.2-12.4,1.7c0.1,1.1,4,1.2,7.3,1.1c3.2-0.1,8.5-0.5,8.5-0.5L797,400.6z"/>
							</g>
						</g>
					</g>
				</g>
				<g>
					<g>
						<g>
							<g>
								<path class="st31" d="M778.2,388.8c0,0-8.7,0.9-10.4,2.3c-1,0.8,4.1,3.3,4.1,3.3l6.2-1L778.2,388.8z"/>
							</g>
						</g>
					</g>
					<g>
						<g>
							<g>
								<path class="st1" d="M767.8,391.1c0,0,5.7-2.3,9,0.1c2.9,2.1,2.9,8.8,0,10.3c-0.6,0.3-1.3,0.5-2.1,0.7
									c-3,0.7-7.9,0.6-10.6-0.8l-5.7-1.3L767.8,391.1z"/>
							</g>
						</g>
					</g>
					<g>
						<g>
							<g>
								<path class="st1" d="M773,391.3c-0.4-0.5,0.2-1.2,0.8-1.2c4.1,0.5,14.6,2,14.5,3.2c-0.1,1.1-4,1-7.3,0.7
									c-3.2-0.3-6.1-0.3-6.1-0.3L773,391.3z"/>
							</g>
						</g>
					</g>
					<g>
						<g>
							<g>
								<path class="st1" d="M776.2,394.1c0,0,12.5,0.8,12.3,2.2c-0.1,1.1-4,1-7.3,0.7c-3.2-0.3-6.1-0.3-6.1-0.3L776.2,394.1z"/>
							</g>
						</g>
					</g>
					<g>
						<g>
							<g>
								<path class="st1" d="M775.4,397.2c0,0,12.5,0.8,12.3,2.2c-0.1,1.1-4,1-7.3,0.7c-3.2-0.3-6.1-0.3-6.1-0.3L775.4,397.2z"/>
							</g>
						</g>
					</g>
					<g>
						<g>
							<g>
								<path class="st1" d="M772.6,400c0,0,12.5,0.8,12.3,2.2c-0.1,1.1-4,1-7.3,0.7c-3.2-0.3-7.5-0.3-7.5-0.3L772.6,400z"/>
							</g>
						</g>
					</g>
				</g>
			</g>
			<g>
				<g>
					<g>
						<path class="st30" d="M768,391.2c0,0-0.2,2.6,0,7.6c0.2,6.3,2.3,6.9,2.3,6.9v0.1l-25.9,0.2c-4.4-0.4-9.1-1-10.3-5.2
							c-3-10.2,5.7-26.7,10.1-36.5c5.5-12.4,19.1-21.4,22.3-23.4c0.2-0.1,0.4-0.3,0.5-0.4c0.3-0.2,0.6-0.4,0.8-0.6
							c0.9-0.6,1.5-1,1.9-1.2c0.1-0.1,0.1-0.1,0.2-0.1c0.1-0.1,0.1-0.1,0.1-0.1l0,0l-0.2,3.6v0.7l-0.1,14.8l-14.2,33.2L768,391.2z"
							/>
					</g>
				</g>
			</g>
			<g>
				<g>
					<g>
						<path class="st30" d="M800.6,392c0,0,1.7,3.2,2,5c0.8,5.4,0.8,8.8,0.8,8.8l25.9,0.1c4.4-0.4,9.1-1,10.3-5.2
							c3-10.2-6.7-26.5-11.1-36.3c-5.5-12.4-22.3-23.9-22.6-24.1c-0.9-0.6-1.4-0.8-1.8-1c-0.1-0.1-0.2,2.8-0.2,2.8v0.7l0.1,14.8
							l14.2,33.2L800.6,392z"/>
					</g>
				</g>
			</g>
			<g>
				<g>
					<g>
						<path class="st40" d="M804.8,339.5c0,0.1-0.1,0.1-0.1,0.1c-0.2,0.2-0.4,0.4-0.7,0.6c-3.9,3.4-9.5,6.5-17.3,6.7h-0.8
							c-6.3,0-12-2.1-16.2-4.3c-1.1-0.6-2.1-1.2-3-1.7c-0.1-0.1-0.2-0.1-0.3-0.2c0.2-0.1,0.4-0.3,0.5-0.4c0.1,0,0.1,0.1,0.2,0.1
							c0.8,0.5,1.7,1,2.7,1.5c4.1,2.2,9.8,4.4,16.1,4.4h0.7c7.8-0.2,13.3-3.4,17.1-6.7c0.1-0.1,0.2-0.2,0.3-0.3
							c0.1-0.1,0.1-0.1,0.2-0.1C804.4,339.3,804.6,339.4,804.8,339.5z"/>
					</g>
				</g>
			</g>
			<g>
				<g>
					<g>
						<path class="st40" d="M760.1,380.1C760.1,380.1,760,380.1,760.1,380.1c-0.2-0.1-0.3-0.2-0.3-0.4l5.6-22.3
							c0-0.2,0.2-0.3,0.4-0.2c0.2,0,0.3,0.2,0.2,0.4l-5.6,22.3C760.4,380,760.2,380.1,760.1,380.1z"/>
					</g>
				</g>
				<g>
					<g>
						<path class="st40" d="M746,391.8c-0.2,0-0.3-0.1-0.3-0.3c0-0.2,0.1-0.3,0.3-0.3c9.8-1,16.8-1.1,22-0.3c0.2,0,0.3,0.2,0.3,0.4
							c0,0.2-0.2,0.3-0.4,0.3C762.7,390.7,755.7,390.8,746,391.8L746,391.8z"/>
					</g>
				</g>
				<g>
					<g>
						<path class="st40" d="M763,368.3c-0.2,0-0.3-0.1-0.3-0.3l-0.3-7.3c0-0.2,0.1-0.3,0.3-0.3s0.3,0.1,0.3,0.3l0.3,7.3
							C763.4,368.2,763.2,368.3,763,368.3C763.1,368.3,763.1,368.3,763,368.3z"/>
					</g>
				</g>
			</g>
			<g>
				<g>
					<g>
						<path class="st40" d="M813.2,379.7c-0.1,0-0.3-0.1-0.3-0.2l-5.2-21.9c0-0.2,0.1-0.3,0.2-0.4c0.2,0,0.3,0.1,0.4,0.2l5.2,21.9
							C813.5,379.5,813.4,379.6,813.2,379.7L813.2,379.7z"/>
					</g>
				</g>
				<g>
					<g>
						<path class="st40" d="M800.8,392.4c-0.2,0-0.3-0.1-0.3-0.3c0-0.2,0.1-0.3,0.3-0.4c9.5-1.5,18.2-1.8,25.8-0.9
							c0.2,0,0.3,0.2,0.3,0.3c0,0.2-0.2,0.3-0.3,0.3C818.9,390.6,810.3,390.9,800.8,392.4L800.8,392.4z"/>
					</g>
				</g>
				<g>
					<g>
						<path class="st40" d="M810.6,368.3L810.6,368.3c-0.2,0-0.3-0.2-0.3-0.3l0.3-7.3c0-0.2,0.2-0.3,0.3-0.3c0.2,0,0.3,0.2,0.3,0.3
							l-0.3,7.3C810.9,368.2,810.8,368.3,810.6,368.3z"/>
					</g>
				</g>
			</g>
			<g>
				<g>
					<g>
						<path class="st26" d="M783.8,384.9L783.8,384.9l-2.4-0.1c-0.4,0-0.7-0.2-1-0.4c-0.3-0.3-0.4-0.6-0.4-1v-0.9
							c0-0.4,0.2-0.7,0.4-1c0.3-0.3,0.6-0.4,1-0.4l2.3,0.1c0.8,0,1.4,0.6,1.3,1.4v0.9C785.1,384.3,784.5,384.9,783.8,384.9z
							 M781.5,381.8c-0.4,0-0.7,0.3-0.7,0.7v0.9c0,0.2,0.1,0.4,0.2,0.5c0.1,0.1,0.3,0.2,0.5,0.2l2.3,0.1c0.4,0,0.8-0.3,0.8-0.7v-0.9
							c0-0.2-0.1-0.4-0.2-0.5c-0.1-0.1-0.3-0.2-0.5-0.2L781.5,381.8L781.5,381.8z"/>
					</g>
				</g>
				<g>
					<g>
						<path class="st26" d="M784.9,386.7L784.9,386.7l-4.6-0.1c-0.2,0-0.3-0.1-0.3-0.3c0-0.2,0.1-0.3,0.3-0.3l4.5,0.1
							c0.2,0,0.3,0.1,0.3,0.3C785.2,386.6,785,386.7,784.9,386.7z"/>
					</g>
				</g>
			</g>
			<g class="st7">
				<g>
					<path class="st8" d="M861.7,12.7c-2.8,0-5-2.2-5-5s2.2-5,5-5s5,2.2,5,5S864.5,12.7,861.7,12.7z M861.7,4
						c-2.1,0-3.7,1.7-3.7,3.7s1.7,3.7,3.7,3.7s3.7-1.7,3.7-3.7S863.8,4,861.7,4z"/>
				</g>
			</g>
			<g class="st7">
				<g>
					<path class="st8" d="M983.8,150.2c-1.6,0-3-1.3-3-3c0-1.6,1.3-3,3-3c1.6,0,3,1.3,3,3C986.7,148.9,985.4,150.2,983.8,150.2z
						 M983.8,145.5c-0.9,0-1.7,0.8-1.7,1.7s0.8,1.7,1.7,1.7s1.7-0.8,1.7-1.7S984.7,145.5,983.8,145.5z"/>
				</g>
			</g>
			<g class="st7">
				<g>
					<path class="st8" d="M413.4,88.6c-2.3,0-4.1-1.9-4.1-4.1c0-2.3,1.9-4.1,4.1-4.1c2.3,0,4.1,1.9,4.1,4.1
						C417.5,86.8,415.7,88.6,413.4,88.6z M413.4,81.6c-1.6,0-2.9,1.3-2.9,2.9s1.3,2.9,2.9,2.9s2.9-1.3,2.9-2.9S415,81.6,413.4,81.6z
						"/>
				</g>
			</g>
		</g>
	</g>
</g>
</svg>
