<?xml version="1.0" encoding="UTF-8"?>
<svg width="24px" height="24px" viewBox="0 0 24 24" version="1.1" xmlns="http://www.w3.org/2000/svg">
      <path d="M17.2718029,8.68536757 C16.8932864,8.28319382 16.9124644,7.65031935 17.3146382,7.27180288 C17.7168119,6.89328641 18.3496864,6.91246442 18.7282029,7.31463817 L22.7282029,11.5646382 C23.0906029,11.9496882 23.0906029,12.5503176 22.7282029,12.9353676 L18.7282029,17.1853676 C18.3496864,17.5875413 17.7168119,17.6067193 17.3146382,17.2282029 C16.9124644,16.8496864 16.8932864,16.2168119 17.2718029,15.8146382 L20.6267538,12.2500029 L17.2718029,8.68536757 Z M6.72819712,8.6853647 L3.37324625,12.25 L6.72819712,15.8146353 C7.10671359,16.2168091 7.08753558,16.8496835 6.68536183,17.2282 C6.28318808,17.6067165 5.65031361,17.5875384 5.27179713,17.1853647 L1.27179713,12.9353647 C0.909397125,12.5503147 0.909397125,11.9496853 1.27179713,11.5646353 L5.27179713,7.3146353 C5.65031361,6.91246155 6.28318808,6.89328354 6.68536183,7.27180001 C7.08753558,7.65031648 7.10671359,8.28319095 6.72819712,8.6853647 Z" id="Combined-Shape" fill="#000000" fill-rule="nonzero"></path>
        <rect id="Rectangle-28" fill="#000000" opacity="0.3" transform="translate(12.000000, 12.000000) rotate(-345.000000) translate(-12.000000, -12.000000) " x="11" y="4" width="2" height="16" rx="1"></rect>
</svg>