<?xml version="1.0" encoding="UTF-8"?>
<svg width="24px" height="24px" viewBox="0 0 24 24" version="1.1" xmlns="http://www.w3.org/2000/svg">
        <path d="M6,7 C7.1045695,7 8,6.1045695 8,5 C8,3.8954305 7.1045695,3 6,3 C4.8954305,3 4,3.8954305 4,5 C4,6.1045695 4.8954305,7 6,7 Z M6,9 C3.790861,9 2,7.209139 2,5 C2,2.790861 3.790861,1 6,1 C8.209139,1 10,2.790861 10,5 C10,7.209139 8.209139,9 6,9 Z" id="Oval-7" fill="#000000" fill-rule="nonzero"></path>
        <path d="M7,11.4648712 L7,17 C7,18.1045695 7.8954305,19 9,19 L15,19 L15,21 L9,21 C6.790861,21 5,19.209139 5,17 L5,8 L5,7 L7,7 L7,8 C7,9.1045695 7.8954305,10 9,10 L15,10 L15,12 L9,12 C8.27142571,12 7.58834673,11.8052114 7,11.4648712 Z" id="Combined-Shape" fill="#000000" fill-rule="nonzero" opacity="0.3"></path>
        <path d="M18,22 C19.1045695,22 20,21.1045695 20,20 C20,18.8954305 19.1045695,18 18,18 C16.8954305,18 16,18.8954305 16,20 C16,21.1045695 16.8954305,22 18,22 Z M18,24 C15.790861,24 14,22.209139 14,20 C14,17.790861 15.790861,16 18,16 C20.209139,16 22,17.790861 22,20 C22,22.209139 20.209139,24 18,24 Z" id="Oval-7-Copy" fill="#000000" fill-rule="nonzero"></path>
        <path d="M18,13 C19.1045695,13 20,12.1045695 20,11 C20,9.8954305 19.1045695,9 18,9 C16.8954305,9 16,9.8954305 16,11 C16,12.1045695 16.8954305,13 18,13 Z M18,15 C15.790861,15 14,13.209139 14,11 C14,8.790861 15.790861,7 18,7 C20.209139,7 22,8.790861 22,11 C22,13.209139 20.209139,15 18,15 Z" id="Oval-7-Copy-3" fill="#000000" fill-rule="nonzero"></path>
</svg>