<?xml version="1.0" encoding="UTF-8"?>
<svg width="24px" height="24px" viewBox="0 0 24 24" version="1.1" xmlns="http://www.w3.org/2000/svg" xmlns:xlink="http://www.w3.org/1999/xlink">
    <g id="Stockholm-icons-/-Weather-/-Rainbow" stroke="none" stroke-width="1" fill="none" fill-rule="evenodd">
        <polygon id="Shape" points="0 0 24 0 24 24 0 24"></polygon>
        <path d="M5.07063123,16 C5.55875184,12.5781289 8.50474349,10 12,10 C15.4955057,10 18.4413027,12.5784053 18.9293689,16 L16.8999819,16 C16.4367116,13.7177597 14.4189579,12 12,12 C9.58104209,12 7.56328845,13.7177597 7.10001812,16 L5.07063123,16 Z M9.16995766,16 C9.58346456,14.8278115 10.7038257,14 12,14 C13.2962528,14 14.4165517,14.8278812 14.8300407,16 L9.16995766,16 Z" id="Combined-Shape" fill="#000000" opacity="0.3"></path>
        <path d="M12,6 C17.7380426,6 22.4499282,10.3935 22.955157,16 L20.9450714,16 C20.9365194,15.9226393 20.9269871,15.8455742 20.916487,15.7688172 C20.316212,11.3807421 16.5529133,8 12,8 C7.45049154,8 3.68941712,11.3756875 3.08486502,15.7589741 C3.07382973,15.8389851 3.06384618,15.9193319 3.05492878,16 L1.04483481,16 C1.55007179,10.3935 6.26195744,6 12,6 Z" id="Path" fill="#000000"></path>
        <path d="M12,6 C17.7380426,6 22.4499282,10.3935 22.955157,16 L20.9450714,16 C20.9365194,15.9226393 20.9269871,15.8455742 20.916487,15.7688172 C20.316212,11.3807421 16.5529133,8 12,8 C7.45049154,8 3.68941712,11.3756875 3.08486502,15.7589741 C3.07382973,15.8389851 3.06384618,15.9193319 3.05492878,16 L1.04483481,16 C1.55007179,10.3935 6.26195744,6 12,6 Z" id="Path-Copy" fill="#000000"></path>
    </g>
</svg>
