<?xml version="1.0" encoding="UTF-8"?>
<svg width="24px" height="24px" viewBox="0 0 24 24" version="1.1" xmlns="http://www.w3.org/2000/svg" xmlns:xlink="http://www.w3.org/1999/xlink">
    <g id="Stockholm-icons-/-Weather-/-Snow1" stroke="none" stroke-width="1" fill="none" fill-rule="evenodd">
        <polygon id="Shape" points="0 0 24 0 24 24 0 24"></polygon>
        <path d="M5.74714567,14.0425758 C4.09410362,12.9740356 3,11.1147886 3,9 C3,5.6862915 5.6862915,3 9,3 C11.7957591,3 14.1449096,4.91215918 14.8109738,7.5 L17.25,7.5 C19.3210678,7.5 21,9.17893219 21,11.25 C21,13.3210678 19.3210678,15 17.25,15 L8.25,15 C7.28817895,15 6.41093178,14.6378962 5.74714567,14.0425758 Z" id="Combined-Shape" fill="#000000"></path>
        <path d="M8.90586666,16.1192596 C9.43933276,16.2622014 9.75591525,16.8105384 9.61297344,17.3440045 C9.47003163,17.8774706 8.92169467,18.1940531 8.38822857,18.0511113 C7.85476246,17.9081694 7.53817997,17.3598325 7.68112179,16.8263664 C7.8240636,16.2929003 8.37240055,15.9763178 8.90586666,16.1192596 Z M16.9058667,16.1192596 C17.4393328,16.2622014 17.7559153,16.8105384 17.6129734,17.3440045 C17.4700316,17.8774706 16.9216947,18.1940531 16.3882286,18.0511113 C15.8547625,17.9081694 15.53818,17.3598325 15.6811218,16.8263664 C15.8240636,16.2929003 16.3724006,15.9763178 16.9058667,16.1192596 Z M12.9058667,16.1192596 C13.4393328,16.2622014 13.7559153,16.8105384 13.6129734,17.3440045 C13.4700316,17.8774706 12.9216947,18.1940531 12.3882286,18.0511113 C11.8547625,17.9081694 11.53818,17.3598325 11.6811218,16.8263664 C11.8240636,16.2929003 12.3724006,15.9763178 12.9058667,16.1192596 Z M14.9058667,19.1192596 C15.4393328,19.2622014 15.7559153,19.8105384 15.6129734,20.3440045 C15.4700316,20.8774706 14.9216947,21.1940531 14.3882286,21.0511113 C13.8547625,20.9081694 13.53818,20.3598325 13.6811218,19.8263664 C13.8240636,19.2929003 14.3724006,18.9763178 14.9058667,19.1192596 Z M10.9058667,19.1192596 C11.4393328,19.2622014 11.7559153,19.8105384 11.6129734,20.3440045 C11.4700316,20.8774706 10.9216947,21.1940531 10.3882286,21.0511113 C9.85476246,20.9081694 9.53817997,20.3598325 9.68112179,19.8263664 C9.8240636,19.2929003 10.3724006,18.9763178 10.9058667,19.1192596 Z" id="Combined-Shape" fill="#000000" opacity="0.3"></path>
    </g>
</svg>
