<svg width="1294" height="72" viewBox="0 0 1294 72" fill="none" xmlns="http://www.w3.org/2000/svg">
<path d="M508.173 2H2V70H508.173C508.173 70 544 35.645 544 35.1434C544 34.6419 508.173 2 508.173 2Z" stroke="#FFAA00" stroke-width="4" stroke-miterlimit="16"/>
<path d="M973.016 2H507L541.11 32.8393C542.402 34.0069 542.431 36.0249 541.174 37.2299L507 70H973.016C973.016 70 1006 35.645 1006 35.1434C1006 34.6419 973.016 2 973.016 2Z" stroke="#FFAA00" stroke-width="4" stroke-miterlimit="16"/>
<path d="M109.224 46H105.352V27.4395H115.99V30.6641H109.224V35.4502H115.521V38.6621H109.224V46ZM128.33 46L127.581 44.0703H127.479C126.828 44.8913 126.155 45.4626 125.461 45.7842C124.775 46.0973 123.878 46.2539 122.77 46.2539C121.407 46.2539 120.332 45.8646 119.545 45.0859C118.766 44.3073 118.377 43.1986 118.377 41.7598C118.377 40.2533 118.902 39.1445 119.951 38.4336C121.009 37.7142 122.6 37.3164 124.725 37.2402L127.188 37.1641V36.542C127.188 35.1032 126.451 34.3838 124.979 34.3838C123.844 34.3838 122.511 34.7266 120.979 35.4121L119.697 32.7969C121.331 31.9421 123.142 31.5146 125.131 31.5146C127.035 31.5146 128.495 31.9294 129.511 32.7588C130.526 33.5882 131.034 34.8493 131.034 36.542V46H128.33ZM127.188 39.4238L125.689 39.4746C124.564 39.5085 123.726 39.7116 123.176 40.084C122.626 40.4564 122.351 41.0234 122.351 41.7852C122.351 42.877 122.977 43.4229 124.229 43.4229C125.127 43.4229 125.842 43.1647 126.375 42.6484C126.917 42.1322 127.188 41.4466 127.188 40.5918V39.4238ZM144.936 41.7852C144.936 43.2409 144.428 44.3496 143.412 45.1113C142.405 45.873 140.894 46.2539 138.88 46.2539C137.847 46.2539 136.967 46.182 136.239 46.0381C135.511 45.9027 134.83 45.6995 134.195 45.4287V42.2295C134.915 42.568 135.723 42.8516 136.62 43.0801C137.526 43.3086 138.321 43.4229 139.007 43.4229C140.412 43.4229 141.114 43.0166 141.114 42.2041C141.114 41.8994 141.021 41.654 140.835 41.4678C140.649 41.2731 140.327 41.0573 139.87 40.8203C139.413 40.5749 138.804 40.2913 138.042 39.9697C136.95 39.5127 136.146 39.0895 135.63 38.7002C135.122 38.3109 134.75 37.8665 134.513 37.3672C134.284 36.8594 134.17 36.2373 134.17 35.501C134.17 34.2399 134.657 33.2666 135.63 32.5811C136.612 31.887 138 31.54 139.794 31.54C141.504 31.54 143.167 31.9124 144.783 32.6572L143.615 35.4502C142.904 35.1455 142.24 34.8958 141.622 34.7012C141.004 34.5065 140.374 34.4092 139.73 34.4092C138.588 34.4092 138.017 34.7181 138.017 35.3359C138.017 35.6829 138.199 35.9834 138.562 36.2373C138.935 36.4912 139.743 36.8678 140.987 37.3672C142.096 37.8158 142.909 38.2347 143.425 38.624C143.941 39.0133 144.322 39.4619 144.567 39.9697C144.813 40.4775 144.936 41.0827 144.936 41.7852ZM153.835 34.2949C153.014 34.2949 152.371 34.5573 151.905 35.082C151.44 35.5983 151.173 36.3346 151.105 37.291H156.539C156.522 36.3346 156.272 35.5983 155.79 35.082C155.308 34.5573 154.656 34.2949 153.835 34.2949ZM154.381 46.2539C152.096 46.2539 150.31 45.6234 149.023 44.3623C147.737 43.1012 147.094 41.3154 147.094 39.0049C147.094 36.6266 147.686 34.79 148.871 33.4951C150.064 32.1917 151.711 31.54 153.81 31.54C155.815 31.54 157.377 32.1113 158.494 33.2539C159.611 34.3965 160.17 35.9749 160.17 37.9893V39.8682H151.017C151.059 40.9684 151.385 41.8275 151.994 42.4453C152.604 43.0632 153.458 43.3721 154.559 43.3721C155.413 43.3721 156.222 43.2832 156.983 43.1055C157.745 42.9277 158.541 42.6442 159.37 42.2549V45.251C158.693 45.5895 157.969 45.8392 157.199 46C156.429 46.1693 155.49 46.2539 154.381 46.2539ZM174.312 36.1738H175.607C176.818 36.1738 177.723 35.9368 178.324 35.4629C178.925 34.9805 179.226 34.2822 179.226 33.3682C179.226 32.4456 178.972 31.7643 178.464 31.3242C177.965 30.8841 177.177 30.6641 176.103 30.6641H174.312V36.1738ZM183.199 33.2285C183.199 35.2259 182.573 36.7536 181.32 37.8115C180.076 38.8695 178.303 39.3984 176.001 39.3984H174.312V46H170.377V27.4395H176.306C178.557 27.4395 180.267 27.9261 181.435 28.8994C182.611 29.8643 183.199 31.3073 183.199 33.2285ZM192.276 34.2949C191.455 34.2949 190.812 34.5573 190.347 35.082C189.881 35.5983 189.615 36.3346 189.547 37.291H194.98C194.964 36.3346 194.714 35.5983 194.231 35.082C193.749 34.5573 193.097 34.2949 192.276 34.2949ZM192.822 46.2539C190.537 46.2539 188.751 45.6234 187.465 44.3623C186.178 43.1012 185.535 41.3154 185.535 39.0049C185.535 36.6266 186.128 34.79 187.312 33.4951C188.506 32.1917 190.152 31.54 192.251 31.54C194.257 31.54 195.818 32.1113 196.936 33.2539C198.053 34.3965 198.611 35.9749 198.611 37.9893V39.8682H189.458C189.5 40.9684 189.826 41.8275 190.436 42.4453C191.045 43.0632 191.9 43.3721 193 43.3721C193.855 43.3721 194.663 43.2832 195.425 43.1055C196.187 42.9277 196.982 42.6442 197.812 42.2549V45.251C197.134 45.5895 196.411 45.8392 195.641 46C194.87 46.1693 193.931 46.2539 192.822 46.2539ZM214.861 46H210.989V37.71C210.989 36.6859 210.807 35.9199 210.443 35.4121C210.079 34.8958 209.5 34.6377 208.704 34.6377C207.621 34.6377 206.838 35.0016 206.355 35.7295C205.873 36.4489 205.632 37.6465 205.632 39.3223V46H201.76V31.8066H204.718L205.238 33.6221H205.454C205.886 32.9365 206.478 32.4202 207.231 32.0732C207.993 31.7178 208.856 31.54 209.821 31.54C211.472 31.54 212.724 31.9886 213.579 32.8857C214.434 33.7744 214.861 35.0609 214.861 36.7451V46ZM231.2 31.8066V33.7744L228.979 34.3457C229.385 34.9805 229.588 35.6914 229.588 36.4785C229.588 38.002 229.055 39.1911 227.988 40.0459C226.93 40.8923 225.458 41.3154 223.57 41.3154L222.872 41.2773L222.301 41.2139C221.903 41.5186 221.704 41.8571 221.704 42.2295C221.704 42.7881 222.415 43.0674 223.837 43.0674H226.249C227.806 43.0674 228.991 43.4017 229.804 44.0703C230.625 44.7389 231.035 45.7207 231.035 47.0156C231.035 48.6745 230.341 49.9609 228.953 50.875C227.574 51.7891 225.589 52.2461 222.999 52.2461C221.019 52.2461 219.504 51.8991 218.454 51.2051C217.413 50.5195 216.893 49.5547 216.893 48.3105C216.893 47.4557 217.159 46.7406 217.692 46.165C218.226 45.5895 219.008 45.179 220.041 44.9336C219.643 44.7643 219.296 44.4893 219 44.1084C218.704 43.7191 218.556 43.3086 218.556 42.877C218.556 42.3353 218.712 41.8867 219.025 41.5312C219.339 41.1673 219.791 40.8118 220.384 40.4648C219.639 40.1432 219.047 39.627 218.606 38.916C218.175 38.2051 217.959 37.3672 217.959 36.4023C217.959 34.8535 218.463 33.6559 219.47 32.8096C220.477 31.9632 221.916 31.54 223.786 31.54C224.184 31.54 224.654 31.5781 225.195 31.6543C225.745 31.722 226.097 31.7728 226.249 31.8066H231.2ZM220.244 48.0059C220.244 48.5391 220.498 48.958 221.006 49.2627C221.522 49.5674 222.242 49.7197 223.164 49.7197C224.552 49.7197 225.64 49.5293 226.427 49.1484C227.214 48.7676 227.607 48.2471 227.607 47.5869C227.607 47.0537 227.375 46.6855 226.909 46.4824C226.444 46.2793 225.724 46.1777 224.751 46.1777H222.745C222.034 46.1777 221.438 46.3428 220.955 46.6729C220.481 47.0114 220.244 47.4557 220.244 48.0059ZM221.653 36.4531C221.653 37.2233 221.827 37.8327 222.174 38.2812C222.529 38.7298 223.067 38.9541 223.786 38.9541C224.514 38.9541 225.047 38.7298 225.386 38.2812C225.724 37.8327 225.894 37.2233 225.894 36.4531C225.894 34.7435 225.191 33.8887 223.786 33.8887C222.364 33.8887 221.653 34.7435 221.653 36.4531ZM239.427 34.2949C238.606 34.2949 237.963 34.5573 237.497 35.082C237.032 35.5983 236.765 36.3346 236.697 37.291H242.131C242.114 36.3346 241.864 35.5983 241.382 35.082C240.899 34.5573 240.248 34.2949 239.427 34.2949ZM239.973 46.2539C237.688 46.2539 235.902 45.6234 234.615 44.3623C233.329 43.1012 232.686 41.3154 232.686 39.0049C232.686 36.6266 233.278 34.79 234.463 33.4951C235.656 32.1917 237.302 31.54 239.401 31.54C241.407 31.54 242.969 32.1113 244.086 33.2539C245.203 34.3965 245.762 35.9749 245.762 37.9893V39.8682H236.608C236.651 40.9684 236.977 41.8275 237.586 42.4453C238.195 43.0632 239.05 43.3721 240.15 43.3721C241.005 43.3721 241.813 43.2832 242.575 43.1055C243.337 42.9277 244.132 42.6442 244.962 42.2549V45.251C244.285 45.5895 243.561 45.8392 242.791 46C242.021 46.1693 241.081 46.2539 239.973 46.2539ZM261.618 46H257.746V37.71C257.746 36.6859 257.573 35.9199 257.226 35.4121C256.887 34.8958 256.35 34.6377 255.613 34.6377C254.623 34.6377 253.904 35.0016 253.455 35.7295C253.007 36.4574 252.782 37.6549 252.782 39.3223V46H248.91V31.8066H251.868L252.389 33.6221H252.604C252.985 32.9704 253.535 32.4626 254.255 32.0986C254.974 31.7262 255.799 31.54 256.73 31.54C258.855 31.54 260.294 32.234 261.047 33.6221H261.39C261.771 32.9619 262.329 32.4499 263.065 32.0859C263.81 31.722 264.648 31.54 265.579 31.54C267.187 31.54 268.402 31.9548 269.223 32.7842C270.052 33.6051 270.467 34.9255 270.467 36.7451V46H266.582V37.71C266.582 36.6859 266.409 35.9199 266.062 35.4121C265.723 34.8958 265.186 34.6377 264.449 34.6377C263.501 34.6377 262.79 34.9762 262.316 35.6533C261.851 36.3304 261.618 37.4053 261.618 38.8779V46ZM282.35 31.54C284.025 31.54 285.337 32.196 286.285 33.5078C287.233 34.8112 287.707 36.6012 287.707 38.8779C287.707 41.2223 287.216 43.0378 286.234 44.3242C285.261 45.6107 283.932 46.2539 282.248 46.2539C280.581 46.2539 279.273 45.6488 278.325 44.4385H278.059L277.411 46H274.453V26.2461H278.325V30.8418C278.325 31.4258 278.274 32.361 278.173 33.6475H278.325C279.231 32.2425 280.572 31.54 282.35 31.54ZM281.105 34.6377C280.149 34.6377 279.451 34.9339 279.011 35.5264C278.571 36.1104 278.342 37.0794 278.325 38.4336V38.8525C278.325 40.376 278.549 41.4678 278.998 42.1279C279.455 42.7881 280.174 43.1182 281.156 43.1182C281.952 43.1182 282.582 42.7542 283.048 42.0264C283.522 41.29 283.759 40.2236 283.759 38.8271C283.759 37.4307 283.522 36.3854 283.048 35.6914C282.574 34.9889 281.926 34.6377 281.105 34.6377ZM299.92 46L299.171 44.0703H299.069C298.418 44.8913 297.745 45.4626 297.051 45.7842C296.365 46.0973 295.468 46.2539 294.359 46.2539C292.997 46.2539 291.922 45.8646 291.135 45.0859C290.356 44.3073 289.967 43.1986 289.967 41.7598C289.967 40.2533 290.492 39.1445 291.541 38.4336C292.599 37.7142 294.19 37.3164 296.314 37.2402L298.777 37.1641V36.542C298.777 35.1032 298.041 34.3838 296.568 34.3838C295.434 34.3838 294.101 34.7266 292.569 35.4121L291.287 32.7969C292.921 31.9421 294.732 31.5146 296.721 31.5146C298.625 31.5146 300.085 31.9294 301.101 32.7588C302.116 33.5882 302.624 34.8493 302.624 36.542V46H299.92ZM298.777 39.4238L297.279 39.4746C296.154 39.5085 295.316 39.7116 294.766 40.084C294.215 40.4564 293.94 41.0234 293.94 41.7852C293.94 42.877 294.567 43.4229 295.819 43.4229C296.716 43.4229 297.432 43.1647 297.965 42.6484C298.507 42.1322 298.777 41.4466 298.777 40.5918V39.4238ZM319.725 46H315.853V37.71C315.853 36.6859 315.671 35.9199 315.307 35.4121C314.943 34.8958 314.363 34.6377 313.567 34.6377C312.484 34.6377 311.701 35.0016 311.219 35.7295C310.736 36.4489 310.495 37.6465 310.495 39.3223V46H306.623V31.8066H309.581L310.102 33.6221H310.317C310.749 32.9365 311.341 32.4202 312.095 32.0732C312.856 31.7178 313.72 31.54 314.685 31.54C316.335 31.54 317.588 31.9886 318.442 32.8857C319.297 33.7744 319.725 35.0609 319.725 36.7451V46ZM336.063 31.8066V33.7744L333.842 34.3457C334.248 34.9805 334.451 35.6914 334.451 36.4785C334.451 38.002 333.918 39.1911 332.852 40.0459C331.794 40.8923 330.321 41.3154 328.434 41.3154L327.735 41.2773L327.164 41.2139C326.766 41.5186 326.567 41.8571 326.567 42.2295C326.567 42.7881 327.278 43.0674 328.7 43.0674H331.112C332.67 43.0674 333.854 43.4017 334.667 44.0703C335.488 44.7389 335.898 45.7207 335.898 47.0156C335.898 48.6745 335.204 49.9609 333.816 50.875C332.437 51.7891 330.452 52.2461 327.862 52.2461C325.882 52.2461 324.367 51.8991 323.317 51.2051C322.276 50.5195 321.756 49.5547 321.756 48.3105C321.756 47.4557 322.022 46.7406 322.556 46.165C323.089 45.5895 323.872 45.179 324.904 44.9336C324.507 44.7643 324.16 44.4893 323.863 44.1084C323.567 43.7191 323.419 43.3086 323.419 42.877C323.419 42.3353 323.576 41.8867 323.889 41.5312C324.202 41.1673 324.655 40.8118 325.247 40.4648C324.502 40.1432 323.91 39.627 323.47 38.916C323.038 38.2051 322.822 37.3672 322.822 36.4023C322.822 34.8535 323.326 33.6559 324.333 32.8096C325.34 31.9632 326.779 31.54 328.649 31.54C329.047 31.54 329.517 31.5781 330.059 31.6543C330.609 31.722 330.96 31.7728 331.112 31.8066H336.063ZM325.107 48.0059C325.107 48.5391 325.361 48.958 325.869 49.2627C326.385 49.5674 327.105 49.7197 328.027 49.7197C329.415 49.7197 330.503 49.5293 331.29 49.1484C332.077 48.7676 332.471 48.2471 332.471 47.5869C332.471 47.0537 332.238 46.6855 331.772 46.4824C331.307 46.2793 330.588 46.1777 329.614 46.1777H327.608C326.897 46.1777 326.301 46.3428 325.818 46.6729C325.344 47.0114 325.107 47.4557 325.107 48.0059ZM326.517 36.4531C326.517 37.2233 326.69 37.8327 327.037 38.2812C327.393 38.7298 327.93 38.9541 328.649 38.9541C329.377 38.9541 329.91 38.7298 330.249 38.2812C330.588 37.8327 330.757 37.2233 330.757 36.4531C330.757 34.7435 330.054 33.8887 328.649 33.8887C327.228 33.8887 326.517 34.7435 326.517 36.4531ZM347.426 46L346.677 44.0703H346.575C345.924 44.8913 345.251 45.4626 344.557 45.7842C343.871 46.0973 342.974 46.2539 341.865 46.2539C340.503 46.2539 339.428 45.8646 338.641 45.0859C337.862 44.3073 337.473 43.1986 337.473 41.7598C337.473 40.2533 337.997 39.1445 339.047 38.4336C340.105 37.7142 341.696 37.3164 343.82 37.2402L346.283 37.1641V36.542C346.283 35.1032 345.547 34.3838 344.074 34.3838C342.94 34.3838 341.607 34.7266 340.075 35.4121L338.793 32.7969C340.426 31.9421 342.238 31.5146 344.227 31.5146C346.131 31.5146 347.591 31.9294 348.606 32.7588C349.622 33.5882 350.13 34.8493 350.13 36.542V46H347.426ZM346.283 39.4238L344.785 39.4746C343.66 39.5085 342.822 39.7116 342.271 40.084C341.721 40.4564 341.446 41.0234 341.446 41.7852C341.446 42.877 342.073 43.4229 343.325 43.4229C344.222 43.4229 344.938 43.1647 345.471 42.6484C346.012 42.1322 346.283 41.4466 346.283 40.5918V39.4238ZM367.23 46H363.358V37.71C363.358 36.6859 363.176 35.9199 362.812 35.4121C362.449 34.8958 361.869 34.6377 361.073 34.6377C359.99 34.6377 359.207 35.0016 358.725 35.7295C358.242 36.4489 358.001 37.6465 358.001 39.3223V46H354.129V31.8066H357.087L357.607 33.6221H357.823C358.255 32.9365 358.847 32.4202 359.601 32.0732C360.362 31.7178 361.226 31.54 362.19 31.54C363.841 31.54 365.093 31.9886 365.948 32.8857C366.803 33.7744 367.23 35.0609 367.23 36.7451V46Z" fill="#FFAA00"/>
<path d="M641.208 44H637.336V25.4395H647.975V28.6641H641.208V33.4502H647.505V36.6621H641.208V44ZM660.314 44L659.565 42.0703H659.464C658.812 42.8913 658.139 43.4626 657.445 43.7842C656.76 44.0973 655.863 44.2539 654.754 44.2539C653.391 44.2539 652.316 43.8646 651.529 43.0859C650.751 42.3073 650.361 41.1986 650.361 39.7598C650.361 38.2533 650.886 37.1445 651.936 36.4336C652.993 35.7142 654.585 35.3164 656.709 35.2402L659.172 35.1641V34.542C659.172 33.1032 658.436 32.3838 656.963 32.3838C655.829 32.3838 654.496 32.7266 652.964 33.4121L651.682 30.7969C653.315 29.9421 655.126 29.5146 657.115 29.5146C659.02 29.5146 660.479 29.9294 661.495 30.7588C662.511 31.5882 663.019 32.8493 663.019 34.542V44H660.314ZM659.172 37.4238L657.674 37.4746C656.548 37.5085 655.71 37.7116 655.16 38.084C654.61 38.4564 654.335 39.0234 654.335 39.7852C654.335 40.877 654.961 41.4229 656.214 41.4229C657.111 41.4229 657.826 41.1647 658.359 40.6484C658.901 40.1322 659.172 39.4466 659.172 38.5918V37.4238ZM676.92 39.7852C676.92 41.2409 676.412 42.3496 675.396 43.1113C674.389 43.873 672.879 44.2539 670.864 44.2539C669.832 44.2539 668.951 44.182 668.224 44.0381C667.496 43.9027 666.814 43.6995 666.18 43.4287V40.2295C666.899 40.568 667.707 40.8516 668.604 41.0801C669.51 41.3086 670.306 41.4229 670.991 41.4229C672.396 41.4229 673.099 41.0166 673.099 40.2041C673.099 39.8994 673.006 39.654 672.819 39.4678C672.633 39.2731 672.312 39.0573 671.854 38.8203C671.397 38.5749 670.788 38.2913 670.026 37.9697C668.935 37.5127 668.131 37.0895 667.614 36.7002C667.106 36.3109 666.734 35.8665 666.497 35.3672C666.269 34.8594 666.154 34.2373 666.154 33.501C666.154 32.2399 666.641 31.2666 667.614 30.5811C668.596 29.887 669.984 29.54 671.778 29.54C673.488 29.54 675.151 29.9124 676.768 30.6572L675.6 33.4502C674.889 33.1455 674.224 32.8958 673.606 32.7012C672.989 32.5065 672.358 32.4092 671.715 32.4092C670.572 32.4092 670.001 32.7181 670.001 33.3359C670.001 33.6829 670.183 33.9834 670.547 34.2373C670.919 34.4912 671.728 34.8678 672.972 35.3672C674.08 35.8158 674.893 36.2347 675.409 36.624C675.925 37.0133 676.306 37.4619 676.552 37.9697C676.797 38.4775 676.92 39.0827 676.92 39.7852ZM685.819 32.2949C684.998 32.2949 684.355 32.5573 683.89 33.082C683.424 33.5983 683.158 34.3346 683.09 35.291H688.523C688.507 34.3346 688.257 33.5983 687.774 33.082C687.292 32.5573 686.64 32.2949 685.819 32.2949ZM686.365 44.2539C684.08 44.2539 682.294 43.6234 681.008 42.3623C679.721 41.1012 679.078 39.3154 679.078 37.0049C679.078 34.6266 679.671 32.79 680.855 31.4951C682.049 30.1917 683.695 29.54 685.794 29.54C687.8 29.54 689.361 30.1113 690.479 31.2539C691.596 32.3965 692.154 33.9749 692.154 35.9893V37.8682H683.001C683.043 38.9684 683.369 39.8275 683.979 40.4453C684.588 41.0632 685.443 41.3721 686.543 41.3721C687.398 41.3721 688.206 41.2832 688.968 41.1055C689.729 40.9277 690.525 40.6442 691.354 40.2549V43.251C690.677 43.5895 689.954 43.8392 689.184 44C688.413 44.1693 687.474 44.2539 686.365 44.2539ZM706.297 34.1738H707.592C708.802 34.1738 709.708 33.9368 710.309 33.4629C710.91 32.9805 711.21 32.2822 711.21 31.3682C711.21 30.4456 710.956 29.7643 710.448 29.3242C709.949 28.8841 709.162 28.6641 708.087 28.6641H706.297V34.1738ZM715.184 31.2285C715.184 33.2259 714.557 34.7536 713.305 35.8115C712.061 36.8695 710.287 37.3984 707.985 37.3984H706.297V44H702.361V25.4395H708.29C710.541 25.4395 712.251 25.9261 713.419 26.8994C714.595 27.8643 715.184 29.3073 715.184 31.2285ZM724.261 32.2949C723.44 32.2949 722.797 32.5573 722.331 33.082C721.866 33.5983 721.599 34.3346 721.531 35.291H726.965C726.948 34.3346 726.698 33.5983 726.216 33.082C725.733 32.5573 725.082 32.2949 724.261 32.2949ZM724.807 44.2539C722.521 44.2539 720.736 43.6234 719.449 42.3623C718.163 41.1012 717.52 39.3154 717.52 37.0049C717.52 34.6266 718.112 32.79 719.297 31.4951C720.49 30.1917 722.136 29.54 724.235 29.54C726.241 29.54 727.803 30.1113 728.92 31.2539C730.037 32.3965 730.596 33.9749 730.596 35.9893V37.8682H721.442C721.485 38.9684 721.811 39.8275 722.42 40.4453C723.029 41.0632 723.884 41.3721 724.984 41.3721C725.839 41.3721 726.647 41.2832 727.409 41.1055C728.171 40.9277 728.966 40.6442 729.796 40.2549V43.251C729.119 43.5895 728.395 43.8392 727.625 44C726.855 44.1693 725.915 44.2539 724.807 44.2539ZM746.452 44H742.58V35.71C742.58 34.6859 742.407 33.9199 742.06 33.4121C741.721 32.8958 741.184 32.6377 740.447 32.6377C739.457 32.6377 738.738 33.0016 738.289 33.7295C737.84 34.4574 737.616 35.6549 737.616 37.3223V44H733.744V29.8066H736.702L737.223 31.6221H737.438C737.819 30.9704 738.369 30.4626 739.089 30.0986C739.808 29.7262 740.633 29.54 741.564 29.54C743.689 29.54 745.128 30.234 745.881 31.6221H746.224C746.604 30.9619 747.163 30.4499 747.899 30.0859C748.644 29.722 749.482 29.54 750.413 29.54C752.021 29.54 753.236 29.9548 754.057 30.7842C754.886 31.6051 755.301 32.9255 755.301 34.7451V44H751.416V35.71C751.416 34.6859 751.243 33.9199 750.896 33.4121C750.557 32.8958 750.02 32.6377 749.283 32.6377C748.335 32.6377 747.624 32.9762 747.15 33.6533C746.685 34.3304 746.452 35.4053 746.452 36.8779V44ZM767.184 29.54C768.859 29.54 770.171 30.196 771.119 31.5078C772.067 32.8112 772.541 34.6012 772.541 36.8779C772.541 39.2223 772.05 41.0378 771.068 42.3242C770.095 43.6107 768.766 44.2539 767.082 44.2539C765.415 44.2539 764.107 43.6488 763.159 42.4385H762.893L762.245 44H759.287V24.2461H763.159V28.8418C763.159 29.4258 763.108 30.361 763.007 31.6475H763.159C764.065 30.2425 765.406 29.54 767.184 29.54ZM765.939 32.6377C764.983 32.6377 764.285 32.9339 763.845 33.5264C763.405 34.1104 763.176 35.0794 763.159 36.4336V36.8525C763.159 38.376 763.383 39.4678 763.832 40.1279C764.289 40.7881 765.008 41.1182 765.99 41.1182C766.786 41.1182 767.416 40.7542 767.882 40.0264C768.356 39.29 768.593 38.2236 768.593 36.8271C768.593 35.4307 768.356 34.3854 767.882 33.6914C767.408 32.9889 766.76 32.6377 765.939 32.6377ZM784.754 44L784.005 42.0703H783.903C783.252 42.8913 782.579 43.4626 781.885 43.7842C781.199 44.0973 780.302 44.2539 779.193 44.2539C777.831 44.2539 776.756 43.8646 775.969 43.0859C775.19 42.3073 774.801 41.1986 774.801 39.7598C774.801 38.2533 775.326 37.1445 776.375 36.4336C777.433 35.7142 779.024 35.3164 781.148 35.2402L783.611 35.1641V34.542C783.611 33.1032 782.875 32.3838 781.402 32.3838C780.268 32.3838 778.935 32.7266 777.403 33.4121L776.121 30.7969C777.755 29.9421 779.566 29.5146 781.555 29.5146C783.459 29.5146 784.919 29.9294 785.935 30.7588C786.95 31.5882 787.458 32.8493 787.458 34.542V44H784.754ZM783.611 37.4238L782.113 37.4746C780.988 37.5085 780.15 37.7116 779.6 38.084C779.049 38.4564 778.774 39.0234 778.774 39.7852C778.774 40.877 779.401 41.4229 780.653 41.4229C781.55 41.4229 782.266 41.1647 782.799 40.6484C783.34 40.1322 783.611 39.4466 783.611 38.5918V37.4238ZM804.559 44H800.687V35.71C800.687 34.6859 800.505 33.9199 800.141 33.4121C799.777 32.8958 799.197 32.6377 798.401 32.6377C797.318 32.6377 796.535 33.0016 796.053 33.7295C795.57 34.4489 795.329 35.6465 795.329 37.3223V44H791.457V29.8066H794.415L794.936 31.6221H795.151C795.583 30.9365 796.175 30.4202 796.929 30.0732C797.69 29.7178 798.554 29.54 799.519 29.54C801.169 29.54 802.422 29.9886 803.276 30.8857C804.131 31.7744 804.559 33.0609 804.559 34.7451V44ZM820.897 29.8066V31.7744L818.676 32.3457C819.082 32.9805 819.285 33.6914 819.285 34.4785C819.285 36.002 818.752 37.1911 817.686 38.0459C816.628 38.8923 815.155 39.3154 813.268 39.3154L812.569 39.2773L811.998 39.2139C811.6 39.5186 811.401 39.8571 811.401 40.2295C811.401 40.7881 812.112 41.0674 813.534 41.0674H815.946C817.504 41.0674 818.688 41.4017 819.501 42.0703C820.322 42.7389 820.732 43.7207 820.732 45.0156C820.732 46.6745 820.038 47.9609 818.65 48.875C817.271 49.7891 815.286 50.2461 812.696 50.2461C810.716 50.2461 809.201 49.8991 808.151 49.2051C807.11 48.5195 806.59 47.5547 806.59 46.3105C806.59 45.4557 806.856 44.7406 807.39 44.165C807.923 43.5895 808.706 43.179 809.738 42.9336C809.34 42.7643 808.993 42.4893 808.697 42.1084C808.401 41.7191 808.253 41.3086 808.253 40.877C808.253 40.3353 808.41 39.8867 808.723 39.5312C809.036 39.1673 809.489 38.8118 810.081 38.4648C809.336 38.1432 808.744 37.627 808.304 36.916C807.872 36.2051 807.656 35.3672 807.656 34.4023C807.656 32.8535 808.16 31.6559 809.167 30.8096C810.174 29.9632 811.613 29.54 813.483 29.54C813.881 29.54 814.351 29.5781 814.893 29.6543C815.443 29.722 815.794 29.7728 815.946 29.8066H820.897ZM809.941 46.0059C809.941 46.5391 810.195 46.958 810.703 47.2627C811.219 47.5674 811.939 47.7197 812.861 47.7197C814.249 47.7197 815.337 47.5293 816.124 47.1484C816.911 46.7676 817.305 46.2471 817.305 45.5869C817.305 45.0537 817.072 44.6855 816.606 44.4824C816.141 44.2793 815.422 44.1777 814.448 44.1777H812.442C811.731 44.1777 811.135 44.3428 810.652 44.6729C810.178 45.0114 809.941 45.4557 809.941 46.0059ZM811.351 34.4531C811.351 35.2233 811.524 35.8327 811.871 36.2812C812.227 36.7298 812.764 36.9541 813.483 36.9541C814.211 36.9541 814.744 36.7298 815.083 36.2812C815.422 35.8327 815.591 35.2233 815.591 34.4531C815.591 32.7435 814.888 31.8887 813.483 31.8887C812.062 31.8887 811.351 32.7435 811.351 34.4531ZM833.301 44L832.78 42.1846H832.577C832.162 42.8447 831.574 43.3568 830.812 43.7207C830.051 44.0762 829.183 44.2539 828.21 44.2539C826.543 44.2539 825.286 43.8096 824.439 42.9209C823.593 42.0238 823.17 40.7373 823.17 39.0615V29.8066H827.042V38.0967C827.042 39.1208 827.224 39.891 827.588 40.4072C827.952 40.915 828.532 41.1689 829.327 41.1689C830.41 41.1689 831.193 40.8092 831.676 40.0898C832.158 39.362 832.399 38.1602 832.399 36.4844V29.8066H836.271V44H833.301ZM853.436 44H849.563V35.71C849.563 34.6859 849.382 33.9199 849.018 33.4121C848.654 32.8958 848.074 32.6377 847.278 32.6377C846.195 32.6377 845.412 33.0016 844.93 33.7295C844.447 34.4489 844.206 35.6465 844.206 37.3223V44H840.334V29.8066H843.292L843.812 31.6221H844.028C844.46 30.9365 845.052 30.4202 845.806 30.0732C846.567 29.7178 847.431 29.54 848.396 29.54C850.046 29.54 851.299 29.9886 852.153 30.8857C853.008 31.7744 853.436 33.0609 853.436 34.7451V44ZM866.436 44L865.687 42.0703H865.585C864.933 42.8913 864.26 43.4626 863.566 43.7842C862.881 44.0973 861.984 44.2539 860.875 44.2539C859.512 44.2539 858.438 43.8646 857.65 43.0859C856.872 42.3073 856.482 41.1986 856.482 39.7598C856.482 38.2533 857.007 37.1445 858.057 36.4336C859.115 35.7142 860.706 35.3164 862.83 35.2402L865.293 35.1641V34.542C865.293 33.1032 864.557 32.3838 863.084 32.3838C861.95 32.3838 860.617 32.7266 859.085 33.4121L857.803 30.7969C859.436 29.9421 861.247 29.5146 863.236 29.5146C865.141 29.5146 866.601 29.9294 867.616 30.7588C868.632 31.5882 869.14 32.8493 869.14 34.542V44H866.436ZM865.293 37.4238L863.795 37.4746C862.669 37.5085 861.831 37.7116 861.281 38.084C860.731 38.4564 860.456 39.0234 860.456 39.7852C860.456 40.877 861.082 41.4229 862.335 41.4229C863.232 41.4229 863.947 41.1647 864.48 40.6484C865.022 40.1322 865.293 39.4466 865.293 38.5918V37.4238ZM886.24 44H882.368V35.71C882.368 34.6859 882.186 33.9199 881.822 33.4121C881.458 32.8958 880.879 32.6377 880.083 32.6377C879 32.6377 878.217 33.0016 877.734 33.7295C877.252 34.4489 877.011 35.6465 877.011 37.3223V44H873.139V29.8066H876.097L876.617 31.6221H876.833C877.265 30.9365 877.857 30.4202 878.61 30.0732C879.372 29.7178 880.235 29.54 881.2 29.54C882.851 29.54 884.103 29.9886 884.958 30.8857C885.813 31.7744 886.24 33.0609 886.24 34.7451V44Z" fill="#FFAA00"/>
<path d="M1054.21 44H1050.34V25.4395H1060.97V28.6641H1054.21V33.4502H1060.5V36.6621H1054.21V44ZM1073.31 44L1072.57 42.0703H1072.46C1071.81 42.8913 1071.14 43.4626 1070.45 43.7842C1069.76 44.0973 1068.86 44.2539 1067.75 44.2539C1066.39 44.2539 1065.32 43.8646 1064.53 43.0859C1063.75 42.3073 1063.36 41.1986 1063.36 39.7598C1063.36 38.2533 1063.89 37.1445 1064.94 36.4336C1065.99 35.7142 1067.58 35.3164 1069.71 35.2402L1072.17 35.1641V34.542C1072.17 33.1032 1071.44 32.3838 1069.96 32.3838C1068.83 32.3838 1067.5 32.7266 1065.96 33.4121L1064.68 30.7969C1066.32 29.9421 1068.13 29.5146 1070.12 29.5146C1072.02 29.5146 1073.48 29.9294 1074.5 30.7588C1075.51 31.5882 1076.02 32.8493 1076.02 34.542V44H1073.31ZM1072.17 37.4238L1070.67 37.4746C1069.55 37.5085 1068.71 37.7116 1068.16 38.084C1067.61 38.4564 1067.33 39.0234 1067.33 39.7852C1067.33 40.877 1067.96 41.4229 1069.21 41.4229C1070.11 41.4229 1070.83 41.1647 1071.36 40.6484C1071.9 40.1322 1072.17 39.4466 1072.17 38.5918V37.4238ZM1089.92 39.7852C1089.92 41.2409 1089.41 42.3496 1088.4 43.1113C1087.39 43.873 1085.88 44.2539 1083.86 44.2539C1082.83 44.2539 1081.95 44.182 1081.22 44.0381C1080.5 43.9027 1079.81 43.6995 1079.18 43.4287V40.2295C1079.9 40.568 1080.71 40.8516 1081.6 41.0801C1082.51 41.3086 1083.31 41.4229 1083.99 41.4229C1085.4 41.4229 1086.1 41.0166 1086.1 40.2041C1086.1 39.8994 1086.01 39.654 1085.82 39.4678C1085.63 39.2731 1085.31 39.0573 1084.85 38.8203C1084.4 38.5749 1083.79 38.2913 1083.03 37.9697C1081.93 37.5127 1081.13 37.0895 1080.61 36.7002C1080.11 36.3109 1079.73 35.8665 1079.5 35.3672C1079.27 34.8594 1079.15 34.2373 1079.15 33.501C1079.15 32.2399 1079.64 31.2666 1080.61 30.5811C1081.6 29.887 1082.98 29.54 1084.78 29.54C1086.49 29.54 1088.15 29.9124 1089.77 30.6572L1088.6 33.4502C1087.89 33.1455 1087.22 32.8958 1086.61 32.7012C1085.99 32.5065 1085.36 32.4092 1084.71 32.4092C1083.57 32.4092 1083 32.7181 1083 33.3359C1083 33.6829 1083.18 33.9834 1083.55 34.2373C1083.92 34.4912 1084.73 34.8678 1085.97 35.3672C1087.08 35.8158 1087.89 36.2347 1088.41 36.624C1088.93 37.0133 1089.31 37.4619 1089.55 37.9697C1089.8 38.4775 1089.92 39.0827 1089.92 39.7852ZM1098.82 32.2949C1098 32.2949 1097.36 32.5573 1096.89 33.082C1096.42 33.5983 1096.16 34.3346 1096.09 35.291H1101.52C1101.51 34.3346 1101.26 33.5983 1100.77 33.082C1100.29 32.5573 1099.64 32.2949 1098.82 32.2949ZM1099.37 44.2539C1097.08 44.2539 1095.29 43.6234 1094.01 42.3623C1092.72 41.1012 1092.08 39.3154 1092.08 37.0049C1092.08 34.6266 1092.67 32.79 1093.86 31.4951C1095.05 30.1917 1096.69 29.54 1098.79 29.54C1100.8 29.54 1102.36 30.1113 1103.48 31.2539C1104.6 32.3965 1105.15 33.9749 1105.15 35.9893V37.8682H1096C1096.04 38.9684 1096.37 39.8275 1096.98 40.4453C1097.59 41.0632 1098.44 41.3721 1099.54 41.3721C1100.4 41.3721 1101.21 41.2832 1101.97 41.1055C1102.73 40.9277 1103.53 40.6442 1104.35 40.2549V43.251C1103.68 43.5895 1102.95 43.8392 1102.18 44C1101.41 44.1693 1100.47 44.2539 1099.37 44.2539ZM1132.21 34.6943C1132.21 37.7666 1131.45 40.1279 1129.92 41.7783C1128.4 43.4287 1126.22 44.2539 1123.37 44.2539C1120.53 44.2539 1118.34 43.4287 1116.82 41.7783C1115.3 40.1279 1114.54 37.7581 1114.54 34.6689C1114.54 31.5798 1115.3 29.2227 1116.82 27.5977C1118.35 25.9642 1120.55 25.1475 1123.4 25.1475C1126.25 25.1475 1128.43 25.9684 1129.94 27.6104C1131.45 29.2523 1132.21 31.6136 1132.21 34.6943ZM1118.66 34.6943C1118.66 36.7679 1119.06 38.3294 1119.84 39.3789C1120.63 40.4284 1121.81 40.9531 1123.37 40.9531C1126.51 40.9531 1128.08 38.8669 1128.08 34.6943C1128.08 30.5133 1126.52 28.4229 1123.4 28.4229C1121.83 28.4229 1120.65 28.9518 1119.86 30.0098C1119.06 31.0592 1118.66 32.6208 1118.66 34.6943ZM1143.54 44.2539C1141.88 44.2539 1140.57 43.6488 1139.62 42.4385H1139.42C1139.55 43.6234 1139.62 44.3089 1139.62 44.4951V50.2461H1135.75V29.8066H1138.9L1139.44 31.6475H1139.62C1140.53 30.2425 1141.87 29.54 1143.65 29.54C1145.32 29.54 1146.63 30.1875 1147.58 31.4824C1148.53 32.7773 1149 34.5758 1149 36.8779C1149 38.3929 1148.78 39.709 1148.33 40.8262C1147.89 41.9434 1147.26 42.7939 1146.44 43.3779C1145.62 43.9619 1144.65 44.2539 1143.54 44.2539ZM1142.4 32.6377C1141.45 32.6377 1140.75 32.9339 1140.31 33.5264C1139.87 34.1104 1139.64 35.0794 1139.62 36.4336V36.8525C1139.62 38.376 1139.85 39.4678 1140.29 40.1279C1140.75 40.7881 1141.47 41.1182 1142.45 41.1182C1144.19 41.1182 1145.06 39.6878 1145.06 36.8271C1145.06 35.4307 1144.84 34.3854 1144.41 33.6914C1143.99 32.9889 1143.32 32.6377 1142.4 32.6377ZM1158.08 32.2949C1157.26 32.2949 1156.62 32.5573 1156.15 33.082C1155.69 33.5983 1155.42 34.3346 1155.35 35.291H1160.79C1160.77 34.3346 1160.52 33.5983 1160.04 33.082C1159.55 32.5573 1158.9 32.2949 1158.08 32.2949ZM1158.63 44.2539C1156.34 44.2539 1154.56 43.6234 1153.27 42.3623C1151.98 41.1012 1151.34 39.3154 1151.34 37.0049C1151.34 34.6266 1151.93 32.79 1153.12 31.4951C1154.31 30.1917 1155.96 29.54 1158.06 29.54C1160.06 29.54 1161.62 30.1113 1162.74 31.2539C1163.86 32.3965 1164.42 33.9749 1164.42 35.9893V37.8682H1155.26C1155.31 38.9684 1155.63 39.8275 1156.24 40.4453C1156.85 41.0632 1157.7 41.3721 1158.8 41.3721C1159.66 41.3721 1160.47 41.2832 1161.23 41.1055C1161.99 40.9277 1162.79 40.6442 1163.62 40.2549V43.251C1162.94 43.5895 1162.22 43.8392 1161.45 44C1160.68 44.1693 1159.74 44.2539 1158.63 44.2539ZM1175.49 29.54C1176.01 29.54 1176.45 29.5781 1176.79 29.6543L1176.5 33.2852C1176.19 33.2005 1175.81 33.1582 1175.36 33.1582C1174.12 33.1582 1173.16 33.4756 1172.46 34.1104C1171.78 34.7451 1171.44 35.6338 1171.44 36.7764V44H1167.56V29.8066H1170.5L1171.07 32.1934H1171.26C1171.7 31.3978 1172.29 30.7588 1173.04 30.2764C1173.79 29.7855 1174.61 29.54 1175.49 29.54ZM1188.38 44L1187.64 42.0703H1187.53C1186.88 42.8913 1186.21 43.4626 1185.52 43.7842C1184.83 44.0973 1183.93 44.2539 1182.82 44.2539C1181.46 44.2539 1180.39 43.8646 1179.6 43.0859C1178.82 42.3073 1178.43 41.1986 1178.43 39.7598C1178.43 38.2533 1178.96 37.1445 1180.01 36.4336C1181.06 35.7142 1182.65 35.3164 1184.78 35.2402L1187.24 35.1641V34.542C1187.24 33.1032 1186.51 32.3838 1185.03 32.3838C1183.9 32.3838 1182.57 32.7266 1181.03 33.4121L1179.75 30.7969C1181.39 29.9421 1183.2 29.5146 1185.19 29.5146C1187.09 29.5146 1188.55 29.9294 1189.57 30.7588C1190.58 31.5882 1191.09 32.8493 1191.09 34.542V44H1188.38ZM1187.24 37.4238L1185.74 37.4746C1184.62 37.5085 1183.78 37.7116 1183.23 38.084C1182.68 38.4564 1182.41 39.0234 1182.41 39.7852C1182.41 40.877 1183.03 41.4229 1184.28 41.4229C1185.18 41.4229 1185.9 41.1647 1186.43 40.6484C1186.97 40.1322 1187.24 39.4466 1187.24 38.5918V37.4238ZM1204.99 39.7852C1204.99 41.2409 1204.48 42.3496 1203.47 43.1113C1202.46 43.873 1200.95 44.2539 1198.93 44.2539C1197.9 44.2539 1197.02 44.182 1196.29 44.0381C1195.57 43.9027 1194.88 43.6995 1194.25 43.4287V40.2295C1194.97 40.568 1195.78 40.8516 1196.67 41.0801C1197.58 41.3086 1198.38 41.4229 1199.06 41.4229C1200.47 41.4229 1201.17 41.0166 1201.17 40.2041C1201.17 39.8994 1201.08 39.654 1200.89 39.4678C1200.7 39.2731 1200.38 39.0573 1199.92 38.8203C1199.47 38.5749 1198.86 38.2913 1198.1 37.9697C1197 37.5127 1196.2 37.0895 1195.68 36.7002C1195.18 36.3109 1194.8 35.8665 1194.57 35.3672C1194.34 34.8594 1194.22 34.2373 1194.22 33.501C1194.22 32.2399 1194.71 31.2666 1195.68 30.5811C1196.67 29.887 1198.05 29.54 1199.85 29.54C1201.56 29.54 1203.22 29.9124 1204.84 30.6572L1203.67 33.4502C1202.96 33.1455 1202.29 32.8958 1201.68 32.7012C1201.06 32.5065 1200.43 32.4092 1199.79 32.4092C1198.64 32.4092 1198.07 32.7181 1198.07 33.3359C1198.07 33.6829 1198.25 33.9834 1198.62 34.2373C1198.99 34.4912 1199.8 34.8678 1201.04 35.3672C1202.15 35.8158 1202.96 36.2347 1203.48 36.624C1204 37.0133 1204.38 37.4619 1204.62 37.9697C1204.87 38.4775 1204.99 39.0827 1204.99 39.7852ZM1207.85 26.1377C1207.85 24.8766 1208.55 24.2461 1209.95 24.2461C1211.36 24.2461 1212.06 24.8766 1212.06 26.1377C1212.06 26.7386 1211.88 27.2083 1211.53 27.5469C1211.18 27.877 1210.66 28.042 1209.95 28.042C1208.55 28.042 1207.85 27.4072 1207.85 26.1377ZM1211.88 44H1208.01V29.8066H1211.88V44Z" fill="#FFAA00"/>
<path d="M1267.41 2H973.5L1005.6 33.757C1006.38 34.526 1006.39 35.7764 1005.63 36.5647L973.5 70H1267.41C1267.41 70 1292 35.645 1292 35.1434C1292 34.6419 1267.41 2 1267.41 2Z" stroke="#FFAA00" stroke-width="4" stroke-miterlimit="16"/>
</svg>
