<?xml version="1.0" encoding="UTF-8"?>
<svg width="1920px" height="983px" viewBox="0 0 1920 983" version="1.1" xmlns="http://www.w3.org/2000/svg" xmlns:xlink="http://www.w3.org/1999/xlink">
    <title>pattern-lines</title>
    <defs>
        <filter id="filter-1">
            <feColorMatrix in="SourceGraphic" type="matrix" values="0 0 0 0 1.000000 0 0 0 0 1.000000 0 0 0 0 1.000000 0 0 0 0.399339 0"></feColorMatrix>
        </filter>
        <filter id="filter-2">
            <feColorMatrix in="SourceGraphic" type="matrix" values="0 0 0 0 1.000000 0 0 0 0 1.000000 0 0 0 0 1.000000 0 0 0 0.399339 0"></feColorMatrix>
        </filter>
    </defs>
    <g id="pattern-lines" stroke="none" stroke-width="1" fill="none" fill-rule="evenodd">
        <g filter="url(#filter-1)" id="Whangaehu">
            <g transform="translate(1314.673347, 397.902856) rotate(31.000000) translate(-1314.673347, -397.902856) translate(546.173347, -471.097144)">
                <path d="M1247.32771,699.958885 C1247.41534,722.884279 1282.37839,748.664482 1297.31327,761.955728 C1326.84347,788.244047 1357.55663,812.519958 1387.985,837.183645 C1418.41337,861.847333 1448.9239,886.444157 1477.93929,913.521395 C1496.77903,931.098197 1518.91573,950.894667 1531.69279,975.992925 C1558.91184,1029.47882 1473.09244,1021.53616 1450.86263,1022.70617 C1394.31055,1025.6947 1329.44488,1024.33081 1276.4362,1052.18359 C1244.79201,1068.81102 1232.17376,1096.69723 1238.97031,1137.33982 C1241.16098,1150.55752 1247.64536,1165.76758 1242.15226,1178.64431 C1236.28674,1192.39687 1222.79223,1200.33284 1211.59245,1205.65468 C1170.74197,1225.04333 1123.77405,1227.28974 1080.55219,1229.72334 C1033.94573,1232.39764 986.901141,1231.6154 940.623287,1231.82266 C921.000382,1231.90958 900.506689,1240.51412 881.820295,1247.50741 C857.323152,1256.67355 833.116272,1266.96959 808.821769,1276.92465 C755.374956,1298.77364 700.301572,1321.78594 643.754964,1327.33511 C608.342822,1330.81169 569.639201,1326.11162 542.129893,1295.87203 C528.317733,1280.68872 521.088531,1258.11767 513.103547,1238.06715 C503.437226,1213.84472 494.154272,1189.38829 483.86361,1165.54695 C450.713333,1088.76125 403.383959,1013.72722 326.562722,1009.95647 C314.94123,1009.38818 303.527852,1011.24013 291.961127,1011.58779 C284.595007,1011.80173 278.039434,1009.62887 275.3011,1000.22203 C268.416927,976.628067 290.055246,939.381824 298.92745,920.661765 C318.353195,879.684881 340.259871,840.54657 360.78095,800.392032 C374.357613,773.836283 397.858,737.546101 398.10445,705.280732 C398.323517,676.532061 366.99697,655.75279 349.942623,641.592398 C333.961702,628.334581 305.006553,609.781659 303.254018,582.811395 C302.405135,569.734093 309.470038,558.896512 316.847111,550.485855 C329.777527,535.777232 344.674067,525.400968 356.306512,508.619767 C375.38175,481.087901 391.318857,443.206513 388.728393,406.107356 C386.932045,380.400696 374.916233,363.56601 359.63085,347.473439 C353.206717,340.707473 347.992928,335.920485 347.653375,324.935819 C347.105708,307.49273 352.702864,289.033409 357.314219,272.86061 C373.809946,214.982182 397.239137,159.015875 423.302604,106.760151 C436.326123,80.645661 450.395686,54.6113997 467.663624,32.3345227 C478.972946,17.7061294 494.225469,0.296469271 511.476976,0.316491884 C531.450388,0.316491884 552.584854,9.11495688 571.999646,15.6937224 C608.260672,27.9887934 644.083564,42.2026711 679.764063,56.7842643 C762.27921,90.5204947 844.018494,126.988964 924.981916,166.189671 C982.010474,193.848566 1040.24938,221.547576 1093.86597,258.319132 C1104.32237,265.540187 1114.19203,273.959841 1123.3414,283.46419 C1133.11726,293.445996 1145.24807,297.912068 1157.54868,301.241565 C1233.89344,321.90718 1317.53313,306.041925 1394.19554,296.093548 C1413.65415,293.573025 1433.11275,291.03913 1452.62613,289.274096 C1469.40116,287.756434 1489.48411,283.404018 1505.78815,289.94267 C1537.91429,302.812714 1509.82993,350.248021 1497.95651,369.576487 C1456.1531,437.630608 1402.21886,495.208178 1352.22783,553.989181 C1328.45909,581.982364 1304.50961,609.902003 1282.03336,639.479705 C1270.32972,654.856901 1247.25103,679.861559 1247.32771,699.958885 Z" id="Path" stroke="#FFFFFF" stroke-width="0.5" transform="translate(905.470756, 664.316492) rotate(-180.000000) translate(-905.470756, -664.316492) "></path>
                <path d="M1241.68711,708.388567 C1254.50412,732.640565 1276.99144,750.565664 1295.65778,767.435167 C1322.51977,791.720571 1350.226,814.65641 1377.51559,838.253675 C1403.31955,860.568189 1429.17833,883.13657 1453.07454,908.477569 C1467.64579,923.930704 1485.9284,942.410332 1492.83028,965.265999 C1507.80173,1014.80555 1427.25961,1007.28944 1407.37626,1008.58554 C1357.94471,1011.79242 1301.90182,1012.52733 1256.17066,1038.60992 C1227.61472,1054.89817 1215.88316,1081.90942 1221.9737,1119.40983 C1224.0788,1132.38431 1227.87238,1143.4614 1223.07011,1156.36907 C1217.5168,1171.30777 1204.74365,1180.62107 1193.03401,1187.19516 C1156.35369,1207.79266 1112.99625,1212.16871 1073.23502,1215.80985 C1032.15811,1219.57124 989.359822,1222.2236 949.604075,1219.47103 C933.706162,1218.37535 915.407118,1224.59535 899.673663,1229.36558 C875.464983,1236.71467 851.502993,1245.19285 827.41491,1253.07642 C778.460303,1269.11079 728.233862,1284.55725 677.30572,1286.31435 C640.537685,1287.58374 602.201787,1280.70232 571.61201,1254.10529 C540.611079,1227.13413 526.856644,1185.32449 509.66497,1145.57927 C479.974247,1076.86528 439.873132,993.319481 371.183184,978.801686 C360.767309,976.596961 350.757107,977.792855 340.352197,977.251694 C335.001727,976.977774 328.911181,976.109247 326.197572,969.675456 C319.153152,952.972973 338.455411,922.434167 344.951627,909.640069 C362.899823,874.284261 383.079209,840.658829 401.888084,805.984487 C416.82664,778.452122 435.761602,747.859863 441.539671,715.223221 C448.5512,675.618305 402.7378,647.437884 386.626088,619.551427 C358.695099,571.194412 411.613221,543.642005 437.702244,520.585904 C467.661587,494.115816 492.391065,445.825612 465.534556,404.871136 C455.261215,389.210893 442.619633,379.877548 438.031167,359.440396 C430.855178,327.478534 436.282396,290.953555 442.104322,259.359147 C450.875584,211.86398 464.756106,164.883251 483.625285,121.957882 C497.143993,91.2253225 519.571014,43.0353327 552.413909,46.6497489 C574.522972,49.0615867 596.999332,57.8738141 618.527299,65.6638499 C650.761688,77.3221796 682.590406,90.6106712 714.249181,104.413599 C787.330242,136.188393 859.605442,171.223511 930.460796,209.759468 C978.806901,236.062531 1113.66505,343.552999 1123.81231,347.387887 C1154.06768,358.812383 1188.46747,356.801404 1219.66028,355.030941 C1261.15383,352.679233 1302.43907,346.586169 1343.69141,340.940731 C1363.32807,338.268335 1383.06342,335.00133 1402.80424,333.685175 C1416.85471,332.749836 1435.30725,331.948117 1447.61442,341.909475 C1471.63672,361.344478 1444.8734,405.813156 1433.80516,424.626827 C1399.89876,482.303824 1357.00728,532.250914 1316.79104,583.320411 C1297.0557,608.394171 1277.01886,633.427845 1259.10355,660.512584 C1251.87823,671.449367 1233.76556,693.409784 1241.68711,708.388567 Z" id="Path" stroke="#FFFFFF" stroke-width="0.5" transform="translate(909.673827, 666.457566) rotate(-180.000000) translate(-909.673827, -666.457566) "></path>
                <path d="M1246.84328,685.685051 C1281.86255,734.186416 1330.19639,770.258555 1371.91134,810.765409 C1392.84832,831.102321 1413.91691,851.993576 1431.97493,876.217538 C1441.3686,888.81374 1453.09836,904.74265 1454.908,922.301181 C1459.74467,969.273107 1387.11779,962.921575 1365.38018,964.704813 C1323.35266,968.164429 1275.87429,970.789194 1237.74573,994.759362 C1214.45072,1009.41263 1202.9787,1033.46294 1207.33281,1065.07365 C1209.26309,1079.09911 1212.26819,1091.01407 1207.33281,1104.78573 C1202.33163,1118.73772 1191.91248,1128.58226 1181.36174,1135.96232 C1151.04204,1157.18751 1113.36314,1163.97315 1079.22676,1169.029 C1039.18128,1174.91777 998.834805,1177.21701 958.512807,1175.90815 C923.197409,1174.77944 888.052012,1187.47582 853.570141,1195.84434 C807.890446,1206.92445 761.3827,1216.60202 714.639153,1215.13936 C677.722499,1213.97725 640.515205,1204.84735 608.956183,1180.58331 C576.88717,1155.87179 557.60628,1118.88465 540.222769,1078.97221 C513.944604,1018.63603 481.195606,937.782617 423.544865,914.867696 C415.1602,911.528298 407.345846,911.160961 398.697961,910.579911 C394.497403,910.299402 389.073967,910.212574 386.990139,904.876225 C381.977985,892.026237 400.507601,867.114349 405.678784,858.431928 C422.184893,830.714952 440.078394,804.246912 456.995785,776.897271 C472.789006,751.364262 489.991552,724.755967 499.801994,694.834992 C515.414251,647.181834 465.501093,619.317927 466.89945,573.908841 C467.771368,545.717674 489.931231,525.50098 507.479254,511.515596 C529.085258,494.317714 560.194613,483.010525 571.008582,451.626896 C579.064221,428.251135 566.424162,414.646442 556.690492,396.907579 C540.19535,366.853029 539.07118,326.112417 540.787596,291.322606 C543.101742,244.310611 552.144457,196.604022 567.537364,153.392258 C574.512703,133.80337 583.056397,113.426386 595.636136,98.2121039 C607.420731,83.9528902 618.574693,80.2995924 634.324044,83.2182228 C682.537238,92.1678003 731.216551,117.113077 777.450109,139.393516 C835.539547,167.390999 892.828362,198.300434 948.406241,233.076888 C986.304492,256.793267 1025.0582,281.885476 1058.32267,314.651615 C1066.99249,323.193786 1075.8707,332.477303 1082.20992,343.744419 C1087.00272,352.213124 1089.0372,359.205816 1097.11477,364.041258 C1121.05686,378.367261 1154.35972,374.62046 1180.01273,373.13109 C1221.03124,370.76012 1261.85233,364.448665 1302.61858,358.765015 C1326.40712,355.425621 1371.22038,344.919886 1390.21612,370.118957 C1406.61255,391.87845 1386.82715,428.979123 1376.72059,448.147247 C1351.15531,496.621896 1318.26922,539.165781 1287.75759,582.971958 C1273.77401,603.048397 1259.24206,623.278449 1247.69326,645.598961 C1244.743,651.289289 1240.016,658.829642 1239.20441,665.742188 C1238.2941,673.663232 1242.54401,679.707536 1246.84328,685.685051 Z" id="Path" stroke="#FFFFFF" stroke-width="0.5" transform="translate(920.638560, 648.786272) rotate(-180.000000) translate(-920.638560, -648.786272) "></path>
                <path d="M1240.65487,669.812091 C1273.01307,712.726979 1311.99646,747.983272 1346.7349,788.142404 C1362.31071,806.148464 1378.04008,825.037434 1389.9084,847.003226 C1396.29229,858.815523 1403.07106,873.68457 1401.31055,888.366331 C1396.25939,930.505322 1336.52836,926.699435 1312.39683,929.167576 C1276.53956,932.792865 1235.34594,936.444912 1203.6404,959.166529 C1182.87083,974.048951 1175.08292,996.028118 1178.96042,1024.37495 C1183.12311,1054.78192 1173.81602,1076.85472 1152.63511,1093.81734 C1126.07946,1115.06743 1092.55857,1123.72934 1061.72505,1129.88297 C1024.57674,1137.26149 986.957828,1140.53219 949.326946,1139.65521 C912.729289,1138.79904 877.272386,1146.27705 840.916035,1151.13975 C792.713301,1157.581 742.963952,1160.75815 695.304176,1147.5546 C653.808908,1136.05667 616.32825,1110.71976 588.231468,1071.53719 C558.884233,1030.64229 544.355954,979.119011 520.526065,933.87644 C505.663235,905.65669 484.937539,868.326892 457.164338,857.357376 C447.90112,853.698641 431.020016,858.634924 438.418525,840.635554 C442.647028,830.341602 450.561074,821.311815 456.813334,812.897395 C466.915671,799.299205 477.352559,786.075587 487.624914,772.664684 C509.518795,744.077054 532.964773,714.88075 549.374216,681.02909 C570.050552,638.408506 539.315754,605.606976 543.061626,562.391095 C545.074415,539.134383 558.33579,520.573158 572.364985,505.991728 C581.441732,496.547242 591.374051,488.366925 601.51478,480.735085 C612.105232,472.76212 624.637176,466.688753 633.872971,456.381421 C647.035626,441.713037 641.32084,424.349096 638.852842,405.386547 C634.508995,372.061844 633.5548,338.210613 636.011903,304.600771 C639.017375,263.404886 646.06488,221.031785 660.911257,183.594966 C666.686371,169.020225 674.002614,153.569259 684.867288,143.797025 C695.731961,134.024791 706.969578,134.693664 719.419255,137.636706 C756.345984,146.332054 793.195932,166.565461 828.225043,185.742048 C872.067649,209.747898 915.049204,236.576392 956.094748,267.097065 C984.427359,288.166563 1012.85321,310.928309 1036.55695,339.495873 C1043.45089,347.809964 1050.01029,356.712663 1055.31373,366.652115 C1058.95541,373.46793 1060.90787,382.26361 1066.1839,387.387176 C1082.69206,403.379928 1115.83452,398.604176 1135.1946,397.674442 C1173.83247,395.821664 1211.86157,387.012608 1250.45009,384.872214 C1271.51034,383.701686 1304.49375,380.758645 1319.95987,402.624102 C1334.5046,423.178568 1321.33098,455.552019 1312.63814,475.357347 C1295.55411,514.29913 1272.60174,548.993569 1252.0296,585.192973 C1243.5726,600.088774 1234.3039,615.673514 1228.82494,632.682953 C1223.95476,647.839614 1232.36241,658.809131 1240.65487,669.812091 Z" id="Path" stroke="#FFFFFF" stroke-width="0.5" transform="translate(919.093446, 646.214770) rotate(-180.000000) translate(-919.093446, -646.214770) "></path>
                <path d="M1240.1207,634.096705 C1265.86857,671.819094 1296.90845,705.304887 1322.84258,743.641082 C1338.02286,766.091708 1364.16517,803.834114 1352.42524,835.485156 C1339.54583,870.265285 1294.6514,871.212678 1268.70084,874.014839 C1237.81435,877.350741 1201.54272,881.90758 1175.11007,903.624313 C1166.75023,910.489596 1159.62848,919.5766 1156.60995,931.545816 C1153.37777,944.355685 1156.91126,955.564321 1157.37143,968.387527 C1158.33561,995.288251 1145.15489,1016.88488 1127.71208,1031.71631 C1103.05987,1052.68579 1072.23364,1062.6001 1043.11663,1069.51209 C1010.12873,1077.30807 976.59328,1081.15158 942.99029,1080.98759 C910.876677,1080.85416 879.102703,1081.72149 846.956219,1082.72226 C804.915975,1084.05663 762.284077,1081.90163 721.503835,1068.29782 C681.331681,1054.88749 644.808055,1029.7548 616.118355,992.786322 C588.129873,956.711871 569.246277,912.617907 552.707379,867.703306 C543.323102,842.210339 527.468989,804.114329 505.084778,791.237744 C495.130761,785.506663 485.363006,785.9003 495.947024,770.995485 C509.275654,752.227696 527.238902,737.169431 542.676667,721.117066 C564.945834,697.952557 587.773786,674.334365 606.465643,646.79315 C618.402793,629.206271 623.722193,612.139792 622.900453,589.368919 C622.264974,572.022224 619.383404,554.855668 620.840623,537.442255 C624.253586,496.570773 650.675282,468.542517 674.034626,442.442414 C689.06152,425.656151 702.784586,412.852955 710.519903,388.974563 C719.668614,360.752825 723.508881,330.049175 729.622632,300.746605 C736.33899,268.568486 744.096221,235.096036 758.756071,206.754206 C771.80531,181.521437 787.675858,170.206054 811.429637,177.004624 C848.479174,187.599452 884.997327,213.699555 917.888857,237.84482 C951.366567,262.410409 984.269059,290.031684 1012.01102,323.797693 C1026.98861,342.031738 1037.21106,363.441563 1050.5123,383.029984 C1067.24293,407.62226 1105.0923,398.308419 1127.58608,396.226816 C1164.92597,392.770821 1282.41842,366.910902 1271.57693,450.668751 C1267.05187,485.629013 1249.23106,517.893864 1236.19826,548.744294 C1230.79669,561.547489 1222.97919,576.912658 1221.75754,591.583958 C1220.42632,607.562933 1232.3799,622.741291 1240.1207,634.096705 Z" id="Path" stroke="#FFFFFF" stroke-width="0.5" transform="translate(923.370061, 629.062203) rotate(-180.000000) translate(-923.370061, -629.062203) "></path>
                <path d="M1242.95153,595.115174 C1262.61658,629.332767 1286.15116,661.659405 1303.0249,698.616544 C1313.97121,722.550818 1324.7205,754.530001 1310.59975,779.854094 C1294.66192,808.432232 1259.51878,815.094005 1233.69642,818.735599 C1207.0914,822.4841 1175.33068,825.637912 1153.58582,847.307056 C1146.66775,854.20937 1140.96472,863.517146 1139.90293,874.662421 C1138.87945,885.353324 1141.76928,896.044235 1140.81148,906.928918 C1138.666,931.371009 1126.52107,951.510015 1110.86237,966.116468 C1064.54304,1009.32779 995.603151,1018.93625 939.716753,1020.06547 C911.743445,1020.62675 882.954637,1017.68006 854.80072,1015.56861 C818.267397,1012.82906 781.679346,1006.94906 746.83723,992.776922 C672.758052,962.655289 623.105573,895.850463 588.427651,812.72196 C577.514177,786.555958 569.162139,758.245093 552.058525,737.21741 C543.241269,726.359455 545.16782,718.561772 554.182109,708.659317 C568.275488,693.184225 585.466674,681.357406 601.108956,668.441451 C623.357339,650.073132 646.081885,631.430858 665.757885,609.42763 C679.320367,594.259901 688.94765,579.646764 691.870316,556.901854 C693.955588,540.68508 693.468478,524.160943 694.72183,507.843941 C697.108127,476.846985 705.27955,446.083892 719.745103,420.372255 C731.238733,399.992708 744.921624,381.470707 759.064262,363.81066 C777.448596,340.818523 792.997834,317.458885 806.959858,290.170338 C825.47007,254.048427 851.478514,187.417332 895.077679,205.050651 C943.164835,224.508106 988.236286,273.946882 1019.08847,321.84884 C1029.44916,337.931977 1037.95444,357.656706 1051.92741,369.516934 C1072.84582,387.243798 1094.07072,386.622389 1118.95169,386.548889 C1156.202,386.448661 1237.25945,376.579616 1238.13515,444.680711 C1238.47996,471.661894 1228.91288,497.173077 1224.33185,523.125261 C1219.16519,552.191172 1229.5204,571.795627 1242.95153,595.115174 Z" id="Path" stroke="#FFFFFF" stroke-width="0.5" transform="translate(931.847903, 611.135235) rotate(-180.000000) translate(-931.847903, -611.135235) "></path>
                <path d="M1244.09232,570.664024 C1263.54124,615.228861 1307.15346,688.45825 1273.98299,738.014029 C1256.46144,764.203127 1225.4702,774.04489 1199.47261,779.909914 C1178.55079,784.653977 1153.31976,786.435503 1137.51205,806.546061 C1125.89306,821.332059 1131.05097,842.850489 1126.5994,861.359675 C1121.07464,884.305996 1108.39342,903.082075 1092.81019,917.194169 C1049.26368,956.634615 988.715783,968.738314 936.33184,971.313857 C881.927437,973.98281 821.981841,961.498778 770.786077,937.484877 C706.952893,907.532559 659.130023,850.817315 625.68577,778.995797 C619.514901,765.737774 613.908007,752.132788 607.983533,738.714628 C604.002857,729.713586 598.100286,721.006128 594.962834,711.538018 C589.739223,695.751163 595.893666,682.846777 605.760488,672.557965 C619.95294,657.745278 637.386878,647.202914 653.566931,636.086727 C675.693359,620.873696 698.31258,605.934233 718.894922,588.085612 C732.725992,576.075325 747.203171,563.137578 752.153007,542.29973 C755.53138,528.087557 756.232242,513.034664 756.111781,498.31539 C755.848958,466.755024 757.206878,441.233165 769.285794,412.328407 C789.161799,364.874428 819.725948,322.204548 852.014871,286.700805 C877.355406,258.836939 917.45237,215.553199 954.373551,234.182488 C987.500226,250.863443 1006.87797,290.790975 1028.70324,323.071958 C1039.31472,338.765399 1051.23485,353.097675 1065.24114,364.26057 C1082.89957,378.332622 1099.52314,384.23768 1120.44496,386.539652 C1155.6578,390.416306 1208.75356,391.423835 1219.63882,442.934622 C1223.65782,461.944237 1221.36359,481.634435 1223.47165,500.890929 C1226.22582,526.352737 1234.28026,548.18477 1244.09232,570.664024 Z" id="Path" stroke="#FFFFFF" stroke-width="0.5" transform="translate(939.558720, 600.668941) rotate(-180.000000) translate(-939.558720, -600.668941) "></path>
                <path d="M1240.78493,558.984353 C1254.65743,607.733997 1272.88186,669.171904 1239.37631,712.498985 C1223.14697,733.488044 1200.31848,745.221349 1178.22444,753.989606 C1162.40071,760.273636 1137.27565,762.123451 1127.57423,781.443002 C1120.44889,795.660535 1119.4623,815.273921 1113.01661,830.506513 C1104.15926,851.448827 1090.74169,868.698184 1075.00017,882.201174 C1033.9911,917.387731 980.578441,930.984204 931.868517,934.877497 C826.029797,943.325213 718.338486,876.044026 661.702986,765.348942 C644.815928,732.352779 623.017865,697.233001 650.307921,663.522288 C680.10281,626.746358 724.986977,609.517032 760.54791,583.385887 C774.135388,573.408905 791.449966,561.415157 799.030233,543.351076 C803.590451,532.492595 803.90287,518.869406 804.11115,506.915726 C804.659252,476.470572 806.736564,449.090635 816.794259,420.682281 C832.327501,376.780889 857.096281,336.278617 885.164644,303.102147 C909.642935,274.172906 944.551621,240.175038 980.101595,261.030536 C1007.35876,277.057817 1024.64593,311.075719 1045.82464,336.151734 C1069.39308,364.079269 1098.5412,382.897968 1130.55043,392.09362 C1161.68817,401.015472 1195.84048,407.032381 1212.25068,444.936898 C1217.87971,457.939029 1223.76085,474.774351 1225.87105,489.165514 C1229.27762,512.893381 1234.26542,536.243591 1240.78493,558.984353 L1240.78493,558.984353 Z" id="Path" stroke="#FFFFFF" stroke-width="0.5" transform="translate(947.872874, 595.089977) rotate(-180.000000) translate(-947.872874, -595.089977) "></path>
                <path d="M1228.15763,533.726904 C1234.5707,583.036622 1235.28326,634.453022 1205.48718,673.316277 C1191.58125,691.447112 1174.00287,704.327963 1156.22717,715.998309 C1143.14891,724.585544 1129.6431,731.828514 1119.87551,745.906496 C1110.82597,758.941169 1103.947,774.075835 1095.20988,787.451589 C1083.68472,805.177351 1069.89445,820.52197 1054.36907,832.895714 C1015.45218,863.853897 968.110611,878.333155 922.819026,883.355751 C900.894021,885.796825 877.110875,887.067519 855.333857,880.41308 C834.3023,873.992722 813.506428,863.840522 794.168572,852.002978 C753.059184,826.863247 717.431048,790.046485 691.603389,743.49886 C673.893465,711.570935 664.317719,680.525809 687.251276,648.136419 C713.10634,611.627297 753.645678,591.483411 787.059388,567.788262 C809.976502,551.536721 835.661644,535.606198 839.942503,501.069999 C843.351842,473.589512 846.119871,447.506791 854.939212,421.531076 C868.06498,383.216427 887.364275,348.508806 911.692092,319.467382 C933.940486,293.01014 962.086721,270.558936 993.910866,284.690421 C1019.12462,295.905991 1038.68721,321.032345 1060.71636,338.995983 C1085.26689,359.059615 1112.24013,370.121364 1140.64398,379.01624 C1166.17016,387.041694 1190.20546,399.374139 1206.70402,425.557178 C1210.08047,430.90748 1213.62684,436.732621 1216.23044,442.718271 C1219.55207,450.355827 1219.29445,457.926504 1219.94673,466.486987 C1221.64591,489.078636 1225.25806,511.409458 1228.15763,533.726904 Z" id="Path" stroke="#FFFFFF" stroke-width="0.5" transform="translate(952.752826, 582.824739) rotate(-180.000000) translate(-952.752826, -582.824739) "></path>
                <path d="M1205.88765,499.383609 C1205.34021,546.15459 1196.11579,590.356913 1170.85129,626.806438 C1160.05024,642.398995 1147.15248,655.242285 1135.2675,669.530446 C1125.69819,681.049271 1116.65444,691.752013 1105.65083,701.244007 C1079.54875,723.719765 1058.33533,752.804466 1030.59639,772.818593 C993.567347,799.575448 951.151453,814.365296 909.064037,820.278563 C888.513027,823.168306 867.283183,824.178377 846.491292,820.914038 C828.633704,818.111259 811.53158,808.271425 795.666684,798.204159 C764.57192,778.484356 734.380436,750.456552 714.190737,714.99703 C669.678143,636.820191 757.438737,579.981943 802.48235,546.696416 C823.197597,531.384806 854.850753,513.651701 863.336117,483.322806 C869.401785,461.656444 873.09703,439.622174 880.909038,418.624733 C901.892531,362.234662 944.489077,295.911109 1001.25344,304.740871 C1025.54349,308.513588 1047.68209,323.838576 1070.35718,334.126586 C1093.70562,344.722301 1117.80407,350.628877 1142.07221,357.110724 C1164.75278,363.164463 1182.82935,371.78017 1197.47893,394.878024 C1204.48072,405.908538 1203.86211,419.113045 1204.48619,432.645324 C1205.50444,454.873582 1206.134,477.228933 1205.88765,499.383609 Z" id="Path" stroke="#FFFFFF" stroke-width="0.5" transform="translate(953.941057, 563.444643) rotate(-180.000000) translate(-953.941057, -563.444643) "></path>
                <path d="M1174.39436,472.734099 C1165.25842,543.315264 1131.32806,620.36993 1081.43725,661.359861 C1022.7509,709.577422 959.17265,750.180279 889.055387,761.852599 C856.547025,767.264979 820.93662,769.927789 790.262035,752.229108 C766.917067,738.768233 739.800229,718.646996 726.95281,690.350462 C695.520557,621.137406 765.434672,566.039249 805.267161,534.018785 C826.712471,516.78059 854.010484,499.98286 870.174079,474.809622 C879.551592,460.214217 884.339178,440.907171 891.910376,424.876918 C914.854541,376.298977 952.622661,337.11762 999.669468,330.110224 C1021.42224,326.873474 1043.33423,330.8777 1064.92228,334.061061 C1087.02094,337.317832 1109.39411,339.086365 1131.35551,343.631162 C1148.8862,347.261661 1169.54638,353.408148 1176.00303,376.238913 C1184.14522,405.009281 1178.12231,443.910341 1174.39436,472.734099 Z" id="Path" stroke="#FFFFFF" stroke-width="0.5" transform="translate(949.557701, 547.412295) rotate(-180.000000) translate(-949.557701, -547.412295) "></path>
                <path d="M1147.2835,468.548164 C1134.00653,535.005045 1105.89156,599.82977 1058.62795,639.503223 C1033.56382,660.540656 1004.46841,675.062839 976.534185,689.411104 C944.869917,705.67247 911.787031,718.29493 877.997574,724.555991 C835.92644,732.35556 767.788842,739.385876 745.808441,680.75532 C723.992358,622.559562 779.121373,571.05297 811.722257,541.700902 C832.623627,522.897652 854.992923,505.639599 874.963148,485.083787 C885.791776,473.939633 894.133698,461.062986 903.29722,447.992351 C928.624249,411.777198 964.730607,383.107424 1001.53257,367.802609 C1037.20075,352.966035 1081.32587,346.397273 1118.97682,351.300432 C1135.22249,353.40752 1146.83437,360.518105 1151.7475,380.73277 C1158.55578,408.833964 1152.77176,441.09582 1147.2835,468.548164 Z" id="Path" stroke="#FFFFFF" stroke-width="0.5" transform="translate(947.837834, 539.695945) rotate(-180.000000) translate(-947.837834, -539.695945) "></path>
                <path d="M1117.73342,472.389081 C1104.50598,530.775983 1075.97526,584.104547 1034.3595,619.147323 C987.71019,658.43086 927.64174,680.259478 872.431577,691.359903 C843.084743,697.255757 779.48898,713.241697 764.530749,667.490667 C749.572517,621.739638 792.815006,576.653304 817.703397,551.833554 C847.910156,521.756057 880.477578,492.715487 913.006665,465.728827 C941.269015,442.265056 971.426472,418.276175 1002.03854,400.156561 C1019.30366,389.877417 1037.28879,381.484608 1055.78082,375.077578 C1069.47382,370.371531 1086.88583,363.35234 1101.24158,366.855288 C1137.45134,375.702392 1124.05959,444.471847 1117.73342,472.389081 Z" id="Path" stroke="#FFFFFF" stroke-width="0.5" transform="translate(943.460010, 532.410023) rotate(-180.000000) translate(-943.460010, -532.410023) "></path>
                <path d="M1089.96307,476.395473 C1060.99329,586.97682 969.20828,641.362732 880.834045,660.319343 C860.298294,664.719628 802.730421,680.584689 791.251829,646.804661 C780.128526,614.052925 815.504454,575.211569 832.066424,556.809166 C883.386668,499.785755 946.792228,457.505634 1006.87446,415.619468 C1025.62829,402.545482 1059.45188,374.173998 1082.71516,387.261338 C1107.97353,401.497159 1095.96474,453.465919 1089.96307,476.395473 Z" id="Path" stroke="#FFFFFF" stroke-width="0.5" transform="translate(943.627386, 525.892969) rotate(-180.000000) translate(-943.627386, -525.892969) "></path>
                <path d="M1057.32898,476.500676 C1032.17223,557.883501 959.001906,604.559633 891.729237,619.947001 C875.251947,623.712066 833.404349,635.434505 820.92454,612.72395 C809.375653,591.715686 836.936368,561.27473 847.247679,549.178456 C870.203073,522.242216 897.407848,500.052362 924.284055,478.723666 C949.13415,458.990451 974.252568,438.763237 1000.40047,422.074118 C1014.17262,413.288965 1040.00292,394.543745 1055.65332,408.108662 C1072.50298,422.701628 1062.9145,458.429697 1057.32898,476.500676 Z" id="Path" stroke="#FFFFFF" stroke-width="0.5" transform="translate(941.648156, 514.832560) rotate(-180.000000) translate(-941.648156, -514.832560) "></path>
                <path d="M1021.27772,476.090074 C1002.00635,529.276294 950.392094,563.813581 904.862093,575.290361 C892.611002,578.37178 866.132127,586.366089 855.797164,572.162153 C846.282609,559.081164 861.617119,539.90418 868.422665,531.047608 C898.585127,491.791272 942.755127,456.725933 983.225016,435.189423 C993.400306,429.775217 1011.69159,419.147332 1022.15871,430.076007 C1032.89562,441.298787 1025.70464,463.878032 1021.27772,476.090074 Z" id="Path" stroke="#FFFFFF" stroke-width="0.5" transform="translate(940.268573, 502.828530) rotate(-180.000000) translate(-940.268573, -502.828530) "></path>
                <path d="M980.533651,479.0282 C969.649665,505.594817 941.203656,525.638563 917.640343,532.018895 C901.057088,536.50549 881.123631,532.629778 895.575946,509.504468 C909.93318,486.555634 936.572655,465.595565 959.151604,456.303358 C976.378052,449.217117 989.879555,456.208332 980.533651,479.0282 Z" id="Path" stroke="#FFFFFF" stroke-width="0.5" transform="translate(937.090046, 493.655364) rotate(-180.000000) translate(-937.090046, -493.655364) "></path>
                <path d="M524.511839,609.00295 C525.20643,661.234411 547.931054,715.517702 536.708207,768.738319 C527.492566,812.448329 481.097144,816.097519 453.264266,835.900689 C431.146727,851.633621 418.594859,879.503773 406.633667,906.244405 C395.886643,930.251496 386.233464,954.980405 374.912172,978.593166 C367.583412,993.858249 354.998729,1023.8337 339.105166,1024.37506 C323.889786,1024.89637 309.937798,1001.53758 301.099532,987.729496 C289.575879,969.730864 279.35937,950.542564 268.169339,932.256541 C249.311456,901.412242 226.685279,878.581447 200.777568,856.973731 C171.294808,832.387408 141.325286,808.640972 110.869004,785.73443 C88.4451888,768.818521 65.8682343,752.029598 44.3140249,733.442818 C30.7941046,721.78013 0.954021766,699.89839 0.816489365,678.397609 C0.7516605,668.138454 8.70938055,656.776524 14.0746887,648.575884 C23.1535995,634.694279 33.5013702,622.002335 43.8819562,609.584414 C63.2156609,586.452861 83.3697494,564.370616 103.305069,542.021032 C129.179964,513.014692 153.895385,484.482882 176.641885,451.553335 C200.159546,417.467545 222.627115,382.258929 245.5541,347.531524 C261.081225,324.005646 276.591943,297.585817 298.988412,283.149482 C327.040059,265.104064 350.06549,284.131955 378.434352,284.35251 C402.838026,284.546331 401.038652,353.626865 404.139701,372.835211 C407.251689,392.277478 414.110096,410.376364 416.768138,429.865416 C420.082487,454.193313 420.126241,479.082623 420.941156,503.671176 C421.931085,533.746873 422.324869,562.378937 448.637303,573.847802 C463.612037,580.364204 479.811877,581.734319 495.311655,585.637475 C505.35315,588.170518 524.29307,592.501418 524.511839,609.00295 Z" id="Path" stroke="#FFFFFF" stroke-width="0.5" transform="translate(270.316489, 649.883640) rotate(-180.000000) translate(-270.316489, -649.883640) "></path>
                <path d="M502.381713,585.806386 C504.937882,629.488131 520.039528,685.39756 505.758921,730.488394 C493.558279,769.021289 455.401852,774.016542 429.7088,794.257999 C408.498622,810.953362 399.056671,838.273655 388.454319,865.113117 C379.948353,886.643458 371.699646,908.380813 362.044225,929.223307 C354.928553,944.58304 344.063468,970.514277 329.268342,973.69307 C315.967508,976.551315 301.703321,953.658641 294.237337,942.011951 C283.344885,925.009398 274.028827,906.544326 264.406248,888.466587 C247.498315,856.712013 230.185336,828.15626 205.439215,804.829503 C180.583623,781.402571 153.390806,763.885796 125.907889,745.654461 C104.407609,731.389943 83.0168027,716.711381 62.5893481,700.243076 C47.3727557,687.982002 25.4947987,672.288361 18.5323867,650.424116 C13.020477,633.12772 40.9741238,604.425053 49.217357,594.294308 C66.1854997,573.465174 84.1662572,553.911566 102.179857,534.478164 C124.139917,510.797463 146.800598,490.088536 166.193543,463.075439 C200.879711,414.779096 229.873341,354.635724 274.50503,318.740695 C301.424167,297.09015 331.38115,291.553967 361.321711,294.792867 C373.177516,296.075071 376.023785,316.49016 377.518077,328.397292 C380.003089,348.177957 380.315084,368.299208 382.225368,388.160011 C384.015234,406.751966 387.989063,424.415659 391.191116,442.646994 C394.431483,461.118743 395.3401,480.044606 397.726587,498.643239 C399.204458,510.189752 400.665908,523.626179 407.130223,532.908801 C413.818955,542.518651 424.853721,546.545572 434.498195,549.604162 C452.610318,555.293942 500.575427,554.980069 502.381713,585.806386 Z" id="Path" stroke="#FFFFFF" stroke-width="0.5" transform="translate(264.818447, 633.937746) rotate(-180.000000) translate(-264.818447, -633.937746) "></path>
                <path d="M467.540908,553.284001 C471.83821,593.462989 477.854432,643.506281 460.347718,680.524148 C446.037977,710.792052 415.518924,717.321472 393.720383,737.043394 C375.589602,753.4438 368.74129,779.528063 359.741591,803.767782 C352.356802,823.650102 344.933692,843.619296 335.983262,862.539244 C329.195167,876.88793 320.447284,896.342527 306.969633,901.348194 C295.446296,905.625391 282.428482,886.464858 276.04001,876.928026 C265.162636,860.674651 256.29432,842.463113 247.48622,824.492176 C233.077942,795.086394 219.819261,763.675674 199.312648,739.756746 C179.386306,716.546229 155.715564,702.845808 131.601407,687.44119 C113.131221,675.638779 94.7759955,663.381915 77.3732922,649.307239 C64.0106002,638.507298 47.4509347,625.709101 40.4876638,607.738159 C34.4659673,592.239976 49.9253046,573.89478 57.649499,562.961176 C70.4045471,544.91672 84.5610082,528.362602 98.5203955,511.741653 C113.585585,493.810811 130.271159,477.270059 144.849139,458.89813 C175.505049,420.236213 199.996931,377.430753 237.78034,347.811113 C262.250325,328.623841 295.178056,311.194234 324.104096,314.328622 C344.906321,316.587521 343.537754,372.872857 345.535862,390.857165 C348.820424,420.262945 355.165103,451.159063 365.243233,478.245797 C373.898053,501.456314 394.464884,508.613948 413.383959,513.820107 C425.235753,517.088159 437.656871,518.852505 449.119991,523.904953 C462.389621,529.759377 465.739874,536.442509 467.540908,553.284001 Z" id="Path" stroke="#FFFFFF" stroke-width="0.5" transform="translate(255.626839, 607.961519) rotate(-180.000000) translate(-255.626839, -607.961519) "></path>
                <path d="M421.52708,524.484301 C424.087843,558.46368 423.512083,598.644899 406.924705,628.038269 C392.38813,653.784287 366.506337,660.562731 348.09846,680.844424 C333.731872,696.667497 328.089422,722.467152 320.363268,743.392496 C310.920801,768.977601 297.689283,816.232273 273.86926,825.860206 C251.710717,834.810974 228.537739,777.633359 220.51548,760.583327 C207.815855,733.596941 197.19445,704.00243 181.791493,679.08109 C168.527074,657.626075 150.755275,645.765475 131.892274,633.019855 C107.841947,616.740864 71.3277825,597.438055 58.4691377,565.711452 C48.8841009,542.070708 80.0519207,506.924712 90.6952594,490.54515 C101.826624,473.434776 110.210789,453.153082 121.698576,436.646131 C139.826798,410.598402 169.201536,389.626126 193.454749,373.622026 C217.033502,358.05373 247.652978,340.822672 274.401153,341.848489 C291.981032,342.518959 295.325924,375.693775 299.076591,391.899016 C304.450353,414.936338 311.595263,435.580084 326.943385,451.248949 C342.565679,467.199412 360.979039,474.715372 380.33555,481.292675 C390.271526,484.645021 401.605777,487.259851 410.494418,494.03159 C420.315242,501.400046 420.540063,511.423561 421.52708,524.484301 Z" id="Path" stroke="#FFFFFF" stroke-width="0.5" transform="translate(239.662503, 584.304808) rotate(-180.000000) translate(-239.662503, -584.304808) "></path>
                <path d="M374.373216,508.959928 C374.23085,538.309858 368.727864,569.607555 352.410551,592.247024 C338.820092,611.104353 317.547355,617.407917 304.53731,636.685485 C294.232216,651.947447 288.986582,673.372896 282.087316,691.096251 C273.649404,712.815198 261.718054,750.756653 240.735524,758.294249 C220.25675,765.63173 202.143438,723.841434 194.291416,707.305416 C182.792638,683.058373 173.484105,657.357173 161.881291,633.176834 C152.791781,614.206107 141.676298,601.979193 126.875729,589.75228 C109.501624,575.390825 85.2611066,559.481829 75.979951,535.721727 C69.2887579,518.518667 85.4856066,491.02979 91.3664098,475.874554 C95.3088481,465.695465 98.9172733,455.356285 100.899443,444.32338 C102.443565,435.731855 102.596882,427.780693 107.070454,420.403188 C118.33378,401.846028 143.028772,399.424659 159.784133,393.307866 C182.037005,385.189943 205.647827,375.964726 228.935589,374.20373 C243.248828,373.103108 250.55329,389.185536 258.722897,400.498599 C268.376394,413.872828 282.043512,423.491601 293.980338,433.583974 C309.733662,446.924851 326.877791,455.222876 344.613286,463.721015 C352.613149,467.556517 362.009293,471.318644 368.207681,478.942956 C374.67985,486.847425 374.422496,498.367272 374.373216,508.959928 Z" id="Path" stroke="#FFFFFF" stroke-width="0.5" transform="translate(224.387958, 566.650113) rotate(-180.000000) translate(-224.387958, -566.650113) "></path>
                <path d="M335.165196,518.287248 C332.345169,542.896079 323.557178,566.416378 308.713782,583.812851 C297.335301,597.169068 282.224111,604.688619 273.091815,620.736113 C264.582547,635.695077 258.65284,652.70422 251.624634,668.698291 C244.18654,685.607262 233.135969,713.869017 215.980806,718.470234 C197.492142,723.425391 183.249913,694.916545 175.363676,679.11614 C165.400674,659.148595 157.831416,637.665119 148.923192,617.009729 C142.21215,601.61435 133.651614,587.534257 123.526555,575.238159 C112.907733,562.27595 98.5070143,549.861346 93.1347536,532.037474 C88.385523,516.250425 97.2718863,497.151035 98.8403896,481.143608 C100.518196,464.040972 97.577936,446.076859 106.879652,431.391699 C126.062393,401.106475 174.20506,406.722765 201.727647,406.074989 C228.884068,405.407177 250.717416,423.938929 272.692857,441.569136 C287.208344,453.20908 302.325,463.065968 317.206653,473.911216 C332.37796,484.976842 337.646382,496.630142 335.165196,518.287248 Z" id="Path" stroke="#FFFFFF" stroke-width="0.5" transform="translate(213.752444, 562.540874) rotate(-180.000000) translate(-213.752444, -562.540874) "></path>
                <path d="M312.637861,545.919503 C304.302081,581.658652 278.267119,600.653869 259.6551,627.662588 C244.426588,649.773423 233.007936,695.562952 207.361066,701.61998 C178.243232,708.494439 160.811888,647.823649 150.688699,624.412966 C139.455894,598.449485 119.450023,577.330288 111.130642,549.845851 C106.757775,535.420206 110.512975,521.959398 112.841527,507.540454 C115.394188,491.707756 117.312784,475.519945 126.124113,462.776064 C143.468001,437.697018 177.341328,437.871223 201.736465,437.181098 C226.989777,436.464171 249.329666,453.650319 269.450324,470.802967 C290.789919,488.967353 321.175885,509.269119 312.637861,545.919503 Z" id="Path" stroke="#FFFFFF" stroke-width="0.5" transform="translate(211.613214, 569.659419) rotate(-180.000000) translate(-211.613214, -569.659419) "></path>
                <path d="M322.48136,1265.61537 C367.090481,1232.60231 417.520086,1205.35185 465.075039,1177.654 C534.570429,1137.18228 605.089744,1097.79898 678.111374,1067.65053 C717.261393,1051.49122 767.992153,1028.19378 810.000397,1040.85413 C825.359251,1045.48157 839.365647,1059.4774 853.1366,1068.57201 C872.125728,1081.11216 891.394111,1093.03132 910.629633,1104.97719 C949.215675,1128.92234 987.922177,1152.6271 1025.84568,1178.10806 C1044.10656,1190.38112 1061.82536,1205.83929 1080.83639,1216.30946 C1091.94624,1222.43263 1105.24082,1219.56803 1117.11177,1219.18073 C1144.60986,1218.27929 1172.09153,1216.56987 1199.5732,1215.1142 C1233.18746,1213.33801 1266.87839,1211.44831 1300.53097,1212.14944 C1315.70913,1212.46995 1352.88249,1209.18467 1361.23815,1225.1303 C1365.73355,1233.71744 1355.1384,1249.20233 1350.22685,1256.36717 C1341.20866,1269.535 1330.84349,1281.40074 1320.61521,1293.14629 C1296.96093,1320.30994 1271.83921,1346.17819 1250.81319,1376.52028 C1240.00997,1392.11868 1225.85573,1411.17599 1232.90822,1432.47021 C1240.02639,1453.97811 1252.35729,1472.60137 1259.88066,1494.03583 C1268.54294,1518.70213 1272.13489,1544.37005 1276.22511,1570.52542 C1279.25307,1589.8565 1286.30556,1606.98402 1292.93642,1624.806 C1300.26268,1644.50432 1307.85176,1664.36958 1312.93852,1685.14297 C1316.3005,1698.86503 1321.72674,1723.55137 1309.96531,1732.23867 C1293.254,1744.59185 1261.91756,1734.58911 1242.86819,1730.94993 C1216.54187,1725.92852 1190.40717,1719.53157 1164.15202,1714.02272 C1145.09171,1710.01629 1125.96569,1705.62256 1106.5878,1705.15514 C1075.34992,1704.4006 1044.008,1707.01145 1012.85225,1709.44203 C955.162096,1713.94259 897.885347,1720.04574 840.000813,1720.04574 C789.287562,1720.04574 672.093769,1648.48406 644.661379,1635.88381 C589.906107,1610.73005 533.694345,1586.88505 481.879431,1553.41793 C467.862083,1544.3567 446.288505,1532.28397 438.91297,1513.63399 C434.362807,1502.14218 436.454458,1495.49817 425.722425,1488.09294 C411.080865,1477.99003 392.321709,1474.02366 376.114149,1469.50306 C350.012311,1462.2247 323.707879,1456.06145 297.485579,1449.47086 C244.449623,1436.17616 191.775052,1421.13866 138.958116,1406.66874 C122.991479,1402.29505 103.67382,1401.32682 88.4518543,1393.6211 C78.6397095,1388.67315 79.6581576,1382.44314 87.2527141,1374.92439 C100.574672,1361.72985 119.246219,1354.40474 134.982884,1346.87931 C158.040329,1335.85492 181.475585,1326.01911 204.921792,1316.32354 C228.367999,1306.62795 251.934668,1297.23285 275.391827,1287.51723 C290.887569,1281.12029 308.557095,1275.9186 322.48136,1265.61537 Z" id="Path" stroke="#FFFFFF" stroke-width="0.5" transform="translate(721.824595, 1387.728088) rotate(-180.000000) translate(-721.824595, -1387.728088) "></path>
                <path d="M275.289015,1251.41274 C322.474524,1218.31835 374.851753,1191.95387 425.345068,1166.23162 C489.967748,1133.29109 556.052652,1102.4177 624.141955,1081.82653 C664.120393,1069.74476 711.289472,1056.40532 752.138673,1070.25987 C766.711635,1075.20363 777.598913,1086.31537 790.090807,1096.12261 C804.329702,1107.31463 819.116248,1117.57008 833.90279,1127.66498 C864.341173,1148.44347 895.100834,1168.51284 926.181788,1187.8731 C942.644144,1198.16869 960.765877,1211.95636 979.364062,1215.5287 C994.150612,1218.37186 1010.94703,1214.25764 1025.79929,1213.06017 C1052.54651,1210.90606 1079.28825,1208.68504 1106.04642,1206.79852 C1136.92292,1204.62434 1167.88704,1202.6174 1198.82926,1202.96527 C1216.07475,1203.15928 1245.6807,1199.95486 1257.87686,1213.55521 C1268.5177,1225.42291 1229.77695,1268.34461 1222.96418,1276.49947 C1201.68799,1301.96081 1179.31101,1326.20462 1159.50799,1353.43207 C1147.80472,1369.48757 1133.55487,1389.01507 1128.62055,1410.2953 C1124.42007,1428.43132 1132.52529,1449.09609 1137.31175,1465.86071 C1143.29757,1486.85997 1148.12783,1508.62855 1155.08299,1529.18628 C1161.27691,1547.50293 1171.1346,1563.81934 1179.79294,1580.47022 C1189.31658,1598.78688 1198.96069,1617.40456 1206.03085,1637.38697 C1210.36276,1649.68281 1217.53149,1670.27399 1208.92244,1681.99451 C1198.97712,1695.50788 1168.31968,1686.67736 1155.71826,1684.7507 C1130.15396,1680.79034 1104.78683,1674.90332 1079.39778,1669.63177 C1037.22874,1660.88152 997.025772,1653.2284 954.084545,1655.06141 C898.164021,1657.45635 842.298267,1663.08915 786.388694,1666.20659 C765.742295,1667.37062 744.767306,1669.71205 724.104479,1668.44767 C712.258813,1667.71849 703.23902,1663.30322 696.349585,1653.34213 C686.940961,1639.74847 665.270457,1632.22245 650.199134,1624.42215 C626.69948,1612.2668 602.904095,1600.96106 579.174428,1589.50813 C527.081976,1564.35451 473.987326,1540.11071 424.583834,1507.57826 C408.953908,1497.28935 391.056712,1485.81636 379.495824,1468.8176 C373.044509,1459.33817 374.67103,1450.2066 370.733427,1440.13177 C365.519801,1426.8793 348.378361,1420.89862 338.131832,1416.56364 C318.356197,1408.18801 297.77004,1402.57528 277.342702,1397.3171 C231.121056,1385.42266 184.789881,1377.60229 137.817955,1371.84238 C126.810194,1370.50442 83.4637098,1365.86839 106.229513,1343.52449 C131.383069,1318.83247 167.703206,1306.73063 197.314632,1292.81587 C223.990655,1280.30596 250.688584,1268.66572 275.289015,1251.41274 Z" id="Path" stroke="#FFFFFF" stroke-width="0.5" transform="translate(679.714812, 1376.864563) rotate(-180.000000) translate(-679.714812, -1376.864563) "></path>
                <path d="M258.112704,1247.14556 C302.464677,1218.03227 351.597234,1196.31252 399.364693,1175.53448 C457.329268,1150.32166 516.746659,1127.84719 577.540111,1115.25747 C615.729956,1107.35634 657.834178,1101.28523 695.766354,1114.41593 C721.670319,1123.379 741.7082,1147.61003 764.459831,1164.28054 C787.211461,1180.95106 810.884121,1196.59971 835.263997,1209.64358 C850.395207,1217.7384 866.672211,1225.89333 883.508419,1224.82471 C924.444913,1222.2333 965.332053,1216.05532 1006.3124,1213.0565 C1033.42247,1211.05283 1060.58738,1209.40314 1087.77968,1209.89738 C1104.1773,1210.19125 1126.70416,1208.98905 1141.22135,1219.51499 C1157.2681,1231.1563 1071.82613,1330.55157 1063.75068,1341.73872 C1043.50446,1369.79007 1018.98753,1407.01822 1022.90191,1446.91125 C1026.64633,1485.04772 1042.87399,1513.51984 1061.22881,1543.4012 C1071.64522,1560.39898 1105.049,1605.80878 1092.66991,1627.91591 C1085.59773,1640.55238 1062.28689,1636.1777 1051.2126,1635.31612 C1029.38749,1633.61969 1007.68298,1629.97301 985.972994,1626.80721 C954.318075,1622.21882 921.791462,1615.13251 889.999488,1613.05538 C867.861881,1611.61274 845.592691,1613.54294 823.416706,1613.58301 C791.619246,1613.63644 759.821788,1613.34257 728.024328,1612.99527 C701.325427,1612.7014 674.401751,1612.99527 647.796049,1609.86954 C631.255888,1607.94602 618.701374,1603.62478 606.837632,1591.41576 C596.514422,1580.79632 580.93915,1574.57828 567.781581,1567.82592 C546.049662,1556.67884 524.032662,1546.3466 502.086933,1535.84738 C456.139604,1513.86046 409.665974,1492.33439 365.686798,1464.85743 C345.61054,1452.32115 311.855892,1434.76902 307.146579,1404.37337 C305.447059,1393.41331 304.19709,1388.67798 295.425377,1382.44658 C282.975028,1373.60372 268.063116,1369.61642 254.094163,1366.15007 C221.529179,1358.06861 188.021235,1359.27749 155.511074,1351.28954 C142.27127,1347.99684 124.985514,1340.8905 140.100271,1324.62072 C157.736897,1305.59256 183.410604,1295.13341 204.539467,1283.37856 C215.087452,1277.51449 225.953412,1272.02444 235.969611,1264.86467 C243.661307,1259.3479 250.245574,1252.27496 258.112704,1247.14556 Z" id="Path" stroke="#FFFFFF" stroke-width="0.5" transform="translate(638.723404, 1371.745534) rotate(-180.000000) translate(-638.723404, -1371.745534) "></path>
                <path d="M263.296293,1247.10921 C304.301089,1223.48566 348.833415,1206.30977 392.566022,1190.82604 C441.140767,1173.65014 490.887702,1159.42384 541.291941,1153.37081 C576.096173,1149.17717 613.179057,1147.9398 646.95899,1160.77491 C668.321361,1168.89466 682.803953,1185.97024 701.186546,1200.29017 C728.930241,1221.93395 758.947109,1239.08309 792.277885,1234.9095 C829.645604,1230.24098 867.135645,1226.73847 904.74803,1224.40197 C927.43596,1222.99072 950.211532,1221.93395 972.926853,1222.91715 C987.288939,1223.53248 1005.79204,1224.56919 1018.28629,1232.49498 C1035.00371,1243.10953 972.209299,1323.87905 964.38191,1335.65069 C944.969536,1364.84571 930.738908,1395.47873 922.424022,1431.64979 C915.642835,1461.16584 929.495515,1484.36801 943.786393,1506.44654 C952.670943,1520.15782 981.378689,1554.64339 972.390056,1572.448 C967.460276,1582.26662 951.213926,1581.7583 942.488217,1582.25993 C925.858436,1583.20969 909.157438,1582.2198 892.527657,1581.78505 C867.971887,1581.11621 841.83311,1585.71116 817.485481,1582.01246 C763.526325,1573.82581 709.704107,1566.73608 655.41082,1561.12448 C625.481592,1558.03443 595.371604,1555.22529 565.710774,1549.26588 C555.062454,1547.12559 544.063572,1544.85821 533.97396,1540.01579 C527.483086,1536.90566 523.944601,1531.60842 518.46707,1527.26094 C492.350203,1506.56693 458.25805,1495.91894 428.843709,1482.65577 C389.739616,1465.02507 350.427377,1447.66858 312.364014,1426.8408 C292.343639,1415.88515 264.380843,1403.29751 250.604854,1380.93807 C246.44193,1374.18276 248.21665,1368.77851 245.59839,1362.28404 C242.585748,1354.79299 233.432794,1352.55905 227.522538,1350.47226 C214.108065,1345.73016 157.957896,1338.56016 183.833751,1310.74297 C196.180107,1297.49318 211.911575,1288.99218 225.829981,1278.57829 C230.869309,1274.80601 235.782655,1271.01367 239.983921,1265.92377 C247.011593,1257.38933 253.935192,1252.52015 263.296293,1247.10921 Z" id="Path" stroke="#FFFFFF" stroke-width="0.5" transform="translate(599.104201, 1366.968635) rotate(-180.000000) translate(-599.104201, -1366.968635) "></path>
                <path d="M305.742625,1237.13223 C386.659193,1198.84854 481.489812,1172.76611 569.709061,1177.81929 C599.045981,1179.50591 630.610464,1185.13468 656.040916,1204.397 C671.035829,1215.77502 683.018591,1228.61879 701.031142,1232.72826 C714.034415,1235.69325 728.036251,1232.32669 741.116336,1231.10857 C760.061611,1229.34163 779.017858,1227.7621 797.990566,1226.48374 C821.51168,1224.92429 845.109597,1223.71956 868.674605,1224.36208 C885.513018,1224.82389 908.765285,1224.30184 923.392594,1235.34521 C940.85648,1248.51695 896.403938,1310.30628 890.149203,1321.31618 C874.989696,1348.00099 864.362122,1373.85586 860.521497,1406.01549 C859.391248,1415.38563 855.583542,1424.99002 856.077341,1434.43377 C856.59308,1444.07831 861.459701,1452.66537 865.953243,1460.24849 C871.829402,1470.18752 892.217656,1493.7601 886.379904,1505.88104 C883.153773,1512.57399 871.044819,1513.4173 864.768135,1514.83621 C852.993861,1517.51339 841.049507,1518.95237 829.203907,1521.08074 C809.106444,1524.70831 789.151633,1536.52137 768.982843,1536.18672 C714.747674,1535.30325 659.72792,1514.76928 606.5791,1503.49165 C574.981696,1496.76523 543.170314,1490.66126 511.956973,1481.55215 C502.081069,1478.66749 491.908889,1475.68244 482.521294,1470.78989 C475.970279,1467.37648 471.762047,1461.29259 465.693853,1457.47091 C442.425127,1442.79327 415.666916,1433.88495 390.68088,1424.00615 C358.244024,1411.15568 325.697437,1398.6934 293.485532,1385.01301 C273.294796,1376.43934 247.332144,1368.89638 229.934094,1352.99393 C217.227098,1341.38165 225.912406,1337.90801 232.617047,1327.0922 C236.040694,1321.57721 235.250622,1316.14253 236.737494,1309.89801 C238.860814,1300.98299 244.863168,1294.56445 250.492433,1288.79513 C258.25599,1280.82382 268.598256,1274.25803 274.946267,1264.48633 C277.184805,1261.04615 277.080559,1256.77604 278.891141,1253.7776 C284.15829,1245.0433 298.132693,1240.73304 305.742625,1237.13223 Z" id="Path" stroke="#FFFFFF" stroke-width="0.5" transform="translate(575.430892, 1356.693693) rotate(-180.000000) translate(-575.430892, -1356.693693) "></path>
                <path d="M389.370499,1240.99237 C455.097784,1216.95126 528.23042,1203.26221 597.706972,1209.61522 C621.87988,1211.82874 646.200784,1216.97132 668.718313,1228.26629 C678.963021,1233.38883 686.653404,1239.09984 697.87928,1239.40746 C723.926821,1240.11632 750.056582,1237.6353 776.098642,1237.04013 C794.73535,1236.61214 813.465239,1236.45833 832.058103,1238.28398 C844.489882,1239.50108 861.301287,1240.95893 871.485697,1250.2477 C886.285438,1263.77625 859.569173,1309.76531 854.131633,1322.47132 C845.120237,1343.54323 836.180103,1366.9691 839.753967,1391.35126 C840.850241,1398.80768 842.790649,1405.39475 843.042796,1412.9983 C843.283972,1419.53186 842.609766,1425.56387 844.511808,1431.80987 C846.863321,1439.55386 857.321803,1451.57106 853.726014,1458.6998 C851.275834,1463.56821 844.007515,1463.79558 839.172934,1465.35374 C831.331601,1467.8804 823.67533,1471.19529 816.282672,1475.26443 C808.499107,1479.5711 801.872113,1486.22503 793.808996,1489.78271 C780.719449,1495.54723 766.067708,1496.0889 752.309431,1496.06388 C697.413363,1495.95516 641.821158,1482.76097 588.31736,1468.96492 C560.455481,1461.78269 532.440124,1454.12564 505.362083,1443.2319 C497.140006,1439.92166 487.821651,1436.59803 480.591705,1430.48578 C476.080525,1426.68066 473.021912,1421.91256 467.896817,1419.05037 C424.116997,1394.61471 373.50189,1385.53994 327.025227,1367.89196 C314.927811,1363.29774 247.884993,1340.08586 282.93845,1318.25159 C304.23363,1304.98384 326.734714,1298.95184 346.166223,1280.8023 C352.086119,1275.28522 356.032716,1270.71774 358.345861,1262.29834 C359.869686,1256.69432 356.202639,1259.53646 361.322253,1253.67832 C367.532662,1246.63651 381.713004,1243.79438 389.370499,1240.99237 Z" id="Path" stroke="#FFFFFF" stroke-width="0.5" transform="translate(574.398972, 1352.063883) rotate(-180.000000) translate(-574.398972, -1352.063883) "></path>
                <path d="M431.634255,1255.18183 C508.522104,1235.5344 589.946337,1234.59977 668.047916,1252.01741 C687.736698,1256.40353 708.227309,1255.3554 728.157739,1256.47029 C747.522492,1257.53845 781.951773,1255.31535 796.016758,1273.49405 C806.215382,1286.67244 795.149024,1314.67821 791.321107,1329.41878 C786.444221,1348.19832 782.182437,1367.59874 790.189757,1385.83753 C794.879916,1396.5191 801.305544,1406.68662 806.336206,1417.26806 C808.741697,1422.32178 813.695474,1430.06593 811.630483,1434.85261 C808.214466,1442.75029 792.232777,1446.07494 784.478088,1449.80014 C759.69274,1461.70341 733.446524,1464.74099 706.947676,1464.65771 C658.003068,1464.50065 608.805828,1456.32925 560.794858,1445.24711 C538.706077,1440.14666 516.309745,1434.70573 495.006319,1425.84003 C482.951402,1420.82636 474.059872,1411.15286 462.548662,1405.41819 C425.483227,1386.93906 385.660812,1377.06528 347.958307,1360.16836 C337.045724,1355.27487 296.284179,1338.98546 316.818727,1319.77866 C336.699728,1301.18604 365.697431,1303.39579 386.369279,1285.90471 C388.708866,1283.90191 391.603145,1281.50523 392.959666,1278.26739 C393.761497,1276.33134 392.350055,1272.64621 392.959666,1271.54466 C399.308405,1259.57463 421.87499,1257.67197 431.634255,1255.18183 Z" id="Path" stroke="#FFFFFF" stroke-width="0.5" transform="translate(561.622384, 1352.157714) rotate(-180.000000) translate(-561.622384, -1352.157714) "></path>
                <path d="M423.073941,1275.30766 C462.454218,1268.69163 502.700599,1267.05107 542.744157,1266.63421 C564.632443,1266.4056 588.680505,1264.69781 610.097368,1271.48865 C623.253362,1275.67073 635.95986,1279.32837 649.521498,1281.96402 C664.113689,1284.80139 687.608103,1286.86553 696.493881,1302.24242 C703.132176,1313.73306 698.582395,1337.35308 698.341202,1351.32473 C698.083563,1366.64783 700.648982,1378.01072 709.479944,1388.97692 C715.03287,1395.88207 740.506165,1420.94766 737.562511,1428.17554 C734.76138,1435.06051 717.011751,1436.11611 709.337421,1437.9046 C685.081055,1443.57932 660.501273,1445.55606 635.828301,1445.24677 C597.615618,1444.77612 559.260412,1440.00236 521.645231,1431.79956 C506.093749,1428.39069 490.021509,1424.86081 475.166198,1418.04979 C465.162161,1413.45757 456.819068,1405.31528 446.880809,1400.56842 C418.420008,1386.95312 388.32567,1377.70816 359.766199,1363.84409 C350.600856,1359.38634 320.736748,1347.51918 327.895801,1329.23097 C333.865334,1313.96167 354.169419,1309.31566 364.146048,1299.08232 C381.117282,1281.62785 401.43233,1278.9384 423.073941,1275.30766 Z" id="Path" stroke="#FFFFFF" stroke-width="0.5" transform="translate(532.298410, 1355.777734) rotate(-180.000000) translate(-532.298410, -1355.777734) "></path>
                <path d="M415.480092,1298.04479 C446.814614,1293.67666 478.877464,1291.76643 510.671982,1291.67293 C531.191111,1291.61282 552.838327,1291.27218 572.974125,1296.88931 C583.088572,1299.70788 591.87779,1306.30016 601.450098,1311.00224 C611.307165,1315.83791 624.909919,1321.23461 629.170362,1332.32192 C633.173427,1342.74132 631.678438,1357.94294 635.194125,1370.50633 C638.321006,1381.65374 644.865003,1388.53989 651.912807,1396.07391 C656.403249,1400.88954 679.463311,1421.73501 676.796426,1426.33691 C673.937877,1431.26608 660.088697,1430.86533 652.882085,1431.5466 C633.026486,1433.45641 613.101156,1434.06509 593.192066,1433.37 C566.019417,1432.35478 538.638674,1429.52283 511.936973,1423.1109 C492.994975,1418.56912 478.707704,1407.74898 461.047124,1399.81421 C438.167776,1389.50836 414.467004,1381.35986 391.806701,1370.08554 C380.514883,1364.46842 363.801678,1357.24164 358.018865,1342.74132 C355.795548,1337.18431 353.637946,1323.05133 356.113165,1317.49433 C359.086714,1310.81522 370.15401,1307.98329 375.378256,1306.26676 C388.466251,1301.98546 402.162099,1299.90158 415.480092,1298.04479 Z" id="Path" stroke="#FFFFFF" stroke-width="0.5" transform="translate(516.010387, 1362.647983) rotate(-180.000000) translate(-516.010387, -1362.647983) "></path>
            </g>
        </g>
        <g filter="url(#filter-2)" id="Whangaehu-Copy">
            <g transform="translate(50.673347, 376.902856) rotate(9.000000) translate(-50.673347, -376.902856) translate(-755.826653, -558.097144)">
                <g id="Group-2" transform="translate(1229.299033, 467.104040) scale(-1, 1) rotate(3.000000) translate(-1229.299033, -467.104040) translate(1010.415095, 10.966887)" stroke="#FFFFFF" stroke-width="0.5">
                    <path d="M424.579887,406.387469 C425.142977,469.948252 443.56534,536.00592 434.46722,600.770414 C426.996298,653.961393 389.384529,658.402114 366.821014,682.500713 C348.890802,701.646213 338.715273,735.561571 329.018592,768.10241 C320.306211,797.316786 312.480587,827.409546 303.302659,856.14406 C297.361392,874.720232 287.15926,911.197542 274.274691,911.856326 C261.93991,912.490712 250.629334,884.065255 243.464342,867.262115 C234.122365,845.359469 225.840061,822.00911 216.768544,799.756738 C201.480864,762.222122 183.13831,734.439187 162.135487,708.144626 C138.234448,678.225379 113.938803,649.328196 89.2485507,621.453085 C71.0700466,600.868012 52.7673959,580.437469 35.2938626,557.819103 C24.3335545,543.626708 0.142842068,516.998685 0.0313475129,490.834252 C-0.0212078517,478.349824 6.42994438,464.523422 10.7794841,454.544014 C18.1395616,437.651404 26.5282764,422.2065 34.9435939,407.095056 C50.6170118,378.946127 66.9554972,352.074108 83.116631,324.876763 C104.092852,289.578771 124.129111,254.858237 142.569209,214.78607 C161.63447,173.306864 179.848444,130.461284 198.434856,88.2012939 C211.022363,59.5725084 223.596567,27.4220575 241.752903,9.85439351 C264.493769,-12.105186 283.15999,11.0499706 306.158015,11.3183657 C325.941548,11.5542279 324.482834,95.6187515 326.996788,118.993504 C329.51961,142.652918 335.079572,164.677563 337.234389,188.393909 C339.921261,217.998676 339.956731,248.286629 340.617365,278.20859 C341.41988,314.807889 341.739112,349.650422 363.070035,363.606954 C375.209729,371.536803 388.34259,373.204104 400.907927,377.95388 C409.04835,381.036355 424.402536,386.306653 424.579887,406.387469 Z" id="Path" transform="translate(218.509192, 456.135429) rotate(-180.000000) translate(-218.509192, -456.135429) "></path>
                    <path d="M407.807005,375.780058 C409.883088,429.064583 422.148423,497.264865 410.549924,552.268246 C400.640741,599.272023 369.650652,605.365407 348.783133,630.056646 C331.556539,650.422235 323.887925,683.748487 315.27685,716.488205 C308.36843,742.751669 301.668952,769.267657 293.826961,794.692062 C288.047716,813.428403 279.223254,845.060236 267.206871,848.937839 C256.404128,852.424427 244.818966,824.49914 238.755204,810.292099 C229.908514,789.551788 222.342148,767.027446 214.526831,744.975586 C200.794457,706.240243 186.733109,671.406934 166.634674,642.952137 C146.447328,614.375144 124.361721,593.007569 102.0405,570.768346 C84.5782896,553.367987 67.2049909,535.462563 50.6141126,515.373946 C38.2554199,500.417458 20.486465,481.273805 14.8316963,454.603031 C10.3550043,433.504281 33.0585452,398.491762 39.753578,386.133924 C53.534854,360.725815 68.1385609,336.873639 82.7689417,313.168094 C100.60458,284.281543 119.009252,259.020068 134.759917,226.068546 C162.931512,167.154973 186.479712,93.7899778 222.728913,50.0039628 C244.592241,23.5938684 268.922862,16.8406391 293.240145,20.7915629 C302.869256,22.3556398 305.180954,47.2586813 306.394596,61.7834189 C308.412886,85.9125679 308.666284,110.457175 310.217788,134.684079 C311.671491,157.363198 314.898977,178.90999 317.499637,201.149212 C320.131416,223.681699 320.869381,246.76813 322.807651,269.455395 C324.007955,283.540236 325.194924,299.930461 330.445145,311.253729 C335.877636,322.976161 344.83991,327.888341 352.673009,331.619317 C367.38341,338.559909 406.339966,338.177036 407.807005,375.780058 Z" id="Path" transform="translate(214.861613, 434.492379) rotate(-180.000000) translate(-214.861613, -434.492379) "></path>
                    <path d="M377.930687,339.13944 C381.420893,387.999806 386.30718,448.85583 372.088484,493.872058 C360.466323,530.679876 335.679197,538.620092 317.974742,562.603282 C303.249189,582.547284 297.687091,614.267512 290.377667,643.744648 C284.37985,667.922893 278.350909,692.206783 271.081501,715.214718 C265.568311,732.66369 258.463409,756.321795 247.517059,762.409025 C238.157973,767.610384 227.585097,744.309882 222.396474,732.71245 C213.562031,712.947246 206.359314,690.800786 199.205505,668.946912 C187.503314,633.187493 176.734808,594.989935 160.079638,565.902901 C143.895756,537.677344 124.670728,521.016707 105.085564,502.283649 C90.0843508,487.93112 75.1765062,473.025945 61.0422864,455.910188 C50.1893044,442.776729 36.7397875,427.213257 31.0843213,405.359377 C26.193588,386.512539 38.7494344,364.20354 45.0229115,350.907539 C55.3823741,328.96426 66.8800437,308.833335 78.2176527,288.621137 C90.4533784,266.816021 104.005156,246.701349 115.845177,224.359841 C140.743456,177.344336 160.635403,125.290005 191.322532,89.2705196 C211.196694,65.9375004 237.940113,44.74192 261.433418,48.5535482 C278.328679,51.3005216 277.217148,119.747295 278.839983,141.617428 C281.507656,177.376844 286.66071,214.948613 294.846019,247.887911 C301.875337,276.113469 318.579415,284.817636 333.94521,291.148678 C343.571063,295.122849 353.659312,297.268414 362.969489,303.412532 C373.746887,310.531907 376.467914,318.659048 377.930687,339.13944 Z" id="Path" transform="translate(205.817196, 405.630998) rotate(-180.000000) translate(-205.817196, -405.630998) "></path>
                    <path d="M341.590706,305.268414 C343.664837,346.664971 343.19849,395.617134 329.763275,431.426625 C317.98914,462.792603 297.025763,471.050677 282.116004,495.759553 C270.479553,515.03656 265.90936,546.467883 259.651436,571.960909 C252.003357,603.130849 241.286274,660.700491 221.992861,672.430053 C204.045189,683.334637 185.27586,613.676026 178.778101,592.904234 C168.491834,560.027134 159.888855,523.972596 147.41298,493.61131 C136.669249,467.472995 122.274692,453.023408 106.996299,437.495615 C87.5163467,417.663169 57.9411071,394.146854 47.5260393,355.49482 C39.7624834,326.693664 65.0073643,283.875837 73.628109,263.920868 C82.6441378,243.075562 89.4350287,218.366686 98.7397483,198.25652 C113.422995,166.522972 137.215541,140.97277 156.859824,121.47522 C175.957816,102.508605 200.758558,81.5162715 222.423676,82.7660089 C236.662783,83.5828321 239.372033,123.999201 242.409947,143.741797 C246.762512,171.807813 252.549648,196.957772 264.981108,216.04691 C277.634638,235.479114 292.548838,244.635693 308.226958,252.64872 C316.274763,256.732832 325.455123,259.918439 332.654622,268.168344 C340.609158,277.145222 340.791255,289.356716 341.590706,305.268414 Z" id="Path" transform="translate(194.286543, 378.146821) rotate(-180.000000) translate(-194.286543, -378.146821) "></path>
                    <path d="M302.188912,285.29557 C302.07367,320.996644 297.619124,359.06697 284.410619,386.605481 C273.409441,409.54342 256.189627,417.211037 245.658282,440.660151 C237.316535,459.224709 233.07031,485.286493 227.485506,506.845073 C220.655202,533.263867 210.997036,579.415619 194.012139,588.584304 C177.435022,597.509572 162.772694,546.676111 156.416655,526.561802 C147.108647,497.067848 139.573594,465.805066 130.181372,436.39225 C122.823613,413.316375 113.825874,398.443632 101.845138,383.57089 C87.7811825,366.101705 68.1590169,346.7501 60.6461255,317.848458 C55.2297518,296.922761 68.3407447,263.485461 73.1011257,245.050724 C76.2924427,232.668943 79.2133836,220.092428 80.8179066,206.67207 C82.0678393,196.221393 82.1919461,186.549647 85.8132039,177.575696 C94.9306187,155.00288 114.920672,152.057542 128.483769,144.617114 C146.496979,134.742521 165.60942,123.521024 184.460351,121.37896 C196.046604,120.040169 201.959405,139.602736 208.572522,153.363877 C216.386816,169.632207 227.450047,181.332422 237.112645,193.608723 C249.864615,209.836483 263.742411,219.93015 278.098903,230.267234 C284.574617,234.932715 292.180589,239.508944 297.198047,248.783109 C302.437126,258.398057 302.228804,272.410729 302.188912,285.29557 Z" id="Path" transform="translate(180.779144, 355.469556) rotate(-180.000000) translate(-180.779144, -355.469556) "></path>
                    <path d="M272.768129,295.459272 C270.477745,325.451148 263.340268,354.116382 251.28468,375.318237 C242.043245,391.596052 229.770158,400.760463 222.353042,420.318258 C215.44194,438.549412 210.625919,459.279211 204.917713,478.771896 C198.876602,499.37961 189.901492,533.823468 175.96832,539.431176 C160.952099,545.470246 149.38477,510.725248 142.979684,491.468591 C134.88788,467.133257 128.740241,440.95039 121.505112,415.776748 C116.054502,397.013715 109.101761,379.853679 100.878337,364.867879 C92.2538858,349.070259 80.5578339,333.940029 76.1945627,312.217284 C72.3373075,292.976905 79.5546811,269.699629 80.8285964,250.190667 C82.1912861,229.346924 79.8032502,207.453261 87.3579672,189.555803 C102.937907,152.645855 142.038674,159.490677 164.392114,158.701203 C186.44816,157.887312 204.180884,180.472782 222.029014,201.959498 C233.818279,216.145615 246.095805,228.158643 258.182465,241.376229 C270.504378,254.862399 274.783313,269.064794 272.768129,295.459272 Z" id="Path" transform="translate(174.158477, 349.393132) rotate(-180.000000) translate(-174.158477, -349.393132) "></path>
                    <path d="M252.927494,328.913809 C246.157296,372.260171 225.012083,395.298592 209.895675,428.056219 C197.527301,454.873428 188.25324,510.409431 167.423229,517.755721 C143.774153,526.093435 129.616671,452.508638 121.394766,424.114902 C112.271647,392.624997 96.0231728,367.010499 89.2662936,333.675895 C85.7147152,316.179697 88.7646332,299.853706 90.6558489,282.365635 C92.7290832,263.162888 94.2873385,243.52944 101.443771,228.072976 C115.530221,197.65576 143.041639,197.867046 162.855011,197.030024 C183.36538,196.160497 201.509509,217.004782 217.851212,237.808435 C235.182917,259.839179 259.861952,284.462253 252.927494,328.913809 Z" id="Path" transform="translate(170.876761, 357.706857) rotate(-180.000000) translate(-170.876761, -357.706857) "></path>
                    <path d="M236.803542,355.698317 C229.148358,386.677749 213.061703,411.863225 200.008404,435.638702 C189.113452,455.459703 177.392855,495.361016 160.781197,498.205322 C141.257337,501.560144 129.424559,458.952284 121.742452,432.82681 C114.1815,407.155129 103.286549,380.049139 99.0999801,351.873496 C94.733923,322.522855 106.360289,282.9943 117.44819,262.225197 C129.814946,239.065581 150.047785,230.508353 167.408808,231.432145 C185.586504,232.372144 202.265471,251.512457 216.032238,271.365872 C230.750292,292.588767 245.70617,319.735273 236.803542,355.698317 Z" id="Path" transform="translate(168.818874, 364.878673) rotate(-180.000000) translate(-168.818874, -364.878673) "></path>
                    <path d="M218.494944,373.51124 C211.207286,399.303487 198.574748,421.12207 186.927028,440.584084 C177.938319,455.609247 164.674602,481.157711 151.70633,481.78342 C137.439888,482.474139 125.349,461.029356 119.677339,439.048251 C114.086255,417.367811 108.195248,390.186001 107.358152,366.4009 C105.540714,314.605127 142.543039,256.584761 170.328356,261.306025 C196.672257,265.783508 233.025497,322.121772 218.494944,373.51124 Z" id="Path" transform="translate(164.552770, 371.417724) rotate(-180.000000) translate(-164.552770, -371.417724) "></path>
                </g>
                <g id="Group-2-Copy" transform="translate(1204.489016, 1465.337904) scale(-1, -1) rotate(-32.000000) translate(-1204.489016, -1465.337904) translate(904.792642, 1175.585299)" stroke="#FFFFFF" stroke-width="0.5">
                    <path d="M581.689828,258.56163 C582.461199,298.916784 607.697781,340.857227 595.234371,381.976625 C585.000041,415.747923 533.476112,418.567366 502.566614,433.867723 C478.004222,446.023326 464.064882,467.556407 450.781511,488.216797 C438.846522,506.765194 428.126289,525.871283 415.553551,544.115013 C407.414677,555.909145 393.438895,579.068826 375.788472,579.487093 C358.891198,579.889868 343.39697,561.842361 333.58173,551.173938 C320.784263,537.267806 309.43843,522.442511 297.011463,508.314335 C276.069048,484.483364 250.941794,466.843798 222.170269,450.14921 C189.428511,431.153286 156.146186,412.806276 122.323295,395.108187 C97.4207715,382.038591 72.3481812,369.067106 48.4113894,354.706559 C33.3969895,345.695715 0.258411382,328.78941 0.105676277,312.177441 C0.0336812882,304.250997 8.87104038,295.472524 14.8294248,289.136533 C24.91191,278.411305 36.4035138,268.605235 47.9315602,259.010881 C69.4023948,241.138944 91.7842977,224.077724 113.923249,206.809953 C142.658332,184.399028 170.105772,162.354735 195.36665,136.912656 C221.483931,110.577238 246.435045,83.3743015 271.896357,56.5431588 C289.139836,38.3665568 306.365095,17.9540265 331.237249,6.80020242 C362.3897,-7.14207737 387.96034,7.55928206 419.46507,7.72968786 C446.566304,7.87943832 444.568028,61.2525508 448.011865,76.0933333 C451.467849,91.114849 459.084377,105.098439 462.036238,120.156102 C465.716952,138.95236 465.765542,158.182378 466.670537,177.180026 C467.769892,200.417159 468.207205,222.53891 497.42819,231.400003 C514.058217,236.434715 532.048773,237.493296 549.261883,240.508959 C560.413355,242.466042 581.446877,245.812189 581.689828,258.56163 Z" id="Path" transform="translate(299.395958, 290.146933) rotate(-180.000000) translate(-299.395958, -290.146933) "></path>
                    <path d="M558.986792,239.314951 C561.83195,273.152188 578.640921,316.461369 562.745812,351.39013 C549.165819,381.238909 506.695596,385.108386 478.097802,400.788048 C454.489695,413.720795 443.980279,434.883943 432.179272,455.674625 C422.71166,472.352695 413.53039,489.191126 402.783371,505.33637 C394.863232,517.234497 382.769789,537.321638 366.301992,539.784031 C351.497424,541.998116 335.620592,524.264739 327.310538,515.242851 C315.186633,502.072145 304.817342,487.768527 294.106877,473.764948 C275.287409,449.166868 256.017101,427.046695 228.473294,408.977063 C200.807639,390.829834 170.540522,377.260796 139.950509,363.138237 C116.019504,352.088499 92.2103472,340.718028 69.4734553,327.961167 C52.5365425,318.463358 28.1851609,306.306577 20.4356094,289.369852 C14.3005478,275.971526 45.4145096,253.737549 54.5896862,245.889959 C73.4761718,229.755064 93.4897538,214.608232 113.539891,199.554515 C137.982658,181.210708 163.205255,165.168929 184.790681,144.243745 C223.398313,106.831897 255.669833,60.2429718 305.347383,32.437567 C335.309878,15.6663819 368.653664,11.377883 401.979172,13.8868356 C415.175342,14.8800703 418.343398,30.6942327 420.006627,39.9178674 C422.772584,55.2405854 423.119852,70.8271312 425.246104,86.2119264 C427.238324,100.613833 431.661417,114.296678 435.22548,128.419237 C438.832189,142.728028 439.84353,157.388589 442.499823,171.795668 C444.144774,180.739956 445.771449,191.14823 452.966591,198.338837 C460.411522,205.782926 472.69383,208.902304 483.428664,211.271583 C503.588464,215.679063 556.976295,215.435928 558.986792,239.314951 Z" id="Path" transform="translate(294.565678, 276.598998) rotate(-180.000000) translate(-294.565678, -276.598998) "></path>
                    <path d="M518.532546,215.561458 C523.320496,246.619125 530.023624,285.301728 510.518069,313.915903 C494.574504,337.312472 460.570917,342.359602 436.283512,357.604308 C416.082638,370.28154 408.452416,390.444227 398.42517,409.181113 C390.197217,424.549804 381.926569,439.985648 371.954217,454.610443 C364.391087,465.70173 354.644409,480.739799 339.627937,484.609094 C326.788915,487.915293 312.284784,473.104531 305.166904,465.732724 C293.047599,453.169144 283.166736,439.091938 273.352966,425.200713 C257.299613,402.470549 242.527113,378.190603 219.679143,359.701683 C197.477699,341.760352 171.104334,331.170163 144.236926,319.262657 C123.657895,310.139597 103.206949,300.665252 83.8172801,289.785769 C68.9288937,281.437601 50.4785172,271.544814 42.7202102,257.653586 C36.0109824,245.673757 53.2353999,231.493235 61.8415094,223.041747 C76.0528738,209.093693 91.8256584,196.297645 107.378868,183.449937 C124.164136,169.589704 142.754797,156.803988 158.997227,142.602802 C193.153296,112.717805 220.441555,79.6299209 262.53891,56.734448 C289.802772,41.903017 326.490049,28.4302304 358.71874,30.8530587 C381.896073,32.5991485 380.371248,76.1067458 382.597492,90.0083061 C386.257071,112.738468 393.326157,136.620637 404.554965,157.558216 C414.197955,175.499546 437.113018,181.032275 458.192191,185.056546 C471.397172,187.582694 485.236479,188.946504 498.008408,192.851959 C512.793107,197.377327 516.525878,202.543274 518.532546,215.561458 Z" id="Path" transform="translate(282.423045, 257.826239) rotate(-180.000000) translate(-282.423045, -257.826239) "></path>
                    <path d="M467.736958,194.442645 C470.578233,220.713537 469.939402,251.779332 451.534997,274.504586 C435.406046,294.409919 406.68909,299.65062 386.264764,315.331252 C370.32442,327.564738 364.063881,347.511539 355.491383,363.689805 C345.014562,383.470729 330.333626,420.005309 303.904293,427.44907 C279.318442,434.369287 253.607031,390.16286 244.705992,376.980761 C230.615216,356.116448 218.830312,333.235684 201.740073,313.967944 C187.022633,297.380167 167.304062,288.210237 146.374756,278.356061 C119.68989,265.770086 79.1758635,250.84627 64.9086473,226.317095 C54.2736392,208.039438 88.8556679,180.866587 100.664907,168.202856 C113.015632,154.974104 122.318222,139.293471 135.064413,126.531251 C155.17845,106.392653 187.770978,90.1781014 214.680955,77.8046567 C240.842589,65.7681509 274.816207,52.446093 304.494451,53.2391956 C324.000077,53.7575641 327.711379,79.4064136 331.872904,91.9353688 C337.835323,109.746494 345.762906,125.707046 362.792304,137.821306 C380.125906,150.153281 400.556317,155.964187 422.033193,161.049378 C433.057584,163.641218 445.633419,165.662853 455.495747,170.89837 C466.392371,176.595235 466.641819,184.344836 467.736958,194.442645 Z" id="Path" transform="translate(265.950433, 240.692403) rotate(-180.000000) translate(-265.950433, -240.692403) "></path>
                    <path d="M415.271545,181.430418 C415.11352,204.138034 409.00528,228.352609 390.893282,245.868438 C375.808055,260.45808 352.195602,265.335057 337.754627,280.249831 C326.316111,292.057791 320.493528,308.63435 312.835436,322.346653 C303.469466,339.150288 290.225828,368.505042 266.935501,374.336771 C244.204337,380.013674 224.098803,347.681127 215.383164,334.88745 C202.619676,316.127863 192.287329,296.243217 179.408362,277.535239 C169.319128,262.857862 156.98109,253.398076 140.552657,243.93829 C121.267634,232.827041 94.3609854,220.518481 84.0590273,202.135635 C76.6318928,188.825876 94.6101774,167.55813 101.13779,155.832743 C105.513844,147.95733 109.519147,139.958056 111.719329,131.422057 C113.433284,124.774919 113.603464,118.623219 118.569068,112.915351 C131.071209,98.5579449 158.482319,96.6845668 177.080545,91.9520932 C201.780933,85.671373 227.988629,78.5339567 253.837731,77.1714998 C269.725235,76.3199642 277.833089,88.7627057 286.901244,97.515459 C297.616495,107.862906 312.786813,115.304811 326.036529,123.113134 C343.522508,133.434777 362.552261,139.854839 382.238422,146.429726 C391.118163,149.397198 401.547756,152.307902 408.427883,158.206722 C415.611904,164.322295 415.326245,173.235034 415.271545,181.430418 Z" id="Path" transform="translate(248.789922, 226.064478) rotate(-180.000000) translate(-248.789922, -226.064478) "></path>
                    <path d="M373.609241,186.88502 C370.464655,205.964957 360.665251,224.200925 344.113521,237.688914 C331.425486,248.044375 314.575141,253.874501 304.391805,266.316587 C294.903202,277.914704 288.291042,291.102385 280.453957,303.50305 C272.159808,316.613065 259.837423,338.525221 240.707864,342.092678 C220.091331,345.934554 204.209957,323.830821 195.416089,311.58031 C184.30644,296.098895 175.866033,279.442135 165.932557,263.427414 C158.449138,251.490931 148.903367,240.574228 137.613009,231.040708 C125.772062,220.990732 109.713958,211.365331 103.723401,197.545968 C98.4275797,185.305812 108.336679,170.497502 110.085702,158.086481 C111.956608,144.826313 108.677952,130.898217 119.050207,119.512387 C140.440698,96.0313777 194.124128,100.385849 224.814302,99.8836098 C255.096169,99.3658363 279.442327,113.73404 303.946931,127.403249 C320.133012,136.428034 336.989451,144.070364 353.583841,152.478998 C370.501221,161.058498 376.375988,170.093639 373.609241,186.88502 Z" id="Path" transform="translate(238.223038, 221.196135) rotate(-180.000000) translate(-238.223038, -221.196135) "></path>
                    <path d="M347.017032,209.554838 C337.736907,237.138886 308.752493,251.799699 288.031953,272.645462 C271.078231,289.710959 258.365981,325.052051 229.813625,329.726963 C197.397086,335.032781 177.990977,288.206092 166.720951,270.137351 C154.215602,250.098321 131.943304,233.798186 122.681435,212.585256 C117.813174,201.451312 121.993793,191.062045 124.586143,179.933272 C127.427991,167.713342 129.563941,155.21933 139.373489,145.383398 C158.682233,126.026988 196.393007,126.161443 223.551823,125.628793 C251.666036,125.075457 276.536769,138.340002 298.93686,151.578691 C322.693978,165.598255 356.522313,181.267484 347.017032,209.554838 Z" id="Path" transform="translate(234.547491, 227.877686) rotate(-180.000000) translate(-234.547491, -227.877686) "></path>
                    <path d="M323.983133,226.131649 C313.51225,245.811592 291.508664,261.810876 273.654151,276.914447 C258.751861,289.505903 242.720239,314.853546 219.998546,316.660415 C193.293497,318.791594 177.108432,291.724594 166.600723,275.128169 C156.258731,258.820019 141.356442,241.600712 135.629986,223.701899 C129.658022,205.05666 145.560753,179.945815 160.726962,166.752068 C177.64241,152.039728 205.317213,146.603678 229.0639,147.190524 C253.927644,147.787666 276.741404,159.94671 295.571809,172.558758 C315.703401,186.04078 336.160291,203.285825 323.983133,226.131649 Z" id="Path" transform="translate(230.992611, 231.963546) rotate(-180.000000) translate(-230.992611, -231.963546) "></path>
                    <path d="M299.810475,237.439919 C289.835169,253.844546 272.543823,267.721807 256.60049,280.10022 C244.296796,289.656666 226.141495,305.90624 208.390597,306.30421 C188.862773,306.743527 172.312834,293.104015 164.549497,279.123386 C156.896453,265.333988 148.832876,248.045557 147.687064,232.917534 C145.199365,199.973899 195.847938,163.071239 233.880322,166.074102 C269.939704,168.921913 319.699812,204.754706 299.810475,237.439919 Z" id="Path" transform="translate(225.974732, 236.108381) rotate(-180.000000) translate(-225.974732, -236.108381) "></path>
                    <path d="M279.559781,241.944888 C265.714586,263.138234 232.084382,293.352207 200.949638,294.069756 C165.212154,294.889813 156.240813,261.267479 160.899009,236.901537 C165.631145,212.033311 206.833999,176.037937 239.687839,180.9019 C271.752989,185.647979 295.968216,216.810142 279.559781,241.944888 Z" id="Path" transform="translate(222.301824, 237.270239) rotate(-180.000000) translate(-222.301824, -237.270239) "></path>
                    <path d="M263.804605,238.376603 C252.111071,256.194869 227.157957,278.450988 201.132378,279.124637 C170.122269,279.921702 170.707251,251.417619 177.739215,233.676489 C185.051482,215.256568 217.255928,183.79563 244.408815,188.763146 C270.812195,193.612389 275.010656,221.298837 263.804605,238.376603 Z" id="Path" transform="translate(221.706405, 233.689612) rotate(-180.000000) translate(-221.706405, -233.689612) "></path>
                    <path d="M250.538386,233.844065 C242.772743,246.664097 223.337117,262.867191 204.860668,263.385649 C182.276975,264.008844 186.667053,241.212441 192.502044,230.209629 C199.43763,217.117277 222.685369,194.368006 242.194777,198.054813 C261.402907,201.684012 256.945194,223.281156 250.538386,233.844065 Z" id="Path" transform="translate(221.916913, 230.527076) rotate(-180.000000) translate(-221.916913, -230.527076) "></path>
                </g>
                <g id="Group" transform="translate(729.641583, 883.503321) scale(-1, -1) rotate(30.000000) translate(-729.641583, -883.503321) translate(165.172801, 403.423026)" stroke="#FFFFFF" stroke-width="0.5">
                    <path d="M212.721802,313.070766 C252.007267,267.89096 296.418599,230.597513 338.298342,192.691803 C399.500148,137.304502 461.603683,83.4067448 525.910907,42.1472779 C560.38876,20.0325633 605.065308,-11.8509997 642.060285,5.47524229 C655.586213,11.8080891 667.921084,30.9619907 680.048611,43.4083665 C696.771575,60.570109 713.740468,76.8819949 730.680422,93.2304337 C764.661603,126.000417 798.748869,158.441413 832.146577,193.313204 C848.228205,210.109416 863.832445,231.264604 880.574698,245.59348 C890.358697,253.973305 902.066701,250.052976 912.520964,249.522947 C936.737433,248.289284 960.93944,245.949872 985.141447,243.957724 C1014.74418,241.526929 1044.41443,238.940784 1074.05091,239.900311 C1087.41771,240.338946 1120.15479,235.842897 1127.51329,257.665188 C1131.47221,269.417058 1122.14149,290.608799 1117.81608,300.4142 C1109.87412,318.434948 1100.74593,334.673728 1091.73829,350.74802 C1070.90691,387.922659 1048.78322,423.324479 1030.26645,464.848954 C1020.75249,486.196046 1008.28742,512.276791 1014.49826,541.418859 C1020.76695,570.85335 1031.62627,596.340099 1038.25181,625.674081 C1045.88033,659.430995 1049.04362,694.558656 1052.64571,730.35342 C1055.31232,756.808834 1061.52316,780.248594 1067.36269,804.638742 C1073.81463,831.596758 1080.49803,858.783231 1084.97774,887.212516 C1087.9385,905.99175 1092.71717,939.776078 1082.35935,951.665021 C1067.64237,968.570893 1040.04562,954.881705 1023.26961,949.901329 C1000.08507,943.029315 977.069288,934.274812 953.947429,926.735706 C937.161781,921.252727 920.318262,915.239718 903.252927,914.60003 C875.742975,913.567409 848.141408,917.140484 820.703783,920.466827 C769.898378,926.626047 719.45704,934.978467 668.48045,934.978467 C623.819321,934.978467 520.611444,837.043196 496.452836,819.799209 C448.232062,785.375192 398.728616,752.742282 353.097297,706.941075 C340.752779,694.54038 321.753794,678.018325 315.258455,652.495024 C311.251309,636.767986 313.093343,627.675367 303.642071,617.540978 C290.747836,603.714716 274.227399,598.286567 259.95405,592.099932 C236.967207,582.139169 213.801948,573.704504 190.709019,564.684992 C144.002377,546.490617 97.6139924,525.911149 51.1002336,506.108432 C37.0390558,500.122839 20.0267672,498.797783 6.62139205,488.252172 C-2.0197708,481.480679 -1.12286437,472.954643 5.56535732,462.664903 C17.2974716,444.607602 33.7407554,434.582872 47.5994053,424.283994 C67.9051738,409.196644 88.5436649,395.735912 109.1918,382.467094 C129.839935,369.198266 150.594157,356.340658 171.251937,343.044414 C184.898415,334.289922 200.459259,327.171175 212.721802,313.070766 Z" id="Path" transform="translate(564.407389, 480.187324) rotate(-180.000000) translate(-564.407389, -480.187324) "></path>
                    <path d="M171.285302,294.031397 C212.846343,248.776875 258.980257,212.725106 303.454816,177.551539 C360.374534,132.507415 418.582181,90.2899913 478.555304,62.1328437 C513.768349,45.611779 555.31492,27.3709286 591.294935,46.3161647 C604.130813,53.076445 613.720338,68.271062 624.72321,81.681839 C637.264842,96.9862284 650.288846,111.009922 663.312846,124.814059 C690.123003,153.227346 717.216142,180.670962 744.592276,207.144907 C759.092335,221.223486 775.053974,240.077253 791.435273,244.962212 C804.45928,248.850053 819.253582,243.224113 832.335468,241.586651 C855.894446,238.641033 879.448591,235.603934 903.017214,233.024239 C930.213262,230.051183 957.486493,227.306818 984.740427,227.782502 C999.930271,228.047799 1026.00722,223.66596 1036.74961,242.263588 C1046.12207,258.491919 1011.99918,317.184667 1005.99849,328.33592 C987.2584,363.152722 967.548738,396.304612 950.10622,433.53645 C939.797968,455.491336 927.246687,482.193983 922.900527,511.293364 C919.200745,536.093242 926.339829,564.351016 930.555745,587.275584 C935.82806,615.990761 940.082564,645.757933 946.208671,673.869352 C951.664282,698.916223 960.346949,721.227886 967.973224,743.99693 C976.361648,769.043812 984.856192,794.502335 991.083599,821.827033 C994.899146,838.64082 1001.21337,866.797968 993.630514,882.825046 C984.870664,901.303744 957.867565,889.228549 946.768219,886.593968 C924.251162,881.178427 901.907762,873.128293 879.545065,865.919778 C842.402538,853.954355 806.991724,843.489196 769.16905,845.995714 C719.9142,849.270649 670.707591,856.973151 621.462385,861.23606 C603.277017,862.827793 584.802227,866.02955 566.602389,864.300596 C556.168716,863.303488 548.224073,857.265885 542.155853,843.644709 C533.868728,825.056228 514.781327,814.764873 501.506492,804.09845 C480.807974,787.47677 459.848976,772.016868 438.947863,756.355713 C393.064782,721.959709 346.298963,688.807818 302.784321,644.321724 C289.017467,630.252291 273.2536,614.563687 263.070759,591.318948 C257.388434,578.356417 258.821075,565.869571 255.352831,552.092871 C250.760664,533.970939 235.662467,525.792741 226.637315,519.864922 C209.218917,508.411778 191.08661,500.736713 173.094191,493.546489 C132.382122,477.281575 91.5735784,466.587714 50.2006619,458.711396 C40.5050147,456.881816 2.32539057,450.542345 22.377532,419.988452 C44.5328081,386.223656 76.5236189,369.675154 102.605391,350.647583 C126.101658,333.541062 149.617219,317.623757 171.285302,294.031397 Z" id="Path" transform="translate(527.503929, 465.578918) rotate(-180.000000) translate(-527.503929, -465.578918) "></path>
                    <path d="M155.565276,288.382055 C194.621858,248.568954 237.888246,218.866681 279.952522,190.452232 C330.996432,155.973111 383.3197,125.238755 436.854734,108.022026 C470.484913,97.2170449 507.562112,88.9146561 540.965386,106.871201 C563.776554,119.128409 581.422018,152.264897 601.457224,175.062211 C621.492429,197.859536 642.338699,219.259421 663.807746,237.097225 C677.132368,248.16708 691.465984,259.319126 706.292038,257.857764 C742.34093,254.313954 778.34636,245.865431 814.433874,241.764467 C838.307144,239.024404 862.228699,236.768418 886.174388,237.444301 C900.61422,237.846175 920.451487,236.20214 933.235399,250.596605 C947.366254,266.516364 872.125609,402.441714 865.014318,417.740398 C847.185395,456.101271 825.595657,507.011631 829.042678,561.566273 C832.340034,613.718784 846.630203,652.655069 862.793549,693.518534 C871.966295,716.763396 901.381837,778.862341 890.480752,809.094364 C884.252945,826.375025 863.725305,820.392555 853.973227,819.214326 C834.753914,816.894407 815.640811,811.907493 796.522882,807.578193 C768.647394,801.303455 740.004287,791.612771 712.008107,788.772237 C692.513614,786.799395 672.903248,789.438986 653.374958,789.493784 C625.373948,789.566851 597.372938,789.164977 569.371928,788.690036 C545.860735,788.288161 522.151604,788.690036 498.722483,784.415533 C484.15713,781.785077 473.101559,775.875674 462.654285,759.179559 C453.563612,744.65723 439.847946,736.15391 428.261321,726.919897 C409.124078,711.67601 389.735793,697.546431 370.410268,683.188505 C329.948808,653.120886 289.023884,623.683477 250.29559,586.108094 C232.616332,568.964443 202.891811,544.961496 198.744765,503.394743 C197.248159,488.406607 196.14743,481.930926 188.423013,473.409337 C177.45917,461.316521 164.327662,455.863801 152.026528,451.123492 C123.349632,440.071906 93.84236,441.725076 65.213741,430.801365 C53.5546997,426.298527 38.3327718,416.580439 51.6429069,394.331133 C67.1738119,368.309681 89.7822136,354.006552 108.388402,337.931524 C117.677013,329.912268 127.245634,322.404504 136.065952,312.613349 C142.8393,305.069034 148.63744,295.39662 155.565276,288.382055 Z" id="Path" transform="translate(490.733064, 458.775415) rotate(-180.000000) translate(-490.733064, -458.775415) "></path>
                    <path d="M161.0388,288.760651 C197.14389,256.4356 236.355001,232.933134 274.861953,211.746132 C317.632449,188.243655 361.43507,168.777241 405.816454,160.494634 C436.461892,154.7563 469.113703,153.063162 498.857235,170.625959 C517.666994,181.736547 530.419045,205.101741 546.605084,224.696284 C571.033654,254.312329 597.463776,277.778192 626.811822,272.067308 C659.714432,265.679175 692.724749,260.886552 725.84279,257.689429 C745.819716,255.758351 765.87381,254.312329 785.874854,255.657683 C798.520799,256.499665 814.812947,257.918238 825.814242,268.763414 C840.534082,283.287728 785.243041,393.80792 778.350955,409.915528 C761.258186,449.864245 748.727991,491.780642 741.406659,541.274949 C735.435763,581.662952 747.633172,613.411422 760.216418,643.622354 C768.039343,662.384058 793.316771,709.572042 785.402199,733.934808 C781.061484,747.370026 766.756427,746.67447 759.073362,747.360872 C744.430691,748.660459 729.725314,747.305961 715.082643,746.711073 C693.461068,745.795874 670.44564,752.083328 649.007335,747.022242 C601.495816,735.820129 554.104872,726.11896 506.299148,718.440383 C479.946194,714.212137 453.434081,710.368277 427.317455,702.213788 C417.941514,699.285139 408.2569,696.182592 399.372906,689.556509 C393.657634,685.300801 390.541966,678.052369 385.718951,672.103534 C362.722816,643.787087 332.70437,629.217015 306.80478,611.068496 C272.373276,586.943692 237.758499,563.19411 204.243367,534.694622 C186.615248,519.70356 161.993756,502.479394 149.863874,471.884074 C146.198382,462.64051 147.761039,455.245653 145.455638,446.359004 C142.80298,436.108704 134.743722,433.051915 129.539689,430.196473 C117.728125,423.707672 68.2873994,413.896671 91.0713217,375.833286 C101.942398,357.703063 115.794097,346.070805 128.049377,331.821067 C132.486551,326.659303 136.812796,321.470088 140.512048,314.505375 C146.699976,302.82736 152.796267,296.164662 161.0388,288.760651 Z" id="Path" transform="translate(456.720666, 452.769128) rotate(-180.000000) translate(-456.720666, -452.769128) "></path>
                    <path d="M198.276614,275.892881 C269.503581,223.615313 352.978419,187.998941 430.633587,194.899212 C456.457468,197.202352 484.242167,204.888614 506.627372,231.191906 C519.826673,246.728944 530.374523,264.267523 546.230106,269.879132 C557.676263,273.927908 570.001407,269.330767 581.515177,267.667393 C598.191792,265.254584 614.878066,263.09768 631.57883,261.352044 C652.283336,259.222557 673.055449,257.577462 693.798593,258.454844 C708.62064,259.08546 729.088494,258.372592 741.964211,273.452655 C757.33683,291.439069 718.207394,375.814332 712.701651,390.8487 C699.357465,427.28763 690.002522,462.593264 686.621804,506.508247 C685.626901,519.303459 682.27516,532.418549 682.709827,545.314291 C683.163807,558.484216 687.44766,570.210115 691.403109,580.56509 C696.57561,594.137155 714.52241,626.32625 709.383718,642.877767 C706.54391,652.017193 695.884979,653.168769 690.359916,655.106325 C679.995588,658.7621 669.481547,660.727073 659.054434,663.633424 C641.363603,668.586988 623.798341,684.718098 606.044725,684.261123 C558.30411,683.054713 509.872864,655.014934 463.088511,639.614982 C435.274834,630.42985 407.272803,622.094682 379.797198,609.655915 C371.103914,605.716818 362.149833,601.640636 353.886384,594.959703 C348.11984,590.298588 344.415535,581.990848 339.073995,576.772229 C318.591654,556.729452 295.037686,544.564856 273.043679,531.075054 C244.491073,513.527336 215.841876,496.509706 187.487283,477.828702 C169.714348,466.121092 146.860673,455.82094 131.546005,434.105649 C120.360647,418.248723 128.005907,413.505356 133.90768,398.736032 C136.921352,391.205134 136.22589,383.783915 137.534712,375.256827 C139.403768,363.083093 144.687352,354.318379 149.642524,346.440185 C156.47641,335.555112 165.58021,326.589328 171.168059,313.245761 C173.138536,308.54809 173.046774,302.717122 174.640542,298.622662 C179.27696,286.695692 191.577956,280.809901 198.276614,275.892881 Z" id="Path" transform="translate(435.670240, 439.157791) rotate(-180.000000) translate(-435.670240, -439.157791) "></path>
                    <path d="M272.340768,279.571521 C330.149932,246.644125 394.472329,227.8952 455.579088,236.596466 C476.839902,239.628169 498.230884,246.671603 518.035741,262.141521 C527.046276,269.157489 533.810204,276.97946 543.683706,277.400791 C566.593317,278.371665 589.575244,274.973589 612.480034,274.158417 C628.871591,273.572229 645.345103,273.361569 661.698097,275.862039 C672.632228,277.529015 687.418374,279.52572 696.375875,292.247885 C709.392702,310.776984 685.894927,373.764932 681.112444,391.167453 C673.186644,420.028149 665.323523,452.112896 668.466846,485.507412 C669.431052,495.71994 671.137701,504.741779 671.359472,515.155812 C671.571593,524.104371 670.978608,532.365985 672.651513,540.920693 C674.719741,551.527073 683.918297,567.986188 680.755689,577.749919 C678.600682,584.417824 672.207971,584.729241 667.955809,586.863337 C661.059117,590.323926 654.325191,594.864101 647.823121,600.437308 C640.977237,606.335843 635.148592,615.449261 628.056834,620.321966 C616.544176,628.217217 603.65752,628.959109 591.556694,628.92484 C543.273917,628.775927 494.378868,610.704793 447.320636,591.809321 C422.815259,581.972322 398.174893,571.48501 374.358925,556.564636 C367.127356,552.030827 358.931577,547.478696 352.572618,539.107169 C348.604896,533.89557 345.914753,527.365045 341.407075,523.444903 C302.901379,489.977119 258.38384,477.548049 217.506189,453.376876 C206.866141,447.084489 147.899926,415.292837 178.730516,385.387987 C197.46028,367.216096 217.250674,358.954482 234.341282,334.096352 C239.548012,326.539996 243.019166,320.284254 245.053647,308.75279 C246.393898,301.077365 243.168618,304.97004 247.671475,296.946564 C253.133721,287.301902 265.605767,283.409239 272.340768,279.571521 Z" id="Path" transform="translate(435.078987, 431.698278) rotate(-180.000000) translate(-435.078987, -431.698278) "></path>
                    <path d="M309.224499,298.742001 C376.906773,271.881043 448.582301,270.603256 517.332988,294.41577 C534.664485,300.412247 552.70181,298.979302 570.246023,300.503518 C587.292287,301.963848 617.599442,298.924544 629.980464,323.777533 C638.958034,341.794359 629.216621,380.082408 625.847011,400.234964 C621.554021,425.909395 617.80249,452.432653 624.851114,477.367796 C628.979733,491.971093 634.636038,505.871615 639.064392,520.338011 C641.18188,527.2472 645.542555,537.834604 643.7248,544.378709 C640.717774,555.176018 626.649529,559.721304 619.823288,564.814207 C598.005424,581.087761 574.901596,585.240577 551.575384,585.126728 C508.490782,584.912005 465.183796,573.740471 422.92105,558.589547 C403.4769,551.616471 383.76202,544.17791 365.009196,532.057172 C354.397582,525.202741 346.570611,511.97762 336.437607,504.137472 C303.809917,478.873756 268.755333,465.374832 235.566847,442.27422 C225.960798,435.584086 190.079524,413.314045 208.155526,387.055484 C225.656228,361.636599 251.182114,364.657658 269.378977,340.744755 C271.438452,338.006628 273.986206,334.730011 275.180315,330.303392 C275.886144,327.656535 274.643691,322.618402 275.180315,321.112431 C280.768937,304.747606 300.633685,302.146391 309.224499,298.742001 Z" id="Path" transform="translate(423.649499, 431.322475) rotate(-180.000000) translate(-423.649499, -431.322475) "></path>
                    <path d="M300.693299,327.58265 C335.401087,318.553021 370.872214,316.313967 406.164584,315.745034 C425.455814,315.433028 446.650561,313.102217 465.526302,322.370428 C477.121331,328.078181 488.320197,333.070166 500.27274,336.667335 C513.13356,340.539798 533.84035,343.356968 541.671825,364.34352 C547.522484,380.02607 543.512536,412.262948 543.299961,431.331612 C543.072891,452.244752 545.333922,467.752948 553.117086,482.71974 C558.011154,492.143959 580.462029,526.353769 577.867642,536.218464 C575.398866,545.615144 559.75524,547.055843 552.991473,549.49679 C531.613137,557.241705 509.949758,559.93959 488.204247,559.517471 C454.525518,558.875114 420.721177,552.359834 387.569056,541.164564 C373.862765,536.512103 359.697504,531.694472 346.604784,522.398722 C337.787731,516.131207 330.43455,505.018522 321.675471,498.539943 C296.591558,479.957637 270.067929,467.340013 244.897053,448.418173 C236.819182,442.334184 210.498466,426.137746 216.808094,401.177791 C222.069339,380.338076 239.964334,373.997149 248.757231,360.030582 C263.714819,336.208515 281.619476,332.537933 300.693299,327.58265 Z" id="Path" transform="translate(396.958230, 437.409117) rotate(-180.000000) translate(-396.958230, -437.409117) "></path>
                    <path d="M294.526834,357.85519 C322.110231,351.888076 350.334767,349.278601 378.323093,349.150874 C396.385832,349.068759 415.441611,348.603429 433.166908,356.276736 C442.070532,360.127073 449.807574,369.132491 458.23396,375.555802 C466.911016,382.161599 478.885353,389.533804 482.635769,404.679688 C486.159619,418.913179 484.843599,439.679462 487.938415,456.841752 C490.69097,472.06975 496.451571,481.476618 502.655666,491.768523 C506.608548,498.34694 526.908038,526.823033 524.560413,533.109482 C522.044066,539.843017 509.852802,539.295572 503.50891,540.226222 C486.030269,542.835132 468.490244,543.666619 450.964515,542.717081 C427.044764,541.330234 402.94183,537.461641 379.436649,528.702577 C362.762239,522.498242 350.185329,507.717318 334.638936,496.877979 C314.498525,482.799607 293.635025,471.668289 273.687437,456.266939 C263.747388,448.593632 249.034957,438.721434 243.944417,418.913179 C241.987259,411.321986 240.087948,392.015541 242.266853,384.424359 C244.884432,375.300325 254.626837,371.431742 259.225677,369.086867 C270.74688,363.238369 282.803167,360.391673 294.526834,357.85519 Z" id="Path" transform="translate(383.022425, 446.106810) rotate(-180.000000) translate(-383.022425, -446.106810) "></path>
                </g>
            </g>
        </g>
    </g>
</svg>