<?xml version="1.0" encoding="UTF-8"?>
<svg width="352px" height="92px" viewBox="0 0 352 92" version="1.1" xmlns="http://www.w3.org/2000/svg" xmlns:xlink="http://www.w3.org/1999/xlink">
    <title>Logos</title>
    <g id="Logos" stroke="none" stroke-width="1" fill="none" fill-rule="evenodd">
        <g id="logo-pinterest" transform="translate(76.000000, 21.000000)" fill="#707780" fill-rule="nonzero">
            <path d="M45.8903226,17.823871 C48.0590323,17.823871 50.1396774,16.0183871 50.5016129,13.7909677 C50.9293548,11.6229032 49.4593548,9.81741935 47.2922581,9.81741935 C45.1245161,9.81741935 43.0435484,11.6229032 42.676129,13.7909677 C42.2532258,16.0183871 43.6629032,17.823871 45.8903226,17.823871 L45.8903226,17.823871 Z M193.05871,24.2680645 L197.91,24.2680645 C198.574839,24.2680645 198.964194,23.9980645 199.113871,23.3777419 C199.346135,22.416875 199.584958,21.4576054 199.830323,20.5 C199.973871,19.9416129 199.64871,19.5183871 199.029677,19.5183871 L194.242581,19.5183871 C194.587419,18.1464516 195.93,13.6922581 195.93,10.7883871 C195.93,4.98903226 191.005484,0.0561290323 184.018065,0.0561290323 C176.126774,0.0561290323 170.992903,5.35193548 170.992903,12.803871 C170.992903,14.9774194 171.803871,17.5109677 172.809032,19.0825806 C172.376464,19.0578659 171.943274,19.0456027 171.51,19.0458065 C165.513871,19.0458065 161.737097,22.2983871 161.737097,27.0312903 C161.737097,31.4732258 165.23871,33.1993548 168.535484,34.3480645 C171.463871,35.3687097 174.160645,35.8435484 174.160645,38.1312903 C174.160645,39.673871 172.676774,40.5790323 169.772903,40.5790323 C166.327419,40.5790323 164.433871,38.9564516 163.952581,38.3409677 C164.279032,38.0845161 164.764516,37.473871 164.764516,36.4564516 C164.764516,35.0332258 163.764839,33.8716129 161.908065,33.8716129 C160.337097,33.8716129 159.009032,35.1529032 158.675484,36.8383871 C156.152258,38.9025806 153.398387,40.2403226 149.492581,40.2403226 C145.646774,40.2403226 143.650645,38.24 143.650645,33.9835484 C144.552258,34.2580645 146.9,34.5877419 148.451613,34.5877419 C154.963548,34.5877419 159.401613,31.6290323 159.401613,25.703871 C159.401613,22.5177419 156.604516,19.1716129 151.070968,19.1716129 L151.058387,19.1716129 C143.780323,19.1716129 139.703548,23.7819355 137.923548,28.8529032 C137.424848,28.7326491 136.925264,28.6160867 136.424839,28.5032258 C136.822903,27.3783871 137.10871,26.0748387 137.10871,24.6296774 C137.10871,22.1251613 135.557742,19.1716129 131.407419,19.1716129 C128.516452,19.1716129 125.774194,21.0651613 123.873548,23.9032258 C124.346452,22.0519355 124.66,20.8190323 124.680323,20.7364516 C124.804194,20.2522581 124.602581,19.7129032 123.847419,19.7129032 L119.587742,19.7129032 C118.980645,19.7129032 118.552258,19.9274194 118.379677,20.6187097 C118.263871,21.0796774 116.800323,26.8222581 115.375484,32.413871 C114.478065,35.9003226 109.835484,40.2403226 104.000323,40.2403226 C100.153871,40.2403226 98.1593548,38.1083871 98.1593548,33.8503226 C99.1658065,34.2509677 101.408387,34.5874194 102.959355,34.5874194 C109.736129,34.5874194 113.909355,31.6287097 113.909355,25.7035484 C113.909355,22.5174194 111.112581,19.1712903 105.578387,19.1712903 L105.566452,19.1712903 C97.3709677,19.1712903 92.3506452,25.5367742 91.5,32.7541935 C91.146129,35.7545161 88.613871,39.8745161 85.8687097,39.8745161 C84.5312903,39.8745161 83.7854839,39.0345161 83.7854839,37.6083871 C83.7854839,36.3767742 84.6525806,33.3651613 85.6029032,29.5909677 C85.9212903,28.3283871 86.4045161,26.4022581 86.9403226,24.2680645 L91.3958065,24.2680645 C92.0590323,24.2680645 92.4480645,23.9980645 92.5987097,23.3777419 C92.8119355,22.4845161 93.2032258,20.926129 93.3141935,20.5 C93.4577419,19.9416129 93.1345161,19.5183871 92.5135484,19.5183871 L88.1322581,19.5183871 C88.1322581,19.5183871 90.1493548,11.47 90.1974194,11.2632258 C90.3916129,10.4448387 89.7067742,9.97258065 88.9903226,10.1232258 C88.9903226,10.1232258 85.603871,10.786129 84.9758065,10.9170968 C84.3445161,11.0448387 83.8545161,11.3916129 83.6264516,12.3016129 L81.8329032,19.5183871 L78.3148387,19.5183871 C77.6516129,19.5183871 77.2616129,19.7890323 77.1129032,20.4080645 C76.879179,21.3687064 76.6406815,22.3281806 76.3974194,23.2864516 C76.2519355,23.8448387 76.5767742,24.2680645 77.1970968,24.2680645 L80.6470968,24.2680645 C80.6225806,24.3667742 79.4009677,29.013871 78.4129032,33.1754839 C77.9477419,35.1767742 76.39,39.8596774 73.8390323,39.8596774 C72.3151613,39.8596774 71.6712903,39.0909677 71.6712903,37.4422581 C71.6712903,34.8458065 74.2270968,28.346129 74.2270968,25.3967742 C74.2270968,21.4570968 72.1135484,19.1745161 67.7835484,19.1745161 C65.0541935,19.1745161 62.2241935,20.9367742 61.0248387,22.4835484 C61.0248387,22.4835484 61.3887097,21.2174194 61.5132258,20.7306452 C61.646129,20.2164516 61.3703226,19.7112903 60.6951613,19.7112903 L56.4616129,19.7112903 C55.5606452,19.7112903 55.3116129,20.1929032 55.1793548,20.7225806 C55.1264516,20.9351613 53.6009677,26.9254839 52.1364516,32.676129 C51.1348387,36.613871 48.7009677,39.9041935 46.0987097,39.9041935 C44.7606452,39.9041935 44.1648387,39.0645161 44.1648387,37.6383871 C44.1648387,36.406129 44.9609677,33.3654839 45.9109677,29.5916129 C47.0667742,24.9970968 48.0864516,21.2135484 48.1954839,20.7716129 C48.3377419,20.2051613 48.0845161,19.7116129 47.3545161,19.7116129 L43.0954839,19.7116129 C42.323871,19.7116129 42.0483871,20.1164516 41.8858065,20.6790323 C41.8858065,20.6790323 40.6870968,25.2167742 39.4177419,30.2683871 C38.4958065,33.9345161 37.4777419,37.6687097 37.4777419,39.4232258 C37.4777419,42.5541935 38.8835484,44.9141935 42.7483871,44.9141935 C45.7312903,44.9141935 48.0919355,43.4016129 49.8945161,41.4741935 C49.6296774,42.5174194 49.4606452,43.1777419 49.4435484,43.2451613 C49.2880645,43.8416129 49.4764516,44.3687097 50.1790323,44.3687097 L54.5374194,44.3687097 C55.296129,44.3687097 55.5877419,44.0635484 55.746129,43.4019355 C55.8987097,42.7706452 59.153871,29.9670968 59.153871,29.9670968 C60.0141935,26.5277419 62.1422581,24.2503226 65.136129,24.2503226 C66.5558065,24.2503226 67.7845161,25.1903226 67.6422581,27.0170968 C67.4841935,29.0267742 65.0606452,36.2464516 65.0606452,39.4151613 C65.0606452,41.8135484 65.95,44.9164516 70.4648387,44.9164516 C73.5422581,44.9164516 75.8077419,43.4409677 77.4551613,41.5367742 C78.0583871,43.5577419 79.6564516,44.9164516 82.5877419,44.9164516 C87.4593548,44.9164516 90.3958065,42.0270968 92.1209677,39.1248387 C93.5525806,42.4967742 96.9054839,44.9148387 101.822258,44.9148387 C106.833548,44.9148387 110.711613,42.8022581 113.46,39.9303226 L112.602903,43.2922581 C112.447097,43.8977419 112.710645,44.373871 113.421613,44.373871 L117.735161,44.373871 C118.325806,44.373871 118.746129,44.0735484 118.899355,43.4532258 C118.975161,43.1487097 119.598387,40.74 120.47871,37.3174194 C122.162258,30.7680645 124.868065,23.9732258 128.933871,23.9732258 C130.367742,23.9732258 130.955806,24.7748387 130.955806,26.0377419 C130.955806,26.6332258 130.782903,27.1477419 130.633548,27.4235484 C128.662903,27.0319355 127.077419,28.0048387 127.077419,30.1090323 C127.077419,31.48 128.52,32.726129 130.467097,32.726129 C131.954839,32.726129 133.184839,32.3612903 134.165806,31.7009677 C135.131352,31.900123 136.09474,32.1095973 137.055806,32.3293548 C136.907981,33.2790372 136.832388,34.2385626 136.829677,35.1996774 C136.829677,40.4564516 140.583226,44.9145161 147.31129,44.9145161 C152.583548,44.9145161 156.201613,42.9858065 159.324839,40.5132258 C160.826129,42.9696774 164.616774,44.9548387 169.59,44.9548387 C176.406129,44.9548387 180.271935,41.4106452 180.271935,36.7258065 C180.271935,32.4854839 176.790968,30.9248387 173.20129,29.6254839 C170.283226,28.5712903 167.849355,27.9980645 167.849355,25.9358065 C167.849355,24.2454839 169.18,23.4722581 171.460645,23.4722581 C172.940323,23.4722581 174.05129,23.7909677 174.644516,23.9574194 C175.232903,25.43 176.450323,27.0606452 178.52871,27.0606452 C180.287419,27.0606452 181.077097,25.6696774 181.077097,24.3887097 C181.077097,20.7422581 175.002903,20.36 175.002903,12.5396774 C175.002903,7.67677419 177.754516,3.66516129 183.453226,3.66516129 C187.412903,3.66516129 189.99871,6.17612903 189.99871,10.2287097 C189.99871,13.57 187.972258,19.5180645 187.972258,19.5180645 L184.527742,19.5180645 C183.865806,19.5180645 183.475161,19.7887097 183.325484,20.4077419 C183.092354,21.3686379 182.853424,22.3281178 182.60871,23.286129 C182.463871,23.8445161 182.78871,24.2677419 183.409355,24.2677419 L186.772581,24.2677419 C186.772581,24.2677419 183.295806,37.0903226 183.295806,39.4222581 C183.295806,42.5532258 185.060323,44.9125806 188.926774,44.9125806 C194.395484,44.9125806 197.812903,41.3587097 199.29871,36.1909677 C199.414194,35.7912903 199.187742,35.4658065 198.782903,35.4658065 L196.696452,35.4658065 C196.28,35.4658065 196.038387,35.7032258 195.933226,36.1103226 C195.461935,37.9448387 194.293871,39.8748387 191.993871,39.8748387 C190.656452,39.8748387 189.910968,39.0348387 189.910968,37.6090323 C189.910968,36.3770968 190.726452,33.4929032 191.729677,29.5916129 C192.207742,27.733871 193.05871,24.2680645 193.05871,24.2680645 L193.05871,24.2680645 Z M149.938065,24.0490323 C151.871935,24.0490323 152.790645,25.3354839 152.790645,26.8687097 C152.790645,29.4619355 150.779355,31.0432258 147.633548,31.0432258 C146.507742,31.0432258 144.933871,30.7764516 144.004516,30.4667742 C144.395161,28.0819355 146.12129,24.0490323 149.938065,24.0490323 Z M104.446129,24.0490323 C106.562903,24.0490323 107.297742,25.3354839 107.297742,26.8687097 C107.297742,29.4619355 105.287419,31.0432258 102.141935,31.0432258 C101.015806,31.0432258 99.4419355,30.7764516 98.5129032,30.4667742 C98.9012903,28.0819355 100.431935,24.0490323 104.446129,24.0490323 Z M20.7570968,0 C6.95774194,0 0,9.89354839 0,18.143871 C0,23.1393548 1.89129032,27.5835484 5.94774194,29.2393548 C6.61290323,29.5116129 7.20870968,29.2487097 7.4016129,28.5122581 C7.53580645,28.0025806 7.85322581,26.7170968 7.99483871,26.1812903 C8.18967742,25.4529032 8.11387097,25.1974194 7.57709677,24.5625806 C6.40741935,23.1829032 5.66,21.3967742 5.66,18.8667742 C5.66,11.5267742 11.1516129,4.95580645 19.96,4.95580645 C27.76,4.95580645 32.0448387,9.7216129 32.0448387,16.0864516 C32.0448387,24.4609677 28.3390323,31.5290323 22.8367742,31.5290323 C19.7983871,31.5290323 17.523871,29.016129 18.2529032,25.9341935 C19.1258065,22.2548387 20.8167742,18.283871 20.8167742,15.6280645 C20.8167742,13.2506452 19.5406452,11.2677419 16.8996774,11.2677419 C13.7935484,11.2677419 11.2983871,14.4809677 11.2983871,18.7854839 C11.2983871,21.5270968 12.2248387,23.3812903 12.2248387,23.3812903 C12.2248387,23.3812903 9.04612903,36.8493548 8.48903226,39.2080645 C7.37935484,43.9054839 8.32193548,49.663871 8.4016129,50.2454839 C8.44870968,50.59 8.8916129,50.6719355 9.09225806,50.4119355 C9.37870968,50.0380645 13.0777419,45.4709677 14.3358065,40.9070968 C14.6916129,39.6148387 16.3787097,32.923871 16.3787097,32.923871 C17.3877419,34.8487097 20.3370968,36.5441935 23.4735484,36.5441935 C32.81,36.5441935 39.1448387,28.0322581 39.1448387,16.6387097 C39.1448387,8.02354839 31.8477419,0 20.7570968,0 Z" id="Shape"></path>
        </g>
    </g>
</svg>