<svg xmlns="http://www.w3.org/2000/svg" fill="none" viewBox="0 0 506 574"><g clip-path="url(#clip0_3120_2708)"><g filter="url(#filter0_d_3120_2708)"><g clip-path="url(#clip1_3120_2708)"><path fill="#202024" d="M0 0h602v428.089H0z"/><path fill="url(#paint0_linear_3120_2708)" d="M0 0h133.778v428.089H0z"/><mask id="mask0_3120_2708" width="134" height="429" x="0" y="0" maskUnits="userSpaceOnUse" style="mask-type:alpha"><path fill="#09090B" d="M0 0h133.778v428.089H0z"/></mask><g mask="url(#mask0_3120_2708)"><rect width="27" height="2" x="13" y="63" fill="#A1A1AA" rx="1"/><rect width="48" height="2" x="13" y="81" fill="#A1A1AA" rx="1"/><rect width="70" height="2" x="13" y="99" fill="#A1A1AA" rx="1"/><rect width="33" height="2" x="13" y="117" fill="#A1A1AA" rx="1"/><rect width="49" height="2" x="13" y="135" fill="#A1A1AA" rx="1"/><rect width="27" height="2" x="13" y="153" fill="#A1A1AA" rx="1"/><rect width="31" height="2" x="13" y="171" fill="#A1A1AA" rx="1"/><rect width="43" height="2" x="13" y="189" fill="#A1A1AA" rx="1"/><rect width="27" height="2" x="13" y="207" fill="#A1A1AA" rx="1"/><rect width="27" height="2" x="13" y="225" fill="#A1A1AA" rx="1"/><rect width="56" height="2" x="13" y="243" fill="#A1A1AA" rx="1"/><g clip-path="url(#clip2_3120_2708)"><path fill="#FF2D20" fill-rule="evenodd" d="M34.123 18.212a.339.339 0 0 1 .012.088v4.587a.335.335 0 0 1-.168.29l-3.85 2.216v4.394c0 .12-.063.23-.167.29l-8.036 4.626c-.019.01-.039.017-.059.024l-.023.01a.336.336 0 0 1-.17 0c-.01-.003-.018-.008-.027-.012-.019-.006-.038-.012-.055-.022l-8.035-4.626a.335.335 0 0 1-.168-.29V16.026c0-.03.004-.06.012-.088.002-.01.008-.018.011-.028.007-.018.012-.036.022-.052.006-.01.015-.02.023-.03.01-.013.018-.027.03-.038.009-.01.021-.017.032-.025.013-.01.023-.021.037-.03l4.018-2.312a.335.335 0 0 1 .335 0l4.017 2.313c.014.008.026.018.038.028.01.009.023.016.032.025.012.012.02.026.03.04.008.01.017.018.023.03.01.016.015.034.022.051.003.01.009.018.011.028a.335.335 0 0 1 .012.088v8.595l3.348-1.928v-4.394c0-.029.004-.059.012-.087l.011-.028c.007-.018.013-.036.022-.052.006-.01.015-.02.023-.03.01-.013.018-.027.03-.039.01-.01.021-.016.032-.025l.037-.029 4.018-2.313a.335.335 0 0 1 .335 0l4.017 2.313c.015.009.026.02.038.029.01.008.023.016.032.025.012.012.02.026.03.04.008.01.017.018.023.029.01.016.015.034.022.052.003.01.009.018.011.028Zm-.658 4.481v-3.814l-1.406.809-1.942 1.118v3.815l3.349-1.928Zm-4.017 6.9v-3.817l-1.91 1.091-5.456 3.114v3.853l7.366-4.241ZM14.047 16.605v12.988l7.365 4.24v-3.852l-3.848-2.177-.001-.001-.002-.001c-.013-.008-.024-.018-.036-.027-.01-.009-.022-.016-.031-.025l-.001-.001c-.011-.01-.019-.023-.028-.035-.008-.011-.018-.021-.025-.033v-.001c-.008-.013-.013-.028-.018-.042-.005-.012-.012-.024-.016-.038-.004-.016-.005-.033-.006-.049-.002-.012-.005-.025-.005-.037v-8.981l-1.942-1.12-1.406-.808Zm3.683-2.506-3.348 1.927 3.347 1.927 3.347-1.928-3.347-1.926Zm1.74 12.025 1.942-1.118v-8.401l-1.405.81-1.943 1.117v8.402l1.407-.81Zm10.313-9.751L26.436 18.3l3.347 1.927 3.346-1.928-3.346-1.926Zm-.335 4.433-1.942-1.118-1.406-.81v3.815l1.941 1.118 1.407.81v-3.815Zm-7.702 8.596 4.91-2.803 2.454-1.4-3.345-1.926-3.85 2.217-3.51 2.02 3.341 1.892Z" clip-rule="evenodd"/></g></g><g clip-path="url(#clip3_3120_2708)"><path fill="#FF2D20" fill-rule="evenodd" d="M42.094 18.411v10.331h3.657v1.782h-5.604V18.411h1.947Zm10.53 5.14v-1.09h1.846v8.064h-1.845v-1.09c-.249.403-.6.72-1.058.95-.457.232-.917.347-1.38.347a3.933 3.933 0 0 1-1.643-.337 3.844 3.844 0 0 1-1.278-.926 4.319 4.319 0 0 1-.83-1.35c-.199-.518-.3-1.07-.296-1.627 0-.565.099-1.105.296-1.618a4.3 4.3 0 0 1 .83-1.358c.36-.395.794-.71 1.278-.926a3.933 3.933 0 0 1 1.643-.337c.463 0 .923.115 1.38.346.457.23.809.548 1.058.951Zm-.169 3.928c.114-.316.171-.65.17-.986 0-.347-.057-.676-.17-.987a2.515 2.515 0 0 0-.473-.813 2.3 2.3 0 0 0-.737-.554 2.183 2.183 0 0 0-.956-.208c-.35 0-.667.07-.95.208a2.326 2.326 0 0 0-1.192 1.367c-.109.317-.163.65-.161.986a3 3 0 0 0 .16.986 2.32 2.32 0 0 0 1.194 1.368c.282.139.598.207.948.207s.669-.069.957-.207c.28-.132.53-.32.737-.554a2.51 2.51 0 0 0 .473-.813Zm3.471 3.045V22.46h5.012v1.857h-3.166v6.208h-1.846Zm11.7-6.974v-1.09h1.846v8.065h-1.846v-1.09a2.56 2.56 0 0 1-1.059.95c-.456.232-.916.347-1.38.347a3.932 3.932 0 0 1-1.641-.337 3.844 3.844 0 0 1-1.279-.926 4.319 4.319 0 0 1-.83-1.35 4.44 4.44 0 0 1-.296-1.627c0-.565.099-1.105.297-1.618a4.3 4.3 0 0 1 .829-1.358c.36-.395.795-.71 1.279-.926a3.932 3.932 0 0 1 1.642-.337c.462 0 .922.115 1.38.346.457.23.81.548 1.058.951Zm-.17 3.929c.114-.316.171-.65.17-.986 0-.347-.057-.676-.17-.987a2.515 2.515 0 0 0-.473-.813 2.3 2.3 0 0 0-.737-.554 2.185 2.185 0 0 0-.956-.208c-.35 0-.667.07-.949.208a2.324 2.324 0 0 0-1.193 1.367 3 3 0 0 0-.161.986c0 .346.053.675.16.986a2.319 2.319 0 0 0 1.193 1.368c.283.139.6.207.95.207.349 0 .668-.069.956-.207.28-.132.53-.32.737-.554a2.51 2.51 0 0 0 .474-.813Zm9.414-5.019h1.87l-3.029 8.065h-2.32l-3.03-8.065h1.87l2.32 6.176 2.32-6.176Zm5.895-.207c2.513 0 4.226 2.276 3.904 4.94h-6.122c0 .696.687 2.04 2.32 2.04 1.403 0 2.343-1.261 2.344-1.262l1.247.986c-1.115 1.216-2.028 1.775-3.457 1.775-2.554 0-4.285-1.651-4.285-4.24 0-2.34 1.79-4.24 4.049-4.24Zm-2.213 3.538h4.423c-.014-.155-.254-2.04-2.225-2.04-1.972 0-2.184 1.885-2.198 2.04Zm7.319 4.733V18.411h1.846v12.113H87.87Z" clip-rule="evenodd"/></g><rect width="129" height="5" x="159" y="68" fill="#A1A1AA" rx="2.5"/><rect width="129" height="5" x="159" y="120" fill="#A1A1AA" rx="2.5"/><rect width="190" height="2" x="159" y="88" fill="#A1A1AA" opacity=".3" rx="1"/><rect width="39" height="2" x="354" y="88" fill="#FF2D20" rx="1"/><rect width="40" height="2" x="422" y="34" fill="#E4E4E7" opacity=".3" rx="1"/><rect width="269" height="2" x="160" y="137" fill="#A1A1AA" opacity=".3" rx="1"/><rect width="229" height="2" x="160" y="147" fill="#A1A1AA" opacity=".3" rx="1"/><rect width="250" height="2" x="160" y="157" fill="#A1A1AA" opacity=".3" rx="1"/><rect width="241" height="2" x="160" y="167" fill="#A1A1AA" opacity=".3" rx="1"/><rect width="255" height="2" x="160" y="177" fill="#A1A1AA" opacity=".3" rx="1"/><rect width="133" height="2" x="160" y="187" fill="#A1A1AA" opacity=".3" rx="1"/><path stroke="#52525B" stroke-width=".5" d="M159 43.75h328"/><path stroke="#D4D4D8" stroke-linecap="round" stroke-linejoin="round" stroke-width=".5" d="m162.858 34.316 1.226 1.226m-1.226-1.226a2.26 2.26 0 1 1-3.196-3.196 2.26 2.26 0 0 1 3.196 3.196Z"/><path fill="#D4D4D8" d="M172.531 35.075a2.51 2.51 0 0 1-.646-.075 1.753 1.753 0 0 1-.489-.22 1.542 1.542 0 0 1-.339-.313 1.258 1.258 0 0 1-.194-.37l.508-.176a1 1 0 0 0 .376.483c.192.134.426.2.702.2.339 0 .604-.066.797-.2a.62.62 0 0 0 .288-.533.586.586 0 0 0-.257-.495 1.878 1.878 0 0 0-.677-.301l-.483-.126a2.167 2.167 0 0 1-.546-.219 1.27 1.27 0 0 1-.395-.376 1.025 1.025 0 0 1-.144-.552c0-.397.128-.707.383-.928.259-.226.631-.339 1.116-.339.288 0 .537.048.746.144.209.092.378.212.508.358.134.142.228.297.282.464l-.501.175a.969.969 0 0 0-.402-.489 1.235 1.235 0 0 0-.683-.181c-.28 0-.504.069-.671.206a.676.676 0 0 0-.245.552c0 .2.065.356.195.464.129.105.298.182.507.232l.483.12c.427.1.753.267.979.501.229.23.344.479.344.746 0 .23-.058.441-.175.634a1.234 1.234 0 0 1-.521.451c-.225.109-.508.163-.846.163Zm3.676 0c-.305 0-.575-.069-.809-.207a1.514 1.514 0 0 1-.552-.583 1.814 1.814 0 0 1-.194-.853c0-.322.065-.606.194-.852a1.483 1.483 0 0 1 1.349-.79c.292 0 .545.073.758.219.214.142.379.343.496.602.117.259.175.564.175.915h-2.589l.125-.106c0 .25.044.466.132.646a.99.99 0 0 0 .382.413c.163.093.349.139.558.139a.953.953 0 0 0 .558-.157c.155-.105.274-.243.358-.414l.432.22a1.396 1.396 0 0 1-.319.426 1.38 1.38 0 0 1-.464.282c-.176.067-.372.1-.59.1Zm-1.016-1.869-.131-.1h2.163l-.132.107c0-.2-.039-.374-.119-.52a.858.858 0 0 0-.32-.34.889.889 0 0 0-.464-.118c-.171 0-.334.04-.489.119a.993.993 0 0 0-.37.338.926.926 0 0 0-.138.514ZM180.188 35l-.025-.514v-1.142c0-.246-.027-.449-.081-.608a.714.714 0 0 0-.257-.37.771.771 0 0 0-.458-.125.888.888 0 0 0-.445.106.764.764 0 0 0-.301.326l-.452-.175c.08-.146.176-.272.289-.376a1.1 1.1 0 0 1 .395-.245 1.41 1.41 0 0 1 .514-.088c.293 0 .533.059.721.176.192.113.337.282.433.508.096.221.142.497.138.828L180.653 35h-.465Zm-.94.075c-.368 0-.656-.083-.866-.25-.204-.172-.307-.408-.307-.71 0-.317.105-.56.314-.727.213-.171.51-.257.89-.257h.897v.42h-.784c-.293 0-.502.048-.627.145a.498.498 0 0 0-.182.413.47.47 0 0 0 .182.39c.121.091.291.137.508.137.18 0 .336-.037.47-.113a.793.793 0 0 0 .308-.332c.075-.146.112-.318.112-.514h.214c0 .426-.097.767-.289 1.022-.192.25-.472.376-.84.376Zm2.482-1.774c0-.339.064-.613.194-.822.13-.213.295-.37.495-.47.205-.105.421-.157.646-.157v.47c-.184 0-.361.032-.533.094a.894.894 0 0 0-.414.295c-.108.138-.163.326-.163.565l-.225.025ZM181.454 35v-3.135h.501V35h-.501Zm3.517.075c-.309 0-.583-.069-.821-.207a1.496 1.496 0 0 1-.559-.583c-.133-.246-.2-.53-.2-.853 0-.322.065-.606.194-.852.134-.247.32-.44.558-.578.239-.142.51-.213.815-.213.301 0 .571.07.809.207.239.138.421.333.546.584l-.458.206a.905.905 0 0 0-.364-.388 1.029 1.029 0 0 0-.545-.145 1 1 0 0 0-.546.15c-.154.101-.278.241-.37.421a1.353 1.353 0 0 0-.131.608c0 .23.044.435.131.615.092.175.218.313.377.414.163.1.347.15.551.15a.982.982 0 0 0 .916-.596l.458.207a1.458 1.458 0 0 1-.546.627c-.238.151-.51.226-.815.226Zm1.994-.075v-4.39h.502V35h-.502Zm2.208 0v-1.605h.501V35h-.501Zm0-1.605c0-.31-.038-.546-.113-.709a.617.617 0 0 0-.295-.332.94.94 0 0 0-.426-.094c-.276 0-.492.098-.646.294-.151.193-.226.466-.226.822h-.245c0-.33.048-.615.145-.853a1.2 1.2 0 0 1 .426-.546 1.15 1.15 0 0 1 .665-.188c.242 0 .455.05.639.15a.97.97 0 0 1 .427.465c.104.213.154.493.15.84v.15h-.501ZM423.54 28l1.43-3.5h.445l-1.45 3.5h-.425Zm-.045 0-1.45-3.5h.445l1.425 3.5h-.42Zm2.437 0v-3.5h2.07v.385h-1.645v1.13h1.5v.38h-1.5v1.22h1.655V28h-2.08Zm2.959 0v-3.5h1.14c.226 0 .426.045.6.135a1.016 1.016 0 0 1 .56.925c0 .207-.054.39-.16.55-.107.16-.252.287-.435.38a1.39 1.39 0 0 1-.62.135h-.66V28h-.425Zm1.975 0-.84-1.435.335-.22.97 1.655h-.465Zm-1.55-1.765h.775c.126 0 .24-.028.34-.085a.69.69 0 0 0 .335-.59c0-.2-.07-.362-.21-.485a.756.756 0 0 0-.535-.19h-.705v1.35Zm3.825 1.825c-.194 0-.365-.02-.515-.06a1.227 1.227 0 0 1-.66-.425.996.996 0 0 1-.155-.295l.405-.14a.8.8 0 0 0 .3.385c.153.107.34.16.56.16.27 0 .481-.053.635-.16a.495.495 0 0 0 .23-.425.469.469 0 0 0-.205-.395 1.508 1.508 0 0 0-.54-.24l-.385-.1a1.712 1.712 0 0 1-.435-.175c-.13-.08-.235-.18-.315-.3a.814.814 0 0 1-.115-.44c0-.317.101-.563.305-.74.206-.18.503-.27.89-.27.23 0 .428.038.595.115.166.073.301.168.405.285a.998.998 0 0 1 .225.37l-.4.14a.772.772 0 0 0-.32-.39.985.985 0 0 0-.545-.145c-.224 0-.402.055-.535.165a.538.538 0 0 0-.195.44c0 .16.051.283.155.37.103.083.238.145.405.185l.385.095c.34.08.6.213.78.4.183.183.275.382.275.595a.956.956 0 0 1-.14.505.989.989 0 0 1-.415.36c-.18.087-.405.13-.675.13Zm1.951-.06v-3.5h.425V28h-.425Zm2.847.06a1.73 1.73 0 0 1-.895-.23 1.614 1.614 0 0 1-.61-.64 1.965 1.965 0 0 1-.22-.94c0-.357.072-.67.215-.94a1.63 1.63 0 0 1 .605-.64c.257-.153.554-.23.89-.23.337 0 .634.078.89.235.26.153.462.367.605.64.144.27.215.582.215.935 0 .353-.071.667-.215.94a1.583 1.583 0 0 1-.6.64c-.253.153-.546.23-.88.23Zm0-.385c.25 0 .47-.06.66-.18.19-.123.339-.292.445-.505.11-.213.165-.46.165-.74 0-.277-.055-.522-.165-.735a1.235 1.235 0 0 0-.455-.505 1.193 1.193 0 0 0-.665-.185c-.25 0-.471.062-.665.185-.193.12-.345.288-.455.505-.11.213-.165.458-.165.735 0 .28.055.527.165.74.11.213.264.382.46.505.197.12.422.18.675.18Zm2.392.325v-3.5h.43l2.085 2.81V24.5h.425V28h-.425l-2.09-2.825V28h-.425Z"/><g clip-path="url(#clip4_3120_2708)"><path fill="#D4D4D8" d="M475.501 30.583a2.921 2.921 0 0 0-2.063.855 2.916 2.916 0 1 0 2.063-.855Zm0 .584a2.336 2.336 0 0 1 2.333 2.333 2.336 2.336 0 0 1-2.333 2.333v-4.666Z"/></g></g></g><g filter="url(#filter1_f_3120_2708)"><path fill="#262626" d="M-138 237s183 84.669 374 84.669S610 237 610 237v373h-748V237Z"/></g></g><defs><clipPath id="clip0_3120_2708"><path fill="#fff" d="M0 0h506v574H0z"/></clipPath><clipPath id="clip1_3120_2708"><path fill="#fff" d="M0 0h602v428.089H0z"/></clipPath><clipPath id="clip2_3120_2708"><path fill="#fff" d="M13.377 13.378H34.28v21.739H13.377z"/></clipPath><clipPath id="clip3_3120_2708"><path fill="#fff" d="M40 18h50v13H40z"/></clipPath><clipPath id="clip4_3120_2708"><path fill="#fff" d="M472 30h7v7h-7z"/></clipPath><filter id="filter0_d_3120_2708" width="670" height="496.089" x="-34" y="-30" color-interpolation-filters="sRGB" filterUnits="userSpaceOnUse"><feFlood flood-opacity="0" result="BackgroundImageFix"/><feColorMatrix in="SourceAlpha" result="hardAlpha" values="0 0 0 0 0 0 0 0 0 0 0 0 0 0 0 0 0 0 127 0"/><feOffset dy="4"/><feGaussianBlur stdDeviation="17"/><feComposite in2="hardAlpha" operator="out"/><feColorMatrix values="0 0 0 0 0 0 0 0 0 0 0 0 0 0 0 0 0 0 0.06 0"/><feBlend in2="BackgroundImageFix" result="effect1_dropShadow_3120_2708"/><feBlend in="SourceGraphic" in2="effect1_dropShadow_3120_2708" result="shape"/></filter><filter id="filter1_f_3120_2708" width="896" height="521" x="-212" y="163" color-interpolation-filters="sRGB" filterUnits="userSpaceOnUse"><feFlood flood-opacity="0" result="BackgroundImageFix"/><feBlend in="SourceGraphic" in2="BackgroundImageFix" result="shape"/><feGaussianBlur result="effect1_foregroundBlur_3120_2708" stdDeviation="37"/></filter><linearGradient id="paint0_linear_3120_2708" x1="66.889" x2="66.889" y1="0" y2="428.089" gradientUnits="userSpaceOnUse"><stop stop-color="#18181B"/><stop offset="1" stop-color="#09090B"/></linearGradient></defs></svg>
