<?xml version="1.0" encoding="UTF-8"?>
<svg width="24px" height="24px" viewBox="0 0 24 24" version="1.1" xmlns="http://www.w3.org/2000/svg" xmlns:xlink="http://www.w3.org/1999/xlink">
    <g id="Stockholm-icons-/-Layout-/-Layout-left-panel-2" stroke="none" stroke-width="1" fill="none" fill-rule="evenodd">
        <rect id="bound" x="0" y="0" width="24" height="24"></rect>
        <path d="M10,4 L21,4 C21.5522847,4 22,4.44771525 22,5 L22,7 C22,7.55228475 21.5522847,8 21,8 L10,8 C9.44771525,8 9,7.55228475 9,7 L9,5 C9,4.44771525 9.44771525,4 10,4 Z M10,10 L21,10 C21.5522847,10 22,10.4477153 22,11 L22,13 C22,13.5522847 21.5522847,14 21,14 L10,14 C9.44771525,14 9,13.5522847 9,13 L9,11 C9,10.4477153 9.44771525,10 10,10 Z M10,16 L21,16 C21.5522847,16 22,16.4477153 22,17 L22,19 C22,19.5522847 21.5522847,20 21,20 L10,20 C9.44771525,20 9,19.5522847 9,19 L9,17 C9,16.4477153 9.44771525,16 10,16 Z" id="Combined-Shape" fill="#000000"></path>
        <rect id="Rectangle-7-Copy-2" fill="#000000" opacity="0.3" x="2" y="4" width="5" height="16" rx="1"></rect>
    </g>
</svg>
