<?xml version="1.0" encoding="UTF-8"?>
<svg width="24px" height="24px" viewBox="0 0 24 24" version="1.1" xmlns="http://www.w3.org/2000/svg" xmlns:xlink="http://www.w3.org/1999/xlink">
    <g id="Stockholm-icons-/-Media-/-Backward" stroke="none" stroke-width="1" fill="none" fill-rule="evenodd">
        <rect id="bound" x="0" y="0" width="24" height="24"></rect>
        <path d="M11.0879549,18.2771971 L17.8286578,12.3976203 C18.0367595,12.2161036 18.0583109,11.9002555 17.8767943,11.6921539 C17.8622027,11.6754252 17.8465132,11.6596867 17.8298301,11.6450431 L11.0891271,5.72838979 C10.8815919,5.54622572 10.5656782,5.56679309 10.3835141,5.7743283 C10.3034433,5.86555116 10.2592899,5.98278612 10.2592899,6.10416552 L10.2592899,17.9003957 C10.2592899,18.1765381 10.4831475,18.4003957 10.7592899,18.4003957 C10.8801329,18.4003957 10.9968872,18.3566309 11.0879549,18.2771971 Z" id="Path-10" fill="#000000" opacity="0.3" transform="translate(14.129645, 12.002277) scale(-1, 1) translate(-14.129645, -12.002277) "></path>
        <path d="M5.08795487,18.2771971 L11.8286578,12.3976203 C12.0367595,12.2161036 12.0583109,11.9002555 11.8767943,11.6921539 C11.8622027,11.6754252 11.8465132,11.6596867 11.8298301,11.6450431 L5.08912711,5.72838979 C4.8815919,5.54622572 4.56567821,5.56679309 4.38351414,5.7743283 C4.30344325,5.86555116 4.25928988,5.98278612 4.25928988,6.10416552 L4.25928988,17.9003957 C4.25928988,18.1765381 4.48314751,18.4003957 4.75928988,18.4003957 C4.88013293,18.4003957 4.99688719,18.3566309 5.08795487,18.2771971 Z" id="Path-10-Copy" fill="#000000" transform="translate(8.129645, 12.002277) scale(-1, 1) translate(-8.129645, -12.002277) "></path>
    </g>
</svg>
