<?xml version="1.0" encoding="UTF-8"?>
<svg width="24px" height="24px" viewBox="0 0 24 24" version="1.1" xmlns="http://www.w3.org/2000/svg" xmlns:xlink="http://www.w3.org/1999/xlink">
    <g id="Stockholm-icons-/-Media-/-Next" stroke="none" stroke-width="1" fill="none" fill-rule="evenodd">
        <rect id="bound" x="0" y="0" width="24" height="24"></rect>
        <path d="M6.82866499,18.2771971 L13.5693679,12.3976203 C13.7774696,12.2161036 13.7990211,11.9002555 13.6175044,11.6921539 C13.6029128,11.6754252 13.5872233,11.6596867 13.5705402,11.6450431 L6.82983723,5.72838979 C6.62230202,5.54622572 6.30638833,5.56679309 6.12422426,5.7743283 C6.04415337,5.86555116 6,5.98278612 6,6.10416552 L6,17.9003957 C6,18.1765381 6.22385763,18.4003957 6.5,18.4003957 C6.62084305,18.4003957 6.73759731,18.3566309 6.82866499,18.2771971 Z" id="Path-10-Copy" fill="#000000"></path>
        <rect id="Rectangle-Copy" fill="#000000" opacity="0.3" transform="translate(16.500000, 12.000000) scale(-1, 1) translate(-16.500000, -12.000000) " x="15" y="6" width="3" height="12" rx="1"></rect>
    </g>
</svg>
