<?xml version="1.0" encoding="UTF-8"?>
<svg width="24px" height="24px" viewBox="0 0 24 24" version="1.1" xmlns="http://www.w3.org/2000/svg" xmlns:xlink="http://www.w3.org/1999/xlink">
    <g id="Stockholm-icons-/-Media-/-Volume-down" stroke="none" stroke-width="1" fill="none" fill-rule="evenodd">
        <rect id="bound" x="0" y="0" width="24" height="24"></rect>
        <rect id="Rectangle-46" fill="#000000" opacity="0.3" x="16" y="11" width="7" height="2" rx="1"></rect>
        <path d="M7,16 L3.60776773,15.3215535 C2.67291934,15.1345839 2,14.3137542 2,13.3603922 L2,10.6396078 C2,9.68624577 2.67291934,8.86541613 3.60776773,8.67844645 L7,8 L10.2928932,4.70710678 C10.6834175,4.31658249 11.3165825,4.31658249 11.7071068,4.70710678 C11.8946432,4.89464316 12,5.14899707 12,5.41421356 L12,18.5857864 C12,19.1380712 11.5522847,19.5857864 11,19.5857864 C10.7347835,19.5857864 10.4804296,19.4804296 10.2928932,19.2928932 L7,16 Z" id="Combined-Shape" fill="#000000"></path>
    </g>
</svg>
