<?xml version="1.0" encoding="UTF-8"?>
<svg width="40px" height="40px" viewBox="0 0 40 40" version="1.1" xmlns="http://www.w3.org/2000/svg" xmlns:xlink="http://www.w3.org/1999/xlink">
    <title>DE</title>
    <defs>
        <circle id="path-1" cx="20" cy="20" r="20"></circle>
        <rect id="path-3" x="0" y="0" width="53.3333333" height="40"></rect>
        <circle id="path-5" cx="20" cy="20" r="20"></circle>
    </defs>
    <g id="Flagpack" stroke="none" stroke-width="1" fill="none" fill-rule="evenodd">
        <g id="Artboard" transform="translate(-875.000000, -678.000000)">
            <g id="DE" transform="translate(875.000000, 678.000000)">
                <g id="Group-Clipped">
                    <mask id="mask-2" fill="white">
                        <use xlink:href="#path-1"></use>
                    </mask>
                    <g id="path-1"></g>
                    <g id="Group" mask="url(#mask-2)">
                        <g transform="translate(-6.666667, 0.000000)" id="contents-Clipped">
                            <mask id="mask-4" fill="white">
                                <use xlink:href="#path-3"></use>
                            </mask>
                            <g id="path-3"></g>
                            <g id="contents" mask="url(#mask-4)" fill-rule="nonzero">
                                <path d="M0,26.6666667 L53.3333333,26.6666667 L53.3333333,36.6666667 C53.3333333,38.5076158 51.8409492,40 50,40 L3.33333333,40 C1.49238417,40 0,38.5076158 0,36.6666667 L0,26.6666667 L0,26.6666667 Z" id="bottom" fill="#FFD018"></path>
                                <polygon id="middle" fill="#E31D1C" points="0 13.3333333 53.3333333 13.3333333 53.3333333 26.6666667 0 26.6666667"></polygon>
                                <path d="M3.33333333,0 L50,0 C51.8409492,0 53.3333333,1.49238417 53.3333333,3.33333333 L53.3333333,13.3333333 L53.3333333,13.3333333 L0,13.3333333 L0,3.33333333 C0,1.49238417 1.49238417,0 3.33333333,0 Z" id="middle" fill="#272727"></path>
                            </g>
                        </g>
                    </g>
                </g>
                <g id="overlay-Clipped">
                    <mask id="mask-6" fill="white">
                        <use xlink:href="#path-5"></use>
                    </mask>
                    <g id="path-1"></g>
                    <circle id="overlay" mask="url(#mask-6)" cx="20" cy="20" r="20"></circle>
                </g>
            </g>
        </g>
    </g>
</svg>