<svg xmlns="http://www.w3.org/2000/svg" width="2500" height="2500" viewBox="0 0 192.756 192.756"><path fill-rule="evenodd" clip-rule="evenodd" fill="#fff" d="M0 0h192.756v192.756H0V0z"/><path d="M111.5 36.189c1.861 1.396 3.955-.232 5.584-1.163l6.979-5.118-7.91 39.783c0 .698.699 1.164 1.396 1.396l.932-.232c6.049-5.816 11.865-12.331 17.447-18.379.467 3.49-1.861 8.608 2.094 10.702 7.213.931 13.959-1.629 20.24-3.489-1.627 7.212-5.582 14.424-5.35 22.799 1.395 2.56 4.42 3.955 7.678 3.49l-26.988 24.893h-13.494c1.164-3.723 1.396-8.84-1.627-12.098-.232 0-.467-.465-.932-.465.232 2.094-1.162 4.188-3.023 4.885-1.164.699-2.328 0-3.025-.697.232-2.559 2.094-4.188 3.025-6.281 3.488-6.515 1.627-15.123-3.025-20.474-1.396-1.628-3.023-2.792-4.885-3.49.697 3.955.697 8.841-2.559 11.632.697-8.375-2.561-17.216-10.238-21.636h-.931c.233.931.931 2.094 1.396 3.257 1.628 5.351.232 10.702-3.49 14.657-6.281 5.351-19.542 9.539-16.285 20.706.465 1.629.931 3.723-.465 4.885-.465 0-1.861.234-2.094-.93 0-.697.232-1.396 0-1.861-1.396.699-2.327 2.094-3.024 3.49v4.652h-9.539l-27.22-24.428c3.024 0 5.816-1.163 7.444-3.49.931-8.375-3.257-15.355-5.118-23.032 6.282 1.396 12.796 4.653 20.008 3.257 1.163-.232 1.628-1.163 2.326-1.861.698-2.791 0-5.816 0-8.607l16.984 17.914c.698.232 1.396.698 2.093 0l.698-.931-7.677-40.016c3.722 2.559 6.979 6.747 11.865 6.747 3.49-2.792 4.886-6.514 6.979-10.003l8.608-18.146c4.654 9.303 8.144 19.307 15.123 27.682z" fill-rule="evenodd" clip-rule="evenodd" fill="#cc2229"/><path d="M109.639 55.266c-1.162 4.188-6.281 7.212-4.188 12.098-1.162.232-2.559-1.396-3.023-2.559-2.328-5.118 2.094-9.307 5.35-12.331l.467-2.327c1.394 1.397 1.859 3.025 1.394 5.119z" fill-rule="evenodd" clip-rule="evenodd" fill="#fff"/><path d="M118.248 105.758v.803c-.137 2.748-1.627 5.766-3.49 7.799-3.49 1.162-7.91.232-11.633.697h-9.539c-.465-4.42-4.653-7.678-4.653-12.562.466-3.49 1.164-7.212 3.723-9.539-.465 2.326.232 4.652 2.094 5.816-.931-8.375 8.375-8.608 12.331-13.959 1.629-2.094 2.094-4.653 2.326-7.445 3.955 4.653 5.119 12.098 2.559 17.682-1.861 2.792-5.117 6.048-2.326 9.539 1.396 1.162 3.955 2.094 5.816.93.932-.232 1.629-1.395 2.326-1.859.279.649.427 1.36.466 2.098zm-26.755 9.299H75.44c-2.327-.93-3.723-3.258-4.42-5.117v-3.025c.698.932 1.628 1.396 2.792 1.396 1.628-.232 3.722-.932 4.188-2.793.232-4.188-2.094-8.607.465-12.562 6.049-7.212 17.448-8.841 19.077-19.078l.232-3.722c3.49 4.653 4.188 11.632 2.561 17.681-2.326.698-4.887 2.559-5.817 5.119-.465-1.396.232-3.257.93-4.421-.93-.232-1.861.698-2.559 1.164-4.42 3.49-6.514 9.073-5.816 14.657.465 3.256 2.792 5.816 4.188 8.607.232.697-.001 1.396.232 2.094z" fill-rule="evenodd" clip-rule="evenodd" fill="#cc2229"/><path d="M81.105 90.36a27.468 27.468 0 0 1 14.575-4.151c1.687 0 3.335.153 4.939.441a27.35 27.35 0 0 1-.285 1.187c-2.326.698-4.887 2.559-5.817 5.119-.465-1.396.232-3.257.93-4.421-.93-.232-1.861.698-2.559 1.164-4.42 3.49-6.514 9.073-5.816 14.657.465 3.256 2.792 5.816 4.188 8.607.233.697 0 1.396.233 2.094H75.44c-2.327-.93-3.723-3.258-4.42-5.117v-3.025c.698.932 1.628 1.396 2.792 1.396 1.628-.232 3.722-.932 4.188-2.793.232-4.188-2.094-8.607.465-12.562a20.423 20.423 0 0 1 2.64-2.596zm23.055-2.825a27.358 27.358 0 0 1 8.75 4.712c-.223.97-.535 1.909-.945 2.803-1.861 2.792-5.117 6.048-2.326 9.539 1.396 1.162 3.955 2.094 5.816.93.932-.232 1.629-1.395 2.326-1.859 1.396 3.256-.465 7.908-3.023 10.701-3.49 1.162-7.91.232-11.633.697h-9.539c-.465-4.42-4.653-7.678-4.653-12.562.466-3.49 1.164-7.212 3.723-9.539-.465 2.326.232 4.652 2.094 5.816-.743-6.689 5.037-8.183 9.41-11.238z" fill-rule="evenodd" clip-rule="evenodd" fill="#cd2e29"/><path d="M78.272 93.269c4.663-3.973 10.733-6.363 17.408-6.363 1.63 0 3.226.148 4.781.431-.041.167-.082.333-.127.5-2.326.698-4.887 2.559-5.817 5.119-.465-1.396.232-3.257.93-4.421-.93-.232-1.861.698-2.559 1.164-4.42 3.49-6.514 9.073-5.816 14.657.465 3.256 2.792 5.816 4.188 8.607.233.697 0 1.396.233 2.094H75.44c-2.327-.93-3.723-3.258-4.42-5.117v-3.025c.698.932 1.628 1.396 2.792 1.396 1.628-.232 3.722-.932 4.188-2.793.225-4.077-1.974-8.373.272-12.249zm25.126-5.224a26.773 26.773 0 0 1 9.309 4.988 14.172 14.172 0 0 1-.742 2.016c-1.861 2.792-5.117 6.048-2.326 9.539 1.396 1.162 3.955 2.094 5.816.93.932-.232 1.629-1.395 2.326-1.859 1.396 3.256-.465 7.908-3.023 10.701-3.49 1.162-7.91.232-11.633.697h-9.539c-.465-4.42-4.653-7.678-4.653-12.562.466-3.49 1.164-7.212 3.723-9.539-.465 2.326.232 4.652 2.094 5.816-.701-6.305 4.396-7.994 8.648-10.727z" fill-rule="evenodd" clip-rule="evenodd" fill="#cd3529"/><path d="M77.576 94.899a25.973 25.973 0 0 1 22.371-6.935c-2.217.778-4.551 2.572-5.43 4.991-.465-1.396.232-3.257.93-4.421-.93-.232-1.861.698-2.559 1.164-4.42 3.49-6.514 9.073-5.816 14.657.465 3.256 2.792 5.816 4.188 8.607.233.697 0 1.396.233 2.094H75.44c-2.327-.93-3.723-3.258-4.42-5.117v-3.025c.698.932 1.628 1.396 2.792 1.396 1.628-.232 3.722-.932 4.188-2.793.194-3.513-1.415-7.189-.424-10.618zm25.006-6.346a25.737 25.737 0 0 1 9.861 5.305c-.143.405-.299.802-.479 1.191-1.861 2.792-5.117 6.048-2.326 9.539 1.396 1.162 3.955 2.094 5.816.93.932-.232 1.629-1.395 2.326-1.859 1.396 3.256-.465 7.908-3.023 10.701-3.49 1.162-7.91.232-11.633.697h-9.539c-.465-4.42-4.653-7.678-4.653-12.562.466-3.49 1.164-7.212 3.723-9.539-.465 2.326.232 4.652 2.094 5.816-.655-5.907 3.774-7.761 7.833-10.219z" fill-rule="evenodd" clip-rule="evenodd" fill="#ce3e29"/><path d="M71.02 108.781c.096-.496.204-.99.329-1.477.653.672 1.475 1.006 2.463 1.006 1.628-.232 3.722-.932 4.188-2.793.167-3.02-.998-6.158-.699-9.158 4.573-4.951 11.098-8.057 18.38-8.057 1.035 0 2.052.065 3.052.187-1.805.929-3.497 2.488-4.215 4.466-.465-1.396.232-3.257.93-4.421-.93-.232-1.861.698-2.559 1.164-4.42 3.49-6.514 9.073-5.816 14.657.465 3.256 2.792 5.816 4.188 8.607.233.697 0 1.396.233 2.094H75.44c-2.327-.93-3.723-3.258-4.42-5.117v-1.158zm30.732-19.733a24.927 24.927 0 0 1 10.436 5.487c-.07.173-.145.344-.223.515-1.861 2.792-5.117 6.048-2.326 9.539 1.396 1.162 3.955 2.094 5.816.93.932-.232 1.629-1.395 2.326-1.859 1.396 3.256-.465 7.908-3.023 10.701-3.49 1.162-7.91.232-11.633.697h-9.539c-.465-4.42-4.653-7.678-4.653-12.562.466-3.49 1.164-7.212 3.723-9.539-.465 2.326.232 4.652 2.094 5.816-.612-5.506 3.195-7.49 7.002-9.725z" fill-rule="evenodd" clip-rule="evenodd" fill="#cf432a"/><path d="M71.411 110.869c.119-1.043.301-2.066.548-3.066.533.34 1.151.508 1.853.508 1.628-.232 3.722-.932 4.188-2.793.145-2.598-.698-5.285-.746-7.896a24.377 24.377 0 0 1 16.125-8.278c-.174.13-.336.253-.49.355-4.42 3.49-6.514 9.073-5.816 14.657.465 3.256 2.792 5.816 4.188 8.607.233.697 0 1.396.233 2.094H75.44c-1.951-.78-3.25-2.541-4.029-4.188zm23.656-21.628a24.476 24.476 0 0 1 2.353.055c-1.274.924-2.363 2.173-2.903 3.66-.38-1.14.013-2.588.55-3.715zm5.523.487a24.353 24.353 0 0 1 11.203 5.576c-1.881 2.735-4.861 5.899-2.154 9.284 1.396 1.162 3.955 2.094 5.816.93.932-.232 1.629-1.395 2.326-1.859 1.396 3.256-.465 7.908-3.023 10.701-3.49 1.162-7.91.232-11.633.697h-9.539c-.465-4.42-4.653-7.678-4.653-12.562.466-3.49 1.164-7.212 3.723-9.539-.465 2.326.232 4.652 2.094 5.816-.55-4.943 2.463-7.048 5.84-9.044z" fill-rule="evenodd" clip-rule="evenodd" fill="#d04a2a"/><path d="M72.009 111.971c.091-1.32.29-2.609.585-3.857.372.133.779.197 1.218.197 1.628-.232 3.722-.932 4.188-2.793.126-2.271-.503-4.609-.694-6.906a23.698 23.698 0 0 1 15.018-8.442c-4.033 3.508-5.918 8.847-5.25 14.187.465 3.256 2.792 5.816 4.188 8.607.233.697 0 1.396.233 2.094H75.44c-1.518-.609-2.642-1.808-3.431-3.087zM94.768 89.95a22.129 22.129 0 0 1 1.843.002c-.918.83-1.672 1.844-2.094 3.004-.304-.913-.114-2.021.251-3.006zm4.921.321a23.266 23.266 0 0 1 11.67 5.648c-1.857 2.59-4.227 5.536-1.721 8.668 1.396 1.162 3.955 2.094 5.816.93.691-.172 1.252-.857 1.781-1.389.383.893.713 1.814.986 2.762-.232 2.658-1.676 5.518-3.465 7.469-3.49 1.162-7.91.232-11.633.697h-9.539c-.465-4.42-4.653-7.678-4.653-12.562.466-3.49 1.164-7.212 3.723-9.539-.465 2.326.232 4.652 2.094 5.816-.498-4.497 1.952-6.645 4.941-8.5z" fill-rule="evenodd" clip-rule="evenodd" fill="#d14f2a"/><path d="M72.661 112.9c.051-1.588.258-3.135.611-4.623.173.023.354.033.54.033 1.628-.232 3.722-.932 4.188-2.793.108-1.953-.343-3.953-.592-5.938a22.905 22.905 0 0 1 14.015-8.562c-3.41 3.488-4.965 8.412-4.35 13.337.465 3.256 2.792 5.816 4.188 8.607.233.697 0 1.396.233 2.094H75.44c-1.141-.453-2.058-1.246-2.779-2.155zm21.884-22.243c.375-.018.755-.028 1.135-.028l.253.003a7.205 7.205 0 0 0-1.416 2.323c-.232-.698-.175-1.512.028-2.298zm4.258.189a22.618 22.618 0 0 1 12.121 5.678c-1.758 2.439-3.6 5.172-1.285 8.064 1.396 1.162 3.955 2.094 5.816.93.461-.115.863-.457 1.238-.83.52 1.244.932 2.549 1.23 3.896-.557 2.127-1.754 4.234-3.166 5.775-3.49 1.162-7.91.232-11.633.697h-9.539c-.465-4.42-4.653-7.678-4.653-12.562.466-3.49 1.164-7.212 3.723-9.539-.465 2.326.232 4.652 2.094 5.816-.448-4.042 1.486-6.186 4.054-7.925z" fill-rule="evenodd" clip-rule="evenodd" fill="#d2562b"/><path d="M73.579 113.66c0-1.869.225-3.682.648-5.418 1.55-.287 3.346-1.018 3.772-2.725.086-1.555-.181-3.139-.419-4.723 3.056-4.399 7.651-7.627 13.037-8.886-2.847 3.41-4.109 7.927-3.544 12.446.465 3.256 2.792 5.816 4.188 8.607.233.697 0 1.396.233 2.094H75.44a6.243 6.243 0 0 1-1.858-1.168c-.001-.075-.003-.151-.003-.227zm20.825-22.295c.323-.018.646-.029.973-.034a6.868 6.868 0 0 0-.86 1.624c-.163-.49-.186-1.036-.113-1.59zm3.561.084c4.777.504 9.127 2.567 12.527 5.68-1.602 2.283-2.977 4.803-.854 7.459 1.396 1.162 3.955 2.094 5.816.93.234-.059.455-.176.664-.326a22.305 22.305 0 0 1 1.354 4.775c-.639 1.637-1.611 3.188-2.715 4.393-3.49 1.162-7.91.232-11.633.697h-9.539c-.465-4.42-4.653-7.678-4.653-12.562.466-3.49 1.164-7.212 3.723-9.539-.465 2.326.232 4.652 2.094 5.816-.398-3.59 1.082-5.681 3.216-7.323z" fill-rule="evenodd" clip-rule="evenodd" fill="#d35b2b"/><path d="M74.277 113.66c0-1.939.253-3.814.732-5.6 1.324-.375 2.634-1.119 2.99-2.543.066-1.182-.074-2.381-.249-3.586a21.336 21.336 0 0 1 11.971-8.839c-2.211 3.237-3.151 7.247-2.649 11.263.465 3.256 2.792 5.816 4.188 8.607.233.697 0 1.396.233 2.094H75.44a5.875 5.875 0 0 1-1.147-.611 18.515 18.515 0 0 1-.016-.785zm20.102-21.363c.142-.008.286-.015.429-.02-.11.221-.207.445-.291.678a2.97 2.97 0 0 1-.138-.658zm2.593.002c4.965.303 9.528 2.34 13.047 5.527-1.369 2.096-2.291 4.373-.381 6.762 1.396 1.162 3.955 2.094 5.816.93h.004a21.163 21.163 0 0 1 1.477 5.654 14.254 14.254 0 0 1-2.178 3.188c-3.49 1.162-7.91.232-11.633.697h-9.539c-.465-4.42-4.653-7.678-4.653-12.562.466-3.49 1.164-7.212 3.723-9.539-.465 2.326.232 4.652 2.094 5.816-.333-3.001.645-4.953 2.223-6.473z" fill-rule="evenodd" clip-rule="evenodd" fill="#d4612b"/><path d="M74.975 113.66c0-2.043.299-4.02.856-5.887 1.009-.43 1.887-1.131 2.168-2.256.045-.807-.007-1.623-.1-2.443a20.858 20.858 0 0 1 11.233-9.052c-1.787 3.06-2.516 6.695-2.061 10.333.465 3.256 2.792 5.816 4.188 8.607.233.697 0 1.396.233 2.094H75.44a5.725 5.725 0 0 1-.43-.191 20.051 20.051 0 0 1-.035-1.205zm17.4-20.436l.237-.038c-.376 2.249.337 4.46 2.137 5.585-.287-2.578.396-4.382 1.596-5.803a20.251 20.251 0 0 1 13.27 5.506c-1.125 1.914-1.691 3.969.023 6.113 1.207 1.006 3.281 1.84 5.023 1.295a20.83 20.83 0 0 1 1.463 6.701c-.42.645-.881 1.242-1.367 1.775-3.49 1.162-7.91.232-11.633.697h-9.539c-.465-4.42-4.653-7.678-4.653-12.562.449-3.358 1.111-6.932 3.443-9.269z" fill-rule="evenodd" clip-rule="evenodd" fill="#d5652c"/><path d="M75.905 113.66c0-2.307.377-4.516 1.073-6.566.482-.398.856-.914 1.021-1.576.016-.301.018-.602.011-.906a19.758 19.758 0 0 1 10.624-9.664c-1.42 2.853-1.971 6.128-1.562 9.408.465 3.256 2.792 5.816 4.188 8.607.233.697 0 1.396.233 2.094h-15.54a19.591 19.591 0 0 1-.048-1.397zm15.739-19.595c.293-.061.588-.114.886-.161-.128 1.991.613 3.863 2.22 4.867-.242-2.18.209-3.806 1.079-5.116a19.6 19.6 0 0 1 13.449 5.435c-.883 1.738-1.172 3.582.361 5.498 1.053.877 2.766 1.623 4.344 1.438a20.33 20.33 0 0 1 1.471 7.506c-.225.291-.457.566-.695.828-3.49 1.162-7.91.232-11.633.697h-9.539c-.465-4.42-4.653-7.678-4.653-12.562.397-2.979.961-6.126 2.71-8.43z" fill-rule="evenodd" clip-rule="evenodd" fill="#d66b2c"/><path d="M76.603 113.66c0-8.002 4.682-14.701 11.519-17.574a16.613 16.613 0 0 0-1.049 8.27c.465 3.256 2.792 5.816 4.188 8.607.233.697 0 1.396.233 2.094h-14.84a19.015 19.015 0 0 1-.051-1.397zm14.331-18.503c.523-.13 1.058-.237 1.599-.324.123 1.631.862 3.092 2.216 3.938-.188-1.691.04-3.046.559-4.182a19.066 19.066 0 0 1 13.612 5.303c-.572 1.502-.58 3.07.719 4.695.879.732 2.219 1.373 3.557 1.457a19.126 19.126 0 0 1 1.546 8.318c-3.488 1.156-7.9.229-11.617.693h-9.539c-.465-4.42-4.653-7.678-4.653-12.562.338-2.53.797-5.181 2.001-7.336z" fill-rule="evenodd" clip-rule="evenodd" fill="#d7712c"/><path d="M77.301 113.66c0-7.396 4.25-13.697 10.472-16.625a16.662 16.662 0 0 0-.701 7.32c.465 3.256 2.792 5.816 4.188 8.607.233.697 0 1.396.233 2.094H77.352c-.034-.46-.051-.927-.051-1.396zm13.205-17.652a18.225 18.225 0 0 1 2.118-.476c.258 1.343.967 2.517 2.125 3.24-.15-1.354-.034-2.492.285-3.476a17.987 17.987 0 0 1 13.62 5.493c-.258 1.225-.057 2.496.984 3.799a6.72 6.72 0 0 0 2.49 1.281 18.546 18.546 0 0 1 1.672 8.756c-3.318.744-7.285.008-10.676.432h-9.539c-.465-4.42-4.653-7.678-4.653-12.562.295-2.208.681-4.507 1.574-6.487z" fill-rule="evenodd" clip-rule="evenodd" fill="#d8752d"/><path d="M77.999 113.66c0-6.814 3.847-12.721 9.491-15.674a16.75 16.75 0 0 0-.417 6.369c.465 3.256 2.792 5.816 4.188 8.607.233.697 0 1.396.233 2.094h-13.44a16.948 16.948 0 0 1-.055-1.396zm12.16-16.799a17.447 17.447 0 0 1 2.642-.646c.343 1.055.993 1.959 1.949 2.557-.115-1.041-.074-1.955.097-2.771.276-.012.554-.021.833-.021 5.064 0 9.666 2.229 12.873 5.784.006.92.316 1.863 1.086 2.824.418.348.938.678 1.514.934a17.691 17.691 0 0 1 1.94 9.241c-3.164.51-6.814-.1-9.967.295h-9.539c-.465-4.42-4.653-7.678-4.653-12.562.252-1.898.573-3.861 1.225-5.635z" fill-rule="evenodd" clip-rule="evenodd" fill="#d97a2d"/><path d="M78.93 113.66a17.047 17.047 0 0 1 8.33-14.68 16.842 16.842 0 0 0-.187 5.375c.465 3.256 2.792 5.816 4.188 8.607.233.697 0 1.396.233 2.094H78.988a16.98 16.98 0 0 1-.058-1.396zm10.939-15.931a16.633 16.633 0 0 1 3.199-.844c.373.768.935 1.42 1.682 1.887a9.426 9.426 0 0 1-.015-2.066c.312-.018.628-.027.945-.027 5.33 0 10.048 2.521 13.107 6.422.174.492.449.986.852 1.488.115.096.238.191.367.285a17.073 17.073 0 0 1 2.381 9.982c-2.994.332-6.342-.164-9.262.201h-9.539c-.465-4.42-4.653-7.678-4.653-12.562.213-1.593.471-3.231.936-4.766z" fill-rule="evenodd" clip-rule="evenodd" fill="#da7d2d"/><path d="M79.627 113.66c0-5.68 2.973-10.684 7.445-13.537a16.93 16.93 0 0 0 0 4.232c.465 3.256 2.792 5.816 4.188 8.607.233.697 0 1.396.233 2.094H79.688c-.04-.458-.061-.925-.061-1.396zm9.947-14.84a15.837 15.837 0 0 1 4.031-1.076c.314.398.696.746 1.145 1.027a10.21 10.21 0 0 1-.067-1.131c.33-.02.664-.033.998-.033 8.841 0 16.052 7.213 16.052 16.053 0 .424-.018.846-.051 1.258-2.807.197-5.863-.197-8.557.139h-9.539c-.465-4.42-4.653-7.678-4.653-12.562.163-1.222.351-2.468.641-3.675z" fill-rule="evenodd" clip-rule="evenodd" fill="#dc832e"/><path d="M80.326 113.66c0-5.311 2.656-9.91 6.659-12.656a16.97 16.97 0 0 0 .088 3.352c.465 3.256 2.792 5.816 4.188 8.607.233.697 0 1.396.233 2.094H80.39a15.345 15.345 0 0 1-.064-1.397zm9.064-14.008a15.356 15.356 0 0 1 4.82-1.275c.167.145.348.275.54.395a9.374 9.374 0 0 1-.04-.432 14.9 14.9 0 0 1 .971-.033c8.376 0 15.123 6.746 15.123 15.354 0 .439-.021.875-.059 1.305-2.539.074-5.223-.207-7.619.092h-9.539c-.465-4.42-4.653-7.678-4.653-12.562.125-.945.265-1.9.456-2.844z" fill-rule="evenodd" clip-rule="evenodd" fill="#dd882e"/><path d="M81.023 113.66c0-4.857 2.318-9.135 5.918-11.795-.019.826.026 1.656.13 2.49.465 3.256 2.792 5.816 4.188 8.607.233.697 0 1.396.233 2.094H81.091a14.294 14.294 0 0 1-.068-1.396zm8.213-13.183a14.71 14.71 0 0 1 6.444-1.473c7.91 0 14.423 6.514 14.423 14.656 0 .443-.021.885-.061 1.316-2.33.016-4.742-.191-6.918.08h-9.539c-.465-4.42-4.653-7.678-4.653-12.562.09-.668.187-1.344.304-2.017z" fill-rule="evenodd" clip-rule="evenodd" fill="#de8b2e"/><path d="M81.954 113.66c0-4.34 1.932-8.158 5.001-10.658.02.449.06.9.117 1.354.465 3.256 2.792 5.816 4.188 8.607.233.697 0 1.396.233 2.094h-9.468a13.443 13.443 0 0 1-.071-1.397zm7.103-12.066a13.852 13.852 0 0 1 6.623-1.658c7.445 0 13.726 6.049 13.726 13.725 0 .441-.023.881-.066 1.314-2.107-.02-4.256-.162-6.215.082h-9.539c-.465-4.42-4.653-7.678-4.653-12.562.04-.3.08-.599.124-.901z" fill-rule="evenodd" clip-rule="evenodd" fill="#e0912f"/><path d="M82.652 113.66c0-3.883 1.687-7.359 4.37-9.744.015.146.032.293.05.439.465 3.256 2.792 5.816 4.188 8.607.233.697 0 1.396.233 2.094H82.73a12.361 12.361 0 0 1-.078-1.396zm6.281-11.154a13 13 0 0 1 6.747-1.873 13.007 13.007 0 0 1 12.961 14.332c-1.881-.037-3.773-.127-5.516.092h-9.539c-.465-4.416-4.646-7.672-4.653-12.551z" fill-rule="evenodd" clip-rule="evenodd" fill="#e0942f"/><path d="M83.35 113.66c0-3.453 1.463-6.602 3.796-8.854.603 3.047 2.783 5.494 4.113 8.156.233.697 0 1.396.233 2.094H83.43c-.054-.456-.08-.923-.08-1.396zm5.625-10.312a12.212 12.212 0 0 1 6.706-2.018c6.748 0 12.097 5.584 12.097 12.33 0 .434-.021.865-.064 1.285-1.572-.035-3.133-.07-4.588.111h-9.539c-.439-4.158-4.171-7.285-4.612-11.708z" fill-rule="evenodd" clip-rule="evenodd" fill="#e2992f"/><path d="M84.28 113.66c0-3.117 1.171-5.914 3.084-7.984.8 2.654 2.694 4.883 3.896 7.287.233.697 0 1.396.233 2.094h-7.129a11.493 11.493 0 0 1-.084-1.397zm4.811-9.514a11.264 11.264 0 0 1 6.589-2.117c6.281 0 11.4 5.117 11.4 11.631 0 .43-.025.854-.072 1.27-1.332-.025-2.645-.027-3.883.127h-9.539c-.411-3.905-3.726-6.899-4.495-10.911z" fill-rule="evenodd" clip-rule="evenodd" fill="#e39d30"/><path d="M84.979 113.66c0-2.799.995-5.299 2.667-7.176.902 2.307 2.537 4.322 3.615 6.479.233.697 0 1.396.233 2.094h-6.426c-.06-.455-.089-.922-.089-1.397zm4.313-8.668c1.765-1.285 3.966-2.033 6.389-2.033 5.816 0 10.703 4.652 10.703 10.701 0 .426-.029.848-.08 1.26-1.09-.01-2.158.01-3.178.137h-9.539c-.382-3.625-3.271-6.465-4.295-10.065z" fill-rule="evenodd" clip-rule="evenodd" fill="#e5a330"/><path d="M85.676 113.66c0-2.459.855-4.691 2.293-6.42.932 1.998 2.332 3.805 3.291 5.723.233.697 0 1.396.233 2.094h-5.717a9.754 9.754 0 0 1-.1-1.397zm3.856-7.928a10.014 10.014 0 0 1 6.148-2.074c5.351 0 9.771 4.42 9.771 10.002 0 .426-.029.848-.084 1.26-.766.012-1.518.047-2.242.137h-9.539c-.355-3.373-2.878-6.065-4.054-9.325z" fill-rule="evenodd" clip-rule="evenodd" fill="#e6a630"/><path d="M86.375 113.66c0-2.141.729-4.115 1.956-5.693.906 1.719 2.088 3.314 2.929 4.996.233.697 0 1.396.233 2.094h-5.005a8.606 8.606 0 0 1-.113-1.397zm3.439-7.209a9.256 9.256 0 0 1 5.866-2.096c5.119 0 9.074 4.188 9.074 9.305 0 .432-.035.859-.094 1.279-.521.02-1.033.055-1.535.117h-9.539c-.328-3.12-2.517-5.661-3.772-8.605z" fill-rule="evenodd" clip-rule="evenodd" fill="#e8ac30"/><path d="M87.305 113.66c0-1.803.557-3.465 1.513-4.824.814 1.395 1.744 2.73 2.442 4.127.233.697 0 1.396.233 2.094h-4.066a7.889 7.889 0 0 1-.122-1.397zm2.902-6.357a8.365 8.365 0 0 1 5.474-2.018 8.34 8.34 0 0 1 8.263 9.695c-.275.02-.549.043-.818.076h-9.539c-.297-2.816-2.107-5.158-3.38-7.753z" fill-rule="evenodd" clip-rule="evenodd" fill="#e9b031"/><path d="M88.002 113.66c0-1.572.44-2.998 1.198-4.18.712 1.166 1.469 2.303 2.059 3.482.233.697 0 1.396.233 2.094h-3.359a7.442 7.442 0 0 1-.131-1.396zm2.522-5.732a7.719 7.719 0 0 1 5.156-1.943c4.187 0 7.677 3.256 7.677 7.676 0 .475-.047.939-.133 1.387-.033.002-.066.006-.1.01h-9.539c-.272-2.591-1.824-4.779-3.061-7.13z" fill-rule="evenodd" clip-rule="evenodd" fill="#ebb531"/><path d="M88.701 113.66c0-1.301.324-2.5.905-3.525.585.941 1.175 1.871 1.654 2.828.233.697 0 1.396.233 2.094h-2.648a6.763 6.763 0 0 1-.144-1.397zm2.157-5.117c1.239-1.164 2.924-1.861 4.822-1.861 3.722 0 6.748 3.025 6.748 6.979 0 .479-.053.947-.146 1.396h-8.695c-.249-2.362-1.561-4.391-2.729-6.514z" fill-rule="evenodd" clip-rule="evenodd" fill="#edbb31"/><path d="M89.631 113.66c0-.943.185-1.832.526-2.631.393.641.775 1.279 1.102 1.934.233.697 0 1.396.233 2.094h-1.704a6.258 6.258 0 0 1-.157-1.397zm1.643-4.369c1.081-1.18 2.622-1.912 4.406-1.912 3.257 0 6.048 2.793 6.048 6.281 0 .479-.062.947-.174 1.396h-7.968c-.219-2.083-1.268-3.906-2.312-5.765z" fill-rule="evenodd" clip-rule="evenodd" fill="#eebf31"/><path d="M90.329 113.66c0-.65.106-1.268.306-1.838.22.379.433.756.625 1.141.233.697 0 1.396.233 2.094h-.972a5.182 5.182 0 0 1-.192-1.397zm1.362-3.621c.97-1.07 2.382-1.729 3.989-1.729 2.792 0 5.351 2.326 5.351 5.35 0 .477-.076.947-.213 1.396h-7.232c-.189-1.804-1.003-3.411-1.895-5.017z" fill-rule="evenodd" clip-rule="evenodd" fill="#f0c431"/><path d="M91.027 113.66c0-.326.033-.645.099-.955.044.086.09.172.133.258.233.697 0 1.396.233 2.094h-.214a4.03 4.03 0 0 1-.251-1.397zm1.043-2.928a4.654 4.654 0 0 1 3.61-1.725c2.56 0 4.419 2.094 4.419 4.652 0 .48-.08.953-.229 1.396h-6.285c-.161-1.543-.78-2.944-1.515-4.323z" fill-rule="evenodd" clip-rule="evenodd" fill="#f2c831"/><path d="M92.444 111.461c.731-1.039 1.94-1.754 3.236-1.754 2.093 0 3.722 1.859 3.722 3.953 0 .498-.094.969-.262 1.396h-5.554c-.133-1.273-.579-2.447-1.142-3.595z" fill-rule="evenodd" clip-rule="evenodd" fill="#f4ce30"/><path d="M92.878 112.42c.458-1.207 1.562-2.016 2.802-2.016 1.628 0 3.025 1.395 3.025 3.256 0 .498-.133.975-.359 1.396h-4.759c-.098-.921-.36-1.79-.709-2.636z" fill-rule="evenodd" clip-rule="evenodd" fill="#f5d130"/><path d="M93.354 113.66c0-1.395.931-2.326 2.326-2.326 1.163 0 2.328.932 2.328 2.326 0 .539-.252 1.027-.633 1.396h-3.474a1.961 1.961 0 0 1-.414-.652 10.012 10.012 0 0 0-.13-.576c-.004-.055-.003-.111-.003-.168z" fill-rule="evenodd" clip-rule="evenodd" fill="#f7d730"/><path d="M94.052 113.66c0-.93.698-1.627 1.628-1.627.698 0 1.396.697 1.396 1.627 0 .688-.679 1.375-1.366 1.396-.011.002-.02 0-.03 0-.015 0-.03.002-.044 0-.909-.021-1.584-.708-1.584-1.396z" fill-rule="evenodd" clip-rule="evenodd" fill="#f9da30"/><path d="M94.75 113.66c0-.465.465-.93.931-.93s.698.465.698.93c0 .234-.232.699-.698.699s-.931-.464-.931-.699z" fill-rule="evenodd" clip-rule="evenodd" fill="#fbe02f"/><path d="M100.334 87.837c-2.326.698-4.887 2.559-5.817 5.119-.465-1.396.232-3.257.93-4.421-.93-.232-1.861.698-2.559 1.164-4.42 3.49-6.514 9.073-5.816 14.657.465 3.256 2.792 5.816 4.188 8.607.233.697 0 1.396.233 2.094H75.44c-2.327-.93-3.723-3.258-4.42-5.117v-3.025c.698.932 1.628 1.396 2.792 1.396 1.628-.232 3.722-.932 4.188-2.793.232-4.188-2.094-8.607.465-12.562 6.049-7.212 17.448-8.841 19.077-19.078l.232-3.722c3.49 4.653 4.187 11.632 2.56 17.681zm9.072-10.469c-.232 2.792-.697 5.351-2.326 7.445-3.955 5.351-13.261 5.583-12.331 13.959-1.861-1.164-2.559-3.49-2.094-5.816-2.559 2.326-3.257 6.048-3.723 9.539 0 4.885 4.188 8.143 4.653 12.562h9.539c3.723-.465 8.143.465 11.633-.697 2.559-2.793 4.42-7.445 3.023-10.701-.697.465-1.395 1.627-2.326 1.859-1.861 1.164-4.42.232-5.816-.93-2.791-3.49.465-6.746 2.326-9.539 2.561-5.584 1.397-13.028-2.558-17.681z" fill="none" stroke="#000" stroke-width=".662" stroke-miterlimit="2.613"/><path d="M139.65 114.824l.232 3.49c-8.375.465-17.682-.232-23.264 6.746-.467 1.164-.932 2.094-1.164 3.49h-37.92c-.232-3.025-2.559-5.584-5.118-6.98-5.583-2.791-12.33-3.023-19.077-3.023-.465-.932-.465-2.559 0-3.49l81.66-.465c1.628.232 3.022.232 4.651.232z" fill-rule="evenodd" clip-rule="evenodd" fill="#cc2229"/><path d="M111.965 141.346c2.793 4.188 3.258 11.168 1.164 16.053-1.861 3.955-5.816 8.143-10.236 9.539-.232-1.164 0-2.793.465-3.955 4.42-2.326 7.213-6.746 7.445-11.4.697-5.584-2.094-9.771-6.049-13.027-3.955-2.559-10.004-3.49-14.192-1.164-3.955 2.094-7.445 6.281-7.91 10.703-1.163 0-2.326-.699-3.49-.699.931-6.514 6.979-12.795 13.494-14.424 7.678-1.63 15.121 1.628 19.309 8.374z" fill-rule="evenodd" clip-rule="evenodd"/><path d="M151.051 141.113c2.791 5.119 3.49 13.029 0 18.146-3.723 6.514-11.168 9.539-18.846 8.607-6.514-1.162-12.795-7.443-13.957-14.191 1.627.232 3.023.699 4.188 1.861 1.861 4.887 6.979 9.074 12.33 8.842 4.885.465 9.072-1.629 12.33-5.352 3.258-3.955 3.723-10.701 1.396-15.355-2.096-3.723-6.049-6.514-10.004-7.443-5.119-.699-10.004.93-13.494 4.652-1.861 2.094-2.793 4.652-3.49 7.213-1.162-.699-3.955.232-3.256-1.861 1.395-6.283 6.979-11.633 13.027-13.262 7.911-1.861 15.588 1.63 19.776 8.143z" fill-rule="evenodd" clip-rule="evenodd" fill="#cc2229"/><path d="M72.416 140.648c3.024 4.42 3.955 11.398 1.396 16.518-1.629 4.42-5.119 7.678-9.306 9.539 0-1.396 0-2.793.465-3.955 4.653-3.025 6.979-8.143 6.747-13.727-.698-5.117-3.955-9.771-8.841-11.865-4.885-2.094-10.701-.697-14.424 2.326-4.188 3.723-6.049 8.609-4.886 13.959 1.163 5.119 5.119 9.074 10.004 10.701 1.396.467 3.49.467 4.886.699v3.258c-6.747.465-12.563-3.025-16.285-8.377-3.257-5.117-3.257-13.26 0-18.379 3.955-6.514 10.935-9.539 18.612-8.375 4.42.698 8.84 3.491 11.632 7.678z" fill-rule="evenodd" clip-rule="evenodd" fill="#008ed1"/><path d="M132.205 159.26l.932 3.723c-1.396-.232-2.791-.697-3.955-1.629-1.396-3.955-5.119-7.445-9.307-8.607l-4.188-.699v-3.488c6.981-.001 13.959 4.419 16.518 10.7z" fill-rule="evenodd" clip-rule="evenodd" fill="#33a457"/><path d="M92.656 157.166c.931 1.629 1.629 3.723 2.094 5.816-.931.232-2.326-.232-3.49-.697-1.628-3.723-4.188-6.98-7.91-8.842-2.094-.93-4.42-1.396-6.979-1.396v-3.256c6.746-.465 12.795 2.791 16.285 8.375z" fill-rule="evenodd" clip-rule="evenodd" fill="#f2ca30"/><path d="M109.174 153.443c-4.42 2.561-7.678 7.678-7.678 12.797 0 5.35 2.793 10.236 7.445 12.795 3.955 2.094 10.004 2.326 13.727-.232 3.723-2.094 6.514-6.049 7.211-10.236.932.465 2.094.465 3.258.697-.465 5.816-5.119 10.936-10.469 13.494-4.654 1.861-11.168 1.861-15.588-.932-5.816-3.256-9.072-9.072-9.072-15.82 0-7.443 4.885-13.725 11.631-16.285l-.465 3.722z" fill-rule="evenodd" clip-rule="evenodd" fill="#33a457"/><path d="M69.856 154.375c-4.42 2.791-6.979 7.443-6.747 12.795.465 5.119 3.49 10.004 8.143 12.098 4.652 2.094 10.236 1.629 14.191-1.164 3.257-2.326 5.583-5.582 6.049-9.072l3.257.232c-.698 6.746-6.514 12.795-13.028 14.424-6.747 1.396-13.493-.465-17.914-5.816-3.489-4.42-4.885-10.236-3.489-16.053 1.163-5.117 4.886-9.305 10.004-11.631 0 1.162-.233 2.791-.466 4.187z" fill-rule="evenodd" clip-rule="evenodd" fill="#f2ca30"/><path d="M83.35 155.537c2.094 5.584 7.677 9.307 13.261 9.307v3.258c-5.816-.234-10.935-2.328-14.657-7.445-1.164-2.326-2.327-4.42-2.559-7.213 1.396.464 3.257.699 3.955 2.093z" fill-rule="evenodd" clip-rule="evenodd"/><path d="M142.344 178.568c0-1.572.654-2.971 1.668-3.984 1.055-1.053 2.504-1.695 4.016-1.695 1.604 0 3.023.619 4.043 1.637 1.02 1.02 1.639 2.441 1.639 4.043 0 1.605-.619 3.027-1.639 4.045-1.02 1.02-2.439 1.639-4.043 1.639-1.514 0-2.963-.643-4.018-1.695a5.626 5.626 0 0 1-1.666-3.99zm2.135-3.515a4.954 4.954 0 0 0-1.473 3.516c0 1.391.578 2.623 1.473 3.518.934.934 2.215 1.504 3.549 1.504 1.42 0 2.676-.547 3.574-1.445s1.443-2.154 1.443-3.576c0-1.42-.545-2.676-1.443-3.574-.898-.896-2.154-1.443-3.574-1.443-1.335-.002-2.618.568-3.549 1.5z"/><path fill-rule="evenodd" clip-rule="evenodd" d="M149.887 181.826v-4.42l-1.395 4.42h-.931l-1.397-4.42v4.42h-.93v-6.049h1.397l1.394 4.188 1.397-4.188h1.396v6.049h-.931z"/></svg>