<svg width="24" height="24" viewBox="0 0 24 24" fill="none" xmlns="http://www.w3.org/2000/svg">
<path d="M3.74515 12.4709H4.32687V14.2161C4.32687 14.4307 4.44503 14.628 4.63424 14.729C4.82072 14.8291 5.05099 14.8204 5.23126 14.7001L8.6137 12.4709H14.2548C15.2186 12.4709 16 11.6895 16 10.7258V3.74515C16 2.78138 15.2186 2 14.2548 2H3.74515C2.78138 2 2 2.78138 2 3.74515V10.7258C2 11.6895 2.78138 12.4709 3.74515 12.4709ZM12.5097 4.32687C12.831 4.32687 13.0914 4.58728 13.0914 4.90859C13.0914 5.2299 12.831 5.4903 12.5097 5.4903C12.1884 5.4903 11.928 5.2299 11.928 4.90859C11.928 4.58728 12.1884 4.32687 12.5097 4.32687ZM12.5097 6.65374C12.831 6.65374 13.0914 6.91415 13.0914 7.23546C13.0914 7.55676 12.831 7.81717 12.5097 7.81717C12.1884 7.81717 11.928 7.55676 11.928 7.23546C11.928 6.91415 12.1884 6.65374 12.5097 6.65374ZM5.4903 4.32687H10.1828C10.5043 4.32687 10.7645 4.58713 10.7645 4.90859C10.7645 5.23005 10.5043 5.4903 10.1828 5.4903H5.4903C5.16885 5.4903 4.90859 5.23005 4.90859 4.90859C4.90859 4.58713 5.16885 4.32687 5.4903 4.32687ZM5.4903 6.65374H10.1828C10.5043 6.65374 10.7645 6.914 10.7645 7.23546C10.7645 7.55692 10.5043 7.81717 10.1828 7.81717H5.4903C5.16885 7.81717 4.90859 7.55692 4.90859 7.23546C4.90859 6.914 5.16885 6.65374 5.4903 6.65374ZM5.4903 8.98061H12.5097C12.8312 8.98061 13.0914 9.24087 13.0914 9.56233C13.0914 9.88379 12.8312 10.144 12.5097 10.144H5.4903C5.16885 10.144 4.90859 9.88379 4.90859 9.56233C4.90859 9.24087 5.16885 8.98061 5.4903 8.98061Z" fill="#E4E6EF"/>
<path d="M20.2961 9.44H17.3875V11.1852C17.3875 12.7888 16.0826 14.0937 14.4789 14.0937H9.18996L8.08 14.8338V18.1658C8.08 19.1295 8.86138 19.9109 9.82515 19.9109H15.4663L18.81 22.2176C18.9904 22.3378 19.2205 22.3467 19.407 22.2466C19.5962 22.1455 19.7144 21.9483 19.7144 21.7336V19.9109H20.2961C21.2598 19.9109 22.08 19.1295 22.08 18.1658V11.1852C22.08 10.2214 21.2598 9.44 20.2961 9.44V9.44ZM18.5509 17.584H11.5703C11.2488 17.584 10.9886 17.3238 10.9886 17.0023C10.9886 16.6809 11.2488 16.4206 11.5703 16.4206H18.5509C18.8724 16.4206 19.1326 16.6809 19.1326 17.0023C19.1326 17.3238 18.8724 17.584 18.5509 17.584Z" fill="#E4E6EF"/>
</svg>
