<?xml version="1.0" encoding="UTF-8"?>
<svg width="24px" height="24px" viewBox="0 0 24 24" version="1.1" xmlns="http://www.w3.org/2000/svg">
        <path d="M12.9835977,18 C12.7263047,14.0909841 9.47412135,11 5.5,11 C4.98630124,11 4.48466491,11.0516454 4,11.1500272 L4,7 C4,5.8954305 4.8954305,5 6,5 L20,5 C21.1045695,5 22,5.8954305 22,7 L22,16 C22,17.1045695 21.1045695,18 20,18 L12.9835977,18 Z M19.1444251,6.83964668 L13,10.1481833 L6.85557487,6.83964668 C6.4908718,6.6432681 6.03602525,6.77972206 5.83964668,7.14442513 C5.6432681,7.5091282 5.77972206,7.96397475 6.14442513,8.16035332 L12.6444251,11.6603533 C12.8664074,11.7798822 13.1335926,11.7798822 13.3555749,11.6603533 L19.8555749,8.16035332 C20.2202779,7.96397475 20.3567319,7.5091282 20.1603533,7.14442513 C19.9639747,6.77972206 19.5091282,6.6432681 19.1444251,6.83964668 Z" id="Combined-Shape" fill="#000000"></path>
        <path d="M8.4472136,18.1055728 C8.94119209,18.3525621 9.14141644,18.9532351 8.89442719,19.4472136 C8.64743794,19.9411921 8.0467649,20.1414164 7.5527864,19.8944272 L5,18.618034 L5,14.5 C5,13.9477153 5.44771525,13.5 6,13.5 C6.55228475,13.5 7,13.9477153 7,14.5 L7,17.381966 L8.4472136,18.1055728 Z" id="Path-85" fill="#000000" fill-rule="nonzero" opacity="0.3"></path>
</svg>
