<?xml version="1.0" encoding="UTF-8"?>
<svg width="352px" height="92px" viewBox="0 0 352 92" version="1.1" xmlns="http://www.w3.org/2000/svg" xmlns:xlink="http://www.w3.org/1999/xlink">
    <title>Logos</title>
    <g id="Logos" stroke="none" stroke-width="1" fill="none" fill-rule="evenodd">
        <g id="logo-vodafone" transform="translate(51.000000, 23.000000)" fill="#707780" fill-rule="nonzero">
            <path d="M14.041801,44.8823529 L0.885374698,13.4195205 L9.49647462,13.4195205 L17.7322724,34.3113417 L25.6970185,13.4195205 L33.9119662,13.4195205 L21.1099919,44.8823529 L14.041801,44.8823529 Z M56.826249,28.9945608 C56.8357812,27.72901 56.6816016,26.4675403 56.3675463,25.2415391 C56.1020973,24.1565409 55.6353096,23.1310224 54.9914384,22.2182716 C54.411196,21.3908724 53.6568275,20.7005541 52.7813255,20.1958098 C51.8472692,19.6686254 50.7886884,19.4021799 49.7163578,19.4243554 C48.6439106,19.4011501 47.5850615,19.6676632 46.65139,20.1958098 C45.7667089,20.6958365 45.004582,21.3867366 44.4204271,22.2182716 C43.781555,23.138887 43.3217887,24.1715928 43.0651692,25.2623892 C42.7528938,26.4816359 42.5987282,27.7359829 42.6064666,28.9945608 C42.5959946,30.2601651 42.750189,31.5217558 43.0651692,32.7475826 C43.3277184,33.8292718 43.7718724,34.8585811 44.3787268,35.7917002 C45.5510932,37.5795578 47.5578412,38.6419537 49.6955077,38.6064666 C51.8345419,38.6715035 53.8486216,37.601028 54.9914384,35.7917002 C55.6262987,34.8738088 56.0923028,33.8500118 56.3675463,32.7684327 C56.6843268,31.535854 56.8385356,30.2671367 56.826249,28.9945608 M64.7701453,29.015411 C64.7704596,31.0672 64.4539797,33.106737 63.8318896,35.061946 C63.2253507,36.9908761 62.2714274,38.7927313 61.0171233,40.3787268 C58.2895446,43.8094904 54.0966142,45.7434988 49.7163578,45.5912571 C45.3322242,45.7334995 41.1372438,43.8021089 38.3947421,40.3787268 C37.1431701,38.7909506 36.1895232,36.9896176 35.5799758,35.061946 C34.340909,31.1474848 34.340909,26.9458875 35.5799758,23.0314263 C36.190024,21.1230447 37.1439755,19.3423353 38.3947421,17.7771958 C39.6674524,16.2110673 41.2690456,14.9440292 43.0860193,14.0658743 C45.1559448,13.0845092 47.4261027,12.5990666 49.7163578,12.6480661 C54.0659034,12.5278374 58.227816,14.4203152 60.9962732,17.7771958 C62.2472804,19.3201048 63.206386,21.0715149 63.8318896,23.0314263 C64.4573932,24.9913376 64.7701453,26.9929492 64.7701453,29.015411 M89.081386,20.3626108 C87.7001038,19.7806697 86.2220918,19.4624375 84.7237107,19.4243554 C82.343627,19.3091452 80.0673428,20.408041 78.6771757,22.3433723 C78.0185724,23.2585912 77.5246668,24.2816812 77.2176672,25.3666398 C76.8942319,26.4845867 76.7327382,27.6431285 76.7381144,28.8069098 C76.7309157,30.0698651 76.8708596,31.3293602 77.1551168,32.5599315 C77.4057754,33.6715295 77.8504324,34.7302366 78.4686745,35.6874496 C79.0316391,36.5683145 79.78736,37.3097766 80.6787873,37.8558622 C81.5544923,38.3979654 82.6178485,38.689867 83.8063054,38.689867 C84.8806884,38.6659834 85.9329216,38.3796614 86.8712732,37.8558622 C87.7704895,37.4320677 88.5352785,36.7682885 89.081386,35.9376511 L89.081386,20.3626108 Z M89.7277397,44.8823529 L89.4149879,42.4637389 C88.5843547,43.3661971 87.5949082,44.1082821 86.495971,44.6530016 C83.268388,46.0337589 79.5894449,45.8804696 76.487913,44.2359992 C74.8460857,43.3327293 73.4225727,42.080038 72.3178888,40.5663779 C71.1511707,38.9745912 70.2758266,37.188607 69.7324738,35.2912973 C69.1467935,33.2580708 68.8519654,31.1521553 68.856711,29.0362611 C68.856711,26.9720991 69.1486704,24.9704875 69.7533239,23.0105761 C70.3414825,21.1077219 71.2821798,19.332421 72.52639,17.7771958 C75.2511618,14.3989865 79.4061877,12.4991048 83.743755,12.6480661 C85.4117647,12.6480661 87.184025,12.9608179 89.081386,13.5654714 L89.081386,1.36815068 L97.1712329,1.36815068 L97.1712329,44.8823529 L89.7277397,44.8823529 Z M119.939565,30.1204674 C118.155899,30.2399194 116.380659,30.4626945 114.622784,30.7876712 C112.871374,31.1421233 111.662067,31.7259267 110.974013,32.5807816 C110.329893,33.3616606 109.976232,34.3415958 109.973207,35.3538477 C109.973207,36.3963537 110.348509,37.2303586 111.119964,37.8558622 C112.053868,38.5397228 113.195971,38.8786694 114.351732,38.8149678 C115.394239,38.8149678 116.436745,38.6064666 117.4167,38.168614 C118.343608,37.7640596 119.196327,37.2073262 119.939565,36.5214545 L119.939565,30.1204674 Z M120.585919,44.8406527 L120.273167,42.5054392 C119.348373,43.5067301 118.207452,44.2839823 116.937147,44.7781023 C114.265422,45.8355302 111.299338,45.8800215 108.597099,44.9032031 C104.613958,43.575255 101.965488,39.8013961 102.071011,35.6040492 C102.01656,32.8125969 103.274753,30.1572676 105.469581,28.4316076 C106.563729,27.5804058 107.779689,26.8986249 109.076652,26.4091459 C111.559923,25.5284871 114.145324,24.9679665 116.770346,24.7411362 L119.897865,24.4492345 L119.897865,23.9905318 C119.897865,22.2599718 119.439162,21.0298147 118.542607,20.2792103 C117.474277,19.485214 116.159936,19.0938653 114.831285,19.1741539 C112.468199,19.1859679 110.166685,19.9288617 108.242647,21.3008662 C107.822157,21.5679707 107.418308,21.8604127 107.03334,22.1765713 L104.343674,16.5053384 C105.633806,15.5264783 107.050597,14.7269032 108.555399,14.1284247 C112.474591,12.4993039 116.824447,12.2205611 120.919521,13.3361201 C123.772964,14.2280836 126.052138,16.3917596 127.091156,19.195004 C127.717829,20.939008 128.014777,22.7843273 127.966861,24.6368856 L127.966861,44.8615028 L120.585919,44.8406527 Z M152.966156,8.54059226 C151.525061,7.89539662 149.957524,7.58188932 148.37913,7.62318695 C147.274073,7.62318695 146.314968,7.95678888 145.564363,8.64484287 C144.792909,9.31204674 144.417607,10.4171031 144.417607,11.939162 L144.417607,13.4195205 L151.214746,13.4195205 L151.214746,19.9456084 L144.480157,19.9456084 L144.480157,44.8823529 L136.39031,44.8823529 L136.39031,19.9456084 L132.220286,19.9456084 L132.220286,13.4195205 L136.39031,13.4195205 L136.39031,11.7515109 C136.39031,9.68734891 136.661362,7.95678888 137.182615,6.53898066 C138.045419,3.96340337 140.080891,1.95114974 142.666197,1.11794923 C146.381099,0.125808905 150.317764,0.36727721 153.883562,1.80600322 L152.966156,8.54059226 Z M175.025584,28.9945608 C175.031241,27.7292343 174.877121,26.4682561 174.566882,25.2415391 C174.301433,24.1565409 173.834645,23.1310224 173.190774,22.2182716 C172.610531,21.3908724 171.856163,20.7005541 170.980661,20.1958098 C170.046604,19.6686254 168.988024,19.4021799 167.915693,19.4243554 C166.843246,19.4011501 165.784397,19.6676632 164.850725,20.1958098 C163.968473,20.6991923 163.207019,21.3894817 162.619762,22.2182716 C161.979847,23.1409012 161.513519,24.1724763 161.243654,25.2623892 C160.60897,27.7241537 160.60897,30.3066682 161.243654,32.7684327 C161.518584,33.8429177 161.969481,34.8644818 162.578062,35.7917002 C163.148178,36.6518211 163.912355,37.3660044 164.809025,37.8767123 C165.762452,38.3908234 166.832713,38.6494101 167.915693,38.6273167 C170.051539,38.6804512 172.056876,37.6024836 173.190774,35.7917002 C173.825634,34.8738088 174.291638,33.8500118 174.566882,32.7684327 C174.87976,31.5351217 175.033907,30.2669127 175.025584,28.9945608 M182.969518,29.015411 C182.973506,31.0674842 182.656937,33.1075907 182.031225,35.061946 C181.428193,36.9923395 180.473944,38.794809 179.216459,40.3787268 C176.48888,43.8094904 172.295949,45.7434988 167.915693,45.5912571 C163.531559,45.7334995 159.336579,43.8021089 156.594077,40.3787268 C155.342505,38.7909506 154.388858,36.9896176 153.779311,35.061946 C152.523707,31.1500566 152.523707,26.9433157 153.779311,23.0314263 C154.38303,21.1245522 155.329863,19.3439409 156.573227,17.7771958 C157.851934,16.208654 159.460859,14.9414478 161.285355,14.0658743 C163.35528,13.0845092 165.625438,12.5990666 167.915693,12.6480661 C172.265239,12.5278374 176.427151,14.4203152 179.195608,17.7771958 C180.446616,19.3201048 181.405721,21.0715149 182.031225,23.0314263 C182.656728,24.9913376 182.969518,26.9929492 182.969518,29.015411 M208.093876,44.8823529 L208.093876,26.951249 C208.21853,24.9810694 207.69096,23.0246631 206.592667,21.3842667 C205.604007,20.0918071 204.048638,19.3607839 202.422643,19.4243554 C201.185457,19.4101359 199.970027,19.7501669 198.919823,20.404311 C197.911943,21.0134232 196.980913,21.7414466 196.146757,22.5727236 L196.146757,44.8823529 L188.05691,44.8823529 L188.05691,13.4195205 L195.437853,13.4195205 L195.813155,15.9215351 C198.358454,13.7995823 201.569171,12.6407716 204.882957,12.6480318 C206.550967,12.6480318 208.073026,12.8982675 209.469984,13.3986704 C210.833093,13.8911448 212.05649,14.7067428 213.035355,15.7755842 C214.05701,16.8597905 214.828465,18.2775987 215.370568,20.0081587 C215.912671,21.7595689 216.183723,23.844581 216.183723,26.263195 L216.183723,44.8823529 L208.093876,44.8823529 Z M241.349819,25.3666398 C241.290188,24.3881483 241.057218,23.4280284 240.661765,22.5310234 C240.339307,21.7919514 239.871299,21.1253946 239.285657,20.571112 C238.275571,19.6360588 236.950774,19.1150713 235.574335,19.1116035 C234.096034,19.1382291 232.676045,19.6929123 231.571112,20.6753626 C230.226175,21.8749767 229.421861,23.566292 229.340149,25.3666398 L241.349819,25.3666398 Z M229.152498,31.1838235 C229.319299,33.8317889 230.153304,35.75 231.654512,36.9176068 C233.306986,38.1464378 235.330637,38.7719297 237.388296,38.689867 C239.312582,38.6875198 241.220307,38.3342375 243.017828,37.647361 C243.677568,37.386034 244.318493,37.0795046 244.936039,36.7299557 C245.3566,36.4905124 245.748355,36.203692 246.103646,35.8751007 L248.272059,42.4637389 C247.045163,43.2937786 245.703522,43.9400141 244.289686,44.38195 C241.708457,45.1735347 239.024799,45.5810011 236.32494,45.5913647 C234.337422,45.5982264 232.363217,45.2668421 230.486906,44.6113014 C228.663864,43.9752774 227.004638,42.942712 225.628828,41.5880338 C224.172251,40.1289046 223.036048,38.3819919 222.292808,36.4589041 C221.410452,34.1294588 220.985691,31.651687 221.041801,29.1613618 C221.041801,26.4925463 221.437953,24.1573328 222.188558,22.114021 C224.104006,16.3645324 229.536192,12.5290544 235.595185,12.6480661 C237.495359,12.6291122 239.382686,12.9613383 241.162168,13.6280218 C242.851027,14.2743755 244.310536,15.2960314 245.540693,16.6512893 C246.7917,18.0273973 247.771656,19.7996575 248.48056,21.9889202 C249.210314,24.1573328 249.564766,26.7427478 249.564766,29.7451652 L249.564766,31.1838235 L229.152498,31.1838235 Z" id="Shape"></path>
        </g>
    </g>
</svg>