<?xml version="1.0" encoding="UTF-8"?>
<svg width="352px" height="92px" viewBox="0 0 352 92" version="1.1" xmlns="http://www.w3.org/2000/svg" xmlns:xlink="http://www.w3.org/1999/xlink">
    <title>Logos</title>
    <g id="Logos" stroke="none" stroke-width="1" fill="none" fill-rule="evenodd">
        <g id="logo-netflix" transform="translate(86.000000, 23.376000)" fill="#707780" fill-rule="nonzero">
            <path d="M24.8880303,46.4655998 C22.1652529,46.9445477 19.3945742,47.0881435 16.5284463,47.4705936 L7.7863584,21.822358 L7.7863584,48.571377 C5.06358105,48.8583916 2.57960352,49.2411958 0,49.624 L0,0.624 L7.26121094,0.624 L17.1971211,28.4261731 L17.1971211,0.624 L24.8880303,0.624 L24.8880303,46.4655998 Z M39.9355996,18.5683453 C42.8975303,18.5683453 47.4356104,18.4247494 50.1583877,18.4247494 L50.1583877,26.0808334 C46.766582,26.0808334 42.8019043,26.0808334 39.9355996,26.2244293 L39.9355996,37.6132969 C44.4261318,37.3262823 48.9164873,36.9431239 53.4543906,36.7995281 L53.4543906,44.1682434 L32.2922383,45.8434101 L32.2922383,0.624 L53.4543906,0.624 L53.4543906,8.28026107 L39.9355996,8.28026107 L39.9355996,18.5683453 Z M81.8774004,8.28043813 L73.9476914,8.28043813 L73.9476914,43.4991328 C71.3680879,43.4991328 68.7884844,43.4991328 66.3048604,43.5945683 L66.3048604,8.28043813 L58.3751514,8.28043813 L58.3751514,0.624 L81.8777539,0.624 L81.8774004,8.28043813 L81.8774004,8.28043813 Z M94.2974648,18.0421223 L104.759229,18.0421223 L104.759229,25.6982063 L94.2974648,25.6982063 L94.2974648,43.0685223 L86.7971006,43.0685223 L86.7971006,0.624 L108.150858,0.624 L108.150858,8.28026107 L94.2974648,8.28026107 L94.2974648,18.0421223 Z M120.570923,36.3690947 C124.918104,36.4645302 129.312657,36.8000593 133.56439,37.0389135 L133.56439,44.5995621 C126.733407,44.1685975 119.902248,43.7385182 112.927915,43.5945683 L112.927915,0.624 L120.570923,0.624 L120.570923,36.3690947 Z M140.013222,45.1259621 C142.449475,45.269735 145.029078,45.4133309 147.513056,45.6999914 L147.513056,0.624 L140.013222,0.624 L140.013222,45.1259621 Z M181,0.624 L171.302536,23.9277811 L181,49.624 C178.133519,49.2411958 175.267391,48.7147958 172.401086,48.236202 L166.907807,34.0724466 L161.319255,47.0881435 C158.548046,46.6091956 155.872993,46.4655998 153.102845,46.0827956 L162.943306,23.6404124 L154.057867,0.624 L162.273924,0.624 L167.28978,13.4961011 L172.640239,0.624 L181,0.624 Z" id="Shape"></path>
        </g>
    </g>
</svg>