<svg xmlns="http://www.w3.org/2000/svg" xmlns:xlink="http://www.w3.org/1999/xlink" id="flag-icon-css-nz" viewBox="0 0 512 512">
  <defs>
    <clipPath id="c">
      <path d="M0 0h600v300H0z"/>
    </clipPath>
    <clipPath id="d">
      <path d="M0 0l300 150H0zm300 0h300L300 150zm0 150h300v150zm0 0v150H0z"/>
    </clipPath>
    <g id="b">
      <g id="a">
        <path d="M0 0v.5L1 0z" transform="translate(0 -.3)"/>
        <path d="M0 0v-.5L1 0z" transform="rotate(-36 .5 -.2)"/>
      </g>
      <use transform="scale(-1 1)" xlink:href="#a"/>
      <use transform="rotate(72 0 0)" xlink:href="#a"/>
      <use transform="rotate(-72 0 0)" xlink:href="#a"/>
      <use transform="scale(-1 1) rotate(72)" xlink:href="#a"/>
    </g>
  </defs>
  <path fill="#00247d" fill-rule="evenodd" d="M0 0h512v512H0z"/>
  <g transform="translate(-148.7 134.5) scale(.60566)">
    <use width="100%" height="100%" fill="#fff" transform="matrix(45.4 0 0 45.4 900 120)" xlink:href="#b"/>
    <use width="100%" height="100%" fill="#cc142b" transform="matrix(30 0 0 30 900 120)" xlink:href="#b"/>
  </g>
  <g transform="rotate(82 393.4 127.1) scale(.60566)">
    <use width="100%" height="100%" fill="#fff" transform="rotate(-82 519 -457.7) scale(40.4)" xlink:href="#b"/>
    <use width="100%" height="100%" fill="#cc142b" transform="rotate(-82 519 -457.7) scale(25)" xlink:href="#b"/>
  </g>
  <g transform="rotate(82 393.4 127.1) scale(.60566)">
    <use width="100%" height="100%" fill="#fff" transform="rotate(-82 668.6 -327.7) scale(45.4)" xlink:href="#b"/>
    <use width="100%" height="100%" fill="#cc142b" transform="rotate(-82 668.6 -327.7) scale(30)" xlink:href="#b"/>
  </g>
  <g transform="translate(-148.7 134.5) scale(.60566)">
    <use width="100%" height="100%" fill="#fff" transform="matrix(50.4 0 0 50.4 900 480)" xlink:href="#b"/>
    <use width="100%" height="100%" fill="#cc142b" transform="matrix(35 0 0 35 900 480)" xlink:href="#b"/>
  </g>
  <path stroke="#fff" stroke-width="60" d="M0 0l600 300M0 300L600 0" clip-path="url(#c)" transform="scale(.52004 .78924)"/>
  <path stroke="#cc142b" stroke-width="40" d="M0 0l600 300M0 300L600 0" clip-path="url(#d)" transform="scale(.52004 .78924)"/>
  <path fill="#fff" d="M125.7 0v88H-.1v60.7h125.8v88h60.6v-88h125.8V88.1H186.4V0h-60.7z" clip-path="url(#c)" color="#000" font-family="sans-serif" font-weight="400" overflow="visible" style="line-height:normal;text-indent:0;text-align:start;text-decoration-line:none;text-decoration-style:solid;text-decoration-color:#000;text-transform:none;block-progression:tb;isolation:auto;mix-blend-mode:normal"/>
  <path fill="#cc142b" d="M137.8 0v100.2H0v36.4h138v100.2h36.3V136.6h137.9v-36.4h-138V0h-36.4z" color="#000" font-family="sans-serif" font-weight="400" overflow="visible" style="line-height:normal;text-indent:0;text-align:start;text-decoration-line:none;text-decoration-style:solid;text-decoration-color:#000;text-transform:none;block-progression:tb;isolation:auto;mix-blend-mode:normal"/>
</svg>
