<svg xmlns="http://www.w3.org/2000/svg" id="flag-icon-css-sh" viewBox="0 0 512 512">
  <defs>
    <clipPath id="a">
      <path fill-opacity=".7" d="M0 0h512v512H0z"/>
    </clipPath>
  </defs>
  <g clip-path="url(#a)">
    <path fill="#006" d="M1024 512V0H0v512h1024z"/>
    <path fill="#fff" d="M0 85.3h108L0 31V0h61.8l151 75.3V0h85v75.3L449 0h62.4v31L402.7 85.4h108.6v85.3H402.7l108.6 54.2V256h-62.4l-151-75.3V256h-85v-75.3L61.7 256H0v-31l108-54.3H0V85.3z"/>
    <path fill="#ce1126" d="M471 0L300.5 85.3h40.9L511.3 0H471zm40.3 256L341 170.5h41l129.2 65v20.3zM171 85.2L0-.1v20.4l129.8 65H171zm-.4 85.3L0 255.9h40.8l170.7-85.3h-40.9z"/>
    <path fill="#ce1126" d="M0 103h231V0h50v103h230.3v50H280.9v103h-50V153H0v-50z"/>
    <path fill="#8fc5ff" stroke="#fff" d="M399.7 640.8c0 16.3-2.6 33.9-23.8 42.3-21.1-8.4-23.7-26-23.8-42.3h47.6z" transform="matrix(4.9436 0 0 4.9441 -1482.9 -2891.1)"/>
    <path fill="#366cc9" stroke="#000" d="M375.9 683a34.3 34.3 0 0018.8-16h-2c-.6-.1-20.3-2-22.7-3-2-.7-9.8.7-13.4 2a34 34 0 0019.3 17z" transform="matrix(4.9436 0 0 4.9441 -1482.9 -2891.1)"/>
    <path fill="#5d3100" stroke="#000" stroke-width=".1" d="M361.1 673h1.2c.3 0 .3 0 .4-.3s.4-.2.6-.1.6 0 .8-.2c.2-.2.2-.2.4 0s.3.1.5 0c.1 0 .5-.2.6-.5s.4-.4.5-.2.3.2.5.2.2.1.2.4c0 .2 0 .3.5-.1.4.4.5.2.5-.2s0-2-.2-2.1-.3-.8-.4-1.3c0-1 0-1-1-1.5 0-.3-.2-.4-1-.4.1-.1 0-.4-.2-.5s-.2-.2 0-.6c.2 0 .6 0 .7-.3.2-.2.8-.2 1.2 0s.8.2 1.5 0l1.2-.6c.5-.3.6-.4.6-.8 0-1-.3-2-.5-2.5-.3-.5-.3-1-.7-1.9-.4-.8-.4-1-.8-1.5-.2-.2-.3-.3-.3-.6a1.5 1.5 0 00-.5-1c-.8-.7-1-3-1.4-4.7-.2-1 0-3.3-.4-3.7-.7-.5-1-.4-1.5-.6-.4-.5-.5-1.4-.9-2.3-.5.1-.8.6-1.1.8s-.4.2-.4.7c0 .4-.3 1-.7 1.8s-1.3.5-2 1.6c-1.4-1.7-1.4-2.2-1.5-2.7 0-.5-.3-.6-1.1-1.3v-1.5c-.7-.5-1.1-.4-1.4 0-.3.3-.5.8-1 1-.2.4-1 1.2-1.6 2.3.6 9 2.6 18 8.7 25.2z" transform="matrix(4.9436 0 0 4.9441 -1482.9 -2891.1)"/>
    <path fill="#ff0" stroke="#fff" d="M399.7 640.8c0-6.2-.3-12.2-.2-17.4a63.6 63.6 0 00-23.6-4.3c-5.3 0-15.7.8-23.6 4.3.2 5.2-.2 11.2-.2 17.4h47.6z" transform="matrix(4.9436 0 0 4.9441 -1482.9 -2891.1)"/>
    <path fill="#cf6200" d="M264.3 312.1c1.2 2 3.6 5.6 3.8 7.5 1-1.8 1.6-2.7 1.8-3.8s1.6-3.4 1-4.6-.8-2.2.6-1.3c1.4.9 1.1 2.4.8 4.7-.8 6.3-3.5 7.6-3.9 11.9 3.8 8.9 1 12.1 5.1 20.8.7.4 2.4-.3 2.9-.1 2.2-1.6 3.8-1 6.9-.4 3 .7 4.7 2.8 4.7 4.8s0 2.4.7 3.6 2 3 1.6 4.2c-.2 1.3.3 2 .7 2.7s-.1 2-.5 3-.3 2 1.3 4c1.5 1.9 5.1 10 5.1 14.7s.3 7 2.2 7.9c2 .9 2.6 1.6 2.3 3.7s.9 12.7 1.2 14.4.9 1.3 1.6 2.2c.8.9 1.3 1.9 3.9 1.9s5-.4 6.7 0c2.3 3.1 3.7 7.5 4.2 10.2s.5 6.4 1.4 6.4 1.8.1 1.5-3.2-.5-3.9-1.6-5.6c-1.2-1.6-1.8-2.4-1.2-3.4s.8-2.7.5-4-.6-3.2 1.6-.7l3.5 4.1c.7 1 .9 2.6.7 4.2-.1 1.5.2 2.1 1 1.4 1-.8 2.1.5 1.6 2.2s.1 2.7 1.7 3.2 2.2.9 2.5 2 1.7 1.7 1.7-.6-.9-7.2-1.5-8.8c-.7-1.5-1.2-4.8-1.3-6.8s-.5-2.4-1.4-2.8-1.7-1-1.8-2-1-1.1-1.5-1.1-1.1-.5-1.4-1.1-.7-.7-1.3-.8-1.7.3-2-.7-.8-2.5-1.4-3.4-1.2-1-1.3-4c0-2.8-.1-3.2-1-4.2s-2.5-3.8-3.1-5c-.6-1-1.3-2.2-1.3.2s0 3.7 1.5 4.6c1.6 1 2 1 1.3 2.2s0 2.2.3 3.1.8 1.8 0 2.7c-.8.9-1.6.6-1.4-.8a8 8 0 00-1-4.2c-.7-1.2-1.2-2-2-1.3s-1.4-.1-.9-.6.4-1 0-1.3-.5-.8.2-1.6.6-1.1.2-3c-.4-1.7-3.2-10.7-4.5-12.8s-1.1-3.6.5-1.5 3.1 3.8 3.2 5.5c.2 1.7.6 2.7 1 3.4s1 .3 1.2-1 1.3-1-.5-3.7-5.1-7.2-6.4-15.3-1.8-13.5-3.1-15.6c-1.3-2.2-1.7-2.7-1.8-4.8s0-4.1-1-5.6-1.4-1.8-1.6.5c-.1 2.3.2 7.4.8 8.3s.3 3.2.1 4.5-2.1 2.6 2 5.2c1.8 1 1.5 2.4 1.2 3.3-.2.9-.5.8-1.4-.6-.9-1.5-1.8-2.6-2.7-3.4s-1-1.3-.9-3 .5-3.1 0-3.8c-.5-.6-.7-.1-1 1-.3 1-.5 3.8-1 4.5s-.8.3-1.2-1.4.1-4.2 1-7.2 1.5-6 .7-9.9c-.8-3.8-.4-5-3.4-8.2-3-3.2-6.2-6.3-7.7-10.3-1.4-4-1.6-7.4-3.2-9.2a21.1 21.1 0 00-5.1-4.8v-5.9c0-1.4-.7-2.3-2.3-2s-2.7 1.6-3.7 3.6c-1 1.9-1.8 1-3.3 4.3s-3.4 5-3.4 8.6z"/>
    <path fill="#cf6200" d="M273.6 349.8c1 .7 2 1 3.5.3s3.4-3 5.5-.8c2 2.2 3.2 5.8 3.2 8.6s0 8.1 3.2 11c3.2 3 4.9 6 5 10 .1 3.8 1.5 9.7 2 11.3.3 1.5 1.2 3.3 2.2 4.3s1.8 4 2 7c0 3.2-.4 5.4 0 6.9s0 2.8-1.2 2-1.4-1.1-2-2.4-1.5-1-.8 1 2.5 3.6 4.2 3.6 2.2.3 3.2 1.3 1.2 1.6 3 1.6 2 0 3.7.5 1.7.2 2.6 0 1.8.5 2.4 2.2 2.2 6.3 2.2 7.5 0 2.6.9 3.9.6 2.6-.4 1.8-1-.5-1.8-.4-1.3-.2-2.3-.9c-1-.6-.4-.5-1.4-2s-1.7-2.1-1.7-1-.1 2.6-.9 2-1.1-.7-1.8 0-.9 1.1-1.7-.1-1.6-1.3-2.4-1.6-.8-.2-1.1-1.4c-.4-1.2-1.6-1.4-2.6-1.4s-1.6-.5-1.7-1.3c-.1-.8-.8-1.3-1.3-1.7s-.2-1.3-.4-2.2-.9-.5-1.4-.7-.9-.1-.9-1.4-.5-1.7-.9-2.6c-.3-1 0-1.8.3-2.8.2-1 .1-1.7-.6-2.6-.8-.9-.2-1.8-2.2-3.6s-3.1-.3-3.8-4.5c-.6-4.2-1.9-13-3-14.4s-2-2.4-3.1-2.8-2-.1-2-2.6c-.2-2.4-1-5.5-2.5-7l-3-2.7c-.8-.6-1-1.8 0-4s.7-5.2.5-6.6c-.1-1.4-.5-3.2-.2-4.7s.1-3.5-.3-4.5-.9-1.3-.2-2zm31-36.5a27.9 27.9 0 01-6 5.8c-2.5 1.7-5.6 3-3.9 6 1.8 2.9 3.1 3.2 3.5 5.5.3 2.2.8 4 2.5 4.6 1.8.5 2.4.2 2.4 3.8s0 5 1.6 6.3 1.4 2.7 2 6c.7 3.3.7 10.3 2.8 15s6.7 14 6.2 15.8-1.2 3.3.8 5.5 3.4 5.5 3.6 7.4c.2 1.9.5 2.6 2.6 1.9 2-.7 3-1.4 3.7-2.3.7-.8 2-.6 4 .4 1.9 1 4.8 2 6.5 1 1.7-1 2.6-2.6 4.1-2.6 2.4-1.7 3.3-5.3 3.8-6.3s.1-1-.9-2-.5-2.8-.7-4.5c-.1-1.7-.8-4.3-2.9-8-2-3.8-3.2-8.5-4.6-9.7-1.4-1.2-2-4-2.2-5.4-.2-1.4-1.8-2.6-2.8-3.6-1-1-2-2.6-3.2-8.6-1.2-6-2-10.3-2-11.3s-.3-1.2-1.3-1.5-1.5-2.1-1.2-3c.3-.8-.3-1.7-.7-2.7s0-2.9.7-4c.7-1 .5-3.9-.2-6.3s-1.3-4.4-4-4.8c-2.8-.3-3.3-1-4.4-3.2-1-2.3-2-6.2-2.4-7-.3-1-.8-1-2.9.6-2 1.7-2.7 2.3-2.7 5.5 0 2 .3 2.8 1 4 .7 1.2.9 1.5 1.4 4.8s3.4 8.3-.4 11.3-3.2 3.6-3 5.6c.1 2-1 3.4-1.7.5s0-4.6 2-6c2-1.3 4-3 2.6-5-1.4-1.8-1.9-6.3-2-8.3s-.6-2.8-1.8-1.2z"/>
    <path fill="#00b800" d="M274 357c-.1 1.3.2 2.9.3 4 .1 1.5.5 4.5-.5 6.6-1 2.2-.8 3.4 0 4v.1a3 3 0 001.9-4.1c-.6-1.3-.4-2.7.3-3.9.6-1.2.6-1.9 0-2.7-.6-.9-.6-.9.1-3.3.6-2.1-.9-2.1-2.1-.8zm22 33.2c-.5-1.6-1.9-7.5-2-11.4a14 14 0 00-5-9.9c-2.5-2.2-3-6-3.2-8.8-1.9-1.2-2.7-.7-2.5 1.5.1 2.3 2.5 3.4 2.1 6.7-.3 3.4-.3 2.5 1.3 4.2s2.2 3.1 1.4 3.8c-.9.7-1 1.9.2 2.3 1.2.5 1.3 1.7 1.1 3-.1 1.1 1 1.4 1.7 2.2.6 1 .7 3 0 4.2-.6 1.2-.7 3 .5 2s1.7 0 2.6 1.6c.8 1.4 1.5 1 2.4.5a10.8 10.8 0 01-.7-2zm16.6 29.9c-.8 1.5-1.7 1-2.4.2s-1.7-.8-1.3-2.2.2-1.6-.8-2.4a7.7 7.7 0 00-.3-.2h-1.2c-1.8 0-2-.6-3-1.6a8.6 8.6 0 00-.6-.6v1c0 1.4 0 1.1-1.4 1.5s-1.2-1.4-1.5-2.6a4.3 4.3 0 00-.2-.6c-1.5-.3-3.2-2-3.7-3.7-.7-2 .1-2.2.7-1s1 1.8 2.1 2.5 1.5-.5 1.1-2a6.5 6.5 0 010-1.7c-.4-.5-.7-1-1.2-1.2-2-.9-1.5-1.1-1.3-2.8.1-1.6-.3-1.6-1.6-.8-1.3 1-1.4 0-1.4-2.7 0-2.5-1.7-2.5-2-.7-.4 1.8-1 .6-1.8-2s-1.8-3.2-2-.7c0 2-.6 2.5-2 1.4l.6 4c.7 4.2 1.7 2.7 3.8 4.5s1.4 2.7 2.1 3.6c.8.9 1 1.5.7 2.5-.3 1-.7 2-.3 2.9.4.9 1 1.3 1 2.5s.3 1.2.8 1.5c.3.1.8 0 1 .2l1-1.4c1.6-1.5 4 .1 4.7 2s1.7 2.5 2.8 1 .8-1.3 2 0 1.9 1.2 1.9 1.2 1.3-.5 2.2.3 1.4.6 3-1.8c1.7-2.4-.7-1.7-1.5-.1zm4.6-70.5c.5-3.8.1-7.6 1.7-9 1.5-1.3 3.4-4 3.2 1.8-.1 5.8-.3 5.5-1.5 6.8-1.2 1.4-2.2 1.7-1 4 1.2 2.2 1.3 2.4 1.2 5.8-.2 3.4-.2 4.8 1.2 6.5 1.3 1.7 1.7 1.9 2 3.8.4 1.8 1.5 4.4 3 5.8s3.3 5.3 3.5 8c.2 2.8 2.6 3.5 4.8 5.3 2.2 2-.5 3.3-2.2 2.5-1.7-1-1 0-2 1.1-1 1.2-1.4 1.4-2.3-.6s-3.8-3.5-5.1-4-2.6-2.7-3.8-5c-1-1.9-3-3.3-5-3.4.6 1.4.9 2.6.7 3.1-.5 1.9-1.2 3.3.9 5.5 2 2.2 3.4 5.5 3.6 7.4.1 1.8.5 2.5 2.5 1.8 2.1-.7 3.1-1.3 3.8-2.2.7-.8 2-.7 4 .4 1.8 1 4.7 2 6.4 1 1.8-1 2.6-2.6 4.2-2.6 2.4-1.7 3.2-5.3 3.7-6.3s.2-1-.8-2-.5-2.8-.7-4.5c-.2-1.8-.9-4.3-3-8-2-3.9-3.2-8.5-4.5-9.7-1.4-1.2-2-4-2.3-5.5-.1-1.3-1.7-2.5-2.7-3.6-1-1-2-2.5-3.3-8.5l-1.9-10.2c-1.2 2-2 2.4-2.5 1.1-.5-1.5-1.2-2.4-1.9-1.4s-.9-.8-.9-1.7c0-.8-.1-1-1-1-.8 0-.2-1.4-.5-4-.3-2.5-.9-2.9-1.2.2-.3 3.1-2 5-1.4 5.7.7.7.4 2-.3 4-.7 2.1-.4 3.3.2 4.7s-.4 4-.7 6.2c-.4 2.2 1.3 4.4 1.9.7zm-31.3-30.8c-1.3.1-2.2 1.2-1.4 5.1.4 2.4-1.4 1.9-2 .7-.8-1.2-1.3-3.8-2.7-6-1.3-2.2-.7 1.5-.8 3.6-.2 2 1.2 2 2.4 3.8s.1 2.4-1.2 2.4-.7 2.7-.4 4.6-.3 2.2-1.3.7c-1-1.6-.4-4-.2-6.9.2-2.9.3-2.2-1.6-2.9-1.8-.7-1.5-1-.8-2.7.7-1.7 1.4-2.6.5-3.5-.9-.8-.7-1.3.7-1.5 1.4-.2.8-1.2 2-1.6 1.2-.3 1.8.2 2-2 0-1.9.7-3 2-2.4 1 2.8 2 7.3 2.8 8.6zM303 339c0 3.6 0 5 1.6 6.3s1.3 2.8 2 6c.7 3.3.7 10.3 2.8 15l2.3 5.2a9.6 9.6 0 002.5-3.2c.5-1.2-1-3.6-2.3-5.7-1.2-2 .2-2.7 1.4-5.3 1.2-2.6-.2-2.7-2-3.4-2-.7-2-2.4-3-5.2s-.8-3.9-.1-5.4c.6-1.6.1-2.8-1.2-3.1-1.4-.4-1-1.4-.6-3.1.6-1.7.9-2-1.2-1.6-1.5.4-1.9.7-2.4 1.3.2.5.2 1.2.2 2.2z"/>
    <path fill="#5d3100" d="M322.9 346.1c-.2 2.1-.2 3.1-.7 3.8-.5.7-.2 1.7.3 2.8s.9 2.4.4 4.2.3 3.5 1.3 4 1.6 0 1.2 2.4a7.4 7.4 0 002.2 6c1.2 1 2.1 2.7 2 3.7-.2 1 .8 2.1 2 2.6s1 .7 1 1.4.5.7 1.9 1 2.4 1.2 4 3.1 3.7 3 3.4.8 0-3.4-2-4.4c-2.1-1-3.7-6-4.5-9.4-.9-3.5-3.6-8-5.2-9-.2-2.3.2-3.5-1.4-4.7a5 5 0 01-2-4c0-1.2-.9-2.7-1.5-3-.7-.4-1-1.3-1-2.3s-1.3-.8-1.4 1z"/>
    <path fill="#00d860" d="M313.8 438a50 50 0 0012.3-3.4 19 19 0 007.2 3.3c-3 .7-4.9.3-5.7-.2.4.9 1.4 2.3 2 2.4-2.8-.1-6-.8-7-1.8-2.4 1-6.5 1.3-8.9-.2zm5.5 4c1 .2 6.5 1.1 7.3 1.1-1.9 1.6-.3 3 2.7 2.8-1.5.2-3 .8-2 1a29 29 0 0011.2-2.2c-2.4 3.1-14.3 6-19.2-2.8zm4.9 7.7c1.5-.7 5.1-.5 6.9.4-2 .6-5.8.6-7-.4z"/>
    <path d="M329.7 449.6c2.6-.4 10 1.4 12.7-.2-1 2.4-5.6 2.7-7.2 2.2-1.6-.6-3.1-1.2-4.2-1.1.5-.4-.4-.4-1.3-.9z"/>
    <path fill="#00d860" d="M332.4 453.3c2 .3 9.1-.6 11.3-1.4 2.3.7 6.9 2 7.9 1.8-2.2 1.4-6.4.6-7.7 0-3.9 1.3-7 1.7-11.5-.4z"/>
    <path fill="#00d860" d="M335.8 454.5c2.9.6 5.3.2 8.1-.8.9.4 3 .9 4.9.8 1.3.7 3 1.7 4.7 1.9-1.8.7-8.1 0-9.4-.8a26 26 0 00-10.1 2c0-1 .5-2.2 1.8-3.1z"/>
    <path d="M332.4 440c2.2.7 10.3.4 14.4-1.5 1.6-.8 2.6.4.7 1.1-6.6 2.3-11.9 3.2-15.8 1.2-1.5-.9-1.6-1.6.7-.8z"/>
    <path fill="#00d860" d="M371.8 429c-9.9 4.7-16.4 6.1-30.2 1.9-1.2-.4-2.1 0-.7.9 1.4.9 9 3 10.8 3s1.1 1 0 1.3-1.4 1.1.1.5 9.7-.8 13.1 1c1.5.8 1.9.6 1.7 0s.7-.9 1.8-1 1.7-.5.9-.9-1-.5-.3-.8.7-.6-.3-.8-1.6-.5-.7-1c.9-.4 2.2-.7 3.3-.8.2-.7-.2-2.6.5-3.2z"/>
    <path d="M355.4 430.3c5.6.3 16-2.2 21.6-7.6 1.9 1.1 4.6 2.4 6 2.7s2.7 1.5.5 1.5-5.3-.9-6.7-1.5a38 38 0 01-21.3 5.5c-1.5-.1-2-.8-.1-.7z"/>
    <path fill="#00d860" d="M338.7 399.4a15 15 0 009.7 3.3 21.4 21.4 0 007.2 3.5c-3 1.2-6.2 2.2-7 3.2-1.4-1.3-3.1-1-3.6-1.7-1.2 1-1 1.6-.2 2.2s7.3 1.6 8.9 1.1 2 1 .7 1.4c-3.5 1.2-10.2 0-12.5-3.7-2.3-3.7-4.3-5.1-10.6-1.7-.7-1.8-.7-2.3-2-2.3s-3.4-1.6-1.7-1.5 6.9-.7 11-3.8z"/>
    <path fill="#00d860" d="M340.2 407.6c-1 .3-4.1 2-5.2 2.1-1.1.1-3 1.7-1 1.7 2 .1 4.5-2 6-2.3s1.5-1.8.2-1.5zm6.2 6.6c-.7.1-4 .9-5 .8s-1.7.2-1.6.8.3 1-1 1-2.6.3-3 .7-.5.8.9 1 2 .2 3.6-.5 3-1.8 4.7-1.9c1.6 0 3.3-2.2 1.4-2z"/>
    <path d="M341.8 418.1c1.4 1 8.4 3.3 10.9 3.1s2 1 .1 1.4c-3.9.9-8.7-.8-12-3.4-1.5-1.3 0-1.8 1-1z"/>
    <path fill="#00d860" d="M374.7 421.6c-5.3 1.6-10.7 1-12.9.5s-4.2-.7-2.7.7 6.2 2.3 9 1.6c-9.6 2.2-12.1 2-14.5 1.6a46 46 0 00-8.8 0c-1.4 0-3.3-.1-4.1-.7s-1.1-1.4 1.4-1.2c2.5.3 2.8-.2.6-.6s-5.2.6-2.2 2.5 9.4-.1 13.5 1c4.1 1.2 12.9 2 21.2-4.7.4-.3 1.1-1.3-.5-.8zm-26.1-7.9c.2.7.2 1.4 0 1.8s-.2 1 .6.4 1.4-1.4 2.2-1 3 .5 4 .3c1-.1 1.2-.3-.2-.9-1.4-.6-2.8-.8-3.6-.7s-1.7-.1-2.4-.4-.8-.1-.6.5z"/>
    <path fill="#00d860" d="M362.3 416.2c-1.1 0-3-.6-4-1s-2.6-.6-1.5.9 5.9 2.3 7.6 1.6 1-1.5 2.6-.5c1.7 1 3.4 1.8 4.6 1.8s1.7 0 .3-.8-2-1-2-1.6-.4-1 .8-.6 2.6 1 3.6.5 2.8-1.6 4.4-1.6l.4-1c-2.4-.2-3.8.5-4.5.8s-1.8.4-3 .2-2.8-.4-3.2-.7-.4-.6.6-.8 1.4-.9 0-.6-5.2.1-7.2-.5-2.8-.7-3.7-.4c-.8.3-.7 1.2.5 1.3s4 .3 5 1.2.8 1-.3.5-3-.2-1 1.3z"/>
    <path fill="#00d860" d="M379 413.9l-.3 1c2.4-.1 8.1.5 10 1.6 1.8-1.4 1.5-1.8 2.8-1.6s2.8.7 3.6.3 1.2-.3 2-.2c.7.2 2.4-.1 3.3-.7s3-1.4 4.2-1.4 2.5-.2.4-.6c-2.1-.3-5.3.4-6.4.7-1.1.4-4.4.7-6.3.7s-4.6 1-6.8.4-5.2-.2-6.5-.2z"/>
    <path d="M408.8 412.8c-3.8 2.8-8.5 3.4-14 3.8-1.6.1-1.1.6.3.7 5.7.6 12.4-1.5 14.6-3.9.6-.6.6-1.7-.9-.6z"/>
    <path fill="#00d860" d="M382.6 419.3c1.6 0 7.4 1.6 9.3 2.2 1.4-.1 1.8-.4 1.5-1s-.4-1 2.1-1c2.6.2 8.5.1 9.6.1 1-.3 2.9-1.9 3.8-2-2.3.2-12 .7-13.2.6s-1.8 0-2.6.4-1.2.7-2.2.3-2.7-1-3.6-.4c-1 .6-3 .1-4.7.8z"/>
    <path fill="#00d860" d="M405.1 419.6c1-.4 2.9-2 3.8-2 1.7-.1 3.6.6 4.5.7s1.9 0 1.2-.7 0-2 2.6-1.6c2.6.3 4 .7 6.5.5s3.8 1.6 8.6-.3c-.3 2 .6 2 1.5 1.7s1.9-.3 3.4.9 11 1.3 13.1.9c2.2-.4 3.4.7 1.7 1.3-1.7.5-2 1.2-1.7 1.8.4.5.8 1.1-1.2.9-2.1-.3-2.5.3-3.5 1.1s-1.3 1-4.1.5c-2.9-.5-3.4-.1-5 .2s-1.8.2-3.4-.3-4.9-1-7-.4-3.5 1.3-5.3.8-2-.3-.8-1.4 1.4-1 3.6-1.3c2.2-.3 3.9-1 2.3-1.8s-2-.8-4 .2-3.2 1.7-5.5.4c-2.3-1.3-3.4-1-5-.6s-4.1-.5-6.3-1.5zm7.7 3.9c-3 .4-3.7-1.5-6.8-1.1-1 .1-2.8 1.4-.4 1.2 2.4-.2 5 1.1 7.3.9s1.3-1.2 0-1zm-3.4 2.2c1.6-.6 4.8.5 6.1.3s2.7.5 1.2 1-4.8-.8-6.3-.4-3.1-.1-1-.9zm-30.7 8.3c2.1 0 9.8-.2 12.8-6.7.2-.5.5-.7 1.4 0s4.5 2.7 11.1 3.3c1.9.2 3.9 1.1.1.8s-9.6-1.2-11.6-2.5c-3.3 5.3-9.3 6-13.8 5.8-2.7 0-2-.8 0-.7z"/>
    <path fill="#00d860" d="M395.2 425.3c-1 1.4-4.5 3.8-6.1 4-1.7 0-6.5-.4-7.7-.8s-2.7-.3-1 .9 6 2 7.8 1.6c1.8-.3 3.7-1 5 0s4 2.4 5.4 2c1.5-.3 4.5-.3 5.5.2 1 .4 2.6 1.8.1 1s-4.5-.1-5.7-.7c1.3 1.8 4.2 4.7 6.7 4.7.6 0 1 1-.3 1.6 1.2.6 4 1 5.5-.3-.3.5-.1.9.5 1.2s1.4.8.3.9-3.8.4-4.6.1c2.5 1.6 9 4.2 15.6 2.9 1.3-.2 2-.8-.1-.7-4.3.1-4.5 0-5.3-.4-.8-.4-.6-.8.6-1.2 1.2-.4 4.3-.8 5.6-.8s2.5-.6 0-.6-6 0-7.2-.4-2.3-1-1-2 2.8-.6 3.5-1.4c-4.3 0-9.5-2.3-6.6-4.4.7-.5.5-.5-.6-.6s-4.3-1-5.7-1.8-.4-1.4.7-1.6c-2.5.4-7.5-1-10.9-3.4zm37.7-.2c-2.3 1.8-6.7 2.5-8.5 2.5s-2.2.6-.7.8 3 .4 3.7.2 1-.2 2 .2c1 .5 3 .7 4.8.1s4.8-.8 6-.7 2.6.1.1-.6c-2.4-.7-6.4-.2-7.3 0s-3.6.1-2.2-.3 2.6-1.2 3.3-1.8c-.5 0-.8-.2-1.2-.4zm-1.2 5a15 15 0 01-7.8 3c2.7 1 5 3.8 6.7 3.7-.9.5-2 1.2-3 1.4 1.7.4 4.5 0 6.8-1.4 3.9 1.1 8.9.4 10.5-1a12 12 0 01-6.8-2c1.2 0 2.3-.8 3-1.5-3 .5-8-1-9.4-2.2z"/>
    <path fill="#00d860" d="M427.6 438.2c1.1-.1 2.1-.9 3-1.4-2.2.7-11.4-.8-14.2-3.2-2.7-2.5-2.7-.6-.8 1.1s5.3 4.4 12 3.5zm6.8 5.9c-1.2.6-6.7 1-8.5.6s-2.6-.2-2.1.5.6 1.4-.9 1.2-4 .1-5.2.5c-1 .4-2.4 1.4 0 1 2.2-.4 4.3-.9 6-.4s8 .6 9.2 0 .4-.5-.2-.5-.8-.3 0-.7 1.5-1.5 1.7-2.2zm-53.5-7.5a65 65 0 01-12 3.2 16.8 16.8 0 01-6 1.8c1 .8 4.4 1.6 5.8 1.2-.7.8-2.5 1.7-3.2 2 2-.2 4.5.3 5.5.4a15.4 15.4 0 01-8.3 1.8c.6 1 1.5 1.8 2.7 1.8a14 14 0 01-7 .2c.7 1.3 1.3 2 2.2 2.2-2 .2-4.6.6-6.8-.7 1.7 2.2 5.4 3 11 2.3 5.5-.6 10.1-3 11.4-4.1-2.3.3-5.4.4-7 .1 3.1-.7 9.8-3.6 11-4.7a6.2 6.2 0 01-3.5-1c1.8.2 8.1-.6 10-1.3a7.4 7.4 0 01-4.4-2.9 43.2 43.2 0 0021.5.7c1-.3 1.2-1.6-.9-1.4-3.6.2-10.5-.8-12.3-1.7a12.8 12.8 0 005.1 2.3c-3.3 1-8 1.6-14.8-2.2z"/>
    <path fill="#00d860" d="M365.5 444.9c.7-.4 2.4-1.3 3.2-2a11 11 0 01-5.8-1.2c1.3 0 3.4-.7 6-1.8-4.7-.2-7.9-.2-9.6-1s-4.7-.7-5.9-.4-.7 2.1 4.1 1.6c-2 1.4-7.5 2-9.6 1.4.5 1.7 1 3.4.4 4.3 2.7 1.5 9.8 3.5 13.2 3.2-3-1.2-4.7-2.4-2.2-2.7s4-.8 6.2-1.4z"/>
    <path d="M357.6 453.2c6.1-.5 14.3-.6 20.9-6.1 1.7-1.5 2.8-1 1.2.5-3.5 3-12.1 7.3-20.3 7.4-3.4 0-5-1.5-1.8-1.8z"/>
    <path fill="#00d860" d="M403.6 443c-1.5.6-5.8 1.3-7.1 1.2-1.3-.2-3.1-.3-4.2.3s-1 1 .3 1.2 3.3.2 4.2.2a6.8 6.8 0 00-2.2 2c2-.6 5.8.3 7 1-1 .2-1.9-.1-2.6-.5 3.5 3.7 13.8 3.7 15.4 3-.7.6-1.5 1.2-2.2 1.4 2.9.5 6.2.4 9.5-1.5a29 29 0 01-5.2-.2 6.2 6.2 0 012.5-1.5 17 17 0 00-6.3.4c.4-.8 1-1.7 1.9-2a39 39 0 01-13.6-1.4c3.7.4 7.6-1.7 9.3-1.7-2.8 0-5.9-.7-6.7-1.9zm-12.9 2.9c-2.5.5-6.3 1.5-7.3 2s-2.1 1 .1 1a228.3 228.3 0 01.8-.2c-.9 0-2 0-.3-.6s3.9-1.7 6.7-2.2zm-5 6c.8 0 4.8 0 6.3-1.4 1.6 1.2 4.7 3 6.7 3s1.8.5 0 .7c-1.7.2-5.1-.9-6.8-2.2-2.3.9-4.3.2-6.3-.2zm-29.8 17.3c4 1.5 9.2 2.7 13 1.4 2.3 1.9 6.8 2 9.2 1.5 2.4-.5 4.6-.8 7.3.1s8.2 1 9.8 2.3c-1.4 0-4.4 0-5.2.2-.7.2-.3.6 1 1.3a26.9 26.9 0 00-14.2 3.6 8 8 0 017.5-4.7c-2.3-.8-9.7-.9-12.1.6-.7-.8-1.6-2-1.6-2.5-4 2.2-11.6-1-14.7-3.8zm-10.2-7.3c4.7-.6 8-2.1 9.4-3.6.8.8 4.3 1.6 8 .4a1.9 1.9 0 00-.5 2.3c-2.4 0-7.2 1.3-8.8 2.1-1.6.8-6.3 1.4-7.8.6s-1.6-1.6-.3-1.8z"/>
    <path fill="#00d860" d="M362.6 461c-2.5 0-7.2 1.3-8.8 2.1.3.7.5 1.7.6 2.4a56 56 0 0119.2-2c-1.9 0-5.6 2-7.6 2.3 5-.4 9.9.7 11.2 1 1.2.3 1.5 1.3.5 2.2s-1.4 1 .7 1c2 .1 6.3-.1 8.2-2-.8-.8-2.8-.5-3.3-1.1a8.9 8.9 0 003.4-2.1c-3.4 0-4.7-.1-5.9-.4-1.1-.3-2-.6-.6-1.3a8.3 8.3 0 002.6-2c-2.6.7-6.5 1.3-9.8-1.3 1.3.4 4.2.2 5.2-.3-1.1-.6-2-1-2.9-1 2.6-1.3 7.8-2.5 14.3.1 3.2-.2 6.6-.1 9 .5 1.1-1 3.3-3.4 4.4-4-7.5.6-21.1-.9-20.9-4.8-2.4 3.2-8 5-10.5 4.5-.3 1.1.7 2.5 1.6 3.3-2.5.5-6.9 1-9 .5 1.2 1.2 3.4 2.2 4.7 2-2.7 0-4.1.6-6.3.4z"/>
    <path fill="#00d860" d="M378.4 470c2 .1 6.3-.1 8.2-2-.8-.8-2.8-.5-3.3-1.1a9 9 0 003.4-2.1c5.4-.5 10.2-.2 12.5-1 2.4-.6 8.3-.2 9.4-.6-5.1.9-6.1 1.3-6.4 2.2s1.7 1.5 2.9 1.5c-2.3-.1-5.2 2.3-5.5 3.3-3-1.8-4.5.3-4.9 1a9.8 9.8 0 00-7.7 1.5c-2.8-.8-4.6-1.3-7.5-.8 1.8-.4 1.4-1.6-1.1-1.8zm24.6-15c1.8 0 5.6.2 7 0a8.3 8.3 0 00-2.4 1.6c4.4-.5 10.3-.8 12-.5-2-.4-4.2 1-5.3 1.7s-.5 1.1 1 1.3 3.5 1.4.8 1-8-.4-9.3-.2-2-.4-.2-.7 3.2-.9 4-1.4c-1.5.4-4.4.4-5.3.1s-1.5-.8-.5-1 .4-.7-.7-.5-3.9 1.3-5.4 2.7c1.6-1.7 3.1-3.2 4.3-4z"/>
    <path d="M383.5 458a11 11 0 008.6 3.8c.8 0 2.4 1.1.3 1.2-5.3.2-8-1-10.4-4.5-.5-.8.4-1.7 1.5-.6zm32.1-45c2.9 1.3 8.6 2.5 13 2.3.8 0 2.3.8.4 1a23 23 0 01-13.7-2.6c-1.1-.6-.8-1.2.3-.7z"/>
    <path fill="#00d860" d="M418.5 413c4.4-.2 7.7-.1 9 1.2 2.5-.8 7-1.3 8-1s2.2-.3-.2-.9c-2.3-.6-7.9-.8-9.6-.4-1.7.3-7.1.5-9 .3.8.1 1.3.2 1.8.7zm17 1.7c2-1.1 8 0 9.7-.9-1.3 1.6 4.1 1.7 8.8.5-1.8 1.1-5.6 1.3-7.3 2s-2.6.2-3.9-.3-4.5-1.8-7.3-1.3z"/>
    <path fill="#00d860" d="M454 414.3c-4.6 1.2-10 1-8.7-.5-1.9.8-7.8-.2-9.8.9 2.1-1.3 3.7-.3 5.3-3 1 .3 3.2.4 4-.6 1.3.3 3.7.9 4.4 1.6.7.7 1.8-.2.9-1.3 2-.8.7 1 5.7-.3 1-.3 3.5-.7 4.4-.8a30.4 30.4 0 01-6.1 4z"/>
    <path fill="#ff0" stroke="#000" stroke-width=".1" d="M373.4 664.2l-.2-22.2c0-1-.5-.8-.5 0v22l.7.2zm7.2-23.4l.8 23.4-.1.2h-.5l-.5-23.6h.3zm6.8 19.8l-.4-19c0-.6-.5-.5-.5.1l.4 18.9h.5z" transform="matrix(4.9436 0 0 4.9441 -1482.9 -2891.1)"/>
    <path fill="#fff" stroke="#000" stroke-width=".1" d="M376.6 644.7l-7-.1c-.3 1.4 1.4 1.3 2 1 .8.5 1.4.5 1.8 0 .6.5 1.4.4 1.7 0 .8.7 1.7 0 1.5-1zm.5 3.4h-7c-1.3 1.2.3 1.8 1.7 1 .2.4 1 .6 1.6.3.6.4 1.4.1 1.8-.3.7.3 1.6.4 2-1zm-.2 4.5h-6.8c-.1 1.1 1.3 1 1.8.7.5.8 1.7.6 2.1.1.7.5 1.3.4 1.6 0 .7.6 1.4-.2 1.3-.8zm.4 4.4l-7.7-.1c-.4 1.3.8 1.5 1.3 1.2.2.7 1.2.5 1.5 0 .4.3.9.1 1.1-.2.1.7 1 .8 1.7.2 1.4 1 2.7-.2 2-1.1zm6.7-1.8h-6.3c.3 1.2.9 1.5 1.9.8.8.8 2 .5 2.3.1 1.4 1.1 2.1-.2 2.1-1zm-.6-4.4l-6.2-.2c.1 1.6 1.6 1.5 2.4.9.5.7 1.5.5 2 0 .7.8 2 .3 1.8-.7zm.8-4.9h-6.6c0 1.1 1.5 1.7 2.6.7.3 1.3 1.5.9 2 .4.8 1 2.5-.2 2-1zm-.4-3.3l-6 .1c0 1 1.4 1.4 1.9.6.3.5 1.3.4 1.6 0 .4.7 1 .2 1.2 0 .7.5 1.4.2 1.3-.7zm6.9 2.2l-7.2-.1c0 .7.7 1 1.2.7 0 .8 1 1 1.7.4.4.7 1.7.8 2.2 0 1 .9 2.2.2 2-1zm-.1 5.9h-7c0 1 1.1 1.3 1.8.8.1.8 1 .9 1.5.4.7.7 1.7.8 2.3 0 .8.3 1.5-.4 1.4-1.2zm-.4 5.3h-5.6c0 1 1.2 1 1.7.5.6.7 1.4.7 1.9.2.7.6 1.9.4 2-.7z" transform="matrix(4.9436 0 0 4.9441 -1482.9 -2891.1)"/>
    <path stroke="#000" stroke-width=".1" d="M381.3 664.4c-3 0-6.1 0-8.2-.2s-2.7-.6-4.2-1.5l-5.6-3.4c-.5-.2-1 .1-.3.5l5.6 3.7c1.5 1 2.5 1.9 3.4 3 1.2 1.3 2 1.3 2.6 1.1s1.4-.5 2.3-.3c.8.2 2 .3 2.6.2.5.5 1.8.4 2.5.2s1.2-.2 1.7-.1h1.7c.5 0 1.8-.3 2.7-.2 1 .2 1.9 0 2.5 0a5 5 0 012-.1c.6-.4.8-.9 1-1.4.6-.1.8-.2.9-.5l.6-1.6h.2v-.6l-.4-.6.2-1 .5-.2-.2-1-8.8.2a2 2 0 00-.6 1.1l-2.6.4c-.3.1-.6.1-.9.5l-1.2 1.8z" transform="matrix(4.9436 0 0 4.9441 -1482.9 -2891.1)"/>
    <path stroke="#000" stroke-width=".1" d="M391.8 660.5l1.3-4.9c.2-.5-.3-.6-.5 0l-1.3 4.9h.5z" transform="matrix(4.9436 0 0 4.9441 -1482.9 -2891.1)"/>
    <path fill="#fff" stroke="#000" stroke-width=".1" d="M396.9 655c-1.1.5-1.7.8-2.2.6-.5-.2-1.1-.3-1.5-.1a.5.5 0 010 .1 493.3 493.3 0 01-1.1 3.8c.8.3 2.2.3 2.5 0 .4-.4 1.3-.3 1.8-.3.3-.4.4-.9.3-1.1s0-.7 0-1 .4-1.4.2-2z" transform="matrix(4.9436 0 0 4.9441 -1482.9 -2891.1)"/>
    <path fill="none" stroke="#000" stroke-width=".1" d="M371.7 645.6a53.2 53.2 0 01-8 14m2 1.2a54.5 54.5 0 0011.4-12.6m-7 4.3c-.3 2.7-1.1 7.5-1.5 10m2.6-4c-1 1-2.3 2.6-3.4 3.5m12.7-8.9c-.8.8-1.7 1.8-2.6 2m3.1-1.8a7 7 0 002.7 1.9m-3.2-6.2a8.5 8.5 0 01-3 1.7m3.4-1.6c.6.6 1.3 1.3 2.2 1.7m-5.4-4.9a7 7 0 002.7-1.5m.3 0c.7.7 2 1.4 2.7 1.6m-5.5-3.3a4 4 0 002.4-1.4m.3-.2c.7.6 2 1.4 2.7 1.5m3.2.8c-.4.5-1.5 1.3-2.2 1.3m2.7-1.3c.3.5 1.1 1.3 1.6 1.3m-4.8 6a7.2 7.2 0 002.8-1.9m.5.1a5.6 5.6 0 001.9 1.8m-4.1 5.2c.4 0 1.5-.6 1.8-1.3m.6-.3a7 7 0 002 1.7m-18.7.9c1.3-.4 3.8-2 5.1-3.5m-2.4 1.9c1 .7 2.3 1.5 3.2 1.7m-6.2-4.5a8 8 0 002.4-1.5m.5-.1c.3.4 2.4 1.7 3.3 1.7m-3.8-5.9a9.8 9.8 0 01-2.5 1.4m3-1.4c.7.5 2.2 1.4 3.1 1.4m-3.6-5.4c-.6.6-1.6 1.6-2.4 1.9m2.9-1.8c.4.7 1.6 1.7 2.4 1.8m8 2.6c1.9 3.3 5.3 7.4 8.7 9.6m-14.1-13.3c2.8 4 8.2 12.7 13.4 15.9m1-3.4a18.4 18.4 0 01-4.9 4.6m4.5-3.5c-1.7-2.8-2.6-6.3-4-11m-14 12.4l2 6m-2.4-6.1l1.9 6m-2.4-6.3l1.8 6.2m-2-6.1l1.4 6.1m0-.2h1.7m-.2-.6h-1.6m1.4-.5h-1.6m1.4-.5H374m1.3-.6H374m-.1-.5h1.3m-1.4-.4h1.3m-1.4-.5h1.2m-1.3-.4h1.1m-1.2-.5h1m-1.1-.4h1m-1.1-.3h1m-1-.4h.9m-2.6 0l-1.2 5m1.5-5l-1 5.2m1.3-5.4l-.8 5.5m1.2-5.6l-.6 5.8m.7-.4h-2m2-.5h-2.3m2.3-.6h-2.1m2-.5h-1.9m2-.5h-1.9m1.9-.6H371m1.7-.5H371m1.6-.5h-1.5m1.5-.5h-1.3m1.3-.5h-1.2m1.2-.3h-1.1m1 5.5v-5.9m6.5-2l-4 8.1m4.3-8.2l-3.4 8.3m3.6-8.4l-2.7 8.4m3-8.2l-2.2 8.2m.1-.3h-2.5m2.7-.8h-2.4m2.5-.6h-2m2.4-.6h-2m2.1-.6h-1.9m2.1-.6h-1.8m2-.7h-1.6m1.7-.5h-1.5m1.7-.6h-1.4m1.5-.4H378m1.4-.4H378m1.3-.4h-1m1-.3h-.9m1-.4h-.8m1-.4h-.8m.8-.3h-.7m3.4-.1l1.7 5.6m-1.4-5.5l2.1 5.4m-1.8-5.4l2.5 5.3m.6-.5l-2.8-4.9m2.8 5h-2m1.8-.8h-2m1.7-.6h-1.9m1.5-.7h-1.7m1.3-.6h-1.5m1.1-.7H383m1-.7h-1.2m.8-.6h-1m3.2.1L384 662m2.3-5.4l-1.6 5.3m.7-.1l1.2-5m.3.2l-1 4.7m-1.7-.3h1.7m-1.5-.6h1.7m-1.5-.7h1.6m-1.3-.6h1.5m-1.3-.7h1.4m-1.2-.6h1.3m-1-.7h1.2m-1-.6h1m.9.1l.8 3.6m-.5-3.8l1.1 3.7m-.7-3.7l1.2 3.7m-.7-3.5l1.3 3.5m-.1-.3h-1.7m1.5-.5h-1.6m1.4-.5h-1.5m1.3-.6H388m1.2-.5h-1.4m1.2-.5h-1.3m1.1-.5h-1.2" transform="matrix(4.9436 0 0 4.9441 -1482.9 -2891.1)"/>
    <path fill="#00b800" d="M358 403c4-2.6 10.7-2.1 14.2.5 4.1-2.3 11.6-1.7 15 1.4 5.3-3.6 9.8-4.1 15-.7 4-2.8 10-3 14.8.3 4.7-2.2 9.8-4 14.3.8-2.7-2-8.5-3.6-14.3.9-4.5-4.5-12.3-2.9-14.9.2a9.7 9.7 0 00-14.6.3c-4.6-3.9-11.6-4-15.3-1-3-2.4-7.3-4.3-14.3-2.7z"/>
    <path fill="#cf6200" d="M428.1 397.5a303 303 0 01-74.7-1.4c-3.3-.9-2.4-2.1.4-1.5a240 240 0 0048.5 2c2.6-3.4 6.6-9.2 7.9-10.8s1.7-1.8 4.3-2.2l11-1.9.1 1.6c-.3.2-.6.7-.9.8 0 2.6.6 9 1 11.4.6 0 1.2-.3 1.5-.4 1-.2 1.9 2.1 1 2.4z"/>
    <path fill="#cf6200" d="M461.6 398.5l2.7-.1c.8 0 2-.6 2.5-1.9l2.7-8-2-3.1a174.4 174.4 0 001-6.7l2.7-1c.1-.6-.1-2.2-.7-2.7-8.8.4-35 1.3-40 1.3-1 0-1.6 0-2 1.6-2.5 9.2 1 22 10.1 29.3.7.6 1.5.1.4-.9a32.8 32.8 0 01-5.5-7.1l6.5-.2c.6 2.2 2.2 6.8 2.5 7.5s1.1 1 .8-.2c-1-2.7-1.4-5.8-1.8-7.3l6.8-.1c0 2.4.3 5.7.4 6.6s.8 1 .8 0v-6.7l6-.2-.5 6.6c-.1 1 .4 1.6.7 0l.9-6.6 4.1-.1c0 1.3-1.4 5.5-1.7 6.6s.2 1.1.6 0a30 30 0 002-6.6z"/>
    <path d="M432.4 397.4c-.6-1.4-2.8-6.4-3-10l8.7-.3a104 104 0 001.7 10.1l-7.4.2zm7.3-10.3l1.5 10.2 7-.2-.3-10.2-8.2.2zm-10-9c-.3 1.9-.4 5.8-.3 7.5l8.6-.1-.7-7.6-7.6.2zm9.2-.2c0 1.8.5 6.2.6 7.5l8.3-.2-.4-7.6-8.5.3zm10.2-.3c0 1.7.3 6.4.2 7.6l7.3-.2c0-1.7.3-6.5.2-7.7l-7.7.3zm9.1-.3l-.2 7.7 7.9-.3c.3-1.6 1-6 1.1-7.8l-8.8.4zm8 9c-2.7.2-7 .3-8.3.3a262 262 0 01-.9 10.2l8-.2a68 68 0 002.9-7.9l-1.7-2.3zm-16.8.5l.3 10.2 6-.2.8-10.2-7 .2zm-34.1-2l-3.3.7a246.9 246.9 0 01-8 11c4 0 10.2-.2 11.7-.3l-.4-11.3zm1.5-.2l.4 11.5 7-.5-1-12.2-6.4 1.2z"/>
    <path stroke="#000" stroke-width=".1" d="M377.3 657h-7.7v-.2l7.7.1zm6-6.2c.1 0 .1 0 0 0l-6-.1c-.1 0-.1 0 0 0h6zm-6.4 1.7c.1 0 .1.1 0 .1h-6.8c-.1 0 0-.1 0-.1h6.8zm.2-4.4c.1 0 .1.1 0 .1H370c-.1 0-.1-.1 0-.1h7.1zm-.5-3.5c.1 0 .1.1 0 .1h-6.9c-.1 0 0-.2 0-.2l7 .1z" transform="matrix(4.9436 0 0 4.9441 -1482.9 -2891.1)"/>
    <path fill="#fff" stroke="#000" stroke-width=".1" d="M383.8 642.6l-6 .1 6-.1z" transform="matrix(4.9436 0 0 4.9441 -1482.9 -2891.1)"/>
    <path stroke="#000" stroke-width=".1" d="M384.1 646c.1 0 .1 0 0 0h-6.5c-.1 0-.1 0 0 0h6.5zm6.5 4.6v.1h-7c-.2 0-.2 0 0 0h7zm0-5.9c.2 0 .2.1 0 .1h-7.1c-.1 0-.1-.1 0-.1h7.2zm-6.6 10.4c.1 0 .1.1 0 .1h-6.4v-.1h6.4zm6.2.9c.1 0 .1 0 0 0h-5.6 5.6z" transform="matrix(4.9436 0 0 4.9441 -1482.9 -2891.1)"/>
    <path fill="#ef072d" stroke="#000" stroke-width=".1" d="M395.3 657a3 3 0 000-1.4 1.1 1.1 0 01-.6 0 3 3 0 00-.3-.2c0 .4-.2 1.5-.4 1.9-.3 0-1 0-1.3-.2l-.3 1a3.5 3.5 0 001.5 0c0 .6-.1 1.1-.4 1.5.5 0 1 0 1.1-.3.3-.4.3-1 .4-1.3l.5-.1.5-.2.7-.1v-.6l.2-.4-1.6.5z" transform="matrix(4.9436 0 0 4.9441 -1482.9 -2891.1)"/>
    <path stroke="#000" stroke-width=".1" d="M370.5 623.2c-.8 0-2.6 0-3 .2-.3.2-.4.3.2.4s1.7.5 2.3.8c.6.4 1 1 1 2a6 6 0 003 6.3c.1.1.2.2.1.6l-.3 1.1c0 .2-.1.4.2.3a20 20 0 01-1 1.6c-1.6-.2-3 0-3 1.8 0 .2 0 .4.2 0 .3-.4.6-.8 1.3-1-.4.7-.6 1.3-.5 1.7 0 .3.2.5.4 0 .1-.4.5-.8.8-1.1.2-.1.2-.1.1.2s.1.9.3 1.1c.2.2.3.1.2-.2 0-.4 0-1.1.5-1.3.6-.4 1.2-.2 1.4.2.3.5.5 0 .2-.4s-.6-.9-1-.9l1-1.7c0-.2.2-.3.4-.2 0 .1.2.1.3-.2l.7-1.4.6-.2 1 1.5v.6c0 .4-.4 1.3-.5 1.6-1.2 0-1.8 0-2.2.7-.2.3.1.4.4.3a2 2 0 011-.3c.2 0 .3.2 0 .3-.7.3-1.2.8-1.2 1.5 0 .2.2.3.3 0 .3-.5.8-.9 1.3-1 0 .5.1 1.3.5 1.5.3.2.3 0 .2-.3-.2-.5 0-1 .3-1.3.5-.6 1.7.2 2 .4.2.2.4.3.2-.3-.1-.7-1.1-1-2-1.2l1.2-4.2c.5.3 1-.5 1.8-.2 1.4.6 3.5 1.9 3.8 2.2.4.3.5.2.7 0 .2-.1.5 0 .8 0 .2.1.4.2.1-.4a7.2 7.2 0 00-2.4-2.6c.8 0 1.8 0 1.8-.2s-1.2-.6-1.7-.6a3.3 3.3 0 001.6-.8c.2-.2 0-.3-.8-.3-2.1 0-3.2 0-4.3-.6-1.8-1-2.9-2.2-3.8-2.6-.4-.3-.7-.9-1-1.4-.5-1.5-.5-2.3-1.8-2.8s-3 .1-3.7.8z" transform="matrix(4.9436 0 0 4.9441 -1482.9 -2891.1)"/>
    <path fill="#fff" stroke="#000" stroke-width=".1" d="M370.6 623.6h-1.7s-.2 0 0 0l1.5.4c.3 0 .2.3 0 .2s-.4 0-.2.2c1 .7 1.2 1 1 3.7l.5.4c.2 0 .1.2 0 .1s-.5 0-.2.2.5.2.2.2-.6.2 0 .1c.5 0 .8.2 0 .3-.6 0-.4.2 0 .2.7 0 .5.2.3.2s-.3.2.2.2h.7c.1 0 .2 0 0 .1-.2 0-.2.2.1.2s.5 0 .2.1c-.1 0-.3.1 0 .2.7 0 .8.2.6.3s-.3.1 0 .1.6.1.3.2c-.2 0-.3.2 0 .2s.5.2.3.3-.3.2 0 .2.4.1.2.2c-.2.2-.3.2-.5 0 0-.2-.2-.2-.2 0l-.2-.3c-.1-.3-.3-.3-.3 0s-.2.1-.4 0a3.3 3.3 0 004 .8c.1 0 .2 0 .3.3l.6 1.1c.1.2.3 0 .3-.2l.6-1.7c0-.3.4-.5.3.3.3-.2 1.5-.3 2.5 0a12.2 12.2 0 012.7 1.5.6.6 0 00.5.1c.3 0 .4 0-.1-.5s-.3-.7 0-.5c.3.2.5.1.2-.2l-1-.9c-.1 0-.1-.2-.6-.2h-1.5c-.2 0-.4 0 .2.2.6.2 1.7 1 2 1.2s.4.6-.1.2-2.4-1.5-3.6-2c-2.7.3-4.9.6-6.5-1.1-.8-.9-.8-2.8.5-3.6-.2-.2-.2-.4-.1-.4v-.6c-.2-.1-.4-.3-.4-.5-.3 0-.5-.5-1-.3s-.6 0-.8-.1c-.1-.2-.2-.2-.5-.2s-.5 0-.5-.2.2-.2.6 0c.7.3 1.3.5 1.8-.2.4-.6-.2-1.1-1-1.3-.9-.2-1.5.5-1.9.8z" transform="matrix(4.9436 0 0 4.9441 -1482.9 -2891.1)"/>
    <path fill="#fff" stroke="#000" stroke-width=".1" d="M375 623.3a2.8 2.8 0 00-1-.6c-.3 0-.3.2-.2.3v.6c.2.1.3.3 0 .3-.2.2 0 .9.3.7h.2s0 .3.2.3 0 .2 0 .3h.2c.2 0 .1.4-.1.5.3 0 .4 0 .4.2.1.2.4.3.4.6s0 .3-.4.2-.4 0-.5.2-.2.3 0 .3.4.1.1.2-.6 0-.7.3c0 .3 0 .4.2.3l.7-.4.5.1c.2.1 0 .5-.2.3s-.4 0-.5.1l-.5.2c-.2 0-.4 0-.3.5 0 1.4 1.1 2.4 3.1 2.4h3.3c-.6-.4-1-.6-1.3-.6h-.3c.1-.1 0-.3-.1-.3s-.3-.2-.5 0l-1 .5c-.2 0-.5 0-.2-.2l.9-.4c.2 0 .1-.2.1-.2s0-.3.3-.2c.6.4 1.5.9 1.8.9s.4-.2.2-.3-.3-.3-.3-.4.1-.2.5 0c.4.3 1 .5 1.3.6s.5.1 0-.2l-2.3-1.7c-.3-.3-.3 0-.2.2s-.3.3-.5.1-.3-.3 0-.4.2-.2-.1-.5c-.4-.3-.5-.3-.4 0 .1.3.1.5-.2.4s-.6-.3-.3-.4c.2-.2.5-.3 0-.6s-.2 0-.3.2-.4.2-.5 0-.3-.3-.2-.4.1-.2.3 0 .4 0 .1-.3-.4-.2-.3 0-.2.4-.6 0c-.2-.1-.2-.3 0-.4.2 0 .2-.1 0-.3-.7-1.2-.4-2.1-1.2-3z" transform="matrix(4.9436 0 0 4.9441 -1482.9 -2891.1)"/>
    <path fill="#cf6200" d="M371.2 191.5c-.3.5-.5.5-1 .9-.8.5-1 2 .3 1.8.9-.1 1.4-.7 1.7-1a11.1 11.1 0 00-1-1.7zm-4-3.2c-1 1-1.2 1.4-.7 1.4.6 0 .4 0 0 .7-.5.7.8 1 1.3.6s.6-.7.9 0c.2.5 1 0 1.6-.5a14.2 14.2 0 00-3.1-2.2zm-1.8 5.5c-1.3.7-.8 4 1.1 3.1.6-.3 1.2-.2 1 .3l.1.9a6 6 0 002.2-1.6c1.2-1.3 0-1.3-1.7-1.3-1.8 0-2.4-.3-.6-1.3 1.5-1 .5-1.6-1.6-1.3.3.4.1 1-.5 1.2zm7.4 7.6c-1-1-.4-1.6.7-2l.5-.5-.8-3.3c-.6.1-1.2 1.3-1.4 2-.2.8-.5 1.3-1.3 1-.8-.2-1.6.7-1.7 1.6h.5c.4.1.6.6.5 1.1 2.3 0 2.7 1.5 3 2.6.5 1.2 1 1 1.4.4.3-.7-.5-1.9-1.4-3z"/>
    <path fill="#ff0" d="M373.4 214.8c-.4 1-.4.9-1.8 1-1.4 0-3 .3-3.8 1-.4.5-2.8.6-2.8 1.7 0 1 0 1.9 1 2 1 0 1.2.2.8 1-.4.7-.7 2 1.1 2.1 1.8.1 3.1-.4 3.6.6.4 1 0 2.7.3 3.3s1.6 1 3.4 1.6c1.3.3 6 .6 7.5.4 1.5-.2 1-1-.5-1.2-1.5-.1-2.6-.3-3-1.4-.3-1-.6-1.6.3-2.5.8-1 1.6-1.6 1.1-3.1s-1.2-3.3-3-3.7c-1.7-.5-1.1-2.8-2.8-3-.7-.1-1.2-.1-1.4.2z"/>
    <path fill="#cf6200" d="M365.1 228.8c1.5.1 2.8.5 1.6.9-1.3.3-2 1-.4 1.1 1.6.2 2.9.7 1.7 1.1s-1.4 1.1 0 1 2.1.8 1.1 1.4c-1 .6-1.7 1-2.4 0-.6-1-1-1.4-1.2-.6-.2.7-.6.2-1.1-1s-1.5-1.4-1.2-.5-1 1-2 .6a22.4 22.4 0 003.7 3c1.5-.5 3.3 0 3.9 0 .6 0 2.6.5 3.7 1s1.8-.4 1.4-1.5c-.5-1.2-.6-.8-1.1-.2-.6.7-.7-.2-.7-1.6 0-1.1-.7-.8-1-.1s-.8-.4-.5-1.1 0-1-.6-.8-.6 0-.7-1.3-.6-1.1-.8-.6-.7-.2-1.5-1.2c-.7-1-1.5-.4-2.8.2l1 .2z"/>
    <path fill="#ff0" d="M380.7 236.7c-7 2.9-12 1.6-15.9-1 1.6-.4 3.4 0 4 0 .6.1 2.6.6 3.7 1.2s1.8-.5 1.4-1.6c1 1.2 1.6 2 2.8 2 1.2-.1 3-.3 4-.6zm-15-32.3c-.4-1.4-.8-1.8-1.6-1.7-.7 0-1-.1-2-.4-.8-.4-2 0-2 1.6s-1.2 2.3-2.5 3.2c-1.3 1-2 1.8-2 3.3s-.4 2-1.2 3l-1.5 1.7 1.7 1c.9.4.6 1-.4.8s-1.8.3-.3.6 2.3 1 .8 1c-1.5 0-3.2 1.2-.3.9 2.9-.3 4 1 .6 1-3.4.2-2.1 1.2-.3 1.2 3.2 0 2.2 1 1.4 1-.8 0-1.2 1 .9.8h.1c.3-.3.5-.7.7-1.2.3-1 .7-4 1.9-4.9 1.2-.8 1.8-2 1.8-2.9s1.8-4.6 3-5.5 1.7-3 1.3-4.5z"/>
    <path fill="#cf6200" d="M363.2 204.4c-1.2-.8-2.4-.3-2.4 1.2s-.7 2-1.8 2.5a4.4 4.4 0 00-2.1 3c-.2 1.2.2 2-.7 3-.8.9-1 1.6-.3 2.2.6.5.6.6.8 1.3.3.8 1.7 0 1.7-.9s.4-.9 1.3-1.4c1-.5 2.5-3 2.2-3.7-.4-.6-1.2-1.2-.1-2.2 1.1-1 2.3-1 2.3-2s.3-1.2.7-1.6c.3-.3-.8-.8-1.6-1.4z"/>
    <path d="M363.2 203.2c-.8-.3-1.2 1.4-.1 1.6s1.2-1.2.1-1.6zm-.2 2.2c-.8 0-1.8 1.2-.3 1s2-1.2.3-1zm-1.6 2c-1 .5-.7 1.7.5.8s1.6-1.8-.5-.7zm-1.4 1.9c-1 .4-.7 1.6.6.7 1.2-.8 1.6-1.8-.6-.7z"/>
    <path d="M358.2 210c-.9.5-.3 1.7 1 .9s1.2-2-1-.8zm1 1.2c-.8.4-.2 1.6 1 .8s1.3-2-1-.8z"/>
    <path d="M357.8 211.6c-1 .5-.4 1.6 1 .8s1.1-1.9-1-.8zm1 1.3c-1 .4-.4 1.6.9.7 1.3-.8 1.2-1.8-1-.7z"/>
    <path d="M357.3 213.6c-1 .4-.4 1.6 1 .8s1.1-1.9-1-.8z"/>
    <path d="M357.4 214.7c-1 .5-.4 1.6 1 .8s1.1-1.9-1-.8z"/>
    <path fill="#cf6200" d="M356.7 225.6c-1 0-1.5 1.3-.4 1.6s1.4.3 1.4 1.2.3 2 1.5 2.1c1.2.1 2.3-1.3 1.2-1.7-1-.4-2-.8-2-1.7-.1-1-1-1.6-1.7-1.5z"/>
    <path fill="#ff0" d="M388.2 218.2l.6.6c.8.7 2.4 0 2.2-.6s-1-2.4 1-.9l11.8 8.2c2.4 1.7.8 2-.3 1.4l-6.2-3c-2-1.1-2.2-.7-2.5-.3-.2.3 0 1 .7 1.7-1.2.2-3 0-3.6-1.3-.6-1.5-2.2-3.3-3.2-4.7-.4-.5-.6-.8-.5-1.1z"/>
    <path fill="#00d860" d="M452 428.7c-1.7 1-3.8 3-2.4 5.7l.5-.3a158 158 0 0016.3-24l.1-.7a22.6 22.6 0 01-5.8 3.5c.8 2-2.8 4.7-4.7 5.5.8 1.3.5 3.2-1.2 3.6.4 1.1-.9 1.1-2.4 1.8s-2.3 1.1-2.8 2c.8-.5 2-1 2.6-.7s.8 1.1-.4 1.4-2 .9-2.3 1.4c1.7-.6 4-.3 2.4.8z"/>
    <path stroke="#000" stroke-width=".1" d="M376 628.4c-.4-.3-.5-.1-.4 0s0 .4-.3.5h-1c-.2 0-.5.4 0 .3l1.6-.3c.2 0 .4-.2 0-.5zm.7.6c-.3-.3-.4-.2-.3 0s-.1.3-.3.3l-1.4.4c-.4 0-.4.3.1.3s1.5-.5 1.6-.5.2-.3.3-.2.3 0 0-.3zm.3.8l-1 .5c-.3 0-.5.3 0 .3s1-.5 1.2-.6l.4-.2s.4-.1 0-.4-.8 0-.6.1 0 .3 0 .3z" transform="matrix(4.9436 0 0 4.9441 -1482.9 -2891.1)"/>
    <path d="M360.6 190.5c-3.1-2-6.7 2.3-3.2 4.6 3 2.1 6.2-2.6 3.2-4.6z"/>
    <path fill="#fff" d="M356.7 192.4h1c-.3 1 .7 2.4 2.2 2.1-1.2.9-3.5-.1-3.2-2.1zm12.2 46.8c1 .3 4.2.6 5.3.7l-1.4 2.8c-.3.8-.5.9-.5-.4s-.8-2.1-1.5-.8l-1.3 2.4c-.3.6-.8.8-.7-.6v-4z"/>
    <path fill="none" stroke="#000" stroke-width=".3" d="M399.7 640.8c0 16.3-2.6 33.9-23.8 42.3-21.1-8.4-23.7-26-23.8-42.3h47.6zm0 0c0-6.2-.3-12.2-.2-17.4a63.6 63.6 0 00-23.6-4.3c-5.3 0-15.7.8-23.6 4.3.2 5.2-.2 11.2-.2 17.4h47.6z" transform="matrix(4.9436 0 0 4.9441 -1482.9 -2891.1)"/>
  </g>
</svg>
