<svg xmlns="http://www.w3.org/2000/svg" id="flag-icon-css-xk" viewBox="0 0 512 512">
  <path fill="#244AA5" d="M0 0h512v512H0z"/>
  <path fill="#D0A650" d="M202.3 245.7l1.3-.7 1.6-.5s.8-.4 1.2-.4c.4 0 1.3.5 1.5.9.3.4 1.7 1 1.7 1s1 .4 1.1 0c.2-.2.6-.5 1-.5s.6-.4.6-.7c0-.3.2-.7.5-1.1.3-.4 1-.6 1-.6s1-.4 1-1 1.1-1 1.7-1c.5-.1 0-.4 1.3-.2 1.4.1 1.6-.3 1.7-.7 0-.5 0-.9.9-.8.8.1 1.3.1 1.3-.4 0-.4.8-.7-.6-1-1.4-.5-1.3-.2-1.4-.8-.1-.7 0-.6-1-.7-1 0-.4-.5-.5-1 0-.5-.3-.7-.5-1-.2-.4-.7-.4-.7-.8 0-.5 0-.8-.6-.8s-.7 0-.7-.4c0-.5.1-.9.6-.9s.8-.4.7-.9v-1.5l.6-.8 2.3-2c.2-.3.9-.6 1.2 0 .3.7.5.9.8 1.2.2.3 1 0 1.2-.2.2-.4.2-1.5.7-2.2.5-.6.8-1 .9-1.4s.3-1 .9-1 .9-.7.9-1.1.2-.9 1-1c.6 0 1-.5 1.2.1.2.7.4.7.9.9.4.2 1 .5 1.4.2.4-.3.5-.8 1-.5.5.3.9 0 1-.6l.2-1.5s.1-.4 1-.4.2-.5.6-.8c.5-.4.5-.7 1-.5.6.2 1.5-.2 1-.7-.4-.6-1.4-1.4-.9-2 .6-.6.8-1.7.3-1.8-.6-.1-1.4.1-1.5-.5-.1-.6-.3-1 .3-1.2.7 0 1.9 0 2.2-.4s1.5-.5 1.5-1.4c0-1 .3-1 .4-1.6.1-.5.1-1.6-.3-2.1a9.5 9.5 0 01-1.3-1.6 2 2 0 00-1.2-1c-.7-.2-1.3-.3-1.3-.8 0-.6.5 0 .5-1.3s-1-1.6-1-1.6l-1.3-.8s-2.4-.6-3-.6-1.4-.7-.7-1.1c.8-.5 1-1.2.7-1.8s-.5-1-1.5-1.3c-1-.3-1.3-.5-.9-1.1.5-.6.6-1 1.2-.6.5.4 1.4.6 2.2.2.7-.3 1-.6 1.4-.2.3.3.8.7 1.4.2.5-.6 1.5-.6 2-.4.5.3 1.6.2 2 0 .3-.2 1-.8 1-1.1s.5-1 1-1.2c.4-.3 1-1.1 1.5-1.1s.6-.5.6-.9.4-1 .5-1.2c0-.3 1-.7 1.6-.1.7.5 1.5.7 1.5.7h1.4c.5-.2 1.1-.4 1.8 0 .6.5 1.6.5 1.6.5l.1-1c0-.4.2-1-.1-1.2-.4-.3-.9-.6-.1-1.2.7-.5.7-.4 1.4-.4l1.8.1c.6 0 1.5.5 1.5 1s.4.9.8 1.1c.5.3 1 .5.9 1-.2.4-.2.7.3.7.6-.1.8.2.8.6s.1.7.7.9c.6.2.8.5.8 1l.1 1c.1.4.8 1.1.8 1.1s1 1.2-.3.6-1.6-.8-2-.7c-.5 0-.8.3-.8.3l-1 .2c-.6 0-1 1-.3 1.1.8.2 1 .3 1 1s-.2.4-.6.8c-.4.4-.7.2-1.3.2-.7 0-.8.5-.8 1s.2.4.5.8c.3.5.8.5 1.2.1.5-.4.9-.7 1.1.1s.7.8 1.2.8c.6 0 .8 0 1.2-.3.5-.2 1 0 1.2.7 0 .7.5.8 1 1 .4.3.7.5.8.9.1.4.4.6.8.3.5-.2 1.2-.4 1.5 0l.8 1v.8l1.8.6.2.8c0 .4.3.5.7.4h1.3s.7-.3.7-.8.3-.6.7-.6c.5 0 1.5.3 1.8-.2.3-.5 1.1-.7 1.7-.4l2.4.9s-.2 0 .3 1c.6.8 1.6.8 1.6.8l.3 1.1c.2.3 1 .5 1.5.2.4-.4 1-.8 1.6-.8.6 0 1 0 1-.3s-.6-.6-.6-1.2c0-.5.6-.5.7-1 0-.5.6 0 1 .3.3.2.8.7.8 1s.8 1.5 1.2 1.7c.5.2 1.7.3 2-.2.4-.4 1.3-.6 1.3.5-.1 1-.3 1 .3 1.4.7.4.8 1.6.2 1.9-.5.3-.7.4-.7 1s-.2 1.3.2 1.6c.5.4.8.6.8 1s.5 1.9.5 1.9.3 1.5.2 1.8-.2 1 .6.9c.8-.1 1-.1 1 .6s.3 1-.2 1.2c-.4.2-.7 1-.3 1.3.5.1.9.4 1 .7 0 .4.8 1 1.3.6.4-.3.5-.5.9-.6.4 0 .6-.3.3-.7-.4-.5-.5-.9-.1-1.2.4-.2.5-1 .5-1s.6-.8 1.2 0c.7.7.8.4 1.2.4.5 0 .7.5.7.9s1 .3 1 1l.1 2.3s0 1 .6 1.3c.5.4.4.4.1.9-.2.4-.1 1-.1 1.4s.1.5-.3.9c-.5.3-.7.7-.4 1.2.3.6.2.9 1 1.5.7.6.6.9.6 1.3s.7 1 .7 1.4c0 .5.6 1 1 1s1 .9 1 1.3l.2 1.6s-.1.2.4.2c.6 0 1 .6 1.1 0 .2-.7.8-.8 1.1-1 .4-.2 1.2-.5 1.5-.3.4.3.9.3 1.2.3h2.2s.4 0 .7.7c.3.7 1.1 1.4.7 1.8-.5.3-.5 1 0 1 .6 0 1.2 0 1.2.4 0 .5 0 .8.5.5s.8-.3 1 0c.1.4.5.4 1 .6.4.3.6.1.9-.2.3-.4 1.4-.7 1.4-.7s1.5-.3 2-.2l1.3.5s.4.9.2 1.4c-.2.5-.4.4-.2 1.2.2.8-.2.9-.5.8-.4-.1-.8-.1-.8.6s-.4.8-.4 1.4 0 .5-.3.8c-.4.2-.5.7 0 .8.6 0 .4.6.4 1v1s0 .5-.6.5c-.7 0-1.2 0-1.3.4s-.8 1-.2 1.5c.7.4.5.7.1.8-.4.2-.6 1 0 1.3.8.3.7.5.3.9-.5.3-1.4.6-1.4 1 0 .6-.2.6-.8.7s-.8.7-.1 1.6c.6.9.8.7 1.3.7.4 0 .4-.7.4-.7h2c.5 0 1.2 0 1.5-.2.4-.2 1.4-.7 1.4.1 0 .8.2.7.7 1 .4.4.5.1 1 .6.3.5.4.1.6-.5.3-.6.9-1.2 1.3-.5s.5.5 1 .5c.6 0 .8.3.8.7s.6.4 1.2.3.7.4 1 .8c.3.4.4.4.8.4.3 0 .7 0 1-.4.3-.3.6-.8 1-.2s1.1.4 1.3-.2c.2-.6 1-1.1 1.5-.4.4.6.8.6 1.3.7.4.1 1.1.1 1.4.5.3.5 1.2 1.2.5 1.7-.6.5-1.4 1.2-.8 1.3.6.2 1 .4 1.3.8.4.4 1.6.6 2.1.7.6 0 1 .2 1.7-.4.6-.5 1.3-.5 1.2.2-.1.7.3 1.5.3 1.5s.4 1 .4 1.5c0 .4 0 .5.8 1s.7.9 1.4.4c.6-.6.8-.8.8-1.2v-1.4s1-.2 1.3-.4 1.9-1 2.2-.7.9.2 1.2 0h1.5c.4 0 1 0 1.8-.6.7-.6.7-.4 1.2 0s.4 1 .2 1.3c-.3.3 0 1 .6 1 .7 0 .8.4.8.9l.2 1.3c.1.4.1.5 1.1.8 1 .2.9.8 1 1.3.2.4.2.7-.3.7-.6 0-.8.3-.8.7-.1.4-1 .6-1 .6l-.8-.2s-.6 0-.8.4c-.3.3-.9 1-.5 1.6.4.6.4 1 0 1.2-.4.3-.6 1.5-1 1.3s-.8 0-1.1.2c-.4.2-.3 1.4.4 1.8.8.5 1 1 1 1l.8 1.3-.5.7c-.2.4-.7 1.3-.2 1.5s.3 1-.2 1c-.6 0-1.2-.2-1.3.5-.1.7-.4.5-1 .4-.5 0-2-.4-2.3.3-.3.7-.4 1-1 .8-.7 0-.5 1-.3 1.5.2.4.9 1 .9 1s.5.4.5 1.3-.4.8-.7.2-1.1-.5-1.2.1c-.1.7-.2 1.7-.9 1.7-.6 0-.9.2-1.2.6-.2.3-.7.9-.7 1.2s-.1.7-.6.8c-.4 0-.5 1-.5 1s-1.1.2-1.2.6c-.1.4 0 1.1-.9 1.2-.9.1-1.4.7-1.7 1.1-.3.5-.4.8 0 1.2.4.4.6 1.8 1 2 .6.3 1 .4.8 1 0 .8-.6 1.3.1 1.3.8 0 1.2.2 1 .8-.3.6-.3.6-.9.9-.5.3-.8.3-.8 1s.2.6-.3.9c-.5.2-.5.6-.5 1 0 .6-.1.4-.7 1s-1.3.6-1.8.4c-.4-.1-.5-.1-.6-.6-.1-.6-1-.6-1.4-.5-.5.1-1.1.6-1.1.6s-.8.5-.5 1c.4.4.2 1-.4 1-.7 0-2.2.7-2.6 0-.5-.9-1.8-1.4-2-.3-.2 1 .6.9.5 2-.1 1-.3 1-.7 1.3-.3.3-.3.6-.4 1-.1.4-.2 1.4.4 1.7.7.4 1 1.3 1 1.8s0 1 .6 1c.7 0 1.2 0 1.3-.7.1-.6 1.4-.9 1.5.3s0 1.8.6 2.3c.4.5.8 1.2 1.2 1.5s1 2.4 1 2.4c-1 .2-1.2 1.4-1.8 1.6-.3.1-.6 0-1 .2-.2.2-.2.5-.5.7-.7.3-.5-.8-1.4-.4-.7.3-.8 1.2-1.8.8-.6-.2-1-2.3-1.1-2.8 0-.3-.7-1.2-.9-1.5-.6-1-1.8 0-2.2-.3-.7-.4-.4-1.2-1.3-1.2-2-.2-.6 1.1-1.4 1.4-1.5.6-1.5-1.4-2.7-.5-.4.3.7.6.4 1.2-.2.4-1.4 1.2-1.3 1.8.1.8 1 1 1.2 1.7.7 1.7-.4 3-2.2 1.6-1-.8-1.1-2.2-2.6-2.1-.4 0-.5.3-.9.4-.3 0-.6-.3-1-.2-.5.2 0 .6-.1.9l-.9.8c-.4.5-.3 1-.9 1.5-.5.3-.9.1-1.4.7-.6.6-.7 1.5-1.4 2.1-.4.3-.6-.9-1 0-.2 0-.2.1-.3.2v.6c1 2-1 2.6-1.7 4-.3.5.5 1 .2 1.4-.2.4-1.1 1.2-1.2 1.4 0 .2-.1.6-.3.8-.2.2-.7 0-.8.3 0 .3.6.6.8.8.2.2-.1.5 0 .6 1 1 .4.7.9 1.6 0 .2.4 0 .5.3.1.3-.2.3-.1.6l.8 1.1c0 .3-1.5 1-1.8 1-.9 0 .8-1.8-.7-1.8-.6 0-.6 1.4-.8 1.6h-.8c-.9 0-1.5 1.1-1.9 1.2h-1.1c-.4 0-.8.4-1.2.4-.2 0-.3-.2-.5-.3l-1.6-.5c-.3 0-.8.4-1 .2-.2-.1.3-.7-.4-1l-.6-1.4c.2-.8.5-1.7.4-2.5-.2-1-1.5-1.7-2-2.4-.2-.5-.4-2-1-2.3a5 5 0 01-1.4-1.7c0-.2.2-.5 0-.8-.2-.3-.7-.4-.8-.8-.1-.4 0-1.5-.4-1.7-.4-.3-3.3-.6-4-.7-.3 0-.6 0-.9-.3l-.4-.5-.9.1h-.7c-1 .6-1.1 1.4-2 2-.9.8-1.8.7-2.7 1.5-.6.5-1 1.7-1.5 2.2-.2.3-.6 0-.7.1l-1.6 1.5s0 .3-.2.4l-1 .2h-1c-.4.2-.4.7-2 1l-.3.2-.6.5h-.6c-.4 0-.7.3-1 .4-.9 0-2.2-.4-2.8-.1-.4.1-1.5 1.3-2 1.4h-.6c-.2 0-.5 1.4-.6 1.7l-2 1.7-.5.8c-.2.2-.5.4-.8.4-.4 0-1-.3-1.3-.4-.7 0-2.7-.2-3.3 0-.6 0-.4 1.9-2 2l-2.7.4s-.6-.4-1.2-.2c-.2 0-.8.7-.8 1v.3l.1.3c-.3.5-1.1 1-1.4 1.6l-.2.3c-.2.2-1.3.6-1.4.8-.3.6.7 1.2.6 1.5-.2.8-1.4 1.6-1.7 2.4-.1.3.4 1.3.3 1.7 0 1-.4 2.3-.4 3.3l.2 1.3.6.4c.1.2 1.4 2.6 1.4 2.9.2 1.7-2.3 1.1-.8 2.9l.6.8 2.3 1.8c0 .3-1.6.6-1.8.8-.8.8-1.4 2.1-2.1 2.9-.5.4-.9 0-1.4 1-.2.4 0 1.3-.3 1.6-.4.4-.7-.2-1 0-.2 0-.3.6-.4.7-.5.3-4.2 2.3-4.5 2.1-.2 0-.4-.7-.4-.9a2 2 0 00-.5-.8c-1-.8-2.4-1-3.3 0-.3.3-.3.7-.6 1l-1.6 1.2s-.3.4-.5.3c-.3 0-1.2-1-1.5-1.3-.4-.5-1.6-1.7-1.7-2.2 0-2-1.5-3.9-2.1-5.8h1c1-.6.7-2.4 2.5-1.7.3-.3.2-.6.7-.9.2 0 .5-.2.5-.3.7-1 1.4-4.6.8-5.6-.6-.8-1.2-.8-1.7-2.2v-1.2c0-.4-.7-2.4-.8-2.6-.1-.1-.5-.3-.5-.5 0-.1-.2-2.3-.1-2.5-.6-1.7-2.8-2.8-2.9-3l-.8-1.4c-.3-.5-.3-.8-.5-1.3 0-.2-.4-.4-.4-.7 0-.4 1.2-1.4 1.2-2.1 0-.3-.8-1-.7-1.5.2-.4 1-1.4 1-2 0-.6-1.3-2-1.5-2.7 0-.4.5-.7.4-.9l-1.7-1.8c-.1-.3.5-.6 0-1-.4-.5 0-.3-.1-.7l-.8-1.2-1.3-4.6c-.2-.3-.5-.5-.6-.8l-.4-1s-1.3-.4-1.5-.8c-.2-.3-.2-1.2-.6-1.7-.1-.3-.4-.2-.6-.4l-.2-.5c-.4-.5-1.1 0-1.6-2l-2-1.4-.2-.3c-.5-.2-1.2-.2-1.6-.6l-1.6-.1-.4-.6c-.6-.2-1.7-.1-2.2-.6-.5-.4-.6-2.2-1.3-2h-.4c-.5-.7-2.2-.8-3-1.2-.2-.1-.8 0-.8-.2l.1-1-1-1.1c-.6-.2-.3-.3-.8-.5-1.1-.1-1.2 0-2 .8l-.8.3c-.4.2-.5 1-1 .6l-.5-.4c-.3-.3-.5-.1-.6-.6-1-.5-3.6 1.2-4.2 0-.5-.3-.8 0-1.2-.3-.2-.2.5-2.4-1.4-3.2l1.4-1v-.8c0-.3.2-1 .1-1.3l-.4-.8c-.2-.3 0-.6-.2-1l-.6-.3c-.5-.4-1-.6-1.4-1.1l-.3-.4c-.3-.2-1.5-.6-1.4-1.1 0-.2.2-.2.3-.4 0-.2 0-.5.2-.7.5-.7 1.7-.4 1.5-1.7 0-.6-.5-1.1-.6-1.8l-.4-.5c-1.2-.1-1-1.3-1.4-1.6-1.3-.8-2.2-.3-.8-2 .2-.5-1.2-1.4-1.5-1.6-.5-.5-.2-1.5-.4-2-.1-.3-1-.7-1.2-1l-.4-.8v-.2c.3-.2.2-.5 0-.8 0-.2-.4-.1-.5-.2-1.2-1-2.5-1.5-4-2-.4-.2-.2-.5-.6-.7l-2.3-1c-.3 0-.4-.9-.6-1.1a3 3 0 00-.7-.8c0-.8-.5-.9-1-1.3l-.2-.5.5-1.7c.1-.3.5-.6.5-1l-.4-1.8c-.6-1.6-1.3-1.4-1-3.6.1-.5 0-.7.3-1.1l.2-.3 1-.7c.3-.4.5-1.5 1-1.8.2-.3 1.2-.8 1.3-1 .2-.2.4-.7.3-1h-1c-.1 0-.5-.4-.9-.4l-.2-.4-.2-.2-1-.3c-.5-.2-1-.2-1.5-.5-.7-.4-1.5-1.6-2.3-1.7-1-.2-1.6 0-2.5 0-.6.1-.6-.2-1-.4-.7-.2-.2.4-1.7-.1-.2-.2 0-.7.1-.9-.2 0-.5.1-.8 0-1.2-.3-.8-1.4-1-2-.2-.3-.7-.2-1-.2v-.3c.3-.3-.4-1.1-.4-1.2 0-.3 1.5-.5 1.7-.5.1-.2-.1-.4-.1-.6l.3-1.4-1-1c.1-.1.4-.3.4-.5.7-2 1.8-.4 2.8-2.2l.5-1h.2l.6.2c.1-.2.4-.3.6-.4l.4.1c1.8-.4 1.4-1 2.4-1.8.3-.2 1.1-.2 1.5-.4.4.2 1 .8 1.7 1.1.5.2 2.3.6 2.6.8.4.2.5.7.9.9 1 .5.4-.4 1.4-.2 1 .2 1.8 1 2.8 1.4h.7c.3 0 2-.4 2.1-.3l.7.3c.2 0 .4-.5.5-.5.7.1.8.4 1.7.3 0 0 .5-2.6 1-2.7.2 0 .9.6 1 .7.4 0 0-.6 0-.6 0-.2-.6-1.8-.5-2 0 0 .4.2.6 0 .6 0 1.2-.2 1.6-.6l.9-1.2c0-.2-.2-.7-.1-.8l.7-.5c.3-.3.4-.8.8-1 1.7-.2 2.2-1.5 3.7-1.7h.5l.3.5c.1.1 1 .7 1.3.7l.3-.3c.3 0 1.1-.5 1.2-.8 0 0-.2-.2 0-.4 0-.1 1-1 1.2-1h1.1l.5.5h.9c.2 0 .3-.4.5-.5l.1.1z"/>
  <g id="h" fill="#FFF">
    <path id="star" d="M281.4 124.5l12.9 39.7-33.8-24.5h41.7l-33.7 24.5 12.9-39.7z"/>
    <path id="star_1_" d="M331.6 133.4l12.9 39.7-33.8-24.5h41.8L318.7 173l12.9-39.7z"/>
    <path id="star_2_" d="M379.5 150.8l13 39.7-33.8-24.5h41.7l-33.8 24.5 13-39.7z"/>
  </g>
  <g id="h_1_">
    <path id="star_3_" fill="#FFF" d="M230.4 124.5l-13 39.7 33.8-24.5h-41.7l33.8 24.5-13-39.7z"/>
    <path id="star_4_" fill="#FFF" d="M180.2 133.4l-13 39.7 33.8-24.5h-41.7L193 173l-13-39.7z"/>
    <g transform="scale(-1 1)">
      <path id="star_5_" fill="#FFF" d="M-132.5 150.8l-12.9 39.7 33.8-24.5h-41.7l33.7 24.5-12.9-39.7z"/>
    </g>
  </g>
</svg>
