<?xml version="1.0" encoding="UTF-8"?>
<svg width="24px" height="24px" viewBox="0 0 24 24" version="1.1" xmlns="http://www.w3.org/2000/svg" xmlns:xlink="http://www.w3.org/1999/xlink">
       <path d="M21,10 L3,10 L3,5 C3,4.44771525 3.44771525,4 4,4 L20,4 C20.5522847,4 21,4.44771525 21,5 L21,10 Z M16,6 C15.4477153,6 15,6.44771525 15,7 C15,7.55228475 15.4477153,8 16,8 C16.5522847,8 17,7.55228475 17,7 C17,6.44771525 16.5522847,6 16,6 Z M8,6 C8.55228475,6 9,6.44771525 9,7 C9,7.55228475 8.55228475,8 8,8 C7.44771525,8 7,7.55228475 7,7 C7,6.44771525 7.44771525,6 8,6 Z M21,11 L21,21 C21,21.5522847 20.5522847,22 20,22 L4,22 C3.44771525,22 3,21.5522847 3,21 L3,11 L21,11 Z M8,13 C7.44771525,13 7,13.5223345 7,14.1666667 L7,18.8333333 C7,19.4776655 7.44771525,20 8,20 L16,20 C16.5522847,20 17,19.4776655 17,18.8333333 L17,14.1666667 C17,13.5223345 16.5522847,13 16,13 L8,13 Z" id="Combined-Shape" fill="#000000"></path>
        <path d="M6,3 L10,3 C10.5522847,3 11,3.44771525 11,4 L5,4 C5,3.44771525 5.44771525,3 6,3 Z M16,3 L18,3 C18.5522847,3 19,3.44771525 19,4 L15,4 C15,3.44771525 15.4477153,3 16,3 Z" id="Combined-Shape" fill="#000000" opacity="0.3"></path>
</svg>
