<?xml version="1.0" encoding="UTF-8"?>
<svg width="24px" height="24px" viewBox="0 0 24 24" version="1.1" xmlns="http://www.w3.org/2000/svg" xmlns:xlink="http://www.w3.org/1999/xlink">
       <path d="M2.76702366,20 C2.59202225,20 2.4200849,19.9540749 2.2683913,19.8668136 C1.78966338,19.5914265 1.62482304,18.9800956 1.90021009,18.5013676 L11.1332403,2.45083309 C11.221302,2.29774818 11.3483346,2.17071522 11.5014193,2.08265312 C11.9801465,1.80726488 12.5914779,1.97210369 12.8668662,2.45083092 L22.0999499,18.5013655 C22.187212,18.6530596 22.2331375,18.8249977 22.2331375,19 C22.2331375,19.5522847 21.7854223,20 21.2331375,20 L2.76702366,20 Z M11,18 L15,12 L12.9444444,12 L12.9444444,8 L9,14 L11,14 L11,18 Z" id="Combined-Shape" fill="#000000"></path>
</svg>
