<?xml version="1.0" encoding="UTF-8"?>
<svg width="24px" height="24px" viewBox="0 0 24 24" version="1.1" xmlns="http://www.w3.org/2000/svg" xmlns:xlink="http://www.w3.org/1999/xlink">
        <path d="M6,4 C5.44771525,4 5,4.44771525 5,5 L5,8 L19,8 L19,5 C19,4.44771525 18.5522847,4 18,4 L6,4 Z M6,2 L18,2 C19.6568542,2 21,3.34314575 21,5 L21,20 C21,21.6568542 19.6568542,23 18,23 L6,23 C4.34314575,23 3,21.6568542 3,20 L3,5 C3,3.34314575 4.34314575,2 6,2 Z M12,21.5 C15.3137085,21.5 18,18.8137085 18,15.5 C18,12.1862915 15.3137085,9.5 12,9.5 C8.6862915,9.5 6,12.1862915 6,15.5 C6,18.8137085 8.6862915,21.5 12,21.5 Z M7,7 C7.55228475,7 8,6.55228475 8,6 C8,5.44771525 7.55228475,5 7,5 C6.44771525,5 6,5.44771525 6,6 C6,6.55228475 6.44771525,7 7,7 Z M10,7 C10.5522847,7 11,6.55228475 11,6 C11,5.44771525 10.5522847,5 10,5 C9.44771525,5 9,5.44771525 9,6 C9,6.55228475 9.44771525,7 10,7 Z" id="Combined-Shape" fill="#000000" fill-rule="nonzero"></path>
        <path d="M12,19.5 C14.209139,19.5 16,17.709139 16,15.5 C16,13.290861 14.209139,11.5 12,11.5 C9.790861,11.5 8,13.290861 8,15.5 C8,17.709139 9.790861,19.5 12,19.5 Z" id="Path" fill="#000000" opacity="0.3"></path>
</svg>
