<svg width="80" height="48" viewBox="0 0 80 48" fill="none" xmlns="http://www.w3.org/2000/svg">
<rect width="80" height="48" rx="6" fill="#F6F8FA"/>
<path d="M36.71 33.6833H32.059L34.9658 15.328H39.6174L36.71 33.6833ZM28.1462 15.328L23.712 27.9529L23.1873 25.2343L23.1878 25.2353L21.6228 16.9807C21.6228 16.9807 21.4336 15.328 19.4165 15.328H12.086L12 15.6388C12 15.6388 14.2417 16.118 16.8652 17.7368L20.906 33.6838H25.7521L33.1518 15.328H28.1462V15.328ZM64.7293 33.6833H69L65.2765 15.3275H61.5376C59.8111 15.3275 59.3906 16.6954 59.3906 16.6954L52.4538 33.6833H57.3023L58.2719 30.9568H64.1845L64.7293 33.6833ZM59.6113 27.1904L62.0552 20.3214L63.43 27.1904H59.6113ZM52.8175 19.742L53.4813 15.8003C53.4813 15.8003 51.4331 15 49.298 15C46.9899 15 41.5088 16.0365 41.5088 21.0765C41.5088 25.8186 47.9418 25.8775 47.9418 28.3683C47.9418 30.8591 42.1716 30.4128 40.2673 28.8421L39.5758 32.9635C39.5758 32.9635 41.6526 34 44.8257 34C47.9996 34 52.7879 32.3115 52.7879 27.7158C52.7879 22.9433 46.297 22.499 46.297 20.424C46.2975 18.3486 50.8272 18.6152 52.8175 19.742V19.742Z" fill="#2566AF"/>
<path d="M23.1878 25.2348L21.6228 16.9802C21.6228 16.9802 21.4336 15.3275 19.4165 15.3275H12.086L12 15.6383C12 15.6383 15.5233 16.3886 18.9028 19.1995C22.1341 21.8862 23.1878 25.2348 23.1878 25.2348Z" fill="#E6A540"/>
</svg>
