<?xml version="1.0" encoding="iso-8859-1"?>
<!-- Generator: Adobe Illustrator 19.0.0, SVG Export Plug-In . SVG Version: 6.00 Build 0)  -->
<svg xmlns="http://www.w3.org/2000/svg" xmlns:xlink="http://www.w3.org/1999/xlink" version="1.1" id="Layer_1" x="0px" y="0px" viewBox="0 0 512 512" style="enable-background:new 0 0 512 512;" xml:space="preserve">
<rect style="fill:#FF4B55;" width="512" height="512"/>
<path style="fill:#464655;" d="M403.368,319.789c-7.368-4.632-11.789,2.737-11.789,2.737l-21.474,2.526L380.842,316  c7.789,0.632,8.842-1.684,10.947-4.842c2.105-3.158,10.947-1.684,10.947-1.684c-1.263-9.684-13.474-4.211-13.474-4.211  c-9.895-1.053-11.579,6.947-11.579,6.947L362.316,324l-33.822-10.021c3.509-3.865,6.262-7.673,6.664-9.979  c0.674-3.872-24.983-10.387-32.842-18.526c-7.859-8.141-10.667-21.053-7.017-24.421c3.649-3.368,6.737,6.174,10.666,14.035  c3.93,7.86,11.229,14.035,16,10.105c4.772-3.929-5.053-9.824-9.544-18.245s3.368-11.51,7.017-10.668  c3.65,0.842,5.895,18.247,14.597,27.229c8.701,8.982,16.561,7.298,17.403,1.684c0.842-5.613-14.362-12.531-17.45-17.304  c-3.087-4.771-3.883-14.135,1.169-14.414c5.053-0.281,23.578,27.329,39.299,37.895c17.122,11.508,30.877-1.965,28.632-7.579  c-2.246-5.615-12.632-3.368-24.702-6.457c-12.07-3.087-24.421-19.368-28.07-28.35c-3.649-8.982-0.632-8.982,1.474-8.14  c2.105,0.842,10.105,12.632,25.474,21.684c15.368,9.053,26.105,0.421,27.368-1.684c1.263-2.105,6.118-11.556-9.684-9.334  c-17.965,2.526-28.21-8.14-35.579-13.824c-7.368-5.684-10.316-13.474-6.947-16.632s14.456,11.087,31.299,15.579  c15.471,4.125,21.754-2.526,21.333-8.632c-0.421-6.105-4-3.579-21.474-5.263s-29.684-18.105-30.316-19.158  c-0.632-1.053-0.421-6.947,8.421-1.263c8.842,5.684,24.632,9.053,33.895,8.632s11.158-12.842,6.737-14.947  c-4.421-2.105-5.474,1.053-15.579,3.158c-10.105,2.105-29.053-8.211-33.684-13.053c-4.632-4.842,0.421-8,2.737-7.579  s17.474,9.263,30.947,8.842s19.158-12.842,18.737-16.632c-0.421-3.789-4.211-6.947-9.895-3.158s-13.263,8.211-25.895,6.105  c-12.631-2.105-18.526-10.526-16.842-13.684s13.895,2.316,33.263,0.211s20.211-19.158,18.316-22.526s-6.526-2.316-13.053,3.789  c-6.526,6.105-19.158,7.368-29.053,7.368s-10.105-4.842-8.632-8.211c1.474-3.368,12-2.526,26.737-7.158s23.158-16.421,25.474-23.789  s-3.368-13.053-5.684-13.053c-2.316,0-0.842-3.368-10.947,11.158S352.632,128,352.632,128c-1.895-3.579-4.842-4.842-4.842-4.842  c-17.895,3.579-39.48,19.03-39.48,19.03s3.805,12.204-0.951,21.715c-6.122,12.243-27.106,4.597-21.4-14.742  c4.752-16.102,23.143-25.837,38.678-27.582c15.535-1.743,16.327-7.609,16.327-7.609s-16.313,5.313-16.604-1.979  c3.368,0.684,8.333,0.982,16.762,0.235c12.523-1.109,19.498-9.987,13.95-11.888c-5.548-1.901-3.17,3.804-12.682,8.243  c-6.784,3.166-13.905,1.74-17.468,0.658c3.292-7.188,17.151-3.512,17.151-3.512c0.159-12.523-16.459-8.044-16.459-8.044  c-7.299-15.72-49.965,2.526-49.965,2.526l10.105,8.14C261.053,122.105,256,148.211,256,148.211s-5.053-26.105-29.754-39.86  l10.105-8.14c0,0-42.667-18.247-49.965-2.526c0,0-16.618-4.479-16.459,8.044c0,0,13.859-3.676,17.151,3.512  c-3.563,1.082-10.684,2.508-17.468-0.658c-9.512-4.439-7.133-10.145-12.682-8.243c-5.548,1.901,1.427,10.78,13.95,11.888  c8.429,0.747,13.394,0.449,16.762-0.235c-0.291,7.291-16.604,1.979-16.604,1.979s0.793,5.865,16.327,7.609  c15.535,1.745,33.926,11.48,38.678,27.582c5.706,19.339-15.278,26.985-21.4,14.742c-4.756-9.512-0.951-21.715-0.951-21.715  s-21.586-15.451-39.48-19.03c0,0-2.947,1.263-4.842,4.842c0,0-26.526-5.684-36.632-20.211s-8.632-11.158-10.947-11.158  s-8,5.684-5.684,13.053s10.737,19.158,25.474,23.789c14.737,4.632,25.263,3.789,26.737,7.158c1.474,3.368,1.263,8.211-8.632,8.211  s-22.526-1.263-29.053-7.368c-6.526-6.105-11.158-7.158-13.053-3.789c-1.895,3.368-1.053,20.421,18.316,22.526  c19.368,2.105,31.579-3.368,33.263-0.211c1.684,3.158-4.21,11.579-16.842,13.684c-12.631,2.105-20.211-2.316-25.895-6.105  c-5.684-3.789-9.474-0.632-9.895,3.158c-0.421,3.789,5.263,16.211,18.737,16.632s28.632-8.421,30.947-8.842s7.368,2.737,2.737,7.579  c-4.632,4.842-23.579,15.158-33.684,13.053c-10.105-2.105-11.158-5.263-15.579-3.158c-4.421,2.105-2.526,14.526,6.737,14.947  s25.053-2.947,33.895-8.632c8.842-5.684,9.053,0.211,8.421,1.263s-12.842,17.474-30.316,19.158s-21.053-0.842-21.474,5.263  s5.862,12.757,21.333,8.632c16.842-4.492,27.93-18.737,31.299-15.579S160,232,152.632,237.684s-17.614,16.35-35.579,13.824  c-15.803-2.222-10.947,7.229-9.684,9.334s12,10.737,27.368,1.684c15.368-9.053,23.368-20.842,25.474-21.684  c2.105-0.842,5.123-0.842,1.474,8.14s-16,25.263-28.07,28.35c-12.071,3.089-22.456,0.842-24.702,6.457  c-2.245,5.613,11.509,19.087,28.632,7.579c15.72-10.566,34.246-38.176,39.299-37.895c5.053,0.28,4.257,9.643,1.169,14.414  c-3.088,4.773-18.292,11.691-17.45,17.304c0.842,5.613,8.701,7.298,17.403-1.684s10.947-26.387,14.597-27.229  c3.649-0.842,11.508,2.247,7.017,10.668s-14.316,14.316-9.543,18.245c4.771,3.929,12.07-2.245,16-10.105  c3.929-7.86,7.017-17.403,10.666-14.035c3.65,3.368,0.842,16.28-7.017,24.421c-7.859,8.14-33.516,14.655-32.842,18.526  c0.401,2.306,3.155,6.113,6.664,9.979L149.684,324l-15.368-11.789c0,0-1.684-8-11.579-6.947c0,0-12.211-5.474-13.474,4.211  c0,0,8.842-1.474,10.947,1.684s3.158,5.474,10.947,4.842l10.737,9.053l-21.474-2.526c0,0-4.421-7.368-11.789-2.737  c0,0-9.263-2.947-11.579,5.895c0,0,8-1.474,10.105-0.421c0,0,3.158,7.158,13.263,2.947l21.263,1.053l-12,5.895  c0,0-15.158-4.842-14.526,7.789c0,0-4.421,5.053-0.421,10.105c0,0,0.842-5.474,4.842-7.789c0,0,7.789,3.158,12.842-6.105  l15.368-9.263l15.158,7.368c0,0-0.421,8.211,10.737,4.842c0,0,3.789,2.526,4.842,5.895c0,0,4.842-5.263-2.947-11.368  c0,0-1.895-7.158-11.158-4.421l-8.632-4.421l31.938-9.477c5.529,5.266,11.496,9.584,13.586,8.86  c4.122-1.426,7.292-5.706,10.145-11.73c2.854-6.025,15.693-26.947,22.034-26.788c6.34,0.158,9.194,5.23,7.609,14.266  c-1.585,9.035-13.942,26.342-21.942,29.921s-9.263,5.263-16.632,4.632c-7.368-0.632-9.895,2.526-8.211,6.737  s9.972,6.888,18.105,3.789c8.842-3.368,12.211-8,15.579-5.263s-3.579,12.632-13.053,15.579c-9.474,2.947-16.632,1.053-15.158,6.947  c1.474,5.895,11.579,6.316,18.105,2.526c6.526-3.789,13.895-14.316,15.789-10.947c1.895,3.368,0.632,12-5.684,16.632  c-6.316,4.632-13.5,1.906-14.947,6.105c-2.105,6.105,5.263,10.105,10.947,7.789s12.211-9.474,15.158-15.789s8.421-0.842,6.737,5.053  c-1.684,5.895-0.28,10.737-12.351,20L256,431.158l22.456-34.526c-12.071-9.263-10.667-14.105-12.351-20  c-1.684-5.895,3.789-11.368,6.737-5.053s9.474,13.474,15.158,15.789c5.684,2.316,13.053-1.684,10.947-7.789  c-1.447-4.199-8.631-1.474-14.947-6.105c-6.316-4.632-7.579-13.263-5.684-16.632c1.895-3.368,9.263,7.158,15.789,10.947  s16.631,3.368,18.105-2.526c1.474-5.895-5.684-4-15.158-6.947s-16.421-12.842-13.053-15.579s6.737,1.895,15.579,5.263  c8.133,3.099,16.421,0.421,18.105-3.789c1.684-4.211-0.842-7.368-8.211-6.737c-7.368,0.632-8.632-1.053-16.632-4.632  s-20.357-20.887-21.942-29.921c-1.586-9.036,1.268-14.109,7.609-14.266c6.34-0.16,19.18,20.763,22.034,26.788  c2.853,6.025,6.023,10.304,10.145,11.73c2.09,0.724,8.057-3.594,13.586-8.86l31.937,9.477l-8.631,4.421  c-9.263-2.737-11.158,4.421-11.158,4.421c-7.789,6.105-2.947,11.368-2.947,11.368c1.053-3.368,4.842-5.895,4.842-5.895  c11.158,3.368,10.737-4.842,10.737-4.842l15.158-7.368l15.368,9.263c5.053,9.263,12.842,6.105,12.842,6.105  c4,2.316,4.842,7.789,4.842,7.789c4-5.053-0.421-10.105-0.421-10.105c0.632-12.632-14.526-7.789-14.526-7.789l-12-5.895  l21.263-1.053c10.105,4.211,13.263-2.947,13.263-2.947c2.105-1.053,10.105,0.421,10.105,0.421  C412.632,316.842,403.368,319.789,403.368,319.789z"/>
<g>
</g>
<g>
</g>
<g>
</g>
<g>
</g>
<g>
</g>
<g>
</g>
<g>
</g>
<g>
</g>
<g>
</g>
<g>
</g>
<g>
</g>
<g>
</g>
<g>
</g>
<g>
</g>
<g>
</g>
</svg>
