<?xml version="1.0" encoding="iso-8859-1"?>
<!-- Generator: Adobe Illustrator 19.0.0, SVG Export Plug-In . SVG Version: 6.00 Build 0)  -->
<svg xmlns="http://www.w3.org/2000/svg" xmlns:xlink="http://www.w3.org/1999/xlink" version="1.1" id="Layer_1" x="0px" y="0px" viewBox="0 0 512 512" style="enable-background:new 0 0 512 512;" xml:space="preserve">
<rect style="fill:#41479B;" width="203.03" height="512"/>
<rect x="203.03" style="fill:#F5F5F5;" width="308.97" height="512"/>
<g>
	<path style="fill:#FFE15A;" d="M278.22,339.37c-4.703,0-9.266,1.601-12.938,4.538l-22.277,17.821   c-3.672,2.938-8.236,4.539-12.939,4.539h-6.184v-3.557c0-5.463,4.429-9.892,9.892-9.892h10.282v-4.794   c0-4.78-3.875-8.656-8.656-8.656h-4.794l0,0c0-3.714-3.011-6.725-6.725-6.725l0,0c-18.57,0-33.623,15.054-33.623,33.623h-12.909   c-4.703,0-9.265-1.6-12.937-4.538l-22.278-17.822c-3.672-2.938-8.235-4.538-12.937-4.538H31.1c-3.305,0-4.96,3.996-2.623,6.333   l33.954,33.954c4.345,4.345,10.237,6.785,16.381,6.785h24.027l19.726,14.794c4.656,3.492,10.319,5.38,16.139,5.38h24.657   c4.233,0,8.219-1.993,10.759-5.38l2.69-3.587v15.691l-16.595,33.19c-1.644,3.289,0.747,7.158,4.424,7.158h54.297   c2.732,0,4.946-2.214,4.946-4.946v-60.059l9.415,12.553c2.54,3.387,6.526,5.38,10.759,5.38h24.657c5.82,0,11.483-1.888,16.139-5.38   l19.726-14.794h24.028c6.144,0,12.036-2.441,16.381-6.785l33.955-33.955c2.337-2.337,0.682-6.333-2.623-6.333H278.22V339.37z"/>
	<path style="fill:#FFE15A;" d="M205.008,230.412l3.215,9.64l10.162,0.079c1.316,0.01,1.861,1.689,0.803,2.471l-8.175,6.037   l3.065,9.689c0.397,1.254-1.031,2.292-2.102,1.527l-8.267-5.909l-8.267,5.909c-1.07,0.765-2.499-0.273-2.102-1.527l3.065-9.689   l-8.175-6.037c-1.058-0.782-0.513-2.461,0.803-2.471l10.162-0.079l3.215-9.64C202.826,229.164,204.592,229.164,205.008,230.412z"/>
	<path style="fill:#FFE15A;" d="M55.739,291.165l9.09,4.543l7.241-7.13c0.938-0.923,2.51-0.122,2.315,1.179l-1.512,10.049   l9.018,4.684c1.168,0.606,0.891,2.35-0.406,2.566l-10.024,1.667l-1.667,10.024c-0.216,1.298-1.96,1.574-2.566,0.406l-4.684-9.018   l-10.049,1.512c-1.301,0.196-2.102-1.377-1.179-2.315l7.13-7.241l-4.543-9.09C53.314,291.825,54.563,290.577,55.739,291.165z"/>
	<path style="fill:#FFE15A;" d="M353.516,293.002l-4.543,9.09l7.13,7.241c0.923,0.938,0.122,2.51-1.179,2.315l-10.049-1.512   l-4.684,9.018c-0.606,1.168-2.35,0.891-2.566-0.406l-1.667-10.024l-10.024-1.667c-1.298-0.216-1.574-1.96-0.406-2.566l9.018-4.684   l-1.512-10.049c-0.196-1.301,1.377-2.102,2.315-1.179l7.241,7.13l9.09-4.543C352.856,290.577,354.104,291.825,353.516,293.002z"/>
	<path style="fill:#FFE15A;" d="M124.331,245.943l6.659,7.676l9.418-3.816c1.219-0.494,2.366,0.848,1.687,1.975l-5.242,8.706   l6.54,7.778c0.847,1.007-0.076,2.512-1.357,2.215l-9.899-2.296l-5.377,8.623c-0.696,1.116-2.413,0.704-2.526-0.606l-0.876-10.124   l-9.863-2.449c-1.277-0.317-1.415-2.077-0.204-2.59l9.358-3.962l-0.719-10.137C121.838,245.624,123.469,244.949,124.331,245.943z"/>
	<path style="fill:#FFE15A;" d="M285.487,246.937l-0.719,10.137l9.358,3.962c1.212,0.513,1.073,2.273-0.204,2.59l-9.863,2.449   l-0.876,10.124c-0.113,1.311-1.83,1.723-2.526,0.606l-5.377-8.623l-9.899,2.296c-1.282,0.297-2.204-1.208-1.357-2.215l6.54-7.778   l-5.242-8.706c-0.679-1.127,0.468-2.469,1.687-1.975l9.418,3.816l6.659-7.676C283.949,244.949,285.58,245.624,285.487,246.937z"/>
	<path style="fill:#FFE15A;" d="M163.905,234.204l5.034,8.828l9.982-1.905c1.292-0.247,2.155,1.294,1.269,2.267l-6.84,7.516   l4.897,8.905c0.634,1.153-0.564,2.449-1.763,1.908l-9.261-4.183l-6.956,7.409c-0.901,0.959-2.504,0.22-2.359-1.088l1.116-10.101   l-9.195-4.326c-1.191-0.56-0.983-2.313,0.305-2.58l9.951-2.06l1.273-10.082C161.522,233.406,163.253,233.061,163.905,234.204z"/>
	<path style="fill:#FFE15A;" d="M321.77,266.619l-2.682,9.802l8.405,5.711c1.088,0.739,0.609,2.439-0.705,2.5l-10.151,0.478   l-2.834,9.759c-0.367,1.263-2.131,1.333-2.596,0.102l-3.591-9.506l-10.157,0.32c-1.315,0.041-1.926-1.615-0.899-2.437l7.931-6.353   l-3.443-9.561c-0.446-1.238,0.941-2.331,2.04-1.608l8.493,5.58l8.029-6.229C320.649,264.369,322.117,265.35,321.77,266.619z"/>
	<path style="fill:#FFE15A;" d="M87.808,265.176l8.029,6.229l8.493-5.58c1.1-0.722,2.486,0.371,2.04,1.608l-3.443,9.561l7.931,6.353   c1.027,0.823,0.416,2.479-0.899,2.437l-10.157-0.32l-3.591,9.506c-0.465,1.231-2.229,1.161-2.596-0.102l-2.834-9.759l-10.151-0.478   c-1.314-0.062-1.793-1.761-0.705-2.5l8.405-5.711l-2.682-9.802C85.301,265.35,86.769,264.369,87.808,265.176z"/>
	<path style="fill:#FFE15A;" d="M246.061,234.711l1.273,10.082l9.951,2.06c1.288,0.267,1.496,2.02,0.305,2.58l-9.195,4.326   l1.116,10.101c0.145,1.308-1.459,2.047-2.359,1.088l-6.956-7.409l-9.261,4.183c-1.199,0.542-2.397-0.755-1.763-1.908l4.897-8.905   l-6.84-7.516c-0.886-0.973-0.023-2.513,1.269-2.267l9.982,1.905l5.034-8.828C244.165,233.061,245.897,233.406,246.061,234.711z"/>
</g>
<path style="fill:#FF4B55;" d="M116.341,71.606v35.213c0,14.562-11.847,26.409-26.409,26.409s-26.409-11.847-26.409-26.409V71.606  H116.341 M125.145,54H54.72c-4.862,0-8.803,3.941-8.803,8.803v44.016c0,24.309,19.707,44.016,44.016,44.016  s44.016-19.707,44.016-44.016V62.803C133.948,57.941,130.006,54,125.145,54L125.145,54z"/>
<path style="fill:#F5F5F5;" d="M116.341,71.606v35.213c0,14.562-11.847,26.409-26.409,26.409s-26.409-11.847-26.409-26.409V71.606  H116.341"/>
<g>
	<path style="fill:#FFE15A;" d="M58.171,60c2.885,4.458-1.866,9.209-6.324,6.324c-0.284-0.184-0.533-0.433-0.718-0.718   c-2.885-4.458,1.866-9.209,6.324-6.324C57.738,59.467,57.987,59.715,58.171,60z"/>
	<path style="fill:#FFE15A;" d="M128.596,60c2.885,4.458-1.866,9.209-6.324,6.324c-0.284-0.184-0.533-0.433-0.718-0.718   c-2.885-4.458,1.866-9.209,6.324-6.324C128.163,59.467,128.412,59.715,128.596,60z"/>
	<path style="fill:#FFE15A;" d="M58.171,95.212c2.885,4.458-1.866,9.209-6.324,6.324c-0.284-0.184-0.533-0.433-0.718-0.718   c-2.885-4.458,1.866-9.209,6.324-6.324C57.738,94.679,57.987,94.928,58.171,95.212z"/>
	<path style="fill:#FFE15A;" d="M128.596,95.212c2.885,4.458-1.866,9.209-6.324,6.324c-0.284-0.184-0.533-0.433-0.718-0.718   c-2.885-4.458,1.866-9.209,6.324-6.324C128.163,94.679,128.412,94.928,128.596,95.212z"/>
	<path style="fill:#FFE15A;" d="M93.384,60c2.885,4.458-1.866,9.209-6.324,6.324c-0.284-0.184-0.533-0.433-0.718-0.718   c-2.885-4.458,1.866-9.209,6.324-6.324C92.951,59.467,93.2,59.715,93.384,60z"/>
	<path style="fill:#FFE15A;" d="M119.811,127.674c2.885,4.458-1.866,9.209-6.324,6.324c-0.284-0.184-0.533-0.433-0.718-0.717   c-2.885-4.458,1.866-9.209,6.324-6.324C119.378,127.141,119.627,127.389,119.811,127.674z"/>
	<path style="fill:#FFE15A;" d="M67.475,127.674c2.885,4.458-1.866,9.209-6.324,6.324c-0.284-0.184-0.533-0.433-0.718-0.717   c-2.885-4.458,1.866-9.209,6.324-6.324C67.042,127.141,67.291,127.389,67.475,127.674z"/>
</g>
<g>
	<path style="fill:#41479B;" d="M95.617,95.784v7.58c0,3.135-2.55,5.685-5.685,5.685c-3.135,0-5.685-2.55-5.685-5.685v-7.58H95.617"/>
	<path style="fill:#41479B;" d="M95.617,77.811v7.58c0,3.135-2.55,5.685-5.685,5.685c-3.135,0-5.685-2.55-5.685-5.685v-7.58H95.617"/>
	<path style="fill:#41479B;" d="M95.617,113.941v7.58c0,3.135-2.55,5.685-5.685,5.685c-3.135,0-5.685-2.55-5.685-5.685v-7.58H95.617   "/>
	<path style="fill:#41479B;" d="M110.931,95.784v7.58c0,3.135-2.55,5.685-5.685,5.685c-3.135,0-5.685-2.55-5.685-5.685v-7.58   H110.931"/>
	<path style="fill:#41479B;" d="M80.304,95.784v7.58c0,3.135-2.55,5.685-5.685,5.685c-3.135,0-5.685-2.55-5.685-5.685v-7.58H80.304"/>
</g>
<g>
</g>
<g>
</g>
<g>
</g>
<g>
</g>
<g>
</g>
<g>
</g>
<g>
</g>
<g>
</g>
<g>
</g>
<g>
</g>
<g>
</g>
<g>
</g>
<g>
</g>
<g>
</g>
<g>
</g>
</svg>
