<?xml version="1.0" encoding="iso-8859-1"?>
<!-- Generator: Adobe Illustrator 19.0.0, SVG Export Plug-In . SVG Version: 6.00 Build 0)  -->
<svg xmlns="http://www.w3.org/2000/svg" xmlns:xlink="http://www.w3.org/1999/xlink" version="1.1" id="Layer_1" x="0px" y="0px" viewBox="0 0 512 512" style="enable-background:new 0 0 512 512;" xml:space="preserve">
<rect y="0.001" style="fill:#FFE15A;" width="512" height="56.889"/>
<rect y="56.891" style="fill:#FF4B55;" width="512" height="56.889"/>
<rect y="113.781" style="fill:#FFE15A;" width="512" height="56.889"/>
<rect y="170.671" style="fill:#FF4B55;" width="512" height="56.889"/>
<g>
	<rect y="227.561" style="fill:#FFE15A;" width="512" height="56.889"/>
	<rect y="455.11" style="fill:#FFE15A;" width="512" height="56.889"/>
</g>
<rect y="284.44" style="fill:#FF4B55;" width="512" height="56.889"/>
<rect y="341.331" style="fill:#FFE15A;" width="512" height="56.889"/>
<rect y="398.221" style="fill:#FF4B55;" width="512" height="56.889"/>
<path style="fill:#64466E;" d="M343.366,256H0v-256h353.737v245.63C353.737,251.357,349.094,256,343.366,256z"/>
<path style="fill:#F5F5F5;" d="M316.989,115.78h-26.972V84.955h3.853v-7.706h-3.853h-30.826h-3.853v7.706h3.853v30.825h-15.413  V84.955h3.853v-7.706h-3.853h-30.825H209.1v7.706h3.853v30.825h-23.119V77.249h3.853v-7.707h-38.532v7.706h3.853v38.532h-23.119  V84.955h3.853v-7.706h-3.853h-30.825h-3.853v7.706h3.853v30.825H89.651V84.955h3.853v-7.706h-3.853H58.825h-3.853v7.706h3.853  v30.825H31.853H28v7.706h3.853v69.357h26.972h26.972v-23.119c0-4.256,3.45-7.706,7.706-7.706c4.256,0,7.706,3.451,7.706,7.706  v23.119h3.853h30.825h3.853v-23.119c0-4.256,3.45-7.706,7.706-7.706s7.706,3.451,7.706,7.706v23.119h3.853h3.853V165.87  c0-6.384,5.175-11.56,11.56-11.56s11.56,5.176,11.56,11.56v26.972h3.853h3.853v-23.119c0-4.256,3.45-7.706,7.706-7.706  s7.706,3.451,7.706,7.706v23.119h3.853h30.825h3.853v-23.119c0-4.256,3.45-7.706,7.706-7.706s7.706,3.451,7.706,7.706v23.119h26.972  h26.972v-69.357h3.853v-7.706L316.989,115.78L316.989,115.78z M81.945,146.605H66.532v-23.119c0-4.256,3.45-7.706,7.706-7.706  s7.706,3.451,7.706,7.706L81.945,146.605L81.945,146.605z M128.183,146.605H112.77v-23.119c0-4.256,3.45-7.706,7.706-7.706  c4.256,0,7.706,3.451,7.706,7.706v23.119H128.183z M182.127,123.487h-15.413v-15.413c0-4.256,3.45-7.706,7.706-7.706  s7.706,3.451,7.706,7.706v15.413H182.127z M236.072,146.605h-15.413v-23.119c0-4.256,3.45-7.706,7.706-7.706  s7.706,3.451,7.706,7.706v23.119H236.072z M282.31,146.605h-15.413v-23.119c0-4.256,3.45-7.706,7.706-7.706s7.706,3.451,7.706,7.706  v23.119H282.31z"/>
<g>
</g>
<g>
</g>
<g>
</g>
<g>
</g>
<g>
</g>
<g>
</g>
<g>
</g>
<g>
</g>
<g>
</g>
<g>
</g>
<g>
</g>
<g>
</g>
<g>
</g>
<g>
</g>
<g>
</g>
</svg>
