<?xml version="1.0" encoding="iso-8859-1"?>
<!-- Generator: Adobe Illustrator 19.0.0, SVG Export Plug-In . SVG Version: 6.00 Build 0)  -->
<svg xmlns="http://www.w3.org/2000/svg" xmlns:xlink="http://www.w3.org/1999/xlink" version="1.1" id="Layer_1" x="0px" y="0px" viewBox="0 0 512 512" style="enable-background:new 0 0 512 512;" xml:space="preserve">
<rect style="fill:#41479B;" width="170.67" height="512"/>
<rect x="170.67" style="fill:#FFE15A;" width="170.67" height="512"/>
<rect x="341.33" style="fill:#41479B;" width="170.67" height="512"/>
<path style="fill:#464655;" d="M326.621,207.256c0,0-24.564,0-42.987,18.423h12.282c0,0-11.898,21.493-18.039,58.339l-12.666-2.067  v-56.454l12.282,4.021L256,176.552l-21.493,52.966l12.282-4.094v56.528l-12.666,2.067c-6.141-36.846-18.039-58.339-18.039-58.339  h12.282c-18.423-18.423-42.987-18.423-42.987-18.423c30.705,36.846,30.705,98.255,30.705,98.255l30.705-5.117v41.962h18.423v-41.962  l30.705,5.117C295.916,305.511,295.916,244.102,326.621,207.256z"/>
<g>
</g>
<g>
</g>
<g>
</g>
<g>
</g>
<g>
</g>
<g>
</g>
<g>
</g>
<g>
</g>
<g>
</g>
<g>
</g>
<g>
</g>
<g>
</g>
<g>
</g>
<g>
</g>
<g>
</g>
</svg>
