<?xml version="1.0" encoding="iso-8859-1"?>
<!-- Generator: Adobe Illustrator 19.0.0, SVG Export Plug-In . SVG Version: 6.00 Build 0)  -->
<svg xmlns="http://www.w3.org/2000/svg" xmlns:xlink="http://www.w3.org/1999/xlink" version="1.1" id="Layer_1" x="0px" y="0px" viewBox="0 0 512 512" style="enable-background:new 0 0 512 512;" xml:space="preserve">
<rect y="377.26" style="fill:#73AF00;" width="512" height="134.74"/>
<rect style="fill:#FF4B55;" width="512" height="377.26"/>
<rect style="fill:#F5F5F5;" width="107.79" height="512"/>
<path style="fill:#FF4B55;" d="M13.482,489.622h4.764v-13.356h-4.764V489.622z M51.514,489.622h4.767v-13.356h-4.767V489.622z   M89.571,489.622h4.744v-13.356h-4.744V489.622z M32.522,453.815h4.717v-11.129h-4.717V453.815z M70.579,453.815h4.744v-11.129  h-4.744V453.815z M13.482,424.781h4.764v-13.356h-4.764V424.781z M51.514,424.781h4.767v-13.356h-4.767V424.781z M89.571,424.781  h4.744v-13.356h-4.744V424.781z M23.038,442.686h4.717v-11.228h4.767v-11.129h4.717v11.129h4.792v11.228h4.717v11.129H42.03v11.226  h-4.792v11.226h-4.717V465.04h-4.767v-11.226h-4.717v-11.128H23.038z M61.073,442.686h4.764v-11.228h4.742v-11.129h4.744v11.129  h4.742v11.228h4.765v11.129h-4.765v11.226h-4.742v11.226h-4.744V465.04h-4.742v-11.226h-4.764  C61.073,453.814,61.073,442.686,61.073,442.686z M70.579,397.974v11.129H65.79v11.226h-4.717v11.129h-4.792v11.228h-4.767v-11.228  h-4.767v-11.129H42.03v-11.226h-4.792v-11.129h-4.717v11.129h-4.767v11.226h-4.717v11.129h-4.792v11.228h-4.764v11.129h4.764v11.226  h4.792v11.226h4.717v11.129h4.767v11.131h4.767v-11.131h4.742v-11.129h4.717V465.04h4.767v-11.226h4.767v11.226h4.792v11.226h4.764  v11.129h4.742v11.131h4.744v-11.131h4.742v-11.129h4.765V465.04h4.766v-11.226h4.72v-11.129h-4.744v-11.228H84.83v-11.129h-4.765  v-11.226h-4.742v-11.129h-4.744V397.974z M82.362,386.845h2.371v-4.452h2.396v4.452h2.396v4.45h-2.396v4.549h-2.396v-4.549h-2.371  V386.845z M82.362,371.261v6.583h-2.346v6.773H77.62v8.904h2.395v6.677h2.346v6.677h7.162v-6.677h2.371v-6.677h2.346v-8.904h-2.346  v-6.773h-2.371v-6.583H82.362z M18.246,386.746h2.396v-4.45h2.396v4.45h2.321v4.549h-2.321v4.452h-2.396v-4.452h-2.396  C18.246,391.295,18.246,386.746,18.246,386.746z M18.246,371.165v6.679h-2.371v6.677h-2.393v9.001h2.393v6.677h2.371v6.677h7.113  v-6.677h2.396v-6.677h2.324v-9.001h-2.324v-6.677h-2.396v-6.679H18.246z M44.401,386.746h2.346v-4.45h2.421v4.45h2.346v4.549h-2.346  v4.452h-2.421v-4.452h-2.346V386.746z M56.281,386.746h2.396v-4.45h2.396v4.45h2.346v4.549h-2.346v4.452h-2.396v-4.452h-2.396  V386.746z M56.281,371.165v6.679h-4.767v-6.679h-7.113v6.679H42.03v6.677h-2.396v9.001h2.396v6.677h2.371v6.677h7.113v-6.677h4.767  v6.677h7.138v-6.677h2.418v-6.677h2.324v-9.001h-2.324v-6.677h-2.418v-6.679H56.281z M13.482,366.616h4.764v-13.354h-4.764V366.616z   M51.514,366.616h4.767v-13.354h-4.767V366.616z M89.571,366.616h4.744v-13.354h-4.744V366.616z M13.482,310.775h4.764v-8.902  h-4.764V310.775z M89.571,310.775h4.744v-8.902h-4.744V310.775z M51.514,279.517h4.767v-11.129h-4.767V279.517z M13.482,249.323V256  v0.097v6.677h4.764v-6.677V256v-6.677H13.482z M39.635,249.323V256v0.097v6.677h4.767v-6.677V256v-6.677H39.635z M63.419,249.323  V256v0.097v6.677h4.742v-6.677V256v-6.677H63.419z M89.571,249.323V256v0.097v6.677h4.744v-6.677V256v-6.677H89.571z   M58.677,241.484v4.452h-2.396v3.387h-4.767v-3.387h-2.346v-4.452h-4.767v6.677h2.346v3.387h2.421V256v0.097v4.355h-2.421v3.387  h-2.346v6.677h4.767v-4.45h2.346v-3.293h4.767v3.293h2.396v4.45h4.742v-6.677h-2.346v-3.387h-2.396v-4.355V256v-4.452h2.396v-3.387  h2.346v-6.677L58.677,241.484L58.677,241.484z M51.514,243.709h4.767V232.58h-4.767V243.709z M13.482,210.223h4.764v-8.902h-4.764  V210.223z M89.571,210.223h4.744v-8.902h-4.744V210.223z M13.482,158.834h4.764v-13.45h-4.764V158.834z M51.514,158.834h4.767  v-13.45h-4.767V158.834z M89.571,158.834h4.744v-13.45h-4.744V158.834z M32.522,256.193v-0.29l0,0v-4.355h4.717v-7.742h4.792v-9.001  h7.138v-10.547h2.346v-5.131h2.396h2.37v5.032h2.396v10.646h7.16v4.452v4.549h4.742v7.742h4.744V256v4.452h-4.744v7.935h-4.742  v4.452v4.452h-7.16v10.549h-2.396v5.032h-2.37h-2.396v-5.032h-2.346v-10.549H42.03v-8.904h-4.792v-7.935h-4.717L32.522,256.193  L32.522,256.193z M70.579,131.931v11.226H65.79v11.129h-4.717v11.228h-4.792v8.902v2.227h-4.767v-11.129h-4.767v-11.228H42.03  v-11.129h-4.792v-11.226h-4.717v11.226h-4.767v11.129h-4.767v11.228h-4.742v8.902v2.227h-4.764v11.226h4.764v11.226h4.742v11.129  h4.767v11.131h4.767v-11.131h4.717v-11.129h4.792v-11.226h-4.792v-13.453h4.792v2.227v6.774h4.717v17.905h2.421v11.032l-7.138,0.097  v8.904h-4.792v6.677h-4.717v11.226h-4.767v-11.226h-4.767v-6.677h-4.742v-6.679h-4.764v20.13h4.764v9.001h4.742v7.742h4.767V256  v0.097v4.355h-4.767v7.935h-4.742v8.904h-4.764v20.13h4.764v-6.776h4.742v-6.677h4.767V272.84h4.767v11.129h4.717v6.677h4.792v9.001  l7.138,0.097v11.032h-2.421v17.905H42.03v6.677v2.324h-4.792v-13.55h4.792v-11.129h-4.792v-11.129h-4.717v-11.228h-4.767v11.228  h-4.767v11.129h-4.742v11.129h-4.764v11.226h4.764v2.324v8.805h4.792v11.228h4.717v11.226h4.767v11.129l0,0l0,0h4.717v-11.13h4.792  v-11.226h4.717v-11.228h4.767v-11.129h4.767v2.324v8.805h4.792v11.228h4.764v11.226h4.742v11.129h4.744V368.94h4.742v-11.226h4.765  v-11.228h4.741v-11.129h4.744v-11.226h-4.744v-11.129H84.83v-11.129h-4.765v-11.228h-4.742v11.228h-4.744v11.129H65.79v11.129h4.789  v11.226v2.324H65.79v-2.324v-6.677h-4.717v-17.905h-0.679h-1.717v-11.129h1.717h1.283h1.742h2.418v-9.001h4.742v-6.677h4.744V272.84  h4.742v11.129h4.765v6.677h4.766v6.776h4.72v-20.13h-4.72v-8.904H84.83v-7.935h-4.765v-4.355V256v-4.452h4.765v-7.742h4.766v-9.001  h4.72v-20.13h-4.72v6.679H84.83v6.677h-4.765v11.226h-4.742v-11.226h-4.744v-6.677h-4.742v-8.904h-2.418h-1.742h-1.283h-1.717  v-11.129h1.717h0.679v-17.905h4.717v-6.774v-2.227h4.789v2.227v11.226H65.79v11.226h4.789v11.129h4.744v11.131h4.742v-11.131h4.765  v-11.129h4.741v-11.226h4.744v-11.226h-4.744v-11.129H84.83v-11.228h-4.765v-11.129h-4.742V131.93h-4.744V131.931z M18.246,120.802  h2.349v-4.452h2.443v4.452h2.321v4.452h-2.321v4.549h-2.443v-4.549h-2.349C18.246,125.254,18.246,120.802,18.246,120.802z   M18.246,111.801h-2.371v6.774h-2.393v8.904h2.393v6.774h2.371v6.679h7.113v-6.679h2.396v-6.774h2.324v-8.904h-2.324v-6.774h-2.396  v-6.58h-7.113C18.246,105.221,18.246,111.801,18.246,111.801z M44.401,120.802h2.346v-4.452h2.421v4.452h2.346v4.452h-2.346v4.549  h-2.421v-4.549h-2.346V120.802z M56.281,120.802h2.396v-4.452h2.396v4.452h2.346v4.452h-2.346v4.549h-2.396v-4.549h-2.396V120.802z   M44.401,111.801H42.03v6.774h-2.396v8.904h2.396v6.774h2.371v6.679h7.113v-6.679h4.767v6.679h7.138v-6.679h2.418v-6.774h2.324  v-8.904h-2.324v-6.774h-2.418v-6.58h-7.138v6.58h-4.767v-6.58h-7.113V111.801z M82.362,120.705h2.371v-4.355h2.396v4.355h2.396  v4.549h-2.396v4.45h-2.396v-4.45h-2.371V120.705z M82.362,105.124v6.677h-2.346v6.774H77.62v8.904h2.395v6.677h2.346v6.679h7.162  v-6.679h2.371v-6.677h2.346v-8.904h-2.346v-6.774h-2.371v-6.677H82.362z M13.482,100.672h4.764V87.316h-4.764V100.672z   M51.514,100.672h4.767V87.316h-4.767V100.672z M89.571,100.672h4.744V87.316h-4.744V100.672z M32.522,69.413h4.717V58.185h-4.717  V69.413z M70.579,69.413h4.744V58.185h-4.744V69.413z M13.482,35.831h4.764V22.474h-4.764V35.831z M51.514,35.831h4.767V22.474  h-4.767V35.831z M89.571,35.831h4.744V22.474h-4.744V35.831z M23.038,58.185h4.717V47.056h4.767V35.831h4.717v11.226h4.792v11.129  h4.717v11.228H42.03v11.129h-4.792v11.226h-4.717V80.542h-4.767V69.413h-4.717V58.185H23.038z M61.073,58.185h4.764V47.056h4.742  V35.831h4.744v11.226h4.742v11.129h4.765v11.228h-4.765v11.129h-4.742v11.226h-4.744V80.542h-4.742V69.413h-4.764  C61.073,69.413,61.073,58.185,61.073,58.185z M70.579,13.474v11.228h-4.742v11.129h-4.764v11.226h-4.792v11.129h-4.767v-11.13  h-4.767V35.831H42.03V24.702h-4.742V13.474h-4.767v11.228h-4.767v11.129h-4.717v11.226h-4.792v11.129h-4.764v11.228h4.764v11.129  h4.792v11.226h4.717v11.226h4.767v11.129h4.717v-11.129h4.792V91.768h4.717V80.542h4.767V69.413h4.767v11.129h4.792v11.226h4.717  v11.226h4.789v11.129h4.744v-11.129h4.742V91.768h4.765V80.542h4.741V69.413h4.744V58.185h-4.72V47.056H84.83V35.831h-4.765V24.702  h-4.742V13.474H70.579z"/>
<g>
</g>
<g>
</g>
<g>
</g>
<g>
</g>
<g>
</g>
<g>
</g>
<g>
</g>
<g>
</g>
<g>
</g>
<g>
</g>
<g>
</g>
<g>
</g>
<g>
</g>
<g>
</g>
<g>
</g>
</svg>
