<?xml version="1.0" encoding="iso-8859-1"?>
<!-- Generator: Adobe Illustrator 19.0.0, SVG Export Plug-In . SVG Version: 6.00 Build 0)  -->
<svg xmlns="http://www.w3.org/2000/svg" xmlns:xlink="http://www.w3.org/1999/xlink" version="1.1" id="Layer_1" x="0px" y="0px" viewBox="0 0 512 512" style="enable-background:new 0 0 512 512;" xml:space="preserve">
<rect style="fill:#FF4B55;" width="512" height="512"/>
<path style="fill:#F5F5F5;" d="M305.478,261.891c-2.149,0-3.891,1.742-3.891,3.891v143.96c0,11.672,7.782,50.58,81.707,62.253  c73.925-11.672,81.707-50.58,81.707-62.253v-143.96c0-2.149-1.742-3.891-3.891-3.891H305.478z"/>
<path style="fill:#73AF00;" d="M383.294,471.995c61.711-9.744,77.319-38.456,80.796-54.471H302.499  C305.975,433.539,321.583,462.251,383.294,471.995z"/>
<path style="fill:#82AFFF;" d="M433.875,343.598c0,0,3.891-3.891,0-11.672l-50.58-2.263l-50.58,2.263  c-3.891,7.782,0,11.672,0,11.672c-3.891,3.891-3.891,7.782-3.891,7.782h7.782l8.43,13.942l38.259,21.076l38.259-21.076l8.43-13.942  h7.782C437.765,351.38,437.765,347.489,433.875,343.598z"/>
<path style="fill:#F5F5F5;" d="M421.554,365.322c0,0-2.432-5.35-8.916-4.701c0,0-3.567-4.701-9.565-3.404  c0,0-6.971-4.053-11.024,3.404c0,0-12.889-1.31-13.578,8.504c0,0,20.062,30.241,20.549,30.566  c0.486,0.324,23.993,0.162,23.993,0.162l10.863-11.985l-10.701-15.413L421.554,365.322z"/>
<path style="fill:#F0C850;" d="M383.781,374.887c0,0-17.019-27.802-19.454-30.154c-2.351-2.27-6.971-4.377-11.672-0.486  c0,0-14.104-1.135-12.159,9.565l4.053,16.212c0,0-3.567,11.186-5.188,12.321s-7.62,4.215-7.62,4.215l3.404,13.456l45.393-2.27  L383.781,374.887z"/>
<path style="fill:#965032;" d="M403.397,362.728l-0.054,0.023l-1.256-2.963c-0.101-0.239-0.294-0.429-0.536-0.524  s-0.509-0.091-0.752,0.015l-8.444,3.723l-10.043-16.441c0.445-0.383,0.638-1.008,0.429-1.591c-0.272-0.76-1.108-1.155-1.866-0.885  l-2.238,0.801l-1.514-4.475c-0.173-0.509-0.722-0.775-1.233-0.612c-0.509,0.175-0.783,0.726-0.61,1.235l1.525,4.508l-2.393,0.857  c-0.758,0.274-1.153,1.109-0.882,1.866c0.213,0.597,0.775,0.969,1.374,0.969c0.085,0,0.17-0.029,0.256-0.044l3.311,19.936  l-2.136,0.941c-0.465,0.205-0.695,0.737-0.522,1.216l1.211,3.372c0.029,0.568,0.028,1.525-0.166,2.738l-13.582-23.298  c0.57-0.357,0.855-1.051,0.62-1.707c-0.274-0.76-1.102-1.159-1.866-0.885l-2.238,0.801l-1.514-4.475  c-0.171-0.509-0.724-0.783-1.233-0.612c-0.509,0.175-0.783,0.726-0.61,1.235l1.525,4.508l-2.393,0.857  c-0.758,0.274-1.153,1.109-0.882,1.866c0.194,0.544,0.69,0.865,1.228,0.923l5.896,36.794c-0.761,0.32-1.507,0.644-2.346,0.942  c0,0-2.756,13.131-0.648,13.78s23.831,7.295,23.831,7.295s29.992-14.266,30.64-14.591c0.648-0.324,1.945-9.727,1.945-9.727  L403.397,362.728z M401.556,363.518l-2.511,1.079l-0.832-2.052l2.468-1.089L401.556,363.518z M386.377,367.764l2.064-0.91  l0.793,1.956l-2.186,0.939L386.377,367.764z M385.255,370.518l-2.442,1.049l-0.768-1.893l2.545-1.122L385.255,370.518z   M391.021,368.043l-0.8-1.974l2.205-0.973l0.809,1.996L391.021,368.043z M394.205,364.312l2.23-0.983l0.825,2.034l-2.239,0.961  L394.205,364.312z M380.5,347.322l10.061,16.471l-4.81,2.121l-6.177-18.26L380.5,347.322z M377.028,348.565l0.714-0.256  l6.222,18.393l-3.656,1.612L377.028,348.565z M380.267,370.458l0.761,1.876l-2.401,1.031l-0.677-1.886L380.267,370.458z   M361.445,354.814l14.733,25.273c-0.742,2.144-2.14,4.632-4.594,7.075l-10.856-32.091L361.445,354.814z M357.808,356.116  l1.088-0.389l11.118,32.866c-1.685,1.399-3.783,2.75-6.364,3.988L357.808,356.116z"/>
<path style="fill:#FF4B55;" d="M437.401,326.029c-1.034-1.641-4.35-0.939-4.35-0.939s-0.946-1.892-3.448-2.076  c-2.502-0.183-2.96,2.045-2.96,2.045s-0.468-0.349-3.224-0.267c-2.756,0.081-2.189,4.62-2.189,4.62s-1.054,0-4.62-1.135  c-3.567-1.135-5.917-0.324-5.917-0.324c-0.162-1.864-1.135-3.242-1.135-3.242c-2.999,1.216-5.35-0.162-5.917-1.216  c-0.568-1.053,0.892-2.675,0.892-4.053s-1.905-1.317-2.574-2.533s0-1.885,1.763-2.675s3.404-3.708,2.31-6.079  s-4.256-1.945-4.256-1.945c1.094,0.182,2.006,2.249,0.243,2.675s-3.344-6.019-3.344-6.019c4.073,2.736,7.052,1.094,7.903-1.277  c0.851-2.371-1.398-4.012-1.398-4.012c-1.763,2.857-4.803,0.365-3.161-1.459c1.641-1.824,1.783-4.884,1.783-4.884  c-3.648,1.783-5.917-0.486-5.917-0.486c4.783-3.323,3.404-8.025,3.404-8.025c-1.783-0.811-5.593-0.162-5.593-0.162  c0.81-1.621,0.649-4.54,0.649-4.54c-2.027-0.324-4.296,0.973-4.296,0.973c0.649-2.269-0.243-6.241-0.243-6.241  c-1.459,0.243-4.215,1.054-4.215,1.054c-1.135-2.594-4.296-4.134-4.296-4.134s-3.161,1.54-4.296,4.134c0,0-2.756-0.811-4.215-1.054  c0,0-0.892,3.972-0.243,6.241c0,0-2.27-1.297-4.296-0.973c0,0-0.162,2.918,0.649,4.54c0,0-3.81-0.649-5.593,0.162  c0,0-1.378,4.702,3.404,8.025c0,0-2.27,2.27-5.917,0.486c0,0,0.142,3.06,1.783,4.884s-1.398,4.316-3.161,1.459  c0,0-2.249,1.641-1.398,4.012c0.851,2.371,3.83,4.012,7.903,1.277c0,0-1.581,6.444-3.344,6.019  c-1.763-0.426-0.851-2.493,0.243-2.675c0,0-3.161-0.426-4.256,1.945c-1.094,2.371,0.547,5.289,2.31,6.079s2.432,1.459,1.763,2.675  s-2.574,1.155-2.574,2.533s1.459,2.999,0.891,4.053c-0.567,1.054-2.918,2.432-5.917,1.216c0,0-0.973,1.378-1.135,3.242  c0,0-2.351-0.811-5.917,0.324c-3.567,1.135-4.62,1.135-4.62,1.135s0.567-4.539-2.189-4.62c-2.756-0.081-3.224,0.267-3.224,0.267  s-0.458-2.228-2.96-2.045c-2.502,0.183-3.448,2.076-3.448,2.076s-3.317-0.703-4.35,0.939c-1.033,1.641-1.155,4.134,0.79,5.167  s7.113,5.35,7.113,5.35l7.295,3.161L369.92,328.4l13.375,3.526l13.375-3.526l25.533,11.308l7.295-3.161c0,0,5.167-4.316,7.113-5.35  C438.556,330.163,438.434,327.67,437.401,326.029z"/>
<path style="fill:#F5F5F5;" d="M375.33,284.824c0,0,0.275,3.433,5.356,2.518C380.685,287.342,380.548,283.771,375.33,284.824z"/>
<path style="fill:#FF4B55;" d="M356.531,420.442c0,0-3.648-0.122-7.417,2.675c-3.769,2.797-5.431,0.811-9.2,0.811  s-4.661,3.931-4.661,3.931s-7.295,1.824-4.377,7.174c1.845,3.384,4.414,3.312,6.057,2.804c-0.083,2.273,0.434,4.772,3.062,5.221  c4.985,0.851,7.174-1.824,6.079-5.958c0,0,0.608,4.256,3.891,4.134s5.471-1.945,5.107-6.323c-0.365-4.377,5.471-1.702,9.97-8.146  L356.531,420.442z"/>
<g>
	<path style="fill:#82AFFF;" d="M335.212,436.086c0,0-2.27,2.999-1.621,5.917c0,0-4.863-1.54-2.27-8.754   C331.321,433.249,334.645,432.357,335.212,436.086z"/>
	<path style="fill:#82AFFF;" d="M342.852,440.017c0,0-1.337,3.769,0.486,7.113c0,0-6.079-0.182-4.863-7.66   C338.475,439.47,340.42,437.464,342.852,440.017z"/>
	<path style="fill:#82AFFF;" d="M348.931,439.652c0,0,1.094,3.161,0,6.201c0,0,4.985-0.304,4.134-7.478   C353.065,438.376,350.39,437.403,348.931,439.652z"/>
</g>
<g>
	<path style="fill:#FF4B55;" d="M344.493,366.943c-0.46-3.749-23.953-5.958-22.494,13.78c0,0-2.606-0.048-3.888,2.378   s-4.028,1.831-4.852,0.961c0,0,0.183,4.394,5.63,4.211c0,0-1.724,1.358-1.48,3.342s1.678,4.486,1.587,6.195   c-0.092,1.709-1.709,4.089-1.709,4.089s4.181-1.434,4.455-4.425c0.275-2.991-0.397-5.493,0.427-7.019c0,0-0.397,2.106,1.465,4.761   c1.861,2.655,1.953,5.89,1.19,7.904c0,0,4.638-2.289,3.753-6.714s-1.831-4.028-1.404-6.5c0,0,4.822,4.913,3.998,9.094   c0,0,1.541-1.846,1.404-5.325s-2.552-5.819-2.552-5.819S346.074,379.831,344.493,366.943z"/>
	<path style="fill:#FF4B55;" d="M410.058,420.442c0,0,3.648-0.122,7.417,2.675c3.769,2.797,5.431,0.811,9.2,0.811   s4.661,3.931,4.661,3.931s7.295,1.824,4.377,7.174c-1.845,3.384-4.414,3.312-6.057,2.804c0.083,2.273-0.434,4.772-3.062,5.221   c-4.985,0.851-7.174-1.824-6.079-5.958c0,0-0.608,4.256-3.891,4.134s-5.471-1.945-5.107-6.323c0.365-4.377-5.471-1.702-9.97-8.146   L410.058,420.442z"/>
</g>
<g>
	<path style="fill:#82AFFF;" d="M431.376,436.086c0,0,2.27,2.999,1.621,5.917c0,0,4.863-1.54,2.27-8.754   C435.267,433.249,431.944,432.357,431.376,436.086z"/>
	<path style="fill:#82AFFF;" d="M423.736,440.017c0,0,1.337,3.769-0.486,7.113c0,0,6.079-0.182,4.864-7.66   C428.114,439.47,426.168,437.464,423.736,440.017z"/>
	<path style="fill:#82AFFF;" d="M417.657,439.652c0,0-1.094,3.161,0,6.201c0,0-4.985-0.304-4.134-7.478   C413.523,438.376,416.198,437.403,417.657,439.652z"/>
</g>
<path style="fill:#FF4B55;" d="M422.095,366.943c0.46-3.749,23.953-5.958,22.494,13.78c0,0,2.606-0.048,3.888,2.378  s4.028,1.831,4.852,0.961c0,0-0.183,4.394-5.63,4.211c0,0,1.724,1.358,1.48,3.342s-1.678,4.486-1.587,6.195  c0.092,1.709,1.709,4.089,1.709,4.089s-4.181-1.434-4.455-4.425c-0.275-2.991,0.397-5.493-0.427-7.019c0,0,0.397,2.106-1.465,4.761  c-1.861,2.655-1.953,5.89-1.19,7.904c0,0-4.638-2.289-3.753-6.714s1.831-4.028,1.404-6.5c0,0-4.822,4.913-3.998,9.094  c0,0-1.541-1.846-1.404-5.325s2.552-5.819,2.552-5.819S420.514,379.831,422.095,366.943z"/>
<path style="fill:#FFE15A;" d="M431.705,333.301c-0.893-0.6-2.101-0.35-2.696,0.551c-1.231,1.858-2.852,2.945-4.955,3.321  c-6.961,1.208-16.998-5.646-19.912-7.789c-4.224-3.105-9.443-3.644-12.907-1.51c-1.383,0.457-5.608,1.79-7.941,1.79  s-6.558-1.333-7.941-1.79c-3.464-2.134-8.683-1.595-12.907,1.51c-2.914,2.143-12.951,8.997-19.912,7.789  c-2.103-0.376-3.724-1.463-4.955-3.321c-0.595-0.9-1.803-1.151-2.696-0.551c-0.897,0.593-1.142,1.801-0.549,2.694  c1.824,2.759,4.352,4.442,7.518,5.008c0.8,0.144,1.617,0.209,2.449,0.209c7.424,0,15.825-5.297,20.448-8.69  c3.437-2.523,7.29-2.519,9.024-1.056c0.439,0.372,0.937,0.957,0.817,1.645c-0.065,0.376-0.312,0.714-0.724,0.999  c0.099-0.597-0.082-1.231-0.541-1.695c-0.76-0.76-1.991-0.76-2.751,0c-0.99,0.984-1.098,2.584-0.264,3.883  c0.838,1.303,2.643,2.257,4.788,1.463c1.09-0.406,1.961-1.182,2.564-2.133c2.956-0.86,5.633-0.866,5.633-0.866  s2.677,0.006,5.633,0.866c0.603,0.951,1.475,1.727,2.564,2.133c2.145,0.794,3.95-0.16,4.788-1.463  c0.834-1.299,0.726-2.899-0.264-3.883c-0.76-0.76-1.991-0.76-2.751,0c-0.46,0.464-0.64,1.098-0.541,1.695  c-0.412-0.285-0.659-0.623-0.724-0.999c-0.12-0.688,0.378-1.273,0.817-1.645c1.735-1.463,5.587-1.467,9.024,1.056  c4.622,3.393,13.023,8.69,20.448,8.69c0.832,0,1.649-0.065,2.449-0.209c3.165-0.566,5.694-2.249,7.518-5.008  C432.847,335.102,432.602,333.894,431.705,333.301z"/>
<g>
	<path style="fill:#82AFFF;" d="M333.721,335.45c0,0-0.32-4.349-0.458-5.768c-0.137-1.419-2.792-2.472-3.799-1.053   C328.457,330.049,328.182,332.658,333.721,335.45z"/>
	<path style="fill:#82AFFF;" d="M334.659,334.054c0,0,3.83-3.1,3.344-4.742c-0.486-1.641-1.52-2.493-2.797-2.006   S333.322,330.771,334.659,334.054z"/>
	<path style="fill:#82AFFF;" d="M342.137,331.622c0.551-0.551,0.73-3.222-0.79-3.526c-1.52-0.304-3.526,2.067-3.404,4.985   C337.942,333.081,341.103,332.655,342.137,331.622z"/>
	<path style="fill:#82AFFF;" d="M340.556,333.142c-1.764,0.564-3.465,2.067-3.465,2.067s3.161,2.31,5.35,1.581   C344.629,336.06,343.596,332.169,340.556,333.142z"/>
</g>
<path style="fill:#F5F5F5;" d="M391.259,284.824c0,0-0.275,3.433-5.356,2.518C385.903,287.342,386.041,283.771,391.259,284.824z"/>
<g>
	<path style="fill:#82AFFF;" d="M432.868,335.45c0,0,0.32-4.349,0.458-5.768c0.137-1.419,2.792-2.472,3.799-1.053   C438.132,330.049,438.406,332.658,432.868,335.45z"/>
	<path style="fill:#82AFFF;" d="M431.929,334.054c0,0-3.83-3.1-3.344-4.742c0.486-1.641,1.52-2.493,2.797-2.006   S433.267,330.771,431.929,334.054z"/>
	<path style="fill:#82AFFF;" d="M424.452,331.622c-0.551-0.551-0.73-3.222,0.79-3.526c1.52-0.304,3.526,2.067,3.404,4.985   C428.646,333.081,425.485,332.655,424.452,331.622z"/>
	<path style="fill:#82AFFF;" d="M426.032,333.142c1.764,0.564,3.465,2.067,3.465,2.067s-3.161,2.31-5.35,1.581   S422.993,332.169,426.032,333.142z"/>
</g>
<g>
	<path style="fill:#464655;" d="M381.282,292.915l1.543,1.543c0.259,0.259,0.68,0.259,0.939,0l1.543-1.543   c0.418-0.418,0.122-1.133-0.469-1.133h-3.086C381.16,291.782,380.864,292.497,381.282,292.915z"/>
	<path style="fill:#464655;" d="M380.475,299.242c-1.144,0-2.133-0.41-2.806-1.167c-0.695-0.786-0.992-1.869-0.815-2.971   c0.063-0.369,0.433-0.593,0.781-0.562c0.372,0.061,0.623,0.41,0.564,0.783c-0.112,0.695,0.066,1.368,0.49,1.847   c0.437,0.49,1.104,0.718,1.924,0.707c1.71-0.068,1.997-1.74,2.008-1.809l-0.008-3.051c0-0.376,0.304-0.68,0.68-0.68   s0.68,0.304,0.68,0.68v3.157c-0.165,1.091-1.056,2.971-3.308,3.063C380.602,299.242,380.538,299.242,380.475,299.242z"/>
	<path style="fill:#464655;" d="M386.114,299.242c-0.063,0-0.127,0-0.192-0.004c-2.251-0.091-3.142-1.972-3.3-2.956l-0.008-3.264   c0-0.376,0.304-0.68,0.68-0.68s0.68,0.304,0.68,0.68v3.157c0.023,0.068,0.342,1.638,2,1.702c0.844,0.015,1.486-0.209,1.924-0.707   c0.424-0.479,0.602-1.151,0.49-1.847c-0.059-0.372,0.192-0.722,0.564-0.783c0.355-0.046,0.72,0.19,0.781,0.562   c0.177,1.102-0.12,2.185-0.815,2.971C388.247,298.831,387.257,299.242,386.114,299.242z"/>
</g>
<g>
	<path style="fill:#F5F5F5;" d="M406.639,398.069c0,0-4.863-7.782-10.538-2.594c-5.674,5.188-7.782,11.51-14.266,11.024   c-3.559-0.267-5.376-1.892-6.32-3.312c1.723-1.418,2.945-3.573,1.619-6.74c-2.918-6.971-13.618-4.863-16.536,2.756   c0,0,3.404-11.186-8.43-7.457c0,0-1.459-7.782-8.268-5.674c-3.702,1.146-5.072,3.425-5.581,5.281   c-1.432-0.333-3.272-0.323-4.957,1.041l8.592,23.183l12.969,0.162l2.918,4.377l17.022,10.7l3.08,6.485h10.7   c0,0,0.811-6.646,6.485-8.592c5.674-1.945,14.915-5.999,15.887-9.565s0.973-3.566,0.973-3.566l10.376,0.162   c1.135-0.811,8.754-13.293,8.754-13.293l3.537-16.078C432.704,386.086,410.36,383.187,406.639,398.069z"/>
	<path style="fill:#F5F5F5;" d="M434.685,386.235l-0.029,0.134c0.089,0.013,0.192,0.028,0.192,0.028L434.685,386.235z"/>
</g>
<g>
	<path style="fill:#FFE15A;" d="M364.072,422.927c-4.204-1.695-5.705-4.069-6.224-5.335c-0.483-1.17-0.388-1.999-0.256-2.303   c0.268-0.619,0.593-1.014,0.895-1.09c0.285-0.068,0.646,0.095,0.711,0.137c0.137,0.156,0.209,0.65,0.078,0.771   c-0.783,0.737-0.819,1.968-0.084,2.751c0.739,0.783,1.966,0.817,2.751,0.084c0.8-0.752,1.258-1.805,1.29-2.964   c0.036-1.242-0.418-2.481-1.212-3.317c-0.796-0.844-2.432-1.611-4.176-1.299c-0.359,0.063-0.764,0.21-1.178,0.41   c0.273-2.695-0.766-4.075-1.529-4.632c-1.282-0.931-3.108-0.954-4.643-0.053c-1.571,0.923-2.42,2.538-2.213,4.21   c0.133,1.068,1.204,1.706,2.247,1.562c1.066-0.129,1.904-1.231,1.773-2.295c0.22-0.201,0.511-0.27,0.502-0.315   c0.004,0.004,0.26,0.429-0.049,1.801c-0.484,2.151-1.622,3.473-3.382,3.936c-2.19,0.604-4.996-0.319-6.655-2.139   c-2.306-2.538-7.134-16.008-10.004-24.979c12.305-5.836,13.817-15.533,13.584-20.936c-0.355-8.23-5.28-16.65-10.755-18.386   c-2.154-0.68-5.382-0.821-7.725,0.388c-1.326,0.692-2.247,1.752-2.662,3.07c-0.845,2.69,0.847,4.913,2.871,5.639   c2.095,0.752,4.21-0.152,5.023-2.154c0.403-0.995-0.036-2.135-1.032-2.538c-1.001-0.414-2.09,0.072-2.493,1.064   c-0.082,0.046-0.351-0.057-0.553-0.285c-0.146-0.167-0.177-0.331-0.104-0.555c0.065-0.205,0.211-0.509,0.747-0.787   c1.271-0.665,3.397-0.562,4.753-0.133c3.133,0.992,7.708,7.12,8.042,14.845c0.199,4.617-1.203,13.078-12.82,17.9   c-0.931,0.388-1.412,1.417-1.111,2.379c0.758,2.428,7.525,23.869,11.359,28.083c2.061,2.268,5.179,3.587,8.158,3.587   c0.807,0,1.605-0.095,2.369-0.296c1.299-0.344,2.385-1.014,3.328-1.856c0.094,0.713,0.258,1.443,0.559,2.175   c0.752,1.831,2.838,5.236,8.663,7.584c11.783,4.727,12.902,7.888,12.837,9.032c-0.036,0.627-0.395,0.954-0.688,1.117   c-0.127,0.072-0.253,0.118-0.361,0.144c0.435-0.597,0.513-1.413,0.129-2.101c-0.524-0.939-1.706-1.273-2.646-0.749   c-1.324,0.741-2.247,2.485-1.455,4.392c0.617,1.482,2.061,2.379,3.731,2.379c0.268,0,0.541-0.023,0.819-0.072   c2.422-0.41,4.212-2.42,4.354-4.886C379.976,430.005,371.081,425.738,364.072,422.927z"/>
	<path style="fill:#FFE15A;" d="M402.516,422.927c4.204-1.695,5.705-4.069,6.224-5.335c0.483-1.17,0.388-1.999,0.257-2.303   c-0.268-0.619-0.593-1.014-0.895-1.09c-0.285-0.068-0.646,0.095-0.711,0.137c-0.137,0.156-0.209,0.65-0.078,0.771   c0.783,0.737,0.819,1.968,0.084,2.751c-0.739,0.783-1.966,0.817-2.751,0.084c-0.8-0.752-1.258-1.805-1.29-2.964   c-0.036-1.242,0.418-2.481,1.212-3.317c0.796-0.844,2.432-1.611,4.176-1.299c0.359,0.063,0.764,0.21,1.178,0.41   c-0.273-2.695,0.766-4.075,1.529-4.632c1.282-0.931,3.108-0.954,4.643-0.053c1.571,0.923,2.42,2.538,2.213,4.21   c-0.133,1.068-1.204,1.706-2.247,1.562c-1.066-0.129-1.904-1.231-1.773-2.295c-0.22-0.201-0.511-0.27-0.502-0.315   c-0.004,0.004-0.26,0.429,0.049,1.801c0.484,2.151,1.622,3.473,3.382,3.936c2.19,0.604,4.996-0.319,6.655-2.139   c2.306-2.538,7.134-16.008,10.004-24.979c-12.305-5.836-13.817-15.533-13.584-20.936c0.355-8.23,5.28-16.65,10.755-18.386   c2.154-0.68,5.382-0.821,7.725,0.388c1.326,0.692,2.247,1.752,2.662,3.07c0.845,2.69-0.847,4.913-2.871,5.639   c-2.095,0.752-4.21-0.152-5.023-2.154c-0.403-0.995,0.036-2.135,1.032-2.538c1.001-0.414,2.09,0.072,2.493,1.064   c0.082,0.046,0.351-0.057,0.553-0.285c0.146-0.167,0.177-0.331,0.104-0.555c-0.065-0.205-0.211-0.509-0.747-0.787   c-1.271-0.665-3.397-0.562-4.753-0.133c-3.133,0.992-7.708,7.12-8.042,14.845c-0.199,4.617,1.203,13.078,12.82,17.9   c0.931,0.388,1.412,1.417,1.111,2.379c-0.758,2.428-7.525,23.869-11.359,28.083c-2.061,2.268-5.179,3.587-8.158,3.587   c-0.807,0-1.605-0.095-2.369-0.296c-1.299-0.344-2.385-1.014-3.328-1.856c-0.094,0.713-0.258,1.443-0.559,2.175   c-0.752,1.831-2.838,5.236-8.663,7.584c-11.783,4.727-12.902,7.888-12.837,9.032c0.036,0.627,0.395,0.954,0.688,1.117   c0.127,0.072,0.253,0.118,0.361,0.144c-0.435-0.597-0.513-1.413-0.129-2.101c0.524-0.939,1.706-1.273,2.646-0.749   c1.324,0.741,2.247,2.485,1.455,4.392c-0.617,1.482-2.061,2.379-3.731,2.379c-0.268,0-0.541-0.023-0.819-0.072   c-2.422-0.41-4.212-2.42-4.354-4.886C386.613,430.005,395.508,425.738,402.516,422.927z"/>
</g>
<g>
	<polygon style="fill:#41479B;" points="94.317,0 0.001,0 0.001,19.977 94.317,81.77  "/>
	<polygon style="fill:#41479B;" points="0.001,68.299 0.001,94.316 39.711,94.316  "/>
	<polygon style="fill:#41479B;" points="0.001,161.684 0.001,187.701 39.711,161.684  "/>
	<polygon style="fill:#41479B;" points="256.001,19.977 256.001,0 161.685,0 161.685,81.77  "/>
	<polygon style="fill:#41479B;" points="256.001,187.701 256.001,161.684 216.291,161.684  "/>
	<polygon style="fill:#41479B;" points="161.685,174.23 161.685,256 256.001,256 256.001,236.023  "/>
	<polygon style="fill:#41479B;" points="256.001,94.316 256.001,68.299 216.291,94.316  "/>
	<polygon style="fill:#41479B;" points="0.001,236.023 0.001,256 94.317,256 94.317,174.23  "/>
</g>
<g>
	<polygon style="fill:#F5F5F5;" points="256.001,236.023 256.001,216.059 172.233,161.684 196.981,161.684 256.001,199.995    256.001,187.701 216.291,161.684 256.001,161.684 256.001,148.21 148.212,148.21 148.212,256 161.685,256 161.685,174.23  "/>
	<polygon style="fill:#F5F5F5;" points="0.001,148.21 0.001,161.684 39.711,161.684 0.001,187.701 0.001,206.602 69.199,161.684    93.946,161.684 0.001,222.666 0.001,236.023 94.317,174.23 94.317,256 107.791,256 107.791,148.21  "/>
	<polygon style="fill:#F5F5F5;" points="107.791,0 94.317,0 94.317,81.77 0.001,19.977 0.001,41.839 80.843,94.316 56.095,94.316    0.001,57.904 0.001,68.299 39.711,94.316 0.001,94.316 0.001,107.79 107.791,107.79  "/>
	<polygon style="fill:#F5F5F5;" points="256.001,107.79 256.001,94.316 216.291,94.316 256.001,68.299 256.001,49.157    186.433,94.316 161.685,94.316 256.001,33.093 256.001,19.977 161.685,81.77 161.685,0 148.212,0 148.212,107.79  "/>
</g>
<g>
	<polygon style="fill:#FF4B55;" points="256.001,148.21 256.001,107.79 148.212,107.79 148.212,0 107.791,0 107.791,107.79    0.001,107.79 0.001,148.21 107.791,148.21 107.791,256 148.212,256 148.212,148.21  "/>
	<polygon style="fill:#FF4B55;" points="69.199,161.684 0.001,206.602 0.001,222.666 93.946,161.684  "/>
	<polygon style="fill:#FF4B55;" points="172.233,161.684 256.001,216.059 256.001,199.995 196.981,161.684  "/>
	<polygon style="fill:#FF4B55;" points="80.843,94.316 0.001,41.839 0.001,57.904 56.095,94.316  "/>
	<polygon style="fill:#FF4B55;" points="186.433,94.316 256.001,49.157 256.001,33.093 161.685,94.316  "/>
</g>
<g>
</g>
<g>
</g>
<g>
</g>
<g>
</g>
<g>
</g>
<g>
</g>
<g>
</g>
<g>
</g>
<g>
</g>
<g>
</g>
<g>
</g>
<g>
</g>
<g>
</g>
<g>
</g>
<g>
</g>
</svg>
