<?xml version="1.0" encoding="iso-8859-1"?>
<!-- Generator: Adobe Illustrator 19.0.0, SVG Export Plug-In . SVG Version: 6.00 Build 0)  -->
<svg xmlns="http://www.w3.org/2000/svg" xmlns:xlink="http://www.w3.org/1999/xlink" version="1.1" id="Layer_1" x="0px" y="0px" viewBox="0 0 512 512" style="enable-background:new 0 0 512 512;" xml:space="preserve">
<rect style="fill:#41479B;" width="512" height="512"/>
<polygon style="fill:#FFE15A;" points="441.379,0 441.379,512 105.931,0 "/>
<g>
	<path style="fill:#F5F5F5;" d="M211.685,196.751l7.321,21.951l23.139,0.179c1.793,0.014,2.536,2.302,1.094,3.367l-18.614,13.746   l6.98,22.062c0.541,1.709-1.405,3.123-2.864,2.081l-18.825-13.456l-18.825,13.456c-1.458,1.042-3.404-0.371-2.864-2.081   l6.98-22.062l-18.614-13.746c-1.442-1.065-0.699-3.353,1.094-3.367l23.139-0.179l7.321-21.951   C208.713,195.051,211.118,195.051,211.685,196.751z"/>
	<path style="fill:#F5F5F5;" d="M169.685,135.469l7.321,21.951l23.139,0.179c1.793,0.014,2.536,2.302,1.094,3.367l-18.614,13.746   l6.98,22.062c0.541,1.709-1.405,3.123-2.864,2.081l-18.825-13.456l-18.825,13.456c-1.458,1.042-3.404-0.371-2.864-2.081   l6.98-22.062l-18.614-13.746c-1.442-1.065-0.699-3.353,1.094-3.367l23.139-0.179l7.321-21.951   C166.713,133.769,169.118,133.769,169.685,135.469z"/>
	<path style="fill:#F5F5F5;" d="M132.685,73.245l7.321,21.951l23.139,0.179c1.793,0.014,2.536,2.302,1.094,3.367l-18.614,13.746   l6.98,22.062c0.541,1.709-1.405,3.123-2.864,2.081l-18.825-13.456L112.09,136.63c-1.458,1.042-3.404-0.371-2.864-2.081l6.98-22.062   L97.592,98.741c-1.442-1.065-0.699-3.353,1.094-3.367l23.139-0.179l7.321-21.951C129.713,71.544,132.118,71.544,132.685,73.245z"/>
	<path style="fill:#F5F5F5;" d="M89.854,11.963l7.321,21.951l23.139,0.179c1.793,0.014,2.536,2.302,1.094,3.367l-18.614,13.746   l6.98,22.062c0.541,1.709-1.405,3.123-2.864,2.081L88.084,61.892L69.259,75.348c-1.458,1.042-3.404-0.371-2.864-2.081l6.98-22.062   L54.761,37.46c-1.442-1.065-0.699-3.353,1.094-3.367l23.139-0.179l7.321-21.951C86.882,10.262,89.287,10.262,89.854,11.963z"/>
	<path style="fill:#F5F5F5;" d="M369.295,436.259l7.321,21.951l23.139,0.179c1.793,0.014,2.536,2.302,1.094,3.367l-18.614,13.746   l6.98,22.062c0.541,1.709-1.405,3.123-2.864,2.081l-18.825-13.456L348.7,499.644c-1.458,1.042-3.404-0.371-2.864-2.081l6.98-22.062   l-18.614-13.746c-1.442-1.065-0.699-3.353,1.094-3.367l23.139-0.179l7.321-21.951C366.322,434.558,368.728,434.558,369.295,436.259   z"/>
	<path style="fill:#F5F5F5;" d="M331.854,376.862l7.321,21.951l23.139,0.179c1.793,0.014,2.536,2.302,1.094,3.367l-18.614,13.746   l6.98,22.062c0.541,1.709-1.405,3.123-2.864,2.081l-18.825-13.456l-18.825,13.456c-1.458,1.042-3.405-0.371-2.864-2.081   l6.98-22.062l-18.614-13.746c-1.442-1.065-0.699-3.353,1.094-3.367l23.139-0.179l7.321-21.951   C328.882,375.162,331.287,375.162,331.854,376.862z"/>
	<path style="fill:#F5F5F5;" d="M290.854,316.523l7.321,21.951l23.139,0.179c1.793,0.014,2.536,2.302,1.094,3.367l-18.614,13.746   l6.98,22.062c0.541,1.709-1.405,3.123-2.864,2.081l-18.825-13.456l-18.825,13.456c-1.458,1.042-3.405-0.371-2.864-2.081   l6.98-22.062l-18.614-13.746c-1.442-1.065-0.699-3.353,1.094-3.367l23.139-0.179l7.321-21.951   C287.882,314.823,290.287,314.823,290.854,316.523z"/>
	<path style="fill:#F5F5F5;" d="M248.854,257.127l7.321,21.951l23.139,0.179c1.793,0.014,2.536,2.302,1.094,3.367l-18.614,13.746   l6.98,22.062c0.541,1.709-1.405,3.123-2.864,2.081l-18.825-13.456l-18.825,13.456c-1.458,1.042-3.404-0.371-2.864-2.081   l6.98-22.062l-18.614-13.746c-1.442-1.065-0.699-3.353,1.094-3.367l23.139-0.179l7.321-21.951   C245.882,255.426,248.287,255.426,248.854,257.127z"/>
</g>
<g>
</g>
<g>
</g>
<g>
</g>
<g>
</g>
<g>
</g>
<g>
</g>
<g>
</g>
<g>
</g>
<g>
</g>
<g>
</g>
<g>
</g>
<g>
</g>
<g>
</g>
<g>
</g>
<g>
</g>
</svg>
