<?xml version="1.0" encoding="iso-8859-1"?>
<!-- Generator: Adobe Illustrator 19.0.0, SVG Export Plug-In . SVG Version: 6.00 Build 0)  -->
<svg xmlns="http://www.w3.org/2000/svg" xmlns:xlink="http://www.w3.org/1999/xlink" version="1.1" id="Layer_1" x="0px" y="0px" viewBox="0 0 512.002 512.002" style="enable-background:new 0 0 512.002 512.002;" xml:space="preserve">
<path style="fill:#F5F5F5;" d="M504.001,512.001h-496c-4.418,0-8-3.582-8-8v-496c0-4.418,3.582-8,8-8h496c4.418,0,8,3.582,8,8v496  C512.001,508.419,508.419,512.001,504.001,512.001z"/>
<g>
	<path style="fill:#41479B;" d="M512.001,404.212c-25.628,0-25.628-13.474-51.257-13.474c-25.628,0-25.628,13.474-51.257,13.474   c-25.611,0-25.611-13.474-51.221-13.474c-25.588,0-25.588,13.474-51.177,13.474c-25.602,0-25.602-13.474-51.205-13.474   c-25.596,0-25.596,13.474-51.191,13.474s-25.595-13.474-51.191-13.474c-25.595,0-25.595,13.474-51.191,13.474   c-25.584,0-25.584-13.474-51.168-13.474c-25.572,0-25.572,13.474-51.143,13.474v-40.421c25.572,0,25.572-13.474,51.143-13.474   c25.584,0,25.584,13.474,51.168,13.474c25.595,0,25.595-13.474,51.191-13.474c25.595,0,25.595,13.474,51.191,13.474   s25.596-13.474,51.191-13.474c25.602,0,25.602,13.474,51.205,13.474c25.588,0,25.588-13.474,51.177-13.474   c25.611,0,25.611,13.474,51.221,13.474c25.628,0,25.628-13.474,51.257-13.474c25.628,0,25.628,13.474,51.257,13.474V404.212z"/>
	<path style="fill:#41479B;" d="M512.001,242.527c-25.628,0-25.628-13.474-51.257-13.474c-25.628,0-25.628,13.474-51.257,13.474   c-25.611,0-25.611-13.474-51.221-13.474c-25.588,0-25.588,13.474-51.177,13.474c-25.602,0-25.602-13.474-51.205-13.474   c-25.596,0-25.596,13.474-51.191,13.474s-25.595-13.474-51.191-13.474c-25.595,0-25.595,13.474-51.191,13.474   c-25.584,0-25.584-13.474-51.168-13.474c-25.572,0-25.572,13.474-51.143,13.474v-40.421c25.572,0,25.572-13.474,51.143-13.474   c25.584,0,25.584,13.474,51.168,13.474c25.595,0,25.595-13.474,51.191-13.474c25.595,0,25.595,13.474,51.191,13.474   s25.596-13.474,51.191-13.474c25.602,0,25.602,13.474,51.205,13.474c25.588,0,25.588-13.474,51.177-13.474   c25.611,0,25.611,13.474,51.221,13.474c25.628,0,25.628-13.474,51.257-13.474c25.628,0,25.628,13.474,51.257,13.474V242.527z"/>
	<path style="fill:#41479B;" d="M512.001,161.685c-25.628,0-25.628-13.474-51.257-13.474c-25.628,0-25.628,13.474-51.257,13.474   c-25.611,0-25.611-13.474-51.221-13.474c-25.588,0-25.588,13.474-51.177,13.474c-25.602,0-25.602-13.474-51.205-13.474   c-25.596,0-25.596,13.474-51.191,13.474s-25.595-13.474-51.191-13.474c-25.595,0-25.595,13.474-51.191,13.474   c-25.584,0-25.584-13.474-51.168-13.474c-25.572,0-25.572,13.474-51.143,13.474v-40.421c25.572,0,25.572-13.474,51.143-13.474   c25.584,0,25.584,13.474,51.168,13.474c25.595,0,25.595-13.474,51.191-13.474c25.595,0,25.595,13.474,51.191,13.474   s25.596-13.474,51.191-13.474c25.602,0,25.602,13.474,51.205,13.474c25.588,0,25.588-13.474,51.177-13.474   c25.611,0,25.611,13.474,51.221,13.474c25.628,0,25.628-13.474,51.257-13.474c25.628,0,25.628,13.474,51.257,13.474V161.685z"/>
	<path style="fill:#41479B;" d="M512.001,80.843c-25.628,0-25.628-13.474-51.257-13.474c-25.628,0-25.628,13.474-51.257,13.474   c-25.611,0-25.611-13.474-51.221-13.474c-25.588,0-25.588,13.474-51.177,13.474c-25.602,0-25.602-13.474-51.205-13.474   c-25.596,0-25.596,13.474-51.191,13.474s-25.595-13.474-51.191-13.474c-25.595,0-25.595,13.474-51.191,13.474   c-25.584,0-25.584-13.474-51.168-13.474c-25.57,0-25.57,13.474-51.142,13.474V40.422c25.572,0,25.572-13.474,51.143-13.474   c25.584,0,25.584,13.474,51.168,13.474c25.595,0,25.595-13.474,51.191-13.474c25.595,0,25.595,13.474,51.191,13.474   s25.596-13.474,51.191-13.474c25.602,0,25.602,13.474,51.205,13.474c25.588,0,25.588-13.474,51.177-13.474   c25.611,0,25.611,13.474,51.221,13.474c25.628,0,25.628-13.474,51.257-13.474c25.628,0,25.628,13.474,51.257,13.474v40.421H512.001   z"/>
	<path style="fill:#41479B;" d="M512.001,323.369c-25.628,0-25.628-13.474-51.257-13.474c-25.628,0-25.628,13.474-51.257,13.474   c-25.611,0-25.611-13.474-51.221-13.474c-25.588,0-25.588,13.474-51.177,13.474c-25.602,0-25.602-13.474-51.205-13.474   c-25.596,0-25.596,13.474-51.191,13.474s-25.595-13.474-51.191-13.474c-25.595,0-25.595,13.474-51.191,13.474   c-25.584,0-25.584-13.474-51.168-13.474c-25.572,0-25.572,13.474-51.143,13.474v-40.421c25.572,0,25.572-13.474,51.143-13.474   c25.584,0,25.584,13.474,51.168,13.474c25.595,0,25.595-13.474,51.191-13.474c25.595,0,25.595,13.474,51.191,13.474   s25.596-13.474,51.191-13.474c25.602,0,25.602,13.474,51.205,13.474c25.588,0,25.588-13.474,51.177-13.474   c25.611,0,25.611,13.474,51.221,13.474c25.628,0,25.628-13.474,51.257-13.474c25.628,0,25.628,13.474,51.257,13.474V323.369z"/>
	<path style="fill:#41479B;" d="M512.001,485.054c-25.628,0-25.628-13.474-51.257-13.474c-25.628,0-25.628,13.474-51.257,13.474   c-25.611,0-25.611-13.474-51.221-13.474c-25.588,0-25.588,13.474-51.177,13.474c-25.602,0-25.602-13.474-51.205-13.474   c-25.596,0-25.596,13.474-51.191,13.474s-25.595-13.474-51.191-13.474c-25.595,0-25.595,13.474-51.191,13.474   c-25.584,0-25.584-13.474-51.168-13.474c-25.572,0-25.572,13.474-51.143,13.474v-40.421c25.572,0,25.572-13.474,51.143-13.474   c25.584,0,25.584,13.474,51.168,13.474c25.595,0,25.595-13.474,51.191-13.474c25.595,0,25.595,13.474,51.191,13.474   s25.596-13.474,51.191-13.474c25.602,0,25.602,13.474,51.205,13.474c25.588,0,25.588-13.474,51.177-13.474   c25.611,0,25.611,13.474,51.221,13.474c25.628,0,25.628-13.474,51.257-13.474c25.628,0,25.628,13.474,51.257,13.474V485.054z"/>
</g>
<path style="fill:#965032;" d="M396.231,461.93h-3.293c-3.059,0-5.538-2.479-5.538-5.538V224.841h14.369v231.551  C401.769,459.45,399.289,461.93,396.231,461.93z"/>
<polygon style="fill:#73AF00;" points="495.167,253.579 480.798,246.394 427.894,239.782 460.627,197.696 465.707,182.456   450.467,187.536 408.382,220.268 401.769,167.365 394.584,152.996 387.4,167.365 380.787,220.268 338.702,187.536 323.461,182.456   328.541,197.696 361.274,239.782 308.37,246.394 294.001,253.579 308.37,260.764 361.274,267.376 328.541,309.461 323.461,324.702   338.702,319.622 384.424,284.061 394.584,267.948 404.744,284.061 450.467,319.622 465.707,324.702 460.627,309.461   427.894,267.376 480.798,260.764 "/>
<path style="fill:#FFE15A;" d="M425.862,337.253c-6.457-6.444-20.283-4.076-27.686-2.207v-6.03c0-1.984-1.608-3.592-3.592-3.592  s-3.592,1.608-3.592,3.592v6.029c-7.402-1.875-21.226-4.243-27.686,2.208c-6.158,6.155-1.697,20.996,2.54,31.313v9.553  c0,2.641,2.14,4.781,4.781,4.781h47.915c2.64,0,4.781-2.14,4.781-4.781v-9.553C427.559,358.249,432.02,343.408,425.862,337.253z   M420.782,342.333c2.742,2.745-0.329,14.775-5.278,26.198h-17.328v-26.065C406.242,340.183,417.29,338.834,420.782,342.333z   M368.386,342.333c3.49-3.499,14.538-2.15,22.606,0.134v26.064h-17.328C368.715,357.108,365.644,345.078,368.386,342.333z"/>
<g>
	<polygon style="fill:#41479B;" points="94.317,0.001 0.001,0.001 0.001,19.978 94.317,81.771  "/>
	<polygon style="fill:#41479B;" points="0.001,68.3 0.001,94.317 39.711,94.317  "/>
	<polygon style="fill:#41479B;" points="0.001,161.685 0.001,187.702 39.711,161.685  "/>
	<polygon style="fill:#41479B;" points="256.001,19.978 256.001,0.001 161.685,0.001 161.685,81.771  "/>
	<polygon style="fill:#41479B;" points="256.001,187.702 256.001,161.685 216.291,161.685  "/>
	<polygon style="fill:#41479B;" points="161.685,174.231 161.685,256.001 256.001,256.001 256.001,236.024  "/>
	<polygon style="fill:#41479B;" points="256.001,94.317 256.001,68.3 216.291,94.317  "/>
	<polygon style="fill:#41479B;" points="0.001,236.024 0.001,256.001 94.317,256.001 94.317,174.231  "/>
</g>
<g>
	<polygon style="fill:#F5F5F5;" points="256.001,236.024 256.001,216.06 172.233,161.685 196.981,161.685 256.001,199.996    256.001,187.702 216.291,161.685 256.001,161.685 256.001,148.211 148.212,148.211 148.212,256.001 161.685,256.001    161.685,174.231  "/>
	<polygon style="fill:#F5F5F5;" points="0.001,148.211 0.001,161.685 39.711,161.685 0.001,187.702 0.001,206.603 69.198,161.685    93.946,161.685 0.001,222.667 0.001,236.024 94.317,174.231 94.317,256.001 107.79,256.001 107.79,148.211  "/>
	<polygon style="fill:#F5F5F5;" points="107.79,0.001 94.317,0.001 94.317,81.771 0.001,19.978 0.001,41.84 80.843,94.317    56.095,94.317 0.001,57.905 0.001,68.3 39.711,94.317 0.001,94.317 0.001,107.791 107.79,107.791  "/>
	<polygon style="fill:#F5F5F5;" points="256.001,107.791 256.001,94.317 216.291,94.317 256.001,68.3 256.001,49.158    186.433,94.317 161.685,94.317 256.001,33.094 256.001,19.978 161.685,81.771 161.685,0.001 148.212,0.001 148.212,107.791  "/>
</g>
<g>
	<polygon style="fill:#FF4B55;" points="256.001,148.211 256.001,107.791 148.212,107.791 148.212,0.001 107.79,0.001    107.79,107.791 0.001,107.791 0.001,148.211 107.79,148.211 107.79,256.001 148.212,256.001 148.212,148.211  "/>
	<polygon style="fill:#FF4B55;" points="69.198,161.685 0.001,206.603 0.001,222.667 93.946,161.685  "/>
	<polygon style="fill:#FF4B55;" points="172.233,161.685 256.001,216.06 256.001,199.996 196.981,161.685  "/>
	<polygon style="fill:#FF4B55;" points="80.843,94.317 0.001,41.84 0.001,57.905 56.095,94.317  "/>
	<polygon style="fill:#FF4B55;" points="186.433,94.317 256.001,49.158 256.001,33.094 161.685,94.317  "/>
</g>
<g>
</g>
<g>
</g>
<g>
</g>
<g>
</g>
<g>
</g>
<g>
</g>
<g>
</g>
<g>
</g>
<g>
</g>
<g>
</g>
<g>
</g>
<g>
</g>
<g>
</g>
<g>
</g>
<g>
</g>
</svg>
