<?xml version="1.0" encoding="iso-8859-1"?>
<!-- Generator: Adobe Illustrator 19.0.0, SVG Export Plug-In . SVG Version: 6.00 Build 0)  -->
<svg xmlns="http://www.w3.org/2000/svg" xmlns:xlink="http://www.w3.org/1999/xlink" version="1.1" id="Layer_1" x="0px" y="0px" viewBox="0 0 512 512" style="enable-background:new 0 0 512 512;" xml:space="preserve">
<rect x="0.084" y="0.035" style="fill:#41479B;" width="511.87" height="255.97"/>
<g>
	<path style="fill:#F5F5F5;" d="M0.084,256h511.873v247.966c0,4.417-3.582,7.999-7.999,7.999H8.083   c-4.417,0-7.999-3.582-7.999-7.999C0.084,503.966,0.084,256,0.084,256z"/>
	<polygon style="fill:#F5F5F5;" points="511.93,0.035 450.178,0.035 286.68,81.794 286.68,0.035 225.36,0.035 225.36,81.794    61.862,0.035 0,0.035 0.084,24.193 140.358,94.338 0.084,94.338 0.084,161.697 140.358,161.697 0.084,231.842 0.084,256    61.862,256 225.36,174.241 225.36,256 286.68,256 286.68,174.241 450.178,256 511.956,256 511.956,231.842 371.682,161.697    511.956,161.697 511.956,94.338 371.682,94.338 511.956,24.193  "/>
</g>
<g>
	<rect x="0.084" y="107.81" style="fill:#FF4B55;" width="511.87" height="40.41"/>
	<rect x="242.78" y="0.035" style="fill:#FF4B55;" width="26.476" height="255.97"/>
</g>
<path style="fill:#FFE15A;" d="M325.107,104.548l-19.874,10.275l-7.849-18.26c-0.81-1.884-4.06-2.222-5.481-0.569l-16.188,18.829  l-16.926-26.249c-1.134-1.759-4.372-1.759-5.506,0l-16.926,26.249l-16.188-18.829c-1.421-1.653-4.671-1.315-5.481,0.569  l-7.849,18.26l-19.874-10.275c-2.627-1.358-5.872,0.864-4.46,3.054l19.415,30.111h-0.84c-2.254,0-4.079,1.417-4.079,3.164v8.933  c0,1.748,1.827,3.164,4.079,3.164h109.912c2.254,0,4.079-1.417,4.079-3.164v-8.933c0-1.747-1.827-3.164-4.079-3.164h-0.84  l19.415-30.111C330.978,105.412,327.732,103.19,325.107,104.548z"/>
<g>
	<polygon style="fill:#FF4B55;" points="178.988,161.697 0.084,250.305 0.084,256 21.064,256 211.408,161.697  "/>
	<polygon style="fill:#FF4B55;" points="511.956,256 511.956,243.726 346.386,161.697 313.965,161.697 504.265,256  "/>
</g>
<g>
	<path style="fill:#41479B;" d="M511.899,330.095c-25.629,0-25.629-11.787-51.26-11.787c-25.612,0-25.612,11.787-51.225,11.787   c-25.59,0-25.59-11.787-51.18-11.787c-25.587,0-25.587,11.787-51.173,11.787c-25.594,0-25.594-11.787-51.188-11.787   s-25.594,11.787-51.187,11.787s-25.594-11.787-51.187-11.787c-25.582,0-25.582,11.787-51.165,11.787   c-25.57,0-25.57-11.787-51.139-11.787c-25.586,0-25.586,11.787-51.17,11.787v-35.363c25.586,0,25.586-11.787,51.17-11.787   c25.57,0,25.57,11.787,51.139,11.787c25.582,0,25.582-11.787,51.165-11.787c25.594,0,25.594,11.787,51.187,11.787   s25.593-11.787,51.187-11.787s25.594,11.787,51.188,11.787c25.586,0,25.586-11.787,51.173-11.787   c25.59,0,25.59,11.787,51.18,11.787c25.613,0,25.613-11.787,51.225-11.787c25.629,0,25.629,11.787,51.26,11.787V330.095z"/>
	<path style="fill:#41479B;" d="M511.899,400.822c-25.629,0-25.629-11.787-51.26-11.787c-25.612,0-25.612,11.787-51.225,11.787   c-25.59,0-25.59-11.787-51.18-11.787c-25.587,0-25.587,11.787-51.173,11.787c-25.594,0-25.594-11.787-51.188-11.787   s-25.594,11.787-51.187,11.787s-25.594-11.787-51.187-11.787c-25.582,0-25.582,11.787-51.165,11.787   c-25.57,0-25.57-11.787-51.139-11.787c-25.586,0-25.586,11.787-51.17,11.787v-35.363c25.586,0,25.586-11.787,51.17-11.787   c25.57,0,25.57,11.787,51.139,11.787c25.582,0,25.582-11.787,51.165-11.787c25.594,0,25.594,11.787,51.187,11.787   s25.593-11.787,51.187-11.787s25.594,11.787,51.188,11.787c25.586,0,25.586-11.787,51.173-11.787   c25.59,0,25.59,11.787,51.18,11.787c25.613,0,25.613-11.787,51.225-11.787c25.629,0,25.629,11.787,51.26,11.787V400.822z"/>
	<path style="fill:#41479B;" d="M511.899,471.55c-25.629,0-25.629-11.787-51.26-11.787c-25.612,0-25.612,11.787-51.225,11.787   c-25.59,0-25.59-11.787-51.18-11.787c-25.587,0-25.587,11.787-51.173,11.787c-25.594,0-25.594-11.787-51.188-11.787   s-25.594,11.787-51.187,11.787s-25.594-11.787-51.187-11.787c-25.582,0-25.582,11.787-51.165,11.787   c-25.57,0-25.57-11.787-51.139-11.787c-25.586,0-25.586,11.787-51.17,11.787v-35.363c25.586,0,25.586-11.787,51.17-11.787   c25.57,0,25.57,11.787,51.139,11.787c25.582,0,25.582-11.787,51.165-11.787c25.594,0,25.594,11.787,51.187,11.787   s25.593-11.787,51.187-11.787s25.594,11.787,51.188,11.787c25.586,0,25.586-11.787,51.173-11.787   c25.59,0,25.59,11.787,51.18,11.787c25.613,0,25.613-11.787,51.225-11.787c25.629,0,25.629,11.787,51.26,11.787V471.55z"/>
</g>
<g>
	<polygon style="fill:#FF4B55;" points="194.242,94.338 3.874,0.035 0,0.035 0,14.153 161.822,94.338  "/>
	<polygon style="fill:#FF4B55;" points="332.567,94.338 511.93,5.654 511.956,0.035 490.487,0.035 300.147,94.338  "/>
</g>
<g>
	<path style="fill:#FFE15A;" d="M428.525,497.884c21.959-11.309,29.859-28.272,32.736-34.573   c4.357-9.545,24.573-17.245,24.573-17.245s-24.974,0.117-38.339,17.47c-12.322,15.998-34.508,17.374-55.904,29.614   c-2.04-2.564-4.138-5.078-6.317-7.521l66.67-80.705l-80.705,66.67c-3.16-2.818-6.426-5.514-9.787-8.098   c2.126-5.524,6.318-14.062,14.549-23.785c15.959-18.851,16.767-37.546,17.013-44.468c0.373-10.487,16.103-25.336,16.103-25.336   s-23.027,9.665-28.736,30.812c-5.259,19.484-25.211,29.247-40.291,48.723c-2.863-1.593-5.761-3.129-8.72-4.561l30.692-100.015   l-49.034,92.451c-3.989-1.391-8.039-2.65-12.155-3.75c-0.146-5.92,0.466-15.396,4.34-27.499c7.53-23.524,1.122-41.104-1.3-47.594   c-3.667-9.832,5.181-29.57,5.181-29.57s-17.576,17.742-14.756,39.463c2.598,20.02-12.109,36.678-18.585,60.455   c-3.24-0.368-6.5-0.661-9.791-0.848l-9.924-104.197l-9.924,104.197c-4.261,0.241-8.472,0.667-12.645,1.211   c-2.403-5.409-5.477-14.412-6.532-27.109c-2.045-24.616-14.693-38.406-19.413-43.474c-7.152-7.679-6.529-29.301-6.529-29.301   s-9.448,23.117,1.469,42.105c10.06,17.499,2.853,38.513,5.962,62.95c-3.164,0.904-6.291,1.887-9.377,2.963l-49.034-92.451   l30.692,100.015c-3.826,1.853-7.551,3.877-11.214,5.996c-4.29-4.078-10.571-11.218-16.399-22.536   c-11.309-21.959-28.272-29.859-34.573-32.736c-9.546-4.357-17.245-24.572-17.245-24.572s0.117,24.973,17.47,38.339   c15.998,12.322,17.374,34.508,29.614,55.904c-2.564,2.04-5.078,4.138-7.521,6.317L60.13,404.924l66.67,80.705   c-2.818,3.159-5.514,6.426-8.097,9.787c-5.524-2.126-14.063-6.318-23.785-14.549c-18.851-15.96-37.546-16.767-44.468-17.014   c-10.487-0.373-25.336-16.102-25.336-16.102s9.665,23.027,30.812,28.735c17.479,4.718,27.19,21.236,43.052,35.478h309.396   C412.645,507.886,419.054,502.763,428.525,497.884z"/>
	<polygon style="fill:#FFE15A;" points="479.649,511.965 512,494.806 456.088,511.965  "/>
	<polygon style="fill:#FFE15A;" points="0.07,494.806 32.422,511.965 55.983,511.965  "/>
</g>
<g>
</g>
<g>
</g>
<g>
</g>
<g>
</g>
<g>
</g>
<g>
</g>
<g>
</g>
<g>
</g>
<g>
</g>
<g>
</g>
<g>
</g>
<g>
</g>
<g>
</g>
<g>
</g>
<g>
</g>
</svg>
