<?xml version="1.0" encoding="iso-8859-1"?>
<!-- Generator: Adobe Illustrator 19.0.0, SVG Export Plug-In . SVG Version: 6.00 Build 0)  -->
<svg xmlns="http://www.w3.org/2000/svg" xmlns:xlink="http://www.w3.org/1999/xlink" version="1.1" id="Layer_1" x="0px" y="0px" viewBox="0 0 512 512" style="enable-background:new 0 0 512 512;" xml:space="preserve">
<rect style="fill:#FFE15A;" width="512" height="512"/>
<polygon style="fill:#F5F5F5;" points="0,94.316 512,417.684 512,323.369 0,0 "/>
<polygon style="fill:#464655;" points="0,188.632 512,512 512,417.684 0,94.316 "/>
<g>
	<path style="fill:#FF4B55;" d="M305.589,240.326l0.006-0.251c0,0-0.117-1.21-0.338-3.479c-0.067-1.134-0.327-2.514-0.672-4.124   c-0.266-1.624-0.78-3.44-1.439-5.443c-1.326-3.977-3.367-8.725-6.891-13.322c-0.426-0.568-0.93-1.129-1.394-1.694   c2-2.292,3.949-4.958,5.788-8.176c0,0-10.081,0.462-21.402-4.478c-3.738-1.946-7.796-3.543-12.248-4.589l-2.112-8.446   c-0.452-1.807-2.075-3.075-3.938-3.075h-2.919v-4.059h14.206l-4.059-8.118l4.059-8.118H258.03v-4.059h-4.059v24.353h-2.919   c-1.862,0-3.486,1.268-3.938,3.075l-2.066,8.265c-2.742,0.584-5.473,1.326-8.123,2.452c-2.169,0.869-4.267,1.957-6.315,3.173   c-10.413,3.996-19.257,3.624-19.257,3.624c1.838,3.216,3.785,5.88,5.783,8.171c-0.405,0.493-0.854,0.934-1.246,1.44   c-2.766,3.755-4.973,7.977-6.658,12.46c-1.603,4.353-2.514,9.878-2.82,13.917l-0.008,3.905c-0.041,1.226,0.099,2.441,0.229,3.66   c0.16,2.457,0.703,4.855,1.214,7.271c1.266,4.758,3.118,9.387,5.643,13.637c5.054,8.514,12.763,15.225,21.404,19.385   c4.465,1.967,8.683,3.466,13.716,4.182c2.682,0.499,4.351,0.491,6.337,0.665l0.361,0.027l0.18,0.013l0.59,0.015l0.846-0.035   l1.684-0.076c1.117-0.075,2.235-0.061,3.331-0.224c8.832-0.969,16.794-4.403,23.009-8.862c6.215-4.538,10.679-10.074,13.737-15.349   c3.106-5.281,4.708-10.391,5.696-14.576c0.472-2.09,0.824-4,0.951-5.797c0.201-1.778,0.318-3.234,0.265-4.186   C305.592,241.423,305.589,240.326,305.589,240.326z M231.821,268.931c-2.821-2.198-5.369-4.817-7.693-7.707   c-2.237-2.959-4.024-6.297-5.427-9.846c-1.323-3.473-2.051-7.648-2.409-11.052c-0.099-4.723,0.122-7.943,1.024-11.971   c0.983-3.824,2.416-7.568,4.411-11.023c0.116-0.2,0.273-0.37,0.392-0.567c9.227,7.207,18.97,6.694,25.764,3.197v7.938   c2.241,0,4.059,4.543,4.059,10.147s-1.817,10.147-4.059,10.147v4.059c7.612,10.15,4.12,18.713-0.558,23.707   c-2.123-0.461-4.325-1.081-6.386-1.892C237.744,272.824,234.709,271.034,231.821,268.931z M295.703,239.87   c-0.007,0.059-0.115,1.104-0.322,3.092c-0.062,1.109-0.307,2.16-0.591,3.322c-0.202,1.173-0.631,2.593-1.182,4.203   c-1.099,3.154-2.752,6.92-5.626,10.528c-2.809,3.62-6.597,7.193-11.325,9.989c-3.594,2.132-7.818,3.576-12.281,4.602   c-4.52-5.037-7.703-13.428-0.259-23.354v-4.059c-2.241,0-4.059-4.543-4.059-10.147s1.817-10.147,4.059-10.147v-7.938   c6.802,3.502,16.56,4.013,25.796-3.221c0.157,0.266,0.351,0.536,0.5,0.8c2.456,4.292,3.67,8.42,4.432,11.782   c0.363,1.697,0.63,3.211,0.693,4.557c0.141,1.331,0.242,2.457,0.184,3.384C295.711,238.835,295.705,239.633,295.703,239.87z"/>
	<path style="fill:#FF4B55;" d="M256,300.959c-14.987,0-28.581-5.838-38.727-15.326c-1.863-1.742-4.81-1.53-6.469,0.406   l-15.543,18.133c-1.652,1.927-0.283,4.905,2.256,4.905h9.776l13.031,6.515c1.831,0.915,4.057,0.324,5.192-1.379l4.194-6.292   c8.106,3.344,16.976,5.214,26.289,5.214s18.184-1.87,26.289-5.214l4.194,6.292c1.135,1.703,3.362,2.294,5.192,1.379l13.031-6.515   h9.776c2.538,0,3.908-2.977,2.256-4.905l-15.543-18.133c-1.66-1.936-4.607-2.148-6.469-0.406   C284.581,295.121,270.988,300.959,256,300.959z"/>
	<path style="fill:#FF4B55;" d="M199.175,284.724H178.88l4.059-36.53c0,0-14.207-7.104-12.719-27.955   c0.181-2.536,2.325-4.516,4.867-4.516h3.464c2.392,0,4.397,1.734,4.793,4.093c0.854,5.091,3.511,13.448,11.772,16.202   L199.175,284.724z"/>
	<path style="fill:#FF4B55;" d="M312.825,284.724h20.295l-4.059-36.53c0,0,14.207-7.104,12.719-27.955   c-0.181-2.536-2.325-4.516-4.867-4.516h-3.464c-2.392,0-4.397,1.734-4.793,4.093c-0.854,5.091-3.511,13.448-11.772,16.202   L312.825,284.724z"/>
</g>
<g>
	<path style="fill:#FFE15A;" d="M201.395,288.783h-24.734c-1.016,0-1.839-0.823-1.839-1.839v-0.381c0-1.016,0.823-1.839,1.839-1.839   h24.734c1.016,0,1.839,0.823,1.839,1.839v0.381C203.234,287.959,202.411,288.783,201.395,288.783z"/>
	<path style="fill:#FFE15A;" d="M335.34,288.783h-24.734c-1.016,0-1.839-0.823-1.839-1.839v-0.381c0-1.016,0.823-1.839,1.839-1.839   h24.734c1.016,0,1.839,0.823,1.839,1.839v0.381C337.179,287.959,336.355,288.783,335.34,288.783z"/>
</g>
<g>
</g>
<g>
</g>
<g>
</g>
<g>
</g>
<g>
</g>
<g>
</g>
<g>
</g>
<g>
</g>
<g>
</g>
<g>
</g>
<g>
</g>
<g>
</g>
<g>
</g>
<g>
</g>
<g>
</g>
</svg>
