<?xml version="1.0" encoding="iso-8859-1"?>
<!-- Generator: Adobe Illustrator 19.0.0, SVG Export Plug-In . SVG Version: 6.00 Build 0)  -->
<svg xmlns="http://www.w3.org/2000/svg" xmlns:xlink="http://www.w3.org/1999/xlink" version="1.1" id="Layer_1" x="0px" y="0px" viewBox="0 0 512 512" style="enable-background:new 0 0 512 512;" xml:space="preserve">
<rect style="fill:#F5F5F5;" width="512" height="256"/>
<polygon style="fill:#FF4B55;" points="17.655,256 17.655,242.526 0,242.526 0,256 0,269.474 0,512 512,512 512,256 "/>
<rect style="fill:#41479B;" width="256" height="256"/>
<path style="fill:#F5F5F5;" d="M133.19,70.533l12.845,38.515l40.599,0.315c5.256,0.041,7.436,6.749,3.207,9.871l-32.66,24.118  l12.247,38.709c1.586,5.012-4.121,9.157-8.397,6.101L128,164.554l-33.03,23.609c-4.276,3.057-9.983-1.089-8.397-6.101l12.247-38.709  l-32.66-24.118c-4.228-3.123-2.049-9.831,3.207-9.871l40.599-0.315l12.845-38.515C124.473,65.547,131.527,65.547,133.19,70.533z"/>
<g>
</g>
<g>
</g>
<g>
</g>
<g>
</g>
<g>
</g>
<g>
</g>
<g>
</g>
<g>
</g>
<g>
</g>
<g>
</g>
<g>
</g>
<g>
</g>
<g>
</g>
<g>
</g>
<g>
</g>
</svg>
