<?xml version="1.0" encoding="iso-8859-1"?>
<!-- Generator: Adobe Illustrator 19.0.0, SVG Export Plug-In . SVG Version: 6.00 Build 0)  -->
<svg xmlns="http://www.w3.org/2000/svg" xmlns:xlink="http://www.w3.org/1999/xlink" version="1.1" id="Layer_1" x="0px" y="0px" viewBox="0 0 512 512" style="enable-background:new 0 0 512 512;" xml:space="preserve">
<rect style="fill:#F5F5F5;" width="512" height="512"/>
<path style="fill:#464655;" d="M142.247,273.341c0,0,0.245,4.682-3.698,8.871c-3.943,4.191-1.972,9.612,3.204,12.077  c0,0-3.572,8.502,1.726,12.075c3.345,2.258,7.886,1.972,7.886,1.972s2.465,10.106,0.494,16.511  c-1.972,6.408,0.739,24.891,45.839,14.294c0,0,0.409,11.829,18.483,21.03c18.071,9.201,14.532,30.995,14.532,30.995  s24.876,14.402,52.37-19.639c27.494-34.04,29.458-38.623,49.097-46.478c0,0-30.767-31.422-19.639-58.916  c1.465-3.623,3.122-7.426,4.848-11.336c3.186,10.349,9.479,25.459,20.723,34.247c3.498,2.721,7.815,3.58,11.988,4.419  c4.48,0.9,8.346,1.677,10.167,4.439c1.601,2.46,1.747,6.799,0.509,12.803c-13.369,14.583-26.287,18.47-26.469,18.516l-3.109,0.839  l6.536,21.556l-19.506,17.946l0.348,1.739c2.414,12.029,9.84,13.624,12.908,13.767c0.184,0,0.368,0.02,0.552,0.02  c7.099,0,14.32-5.973,16.611-13.849c3.969-13.604,16.918-15.159,17.061-15.159l1.964-0.225l0.655-1.862  c0.286-0.818,7.017-20.211,10.331-39.973c1.332-7.994,1.585-14.356,1.314-19.922c0.102-0.192,0.22-0.299,0.322-0.494l-0.338-0.176  c-1.25-21.071-12.678-26.678-23.965-31.88c-9.622-4.467-13.399-8.804-15.269-12.243c0.389,0.01,0.719,0.113,1.112,0.113  c3.069,0,6.301-0.348,9.574-1.268c9.124-2.537,16.509-8.776,21.95-18.534c3.314-5.973,27.965-73.604,30.767-81.296l1.943-5.339  l-31.821,6.792l2.424-19.352l-41.241,14.545l0.982,2.946c0.143,0.389,13.277,39.83,12.008,63.907  c-0.348,6.321-2.332,10.904-5.953,13.604c-4.552,3.363-10.722,3.184-13.944,2.836c7.178-19.071,11.806-39.108,4.963-57.047  c-11.336-29.721-61.534-56.952-99.502-53.024c-37.968,3.928-69.436,13.103-79.91,51.071c-10.474,37.968-7.554,48-6.244,54.546  c1.309,6.546-23.352,35.442-18.892,44.361C131.896,274.08,142.247,273.341,142.247,273.341z M324.244,239.004  c0.66-1.557,1.319-3.107,1.961-4.685c1.163,0.207,2.887,0.453,5.421,0.453c4.296,0,9.922-0.818,14.606-4.316  c5.176-3.866,8.019-10.024,8.449-18.309c1.166-21.602-8.244-53.454-11.354-63.294l25.858-9.103l-6.28,50.16l6.219,0.777  l4.298-34.322l22.868-4.874c-10.904,29.867-26.226,71.129-28.415,75.056c-4.603,8.244-10.719,13.481-18.166,15.547  C338.528,245.267,327.875,240.787,324.244,239.004z M339.755,358.296l3.191,10.53c-0.082,0.256-0.238,0.391-0.315,0.655  c-1.493,5.114-6.301,9.308-10.576,9.308c-0.102,0-0.205,0-0.286,0c-3.887-0.164-5.748-3.948-6.628-7.037L339.755,358.296z   M373.543,303.962c-0.253,2.823-0.527,5.682-1.084,9.037c-2.659,15.895-7.774,32.015-9.492,37.191  c-3.519,0.823-10.781,3.311-15.964,10.346l-7.991-26.302C345.381,331.702,360.304,323.34,373.543,303.962z M321.462,245.563  c0.12-0.274,0.238-0.524,0.355-0.798c2.363,1.12,6.349,2.767,11.668,3.805c1.478,4.398,4.94,11.758,19.866,18.667  c10.351,4.779,19.058,8.832,20.444,24.83c-1.954,3.593-4.094,6.088-6.181,9.039c-0.304-2.542-0.895-4.823-2.092-6.641  c-3.273-4.971-9.062-6.137-14.197-7.16c-3.621-0.736-7.037-1.412-9.349-3.212C328.768,273.778,323.106,252.813,321.462,245.563z   M158.019,199.159c0,0,0.984-22.178,10.845-40.909l150.824,69.991l-12.816,27.601L158.019,199.159z"/>
<g>
</g>
<g>
</g>
<g>
</g>
<g>
</g>
<g>
</g>
<g>
</g>
<g>
</g>
<g>
</g>
<g>
</g>
<g>
</g>
<g>
</g>
<g>
</g>
<g>
</g>
<g>
</g>
<g>
</g>
</svg>
