<?xml version="1.0" encoding="iso-8859-1"?>
<!-- Generator: Adobe Illustrator 19.0.0, SVG Export Plug-In . SVG Version: 6.00 Build 0)  -->
<svg xmlns="http://www.w3.org/2000/svg" xmlns:xlink="http://www.w3.org/1999/xlink" version="1.1" id="Layer_1" x="0px" y="0px" viewBox="0 0 512 512" style="enable-background:new 0 0 512 512;" xml:space="preserve">
<rect style="fill:#FF4B55;" width="512" height="512"/>
<path style="fill:#FFE15A;" d="M345.999,264.368c5.138-3.678,5.138-13.059,0-16.737L0,0v512C0,512,346.241,264.349,345.999,264.368z  "/>
<path style="fill:#464655;" d="M0,512l235.601-246.731c4.596-4.806,4.596-13.731,0-18.538L0,0V512z"/>
<path style="fill:#F5F5F5;" d="M68.134,183.534l1.284,48.494l-45.467,16.914c-4.36,1.622-4.146,7.86,0.314,9.18l46.517,13.764  l2.036,48.468c0.195,4.648,6.194,6.372,8.828,2.538l27.465-39.987l46.725,13.041c4.481,1.251,7.975-3.922,5.142-7.612  l-29.543-38.478l26.842-40.408c2.574-3.875-1.266-8.796-5.65-7.242l-45.724,16.207l-30.136-38.015  C73.878,176.753,68.011,178.884,68.134,183.534z"/>
<g>
</g>
<g>
</g>
<g>
</g>
<g>
</g>
<g>
</g>
<g>
</g>
<g>
</g>
<g>
</g>
<g>
</g>
<g>
</g>
<g>
</g>
<g>
</g>
<g>
</g>
<g>
</g>
<g>
</g>
</svg>
