<?xml version="1.0" encoding="iso-8859-1"?>
<!-- Generator: Adobe Illustrator 19.0.0, SVG Export Plug-In . SVG Version: 6.00 Build 0)  -->
<svg xmlns="http://www.w3.org/2000/svg" xmlns:xlink="http://www.w3.org/1999/xlink" version="1.1" id="Layer_1" x="0px" y="0px" viewBox="0 0 512 512" style="enable-background:new 0 0 512 512;" xml:space="preserve">
<rect style="fill:#41479B;" width="512" height="512"/>
<g>
	<path style="fill:#FFE15A;" d="M259.885,99.898l4.27,12.804l13.496,0.105c1.747,0.014,2.472,2.243,1.066,3.282l-10.857,8.018   l4.071,12.868c0.527,1.666-1.37,3.044-2.791,2.028l-10.98-7.848l-10.98,7.848c-1.422,1.016-3.318-0.362-2.791-2.028l4.071-12.868   l-10.857-8.018c-1.406-1.038-0.681-3.268,1.066-3.282l13.496-0.105l4.27-12.804C256.987,98.24,259.332,98.24,259.885,99.898z"/>
	<path style="fill:#FFE15A;" d="M259.885,374.797l4.27,12.804l13.496,0.105c1.747,0.014,2.472,2.243,1.066,3.282l-10.857,8.018   l4.071,12.868c0.527,1.666-1.37,3.044-2.791,2.028l-10.98-7.848l-10.98,7.848c-1.422,1.016-3.318-0.362-2.791-2.028l4.071-12.868   l-10.857-8.018c-1.406-1.038-0.681-3.268,1.066-3.282l13.496-0.105l4.27-12.804C256.987,373.139,259.332,373.139,259.885,374.797z"/>
	<path style="fill:#FFE15A;" d="M397.334,237.347l4.27,12.804l13.496,0.105c1.747,0.014,2.472,2.243,1.066,3.282l-10.857,8.018   l4.071,12.868c0.527,1.666-1.37,3.044-2.791,2.028l-10.98-7.848l-10.98,7.848c-1.422,1.016-3.319-0.362-2.791-2.028l4.071-12.868   l-10.857-8.018c-1.406-1.038-0.681-3.268,1.066-3.282l13.496-0.105l4.27-12.804C394.437,235.689,396.781,235.689,397.334,237.347z"/>
	<path style="fill:#FFE15A;" d="M122.435,237.347l4.27,12.804l13.496,0.105c1.747,0.014,2.472,2.243,1.066,3.282l-10.857,8.018   l4.071,12.868c0.527,1.666-1.37,3.044-2.791,2.028l-10.98-7.848l-10.98,7.848c-1.422,1.016-3.319-0.362-2.791-2.028l4.071-12.868   l-10.857-8.018c-1.406-1.038-0.681-3.268,1.066-3.282l13.496-0.105l4.27-12.804C119.538,235.689,121.882,235.689,122.435,237.347z"/>
	<path style="fill:#FFE15A;" d="M143.069,165.569l4.27,12.804l13.496,0.105c1.747,0.014,2.472,2.243,1.066,3.282l-10.857,8.018   l4.071,12.868c0.527,1.666-1.37,3.044-2.791,2.028l-10.98-7.848l-10.98,7.848c-1.422,1.016-3.319-0.362-2.791-2.028l4.071-12.868   l-10.857-8.018c-1.406-1.038-0.681-3.268,1.066-3.282l13.496-0.105l4.27-12.804C140.171,163.912,142.516,163.912,143.069,165.569z"/>
	<path style="fill:#FFE15A;" d="M381.138,303.019l4.27,12.804l13.496,0.105c1.747,0.014,2.472,2.243,1.066,3.282l-10.857,8.018   l4.071,12.868c0.527,1.666-1.37,3.044-2.791,2.028l-10.98-7.848l-10.98,7.848c-1.422,1.016-3.318-0.362-2.791-2.028l4.071-12.868   l-10.857-8.018c-1.406-1.038-0.681-3.268,1.066-3.282l13.496-0.105l4.27-12.804C378.241,301.361,380.586,301.361,381.138,303.019z"/>
	<path style="fill:#FFE15A;" d="M330.828,115.259l4.27,12.804l13.496,0.105c1.747,0.014,2.472,2.243,1.066,3.282l-10.857,8.018   l4.071,12.868c0.527,1.666-1.37,3.044-2.791,2.028l-10.98-7.848l-10.98,7.848c-1.422,1.016-3.318-0.362-2.791-2.028l4.071-12.868   l-10.857-8.018c-1.406-1.038-0.681-3.268,1.066-3.282l13.496-0.105l4.27-12.804C327.931,113.602,330.275,113.602,330.828,115.259z"/>
	<path style="fill:#FFE15A;" d="M193.379,353.329l4.27,12.804l13.496,0.105c1.747,0.014,2.472,2.243,1.066,3.281l-10.857,8.018   l4.071,12.868c0.527,1.666-1.37,3.044-2.791,2.028l-10.98-7.848l-10.98,7.848c-1.422,1.016-3.318-0.362-2.791-2.028l4.071-12.868   l-10.857-8.018c-1.406-1.038-0.681-3.268,1.066-3.282l13.496-0.105l4.27-12.804C190.481,351.671,192.826,351.671,193.379,353.329z"/>
	<path style="fill:#FFE15A;" d="M377.688,165.569l-4.27,12.804l-13.496,0.105c-1.747,0.014-2.472,2.243-1.066,3.282l10.857,8.018   l-4.071,12.868c-0.527,1.666,1.37,3.044,2.791,2.028l10.98-7.848l10.98,7.848c1.422,1.016,3.318-0.362,2.791-2.028l-4.071-12.868   l10.857-8.018c1.406-1.038,0.681-3.268-1.066-3.282l-13.496-0.105l-4.27-12.804C380.585,163.912,378.241,163.912,377.688,165.569z"/>
	<path style="fill:#FFE15A;" d="M139.618,303.019l-4.27,12.804l-13.496,0.105c-1.747,0.014-2.472,2.243-1.066,3.282l10.857,8.018   l-4.071,12.868c-0.527,1.666,1.37,3.044,2.791,2.028l10.98-7.848l10.98,7.848c1.422,1.016,3.319-0.362,2.791-2.028l-4.071-12.868   l10.857-8.018c1.406-1.038,0.681-3.268-1.066-3.282l-13.496-0.105l-4.27-12.804C142.516,301.361,140.171,301.361,139.618,303.019z"/>
	<path style="fill:#FFE15A;" d="M189.928,115.259l-4.27,12.804l-13.496,0.105c-1.747,0.014-2.472,2.243-1.066,3.282l10.857,8.018   l-4.071,12.868c-0.527,1.666,1.37,3.044,2.791,2.028l10.98-7.848l10.98,7.848c1.422,1.016,3.319-0.362,2.791-2.028l-4.071-12.868   l10.857-8.018c1.406-1.038,0.681-3.268-1.066-3.282l-13.496-0.105l-4.27-12.804C192.826,113.602,190.481,113.602,189.928,115.259z"/>
	<path style="fill:#FFE15A;" d="M327.378,353.329l-4.27,12.804l-13.496,0.105c-1.747,0.014-2.472,2.243-1.066,3.281l10.857,8.018   l-4.071,12.868c-0.527,1.666,1.37,3.044,2.791,2.028l10.98-7.848l10.98,7.848c1.422,1.016,3.319-0.362,2.791-2.028l-4.071-12.868   l10.857-8.018c1.406-1.038,0.681-3.268-1.066-3.282l-13.496-0.105l-4.27-12.804C330.275,351.671,327.931,351.671,327.378,353.329z"/>
</g>
<g>
</g>
<g>
</g>
<g>
</g>
<g>
</g>
<g>
</g>
<g>
</g>
<g>
</g>
<g>
</g>
<g>
</g>
<g>
</g>
<g>
</g>
<g>
</g>
<g>
</g>
<g>
</g>
<g>
</g>
</svg>
