<?xml version="1.0" encoding="iso-8859-1"?>
<!-- Generator: Adobe Illustrator 19.0.0, SVG Export Plug-In . SVG Version: 6.00 Build 0)  -->
<svg xmlns="http://www.w3.org/2000/svg" xmlns:xlink="http://www.w3.org/1999/xlink" version="1.1" id="Layer_1" x="0px" y="0px" viewBox="0 0 512 512" style="enable-background:new 0 0 512 512;" xml:space="preserve">
<rect style="fill:#FF4B55;" width="512" height="512"/>
<g>
	<path style="fill:#F5F5F5;" d="M220.695,270.473c-12.464,0.128-26.458-3.863-38.722-17.38c-0.846-0.932-0.727-2.4,0.233-3.214   l0.004-0.004c0.932-0.79,2.31-0.667,3.132,0.236c18.692,20.527,41.861,16.933,55.702,11.973   c-5.114,0.227-11.539-0.157-15.672-2.874c-17.265-11.348-9.445-23.422-20.912-38.017c-11.394-14.501-21.646-14.146-37.79-11.7   c-15.982,2.422-21.074-9.301-22.658-15.808c-0.284-1.165-1.909-1.239-2.325-0.115c-19.92,53.82,39.977,120.414,101.471,72.532   C237.093,268.338,229.278,270.385,220.695,270.473z M175.821,252.208c-0.35,0.961-1.722,0.924-2.019-0.055l-2.294-7.559   l-7.895-0.277c-1.022-0.036-1.41-1.352-0.571-1.937l6.48-4.518l-2.177-7.594c-0.282-0.983,0.85-1.759,1.666-1.142l6.299,4.767   l6.549-4.417c0.848-0.572,1.936,0.265,1.601,1.231l-2.587,7.464l6.224,4.864c0.806,0.63,0.346,1.923-0.676,1.903l-7.898-0.154   L175.821,252.208z"/>
	<path style="fill:#F5F5F5;" d="M264.813,234.715c9.897-7.577,23.489-12.776,41.408-9.314c1.236,0.239,2.021,1.484,1.741,2.712   l-0.001,0.006c-0.272,1.191-1.448,1.919-2.648,1.689c-27.267-5.216-43.652,11.555-51.754,23.825   c3.956-3.249,9.328-6.794,14.264-7.099c20.621-1.273,21.604,13.079,39.534,17.88c17.814,4.771,25.805-1.661,37.257-13.301   c11.337-11.523,22.441-5.195,27.611-0.939c0.926,0.762,2.271-0.154,1.929-1.303c-16.336-55.013-104.205-72.381-124.697,2.813   C252.971,246.258,257.998,239.933,264.813,234.715z M311.675,222.419c-0.297-0.979,0.824-1.772,1.648-1.167l6.369,4.673   l6.483-4.513c0.839-0.584,1.94,0.236,1.619,1.207l-2.476,7.501l6.296,4.771c0.815,0.618,0.375,1.917-0.648,1.913l-7.899-0.037   l-2.592,7.462c-0.336,0.966-1.708,0.949-2.019-0.025l-2.406-7.524l-7.898-0.159c-1.022-0.021-1.43-1.331-0.6-1.928l6.412-4.613   L311.675,222.419z"/>
	<path style="fill:#F5F5F5;" d="M231.808,239.902c-4.861-11.477-6.495-25.938,1.339-42.422c0.54-1.137,1.943-1.586,3.061-1.007   l0.005,0.003c1.085,0.561,1.496,1.882,0.973,2.987c-11.87,25.096,0.269,45.155,10.123,56.068   c-2.156-4.643-4.245-10.731-3.306-15.586c3.925-20.284,18.067-17.646,27.2-33.805c9.075-16.054,4.846-25.4-3.56-39.399   c-8.321-13.859,0.583-23.027,5.997-26.968c0.969-0.706,0.419-2.237-0.779-2.194c-57.351,2.057-96.144,82.788-28.465,121.437   C240.021,254.254,235.155,247.805,231.808,239.902z M231.623,191.453c-1.022,0.042-1.509-1.241-0.717-1.888l6.117-4.998   l-2.748-7.406c-0.356-0.959,0.714-1.819,1.574-1.265l6.643,4.274l6.194-4.902c0.802-0.635,1.95,0.117,1.69,1.106l-2.012,7.639   l6.576,4.376c0.852,0.567,0.492,1.891-0.529,1.949l-7.887,0.448l-2.13,7.607c-0.276,0.985-1.646,1.052-2.017,0.099l-2.863-7.362   L231.623,191.453z"/>
	<path style="fill:#F5F5F5;" d="M276.493,265.945c10.302,7.016,19.507,18.287,21.849,36.387c0.162,1.248-0.774,2.385-2.028,2.504   l-0.006,0.001c-1.216,0.116-2.277-0.772-2.436-1.984c-3.612-27.526-24.681-37.814-38.874-41.652   c4.327,2.735,9.38,6.722,11.22,11.312c7.685,19.178-5.631,24.619-4.558,43.149c1.066,18.411,9.682,23.977,24.33,31.193   c14.5,7.144,11.981,19.674,9.564,25.919c-0.433,1.118,0.859,2.108,1.843,1.423c47.098-32.789,35.989-121.665-41.837-117.503   C261.815,258.328,269.399,261.113,276.493,265.945z M302.886,306.573c0.836-0.589,1.941,0.226,1.625,1.199l-2.436,7.514   l6.321,4.738c0.818,0.613,0.385,1.916-0.638,1.916l-7.899,0.005l-2.552,7.476c-0.33,0.968-1.703,0.958-2.019-0.015l-2.446-7.511   l-7.899-0.117c-1.023-0.015-1.438-1.323-0.61-1.925l6.388-4.647l-2.329-7.548c-0.301-0.977,0.815-1.776,1.642-1.175l6.394,4.639   L302.886,306.573z"/>
	<path style="fill:#F5F5F5;" d="M250.727,288.28c-3.549,11.949-11.484,24.147-28.014,31.885c-1.14,0.534-2.508-0.012-3.003-1.169   l-0.002-0.005c-0.48-1.123,0.043-2.404,1.148-2.924c25.121-11.817,28.511-35.016,27.848-49.705   c-1.289,4.954-3.549,10.981-7.362,14.13c-15.93,13.156-25.165,2.127-42.49,8.787c-17.214,6.617-19.894,16.519-22.311,32.668   c-2.393,15.987-15.095,17.399-21.78,16.997c-1.197-0.072-1.746,1.46-0.794,2.188c45.565,34.888,126.847-2.738,99.201-75.607   C253.517,271.981,253.171,280.052,250.727,288.28z M220.056,325.784c0.815,0.617,0.376,1.917-0.647,1.913l-7.899-0.034l-2.59,7.463   c-0.335,0.966-1.708,0.95-2.019-0.024l-2.408-7.523l-7.898-0.157c-1.022-0.02-1.431-1.33-0.601-1.928l6.411-4.615l-2.292-7.56   c-0.297-0.979,0.823-1.772,1.648-1.167l6.371,4.671l6.482-4.516c0.839-0.584,1.939,0.236,1.619,1.207l-2.473,7.502L220.056,325.784   z"/>
</g>
<g>
</g>
<g>
</g>
<g>
</g>
<g>
</g>
<g>
</g>
<g>
</g>
<g>
</g>
<g>
</g>
<g>
</g>
<g>
</g>
<g>
</g>
<g>
</g>
<g>
</g>
<g>
</g>
<g>
</g>
</svg>
