<?xml version="1.0" encoding="iso-8859-1"?>
<!-- Generator: Adobe Illustrator 19.0.0, SVG Export Plug-In . SVG Version: 6.00 Build 0)  -->
<svg xmlns="http://www.w3.org/2000/svg" xmlns:xlink="http://www.w3.org/1999/xlink" version="1.1" id="Layer_1" x="0px" y="0px" viewBox="0 0 512 512" style="enable-background:new 0 0 512 512;" xml:space="preserve">
<rect style="fill:#FF4B55;" width="512" height="512"/>
<g>
	<path style="fill:#FFE15A;" d="M257.931,256.581l-3.733,2.156c-6.466-9.311-6.112-32.083-6.112-32.342   c0.068-0.676-0.338-1.283-0.945-1.553L219.167,212.6l0.16-2.872c14.588,1.683,31.45,8.468,31.684,8.585   c0.574,0.362,1.298,0.272,1.812-0.152l23.212-19.353l4.995,4.465c-7.238,8.89-24.847,21.169-25.074,21.295   c-0.623,0.269-0.958,0.918-0.899,1.581L257.931,256.581z"/>
	<path style="fill:#FFE15A;" d="M359.431,118.694c0.569,0.291,1.254,0.235,1.771-0.146l6.065-4.49l-1.927,5.599   c-0.216,0.637-0.029,1.347,0.472,1.808l2.856,2.552c-0.848,1.432-1.184,3.196-1.217,5.036l-4.233,2.149   c-0.358,0.184-0.642,0.488-0.797,0.861l-3.157,7.643l-1.73-6.337c-0.222-0.835-1.017-1.344-1.855-1.229l-7.617,1.041l6.182-7.003   c0.331-0.376,0.476-0.875,0.403-1.366l-1.377-9.248L359.431,118.694z"/>
	<path style="fill:#FFE15A;" d="M290.437,368.251c-0.531,0.356-0.814,0.983-0.732,1.619l0.983,7.482l-3.96-4.402   c-0.452-0.498-1.164-0.679-1.81-0.465l-3.618,1.258c-0.841-1.437-2.22-2.586-3.812-3.508l0.176-4.744   c0.013-0.402-0.115-0.798-0.366-1.114l-5.15-6.469l6.38,1.563c0.837,0.211,1.668-0.237,1.975-1.025l2.786-7.165l3.123,8.804   c0.168,0.472,0.534,0.841,0.999,1.016l8.754,3.284L290.437,368.251z"/>
	<path style="fill:#FFE15A;" d="M105.182,192.808c-0.081-0.634-0.515-1.168-1.121-1.378l-7.132-2.464l5.708-1.576   c0.647-0.182,1.128-0.738,1.225-1.412l0.491-3.799c1.661-0.11,3.306-0.831,4.842-1.842l4.165,2.277   c0.354,0.192,0.765,0.253,1.161,0.171l8.089-1.717l-4.249,5.009c-0.563,0.655-0.533,1.599,0.035,2.225l5.165,5.694l-9.271-1.141   c-0.497-0.06-0.991,0.102-1.355,0.44l-6.85,6.364L105.182,192.808z"/>
</g>
<g>
	<path style="fill:#F5F5F5;" d="M253.556,421.823c-4.119,8.306-13.033,15.194-15.261,15.599c-0.405,0.068-0.743-0.068-1.08-0.405   c-1.013-1.148-1.486-4.254-0.135-8.374c0.135-0.405,0.27-0.945,0.473-1.553L253.556,421.823z"/>
	<path style="fill:#F5F5F5;" d="M256.527,413.247c-0.54,1.621-1.013,3.241-1.351,4.457l-16.477,5.47   c0.473-1.485,0.945-3.106,1.418-4.862L256.527,413.247z"/>
</g>
<path style="fill:#FFE15A;" d="M260.174,403.995c-0.81,1.823-1.553,3.579-2.228,5.267l-16.747,5.132  c0.473-1.823,1.013-3.714,1.486-5.605L260.174,403.995z"/>
<g>
	<path style="fill:#F5F5F5;" d="M263.483,397.31c-0.473,0.878-0.945,1.756-1.418,2.701l-18.435,4.997   c0.81-3.174,1.485-6.28,2.026-8.981L263.483,397.31z"/>
	<path style="fill:#F5F5F5;" d="M268.682,390.287c-1.08,1.013-2.093,2.296-3.106,3.782l-19.381-1.418   c0.27-1.756,0.472-3.309,0.472-4.457c0-0.878-0.067-1.688-0.135-2.566c0.743,0.068,1.553,0.068,2.228,0.068   c4.862,0,8.306-0.878,10.805-2.161C262.335,387.586,265.914,389.409,268.682,390.287z"/>
	<path style="fill:#F5F5F5;" d="M272.599,387.518c-1.215-0.135-6.618-0.675-10.264-5.943c1.823-1.553,2.701-3.241,3.106-4.39   c2.026-5.672-12.087-14.518-20.731-19.245c-4.052-2.229-7.226-6.618-10.062-11.682c0.338,0.068,0.608,0.068,0.945,0.068   c4.322,0,7.766-2.026,9.589-3.579c1.621,2.701,3.106,5.2,4.457,7.361c6.145,10.399,8.981,15.126,15.532,19.718   c0.202,0.135,0.472,0.27,0.743,0.27c3.174,0.405,12.358,2.431,12.898,6.483C279.555,382.116,277.529,385.627,272.599,387.518z"/>
	<path style="fill:#F5F5F5;" d="M262.267,376.038c-0.743,2.161-3.849,7.023-16.139,6.212c-1.081-7.023-4.187-12.02-9.117-14.316   c-6.415-3.038-30.388-20.191-41.327-30.388c2.161-6.888,7.834-12.493,15.869-15.464c1.148-0.473,2.161-0.878,3.038-1.351   c2.161,1.756,4.12,3.714,5.74,5.943c2.499,3.512,4.659,7.968,6.955,12.695c4.254,8.644,8.644,17.625,15.802,21.542   C256.325,368.205,262.875,374.485,262.267,376.038z"/>
	<path style="fill:#F5F5F5;" d="M243.359,339.843c-1.283,1.283-5.537,4.187-10.669,2.701c-0.811-1.553-1.553-3.106-2.364-4.659   c-2.363-4.862-4.592-9.454-7.293-13.168c-1.553-2.229-3.511-4.187-5.605-5.943c3.039-2.634,3.511-5.47,3.646-7.901   c5.335,4.592,10.332,10.332,14.924,17.422C238.902,332.685,241.266,336.467,243.359,339.843z"/>
	<path style="fill:#F5F5F5;" d="M217.901,308.375c-0.068,0.54-0.135,1.148-0.135,1.756c-0.135,2.296-0.338,4.525-3.039,6.55   c-5.672-4.052-12.223-6.82-17.828-8.644c2.566-2.634,4.254-5.267,5.065-7.833c0,0,0,0,0.068,0   C207.569,301.757,212.904,304.526,217.901,308.375z"/>
	<path style="fill:#F5F5F5;" d="M211.418,318.437c-0.338,0.135-0.608,0.338-1.013,0.472c-8.441,3.106-14.654,8.847-17.422,15.937   c-3.309-3.309-5.673-6.28-7.563-8.644c-2.093-2.701-3.849-4.794-6.01-6.28c6.077-3.106,10.94-6.212,14.654-9.251   c0.068,0,0.068,0,0.135,0C199.466,312.292,205.881,314.722,211.418,318.437z"/>
	<path style="fill:#F5F5F5;" d="M190.89,308.848c-3.512,2.769-8.441,5.875-15.397,9.251c-1.621-0.405-3.241-0.743-4.592-1.013   c-3.309-0.608-5.47-1.081-7.158-2.971c-1.013-1.081-2.971-4.119-4.862-7.968c0.27,0.135,0.54,0.27,0.811,0.338   c1.958,0.473,4.727-0.405,8.171-1.621c4.254-1.418,9.454-3.174,14.181-2.566c4.254,0.54,5.402,2.229,6.753,4.119   C189.404,307.227,190.012,308.105,190.89,308.848z"/>
</g>
<path style="fill:#FFE15A;" d="M198.926,298.718c-0.54,2.093-2.026,4.727-5.403,7.901c-0.81-0.54-1.35-1.283-1.958-2.161  c-1.485-2.093-3.376-4.727-9.049-5.47c-5.47-0.743-11.142,1.148-15.734,2.701c-2.566,0.878-5.267,1.823-6.348,1.553  c-1.148-0.27-2.634-2.093-2.701-3.917c-0.068-2.093,1.823-3.039,3.376-3.512c3.512-1.08,7.766-0.27,11.953,0.473  c4.254,0.81,8.306,1.553,11.547,0.27c2.229-0.878,4.795-3.646,7.901-7.63c2.161,0.472,3.984,1.215,5.065,2.768  C199.128,293.924,199.533,296.287,198.926,298.718z"/>
<g>
	<path style="fill:#F5F5F5;" d="M188.594,288.454c-2.093,2.566-3.917,4.457-5.267,4.997c-2.296,0.945-5.875,0.27-9.657-0.473   c-4.322-0.81-9.251-1.688-13.506-0.405c-2.566,0.743-3.984,2.026-4.794,3.241c-0.743-3.714-0.743-7.293,0.946-10.129   c1.688-2.971,3.916-5.47,6.212-7.968c3.039,0.405,5.267,1.013,12.965,7.766c2.634,2.296,6.888,2.566,11.007,2.768   C187.175,288.319,187.919,288.387,188.594,288.454z"/>
	<path style="fill:#F5F5F5;" d="M251.327,260.565c-7.563,4.997-41.26,27.146-48.283,30.05c-0.338,0.135-0.608,0.405-0.81,0.675   c-0.203,0.338-0.338,0.608-0.54,0.945c-0.338-0.878-0.81-1.688-1.351-2.499c-1.351-1.959-3.376-3.039-5.605-3.714   c1.013-1.283,2.026-2.633,3.106-4.119c4.862-6.685,10.467-14.181,16.882-20.866c11.007-11.48,25.728-19.043,30.658-21.339   C246.128,246.856,247.749,255.298,251.327,260.565z"/>
	<path style="fill:#F5F5F5;" d="M245.047,236.12c-3.511,1.553-20.191,9.454-32.751,22.554c-6.618,6.888-12.493,14.789-17.152,21.204   c-1.418,1.891-2.769,3.714-4.052,5.402c-1.485-0.135-2.971-0.27-4.389-0.338c-3.714-0.27-7.226-0.473-8.981-2.026   c-6.483-5.673-9.522-7.361-12.425-8.103c0.27-0.27,0.473-0.54,0.743-0.81c4.254-4.322,8.711-8.846,12.223-15.126   c6.077-10.872,26.403-34.575,39.639-43.151l26.809,11.75C244.71,229.096,244.777,232.27,245.047,236.12z"/>
	<path style="fill:#F5F5F5;" d="M73.738,135.874c-5.59-7.397-7.768-18.449-7.135-20.624c0.121-0.393,0.392-0.634,0.845-0.785   c1.48-0.393,4.47,0.572,7.552,3.621c0.302,0.302,0.725,0.664,1.178,1.117L73.738,135.874z"/>
	<path style="fill:#F5F5F5;" d="M80.083,142.365c-1.208-1.208-2.447-2.355-3.383-3.2l2.47-17.185   c1.118,1.087,2.356,2.234,3.716,3.441L80.083,142.365z"/>
</g>
<path style="fill:#FFE15A;" d="M86.729,149.761c-1.269-1.54-2.508-2.989-3.716-4.347l2.893-17.276c1.42,1.238,2.87,2.566,4.35,3.834  L86.729,149.761z"/>
<g>
	<path style="fill:#F5F5F5;" d="M91.231,155.709c-0.574-0.815-1.148-1.63-1.782-2.476l3.768-18.725   c2.477,2.143,4.954,4.135,7.129,5.826L91.231,155.709z"/>
	<path style="fill:#F5F5F5;" d="M95.19,163.499c-0.424-1.419-1.119-2.899-1.995-4.469l9.929-16.704   c1.45,1.026,2.749,1.901,3.776,2.414c0.785,0.392,1.54,0.694,2.356,1.026c-0.392,0.634-0.754,1.359-1.056,1.963   c-2.173,4.35-2.927,7.823-2.895,10.632C100.443,159.027,97.213,161.414,95.19,163.499z"/>
	<path style="fill:#F5F5F5;" d="M95.917,168.24c0.664-1.027,3.561-5.618,9.903-6.527c0.574,2.325,1.692,3.865,2.539,4.741   c4.169,4.347,18.39-4.325,26.481-9.946c3.804-2.629,9.149-3.507,14.947-3.781c-0.211,0.272-0.332,0.513-0.483,0.816   c-1.931,3.866-1.658,7.852-1.083,10.178c-3.141,0.243-6.04,0.455-8.577,0.698c-12.049,0.85-17.546,1.275-24.581,5.083   c-0.211,0.121-0.453,0.302-0.573,0.544c-1.781,2.658-7.697,9.969-11.563,8.641C97.641,176.876,95.406,173.495,95.917,168.24z"/>
	<path style="fill:#F5F5F5;" d="M110.804,164.127c-1.601-1.63-4.563-6.581,1.654-17.214c6.766,2.172,12.624,1.626,16.881-1.758   c5.585-4.381,31.642-18.162,45.653-23.392c5.196,5.011,7.675,12.59,6.742,21.107c-0.09,1.238-0.18,2.326-0.15,3.322   c-2.536,1.149-5.163,2.026-7.881,2.48c-4.258,0.666-9.211,0.607-14.465,0.549c-9.634-0.057-19.63-0.143-26.332,4.51   C120.467,162.312,111.922,165.365,110.804,164.127z"/>
	<path style="fill:#F5F5F5;" d="M151.633,163.387c-0.574-1.721-1.271-6.825,2.352-10.752c1.752-0.031,3.473-0.002,5.224-0.033   c5.406,0.059,10.51,0.117,15.039-0.64c2.688-0.393,5.315-1.27,7.821-2.358c0.998,3.895,3.324,5.585,5.438,6.793   c-6.492,2.72-13.86,4.626-22.255,5.565C160.028,162.599,155.589,163.023,151.633,163.387z"/>
	<path style="fill:#F5F5F5;" d="M191.162,154.675c-0.453-0.302-0.967-0.634-1.51-0.906c-1.994-1.147-3.897-2.324-4.502-5.646   c6.16-3.264,11.564-7.886,15.699-12.086c1.209,3.473,2.811,6.16,4.744,8.031c0,0,0,0-0.03,0.06   C201.699,148.389,196.838,151.924,191.162,154.675z"/>
	<path style="fill:#F5F5F5;" d="M185.057,144.379c0.03-0.362-0.03-0.695,0.03-1.117c0.993-8.94-1.366-17.062-6.472-22.708   c4.439-1.482,8.153-2.268,11.113-2.903c3.352-0.666,6.009-1.301,8.304-2.57c0.063,6.825,0.669,12.563,1.728,17.243   c-0.03,0.06-0.03,0.06-0.06,0.121C195.896,136.432,190.854,141.085,185.057,144.379z"/>
	<path style="fill:#F5F5F5;" d="M202.809,130.299c-0.908-4.379-1.484-10.177-1.396-17.908c1.087-1.269,2.113-2.568,2.958-3.655   c2.022-2.688,3.411-4.41,5.857-5.076c1.419-0.423,5.013-0.817,9.301-0.789c-0.241,0.182-0.483,0.363-0.664,0.574   c-1.298,1.541-1.75,4.41-2.201,8.034c-0.632,4.44-1.385,9.876-4.042,13.833c-2.384,3.564-4.408,3.837-6.703,4.2   C204.923,129.694,203.866,129.846,202.809,130.299z"/>
</g>
<path style="fill:#FFE15A;" d="M208.28,142.015c-1.631-1.419-3.323-3.925-4.654-8.364c0.845-0.483,1.751-0.635,2.808-0.786  c2.537-0.393,5.738-0.908,8.937-5.651c3.109-4.561,3.952-10.48,4.615-15.282c0.361-2.688,0.723-5.527,1.447-6.373  c0.755-0.906,3.05-1.421,4.711-0.666c1.903,0.875,1.904,2.989,1.633,4.59c-0.603,3.624-3.229,7.068-5.764,10.482  c-2.626,3.444-5.101,6.736-5.402,10.209c-0.211,2.386,1.119,5.919,3.295,10.478c-1.388,1.722-2.868,3.021-4.74,3.294  C212.478,144.338,210.183,143.645,208.28,142.015z"/>
<g>
	<path style="fill:#F5F5F5;" d="M222.079,137.359c-1.36-3.019-2.237-5.496-2.117-6.945c0.18-2.477,2.384-5.377,4.738-8.428   c2.656-3.504,5.644-7.522,6.398-11.901c0.482-2.628-0.032-4.469-0.757-5.737c3.654,0.995,6.856,2.595,8.639,5.372   c1.904,2.838,3.143,5.948,4.352,9.119c-1.72,2.537-3.26,4.259-12.741,8.128c-3.231,1.33-5.374,5.015-7.396,8.61   C222.834,136.15,222.441,136.785,222.079,137.359z"/>
	<path style="fill:#F5F5F5;" d="M218.995,205.943c-1.091-8.999-5.847-49.042-5.306-56.622c0.03-0.362-0.091-0.725-0.242-1.027   c-0.211-0.332-0.393-0.573-0.604-0.906c0.936,0.09,1.872,0.03,2.839-0.092c2.356-0.333,4.227-1.663,5.828-3.354   c0.695,1.48,1.45,2.989,2.297,4.62c3.808,7.337,8.009,15.701,11.122,24.427c5.351,14.977,5.538,31.526,5.39,36.962   C233.702,208.499,226.041,206.861,218.995,205.943z"/>
	<path style="fill:#F5F5F5;" d="M243.67,211.249c0.18-3.835,0.566-22.287-5.541-39.378c-3.205-8.998-7.647-17.785-11.304-24.82   c-1.058-2.114-2.085-4.137-3.022-6.039c0.785-1.268,1.569-2.537,2.263-3.776c1.901-3.202,3.652-6.253,5.826-7.129   c7.972-3.265,10.84-5.229,12.802-7.494c0.121,0.363,0.272,0.664,0.393,1.027c1.965,5.737,4.021,11.746,8.07,17.694   c7.011,10.295,19.131,39.071,20.889,54.744l-22.492,18.732C250.103,214.085,247.234,212.727,243.67,211.249z"/>
	<path style="fill:#F5F5F5;" d="M424.17,124.941c9.261-0.429,19.61,4.021,21.046,5.773c0.256,0.321,0.301,0.682,0.17,1.141   c-0.512,1.443-2.999,3.364-7.256,4.182c-0.42,0.078-0.958,0.222-1.587,0.34L424.17,124.941z"/>
	<path style="fill:#F5F5F5;" d="M415.23,126.505c1.679-0.314,3.326-0.687,4.552-0.982l12.779,11.752   c-1.528,0.308-3.175,0.681-4.939,1.12L415.23,126.505z"/>
</g>
<path style="fill:#FFE15A;" d="M405.371,127.807c1.988-0.176,3.883-0.379,5.686-0.608l12.615,12.152  c-1.823,0.471-3.739,0.917-5.621,1.421L405.371,127.807z"/>
<g>
	<path style="fill:#F5F5F5;" d="M397.92,128.158c0.997-0.013,1.994-0.025,3.05-0.071l13.316,13.693   c-3.168,0.832-6.212,1.749-8.836,2.587L397.92,128.158z"/>
	<path style="fill:#F5F5F5;" d="M389.256,127.02c1.41,0.453,3.024,0.716,4.814,0.88l8.166,17.633   c-1.666,0.616-3.122,1.193-4.126,1.75c-0.768,0.426-1.443,0.878-2.178,1.363c-0.301-0.682-0.695-1.391-1.022-1.981   c-2.36-4.251-4.799-6.836-7.133-8.398C389.975,133.881,389.832,129.867,389.256,127.02z"/>
	<path style="fill:#F5F5F5;" d="M384.934,124.939c0.472,1.128,2.621,6.114-0.214,11.859c-2.243-0.841-4.145-0.789-5.346-0.586   c-5.943,0.982-6.828,17.615-6.766,27.466c0.018,4.624-2.279,9.529-5.331,14.467c-0.105-0.328-0.236-0.564-0.4-0.859   c-2.097-3.778-5.54-5.806-7.783-6.647c1.575-2.728,3.039-5.24,4.273-7.469c6.11-10.42,8.867-15.194,9.702-23.15   c0.02-0.243,0.007-0.544-0.124-0.78c-1.186-2.971-3.872-11.985-0.591-14.423C376.835,121.479,380.889,121.547,384.934,124.939z"/>
	<path style="fill:#F5F5F5;" d="M379.911,139.544c2.25-0.399,8.008-0.043,13.264,11.096c-5.616,4.353-8.477,9.494-8.093,14.919   c0.457,7.083-2.906,36.368-6.512,50.882c-7.071,1.453-14.725-0.786-21.222-6.37c-0.97-0.774-1.816-1.463-2.656-2.001   c0.486-2.742,1.248-5.404,2.41-7.903c1.858-3.889,4.706-7.941,7.725-12.243c5.493-7.915,11.215-16.111,11.166-24.271   C375.946,148.541,378.258,139.767,379.911,139.544z"/>
	<path style="fill:#F5F5F5;" d="M357.441,173.642c1.745,0.499,6.348,2.81,7.539,8.018c-0.964,1.463-1.962,2.866-2.926,4.328   c-3.104,4.426-6.038,8.603-7.974,12.767c-1.195,2.439-1.957,5.102-2.476,7.784c-3.778-1.379-6.486-0.415-8.678,0.646   c1.426-6.893,4.019-14.048,7.99-21.504C353.345,181.013,355.505,177.111,357.441,173.642z"/>
	<path style="fill:#F5F5F5;" d="M342.282,211.173c0.505-0.203,1.07-0.439,1.601-0.734c2.073-0.996,4.12-1.901,7.202-0.522   c-0.79,6.926-0.031,13.997,1.094,19.782c-3.548-0.965-6.67-1.164-9.307-0.627c0,0,0,0-0.033-0.059   C341.51,223.419,341.342,217.411,342.282,211.173z"/>
	<path style="fill:#F5F5F5;" d="M354.226,211.958c0.282,0.23,0.59,0.368,0.905,0.657c6.813,5.873,14.847,8.519,22.39,7.498   c-1.287,4.499-2.738,8.008-3.887,10.808c-1.346,3.141-2.324,5.692-2.574,8.303c-5.666-3.806-10.741-6.55-15.2-8.322   c-0.033-0.059-0.033-0.059-0.066-0.118C354.654,225.391,353.666,218.603,354.226,211.958z"/>
	<path style="fill:#F5F5F5;" d="M355.805,234.561c4.125,1.727,9.233,4.529,15.561,8.972c0.432,1.614,0.924,3.194,1.343,4.506   c1.074,3.188,1.71,5.307,0.876,7.701c-0.453,1.41-2.16,4.597-4.607,8.118c-0.013-0.302-0.026-0.603-0.098-0.873   c-0.537-1.942-2.648-3.936-5.382-6.357c-3.305-3.031-7.363-6.726-9.126-11.154c-1.592-3.982-0.673-5.805,0.324-7.903   C355.109,236.647,355.581,235.689,355.805,234.561z"/>
</g>
<path style="fill:#FFE15A;" d="M343.048,232.451c2.093-0.544,5.116-0.523,9.53,0.889c-0.079,0.971-0.467,1.803-0.939,2.761  c-1.109,2.315-2.494,5.246-0.391,10.566c2.005,5.143,6.411,9.185,9.997,12.446c2.013,1.818,4.151,3.721,4.439,4.796  c0.321,1.135-0.552,3.319-2.114,4.263c-1.797,1.075-3.542-0.119-4.709-1.248c-2.649-2.546-4.005-6.659-5.388-10.68  c-1.356-4.113-2.673-8.016-5.368-10.227c-1.849-1.523-5.515-2.423-10.506-3.205c-0.636-2.119-0.871-4.073-0.037-5.772  C338.758,234.601,340.628,233.1,343.048,232.451z"/>
<g>
	<path style="fill:#F5F5F5;" d="M339.088,246.466c3.26,0.585,5.798,1.262,6.925,2.18c1.941,1.549,3.087,5.006,4.273,8.673   c1.389,4.172,3.014,8.908,6.2,12.005c1.895,1.883,3.705,2.5,5.161,2.619c-2.887,2.452-6.016,4.189-9.315,4.089   c-3.417-0.034-6.683-0.77-9.982-1.565c-1.121-2.854-1.67-5.097,0.498-15.105c0.729-3.417-1.099-7.268-2.921-10.968   C339.659,247.772,339.357,247.089,339.088,246.466z"/>
	<path style="fill:#F5F5F5;" d="M284.258,205.151c8.04,4.188,43.759,22.9,49.707,27.631c0.282,0.23,0.649,0.335,0.984,0.381   c0.394,0.013,0.695,0,1.089,0.014c-0.604,0.721-1.083,1.528-1.529,2.393c-1.057,2.131-1.018,4.427-0.527,6.703   c-1.614-0.263-3.286-0.494-5.109-0.717c-8.205-1.007-17.479-2.269-26.437-4.634c-15.379-4.053-29.137-13.253-33.536-16.449   C273.754,216.134,280.173,210.507,284.258,205.151z"/>
	<path style="fill:#F5F5F5;" d="M265.932,222.505c3.062,2.316,18.065,13.066,35.615,17.689c9.234,2.443,18.993,3.746,26.864,4.706   c2.341,0.322,4.591,0.618,6.69,0.921c0.603,1.364,1.206,2.729,1.835,4.001c1.567,3.379,3.093,6.547,2.588,8.836   c-1.813,8.421-1.815,11.898-1.055,14.797c-0.367-0.105-0.702-0.151-1.069-0.256c-5.844-1.622-11.962-3.323-19.158-3.346   c-12.456-0.037-43.044-6.306-56.966-13.716l-2.737-29.142C259.955,226.209,262.698,224.61,265.932,222.505z"/>
</g>
<path style="fill:#464655;" d="M448.299,129.311c-0.164-0.295-0.295-0.531-0.485-0.735c-2.616-3.182-17.922-9.051-28.779-6.346  c-11.721,2.954-27.68,3.702-31.634,0.336c-5.065-4.481-10.693-4.658-16.257-0.866l-2.247-2.005l3.332-9.678  c0.157-0.465,0.105-0.96-0.122-1.369c-0.115-0.208-0.275-0.394-0.478-0.542c-0.597-0.438-1.408-0.436-2.004,0.004l-9.596,7.103  l-8.147-4.14c-0.563-0.287-1.239-0.236-1.75,0.135c-0.513,0.367-0.776,0.993-0.683,1.616l1.743,11.707l-8.666,9.818  c-0.467,0.531-0.556,1.293-0.223,1.915c0.335,0.406,1.018,0.97,1.716,0.876l10.648-1.457l2.64,9.682  c0.197,0.716,0.804,1.198,1.522,1.241c0.719,0.046,1.389-0.371,1.667-1.039l4.809-11.637l2.438-1.237  c0.499,3.244,1.511,6.196,1.943,7.352c-0.816,7.018-3.52,11.608-9.171,21.464c-3.295,5.613-7.318,12.558-12.569,22.578  c-8.742,16.669-11.556,32.056-8.366,45.733c-0.964,0.072-2.414,0.103-3.929,0.018c-8.059-6.03-49.674-27.572-51.438-28.524  c-0.098-0.051-6.866-5.863-6.866-5.863c-1.876-16.41-14.115-45.247-21.353-56.022c-3.837-5.616-5.802-11.353-7.707-16.909  c-1.814-5.133-3.447-10.025-6.438-14.614c-6.648-10.265-27.455-8.808-32.468-7.538c-3.563,0.938-5.495,3.445-7.698,6.345  c-0.875,1.148-1.872,2.386-3.109,3.806c-2.053,2.296-4.922,2.901-9.542,3.839c-3.623,0.756-8.183,1.724-14.132,3.81  c-13.95,4.957-41.729,19.766-47.646,24.359c-5.827,4.562-14.314,1.455-18.844-0.809c-6.404-3.198-25.738-20.858-30.995-26.05  c-3.656-3.562-7.794-5.252-10.843-4.435c-1.299,0.333-2.325,1.178-2.869,2.266c-0.151,0.302-0.271,0.543-0.332,0.815  c-1.146,3.957,2.665,19.9,11.033,27.327c9.063,7.999,18.701,20.74,18.16,25.904c-0.833,6.712,2.202,11.454,8.477,13.9l-0.385,2.987  l-9.867,2.723c-0.472,0.133-0.851,0.456-1.06,0.875c-0.106,0.212-0.169,0.45-0.177,0.701c-0.023,0.74,0.436,1.408,1.136,1.651  l11.283,3.9l1.191,9.061c0.081,0.627,0.506,1.156,1.1,1.368c0.593,0.215,1.258,0.079,1.719-0.35l8.672-8.056l12.998,1.598  c0.702,0.085,1.382-0.272,1.706-0.899c0.146-0.506,0.225-1.388-0.247-1.911l-7.221-7.96l6.494-7.651  c0.479-0.568,0.533-1.341,0.163-1.957c-0.369-0.619-1.092-0.936-1.799-0.788l-12.318,2.612l-2.398-1.311  c2.394-2.245,4.257-4.749,4.966-5.759c6.25-3.294,11.565-3.659,22.889-4.569c6.493-0.455,14.496-1.063,25.73-2.395  c18.693-2.212,32.975-8.589,42.454-18.951c0.604,0.755,1.45,1.932,2.236,3.231c-0.419,10.057,5.337,56.562,5.549,58.555  c0.013,0.105-0.1,5.024-0.1,5.024c-13.84,9.053-34.073,32.749-40.464,44.016c-3.309,5.943-7.564,10.264-11.683,14.451  c-3.782,3.917-7.428,7.564-10.197,12.29c-6.212,10.534,4.39,28.497,7.766,32.414c2.431,2.768,5.537,3.376,9.116,4.052  c1.418,0.27,2.971,0.608,4.795,1.08c2.971,0.81,4.795,3.106,7.698,6.82c2.296,2.904,5.199,6.55,9.724,10.94  c10.669,10.264,36.33,28.497,43.083,31.738c6.685,3.174,7.698,12.155,7.698,17.22c0,7.158-7.158,32.346-9.454,39.369  c-1.553,4.862-1.215,9.319,0.878,11.682c0.878,1.013,2.093,1.553,3.309,1.553c0.338,0,0.608,0,0.878-0.068  c4.052-0.743,16.612-11.277,19.516-22.082c3.106-11.682,10.196-25.998,15.059-27.822c6.377-2.254,9.262-7.088,8.647-13.794  l2.844-0.991l6.845,7.61c0.33,0.363,0.788,0.557,1.256,0.557c0.237,0,0.478-0.049,0.706-0.155c0.673-0.31,1.065-1.019,0.969-1.754  l-1.553-11.837l7.574-5.114c0.524-0.353,0.808-0.969,0.732-1.596c-0.073-0.626-0.491-1.161-1.082-1.382l-11.082-4.158l-4.379-12.342  c-0.237-0.666-0.861-1.114-1.566-1.124c-0.518,0.096-1.342,0.419-1.599,1.075l-3.894,10.017l-9.747-2.391  c-0.722-0.175-1.438,0.122-1.823,0.729c-0.389,0.607-0.35,1.395,0.099,1.962l7.841,9.852l-0.101,2.732  c-3.078-1.138-6.15-1.686-7.371-1.869c-5.74-4.119-8.441-8.711-14.316-18.435c-3.309-5.605-7.428-12.493-13.641-21.947  c-10.332-15.734-22.419-25.661-35.925-29.51c0.405-0.878,1.081-2.161,1.891-3.444c9.184-4.12,48.215-30.05,49.903-31.131  c0.023-0.016,0.02-0.054,0.043-0.07l5.279-3.05c14.636,7.705,45.232,13.884,58.182,14.004c6.801,0.009,12.645,1.632,18.304,3.201  c5.26,1.405,10.218,2.824,15.695,2.951c12.225,0.319,22.786-17.669,24.572-22.521c1.241-3.469,0.265-6.48-0.882-9.937  c-0.452-1.371-0.91-2.893-1.382-4.717c-0.734-2.991,0.389-5.7,2.227-10.041c1.424-3.416,3.204-7.725,4.845-13.811  c3.797-14.31,7.285-45.595,6.841-53.073c-0.469-7.386,6.892-12.629,11.32-15.088c6.258-3.474,31.755-9.44,39.01-10.841  c5.005-1.002,8.738-3.46,9.788-6.438C449.006,131.699,448.889,130.374,448.299,129.311z M367.45,129.053l-4.233,2.149  c-0.358,0.184-0.642,0.488-0.797,0.861l-3.157,7.643l-1.73-6.337c-0.222-0.835-1.018-1.344-1.855-1.229l-7.617,1.041l6.182-7.003  c0.331-0.376,0.476-0.875,0.403-1.367l-1.377-9.248l6.161,3.13c0.569,0.291,1.254,0.235,1.771-0.145l6.065-4.49l-1.927,5.598  c-0.216,0.637-0.029,1.347,0.472,1.809l2.856,2.552C367.819,125.45,367.483,127.214,367.45,129.053z M363.368,163.17  c6.11-10.42,8.867-15.193,9.703-23.149c0.02-0.243,0.007-0.544-0.124-0.781c-1.186-2.971-3.872-11.984-0.591-14.423  c4.481-3.337,8.534-3.27,12.58,0.123c0.472,1.128,2.621,6.114-0.214,11.858c-2.243-0.84-4.145-0.788-5.345-0.586  c-5.943,0.982-6.828,17.615-6.766,27.466c0.018,4.624-2.279,9.529-5.331,14.467c-0.105-0.328-0.236-0.564-0.4-0.859  c-2.098-3.778-5.54-5.807-7.783-6.647C360.67,167.911,362.134,165.399,363.368,163.17z M350.917,185.682  c2.429-4.669,4.588-8.57,6.524-12.04c1.745,0.499,6.348,2.81,7.54,8.018c-0.964,1.462-1.962,2.866-2.926,4.328  c-3.104,4.426-6.038,8.603-7.974,12.768c-1.195,2.44-1.957,5.102-2.475,7.784c-3.778-1.379-6.487-0.415-8.678,0.646  C344.353,200.293,346.946,193.138,350.917,185.682z M342.282,211.173c0.505-0.203,1.07-0.439,1.6-0.734  c2.074-0.996,4.12-1.901,7.203-0.522c-0.79,6.926-0.032,13.997,1.094,19.782c-3.548-0.966-6.67-1.164-9.307-0.627  c0,0,0,0-0.033-0.059C341.51,223.419,341.343,217.411,342.282,211.173z M334.948,233.163c0.394,0.014,0.695,0,1.089,0.014  c-0.604,0.721-1.083,1.528-1.529,2.393c-1.057,2.131-1.018,4.427-0.528,6.703c-1.613-0.263-3.286-0.494-5.109-0.717  c-8.205-1.007-17.479-2.269-26.437-4.634c-15.379-4.052-29.136-13.253-33.537-16.449c4.229-4.03,10.349-8.778,15.36-15.322  c8.04,4.188,43.759,22.9,49.707,27.631C334.246,233.012,334.614,233.117,334.948,233.163z M257.931,256.581l-3.733,2.156  c-6.466-9.311-6.112-32.083-6.112-32.342c0.068-0.676-0.338-1.283-0.945-1.553L219.167,212.6l0.16-2.872  c14.588,1.683,31.45,8.468,31.684,8.585c0.574,0.362,1.298,0.272,1.812-0.152l23.212-19.353l4.995,4.465  c-7.238,8.89-24.847,21.169-25.074,21.295c-0.623,0.269-0.958,0.918-0.899,1.581L257.931,256.581z M244.693,122.613  c0.121,0.362,0.272,0.664,0.393,1.026c1.965,5.737,4.021,11.747,8.07,17.694c7.01,10.295,19.131,39.071,20.888,54.744  l-22.491,18.732c-1.45-0.724-4.319-2.082-7.884-3.561c0.18-3.835,0.565-22.287-5.541-39.378c-3.205-8.998-7.647-17.785-11.304-24.82  c-1.058-2.114-2.085-4.136-3.022-6.039c0.785-1.268,1.57-2.537,2.264-3.775c1.901-3.202,3.652-6.253,5.825-7.13  C239.863,126.842,242.731,124.878,244.693,122.613z M238.981,109.72c1.904,2.838,3.143,5.948,4.352,9.118  c-1.72,2.538-3.26,4.259-12.741,8.129c-3.231,1.33-5.374,5.015-7.395,8.61c-0.362,0.574-0.755,1.208-1.117,1.782  c-1.36-3.019-2.237-5.496-2.117-6.945c0.181-2.477,2.384-5.377,4.739-8.428c2.656-3.504,5.645-7.522,6.398-11.901  c0.483-2.628-0.032-4.469-0.757-5.737C233.996,105.343,237.198,106.942,238.981,109.72z M204.372,108.736  c2.022-2.689,3.411-4.411,5.857-5.076c1.419-0.423,5.013-0.817,9.301-0.789c-0.242,0.182-0.483,0.363-0.664,0.575  c-1.298,1.54-1.75,4.409-2.201,8.033c-0.633,4.44-1.385,9.876-4.042,13.833c-2.384,3.564-4.408,3.837-6.703,4.2  c-0.997,0.181-2.054,0.333-3.11,0.786c-0.908-4.379-1.484-10.177-1.396-17.908C202.5,111.122,203.526,109.824,204.372,108.736z   M189.728,117.651c3.352-0.666,6.009-1.301,8.304-2.57c0.063,6.825,0.669,12.563,1.728,17.243c-0.03,0.061-0.03,0.061-0.061,0.121  c-3.803,3.988-8.845,8.641-14.642,11.935c0.031-0.362-0.03-0.695,0.03-1.117c0.993-8.94-1.365-17.063-6.471-22.708  C183.054,119.072,186.769,118.285,189.728,117.651z M129.339,145.154c5.585-4.381,31.642-18.162,45.653-23.391  c5.196,5.011,7.675,12.59,6.742,21.107c-0.09,1.238-0.18,2.325-0.15,3.322c-2.536,1.149-5.163,2.026-7.881,2.48  c-4.258,0.666-9.211,0.608-14.465,0.549c-9.634-0.057-19.63-0.143-26.333,4.509c-12.439,8.582-20.984,11.635-22.102,10.397  c-1.601-1.63-4.563-6.582,1.655-17.214C119.224,149.084,125.082,148.539,129.339,145.154z M73.738,135.874  c-5.59-7.397-7.768-18.449-7.135-20.624c0.121-0.392,0.392-0.634,0.845-0.785c1.48-0.393,4.47,0.572,7.552,3.621  c0.302,0.302,0.725,0.664,1.178,1.117L73.738,135.874z M80.082,142.365c-1.208-1.208-2.447-2.355-3.383-3.2l2.47-17.184  c1.117,1.086,2.356,2.234,3.716,3.441L80.082,142.365z M83.013,145.414l2.893-17.275c1.419,1.237,2.87,2.566,4.35,3.833  l-3.526,17.789C85.46,148.221,84.222,146.772,83.013,145.414z M91.231,155.709c-0.574-0.815-1.148-1.631-1.783-2.475l3.768-18.725  c2.477,2.143,4.955,4.135,7.129,5.826L91.231,155.709z M93.195,159.03l9.929-16.704c1.45,1.026,2.749,1.901,3.776,2.414  c0.785,0.392,1.54,0.694,2.356,1.026c-0.392,0.634-0.755,1.359-1.056,1.963c-2.173,4.35-2.926,7.823-2.895,10.631  c-4.862,0.666-8.092,3.053-10.115,5.138C94.767,162.079,94.072,160.6,93.195,159.03z M113.359,182.614  c0.354,0.192,0.766,0.253,1.161,0.171l8.089-1.717l-4.249,5.009c-0.563,0.655-0.533,1.599,0.035,2.225l5.165,5.694l-9.271-1.141  c-0.497-0.06-0.991,0.102-1.355,0.44l-6.85,6.364l-0.901-6.852c-0.082-0.634-0.515-1.168-1.121-1.378l-7.132-2.464l5.708-1.576  c0.648-0.181,1.128-0.738,1.225-1.412l0.491-3.798c1.661-0.11,3.306-0.831,4.842-1.842L113.359,182.614z M149.304,153.543  c-1.931,3.866-1.658,7.852-1.083,10.177c-3.141,0.243-6.04,0.455-8.577,0.698c-12.049,0.85-17.545,1.275-24.58,5.083  c-0.211,0.12-0.453,0.302-0.573,0.544c-1.781,2.658-7.697,9.969-11.563,8.641c-5.286-1.81-7.522-5.192-7.01-10.447  c0.664-1.027,3.561-5.618,9.903-6.527c0.575,2.325,1.693,3.865,2.539,4.741c4.169,4.347,18.389-4.325,26.481-9.946  c3.804-2.628,9.149-3.507,14.947-3.78C149.576,152.999,149.455,153.24,149.304,153.543z M165.253,161.962  c-5.225,0.636-9.664,1.061-13.62,1.424c-0.574-1.721-1.271-6.825,2.352-10.752c1.752-0.031,3.473-0.002,5.224-0.033  c5.406,0.059,10.51,0.117,15.039-0.64c2.688-0.393,5.315-1.27,7.821-2.358c0.998,3.895,3.324,5.585,5.438,6.792  C181.016,159.117,173.648,161.023,165.253,161.962z M205.563,144.129c-3.864,4.26-8.725,7.794-14.401,10.545  c-0.453-0.302-0.967-0.634-1.51-0.906c-1.994-1.147-3.897-2.324-4.502-5.646c6.159-3.263,11.564-7.886,15.699-12.086  c1.21,3.473,2.811,6.16,4.744,8.031C205.593,144.069,205.593,144.069,205.563,144.129z M208.28,142.015  c-1.631-1.419-3.323-3.925-4.654-8.364c0.845-0.483,1.751-0.635,2.808-0.786c2.536-0.394,5.738-0.908,8.937-5.651  c3.109-4.561,3.952-10.48,4.615-15.282c0.361-2.688,0.723-5.527,1.447-6.373c0.755-0.906,3.05-1.421,4.711-0.666  c1.903,0.875,1.904,2.989,1.633,4.59c-0.603,3.624-3.229,7.068-5.764,10.482c-2.626,3.444-5.101,6.736-5.402,10.209  c-0.211,2.386,1.119,5.919,3.295,10.478c-1.388,1.722-2.868,3.021-4.74,3.294C212.478,144.338,210.183,143.644,208.28,142.015z   M213.688,149.321c0.03-0.362-0.091-0.725-0.242-1.027c-0.211-0.332-0.392-0.573-0.604-0.906c0.936,0.091,1.872,0.03,2.839-0.091  c2.356-0.333,4.228-1.663,5.828-3.354c0.695,1.48,1.45,2.989,2.297,4.619c3.808,7.337,8.009,15.701,11.123,24.427  c5.351,14.977,5.538,31.527,5.389,36.963c-6.547-1.422-13.194-2.899-21.322-4.009C217.904,196.944,213.148,156.901,213.688,149.321z   M166.039,274.003c4.254-4.322,8.711-8.846,12.223-15.126c6.077-10.872,26.403-34.575,39.639-43.151l26.809,11.75  c0,1.621,0.068,4.795,0.338,8.644c-3.511,1.553-20.191,9.454-32.751,22.554c-6.618,6.888-12.493,14.789-17.152,21.204  c-1.418,1.891-2.769,3.714-4.052,5.402c-1.485-0.135-2.971-0.27-4.389-0.338c-3.714-0.27-7.226-0.473-8.981-2.026  c-6.483-5.673-9.522-7.361-12.425-8.103C165.567,274.543,165.769,274.273,166.039,274.003z M155.37,295.815  c-0.743-3.714-0.743-7.293,0.946-10.129c1.688-2.971,3.916-5.47,6.212-7.968c3.039,0.405,5.267,1.013,12.965,7.766  c2.634,2.296,6.888,2.566,11.007,2.768c0.675,0.068,1.418,0.135,2.093,0.203c-2.093,2.566-3.917,4.457-5.267,4.997  c-2.296,0.945-5.875,0.27-9.657-0.473c-4.322-0.81-9.251-1.688-13.506-0.405C157.598,293.316,156.18,294.599,155.37,295.815z   M161.11,295.815c3.512-1.08,7.766-0.27,11.953,0.473c4.254,0.81,8.306,1.553,11.547,0.27c2.229-0.878,4.795-3.646,7.901-7.63  c2.161,0.472,3.984,1.215,5.065,2.768c1.553,2.229,1.958,4.592,1.351,7.023c-0.54,2.093-2.026,4.727-5.403,7.901  c-0.81-0.54-1.35-1.283-1.958-2.161c-1.485-2.093-3.376-4.727-9.049-5.47c-5.47-0.743-11.142,1.148-15.734,2.701  c-2.566,0.878-5.267,1.823-6.348,1.553c-1.148-0.27-2.634-2.093-2.701-3.917C157.666,297.233,159.557,296.287,161.11,295.815z   M175.493,318.099c-1.621-0.405-3.241-0.743-4.592-1.013c-3.309-0.608-5.47-1.081-7.158-2.971c-1.013-1.081-2.971-4.119-4.862-7.968  c0.27,0.135,0.54,0.27,0.811,0.338c1.958,0.473,4.727-0.405,8.171-1.621c4.254-1.418,9.454-3.174,14.181-2.566  c4.254,0.54,5.402,2.229,6.753,4.119c0.608,0.81,1.215,1.688,2.093,2.431C187.378,311.616,182.449,314.722,175.493,318.099z   M185.42,326.202c-2.093-2.701-3.849-4.794-6.01-6.28c6.077-3.106,10.94-6.212,14.654-9.251c0.068,0,0.068,0,0.135,0  c5.267,1.621,11.682,4.052,17.22,7.766c-0.338,0.135-0.608,0.338-1.013,0.472c-8.441,3.106-14.654,8.847-17.422,15.937  C189.674,331.537,187.311,328.566,185.42,326.202z M237.011,367.935c-6.415-3.038-30.388-20.191-41.327-30.388  c2.161-6.888,7.834-12.493,15.869-15.464c1.148-0.473,2.161-0.878,3.038-1.351c2.161,1.756,4.12,3.714,5.74,5.943  c2.499,3.512,4.659,7.968,6.955,12.695c4.254,8.644,8.644,17.625,15.802,21.542c13.236,7.293,19.786,13.573,19.178,15.126  c-0.743,2.161-3.849,7.023-16.139,6.212C245.047,375.228,241.941,370.231,237.011,367.935z M238.295,437.422  c-0.405,0.068-0.743-0.068-1.08-0.405c-1.013-1.148-1.486-4.254-0.135-8.374c0.135-0.405,0.27-0.945,0.473-1.553l16.004-5.267  C249.437,430.129,240.523,437.017,238.295,437.422z M255.177,417.703l-16.477,5.47c0.473-1.485,0.945-3.106,1.418-4.862  l16.409-5.065C255.987,414.867,255.514,416.488,255.177,417.703z M257.946,409.262l-16.747,5.132  c0.473-1.823,1.013-3.714,1.486-5.605l17.49-4.795C259.363,405.819,258.621,407.574,257.946,409.262z M262.065,400.011  l-18.435,4.997c0.81-3.174,1.485-6.28,2.026-8.981l17.828,1.283C263.01,398.188,262.537,399.066,262.065,400.011z M265.576,394.068  l-19.381-1.418c0.27-1.756,0.472-3.309,0.472-4.457c0-0.878-0.067-1.688-0.135-2.566c0.743,0.068,1.553,0.068,2.228,0.068  c4.862,0,8.306-0.878,10.805-2.161c2.768,4.052,6.348,5.875,9.116,6.753C267.602,391.3,266.589,392.583,265.576,394.068z   M272.147,357.907l6.38,1.563c0.837,0.211,1.668-0.237,1.975-1.025l2.786-7.165l3.123,8.804c0.168,0.472,0.534,0.841,0.999,1.016  l8.754,3.284l-5.727,3.868c-0.531,0.356-0.814,0.983-0.732,1.619l0.983,7.482l-3.96-4.402c-0.452-0.498-1.164-0.679-1.81-0.465  l-3.618,1.258c-0.841-1.437-2.22-2.586-3.812-3.508l0.176-4.744c0.013-0.402-0.115-0.798-0.366-1.114L272.147,357.907z   M249.639,350.108c6.145,10.399,8.981,15.126,15.532,19.718c0.202,0.135,0.472,0.27,0.743,0.27  c3.174,0.405,12.358,2.431,12.898,6.483c0.743,5.537-1.283,9.049-6.212,10.94c-1.215-0.135-6.618-0.675-10.264-5.943  c1.823-1.553,2.701-3.241,3.106-4.39c2.026-5.672-12.087-14.518-20.731-19.245c-4.052-2.229-7.226-6.618-10.062-11.682  c0.338,0.068,0.608,0.068,0.945,0.068c4.322,0,7.766-2.026,9.589-3.579C246.803,345.448,248.289,347.947,249.639,350.108z   M235.999,328.296c2.904,4.389,5.267,8.171,7.36,11.547c-1.283,1.283-5.537,4.187-10.669,2.701  c-0.811-1.553-1.553-3.106-2.364-4.659c-2.363-4.862-4.592-9.454-7.293-13.168c-1.553-2.229-3.511-4.187-5.605-5.943  c3.039-2.634,3.511-5.47,3.646-7.901C226.409,315.466,231.407,321.205,235.999,328.296z M217.901,308.375  c-0.068,0.54-0.135,1.148-0.135,1.756c-0.135,2.296-0.338,4.525-3.039,6.55c-5.672-4.052-12.223-6.82-17.828-8.644  c2.566-2.634,4.254-5.267,5.065-7.833c0,0,0,0,0.068,0C207.569,301.757,212.904,304.526,217.901,308.375z M203.045,290.615  c-0.338,0.135-0.608,0.405-0.81,0.675c-0.203,0.338-0.338,0.608-0.54,0.945c-0.338-0.878-0.81-1.688-1.351-2.499  c-1.351-1.959-3.376-3.039-5.605-3.714c1.013-1.283,2.026-2.633,3.106-4.119c4.862-6.685,10.467-14.181,16.882-20.866  c11.007-11.48,25.728-19.043,30.658-21.339c0.743,7.158,2.364,15.599,5.943,20.866C243.764,265.562,210.068,287.711,203.045,290.615  z M339.523,258.659c-1.814,8.421-1.815,11.897-1.055,14.797c-0.367-0.105-0.702-0.151-1.069-0.256  c-5.844-1.622-11.963-3.324-19.158-3.346c-12.456-0.037-43.044-6.306-56.966-13.716l-2.737-29.142  c1.417-0.787,4.159-2.386,7.394-4.49c3.062,2.316,18.065,13.066,35.615,17.69c9.234,2.443,18.993,3.746,26.863,4.706  c2.341,0.323,4.591,0.619,6.69,0.921c0.603,1.364,1.206,2.729,1.835,4.001C338.502,253.202,340.029,256.37,339.523,258.659z   M352.333,276.032c-3.417-0.034-6.683-0.77-9.982-1.565c-1.121-2.853-1.671-5.097,0.498-15.105  c0.729-3.417-1.099-7.268-2.921-10.968c-0.269-0.623-0.57-1.306-0.839-1.929c3.259,0.585,5.797,1.262,6.925,2.18  c1.941,1.548,3.087,5.006,4.273,8.673c1.389,4.171,3.014,8.908,6.201,12.005c1.895,1.883,3.704,2.5,5.161,2.619  C358.761,274.395,355.632,276.131,352.333,276.032z M363.571,268.172c-1.797,1.075-3.542-0.12-4.709-1.248  c-2.649-2.546-4.005-6.659-5.387-10.68c-1.356-4.113-2.673-8.016-5.368-10.227c-1.849-1.523-5.515-2.422-10.506-3.205  c-0.636-2.118-0.871-4.073-0.038-5.772c1.195-2.439,3.064-3.941,5.485-4.589c2.093-0.544,5.117-0.523,9.53,0.889  c-0.079,0.971-0.467,1.803-0.939,2.761c-1.11,2.315-2.494,5.246-0.391,10.567c2.005,5.143,6.411,9.185,9.998,12.446  c2.013,1.818,4.15,3.721,4.439,4.796C366.006,265.044,365.133,267.228,363.571,268.172z M373.585,255.74  c-0.453,1.41-2.159,4.597-4.607,8.119c-0.013-0.302-0.026-0.604-0.098-0.873c-0.537-1.941-2.648-3.936-5.382-6.357  c-3.305-3.031-7.364-6.726-9.126-11.154c-1.592-3.981-0.673-5.805,0.324-7.903c0.414-0.924,0.887-1.882,1.11-3.01  c4.125,1.727,9.234,4.529,15.561,8.972c0.432,1.614,0.924,3.194,1.343,4.506C373.783,251.227,374.419,253.346,373.585,255.74z   M373.633,230.921c-1.346,3.141-2.324,5.692-2.574,8.303c-5.665-3.806-10.741-6.55-15.2-8.322c-0.033-0.059-0.033-0.059-0.066-0.118  c-1.139-5.391-2.127-12.181-1.567-18.825c0.282,0.23,0.59,0.368,0.905,0.657c6.813,5.872,14.847,8.519,22.39,7.498  C376.233,224.612,374.782,228.12,373.633,230.921z M385.083,165.559c0.457,7.083-2.906,36.368-6.512,50.882  c-7.071,1.453-14.724-0.786-21.223-6.37c-0.97-0.774-1.816-1.463-2.656-2.001c0.487-2.741,1.248-5.404,2.41-7.903  c1.858-3.889,4.706-7.941,7.724-12.242c5.493-7.915,11.215-16.111,11.166-24.271c-0.047-15.112,2.265-23.887,3.918-24.109  c2.25-0.399,8.008-0.043,13.265,11.096C387.56,154.993,384.698,160.134,385.083,165.559z M398.11,147.284  c-0.767,0.426-1.443,0.878-2.178,1.363c-0.301-0.682-0.694-1.391-1.022-1.981c-2.36-4.251-4.799-6.837-7.133-8.398  c2.199-4.387,2.056-8.401,1.48-11.248c1.41,0.453,3.024,0.716,4.814,0.88l8.166,17.633  C400.57,146.15,399.114,146.727,398.11,147.284z M405.45,144.368l-7.53-16.21c0.997-0.013,1.994-0.026,3.05-0.071l13.316,13.693  C411.118,142.612,408.074,143.529,405.45,144.368z M418.051,140.772l-12.68-12.965c1.987-0.176,3.883-0.379,5.687-0.608  l12.615,12.152C421.849,139.822,419.934,140.267,418.051,140.772z M427.621,138.394l-12.392-11.89  c1.679-0.314,3.326-0.687,4.552-0.982l12.779,11.752C431.033,137.582,429.386,137.955,427.621,138.394z M438.13,136.037  c-0.42,0.078-0.957,0.222-1.587,0.34L424.17,124.94c9.261-0.429,19.61,4.021,21.045,5.773c0.256,0.321,0.302,0.682,0.17,1.141  C444.873,133.298,442.387,135.219,438.13,136.037z"/>
<g>
</g>
<g>
</g>
<g>
</g>
<g>
</g>
<g>
</g>
<g>
</g>
<g>
</g>
<g>
</g>
<g>
</g>
<g>
</g>
<g>
</g>
<g>
</g>
<g>
</g>
<g>
</g>
<g>
</g>
</svg>
