<?xml version="1.0" encoding="iso-8859-1"?>
<!-- Generator: Adobe Illustrator 19.0.0, SVG Export Plug-In . SVG Version: 6.00 Build 0)  -->
<svg xmlns="http://www.w3.org/2000/svg" xmlns:xlink="http://www.w3.org/1999/xlink" version="1.1" id="Layer_1" x="0px" y="0px" viewBox="0 0 512 512" style="enable-background:new 0 0 512 512;" xml:space="preserve">
<rect style="fill:#464655;" width="512" height="170.67"/>
<rect y="341.33" style="fill:#73AF00;" width="512" height="170.67"/>
<rect y="170.67" style="fill:#F5F5F5;" width="512" height="170.67"/>
<path style="fill:#FF4B55;" d="M302.368,261.454c2.838-2.346,2.838-8.562,0-10.909L0,0v512L302.368,261.454z"/>
<path style="fill:#F5F5F5;" d="M100.083,215.575l9.288,20.147l21.543-5.3c1.345-0.331,2.459,1.067,1.838,2.304l-9.96,19.823  l17.575,13.538c1.097,0.845,0.699,2.588-0.656,2.873l-21.709,4.572l0.373,22.182c0.023,1.385-1.587,2.16-2.655,1.279l-17.11-14.122  L81.5,296.994c-1.068,0.882-2.679,0.106-2.655-1.279l0.373-22.182l-21.709-4.572c-1.355-0.285-1.753-2.028-0.656-2.873  l17.575-13.538l-9.96-19.823c-0.622-1.238,0.493-2.635,1.838-2.304l21.543,5.3l9.288-20.147  C97.716,214.317,99.504,214.317,100.083,215.575z"/>
<g>
</g>
<g>
</g>
<g>
</g>
<g>
</g>
<g>
</g>
<g>
</g>
<g>
</g>
<g>
</g>
<g>
</g>
<g>
</g>
<g>
</g>
<g>
</g>
<g>
</g>
<g>
</g>
<g>
</g>
</svg>
