<?xml version="1.0" encoding="iso-8859-1"?>
<!-- Generator: Adobe Illustrator 19.0.0, SVG Export Plug-In . SVG Version: 6.00 Build 0)  -->
<svg xmlns="http://www.w3.org/2000/svg" xmlns:xlink="http://www.w3.org/1999/xlink" version="1.1" id="Layer_1" x="0px" y="0px" viewBox="0 0 512 512" style="enable-background:new 0 0 512 512;" xml:space="preserve">
<rect style="fill:#82C3D2;" width="512" height="512"/>
<g>
	<path style="fill:#FFE15A;" d="M69.46,48.195c-1.297-5.488-1.618-7.511,0.844-9.973c1.201-1.201,1.201-3.146,0-4.347   s-3.146-1.201-4.347,0c-4.985,4.985-3.796,10.16-2.505,15.637c-3.929-1.284-8.003-0.332-10.188,2.424   c-1.084,1.375-3.179,5.23,0.748,11.384c0.913,1.429,2.801,1.849,4.245,0.943c1.432-0.913,1.849-2.816,0.937-4.245   c-1.474-2.318-1.516-3.747-1.105-4.269c0.486-0.618,1.996-0.943,3.576-0.384c1.021,0.354,3.392,1.579,3.392,5.278   c0,2.954-1.366,5.662-3.747,7.421c-2.387,1.765-5.476,2.264-8.454,1.339c-3.678-1.123-6.244-4.996-6.244-9.421   c0-3.164,0.678-6.365,1.924-9.169c0.198-0.414,4.896-10.147,6.106-13.774c2.393-7.175-0.039-10.784-1.699-12.291   c-2.222-2.023-5.467-2.528-8.262-1.303c-0.424,0.188-0.775,0.461-1.144,0.715c-0.369-0.254-0.72-0.527-1.144-0.715   c-2.792-1.225-6.037-0.721-8.262,1.303c-1.66,1.507-4.092,5.116-1.699,12.291c1.21,3.627,5.908,13.359,6.064,13.684   c1.288,2.894,1.966,6.094,1.966,9.259c0,4.425-2.567,8.298-6.244,9.421c-2.987,0.925-6.067,0.432-8.454-1.339   c-2.381-1.759-3.747-4.467-3.747-7.421c0-3.699,2.372-4.923,3.392-5.278c1.585-0.558,3.086-0.234,3.576,0.384   c0.411,0.522,0.369,1.951-1.105,4.269c-0.913,1.429-0.495,3.332,0.937,4.245c1.444,0.913,3.338,0.486,4.245-0.943   c3.927-6.154,1.831-10.009,0.748-11.384c-2.185-2.756-6.259-3.708-10.188-2.424c1.291-5.477,2.48-10.652-2.505-15.637   c-1.201-1.201-3.146-1.201-4.347,0s-1.201,3.146,0,4.347c2.462,2.462,2.141,4.485,0.844,9.973   c-0.778,3.29-1.744,7.391-1.744,12.447c0,3.365,1.182,6.581,3.173,9.223h-0.099c-1.699,0-3.074,1.375-3.074,3.074   s1.375,3.074,3.074,3.074h0.099c-1.99,2.642-3.173,5.858-3.173,9.223c0,5.056,0.967,9.157,1.744,12.447   c1.297,5.488,1.618,7.511-0.844,9.973c-1.201,1.201-1.201,3.146,0,4.347c0.6,0.6,1.387,0.901,2.174,0.901s1.573-0.3,2.174-0.901   c4.985-4.985,3.796-10.161,2.505-15.637c3.929,1.279,8.003,0.332,10.188-2.424c1.084-1.375,3.179-5.23-0.748-11.384   c-0.91-1.429-2.81-1.855-4.245-0.943c-1.432,0.913-1.849,2.816-0.937,4.245c1.474,2.318,1.516,3.747,1.105,4.269   c-0.489,0.612-1.99,0.937-3.576,0.384c-1.021-0.354-3.392-1.579-3.392-5.278c0-2.954,1.366-5.662,3.747-7.421   c2.387-1.765,5.473-2.27,8.454-1.339c3.678,1.123,6.244,4.996,6.244,9.421c0,3.164-0.678,6.365-1.966,9.259L18.364,140.45   c-1.654,3.723-2.495,7.679-2.495,11.756c0,5.245,2.385,10.035,6.138,12.957c-3.753,2.923-6.138,7.712-6.138,12.957   c0,4.077,0.841,8.034,2.495,11.756l20.132,45.296c1.288,2.894,1.966,6.094,1.966,9.259c0,4.425-2.567,8.298-6.244,9.421   c-2.987,0.931-6.067,0.432-8.454-1.339c-2.381-1.759-3.747-4.467-3.747-7.421c0-3.699,2.372-4.923,3.392-5.278   c1.585-0.552,3.086-0.234,3.576,0.384c0.411,0.522,0.369,1.951-1.105,4.269c-0.913,1.429-0.495,3.332,0.937,4.245   c1.444,0.913,3.338,0.492,4.245-0.943c3.927-6.154,1.831-10.009,0.748-11.384c-2.185-2.756-6.259-3.703-10.188-2.424   c1.291-5.476,2.48-10.652-2.505-15.637c-1.201-1.201-3.146-1.201-4.347,0s-1.201,3.146,0,4.347   c2.462,2.462,2.141,4.485,0.844,9.973c-0.778,3.29-1.744,7.391-1.744,12.447c0,3.365,1.182,6.581,3.173,9.223h-0.099   c-1.699,0-3.074,1.375-3.074,3.074s1.375,3.074,3.074,3.074h0.099c-1.99,2.642-3.173,5.858-3.173,9.223   c0,5.056,0.967,9.156,1.744,12.447c1.297,5.488,1.618,7.511-0.844,9.973c-1.201,1.201-1.201,3.146,0,4.347   c0.6,0.6,1.387,0.901,2.174,0.901s1.573-0.3,2.174-0.901c4.985-4.985,3.796-10.161,2.505-15.637   c3.929,1.279,8.003,0.332,10.188-2.424c1.084-1.375,3.179-5.23-0.748-11.384c-0.91-1.429-2.81-1.855-4.245-0.943   c-1.432,0.913-1.849,2.816-0.937,4.245c1.474,2.318,1.516,3.747,1.105,4.269c-0.489,0.618-1.99,0.943-3.576,0.384   c-1.021-0.354-3.392-1.579-3.392-5.278c0-2.954,1.366-5.662,3.747-7.421c2.387-1.765,5.473-2.27,8.454-1.339   c3.678,1.123,6.244,4.996,6.244,9.421c0,3.164-0.678,6.365-1.966,9.259L18.365,324.9c-1.654,3.723-2.495,7.679-2.495,11.756   c0,5.245,2.385,10.035,6.138,12.957c-3.753,2.923-6.138,7.712-6.138,12.957c0,4.077,0.841,8.034,2.495,11.756l20.132,45.296   c1.288,2.894,1.966,6.094,1.966,9.259c0,4.425-2.567,8.298-6.244,9.421c-2.987,0.931-6.067,0.426-8.454-1.339   c-2.381-1.759-3.747-4.467-3.747-7.421c0-3.699,2.372-4.923,3.392-5.278c1.585-0.552,3.086-0.234,3.576,0.384   c0.411,0.522,0.369,1.951-1.105,4.269c-0.913,1.429-0.495,3.332,0.937,4.245c1.444,0.913,3.338,0.492,4.245-0.943   c3.927-6.154,1.831-10.009,0.748-11.384c-2.185-2.762-6.259-3.708-10.188-2.424c1.291-5.477,2.48-10.652-2.505-15.637   c-1.201-1.201-3.146-1.201-4.347,0s-1.201,3.146,0,4.347c2.462,2.462,2.141,4.485,0.844,9.973   c-0.778,3.29-1.744,7.391-1.744,12.447c0,4.818,2.309,9.406,6.168,12.297c-3.859,2.891-6.168,7.478-6.168,12.297   c0,5.056,0.967,9.156,1.744,12.447c1.297,5.488,1.618,7.511-0.844,9.973c-1.201,1.201-1.201,3.146,0,4.347   c0.6,0.6,1.387,0.901,2.174,0.901s1.573-0.3,2.174-0.901c4.985-4.985,3.796-10.161,2.505-15.637   c3.929,1.279,8.003,0.332,10.188-2.424c1.084-1.375,3.179-5.23-0.748-11.384c-0.91-1.429-2.81-1.849-4.245-0.943   c-1.432,0.913-1.849,2.816-0.937,4.245c1.474,2.318,1.516,3.747,1.105,4.269c-0.489,0.618-1.99,0.937-3.576,0.384   c-1.021-0.354-3.392-1.579-3.392-5.278c0-2.954,1.366-5.662,3.747-7.421c2.387-1.765,5.473-2.264,8.454-1.339   c3.678,1.123,6.244,4.996,6.244,9.421c0,3.164-0.678,6.365-1.924,9.169c-0.198,0.414-4.896,10.147-6.106,13.774   c-2.393,7.175,0.039,10.784,1.699,12.291c1.42,1.291,3.248,1.969,5.116,1.969c1.06,0,2.135-0.222,3.146-0.666   c0.424-0.188,0.775-0.461,1.144-0.715c0.369,0.254,0.72,0.527,1.144,0.715c1.012,0.444,2.086,0.666,3.146,0.666   c1.864,0,3.696-0.678,5.116-1.969c1.66-1.507,4.092-5.116,1.699-12.291c-1.21-3.627-5.908-13.359-6.064-13.684   c-1.288-2.894-1.966-6.094-1.966-9.259c0-4.425,2.567-8.298,6.244-9.421c2.99-0.925,6.067-0.426,8.454,1.339   c2.381,1.759,3.747,4.467,3.747,7.421c0,3.699-2.372,4.923-3.392,5.278c-1.579,0.552-3.089,0.234-3.576-0.384   c-0.411-0.522-0.369-1.951,1.105-4.269c0.913-1.429,0.495-3.332-0.937-4.245c-1.435-0.901-3.329-0.48-4.245,0.943   c-3.927,6.154-1.831,10.009-0.748,11.384c2.185,2.756,6.259,3.703,10.188,2.424c-1.291,5.476-2.48,10.652,2.505,15.637   c0.6,0.6,1.387,0.901,2.174,0.901s1.573-0.3,2.174-0.901c1.201-1.201,1.201-3.146,0-4.347c-2.462-2.462-2.141-4.485-0.844-9.973   c0.778-3.29,1.744-7.391,1.744-12.447c0-4.818-2.309-9.406-6.168-12.297c3.859-2.891,6.168-7.478,6.168-12.297   c0-5.056-0.967-9.156-1.744-12.447c-1.297-5.488-1.618-7.511,0.844-9.973c1.201-1.201,1.201-3.146,0-4.347s-3.146-1.201-4.347,0   c-4.985,4.985-3.796,10.16-2.505,15.637c-3.929-1.284-8.003-0.338-10.188,2.424c-1.084,1.375-3.179,5.23,0.748,11.384   c0.913,1.429,2.801,1.849,4.245,0.943c1.432-0.913,1.849-2.816,0.937-4.245c-1.474-2.318-1.516-3.747-1.105-4.269   c0.486-0.618,1.996-0.937,3.576-0.384c1.021,0.354,3.392,1.579,3.392,5.278c0,2.954-1.366,5.662-3.747,7.421   c-2.387,1.765-5.476,2.27-8.454,1.339c-3.678-1.123-6.244-4.996-6.244-9.421c0-3.164,0.678-6.365,1.966-9.259l20.132-45.296   c1.654-3.723,2.495-7.679,2.495-11.756c0-5.245-2.385-10.035-6.138-12.957c3.753-2.923,6.138-7.712,6.138-12.957   c0-4.077-0.841-8.034-2.495-11.756l-20.132-45.296c-1.288-2.894-1.966-6.094-1.966-9.259c0-4.425,2.567-8.298,6.244-9.421   c2.99-0.925,6.067-0.426,8.454,1.339c2.381,1.759,3.747,4.467,3.747,7.421c0,3.699-2.372,4.923-3.392,5.278   c-1.579,0.558-3.089,0.234-3.576-0.384c-0.411-0.522-0.369-1.951,1.105-4.269c0.913-1.429,0.495-3.332-0.937-4.245   c-1.435-0.901-3.329-0.48-4.245,0.943c-3.927,6.154-1.831,10.009-0.748,11.384c2.185,2.756,6.259,3.703,10.188,2.424   c-1.291,5.476-2.48,10.652,2.505,15.637c0.6,0.6,1.387,0.901,2.174,0.901s1.573-0.3,2.174-0.901c1.201-1.201,1.201-3.146,0-4.347   c-2.462-2.462-2.141-4.485-0.844-9.973c0.778-3.29,1.744-7.391,1.744-12.447c0-3.365-1.182-6.581-3.173-9.223h0.099   c1.699,0,3.074-1.375,3.074-3.074s-1.375-3.074-3.074-3.074h-0.099c1.99-2.642,3.173-5.858,3.173-9.223   c0-5.056-0.967-9.156-1.744-12.447c-1.297-5.488-1.618-7.511,0.844-9.973c1.201-1.201,1.201-3.146,0-4.347s-3.146-1.201-4.347,0   c-4.985,4.985-3.796,10.161-2.505,15.637c-3.929-1.279-8.003-0.332-10.188,2.424c-1.084,1.375-3.179,5.23,0.748,11.384   c0.913,1.429,2.801,1.843,4.245,0.943c1.432-0.913,1.849-2.816,0.937-4.245c-1.474-2.318-1.516-3.747-1.105-4.269   c0.486-0.618,1.996-0.937,3.576-0.384c1.021,0.354,3.392,1.579,3.392,5.278c0,2.954-1.366,5.662-3.747,7.421   c-2.387,1.765-5.476,2.264-8.454,1.339c-3.678-1.123-6.244-4.996-6.244-9.421c0-3.164,0.678-6.365,1.966-9.259l20.132-45.296   c1.654-3.723,2.495-7.679,2.495-11.756c0-5.245-2.385-10.035-6.138-12.957c3.753-2.923,6.138-7.712,6.138-12.957   c0-4.077-0.841-8.034-2.495-11.756L48.577,95.154c-1.288-2.894-1.966-6.094-1.966-9.259c0-4.425,2.567-8.298,6.244-9.421   c2.99-0.925,6.067-0.426,8.454,1.339c2.381,1.759,3.747,4.467,3.747,7.421c0,3.699-2.372,4.924-3.392,5.278   c-1.579,0.552-3.089,0.228-3.576-0.384c-0.411-0.522-0.369-1.951,1.105-4.269c0.913-1.429,0.495-3.332-0.937-4.245   c-1.435-0.901-3.329-0.486-4.245,0.943c-3.927,6.154-1.831,10.009-0.748,11.384c2.185,2.756,6.259,3.703,10.188,2.424   c-1.291,5.476-2.48,10.652,2.505,15.637c0.6,0.6,1.387,0.901,2.174,0.901s1.573-0.3,2.174-0.901c1.201-1.201,1.201-3.146,0-4.347   c-2.462-2.462-2.141-4.485-0.844-9.973c0.778-3.29,1.744-7.391,1.744-12.447c0-3.365-1.182-6.581-3.173-9.223h0.099   c1.699,0,3.074-1.375,3.074-3.074s-1.375-3.074-3.074-3.074h-0.099c1.99-2.642,3.173-5.858,3.173-9.223   C71.204,55.586,70.238,51.485,69.46,48.195z M38.262,35.093c-1.093-3.278-0.712-5.146,0.009-5.8   c0.471-0.444,1.186-0.426,1.636-0.222c0.555,0.246,0.555,0.636,0.555,0.829c0,1.699,1.375,3.074,3.074,3.074   s3.074-1.375,3.074-3.074c0-0.192,0-0.582,0.555-0.829c0.444-0.204,1.153-0.222,1.636,0.222c0.721,0.654,1.102,2.522,0.009,5.8   c-0.795,2.378-3.672,8.564-5.274,11.923C41.97,43.736,39.063,37.487,38.262,35.093z M43.537,161.939   c0.883,1.2,1.88,2.315,3.094,3.224c-1.214,0.91-2.211,2.024-3.094,3.224c-0.883-1.2-1.88-2.315-3.094-3.224   C41.656,164.254,42.654,163.139,43.537,161.939z M43.537,346.39c0.883,1.2,1.88,2.315,3.094,3.224   c-1.214,0.91-2.211,2.024-3.094,3.224c-0.883-1.2-1.88-2.315-3.094-3.224C41.656,348.705,42.654,347.59,43.537,346.39z    M48.811,479.685c1.093,3.278,0.712,5.146-0.009,5.8c-0.483,0.438-1.192,0.42-1.636,0.222c-0.555-0.246-0.555-0.636-0.555-0.829   c0-1.699-1.375-3.074-3.074-3.074s-3.074,1.375-3.074,3.074c0,0.192,0,0.582-0.555,0.829c-0.45,0.198-1.165,0.216-1.636-0.222   c-0.721-0.654-1.102-2.522-0.009-5.8c0.795-2.378,3.672-8.564,5.274-11.923C45.103,471.042,48.01,477.291,48.811,479.685z    M46.601,441.84c-1.164,0.906-2.195,1.989-3.064,3.214c-0.869-1.225-1.9-2.308-3.064-3.214c1.164-0.906,2.195-1.989,3.064-3.214   C44.405,439.851,45.437,440.934,46.601,441.84z M63.089,371.83l-19.553,43.992L23.984,371.83c-1.288-2.894-1.966-6.094-1.966-9.259   c0-4.425,2.567-8.298,6.244-9.421c2.987-0.925,6.07-0.426,8.454,1.339c2.381,1.759,3.747,4.467,3.747,7.421   c0,3.699-2.372,4.923-3.392,5.278c-1.585,0.552-3.092,0.234-3.576-0.384c-0.411-0.522-0.369-1.951,1.105-4.269   c0.913-1.429,0.495-3.332-0.937-4.245c-1.435-0.901-3.329-0.48-4.245,0.943c-3.927,6.154-1.831,10.009-0.748,11.384   c2.225,2.81,6.413,3.777,10.417,2.378c0.457-0.158,0.918-0.354,1.375-0.586v7.776c-0.001-0.002-0.005-0.005-0.005-0.005   c-0.094-1.618-1.433-2.897-3.069-2.897c-1.699,0-3.074,1.375-3.074,3.074c0,2.005,1.402,5.483,6.148,6.561v5.736   c0,1.699,1.375,3.074,3.074,3.074s3.074-1.375,3.074-3.074v-5.736c4.746-1.078,6.148-4.556,6.148-6.561   c0-1.699-1.372-3.176-3.068-3.176c-1.699,0-3.068,1.273-3.068,2.972c-0.001,0.006-0.011,0.012-0.012,0.018v-7.761   c0.457,0.232,0.918,0.428,1.375,0.586c4.005,1.399,8.19,0.432,10.417-2.378c1.084-1.375,3.179-5.23-0.748-11.384   c-0.913-1.429-2.81-1.849-4.245-0.943c-1.432,0.913-1.849,2.816-0.937,4.245c1.474,2.318,1.516,3.747,1.105,4.269   c-0.486,0.618-1.993,0.937-3.576,0.384c-1.021-0.354-3.392-1.579-3.392-5.278c0-2.954,1.366-5.662,3.747-7.421   c2.387-1.765,5.476-2.27,8.454-1.339c3.678,1.123,6.244,4.996,6.244,9.421C65.056,365.736,64.377,368.936,63.089,371.83z    M63.089,327.399c1.288,2.894,1.966,6.094,1.966,9.259c0,4.425-2.567,8.298-6.244,9.421c-2.984,0.931-6.07,0.426-8.454-1.339   c-2.381-1.759-3.747-4.467-3.747-7.421c0-3.699,2.372-4.923,3.392-5.278c1.582-0.552,3.089-0.234,3.576,0.384   c0.411,0.522,0.369,1.951-1.105,4.269c-0.913,1.429-0.495,3.332,0.937,4.245c1.444,0.913,3.338,0.492,4.245-0.943   c3.927-6.154,1.831-10.009,0.748-11.384c-2.228-2.81-6.413-3.765-10.417-2.378c-0.457,0.158-0.918,0.354-1.375,0.586v-7.776   l0.006,0.008c0.093,1.615,1.432,2.894,3.068,2.894c1.699,0,3.074-1.375,3.074-3.074c0-2.005-1.402-5.483-6.148-6.561v-5.736   c0-1.699-1.375-3.074-3.074-3.074s-3.074,1.375-3.074,3.074v5.736c-4.746,1.078-6.148,4.556-6.148,6.561   c0,1.699,1.372,3.176,3.068,3.176c1.699,0,3.068-1.273,3.068-2.972c0.001-0.006,0.011-0.012,0.011-0.012l0.001,7.755   c-0.457-0.232-0.918-0.428-1.375-0.586c-4.005-1.387-8.193-0.432-10.417,2.378c-1.084,1.375-3.179,5.23,0.748,11.384   c0.913,1.429,2.81,1.843,4.245,0.943c1.432-0.913,1.849-2.816,0.937-4.245c-1.474-2.318-1.516-3.747-1.105-4.269   c0.483-0.618,1.99-0.937,3.576-0.384c1.021,0.354,3.392,1.579,3.392,5.278c0,2.954-1.366,5.662-3.747,7.421   c-2.387,1.765-5.47,2.27-8.454,1.339c-3.678-1.123-6.244-4.996-6.244-9.421c0-3.164,0.678-6.365,1.966-9.259l19.553-43.992   L63.089,327.399z M46.601,257.389c-1.164,0.906-2.195,1.989-3.064,3.214c-0.869-1.225-1.9-2.308-3.064-3.214   c1.164-0.906,2.195-1.989,3.064-3.214C44.405,255.4,45.437,256.483,46.601,257.389z M63.089,187.379l-19.553,43.992l-19.553-43.992   c-1.288-2.894-1.966-6.094-1.966-9.259c0-4.425,2.567-8.298,6.244-9.421c2.987-0.925,6.07-0.426,8.454,1.339   c2.381,1.759,3.747,4.467,3.747,7.421c0,3.699-2.372,4.923-3.392,5.278c-1.585,0.558-3.092,0.234-3.576-0.384   c-0.411-0.522-0.369-1.951,1.105-4.269c0.913-1.429,0.495-3.332-0.937-4.245c-1.435-0.907-3.329-0.486-4.245,0.943   c-3.927,6.154-1.831,10.009-0.748,11.384c2.225,2.81,6.413,3.771,10.417,2.378c0.457-0.158,0.918-0.354,1.375-0.586v7.776   l-0.006-0.008c-0.093-1.615-1.432-2.894-3.068-2.894c-1.699,0-3.074,1.375-3.074,3.074c0,2.005,1.402,5.483,6.148,6.561v5.736   c0,1.699,1.375,3.074,3.074,3.074s3.074-1.375,3.074-3.074v-5.736c4.746-1.078,6.148-4.556,6.148-6.561   c0-1.699-1.372-3.176-3.068-3.176c-1.699,0-3.068,1.273-3.068,2.972c-0.001,0.006-0.011,0.012-0.011,0.012l-0.002-7.755   c0.457,0.232,0.918,0.428,1.375,0.586c4.005,1.393,8.19,0.432,10.417-2.378c1.084-1.375,3.179-5.23-0.748-11.384   c-0.913-1.435-2.81-1.855-4.245-0.943c-1.432,0.913-1.849,2.816-0.937,4.245c1.474,2.318,1.516,3.747,1.105,4.269   c-0.486,0.618-1.993,0.943-3.576,0.384c-1.021-0.354-3.392-1.579-3.392-5.278c0-2.954,1.366-5.662,3.747-7.421   c2.387-1.765,5.476-2.264,8.454-1.339c3.678,1.123,6.244,4.996,6.244,9.421C65.056,181.285,64.377,184.485,63.089,187.379z    M63.089,142.948c1.288,2.894,1.966,6.094,1.966,9.259c0,4.425-2.567,8.298-6.244,9.421c-2.984,0.931-6.07,0.426-8.454-1.339   c-2.381-1.759-3.747-4.467-3.747-7.421c0-3.699,2.372-4.923,3.392-5.278c1.582-0.552,3.089-0.234,3.576,0.384   c0.411,0.522,0.369,1.951-1.105,4.269c-0.913,1.429-0.495,3.332,0.937,4.245c1.444,0.907,3.338,0.492,4.245-0.943   c3.927-6.154,1.831-10.009,0.748-11.384c-2.228-2.81-6.413-3.771-10.417-2.378c-0.457,0.158-0.918,0.354-1.375,0.586v-7.776   c0.001,0.002,0.005,0.005,0.005,0.005c0.094,1.618,1.433,2.897,3.069,2.897c1.699,0,3.074-1.375,3.074-3.074   c0-2.005-1.402-5.483-6.148-6.561v-5.736c0-1.699-1.375-3.074-3.074-3.074s-3.074,1.375-3.074,3.074v5.736   c-4.746,1.078-6.148,4.556-6.148,6.561c0,1.699,1.372,3.176,3.068,3.176c1.699,0,3.068-1.273,3.068-2.972   c0.001-0.006,0.011-0.012,0.012-0.018v7.761c-0.457-0.232-0.918-0.428-1.375-0.586c-4.005-1.393-8.193-0.432-10.417,2.378   c-1.084,1.375-3.179,5.23,0.748,11.384c0.913,1.429,2.81,1.843,4.245,0.943c1.432-0.913,1.849-2.816,0.937-4.245   c-1.474-2.318-1.516-3.747-1.105-4.269c0.483-0.618,1.99-0.937,3.576-0.384c1.021,0.354,3.392,1.579,3.392,5.278   c0,2.954-1.366,5.662-3.747,7.421c-2.387,1.765-5.47,2.27-8.454,1.339c-3.678-1.123-6.244-4.996-6.244-9.421   c0-3.164,0.678-6.365,1.966-9.259l19.553-43.992L63.089,142.948z M40.473,72.938c1.164-0.906,2.195-1.989,3.064-3.214   c0.869,1.225,1.9,2.308,3.064,3.214c-1.164,0.906-2.195,1.989-3.064,3.214C42.668,74.927,41.636,73.844,40.473,72.938z"/>
	<circle style="fill:#FFE15A;" cx="270.3" cy="227.86" r="58.36"/>
	<path style="fill:#FFE15A;" d="M274.674,153.443c0,2.417-1.96,4.377-4.377,4.377s-4.377-1.96-4.377-4.377   c0-2.417,4.377-13.132,4.377-13.132S274.674,151.026,274.674,153.443z"/>
	<path style="fill:#FFE15A;" d="M265.92,302.269c0-2.417,1.96-4.377,4.377-4.377s4.377,1.96,4.377,4.377   c0,2.417-4.377,13.132-4.377,13.132S265.92,304.687,265.92,302.269z"/>
	<path style="fill:#FFE15A;" d="M344.71,232.234c-2.417,0-4.377-1.96-4.377-4.377c0-2.417,1.96-4.377,4.377-4.377   s13.132,4.377,13.132,4.377S347.127,232.234,344.71,232.234z"/>
	<path style="fill:#FFE15A;" d="M195.884,223.479c2.417,0,4.377,1.96,4.377,4.377c0,2.417-1.96,4.377-4.377,4.377   s-13.132-4.377-13.132-4.377S193.467,223.479,195.884,223.479z"/>
	<path style="fill:#FFE15A;" d="M326.01,178.334c-1.709,1.709-4.481,1.709-6.19,0s-1.709-4.481,0-6.19s12.381-6.19,12.381-6.19   S327.719,176.624,326.01,178.334z"/>
	<path style="fill:#FFE15A;" d="M214.584,277.379c1.709-1.709,4.481-1.709,6.19,0s1.709,4.481,0,6.19s-12.381,6.19-12.381,6.19   S212.875,279.088,214.584,277.379z"/>
	<path style="fill:#FFE15A;" d="M319.82,283.569c-1.709-1.709-1.709-4.481,0-6.19s4.481-1.709,6.19,0s6.19,12.381,6.19,12.381   S321.529,285.279,319.82,283.569z"/>
	<path style="fill:#FFE15A;" d="M220.774,172.143c1.709,1.709,1.709,4.481,0,6.19s-4.481,1.709-6.19,0s-6.19-12.381-6.19-12.381   S219.065,170.434,220.774,172.143z"/>
	<path style="fill:#FFE15A;" d="M245.864,157.433c0.925,2.233-0.135,4.794-2.369,5.719s-4.794-0.135-5.719-2.369   c-0.925-2.233-0.981-13.807-0.981-13.807S244.939,155.199,245.864,157.433z"/>
	<path style="fill:#FFE15A;" d="M294.73,298.28c-0.925-2.233,0.135-4.794,2.369-5.719c2.233-0.925,4.794,0.135,5.719,2.369   c0.925,2.233,0.981,13.807,0.981,13.807S295.655,300.513,294.73,298.28z"/>
	<path style="fill:#FFE15A;" d="M340.721,203.424c-2.233,0.925-4.794-0.135-5.719-2.369c-0.925-2.233,0.135-4.794,2.369-5.719   s13.807-0.981,13.807-0.981S342.954,202.499,340.721,203.424z"/>
	<path style="fill:#FFE15A;" d="M199.873,252.289c2.233-0.925,4.794,0.135,5.719,2.369c0.925,2.233-0.135,4.794-2.369,5.719   c-2.233,0.925-13.807,0.981-13.807,0.981S197.64,253.214,199.873,252.289z"/>
	<path style="fill:#FFE15A;" d="M302.818,160.783c-0.925,2.233-3.486,3.294-5.719,2.369s-3.294-3.486-2.369-5.719   c0.925-2.233,9.069-10.457,9.069-10.457S303.743,158.549,302.818,160.783z"/>
	<path style="fill:#FFE15A;" d="M237.776,294.93c0.925-2.233,3.486-3.294,5.719-2.369c2.233,0.925,3.294,3.486,2.369,5.719   s-9.069,10.457-9.069,10.457S236.851,297.163,237.776,294.93z"/>
	<path style="fill:#FFE15A;" d="M337.37,260.377c-2.233-0.925-3.294-3.486-2.369-5.719c0.925-2.233,3.486-3.294,5.719-2.369   s10.457,9.069,10.457,9.069S339.604,261.302,337.37,260.377z"/>
	<path style="fill:#FFE15A;" d="M203.224,195.336c2.233,0.925,3.294,3.486,2.369,5.719s-3.486,3.294-5.719,2.369   c-2.233-0.925-10.457-9.069-10.457-9.069S200.99,194.411,203.224,195.336z"/>
	<path style="fill:#FFE15A;" d="M260.073,154.019c0.472,2.371-1.068,4.675-3.439,5.147s-4.675-1.068-5.147-3.439   s1.731-13.733,1.731-13.733S259.601,151.648,260.073,154.019z"/>
	<path style="fill:#FFE15A;" d="M280.521,301.693c-0.472-2.371,1.068-4.675,3.439-5.147c2.371-0.472,4.675,1.068,5.147,3.439   s-1.731,13.733-1.731,13.733S280.993,304.064,280.521,301.693z"/>
	<path style="fill:#FFE15A;" d="M344.134,217.632c-2.371,0.472-4.675-1.068-5.147-3.439c-0.472-2.371,1.068-4.675,3.439-5.147   s13.733,1.731,13.733,1.731S346.505,217.161,344.134,217.632z"/>
	<path style="fill:#FFE15A;" d="M196.46,238.08c2.371-0.472,4.675,1.068,5.147,3.439s-1.068,4.675-3.439,5.147   s-13.733-1.731-13.733-1.731S194.089,238.552,196.46,238.08z"/>
	<path style="fill:#FFE15A;" d="M315.278,168.416c-1.343,2.01-4.061,2.551-6.071,1.208s-2.551-4.061-1.208-6.071   s10.935-8.487,10.935-8.487S316.621,166.406,315.278,168.416z"/>
	<path style="fill:#FFE15A;" d="M225.316,287.297c1.343-2.01,4.061-2.551,6.071-1.208s2.551,4.061,1.208,6.071   s-10.935,8.487-10.935,8.487S223.973,289.307,225.316,287.297z"/>
	<path style="fill:#FFE15A;" d="M329.737,272.837c-2.01-1.343-2.551-4.061-1.208-6.071s4.061-2.551,6.071-1.208   s8.487,10.935,8.487,10.935S331.747,274.181,329.737,272.837z"/>
	<path style="fill:#FFE15A;" d="M210.857,182.875c2.01,1.343,2.551,4.061,1.208,6.071s-4.061,2.551-6.071,1.208   s-8.487-10.935-8.487-10.935S208.847,181.532,210.857,182.875z"/>
	<path style="fill:#FFE15A;" d="M232.595,163.552c1.343,2.01,0.802,4.728-1.208,6.071s-4.728,0.802-6.071-1.208   s-3.656-13.35-3.656-13.35S231.252,161.542,232.595,163.552z"/>
	<path style="fill:#FFE15A;" d="M307.999,292.16c-1.343-2.01-0.802-4.728,1.208-6.071c2.01-1.343,4.728-0.802,6.071,1.208   c1.343,2.01,3.656,13.35,3.656,13.35S309.342,294.17,307.999,292.16z"/>
	<path style="fill:#FFE15A;" d="M334.601,190.154c-2.01,1.343-4.728,0.802-6.071-1.208s-0.802-4.728,1.208-6.071   s13.35-3.656,13.35-3.656S336.611,188.811,334.601,190.154z"/>
	<path style="fill:#FFE15A;" d="M205.993,265.558c2.01-1.343,4.728-0.802,6.071,1.208s0.802,4.728-1.208,6.071   s-13.35,3.656-13.35,3.656S203.983,266.901,205.993,265.558z"/>
	<path style="fill:#FFE15A;" d="M289.107,155.727c-0.472,2.371-2.776,3.911-5.147,3.439s-3.911-2.776-3.439-5.147   c0.472-2.371,6.855-12.025,6.855-12.025S289.579,153.356,289.107,155.727z"/>
	<path style="fill:#FFE15A;" d="M251.487,299.985c0.472-2.371,2.776-3.911,5.147-3.439c2.371,0.472,3.911,2.776,3.439,5.147   c-0.472,2.371-6.855,12.025-6.855,12.025S251.015,302.356,251.487,299.985z"/>
	<path style="fill:#FFE15A;" d="M342.426,246.667c-2.371-0.472-3.911-2.776-3.439-5.147c0.472-2.371,2.776-3.911,5.147-3.439   s12.025,6.855,12.025,6.855S344.797,247.138,342.426,246.667z"/>
	<path style="fill:#FFE15A;" d="M198.168,209.046c2.371,0.472,3.911,2.776,3.439,5.147s-2.776,3.911-5.147,3.439   s-12.025-6.855-12.025-6.855S195.797,208.574,198.168,209.046z"/>
	<path style="fill:#FFE15A;" d="M407.576,243.212c-1.709-0.719-3.664,0.105-4.377,1.804c0,0.007,0,0.007,0,0.007   c-0.013,0.033-0.078,0.19-0.193,0.458c-2.53,5.909-7.763,14.545-13.048,22.67c4.922-15.846,9.423-32.77,9.737-33.96   c0.471-1.778-0.582-3.602-2.357-4.086c-1.778-0.477-3.605,0.556-4.102,2.327c-2.298,8.23-6.995,19.062-11.329,28.233   c0.794-10.224,0.945-19.696,0.954-20.382c0.026-1.811-1.392-3.308-3.203-3.393c-1.703,0.052-3.347,1.294-3.481,3.105   c-4.285,58.951-61.01,85.321-66.534,87.746c-2.889,0.288-16.349,1.804-28.567,6.047c-1.386,0.482-2.564,0.963-3.74,1.441   c-0.436-0.163-0.905-0.255-1.399-0.226c-37.496,2.713-67.393-12.669-88.88-45.622c-16.235-24.899-21.327-51.034-21.376-51.296   c-0.343-1.817-2.082-2.987-3.909-2.667c-1.817,0.346-3.01,2.092-2.667,3.909c0.136,0.722,2.369,12.129,8.523,27.142   c-8.233-12.995-13.968-28.737-15.988-36.935c-0.04-0.164-0.145-0.288-0.207-0.44c-0.094-0.232-0.174-0.464-0.313-0.665   c-0.099-0.142-0.227-0.246-0.345-0.369c-0.183-0.193-0.359-0.382-0.581-0.526c-0.128-0.083-0.272-0.124-0.41-0.189   c-0.248-0.115-0.489-0.229-0.764-0.28c-0.19-0.037-0.386-0.013-0.583-0.016c-0.2-0.002-0.39-0.054-0.595-0.018   c-0.045,0.007-0.079,0.038-0.124,0.047c-0.043,0.008-0.085-0.006-0.128,0.005c-0.179,0.044-0.316,0.156-0.48,0.226   c-0.209,0.09-0.423,0.159-0.606,0.285c-0.18,0.124-0.314,0.285-0.465,0.44c-0.149,0.154-0.307,0.289-0.424,0.467   c-0.119,0.181-0.184,0.384-0.267,0.585c-0.081,0.196-0.174,0.38-0.217,0.592c-0.044,0.217-0.024,0.44-0.023,0.665   c0,0.181-0.049,0.353-0.018,0.538c0.013,0.078,0.039,0.158,0.052,0.236v0.012c0.004,0.015,0.009,0.034,0.013,0.047   c2.07,12.199,7.005,24.845,11.466,34.488c-7.086-8.04-13.005-17.303-15.104-22.788c-0.061-0.16-0.182-0.271-0.264-0.415   c-0.125-0.222-0.233-0.448-0.401-0.631c-0.118-0.13-0.264-0.215-0.399-0.324c-0.203-0.163-0.397-0.329-0.632-0.441   c-0.151-0.072-0.314-0.095-0.474-0.144c-0.247-0.075-0.486-0.157-0.749-0.172c-0.207-0.014-0.411,0.038-0.62,0.065   c-0.193,0.025-0.384,0-0.576,0.06c-0.037,0.011-0.062,0.041-0.098,0.054c-0.036,0.011-0.072,0.005-0.108,0.018   c-0.182,0.069-0.311,0.203-0.474,0.3c-0.191,0.114-0.394,0.206-0.556,0.352c-0.167,0.15-0.281,0.334-0.412,0.512   c-0.124,0.168-0.263,0.318-0.354,0.504c-0.096,0.196-0.131,0.409-0.187,0.619c-0.055,0.206-0.128,0.399-0.142,0.614   c-0.015,0.216,0.038,0.431,0.067,0.651c0.025,0.189-0.001,0.377,0.058,0.565c3.641,11.747,12.401,25.723,19.261,35.568   c-5.717-4.406-9.92-9.171-11.139-10.61c-0.131-0.157-0.261-0.314-0.392-0.471c-1.18-1.419-3.265-1.621-4.694-0.464   c-1.425,1.164-1.647,3.255-0.497,4.687c0.062,0.078,0.314,0.392,0.732,0.882c5.02,5.975,10.492,11.551,15.447,16.258l-6.779-2.889   c-1.546-0.667-3.363-0.065-4.21,1.405s-0.464,3.334,0.892,4.354c0.66,0.49,12.665,9.459,23.059,14.761   c-0.981,0.059-2.131-0.013-3.419-0.111c-1.572-0.15-3.118,0.974-3.501,2.569c-0.376,1.602,0.461,3.236,1.981,3.863   c0.255,0.105,3.422,1.412,7.335,2.804c-0.912,0.373-1.638,1.137-1.938,2.131c-0.451,1.484,0.183,3.092,1.53,3.863   c0.35,0.203,5.083,2.916,10.936,5.321c-0.157,0.242-0.284,0.503-0.379,0.791c-0.458,1.405,0.065,2.948,1.285,3.791   c1.016,0.699,23.749,16.127,50.299,16.127c1.742,0,3.504-0.065,5.275-0.209c1.84-0.144,3.216-1.758,3.069-3.602   c-0.147-1.843-1.745-3.236-3.605-3.066c-16.679,1.36-32.747-4.903-42.304-9.688c1.262-0.307,1.987-0.588,2.167-0.66   c1.474-0.601,2.324-2.151,2.036-3.713s-1.634-2.706-3.226-2.739c-3.88-0.078-9.253-1.968-13.881-3.994   c1.749-0.876,2.768-1.713,2.86-1.785c1.007-0.843,1.432-2.19,1.088-3.458c-0.346-1.262-1.399-2.21-2.693-2.419   c-1.422-0.235-3.193-0.693-5.05-1.255c1.804-1.039,2.572-2.183,2.866-2.765c0.464-0.928,0.474-2.013,0.029-2.948   c-0.448-0.935-1.301-1.608-2.314-1.824c-0.876-0.19-1.866-0.51-2.938-0.928c0.196-0.196,0.376-0.418,0.523-0.673   c0.853-1.445,0.5-3.301-0.824-4.341c-0.069-0.052-2.667-2.092-6.599-5.485c0.624-0.229,1.177-0.654,1.575-1.229   c0.843-1.216,0.784-2.844-0.141-3.994c-0.074-0.092-2.676-3.363-6.261-8.331c1.183,0.919,2.367,1.858,3.548,2.617   c0.556,0.353,1.186,0.529,1.811,0.529c0.847,0,1.683-0.32,2.327-0.941c0.265-0.256,0.472-0.551,0.635-0.865   c2.03,2.169,4.164,4.139,6.405,5.82c0.293,0.219,0.646,0.214,0.975,0.324c0.949,1.591,1.938,3.187,2.974,4.781   c20.324,31.272,48.981,48.022,83.353,49.028c-3.165,1.922-6.6,3.908-12.041,6.026c-1.187,0.462-2.236,0.927-3.292,1.391   c-0.509,0.1-0.987,0.284-1.386,0.6c-9.495,4.396-13.426,8.738-15.022,11.776c-1.592,3.02-0.219,6.119,1.726,7.727   c0.605,0.497,1.373,0.752,2.144,0.752c0.529,0,1.059-0.118,1.539-0.36c1.183-0.588,1.974-1.837,1.922-3.151   c0.137-0.15,0.719-0.634,2.543-0.693c1.33-0.111,4.128,0.19,7.393,0.451c3.106,0.256,6.832,0.546,10.794,0.75   c-2.478,2.889-5.359,6.238-5.359,6.238c-0.866,1.007-1.056,2.432-0.48,3.628c0.579,1.203,1.824,1.948,3.131,1.902   c2.644-0.092,4.442-0.144,5.622-0.17c1.03,1.347,2.291,1.883,3.105,2.092c2.301,0.588,4.595-0.333,6.325-1.425   c1.307,0.941,2.615,1.34,3.651,1.49c2.337,0.32,4.501-0.36,6.066-1.131c1.621,1.046,3.21,1.314,4.419,1.314   c0.016,0,0.036,0,0.056,0c2.612-0.013,4.896-1.275,6.514-2.51c1.428,0.85,2.795,1.124,3.85,1.17c2.396,0.085,4.383-0.837,5.704-1.7   c4.716,0.948,8.782-1.275,11.469-3.726c1.226,0.713,2.393,0.889,3.321,0.843c2.389-0.085,4.21-1.536,5.377-2.837   c5.347,0.647,9.184-0.34,11.404-2.974c1.209-1.432,1.7-3.046,1.834-4.517c14.836-0.085,16.179-8.184,16.287-9.184   c0.098-0.909-0.18-1.817-0.771-2.517c-0.588-0.699-1.441-1.131-2.353-1.183l-38.895-2.34c-1.628-0.118-3.079,0.974-3.458,2.563   c-0.007,0.026-0.67,2.497-2.746,4.471c-2.792,2.665-7.287,4.074-12.178,4.819c0.019-0.448-0.045-0.904-0.217-1.348   c-0.667-1.726-2.608-2.563-4.327-1.915c-8.03,3.116-21.031,2.724-31.202,2.016c1.561-1.276,3.438-2.537,4.939-3.362   c1.268-0.699,1.948-2.131,1.68-3.556c-0.195-1.034-0.943-1.755-1.846-2.218c2.829-1.428,5.147-2.807,7.347-4.149   c3.818-2.34,7.426-4.543,13.996-6.825c12.682-4.406,27.357-5.746,27.504-5.759c0.333-0.026,0.66-0.111,0.971-0.235   c0.523-0.216,41.919-17.558,61.422-57.571c-0.255,1.209-0.529,2.314-0.827,3.282c-0.51,1.647,0.314,3.406,1.902,4.073   c1.229,0.516,2.625,0.248,3.569-0.628c-1.232,3.249-2.347,5.805-3.255,7.315c-0.928,1.536-0.48,3.53,1.013,4.524   c0.35,0.229,0.726,0.386,1.111,0.477c-1.51,2.21-3.04,4.301-4.566,6.217c-1.016,1.275-0.958,3.092,0.105,4.295   c-2.621,2.746-4.945,5.007-6.71,6.445c-1.154,0.935-1.53,2.497-1,3.831c-1.703,0.974-3.102,1.66-4.073,1.955   c-1.628,0.49-2.628,2.131-2.321,3.805c0.16,0.882,0.657,1.628,1.343,2.118c-2.046,0.549-4.285,1.079-6.717,1.562   c-1.37,0.275-2.425,1.366-2.651,2.746c-0.222,1.379,0.431,2.752,1.644,3.445c0.105,0.059,1.249,0.706,2.997,1.451   c-6.475,2.608-18.036,6.014-37.006,7.884c-1.837,0.183-3.184,1.824-3,3.661c0.18,1.837,1.768,3.112,3.661,3.007   c36.012-3.563,47.132-12.577,47.586-12.963c1.039-0.869,1.451-2.288,1.039-3.582c-0.275-0.856-0.876-1.549-1.647-1.948   c11.505-3.621,16.444-7.629,16.702-7.844c1.262-1.046,1.579-2.857,0.748-4.275c-0.837-1.419-2.579-2.033-4.099-1.419   c-0.428,0.163-1.111,0.333-1.974,0.503c7.72-5.288,15.918-11.584,19.523-14.394c0.634-0.471,1.209-0.922,1.716-1.347   c1.399-1.177,1.595-3.255,0.441-4.674c-1.147-1.412-3.236-1.647-4.667-0.516c-0.523,0.412-1.066,0.837-1.628,1.275   c-1.664,1.236-3.791,2.634-6.112,4.073c8.763-9.949,17.585-20.735,20.105-23.834c0.229-0.281,0.454-0.562,0.683-0.843   c1.157-1.438,0.932-3.543-0.507-4.7c-1.441-1.177-3.55-0.935-4.703,0.497l-0.007,0.007l-0.003,0.007   c-0.062,0.072-0.346,0.425-0.824,1.013c-2.641,3.223-5.419,6.341-8.161,9.256c8.926-16.179,15.686-32.103,16.676-34.463   c0.036-0.085,0.069-0.17,0.105-0.255C410.09,245.879,409.283,243.918,407.576,243.212z M250.706,356.033l0.914,0.118   c-1.121,1.048-2.033,2.223-2.758,3.435c-1.59-0.128-3.031-0.239-4.161-0.291C246.258,358.279,248.262,357.175,250.706,356.033z"/>
</g>
<g>
</g>
<g>
</g>
<g>
</g>
<g>
</g>
<g>
</g>
<g>
</g>
<g>
</g>
<g>
</g>
<g>
</g>
<g>
</g>
<g>
</g>
<g>
</g>
<g>
</g>
<g>
</g>
<g>
</g>
</svg>
