<?xml version="1.0" encoding="iso-8859-1"?>
<!-- Generator: Adobe Illustrator 19.0.0, SVG Export Plug-In . SVG Version: 6.00 Build 0)  -->
<svg xmlns="http://www.w3.org/2000/svg" xmlns:xlink="http://www.w3.org/1999/xlink" version="1.1" id="Layer_1" x="0px" y="0px" viewBox="0 0 512.002 512.002" style="enable-background:new 0 0 512.002 512.002;" xml:space="preserve">
<rect x="0.052" y="0.026" style="fill:#FF4B55;" width="511.95" height="511.95"/>
<path style="fill:#FFE15A;" d="M331.52,260.242c-3.418-2.94-7.294-5.078-11.184-6.643c21.991-4.337,39.676-22.916,39.676-22.916  c-10.69,4.691-15.66,5.64-32.675,0.047c-4.282-1.407-8.681-1.901-12.874-1.858c18.656-12.423,27.885-36.354,27.885-36.354  c-8.082,8.424-12.31,11.204-30.17,12.548c-4.495,0.338-8.749,1.567-12.607,3.211c12.484-18.616,11.852-44.26,11.852-44.26  c-4.243,10.876-7.085,15.061-23.071,23.138c-4.023,2.033-7.483,4.796-10.417,7.789c4.408-21.975-5.987-45.424-5.987-45.424  c0.242,11.671-0.783,16.626-12.461,30.206c-2.939,3.418-5.078,7.294-6.643,11.184c-4.337-21.99-22.916-39.676-22.916-39.676  c4.69,10.69,5.639,15.66,0.047,32.675c-1.408,4.282-1.902,8.682-1.858,12.874c-12.423-18.656-36.354-27.885-36.354-27.885  c8.424,8.082,11.204,12.31,12.548,30.17c0.338,4.495,1.567,8.748,3.211,12.606c-18.616-12.483-44.259-11.851-44.259-11.851  c10.876,4.243,15.061,7.085,23.138,23.071c2.033,4.024,4.797,7.483,7.791,10.418c-21.977-4.409-45.426,5.987-45.426,5.987  c11.672-0.242,16.627,0.783,30.207,12.461c3.417,2.939,7.294,5.078,11.184,6.643c-21.99,4.336-39.676,22.916-39.676,22.916  c10.691-4.69,15.66-5.64,32.676-0.047c4.283,1.408,8.682,1.901,12.875,1.857c-18.655,12.422-27.887,36.354-27.887,36.354  c8.082-8.424,12.31-11.203,30.17-12.548c4.495-0.338,8.749-1.567,12.606-3.211c-12.483,18.616-11.851,44.259-11.851,44.259  c4.243-10.877,7.085-15.062,23.071-23.139c4.023-2.033,7.483-4.797,10.417-7.79c-4.409,21.976,5.988,45.425,5.988,45.425  c-0.242-11.672,0.783-16.627,12.461-30.206c2.939-3.418,5.079-7.294,6.643-11.183c4.337,21.989,22.916,39.676,22.916,39.676  c-4.69-10.691-5.64-15.66-0.047-32.676c1.408-4.282,1.902-8.682,1.858-12.874c12.423,18.656,36.354,27.885,36.354,27.885  c-8.424-8.082-11.204-12.31-12.548-30.17c-0.338-4.494-1.567-8.748-3.211-12.605c18.615,12.482,44.258,11.851,44.258,11.851  c-10.876-4.244-15.061-7.085-23.138-23.072c-2.033-4.023-4.796-7.483-7.789-10.417c21.976,4.408,45.424-5.988,45.424-5.988  C350.055,272.944,345.1,271.92,331.52,260.242z"/>
<path style="fill:#FFD25A;" d="M310.061,266.749L363.804,256l-53.743-10.749l45.539-30.496l-53.766,10.636l30.402-45.601  l-45.602,30.402l10.636-53.766l-30.497,45.538l-10.748-53.743l-10.748,53.743l-30.497-45.538l10.636,53.766l-45.602-30.402  l30.402,45.601l-53.766-10.636l45.539,30.496L148.248,256l53.743,10.749l-45.539,30.496l53.766-10.636l-30.402,45.602l45.602-30.402  l-10.636,53.765l30.496-45.538l10.749,53.743l10.749-53.743l30.496,45.538l-10.636-53.765l45.602,30.402l-30.402-45.602  l53.766,10.636L310.061,266.749z"/>
<path style="fill:#FFE15A;" d="M299.799,222.73c33.692,53.921-23.122,110.734-77.042,77.042c-4.251-2.656-7.846-6.251-10.502-10.502  c-33.692-53.921,23.122-110.734,77.042-77.042C293.547,214.884,297.143,218.48,299.799,222.73z"/>
<g>
	<path style="fill:#41479B;" d="M102.308,417.668c25.607,0,25.607,13.473,51.216,13.473c25.625,0,25.625-13.473,51.251-13.473   s25.625,13.473,51.251,13.473c25.569,0,25.569-13.473,51.138-13.473c25.582,0,25.582,13.473,51.164,13.473   c25.592,0,25.592-13.473,51.186-13.473s25.592,13.473,51.185,13.473s25.593-13.473,51.187-13.473c0.041,0,0.075,0.004,0.116,0.004   v-40.417c-0.041,0-0.075-0.004-0.116-0.004c-25.593,0-25.593,13.473-51.187,13.473c-25.592,0-25.592-13.473-51.185-13.473   s-25.592,13.473-51.186,13.473c-25.581,0-25.581-13.473-51.164-13.473c-25.568,0-25.568,13.473-51.138,13.473   c-25.625,0-25.625-13.473-51.251-13.473s-25.625,13.473-51.251,13.473c-25.608,0-25.608-13.473-51.216-13.473   c-25.585,0-25.585,13.473-51.172,13.473c-25.558,0-25.606-13.426-51.083-13.469v40.417c25.477,0.043,25.524,13.469,51.083,13.469   C76.722,431.14,76.722,417.668,102.308,417.668z"/>
	<path style="fill:#41479B;" d="M0.052,336.838c25.477,0.043,25.524,13.469,51.083,13.469c25.586,0,25.586-13.473,51.172-13.473   c25.607,0,25.607,13.473,51.216,13.473c25.625,0,25.625-13.473,51.251-13.473s25.625,13.473,51.251,13.473   c25.569,0,25.569-13.473,51.138-13.473c25.582,0,25.582,13.473,51.164,13.473c25.592,0,25.592-13.473,51.186-13.473   s25.592,13.473,51.185,13.473s25.593-13.473,51.187-13.473c0.041,0,0.075,0.004,0.116,0.004v-40.417   c-0.041,0-0.075-0.004-0.116-0.004c-25.593,0-25.593,13.473-51.187,13.473c-25.592,0-25.592-13.473-51.185-13.473   s-25.592,13.473-51.186,13.473c-25.581,0-25.581-13.473-51.164-13.473c-25.568,0-25.568,13.473-51.138,13.473   c-25.625,0-25.625-13.473-51.251-13.473s-25.625,13.473-51.251,13.473c-25.608,0-25.608-13.473-51.216-13.473   c-25.585,0-25.585,13.473-51.172,13.473c-25.558,0-25.606-13.426-51.083-13.469L0.052,336.838L0.052,336.838z"/>
</g>
<g>
	<path style="fill:#F5F5F5;" d="M0.052,458.089c25.477,0.043,25.524,13.469,51.083,13.469c25.586,0,25.586-13.473,51.172-13.473   c25.607,0,25.607,13.473,51.216,13.473c25.625,0,25.625-13.473,51.251-13.473s25.625,13.473,51.251,13.473   c25.569,0,25.569-13.473,51.138-13.473c25.582,0,25.582,13.473,51.164,13.473c25.592,0,25.592-13.473,51.186-13.473   s25.592,13.473,51.185,13.473s25.593-13.473,51.187-13.473c0.041,0,0.075,0.004,0.116,0.004v-40.417   c-0.041,0-0.075-0.004-0.116-0.004c-25.593,0-25.593,13.473-51.187,13.473c-25.592,0-25.592-13.473-51.185-13.473   s-25.592,13.473-51.186,13.473c-25.581,0-25.581-13.473-51.164-13.473c-25.568,0-25.568,13.473-51.138,13.473   c-25.625,0-25.625-13.473-51.251-13.473s-25.625,13.473-51.251,13.473c-25.608,0-25.608-13.473-51.216-13.473   c-25.585,0-25.585,13.473-51.172,13.473c-25.558,0-25.606-13.426-51.083-13.469L0.052,458.089L0.052,458.089z"/>
	<path style="fill:#F5F5F5;" d="M0.052,377.255c25.477,0.043,25.524,13.469,51.083,13.469c25.586,0,25.586-13.473,51.172-13.473   c25.607,0,25.607,13.473,51.216,13.473c25.625,0,25.625-13.473,51.251-13.473s25.625,13.473,51.251,13.473   c25.569,0,25.569-13.473,51.138-13.473c25.582,0,25.582,13.473,51.164,13.473c25.592,0,25.592-13.473,51.186-13.473   s25.592,13.473,51.185,13.473s25.593-13.473,51.187-13.473c0.041,0,0.075,0.004,0.116,0.004v-40.417   c-0.041,0-0.075-0.004-0.116-0.004c-25.593,0-25.593,13.473-51.187,13.473c-25.592,0-25.592-13.473-51.185-13.473   s-25.592,13.473-51.186,13.473c-25.581,0-25.581-13.473-51.164-13.473c-25.568,0-25.568,13.473-51.138,13.473   c-25.625,0-25.625-13.473-51.251-13.473s-25.625,13.473-51.251,13.473c-25.608,0-25.608-13.473-51.216-13.473   c-25.585,0-25.585,13.473-51.172,13.473c-25.558,0-25.606-13.426-51.083-13.469L0.052,377.255L0.052,377.255z"/>
	<path style="fill:#F5F5F5;" d="M0.052,296.421c25.477,0.043,25.524,13.469,51.083,13.469c25.586,0,25.586-13.473,51.172-13.473   c25.607,0,25.607,13.473,51.216,13.473c25.625,0,25.625-13.473,51.251-13.473s25.625,13.473,51.251,13.473   c25.569,0,25.569-13.473,51.138-13.473c25.582,0,25.582,13.473,51.164,13.473c25.592,0,25.592-13.473,51.186-13.473   s25.592,13.473,51.185,13.473s25.593-13.473,51.187-13.473c0.041,0,0.075,0.004,0.116,0.004v-40.417   c-0.041,0-0.075-0.004-0.116-0.004c-25.593,0-25.593,13.473-51.187,13.473c-25.592,0-25.592-13.473-51.185-13.473   s-25.591,13.473-51.184,13.473c-25.581,0-25.581-13.473-51.164-13.473c-25.568,0-25.568,13.473-51.138,13.473   c-25.625,0-25.625-13.473-51.251-13.473s-25.625,13.473-51.252,13.473c-25.608,0-25.608-13.473-51.216-13.473   c-25.585,0-25.585,13.473-51.172,13.473c-25.558,0-25.606-13.426-51.083-13.469v40.417H0.052z"/>
</g>
<path style="fill:#41479B;" d="M460.698,471.557c-25.592,0-25.592-13.473-51.185-13.473s-25.592,13.473-51.186,13.473  c-25.581,0-25.581-13.473-51.164-13.473c-25.568,0-25.568,13.473-51.138,13.473c-25.625,0-25.625-13.473-51.251-13.473  s-25.625,13.473-51.251,13.473c-25.608,0-25.608-13.473-51.216-13.473c-25.585,0-25.585,13.473-51.172,13.473  c-25.558,0-25.606-13.426-51.083-13.469L0,511.974h511.948c0,0,0.04-53.886,0.052-53.886l0,0c-0.041,0-0.075-0.004-0.116-0.004  C486.292,458.085,486.292,471.557,460.698,471.557z"/>
<path style="fill:#FFE15A;" d="M284.077,71.587c65.514-2.534,98.813-31.127,98.813-31.127c-4.706,1.809-78.182,7.962-99.175,9.773  c-13.259,1.142-29.798,16.258-40.214,27.264c-2.805-7.621-8.288-15.527-19.147-17.13c-22.079-3.258-80.715-6.876-95.193-13.755l0,0  c0,0,9.345,14.447,57.641,20.994c23.14,3.137,35.898,11.075,41.976,16.476l-5.508-0.189c0,0,0,0-9.41-4.707  c-9.411-4.706-18.822,3.258-18.822,3.258h-14.989c-1.877,0-2.949,2.143-1.823,3.645l1.442,1.923  c1.473,1.964,3.784,3.119,6.238,3.119h15.284c5.429,9.411,26.06,19.184,43.073,19.184c17.011,0,69.132-23.165,74.2-23.165  l-47.149-1.614L284.077,71.587z"/>
<g>
</g>
<g>
</g>
<g>
</g>
<g>
</g>
<g>
</g>
<g>
</g>
<g>
</g>
<g>
</g>
<g>
</g>
<g>
</g>
<g>
</g>
<g>
</g>
<g>
</g>
<g>
</g>
<g>
</g>
</svg>
