<?xml version="1.0" encoding="iso-8859-1"?>
<!-- Generator: Adobe Illustrator 19.0.0, SVG Export Plug-In . SVG Version: 6.00 Build 0)  -->
<svg xmlns="http://www.w3.org/2000/svg" xmlns:xlink="http://www.w3.org/1999/xlink" version="1.1" id="Layer_1" x="0px" y="0px" viewBox="0 0 512 512" style="enable-background:new 0 0 512 512;" xml:space="preserve">
<rect style="fill:#41479B;" width="512" height="512"/>
<path style="fill:#FF9B55;" d="M267.31,202.483c-5.103-0.966-11.31-7.448-9.103-11.034s-1.931-11.586-6.897-8.828  c-4.966,2.759-8.276,6.069-12.966,7.172s-8.552,4.69-4.966,8s9.103,9.931,3.862,16.828s-3.586,2.207-9.931,5.241  s-10.759,9.103-8.828,12.69c1.931,3.586,3.586,4.966-1.931,7.448s-8,0.828-12.414,1.931s-15.172,6.621-18.483,11.31  c-3.31,4.69-10.483,0.276-13.517-0.276s-9.103,1.655-10.483,5.241c-1.379,3.586,1.103,6.897,6.345,8.552  c5.241,1.655,7.448,1.931,4.966,6.345c-2.483,4.414-0.828,12.966,3.31,15.448c4.138,2.483,12.138,10.207,12.138,15.448  s-1.103,12.966,6.621,14.069s19.586,4.414,23.724,11.586s5.241,11.31,6.069,15.724s1.655,8,4.138,12.966s4.138,13.517,1.655,15.448  s-4.414,3.31-2.483,7.034s2.345,5.103,5.931,3.034s3.586,0.138,5.517-0.276s10.759-3.586,9.103-7.862  c-1.655-4.276-5.241-14.069-0.138-19.172s12-5.931,16.414-9.379s11.724-4,17.379-9.517s11.724-2.207,12.69,1.655  s2.483,11.31,6.897,11.172s5.379-0.138,6.207-5.517s7.724-17.379,10.483-15.862s5.241,0.276,5.379-2.069s5.379-4.414,7.586-1.103  c2.207,3.31,7.035,5.931,6.897,1.793s-5.793-3.586-5.931-8.138s4.552-7.448,8.69-9.379s1.655-6.897,2.897-9.655  c1.241-2.759,8-6.207,8.276-8.966s-1.655-3.862,1.241-4.552c2.897-0.69,6.483-1.931,4.414-5.103s-1.379-5.517,0.828-7.034  s3.242-8.719,0.023-9.654s-9.035,1.766-10.489,3.531c-1.454,1.766-7.374-5.816-10.178-7.685c-2.804-1.869-20.875-0.727-20.459-3.843  c0.415-3.116,8-14.488,4.69-16.281s-8.552-4.414-12.828-5.793s-3.31,3.31-5.655-0.414s-3.172-16.966-5.793-16.966  s-4.552,5.517-5.655,3.448s0.414-16.414-5.655-16.69s-6.207,3.31-9.655,0.69C273.793,202.621,274.287,203.803,267.31,202.483z"/>
<g>
	<path style="fill:#F5F5F5;" d="M229.837,124.013l-4.582,13.74l-14.483,0.112c-0.794,0.006-1.123,1.019-0.485,1.491l11.651,8.604   l-4.369,13.809c-0.24,0.757,0.622,1.383,1.268,0.922l11.783-8.422l11.783,8.422c0.646,0.462,1.508-0.165,1.268-0.922l-4.369-13.809   l11.651-8.604c0.639-0.472,0.31-1.485-0.485-1.491l-14.483-0.112l-4.582-13.74C231.153,123.26,230.088,123.26,229.837,124.013z"/>
	<path style="fill:#F5F5F5;" d="M280.871,124.013l-4.582,13.74l-14.483,0.112c-0.794,0.006-1.123,1.019-0.484,1.491l11.651,8.604   l-4.369,13.809c-0.24,0.757,0.622,1.383,1.268,0.922l11.783-8.422l11.783,8.422c0.646,0.462,1.508-0.165,1.268-0.922l-4.369-13.809   l11.651-8.604c0.639-0.472,0.31-1.485-0.484-1.491l-14.483-0.112l-4.582-13.74C282.188,123.26,281.122,123.26,280.871,124.013z"/>
	<path style="fill:#F5F5F5;" d="M179.492,132.427l-4.582,13.74l-14.483,0.112c-0.794,0.006-1.123,1.019-0.484,1.491l11.651,8.604   l-4.369,13.809c-0.24,0.757,0.622,1.383,1.268,0.922l11.783-8.422l11.783,8.422c0.646,0.462,1.508-0.165,1.268-0.922l-4.369-13.809   l11.651-8.604c0.639-0.472,0.31-1.485-0.485-1.491l-14.483-0.112l-4.582-13.74C180.809,131.674,179.743,131.674,179.492,132.427z"/>
	<path style="fill:#F5F5F5;" d="M131.859,149.741l-4.582,13.74l-14.483,0.112c-0.794,0.006-1.123,1.019-0.485,1.491l11.651,8.604   l-4.369,13.809c-0.24,0.757,0.622,1.383,1.268,0.922l11.783-8.422l11.783,8.422c0.646,0.462,1.508-0.165,1.268-0.922l-4.369-13.809   l11.651-8.604c0.639-0.472,0.31-1.485-0.485-1.491l-14.483-0.112l-4.582-13.74C133.176,148.987,132.11,148.987,131.859,149.741z"/>
	<path style="fill:#F5F5F5;" d="M332.647,132.427l4.582,13.74l14.483,0.112c0.794,0.006,1.123,1.019,0.484,1.491l-11.651,8.604   l4.369,13.809c0.24,0.757-0.622,1.383-1.268,0.922l-11.783-8.422l-11.783,8.422c-0.646,0.462-1.508-0.165-1.268-0.922l4.369-13.809   l-11.651-8.604c-0.639-0.472-0.31-1.485,0.484-1.491l14.483-0.112l4.582-13.74C331.33,131.674,332.396,131.674,332.647,132.427z"/>
	<path style="fill:#F5F5F5;" d="M380.28,149.741l4.582,13.74l14.483,0.112c0.794,0.006,1.123,1.019,0.484,1.491l-11.651,8.604   l4.369,13.809c0.24,0.757-0.622,1.383-1.268,0.922l-11.783-8.422l-11.783,8.422c-0.646,0.462-1.508-0.165-1.268-0.922l4.369-13.809   l-11.651-8.604c-0.639-0.472-0.31-1.485,0.484-1.491l14.483-0.112l4.582-13.74C378.963,148.987,380.029,148.987,380.28,149.741z"/>
</g>
<g>
</g>
<g>
</g>
<g>
</g>
<g>
</g>
<g>
</g>
<g>
</g>
<g>
</g>
<g>
</g>
<g>
</g>
<g>
</g>
<g>
</g>
<g>
</g>
<g>
</g>
<g>
</g>
<g>
</g>
</svg>
