<?xml version="1.0" encoding="iso-8859-1"?>
<!-- Generator: Adobe Illustrator 19.0.0, SVG Export Plug-In . SVG Version: 6.00 Build 0)  -->
<svg xmlns="http://www.w3.org/2000/svg" xmlns:xlink="http://www.w3.org/1999/xlink" version="1.1" id="Layer_1" x="0px" y="0px" viewBox="0 0 512 512" style="enable-background:new 0 0 512 512;" xml:space="preserve">
<rect y="341.33" style="fill:#73AF00;" width="512" height="170.67"/>
<rect style="fill:#41479B;" width="512" height="170.67"/>
<rect y="170.67" style="fill:#F5F5F5;" width="512" height="170.67"/>
<path style="fill:#464655;" d="M302.518,286.394l-3.133,1.595c-0.427,0.217-0.887,0.404-1.321,0.614l-27.668-34.95  c5.687-12.362,9.058-29.234,9.058-36.903c0-12.603-8.27-23.103-19.151-25.324c-0.728-1.644-2.368-2.795-4.281-2.795  c-1.914,0-3.554,1.151-4.281,2.795c-10.881,2.222-19.151,12.722-19.151,25.324c0,7.669,3.371,24.541,9.058,36.903l-27.667,34.948  c-0.432-0.209-0.889-0.395-1.313-0.611l-3.133-1.595l-11.689,22.977l3.133,1.593c15.951,8.114,34.984,12.403,55.043,12.403  c20.061,0,39.098-4.291,55.053-12.405l3.133-1.593L302.518,286.394z M274.768,216.751c0,5.7-2.117,17.684-6.04,28.668  c-0.517,1.447-1.048,2.82-1.59,4.12l-4.087-5.162v-18.253h7.03l-9.373-9.373v-20.395  C268.78,198.706,274.768,206.945,274.768,216.751z M243.316,245.419c-3.923-10.984-6.04-22.968-6.04-28.668  c0-9.806,5.988-18.045,14.059-20.395v20.395l-9.373,9.373h7.03v18.253l-4.087,5.162  C244.364,248.239,243.833,246.866,243.316,245.419z M211.802,297.442l0.957,3.937l-3.436,0.937L211.802,297.442z M207.711,306.399  l5.878-1.603l1.08,4.442C212.299,308.362,209.967,307.431,207.711,306.399z M216.625,297.443c2.675,1.058,5.458,1.991,8.316,2.823  l0.846,2.592l-7.401,1.826L216.625,297.443z M219.928,311.03l-0.712-2.929l7.664-1.891l2.376,7.283  C226.076,312.799,222.966,311.974,219.928,311.03z M230.332,301.677c2.941,0.686,5.936,1.276,8.993,1.723l1.273,2.277l-8.134,2.535  L230.332,301.677z M234.517,314.506l-0.963-2.952l8.796-2.742l3.986,7.13C242.326,315.645,238.381,315.168,234.517,314.506z   M245.082,304.092c3.61,0.342,7.265,0.53,10.939,0.53c0.783,0,1.561-0.043,2.342-0.059l0.979,1.501l-10.813,4.193L245.082,304.092z   M256.022,316.339c-1.393,0-2.769-0.059-4.15-0.103l-1.61-2.88l11.043-4.282l4.476,6.863  C262.561,316.177,259.314,316.339,256.022,316.339z M263.804,304.329c3.716-0.25,7.386-0.672,10.987-1.268l1.054,1.347l-8.559,5.259  L263.804,304.329z M271.049,315.439l-1.844-2.828l8.818-5.418l4.903,6.268C279.057,314.311,275.091,314.967,271.049,315.439z   M279.973,302.079c3.065-0.661,6.065-1.437,8.971-2.345l1.091,1.412l-6.223,5.84L279.973,302.079z M287.939,312.263l-1.953-2.497  l6.207-5.825l4.328,5.604C293.723,310.55,290.874,311.478,287.939,312.263z M293.626,298.129c1.974-0.732,3.914-1.504,5.779-2.351  l0.916,1.801l-2.994,5.342L293.626,298.129z M301.084,307.785l-1.421-1.84l2.577-4.596l2.485,4.884  C303.535,306.783,302.305,307.279,301.084,307.785z"/>
<g>
</g>
<g>
</g>
<g>
</g>
<g>
</g>
<g>
</g>
<g>
</g>
<g>
</g>
<g>
</g>
<g>
</g>
<g>
</g>
<g>
</g>
<g>
</g>
<g>
</g>
<g>
</g>
<g>
</g>
</svg>
