<?xml version="1.0" encoding="iso-8859-1"?>
<!-- Generator: Adobe Illustrator 19.0.0, SVG Export Plug-In . SVG Version: 6.00 Build 0)  -->
<svg xmlns="http://www.w3.org/2000/svg" xmlns:xlink="http://www.w3.org/1999/xlink" version="1.1" id="Layer_1" x="0px" y="0px" viewBox="0 0 512 512" style="enable-background:new 0 0 512 512;" xml:space="preserve">
<rect style="fill:#41479B;" width="512" height="256"/>
<rect y="256" style="fill:#FF4B55;" width="512" height="256"/>
<path style="fill:#FFE15A;" d="M246.214,149.65c-0.156-0.461-0.508-0.834-0.962-1.017c-0.046-0.018-0.987-0.376-2.497-0.801  c0.664-0.899,1.133-1.952,1.133-3.152c0-1.029-0.365-1.937-0.867-2.758c1.659-0.927,2.828-2.633,2.828-4.663  c0-1.609-0.738-3.015-1.857-4.008c1.341-0.986,2.27-2.498,2.27-4.286c0-1.994-1.135-3.668-2.745-4.607  c0.846-0.956,1.403-2.179,1.403-3.552c0-2.391-1.584-4.36-3.74-5.075c0.492-0.815,0.851-1.717,0.851-2.737  c0-2.938-2.361-5.313-5.284-5.387c0.122-0.45,0.279-0.889,0.279-1.378c0-2.985-2.429-5.414-5.416-5.414  c-0.504,0-0.958,0.158-1.421,0.288c0.008-0.12,0.07-0.222,0.07-0.344c0-2.985-2.429-5.414-5.414-5.414  c-1.026,0-1.931,0.363-2.75,0.86c-0.631-2.289-2.642-4.01-5.129-4.01c-1.492,0-2.844,0.607-3.824,1.586  c-0.916-1.692-2.647-2.885-4.702-2.885c-1.876,0-3.451,1.016-4.423,2.468c-0.988-1.05-2.367-1.725-3.919-1.725  c-2.005,0-3.687,1.144-4.623,2.766c-0.992-1.11-2.394-1.84-3.997-1.84c-1.982,0-3.643,1.121-4.587,2.713  c-0.921-0.725-2.031-1.227-3.292-1.227c-2.276,0-4.209,1.42-5.009,3.413c-0.975-0.943-2.291-1.536-3.75-1.536  c-2.064,0-3.803,1.202-4.716,2.906c-0.398-0.247-0.806-0.442-1.264-0.58c1.141-1.687,1.808-3.72,1.808-5.905  c0-4.242-2.528-7.884-6.143-9.564l1.518-3.036c0.235-0.469,0.235-1.025,0-1.495l-1.827-3.654c0.133-0.122,0.259-0.247,0.38-0.38  l3.658,1.827c0.235,0.117,0.489,0.174,0.745,0.174s0.511-0.061,0.745-0.178l8.898-4.449c0.567-0.282,0.923-0.86,0.923-1.49  s-0.356-1.208-0.923-1.49l-8.898-4.449c-0.469-0.235-1.021-0.235-1.49,0L164.6,65.99c-0.123-0.134-0.25-0.261-0.384-0.385  l1.827-3.654c0.235-0.469,0.235-1.025,0-1.495l-4.449-8.898c-0.565-1.13-2.42-1.13-2.985,0l-4.449,8.898  c-0.235,0.469-0.235,1.025,0,1.495l1.827,3.654c-0.133,0.122-0.259,0.247-0.38,0.38l-3.658-1.827  c-0.469-0.235-1.021-0.23-1.49,0.004l-8.898,4.449c-0.567,0.282-0.923,0.86-0.923,1.49s0.356,1.208,0.923,1.49l8.898,4.449  c0.235,0.117,0.489,0.178,0.745,0.178s0.511-0.061,0.745-0.178l3.655-1.827c0.123,0.134,0.25,0.261,0.384,0.385l-1.827,3.654  c-0.235,0.469-0.235,1.025,0,1.495l1.518,3.036c-3.615,1.68-6.143,5.322-6.143,9.564c0,2.14,0.65,4.128,1.748,5.794  c-0.661,0.126-1.261,0.348-1.813,0.691c-0.913-1.703-2.652-2.906-4.716-2.906c-1.46,0-2.776,0.594-3.75,1.536  c-0.799-1.994-2.733-3.413-5.009-3.413c-1.261,0-2.371,0.502-3.292,1.227c-0.944-1.591-2.606-2.713-4.587-2.713  c-1.602,0-3.005,0.73-3.997,1.84c-0.936-1.622-2.619-2.766-4.623-2.766c-1.552,0-2.931,0.675-3.919,1.725  c-0.972-1.452-2.547-2.468-4.423-2.468c-2.055,0-3.786,1.194-4.702,2.885c-0.98-0.979-2.333-1.586-3.824-1.586  c-2.487,0-4.498,1.721-5.129,4.01c-0.818-0.497-1.724-0.86-2.75-0.86c-2.985,0-5.414,2.429-5.414,5.414  c0,0.122,0.062,0.224,0.07,0.344c-0.463-0.129-0.917-0.288-1.421-0.288c-2.987,0-5.416,2.429-5.416,5.414  c0,0.489,0.157,0.927,0.279,1.378c-2.923,0.074-5.284,2.449-5.284,5.387c0,1.02,0.359,1.922,0.851,2.737  c-2.156,0.715-3.74,2.683-3.74,5.075c0,1.373,0.556,2.597,1.403,3.552c-1.61,0.939-2.745,2.613-2.745,4.607  c0,1.788,0.929,3.3,2.27,4.286c-1.119,0.992-1.857,2.399-1.857,4.008c0,2.03,1.17,3.736,2.828,4.663  c-0.501,0.82-0.867,1.729-0.867,2.758c0,1.264,0.503,2.377,1.232,3.299c-1.205,0.357-1.945,0.639-1.986,0.654  c-0.454,0.182-0.806,0.556-0.962,1.017c-0.156,0.465-0.1,0.973,0.15,1.395c0.133,0.217,13.249,22.245,17.592,43.955  c0.107,0.538,0.497,0.883,0.956,1.101c3.336,4.505,32.237,8.027,67.415,8.027s64.079-3.522,67.415-8.027  c0.459-0.218,0.849-0.563,0.956-1.101c4.338-21.693,17.459-43.738,17.592-43.955C246.314,150.623,246.37,150.114,246.214,149.65z"/>
<g>
	<path style="fill:#464655;" d="M246.214,149.65c-0.156-0.461-0.508-0.834-0.962-1.017c-0.046-0.018-0.987-0.376-2.497-0.801   c0.664-0.899,1.133-1.952,1.133-3.152c0-1.029-0.365-1.937-0.867-2.758c1.659-0.927,2.828-2.633,2.828-4.663   c0-1.609-0.738-3.015-1.857-4.008c1.341-0.986,2.27-2.498,2.27-4.286c0-1.994-1.135-3.668-2.745-4.607   c0.846-0.956,1.403-2.179,1.403-3.552c0-2.391-1.584-4.36-3.74-5.075c0.492-0.815,0.851-1.717,0.851-2.737   c0-2.938-2.361-5.313-5.284-5.387c0.122-0.45,0.279-0.889,0.279-1.378c0-2.985-2.429-5.414-5.416-5.414   c-0.504,0-0.958,0.158-1.421,0.288c0.008-0.12,0.07-0.222,0.07-0.344c0-2.985-2.429-5.414-5.414-5.414   c-1.026,0-1.931,0.363-2.75,0.86c-0.631-2.289-2.642-4.01-5.129-4.01c-1.492,0-2.844,0.607-3.824,1.586   c-0.916-1.692-2.647-2.885-4.702-2.885c-1.876,0-3.451,1.016-4.423,2.468c-0.988-1.05-2.367-1.725-3.919-1.725   c-2.005,0-3.687,1.144-4.623,2.766c-0.992-1.11-2.394-1.84-3.997-1.84c-1.982,0-3.643,1.121-4.587,2.713   c-0.921-0.725-2.031-1.227-3.292-1.227c-2.276,0-4.209,1.42-5.009,3.413c-0.975-0.943-2.291-1.536-3.75-1.536   c-2.064,0-3.803,1.202-4.716,2.906c-0.398-0.247-0.806-0.442-1.264-0.58c1.141-1.687,1.808-3.72,1.808-5.905   c0-4.242-2.528-7.884-6.143-9.564l1.518-3.036c0.235-0.469,0.235-1.025,0-1.495l-1.827-3.654c0.133-0.122,0.259-0.247,0.38-0.38   l3.658,1.827c0.235,0.117,0.489,0.174,0.745,0.174s0.511-0.061,0.745-0.178l8.898-4.449c0.567-0.282,0.923-0.86,0.923-1.49   s-0.356-1.208-0.923-1.49l-8.898-4.449c-0.469-0.235-1.021-0.235-1.49,0L164.6,65.99c-0.123-0.134-0.25-0.261-0.384-0.385   l1.827-3.654c0.235-0.469,0.235-1.025,0-1.495l-4.449-8.898c-0.565-1.13-2.42-1.13-2.985,0l-4.449,8.898   c-0.235,0.469-0.235,1.025,0,1.495l1.827,3.654c-0.133,0.122-0.259,0.247-0.38,0.38l-3.658-1.827   c-0.469-0.235-1.021-0.23-1.49,0.004l-8.898,4.449c-0.567,0.282-0.923,0.86-0.923,1.49s0.356,1.208,0.923,1.49l8.898,4.449   c0.235,0.117,0.489,0.178,0.745,0.178s0.511-0.061,0.745-0.178l3.655-1.827c0.123,0.134,0.25,0.261,0.384,0.385l-1.827,3.654   c-0.235,0.469-0.235,1.025,0,1.495l1.518,3.036c-3.615,1.68-6.143,5.322-6.143,9.564c0,2.14,0.65,4.128,1.748,5.794   c-0.661,0.126-1.261,0.348-1.813,0.691c-0.913-1.703-2.652-2.906-4.716-2.906c-1.46,0-2.776,0.594-3.75,1.536   c-0.799-1.994-2.733-3.413-5.009-3.413c-1.261,0-2.371,0.502-3.292,1.227c-0.944-1.591-2.606-2.713-4.587-2.713   c-1.602,0-3.005,0.73-3.997,1.84c-0.936-1.622-2.619-2.766-4.623-2.766c-1.552,0-2.931,0.675-3.919,1.725   c-0.972-1.452-2.547-2.468-4.423-2.468c-2.055,0-3.786,1.194-4.702,2.885c-0.98-0.979-2.333-1.586-3.824-1.586   c-2.487,0-4.498,1.721-5.129,4.01c-0.818-0.497-1.724-0.86-2.75-0.86c-2.985,0-5.414,2.429-5.414,5.414   c0,0.122,0.062,0.224,0.07,0.344c-0.463-0.129-0.917-0.288-1.421-0.288c-2.987,0-5.416,2.429-5.416,5.414   c0,0.489,0.157,0.927,0.279,1.378c-2.923,0.074-5.284,2.449-5.284,5.387c0,1.02,0.359,1.922,0.851,2.737   c-2.156,0.715-3.74,2.683-3.74,5.075c0,1.373,0.556,2.597,1.403,3.552c-1.61,0.939-2.745,2.613-2.745,4.607   c0,1.788,0.929,3.3,2.27,4.286c-1.119,0.992-1.857,2.399-1.857,4.008c0,2.03,1.17,3.736,2.828,4.663   c-0.501,0.82-0.867,1.729-0.867,2.758c0,1.264,0.503,2.377,1.232,3.299c-1.205,0.357-1.945,0.639-1.986,0.654   c-0.454,0.182-0.806,0.556-0.962,1.017c-0.156,0.465-0.1,0.973,0.15,1.395c0.133,0.217,13.249,22.245,17.592,43.955   c0.107,0.538,0.497,0.883,0.956,1.101c3.336,4.505,32.237,8.027,67.415,8.027s64.079-3.522,67.415-8.027   c0.459-0.218,0.849-0.563,0.956-1.101c4.338-21.693,17.459-43.738,17.592-43.955C246.314,150.623,246.37,150.114,246.214,149.65z    M199.05,138.903v-26.109c2.117-0.183,4.176-0.241,6.154-0.172v27.124C203.364,138.855,201.284,138.596,199.05,138.903z    M179.848,103.341c0.046,0.045,0.111,0.064,0.159,0.107c-0.071,0.015-0.141,0.03-0.213,0.046   C179.816,103.444,179.827,103.392,179.848,103.341z M238.474,142.602c1.145,0,2.077,0.93,2.077,2.077s-0.932,2.077-2.077,2.077   s-2.077-0.93-2.077-2.077S237.329,142.602,238.474,142.602z M240.433,139.335c-1.145,0-2.077-0.93-2.077-2.077   s0.932-2.077,2.077-2.077c1.147,0,2.079,0.93,2.079,2.077C242.512,138.405,241.58,139.335,240.433,139.335z M238.771,128.964   c0-1.147,0.932-2.077,2.077-2.077s2.077,0.93,2.077,2.077s-0.932,2.077-2.077,2.077S238.771,130.111,238.771,128.964z    M176.731,149.649c-1.992-7.576-4.579-18.981-5.67-30.382c1.148-0.401,3.119-1.06,5.67-1.832V149.649z M148.921,119.403   c-1.174,12.132-4.04,24.285-6.059,31.766v-33.737C145.724,118.299,147.87,119.03,148.921,119.403z M162.178,105.694   c0,1.147-0.932,2.077-2.077,2.077s-2.077-0.93-2.077-2.077s0.932-2.077,2.077-2.077S162.178,104.547,162.178,105.694z    M139.747,103.351l-0.013-0.003c0,0,0.008-0.004,0.011-0.008C139.747,103.344,139.746,103.348,139.747,103.351z M78.745,126.888   c1.145,0,2.077,0.93,2.077,2.077c0,1.147-0.932,2.077-2.077,2.077c-1.145,0-2.077-0.93-2.077-2.077   C76.668,127.817,77.6,126.888,78.745,126.888z M81.236,137.258c0,1.147-0.932,2.077-2.077,2.077c-1.147,0-2.079-0.93-2.079-2.077   s0.932-2.077,2.079-2.077C80.304,135.182,81.236,136.111,81.236,137.258z M81.119,142.602c1.145,0,2.077,0.93,2.077,2.077   s-0.932,2.077-2.077,2.077c-1.145,0-2.077-0.93-2.077-2.077S79.974,142.602,81.119,142.602z M89.687,114.492   c3.265-5.283,9.641-11.579,21.476-11.579c11.556,0,27.859,3.53,38.301,6.127c0.005,2.265-0.099,4.585-0.259,6.92   c-7.125-2.481-35.46-11.549-47.512-3.302c-13.638,9.354-9.329,27.196-6.781,34.585c-2.169-0.587-4.363-0.854-6.464-0.896   C83.522,136.463,84.017,123.668,89.687,114.492z M99.085,148.862c-1.173-2.728-8.674-21.592,2.476-31.792v33.284   C100.759,149.779,99.929,149.295,99.085,148.862z M104.898,114.718c1.762-0.913,3.839-1.505,6.154-1.82v29.689   c-3.347,3.393-4.835,8.06-5.49,11.572c-0.212-0.266-0.446-0.48-0.665-0.73L104.898,114.718L104.898,114.718z M114.389,112.619   c1.979-0.069,4.037-0.011,6.154,0.172v26.083c-0.364-0.032-0.745-0.125-1.099-0.125c-1.64,0-3.178,0.343-4.577,1.047   c-0.172,0.086-0.311,0.202-0.478,0.294V112.619z M123.88,113.148c2.068,0.275,4.131,0.634,6.154,1.039v28.559   c-2.118-1.46-4.178-2.516-6.154-3.162V113.148z M133.371,114.904c2.187,0.503,4.251,1.032,6.154,1.562v35.312   c-1.839-2.327-3.959-4.53-6.154-6.445V114.904z M152.784,109.883c2.509,0.651,4.487,1.194,5.649,1.52V139.7   c-4.522,0.457-7.977,2.766-10.613,5.605C150.17,135.522,152.697,122.173,152.784,109.883z M161.77,111.403   c1.131-0.318,3.029-0.839,5.441-1.467c0.093,12.165,2.572,25.354,4.899,35.1c-2.603-2.71-5.967-4.895-10.341-5.336v-28.297H161.77z    M180.068,116.469c1.903-0.53,3.967-1.059,6.154-1.562v30.689c0,0.078,0.034,0.146,0.045,0.221   c-2.247,2.029-4.374,4.358-6.199,6.772V116.469z M189.559,114.19c2.023-0.405,4.086-0.764,6.154-1.039v26.589   c-1.979,0.727-4.045,1.879-6.154,3.403V114.19z M208.541,112.9c2.315,0.314,4.393,0.905,6.154,1.818v39.08   c0,0.087,0.037,0.163,0.05,0.246c-0.033,0.041-0.071,0.073-0.104,0.114c-0.692-3.708-2.34-8.685-6.1-12.108V112.9z M218.032,117.07   c11.945,10.936,2.43,31.909,2.327,32.132c-0.011,0.023-0.007,0.047-0.017,0.069c-0.792,0.452-1.56,0.979-2.31,1.563V117.07z    M217.899,112.659c-11.813-8.09-39.333,0.489-47.119,3.165c-0.153-2.271-0.253-4.527-0.249-6.731   c10.432-2.602,26.876-6.179,38.509-6.179c11.835,0,18.211,6.295,21.476,11.579c5.67,9.176,6.165,21.971,1.238,31.855   c-2.321,0.047-4.754,0.373-7.144,1.099C227.148,140.184,231.661,122.097,217.899,112.659z M239.503,122.882   c-1.145,0-2.077-0.93-2.077-2.077s0.932-2.077,2.077-2.077c1.147,0,2.079,0.93,2.079,2.077S240.65,122.882,239.503,122.882z    M238.693,112.993c0,1.147-0.932,2.081-2.079,2.081c-1.145,0-2.077-0.934-2.077-2.081s0.932-2.077,2.077-2.077   C237.761,110.916,238.693,111.846,238.693,112.993z M233.688,106.229c0,1.147-0.932,2.077-2.079,2.077   c-1.145,0-2.077-0.93-2.077-2.077s0.932-2.077,2.077-2.077C232.756,104.152,233.688,105.081,233.688,106.229z M224.844,98.682   c1.145,0,2.077,0.93,2.077,2.077s-0.932,2.081-2.077,2.081c-1.147,0-2.079-0.934-2.079-2.081   C222.765,99.611,223.697,98.682,224.844,98.682z M216.965,95.532c1.145,0,2.077,0.93,2.077,2.077s-0.932,2.077-2.077,2.077   s-2.077-0.93-2.077-2.077S215.82,95.532,216.965,95.532z M208.439,94.233c1.145,0,2.077,0.93,2.077,2.077s-0.932,2.081-2.077,2.081   c-1.147,0-2.079-0.934-2.079-2.081S207.292,94.233,208.439,94.233z M200.097,94.976c1.145,0,2.077,0.93,2.077,2.077   s-0.932,2.077-2.077,2.077c-1.147,0-2.079-0.93-2.079-2.077S198.95,94.976,200.097,94.976z M191.477,95.901   c1.145,0,2.077,0.93,2.077,2.077s-0.932,2.081-2.077,2.081c-1.147,0-2.079-0.934-2.079-2.081   C189.398,96.831,190.33,95.901,191.477,95.901z M183.598,97.387c1.145,0,2.077,0.93,2.077,2.077s-0.932,2.077-2.077,2.077   c-1.145,0-2.077-0.93-2.077-2.077C181.521,98.317,182.453,97.387,183.598,97.387z M174.839,99.264c1.145,0,2.077,0.93,2.077,2.077   s-0.932,2.077-2.077,2.077c-1.145,0-2.077-0.93-2.077-2.077C172.762,100.194,173.694,99.264,174.839,99.264z M167.331,105.433   c-1.145,0-2.077-0.93-2.077-2.077s0.932-2.077,2.077-2.077s2.077,0.93,2.077,2.077S168.476,105.433,167.331,105.433z    M157.321,70.102c0-1.534,1.247-2.781,2.781-2.781c1.534,0,2.781,1.247,2.781,2.781s-1.247,2.781-2.781,2.781   C158.568,72.883,157.321,71.636,157.321,70.102z M169,67.517l5.168,2.585L169,72.687l-2.895-1.448   c0.07-0.369,0.115-0.748,0.115-1.137c0-0.39-0.045-0.768-0.115-1.138L169,67.517z M157.519,61.204l2.583-5.166l2.583,5.166   l-1.448,2.895c-0.369-0.07-0.746-0.115-1.135-0.115s-0.766,0.045-1.135,0.115L157.519,61.204z M151.204,72.687l-5.168-2.585   l5.168-2.585l2.895,1.448c-0.07,0.369-0.115,0.748-0.115,1.137c0,0.39,0.045,0.768,0.115,1.138L151.204,72.687z M157.519,79   l1.448-2.895c0.369,0.07,0.746,0.115,1.135,0.115s0.766-0.045,1.135-0.115L162.685,79l-1.448,2.895   c-0.378-0.041-0.746-0.115-1.135-0.115s-0.757,0.074-1.135,0.115L157.519,79z M160.102,85.118c3.986,0,7.23,3.241,7.23,7.23   s-3.243,7.23-7.23,7.23c-3.986,0-7.23-3.241-7.23-7.23S156.115,85.118,160.102,85.118z M152.262,101.28   c1.145,0,2.077,0.93,2.077,2.077s-0.932,2.077-2.077,2.077c-1.145,0-2.077-0.93-2.077-2.077S151.117,101.28,152.262,101.28z    M144.754,99.264c1.145,0,2.077,0.93,2.077,2.077s-0.932,2.077-2.077,2.077s-2.077-0.93-2.077-2.077S143.609,99.264,144.754,99.264   z M135.995,97.387c1.145,0,2.077,0.93,2.077,2.077s-0.932,2.077-2.077,2.077c-1.145,0-2.077-0.93-2.077-2.077   S134.85,97.387,135.995,97.387z M128.116,95.901c1.147,0,2.079,0.93,2.079,2.077s-0.932,2.081-2.079,2.081   c-1.145,0-2.077-0.934-2.077-2.081C126.039,96.831,126.971,95.901,128.116,95.901z M119.496,94.976c1.147,0,2.079,0.93,2.079,2.077   s-0.932,2.077-2.079,2.077c-1.145,0-2.077-0.93-2.077-2.077S118.351,94.976,119.496,94.976z M111.154,94.233   c1.147,0,2.079,0.93,2.079,2.077s-0.932,2.081-2.079,2.081c-1.145,0-2.077-0.934-2.077-2.081   C109.077,95.163,110.009,94.233,111.154,94.233z M102.628,95.532c1.145,0,2.077,0.93,2.077,2.077s-0.932,2.077-2.077,2.077   c-1.145,0-2.077-0.93-2.077-2.077C100.551,96.462,101.483,95.532,102.628,95.532z M94.748,98.682c1.147,0,2.079,0.93,2.079,2.077   s-0.932,2.081-2.079,2.081c-1.145,0-2.077-0.934-2.077-2.081C92.672,99.611,93.604,98.682,94.748,98.682z M87.984,104.152   c1.145,0,2.077,0.93,2.077,2.077s-0.932,2.077-2.077,2.077c-1.147,0-2.079-0.93-2.079-2.077S86.837,104.152,87.984,104.152z    M82.979,110.916c1.145,0,2.077,0.93,2.077,2.077s-0.932,2.081-2.077,2.081c-1.147,0-2.079-0.934-2.079-2.081   S81.832,110.916,82.979,110.916z M80.089,118.728c1.145,0,2.077,0.93,2.077,2.077s-0.932,2.077-2.077,2.077   c-1.147,0-2.079-0.93-2.079-2.077S78.942,118.728,80.089,118.728z M225.509,192.944c-7.694-3.805-34.02-6.612-65.408-6.612   s-57.714,2.807-65.408,6.612c-3.978-18.421-13.493-36.242-16.664-41.843c5.283-1.621,20.409-4.836,27.191,8.729   c0.348,0.691,1.127,1.056,1.875,0.878c0.754-0.178,1.286-0.852,1.286-1.625c0-0.122,0.091-12.361,7.975-16.306   c7.807-3.884,20.438,9.011,24.456,17.053c0,0,0.004,0.003,0.005,0.005c0.133,0.262,0.351,0.464,0.606,0.627   c0.053,0.033,0.102,0.062,0.158,0.089c0.072,0.036,0.129,0.092,0.208,0.117c0.172,0.056,0.345,0.083,0.515,0.083   c0.032,0,0.056-0.026,0.088-0.028c0.034,0,0.059,0.021,0.093,0.02c0.157-0.018,0.272-0.124,0.413-0.182   c0.149-0.06,0.3-0.088,0.427-0.188c0.155-0.122,0.237-0.296,0.341-0.466c0.069-0.112,0.185-0.18,0.227-0.311   c0.049-0.152,0.256-0.801,0.563-1.811c1.458-4.215,6.078-14.829,15.645-14.829c8.118,0,12.675,7.647,14.761,12.54   c0.681,2.351,1.16,3.856,1.239,4.101c0.23,0.708,0.884,1.156,1.588,1.156c0.169,0,0.343-0.026,0.515-0.083   c0.031-0.01,0.051-0.034,0.081-0.046c0.464-0.119,0.884-0.351,1.105-0.793c4.021-8.046,16.662-20.911,24.456-17.053   c0.524,0.262,1.008,0.566,1.465,0.896c0.452,0.382,0.758,0.664,1.274,1.079c5.137,5.015,5.236,14.225,5.236,14.331   c0.002,0.773,0.534,1.447,1.286,1.625c0.758,0.174,1.529-0.187,1.875-0.878c6.769-13.534,21.897-10.34,27.189-8.724   C239,156.711,229.488,174.527,225.509,192.944z"/>
	<path style="fill:#464655;" d="M166.684,156.267c-0.216,0.179-0.427,0.366-0.635,0.561c-1.618,1.523-4.279,0.326-4.279-1.896   v-0.299c0-0.921-0.747-1.668-1.668-1.668s-1.668,0.747-1.668,1.668v0.299c0,2.222-2.661,3.419-4.279,1.896   c-0.207-0.195-0.419-0.382-0.635-0.561c-0.708-0.582-1.762-0.495-2.348,0.222c-0.589,0.708-0.491,1.76,0.219,2.35   c4.558,3.776,7.043,12.704,7.043,16.232v1.807c0,0.921,0.747,1.668,1.668,1.668s1.668-0.747,1.668-1.668v-1.807   c0-3.528,2.485-12.456,7.043-16.232c0.71-0.591,0.808-1.642,0.219-2.35C168.443,155.776,167.392,155.684,166.684,156.267z"/>
	<path style="fill:#464655;" d="M204.511,163.275c-0.196-0.015-0.391-0.021-0.587-0.015c-1.562,0.108-3.089-2.111-2.331-3.832   c0.032-0.073,0.064-0.146,0.096-0.219c0.292-0.666,0.069-1.754-0.487-2.461c-0.556-0.705-1.276-0.669-1.62,0.114   c-0.037,0.083-0.073,0.167-0.11,0.251c-0.787,1.788-3.055,1.254-3.413-1.375c-0.045-0.339-0.091-0.682-0.144-1.023   c-0.175-1.111-0.815-1.883-1.497-1.574c-0.678,0.297-1.135,1.543-0.972,2.672c0.964,7.459-0.141,15.324-1.406,18.184   c-0.222,0.505-0.444,1.01-0.667,1.515c-0.343,0.78,0.095,1.382,0.991,1.316c0.896-0.068,1.87-0.682,2.163-1.347   c0.194-0.441,0.388-0.881,0.582-1.322c1.196-2.729,6.214-8.779,10.323-8.465c0.661-0.004,0.943-0.434,0.679-1.08   C205.847,163.974,205.15,163.328,204.511,163.275z"/>
	<path style="fill:#464655;" d="M229.264,168.466c-0.163,0-0.325,0.008-0.489,0.028c-1.311,0.219-2.423-1.818-1.665-3.539   c0.032-0.073,0.064-0.146,0.096-0.219c0.292-0.666,0.185-1.703-0.227-2.346c-0.412-0.642-1.016-0.554-1.36,0.229   c-0.037,0.083-0.073,0.167-0.11,0.251c-0.787,1.789-2.64,1.437-2.747-1.082c-0.012-0.324-0.026-0.653-0.045-0.979   c-0.064-1.063-0.543-1.763-1.134-1.414c-0.587,0.337-1.06,1.577-1.006,2.657c0.26,7.15-1.236,14.843-2.499,17.703   c-0.222,0.505-0.445,1.01-0.667,1.515c-0.343,0.78-0.022,1.331,0.73,1.202c0.753-0.131,1.61-0.797,1.903-1.462   c0.194-0.441,0.388-0.881,0.582-1.322c1.197-2.729,5.825-8.951,9.229-8.946c0.552-0.052,0.818-0.489,0.645-1.095   C230.327,169.045,229.792,168.471,229.264,168.466z"/>
	<path style="fill:#464655;" d="M128.137,173.999c-1.264-2.86-2.37-10.725-1.406-18.184c0.163-1.129-0.294-2.375-0.972-2.672   c-0.682-0.309-1.323,0.463-1.497,1.574c-0.052,0.341-0.099,0.684-0.144,1.023c-0.358,2.629-2.626,3.163-3.413,1.375   c-0.037-0.084-0.074-0.168-0.11-0.251c-0.344-0.783-1.064-0.82-1.621-0.114c-0.556,0.707-0.779,1.795-0.487,2.461   c0.032,0.073,0.064,0.146,0.096,0.219c0.758,1.721-0.769,3.94-2.331,3.832c-0.197-0.006-0.391,0-0.587,0.015   c-0.638,0.053-1.335,0.698-1.599,1.341c-0.263,0.646,0.018,1.076,0.679,1.08c4.109-0.314,9.126,5.735,10.323,8.465   c0.194,0.441,0.388,0.881,0.582,1.322c0.293,0.665,1.266,1.28,2.163,1.347c0.896,0.065,1.334-0.537,0.991-1.316   C128.581,175.009,128.359,174.504,128.137,173.999z"/>
	<path style="fill:#464655;" d="M102.1,179.755c-1.263-2.86-2.759-10.553-2.499-17.703c0.054-1.08-0.419-2.32-1.006-2.657   c-0.591-0.349-1.07,0.351-1.134,1.414c-0.019,0.326-0.033,0.655-0.046,0.979c-0.107,2.518-1.959,2.87-2.747,1.082   c-0.037-0.084-0.074-0.167-0.11-0.251c-0.344-0.783-0.948-0.871-1.36-0.229c-0.412,0.643-0.519,1.681-0.227,2.346   c0.032,0.073,0.064,0.146,0.096,0.219c0.758,1.721-0.354,3.758-1.665,3.539c-0.165-0.02-0.326-0.029-0.489-0.028   c-0.529,0.005-1.063,0.579-1.237,1.181c-0.172,0.606,0.094,1.043,0.646,1.095c3.405-0.005,8.032,6.217,9.229,8.946   c0.194,0.441,0.388,0.881,0.582,1.322c0.293,0.665,1.15,1.331,1.903,1.462c0.752,0.129,1.074-0.423,0.731-1.202   C102.544,180.765,102.322,180.26,102.1,179.755z"/>
</g>
<g>
</g>
<g>
</g>
<g>
</g>
<g>
</g>
<g>
</g>
<g>
</g>
<g>
</g>
<g>
</g>
<g>
</g>
<g>
</g>
<g>
</g>
<g>
</g>
<g>
</g>
<g>
</g>
<g>
</g>
</svg>
