<?xml version="1.0" encoding="iso-8859-1"?>
<!-- Generator: Adobe Illustrator 19.0.0, SVG Export Plug-In . SVG Version: 6.00 Build 0)  -->
<svg xmlns="http://www.w3.org/2000/svg" xmlns:xlink="http://www.w3.org/1999/xlink" version="1.1" id="Layer_1" x="0px" y="0px" viewBox="0 0 512 512" style="enable-background:new 0 0 512 512;" xml:space="preserve">
<rect style="fill:#FF4B55;" width="512" height="512"/>
<path style="fill:#73AF00;" d="M404.211,107.789V404.21H107.789V107.789H404.211"/>
<path style="fill:#F5F5F5;" d="M229.102,256.04c0-51.016,34.75-93.742,81.791-106.117c1.566-0.412,1.453-2.677-0.153-2.884  c-4.268-0.549-8.608-0.864-13.025-0.864c-60.725,0-109.883,49.15-109.883,109.865c0,60.452,49.158,109.736,109.883,109.736  c4.423,0,8.768-0.318,13.041-0.869c1.605-0.207,1.717-2.471,0.153-2.883C263.86,349.629,229.102,306.842,229.102,256.04z"/>
<g>
</g>
<g>
</g>
<g>
</g>
<g>
</g>
<g>
</g>
<g>
</g>
<g>
</g>
<g>
</g>
<g>
</g>
<g>
</g>
<g>
</g>
<g>
</g>
<g>
</g>
<g>
</g>
<g>
</g>
</svg>
