<?xml version="1.0" encoding="iso-8859-1"?>
<!-- Generator: Adobe Illustrator 19.0.0, SVG Export Plug-In . SVG Version: 6.00 Build 0)  -->
<svg xmlns="http://www.w3.org/2000/svg" xmlns:xlink="http://www.w3.org/1999/xlink" version="1.1" id="Layer_1" x="0px" y="0px" viewBox="0 0 512 512" style="enable-background:new 0 0 512 512;" xml:space="preserve">
<rect style="fill:#41479B;" width="512" height="512"/>
<polygon style="fill:#F5F5F5;" points="0,512 512,188.632 512,94.316 0,498.526 "/>
<polygon style="fill:#FF9B55;" points="512,0 0,485.053 0,498.526 512,94.316 "/>
<polygon style="fill:#F5F5F5;" points="176.42,146.853 233.552,139.719 176.42,132.584 205.375,114.825 169.349,123.634   191.274,93.721 161.361,115.646 170.17,79.619 152.411,108.575 145.276,51.443 138.141,108.575 120.382,79.619 129.191,115.646   99.278,93.721 121.203,123.634 85.176,114.825 114.132,132.584 57,139.719 114.131,146.853 85.176,164.613 121.203,155.804   99.278,185.717 129.191,163.792 120.382,199.818 138.141,170.863 145.276,227.995 152.411,170.863 170.17,199.818 161.361,163.792   191.274,185.717 169.349,155.804 205.375,164.613 "/>
<g>
</g>
<g>
</g>
<g>
</g>
<g>
</g>
<g>
</g>
<g>
</g>
<g>
</g>
<g>
</g>
<g>
</g>
<g>
</g>
<g>
</g>
<g>
</g>
<g>
</g>
<g>
</g>
<g>
</g>
</svg>
