<?xml version="1.0" encoding="iso-8859-1"?>
<!-- Generator: Adobe Illustrator 19.0.0, SVG Export Plug-In . SVG Version: 6.00 Build 0)  -->
<svg xmlns="http://www.w3.org/2000/svg" xmlns:xlink="http://www.w3.org/1999/xlink" version="1.1" id="Layer_1" x="0px" y="0px" viewBox="0 0 512 512" style="enable-background:new 0 0 512 512;" xml:space="preserve">
<rect style="fill:#41479B;" width="512" height="512"/>
<g>
	<polygon style="fill:#F5F5F5;" points="512,238.345 273.655,238.345 273.655,0 238.345,0 238.345,238.345 0,238.345 0,273.655    238.345,273.655 238.345,512 273.655,512 273.655,273.655 512,273.655  "/>
	<path style="fill:#F5F5F5;" d="M172.411,161.284c-0.253-1.502-0.823-3.281-1.543-4.426c-1.431-1.979-3.087-3.364-4.691-4.225   c-12.639-5.807-23.22-4.667-33.318-4.709c-9.973,0.257-19.302,1.977-26.876,3.635c-2.056,0.414-3.837,0.723-5.742,1.081   c0.942-1.947,4.395-4.381,9.045-5.857c11.335-3.872,24.276-5.426,36.994-7.906c3.212-0.629,6.468-1.366,9.802-2.314   c1.796-0.615,3.306-1.095,5.42-2.076c1.357-0.767,2.691-1.733,3.834-2.763c1.216-1.094,1.124-1.4,1.749-2.138   c2.887-5.498,0.154-9.411-2.138-11.455c-2.209-1.813-4.07-2.522-5.841-3.25c-3.438-1.206-6.623-1.962-9.697-2.603   c-5.923-1.185-11.747-2.351-17.446-3.491c-2.708-0.627-5.327-1.323-7.625-2.167c-2.03-0.541-4.896-2.545-4.471-2   c-5.239-0.453,7.174-6.295,16.126-9.559c2.379-1.05,4.744-2.11,7.167-3.606c2.377-1.571,4.827-2.905,7.468-7.304   c0.519-0.912,0.496-1.135,0.769-1.733l0.302-0.759c0.656-2.339,0.294-1.708,0.447-2.723c0.309-2.454-0.654-5.076-2.178-7.262   c-3.111-3.362-6.204-4.325-8.503-4.968c-9.504-2.252-16.342-1.636-22.283-1.613c-11.266,0.529-17.705,0.832-17.705,0.832   l-0.435,0.02c-0.013,0.001-0.026,0.001-0.038,0.002c-3.601,0.211-6.348,3.3-6.138,6.9c0.02,0.352,0.185,0.646,0.258,0.98   c-5.102,1.405-13.176,2.844-21.162,0.961c-1.216-0.281-2.339,0.451-2.62,1.616c-0.281,1.174,0.451,2.347,1.616,2.62   c3.138,0.74,6.251,1.029,9.22,1.029c6.305,0,11.691-1.283,15.369-2.41c1.186,0.88,2.628,1.435,4.219,1.343   c0,0,6.506-0.381,17.893-1.047c5.331-0.192,12.495-0.473,18.406,0.915c0.489,0.077,0.752,0.229,1.075,0.366   c0.047-0.524-0.955,0.953-2.516,1.712c-1.517,0.979-3.491,1.917-5.545,2.849c-4.199,1.903-9.006,3.539-14.333,6.405   c-2.572,1.518-5.753,3.06-8.394,7.571c-1.234,2.09-1.821,5.469-1.172,7.851l0.192,0.971l0.11,0.481l0.058,0.238   c-0.409-0.848,0.622,1.434,0.541,1.228l0.533,0.888c0.473,0.676,0.4,0.956,1.535,2.136c0.911,0.987,1.94,1.93,3.001,2.755   c0.93,0.64,1.624,0.942,2.461,1.416c1.649,0.972,3.146,1.422,4.709,2.035c3.08,1.084,6.079,1.822,9.074,2.483   c5.781,1.088,11.688,2.2,17.695,3.33c2.52,0.487,4.877,1.101,7.055,1.772c-2.791,1.007-6.697,2.02-10.066,2.67   c-12.255,2.587-25.251,4.151-38.468,8.792c-3.309,1.259-6.697,2.764-10.02,5.308c-3.13,2.371-6.417,7.1-5.997,12.294   c-1.122,0.156-2.409,0.386-3.445,0.501c-11.212,1.484-15.924-0.49-15.621-0.548c-1.464-0.864-3.351-0.38-4.215,1.084   c-0.865,1.463-0.38,3.351,1.083,4.215c0,0,1.922,1.306,5.353,2.057c3.414,0.773,8.217,1.126,14.066,0.666   c1.611-0.111,3.498-0.351,5.27-0.539c1.225,1.766,2.651,3.715,3.981,4.658c3.088,2.591,6.36,4.248,9.62,5.7   c13.123,5.075,26.239,6.142,39.027,5.639c6.42-0.483,12.739-1.231,19.227-4.126c3.025-1.411,7.177-3.633,8.459-10.061   C172.395,162.834,172.536,162.459,172.411,161.284z M162.972,163.309c-0.167-0.95-0.69,1.205-3.141,1.799   c-4.217,1.853-9.973,2.701-15.631,2.999c-11.41,0.375-23.87-0.957-34.554-5.29c-1.68-0.776-3.049-1.753-4.49-2.687   c0.792-0.121,1.479-0.205,2.291-0.333c7.94-1.264,16.214-2.755,25.72-2.911c9.053-0.166,20.581-0.04,28.236,3.767   c0.89,0.478,1.278,0.978,1.572,1.279c0,0-0.254-0.304,0.029-0.499C163.13,161.626,162.973,162.711,162.972,163.309z"/>
	<path style="fill:#F5F5F5;" d="M446.066,161.284c-0.253-1.502-0.823-3.281-1.543-4.426c-1.431-1.979-3.087-3.364-4.691-4.225   c-12.639-5.807-23.22-4.667-33.318-4.709c-9.973,0.257-19.302,1.977-26.876,3.635c-2.056,0.414-3.837,0.723-5.742,1.081   c0.942-1.947,4.395-4.381,9.045-5.857c11.335-3.872,24.276-5.426,36.994-7.906c3.212-0.629,6.468-1.366,9.802-2.314   c1.796-0.615,3.306-1.095,5.42-2.076c1.357-0.767,2.691-1.733,3.834-2.763c1.216-1.094,1.124-1.4,1.749-2.138   c2.887-5.498,0.154-9.411-2.138-11.455c-2.209-1.813-4.07-2.522-5.841-3.25c-3.438-1.206-6.623-1.962-9.697-2.603   c-5.923-1.185-11.747-2.351-17.446-3.491c-2.708-0.627-5.327-1.323-7.625-2.167c-2.03-0.541-4.896-2.545-4.47-2   c-5.239-0.453,7.174-6.295,16.126-9.559c2.379-1.05,4.744-2.11,7.167-3.606c2.377-1.571,4.827-2.905,7.468-7.304   c0.519-0.912,0.496-1.135,0.769-1.733l0.302-0.759c0.656-2.339,0.294-1.708,0.447-2.723c0.309-2.454-0.654-5.076-2.178-7.262   c-3.111-3.362-6.204-4.325-8.503-4.968c-9.504-2.252-16.342-1.636-22.283-1.613c-11.266,0.529-17.704,0.832-17.704,0.832   l-0.435,0.02c-0.013,0.001-0.026,0.001-0.038,0.002c-3.601,0.211-6.348,3.3-6.138,6.9c0.02,0.352,0.185,0.646,0.258,0.98   c-5.102,1.405-13.176,2.844-21.162,0.961c-1.216-0.281-2.339,0.451-2.62,1.616c-0.281,1.174,0.451,2.347,1.616,2.62   c3.138,0.74,6.251,1.029,9.22,1.029c6.306,0,11.691-1.283,15.369-2.41c1.186,0.88,2.628,1.435,4.219,1.343   c0,0,6.506-0.381,17.893-1.047c5.331-0.192,12.495-0.473,18.406,0.915c0.489,0.077,0.752,0.229,1.075,0.366   c0.047-0.524-0.955,0.953-2.516,1.712c-1.517,0.979-3.491,1.917-5.545,2.849c-4.199,1.903-9.006,3.539-14.333,6.405   c-2.572,1.518-5.753,3.06-8.394,7.571c-1.234,2.09-1.821,5.469-1.172,7.851l0.192,0.971l0.11,0.481l0.058,0.238   c-0.409-0.848,0.622,1.434,0.541,1.228l0.533,0.888c0.473,0.676,0.4,0.956,1.535,2.136c0.911,0.987,1.94,1.93,3.001,2.755   c0.93,0.64,1.624,0.942,2.461,1.416c1.649,0.972,3.146,1.422,4.709,2.035c3.08,1.084,6.079,1.822,9.074,2.483   c5.781,1.088,11.688,2.2,17.695,3.33c2.52,0.487,4.877,1.101,7.055,1.772c-2.791,1.007-6.697,2.02-10.066,2.67   c-12.255,2.587-25.251,4.151-38.468,8.792c-3.308,1.259-6.697,2.764-10.02,5.308c-3.13,2.371-6.417,7.1-5.997,12.294   c-1.122,0.156-2.409,0.386-3.445,0.501c-11.212,1.484-15.924-0.49-15.621-0.548c-1.464-0.864-3.351-0.38-4.215,1.084   c-0.865,1.463-0.38,3.351,1.083,4.215c0,0,1.922,1.306,5.353,2.057c3.414,0.773,8.217,1.126,14.066,0.666   c1.611-0.111,3.498-0.351,5.27-0.539c1.225,1.766,2.651,3.715,3.981,4.658c3.088,2.591,6.36,4.248,9.62,5.7   c13.123,5.075,26.239,6.142,39.027,5.639c6.42-0.483,12.739-1.231,19.227-4.126c3.025-1.411,7.177-3.633,8.459-10.061   C446.05,162.834,446.191,162.459,446.066,161.284z M436.627,163.309c-0.167-0.95-0.69,1.205-3.141,1.799   c-4.217,1.853-9.973,2.701-15.631,2.999c-11.41,0.375-23.87-0.957-34.554-5.29c-1.68-0.776-3.049-1.753-4.49-2.687   c0.792-0.121,1.479-0.205,2.291-0.333c7.94-1.264,16.214-2.755,25.72-2.911c9.053-0.166,20.581-0.04,28.236,3.767   c0.89,0.478,1.278,0.978,1.572,1.279c0,0-0.254-0.304,0.029-0.499C436.786,161.626,436.628,162.711,436.627,163.309z"/>
	<path style="fill:#F5F5F5;" d="M172.411,430.333c-0.253-1.502-0.823-3.281-1.543-4.426c-1.431-1.979-3.087-3.364-4.691-4.225   c-12.639-5.807-23.22-4.667-33.318-4.709c-9.973,0.257-19.302,1.977-26.876,3.635c-2.056,0.414-3.837,0.723-5.742,1.081   c0.942-1.947,4.395-4.381,9.045-5.857c11.335-3.872,24.276-5.426,36.994-7.906c3.212-0.629,6.468-1.366,9.802-2.314   c1.796-0.615,3.306-1.095,5.42-2.076c1.357-0.767,2.691-1.733,3.834-2.763c1.216-1.094,1.124-1.4,1.749-2.138   c2.887-5.497,0.154-9.411-2.138-11.455c-2.209-1.813-4.07-2.522-5.841-3.25c-3.438-1.206-6.623-1.961-9.697-2.603   c-5.923-1.185-11.747-2.351-17.446-3.491c-2.708-0.627-5.327-1.323-7.625-2.167c-2.03-0.541-4.896-2.545-4.471-2   c-5.239-0.453,7.174-6.295,16.126-9.559c2.379-1.05,4.744-2.11,7.167-3.606c2.377-1.571,4.827-2.905,7.468-7.304   c0.519-0.912,0.496-1.135,0.769-1.733l0.302-0.759c0.656-2.339,0.294-1.708,0.447-2.723c0.309-2.454-0.654-5.077-2.178-7.262   c-3.111-3.362-6.204-4.325-8.503-4.968c-9.504-2.252-16.342-1.636-22.283-1.613c-11.266,0.529-17.705,0.832-17.705,0.832   l-0.435,0.02c-0.013,0.001-0.026,0.001-0.038,0.002c-3.601,0.211-6.348,3.3-6.138,6.9c0.02,0.352,0.185,0.646,0.258,0.98   c-5.102,1.405-13.176,2.844-21.162,0.961c-1.216-0.281-2.339,0.451-2.62,1.616c-0.281,1.174,0.451,2.347,1.616,2.62   c3.138,0.74,6.251,1.029,9.22,1.029c6.305,0,11.691-1.283,15.369-2.41c1.186,0.88,2.628,1.435,4.219,1.343   c0,0,6.506-0.381,17.893-1.047c5.331-0.192,12.495-0.473,18.406,0.915c0.489,0.077,0.752,0.229,1.075,0.366   c0.047-0.524-0.955,0.953-2.516,1.712c-1.517,0.979-3.491,1.917-5.545,2.849c-4.199,1.903-9.006,3.539-14.333,6.405   c-2.572,1.518-5.753,3.06-8.394,7.571c-1.234,2.09-1.821,5.469-1.172,7.851l0.192,0.971l0.11,0.481l0.058,0.238   c-0.409-0.848,0.622,1.434,0.541,1.228l0.533,0.888c0.473,0.676,0.4,0.956,1.535,2.136c0.911,0.987,1.94,1.93,3.001,2.755   c0.93,0.64,1.624,0.942,2.461,1.416c1.649,0.972,3.146,1.422,4.709,2.035c3.08,1.084,6.079,1.822,9.074,2.483   c5.781,1.088,11.688,2.2,17.695,3.33c2.52,0.487,4.877,1.101,7.055,1.772c-2.791,1.007-6.697,2.02-10.066,2.67   c-12.255,2.587-25.251,4.151-38.468,8.792c-3.309,1.259-6.697,2.764-10.02,5.308c-3.13,2.371-6.417,7.1-5.997,12.294   c-1.122,0.156-2.409,0.386-3.445,0.501c-11.212,1.484-15.924-0.49-15.621-0.548c-1.464-0.864-3.351-0.38-4.215,1.084   c-0.865,1.463-0.38,3.351,1.083,4.215c0,0,1.922,1.306,5.353,2.057c3.414,0.773,8.217,1.126,14.066,0.666   c1.611-0.111,3.498-0.351,5.27-0.539c1.225,1.766,2.651,3.715,3.981,4.658c3.088,2.591,6.36,4.248,9.62,5.699   c13.123,5.075,26.239,6.142,39.027,5.639c6.42-0.483,12.739-1.231,19.227-4.126c3.025-1.411,7.177-3.633,8.459-10.06   C172.395,431.884,172.536,431.508,172.411,430.333z M162.972,432.359c-0.167-0.95-0.69,1.205-3.141,1.799   c-4.217,1.853-9.973,2.701-15.631,2.999c-11.41,0.375-23.87-0.957-34.554-5.29c-1.68-0.776-3.049-1.753-4.49-2.687   c0.792-0.121,1.479-0.205,2.291-0.333c7.94-1.264,16.214-2.755,25.72-2.911c9.053-0.166,20.581-0.04,28.236,3.767   c0.89,0.478,1.278,0.978,1.572,1.279c0,0-0.254-0.304,0.029-0.499C163.13,430.676,162.973,431.76,162.972,432.359z"/>
	<path style="fill:#F5F5F5;" d="M446.066,430.333c-0.253-1.502-0.823-3.281-1.543-4.426c-1.431-1.979-3.087-3.364-4.691-4.225   c-12.639-5.807-23.22-4.667-33.318-4.709c-9.973,0.257-19.302,1.977-26.876,3.635c-2.056,0.414-3.837,0.723-5.742,1.081   c0.942-1.947,4.395-4.381,9.045-5.857c11.335-3.872,24.276-5.426,36.994-7.906c3.212-0.629,6.468-1.366,9.802-2.314   c1.796-0.615,3.306-1.095,5.42-2.076c1.357-0.767,2.691-1.733,3.834-2.763c1.216-1.094,1.124-1.4,1.749-2.138   c2.887-5.497,0.154-9.411-2.138-11.455c-2.209-1.813-4.07-2.522-5.841-3.25c-3.438-1.206-6.623-1.961-9.697-2.603   c-5.923-1.185-11.747-2.351-17.446-3.491c-2.708-0.627-5.327-1.323-7.625-2.167c-2.03-0.541-4.896-2.545-4.47-2   c-5.239-0.453,7.174-6.295,16.126-9.559c2.379-1.05,4.744-2.11,7.167-3.606c2.377-1.571,4.827-2.905,7.468-7.304   c0.519-0.912,0.496-1.135,0.769-1.733l0.302-0.759c0.656-2.339,0.294-1.708,0.447-2.723c0.309-2.454-0.654-5.077-2.178-7.262   c-3.111-3.362-6.204-4.325-8.503-4.968c-9.504-2.252-16.342-1.636-22.283-1.613c-11.266,0.529-17.704,0.832-17.704,0.832   l-0.435,0.02c-0.013,0.001-0.026,0.001-0.038,0.002c-3.601,0.211-6.348,3.3-6.138,6.9c0.02,0.352,0.185,0.646,0.258,0.98   c-5.102,1.405-13.176,2.844-21.162,0.961c-1.216-0.281-2.339,0.451-2.62,1.616c-0.281,1.174,0.451,2.347,1.616,2.62   c3.138,0.74,6.251,1.029,9.22,1.029c6.306,0,11.691-1.283,15.369-2.41c1.186,0.88,2.628,1.435,4.219,1.343   c0,0,6.506-0.381,17.893-1.047c5.331-0.192,12.495-0.473,18.406,0.915c0.489,0.077,0.752,0.229,1.075,0.366   c0.047-0.524-0.955,0.953-2.516,1.712c-1.517,0.979-3.491,1.917-5.545,2.849c-4.199,1.903-9.006,3.539-14.333,6.405   c-2.572,1.518-5.753,3.06-8.394,7.571c-1.234,2.09-1.821,5.469-1.172,7.851l0.192,0.971l0.11,0.481l0.058,0.238   c-0.409-0.848,0.622,1.434,0.541,1.228l0.533,0.888c0.473,0.676,0.4,0.956,1.535,2.136c0.911,0.987,1.94,1.93,3.001,2.755   c0.93,0.64,1.624,0.942,2.461,1.416c1.649,0.972,3.146,1.422,4.709,2.035c3.08,1.084,6.079,1.822,9.074,2.483   c5.781,1.088,11.688,2.2,17.695,3.33c2.52,0.487,4.877,1.101,7.055,1.772c-2.791,1.007-6.697,2.02-10.066,2.67   c-12.255,2.587-25.251,4.151-38.468,8.792c-3.308,1.259-6.697,2.764-10.02,5.308c-3.13,2.371-6.417,7.1-5.997,12.294   c-1.122,0.156-2.409,0.386-3.445,0.501c-11.212,1.484-15.924-0.49-15.621-0.548c-1.464-0.864-3.351-0.38-4.215,1.084   c-0.865,1.463-0.38,3.351,1.083,4.215c0,0,1.922,1.306,5.353,2.057c3.414,0.773,8.217,1.126,14.066,0.666   c1.611-0.111,3.498-0.351,5.27-0.539c1.225,1.766,2.651,3.715,3.981,4.658c3.088,2.591,6.36,4.248,9.62,5.699   c13.123,5.075,26.239,6.142,39.027,5.639c6.42-0.483,12.739-1.231,19.227-4.126c3.025-1.411,7.177-3.633,8.459-10.06   C446.05,431.884,446.191,431.508,446.066,430.333z M436.627,432.359c-0.167-0.95-0.69,1.205-3.141,1.799   c-4.217,1.853-9.973,2.701-15.631,2.999c-11.41,0.375-23.87-0.957-34.554-5.29c-1.68-0.776-3.049-1.753-4.49-2.687   c0.792-0.121,1.479-0.205,2.291-0.333c7.94-1.264,16.214-2.755,25.72-2.911c9.053-0.166,20.581-0.04,28.236,3.767   c0.89,0.478,1.278,0.978,1.572,1.279c0,0-0.254-0.304,0.029-0.499C436.786,430.676,436.628,431.76,436.627,432.359z"/>
</g>
<g>
</g>
<g>
</g>
<g>
</g>
<g>
</g>
<g>
</g>
<g>
</g>
<g>
</g>
<g>
</g>
<g>
</g>
<g>
</g>
<g>
</g>
<g>
</g>
<g>
</g>
<g>
</g>
<g>
</g>
</svg>
