<?xml version="1.0" encoding="iso-8859-1"?>
<!-- Generator: Adobe Illustrator 19.0.0, SVG Export Plug-In . SVG Version: 6.00 Build 0)  -->
<svg xmlns="http://www.w3.org/2000/svg" xmlns:xlink="http://www.w3.org/1999/xlink" version="1.1" id="Layer_1" x="0px" y="0px" viewBox="0 0 512 512" style="enable-background:new 0 0 512 512;" xml:space="preserve">
<rect style="fill:#FF4B55;" width="512" height="512"/>
<path style="fill:#5A8250;" d="M301.335,279.981l72.873-53.469h-90.246L256,140.449l-27.962,86.063h-90.246l72.873,53.469  l-27.746,85.397l73.01-52.185l0.071,0.052l0.071-0.052l73.01,52.185L301.335,279.981z M315.954,245.591l-20.827,15.282  l-4.966-15.282L315.954,245.591L315.954,245.591z M233.072,272.759l8.828-27.168h28.2l8.828,27.168L256,289.582L233.072,272.759z   M256,202.197l7.901,24.315H248.1L256,202.197z M196.046,245.591h25.793l-4.966,15.282L196.046,245.591z M218.973,316.152  l7.891-24.285l12.871,9.444L218.973,316.152z M285.136,291.867l7.891,24.285l-20.762-14.841L285.136,291.867z"/>
<g>
</g>
<g>
</g>
<g>
</g>
<g>
</g>
<g>
</g>
<g>
</g>
<g>
</g>
<g>
</g>
<g>
</g>
<g>
</g>
<g>
</g>
<g>
</g>
<g>
</g>
<g>
</g>
<g>
</g>
</svg>
