<?xml version="1.0" encoding="iso-8859-1"?>
<!-- Generator: Adobe Illustrator 19.0.0, SVG Export Plug-In . SVG Version: 6.00 Build 0)  -->
<svg xmlns="http://www.w3.org/2000/svg" xmlns:xlink="http://www.w3.org/1999/xlink" version="1.1" id="Layer_1" x="0px" y="0px" viewBox="0 0 512 512" style="enable-background:new 0 0 512 512;" xml:space="preserve">
<rect style="fill:#F5F5F5;" width="512" height="512"/>
<g>
	<rect y="54.906" style="fill:#FF4B55;" width="512" height="53.625"/>
	<rect y="403.47" style="fill:#FF4B55;" width="512" height="53.625"/>
	<path style="fill:#FF4B55;" d="M248.503,228.833l12.427,16.256l19.404-6.495c1.085-0.363,2.008,0.864,1.358,1.805l-11.62,16.842   l12.173,16.447c0.681,0.92-0.201,2.177-1.297,1.85l-19.608-5.847l-11.88,16.66c-0.664,0.932-2.132,0.481-2.16-0.662l-0.498-20.456   l-19.515-6.151c-1.091-0.344-1.117-1.879-0.038-2.259l19.301-6.795l-0.181-20.461C246.356,228.423,247.808,227.924,248.503,228.833   z"/>
	<path style="fill:#FF4B55;" d="M184.488,319.596c-35.095,0-63.565-28.469-63.565-63.596c0-35.063,28.469-63.595,63.565-63.595   c13.057,0,25.099,4.016,35.133,10.813c1.537,1.041,3.291-0.979,2.004-2.316c-14.997-15.592-36.224-25.105-59.758-24.302   c-40.433,1.38-73.906,33.798-76.49,74.172c-2.959,46.246,33.658,84.677,79.249,84.677c22.458,0,42.641-9.389,57.054-24.4   c1.273-1.326-0.485-3.315-2.006-2.283C209.63,315.575,197.569,319.596,184.488,319.596z"/>
</g>
<g>
</g>
<g>
</g>
<g>
</g>
<g>
</g>
<g>
</g>
<g>
</g>
<g>
</g>
<g>
</g>
<g>
</g>
<g>
</g>
<g>
</g>
<g>
</g>
<g>
</g>
<g>
</g>
<g>
</g>
</svg>
