<?xml version="1.0" encoding="iso-8859-1"?>
<!-- Generator: Adobe Illustrator 19.0.0, SVG Export Plug-In . SVG Version: 6.00 Build 0)  -->
<svg xmlns="http://www.w3.org/2000/svg" xmlns:xlink="http://www.w3.org/1999/xlink" version="1.1" id="Layer_1" x="0px" y="0px" viewBox="0 0 512.002 512.002" style="enable-background:new 0 0 512.002 512.002;" xml:space="preserve">
<rect x="0.001" style="fill:#F5F5F5;" width="239.32" height="512"/>
<path style="fill:#873250;" d="M512.001,0H130.99c0.356,0,0.71,0.053,1.05,0.158l81.484,24.898c3.394,1.036,3.391,5.842-0.003,6.877  l-70.722,21.533c-3.395,1.035-3.397,5.839-0.003,6.877l70.729,21.615c3.394,1.036,3.391,5.842-0.003,6.875l-70.723,21.535  c-3.395,1.035-3.397,5.839-0.003,6.877l70.729,21.615c3.394,1.036,3.391,5.842-0.003,6.875l-70.701,21.525  c-3.397,1.036-3.397,5.844,0,6.878l70.701,21.526c3.395,1.035,3.397,5.839,0.003,6.877l-70.729,21.615  c-3.394,1.038-3.391,5.844,0.003,6.877l70.723,21.533c3.395,1.033,3.397,5.839,0.003,6.877l-70.729,21.615  c-3.394,1.038-3.391,5.842,0.003,6.877l70.723,21.533c3.395,1.033,3.397,5.839,0.003,6.875l-70.729,21.615  c-3.394,1.038-3.391,5.844,0.003,6.877l70.722,21.535c3.395,1.033,3.397,5.839,0.003,6.875l-70.729,21.613  c-3.394,1.038-3.391,5.842,0.003,6.877l70.702,21.53c3.396,1.033,3.396,5.842,0,6.875l-70.702,21.53  c-3.395,1.033-3.397,5.839-0.003,6.875l70.729,21.615c3.394,1.036,3.391,5.842-0.003,6.875l-81.484,24.811  c-0.339,0.104-0.692,0.156-1.047,0.156h381.011L512.001,0L512.001,0z"/>
<g>
</g>
<g>
</g>
<g>
</g>
<g>
</g>
<g>
</g>
<g>
</g>
<g>
</g>
<g>
</g>
<g>
</g>
<g>
</g>
<g>
</g>
<g>
</g>
<g>
</g>
<g>
</g>
<g>
</g>
</svg>
