<?xml version="1.0" encoding="iso-8859-1"?>
<!-- Generator: Adobe Illustrator 19.0.0, SVG Export Plug-In . SVG Version: 6.00 Build 0)  -->
<svg xmlns="http://www.w3.org/2000/svg" xmlns:xlink="http://www.w3.org/1999/xlink" version="1.1" id="Layer_1" x="0px" y="0px" viewBox="0 0 512 512" style="enable-background:new 0 0 512 512;" xml:space="preserve">
<rect y="0.235" style="fill:#FF4B55;" width="512" height="511.53"/>
<rect y="0.235" style="fill:#41479B;" width="255.76" height="255.76"/>
<g>
	<path style="fill:#F5F5F5;" d="M128.656,170.141l-6.179,18.529l-19.532,0.152c-2.529,0.02-3.578,3.247-1.543,4.749l15.712,11.603   l-5.892,18.623c-0.762,2.411,1.982,4.406,4.039,2.935l15.89-11.357l15.89,11.357c2.057,1.471,4.803-0.524,4.039-2.935   l-5.892-18.623l15.712-11.603c2.034-1.503,0.986-4.73-1.543-4.749l-19.532-0.152l-6.179-18.529   C132.849,167.743,129.455,167.743,128.656,170.141z"/>
	<path style="fill:#F5F5F5;" d="M129.132,25.668l-4.999,14.989l-15.799,0.123c-2.045,0.016-2.893,2.627-1.248,3.841l12.71,9.386   l-4.766,15.064c-0.617,1.95,1.604,3.564,3.268,2.374l12.854-9.187l12.854,9.187c1.664,1.19,3.884-0.424,3.268-2.374l-4.766-15.064   l12.71-9.386c1.645-1.215,0.797-3.825-1.248-3.841l-15.799-0.123l-4.999-14.989C132.524,23.727,129.78,23.727,129.132,25.668z"/>
	<path style="fill:#F5F5F5;" d="M209.058,70.258l-4.999,14.989L188.26,85.37c-2.045,0.016-2.893,2.627-1.248,3.841l12.71,9.386   l-4.766,15.064c-0.617,1.95,1.604,3.564,3.268,2.374l12.854-9.187l12.854,9.187c1.664,1.19,3.884-0.424,3.268-2.374l-4.766-15.064   l12.71-9.386c1.645-1.215,0.797-3.825-1.248-3.841l-15.799-0.123l-4.999-14.989C212.45,68.318,209.706,68.318,209.058,70.258z"/>
	<path style="fill:#F5F5F5;" d="M50.889,87.926l-4.999,14.989l-15.799,0.123c-2.045,0.016-2.893,2.627-1.248,3.841l12.71,9.386   l-4.766,15.064c-0.617,1.95,1.604,3.564,3.268,2.374l12.854-9.188l12.854,9.188c1.664,1.19,3.884-0.424,3.268-2.374l-4.766-15.064   l12.71-9.386c1.645-1.215,0.797-3.825-1.248-3.841l-15.799-0.123l-4.999-14.989C54.282,85.985,51.536,85.985,50.889,87.926z"/>
	<path style="fill:#F5F5F5;" d="M174.608,136.857l-2.806,8.414l-8.87,0.069c-1.148,0.009-1.624,1.475-0.7,2.157l7.135,5.269   l-2.676,8.456c-0.347,1.095,0.9,2,1.834,1.333l7.216-5.157l7.216,5.157c0.934,0.667,2.181-0.238,1.834-1.333l-2.676-8.456   l7.135-5.269c0.924-0.682,0.448-2.148-0.7-2.157l-8.87-0.069l-2.806-8.414C176.513,135.768,174.972,135.768,174.608,136.857z"/>
</g>
<g>
</g>
<g>
</g>
<g>
</g>
<g>
</g>
<g>
</g>
<g>
</g>
<g>
</g>
<g>
</g>
<g>
</g>
<g>
</g>
<g>
</g>
<g>
</g>
<g>
</g>
<g>
</g>
<g>
</g>
</svg>
