<?xml version="1.0" encoding="iso-8859-1"?>
<!-- Generator: Adobe Illustrator 19.0.0, SVG Export Plug-In . SVG Version: 6.00 Build 0)  -->
<svg xmlns="http://www.w3.org/2000/svg" xmlns:xlink="http://www.w3.org/1999/xlink" version="1.1" id="Layer_1" x="0px" y="0px" viewBox="0 0 512 512" style="enable-background:new 0 0 512 512;" xml:space="preserve">
<rect style="fill:#73AF00;" width="512" height="512"/>
<rect y="121.26" style="fill:#FFE15A;" width="512" height="269.47"/>
<path style="fill:#FF4B55;" d="M0,512l140.415-249.017c2.007-3.57,2.007-10.397,0-13.966L0,0V512z"/>
<g>
	<path style="fill:#464655;" d="M230.662,203.329l10.031,30.076l31.704,0.246c4.105,0.032,5.807,5.27,2.505,7.708l-25.504,18.834   l9.563,30.228c1.238,3.914-3.218,7.151-6.557,4.764l-25.793-18.436l-25.793,18.436c-3.339,2.387-7.795-0.85-6.557-4.764   l9.563-30.228l-25.504-18.834c-3.302-2.438-1.6-7.677,2.505-7.708l31.704-0.246l10.031-30.076   C223.856,199.435,229.364,199.435,230.662,203.329z"/>
	<path style="fill:#464655;" d="M377.019,203.329l10.031,30.076l31.704,0.246c4.105,0.032,5.807,5.27,2.505,7.708l-25.504,18.834   l9.563,30.228c1.238,3.914-3.218,7.151-6.557,4.764l-25.793-18.436l-25.793,18.436c-3.339,2.387-7.795-0.85-6.557-4.764   l9.563-30.228l-25.504-18.834c-3.302-2.438-1.6-7.677,2.505-7.708l31.704-0.246l10.031-30.076   C370.212,199.435,375.72,199.435,377.019,203.329z"/>
</g>
<g>
</g>
<g>
</g>
<g>
</g>
<g>
</g>
<g>
</g>
<g>
</g>
<g>
</g>
<g>
</g>
<g>
</g>
<g>
</g>
<g>
</g>
<g>
</g>
<g>
</g>
<g>
</g>
<g>
</g>
</svg>
