<?xml version="1.0" encoding="iso-8859-1"?>
<!-- Generator: Adobe Illustrator 19.0.0, SVG Export Plug-In . SVG Version: 6.00 Build 0)  -->
<svg xmlns="http://www.w3.org/2000/svg" xmlns:xlink="http://www.w3.org/1999/xlink" version="1.1" id="Layer_1" x="0px" y="0px" viewBox="0 0 512 512" style="enable-background:new 0 0 512 512;" xml:space="preserve">
<rect style="fill:#FF4B55;" width="512" height="512"/>
<polygon style="fill:#FFE15A;" points="0,0 0,512 512,512 "/>
<g>
	<path style="fill:#FFBE55;" d="M281.674,219.905c1.508-1.213,2.756-2.712,2.283-3.975c-0.394-1.048-2.34-2.019-4.401-3.048   c-3.825-1.911-8.933-4.534-10.629-10.813c-0.202-0.021-0.39-0.002-0.598-0.04c-1.68-0.311-2.727,0.267-3.94,4.21   c-0.221,0.72-0.696,1.875-1.324,3.196c1.257,0.834,4.4,2.77,7.459,3.465C276.587,214.279,280.318,216.622,281.674,219.905z"/>
	<path style="fill:#FFBE55;" d="M258.148,217.234c1.81,1.652,3.472,3.525,5.106,5.618c0.094,0.121,0.196,0.24,0.291,0.361   c4.062-3.114,9.223-3.133,12.817-2.544c-1.043-1.082-3.072-2.141-6.919-3.017c-3.568-0.809-7.024-2.827-8.731-3.926   C259.921,214.993,259.059,216.194,258.148,217.234z"/>
	<path style="fill:#FFBE55;" d="M278.729,235.107c1.902,1.099,5.725,3.576,9.036,7.148c0.489-2.747,0.343-6.394-2.238-9.604   C283.321,233.87,280.961,234.643,278.729,235.107z"/>
	<path style="fill:#FFBE55;" d="M247.074,203.007l-0.638,0.775c-3.177,3.884-6.78,8.118-10.224,11.57   c2.095-0.989,4.565-1.713,7.125-2.099c0.916-1.467,3.705-5.357,7.134-10.045C249.645,202.685,248.005,201.879,247.074,203.007z"/>
	<path style="fill:#FFBE55;" d="M234.621,222.693c0.016,0.025,0.232,0.292,0.838,0.521c1.054,0.406,3.01,0.546,5.048-0.394   c5.938-2.762,11.932-1.251,17.825,4.452c0.017,0.017,0.01,0.043,0.026,0.06c0.017,0.017,0.043,0.012,0.06,0.029   c0.035,0.035,2.018,2.024,5.593,3.847c-1.718-1.805-3.263-3.647-4.596-5.352c-2.137-2.731-3.985-5.087-6.185-6.49   c-5.582-3.543-15.304-0.438-18.054,2.464C234.729,222.306,234.621,222.617,234.621,222.693z"/>
	<path style="fill:#FFBE55;" d="M280.784,226.217c0,0-0.013,0.002-0.019,0.004c-0.306,0.143-0.64,0.214-0.983,0.22   c-0.015,0-0.03,0.01-0.046,0.01c-0.036,0-0.066-0.032-0.102-0.034c-0.25-0.01-0.502-0.027-0.749-0.119   c-0.082-0.03-7.623-2.687-12.226,0.647c1.289,1.449,2.747,2.786,4.375,4.005c2.263,0.053,10.095-0.083,14.557-4.251   c2.254-2.104,2.444-4.402,2.065-6.21C285.992,223.101,283.045,225.142,280.784,226.217z"/>
	<path style="fill:#FFBE55;" d="M212.026,223.739c-0.38-0.551-0.797-1.029-1.124-1.681c-0.537-1.073-0.82-2.212-1.105-3.346   c-1.733,2.771-3.557,7.086-2.446,11.86C208.657,227.482,210.628,225.135,212.026,223.739z"/>
	<path style="fill:#FFBE55;" d="M254.135,214.444c2.194-2.292,4.896-7.382,5.591-9.639c0.667-2.178,2.699-8.801,9.471-7.576   c1.508,0.279,2.626-0.679,3.309-1.524c-1.648-1.88-3.801-3.099-5.671-3.143c-1.397-0.133-3,0.756-4.242,2.426   c-6.094,8.211-10.73,14.552-13.241,18.091C251.04,213.273,252.632,213.767,254.135,214.444z"/>
	<path style="fill:#FFBE55;" d="M238.403,199.667c-3.778,5.042-7.747,7.887-10.643,9.964c-3.817,2.737-4.76,3.664-4.531,5.785   c0.048,0.432,0.232,0.749,0.616,1.054c0.506,0.402,1.237,0.69,2.067,0.903c0.05-0.025,0.083-0.069,0.136-0.09   c4.556-1.854,13.631-12.942,16.616-16.587l0.645-0.787c3.162-3.825,7.612-2.294,10.047-0.633c0.84-1.141,1.687-2.289,2.534-3.434   C251.493,190.532,244.218,191.917,238.403,199.667z"/>
	<path style="fill:#FFBE55;" d="M276.822,198.037c-0.72,1.037-1.751,2.118-3.066,2.926c1.213,4.024,4.596,5.869,7.979,7.556   c2.008,1.001,3.897,1.999,5.26,3.412c1.142-4.088,0.993-7.339-0.586-9.598C284.089,199.02,279.16,198.213,276.822,198.037z"/>
	<path style="fill:#FFBE55;" d="M259.013,344.193l0.53,0.603c6.706,7.633,13.04,15.006,17.26,21.216   c-0.127-3.353-0.356-6.827-0.759-9.24c-0.013-0.076-0.022-0.159-0.025-0.235c-2.153-2.781-4.471-5.372-6.915-7.563   c-7.147-6.388-11.177-12.796-13.431-17.736C255.288,335.487,255.771,340.51,259.013,344.193z"/>
	<path style="fill:#FFBE55;" d="M255.582,319.553c-0.572-1.004-1.09-2.084-1.513-3.289c-0.004-0.01-0.001-0.021-0.004-0.031   c-0.035-0.013-0.071-0.026-0.106-0.039c-1.46,2.532-4.137,4.275-6.996,4.28c0,0-0.01,0-0.013,0c-0.22,0-0.417-0.085-0.633-0.105   c-0.373,1.645-0.493,3.505,0.547,4.499c1.172,1.13,3.554,1.115,4.798,0.797c0.605-2.577,1.274-4.402,1.359-4.614   C253.433,320.027,254.471,319.427,255.582,319.553z"/>
	<path style="fill:#FFBE55;" d="M250.813,330.69c-0.258,0.017-0.495,0.059-0.764,0.059c-0.728,0-1.486-0.097-2.244-0.247   c-0.448,1.683-0.604,3.58,0.514,4.724c0.699,0.714,1.722,0.99,2.56,1.043C250.694,334.345,250.65,332.45,250.813,330.69z"/>
	<path style="fill:#FFBE55;" d="M160.153,222.122l-0.011,0.006c-4.896,1.638-10.71,1.238-15.796,0.241   c2.966,4.572,4.099,10.084,4.232,15.209c6.388-8.332,13.458-12.148,18.521-13.958C164.495,223.388,162.147,222.907,160.153,222.122   z"/>
	<path style="fill:#FFBE55;" d="M275.584,343.328c-1.104-0.085-3.597-0.4-6.556-1.3c1.042,1.101,2.085,2.204,3.326,3.314   c8.154,7.29,14.783,18.39,19.114,26.951c1.543-5.525,5.172-10.262,9.075-13.856C289.646,357.716,281.124,350.129,275.584,343.328z"/>
	<path style="fill:#FFBE55;" d="M220.447,254.114c-1.785-0.394-3.793-1.134-5.746-2.334c-1.306,4.154-2.218,8.001-2.72,11.511   c2.702-0.249,4.744-0.225,6.134-0.112C218.78,259.453,219.702,256.262,220.447,254.114z"/>
	<path style="fill:#FFBE55;" d="M143.503,242.233c0.584-5.762,0.272-14.961-6.121-20.488c-0.021-0.003-0.039,0.006-0.06,0.002   c-0.197-0.025-18.473-2.661-30.672,9.798c-4.588,4.687-7.573,8.357-9.967,11.304c-3.248,4.001-5.582,6.871-9.367,9.094   C98.766,256.021,126.515,262.895,143.503,242.233z"/>
	<path style="fill:#FFBE55;" d="M313.299,168.382c5.105,2.743,13.726,5.968,21.267,2.182c0.011-0.018,0.01-0.039,0.021-0.058   c0.095-0.159,9.516-16.047,2.673-32.088c-2.575-6.033-4.826-10.192-6.636-13.532c-2.451-4.528-4.213-7.785-4.823-12.135   C317.663,121.781,300.695,144.786,313.299,168.382z"/>
	<path style="fill:#FFBE55;" d="M306.326,359.982c-4.595,3.525-11.081,10.048-10.728,18.486c0.016,0.022,0.041,0.032,0.056,0.055   c0.105,0.152,10.719,15.266,28.154,15.615c6.576,0.133,11.281-0.21,15.072-0.489c5.141-0.381,8.827-0.641,13.034,0.578   C347.025,383.103,333.008,358.213,306.326,359.982z"/>
	<path style="fill:#FFBE55;" d="M268.354,332.407c-0.046-0.095-0.006-0.2-0.039-0.299l-3.331,2.843   c2.182,1.358,4.485,2.188,6.454,2.706C269.474,334.648,268.393,332.49,268.354,332.407z"/>
	<path style="fill:#FFBE55;" d="M254.609,299.892c-0.925-0.063-1.842-0.162-2.747-0.322c-0.7,1.13-2.232,4.346,0.031,8.401   c0.841,1.511,2.261,3.404,4.236,3.867c1.179,0.268,2.531-0.128,3.964-0.895C257.173,306.218,255.413,302.051,254.609,299.892z"/>
	<path style="fill:#FFBE55;" d="M304.459,214.116c2.534-1.897,7.154-5.458,12.633-10.142c1.643-10.427,7.725-20.136,13.17-27.047   c-5.537,0.768-11.215-0.591-16-2.635c6.403,17.14-7.46,36.132-10.062,39.479C304.284,213.89,304.379,213.993,304.459,214.116z"/>
	<path style="fill:#FFBE55;" d="M261.379,331.615l4.414-3.768c-2.87-0.989-5.62-2.606-7.868-5.063   C258.26,324.336,259.189,327.531,261.379,331.615z"/>
	<path style="fill:#FFBE55;" d="M206.926,264c0.557-4.708,1.795-9.954,3.72-15.677c-1.234-1.405-2.317-3.116-3.179-5.158   c-2.279,5.271-5.572,13.898-6.84,22.255C202.943,264.808,205.041,264.341,206.926,264z"/>
	<path style="fill:#FFBE55;" d="M292.313,204.588c0.556,3.167,0.194,6.809-1.33,11.025c0.916,1.629,1.689,3.896,1.692,6.358   c1.931-0.412,2.074-1.58,2.671-7.958l0.254-2.635c0.241-2.419-0.194-4.267-1.295-5.48   C293.734,205.267,293.027,204.883,292.313,204.588z"/>
	<path style="fill:#FFBE55;" d="M291.784,246.261c1.585-0.329,3.592-1.018,5.197-2.498c2.429-2.242,5.118-6.992,4.677-9.125   c-0.054-0.267-0.121-0.438-0.584-0.603c-1.762-0.629-2.292-0.4-2.289-0.394c-0.108,0.083-0.308,0.527-0.425,0.787   c-0.305,0.673-0.718,1.588-1.638,2.191c-1.406,0.917-2.734,1.16-3.957,1.165C293.116,241.189,292.444,244.281,291.784,246.261z"/>
	<path style="fill:#FFBE55;" d="M202.422,224.886c0.335-2.237,0.989-4.323,1.871-6.196c-4.437-1.658-14.46-4.896-22.65-3.769   c-11.567,1.556-20.362,0.26-25.944-1.238c2.673,2.756,7.265,5.62,14.45,5.322C187.976,218.648,198.196,222.679,202.422,224.886z"/>
	<path style="fill:#FFBE55;" d="M180.044,224.188c-4.219,3.304-7.33,7.275-9.456,10.666c6.553-3.397,14.967-6.788,20.532-8.917   C188.123,225.178,184.436,224.551,180.044,224.188z"/>
	<path style="fill:#FFBE55;" d="M300.081,228.829c0.755,0.089,1.573,0.253,2.521,0.581c-0.038-0.188-0.07-0.356-0.119-0.583   c-0.298-1.375-0.682-3.272-0.585-6.033c-0.001-0.018-0.011-0.033-0.012-0.051c0-0.017,0.009-0.033,0.008-0.05   c0.002-0.057-0.008-0.089-0.005-0.147c0.119-2.561-0.747-4.635-1.878-6.171c-0.333,3.296-0.765,5.786-1.936,7.536   C298.774,225.012,299.592,226.719,300.081,228.829z"/>
	<path style="fill:#FFBE55;" d="M306.377,218.773c0.081,0.357,0.155,0.717,0.21,1.088c14.285-1.939,24.43-16.306,30.281-27.815   C324.434,205.208,310.465,215.772,306.377,218.773z"/>
	<path style="fill:#FFBE55;" d="M246.95,315.598h0.003c1.219-0.006,2.465-0.923,2.995-2.137c-0.84-0.891-1.634-1.892-2.315-3.114   c-0.456-0.817-0.755-1.601-1.027-2.376c-0.963,0.585-2.029,1.418-2.507,2.49c-0.359,0.794-0.343,1.626,0.044,2.616   C244.594,314.226,245.445,315.598,246.95,315.598z"/>
	<path style="fill:#FFBE55;" d="M195.547,266.906c0.972-8.778,4.172-17.864,6.7-23.936c-1.581,1.205-3.556,2.439-5.995,3.607   c-0.273,0.606-5.197,11.638-7.069,22.563C191.436,268.285,193.558,267.542,195.547,266.906z"/>
	<path style="fill:#FFBE55;" d="M281.924,343.253c2.845,0.298,5.48,0.165,7.773-0.159c-4.34-1.48-8.668-3.442-12.212-5.207   C278.737,339.602,280.222,341.45,281.924,343.253z"/>
	<path style="fill:#FFBE55;" d="M247.066,298.236c-11.731-4.456-20.986-17.08-24.302-33.135c-0.976,6.232-1.038,13.949,2.281,20.873   c3.595,7.507,10.718,12.784,20.935,15.888C246.199,300.413,246.614,299.189,247.066,298.236z"/>
	<path style="fill:#FFBE55;" d="M309.484,224.462c-0.259,0.055-0.541,0.052-0.802,0.101c3.259,3.565,16.356,19.42,19.903,47.09   c2.437,0.933,4.709,1.89,6.634,2.859C333.947,263.253,328.851,234.777,309.484,224.462z"/>
	<path style="fill:#FFBE55;" d="M183.967,271.235c1.017-8.421,3.978-17.078,5.992-22.209c-2.04,0.636-4.308,1.199-6.804,1.674   c-4.396,7.367-7.06,18.413-8.287,24.649C178.105,273.777,181.108,272.439,183.967,271.235z"/>
	<path style="fill:#FFBE55;" d="M262.89,315.048c-1.22,0.712-2.36,1.176-3.407,1.432c2.719,5.383,7.773,7.22,12.062,7.696   C268.078,321.431,265.251,318.239,262.89,315.048z"/>
	<path style="fill:#FFBE55;" d="M227.804,223.83c0.604-0.277,1.353-0.494,2.038-0.739c-0.012-0.126-0.044-0.243-0.045-0.373   c-2.856-0.057-6.589-0.52-8.988-2.431c-1.4-1.118-2.238-2.616-2.426-4.337c-0.568-5.188,2.883-7.665,6.534-10.281   c1.489-1.07,3.178-2.308,4.933-3.878c-5.344-0.365-10.136,1.424-13.112,5.294c-2.943,3.823-3.509,8.725-1.473,12.789   C218.037,225.436,224.022,224.878,227.804,223.83z"/>
	<path style="fill:#FFBE55;" d="M221.216,229.253c-1.424-0.164-2.802-0.606-4.132-1.202c-0.208,2.788-0.036,6.57,1.777,8.792   c0.045-1.246,0.199-2.514,0.564-3.761C219.774,231.888,220.333,230.567,221.216,229.253z"/>
	<path style="fill:#FFBE55;" d="M239.482,230.929c5.803,0.457,10.257-1.02,12.91-2.269c-4.453-3.177-7.691-2.419-9.833-1.42   c-3.443,1.602-7.295,1.501-9.897,0c-0.962,0.435-2.003,0.87-3.219,1.219c-2.721,1.365-4.49,3.309-5.274,5.798   c-0.248,0.783-0.287,1.555-0.347,2.325c0.05-0.042,0.052-0.121,0.106-0.16C229.512,232.422,234.742,230.625,239.482,230.929z"/>
	<path style="fill:#FFBE55;" d="M265.987,298.124c-1.993,0.785-4.049,1.364-6.169,1.65c1.405,3.35,4.178,9.052,8.572,14.401   C270.677,310.32,267.982,302.025,265.987,298.124z"/>
	<path style="fill:#FFBE55;" d="M219.67,242.99c-5.178-1.526-7.179-6.276-7.548-11.184c-1.114,2.331-1.711,5.245-0.594,8.484   c2.247,6.496,7.155,8.39,10.038,8.993c0.032-0.756,0.065-1.51,0.122-2.261c-0.016-0.017-0.038-0.021-0.054-0.039   C220.964,246.238,220.225,244.798,219.67,242.99z"/>
	<path style="fill:#FFBE55;" d="M202.334,230.34c-0.177-0.076-0.374-0.058-0.534-0.179c-0.027-0.018-1.147-0.763-3.23-1.71   c-7.331,3.957-11.448,12.027-13.329,16.836c13.283-3.218,17.495-9.262,18.318-10.674   C202.955,233.177,202.545,231.747,202.334,230.34z"/>
	<path style="fill:#FFBE55;" d="M288.164,283.942c2.464-5.337,2.995-11.45,1.691-18.221c-2.947,13.568-10.153,24.624-19.489,30.249   c0.427,0.855,0.898,1.915,1.389,3.172C275.421,297.538,283.981,292.994,288.164,283.942z"/>
	<path style="fill:#FFBE55;" d="M294.047,232.542c0.296-0.795,0.737-1.619,1.382-2.306c-0.287-1.519-0.891-2.794-1.399-3.614   c-0.725,0.191-1.54,0.334-2.469,0.427c-0.065,0.005-0.127,0.008-0.191,0.01c-0.488,0.909-1.136,1.803-1.973,2.671   c0.743,0.938,1.385,1.88,1.855,2.848c0.128,0.07,0.285,0.027,0.402,0.122C291.85,232.841,292.761,233.381,294.047,232.542z"/>
	<path style="fill:#FFBE55;" d="M300.98,246.636c2.52,6.616,4.09,12.638,4.714,17.952c1.983,0.517,4.099,1.087,6.296,1.704   c-1.259-9.366-5.197-19.215-7.526-24.431C303.43,243.718,302.177,245.389,300.98,246.636z"/>
	<path style="fill:#FFBE55;" d="M300.58,263.292c-0.648-4.107-1.884-8.672-3.699-13.637c-2.065,1.009-4.094,1.44-5.589,1.632   c0.003,0.258,0.028,0.51,0.028,0.769c0,0.62-0.051,1.223-0.068,1.837c0.058,0.099,0.144,0.174,0.189,0.284   c1.061,2.584,1.868,5.092,2.509,7.549C294.719,261.899,297.147,262.448,300.58,263.292z"/>
	<path style="fill:#FFBE55;" d="M317.079,267.772c2.082,0.629,4.168,1.288,6.201,1.972c-3.081-19.738-11.161-32.857-15.672-38.77   c-0.042,0.951-0.243,1.978-0.816,3.169c-0.067,0.141-0.206,0.208-0.295,0.329c0.022,0.268,0.065,0.53,0.06,0.806   c0.18,0.177,0.356,0.361,0.477,0.598C307.385,236.561,315.682,252.855,317.079,267.772z"/>
</g>
<g>
	<path style="fill:#FFD7AA;" d="M256.368,295.137c16.584,0,30.075-19.324,30.075-43.08c0-1.302-0.041-2.585-0.121-3.861   c-3.223-4.845-8.859-8.224-10.529-9.151c-9.941-0.178-16.577-4.604-19.406-6.947c-2.813,1.632-8.916,4.299-17.27,3.696   c-3.385-0.216-7.265,1.111-11.589,4.058c-0.819,3.956-1.235,8.052-1.235,12.205C226.293,275.813,239.784,295.137,256.368,295.137z"/>
	<path style="fill:#FFD7AA;" d="M138.665,325.574c0.445-0.121,4.918-1.334,11.469-1.873c30.333-6.836,65.949-28.595,72.369-32.62   c-0.63-1.003-1.352-1.943-1.868-3.024c-3.192-6.676-3.703-13.803-3.168-20.019c-4.569-0.291-18.506,0.36-44.723,13.828   c-0.352,0.178-0.733,0.267-1.114,0.267c-0.498,0-0.994-0.152-1.413-0.451c-0.743-0.527-1.13-1.429-1-2.331   c0.076-0.541,1.317-9.022,4.15-18.039c-15.064,3.158-46.864,35.254-64.372,52.94c-3.309,3.347-6.287,6.357-8.808,8.84   c-0.349,0.343-0.718,0.667-1.089,0.997c-2.213,1.956-4.499,3.975-2.88,15.622c1.492,10.751,15.476,11.85,25.881,11.919h0.762   c3.274,0,11.157,2.724,24.814,7.544c13.259,4.68,28.287,9.983,38.019,11.805c4.655,0.864,9.024,1.645,13.053,2.362   c12.301,2.197,21.188,3.778,25.839,5.703c5.645,2.337,11.872,13.875,17.266,24.506l1.035,2.026   c3.178,6.134,3.775,13.812,1.553,20.029c-1.08,3.029-0.308,4.617,0.076,5.163c0.378,0.533,0.819,0.724,1.083,0.724   c1.254,0,2.159,0,3.162-3.175c1.267-4.007,1.584-4.394,6.912-10.84l1.457-1.759c5.493-6.661-0.01-20.327-2.654-26.9l-0.371-0.921   c-1.88-4.699-0.216-9.633,1.394-14.402c1.095-3.245,2.226-6.598,2.226-9.805c0-0.699-0.187-1.168-0.629-1.588   c-2.559-2.426-11.237-1.962-17.578-1.638c-2.337,0.127-4.553,0.241-6.452,0.241c-9.818,0-25.569-9.811-48.478-24.785   c-11.357-7.411-24.823-8.052-33.961-7.322c-3.785,0.826-7.5,1.429-11.084,1.753c-1.235,0.108-2.391-0.743-2.619-1.988   C136.693,327.124,137.449,325.911,138.665,325.574z"/>
	<path style="fill:#FFD7AA;" d="M418.871,165.426c-4.121,0.87-4.617,0.775-12.907-0.737l-2.185-0.394   c-8.519-1.569-17.717,9.964-22.15,15.482l-0.626,0.775c-3.178,3.937-8.29,4.896-13.231,5.83c-3.369,0.635-6.852,1.289-9.649,2.864   c-0.606,0.337-0.927,0.737-1.076,1.327c-0.864,3.41,3.785,10.757,7.179,16.123c1.251,1.975,2.435,3.855,3.366,5.506   c4.804,8.554,3.956,27.097,2.115,54.409c-0.959,14.256,5.788,26.868,11.046,34.387c2.121,2.394,4.169,4.921,6.103,7.57   c0.753,1.029,0.584,2.464-0.384,3.289c-0.968,0.838-2.413,0.768-3.312-0.133c-0.302-0.305-3.093-3.15-6.414-7.874   c-13.332-14.849-29.703-24.667-36.51-28.391c0.177,1.938,0.246,3.257,0.256,3.536c0.038,0.953-0.486,1.835-1.334,2.267   c-0.349,0.171-0.727,0.26-1.102,0.26c-0.54,0-1.076-0.178-1.518-0.527c-6.464-5.148-30.217-11.404-41.492-14.017   c0.993,6.959,0.173,13.339-2.48,19.059c-2.726,5.87-6.917,10.001-10.861,12.906c20.682,25.553,69.658,36.471,99.146,43.014   c7.592,1.683,14.152,3.137,18.975,4.534c0.473,0.14,0.937,0.298,1.403,0.464c2.791,0.972,5.664,1.981,15.037-5.137   c8.646-6.566,2.842-19.356-2.28-28.405l-0.371-0.66c-1.6-2.851-3.083-11.062-5.563-25.325c-2.41-13.856-5.141-29.561-8.319-38.94   c-1.527-4.502-2.991-8.713-4.344-12.593c-4.096-11.773-7.058-20.283-7.655-25.268c-0.724-6.065,6.28-17.133,12.904-27.033   l1.273-1.918c3.801-5.779,10.202-10.053,16.708-11.157c3.166-0.54,4.175-1.994,4.461-2.591c0.279-0.591,0.232-1.067,0.105-1.295   C422.574,165.541,422.132,164.734,418.871,165.426z"/>
	<path style="fill:#FFD7AA;" d="M101.271,163.775c2.842,3.105,3.016,3.575,5.944,11.424l0.794,2.121   c3.029,8.097,17.628,10.154,24.642,11.138l0.972,0.14c5.007,0.718,8.446,4.617,11.773,8.395c2.267,2.572,4.61,5.226,7.389,6.827   c0.61,0.349,1.114,0.425,1.692,0.248c3.378-0.997,7.316-8.744,10.189-14.402c1.064-2.089,2.07-4.071,3.02-5.715   c4.893-8.49,21.264-17.241,45.681-29.618c13.456-6.827,20.95-20.099,24.518-28.43c0.822-2.731,1.743-5.328,2.781-7.754   c0.505-1.175,1.816-1.727,3.026-1.353c1.207,0.413,1.896,1.683,1.578,2.921c-0.095,0.375-0.946,3.575-2.867,8.103   c-6.534,22.227-6.24,53.71-5.803,66.388c4.925-5.391,9.605-6.613,12.83-6.613c3.56,0,6.819,1.56,9.424,4.295   c2.728-3.539,5.839-4.225,8.106-4.206c4.114,0.101,7.526,2.742,9.696,5.485c2.38,0.121,7.751,0.755,11.665,4.105   c5.392-26.469-7.003-64.078-15.372-89.407c-2.619-7.932-4.883-14.783-6.306-20.245c-0.124-0.476-0.225-0.959-0.324-1.448   c-0.591-2.889-1.2-5.88-12.094-10.294c-10.072-4.109-18.089,7.443-23.255,16.46l-0.381,0.667   c-1.635,2.839-7.941,8.313-18.946,17.743c-10.668,9.144-22.763,19.514-29.195,27.033c-3.077,3.594-5.934,6.985-8.567,10.116   c-8.043,9.564-13.856,16.473-17.847,19.54c-4.852,3.734-17.965,3.366-29.888,2.724l-2.242-0.114   c-3.758-0.166-7.485-1.288-10.831-3.03l-0.278-0.069l-0.164-0.199c-2.614-1.428-5.01-3.192-6.851-5.358   c-1.208-1.422-2.281-2.018-3.122-2.292l-2.679,0.595C99.439,160.668,99.195,161.511,101.271,163.775z"/>
</g>
<path style="fill:#464655;" d="M427.438,164.245c-1.94-3.461-4.896-4.566-9.564-3.594c-3.191,0.673-3.191,0.667-11.037-0.756  l-2.191-0.4c-11.38-2.07-21.804,10.973-26.82,17.228l-0.619,0.768c-2.048,2.54-5.89,3.258-10.338,4.096  c-3.753,0.711-7.636,1.442-11.132,3.404c-1.759,0.991-2.943,2.502-3.42,4.382c-1.375,5.449,3.283,12.809,7.789,19.927  c1.2,1.899,2.34,3.702,3.232,5.29c4.452,7.932,2.953,30.177,1.505,51.691c-0.568,8.44,1.238,16.263,3.912,22.956  c-13.829-11.901-27.089-18.617-29.238-19.67c-1.908-12.919-7.569-35.712-24.049-47.104c21.43-9.497,31.614-41.803,32.099-43.392  c0.349-1.137-0.171-2.356-1.235-2.889c-1.054-0.54-2.353-0.229-3.058,0.73c-5.599,7.599-12.797,14.976-19.593,21.223  c4.159-11.753,13.398-22.014,17.405-26.055c0.705-0.603,1.394-1.276,2.064-2.007c0.876-0.959,0.848-2.439-0.07-3.366  c-0.327-0.33-0.766-0.411-1.189-0.514c2.491-6.881,4.803-18.086-0.148-29.695c-2.661-6.236-4.972-10.51-6.83-13.939  c-3.331-6.153-4.852-8.96-4.394-15.457c0.07-0.991-0.467-1.924-1.356-2.356c-0.889-0.445-1.953-0.298-2.696,0.362  c-0.339,0.3-31.774,28.778-19.837,60.307c-0.361,0.126-0.746,0.201-1.024,0.497c-0.848,0.914-0.87,2.324-0.048,3.264  c13.395,15.283-1.449,36.65-4.848,41.131c-0.077-0.05-0.148-0.117-0.225-0.164c-0.001-3.051-0.825-5.597-2.569-7.526  c-1.532-1.693-3.438-2.587-5.121-3.065c6.361-27.767-6.034-65.426-15.215-93.218c-2.594-7.855-4.836-14.631-6.22-19.946  c-0.102-0.394-0.181-0.787-0.264-1.188c-0.943-4.623-2.724-8.852-15.041-13.844c-15.158-6.134-25.82,12.453-29.319,18.562  l-0.372,0.648c-1.299,2.254-9.738,9.487-17.898,16.479c-10.802,9.259-23.048,19.756-29.729,27.56  c-3.083,3.607-5.947,7.017-8.589,10.154c-7.554,8.979-13.517,16.066-17.089,18.816c-3.826,2.947-20.416,2.051-26.652,1.715  l-2.286-0.121c-5.595-0.248-11.199-2.902-14.628-6.941c-2.505-2.953-5.661-4.458-8.662-4.21c-2.131,0.197-3.985,1.314-4.956,2.997  c-1.981,3.436-1.426,6.541,1.8,10.053c2.2,2.407,2.2,2.407,4.969,9.83l0.797,2.134c4.045,10.808,20.581,13.132,28.529,14.256  l0.959,0.133c3.229,0.464,5.814,3.397,8.808,6.795c2.118,2.4,4.408,4.752,7.102,6.667c-0.166,0.083-0.358,0.089-0.504,0.21  c-0.765,0.635-1.073,1.664-0.778,2.61c0.027,0.082,1.712,4.64,6.229,8.573c-7.125,0.348-15.268-2.379-18.533-3.632  c-0.518-0.229-1.054-0.445-1.607-0.648c-1.238-0.457-2.604,0.171-3.096,1.384c-0.168,0.418-0.172,0.848-0.108,1.265  c-7.312,0.343-18.487,2.514-27.278,11.48c-4.747,4.852-7.811,8.617-10.268,11.646c-4.413,5.429-6.43,7.906-12.605,9.97  c-0.94,0.311-1.597,1.162-1.661,2.153c-0.067,0.991,0.473,1.918,1.365,2.35c0.251,0.121,14.755,7.011,31.602,7.011  c10.644,0,22.22-2.767,31.732-11.713c0.252,0.273,0.46,0.595,0.83,0.733c0.279,0.102,0.565,0.152,0.848,0.152  c0.905,0,1.765-0.508,2.188-1.359c7.039-14.248,16.744-19.372,22.393-21.207c-5.035,6.411-7.251,12.466-7.374,12.825  c-0.362,1.035,0.016,2.191,0.924,2.813c0.908,0.622,2.124,0.559,2.959-0.159c3.677-3.131,12.631-7.163,20.222-10.262  c-4.592,6.289-6.583,12.959-7.003,14.498c-1.598,2.566-2.977,5.524-4.161,8.59c-14.832,0.536-42.506,27.249-69.628,54.651  c-3.293,3.328-6.258,6.319-8.767,8.789c-0.289,0.286-0.591,0.552-0.899,0.826c-3.531,3.124-6.309,6.776-4.48,19.946  c2.254,16.206,23.693,16.168,30.729,16.123h0.746c2.597,0,13.066,3.696,23.188,7.265c13.428,4.744,28.646,10.11,38.749,11.996  c4.667,0.876,9.052,1.657,13.094,2.375c11.545,2.057,20.664,3.69,24.826,5.41c4.455,1.842,11.958,16.631,14.783,22.201l1.054,2.07  c2.578,4.966,3.074,11.157,1.292,16.142c-1.302,3.645-1.054,7.144,0.679,9.608c1.235,1.746,3.131,2.794,5.071,2.794  c3.966,0,6.376-2.032,7.811-6.579c0.981-3.105,0.981-3.105,6.02-9.202l1.461-1.772c7.341-8.897,1.108-24.379-1.889-31.821  l-0.368-0.914c-1.21-3.029,0.038-6.738,1.486-11.024c1.222-3.62,2.483-7.36,2.483-11.367c0-2.019-0.743-3.791-2.15-5.131  c-4.077-3.867-12.783-3.397-21.191-2.966c-2.245,0.121-4.372,0.235-6.195,0.235c-9.1,0-27.763-12.193-45.811-23.985  c-6.773-4.426-14.114-6.681-20.991-7.697c27.332-9.356,54.006-25.867,59.135-29.124c4.001,4.557,9.344,8.176,16.211,10.657  c-0.765,0.762-1.461,1.676-1.95,2.756c-0.902,1.994-0.921,4.21-0.057,6.42c0.535,1.369,1.325,2.446,2.223,3.346  c-1.563,5.469-0.03,8.489,1.578,10.084c-1.755,5.445-0.237,8.647,1.425,10.352c1.743,1.784,4.163,2.546,6.296,2.546  c0.281,0,0.51-0.087,0.779-0.112c0.727,2.226,1.739,4.408,3.444,6.348l0.53,0.597c7.363,8.376,19.683,22.391,21.137,28.932  c0.273,1.219,1.419,2.007,2.635,1.899c1.232-0.127,2.172-1.162,2.185-2.4c0.003-0.362,0.054-5.995-0.203-11.735  c5.41,8.776,9.144,17.482,10.395,20.543c0.152,0.413,0.321,0.832,0.502,1.251c0.397,0.921,1.295,1.473,2.238,1.473  c0.305,0,0.616-0.057,0.918-0.178c0.408-0.167,0.715-0.452,0.969-0.776c5.263,5.089,14.504,11.739,27.058,11.991  c6.779,0.108,11.631-0.222,15.523-0.502c6.976-0.514,10.157-0.743,15.888,2.337c0.362,0.197,0.759,0.292,1.156,0.292  c0.556,0,1.105-0.19,1.553-0.559c0.765-0.629,1.07-1.664,0.775-2.604c-0.138-0.432-13.202-40.741-46.835-42.85  c0.033-0.384,0.122-0.768-0.037-1.145c-0.486-1.156-1.759-1.765-2.956-1.384c-8.322,2.546-15.558-0.114-21.308-4.375  c7.439-0.464,12.602-3.023,12.872-3.156c0.965-0.489,1.495-1.556,1.299-2.616c-0.194-1.067-1.067-1.873-2.143-1.988  c-10.9-1.149-27.525-11.107-27.69-11.208c-0.066-0.039-0.146-0.015-0.214-0.048c0.033-0.038,0.062-0.077,0.091-0.116  c0.933,0.088,1.85,0.132,2.733,0.132c2.067,0,3.956-0.216,5.483-0.54c1.019-0.216,1.788-1.054,1.915-2.083  c0.13-1.035-0.41-2.032-1.343-2.496c-3.325-1.635-6.203-3.844-8.711-6.282c3.003-3.645,2.721-9.147,1.474-14.01  c1.093-0.452,2.577-1.159,4.365-2.174c21.562,27.137,69.99,37.927,102.194,45.079c7.512,1.664,13.999,3.105,18.679,4.458  c0.387,0.114,0.765,0.248,1.153,0.381c1.534,0.533,3.077,0.959,4.874,0.959c3.423,0,7.77-1.543,14.717-6.814  c13.037-9.906,2.486-28.564-0.984-34.692l-0.362-0.648c-1.27-2.261-3.172-13.196-5.01-23.769  c-2.442-14.034-5.207-29.935-8.509-39.67c-1.53-4.521-3.001-8.744-4.353-12.631c-3.848-11.056-6.887-19.781-7.417-24.252  c-0.575-4.775,8.643-18.556,12.113-23.737l1.295-1.95c3.08-4.687,8.23-8.141,13.447-9.024c3.817-0.654,6.75-2.585,8.046-5.309  C428.403,168.093,428.387,165.934,427.438,164.245z M423.082,167.928c-0.286,0.597-1.295,2.051-4.461,2.591  c-6.506,1.105-12.907,5.379-16.708,11.157l-1.273,1.918c-6.623,9.9-13.628,20.969-12.904,27.033  c0.597,4.985,3.559,13.494,7.655,25.268c1.353,3.88,2.816,8.09,4.344,12.593c3.178,9.379,5.909,25.084,8.319,38.94  c2.48,14.263,3.963,22.474,5.563,25.325l0.371,0.66c5.121,9.049,10.926,21.839,2.28,28.405c-9.373,7.119-12.247,6.109-15.037,5.137  c-0.467-0.165-0.93-0.324-1.403-0.464c-4.823-1.397-11.383-2.851-18.975-4.534c-29.488-6.543-78.463-17.462-99.146-43.014  c3.944-2.905,8.135-7.037,10.861-12.906c2.654-5.72,3.473-12.1,2.48-19.059c11.275,2.614,35.028,8.869,41.492,14.017  c0.441,0.349,0.978,0.527,1.518,0.527c0.375,0,0.753-0.089,1.102-0.26c0.848-0.432,1.372-1.315,1.334-2.267  c-0.01-0.278-0.079-1.597-0.256-3.536c6.807,3.724,23.178,13.541,36.51,28.391c3.321,4.725,6.112,7.57,6.414,7.874  c0.899,0.902,2.343,0.972,3.312,0.133c0.968-0.826,1.137-2.261,0.384-3.289c-1.934-2.648-3.982-5.175-6.103-7.57  c-5.258-7.519-12.005-20.13-11.046-34.387c1.842-27.313,2.689-45.855-2.115-54.409c-0.93-1.651-2.115-3.531-3.366-5.506  c-3.394-5.366-8.043-12.713-7.179-16.123c0.149-0.591,0.47-0.991,1.076-1.327c2.797-1.575,6.28-2.229,9.649-2.864  c4.941-0.934,10.052-1.892,13.231-5.83l0.626-0.775c4.432-5.518,13.631-17.051,22.15-15.482l2.185,0.394  c8.29,1.511,8.786,1.607,12.907,0.737c3.261-0.692,3.702,0.114,4.315,1.207C423.313,166.861,423.361,167.338,423.082,167.928z   M338.88,393.649c-3.791,0.279-8.497,0.622-15.072,0.489c-17.435-0.349-28.049-15.463-28.154-15.615  c-0.015-0.023-0.04-0.033-0.056-0.055c-0.353-8.438,6.134-14.961,10.728-18.486c26.683-1.769,40.7,23.121,45.588,34.245  C347.707,393.008,344.021,393.268,338.88,393.649z M291.469,372.293c-4.331-8.56-10.961-19.66-19.114-26.951  c-1.241-1.11-2.285-2.213-3.326-3.314c2.959,0.899,5.452,1.215,6.556,1.3c5.539,6.801,14.061,14.388,24.959,15.109  C296.641,362.031,293.012,366.768,291.469,372.293z M247.805,330.502c0.758,0.15,1.517,0.247,2.244,0.247  c0.269,0,0.506-0.042,0.764-0.059c-0.164,1.759-0.119,3.655,0.065,5.579c-0.838-0.053-1.861-0.329-2.56-1.043  C247.201,334.082,247.357,332.186,247.805,330.502z M251.662,325.667c-1.244,0.318-3.626,0.333-4.798-0.797  c-1.04-0.994-0.92-2.854-0.547-4.499c0.216,0.019,0.412,0.105,0.633,0.105c0.003,0,0.006,0,0.006,0  c2.865-0.006,5.543-1.748,7.002-4.28c0.035,0.013,0.07,0.027,0.106,0.039c0.004,0.01,0.001,0.021,0.004,0.031  c0.423,1.204,0.941,2.285,1.513,3.289c-1.111-0.126-2.148,0.474-2.561,1.499C252.936,321.264,252.268,323.09,251.662,325.667z   M139.541,330.349c3.585-0.324,7.3-0.927,11.084-1.753c9.138-0.73,22.604-0.089,33.961,7.322  c22.909,14.974,38.661,24.785,48.478,24.785c1.899,0,4.115-0.114,6.452-0.241c6.341-0.324,15.018-0.787,17.578,1.638  c0.441,0.419,0.629,0.889,0.629,1.588c0,3.207-1.13,6.56-2.226,9.805c-1.61,4.769-3.274,9.703-1.394,14.402l0.371,0.921  c2.645,6.573,8.147,20.238,2.654,26.9l-1.457,1.759c-5.328,6.446-5.645,6.833-6.912,10.84c-1.003,3.175-1.908,3.175-3.162,3.175  c-0.264,0-0.705-0.191-1.083-0.724c-0.384-0.546-1.156-2.134-0.076-5.163c2.223-6.217,1.626-13.894-1.553-20.029l-1.035-2.026  c-5.395-10.63-11.621-22.169-17.266-24.506c-4.652-1.924-13.539-3.505-25.839-5.703c-4.029-0.718-8.398-1.499-13.053-2.362  c-9.732-1.823-24.76-7.125-38.019-11.805c-13.656-4.82-21.54-7.544-24.814-7.544h-0.762c-10.405-0.07-24.388-1.168-25.881-11.919  c-1.619-11.646,0.667-13.666,2.88-15.622c0.371-0.33,0.74-0.654,1.089-0.997c2.521-2.483,5.499-5.493,8.808-8.84  c17.508-17.686,49.309-49.781,64.372-52.94c-2.832,9.017-4.074,17.497-4.15,18.039c-0.13,0.902,0.257,1.803,1,2.331  c0.419,0.298,0.914,0.451,1.413,0.451c0.381,0,0.762-0.089,1.114-0.267c26.216-13.467,40.154-14.119,44.723-13.828  c-0.535,6.216-0.024,13.343,3.168,20.019c0.516,1.081,1.238,2.021,1.868,3.024c-6.421,4.025-42.036,25.784-72.369,32.62  c-6.55,0.54-11.024,1.753-11.469,1.873c-1.216,0.337-1.972,1.549-1.743,2.788C137.151,329.607,138.306,330.457,139.541,330.349z   M148.578,237.578c-0.133-5.125-1.267-10.637-4.232-15.209c5.087,0.997,10.9,1.397,15.796-0.241l0.011-0.006  c1.994,0.785,4.342,1.266,6.946,1.499C162.036,225.43,154.965,229.247,148.578,237.578z M96.683,242.849  c2.394-2.947,5.379-6.617,9.967-11.304c12.199-12.459,30.475-9.824,30.672-9.798c0.021,0.003,0.039-0.005,0.06-0.002  c6.393,5.527,6.705,14.726,6.121,20.488c-16.987,20.663-44.737,13.789-56.186,9.71C91.101,249.72,93.435,246.85,96.683,242.849z   M337.261,138.418c6.842,16.041-2.578,31.929-2.673,32.088c-0.011,0.018-0.01,0.039-0.021,0.058  c-7.542,3.786-16.163,0.56-21.267-2.182c-12.605-23.596,4.364-46.601,12.503-55.631c0.61,4.35,2.372,7.608,4.823,12.135  C332.435,128.226,334.686,132.386,337.261,138.418z M314.263,174.291c4.785,2.045,10.462,3.404,16,2.635  c-5.445,6.911-11.527,16.621-13.17,27.047c-5.479,4.684-10.1,8.245-12.633,10.142c-0.08-0.123-0.175-0.226-0.258-0.345  C306.803,210.423,320.666,191.431,314.263,174.291z M261.379,331.615c-2.19-4.084-3.119-7.279-3.454-8.831  c2.249,2.457,4.998,4.073,7.868,5.063L261.379,331.615z M268.314,332.108c0.033,0.098-0.007,0.204,0.039,0.299  c0.04,0.083,1.12,2.241,3.084,5.25c-1.969-0.518-4.272-1.348-6.454-2.706L268.314,332.108z M269.103,348.975  c2.445,2.191,4.763,4.782,6.915,7.563c0.003,0.076,0.013,0.159,0.025,0.235c0.403,2.413,0.632,5.887,0.759,9.24  c-4.22-6.211-10.554-13.583-17.26-21.216l-0.53-0.603c-3.242-3.683-3.724-8.706-3.34-12.955  C257.927,336.179,261.956,342.586,269.103,348.975z M256.129,311.838c-1.975-0.464-3.394-2.356-4.236-3.867  c-2.263-4.056-0.731-7.271-0.031-8.401c0.905,0.161,1.822,0.259,2.747,0.322c0.803,2.16,2.564,6.326,5.484,11.051  C258.661,311.711,257.309,312.107,256.129,311.838z M266.836,192.561c1.87,0.044,4.023,1.264,5.671,3.143  c-0.683,0.845-1.8,1.803-3.309,1.524c-6.773-1.226-8.805,5.398-9.471,7.576c-0.695,2.258-3.397,7.347-5.591,9.639  c-1.503-0.677-3.095-1.171-4.783-1.366c2.511-3.538,7.147-9.879,13.241-18.091C263.836,193.317,265.439,192.428,266.836,192.561z   M253.231,219.366c2.2,1.403,4.048,3.759,6.185,6.49c1.333,1.705,2.878,3.547,4.596,5.352c-3.575-1.823-5.558-3.813-5.593-3.847  c-0.016-0.017-0.043-0.012-0.06-0.029c-0.017-0.017-0.009-0.044-0.026-0.06c-5.893-5.703-11.888-7.214-17.825-4.452  c-2.038,0.94-3.994,0.8-5.048,0.394c-0.606-0.229-0.822-0.495-0.838-0.521c0-0.076,0.108-0.387,0.556-0.864  C237.926,218.927,247.649,215.822,253.231,219.366z M236.212,215.352c3.444-3.451,7.047-7.686,10.224-11.57l0.638-0.775  c0.931-1.128,2.571-0.322,3.397,0.2c-3.428,4.688-6.218,8.578-7.134,10.045C240.777,213.639,238.307,214.362,236.212,215.352z   M269.443,217.651c3.847,0.876,5.876,1.936,6.919,3.017c-3.594-0.588-8.755-0.57-12.817,2.544c-0.094-0.121-0.196-0.24-0.291-0.361  c-1.634-2.093-3.297-3.966-5.106-5.618c0.911-1.04,1.773-2.24,2.564-3.509C262.419,214.824,265.875,216.842,269.443,217.651z   M263.064,209.436c0.628-1.321,1.103-2.476,1.324-3.196c1.213-3.944,2.261-4.521,3.94-4.21c0.208,0.038,0.396,0.019,0.598,0.04  c1.696,6.279,6.804,8.902,10.629,10.813c2.061,1.029,4.007,2,4.401,3.048c0.473,1.264-0.775,2.762-2.283,3.975  c-1.356-3.283-5.087-5.626-11.151-7.004C267.464,212.206,264.321,210.27,263.064,209.436z M227.528,239.852  c4.325-2.947,8.205-4.274,11.589-4.058c8.354,0.603,14.456-2.064,17.27-3.696c2.829,2.343,9.465,6.769,19.406,6.947  c1.67,0.927,7.306,4.305,10.529,9.151c0.079,1.276,0.121,2.559,0.121,3.861c0,23.756-13.491,43.08-30.075,43.08  s-30.075-19.324-30.075-43.08C226.293,247.904,226.709,243.808,227.528,239.852z M287.765,242.256  c-3.311-3.572-7.134-6.049-9.036-7.148c2.232-0.464,4.592-1.238,6.798-2.456C288.108,235.862,288.254,239.509,287.765,242.256z   M285.592,226.7c-4.461,4.169-12.294,4.304-14.557,4.251c-1.628-1.218-3.086-2.556-4.375-4.005  c4.604-3.333,12.145-0.677,12.226-0.647c0.247,0.092,0.499,0.108,0.749,0.119c0.036,0.002,0.066,0.034,0.102,0.034  c0.016,0,0.03-0.01,0.046-0.01c0.343-0.006,0.677-0.077,0.983-0.22c0.006-0.003,0.013-0.002,0.013-0.002  c2.266-1.078,5.214-3.119,6.879-5.73C288.035,222.298,287.846,224.597,285.592,226.7z M286.994,211.932  c-1.363-1.413-3.253-2.412-5.26-3.412c-3.383-1.687-6.766-3.532-7.979-7.556c1.316-0.808,2.347-1.889,3.066-2.926  c2.339,0.175,7.267,0.983,9.586,4.297C287.987,204.592,288.136,207.844,286.994,211.932z M253.356,199.275  c-2.435-1.66-6.886-3.191-10.047,0.633l-0.645,0.787c-2.985,3.645-12.059,14.733-16.616,16.587c-0.053,0.021-0.086,0.066-0.136,0.09  c-0.83-0.213-1.561-0.501-2.067-0.903c-0.384-0.305-0.568-0.622-0.616-1.054c-0.229-2.121,0.714-3.048,4.531-5.785  c2.896-2.077,6.865-4.921,10.643-9.964c5.816-7.75,13.09-9.135,17.487-3.826C255.043,196.986,254.195,198.134,253.356,199.275z   M231.818,197.001c-7.62-1.043-14.627,1.501-18.943,7.104c-1.791,2.329-2.822,4.973-3.31,7.674  c-0.294,0.121-0.626,0.126-0.862,0.366c-0.612,0.624-1.258,1.409-1.901,2.281c-4.278-1.679-15.856-5.695-25.812-4.344  c-11.509,1.558-20.01,0.037-24.965-1.404c5.302-1.706,9.213-9.371,12.991-16.802c1.019-2.007,1.984-3.905,2.893-5.487  c4.537-7.868,24.426-17.952,43.661-27.706c8.093-4.102,14.18-10.192,18.667-16.339C230.739,164.39,231.421,188.462,231.818,197.001z   M209.797,218.712c0.286,1.134,0.569,2.273,1.105,3.346c0.327,0.652,0.744,1.13,1.124,1.681c-1.399,1.396-3.369,3.743-4.675,6.832  C206.24,225.798,208.064,221.483,209.797,218.712z M207.467,243.165c0.861,2.042,1.944,3.753,3.179,5.158  c-1.925,5.723-3.163,10.969-3.72,15.677c-1.885,0.341-3.983,0.807-6.299,1.42C201.896,257.063,205.189,248.436,207.467,243.165z   M211.982,263.292c0.501-3.511,1.414-7.357,2.72-11.511c1.953,1.2,3.961,1.94,5.746,2.334c-0.745,2.148-1.667,5.338-2.332,9.065  C216.726,263.066,214.684,263.042,211.982,263.292z M202.247,242.97c-2.528,6.072-5.728,15.158-6.7,23.936  c-1.988,0.636-4.111,1.38-6.364,2.234c1.872-10.924,6.796-21.956,7.069-22.563C198.691,245.409,200.666,244.175,202.247,242.97z   M185.241,245.287c1.88-4.809,5.998-12.88,13.329-16.836c2.083,0.947,3.203,1.692,3.23,1.71c0.16,0.121,0.358,0.103,0.534,0.179  c0.211,1.407,0.621,2.837,1.225,4.274C202.736,236.025,198.524,242.069,185.241,245.287z M221.566,249.283  c-2.883-0.602-7.791-2.496-10.038-8.993c-1.118-3.239-0.521-6.153,0.594-8.484c0.368,4.908,2.369,9.658,7.548,11.184  c0.555,1.808,1.294,3.249,1.965,3.993c0.015,0.017,0.038,0.022,0.054,0.039C221.631,247.773,221.598,248.527,221.566,249.283z   M217.084,228.051c1.33,0.596,2.708,1.038,4.132,1.202c-0.883,1.315-1.442,2.635-1.791,3.829c-0.364,1.248-0.519,2.516-0.564,3.761  C217.048,234.621,216.876,230.839,217.084,228.051z M215.265,219.874c-2.035-4.064-1.47-8.967,1.473-12.789  c2.976-3.87,7.768-5.659,13.112-5.294c-1.755,1.57-3.444,2.808-4.933,3.878c-3.651,2.616-7.103,5.093-6.534,10.281  c0.187,1.721,1.026,3.22,2.426,4.337c2.399,1.911,6.132,2.375,8.988,2.431c0.002,0.13,0.034,0.247,0.045,0.373  c-0.686,0.245-1.435,0.462-2.038,0.739C224.022,224.878,218.037,225.436,215.265,219.874z M224.169,234.257  c0.784-2.489,2.553-4.432,5.274-5.798c1.216-0.349,2.258-0.783,3.219-1.219c2.602,1.501,6.455,1.601,9.897,0  c2.142-0.999,5.38-1.756,9.833,1.42c-2.653,1.249-7.107,2.726-12.91,2.269c-4.74-0.305-9.97,1.492-15.555,5.493  c-0.054,0.038-0.056,0.117-0.106,0.16C223.881,235.812,223.921,235.04,224.169,234.257z M259.818,299.774  c2.12-0.287,4.176-0.865,6.169-1.65c1.994,3.901,4.69,12.196,2.403,16.051C263.996,308.826,261.223,303.125,259.818,299.774z   M289.855,265.721c1.303,6.77,0.773,12.883-1.691,18.221c-4.182,9.052-12.743,13.596-16.409,15.2  c-0.491-1.257-0.962-2.317-1.389-3.172C279.702,290.345,286.908,279.289,289.855,265.721z M291.252,253.894  c0.017-0.614,0.068-1.217,0.068-1.837c0-0.259-0.025-0.511-0.028-0.769c1.495-0.192,3.523-0.623,5.589-1.632  c1.815,4.965,3.051,9.53,3.699,13.637c-3.433-0.844-5.861-1.393-6.63-1.565c-0.641-2.457-1.448-4.965-2.509-7.549  C291.395,254.068,291.31,253.993,291.252,253.894z M291.251,232.579c-0.47-0.968-1.112-1.911-1.855-2.848  c0.837-0.868,1.486-1.763,1.973-2.671c0.064-0.002,0.126-0.005,0.191-0.01c0.929-0.092,1.744-0.235,2.469-0.427  c0.508,0.82,1.112,2.095,1.399,3.614c-0.645,0.687-1.086,1.511-1.382,2.306c-1.286,0.838-2.197,0.298-2.394,0.159  C291.536,232.606,291.379,232.65,291.251,232.579z M311.99,266.293c-2.198-0.618-4.313-1.188-6.296-1.704  c-0.623-5.314-2.193-11.336-4.714-17.952c1.197-1.247,2.45-2.918,3.484-4.775C306.792,247.077,310.73,256.927,311.99,266.293z   M306.497,234.472c0.089-0.121,0.228-0.188,0.295-0.329c0.573-1.191,0.774-2.218,0.816-3.169  c4.511,5.914,12.591,19.032,15.672,38.77c-2.032-0.684-4.119-1.343-6.201-1.972c-1.397-14.916-9.694-31.21-10.046-31.896  c-0.121-0.237-0.297-0.421-0.477-0.598C306.562,235.002,306.519,234.74,306.497,234.472z M328.585,271.652  c-3.547-27.67-16.645-43.525-19.903-47.09c0.262-0.048,0.543-0.046,0.802-0.101c19.367,10.315,24.463,38.792,25.735,50.05  C333.294,273.542,331.022,272.585,328.585,271.652z M306.586,219.861c-0.055-0.371-0.129-0.731-0.21-1.088  c4.089-3.001,18.057-13.565,30.49-26.726C331.016,203.555,320.872,217.922,306.586,219.861z M301.89,222.547  c-0.003,0.058,0.008,0.09,0.005,0.147c0,0.017-0.009,0.033-0.008,0.05c0.001,0.018,0.011,0.033,0.012,0.051  c-0.097,2.76,0.287,4.658,0.585,6.033c0.049,0.227,0.081,0.395,0.119,0.583c-0.949-0.328-1.766-0.492-2.521-0.581  c-0.489-2.11-1.307-3.817-2.005-4.918c1.172-1.75,1.603-4.24,1.936-7.536C301.143,217.912,302.008,219.986,301.89,222.547z   M298.359,234.428c0.117-0.26,0.318-0.705,0.425-0.787c-0.003-0.006,0.527-0.235,2.289,0.394c0.464,0.165,0.53,0.337,0.584,0.603  c0.441,2.134-2.248,6.884-4.677,9.125c-1.605,1.48-3.613,2.169-5.197,2.498c0.66-1.98,1.332-5.072,0.98-8.477  c1.224-0.005,2.552-0.248,3.957-1.165C297.641,236.016,298.054,235.102,298.359,234.428z M295.346,214.012  c-0.597,6.378-0.74,7.547-2.671,7.958c-0.003-2.463-0.776-4.729-1.692-6.358c1.524-4.215,1.885-7.858,1.33-11.025  c0.714,0.296,1.422,0.679,1.992,1.309c1.102,1.213,1.537,3.061,1.295,5.48L295.346,214.012z M181.644,214.92  c8.19-1.127,18.213,2.111,22.65,3.769c-0.882,1.873-1.536,3.959-1.871,6.196c-4.226-2.207-14.446-6.237-32.273-5.882  c-7.185,0.298-11.777-2.566-14.45-5.322C161.282,215.181,170.077,216.476,181.644,214.92z M180.044,224.188  c4.392,0.363,8.079,0.99,11.076,1.749c-5.566,2.129-13.979,5.52-20.532,8.917C172.714,231.463,175.825,227.492,180.044,224.188z   M189.959,249.026c-2.014,5.131-4.975,13.788-5.992,22.209c-2.858,1.204-5.862,2.542-9.099,4.115  c1.227-6.236,3.891-17.283,8.287-24.649C185.651,250.225,187.919,249.662,189.959,249.026z M225.045,285.974  c-3.319-6.924-3.257-14.641-2.281-20.873c3.316,16.055,12.572,28.68,24.302,33.135c-0.452,0.953-0.867,2.177-1.087,3.625  C235.763,298.757,228.64,293.48,225.045,285.974z M244.099,310.46c0.478-1.072,1.544-1.905,2.507-2.49  c0.271,0.775,0.571,1.559,1.027,2.376c0.682,1.222,1.475,2.223,2.315,3.114c-0.53,1.214-1.776,2.131-2.995,2.137h-0.003  c-1.505,0-2.356-1.372-2.807-2.521C243.756,312.086,243.74,311.254,244.099,310.46z M281.924,343.253  c-1.702-1.803-3.188-3.651-4.439-5.366c3.543,1.765,7.871,3.728,12.212,5.207C287.405,343.418,284.769,343.552,281.924,343.253z   M259.483,316.481c1.047-0.257,2.186-0.72,3.407-1.432c2.361,3.191,5.188,6.382,8.655,9.129  C267.256,323.701,262.203,321.864,259.483,316.481z M101.275,158.879c0.271-0.024,0.774,0.025,1.384,0.223  c0.841,0.274,1.914,0.87,3.122,2.292c1.841,2.165,4.237,3.93,6.851,5.358c0.152,0.083,0.288,0.187,0.442,0.268  c3.345,1.743,7.073,2.864,10.831,3.03l2.242,0.114c11.923,0.641,25.036,1.01,29.888-2.724c3.991-3.067,9.805-9.976,17.847-19.54  c2.632-3.131,5.49-6.522,8.567-10.116c6.433-7.519,18.527-17.889,29.195-27.033c11.005-9.43,17.311-14.904,18.946-17.743  l0.381-0.667c5.166-9.017,13.183-20.569,23.255-16.46c10.894,4.413,11.504,7.404,12.094,10.294c0.098,0.489,0.2,0.972,0.324,1.448  c1.422,5.461,3.686,12.313,6.306,20.245c8.37,25.33,20.765,62.938,15.372,89.407c-3.915-3.351-9.285-3.984-11.665-4.105  c-2.17-2.743-5.582-5.384-9.696-5.485c-2.267-0.019-5.378,0.667-8.106,4.206c-2.605-2.735-5.864-4.295-9.424-4.295  c-3.225,0-7.905,1.222-12.83,6.613c-0.437-12.678-0.73-44.161,5.803-66.388c1.921-4.528,2.772-7.728,2.867-8.103  c0.318-1.238-0.371-2.508-1.578-2.921c-1.21-0.375-2.521,0.178-3.026,1.353c-1.038,2.426-1.959,5.023-2.781,7.754  c-3.569,8.332-11.062,21.604-24.518,28.43c-24.417,12.377-40.788,21.127-45.681,29.618c-0.949,1.645-1.956,3.626-3.02,5.715  c-2.874,5.658-6.811,13.405-10.189,14.402c-0.578,0.178-1.083,0.102-1.692-0.248c-2.778-1.6-5.122-4.255-7.389-6.827  c-3.328-3.778-6.766-7.678-11.773-8.395l-0.972-0.14c-7.014-0.984-21.613-3.042-24.642-11.138l-0.794-2.121  c-2.927-7.849-3.102-8.319-5.944-11.424c-2.077-2.264-1.832-3.107-1.293-4.078c0.044-0.08,0.073-0.158,0.121-0.24  C100.233,159.228,100.621,158.943,101.275,158.879z"/>
<g>
</g>
<g>
</g>
<g>
</g>
<g>
</g>
<g>
</g>
<g>
</g>
<g>
</g>
<g>
</g>
<g>
</g>
<g>
</g>
<g>
</g>
<g>
</g>
<g>
</g>
<g>
</g>
<g>
</g>
</svg>
