<?xml version="1.0" encoding="iso-8859-1"?>
<!-- Generator: Adobe Illustrator 19.0.0, SVG Export Plug-In . SVG Version: 6.00 Build 0)  -->
<svg xmlns="http://www.w3.org/2000/svg" xmlns:xlink="http://www.w3.org/1999/xlink" version="1.1" id="Layer_1" x="0px" y="0px" viewBox="0 0 512 512" style="enable-background:new 0 0 512 512;" xml:space="preserve">
<rect y="0.5" style="fill:#FF4B55;" width="512" height="256"/>
<g>
	<rect y="256.5" style="fill:#F5F5F5;" width="512" height="255"/>
	<path style="fill:#F5F5F5;" d="M86.577,121.683c0-43.383,31.833-79.342,73.398-85.994c2.257-0.361,2.359-3.466,0.132-3.979   c-10.29-2.367-21.22-3.04-32.57-1.494c-44.832,6.106-79.485,44.902-80.119,90.143c-0.723,51.657,40.923,93.721,92.337,93.721   c6.998,0,13.795-0.818,20.333-2.321c2.224-0.511,2.113-3.624-0.141-3.984C118.396,201.126,86.577,165.233,86.577,121.683z"/>
	<path style="fill:#F5F5F5;" d="M160.658,144.896l-3.905,11.71l-12.344,0.096c-1.598,0.012-2.261,2.052-0.975,3.001l9.93,7.333   l-3.724,11.769c-0.482,1.524,1.253,2.785,2.553,1.854l10.042-7.178l10.042,7.178c1.3,0.929,3.035-0.331,2.553-1.854l-3.724-11.769   l9.93-7.333c1.285-0.949,0.623-2.989-0.975-3.001l-12.344-0.096l-3.905-11.71C163.307,143.38,161.163,143.38,160.658,144.896z"/>
	<path style="fill:#F5F5F5;" d="M221.673,144.896l-3.905,11.71l-12.344,0.096c-1.598,0.012-2.261,2.052-0.975,3.001l9.93,7.333   l-3.724,11.769c-0.482,1.524,1.253,2.785,2.553,1.854l10.042-7.178l10.042,7.178c1.3,0.929,3.035-0.331,2.553-1.854l-3.724-11.769   l9.93-7.333c1.285-0.949,0.623-2.989-0.975-3.001l-12.344-0.096l-3.905-11.71C224.323,143.38,222.179,143.38,221.673,144.896z"/>
	<path style="fill:#F5F5F5;" d="M191.44,50.738l-3.905,11.71l-12.344,0.096c-1.598,0.012-2.261,2.052-0.975,3.001l9.93,7.333   l-3.724,11.769c-0.482,1.524,1.253,2.785,2.553,1.854l10.042-7.178l10.042,7.178c1.3,0.929,3.035-0.331,2.553-1.854l-3.724-11.769   l9.93-7.333c1.285-0.949,0.623-2.989-0.975-3.001l-12.344-0.096l-3.905-11.71C194.09,49.222,191.945,49.222,191.44,50.738z"/>
	<path style="fill:#F5F5F5;" d="M142.793,86.811l-3.905,11.71l-12.344,0.096c-1.598,0.012-2.261,2.052-0.975,3.001l9.93,7.333   l-3.724,11.769c-0.482,1.524,1.253,2.785,2.553,1.854l10.042-7.178l10.042,7.178c1.3,0.929,3.035-0.331,2.553-1.854l-3.724-11.769   l9.93-7.333c1.285-0.949,0.623-2.989-0.975-3.001l-12.344-0.096l-3.905-11.71C145.443,85.295,143.299,85.295,142.793,86.811z"/>
	<path style="fill:#F5F5F5;" d="M239.676,86.811l-3.905,11.71l-12.344,0.096c-1.598,0.012-2.261,2.052-0.975,3.001l9.93,7.333   l-3.724,11.769c-0.482,1.524,1.253,2.785,2.553,1.854l10.042-7.178l10.042,7.178c1.3,0.929,3.035-0.331,2.553-1.854l-3.724-11.769   l9.93-7.333c1.285-0.949,0.623-2.989-0.975-3.001l-12.344-0.096l-3.905-11.71C242.325,85.295,240.181,85.295,239.676,86.811z"/>
</g>
<g>
</g>
<g>
</g>
<g>
</g>
<g>
</g>
<g>
</g>
<g>
</g>
<g>
</g>
<g>
</g>
<g>
</g>
<g>
</g>
<g>
</g>
<g>
</g>
<g>
</g>
<g>
</g>
<g>
</g>
</svg>
