<?xml version="1.0" encoding="iso-8859-1"?>
<!-- Generator: Adobe Illustrator 19.0.0, SVG Export Plug-In . SVG Version: 6.00 Build 0)  -->
<svg xmlns="http://www.w3.org/2000/svg" xmlns:xlink="http://www.w3.org/1999/xlink" version="1.1" id="Layer_1" x="0px" y="0px" viewBox="0 0 512 512" style="enable-background:new 0 0 512 512;" xml:space="preserve">
<rect style="fill:#FF4B55;" width="512" height="256"/>
<rect y="256" style="fill:#41479B;" width="512" height="256"/>
<polygon style="fill:#F5F5F5;" points="0,512 256,256 0,0 "/>
<path style="fill:#FFE15A;" d="M115.761,210.07c10.177,24.233-12.877,47.287-37.11,37.11c-6.031-2.533-10.863-7.364-13.395-13.395  c-10.177-24.233,12.877-47.287,37.11-37.11C108.397,199.207,113.229,204.039,115.761,210.07z"/>
<path style="fill:#8CD7FF;" d="M124.39,247.606c0.111,3.364,0.476,6.833,0.829,10.188c1.385,13.163,2.582,24.533-10.06,28.943  c-2.988,1.042-7.06,1.626-10.996,2.19c-5.651,0.81-10.711,1.534-13.654,3.585c-2.943-2.051-8.003-2.775-13.654-3.585  c-3.937-0.564-8.008-1.148-10.996-2.19c-12.642-4.41-11.445-15.78-10.06-28.943c0.353-3.354,0.718-6.824,0.829-10.188  c0.393-11.918-2.119-23.597-3.886-30.197c2.941,1.207,7.018,2.296,12.017,2.209c2.154-0.043,4.573-0.35,7.133-0.674  c5.844-0.744,12.467-1.584,17.767,0.512l0.849,0.379l0.849-0.379c5.3-2.096,11.923-1.257,17.767-0.512  c2.56,0.325,4.979,0.632,7.133,0.674c4.999,0.088,9.077-1.002,12.017-2.209C126.509,224.009,123.997,235.688,124.39,247.606z"/>
<path style="fill:#FF4B55;" d="M129.007,247.452c-0.557-16.894,5.208-33.843,5.265-34.012l-3.633-2.551  c-0.047,0.038-5.511,4.277-14.291,4.108c-1.907-0.036-4.207-0.329-6.641-0.638c-6.113-0.774-13.009-1.651-19.199,0.485  c-6.19-2.136-13.085-1.259-19.199-0.485c-2.434,0.309-4.734,0.602-6.641,0.638c-8.78,0.169-14.244-4.07-14.291-4.108l-3.633,2.551  c0.058,0.169,5.822,17.118,5.265,34.012c-0.105,3.199-0.461,6.583-0.806,9.856c-1.39,13.206-2.964,28.176,13.134,33.791  c3.411,1.189,7.721,1.714,11.863,2.4c12.432,2.06,14.309,5.236,14.309,5.236s1.877-3.176,14.309-5.236  c4.141-0.686,8.452-1.211,11.863-2.4c16.098-5.615,14.523-20.585,13.134-33.791C129.469,254.035,129.112,250.651,129.007,247.452z   M124.39,247.606c0.111,3.364,0.476,6.833,0.829,10.188c1.385,13.163,2.582,24.533-10.06,28.943  c-2.988,1.042-7.06,1.626-10.996,2.19c-5.651,0.81-10.711,1.534-13.654,3.585c-2.943-2.051-8.003-2.775-13.654-3.585  c-3.937-0.564-8.008-1.148-10.996-2.19c-12.642-4.41-11.445-15.78-10.06-28.943c0.353-3.354,0.718-6.824,0.829-10.188  c0.393-11.918-2.119-23.597-3.886-30.197c2.941,1.207,7.018,2.296,12.017,2.209c2.154-0.043,4.573-0.35,7.133-0.674  c5.844-0.744,12.467-1.584,17.767,0.512l0.849,0.379l0.849-0.379c5.3-2.096,11.923-1.257,17.767-0.512  c2.56,0.325,4.979,0.632,7.133,0.674c4.999,0.088,9.077-1.002,12.017-2.209C126.509,224.009,123.997,235.688,124.39,247.606z"/>
<polygon style="fill:#F5F5F5;" points="114.33,276.004 114.33,265.821 116.075,265.821 116.075,262.818 111.807,262.818   111.807,252.36 116.075,252.36 96.558,238.534 96.558,233.333 99.272,233.333 90.509,227.125 81.745,233.333 84.46,233.333   84.46,238.534 64.942,252.36 69.21,252.36 69.21,262.818 64.942,262.818 64.942,265.821 66.687,265.821 66.687,276.004   64.136,276.004 64.136,280.4 116.881,280.4 116.881,276.004 "/>
<g>
	<path style="fill:#41AA5A;" d="M65.193,234.331c-0.623,1.474-0.517,3.036,0.145,4.185c1.285-0.327,2.479-1.34,3.101-2.814   c0.623-1.474,0.517-3.036-0.145-4.185C67.009,231.844,65.816,232.857,65.193,234.331z"/>
	<path style="fill:#41AA5A;" d="M68.217,234.794c0.407,1.547,1.445,2.719,2.671,3.225c0.818-1.044,1.144-2.575,0.736-4.123   c-0.407-1.547-1.445-2.719-2.671-3.225C68.135,231.716,67.809,233.247,68.217,234.794z"/>
	<path style="fill:#41AA5A;" d="M72.914,232.221c1.5,0.558,3.055,0.384,4.175-0.327c-0.383-1.27-1.447-2.418-2.947-2.975   s-3.055-0.384-4.175,0.327C70.35,230.516,71.414,231.664,72.914,232.221z"/>
	<path style="fill:#41AA5A;" d="M74.321,229.582c1.465-0.644,2.46-1.852,2.769-3.142c-1.159-0.645-2.722-0.728-4.187-0.084   s-2.46,1.852-2.769,3.142C71.293,230.143,72.856,230.226,74.321,229.582z"/>
	<path style="fill:#41AA5A;" d="M64.479,230.917c1.305-0.925,2.038-2.309,2.081-3.634c-1.265-0.398-2.813-0.166-4.118,0.76   c-1.305,0.925-2.038,2.309-2.081,3.634C61.626,232.075,63.174,231.842,64.479,230.917z"/>
	<path style="fill:#41AA5A;" d="M63.389,228.983c2.008,1.15,4.159,1.462,5.759,1c-0.412-1.614-1.769-3.311-3.777-4.461   c-2.008-1.15-4.159-1.462-5.759-1C60.024,226.136,61.381,227.833,63.389,228.983z"/>
</g>
<path style="fill:#FFE15A;" d="M71.86,231.341c0-0.781-0.621-1.408-1.395-1.437c-0.029-0.773-0.656-1.395-1.437-1.395  s-1.408,0.621-1.437,1.395c-0.774,0.029-1.395,0.656-1.395,1.437s0.621,1.407,1.395,1.437c0.029,0.773,0.656,1.395,1.437,1.395  s1.408-0.621,1.437-1.395C71.239,232.748,71.86,232.121,71.86,231.341z"/>
<path style="fill:#F5F5F5;" d="M69.779,230.926c0.376,0.778-0.387,1.542-1.165,1.165c-0.143-0.069-0.266-0.192-0.335-0.335  c-0.376-0.778,0.387-1.542,1.165-1.165C69.587,230.66,69.71,230.783,69.779,230.926z"/>
<path style="fill:#FFE15A;" d="M67.341,229.909c0-0.642-0.511-1.157-1.147-1.181c-0.024-0.636-0.539-1.147-1.181-1.147  s-1.157,0.511-1.181,1.147c-0.636,0.024-1.147,0.539-1.147,1.181s0.511,1.157,1.147,1.181c0.024,0.636,0.539,1.147,1.181,1.147  s1.157-0.511,1.181-1.147C66.83,231.067,67.341,230.551,67.341,229.909z"/>
<path style="fill:#F5F5F5;" d="M65.63,229.568c0.309,0.64-0.318,1.268-0.958,0.958c-0.118-0.057-0.219-0.158-0.276-0.276  c-0.309-0.64,0.318-1.268,0.958-0.958C65.472,229.349,65.573,229.45,65.63,229.568z"/>
<path style="fill:#FFE15A;" d="M71.676,227.906c0-0.463-0.368-0.834-0.827-0.851c-0.017-0.458-0.389-0.827-0.851-0.827  s-0.834,0.368-0.851,0.827c-0.458,0.017-0.827,0.389-0.827,0.851c0,0.463,0.368,0.834,0.827,0.851  c0.017,0.458,0.389,0.827,0.851,0.827s0.834-0.368,0.851-0.827C71.308,228.74,71.676,228.369,71.676,227.906z"/>
<path style="fill:#F5F5F5;" d="M70.454,227.685c0.192,0.444-0.233,0.869-0.677,0.677c-0.102-0.044-0.19-0.132-0.235-0.235  c-0.192-0.444,0.233-0.869,0.677-0.677C70.321,227.495,70.41,227.583,70.454,227.685z"/>
<path style="fill:#FFE15A;" d="M68.494,226.459c0-0.463-0.368-0.834-0.827-0.851c-0.017-0.458-0.389-0.827-0.851-0.827  c-0.463,0-0.834,0.368-0.851,0.827c-0.458,0.017-0.827,0.389-0.827,0.851c0,0.463,0.368,0.834,0.827,0.851  c0.017,0.458,0.389,0.827,0.851,0.827c0.463,0,0.834-0.368,0.851-0.827C68.126,227.293,68.494,226.922,68.494,226.459z"/>
<g>
	<path style="fill:#F5F5F5;" d="M67.272,226.238c0.192,0.444-0.233,0.869-0.677,0.677c-0.102-0.044-0.19-0.132-0.235-0.235   c-0.192-0.444,0.233-0.869,0.677-0.677C67.14,226.048,67.228,226.136,67.272,226.238z"/>
	<path style="fill:#F5F5F5;" d="M105.406,239.156h16.021c-1.026-2.35-3.039-4.167-5.535-4.907c0.182-1.166,0.293-2.461,0.293-3.85   c0-4.839-1.24-8.761-2.769-8.761s-2.769,3.922-2.769,8.761c0,1.389,0.111,2.683,0.293,3.85   C108.445,234.989,106.431,236.806,105.406,239.156z"/>
</g>
<path style="fill:#FFE15A;" d="M90.509,317.793c-33.755,0-61.216-27.461-61.216-61.216h11.55c0,27.386,22.28,49.665,49.665,49.665  s49.665-22.279,49.665-49.665h11.55C151.724,290.332,124.263,317.793,90.509,317.793z"/>
<path style="fill:#C87878;" d="M113.196,201.879h-9.983c1.002,0,1.815-0.813,1.815-1.815s-0.813-1.815-1.815-1.815H90.509  c-1.002,0-1.815,0.813-1.815,1.815s0.813,1.815,1.815,1.815H67.821c-1.504,0-2.723,1.219-2.723,2.723  c0,1.503,1.219,2.723,2.723,2.723h8.167c-1.002,0-1.814,0.813-1.814,1.815s0.813,1.815,1.815,1.815h16.335  c1.002,0,1.815-0.813,1.815-1.815s-0.812-1.815-1.814-1.815h20.872c1.504,0,2.723-1.219,2.723-2.723  C115.919,203.098,114.7,201.879,113.196,201.879z"/>
<g>
</g>
<g>
</g>
<g>
</g>
<g>
</g>
<g>
</g>
<g>
</g>
<g>
</g>
<g>
</g>
<g>
</g>
<g>
</g>
<g>
</g>
<g>
</g>
<g>
</g>
<g>
</g>
<g>
</g>
</svg>
