<?xml version="1.0" encoding="iso-8859-1"?>
<!-- Generator: Adobe Illustrator 19.0.0, SVG Export Plug-In . SVG Version: 6.00 Build 0)  -->
<svg xmlns="http://www.w3.org/2000/svg" xmlns:xlink="http://www.w3.org/1999/xlink" version="1.1" id="Layer_1" x="0px" y="0px" viewBox="0 0 512 512" style="enable-background:new 0 0 512 512;" xml:space="preserve">
<rect style="fill:#F5F5F5;" width="512" height="170.67"/>
<rect y="341.33" style="fill:#FF4B55;" width="512" height="170.67"/>
<g>
	<rect y="170.67" style="fill:#41479B;" width="512" height="170.67"/>
	<path style="fill:#41479B;" d="M211.809,105.46c0,0-2.713,86.432-14.841,110.703c-15.013,29.832-30.106,38.534-52.563,46.575   c-22.454-8.038-37.548-16.736-52.563-46.575C79.716,191.889,76.998,105.467,77,105.46C119.853,86.11,168.956,86.11,211.809,105.46z   "/>
</g>
<g>
	<path style="fill:#F5F5F5;" d="M163.923,225.318c-1.642-1.053-2.827-1.807-5.522-1.807c-2.688,0-3.873,0.753-5.507,1.807   c-1.872,1.192-4.202,2.684-8.532,2.684c-4.333,0-6.663-1.492-8.535-2.691c-1.635-1.046-2.816-1.799-5.504-1.799   s-3.869,0.753-5.504,1.799c-1.769,1.134-4.006,2.485-7.893,2.636c8.183,9.98,16.763,14.713,27.472,18.825   c10.702-4.111,19.28-8.842,27.465-18.821C167.945,227.808,165.698,226.448,163.923,225.318z"/>
	<path style="fill:#F5F5F5;" d="M110.795,209.352c1.635,1.046,2.812,1.799,5.493,1.799c2.688,0,3.869-0.753,5.504-1.799   c1.872-1.199,4.202-2.692,8.532-2.692c4.33,0,6.659,1.492,8.532,2.684c1.635,1.053,2.82,1.807,5.507,1.807   c2.688,0,3.869-0.753,5.504-1.799c1.872-1.199,4.202-2.692,8.535-2.692c4.337,0,6.67,1.492,8.543,2.684   c1.642,1.053,2.823,1.807,5.518,1.807s3.88-0.753,5.522-1.807c1.565-0.997,3.528-2.15,6.64-2.52   c0.816-2.123,1.606-4.541,2.345-7.48l-20.102-33.503l-7.489,14.979L144.4,150.862l-14.98,29.958l-7.489-14.979l-20.089,33.483   c0.735,2.937,1.524,5.367,2.34,7.502C107.28,207.197,109.234,208.35,110.795,209.352z"/>
	<path style="fill:#F5F5F5;" d="M181.004,214.084c-1.872,1.192-4.205,2.684-8.543,2.684c-4.333,0-6.667-1.492-8.539-2.684   c-1.642-1.053-2.827-1.807-5.522-1.807c-2.688,0-3.873,0.753-5.507,1.807c-1.872,1.192-4.202,2.684-8.532,2.684   c-4.333,0-6.663-1.492-8.535-2.692c-1.635-1.046-2.816-1.799-5.504-1.799s-3.869,0.753-5.504,1.799   c-1.872,1.199-4.202,2.692-8.532,2.692c-4.326,0-6.652-1.492-8.521-2.692c-0.009-0.005-0.016-0.01-0.026-0.016   c1.468,2.664,2.936,5.112,4.398,7.332c1.094,0.599,2.236,0.993,4.148,0.993c2.688,0,3.869-0.753,5.504-1.799   c1.872-1.199,4.202-2.691,8.532-2.691c4.33,0,6.659,1.492,8.532,2.684c1.635,1.053,2.82,1.807,5.507,1.807   c2.688,0,3.869-0.753,5.504-1.799c1.872-1.199,4.202-2.691,8.535-2.691c4.337,0,6.67,1.492,8.543,2.684   c1.642,1.053,2.823,1.807,5.518,1.807c1.941,0,3.095-0.4,4.204-1.012c1.461-2.217,2.927-4.663,4.394-7.324   C181.041,214.062,181.024,214.071,181.004,214.084z"/>
</g>
<g>
	<path style="fill:#FFE15A;" d="M144.7,125.077l1.314,4.294l4.376-1.009c0.297-0.069,0.504,0.289,0.296,0.512l-3.062,3.285   l3.062,3.285c0.208,0.223,0.002,0.581-0.296,0.512l-4.376-1.009l-1.314,4.294c-0.089,0.292-0.502,0.292-0.591,0l-1.314-4.294   l-4.376,1.009c-0.297,0.069-0.504-0.289-0.296-0.512l3.062-3.285l-3.062-3.285c-0.208-0.223-0.002-0.581,0.296-0.512l4.376,1.009   l1.314-4.294C144.198,124.785,144.611,124.785,144.7,125.077z"/>
	<path style="fill:#FFE15A;" d="M123.168,104.44l1.314,4.294l4.376-1.009c0.297-0.069,0.504,0.289,0.296,0.512l-3.062,3.285   l3.062,3.285c0.208,0.223,0.002,0.581-0.296,0.512l-4.376-1.009l-1.314,4.294c-0.089,0.292-0.502,0.292-0.591,0l-1.314-4.294   l-4.376,1.009c-0.297,0.069-0.504-0.289-0.296-0.512l3.062-3.285l-3.062-3.285c-0.208-0.223-0.002-0.581,0.296-0.512l4.376,1.009   l1.314-4.294C122.666,104.149,123.079,104.149,123.168,104.44z"/>
	<path style="fill:#FFE15A;" d="M166.388,104.44l1.314,4.294l4.376-1.009c0.297-0.069,0.504,0.289,0.296,0.512l-3.062,3.285   l3.062,3.285c0.208,0.223,0.002,0.581-0.296,0.512l-4.376-1.009l-1.314,4.294c-0.089,0.292-0.502,0.292-0.591,0l-1.314-4.294   l-4.376,1.009c-0.297,0.069-0.504-0.289-0.296-0.512l3.062-3.285l-3.062-3.285c-0.208-0.223-0.002-0.581,0.296-0.512l4.376,1.009   l1.314-4.294C165.886,104.149,166.299,104.149,166.388,104.44z"/>
</g>
<path style="fill:#FF1722;" d="M204.056,102.205c0.045,2.388,0.085,4.799,0.085,7.4c-1.081,27.021-5.101,85.868-13.863,103.59  c-12.917,25.942-24.844,34.516-45.873,42.419c-21.029-7.901-32.954-16.473-45.863-42.398  c-8.794-17.791-12.843-77.637-13.876-103.609c0-2.605,0.042-4.988,0.079-7.397c-2.593,1.015-5.169,2.089-7.72,3.24  c0.18,5.248,1.487,39.672,5.411,69.941c2.214,16.897,5.259,32.471,9.407,40.773c15.015,29.839,30.109,38.537,52.563,46.575  c22.457-8.042,37.55-16.743,52.563-46.575c4.148-8.301,7.194-23.875,9.407-40.773c3.923-30.268,5.228-64.693,5.409-69.941  C209.23,104.296,206.652,103.221,204.056,102.205z"/>
<g>
</g>
<g>
</g>
<g>
</g>
<g>
</g>
<g>
</g>
<g>
</g>
<g>
</g>
<g>
</g>
<g>
</g>
<g>
</g>
<g>
</g>
<g>
</g>
<g>
</g>
<g>
</g>
<g>
</g>
</svg>
