<?xml version="1.0" encoding="iso-8859-1"?>
<!-- Generator: Adobe Illustrator 19.0.0, SVG Export Plug-In . SVG Version: 6.00 Build 0)  -->
<svg xmlns="http://www.w3.org/2000/svg" xmlns:xlink="http://www.w3.org/1999/xlink" version="1.1" id="Layer_1" x="0px" y="0px" viewBox="0 0 512 512" style="enable-background:new 0 0 512 512;" xml:space="preserve">
<rect style="fill:#41479B;" width="512" height="512"/>
<polygon style="fill:#73AF00;" points="0,512 512,512 512,13.474 "/>
<polygon style="fill:#FFE15A;" points="512,0 487.834,0 0,487.834 0,512 24.166,512 512,24.166 "/>
<g>
	<path style="fill:#F5F5F5;" d="M62.983,41.744l-6.133,18.39l-19.385,0.15c-1.859,0.014-2.63,2.387-1.134,3.491l15.595,11.516   l-5.847,18.483c-0.561,1.772,1.457,3.239,2.97,2.158L64.82,84.659l15.77,11.273c1.512,1.081,3.53-0.385,2.97-2.158l-5.847-18.483   l15.595-11.516c1.495-1.104,0.725-3.477-1.134-3.491l-19.385-0.15l-6.133-18.39C66.066,39.98,63.571,39.98,62.983,41.744z"/>
	<path style="fill:#F5F5F5;" d="M210.654,41.744l-6.133,18.39l-19.385,0.15c-1.859,0.014-2.63,2.387-1.134,3.491l15.595,11.516   l-5.847,18.483c-0.561,1.772,1.457,3.239,2.97,2.158l15.771-11.273l15.771,11.273c1.512,1.081,3.53-0.385,2.97-2.158l-5.848-18.483   l15.595-11.516c1.495-1.104,0.725-3.477-1.134-3.491l-19.385-0.15l-6.133-18.39C213.737,39.98,211.243,39.98,210.654,41.744z"/>
	<path style="fill:#F5F5F5;" d="M136.819,107.543l-6.133,18.39l-19.385,0.15c-1.859,0.014-2.63,2.387-1.134,3.491l15.595,11.516   l-5.847,18.483c-0.561,1.772,1.457,3.239,2.97,2.158l15.771-11.273l15.771,11.273c1.512,1.081,3.53-0.385,2.97-2.158l-5.848-18.483   l15.595-11.516c1.495-1.104,0.725-3.477-1.134-3.491l-19.385-0.15l-6.133-18.39C139.901,105.779,137.407,105.779,136.819,107.543z"/>
	<path style="fill:#F5F5F5;" d="M62.983,173.342l-6.133,18.39l-19.385,0.15c-1.859,0.014-2.63,2.387-1.134,3.491l15.595,11.516   l-5.847,18.483c-0.561,1.772,1.457,3.239,2.97,2.158l15.771-11.273l15.77,11.273c1.512,1.081,3.53-0.385,2.97-2.158l-5.847-18.483   l15.595-11.516c1.495-1.104,0.725-3.477-1.134-3.491l-19.385-0.15l-6.133-18.39C66.066,171.579,63.571,171.579,62.983,173.342z"/>
	<path style="fill:#F5F5F5;" d="M210.654,173.342l-6.133,18.39l-19.385,0.15c-1.859,0.014-2.63,2.387-1.134,3.491l15.595,11.516   l-5.847,18.483c-0.561,1.772,1.457,3.239,2.97,2.158l15.771-11.273l15.771,11.273c1.512,1.081,3.53-0.385,2.97-2.158l-5.848-18.483   l15.595-11.516c1.495-1.104,0.725-3.477-1.134-3.491l-19.385-0.15l-6.133-18.39C213.737,171.579,211.243,171.579,210.654,173.342z"/>
</g>
<g>
</g>
<g>
</g>
<g>
</g>
<g>
</g>
<g>
</g>
<g>
</g>
<g>
</g>
<g>
</g>
<g>
</g>
<g>
</g>
<g>
</g>
<g>
</g>
<g>
</g>
<g>
</g>
<g>
</g>
</svg>
