<?xml version="1.0" encoding="iso-8859-1"?>
<!-- Generator: Adobe Illustrator 19.0.0, SVG Export Plug-In . SVG Version: 6.00 Build 0)  -->
<svg xmlns="http://www.w3.org/2000/svg" xmlns:xlink="http://www.w3.org/1999/xlink" version="1.1" id="Layer_1" x="0px" y="0px" viewBox="0 0 512 512" style="enable-background:new 0 0 512 512;" xml:space="preserve">
<rect style="fill:#73AF00;" width="512" height="170.76"/>
<rect y="341.24" style="fill:#FF4B55;" width="512" height="170.76"/>
<rect y="170.76" style="fill:#F5F5F5;" width="512" height="170.48"/>
<path style="fill:#464655;" d="M259.666,214.524l9.075,27.211l28.683,0.222c3.714,0.029,5.253,4.768,2.266,6.974l-23.074,17.039  l8.652,27.348c1.12,3.541-2.911,6.47-5.932,4.31L256,280.949l-23.336,16.68c-3.021,2.159-7.053-0.769-5.932-4.31l8.652-27.348  l-23.074-17.039c-2.987-2.206-1.448-6.945,2.266-6.974l28.683-0.222l9.075-27.211C253.508,211.001,258.492,211.001,259.666,214.524z  "/>
<g>
	<path style="fill:#F5F5F5;" d="M136.486,76.921c0.693,4.441,3.378,5.835,5.712,5.654c2.752-0.214,5.167-2.731,5.167-5.389V61.943   c0-0.763,0.621-1.386,1.386-1.386s1.386,0.622,1.386,1.386v15.308c0,1.84,0.909,3.556,2.434,4.587   c0.931,0.631,2.015,0.955,3.107,0.955c0.696,0,1.394-0.133,2.06-0.398l1.385-0.554c0.128,12.795-0.651,24.04-0.665,24.246   c-0.108,1.526,1.041,2.853,2.567,2.961c0.068,0.005,0.134,0.008,0.2,0.008c1.441,0,2.658-1.115,2.762-2.574   c0.064-0.901,0.919-13.216,0.662-26.852l0.837-0.335c0.735-0.292,1.559-0.257,2.265,0.095c3.053,1.521,6.726,0.928,9.138-1.483   l0.499-0.498c2.24-2.244,3.01-5.502,2.007-8.509l-2.36-7.08c1.276,0.384,2.678-0.181,3.294-1.41c0.685-1.369,0.13-3.034-1.24-3.719   l-5.543-2.771c-1.003-0.503-2.206-0.349-3.056,0.384c-0.847,0.736-1.168,1.908-0.813,2.972l4.459,13.378   c0.334,1.001,0.077,2.089-0.669,2.836l-0.498,0.498c-0.723,0.723-1.823,0.899-2.743,0.444c-1.797-0.897-3.841-1.066-5.76-0.576   c-0.389-8.895-1.347-17.754-3.388-23.877c-0.483-1.451-2.05-2.238-3.506-1.751c-1.452,0.482-2.237,2.052-1.752,3.505   c1.997,5.989,2.867,15.115,3.175,24.189l-3.317,1.327V61.943c0-3.822-3.108-6.929-6.929-6.929c-3.82,0-6.929,3.107-6.929,6.929   v13.416l-2.827-13.965c-0.302-1.502-1.762-2.482-3.265-2.168c-1.501,0.306-2.471,1.767-2.167,3.267L136.486,76.921z"/>
	<path style="fill:#F5F5F5;" d="M141.822,53.629c1.531,0,2.771-1.24,2.771-2.771v-2.771c0-1.532-1.241-2.771-2.771-2.771   c-1.531,0-2.771,1.24-2.771,2.771v2.771C139.051,52.389,140.291,53.629,141.822,53.629z"/>
	<path style="fill:#F5F5F5;" d="M169.536,50.857h2.771c1.531,0,2.771-1.24,2.771-2.771c0-1.532-1.241-2.771-2.771-2.771h-2.771   c-1.531,0-2.771,1.24-2.771,2.771C166.765,49.618,168.006,50.857,169.536,50.857z"/>
	<path style="fill:#F5F5F5;" d="M151.481,87.281l-13.857,8.314c-1.313,0.788-1.738,2.49-0.95,3.803   c0.52,0.866,1.437,1.345,2.379,1.345c0.486,0,0.977-0.127,1.424-0.395l13.857-8.314c1.313-0.788,1.738-2.49,0.95-3.803   S152.795,86.493,151.481,87.281z"/>
	<path style="fill:#F5F5F5;" d="M188.846,92.183l0.065-0.044c0.233,0.936,0.632,1.843,1.279,2.604   c1.126,1.326,2.815,1.992,4.723,1.835c2.706-0.198,4.547-1.434,5.765-3.031c0.185,0.127,0.38,0.244,0.585,0.346   c1.498,0.755,3.23,0.698,4.88-0.157c4.188-2.157,5.091-7.148,4.964-9.757c-0.074-1.521-1.368-2.596-2.885-2.625   c-1.522,0.065-2.706,1.356-2.652,2.877c0.001,0.035,0.064,3.324-1.947,4.544c-0.327-0.457-0.717-1.486-0.863-2.336   c-0.234-1.426-1.544-2.42-2.954-2.306c-1.437,0.114-2.547,1.321-2.552,2.763c-0.001,0.403-0.091,3.96-2.836,4.257   c-0.319-0.436-0.325-2.271-0.011-3.627c0.265-1.112-0.181-2.273-1.122-2.923c-0.943-0.652-2.187-0.652-3.133-0.011l-1.547,1.052   c-0.735-16.072-2.427-34.801-2.448-35.04c-0.138-1.521-1.478-2.655-3.011-2.509c-1.525,0.138-2.648,1.486-2.51,3.012   c0.024,0.256,1.981,21.925,2.585,38.473c-0.141,0.135-0.288,0.282-0.427,0.411c-1.096-2.763-3.268-4.504-6.067-4.769   c-3.949-0.349-8.228,2.338-9.761,6.176c-1.322,3.302-0.49,6.547,2.119,8.266c1.876,1.237,4.707,1.627,8.266,0.379   c-0.869,3.053-2.451,6.149-4.508,8.544c-1.842,2.146-4.918,4.623-8.854,4.512c-2.291-0.089-4.052-0.839-5.382-2.295   c-3.209-3.505-2.932-9.849-2.93-9.917c0.08-1.526-1.089-2.828-2.614-2.912c-1.536-0.162-2.836,1.085-2.92,2.614   c-0.019,0.352-0.421,8.688,4.352,13.93c2.349,2.585,5.471,3.968,9.278,4.117c0.185,0.008,0.371,0.011,0.558,0.011   c4.636,0,9.134-2.273,12.718-6.45c3.371-3.925,5.659-9.256,6.346-14.205c-0.009,9.481-5.722,20.174-13.298,24.885   c-3.217,1.997-8.232,3.8-13.881,1.015c-6.964-3.437-6.134-11.397-6.098-11.722c0.191-1.518-0.888-2.904-2.406-3.093   c-1.512-0.184-2.905,0.885-3.094,2.406c-0.062,0.495-1.394,12.179,9.145,17.378c2.706,1.337,5.537,2,8.39,2   c3.665,0,7.363-1.096,10.869-3.278c9.222-5.732,15.917-18.187,15.917-29.614C188.936,96.188,188.903,94.235,188.846,92.183z    M172.134,95.04c-0.495-0.327-0.108-1.375-0.024-1.583c0.583-1.461,2.409-2.725,3.868-2.725c0.074,0,0.15,0.003,0.223,0.011   c0.355,0.032,1.295,0.122,1.7,2.214c0.043,0.222,0.08,0.449,0.108,0.682C174.919,95.452,172.849,95.509,172.134,95.04z"/>
	<path style="fill:#F5F5F5;" d="M143.221,120.53c-1.313-0.771-3.01-0.33-3.789,0.982c-0.127,0.214-0.296,0.447-0.468,0.658   c-0.03-0.07-0.06-0.146-0.089-0.227c-1.156-3.083-0.333-7.833,0.083-9.402c0.391-1.478-0.489-2.993-1.966-3.389   c-1.475-0.379-2.992,0.482-3.389,1.959c-0.202,0.75-1.905,7.478,0.081,12.777c1.272,3.388,3.225,4.244,4.64,4.36   c0.126,0.011,0.25,0.016,0.373,0.016c2.984,0,4.969-3.007,5.521-3.96C144.984,122.985,144.537,121.304,143.221,120.53z"/>
	<path style="fill:#F5F5F5;" d="M194.365,70.257c0.599,0,1.203-0.192,1.71-0.593l13.972-10.969c0.193-0.151,0.316-0.35,0.457-0.536   c2.012-1.214,3.374-3.399,3.374-5.916c0-3.822-3.108-6.929-6.929-6.929c-3.82,0-6.929,3.107-6.929,6.929   c0,2.138,0.994,4.028,2.52,5.3l-9.889,7.764c-1.203,0.945-1.413,2.688-0.468,3.889C192.731,69.895,193.544,70.257,194.365,70.257z    M206.95,50.857c0.765,0,1.386,0.622,1.386,1.386s-0.621,1.386-1.386,1.386s-1.386-0.622-1.386-1.386S206.186,50.857,206.95,50.857   z"/>
	<path style="fill:#F5F5F5;" d="M203.67,67.629c-1.46-0.487-3.023,0.3-3.506,1.751c-0.296,0.888-1.636,5.459,1.08,8.174   c1.054,1.056,2.44,1.583,4.141,1.581c1.137,0,2.414-0.233,3.828-0.706c1.452-0.482,2.237-2.051,1.752-3.505   c-0.484-1.451-2.051-2.241-3.506-1.751c-1.548,0.514-2.203,0.43-2.263,0.484c-0.164-0.411-0.055-1.648,0.229-2.533   C205.903,69.675,205.118,68.111,203.67,67.629z"/>
	<path style="fill:#F5F5F5;" d="M235.389,56.173c0.26,0.076,0.521,0.111,0.778,0.111c1.2,0,2.306-0.785,2.659-1.995l1.617-5.543   c0.429-1.47-0.415-3.01-1.884-3.437c-1.474-0.425-3.008,0.414-3.437,1.884l-1.617,5.543   C233.076,54.205,233.92,55.745,235.389,56.173z"/>
	<path style="fill:#F5F5F5;" d="M219.235,55.848c0.44,0.257,0.922,0.379,1.397,0.379c0.953,0,1.88-0.49,2.395-1.372   c0.773-1.321,0.327-3.02-0.993-3.792c-0.558-0.325-0.482-1.242-0.461-1.424c0.083-0.728,0.517-1.616,1.272-1.851   c1.461-0.455,2.277-2.008,1.823-3.47c-0.457-1.464-2.008-2.273-3.471-1.824c-2.763,0.861-4.777,3.418-5.131,6.514   C215.736,51.891,216.951,54.511,219.235,55.848z"/>
	<path style="fill:#F5F5F5;" d="M197.25,100.743c-1.531,0-2.771,1.24-2.771,2.771c0,1.353,0.969,2.479,2.252,2.723   c0.146,0.214,0.52,0.947,0.52,2.82c0,1.532,1.241,2.771,2.771,2.771c1.531,0,2.771-1.24,2.771-2.771   C202.793,100.838,197.476,100.743,197.25,100.743z"/>
	<path style="fill:#F5F5F5;" d="M244.269,89.267c0.348,0.057,0.694,0.084,1.042,0.084c2.177,0,4.378-1.099,6.556-3.278   c1.083-1.083,1.083-2.836,0-3.919s-2.836-1.083-3.919,0c-1.658,1.659-2.549,1.694-2.778,1.643   c-0.529-0.076-1.008-0.766-1.115-0.955c-0.696-1.348-2.344-1.886-3.701-1.207c-1.369,0.685-1.924,2.349-1.24,3.719   C239.286,85.698,240.887,88.718,244.269,89.267z"/>
	<path style="fill:#F5F5F5;" d="M291.377,69.792c-0.018-0.043-0.034-0.084-0.047-0.122c-0.491-1.44-2.061-2.222-3.498-1.732   c-1.453,0.482-2.238,2.052-1.754,3.505c0.217,0.65,1.451,3.908,4.509,4.32c0.204,0.027,0.407,0.041,0.609,0.041   c1.92,0,3.721-1.242,5.36-3.7c0.848-1.272,0.505-2.993-0.769-3.843c-1.275-0.847-2.996-0.506-3.843,0.769   C291.725,69.356,291.536,69.605,291.377,69.792z"/>
	<path style="fill:#F5F5F5;" d="M285.936,120.143c0-11.819-0.52-22.906-1.241-32.62c3.936,6.825,7.475,13.721,9.731,19.737   c0.418,1.112,1.474,1.797,2.595,1.797c0.323,0,0.652-0.057,0.973-0.176c1.433-0.539,2.16-2.135,1.623-3.57   c-3.508-9.352-9.813-20.489-16.027-30.376c-1.515-14.929-3.211-24.405-3.241-24.574c-0.273-1.508-1.713-2.525-3.222-2.23   c-1.506,0.273-2.505,1.716-2.231,3.221c0.022,0.12,0.896,5.002,1.939,13.217c-2.129-3.16-4.107-6.01-5.767-8.356l0.135,0.043   c1.46,0.487,3.022-0.3,3.506-1.751c0.484-1.453-0.3-3.023-1.752-3.505l-8.314-2.771c-1.153-0.39-2.418,0.022-3.125,1.007   c-0.189,0.263-0.319,0.551-0.405,0.849c-1.659-1.227-3.787-2.224-5.785-1.388c-1.208,0.501-2.648,1.762-2.648,4.931   c0,2.433,0.928,5.064,1.912,7.851c1.632,4.623,2.654,8.022,0.926,9.643c-0.955,0.896-1.909,1.234-2.84,0.999   c-1.709-0.433-3.401-2.709-4.528-6.09c-0.049-0.146-0.151-0.253-0.221-0.385c0.583-4.293,0.329-9.465-0.845-15.334   c-0.299-1.502-1.755-2.479-3.261-2.173c-1.501,0.3-2.474,1.759-2.173,3.261c1.809,9.05,1.267,16.434-1.452,19.749   c-1.051,1.283-2.368,1.878-4.145,1.878c-0.562,0-0.945-0.179-1.326-0.617c-2.187-2.52-2.177-10.65-1.472-15.622   c0.112-0.793-0.126-1.6-0.652-2.206c-0.526-0.606-1.29-0.955-2.092-0.955c-4.769,0-6.577,5.424-8.172,10.209   c-0.7,2.103-2.004,6.014-2.914,6.42c-1.678,0-2.762-4.926-2.771-8.317c-0.004-1.529-1.244-2.766-2.771-2.766h-0.004   c-1.529,0-2.767,1.24-2.767,2.769c0,6.393,2.177,13.857,8.314,13.857c4.57,0,6.421-4.98,7.971-9.608   c0.269,3.681,1.1,7.494,3.144,9.849c1.436,1.656,3.342,2.531,5.514,2.531c3.421,0,6.336-1.351,8.431-3.905   c0.379-0.463,0.707-0.993,1.029-1.529c1.609,2.288,3.583,3.796,5.807,4.358c0.652,0.165,1.309,0.249,1.958,0.249   c2.139,0,4.23-0.882,6.035-2.579c0.376-0.353,0.64-0.739,0.926-1.118c0.678,0.194,1.365,0.309,2.047,0.309   c2.245,0,4.406-0.904,5.747-1.765c1.283-0.823,1.654-2.522,0.839-3.811c-0.816-1.286-2.524-1.67-3.816-0.863   c-0.023,0.011-1.875,1.074-3.137,0.826c0.004-3.038-1.096-6.265-2.1-9.107c-0.571-1.618-1.157-3.278-1.433-4.633   c0.229,0.192,0.452,0.392,0.651,0.587c1.08,1.083,2.835,1.083,3.918,0c0.179-0.179,0.283-0.397,0.403-0.606   c2.873,3.958,8.781,12.274,14.859,21.86c1.16,11.783,2.179,26.815,2.179,43.3c0,1.532,1.241,2.771,2.771,2.771   S285.936,121.675,285.936,120.143z"/>
	<path style="fill:#F5F5F5;" d="M288.707,59.172c0,1.532,1.241,2.771,2.771,2.771s2.771-1.24,2.771-2.771   c0-3.261-2.552-8.531-3.064-9.554c-0.685-1.367-2.348-1.919-3.719-1.24c-1.369,0.685-1.924,2.349-1.24,3.719   C287.228,54.097,288.707,57.726,288.707,59.172z"/>
	<path style="fill:#F5F5F5;" d="M276.097,120.446c-1.359-0.693-3.029-0.143-3.72,1.221c-0.298,0.582-0.759,1.229-1.149,1.646   c-0.123-1.102,0.171-3.302,0.729-5.126c0.372-1.218-0.133-2.533-1.223-3.188c-1.087-0.658-2.487-0.487-3.386,0.414l-5.543,5.543   c-1.083,1.083-1.083,2.836,0,3.919s2.836,1.083,3.919,0l0.141-0.141c0.24,1.112,0.698,2.127,1.483,2.912   c1.039,1.039,2.295,1.589,3.601,1.589c0.253,0,0.507-0.022,0.762-0.062c3.14-0.509,5.094-3.97,5.619-5.018   C278.012,122.787,277.459,121.133,276.097,120.446z"/>
	<path style="fill:#F5F5F5;" d="M275.024,98.145h-19.533c0.173-0.69,0.352-1.348,0.533-1.973c7.789-1.618,12.419-4.133,13.78-7.489   c0.471-1.164,0.962-3.516-1.042-6.219c-1.807-2.436-4.357-3.529-7.006-2.988c-3.938,0.798-7.447,5.042-9.965,11.835   c-7.824,1.34-12.832,4.148-16.002,6.919c-1.125-11.357-5.534-18.104-5.747-18.425c-0.85-1.275-2.571-1.618-3.843-0.769   c-1.273,0.85-1.617,2.568-0.769,3.843c0.05,0.076,5.077,7.765,5.077,20.634c0,12.65-10.087,22.171-16.629,22.171   c-3.112,0-4.474-3.699-5.073-6.826c6.405-4.489,12.056-9.683,13.304-14.674c1.689-6.753-0.437-11.73-1.843-15.024   c-0.066-0.152-0.135-0.314-0.206-0.482c0.06,0.054,0.116,0.111,0.173,0.165c1.08,1.083,2.835,1.083,3.918,0s1.083-2.836,0-3.919   c-1.62-1.621-4.766-4.168-7.625-2.972c-1.208,0.501-2.648,1.762-2.648,4.931c0,1.432,0.598,2.831,1.291,4.455   c1.248,2.92,2.8,6.555,1.563,11.502c-0.732,2.928-4.327,6.479-9.071,10.005c-0.508-0.608-1.243-1.017-2.097-1.017h-0.004   c-1.529,0.003-2.767,1.24-2.767,2.769c0,0.498,0.022,1.032,0.054,1.579c-5.931,3.841-12.643,7.396-17.83,9.756   c-1.392,0.633-2.008,2.276-1.375,3.67c0.464,1.02,1.471,1.624,2.524,1.624c0.384,0,0.774-0.078,1.145-0.249   c1.558-0.708,8.955-4.154,16.552-8.863c1.399,4.751,4.364,9.112,10.016,9.112c6.649,0,14.191-5.436,18.544-13.554   c0.525,0.928,1.13,1.817,1.85,2.647c6.976,8.044,20.602,8.136,21.178,8.136c1.493,0,2.716-1.18,2.77-2.671   c0.053-1.491-1.084-2.758-2.571-2.863c-0.022-0.003-2.23-0.246-3.459-1.681c-0.742-0.866-1.038-2.057-0.907-3.64   c0.284-3.416,11.301-5.968,21.01-6.119c1.157-0.019,2.181-0.752,2.57-1.843l2.771-7.795c0.302-0.847,0.172-1.792-0.348-2.525   C276.769,98.583,275.923,98.145,275.024,98.145z M262.858,84.91c0.053-0.011,0.123-0.027,0.211-0.027   c0.265,0,0.683,0.13,1.241,0.882c0.106,0.141,0.443,0.622,0.357,0.834c-0.318,0.785-2.231,2.081-6.218,3.256   C260.203,86.434,261.918,85.099,262.858,84.91z M246.121,121.342c-2.816-0.915-5.685-2.365-7.671-4.663   c-2.183-2.525-2.989-5.719-2.46-9.76c0.08-0.212,0.261-0.631,0.578-1.175c3.903-0.357,14.328,1.181,15.051,4.167   c-3.216,1.642-5.585,3.95-5.858,7.231C245.623,118.787,245.791,120.181,246.121,121.342z"/>
	<path style="fill:#F5F5F5;" d="M305.194,58.295l-2.771-8.314c-0.447-1.337-1.834-2.135-3.209-1.832   c-1.382,0.295-2.319,1.581-2.179,2.985c1.912,19.124,5.529,56.419,5.529,60.695c0,3.84-6.831,11.402-17.868,16.921   c-1.369,0.685-1.924,2.349-1.24,3.719c0.486,0.972,1.464,1.532,2.482,1.532c0.415,0,0.839-0.095,1.237-0.292   c10.082-5.042,20.932-14.038,20.932-21.879c0-4.095-2.832-33.558-4.455-50.108C304.968,61.161,305.654,59.675,305.194,58.295z"/>
	<path style="fill:#F5F5F5;" d="M328.319,83.302c0.533,0.533,1.242,0.812,1.961,0.812c0.468,0,0.94-0.119,1.369-0.363   c1.084-0.617,1.623-1.884,1.315-3.093c-0.497-1.949-0.662-4.384-0.399-5.38c1.388,0.043,2.677-0.945,2.881-2.376   c0.217-1.516-0.836-2.92-2.351-3.137c-1.832-0.249-3.441,0.29-4.566,1.54c-0.728,0.812-1.161,1.854-1.397,2.974l-3.21-3.21   c-1.083-1.083-2.836-1.083-3.919,0s-1.083,2.836,0,3.919L328.319,83.302z"/>
	<path style="fill:#F5F5F5;" d="M334.554,86.193l-10.393,7.448c-1.244,0.89-1.531,2.623-0.639,3.868   c0.541,0.755,1.392,1.156,2.256,1.156c0.559,0,1.123-0.168,1.612-0.52l10.393-7.448c1.244-0.89,1.531-2.623,0.639-3.868   C337.528,85.584,335.793,85.294,334.554,86.193z"/>
	<path style="fill:#F5F5F5;" d="M333.634,96.616c-0.871,1.123-0.747,2.704,0.242,3.675c0.119,0.2,0.659,1.261,0.562,3.989   c-0.054,1.532,1.142,2.815,2.671,2.869c0.034,0.003,0.068,0.003,0.1,0.003c1.486,0,2.715-1.177,2.769-2.671   c0.202-5.657-1.65-7.724-2.455-8.349C336.317,95.186,334.573,95.408,333.634,96.616z"/>
	<path style="fill:#F5F5F5;" d="M357.82,117.025c1.531,0,2.771-1.24,2.771-2.771c0-4.089-0.21-8.654-0.554-13.403   c2.748,4.503,5.031,8.654,6.495,12.069c0.449,1.053,1.472,1.681,2.548,1.681c0.364,0,0.735-0.07,1.091-0.225   c1.406-0.604,2.058-2.233,1.455-3.637c-2.537-5.921-7.279-13.765-12.679-21.863c-1.087-10.173-2.507-20.139-3.611-27.289   c0.587,0.06,1.196-0.084,1.731-0.43c0.875-0.561,1.286-1.534,1.227-2.504c0.071,0.272,0.147,0.546,0.307,0.796   c0.019,0.027,1.8,2.969,1.009,6.785c-0.31,1.497,0.654,2.964,2.153,3.275c0.189,0.038,0.379,0.057,0.564,0.057   c1.287,0,2.44-0.901,2.712-2.211c1.252-6.054-1.639-10.688-1.762-10.883c-0.823-1.288-2.536-1.667-3.827-0.85   c-0.879,0.56-1.295,1.535-1.237,2.506c-0.072-0.274-0.151-0.549-0.312-0.801l-4.677-7.275c-0.715-1.11-2.112-1.559-3.34-1.083   c-1.23,0.482-1.95,1.762-1.721,3.061c0.038,0.218,2.157,12.38,4.034,27.038c-2.125-3.001-4.249-5.934-6.309-8.734   c-0.335-4.193-0.671-8.07-0.961-11.275c0.153-0.046,0.303-0.106,0.451-0.179c1.369-0.685,1.924-2.349,1.24-3.719l-2.771-5.543   c-0.598-1.196-1.964-1.792-3.249-1.424c-1.284,0.373-2.121,1.608-1.988,2.939c0.331,3.307,0.675,6.969,1.013,10.815   c-1.753-2.311-3.375-4.426-4.762-6.217c0.271-0.233,0.502-0.522,0.673-0.863c0.685-1.369,0.13-3.034-1.24-3.719l-5.543-2.771   c-1.162-0.579-2.574-0.276-3.395,0.736c-0.817,1.012-0.821,2.457-0.008,3.475c0.15,0.186,6.973,8.74,15.136,19.781   c1.416,18.311,2.358,37.359,1.027,41.353c-0.244,0.731-0.669,1.591-1.068,1.621c-1.675,0.233-5.673-3.513-7.681-7.527   c-1.157-2.311-2.822-2.552-3.712-2.512c-2.978,0.184-4.141,3.462-6.253,9.41c-1.514,4.263-3.395,9.562-5.508,11.73   c-1.144-1.398-2.624-6.09-3.446-10.912c0.386,1.066,1.384,1.837,2.583,1.837c1.531,0,2.771-1.24,2.771-2.771   c0-4.133-2.891-35.609-4.505-52.86c1.348-0.541,2.057-2.049,1.591-3.445l-2.771-8.314c-0.445-1.337-1.813-2.125-3.203-1.835   c-1.379,0.292-2.319,1.572-2.185,2.974c1.884,19.771,5.415,57.959,5.525,63.229c-0.007-0.047-0.016-0.094-0.023-0.142   c-0.215-1.516-1.629-2.555-3.135-2.352c-1.516,0.219-2.567,1.621-2.351,3.137c0.809,5.665,2.877,15.405,7.64,16.991   c0.376,0.127,0.882,0.241,1.476,0.241c1.092,0,2.48-0.387,3.9-1.808c3.019-3.018,5.061-8.772,6.864-13.846   c0.407-1.148,0.889-2.506,1.344-3.67c2.543,3.713,6.979,8.336,11.473,7.973c1.581-0.114,4.455-0.964,5.933-5.397   c1.474-4.421,0.891-19.84-0.102-34.601c2.335,3.273,4.672,6.623,6.902,9.934c0.864,8.299,1.483,16.614,1.483,23.444   C355.048,115.785,356.289,117.025,357.82,117.025z"/>
	<path style="fill:#F5F5F5;" d="M378.852,102.448c-1.964-14.626-4.698-31.568-6.431-41.967c0.782,0.192,1.635,0.035,2.322-0.493   c1.218-0.928,1.451-2.669,0.522-3.884l-5.023-6.582c-0.775-1.012-2.142-1.369-3.313-0.858c-1.171,0.512-1.839,1.757-1.621,3.015   c0.05,0.284,4.992,28.735,8.049,51.504c1.168,8.701-0.537,16.477-4.563,20.797c-2.587,2.774-6.016,4.03-10.165,3.789   c-1.524-0.081-2.844,1.066-2.941,2.593c-0.096,1.526,1.064,2.842,2.591,2.939c0.468,0.03,0.93,0.043,1.387,0.043   c5.226,0,9.762-1.916,13.182-5.586C378.071,122.156,380.259,112.93,378.852,102.448z"/>
	<path style="fill:#F5F5F5;" d="M348.363,120.717c-1.019,1.107-0.941,2.85,0.137,3.895c0.15,0.146,0.33,0.433,0.332,0.574   c0.001,0.078-0.111,0.311-0.419,0.62c-1.083,1.083-1.083,2.836,0,3.919c0.541,0.541,1.25,0.812,1.959,0.812s1.418-0.271,1.96-0.812   c1.758-1.757,2.08-3.54,2.041-4.728c-0.085-2.558-1.827-4.209-2.175-4.514C351.066,119.496,349.381,119.615,348.363,120.717z"/>
</g>
<g>
</g>
<g>
</g>
<g>
</g>
<g>
</g>
<g>
</g>
<g>
</g>
<g>
</g>
<g>
</g>
<g>
</g>
<g>
</g>
<g>
</g>
<g>
</g>
<g>
</g>
<g>
</g>
<g>
</g>
</svg>
