<?xml version="1.0" encoding="iso-8859-1"?>
<!-- Generator: Adobe Illustrator 19.0.0, SVG Export Plug-In . SVG Version: 6.00 Build 0)  -->
<svg xmlns="http://www.w3.org/2000/svg" xmlns:xlink="http://www.w3.org/1999/xlink" version="1.1" id="Layer_1" x="0px" y="0px" viewBox="0 0 512 512" style="enable-background:new 0 0 512 512;" xml:space="preserve">
<rect style="fill:#464655;" width="512" height="170.67"/>
<rect y="341.33" style="fill:#73AF00;" width="512" height="170.67"/>
<rect y="170.67" style="fill:#FF4B55;" width="512" height="170.67"/>
<g>
	<path style="fill:#F5F5F5;" d="M95.399,233.164l5.247,11.381l12.169-2.994c0.76-0.187,1.389,0.603,1.038,1.302l-5.627,11.198   l9.928,7.648c0.62,0.477,0.395,1.462-0.37,1.623l-12.263,2.583l0.211,12.53c0.013,0.782-0.897,1.22-1.5,0.722l-9.665-7.977   l-9.665,7.977c-0.603,0.498-1.513,0.06-1.5-0.722l0.211-12.53l-12.263-2.583c-0.766-0.161-0.99-1.146-0.37-1.623l9.928-7.648   l-5.627-11.198c-0.351-0.699,0.278-1.489,1.038-1.302l12.169,2.994l5.247-11.381C94.062,232.454,95.071,232.454,95.399,233.164z"/>
	<rect y="161.68" style="fill:#F5F5F5;" width="512" height="22.905"/>
	<rect y="327.41" style="fill:#F5F5F5;" width="512" height="22.905"/>
</g>
<path style="fill:#41479B;" d="M0.001,512l244.325-249.017c3.493-3.57,3.493-10.397,0-13.966L0.001,0V512z"/>
<path style="fill:#FFE15A;" d="M81.118,214.847l19.831,20.297l25.624-12.192c3.317-1.579,6.735,1.974,5.029,5.228l-13.176,25.132  l19.514,20.602c2.526,2.667,0.204,7.015-3.418,6.399l-27.974-4.764l-13.564,24.925c-1.756,3.227-6.609,2.362-7.142-1.273  l-4.113-28.077l-27.897-5.198c-3.612-0.673-4.288-5.556-0.996-7.186l25.432-12.588l-3.677-28.137  C74.115,214.371,78.55,212.219,81.118,214.847z"/>
<g>
</g>
<g>
</g>
<g>
</g>
<g>
</g>
<g>
</g>
<g>
</g>
<g>
</g>
<g>
</g>
<g>
</g>
<g>
</g>
<g>
</g>
<g>
</g>
<g>
</g>
<g>
</g>
<g>
</g>
</svg>
