<?xml version="1.0" encoding="iso-8859-1"?>
<!-- Generator: Adobe Illustrator 19.0.0, SVG Export Plug-In . SVG Version: 6.00 Build 0)  -->
<svg version="1.1" id="Layer_1" xmlns="http://www.w3.org/2000/svg" xmlns:xlink="http://www.w3.org/1999/xlink" x="0px" y="0px"
	 viewBox="0 0 512 512" style="enable-background:new 0 0 512 512;" xml:space="preserve">
<rect style="fill:#F5F5F5;" width="512" height="512"/>
<path style="fill:#FF4B55;" d="M305.008,182.532c-40.562-27.042-95.35-15.985-122.374,24.507
	c-13.555,20.211-8.046,47.674,12.235,61.195c20.265,13.521,47.64,8.03,61.161-12.252c13.521-20.281,40.914-25.704,61.179-12.253
	c20.297,13.521,25.756,40.984,12.217,61.195C356.468,264.362,345.537,209.574,305.008,182.532"/>
<path style="fill:#41479B;" d="M182.634,207.039c-13.555,20.211-8.046,47.674,12.235,61.195c20.265,13.521,47.64,8.03,61.161-12.252
	c13.521-20.281,40.914-25.704,61.179-12.253c20.297,13.521,25.756,40.984,12.217,61.195
	c-27.006,40.633-81.776,51.548-122.338,24.507C166.561,302.39,155.593,247.602,182.634,207.039"/>
<g>
	<path style="fill:#464655;" d="M349.92,149.189l16.035,24.101c1.347,2.025,0.802,4.759-1.219,6.112l-4.066,2.723
		c-2.029,1.358-4.775,0.812-6.129-1.22l-16.055-24.096c-1.351-2.027-0.804-4.766,1.222-6.118l4.086-2.728
		C345.825,146.608,348.569,147.158,349.92,149.189z"/>
	<path style="fill:#464655;" d="M374.66,186.351l16.087,24.087c1.359,2.034,0.804,4.785-1.237,6.134l-4.084,2.699
		c-2.026,1.339-4.754,0.789-6.103-1.23l-16.078-24.061c-1.354-2.026-0.809-4.767,1.217-6.122l4.074-2.724
		C370.564,183.778,373.306,184.323,374.66,186.351z"/>
	<path style="fill:#464655;" d="M367.088,137.733l40.829,61.274c1.351,2.028,0.803,4.768-1.225,6.12l-4.102,2.735
		c-2.028,1.352-4.769,0.804-6.121-1.224l-40.843-61.269c-1.353-2.029-0.803-4.771,1.227-6.122l4.115-2.739
		C362.998,135.156,365.737,135.705,367.088,137.733z"/>
	<path style="fill:#464655;" d="M384.211,126.291l16.07,24.149c1.354,2.034,0.797,4.781-1.241,6.128l-4.087,2.701
		c-2.028,1.34-4.757,0.789-6.106-1.234l-16.082-24.117c-1.353-2.028-0.805-4.769,1.224-6.121l4.099-2.732
		C380.117,123.711,382.859,124.261,384.211,126.291z"/>
	<path style="fill:#464655;" d="M408.967,163.531l16.046,24.099c1.349,2.026,0.803,4.762-1.221,6.115l-4.075,2.725
		c-2.029,1.357-4.774,0.809-6.127-1.223l-16.046-24.099c-1.349-2.026-0.803-4.762,1.221-6.115l4.075-2.725
		C404.869,160.951,407.614,161.499,408.967,163.531z"/>
	<path style="fill:#464655;" d="M132.72,293.982l40.824,61.208c1.352,2.027,0.805,4.767-1.221,6.12l-4.089,2.73
		c-2.028,1.354-4.77,0.807-6.123-1.222l-40.824-61.208c-1.352-2.027-0.806-4.767,1.221-6.12l4.089-2.73
		C128.626,291.406,131.367,291.954,132.72,293.982z"/>
	<path style="fill:#464655;" d="M115.582,305.431l16.027,24.041c1.35,2.025,0.806,4.762-1.217,6.116l-4.066,2.722
		c-2.027,1.357-4.771,0.812-6.126-1.217l-16.048-24.035c-1.354-2.027-0.807-4.768,1.22-6.122l4.086-2.728
		C111.487,302.854,114.229,303.402,115.582,305.431z"/>
	<path style="fill:#464655;" d="M140.351,342.605l16.047,24.101c1.349,2.026,0.803,4.763-1.221,6.116l-4.078,2.726
		c-2.029,1.356-4.773,0.809-6.126-1.222l-16.057-24.097c-1.351-2.027-0.804-4.765,1.222-6.118l4.088-2.73
		C136.255,340.026,138.998,340.574,140.351,342.605z"/>
	<path style="fill:#464655;" d="M98.442,316.876l40.798,61.211c1.351,2.026,0.805,4.764-1.22,6.117l-4.077,2.726
		c-2.028,1.356-4.771,0.809-6.125-1.22l-40.822-61.203c-1.353-2.028-0.805-4.769,1.224-6.122l4.101-2.734
		C94.349,314.3,97.09,314.848,98.442,316.876z"/>
	<path style="fill:#464655;" d="M121.295,210.441l40.818-61.256c1.353-2.03,4.095-2.578,6.124-1.223l4.087,2.729
		c2.027,1.353,2.573,4.093,1.221,6.12l-40.834,61.222c-1.349,2.023-4.08,2.574-6.108,1.232l-4.071-2.694
		C120.495,215.221,119.94,212.475,121.295,210.441z"/>
	<path style="fill:#464655;" d="M104.147,199.009l40.826-61.269c1.353-2.031,4.097-2.578,6.126-1.222l4.077,2.726
		c2.024,1.353,2.57,4.09,1.22,6.116l-40.815,61.273c-1.352,2.03-4.095,2.578-6.124,1.224l-4.088-2.729
		C103.343,203.774,102.796,201.036,104.147,199.009z"/>
	<path style="fill:#464655;" d="M86.991,187.625l40.829-61.33c1.353-2.032,4.098-2.58,6.127-1.223l4.077,2.726
		c2.023,1.353,2.57,4.088,1.222,6.114L98.441,195.25c-1.351,2.031-4.093,2.581-6.123,1.228l-4.101-2.734
		C86.189,192.392,85.64,189.653,86.991,187.625z"/>
	<path style="fill:#464655;" d="M338.492,355.189l16.048-24.035c1.355-2.029,4.099-2.574,6.127-1.217l4.066,2.723
		c2.023,1.354,2.567,4.091,1.217,6.116l-16.028,24.04c-1.353,2.029-4.095,2.577-6.123,1.222l-4.086-2.728
		C337.685,359.957,337.138,357.217,338.492,355.189z"/>
	<path style="fill:#464655;" d="M363.243,318.14l16.073-24.154c1.351-2.031,4.093-2.58,6.123-1.227l4.096,2.73
		c2.03,1.353,2.577,4.096,1.222,6.124l-16.107,24.116c-1.351,2.022-4.082,2.571-6.109,1.228l-4.062-2.692
		C362.445,322.916,361.891,320.172,363.243,318.14z"/>
	<path style="fill:#464655;" d="M355.626,366.698l16.058-24.098c1.352-2.029,4.093-2.577,6.122-1.225l4.104,2.736
		c2.027,1.352,2.576,4.09,1.225,6.119l-16.047,24.101c-1.351,2.029-4.091,2.579-6.12,1.228l-4.115-2.739
		C354.824,371.469,354.274,368.728,355.626,366.698z"/>
	<path style="fill:#464655;" d="M380.402,329.464l16.066-24.042c1.353-2.025,4.092-2.571,6.118-1.22l4.101,2.734
		c2.03,1.353,2.577,4.096,1.221,6.125l-16.065,24.042c-1.353,2.025-4.091,2.571-6.118,1.22l-4.102-2.735
		C379.594,334.235,379.047,331.492,380.402,329.464z"/>
	<path style="fill:#464655;" d="M372.771,378.081l16.075-24.056c1.349-2.019,4.077-2.569,6.103-1.23l4.087,2.701
		c2.04,1.348,2.595,4.097,1.239,6.131l-16.063,24.088c-1.352,2.028-4.092,2.576-6.12,1.224l-4.099-2.732
		C371.963,382.853,371.416,380.109,372.771,378.081z"/>
	<path style="fill:#464655;" d="M397.553,340.969l16.036-24.085c1.353-2.032,4.098-2.58,6.127-1.223l4.072,2.722
		c2.025,1.354,2.57,4.093,1.218,6.119l-16.048,24.053c-1.35,2.023-4.083,2.573-6.11,1.229l-4.059-2.691
		C396.754,345.746,396.201,343.001,397.553,340.969z"/>
</g>
<g>
</g>
<g>
</g>
<g>
</g>
<g>
</g>
<g>
</g>
<g>
</g>
<g>
</g>
<g>
</g>
<g>
</g>
<g>
</g>
<g>
</g>
<g>
</g>
<g>
</g>
<g>
</g>
<g>
</g>
</svg>
