<?xml version="1.0" encoding="iso-8859-1"?>
<!-- Generator: Adobe Illustrator 19.0.0, SVG Export Plug-In . SVG Version: 6.00 Build 0)  -->
<svg version="1.1" id="Layer_1" xmlns="http://www.w3.org/2000/svg" xmlns:xlink="http://www.w3.org/1999/xlink" x="0px" y="0px"
	 viewBox="0 0 512 512" style="enable-background:new 0 0 512 512;" xml:space="preserve">
<rect style="fill:#FF4B55;" width="512" height="512"/>
<path style="fill:#F5F5F5;" d="M364.357,216.597h-68.955v-68.955c0-5.44-4.41-9.851-9.851-9.851h-59.104
	c-5.44,0-9.851,4.41-9.851,9.851v68.955h-68.955c-5.44,0-9.851,4.41-9.851,9.851v59.104c0,5.44,4.41,9.851,9.851,9.851h68.955
	v68.955c0,5.44,4.41,9.851,9.851,9.851h59.104c5.44,0,9.851-4.41,9.851-9.851v-68.955h68.955c5.44,0,9.851-4.41,9.851-9.851v-59.104
	C374.208,221.008,369.798,216.597,364.357,216.597z"/>
<g>
</g>
<g>
</g>
<g>
</g>
<g>
</g>
<g>
</g>
<g>
</g>
<g>
</g>
<g>
</g>
<g>
</g>
<g>
</g>
<g>
</g>
<g>
</g>
<g>
</g>
<g>
</g>
<g>
</g>
</svg>
