<?xml version="1.0" encoding="iso-8859-1"?>
<!-- Generator: Adobe Illustrator 19.0.0, SVG Export Plug-In . SVG Version: 6.00 Build 0)  -->
<svg xmlns="http://www.w3.org/2000/svg" xmlns:xlink="http://www.w3.org/1999/xlink" version="1.1" id="Layer_1" x="0px" y="0px" viewBox="0 0 512.003 512.003" style="enable-background:new 0 0 512.003 512.003;" xml:space="preserve">
<rect y="0.001" style="fill:#FFE15A;" width="512" height="512"/>
<rect x="26.483" y="28" style="fill:#41479B;" width="485.52" height="458"/>
<g>
	<polygon style="fill:#FF4B55;" points="26.483,28 269.241,256.242 147.864,28.002  "/>
	<polygon style="fill:#FF4B55;" points="269.241,256.242 269.241,28 390.622,28.002  "/>
	<polygon style="fill:#FF4B55;" points="512,29.518 269.241,257.759 512,143.639  "/>
	<polygon style="fill:#FF4B55;" points="269.241,257.759 512,257.759 512,371.88  "/>
	<polygon style="fill:#FF4B55;" points="269.241,257.759 26.485,143.64 26.485,257.761  "/>
	<polygon style="fill:#FF4B55;" points="26.485,371.881 269.241,257.759 26.485,486.002  "/>
</g>
<path style="fill:#FFE15A;" d="M320.466,278.603c0.772-2.186,1.447-4.416,1.936-6.72l59.069,5.239l-58.107-11.746  c0.142-1.6,0.245-3.212,0.245-4.849c0-1.576-0.104-3.127-0.236-4.669l57.633-12.138l-58.547,5.672  c-0.513-2.462-1.242-4.838-2.075-7.166l52.317-27.351l-54.885,21.334c-1.398-2.786-3.028-5.428-4.865-7.915l43.381-39.999  l-47.574,34.969c-5.044-5.347-11.133-9.691-17.978-12.648l17.278-56.225l-23.422,54.018c-4.883-1.439-10.038-2.244-15.387-2.244  c-5.392,0-10.59,0.812-15.507,2.274l-23.436-54.049l17.295,56.281c-6.822,2.966-12.889,7.308-17.915,12.65l-47.653-35.027  l43.459,40.071c-1.825,2.479-3.443,5.11-4.833,7.886l-54.996-21.377l52.428,27.41c-0.825,2.314-1.548,4.673-2.057,7.119  l-58.676-5.684l57.763,12.165c-0.13,1.533-0.234,3.074-0.234,4.641c0,1.628,0.103,3.231,0.243,4.822l-58.237,11.772l59.198-5.25  c0.486,2.288,1.154,4.503,1.918,6.675l-52.207,26.678l54.73-20.689c8.872,17.965,27.325,30.353,48.716,30.353  c21.375,0,39.815-12.367,48.696-30.31l54.618,20.646L320.466,278.603z"/>
<path style="fill:#F5F5F5;" d="M512,486L274.791,262.621c-3.43-3.23-7.668-3.23-11.098,0L26.483,486H512z"/>
<g>
	<circle style="fill:#FF4B55;" cx="272.41" cy="377.821" r="1.837"/>
	<path style="fill:#FF4B55;" d="M269.603,316.281c5.511,6.813-3.407,10.22-2.304,16.733c0,0-1.804-2.705-1.102-6.513   c0.701-3.807-1.703-5.01-1.703-5.01s1.102,4.308-1.603,6.713s-1.904,7.915-1.904,7.915s-3.407-2.304-2.705-5.811   c0,0-4.609,4.008-0.501,10.721c0,0-2.705-0.2-3.707-1.904c0,0-2.399,7.063,7.267,12.449c9.666,5.386,11.069-7.439,11.069-7.439   l6.913,8.617c0,0,8.283-0.234,12.224-9.118l-4.743,0.868c0.301-2.505,6.646-3.173,4.141-10.687c0,0-0.2,1.603-2.004,2.705   c0,0,0.067-5.177-3.674-8.583c0,0-0.134,2.772-1.336,3.774c0,0,0.401-3.574-1.803-6.379c-2.106-2.681-2.305-5.143-2.305-5.143   s-2.505,4.609-1.603,6.913c0,0-2.089-0.507-2.305-3.306C275.448,317.717,269.603,316.281,269.603,316.281z"/>
</g>
<ellipse style="fill:#FFE15A;" cx="272.41" cy="370.951" rx="15.637" ry="6.702"/>
<ellipse style="fill:#FF4B55;" cx="272.41" cy="369.491" rx="13.522" ry="6.06"/>
<g>
	<path style="fill:#FF82AA;" d="M275.239,370.285h-5.669c-0.1,1.768,0.7,4.333,2.83,5.263v0.006   c0.002-0.001,0.003-0.003,0.003-0.003s0.004,0.002,0.006,0.003v-0.006C274.539,374.618,275.339,372.053,275.239,370.285z"/>
	<path style="fill:#FF82AA;" d="M279.746,369.194l-5.143,1.207c0.313,1.742,1.625,4.069,3.77,4.521l0.001,0.006l0.003-0.004   c0.002,0,0.003,0.002,0.003,0.002v-0.005C280.101,373.562,280.241,370.894,279.746,369.194z"/>
	<path style="fill:#FF82AA;" d="M282.408,367.349l-3.581,2.346c0.906,1.52,2.817,3.334,4.672,3.23l0.003,0.005l0.001-0.004   c0,0,0.003,0.001,0.004,0.001l-0.003-0.005C284.34,371.261,283.44,368.785,282.408,367.349z"/>
	<path style="fill:#FF82AA;" d="M282.303,363.724l-1.409,3.557c1.91,2.43,5.041,2.18,5.041,2.18   C286.06,367.48,283.592,364.935,282.303,363.724z"/>
	<path style="fill:#FF82AA;" d="M265.015,369.194l5.143,1.207c-0.313,1.742-1.625,4.069-3.77,4.521l-0.001,0.006l-0.003-0.004   l-0.004,0.002l0.001-0.006C264.661,373.562,264.52,370.894,265.015,369.194z"/>
	<path style="fill:#FF82AA;" d="M262.354,367.349l3.581,2.346c-0.906,1.52-2.817,3.334-4.672,3.23l-0.003,0.005l-0.001-0.004   l-0.004,0.001l0.003-0.005C260.421,371.261,261.321,368.785,262.354,367.349z"/>
	<path style="fill:#FF82AA;" d="M262.459,363.724l1.409,3.557c-1.91,2.43-5.041,2.18-5.041,2.18   C258.702,367.48,261.17,364.935,262.459,363.724z"/>
</g>
<ellipse style="fill:#FFE15A;" cx="272.41" cy="365.821" rx="10.975" ry="4.918"/>
<ellipse style="fill:#FF4B55;" cx="272.41" cy="365.821" rx="8.165" ry="3.196"/>
<path style="fill:#41479B;" d="M273.232,421.082c-5.338,0.454-10.026-3.514-10.482-8.844c-0.234-2.664,1.752-5.016,4.421-5.243  c2.667-0.228,5.012,1.752,5.238,4.421s2.577,4.643,5.24,4.422c2.67-0.226,4.651-2.581,4.419-5.244  C282.523,415.931,278.567,420.625,273.232,421.082"/>
<path style="fill:#FF9B55;" d="M262.751,412.237c-0.234-2.664,1.752-5.016,4.421-5.243c2.667-0.228,5.012,1.752,5.238,4.421  s2.577,4.643,5.24,4.422c2.67-0.226,4.651-2.581,4.419-5.244c-0.446-5.343-5.141-9.296-10.478-8.842  C266.256,402.207,262.297,406.899,262.751,412.237"/>
<path style="fill:#FFE15A;" d="M272.408,395.543c-8.765,0-15.87,7.105-15.87,15.87c0,8.765,7.105,15.87,15.87,15.87  s15.87-7.106,15.87-15.87C288.279,402.648,281.173,395.543,272.408,395.543z M272.408,423.978c-6.939,0-12.564-5.625-12.564-12.564  s5.625-12.564,12.564-12.564s12.564,5.625,12.564,12.564S279.347,423.978,272.408,423.978z"/>
<path style="fill:#FF4B55;" d="M272.408,398.849c-6.939,0-12.564,5.625-12.564,12.564s5.625,12.564,12.564,12.564  s12.564-5.625,12.564-12.564S279.347,398.849,272.408,398.849z M272.408,421.037c-5.315,0-9.624-4.309-9.624-9.624  s4.309-9.624,9.624-9.624s9.624,4.309,9.624,9.624S277.723,421.037,272.408,421.037z"/>
<circle style="fill:#FF9B55;" cx="267.52" cy="411.411" r="1.212"/>
<circle style="fill:#41479B;" cx="277.23" cy="411.411" r="1.212"/>
<g>
	<circle style="fill:#FF4B55;" cx="272.41" cy="391.641" r="1.468"/>
	<circle style="fill:#FF4B55;" cx="273.88" cy="394.201" r="1.468"/>
	<circle style="fill:#FF4B55;" cx="270.94" cy="394.201" r="1.468"/>
	<circle style="fill:#FF4B55;" cx="272.41" cy="431.221" r="1.468"/>
	<circle style="fill:#FF4B55;" cx="270.94" cy="428.661" r="1.468"/>
	<circle style="fill:#FF4B55;" cx="273.88" cy="428.661" r="1.468"/>
</g>
<path style="fill:#FF9B55;" d="M269.723,350.073c-1.009-5.629-3.703-9.855-6.018-9.44s-3.374,5.314-2.365,10.942  c0.728,4.061,2.34,7.326,4.047,8.711c-0.705,1.209-1.134,3.053-1.144,5.337c1.268,0.108,2.575,0.102,3.916-0.138  c1.341-0.24,2.569-0.688,3.72-1.23c-0.802-2.139-1.845-3.718-2.926-4.608C270.073,357.755,270.451,354.134,269.723,350.073z"/>
<path style="fill:#41479B;" d="M275.062,350.073c1.009-5.629,3.703-9.855,6.018-9.44s3.374,5.314,2.365,10.942  c-0.728,4.061-2.34,7.326-4.047,8.711c0.705,1.209,1.134,3.053,1.144,5.337c-1.268,0.108-2.575,0.102-3.916-0.138  c-1.341-0.24-2.569-0.688-3.72-1.23c0.802-2.139,1.845-3.718,2.926-4.608C274.712,357.755,274.334,354.134,275.062,350.073z"/>
<path style="fill:#F5F5F5;" d="M276.713,349.941c0-6.2-1.907-11.226-4.258-11.226s-4.258,5.026-4.258,11.226  c0,4.474,1.01,8.267,2.447,10.071c-0.907,1.156-1.655,3.041-2.067,5.478c1.229,0.358,2.516,0.601,3.879,0.601  s2.65-0.243,3.879-0.601c-0.412-2.436-1.16-4.322-2.067-5.478C275.703,358.208,276.713,354.415,276.713,349.941z"/>
<g>
	<path style="fill:#FFE15A;" d="M272.408,361.668c-2.774,0-5.319-0.258-6.974-0.715c-0.57-0.15-0.902-0.732-0.749-1.306   c0.158-0.566,0.757-0.94,1.306-0.74c2.928,0.782,9.905,0.782,12.833,0c0.57-0.208,1.152,0.175,1.306,0.74   c0.154,0.574-0.179,1.156-0.749,1.306C277.727,361.41,275.182,361.668,272.408,361.668z"/>
	<path style="fill:#FFE15A;" d="M263.291,378.501c1.152-0.15,2.605-0.501,2.705-2.254c0,0-2.605-0.25-2.605-0.05   C263.391,376.397,263.291,378.501,263.291,378.501z"/>
</g>
<g>
	<path style="fill:#FF4B55;" d="M237.14,371.989c1.303,0.367,2.572,0.635,2.972,2.238c0,0,1.336-2.672-0.534-4.275   C239.238,369.66,237.14,371.989,237.14,371.989z"/>
	<path style="fill:#FF4B55;" d="M242.684,367.513c1.303,0.367,2.572,0.635,2.972,2.238c0,0,1.336-2.672-0.534-4.275   C244.782,365.185,242.684,367.513,242.684,367.513z"/>
</g>
<path style="fill:#FFE15A;" d="M237.541,376.798c-0.802-0.2-2.204-2.004-0.401-4.809c1.804-2.805-6.112,1.403-6.412,3.707  c-0.301,2.304-0.601,6.412,1.202,5.31C233.733,379.905,237.541,376.798,237.541,376.798z"/>
<path style="fill:#FF4B55;" d="M246.124,377.099c0.267-1.47,0-2.471,1.87-3.807s2.137-2.071,2.137-2.939  c0,0-1.019,1.085-2.822,1.536c-1.104,0.276-2.054,1.069-2.054,1.069s-0.468-1.67,1.202-2.605c0,0-2.939,0-3.407,2.672  s1.069,3.073-1.136,3.34c-2.204,0.267-7.348-0.802-9.151,3.273s3.674,1.136,5.143,0.601c1.47-0.534,6.145,0.601,6.88-0.401  C245.523,378.836,246.124,377.099,246.124,377.099z"/>
<path style="fill:#FFF5E6;" d="M226.87,384.414l7.915-13.025c0,0,7.865-3.039,7.932-3.44s2.605-3.674,2.605-4.141  c0-0.468-0.267-2.739-1.269-3.139c-1.002-0.401-4.193,0.946-5.578,1.299c-1.386,0.354-3.573-2.235-3.573-2.235  s-12.758,2.405-13.693,3.941s-5.344,12.558-5.544,13.693c-0.2,1.136,0,8.951,0.267,8.817  C216.199,386.049,226.87,384.414,226.87,384.414z"/>
<path style="fill:#FF4B55;" d="M245.79,361.869c-1.202-1.737-3.407-1.737-4.342-0.334c-0.935,1.402-2.939,1.402-3.406,3.139  c-0.37,1.371,1.87,3.874,3.206,3.407c1.336-0.468,3.807-2.004,3.807-2.004S246.992,363.606,245.79,361.869z M242.132,365.406  c-0.549,0.701-1.925-0.171-1.934-0.949s1.139-0.821,1.711-0.417C242.282,364.302,242.58,364.834,242.132,365.406z M244.192,363.674  c-0.802,0.386-1.652-1.003-1.317-1.705c0.335-0.702,1.385-0.234,1.72,0.381C244.813,362.751,244.844,363.36,244.192,363.674z"/>
<path style="fill:#FFF5E6;" d="M248.322,412.401c1.331,0.133,3.093-0.048,3.46-3.061c0.42-3.451,1.464-4.657,3.194-3.859  c1.73,0.798,1.301,2.178,1.301,2.178s1.904,5.01,0.902,7.014c-1.002,2.004-3.306,4.409-5.01,4.809  c-1.703,0.401-5.21-1.904-5.21-1.904L248.322,412.401z"/>
<path style="fill:#FFE6D7;" d="M238.71,400.746c1.136-0.534,15.163-10.287,16.833-13.96c1.67-3.674,0.735-6.346,2.939-6.479  c2.204-0.134,5.945-0.267,5.611-3.006s-4.008-1.002-5.01-1.536s-4.141-2.004-4.743,0.134s0,4.075-0.868,5.143  c-0.868,1.069-4.743,2.939-5.411,2.805s-2.095-0.308-3.185,0.38c-1.09,0.688-1.691,1.623-1.691,1.623s-4.108,0.167-4.692,0.718  s-2.789,3.49-2.789,3.49L238.71,400.746z"/>
<path style="fill:#5AA587;" d="M240.179,398.54c0,0,2.672-1.002,4.576-4.709s3.807-2.204,6.613-4.208  c2.805-2.004,1.002-5.01,0.2-6.212s-0.25-4.308,2.505-4.208c1.813,0.066,7.615,5.711,5.01,11.322c0,0-0.401-1.002-1.403-2.204  c0,0,1.503,3.707-2.004,7.815c0,0,0.1-2.104-1.002-3.507c0,0-0.1,5.21-4.108,8.517c0,0,0.501-3.407-0.1-4.809  c0,0-0.601,4.509-6.513,8.617c0,0,0.902-1.603,0.701-4.208l-5.01,2.605L240.179,398.54z"/>
<path style="fill:#F5DCD2;" d="M202.072,415.674c0,0-1.803,5.511,3.106,7.114c4.91,1.603,7.615-0.501,9.418,0  s1.403,3.707-1.102,6.412s-5.01,3.006-7.815,1.002c-2.805-2.004-3.006-3.807-5.911-3.106c-2.906,0.701-6.913-2.104-6.913-2.104  s2.605-11.322,2.906-11.222C196.06,413.871,202.072,415.674,202.072,415.674z"/>
<path style="fill:#FFF5E6;" d="M176.597,401.888c0,0,3.46-3.327,16.9-7.452s20.626-5.855,20.626-5.855l10.513-3.327  c0,0,4.948-0.019,8.196-0.941s3.248-0.922,3.248-0.922s8.65,12.243,2.129,24.618l2.262,2.129c0,0,2.378,0.726,4.183,1.361  c1.805,0.635,0.474,4.095,0.474,4.095l-6.92,3.194l-20.227-0.931c0,0-0.399-0.932-7.053,1.198  c-6.654,2.129-9.581-2.661-22.356-3.061S176.597,401.888,176.597,401.888z"/>
<g>
	<path style="fill:#5AA587;" d="M234.1,354.121c0,0,2.037,2.037,0.935,4.208c0,0-2.271-2.338-4.141-2.872   c-2.879-0.822-3.473,0.752-9.836,1.052c-4.004,0.189-5.62,4.025-9.535,3.089c-4.191-1.002-7.648,0.919-7.648,0.919   s2.405-0.3,4.359,1.553c1.953,1.853,5.41,1.452,5.41,1.452s-3.156,2.205-5.811,1.152c-2.655-1.052-6.463,0.902-6.463,0.902   c0.701-0.05,2.254,0.2,4.008,2.054c1.753,1.854,5.661,1.403,5.661,1.403c-0.701,0.851-2.655,1.803-4.501,1.45   c-4.184-0.802-8.65,1.065-8.65,1.065s2.661-0.931,6.254,1.73s7.718,1.065,7.718,1.065c0,1.73-3.601,8.394-9.99,8.167   c-7.955-0.282-9.971,4.341-9.971,4.341s3.194-1.065,7.319-0.399c7.991,1.289,13.44-3.327,13.44-3.327s-1.331,6.254-6.787,5.988   s-12.376,5.323-12.376,5.323s6.148-1.108,14.085-1.205c2.611-0.032,4.734-1.061,6.549-2.287c4.773-3.224,9.182-3.224,9.182-3.224   c-5.21,1.202-7.915,6.913-7.915,6.913s4.008-3.507,9.819-3.507s7.615-6.813,7.615-6.813c-5.411,0.1-6.212-4.309-6.212-4.309   s-1.603,0.501-3.106,2.305c-0.951,1.14-2.558,1.528-3.658,1.682c-0.401-3.514,2.252-6.722,2.252-6.722s-3.593-5.456,1.065-11.311   s15.303-3.992,15.303-3.992C239.578,357.061,235.436,353.987,234.1,354.121z"/>
	<path style="fill:#5AA587;" d="M223.28,373.492c1.737-0.267,9.819-2.939,9.686-6.546c-0.134-3.607-4.943-2.338-4.676-0.401   s2.004,1.536,2.004,1.536s-0.168,0.872-3.741,1.603C223.614,370.285,223.28,373.492,223.28,373.492z"/>
	<path style="fill:#5AA587;" d="M244.654,411.5c0,0,5.01-0.802,4.809,2.805c-0.2,3.607-3.073,7.414-9.018,9.084   c0,0,2.204-1.904,1.703-3.006c-0.501-1.102-3.006-1.403-4.308,0.501c-1.303,1.904-3.507,2.705-5.411,2.405   c0,0,3.407-2.505,1.002-3.407c-2.166-0.812-1.336,2.705-6.513,3.306c0,0,3.807-3.006,1.603-3.807   c-2.204-0.802-3.407,4.409-7.314,4.008c0,0,3.273-3.273,1.503-3.807c-2.788-0.842-3.507,4.008-8.517,1.904   c0,0,2.505-1.102,0.501-3.807c-2.004-2.705,0.802-6.112,2.204-7.515c1.403-1.403,2.405-2.304,2.004-3.707   c0,0,3.574,2.238,1.77,6.179c-1.693,3.701,5.162,1.657,10.487,1.202c5.477-0.468,8.727,2.674,12.224,1.603   C246.658,414.439,244.654,411.5,244.654,411.5z"/>
	<path style="fill:#5AA587;" d="M147.721,413.199c0,0,6.573,3.031,10.299-0.03s4.738,0.562,9.13-2.099   c4.391-2.661,4.125-1.198,7.585-1.198s5.988-5.589,3.859-9.448c0,0,7.226-2.802,5.744-8.596c-1.102-4.308-6.542-2.981-6.542-2.981   s-5.741-3.609-9.714,1.065c-3.248,3.82-1.464,6.387-6.92,7.053s-6.254,6.254-12.109,5.589c0,0,3.992,5.19,10.113,1.863   C159.165,404.416,159.021,409.428,147.721,413.199z"/>
	<path style="fill:#5AA587;" d="M205.879,422.988c0,0,5.611,5.01-5.411,8.016c0,0,0.701-0.902,1.503-2.505   c0,0-3.407,2.505-7.815,2.304c0,0,1.303-1.002,1.603-2.204c0,0-4.008,1.102-6.913-0.802c0,0,3.507-0.2,5.711-3.507   c0,0,1.002,2.004,3.106,1.002c2.104-1.002,3.31,0.44,5.21,0.501C204.426,425.843,205.779,425.043,205.879,422.988z"/>
	<path style="fill:#5AA587;" d="M203.107,392.061c0,0-4.008,1.87-2.137,5.41c1.247,2.36,5.153,2.927,6.68,0.735   c1.303-1.87,0.269-3.686-1.102-3.941c-1.436-0.267-2.304,0.334-2.972,1.536C203.575,395.802,201.103,394.867,203.107,392.061z"/>
	<path style="fill:#5AA587;" d="M221.109,398.29c0,0,8.703,0.331,8.266,6.362c-0.192,2.653-3.781,4.506-6.046,3.115   c-1.932-1.187-1.619-3.165-0.611-4.042c1.11-0.966,2.209-0.617,3.298,0.214C226.016,403.94,226.569,400.644,221.109,398.29z"/>
	<path style="fill:#5AA587;" d="M238.492,386.567c0,0,4.698-3.152,6.526,0.6c0.804,1.651-0.696,4-2.53,3.954   c-1.565-0.039-2.063-1.328-1.765-2.201c0.328-0.961,1.105-1.134,2.043-1.015C242.766,387.906,243.051,385.466,238.492,386.567z"/>
	<path style="fill:#5AA587;" d="M244.876,384.226c0,0,4.333-2.907,6.02,0.554c0.742,1.523-0.642,3.69-2.334,3.647   c-1.443-0.036-1.903-1.225-1.628-2.03c0.302-0.887,1.019-1.046,1.884-0.936C248.819,385.461,249.081,383.209,244.876,384.226z"/>
	<path style="fill:#5AA587;" d="M228.645,403.445c0,0,7.489,0.285,7.113,5.475c-0.165,2.283-3.254,3.878-5.203,2.68   c-1.663-1.022-1.752-2.896-1.031-3.791c1.252-1.553,2.755-0.852,2.755-0.852S233.344,405.471,228.645,403.445z"/>
	<path style="fill:#5AA587;" d="M234.134,407.558c0,0,8.266-0.802,7.652,4.778c-0.16,1.456-2.081,2.481-3.328,1.714   c-1.063-0.654-1.121-1.853-0.659-2.425c0.801-0.993,1.763-0.545,1.763-0.545S239.044,408.61,234.134,407.558z"/>
</g>
<path style="fill:#FFE6D7;" d="M181.122,434.091c0,0,1.131,2.296,1.863,4.524c0.626,1.907,3.859,3.194,5.589,1.996  s4.651-4.776,3.454-5.575c-1.198-0.798-6.381-0.147-7.18-2.942c-0.798-2.794-0.532-4.658-0.532-4.658s6.935,2.063,10.242-3.147  c3.306-5.21,2.834-10.298,4.13-12.822c1.013-1.974,2.794-2.928,2.794-2.928c-2.037-8.066-26.88-13.839-23.997,7.097l-3.903,8.871  L181.122,434.091z"/>
<g>
	<path style="fill:#5AA587;" d="M172.314,433.742c1.703,1.102,7.949,4.275,11.823,1.87c3.168-1.966,3.206-4.208,1.202-4.709   s-3.106,0.902-4.208,0s-7.314-6.012-5.01-7.615s3.552-2.9,3.507-5.711c-0.033-2.071-1.837-4.075-3.974-4.275   c-2.665-0.25-4.743,0.868-7.548,0.868l3.273,1.67c-2.104,1.002-2.271,3.841-4.776,4.342c0,0,1.703,1.937,3.841,1.336   c0,0-0.735,2.004-2.739,2.271c0,0,1.87,2.137,3.607,2.739c0,0-1.136,0.802-2.906,0.468c0,0,2.772,4.075,6.913,5.11L172.314,433.742   z"/>
	<path style="fill:#5AA587;" d="M184.384,426.112c0,0,1.113-0.193,1.209-1.548c0.055-0.781-0.725-1.794-2.052-1.718   c-1.555,0.089-2.61,2.154-1.864,3.523c1.907,3.501,9.007,2.096,9.875,0.827C191.551,427.196,185.873,427.463,184.384,426.112z"/>
</g>
<g>
	<path style="fill:#FFE15A;" d="M187.71,442.76c0.309-0.434,0.559-1.611-0.042-2.338c0,0,0.326-1.678,1.603-1.077   c0,0,0.543,1.344,0.109,2.279S187.71,442.76,187.71,442.76z"/>
	<path style="fill:#FFE15A;" d="M190.317,441.819c-0.022-1.21-0.293-1.872-1.27-1.973c0,0-0.25-1.753,1.202-1.753   c0,0,1.077,0.952,1.087,1.983C191.346,441.106,190.317,441.819,190.317,441.819z"/>
	<path style="fill:#FFE15A;" d="M191.927,440.646c-0.238-1.187-0.463-2.013-1.551-2.094c0,0-0.579-1.436,1.024-1.636   c0,0,1.022,0.82,1.217,1.832S191.927,440.646,191.927,440.646z"/>
	<path style="fill:#FFE15A;" d="M193.539,438.804c-0.493-1.106-0.984-1.549-2.063-1.388c0,0-0.927-1.303,0.351-2.004   c0,0,1.555,0.444,1.968,1.389S193.539,438.804,193.539,438.804z"/>
	<path style="fill:#FFE15A;" d="M212.559,432.028c0.227-0.482,0.264-1.685-0.456-2.293c0,0,0.023-1.709,1.386-1.345   c0,0,0.773,1.227,0.511,2.224C213.739,431.612,212.559,432.028,212.559,432.028z"/>
	<path style="fill:#FFE15A;" d="M214.956,430.639c-0.236-1.187-0.621-1.791-1.6-1.716c0,0-0.558-1.681,0.872-1.939   c0,0,1.229,0.745,1.422,1.758S214.956,430.639,214.956,430.639z"/>
	<path style="fill:#FFE15A;" d="M216.333,429.199c-0.445-1.126-0.813-1.899-1.898-1.785c0,0-0.824-1.31,0.718-1.792   c0,0,1.151,0.625,1.523,1.587C217.047,428.17,216.333,429.199,216.333,429.199z"/>
	<path style="fill:#FFE15A;" d="M217.592,427.1c-0.682-1-1.243-1.349-2.276-1c0,0-1.143-1.117-0.011-2.034   c0,0,1.609,0.161,2.183,1.017C218.062,425.94,217.592,427.1,217.592,427.1z"/>
</g>
<path style="fill:#FFE6D7;" d="M245.857,365.41c0.217,1.084-0.334,2.271-2.939,3.407c-2.605,1.136-2.538,0.668-4.275,2.872  s-1.937,2.271-4.075,2.672c-2.137,0.401-3.139,7.014-0.601,6.012s2.872-3.073,5.678-2.405s4.275,1.603,6.479-0.868  c0,0,2.137,2.872-1.87,4.075s-6.194,1.295-8.174,2.217c-1.979,0.922-9,3.176-9.461-3.387c-0.134-1.903,1.269-2.638,2.071-4.041  c0.802-1.403,1.603-2.338,3.54-3.874c1.937-1.536,0.735-2.805,3.874-3.273c3.139-0.468,5.744-0.401,6.68-2.672  S245.59,364.074,245.857,365.41z"/>
<g>
	<path style="fill:#5AA587;" d="M193.254,397.255c0,0-0.602-2.394,2.189-3.408c-0.656,0.199-1.257,0.377-1.947,0.589   c-0.587,0.18-1.053,0.349-1.603,0.526c-0.214,0.29-0.502,0.442-0.647,0.848c-0.849,2.378,1.252,5.463,3.756,5.127   c2.136-0.287,2.742-2.168,2.043-3.287C196.316,396.478,194.707,396.203,193.254,397.255z"/>
	<path style="fill:#5AA587;" d="M194.119,422.664c-3.028,0.677-4.392-0.492-4.392-0.492s1.113-0.193,1.209-1.549   c0.055-0.781-0.725-1.794-2.052-1.718c-1.555,0.089-2.61,2.154-1.864,3.523c1.641,3.011,6.302,2.3,8.356,0.165   c0.108-0.22,0.22-0.438,0.317-0.656C195.243,422.22,194.668,422.541,194.119,422.664z"/>
	<path style="fill:#5AA587;" d="M197.18,417.6c0.077-0.343,0.187-0.688,0.251-1.017c-3.56,1.44-4.598-0.373-4.598-0.373   s1.113-0.193,1.209-1.549c0.055-0.781-0.725-1.794-2.052-1.717c-1.555,0.089-2.61,2.154-1.864,3.523   C191.865,419.66,194.966,418.772,197.18,417.6z"/>
	<path style="fill:#5AA587;" d="M205.188,419.294c-2.069,1.854-3.651,1.752-3.651,1.752s0.827-0.769,0.167-1.957   c-0.381-0.685-1.587-1.107-2.657-0.319c-1.254,0.924-1.011,3.23,0.361,3.97c3.378,1.82,5.57-0.995,6.742-3.262   C205.832,419.436,205.509,419.36,205.188,419.294z"/>
</g>
<g>
	<path style="fill:#FFE15A;" d="M258.512,417.501c-0.149-0.739-0.923-2.143-1.874-2.239c0,0-1.122-1.97,0.154-2.686   c0,0,1.403,0.759,1.87,2.114C259.129,416.047,258.512,417.501,258.512,417.501z"/>
	<path style="fill:#FFE15A;" d="M259.402,413.925c-0.97-1.159-1.664-1.529-2.355-0.63c0,0-1.543-1.456-0.632-2.937   c0,0,1.427-0.169,2.248,0.827C259.485,412.181,259.402,413.925,259.402,413.925z"/>
	<path style="fill:#FFE15A;" d="M259.485,411.138c-1.087-0.916-1.881-1.493-2.627-0.463c0,0-1.498-0.812-0.651-2.642   c0,0,1.289-0.242,2.211,0.548C259.34,409.372,259.485,411.138,259.485,411.138z"/>
	<path style="fill:#FFE15A;" d="M259.04,407.699c-1.183-0.576-1.841-0.509-2.39,0.748c0,0-1.61-0.327-1.364-2.313   c0,0,1.326-1.152,2.331-0.651C258.623,405.984,259.04,407.699,259.04,407.699z"/>
</g>
<path style="fill:#F5F5F5;" d="M234.822,368.114c0.994,1.795-0.83,3.618-2.625,2.625c-0.231-0.128-0.426-0.323-0.554-0.554  c-0.994-1.795,0.83-3.618,2.625-2.625C234.499,367.689,234.694,367.884,234.822,368.114z"/>
<path style="fill:#41479B;" d="M233.831,368.819c0.3,0.621-0.309,1.23-0.93,0.93c-0.114-0.055-0.212-0.153-0.268-0.268  c-0.3-0.621,0.309-1.23,0.93-0.93C233.678,368.606,233.776,368.704,233.831,368.819z"/>
<path style="fill:#F5F5F5;" d="M238.393,361.5c0.777,1.444-0.679,2.9-2.123,2.123c-0.202-0.109-0.375-0.281-0.483-0.483  c-0.777-1.444,0.679-2.9,2.123-2.123C238.112,361.126,238.284,361.298,238.393,361.5z"/>
<path style="fill:#41479B;" d="M237.589,362.078c0.21,0.486-0.255,0.951-0.741,0.741c-0.112-0.048-0.208-0.145-0.257-0.257  c-0.21-0.486,0.255-0.951,0.741-0.741C237.444,361.869,237.54,361.966,237.589,362.078z"/>
<path style="fill:#FFF5E6;" d="M183.135,399.041c-1.73,1.331-7.715-1.603-11.923-0.2c-5.439,1.813-5.393,5.309-5.393,5.309  s3.389-4.207,9.034-2.136c3.123,1.146,4.939,1.204,4.939,1.204L183.135,399.041z"/>
<path style="fill:#FFE15A;" d="M281.43,378.501c-1.152-0.15-2.605-0.501-2.705-2.254c0,0,2.605-0.25,2.605-0.05  C281.33,376.397,281.43,378.501,281.43,378.501z"/>
<g>
	<path style="fill:#FF4B55;" d="M307.581,371.989c-1.303,0.367-2.572,0.635-2.972,2.238c0,0-1.336-2.672,0.534-4.275   C305.483,369.66,307.581,371.989,307.581,371.989z"/>
	<path style="fill:#FF4B55;" d="M302.037,367.513c-1.303,0.367-2.572,0.635-2.972,2.238c0,0-1.336-2.672,0.534-4.275   C299.939,365.185,302.037,367.513,302.037,367.513z"/>
</g>
<path style="fill:#FFE15A;" d="M307.18,376.798c0.802-0.2,2.204-2.004,0.401-4.809s6.112,1.403,6.412,3.707  c0.301,2.304,0.601,6.412-1.202,5.31S307.18,376.798,307.18,376.798z"/>
<path style="fill:#FF4B55;" d="M298.597,377.099c-0.267-1.47,0-2.471-1.87-3.807s-2.137-2.071-2.137-2.939  c0,0,1.019,1.085,2.822,1.536c1.104,0.276,2.054,1.069,2.054,1.069s0.468-1.67-1.202-2.605c0,0,2.939,0,3.407,2.672  c0.468,2.672-1.069,3.073,1.136,3.34c2.204,0.267,7.348-0.802,9.151,3.273s-3.674,1.136-5.143,0.601  c-1.47-0.534-6.145,0.601-6.88-0.401C299.198,378.836,298.597,377.099,298.597,377.099z"/>
<path style="fill:#FFF5E6;" d="M317.851,384.414l-7.915-13.025c0,0-7.865-3.039-7.932-3.44c-0.067-0.401-2.605-3.674-2.605-4.141  c0-0.468,0.267-2.739,1.269-3.139c1.002-0.401,4.193,0.946,5.578,1.299s3.573-2.235,3.573-2.235s12.758,2.405,13.693,3.941  s5.344,12.558,5.544,13.693c0.2,1.136,0,8.951-0.267,8.817C328.522,386.049,317.851,384.414,317.851,384.414z"/>
<path style="fill:#FF4B55;" d="M299.666,366.078c0,0,2.471,1.536,3.807,2.004c1.336,0.467,3.576-2.036,3.206-3.407  c-0.467-1.737-2.471-1.737-3.406-3.139c-0.935-1.403-3.14-1.403-4.342,0.334C297.728,363.606,299.666,366.078,299.666,366.078z   M302.811,364.039c0.572-0.404,1.721-0.36,1.711,0.417c-0.009,0.778-1.385,1.649-1.934,0.949  C302.141,364.834,302.438,364.302,302.811,364.039z M300.126,362.35c0.335-0.615,1.384-1.083,1.72-0.381  c0.335,0.702-0.515,2.091-1.317,1.705C299.876,363.36,299.908,362.751,300.126,362.35z"/>
<path style="fill:#FFF5E6;" d="M296.398,412.401c-1.331,0.133-3.093-0.048-3.46-3.061c-0.42-3.451-1.464-4.657-3.194-3.859  s-1.301,2.178-1.301,2.178s-1.904,5.01-0.902,7.014s3.306,4.409,5.01,4.809s5.21-1.904,5.21-1.904L296.398,412.401z"/>
<path style="fill:#FFE6D7;" d="M306.011,400.746c-1.136-0.534-15.163-10.287-16.833-13.96c-1.67-3.674-0.735-6.346-2.939-6.479  c-2.204-0.134-5.945-0.267-5.611-3.006s4.008-1.002,5.01-1.536s4.141-2.004,4.743,0.134s0,4.075,0.868,5.143  c0.868,1.069,4.743,2.939,5.411,2.805s2.095-0.308,3.185,0.38c1.09,0.688,1.691,1.623,1.691,1.623s4.108,0.167,4.692,0.718  c0.584,0.551,2.789,3.49,2.789,3.49L306.011,400.746z"/>
<path style="fill:#5AA587;" d="M304.542,398.54c0,0-2.672-1.002-4.576-4.709s-3.807-2.204-6.613-4.208  c-2.805-2.004-1.002-5.01-0.2-6.212s0.25-4.308-2.505-4.208c-1.813,0.066-7.615,5.711-5.01,11.322c0,0,0.401-1.002,1.403-2.204  c0,0-1.503,3.707,2.004,7.815c0,0-0.1-2.104,1.002-3.507c0,0,0.1,5.21,4.108,8.517c0,0-0.501-3.407,0.1-4.809  c0,0,0.601,4.509,6.513,8.617c0,0-0.902-1.603-0.701-4.208l5.01,2.605L304.542,398.54z"/>
<path style="fill:#F5DCD2;" d="M342.649,415.674c0,0,1.803,5.511-3.106,7.114s-7.615-0.501-9.418,0s-1.403,3.707,1.102,6.412  s5.01,3.006,7.815,1.002s3.006-3.807,5.911-3.106c2.906,0.701,6.913-2.104,6.913-2.104s-2.605-11.322-2.906-11.222  C348.661,413.871,342.649,415.674,342.649,415.674z"/>
<path style="fill:#FFF5E6;" d="M368.124,401.888c0,0-3.46-3.327-16.9-7.452s-20.626-5.855-20.626-5.855l-10.513-3.327  c0,0-4.948-0.019-8.196-0.941c-3.248-0.922-3.248-0.922-3.248-0.922s-8.65,12.243-2.129,24.618l-2.262,2.129  c0,0-2.378,0.726-4.183,1.361c-1.805,0.635-0.474,4.095-0.474,4.095l6.92,3.194l20.227-0.931c0,0,0.399-0.932,7.053,1.198  s9.581-2.661,22.356-3.061S368.124,401.888,368.124,401.888z"/>
<g>
	<path style="fill:#5AA587;" d="M310.62,354.121c0,0-2.037,2.037-0.935,4.208c0,0,2.271-2.338,4.141-2.872   c2.879-0.822,3.473,0.752,9.836,1.052c4.004,0.189,5.62,4.025,9.535,3.089c4.191-1.002,7.648,0.919,7.648,0.919   s-2.405-0.3-4.359,1.553c-1.953,1.853-5.41,1.452-5.41,1.452s3.156,2.205,5.811,1.152c2.655-1.052,6.463,0.902,6.463,0.902   c-0.701-0.05-2.254,0.2-4.008,2.054c-1.753,1.854-5.661,1.403-5.661,1.403c0.701,0.851,2.655,1.803,4.501,1.45   c4.184-0.802,8.65,1.065,8.65,1.065s-2.661-0.931-6.254,1.73s-7.718,1.065-7.718,1.065c0,1.73,3.601,8.394,9.99,8.167   c7.955-0.282,9.971,4.341,9.971,4.341s-3.194-1.065-7.319-0.399c-7.991,1.289-13.44-3.327-13.44-3.327s1.331,6.254,6.787,5.988   s12.376,5.323,12.376,5.323s-6.148-1.108-14.085-1.205c-2.611-0.032-4.734-1.061-6.549-2.287c-4.773-3.224-9.182-3.224-9.182-3.224   c5.21,1.202,7.915,6.913,7.915,6.913s-4.008-3.507-9.819-3.507s-7.615-6.813-7.615-6.813c5.411,0.1,6.212-4.309,6.212-4.309   s1.603,0.501,3.106,2.305c0.951,1.14,2.558,1.528,3.658,1.682c0.401-3.514-2.252-6.722-2.252-6.722s3.593-5.456-1.065-11.311   c-4.657-5.855-15.303-3.992-15.303-3.992C305.143,357.061,309.284,353.987,310.62,354.121z"/>
	<path style="fill:#5AA587;" d="M321.441,373.492c-1.737-0.267-9.819-2.939-9.685-6.546s4.943-2.338,4.676-0.401   s-2.004,1.536-2.004,1.536s0.168,0.872,3.741,1.603C321.107,370.285,321.441,373.492,321.441,373.492z"/>
	<path style="fill:#5AA587;" d="M300.066,411.5c0,0-5.01-0.802-4.809,2.805c0.2,3.607,3.073,7.414,9.018,9.084   c0,0-2.204-1.904-1.703-3.006s3.006-1.403,4.308,0.501c1.303,1.904,3.507,2.705,5.411,2.405c0,0-3.407-2.505-1.002-3.407   c2.166-0.812,1.336,2.705,6.513,3.306c0,0-3.807-3.006-1.603-3.807c2.204-0.802,3.407,4.409,7.314,4.008   c0,0-3.273-3.273-1.503-3.807c2.788-0.842,3.507,4.008,8.517,1.904c0,0-2.505-1.102-0.501-3.807   c2.004-2.705-0.802-6.112-2.204-7.515c-1.403-1.403-2.405-2.304-2.004-3.707c0,0-3.574,2.238-1.77,6.179   c1.693,3.701-5.162,1.657-10.487,1.202c-5.477-0.468-8.727,2.674-12.224,1.603C298.062,414.439,300.066,411.5,300.066,411.5z"/>
	<path style="fill:#5AA587;" d="M397,413.199c0,0-6.573,3.031-10.299-0.03s-4.738,0.562-9.13-2.099   c-4.391-2.661-4.125-1.198-7.585-1.198s-5.988-5.589-3.859-9.448c0,0-7.226-2.802-5.744-8.596c1.102-4.308,6.542-2.981,6.542-2.981   s5.741-3.609,9.714,1.065c3.248,3.82,1.464,6.387,6.92,7.053s6.254,6.254,12.109,5.589c0,0-3.992,5.19-10.113,1.863   C385.556,404.416,385.699,409.428,397,413.199z"/>
	<path style="fill:#5AA587;" d="M338.842,422.988c0,0-5.611,5.01,5.411,8.016c0,0-0.701-0.902-1.503-2.505   c0,0,3.407,2.505,7.815,2.304c0,0-1.303-1.002-1.603-2.204c0,0,4.008,1.102,6.913-0.802c0,0-3.507-0.2-5.711-3.507   c0,0-1.002,2.004-3.106,1.002c-2.104-1.002-3.31,0.44-5.21,0.501C340.294,425.843,338.942,425.043,338.842,422.988z"/>
	<path style="fill:#5AA587;" d="M341.614,392.061c0,0,4.008,1.87,2.137,5.41c-1.247,2.36-5.153,2.927-6.68,0.735   c-1.303-1.87-0.269-3.686,1.102-3.941c1.436-0.267,2.304,0.334,2.972,1.536C341.146,395.802,343.618,394.867,341.614,392.061z"/>
	<path style="fill:#5AA587;" d="M323.612,398.29c0,0-8.703,0.331-8.266,6.362c0.192,2.653,3.781,4.506,6.046,3.115   c1.932-1.187,1.619-3.165,0.611-4.042c-1.11-0.966-2.209-0.617-3.298,0.214C318.705,403.94,318.151,400.644,323.612,398.29z"/>
	<path style="fill:#5AA587;" d="M306.228,386.567c0,0-4.698-3.152-6.526,0.6c-0.804,1.651,0.696,4,2.53,3.954   c1.565-0.039,2.063-1.328,1.765-2.201c-0.328-0.961-1.105-1.134-2.043-1.015C301.954,387.906,301.669,385.466,306.228,386.567z"/>
	<path style="fill:#5AA587;" d="M299.844,384.226c0,0-4.333-2.907-6.02,0.554c-0.742,1.523,0.642,3.69,2.334,3.647   c1.443-0.036,1.903-1.225,1.628-2.03c-0.302-0.887-1.019-1.046-1.884-0.936C295.902,385.461,295.639,383.209,299.844,384.226z"/>
	<path style="fill:#5AA587;" d="M316.075,403.445c0,0-7.489,0.285-7.113,5.475c0.165,2.283,3.254,3.878,5.203,2.68   c1.663-1.022,1.752-2.896,1.031-3.791c-1.252-1.553-2.755-0.852-2.755-0.852S311.377,405.471,316.075,403.445z"/>
	<path style="fill:#5AA587;" d="M310.587,407.558c0,0-8.266-0.802-7.652,4.778c0.16,1.456,2.081,2.481,3.328,1.714   c1.064-0.654,1.121-1.853,0.659-2.425c-0.801-0.993-1.763-0.545-1.763-0.545S305.677,408.61,310.587,407.558z"/>
</g>
<path style="fill:#FFE6D7;" d="M363.599,434.091c0,0-1.131,2.296-1.863,4.524c-0.626,1.907-3.859,3.194-5.589,1.996  s-4.651-4.776-3.454-5.575s6.381-0.147,7.18-2.942c0.798-2.794,0.532-4.658,0.532-4.658s-6.935,2.063-10.242-3.147  c-3.306-5.21-2.834-10.298-4.13-12.822c-1.013-1.974-2.794-2.928-2.794-2.928c2.037-8.066,26.88-13.839,23.997,7.097l3.903,8.871  L363.599,434.091z"/>
<g>
	<path style="fill:#5AA587;" d="M372.407,433.742c-1.703,1.102-7.949,4.275-11.823,1.87c-3.168-1.966-3.206-4.208-1.202-4.709   s3.106,0.902,4.208,0c1.102-0.902,7.314-6.012,5.01-7.615s-3.552-2.9-3.507-5.711c0.033-2.071,1.837-4.075,3.974-4.275   c2.665-0.25,4.743,0.868,7.548,0.868l-3.273,1.67c2.104,1.002,2.271,3.841,4.776,4.342c0,0-1.703,1.937-3.841,1.336   c0,0,0.735,2.004,2.739,2.271c0,0-1.87,2.137-3.607,2.739c0,0,1.136,0.802,2.906,0.468c0,0-2.772,4.075-6.913,5.11L372.407,433.742   z"/>
	<path style="fill:#5AA587;" d="M360.337,426.112c0,0-1.113-0.193-1.209-1.548c-0.055-0.781,0.725-1.794,2.052-1.718   c1.555,0.089,2.61,2.154,1.864,3.523c-1.907,3.501-9.007,2.096-9.875,0.827C353.169,427.196,358.847,427.463,360.337,426.112z"/>
</g>
<g>
	<path style="fill:#FFE15A;" d="M357.01,442.76c-0.309-0.434-0.559-1.611,0.042-2.338c0,0-0.326-1.678-1.603-1.077   c0,0-0.543,1.344-0.109,2.279S357.01,442.76,357.01,442.76z"/>
	<path style="fill:#FFE15A;" d="M354.404,441.819c0.022-1.21,0.293-1.872,1.27-1.973c0,0,0.25-1.753-1.202-1.753   c0,0-1.077,0.952-1.087,1.983S354.404,441.819,354.404,441.819z"/>
	<path style="fill:#FFE15A;" d="M352.794,440.646c0.238-1.187,0.463-2.013,1.551-2.094c0,0,0.579-1.436-1.024-1.636   c0,0-1.022,0.82-1.217,1.832C351.908,439.76,352.794,440.646,352.794,440.646z"/>
	<path style="fill:#FFE15A;" d="M351.182,438.804c0.493-1.106,0.984-1.549,2.063-1.388c0,0,0.927-1.303-0.351-2.004   c0,0-1.555,0.444-1.968,1.389S351.182,438.804,351.182,438.804z"/>
	<path style="fill:#FFE15A;" d="M332.162,432.028c-0.227-0.482-0.264-1.685,0.456-2.293c0,0-0.023-1.709-1.386-1.345   c0,0-0.773,1.227-0.511,2.224C330.982,431.612,332.162,432.028,332.162,432.028z"/>
	<path style="fill:#FFE15A;" d="M329.764,430.639c0.236-1.187,0.621-1.791,1.6-1.716c0,0,0.558-1.681-0.872-1.939   c0,0-1.229,0.745-1.422,1.758S329.764,430.639,329.764,430.639z"/>
	<path style="fill:#FFE15A;" d="M328.388,429.199c0.445-1.126,0.813-1.899,1.898-1.785c0,0,0.824-1.31-0.718-1.792   c0,0-1.151,0.625-1.522,1.587C327.674,428.17,328.388,429.199,328.388,429.199z"/>
	<path style="fill:#FFE15A;" d="M327.129,427.1c0.682-1,1.243-1.349,2.276-1c0,0,1.143-1.117,0.011-2.034   c0,0-1.609,0.161-2.183,1.017C326.658,425.94,327.129,427.1,327.129,427.1z"/>
</g>
<path style="fill:#FFE6D7;" d="M298.864,365.41c-0.217,1.084,0.334,2.271,2.939,3.407c2.605,1.136,2.538,0.668,4.275,2.872  s1.937,2.271,4.075,2.672s3.139,7.014,0.601,6.012s-2.872-3.073-5.678-2.405s-4.275,1.603-6.479-0.868c0,0-2.138,2.872,1.87,4.075  c4.008,1.202,6.194,1.295,8.174,2.217c1.979,0.922,9,3.176,9.461-3.387c0.134-1.903-1.269-2.638-2.071-4.041  c-0.802-1.403-1.603-2.338-3.54-3.874c-1.937-1.536-0.735-2.805-3.874-3.273c-3.139-0.468-5.745-0.401-6.68-2.672  S299.131,364.074,298.864,365.41z"/>
<g>
	<path style="fill:#5AA587;" d="M351.466,397.255c0,0,0.602-2.394-2.189-3.408c0.656,0.199,1.257,0.377,1.947,0.589   c0.587,0.18,1.053,0.349,1.603,0.526c0.214,0.29,0.502,0.442,0.647,0.848c0.849,2.378-1.252,5.463-3.756,5.127   c-2.136-0.287-2.742-2.168-2.043-3.287C348.405,396.478,350.013,396.203,351.466,397.255z"/>
	<path style="fill:#5AA587;" d="M350.601,422.664c3.028,0.677,4.392-0.492,4.392-0.492s-1.113-0.193-1.209-1.549   c-0.055-0.781,0.725-1.794,2.052-1.718c1.555,0.089,2.61,2.154,1.864,3.523c-1.641,3.011-6.302,2.3-8.356,0.165   c-0.108-0.22-0.22-0.438-0.317-0.656C349.477,422.22,350.052,422.541,350.601,422.664z"/>
	<path style="fill:#5AA587;" d="M347.541,417.6c-0.077-0.343-0.187-0.688-0.251-1.017c3.56,1.44,4.598-0.373,4.598-0.373   s-1.113-0.193-1.209-1.549c-0.055-0.781,0.725-1.794,2.052-1.717c1.555,0.089,2.61,2.154,1.864,3.523   C352.855,419.66,349.755,418.772,347.541,417.6z"/>
	<path style="fill:#5AA587;" d="M339.533,419.294c2.069,1.854,3.651,1.752,3.651,1.752s-0.827-0.769-0.167-1.957   c0.38-0.685,1.587-1.107,2.657-0.319c1.254,0.924,1.011,3.23-0.361,3.97c-3.378,1.82-5.57-0.995-6.742-3.262   C338.888,419.436,339.212,419.36,339.533,419.294z"/>
</g>
<g>
	<path style="fill:#FFE15A;" d="M286.208,417.501c0.149-0.739,0.923-2.143,1.874-2.239c0,0,1.122-1.97-0.154-2.686   c0,0-1.403,0.759-1.87,2.114C285.592,416.047,286.208,417.501,286.208,417.501z"/>
	<path style="fill:#FFE15A;" d="M285.318,413.925c0.97-1.159,1.664-1.529,2.355-0.63c0,0,1.543-1.456,0.632-2.937   c0,0-1.427-0.169-2.248,0.827C285.236,412.181,285.318,413.925,285.318,413.925z"/>
	<path style="fill:#FFE15A;" d="M285.236,411.138c1.087-0.916,1.881-1.493,2.627-0.463c0,0,1.498-0.812,0.651-2.642   c0,0-1.288-0.242-2.211,0.548C285.381,409.372,285.236,411.138,285.236,411.138z"/>
	<path style="fill:#FFE15A;" d="M285.681,407.699c1.183-0.576,1.841-0.509,2.39,0.748c0,0,1.61-0.327,1.364-2.313   c0,0-1.326-1.152-2.331-0.651C286.098,405.984,285.681,407.699,285.681,407.699z"/>
</g>
<path style="fill:#F5F5F5;" d="M309.899,368.114c-0.994,1.795,0.83,3.618,2.625,2.625c0.231-0.128,0.426-0.323,0.554-0.554  c0.994-1.795-0.83-3.618-2.625-2.625C310.222,367.689,310.027,367.884,309.899,368.114z"/>
<path style="fill:#41479B;" d="M310.89,368.819c-0.3,0.621,0.309,1.23,0.93,0.93c0.114-0.055,0.212-0.153,0.268-0.268  c0.3-0.621-0.309-1.23-0.93-0.93C311.043,368.606,310.945,368.704,310.89,368.819z"/>
<path style="fill:#F5F5F5;" d="M306.328,361.5c-0.777,1.444,0.679,2.9,2.123,2.123c0.202-0.109,0.375-0.281,0.483-0.483  c0.777-1.444-0.679-2.9-2.123-2.123C306.609,361.126,306.437,361.298,306.328,361.5z"/>
<path style="fill:#41479B;" d="M307.132,362.078c-0.21,0.486,0.255,0.951,0.741,0.741c0.112-0.048,0.208-0.145,0.257-0.257  c0.21-0.486-0.255-0.951-0.741-0.741C307.277,361.869,307.18,361.966,307.132,362.078z"/>
<path style="fill:#FFF5E6;" d="M361.586,399.041c1.73,1.331,7.715-1.603,11.923-0.2c5.439,1.813,5.393,5.309,5.393,5.309  s-3.389-4.207-9.034-2.136c-3.123,1.146-4.939,1.204-4.939,1.204L361.586,399.041z"/>
<g>
</g>
<g>
</g>
<g>
</g>
<g>
</g>
<g>
</g>
<g>
</g>
<g>
</g>
<g>
</g>
<g>
</g>
<g>
</g>
<g>
</g>
<g>
</g>
<g>
</g>
<g>
</g>
<g>
</g>
</svg>
