<?xml version="1.0" encoding="iso-8859-1"?>
<!-- Generator: Adobe Illustrator 19.0.0, SVG Export Plug-In . SVG Version: 6.00 Build 0)  -->
<svg xmlns="http://www.w3.org/2000/svg" xmlns:xlink="http://www.w3.org/1999/xlink" version="1.1" id="Layer_1" x="0px" y="0px" viewBox="0 0 512 512" style="enable-background:new 0 0 512 512;" xml:space="preserve">
<rect style="fill:#3CC8FF;" width="512" height="512"/>
<g>
	<path style="fill:#FFE15A;" d="M288.558,410.977l4.297,12.884l13.581,0.105c1.758,0.014,2.487,2.258,1.073,3.302l-10.925,8.068   l4.097,12.949c0.53,1.676-1.378,3.063-2.809,2.041l-11.049-7.897l-11.049,7.897c-1.431,1.022-3.339-0.364-2.809-2.041l4.097-12.949   l-10.925-8.068c-1.414-1.044-0.685-3.288,1.073-3.302l13.581-0.105l4.297-12.884C285.643,409.309,288.002,409.309,288.558,410.977z   "/>
	<path style="fill:#FFE15A;" d="M413.557,313.767l4.297,12.884l13.581,0.105c1.758,0.014,2.487,2.258,1.073,3.302l-10.925,8.068   l4.097,12.949c0.53,1.676-1.378,3.063-2.809,2.041l-11.049-7.897l-11.049,7.897c-1.43,1.022-3.339-0.364-2.809-2.041l4.097-12.949   l-10.925-8.068c-1.414-1.045-0.685-3.288,1.073-3.302l13.581-0.105l4.297-12.884C410.642,312.099,413.001,312.099,413.557,313.767z   "/>
	<path style="fill:#FFE15A;" d="M472.497,277.641l4.297,12.884l13.581,0.105c1.758,0.014,2.487,2.258,1.073,3.302L480.523,302   l4.097,12.949c0.53,1.676-1.378,3.063-2.809,2.041l-11.049-7.897l-11.049,7.897c-1.43,1.022-3.339-0.364-2.809-2.041L461,302   l-10.925-8.068c-1.414-1.045-0.685-3.288,1.073-3.302l13.581-0.105l4.297-12.884C469.582,275.973,471.941,275.973,472.497,277.641z   "/>
	<path style="fill:#FFE15A;" d="M458.436,153.693l4.297,12.884l13.581,0.105c1.758,0.014,2.487,2.258,1.073,3.302l-10.925,8.068   l4.097,12.949c0.53,1.676-1.378,3.063-2.809,2.041l-11.049-7.897l-11.049,7.897c-1.43,1.022-3.339-0.364-2.809-2.041l4.097-12.949   l-10.925-8.068c-1.414-1.045-0.685-3.288,1.073-3.302l13.581-0.105l4.297-12.884C455.52,152.025,457.88,152.025,458.436,153.693z"/>
	<path style="fill:#FFE15A;" d="M340.811,443.174l-4.297-12.884l-13.581-0.105c-1.758-0.014-2.487-2.258-1.073-3.302l10.925-8.068   l-4.097-12.949c-0.53-1.676,1.378-3.063,2.809-2.041l11.049,7.897l11.049-7.897c1.43-1.022,3.339,0.364,2.809,2.041l-4.097,12.949   l10.925,8.068c1.414,1.045,0.685,3.288-1.073,3.302l-13.581,0.105l-4.297,12.884C343.726,444.842,341.367,444.842,340.811,443.174z   "/>
	<path style="fill:#FFE15A;" d="M381.432,406.719l-4.297-12.884l-13.581-0.105c-1.758-0.014-2.487-2.258-1.073-3.302l10.925-8.068   l-4.097-12.949c-0.53-1.676,1.378-3.063,2.809-2.041l11.049,7.897l11.049-7.897c1.43-1.022,3.339,0.364,2.809,2.041l-4.097,12.949   l10.925,8.068c1.414,1.044,0.685,3.288-1.073,3.302l-13.581,0.105l-4.297,12.884C384.348,408.387,381.989,408.387,381.432,406.719z   "/>
	<path style="fill:#FFE15A;" d="M417.988,247.719l-4.297-12.884l-13.581-0.105c-1.758-0.014-2.487-2.258-1.073-3.302l10.925-8.068   l-4.097-12.949c-0.53-1.676,1.378-3.063,2.809-2.041l11.049,7.897l11.049-7.897c1.43-1.022,3.339,0.364,2.809,2.041l-4.097,12.949   l10.925,8.068c1.414,1.045,0.685,3.288-1.073,3.302l-13.581,0.105l-4.297,12.884C420.904,249.387,418.544,249.387,417.988,247.719z   "/>
	<path style="fill:#FFE15A;" d="M375.804,261.26l-4.297-12.884l-13.581-0.105c-1.758-0.014-2.487-2.258-1.073-3.302l10.925-8.068   l-4.097-12.949c-0.53-1.676,1.378-3.063,2.809-2.041l11.049,7.897l11.049-7.897c1.431-1.022,3.339,0.364,2.809,2.041l-4.097,12.949   l10.925,8.068c1.414,1.045,0.685,3.288-1.073,3.302l-13.581,0.105l-4.297,12.884C378.719,262.928,376.36,262.928,375.804,261.26z"/>
	<path style="fill:#FFE15A;" d="M348.796,366.444l-4.297-12.884l-13.581-0.105c-1.758-0.014-2.487-2.258-1.073-3.302l10.925-8.068   l-4.097-12.949c-0.53-1.676,1.378-3.063,2.809-2.041l11.049,7.897l11.049-7.897c1.431-1.022,3.339,0.364,2.809,2.041l-4.097,12.949   l10.925,8.068c1.414,1.045,0.685,3.288-1.073,3.302l-13.581,0.105l-4.297,12.884C351.712,368.112,349.353,368.112,348.796,366.444z   "/>
</g>
<g>
	<polygon style="fill:#41479B;" points="94.316,0 0,0 0,19.977 94.316,81.77  "/>
	<polygon style="fill:#41479B;" points="0,68.299 0,94.316 39.71,94.316  "/>
	<polygon style="fill:#41479B;" points="0,161.684 0,187.701 39.71,161.684  "/>
	<polygon style="fill:#41479B;" points="256,19.977 256,0 161.684,0 161.684,81.77  "/>
	<polygon style="fill:#41479B;" points="256,187.701 256,161.684 216.29,161.684  "/>
	<polygon style="fill:#41479B;" points="161.684,174.23 161.684,256 256,256 256,236.023  "/>
	<polygon style="fill:#41479B;" points="256,94.316 256,68.299 216.29,94.316  "/>
	<polygon style="fill:#41479B;" points="0,236.023 0,256 94.316,256 94.316,174.23  "/>
</g>
<g>
	<polygon style="fill:#F5F5F5;" points="256,236.023 256,216.059 172.232,161.684 196.98,161.684 256,199.995 256,187.701    216.29,161.684 256,161.684 256,148.21 148.211,148.21 148.211,256 161.684,256 161.684,174.23  "/>
	<polygon style="fill:#F5F5F5;" points="0,148.21 0,161.684 39.71,161.684 0,187.701 0,206.602 69.197,161.684 93.945,161.684    0,222.666 0,236.023 94.316,174.23 94.316,256 107.789,256 107.789,148.21  "/>
	<polygon style="fill:#F5F5F5;" points="107.789,0 94.316,0 94.316,81.77 0,19.977 0,41.839 80.842,94.316 56.094,94.316 0,57.904    0,68.299 39.71,94.316 0,94.316 0,107.79 107.789,107.79  "/>
	<polygon style="fill:#F5F5F5;" points="256,107.79 256,94.316 216.29,94.316 256,68.299 256,49.157 186.432,94.316 161.684,94.316    256,33.093 256,19.977 161.684,81.77 161.684,0 148.211,0 148.211,107.79  "/>
</g>
<g>
	<polygon style="fill:#FF4B55;" points="256,148.21 256,107.79 148.211,107.79 148.211,0 107.789,0 107.789,107.79 0,107.79    0,148.21 107.789,148.21 107.789,256 148.211,256 148.211,148.21  "/>
	<polygon style="fill:#FF4B55;" points="69.197,161.684 0,206.602 0,222.666 93.945,161.684  "/>
	<polygon style="fill:#FF4B55;" points="172.232,161.684 256,216.059 256,199.995 196.98,161.684  "/>
	<polygon style="fill:#FF4B55;" points="80.842,94.316 0,41.839 0,57.904 56.094,94.316  "/>
	<polygon style="fill:#FF4B55;" points="186.432,94.316 256,49.157 256,33.093 161.684,94.316  "/>
</g>
<g>
</g>
<g>
</g>
<g>
</g>
<g>
</g>
<g>
</g>
<g>
</g>
<g>
</g>
<g>
</g>
<g>
</g>
<g>
</g>
<g>
</g>
<g>
</g>
<g>
</g>
<g>
</g>
<g>
</g>
</svg>
