<?xml version="1.0" encoding="iso-8859-1"?>
<!-- Generator: Adobe Illustrator 19.0.0, SVG Export Plug-In . SVG Version: 6.00 Build 0)  -->
<svg xmlns="http://www.w3.org/2000/svg" xmlns:xlink="http://www.w3.org/1999/xlink" version="1.1" id="Layer_1" x="0px" y="0px" viewBox="0 0 512 512" style="enable-background:new 0 0 512 512;" xml:space="preserve">
<rect x="256" style="fill:#F5F5F5;" width="256" height="512"/>
<rect style="fill:#FFE15A;" width="256" height="512"/>
<g>
	<path style="fill:#EBEBEB;" d="M408.268,174.752l-0.587,1.173c1.895,0.97,2.978,2.075,2.978,3.249l-0.294-5.83   C409.968,174.127,409.196,174.689,408.268,174.752z"/>
	<path style="fill:#EBEBEB;" d="M362.438,175.925l-0.587-1.173c-0.928-0.064-1.7-0.625-2.098-1.408l-0.294,5.83   C359.459,178,360.542,176.895,362.438,175.925z"/>
	<path style="fill:#EBEBEB;" d="M362.019,169.666c1.414,0,2.56,1.146,2.56,2.56c0,0.512-0.188,0.962-0.448,1.362l0.674,1.348   c1.932-0.679,4.312-1.256,7.027-1.702l-0.288-1.152c-1.058-0.314-1.845-1.255-1.845-2.416c0-1.414,1.146-2.56,2.56-2.56   s2.56,1.146,2.56,2.56c0,0.721-0.303,1.367-0.783,1.833l0.342,1.367c1.426-0.178,2.922-0.32,4.475-0.425   c-0.116-0.481-0.193-0.977-0.193-1.494c0-3.535,2.865-6.4,6.4-6.4s6.4,2.865,6.4,6.4c0,0.517-0.078,1.013-0.193,1.494   c1.553,0.105,3.048,0.247,4.475,0.425l0.342-1.367c-0.48-0.465-0.783-1.111-0.783-1.833c0-1.414,1.146-2.56,2.56-2.56   s2.56,1.146,2.56,2.56c0,1.16-0.787,2.101-1.845,2.416l-0.288,1.152c2.715,0.446,5.095,1.023,7.027,1.702l0.674-1.348   c-0.259-0.4-0.448-0.85-0.448-1.362c0-1.414,1.146-2.56,2.56-2.56c0.921,0,1.692,0.513,2.143,1.244l-0.197-3.904   c-2.527-2.87-12.746-5.019-24.986-5.019s-22.459,2.149-24.986,5.019l-0.197,3.904C360.327,170.179,361.098,169.666,362.019,169.666   z"/>
</g>
<path style="fill:#E6B432;" d="M389.056,139.551c0.693-0.873,1.124-1.964,1.124-3.165c0-2.383-1.635-4.368-3.84-4.939v-3.133  c0.751-0.446,1.28-1.23,1.28-2.168c0-1.414-1.146-2.56-2.56-2.56s-2.56,1.146-2.56,2.56c0,0.937,0.529,1.722,1.28,2.168v3.133  c-2.205,0.571-3.84,2.556-3.84,4.939c0,1.201,0.431,2.291,1.124,3.165c1.302-0.356,2.628-0.605,3.996-0.605  S387.753,139.195,389.056,139.551z"/>
<path style="fill:#EBEBEB;" d="M374.332,152.511l-0.227-0.909c-1.058-0.314-1.845-1.255-1.845-2.416c0-1.414,1.146-2.56,2.56-2.56  s2.56,1.146,2.56,2.56c0,0.721-0.303,1.367-0.783,1.833l0.289,1.154c2.505-0.273,5.267-0.427,8.175-0.427  c-2.121,0-3.84-1.719-3.84-3.84s1.719-3.84,3.84-3.84s3.84,1.719,3.84,3.84s-1.719,3.84-3.84,3.84c2.908,0,5.669,0.154,8.175,0.427  l0.289-1.154c-0.48-0.465-0.783-1.111-0.783-1.833c0-1.414,1.146-2.56,2.56-2.56s2.56,1.146,2.56,2.56  c0,1.16-0.787,2.101-1.845,2.416l-0.227,0.909c1.301,0.201,2.512,0.434,3.598,0.7l1.887-3.774c-3.265-5.06-7.483-8.59-12.216-9.885  c-1.302-0.356-2.628-0.605-3.996-0.605s-2.694,0.248-3.996,0.605c-4.733,1.296-8.951,4.825-12.216,9.885l1.887,3.774  C371.82,152.944,373.031,152.712,374.332,152.511z"/>
<g>
	<path style="fill:#E6B432;" d="M382.499,362.137v-5.59c0-0.599,0.084-1.175,0.214-1.734c-0.068-0.044-0.144-0.075-0.214-0.116   c-0.756-0.44-1.623-0.71-2.56-0.71s-1.804,0.27-2.56,0.71c-1.524,0.887-2.56,2.519-2.56,4.41c0,1.377,0.55,2.621,1.435,3.541   c1.098-0.606,2.342-0.981,3.685-0.981C380.842,361.666,381.695,361.851,382.499,362.137z"/>
	<path style="fill:#E6B432;" d="M387.619,341.896c-1.524,0.887-2.56,2.519-2.56,4.41c0,1.377,0.55,2.621,1.435,3.541   c1.098-0.606,2.342-0.981,3.685-0.981s2.587,0.375,3.685,0.981c0.884-0.92,1.435-2.164,1.435-3.541c0-1.891-1.036-3.523-2.56-4.41   c-0.756-0.44-1.623-0.71-2.56-0.71S388.375,341.457,387.619,341.896z"/>
</g>
<path style="fill:#FF4B57;" d="M386.494,349.847c-1.88,1.038-3.283,2.817-3.781,4.965c-0.13,0.559-0.214,1.135-0.214,1.734v5.59  c-0.804-0.286-1.658-0.47-2.56-0.47c-1.343,0-2.587,0.375-3.685,0.981c-2.37,1.307-3.995,3.801-3.995,6.699v10.24h15.36v-10.24  c0-0.903-0.184-1.756-0.47-2.56h10.71v-10.24c0-2.898-1.625-5.391-3.995-6.699c-1.098-0.606-2.342-0.981-3.685-0.981  S387.592,349.242,386.494,349.847z"/>
<g>
	<path style="fill:#E6B432;" d="M387.619,246.897l4.374,4.375l1.496-1.496c0.355-0.355,0.797-0.539,1.253-0.642l21.65-21.656   l13.868,13.868l9.051-9.051l-3.62-3.62l-1.81,1.81l-3.62-3.62l1.81-1.81l-1.81-1.81l3.62-3.62l1.81,1.81l1.81-1.81l3.62,3.62   l-1.81,1.81l3.62,3.62l9.051-9.051l-13.871-13.871l9.492-9.495c-0.458-0.188-0.888-0.465-1.26-0.837l-5.12-5.12   c-0.382-0.382-0.661-0.825-0.849-1.297l-53.333,53.348c0.341,0.435,0.577,0.958,0.577,1.554v2.991L387.619,246.897L387.619,246.897   z"/>
	<path style="fill:#E6B432;" d="M381.747,262.134l-7.241-7.241l-22.508,22.514c-1.999,2-1.999,5.242,0.001,7.24   c1,1,2.31,1.5,3.62,1.5s2.621-0.5,3.621-1.5l17.592-17.597L381.747,262.134z"/>
</g>
<g>
	<path style="fill:#D2D2D2;" d="M311.865,288.705c0.143-0.402,0.235-0.828,0.235-1.279c0-2.121-1.719-3.84-3.84-3.84   s-3.84,1.719-3.84,3.84s1.719,3.84,3.84,3.84c0.451,0,0.877-0.092,1.279-0.235C310.264,290.207,311.04,289.431,311.865,288.705z"/>
	<path style="fill:#D2D2D2;" d="M309.538,324.781c-0.402-0.143-0.828-0.235-1.279-0.235c-2.121,0-3.84,1.719-3.84,3.84   s1.719,3.84,3.84,3.84s3.84-1.719,3.84-3.84c0-0.451-0.092-0.877-0.235-1.279C311.04,326.382,310.264,325.606,309.538,324.781z"/>
	<path style="fill:#D2D2D2;" d="M347.94,291.032c0.402,0.143,0.828,0.235,1.279,0.235c2.121,0,3.84-1.719,3.84-3.84   s-1.719-3.84-3.84-3.84s-3.84,1.719-3.84,3.84c0,0.451,0.092,0.877,0.235,1.279C346.439,289.431,347.215,290.207,347.94,291.032z"/>
	<path style="fill:#D2D2D2;" d="M345.379,328.386c0,2.121,1.719,3.84,3.84,3.84c1.183,0,2.227-0.546,2.932-1.387   c-2.406-0.871-4.656-1.84-6.726-2.903C345.407,328.086,345.379,328.232,345.379,328.386z"/>
</g>
<path style="fill:#E6B432;" d="M340.033,324.679c-0.539-0.391-0.862-0.957-0.987-1.561c-0.435,0.094-0.884,0.148-1.347,0.148  c-3.04,0-5.581-2.135-6.23-4.983c-0.696,0.705-1.661,1.143-2.73,1.143s-2.034-0.438-2.73-1.143c-0.648,2.848-3.189,4.983-6.23,4.983  c-3.529,0-6.4-2.87-6.4-6.4c0-3.041,2.136-5.582,4.983-6.23c-0.705-0.696-1.143-1.662-1.143-2.73c0-1.069,0.438-2.034,1.143-2.73  c-2.847-0.648-4.983-3.188-4.983-6.23c0-3.53,2.871-6.4,6.4-6.4c3.04,0,5.581,2.135,6.23,4.983c0.696-0.705,1.661-1.143,2.73-1.143  s2.034,0.438,2.73,1.143c0.648-2.848,3.189-4.983,6.23-4.983c3.529,0,6.4,2.87,6.4,6.4c0,3.041-2.136,5.582-4.983,6.23  c0.705,0.696,1.143,1.662,1.143,2.73c0,1.069-0.438,2.034-1.143,2.73c2.847,0.648,4.983,3.188,4.983,6.23  c0,1.35-0.425,2.599-1.141,3.633c0.024,0.016,0.053,0.017,0.077,0.035c1.656,1.199,3.565,2.314,5.685,3.333  c0.638-0.797,1.218-1.639,1.758-2.509c1.687-2.717,2.879-5.763,3.451-9.028c0.252-1.44,0.409-2.913,0.409-4.424  c0-6.467-2.43-12.364-6.399-16.875c-0.726-0.825-1.502-1.601-2.326-2.326c-4.511-3.969-10.408-6.399-16.875-6.399  s-12.364,2.43-16.875,6.399c-0.825,0.726-1.601,1.502-2.326,2.326c-3.969,4.511-6.399,10.408-6.399,16.875s2.43,12.364,6.399,16.875  c0.726,0.825,1.502,1.601,2.326,2.327c4.511,3.969,10.408,6.399,16.875,6.399c6.151,0,11.801-2.183,16.22-5.813  C343.176,326.754,341.517,325.754,340.033,324.679z M348.53,302.727c0.434,1.658,0.689,3.387,0.689,5.179s-0.255,3.521-0.689,5.179  c-0.723-2.062-2.005-3.839-3.679-5.179C346.525,306.567,347.807,304.79,348.53,302.727z M333.918,288.115  c-2.062,0.723-3.839,2.005-5.179,3.679c-1.34-1.674-3.117-2.957-5.179-3.679c1.658-0.434,3.387-0.689,5.179-0.689  S332.261,287.681,333.918,288.115z M308.949,302.727c0.723,2.062,2.005,3.84,3.679,5.179c-1.674,1.339-2.957,3.117-3.679,5.179  c-0.434-1.658-0.689-3.387-0.689-5.179C308.259,306.114,308.514,304.385,308.949,302.727z M323.56,327.697  c2.062-0.723,3.839-2.005,5.179-3.679c1.34,1.674,3.117,2.957,5.179,3.679c-1.658,0.434-3.387,0.689-5.179,0.689  S325.218,328.131,323.56,327.697z"/>
<g>
	<path style="fill:#F0C814;" d="M324.899,307.906c0-2.121-1.719-3.84-3.84-3.84c-1.052,0-2.004,0.424-2.697,1.11   c-0.705,0.696-1.143,1.662-1.143,2.73c0,1.069,0.438,2.034,1.143,2.73c0.694,0.685,1.645,1.11,2.697,1.11   C323.18,311.746,324.899,310.027,324.899,307.906z"/>
	<path style="fill:#F0C814;" d="M332.579,307.906c0,2.121,1.719,3.84,3.84,3.84c1.052,0,2.004-0.424,2.697-1.11   c0.705-0.696,1.143-1.662,1.143-2.73c0-1.069-0.438-2.034-1.143-2.73c-0.694-0.685-1.645-1.11-2.697-1.11   C334.299,304.066,332.579,305.786,332.579,307.906z"/>
	<path style="fill:#F0C814;" d="M328.739,304.066c2.121,0,3.84-1.719,3.84-3.84c0-1.052-0.425-2.004-1.11-2.697   c-0.696-0.705-1.661-1.143-2.73-1.143s-2.034,0.438-2.73,1.143c-0.685,0.694-1.11,1.645-1.11,2.697   C324.899,302.347,326.619,304.066,328.739,304.066z"/>
	<path style="fill:#F0C814;" d="M328.739,311.746c-2.121,0-3.84,1.719-3.84,3.84c0,1.052,0.425,2.004,1.11,2.697   c0.696,0.705,1.661,1.143,2.73,1.143s2.034-0.438,2.73-1.143c0.685-0.693,1.11-1.645,1.11-2.697   C332.579,313.466,330.86,311.746,328.739,311.746z"/>
</g>
<g>
	<path style="fill:#D2D2D2;" d="M446.344,195.421c0.372,0.372,0.802,0.649,1.26,0.837c0.465,0.19,0.96,0.288,1.455,0.288   c0.983,0,1.965-0.375,2.715-1.125c1.331-1.331,1.411-3.361,0.38-4.857l1.415-5.661c0.2,0.05,0.393,0.123,0.609,0.123   c1.414,0,2.56-1.146,2.56-2.56s-1.146-2.56-2.56-2.56s-2.56,1.146-2.56,2.56c0,0.216,0.072,0.409,0.123,0.609l-5.661,1.415   c-1.496-1.031-3.526-0.95-4.857,0.38c-1.118,1.118-1.398,2.752-0.849,4.133c0.188,0.472,0.467,0.915,0.849,1.297L446.344,195.421z"/>
	<path style="fill:#D2D2D2;" d="M382.499,255.646v-1.5v-10.24c0-0.596,0.236-1.119,0.577-1.554l-53.333-53.348   c-0.188,0.472-0.467,0.915-0.849,1.297l-5.12,5.12c-0.372,0.372-0.802,0.649-1.26,0.837l9.492,9.495l-13.871,13.871l9.051,9.051   l3.62-3.62l-1.81-1.81l3.62-3.62l1.81,1.81l1.81-1.81l3.62,3.62l-1.81,1.81l1.81,1.81l-3.62,3.62l-1.81-1.81l-3.62,3.62   l9.051,9.051l13.868-13.868l21.65,21.656c0.456,0.103,0.898,0.286,1.253,0.642L382.499,255.646z"/>
	<path style="fill:#D2D2D2;" d="M388.372,262.134l4.914,4.915l17.592,17.597c1,1,2.31,1.5,3.621,1.5c1.31,0,2.62-0.5,3.62-1.5   c2-1.997,2-5.24,0.001-7.24l-22.508-22.514L388.372,262.134z"/>
	<polygon style="fill:#D2D2D2;" points="387.619,254.146 387.619,255.646 391.994,251.272 387.619,246.897  "/>
	<path style="fill:#D2D2D2;" d="M460.58,291.032c0.402,0.143,0.828,0.235,1.279,0.235c2.121,0,3.84-1.719,3.84-3.84   s-1.719-3.84-3.84-3.84s-3.84,1.719-3.84,3.84c0,0.451,0.092,0.877,0.235,1.279C459.079,289.431,459.855,290.207,460.58,291.032z"/>
	<path style="fill:#D2D2D2;" d="M461.859,324.546c-0.451,0-0.877,0.092-1.279,0.235c-0.726,0.825-1.502,1.601-2.326,2.327   c-0.143,0.402-0.235,0.828-0.235,1.279c0,2.121,1.719,3.84,3.84,3.84s3.84-1.719,3.84-3.84   C465.699,326.266,463.98,324.546,461.859,324.546z"/>
	<path style="fill:#D2D2D2;" d="M424.505,288.705c0.143-0.402,0.235-0.828,0.235-1.279c0-2.121-1.719-3.84-3.84-3.84   s-3.84,1.719-3.84,3.84s1.719,3.84,3.84,3.84c0.451,0,0.877-0.092,1.279-0.235C422.904,290.207,423.68,289.431,424.505,288.705z"/>
	<path style="fill:#D2D2D2;" d="M420.899,332.226c2.121,0,3.84-1.719,3.84-3.84c0-0.154-0.028-0.301-0.045-0.45   c-2.07,1.063-4.32,2.033-6.726,2.904C418.672,331.681,419.717,332.226,420.899,332.226z"/>
</g>
<path style="fill:#E6B432;" d="M460.58,324.781c3.969-4.511,6.399-10.408,6.399-16.875s-2.43-12.364-6.399-16.875  c-0.726-0.825-1.502-1.601-2.326-2.326c-4.511-3.969-10.408-6.399-16.875-6.399s-12.364,2.43-16.875,6.399  c-0.825,0.726-1.601,1.502-2.326,2.326c-3.969,4.511-6.399,10.408-6.399,16.875c0,1.519,0.158,3,0.413,4.447  c0.574,3.256,1.764,6.294,3.447,9.004c0.54,0.87,1.12,1.712,1.758,2.509c2.118-1.019,4.026-2.132,5.681-3.33  c0.025-0.018,0.056-0.02,0.082-0.037c-0.716-1.033-1.141-2.283-1.141-3.633c0-3.041,2.136-5.582,4.983-6.23  c-0.705-0.696-1.143-1.662-1.143-2.73c0-1.069,0.438-2.034,1.143-2.73c-2.847-0.648-4.983-3.188-4.983-6.23  c0-3.53,2.871-6.4,6.4-6.4c3.04,0,5.581,2.135,6.23,4.983c0.696-0.705,1.661-1.143,2.73-1.143s2.034,0.438,2.73,1.143  c0.648-2.848,3.189-4.983,6.23-4.983c3.529,0,6.4,2.87,6.4,6.4c0,3.041-2.136,5.582-4.983,6.23c0.705,0.696,1.143,1.662,1.143,2.73  c0,1.069-0.438,2.034-1.143,2.73c2.847,0.648,4.983,3.188,4.983,6.23c0,3.53-2.871,6.4-6.4,6.4c-3.04,0-5.581-2.135-6.23-4.983  c-0.696,0.705-1.661,1.143-2.73,1.143s-2.034-0.438-2.73-1.143c-0.648,2.848-3.189,4.983-6.23,4.983  c-0.464,0-0.914-0.055-1.35-0.149c-0.124,0.606-0.448,1.174-0.988,1.564c-1.482,1.074-3.14,2.074-4.921,3.012  c4.419,3.629,10.068,5.813,16.22,5.813c6.467,0,12.364-2.429,16.875-6.399C459.079,326.382,459.855,325.606,460.58,324.781z   M421.589,313.085c-0.434-1.658-0.689-3.387-0.689-5.179s0.255-3.521,0.689-5.179c0.723,2.062,2.005,3.84,3.679,5.179  C423.594,309.246,422.311,311.023,421.589,313.085z M441.379,291.795c-1.34-1.674-3.117-2.957-5.179-3.679  c1.658-0.434,3.387-0.689,5.179-0.689s3.521,0.255,5.179,0.689C444.496,288.838,442.719,290.12,441.379,291.795z M461.17,302.727  c0.434,1.658,0.689,3.387,0.689,5.179s-0.255,3.521-0.689,5.179c-0.723-2.062-2.005-3.839-3.679-5.179  C459.165,306.567,460.447,304.79,461.17,302.727z M436.2,327.697c2.062-0.723,3.839-2.005,5.179-3.679  c1.34,1.674,3.117,2.957,5.179,3.679c-1.658,0.434-3.387,0.689-5.179,0.689S437.858,328.131,436.2,327.697z"/>
<g>
	<path style="fill:#F0C814;" d="M445.219,307.906c0,2.121,1.719,3.84,3.84,3.84c1.052,0,2.004-0.424,2.697-1.11   c0.705-0.696,1.143-1.662,1.143-2.73c0-1.069-0.438-2.034-1.143-2.73c-0.694-0.685-1.645-1.11-2.697-1.11   C446.939,304.066,445.219,305.786,445.219,307.906z"/>
	<path style="fill:#F0C814;" d="M437.539,307.906c0-2.121-1.719-3.84-3.84-3.84c-1.052,0-2.004,0.424-2.697,1.11   c-0.705,0.696-1.143,1.662-1.143,2.73c0,1.069,0.438,2.034,1.143,2.73c0.694,0.685,1.645,1.11,2.697,1.11   C435.82,311.746,437.539,310.027,437.539,307.906z"/>
	<path style="fill:#F0C814;" d="M441.379,304.066c2.121,0,3.84-1.719,3.84-3.84c0-1.052-0.425-2.004-1.11-2.697   c-0.696-0.705-1.661-1.143-2.73-1.143s-2.034,0.438-2.73,1.143c-0.685,0.694-1.11,1.645-1.11,2.697   C437.539,302.347,439.259,304.066,441.379,304.066z"/>
	<path style="fill:#F0C814;" d="M441.379,311.746c-2.121,0-3.84,1.719-3.84,3.84c0,1.052,0.425,2.004,1.11,2.697   c0.696,0.705,1.661,1.143,2.73,1.143s2.034-0.438,2.73-1.143c0.685-0.693,1.11-1.645,1.11-2.697   C445.219,313.466,443.5,311.746,441.379,311.746z"/>
</g>
<path style="fill:#F7B518;" d="M328.894,190.301c0.382-0.382,0.661-0.825,0.849-1.297c0.549-1.381,0.269-3.015-0.849-4.133  c-1.331-1.331-3.361-1.411-4.857-0.38l-5.661-1.415c0.05-0.2,0.123-0.393,0.123-0.609c0-1.414-1.146-2.56-2.56-2.56  s-2.56,1.146-2.56,2.56s1.146,2.56,2.56,2.56c0.216,0,0.409-0.072,0.609-0.123l1.415,5.661c-1.031,1.496-0.95,3.526,0.38,4.857  c0.75,0.75,1.733,1.125,2.715,1.125c0.495,0,0.99-0.098,1.455-0.288c0.458-0.188,0.888-0.465,1.26-0.837L328.894,190.301z"/>
<path style="fill:#FF4B55;" d="M430.081,324.681c0.54-0.391,0.865-0.959,0.988-1.564c0.139-0.679,0.022-1.406-0.416-2.011  c-0.812-1.117-2.353-1.374-3.493-0.607c-0.026,0.017-0.057,0.019-0.082,0.037c-1.655,1.198-3.563,2.312-5.681,3.33  c-7.505,3.61-17.667,6.02-28.658,6.798v-35.958c11.173,15.258,22.054,23.457,26.9,26.651c-1.683-2.71-2.873-5.748-3.447-9.004  c-6.196-5.126-14.958-13.735-23.453-26.718v-17.394c0.181-0.4,0.367-0.788,0.546-1.192l-4.914-4.915l7.241-7.241l1.496-1.496  c1-1,1-2.62,0-3.62c-0.645-0.645-1.539-0.828-2.367-0.642c-0.456,0.103-0.898,0.286-1.253,0.642l-1.496,1.496l-4.374,4.374v-1.5  v-7.25v-2.99c0-0.596-0.236-1.119-0.577-1.554c-0.469-0.598-1.165-1.006-1.983-1.006s-1.514,0.408-1.983,1.006  c-0.341,0.435-0.577,0.958-0.577,1.554v10.24v1.5l-5.87-5.87c-0.355-0.355-0.797-0.539-1.253-0.642  c-0.828-0.186-1.722-0.003-2.367,0.642c-1,1-1,2.62,0,3.62l1.496,1.496l7.241,7.241l-4.914,4.915  c0.18,0.405,0.365,0.793,0.546,1.192v17.374c-8.487,12.956-17.25,21.575-23.449,26.715c-0.572,3.265-1.763,6.311-3.451,9.028  c4.847-3.195,15.727-11.394,26.9-26.651v35.958c-10.991-0.778-21.152-3.187-28.658-6.798c-2.12-1.019-4.029-2.134-5.685-3.333  c-0.024-0.018-0.053-0.019-0.077-0.035c-1.139-0.771-2.684-0.511-3.498,0.605c-0.439,0.606-0.555,1.334-0.414,2.014  c0.125,0.604,0.448,1.17,0.987,1.561c1.484,1.075,3.143,2.076,4.926,3.015c0.154,0.082,0.309,0.163,0.466,0.243  c2.07,1.063,4.32,2.032,6.726,2.903c7.269,2.631,15.932,4.351,25.228,4.966v18.891c0.756-0.44,1.623-0.71,2.56-0.71  s1.804,0.27,2.56,0.71V336.03c0.851,0.018,1.702,0.037,2.56,0.037s1.709-0.019,2.56-0.037v5.867c0.756-0.44,1.623-0.71,2.56-0.71  s1.804,0.27,2.56,0.71v-6.091c9.297-0.614,17.96-2.335,25.229-4.965c2.406-0.871,4.656-1.841,6.726-2.904  c0.156-0.08,0.311-0.161,0.465-0.243C426.94,326.755,428.598,325.755,430.081,324.681z M385.059,330.946  c-0.857,0-1.709-0.017-2.56-0.037v-43.691c0.858-1.348,1.711-2.749,2.56-4.185c0.849,1.437,1.702,2.838,2.56,4.185v43.691  C386.768,330.929,385.916,330.946,385.059,330.946z"/>
<g>
	<path style="fill:#E6B432;" d="M385.059,184.457c14.138,0,25.6,2.42,25.6,5.404c0-5.022,0-9.922,0-10.687   c0-1.174-1.083-2.279-2.978-3.249l0.587-1.173c0.928-0.064,1.7-0.625,2.098-1.408c0.173-0.34,0.294-0.708,0.294-1.118   c0-0.493-0.176-0.926-0.417-1.316c-0.451-0.73-1.222-1.244-2.143-1.244c-1.414,0-2.56,1.146-2.56,2.56   c0,0.512,0.188,0.962,0.448,1.362l-0.674,1.348c-1.932-0.679-4.312-1.256-7.027-1.702l0.288-1.152   c1.058-0.314,1.845-1.255,1.845-2.416c0-1.414-1.146-2.56-2.56-2.56s-2.56,1.146-2.56,2.56c0,0.721,0.303,1.367,0.783,1.833   l-0.342,1.367c-1.426-0.178-2.922-0.32-4.475-0.425c0.116-0.481,0.193-0.977,0.193-1.494c0-3.535-2.865-6.4-6.4-6.4   s-6.4,2.865-6.4,6.4c0,0.517,0.078,1.013,0.193,1.494c-1.553,0.105-3.048,0.247-4.475,0.425l-0.342-1.367   c0.48-0.465,0.783-1.111,0.783-1.833c0-1.414-1.146-2.56-2.56-2.56s-2.56,1.146-2.56,2.56c0,1.16,0.787,2.101,1.845,2.416   l0.288,1.152c-2.715,0.446-5.095,1.023-7.027,1.702l-0.674-1.348c0.259-0.4,0.448-0.85,0.448-1.362c0-1.414-1.146-2.56-2.56-2.56   c-0.921,0-1.692,0.513-2.143,1.244c-0.241,0.39-0.417,0.824-0.417,1.316c0,0.41,0.122,0.778,0.294,1.118   c0.397,0.783,1.169,1.344,2.098,1.408l0.587,1.173c-1.895,0.97-2.978,2.075-2.978,3.249c0,0.765,0,5.665,0,10.687   C359.459,186.877,370.921,184.457,385.059,184.457z"/>
	<path style="fill:#E6B432;" d="M359.459,190.146l0.032-0.013c-0.008-0.086-0.032-0.202-0.032-0.272   C359.459,189.957,359.459,190.051,359.459,190.146z"/>
	<path style="fill:#E6B432;" d="M410.659,190.146c0-0.095,0-0.189,0-0.285c0,0.07-0.024,0.186-0.032,0.272L410.659,190.146z"/>
</g>
<path style="fill:#EBEBEB;" d="M364.579,195.266c0,0.512-0.188,0.962-0.448,1.362l0.97,1.941c1.693-0.839,4.008-1.561,6.775-2.115  l-0.333-1.333c-1.058-0.314-1.845-1.255-1.845-2.416c0-1.414,1.146-2.56,2.56-2.56s2.56,1.146,2.56,2.56  c0,0.721-0.303,1.367-0.783,1.833l0.369,1.477c2.47-0.369,5.199-0.615,8.094-0.706v-2.32c-0.78-0.703-1.28-1.711-1.28-2.843  c0-2.121,1.719-3.84,3.84-3.84s3.84,1.719,3.84,3.84c0,1.133-0.5,2.141-1.28,2.843v2.32c2.895,0.092,5.624,0.337,8.094,0.706  l0.369-1.477c-0.48-0.465-0.783-1.111-0.783-1.833c0-1.414,1.146-2.56,2.56-2.56s2.56,1.146,2.56,2.56  c0,1.16-0.787,2.101-1.845,2.416l-0.333,1.333c2.768,0.553,5.082,1.275,6.775,2.115l0.97-1.941c-0.259-0.4-0.448-0.85-0.448-1.362  c0-1.414,1.146-2.56,2.56-2.56c0.613,0,1.152,0.245,1.593,0.603c0.57-1.399,0.873-2.51,0.935-3.176  c0.008-0.086,0.032-0.202,0.032-0.272c0-2.985-11.462-5.404-25.6-5.404s-25.6,2.42-25.6,5.404c0,0.07,0.024,0.186,0.032,0.272  c0.062,0.666,0.365,1.777,0.935,3.176c0.441-0.359,0.98-0.603,1.593-0.603C363.433,192.706,364.579,193.852,364.579,195.266z"/>
<path style="fill:#E6B432;" d="M359.459,195.266c0,1.354,1.061,2.435,2.392,2.526l1.105,2.21c-0.6,0.587-0.937,1.205-0.937,1.847  c0,0.739,0.445,1.447,1.231,2.11l3.889,6.668c0-2.828,8.023-5.12,17.92-5.12s17.92,2.292,17.92,5.12l3.889-6.668  c0.786-0.663,1.231-1.371,1.231-2.11c0-0.642-0.337-1.261-0.937-1.847l1.105-2.21c1.331-0.091,2.392-1.172,2.392-2.526  c0-0.801-0.391-1.487-0.967-1.957c-0.441-0.359-0.98-0.603-1.593-0.603c-1.414,0-2.56,1.146-2.56,2.56  c0,0.512,0.188,0.962,0.448,1.362l-0.97,1.941c-1.693-0.839-4.008-1.561-6.775-2.115l0.333-1.333  c1.058-0.314,1.845-1.255,1.845-2.416c0-1.414-1.146-2.56-2.56-2.56s-2.56,1.146-2.56,2.56c0,0.721,0.303,1.367,0.783,1.833  l-0.369,1.477c-2.47-0.369-5.199-0.615-8.094-0.706v-2.32c0.78-0.703,1.28-1.711,1.28-2.843c0-2.121-1.719-3.84-3.84-3.84  s-3.84,1.719-3.84,3.84c0,1.133,0.5,2.141,1.28,2.843v2.32c-2.895,0.092-5.624,0.337-8.094,0.706l-0.369-1.477  c0.48-0.465,0.783-1.111,0.783-1.833c0-1.414-1.146-2.56-2.56-2.56s-2.56,1.146-2.56,2.56c0,1.16,0.787,2.101,1.845,2.416  l0.333,1.333c-2.768,0.553-5.082,1.275-6.775,2.115l-0.97-1.941c0.259-0.4,0.448-0.85,0.448-1.362c0-1.414-1.146-2.56-2.56-2.56  c-0.613,0-1.152,0.245-1.593,0.603C359.85,193.779,359.459,194.465,359.459,195.266z"/>
<ellipse style="fill:#EBEBEB;" cx="385.06" cy="210.63" rx="17.92" ry="5.12"/>
<g>
	<path style="fill:#E6B432;" d="M410.046,167.005l-4.506-10.139c0-0.64-0.491-1.251-1.35-1.816l3.64-7.279   c0.633-1.265,0.12-2.803-1.145-3.435c-1.267-0.628-2.802-0.118-3.435,1.145l-1.977,3.955l-1.887,3.774   c-1.086-0.266-2.297-0.499-3.598-0.7l0.227-0.909c1.058-0.314,1.845-1.255,1.845-2.416c0-1.414-1.146-2.56-2.56-2.56   s-2.56,1.146-2.56,2.56c0,0.721,0.303,1.367,0.783,1.833l-0.289,1.154c-2.505-0.273-5.267-0.427-8.175-0.427   s-5.669,0.154-8.175,0.427l-0.289-1.154c0.48-0.465,0.783-1.111,0.783-1.833c0-1.414-1.146-2.56-2.56-2.56s-2.56,1.146-2.56,2.56   c0,1.16,0.787,2.101,1.845,2.416l0.227,0.909c-1.301,0.201-2.512,0.434-3.598,0.7l-1.887-3.774l-1.977-3.955   c-0.634-1.262-2.166-1.772-3.435-1.145c-1.265,0.632-1.777,2.17-1.145,3.435l3.64,7.279c-0.859,0.565-1.35,1.175-1.35,1.816   l-4.506,10.139c2.527-2.87,12.746-5.019,24.986-5.019C397.299,161.986,407.518,164.135,410.046,167.005z"/>
	<circle style="fill:#E6B432;" cx="385.06" cy="147.91" r="3.84"/>
</g>
<g>
</g>
<g>
</g>
<g>
</g>
<g>
</g>
<g>
</g>
<g>
</g>
<g>
</g>
<g>
</g>
<g>
</g>
<g>
</g>
<g>
</g>
<g>
</g>
<g>
</g>
<g>
</g>
<g>
</g>
</svg>
