<?xml version="1.0" encoding="iso-8859-1"?>
<!-- Generator: Adobe Illustrator 19.0.0, SVG Export Plug-In . SVG Version: 6.00 Build 0)  -->
<svg xmlns="http://www.w3.org/2000/svg" xmlns:xlink="http://www.w3.org/1999/xlink" version="1.1" id="Layer_1" x="0px" y="0px" viewBox="0 0 512.003 512.003" style="enable-background:new 0 0 512.003 512.003;" xml:space="preserve">
<rect y="0.001" style="fill:#73AF00;" width="512" height="512"/>
<rect x="326.62" y="175.161" style="fill:#FF4B55;" width="61.793" height="336.84"/>
<rect x="388.41" y="175.161" style="fill:#464655;" width="61.793" height="336.84"/>
<g>
	<rect x="450.21" y="175.161" style="fill:#FF9B55;" width="61.793" height="336.84"/>
	<path style="fill:#FF9B55;" d="M502.081,77.068c0.205-0.412,0.107-0.911-0.238-1.215c-0.347-0.306-0.854-0.338-1.236-0.085   c-1.901,1.262-3.818,2.409-5.719,3.449c6.119-5.058,6.977-9.45,7.032-9.77c0.069-0.402-0.109-0.807-0.452-1.027   c-0.344-0.222-0.785-0.217-1.122,0.013c-6.61,4.484-13.227,7.684-18.931,9.936c7.662-4.841,10.696-9.778,10.883-10.091   c0.24-0.401,0.176-0.913-0.155-1.243c-0.331-0.331-0.843-0.391-1.243-0.151c-6.116,3.687-13.361,6.594-20.284,8.833   c0.919-1.418,1.574-3.012,0.986-3.907c-0.546-0.83-1.543-0.83-2.967,0.004c-2.881,1.689-24.721,7.256-33.182,9.33   c-8.625-1.559-15.772,0.653-17.998,1.469c-0.593-0.706-0.864-1.39-0.978-1.924c-0.186-0.87-0.051-1.755,0.36-2.367   c0.671-0.998,2.057-1.094,3.281-1.178c0.532-0.036,1.007-0.069,1.423-0.174c0.266,0.078,0.593,0.232,0.587,0.351   c-0.025,0.464,0.268,0.884,0.711,1.023c0.444,0.138,0.923-0.039,1.168-0.433c0.062-0.099,1.5-2.455,0.386-4.46   c-0.811-1.459-2.671-2.225-5.532-2.28c-1.174-0.819-5.61-3.485-11.075-1.425c-5.536,2.088-7.993,7.774-8.805,10.177   c-4.308-0.598-24.088-3.617-34.841-9.929c-0.523-0.238-2.306-0.937-3.303,0.011c-0.612,0.581-0.684,1.482-0.215,2.679   c0.249,0.635,0.631,1.256,1.138,1.864c-5.756-2.641-13.515-6.333-19.382-9.614c-0.917-0.425-2.583-1.003-3.442-0.102   c-0.539,0.566-0.531,1.39,0.025,2.448c0.117,0.223,0.232,0.473,0.359,0.746c0.571,1.231,1.349,2.908,3.252,4.845   c-1.421-0.776-2.703-1.575-3.73-2.374c-5.149-4.005-5.846-4.397-6.768-3.776c-0.794,0.535-0.538,1.439-0.266,2.396l0.072,0.253   c0.223,0.796,0.589,2.078,1.589,3.624c-0.798-0.543-1.484-0.653-2.024-0.277c-0.323,0.222-0.807,0.777-0.433,1.997   c0.895,2.919,7.083,10.604,18.852,12.868c-1.184,0.173-2.427,0.301-3.629,0.325c-0.456,0.009-0.851,0.322-0.965,0.764   c-0.113,0.442,0.082,0.907,0.478,1.135c0.215,0.123,4.376,2.451,12.003,2.255c-1.141,0.287-2.436,0.509-3.867,0.595   c-0.445,0.026-0.821,0.339-0.927,0.772c-0.107,0.433,0.081,0.884,0.462,1.114c0.227,0.137,4.652,2.741,11.506,2.357l-0.597,0.368   c-0.344,0.211-0.53,0.605-0.475,1.005c0.055,0.399,0.341,0.729,0.729,0.84c0.214,0.061,4.077,1.136,8.889,0.628l-0.846,0.602   c-0.34,0.242-0.498,0.666-0.399,1.071s0.435,0.709,0.848,0.766c0.087,0.013,0.71,0.093,1.707,0.093c0.657,0,1.478-0.037,2.413-0.15   c-0.021,0.243,0.007,0.485,0.087,0.725c0.482,1.449,2.616,1.8,3.326,1.81c0.044,0.001,0.086,0.001,0.129,0.001   c0.859,0,1.767-0.121,2.694-0.305c1.483,1.386,4.192,1.259,6.819,0.648c-0.155,0.236-0.274,0.472-0.348,0.707   c-0.152,0.48-0.036,0.971,0.307,1.313c0.335,0.332,1.141,1.133,8.486-0.933c-0.03,0.024-0.061,0.047-0.091,0.071   c-0.976,0.756-0.914,1.537-0.79,1.935c0.45,1.445,3.69,2.369,9.569,2.764c0.13,3.269-0.779,6.821-0.788,6.86   c-0.102,0.391,0.038,0.806,0.356,1.056c0.317,0.248,0.754,0.287,1.111,0.096c0.34-0.183,0.678-0.42,0.998-0.675l-0.028,1.081   c-0.011,0.392,0.205,0.755,0.555,0.933c0.146,0.074,0.304,0.111,0.462,0.111c0.04,0,0.078-0.015,0.117-0.019   c-0.109,0.921-0.483,2.021-1.665,2.28c-0.536,0.117-1.104,0.176-1.653,0.232c-2.503,0.256-5.339,0.547-5.788,6.283   c-0.034,0.431,0.208,0.835,0.603,1.01c0.393,0.172,0.855,0.081,1.153-0.233l1.09-1.158c0.641,0.158,1.663,0.319,2.756,0.142   c-0.276,1.327-0.194,2.96,1.134,4.346c0.288,0.299,0.729,0.394,1.114,0.24c0.385-0.155,0.638-0.529,0.638-0.944v-0.735   c0.631-0.147,1.47-0.453,2.263-1.085c0.464,1.002,1.351,2.178,3.038,3.171c0.16,0.094,0.338,0.14,0.516,0.14   c0.232,0,0.464-0.079,0.65-0.235c0.33-0.274,0.452-0.727,0.306-1.13l-0.531-1.461c0.37-0.366,0.853-0.888,1.273-1.446   c0.208,0.302,0.557,0.476,0.93,0.44c0.387-0.037,0.719-0.291,0.856-0.656l0.374-0.996c0.221-0.061,0.432-0.134,0.632-0.217   c0.25,2.204,1.945,4.038,2.047,4.146c0.195,0.207,0.464,0.321,0.741,0.321c0.083,0,0.166-0.01,0.248-0.03   c0.358-0.09,0.639-0.367,0.735-0.723l0.567-2.115c1.502-0.761,1.649-2.139,1.74-2.997c0.018-0.168,0.043-0.402,0.048-0.52   c0.586,0.289,1.831,1.686,2.769,3.136c0.187,0.288,0.506,0.464,0.849,0.465c0.349-0.025,0.664-0.17,0.854-0.456   c0,0,0.795-1.203,1.182-1.905c1.64-2.977-0.845-4.76-2.039-5.616c-0.293-0.21-0.694-0.498-0.759-0.578   c-0.224-0.545-0.145-1.053,0.002-1.448c0.996,0.687,2.128,1.265,3.381,1.559c0.078,0.019,0.156,0.027,0.233,0.027   c0.327,0,0.641-0.158,0.833-0.435c0.239-0.34,0.246-0.793,0.017-1.141c-0.023-0.035-1.893-2.913-3.099-6.452   c1.948,1.142,4.584,2.522,5.95,2.522c0.938,0,1.296-0.584,1.408-0.835c0.065-0.147,0.182-0.413,0.089-0.912   c1.81,0.978,3.851,1.735,5.402,1.335c0.458-0.118,1.533-0.395,1.696-1.359c0.083-0.488-0.082-0.882-0.442-1.271   c1.68,0.408,3.493,0.611,5.269,0.376c1.482-0.195,1.919-0.914,2.024-1.483c0.067-0.364,0.186-1.063-1.135-2.387   c2.552-0.14,4.833-0.698,5.02-2.238c0.017-0.138-0.009-0.264-0.021-0.394c8.205-0.894,14.448-6.026,14.724-6.257   c0.08-0.067,0.134-0.151,0.188-0.234c4.968-0.62,10.61-1.743,15.177-3.795c8.62-3.875,12.986-9.107,12.204-11.006   c-0.227-0.552-0.879-0.952-1.682-0.652c-0.225,0.084-0.682,0.269-1.281,0.513C499.893,81.295,501.891,77.452,502.081,77.068z"/>
</g>
<path style="fill:#464655;" d="M502.081,77.068c0.205-0.412,0.107-0.911-0.238-1.215c-0.347-0.306-0.854-0.337-1.236-0.085  c-1.901,1.263-3.819,2.41-5.72,3.449c6.119-5.058,6.978-9.45,7.032-9.77c0.069-0.402-0.109-0.807-0.452-1.027  c-0.344-0.222-0.785-0.217-1.122,0.013c-6.611,4.483-13.227,7.684-18.931,9.936c7.662-4.841,10.697-9.778,10.883-10.091  c0.24-0.401,0.176-0.914-0.155-1.243c-0.331-0.331-0.843-0.391-1.243-0.151c-6.116,3.687-13.361,6.594-20.284,8.833  c0.919-1.419,1.574-3.013,0.986-3.907c-0.546-0.83-1.542-0.83-2.967,0.004c-2.881,1.689-24.72,7.255-33.182,9.33  c-8.625-1.559-15.772,0.652-17.999,1.468c-0.593-0.706-0.864-1.39-0.978-1.924c-0.186-0.87-0.051-1.755,0.36-2.367  c0.671-0.998,2.058-1.093,3.281-1.177c0.531-0.036,1.007-0.069,1.423-0.173c0.266,0.078,0.593,0.232,0.587,0.351  c-0.025,0.464,0.268,0.884,0.711,1.024c0.444,0.138,0.923-0.039,1.169-0.433c0.062-0.099,1.5-2.455,0.386-4.46  c-0.811-1.459-2.671-2.225-5.532-2.28c-1.175-0.819-5.61-3.485-11.075-1.425c-5.536,2.088-7.993,7.774-8.805,10.176  c-4.308-0.598-24.088-3.617-34.841-9.929c-0.522-0.238-2.306-0.937-3.303,0.011c-0.612,0.581-0.683,1.482-0.215,2.679  c0.249,0.635,0.631,1.256,1.138,1.864c-5.756-2.641-13.515-6.333-19.382-9.614c-0.917-0.425-2.583-1.003-3.441-0.102  c-0.539,0.566-0.531,1.39,0.025,2.448c0.117,0.223,0.232,0.473,0.359,0.747c0.571,1.231,1.349,2.908,3.252,4.845  c-1.421-0.776-2.703-1.575-3.73-2.374c-5.149-4.005-5.846-4.398-6.768-3.776c-0.794,0.535-0.538,1.439-0.266,2.396l0.072,0.253  c0.223,0.796,0.588,2.078,1.588,3.624c-0.798-0.543-1.483-0.654-2.024-0.277c-0.323,0.221-0.806,0.777-0.433,1.997  c0.895,2.919,7.083,10.604,18.852,12.868c-1.184,0.173-2.427,0.301-3.629,0.325c-0.457,0.009-0.852,0.322-0.965,0.764  s0.082,0.907,0.478,1.134c0.215,0.123,4.375,2.451,12.003,2.255c-1.141,0.287-2.435,0.51-3.867,0.595  c-0.445,0.026-0.821,0.339-0.927,0.772c-0.107,0.433,0.081,0.884,0.462,1.114c0.227,0.137,4.653,2.741,11.506,2.357l-0.597,0.368  c-0.344,0.211-0.53,0.605-0.475,1.005s0.341,0.729,0.729,0.84c0.214,0.061,4.077,1.136,8.889,0.628l-0.846,0.602  c-0.34,0.242-0.498,0.666-0.398,1.071c0.099,0.405,0.435,0.709,0.848,0.765c0.087,0.013,0.71,0.094,1.707,0.094  c0.656,0,1.478-0.037,2.412-0.15c-0.021,0.243,0.007,0.485,0.087,0.725c0.481,1.449,2.616,1.8,3.326,1.809  c0.044,0.001,0.086,0.001,0.129,0.001c0.859,0,1.767-0.121,2.694-0.305c1.483,1.386,4.192,1.259,6.819,0.648  c-0.155,0.236-0.274,0.472-0.349,0.707c-0.151,0.48-0.036,0.971,0.308,1.313c0.335,0.332,1.141,1.132,8.486-0.934  c-0.03,0.024-0.061,0.047-0.092,0.071c-0.976,0.756-0.914,1.537-0.79,1.936c0.45,1.444,3.69,2.369,9.57,2.764  c0.13,3.269-0.779,6.821-0.788,6.86c-0.102,0.392,0.038,0.806,0.356,1.056c0.317,0.248,0.753,0.287,1.11,0.096  c0.34-0.184,0.678-0.42,0.998-0.675l-0.028,1.081c-0.01,0.392,0.205,0.755,0.555,0.934c0.146,0.074,0.304,0.111,0.461,0.111  c0.04,0,0.078-0.015,0.118-0.02c-0.11,0.921-0.483,2.021-1.665,2.28c-0.536,0.117-1.104,0.176-1.653,0.232  c-2.503,0.257-5.339,0.547-5.788,6.283c-0.033,0.43,0.208,0.835,0.603,1.01c0.393,0.172,0.855,0.081,1.152-0.233l1.09-1.159  c0.641,0.158,1.664,0.319,2.756,0.142c-0.275,1.327-0.194,2.96,1.134,4.346c0.288,0.3,0.729,0.394,1.114,0.24  c0.386-0.155,0.638-0.528,0.638-0.944v-0.734c0.631-0.147,1.471-0.453,2.263-1.085c0.464,1.002,1.351,2.178,3.038,3.171  c0.16,0.094,0.339,0.141,0.516,0.141c0.232,0,0.464-0.08,0.651-0.235c0.33-0.274,0.452-0.726,0.306-1.13l-0.531-1.462  c0.37-0.366,0.853-0.888,1.273-1.446c0.208,0.302,0.557,0.476,0.93,0.44c0.387-0.037,0.72-0.292,0.856-0.656l0.374-0.996  c0.221-0.061,0.432-0.134,0.632-0.216c0.25,2.204,1.945,4.038,2.047,4.146c0.195,0.208,0.464,0.321,0.741,0.321  c0.083,0,0.166-0.01,0.248-0.03c0.359-0.09,0.639-0.367,0.735-0.723l0.567-2.115c1.502-0.761,1.649-2.139,1.74-2.997  c0.018-0.168,0.043-0.402,0.048-0.52c0.586,0.289,1.831,1.686,2.769,3.135c0.186,0.288,0.506,0.464,0.849,0.465  c0.349-0.025,0.664-0.17,0.854-0.457c0,0,0.795-1.203,1.181-1.905c1.64-2.977-0.845-4.759-2.039-5.616  c-0.293-0.21-0.694-0.498-0.759-0.578c-0.224-0.545-0.145-1.053,0.002-1.448c0.996,0.687,2.128,1.265,3.381,1.56  c0.077,0.018,0.156,0.027,0.233,0.027c0.327,0,0.64-0.158,0.833-0.434c0.239-0.341,0.246-0.793,0.017-1.141  c-0.022-0.035-1.893-2.913-3.099-6.452c1.948,1.141,4.584,2.523,5.951,2.523c0.938,0,1.296-0.584,1.407-0.835  c0.065-0.147,0.182-0.413,0.09-0.912c1.81,0.978,3.851,1.735,5.403,1.335c0.458-0.118,1.533-0.396,1.696-1.359  c0.083-0.488-0.083-0.882-0.442-1.271c1.68,0.408,3.492,0.611,5.269,0.376c1.482-0.196,1.919-0.914,2.024-1.483  c0.067-0.364,0.186-1.063-1.135-2.387c2.552-0.14,4.833-0.698,5.019-2.238c0.017-0.138-0.009-0.264-0.021-0.394  c8.205-0.895,14.448-6.026,14.724-6.257c0.08-0.067,0.134-0.151,0.188-0.234c4.968-0.62,10.61-1.742,15.177-3.795  c8.62-3.876,12.986-9.107,12.204-11.007c-0.227-0.552-0.879-0.953-1.682-0.652c-0.225,0.085-0.682,0.269-1.28,0.513  C499.893,81.295,501.891,77.452,502.081,77.068z M487.098,71.292c-3.747,3.666-10.806,8.938-22.447,11.996  c-0.102,0.027-0.188,0.079-0.273,0.132c-2.449-0.191-5.542-0.638-8.256-1.651C464.725,79.818,476.812,76.457,487.098,71.292z   M435.295,83.185c0.143,0.026,0.289,0.022,0.429-0.012c1.21-0.296,29.234-7.169,33.733-9.489c-0.523,1.031-1.528,2.475-2.349,3.077  c-0.024,0.017-0.034,0.042-0.056,0.061c-12.066,3.582-22.306,5.092-22.476,5.116c-0.556,0.08-0.942,0.596-0.862,1.152  s0.594,0.942,1.152,0.862c0.093-0.014,3.202-0.472,7.977-1.468c2.471,1.417,5.51,2.199,8.277,2.622  c-4.133,0.349-7.958,0.15-8.022,0.145c-0.482-0.018-0.95,0.317-1.052,0.811c-0.102,0.494,0.173,0.988,0.647,1.16l3.848,1.41  c-5.411,1.152-10.628,0.071-10.688,0.057c-0.418-0.092-0.843,0.089-1.07,0.447c-0.228,0.357-0.212,0.819,0.042,1.158  c0.735,0.981,2.808,2.01,4.616,2.769c-7.437,1.408-12.557-3.151-12.797-3.37c-0.414-0.378-1.054-0.35-1.433,0.061  c-0.38,0.411-0.357,1.051,0.051,1.432c5.875,5.499,16.827,7.841,21.742,8.648c-0.728,0.43-1.606,0.835-2.525,1  c-3.773,0.67-12.482-3.472-18.61-6.825l-4.907-2.832c-0.481-0.278-1.098-0.118-1.382,0.36c-0.285,0.479-0.133,1.097,0.34,1.388  c0.235,0.144,2.16,1.323,4.894,2.825l11.945,6.893c-3.664,0.453-7.531-0.368-7.579-0.378c-0.029-0.006-0.058,0.003-0.087-0.001  c-2.796-1.966-7.308-5.276-14.081-10.893c-1.09-3.891-3.133-5.601-5.691-7.225C422.21,83.259,428.307,81.874,435.295,83.185z   M442.678,104.757c-0.006,0.002-0.011,0.007-0.017,0.009c0,0-0.01-0.007-0.014-0.011  C442.658,104.756,442.668,104.757,442.678,104.757z M376.41,100.143l2.327-1.656c0.414-0.294,0.548-0.849,0.313-1.299  c-0.235-0.451-0.767-0.656-1.245-0.488c-3.845,1.373-7.736,1.233-10.173,0.92l2.695-1.658c0.429-0.264,0.601-0.803,0.402-1.266  c-0.197-0.463-0.703-0.712-1.194-0.584c-4.905,1.288-8.989,0.753-11.663,0.015c4.25-0.993,6.719-2.873,6.849-2.974  c0.372-0.288,0.498-0.793,0.305-1.222c-0.193-0.428-0.654-0.664-1.117-0.582c-5.603,1.055-9.93,0.708-12.834,0.107  c3.002-0.504,5.387-1.221,5.535-1.266c0.017-0.005,0.029-0.019,0.046-0.025c0.069-0.025,0.127-0.063,0.188-0.102  c0.052-0.033,0.105-0.06,0.15-0.1c0.049-0.044,0.084-0.098,0.123-0.151c0.038-0.052,0.079-0.099,0.107-0.157  c0.026-0.055,0.037-0.116,0.054-0.176c0.019-0.069,0.039-0.134,0.044-0.207c0.001-0.017,0.01-0.03,0.01-0.048  c0.001-0.053-0.021-0.1-0.029-0.151c-0.007-0.051,0.001-0.102-0.014-0.153c-0.005-0.016-0.017-0.027-0.023-0.042  c-0.025-0.068-0.063-0.126-0.1-0.187c-0.033-0.053-0.06-0.108-0.102-0.154c-0.043-0.048-0.096-0.082-0.148-0.121  c-0.053-0.04-0.101-0.082-0.161-0.111c-0.055-0.026-0.115-0.037-0.174-0.053c-0.069-0.02-0.135-0.04-0.208-0.044  c-0.017-0.001-0.031-0.01-0.048-0.01c-13.069-0.123-20.282-6.997-22.59-10.506c4.072,2.837,9.421,5.245,13.317,6.628l0.003,0.001  c5.181,2.001,11.639,3.276,11.913,3.329c0.55,0.107,1.086-0.251,1.194-0.803c0.108-0.551-0.252-1.086-0.803-1.194  c-0.065-0.013-6.579-1.298-11.599-3.241c-10.828-4.19-13.021-8.728-13.752-11.02c1.17,0.832,2.743,2.055,3.585,2.71  c6.337,4.929,21.085,9.591,21.71,9.787c0.534,0.169,1.098-0.125,1.272-0.654c0.173-0.53-0.112-1.1-0.639-1.28  c-15.248-5.194-17.537-10.132-18.768-12.785c-0.107-0.231-0.207-0.446-0.306-0.646c0.205,0.063,0.419,0.142,0.593,0.22  c8.454,4.731,20.876,10.331,25.572,12.41c-0.845,0.406-1.731,0.747-2.318,0.779c-0.392,0.022-0.737,0.267-0.885,0.631  c-0.149,0.363-0.076,0.779,0.188,1.07c0.062,0.068,1.059,1.137,2.994,1.554l-1.374,0.896c-0.322,0.211-0.499,0.585-0.455,0.969  c0.044,0.383,0.301,0.708,0.663,0.84c0.094,0.034,1.664,0.586,3.738,0.805l-1.143,0.834c-0.29,0.212-0.447,0.562-0.413,0.919  s0.255,0.671,0.58,0.823c0.133,0.062,1.697,0.772,4.206,0.654l-0.086,0.06c-0.331,0.232-0.493,0.639-0.413,1.035  c0.08,0.396,0.387,0.708,0.782,0.793c0.156,0.033,2.077,0.428,4.833,0.115l-0.626,0.417c-0.333,0.221-0.506,0.619-0.439,1.014  c0.066,0.395,0.358,0.714,0.745,0.817c0.296,0.076,4.748,1.185,10.591-0.669c-1.225,0.806-2.367,1.391-3.31,1.603  c-0.43,0.097-0.75,0.461-0.79,0.901s0.209,0.855,0.615,1.028c0.027,0.011,0.127,0.05,0.26,0.098  C381.848,99.21,378.657,99.929,376.41,100.143z M371.488,81.686c-0.197-0.455-0.691-0.704-1.175-0.584  c-1.178,0.287-2.131,0.258-2.867,0.103c1.206-0.537,2.236-1.177,2.418-1.293c0.073-0.046,0.137-0.103,0.195-0.165  c1.81,0.728,3.865,1.428,6.17,2.096l-3.905,2.85c-1.308,0.139-2.605,0.014-3.639-0.171l2.424-1.58  C371.525,82.671,371.685,82.141,371.488,81.686z M380.629,102.62c-0.386-0.005-1.1-0.202-1.365-0.392  c0.067-0.107,0.236-0.316,0.613-0.615c2.402-0.616,5.16-1.783,7.803-3.939c2.773,0.201,7.135-0.458,11.579-4.925  c0.164,0.298,0.336,0.598,0.536,0.905C399.312,94.02,387.828,102.685,380.629,102.62z M388.565,95.674  c3.29-1.98,6.97-5.424,9.266-7.724c0.036,0.842,0.199,1.807,0.563,2.868c-0.079,0.047-0.161,0.09-0.228,0.16  C394.522,94.822,390.974,95.669,388.565,95.674z M407.677,108.843c-3.349-0.229-6.468-0.749-7.607-1.253  c2.771-2.163,3.565-3.118,3.649-3.223c0.28-0.35,0.297-0.844,0.042-1.213c-0.257-0.371-0.725-0.53-1.151-0.39  c-3.652,1.18-7.917,2.332-10.023,2.628c0.967-0.869,2.687-1.965,4.242-2.743c0.498-0.25,0.704-0.853,0.46-1.354  c-0.243-0.502-0.844-0.713-1.348-0.477c-2.769,1.302-6.732,2.615-9.214,2.595c6.752-2.431,13.636-7.631,14.291-8.134  c0.519,0.62,1.093,1.248,1.782,1.888C408.878,102.818,408.212,107.25,407.677,108.843z M409.353,115.046  c-0.056,0.067-0.131,0.156-0.222,0.258c0.221-1.506,0.379-3.395,0.234-5.193c0.559-1.23,1.693-4.877-1.241-9.714  c1.934,0.281,6.374,1.212,8.295,4.006c0.255,0.371,0.508,0.781,0.758,1.208l-0.002,0.003c-0.095,0.225-2.019,4.884-1.405,10.709  c-0.45-0.53-0.88-1.18-1.168-1.942c-0.136-0.357-0.46-0.609-0.84-0.65c-0.376-0.04-0.751,0.133-0.961,0.452  c-0.429,0.651-1.05,1.542-1.666,2.357l0.021-0.822c0.012-0.434-0.254-0.826-0.66-0.979  C410.089,114.589,409.63,114.71,409.353,115.046z M415.912,127.712c-0.203,0.607-1.288,1.777-1.993,2.413  c-0.025,0.022-0.049,0.046-0.072,0.071c-0.531-0.879-0.512-1.574-0.511-1.612c0.035-0.476-0.265-0.912-0.721-1.05  c-0.458-0.138-0.948,0.062-1.181,0.477c-0.93,1.661-2.564,1.832-2.863,1.851c0.052-1.226,0.76-2.339,0.805-2.408  c0.281-0.428,0.2-0.998-0.189-1.331c-0.388-0.333-0.963-0.325-1.344,0.018c-1.494,1.352-3.865,0.477-3.887,0.47  c-0.098-0.038-0.199-0.06-0.3-0.067c0.657-1.429,1.806-1.547,3.394-1.709c0.606-0.063,1.233-0.127,1.881-0.269  c3.131-0.685,3.5-4.146,3.258-5.881c-0.007-0.048-0.033-0.087-0.046-0.132c0.491-0.603,0.979-1.263,1.385-1.833  c0.199,0.304,0.411,0.577,0.625,0.836c0.006,0.743,0.048,3.03,0.306,4.235c0.205,0.957,0.903,1.601,1.575,2.015  c-0.11,0.216-0.204,0.444-0.265,0.691c-0.239,0.985-0.037,2.069,0.267,2.997C415.991,127.565,415.94,127.629,415.912,127.712z   M416.448,121.366c-0.097-0.454-0.159-1.167-0.199-1.885c0.285,0.196,0.484,0.313,0.513,0.329c0.354,0.196,0.792,0.165,1.114-0.082  c0.321-0.247,0.466-0.661,0.367-1.054c-1.074-4.298-0.355-8.318,0.242-10.521c1.752,3.85,3.009,8.602,2.574,11.735  c-0.067,0.479,0.214,0.939,0.67,1.099c0.095,0.033,0.193,0.043,0.289,0.048c-0.011,0.107-0.021,0.219-0.034,0.318  c-1.029-0.032-2.725,0.126-4.369,0.981C417.145,122.138,416.536,121.779,416.448,121.366z M429.846,126.625  c-0.081,0.146-0.181,0.316-0.288,0.492c-1.214-1.608-2.882-3.262-4.309-2.723c-1.15,0.438-1.268,1.546-1.347,2.279  c-0.094,0.885-0.161,1.254-0.899,1.507c-0.321,0.109-0.566,0.371-0.654,0.698l-0.114,0.423c-0.388-0.854-0.594-1.885-0.015-2.764  c0.297-0.45,0.188-1.052-0.244-1.374c-0.433-0.321-1.043-0.248-1.389,0.166c-0.009,0.01-0.931,1.095-2.271,1.286  c-0.139,0.02-0.27,0.068-0.386,0.139c-0.195-0.621-0.307-1.273-0.184-1.777c0.074-0.301,0.222-0.505,0.48-0.661  c2.038-1.233,4.415-0.883,4.436-0.879c0.537,0.089,1.031-0.25,1.153-0.771c0.055-0.232,0.491-2.216,0.173-3.878l1.316-2.21  c0.473,0.605,1.113,1.347,1.896,2.077c-0.432,0.792-0.854,2.073-0.253,3.532c0.242,0.587,0.803,0.99,1.455,1.456  C430.062,124.834,430.503,125.432,429.846,126.625z M426.101,114.185c-0.186-0.305-0.557-0.472-0.875-0.489  c-0.357,0.001-0.687,0.189-0.87,0.496l-1.323,2.221c-0.558-4.498-2.677-9.873-4.938-13.162c-2.94-4.276-10.207-5.086-11.579-5.081  c-0.666-0.81-1.412-1.637-2.331-2.492c-6.033-5.608-4.05-10.092-3.953-10.299c0.009-0.018,0.006-0.037,0.014-0.055  c0.028-0.065,0.038-0.131,0.051-0.2c0.012-0.063,0.028-0.123,0.028-0.186c0-0.064-0.015-0.125-0.026-0.188  c-0.013-0.065-0.022-0.129-0.046-0.19c-0.023-0.056-0.058-0.104-0.091-0.157c-0.038-0.061-0.075-0.119-0.126-0.172  c-0.014-0.014-0.019-0.033-0.034-0.046c-0.036-0.033-0.081-0.046-0.121-0.073c-0.041-0.028-0.071-0.067-0.116-0.089  c-0.018-0.009-0.039-0.007-0.057-0.015c-0.066-0.028-0.132-0.04-0.201-0.053c-0.063-0.012-0.123-0.028-0.186-0.028  c-0.064-0.001-0.125,0.014-0.188,0.026c-0.065,0.012-0.129,0.021-0.191,0.046c-0.057,0.022-0.106,0.058-0.158,0.091  c-0.061,0.038-0.12,0.075-0.172,0.126c-0.014,0.014-0.033,0.02-0.046,0.034l-0.002,0.002l-0.001,0.001  c-6.903,7.541-14.129,8.438-17.872,8.281l4.343-2.896c0.853-0.477,1.715-1.044,2.571-1.717c0.43-0.338,0.516-0.954,0.196-1.397  c-0.321-0.444-0.934-0.552-1.388-0.25l-2.384,1.589c-2.941,1.631-5.782,2.071-7.767,2.132l2.263-1.585  c1.738-0.841,3.635-2.102,5.633-3.961c0.391-0.364,0.434-0.969,0.098-1.385c-0.335-0.415-0.935-0.499-1.375-0.193l-5.393,3.78  c-2.562,1.207-4.661,1.355-6.07,1.226l7.711-5.629c0.317-0.231,0.472-0.624,0.4-1.009c-0.072-0.386-0.36-0.695-0.739-0.796  c-12.571-3.345-15.593-6.762-16.274-8.501c-0.06-0.153-0.099-0.275-0.123-0.37c0.254,0.038,0.593,0.134,0.812,0.227  c12.317,7.238,35.392,10.138,36.368,10.258c0.503,0.05,0.969-0.253,1.104-0.738c0.348-1.253,2.36-7.605,7.826-9.667  c5.155-1.941,9.216,1.198,9.384,1.33c0.181,0.145,0.405,0.223,0.636,0.223c2.191,0,3.643,0.437,4.089,1.231  c0.142,0.255,0.184,0.547,0.169,0.838c-0.356-0.181-0.748-0.302-1.134-0.359c-0.176-0.028-0.353-0.006-0.518,0.058  c-0.2,0.078-0.706,0.112-1.152,0.143c-1.435,0.099-3.604,0.248-4.83,2.073c-0.724,1.076-0.965,2.508-0.662,3.926  c0.189,0.885,0.664,2.042,1.744,3.171c0.107,0.211,0.276,0.364,0.477,0.458c0.37,0.329,0.783,0.653,1.278,0.962  c2.401,1.501,4.163,2.886,5.098,6.283c0.007,0.119,0.039,0.234,0.087,0.344c0.383,1.534,0.612,3.452,0.664,5.948  c0.012,0.554,0.465,0.996,1.017,0.996c0,0,0.015,0,0.022,0c0.562-0.011,1.008-0.477,0.996-1.039  c-0.029-1.398-0.121-2.626-0.259-3.74c7.578,6.19,12.052,9.265,14.296,10.805c0.316,0.217,0.617,0.423,0.879,0.608  c-2.283,0.208-5.9-1.876-8.727-4.032c-0.93-0.839-1.808-1.533-2.284-1.896c-0.432-0.332-1.049-0.263-1.398,0.156  c-0.349,0.417-0.308,1.036,0.094,1.404c0.257,0.235,1.077,0.969,2.231,1.861c1.332,1.211,2.361,2.354,2.684,3.012  c-1.584-0.333-5.928-2.917-9.46-5.439c-0.436-0.312-1.035-0.232-1.376,0.18c-0.34,0.413-0.304,1.017,0.084,1.386  c2.438,2.315,3.94,4.431,4.895,8.964v0.001c0.544,2.586,1.599,5.039,2.499,6.818C427.652,116.7,426.121,114.218,426.101,114.185z   M449.304,111.363c-5.384,0.707-11.478-3.398-11.539-3.439c-0.435-0.296-1.024-0.213-1.357,0.192  c-0.336,0.404-0.308,0.997,0.063,1.368c1.764,1.764,3.562,2.961,4.875,3.834c0.19,0.127,0.395,0.263,0.592,0.398  c-1.957-0.097-5.358-2.304-7.235-3.84c-0.411-0.337-1.015-0.3-1.383,0.088c-0.366,0.387-0.372,0.992-0.013,1.385  c0.759,0.831,1.48,1.761,1.915,2.44c-1.486-0.543-3.994-1.971-5.807-3.13c-0.419-1.856-0.935-3.367-1.569-4.647  c5.91,3.52,6.905,2.333,7.278,1.884c0.217-0.261,0.46-0.709,0.387-1.369c-0.001-0.004-0.001-0.007-0.001-0.007  c2.413,1.221,4.998,1.941,6.982,1.013c0.208-0.097,0.507-0.252,0.747-0.498c3.662,2.046,5.577,3.577,6.16,4.312  C449.371,111.353,449.338,111.357,449.304,111.363z M447.921,107.497c-1.123-0.763-2.562-1.641-4.454-2.666  c-0.039-0.021-0.082-0.022-0.122-0.037c0.333,0.013,0.674,0.022,1.024,0.022c0.978,0,2.008-0.067,3.029-0.216  c0.078,0.051,0.153,0.106,0.246,0.135c3.151,0.991,5.049,1.744,5.654,2.247C452.49,107.333,450.164,107.562,447.921,107.497z   M453.917,104.963c0,0-0.011,0.004-0.018,0.004c-0.818-0.476-1.981-0.944-3.461-1.454c0.053-0.107,0.094-0.221,0.106-0.345  c0.025-0.252-0.045-0.498-0.187-0.694c1.728,0.414,3.274,0.576,4.479,0.362c1.517-0.271,2.893-1.018,3.888-1.69h0.002  c1.021,0,3.922-0.036,7.638-0.342C463.679,102.461,459.104,104.736,453.917,104.963z M494.949,87.578  c-1.384,1.742-4.527,4.591-10.238,7.158c-7.798,3.506-19.312,4.205-24.112,4.34c-0.007-0.076-0.017-0.153-0.042-0.227  c-0.127-0.374-0.459-0.641-0.852-0.685c-0.09-0.01-5.243-0.608-10.972-2.336c3.435,0.325,6.676,0.485,9.709,0.485  c8.566,0,15.563-1.194,21.253-2.982c0.03-0.005,0.059,0.003,0.088-0.005c3.135-0.821,10.607-3.882,14.621-5.526  C494.596,87.723,494.777,87.649,494.949,87.578z M489.523,86.607c-6.619,4.097-18.161,8.474-36.421,7.496  c0.355-0.172,0.587-0.528,0.58-0.928c-0.009-0.429-0.285-0.806-0.691-0.944c-0.817-0.276-1.787-0.642-2.731-1.036  c2.795,0.082,6.433-0.178,9.89-1.511c0.395-0.153,0.654-0.534,0.651-0.958c-0.004-0.424-0.269-0.801-0.667-0.947l-1.329-0.487  c3.373-0.141,7.508-0.583,10.392-1.797c0.454-0.191,0.705-0.68,0.597-1.161c-0.006-0.025-0.021-0.045-0.029-0.069  c6.093-1.527,17.312-5.049,28.894-12.304c-2.493,4.145-9.74,11.854-30.249,16.7c-0.531,0.126-0.869,0.648-0.766,1.184  c0.104,0.537,0.614,0.889,1.152,0.813c0.153-0.024,14.095-2.213,28.491-10.453C495.582,82.1,493.062,84.417,489.523,86.607z"/>
<g>
</g>
<g>
</g>
<g>
</g>
<g>
</g>
<g>
</g>
<g>
</g>
<g>
</g>
<g>
</g>
<g>
</g>
<g>
</g>
<g>
</g>
<g>
</g>
<g>
</g>
<g>
</g>
<g>
</g>
</svg>
