<?xml version="1.0" encoding="iso-8859-1"?>
<!-- Generator: Adobe Illustrator 19.0.0, SVG Export Plug-In . SVG Version: 6.00 Build 0)  -->
<svg xmlns="http://www.w3.org/2000/svg" xmlns:xlink="http://www.w3.org/1999/xlink" version="1.1" id="Layer_1" x="0px" y="0px" viewBox="0 0 512 512" style="enable-background:new 0 0 512 512;" xml:space="preserve">
<rect style="fill:#73AF00;" width="512" height="73.14"/>
<rect y="73.14" style="fill:#FFE15A;" width="512" height="73.14"/>
<rect y="146.29" style="fill:#FF4B55;" width="512" height="73.14"/>
<rect y="438.86" style="fill:#73AF00;" width="512" height="73.14"/>
<rect y="365.71" style="fill:#FFE15A;" width="512" height="73.14"/>
<rect y="292.57" style="fill:#FF4B55;" width="512" height="73.14"/>
<polygon style="fill:#464655;" points="512,219.428 230.803,219.428 16.764,0 0,0 0,512 16.764,512 230.803,292.572 512,292.572 "/>
<path style="fill:#F5F5F5;" d="M0,512l243.84-249.979c3.267-3.349,3.267-8.693,0-12.043L0,0V512z"/>
<polygon style="fill:#FF4B55;" points="98.684,168.474 123.503,218.763 179,226.827 138.842,265.971 148.322,321.244   98.684,295.148 49.046,321.244 58.526,265.971 18.368,226.827 73.865,218.763 "/>
<path style="fill:#FFE15A;" d="M163.076,261.007l-65.957-51.059C89.402,191.864,78.433,180.2,69.122,180.2  c-7.909,0-11.777,7.332-12.886,11.736c-5.698,2.638-7.034,7.888-7.09,8.117c-0.092,0.377-0.005,0.775,0.234,1.081  c0.24,0.304,0.606,0.482,0.994,0.482l1.18-0.021c5.299-0.122,14.129-0.355,16.387,16.481c1.409,10.511-0.683,29.34-7.335,43.533  c-4.648,9.916-3.112,17.934-3.045,18.269c0.127,0.634,0.716,1.048,1.373,1.009c0.102-0.01,0.348-0.02,0.659-0.031l5.336,30.171  c0.107,0.604,0.63,1.043,1.244,1.043h79.628c0.583,0,1.089-0.398,1.228-0.964l8.895-36.535c0.003-0.011,0.015-0.016,0.018-0.027  c0.005-0.02-0.001-0.04,0.004-0.06l2.826-11.605c2.09,0.247,3.335,0.377,3.403,0.384c0.604,0.077,1.094-0.265,1.302-0.788  C163.685,261.951,163.522,261.352,163.076,261.007z"/>
<g>
	<path style="fill:#464655;" d="M163.076,261.007l-65.957-51.059C89.402,191.864,78.433,180.2,69.122,180.2   c-7.909,0-11.777,7.332-12.886,11.736c-5.698,2.638-7.034,7.888-7.09,8.117c-0.092,0.377-0.005,0.775,0.234,1.081   c0.24,0.304,0.606,0.482,0.994,0.482l1.18-0.021c5.299-0.122,14.129-0.355,16.387,16.481c1.409,10.511-0.683,29.34-7.335,43.533   c-4.648,9.916-3.112,17.934-3.045,18.269c0.127,0.634,0.716,1.048,1.373,1.009c0.102-0.01,0.348-0.02,0.659-0.031l5.336,30.171   c0.107,0.604,0.63,1.043,1.244,1.043h79.628c0.583,0,1.089-0.398,1.228-0.964l8.895-36.535c0.003-0.011,0.015-0.016,0.018-0.027   c0.005-0.02-0.001-0.04,0.004-0.06l2.826-11.605c2.09,0.247,3.335,0.377,3.403,0.384c0.604,0.077,1.094-0.265,1.302-0.788   C163.685,261.951,163.522,261.352,163.076,261.007z M62.893,262.682c6.02-12.84,9.266-32.161,7.552-44.942   c-2.444-18.227-12.674-18.799-18.199-18.689c0.783-1.522,2.411-3.759,5.556-5.041c0.39-0.158,0.675-0.504,0.76-0.917   c0.089-0.423,2.24-10.365,10.559-10.365c8.217,0,18.585,11.458,25.8,28.509c0.084,0.201,0.219,0.375,0.39,0.507l62.639,48.492   c-11.04-1.34-39.89-5.314-56.978-12.047c-8.931-3.519-10.967-8.872-12.764-13.597c-0.247-0.653-0.981-0.976-1.631-0.732   c-0.652,0.249-0.981,0.979-0.732,1.631c1.786,4.694,4.231,11.124,14.201,15.052c2.032,0.8,4.225,1.562,6.532,2.285   c-0.402,1.218-2.958,7.426-14.292,11.498c-9.185,3.301-15.72,8.865-16.614,13.89c-3.357-0.013-6.352-0.008-8.869,0.008v-3.65   c0-2.771,2.671-6.787,5.498-11.038c3.94-5.925,8.405-12.639,8.405-19.507c0-0.698-0.566-1.264-1.264-1.264   s-1.264,0.566-1.264,1.264c0,6.104-4.241,12.481-7.982,18.107c-3.178,4.778-5.921,8.904-5.921,12.439v3.67   c-1.908,0.02-3.403,0.046-4.378,0.074C59.672,275.94,59.542,269.831,62.893,262.682z M113.019,254.676   c-1.462,4.063-5.79,5.44-9,5.88c3.479-3.091,4.652-5.95,4.982-6.995C110.312,253.945,111.657,254.315,113.019,254.676z    M115.456,255.303c1.391,0.348,2.796,0.685,4.213,1.011c-1.29,2.625-4.738,3.911-8.504,4.45   C113.032,259.581,114.614,257.834,115.456,255.303z M151.189,283.335c-12.814-3.949-49.791-4.958-72.967-5.105   c0.785-2.871,4.421-6.641,10.581-9.663c0.063,0.01,0.12,0.038,0.186,0.038c34.596,0.123,58.676,5.255,64.192,6.546L151.189,283.335   z M149.558,290.033l-5.055-5.638c2.41,0.419,4.462,0.887,6.086,1.404L149.558,290.033z M84.177,290.925l2.457,2.312   c-0.757-0.006-1.502-0.013-2.276-0.018C84.292,292.478,84.237,291.692,84.177,290.925z M148.047,296.241l-6.421-7.037   c-0.423-0.464-1.122-0.55-1.636-0.197l-7.541,5.048l-5.675-6.219c-0.439-0.482-1.183-0.548-1.702-0.15l-6.817,5.227l-6.185-6.107   c-0.464-0.459-1.206-0.489-1.702-0.067l-6.659,5.6l-6.239-5.788c-0.472-0.438-1.205-0.448-1.693-0.023l-6.509,5.719l-5.351-5.035   c-0.093-1.502-0.176-3.05-0.249-4.642l4.79,4.703c0.467,0.461,1.21,0.481,1.71,0.056l6.701-5.77l6.122,6.028   c0.462,0.454,1.196,0.484,1.697,0.071l6.723-5.602l6.451,6.078c0.454,0.426,1.149,0.462,1.636,0.082l6.748-5.174l5.645,6.478   c0.426,0.49,1.157,0.574,1.687,0.198l7.505-5.347l7.462,8.323c0.089,0.099,0.201,0.16,0.31,0.224L148.047,296.241z    M144.252,295.834c-2.012-0.254-4.821-0.556-8.628-0.863l4.867-3.258L144.252,295.834z M129.461,294.531   c-2.538-0.16-5.383-0.315-8.56-0.461l4.789-3.672L129.461,294.531z M115.606,293.85c-2.893-0.109-6.037-0.207-9.414-0.294   l4.923-4.142L115.606,293.85z M101.179,293.439c-2.914-0.06-6.011-0.11-9.268-0.149l4.678-4.11L101.179,293.439z M85.516,280.841   c2.624,0.035,5.356,0.081,8.151,0.14l-4.266,3.674L85.516,280.841z M100.044,281.135c2.716,0.076,5.461,0.166,8.2,0.27   l-4.293,3.577L100.044,281.135z M114.704,281.683c2.9,0.139,5.764,0.296,8.54,0.476l-4.429,3.397L114.704,281.683z    M129.215,282.598c3.12,0.254,6.07,0.54,8.787,0.864l-4.957,3.531L129.215,282.598z M62.149,280.803   c3.798-0.055,10.607-0.087,18.912-0.012c0.474,12.013,1.524,21.664,3.118,28.752H67.232L62.149,280.803z M144.808,309.543H86.766   c-0.887-3.801-1.607-8.418-2.157-13.794c42.28,0.278,58.342,2.377,62.356,3.034c0.119,0.116,0.25,0.21,0.397,0.27L144.808,309.543z    M153.779,272.695c-5.344-1.25-27.406-5.932-59.232-6.542c2.243-0.893,4.154-1.861,5.766-2.862   c0.753,0.094,2.968,0.338,5.746,0.338c5.768,0,13.87-1.091,16.108-6.756c13.136,2.875,26.601,4.763,34.078,5.697L153.779,272.695z"/>
	<path style="fill:#464655;" d="M72.703,191.365c0-2.324-1.889-4.213-4.213-4.213s-4.213,1.889-4.213,4.213   c0,2.324,1.889,4.213,4.213,4.213S72.703,193.689,72.703,191.365z M68.49,193.05c-0.93,0-1.685-0.755-1.685-1.685   s0.755-1.685,1.685-1.685s1.685,0.755,1.685,1.685C70.175,192.295,69.42,193.05,68.49,193.05z"/>
	<path style="fill:#464655;" d="M103.809,269.703c-2.284,0-4.142,1.858-4.142,4.142s1.858,4.142,4.142,4.142   s4.144-1.858,4.144-4.142S106.093,269.703,103.809,269.703z M103.809,275.46c-0.89,0-1.614-0.724-1.614-1.615   s0.724-1.614,1.614-1.614s1.616,0.724,1.616,1.614S104.7,275.46,103.809,275.46z"/>
	<path style="fill:#464655;" d="M116.195,270.409c-2.284,0-4.144,1.86-4.144,4.144s1.86,4.142,4.144,4.142s4.142-1.858,4.142-4.142   S118.479,270.409,116.195,270.409z M116.195,276.167c-0.89,0-1.616-0.724-1.616-1.615c0-0.89,0.726-1.616,1.616-1.616   s1.614,0.726,1.614,1.616C117.81,275.443,117.085,276.167,116.195,276.167z"/>
</g>
<g>
</g>
<g>
</g>
<g>
</g>
<g>
</g>
<g>
</g>
<g>
</g>
<g>
</g>
<g>
</g>
<g>
</g>
<g>
</g>
<g>
</g>
<g>
</g>
<g>
</g>
<g>
</g>
<g>
</g>
</svg>
