<svg xmlns="http://www.w3.org/2000/svg" xmlns:xlink="http://www.w3.org/1999/xlink" viewBox="0 0 1024 1024"><defs><linearGradient id="a" x1="50%" x2="50%" y1="100%" y2="0%"><stop offset="0%" stop-color="#F6EDAE"/><stop offset="100%" stop-color="#91D4D7"/></linearGradient><linearGradient id="b" x1="49.87%" x2="49.87%" y1="3.62%" y2="77.75%"><stop offset="0%" stop-color="#B0DDF1"/><stop offset="100%" stop-color="#325C82"/></linearGradient><linearGradient id="c" x1="100%" x2="72.45%" y1="0%" y2="85.2%"><stop offset="0%" stop-color="#1D3A6D"/><stop offset="100%" stop-color="#467994"/></linearGradient><linearGradient id="d" x1="54.81%" x2="50%" y1="-18.48%" y2="59.98%"><stop offset="0%" stop-color="#FFFFFF"/><stop offset="28.15%" stop-color="#F8E6B3"/><stop offset="100%" stop-color="#D5812F"/></linearGradient><linearGradient id="e" x1="52.84%" x2="49.87%" y1="2.8%" y2="77.75%"><stop offset="0%" stop-color="#FFFFFF"/><stop offset="22.15%" stop-color="#F8E6B3"/><stop offset="100%" stop-color="#F9D989"/></linearGradient><linearGradient id="f" x1="91.59%" x2="66.97%" y1="5.89%" y2="100%"><stop offset="0%" stop-color="#CE4014"/><stop offset="100%" stop-color="#FFD56E"/></linearGradient><linearGradient id="g" x1="40.28%" x2="66.37%" y1="30.88%" y2="108.51%"><stop offset="0%" stop-color="#A2491E"/><stop offset="100%" stop-color="#F4B35A"/></linearGradient><circle id="i" cx="825" cy="235" r="70"/><filter id="h" width="237.1%" height="237.1%" x="-68.6%" y="-68.6%" filterUnits="objectBoundingBox"><feOffset in="SourceAlpha" result="shadowOffsetOuter1"/><feGaussianBlur in="shadowOffsetOuter1" result="shadowBlurOuter1" stdDeviation="32"/><feColorMatrix in="shadowBlurOuter1" values="0 0 0 0 1 0 0 0 0 1 0 0 0 0 1 0 0 0 1 0"/></filter><linearGradient id="j" x1="50%" x2="50%" y1="0%" y2="100%"><stop offset="0%" stop-color="#B29959"/><stop offset="100%" stop-color="#CEAD5B"/></linearGradient></defs><g fill="none" fill-rule="evenodd"><rect width="1024" height="1024" fill="url(#a)"/><path fill="#FFFFFF" d="M1024 378.13v39.37H790a71.59 71.59 0 0 1 21.14-50.8l1.36-1.34a31.93 31.93 0 0 1 45 0 31.93 31.93 0 0 0 45 0l15-14.9a53.21 53.21 0 0 1 75 0l22.5 22.35a21.2 21.2 0 0 0 9 5.32z" opacity=".15"/><g transform="translate(26 245)"><path fill="url(#b)" d="M289.12 450.57C312.22 464.04 263.85 532.52 144 656h649C448.94 514.3 280.98 445.83 289.12 450.57z"/><path fill="url(#c)" d="M262.5 402c-48 50 147.33 58.02 36 136.5-40.67 28.67 21.17 67.83 185.5 117.5H0l262.5-254z"/><path fill="url(#c)" d="M298.5 538.5C257.83 567.17 319.67 606.33 484 656H120l178.5-117.5z"/></g><path fill="#134F4E" d="M783 593.73a29.95 29.95 0 0 1-12-24c0-9.8 4.72-18.52 12-24-5.02 6.69-8 15-8 24 0 9.01 2.98 17.32 8 24z"/><g fill="#134F4E" transform="matrix(-1 0 0 1 876 532)"><path d="M24 66.73a29.95 29.95 0 0 1-12-24c0-9.8 4.72-18.52 12-24-5.02 6.69-8 15-8 24 0 9.01 2.98 17.32 8 24z"/><path d="M36 22.4l-3.96-3.98a5 5 0 0 0-6.5-.5 3 3 0 0 1 3.7-3.55l8.7 2.33a8 8 0 0 1 5.66 9.8l-1-1.73a2 2 0 0 0-1.21-.93L36 22.4zm-5.38-2.56L37 26.2a8 8 0 0 1 0 11.32v-2a2 2 0 0 0-.6-1.42L26.39 24.08a3 3 0 0 1 4.24-4.24zM14.21 9.8l-3.94-3.94a2 2 0 0 0-1.42-.59h-2a8 8 0 0 1 11.32 0l6.36 6.37a3 3 0 0 1-1.22 4.98 5 5 0 0 0-3.68-5.37l-5.42-1.45zm4.9 3.39a3 3 0 1 1-1.55 5.8L3.87 15.31a2 2 0 0 0-1.52.2l-1.73 1a8 8 0 0 1 9.8-5.65l8.7 2.33z"/></g><g transform="translate(0 245)"><path fill="url(#d)" d="M1024 423.16V645H58.09c-32.12-75.17-32.12-123.84 0-146 48.17-33.24 127.17-64.25 293.33-64 166.17.25 246.67-105 413.33-105 117.33 0 183.93 55.8 259.25 93.16z"/><path fill="url(#e)" d="M1024 778H0V398.62C75.53 363.05 136.43 320 283 320c111.86 0 358.86 69.82 741 209.47V778z"/><path fill="url(#f)" d="M0 778V398.62C75.53 363.05 136.43 320 283 320c71.14 0 85.96 26.04 32.5 82-79.5 83.22 279.7 2.01 336 131.5 26 59.8-69.83 141.3-287.48 244.5H0z"/><path fill="url(#g)" d="M364.02 778H0V638.4L315.5 402c-79.5 83.22 279.7 2.01 336 131.5 26 59.8-69.83 141.3-287.48 244.5z"/></g><path fill="#134F4E" d="M795 549.4l-3.96-3.98a5 5 0 0 0-6.5-.5 3 3 0 0 1 3.7-3.55l8.7 2.33a8 8 0 0 1 5.66 9.8l-1-1.73a2 2 0 0 0-1.21-.93L795 549.4zm-5.38-2.56l6.37 6.36a8 8 0 0 1 0 11.32v-2a2 2 0 0 0-.6-1.42l-10.01-10.02a3 3 0 0 1 4.24-4.24zm-16.41-10.03l-3.94-3.94a2 2 0 0 0-1.42-.59h-2a8 8 0 0 1 11.32 0l6.36 6.37a3 3 0 0 1-1.22 4.98 5 5 0 0 0-3.68-5.37l-5.42-1.45zm4.9 3.39a3 3 0 1 1-1.55 5.8l-13.69-3.68a2 2 0 0 0-1.52.2l-1.73 1a8 8 0 0 1 9.8-5.65l8.7 2.33z"/><path fill="#FFFFFF" d="M395.67 116.48a9.46 9.46 0 0 1 13.33 0 9.46 9.46 0 0 0 13.33 0l13.33-13.24a28.39 28.39 0 0 1 40 0l10 9.93a14.2 14.2 0 0 0 20 0 14.2 14.2 0 0 1 20 0l.6.6a31.8 31.8 0 0 1 9.4 22.56H389v-3.84c0-6.01 2.4-11.78 6.67-16.01zM98.1 249.1l5.9-5.86c11.07-11 28.93-11 40 0l10 9.94a14.19 14.19 0 0 0 20 0 14.19 14.19 0 0 1 20 0 16.36 16.36 0 0 0 21.3 1.5l8.7-6.47a33.47 33.47 0 0 1 40 0l4.06 3.03A39.6 39.6 0 0 1 284 283H84a47.77 47.77 0 0 1 14.1-33.89z" opacity=".15"/><use fill="black" filter="url(#h)" xlink:href="#i"/><use fill="#FFFFFF" xlink:href="#i"/><path fill="#FFFFFF" d="M702.69 960.64a4.32 4.32 0 0 1-1.04 6.87c-2.26 1.2-3.69 2.1-4.27 2.67-.51.52-1.17 1.4-1.97 2.62a3.53 3.53 0 0 1-5.45.56 3.53 3.53 0 0 1 .56-5.44c1.23-.8 2.1-1.46 2.62-1.98.58-.58 1.47-2 2.67-4.27a4.32 4.32 0 0 1 6.88-1.03z" opacity=".6"/><path fill="url(#j)" d="M700.32 962a4.32 4.32 0 0 1 4.13 5.6c-.75 2.45-1.13 4.08-1.13 4.9 0 .73.15 1.81.45 3.25a3.53 3.53 0 0 1-3.45 4.25 3.53 3.53 0 0 1-3.45-4.25c.3-1.44.45-2.52.45-3.25 0-.82-.37-2.45-1.13-4.9a4.32 4.32 0 0 1 4.13-5.6z" transform="rotate(45 700.323 971)"/><g transform="rotate(-15 3943.802 -2244.376)"><path fill="#FFFFFF" d="M16.65 3.9a4.32 4.32 0 0 1-1.03 6.87c-2.27 1.2-3.7 2.1-4.27 2.67-.52.52-1.18 1.4-1.98 2.62a3.53 3.53 0 0 1-5.44.56 3.53 3.53 0 0 1 .56-5.44c1.23-.8 2.1-1.46 2.62-1.98.58-.58 1.47-2 2.67-4.27a4.32 4.32 0 0 1 6.87-1.03z" opacity=".6"/><path fill="url(#j)" d="M13.32 5a4.32 4.32 0 0 1 4.13 5.6c-.75 2.45-1.13 4.08-1.13 4.9 0 .73.15 1.81.45 3.25A3.53 3.53 0 0 1 13.32 23a3.53 3.53 0 0 1-3.45-4.25c.3-1.44.45-2.52.45-3.25 0-.82-.37-2.45-1.13-4.9A4.32 4.32 0 0 1 13.32 5z" transform="rotate(45 13.323 14)"/></g><g transform="rotate(-15 4117.1 -2152.014)"><path fill="#FFFFFF" d="M16.65 3.9a4.32 4.32 0 0 1-1.03 6.87c-2.27 1.2-3.7 2.1-4.27 2.67-.52.52-1.18 1.4-1.98 2.62a3.53 3.53 0 0 1-5.44.56 3.53 3.53 0 0 1 .56-5.44c1.23-.8 2.1-1.46 2.62-1.98.58-.58 1.47-2 2.67-4.27a4.32 4.32 0 0 1 6.87-1.03z" opacity=".6"/><path fill="url(#j)" d="M13.32 5a4.32 4.32 0 0 1 4.13 5.6c-.75 2.45-1.13 4.08-1.13 4.9 0 .73.15 1.81.45 3.25A3.53 3.53 0 0 1 13.32 23a3.53 3.53 0 0 1-3.45-4.25c.3-1.44.45-2.52.45-3.25 0-.82-.37-2.45-1.13-4.9A4.32 4.32 0 0 1 13.32 5z" transform="rotate(45 13.323 14)"/></g><g transform="rotate(-15 4127.186 -2023.184)"><path fill="#FFFFFF" d="M16.65 3.9a4.32 4.32 0 0 1-1.03 6.87c-2.27 1.2-3.7 2.1-4.27 2.67-.52.52-1.18 1.4-1.98 2.62a3.53 3.53 0 0 1-5.44.56 3.53 3.53 0 0 1 .56-5.44c1.23-.8 2.1-1.46 2.62-1.98.58-.58 1.47-2 2.67-4.27a4.32 4.32 0 0 1 6.87-1.03z" opacity=".6"/><path fill="url(#j)" d="M13.32 5a4.32 4.32 0 0 1 4.13 5.6c-.75 2.45-1.13 4.08-1.13 4.9 0 .73.15 1.81.45 3.25A3.53 3.53 0 0 1 13.32 23a3.53 3.53 0 0 1-3.45-4.25c.3-1.44.45-2.52.45-3.25 0-.82-.37-2.45-1.13-4.9A4.32 4.32 0 0 1 13.32 5z" transform="rotate(45 13.323 14)"/></g><g transform="rotate(-30 2055.753 -866.842)"><path fill="#FFFFFF" d="M16.55 3.4a4.32 4.32 0 0 1-1.03 6.88c-2.27 1.2-3.7 2.1-4.27 2.67-.52.52-1.18 1.39-1.98 2.62a3.53 3.53 0 0 1-5.44.56 3.53 3.53 0 0 1 .56-5.44c1.23-.8 2.1-1.46 2.62-1.98.58-.58 1.47-2 2.67-4.27a4.32 4.32 0 0 1 6.87-1.04z" opacity=".6"/><path fill="url(#j)" d="M12.32 6a4.32 4.32 0 0 1 4.13 5.6c-.75 2.45-1.13 4.08-1.13 4.9 0 .73.15 1.81.45 3.25A3.53 3.53 0 0 1 12.32 24a3.53 3.53 0 0 1-3.45-4.25c.3-1.44.45-2.52.45-3.25 0-.82-.37-2.45-1.13-4.9A4.32 4.32 0 0 1 12.32 6z" transform="rotate(45 12.323 15)"/></g><g transform="rotate(-30 2046.995 -931.189)"><path fill="#FFFFFF" d="M16.55 3.4a4.32 4.32 0 0 1-1.03 6.88c-2.27 1.2-3.7 2.1-4.27 2.67-.52.52-1.18 1.39-1.98 2.62a3.53 3.53 0 0 1-5.44.56 3.53 3.53 0 0 1 .56-5.44c1.23-.8 2.1-1.46 2.62-1.98.58-.58 1.47-2 2.67-4.27a4.32 4.32 0 0 1 6.87-1.04z" opacity=".6"/><path fill="url(#j)" d="M12.32 6a4.32 4.32 0 0 1 4.13 5.6c-.75 2.45-1.13 4.08-1.13 4.9 0 .73.15 1.81.45 3.25A3.53 3.53 0 0 1 12.32 24a3.53 3.53 0 0 1-3.45-4.25c.3-1.44.45-2.52.45-3.25 0-.82-.37-2.45-1.13-4.9A4.32 4.32 0 0 1 12.32 6z" transform="rotate(45 12.323 15)"/></g><g transform="rotate(-45 1406.147 -409.132)"><path fill="#FFFFFF" d="M16.93 3.22a4.32 4.32 0 0 1-1.03 6.88c-2.27 1.2-3.7 2.09-4.27 2.67-.52.52-1.18 1.39-1.98 2.61a3.53 3.53 0 0 1-5.45.57 3.53 3.53 0 0 1 .57-5.45c1.22-.8 2.1-1.46 2.61-1.97.58-.58 1.47-2 2.67-4.27a4.32 4.32 0 0 1 6.88-1.04z" opacity=".6"/><path fill="url(#j)" d="M10.32 6a4.32 4.32 0 0 1 4.13 5.6c-.75 2.45-1.13 4.08-1.13 4.9 0 .73.15 1.81.45 3.25A3.53 3.53 0 0 1 10.32 24a3.53 3.53 0 0 1-3.45-4.25c.3-1.44.45-2.52.45-3.25 0-.82-.37-2.45-1.13-4.9A4.32 4.32 0 0 1 10.32 6z" transform="rotate(45 10.323 15)"/></g><g transform="rotate(-24 2389.63 -1296.285)"><path fill="#FFFFFF" d="M16.93 3.22a4.32 4.32 0 0 1-1.03 6.88c-2.27 1.2-3.7 2.09-4.27 2.67-.52.52-1.18 1.39-1.98 2.61a3.53 3.53 0 0 1-5.45.57 3.53 3.53 0 0 1 .57-5.45c1.22-.8 2.1-1.46 2.61-1.97.58-.58 1.47-2 2.67-4.27a4.32 4.32 0 0 1 6.88-1.04z" opacity=".6"/><path fill="url(#j)" d="M10.32 6a4.32 4.32 0 0 1 4.13 5.6c-.75 2.45-1.13 4.08-1.13 4.9 0 .73.15 1.81.45 3.25A3.53 3.53 0 0 1 10.32 24a3.53 3.53 0 0 1-3.45-4.25c.3-1.44.45-2.52.45-3.25 0-.82-.37-2.45-1.13-4.9A4.32 4.32 0 0 1 10.32 6z" transform="rotate(45 10.323 15)"/></g><g transform="rotate(-50 1258.425 -353.155)"><path fill="#FFFFFF" d="M16.93 3.22a4.32 4.32 0 0 1-1.03 6.88c-2.27 1.2-3.7 2.09-4.27 2.67-.52.52-1.18 1.39-1.98 2.61a3.53 3.53 0 0 1-5.45.57 3.53 3.53 0 0 1 .57-5.45c1.22-.8 2.1-1.46 2.61-1.97.58-.58 1.47-2 2.67-4.27a4.32 4.32 0 0 1 6.88-1.04z" opacity=".6"/><path fill="url(#j)" d="M10.32 6a4.32 4.32 0 0 1 4.13 5.6c-.75 2.45-1.13 4.08-1.13 4.9 0 .73.15 1.81.45 3.25A3.53 3.53 0 0 1 10.32 24a3.53 3.53 0 0 1-3.45-4.25c.3-1.44.45-2.52.45-3.25 0-.82-.37-2.45-1.13-4.9A4.32 4.32 0 0 1 10.32 6z" transform="rotate(45 10.323 15)"/></g><g transform="rotate(-35 1652.744 -777.703)"><path fill="#FFFFFF" d="M16.08 3.06a4.1 4.1 0 0 1-.98 6.53c-2.15 1.14-3.5 1.99-4.05 2.54-.5.5-1.12 1.32-1.88 2.49a3.35 3.35 0 0 1-5.18.53 3.35 3.35 0 0 1 .54-5.17c1.16-.76 2-1.39 2.48-1.88.55-.55 1.4-1.9 2.54-4.06a4.1 4.1 0 0 1 6.53-.98z" opacity=".6"/><path fill="url(#j)" d="M9.8 5.7a4.1 4.1 0 0 1 3.93 5.31c-.71 2.33-1.07 3.89-1.07 4.67 0 .69.14 1.72.43 3.08A3.35 3.35 0 0 1 9.8 22.8a3.35 3.35 0 0 1-3.28-4.04c.28-1.36.43-2.39.43-3.09 0-.77-.36-2.33-1.08-4.66A4.1 4.1 0 0 1 9.81 5.7z" transform="rotate(45 9.807 14.25)"/></g><g transform="rotate(-35 1605.77 -758.112)"><path fill="#FFFFFF" d="M15.24 2.9a3.89 3.89 0 0 1-.93 6.19c-2.04 1.08-3.33 1.88-3.85 2.4a15.6 15.6 0 0 0-1.78 2.36 3.17 3.17 0 0 1-4.9.5 3.17 3.17 0 0 1 .51-4.9 15.6 15.6 0 0 0 2.36-1.78c.52-.52 1.32-1.8 2.4-3.84a3.89 3.89 0 0 1 6.19-.93z" opacity=".6"/><path fill="url(#j)" d="M9.3 5.4a3.89 3.89 0 0 1 3.7 5.03c-.67 2.21-1 3.68-1 4.42 0 .66.13 1.63.4 2.92a3.17 3.17 0 0 1-3.1 3.83 3.17 3.17 0 0 1-3.12-3.83c.28-1.29.41-2.26.41-2.92 0-.74-.34-2.2-1.02-4.42A3.89 3.89 0 0 1 9.3 5.4z" transform="rotate(45 9.29 13.5)"/></g><g transform="rotate(-35 1591.812 -807.843)"><path fill="#FFFFFF" d="M15.24 2.9a3.89 3.89 0 0 1-.93 6.19c-2.04 1.08-3.33 1.88-3.85 2.4a15.6 15.6 0 0 0-1.78 2.36 3.17 3.17 0 0 1-4.9.5 3.17 3.17 0 0 1 .51-4.9 15.6 15.6 0 0 0 2.36-1.78c.52-.52 1.32-1.8 2.4-3.84a3.89 3.89 0 0 1 6.19-.93z" opacity=".6"/><path fill="url(#j)" d="M9.3 5.4a3.89 3.89 0 0 1 3.7 5.03c-.67 2.21-1 3.68-1 4.42 0 .66.13 1.63.4 2.92a3.17 3.17 0 0 1-3.1 3.83 3.17 3.17 0 0 1-3.12-3.83c.28-1.29.41-2.26.41-2.92 0-.74-.34-2.2-1.02-4.42A3.89 3.89 0 0 1 9.3 5.4z" transform="rotate(45 9.29 13.5)"/></g><g transform="rotate(-44 1287.793 -536.004)"><path fill="#FFFFFF" d="M15.24 2.9a3.89 3.89 0 0 1-.93 6.19c-2.04 1.08-3.33 1.88-3.85 2.4a15.6 15.6 0 0 0-1.78 2.36 3.17 3.17 0 0 1-4.9.5 3.17 3.17 0 0 1 .51-4.9 15.6 15.6 0 0 0 2.36-1.78c.52-.52 1.32-1.8 2.4-3.84a3.89 3.89 0 0 1 6.19-.93z" opacity=".6"/><path fill="url(#j)" d="M9.3 5.4a3.89 3.89 0 0 1 3.7 5.03c-.67 2.21-1 3.68-1 4.42 0 .66.13 1.63.4 2.92a3.17 3.17 0 0 1-3.1 3.83 3.17 3.17 0 0 1-3.12-3.83c.28-1.29.41-2.26.41-2.92 0-.74-.34-2.2-1.02-4.42A3.89 3.89 0 0 1 9.3 5.4z" transform="rotate(45 9.29 13.5)"/></g><g transform="rotate(-28 1831.874 -1151.097)"><path fill="#FFFFFF" d="M15.24 2.9a3.89 3.89 0 0 1-.93 6.19c-2.04 1.08-3.33 1.88-3.85 2.4a15.6 15.6 0 0 0-1.78 2.36 3.17 3.17 0 0 1-4.9.5 3.17 3.17 0 0 1 .51-4.9 15.6 15.6 0 0 0 2.36-1.78c.52-.52 1.32-1.8 2.4-3.84a3.89 3.89 0 0 1 6.19-.93z" opacity=".6"/><path fill="url(#j)" d="M9.3 5.4a3.89 3.89 0 0 1 3.7 5.03c-.67 2.21-1 3.68-1 4.42 0 .66.13 1.63.4 2.92a3.17 3.17 0 0 1-3.1 3.83 3.17 3.17 0 0 1-3.12-3.83c.28-1.29.41-2.26.41-2.92 0-.74-.34-2.2-1.02-4.42A3.89 3.89 0 0 1 9.3 5.4z" transform="rotate(45 9.29 13.5)"/></g><g transform="rotate(-41 1316.639 -621.138)"><path fill="#FFFFFF" d="M13.54 2.58a3.46 3.46 0 0 1-.82 5.5A17.18 17.18 0 0 0 9.3 10.2c-.41.42-.94 1.12-1.58 2.1a2.82 2.82 0 0 1-4.36.45 2.82 2.82 0 0 1 .45-4.36c.99-.64 1.68-1.17 2.1-1.58.46-.46 1.17-1.6 2.13-3.42a3.46 3.46 0 0 1 5.5-.82z" opacity=".6"/><path fill="url(#j)" d="M8.26 4.8a3.46 3.46 0 0 1 3.3 4.47c-.6 1.97-.9 3.27-.9 3.93 0 .59.12 1.45.36 2.6a2.82 2.82 0 0 1-2.76 3.4 2.82 2.82 0 0 1-2.76-3.4c.24-1.15.36-2.01.36-2.6 0-.66-.3-1.96-.9-3.93a3.46 3.46 0 0 1 3.3-4.47z" transform="rotate(45 8.258 12)"/></g><g transform="rotate(-41 1286.706 -646.924)"><path fill="#FFFFFF" d="M11.85 2.26a3.03 3.03 0 0 1-.72 4.8 15.04 15.04 0 0 0-3 1.88c-.35.36-.82.97-1.38 1.83a2.47 2.47 0 0 1-3.8.4 2.47 2.47 0 0 1 .39-3.82C4.2 6.8 4.8 6.33 5.17 5.97c.4-.4 1.03-1.4 1.87-3a3.03 3.03 0 0 1 4.81-.71z" opacity=".6"/><path fill="url(#j)" d="M7.23 4.2a3.03 3.03 0 0 1 2.89 3.91c-.53 1.72-.8 2.87-.8 3.44 0 .51.11 1.27.32 2.27a2.47 2.47 0 0 1-2.41 2.98 2.47 2.47 0 0 1-2.42-2.98c.21-1 .32-1.76.32-2.27 0-.57-.27-1.72-.8-3.44a3.03 3.03 0 0 1 2.9-3.91z" transform="rotate(45 7.226 10.5)"/></g><g transform="rotate(-24 2011.85 -1427.831)"><path fill="#FFFFFF" d="M13.54 2.58a3.46 3.46 0 0 1-.82 5.5A17.18 17.18 0 0 0 9.3 10.2c-.41.42-.94 1.12-1.58 2.1a2.82 2.82 0 0 1-4.36.45 2.82 2.82 0 0 1 .45-4.36c.99-.64 1.68-1.17 2.1-1.58.46-.46 1.17-1.6 2.13-3.42a3.46 3.46 0 0 1 5.5-.82z" opacity=".6"/><path fill="url(#j)" d="M8.26 4.8a3.46 3.46 0 0 1 3.3 4.47c-.6 1.97-.9 3.27-.9 3.93 0 .59.12 1.45.36 2.6a2.82 2.82 0 0 1-2.76 3.4 2.82 2.82 0 0 1-2.76-3.4c.24-1.15.36-2.01.36-2.6 0-.66-.3-1.96-.9-3.93a3.46 3.46 0 0 1 3.3-4.47z" transform="rotate(45 8.258 12)"/></g><circle cx="756" cy="209" r="110" fill="#FFFFFF" opacity=".2"/><circle cx="859" cy="139" r="40" fill="#FFFFFF" opacity=".2"/><circle cx="551" cy="383" r="70" fill="#FFFFFF" opacity=".2"/><circle cx="666" cy="359" r="30" fill="#FFFFFF" opacity=".2"/><rect width="60" height="6" x="722" y="547" fill="#FFFFFF" opacity=".4" rx="3"/><rect width="60" height="6" x="842" y="565" fill="#FFFFFF" opacity=".4" rx="3"/><rect width="40" height="6" x="762" y="559" fill="#FFFFFF" opacity=".4" rx="3"/><rect width="40" height="6" x="872" y="553" fill="#FFFFFF" opacity=".4" rx="3"/><rect width="40" height="6" x="811" y="547" fill="#FFFFFF" opacity=".4" rx="3"/></g></svg>