<?xml version="1.0" encoding="iso-8859-1"?>
<!-- Generator: Adobe Illustrator 19.0.0, SVG Export Plug-In . SVG Version: 6.00 Build 0)  -->
<svg version="1.1" id="Layer_1" xmlns="http://www.w3.org/2000/svg" xmlns:xlink="http://www.w3.org/1999/xlink" x="0px" y="0px"
	 viewBox="0 0 464 464" style="enable-background:new 0 0 464 464;" xml:space="preserve">
<g>
	<path style="fill:#FF9656;" d="M232.232,0h-0.064C155.382,0,80.2,58,80.2,136c0,103.333,56,152,56,152
		s-11.542,23.589-15.012,44.996h41.961C159.318,310.596,160.2,288,160.2,288s216-39.333,216-152C376.2,59.214,309.018,0,232.232,0z"
		/>
	<path style="fill:#EF8C56;" d="M299.295,15.919C279.017,5.733,256.092,0,232.232,0h-0.063C155.382,0,80.2,58,80.2,136
		c0,103.333,56,152,56,152s-11.552,23.59-15.023,44.996h41.97C159.316,310.596,160.2,288,160.2,288s22.901-4.196,53.735-13.687
		L104.2,166.055C104.2,166.055,263.108,110.285,299.295,15.919z"/>
	<path style="fill:#FFD7A3;" d="M383.588,413.991l-1.526-5.227c-0.737-2.525-3.197-4.073-5.727-3.751l-5.334-40.002
		c-1.752-13.142-9.895-24.558-23.304-31.262l-15.714-7.857c-2.545-1.272-4.488,0.365-6.357,2.444l-34.485-12.689
		c-6.534-2.178-10.94-8.292-10.94-15.179v-25.802l34.461-14.359c17.887-7.453,29.539-24.93,29.539-44.308v-8
		c13.255,0,24-10.745,24-24s-10.745-24-24-24v-16c0-22.091-17.909-56-40-56h-144c-22.092,0-40,33.909-40,56v16
		c-13.255,0-24,10.745-24,24s10.745,24,24,24v8c0,19.378,11.651,36.855,29.538,44.308l34.462,14.36v25.801
		c0,6.887-4.407,13.001-10.94,15.179l-34.485,12.689c-1.869-2.079-3.812-3.717-6.357-2.444l-15.714,7.857
		c-13.41,6.705-21.552,18.121-23.304,31.262l-5.334,40.002c-2.53-0.322-4.989,1.226-5.727,3.751l-1.526,5.227
		c-0.817,2.799,0.79,5.729,3.589,6.546l11.799,3.442V448c0,8.836,7.164,16,16,16h32h176h32c8.836,0,16-7.164,16-16v-24.021
		l11.799-3.442C382.798,419.721,384.405,416.79,383.588,413.991z"/>
	<path style="fill:#FDC88E;" d="M280.2,273.831l-96,0.165v26.472c0,5.693-3.017,10.852-7.752,13.701
		C243.371,325.732,280.197,273.835,280.2,273.831z"/>
	<g>
		<path style="fill:#9BCE7A;" d="M371.001,365.011c-1.752-13.142-9.895-24.558-23.304-31.262l-15.714-7.857
			c-2.905-1.452-5.025,0.886-7.146,3.345c-42.636,49.431-92.635,70.767-92.635,70.767h-0.001H232.2c0,0-49.999-21.336-92.635-70.767
			c-2.121-2.459-4.242-4.797-7.146-3.345l-15.714,7.857c-13.41,6.705-21.552,18.121-23.304,31.262l-6.512,48.836
			C108.022,421.124,144.2,432,144.2,432v32h176v-32c0,0,36.178-10.876,57.313-18.153L371.001,365.011z"/>
	</g>
	<path style="fill:#FFE1B2;" d="M344.2,160v-16c0-22.091-17.909-56-40-56h-144c-22.092,0-40,33.909-40,56v15.996
		c-13.255,0-24,10.745-24,24s10.745,24,24,24V216c0,19.378,11.651,36.855,29.538,44.308l51.691,21.538
		c9.75,4.063,20.208,6.154,30.77,6.154l0,0c10.562,0,21.019-2.092,30.769-6.154l51.694-21.539
		c17.887-7.453,29.539-24.93,29.539-44.308v-8c13.255,0,24-10.745,24-24S357.455,160,344.2,160z"/>
	<g>
		<path style="fill:#623F33;" d="M288.2,192L288.2,192c-4.4,0-8-3.6-8-8v-8c0-4.4,3.6-8,8-8l0,0c4.4,0,8,3.6,8,8v8
			C296.2,188.4,292.6,192,288.2,192z"/>
	</g>
	<g>
		<g>
			<path style="fill:#E4B07B;" d="M232.2,248.219c-14.223,0-27.527-3.5-36.5-9.605c-3.652-2.484-4.601-7.461-2.113-11.113
				c2.48-3.648,7.461-4.598,11.113-2.113c6.289,4.277,16.57,6.832,27.5,6.832s21.211-2.555,27.5-6.832
				c3.66-2.492,8.629-1.539,11.113,2.113c2.488,3.652,1.539,8.629-2.113,11.113C259.727,244.719,246.423,248.219,232.2,248.219z"/>
		</g>
	</g>
	<path style="fill:#FFD7A3;" d="M120.2,160c-13.255,0-24,10.745-24,24s10.745,24,24,24v8c0,19.378,11.651,36.855,29.538,44.308
		l51.69,21.538c2.53,1.054,5.112,1.962,7.727,2.749c-22.844-16.711-38.05-31.32-46.96-40.872
		c-6.482-6.949-9.995-16.121-9.995-25.625V176c0,0,133.333-16.667,168-72c2.026-3.233,3.425-6.167,4.277-8.832
		C246.467,139.992,120.2,160,120.2,160z"/>
	<g>
		<path style="fill:#8ABE69;" d="M144.002,429.556c-0.489-9.513-3.665-18.705-9.402-26.355l-37.557-50.076
			c-1.813,3.734-3.087,7.708-3.645,11.887l-6.341,47.561L144.002,429.556z"/>
	</g>
	<g>
		<path style="fill:#76AB5F;" d="M80.812,413.991c-0.817,2.799,0.79,5.73,3.588,6.546l59.799,17.444V432
			c0-3.779-0.594-7.481-1.461-11.113l-53.856-15.71c-2.798-0.816-5.728,0.79-6.544,3.588L80.812,413.991z"/>
	</g>
	<g>
		<path style="fill:#8ABE69;" d="M320.398,429.556c0.489-9.513,3.665-18.705,9.402-26.355l37.557-50.076
			c1.813,3.734,3.087,7.708,3.645,11.887l6.341,47.561L320.398,429.556z"/>
	</g>
	<g>
		<path style="fill:#76AB5F;" d="M383.588,413.991c0.817,2.799-0.79,5.73-3.588,6.546l-59.8,17.444V432
			c0-3.779,0.594-7.481,1.461-11.113l53.856-15.71c2.798-0.816,5.728,0.79,6.544,3.588L383.588,413.991z"/>
	</g>
	<g>
		<path style="fill:#76AB5F;" d="M160.2,296h-24c-4.418,0-8-3.582-8-8l0,0c0-4.418,3.582-8,8-8h24c4.418,0,8,3.582,8,8l0,0
			C168.2,292.418,164.618,296,160.2,296z"/>
	</g>
	<path style="fill:#FF9656;" d="M104.2,84.996v81.059c124.89-14.872,184.031-41.191,210.985-59.117
		c1.986,29.312,1.456,73.299-12.233,117.063c0,0,47.884-66.782,40.461-139.004L104.2,84.996L104.2,84.996z"/>
	<g>
		<path style="fill:#623F33;" d="M176.2,192L176.2,192c-4.4,0-8-3.6-8-8v-8c0-4.4,3.6-8,8-8l0,0c4.4,0,8,3.6,8,8v8
			C184.2,188.4,180.6,192,176.2,192z"/>
	</g>
	<path style="fill:#EF8C56;" d="M104.2,84.996v81.059l0,0c0.009-0.003,83.212-29.188,142.933-81.059
		C247.133,84.996,104.2,84.996,104.2,84.996z"/>
</g>
<g>
</g>
<g>
</g>
<g>
</g>
<g>
</g>
<g>
</g>
<g>
</g>
<g>
</g>
<g>
</g>
<g>
</g>
<g>
</g>
<g>
</g>
<g>
</g>
<g>
</g>
<g>
</g>
<g>
</g>
</svg>
