<?xml version="1.0" encoding="iso-8859-1"?>
<!-- Generator: Adobe Illustrator 19.0.0, SVG Export Plug-In . SVG Version: 6.00 Build 0)  -->
<svg version="1.1" id="Layer_1" xmlns="http://www.w3.org/2000/svg" xmlns:xlink="http://www.w3.org/1999/xlink" x="0px" y="0px"
	 viewBox="0 0 464 464" style="enable-background:new 0 0 464 464;" xml:space="preserve">
<g>
	<path style="fill:#F6B47B;" d="M383.388,413.991l-1.526-5.227c-0.737-2.525-3.197-4.073-5.727-3.751l-1.61-12.077l-3.335-25.015
		c0-0.001,0-0.002,0-0.003l-0.387-2.906c-1.752-13.142-9.895-24.558-23.304-31.262l-15.714-7.857
		c-2.545-1.272-4.488,0.365-6.357,2.444l-34.485-12.688c-6.533-2.178-10.94-8.292-10.94-15.179v-25.802l34.461-14.359
		C332.349,252.855,344,235.378,344,216v-72c0-22.092-17.909-56-40-56H160c-22.092,0-40,33.908-40,56v72
		c0,19.377,11.651,36.854,29.538,44.308L184,274.667v25.801c0,6.887-4.407,13.001-10.94,15.179l-34.485,12.688
		c-1.869-2.079-3.812-3.717-6.357-2.444l-15.714,7.857c-13.41,6.705-21.552,18.121-23.304,31.262l-0.387,2.906
		c0,0.001,0,0.002,0,0.003l-3.335,25.015l-1.61,12.077c-2.53-0.322-4.989,1.226-5.727,3.751l-1.526,5.227
		c-0.817,2.799,0.79,5.729,3.589,6.546l1.535,0.448l-2.112,15.844C81.705,451.216,92.897,464,107.412,464h249.176
		c14.515,0,25.708-12.784,23.789-27.172l-2.112-15.844l1.535-0.448C382.598,419.721,384.205,416.79,383.388,413.991z"/>
	<path style="fill:#E2A071;" d="M184,273v27.469c0,5.693-3.017,10.852-7.752,13.701c63.754,11.015,100.193-36.802,103.504-41.17H184
		z"/>
	<path style="fill:#FDC88E;" d="M314.462,260.308l-51.694,21.539c-9.75,4.062-20.207,6.154-30.769,6.154l0,0
		c-10.562,0-21.02-2.092-30.77-6.154l-51.691-21.538C131.651,252.855,120,235.378,120,216v-72c0-22.091,17.909-56,40-56h144
		c22.091,0,40,33.909,40,56v72C344,235.378,332.349,252.855,314.462,260.308z"/>
	<path style="fill:#623F33;" d="M176,192L176,192c-4.4,0-8-3.6-8-8v-8c0-4.4,3.6-8,8-8l0,0c4.4,0,8,3.6,8,8v8
		C184,188.4,180.4,192,176,192z"/>
	<path style="fill:#623F33;" d="M288,192L288,192c-4.4,0-8-3.6-8-8v-8c0-4.4,3.6-8,8-8l0,0c4.4,0,8,3.6,8,8v8
		C296,188.4,292.4,192,288,192z"/>
	<g>
		<path style="fill:#E2A071;" d="M232,248.219c-14.223,0-27.527-3.5-36.5-9.605c-3.652-2.484-4.602-7.461-2.113-11.113
			c2.48-3.648,7.461-4.598,11.113-2.113c6.289,4.277,16.57,6.832,27.5,6.832s21.211-2.555,27.5-6.832
			c3.66-2.492,8.629-1.539,11.113,2.113c2.488,3.652,1.539,8.629-2.113,11.113C259.528,244.719,246.223,248.219,232,248.219z"/>
	</g>
	<path style="fill:#F6B47B;" d="M120,153.14V216c0,19.377,11.651,36.855,29.538,44.308l51.69,21.538
		c2.53,1.054,5.112,1.962,7.727,2.749c-22.844-16.711-38.05-31.32-46.96-40.872c-6.482-6.95-9.995-16.121-9.995-25.625v-44.711
		c22.9-7.993,82.145-34.247,82.967-77.386c0.078-4.077,0.016-7.712-0.164-10.953C197.152,136.513,144.991,150.009,120,153.14z"/>
	<path style="fill:#6E4439;" d="M370.5,266.092c0-16.951-13.975-24.114-13.975-38.549s18.158-18.318,18.158-39.958
		c0-14.466-6.446-25.697-10.722-36.047C388.34,45.873,296.888,0,272,0c-26,0-40,8-40,8s-14-8-40-8
		c-24.888,0-116.34,45.873-91.961,151.537c-4.276,10.35-10.722,21.581-10.722,36.047c0,21.641,18.158,25.523,18.158,39.958
		S93.5,249.141,93.5,266.091c0,16.951,13.46,25.159,17.833,37.912c2,5.833-0.333,23.33-0.333,23.33s14.25-23.512,6.75-45.111
		s1.2-23.923,8-33.355c10.25-14.217,8.86-30.168,0.489-45.67c-5.406-10.012-3.983-19.683,3.594-26.416
		c7.975-7.086,9.845-19.315,9.856-19.393C177.563,146.3,232,124.087,232,88c0,36.087,54.437,58.3,92.31,69.388
		c0.012,0.077,1.882,12.307,9.856,19.393c7.577,6.733,9,16.404,3.594,26.416c-8.371,15.502-9.761,31.454,0.489,45.67
		c6.8,9.432,15.5,11.756,8,33.355c-7.5,21.598,6.75,45.111,6.75,45.111s-2.333-17.498-0.333-23.33
		C357.04,291.25,370.5,283.042,370.5,266.092z"/>
	<path style="fill:#57B9DD;" d="M370.802,365.011c-1.752-13.142-9.895-24.558-23.304-31.262l-15.714-7.857
		c-2.905-1.452-5.025,0.886-7.146,3.345c-42.636,49.431-92.635,70.767-92.635,70.767h-0.001h-0.001c0,0-49.999-21.336-92.635-70.767
		c-2.121-2.459-4.242-4.797-7.146-3.345l-15.714,7.857c-13.41,6.705-21.552,18.121-23.304,31.262l-6.512,48.836
		C107.822,421.124,144,432,144,432v32h176v-32c0,0,36.178-10.876,57.313-18.153L370.802,365.011z"/>
	<path style="fill:#43A0C5;" d="M143.802,429.556c-0.489-9.513-3.665-18.705-9.402-26.355l-37.557-50.076
		c-1.813,3.734-3.087,7.708-3.645,11.887l-6.341,47.561L143.802,429.556z"/>
	<path style="fill:#258CAC;" d="M80.612,413.991c-0.817,2.799,0.79,5.73,3.588,6.546l59.8,17.444V432
		c0-3.779-0.594-7.481-1.461-11.113l-53.856-15.71c-2.798-0.816-5.728,0.79-6.544,3.588L80.612,413.991z"/>
	<path style="fill:#43A0C5;" d="M320.198,429.556c0.489-9.513,3.665-18.705,9.402-26.355l37.557-50.076
		c1.813,3.734,3.087,7.708,3.645,11.887l6.341,47.561L320.198,429.556z"/>
	<path style="fill:#258CAC;" d="M383.388,413.991c0.817,2.799-0.79,5.73-3.588,6.546L320,437.981V432
		c0-3.779,0.594-7.481,1.461-11.113l53.856-15.71c2.798-0.816,5.728,0.79,6.544,3.588L383.388,413.991z"/>
	<path style="fill:#5E342E;" d="M192,0c-24.888,0-116.339,45.873-91.961,151.537l0,0c-4.276,10.35-10.722,21.581-10.722,36.047
		c0,21.641,18.158,25.523,18.158,39.958S93.5,249.141,93.5,266.091c0,16.951,13.46,25.159,17.833,37.912
		c2,5.833-0.333,23.33-0.333,23.33s14.25-23.512,6.75-45.111s1.2-23.923,8-33.355c10.25-14.217,8.86-30.168,0.489-45.67
		c-5.406-10.012-3.983-19.683,3.594-26.416c7.975-7.086,9.845-19.315,9.856-19.393l-0.008-0.001
		c0.003-0.001,0.005-0.002,0.008-0.002C117.089,53.368,207.192,8.083,232,8.004V8C232,8,218,0,192,0z"/>
</g>
<g>
</g>
<g>
</g>
<g>
</g>
<g>
</g>
<g>
</g>
<g>
</g>
<g>
</g>
<g>
</g>
<g>
</g>
<g>
</g>
<g>
</g>
<g>
</g>
<g>
</g>
<g>
</g>
<g>
</g>
</svg>
