<?xml version="1.0" encoding="iso-8859-1"?>
<!-- Generator: Adobe Illustrator 19.0.0, SVG Export Plug-In . SVG Version: 6.00 Build 0)  -->
<svg version="1.1" id="Layer_1" xmlns="http://www.w3.org/2000/svg" xmlns:xlink="http://www.w3.org/1999/xlink" x="0px" y="0px"
	 viewBox="0 0 464.002 464.002" style="enable-background:new 0 0 464.002 464.002;" xml:space="preserve">
<g>
	<g>
		<path style="fill:#E8A055;" d="M120.001,185.005c0,43-23,156.996-56,182.996l135.484,33.548
			C219.501,229.505,120.001,185.005,120.001,185.005z"/>
		<path style="fill:#F6B45E;" d="M344.001,185.005c0,43,23,156.996,56,182.996l-135.484,33.548
			C244.501,229.505,344.001,185.005,344.001,185.005z"/>
	</g>
	<path style="fill:#FFD7A3;" d="M380.379,436.83l-2.984-22.383l-6.542-49.067c-1.779-13.344-10.151-24.898-22.277-30.744
		l-30.861-14.879c-3.003-1.448-6.501-0.135-7.99,2.804l-18.782-6.911c-6.533-2.178-10.94-8.292-10.94-15.179v-25.802l34.461-14.359
		c17.886-7.454,29.537-24.931,29.537-44.309v-72c0-22.091-17.909-72-40-72h-144c-22.092,0-40,49.909-40,72v72
		c0,19.378,11.651,36.855,29.538,44.308l34.462,14.359v25.801c0,6.887-4.407,13.001-10.94,15.179l-18.782,6.911
		c-1.489-2.938-4.987-4.251-7.99-2.804l-30.861,14.879c-12.126,5.847-20.498,17.4-22.277,30.744l-6.542,49.067l-2.984,22.383
		c-1.919,14.389,9.274,27.173,23.789,27.173l0,0h249.175l0,0C371.104,464.001,382.297,451.217,380.379,436.83z"/>
	<path style="fill:#72967D;" d="M320.001,326.34l-19.834-7.298c-9.615,28.45-36.469,48.959-68.166,48.959
		s-58.55-20.509-68.167-48.959l-19.833,7.298v9.661c0,48.601,39.399,88,88,88l0,0c48.601,0,88-39.399,88-88V326.34z"/>
	<path style="fill:#8ABE69;" d="M380.379,436.83l-9.526-71.451c-1.779-13.344-10.151-24.897-22.277-30.744l-30.861-14.879
		c-3.107-1.498-6.75-0.046-8.143,3.109c-20.236,45.826-54.904,67.136-77.571,77.139c-22.667-10.002-57.335-31.313-77.569-77.14
		c-1.393-3.155-5.036-4.606-8.143-3.109l-30.861,14.879c-12.126,5.847-20.498,17.4-22.277,30.744l-9.526,71.451
		c-1.918,14.387,9.274,27.172,23.79,27.172H356.59C371.104,464.002,382.297,451.217,380.379,436.83z"/>
	<path style="fill:#9BCE7A;" d="M237.107,410.865c38.651-18.172,68.226-48.756,86.091-88.465l-5.484-2.644
		c-3.107-1.498-6.75-0.046-8.143,3.109c-20.235,45.826-54.903,67.136-77.57,77.139c-22.667-10.002-57.335-31.313-77.569-77.14
		c-1.393-3.155-5.036-4.606-8.143-3.109l-5.483,2.644c17.865,39.709,47.439,70.293,86.09,88.465l5.105,2.402L237.107,410.865z"/>
	<path style="fill:#9BCE7A;" d="M144.001,429.726c0-8.895-2.965-17.536-8.426-24.558l-39.339-50.579
		c-1.497,3.403-2.582,7.011-3.086,10.79l-9.526,71.451c-1.918,14.387,9.274,27.172,23.79,27.172h36.587V429.726z"/>
	<path style="fill:#FDC88E;" d="M280.001,274.668L280.001,274.668l-96,0.001v25.801c0,5.693-3.017,10.852-7.752,13.701
		C243.172,325.733,279.999,274.672,280.001,274.668z"/>
	<path style="fill:#9BCE7A;" d="M320.001,429.726c0-8.895,2.965-17.536,8.426-24.558l39.339-50.579
		c1.497,3.403,2.582,7.011,3.086,10.79l9.526,71.451c1.918,14.387-9.274,27.172-23.79,27.172h-36.587V429.726z"/>
	<path style="fill:#FFE1B2;" d="M314.463,260.309l-51.694,21.539c-9.75,4.062-20.207,6.154-30.769,6.154l0,0
		c-10.562,0-21.02-2.092-30.77-6.154l-51.691-21.538c-17.886-7.454-29.538-24.931-29.538-44.309v-72c0-22.091,17.909-72,40-72h144
		c22.091,0,40,49.909,40,72v72C344.002,235.379,332.35,252.856,314.463,260.309z"/>
	<circle style="fill:#FFD7A3;" cx="120.001" cy="184.001" r="24"/>
	<circle style="fill:#FFE1B2;" cx="344.002" cy="184.001" r="24"/>
	<path style="fill:#623F33;" d="M176.001,192.001L176.001,192.001c-4.4,0-8-3.6-8-8v-8c0-4.4,3.6-8,8-8l0,0c4.4,0,8,3.6,8,8v8
		C184.001,188.401,180.401,192.001,176.001,192.001z"/>
	<path style="fill:#623F33;" d="M288.001,192.001L288.001,192.001c-4.4,0-8-3.6-8-8v-8c0-4.4,3.6-8,8-8l0,0c4.4,0,8,3.6,8,8v8
		C296.001,188.401,292.401,192.001,288.001,192.001z"/>
	<path style="fill:#E4B07B;" d="M232.001,248.22c-14.223,0-27.527-3.5-36.5-9.605c-3.652-2.484-4.602-7.461-2.113-11.113
		c2.48-3.648,7.461-4.598,11.113-2.113c6.289,4.277,16.57,6.832,27.5,6.832s21.211-2.555,27.5-6.832
		c3.66-2.492,8.629-1.539,11.113,2.113c2.488,3.652,1.539,8.629-2.113,11.113C259.529,244.72,246.224,248.22,232.001,248.22z"/>
	<path style="fill:#FFD7A3;" d="M245.877,86.403l-10.876-6.398l-115,73.741v62.255c0,19.378,11.651,36.855,29.538,44.308
		l51.69,21.538c2.53,1.054,5.112,1.962,7.727,2.749c-22.844-16.711-38.05-31.32-46.96-40.872c-6.482-6.95-9.995-16.121-9.995-25.625
		v-48.271C173.941,144.38,233.863,107.148,245.877,86.403z"/>
	<path style="fill:#FFC85C;" d="M232.229,80.005c0,22.667,112,62.667,112,112c0,139.667,55.772,175.996,55.772,175.996
		c-17-55.663-7.171-289.294-95.773-351.997c-16.25-11.5-37.154-16.155-48-16c-20.695,0.296-24,8-24,8v72.001H232.229z"/>
	<path style="fill:#FFE095;" d="M324.001,72.352c0,10.77-21.73,19.5-32.5,19.5c-10.769,0-19.5-8.73-19.5-19.5s8.73-19.5,19.5-19.5
		C302.271,52.852,324.001,61.582,324.001,72.352z"/>
	<path style="fill:#FFE095;" d="M324.001,72.352c0-10.77,21.73-19.5,32.5-19.5s19.5,8.73,19.5,19.5s-8.73,19.5-19.5,19.5
		S324.001,83.122,324.001,72.352z"/>
	<path style="fill:#FFEEB1;" d="M324.001,72.352c9.327,5.385,6.022,28.569,0.637,37.896S307.327,122.77,298,117.386
		s-12.522-17.311-7.138-26.638C296.249,81.421,314.675,66.967,324.001,72.352z"/>
	<path style="fill:#FFEEB1;" d="M324.001,72.352c-9.327-5.385-6.022-28.569-0.638-37.896c5.385-9.327,17.311-12.522,26.638-7.138
		s12.522,17.311,7.137,26.638C351.754,63.283,333.328,77.737,324.001,72.352z"/>
	<path style="fill:#FFF2CE;" d="M324.001,72.352c-9.327,5.385-6.022,28.569-0.638,37.896c5.385,9.327,17.311,12.522,26.638,7.138
		s12.522-17.311,7.137-26.638C351.754,81.421,333.328,66.967,324.001,72.352z"/>
	<path style="fill:#FFF2CE;" d="M324.001,72.352c9.327-5.385,6.022-28.569,0.637-37.896S307.327,21.934,298,27.318
		s-12.522,17.311-7.138,26.638C296.249,63.283,314.675,77.737,324.001,72.352z"/>
	<circle style="fill:#FFFFFF;" cx="324.001" cy="72.352" r="13"/>
	<path style="fill:#FFC85C;" d="M232.229,80.005c0,22.667-112,62.667-112,112c0,139.667-55.773,175.996-55.773,175.996
		c17-55.663,7.171-289.294,95.773-351.997c16.25-11.5,37.154-16.155,48-16c20.695,0.296,24,8,24,8V80.005z"/>
	<path style="fill:#F6B45E;" d="M208.229,0.005c-10.846-0.155-31.75,4.5-48,16C71.627,78.707,81.456,312.339,64.456,368.001
		c0,0,55.772-36.329,55.772-175.996c0-15.446,10.98-29.977,26.064-43.348C169.006,25.335,232.229,8.005,232.229,8.005
		S228.924,0.301,208.229,0.005z"/>
</g>
<g>
</g>
<g>
</g>
<g>
</g>
<g>
</g>
<g>
</g>
<g>
</g>
<g>
</g>
<g>
</g>
<g>
</g>
<g>
</g>
<g>
</g>
<g>
</g>
<g>
</g>
<g>
</g>
<g>
</g>
</svg>
