<?xml version="1.0" encoding="iso-8859-1"?>
<!-- Generator: Adobe Illustrator 19.0.0, SVG Export Plug-In . SVG Version: 6.00 Build 0)  -->
<svg version="1.1" id="Layer_1" xmlns="http://www.w3.org/2000/svg" xmlns:xlink="http://www.w3.org/1999/xlink" x="0px" y="0px"
	 viewBox="0 0 464 464" style="enable-background:new 0 0 464 464;" xml:space="preserve">
<g>
	<path style="fill:#E69F5F;" d="M398.296,336c0,0-50.959,38.521-128,48c-63.667,0-78,0.004-78,0.004S67.453,281.334,67.453,135.535
		C67.453,58.749,137.478,0,214.264,0h0.064c76.786,0,143.397,62.079,146.811,135.535C367.296,268,398.296,336,398.296,336z"/>
	<path style="fill:#E09156;" d="M214.296,88c0-21.049-14.776-73.335-76.354-67.494C96.656,44.102,67.453,86.01,67.453,135.535
		c0,145.798,77.176,235.84,148.843,235.84L214.296,88z"/>
	<path style="fill:#FFD7A3;" d="M362.673,436.828l-9.576-71.817c-1.752-13.142-9.895-24.558-23.304-31.262l-37.647-16.592
		c-3.287-1.449-6.984-0.491-9.198,2.064l-9.712-3.574c-6.534-2.178-10.94-8.292-10.94-15.179v-25.802l34.461-14.358
		c17.888-7.453,29.539-24.93,29.539-44.308v-8c13.255,0,24-10.745,24-24s-10.745-24-24-24v-16c0-22.091-17.909-40-40-40h-33.373
		c-14.488,0-28.383-5.755-38.627-16c-10.245,10.245-24.139,16-38.627,16h-33.373c-22.091,0-40,17.909-40,40v16
		c-13.255,0-24,10.745-24,24s10.745,24,24,24v8c0,19.378,11.651,36.855,29.538,44.308l34.462,14.359v25.801
		c0,6.887-4.407,13.001-10.94,15.179l-9.712,3.574c-2.214-2.554-5.911-3.512-9.198-2.064l-37.647,16.592
		c-13.41,6.705-21.552,18.121-23.304,31.262l-9.576,71.817C64,451.216,75.193,464,89.708,464h4.588h240h4.587
		C353.398,464,364.591,451.216,362.673,436.828z"/>
	<path style="fill:#FDC88E;" d="M262.296,274.667l-96-0.663v26.464c0,5.693-3.017,10.852-7.752,13.701
		C225.469,325.733,262.296,274.667,262.296,274.667z"/>
	<path style="fill:#FFE1B2;" d="M326.296,160v-16c0-22.091-17.909-40-40-40h-33.373c-14.488,0-28.383-5.755-38.627-16
		c-10.245,10.245-24.139,16-38.627,16h-33.373c-22.091,0-40,17.909-40,40v16c-13.255,0-24,10.745-24,24s10.745,24,24,24v8
		c0,19.378,11.651,36.855,29.538,44.308l51.69,21.538c9.75,4.063,20.208,6.154,30.77,6.154s21.02-2.092,30.769-6.154l51.693-21.538
		c17.888-7.453,29.539-24.93,29.539-44.308v-8c13.255,0,24-10.745,24-24C350.296,170.745,339.551,160,326.296,160z"/>
	<path style="fill:#623F33;" d="M158.296,192L158.296,192c-4.4,0-8-3.6-8-8v-8c0-4.4,3.6-8,8-8l0,0c4.4,0,8,3.6,8,8v8
		C166.296,188.4,162.696,192,158.296,192z"/>
	<path style="fill:#623F33;" d="M270.296,192L270.296,192c-4.4,0-8-3.6-8-8v-8c0-4.4,3.6-8,8-8l0,0c4.4,0,8,3.6,8,8v8
		C278.296,188.4,274.696,192,270.296,192z"/>
	<path style="fill:#E4B07B;" d="M214.296,248.219c-14.223,0-27.527-3.5-36.5-9.605c-3.652-2.484-4.602-7.461-2.113-11.113
		c2.48-3.648,7.461-4.598,11.113-2.113c6.289,4.277,16.57,6.832,27.5,6.832s21.211-2.555,27.5-6.832
		c3.66-2.492,8.629-1.539,11.113,2.113c2.488,3.652,1.539,8.629-2.113,11.113C241.823,244.719,228.519,248.219,214.296,248.219z"/>
	<path style="fill:#FF6473;" d="M362.673,436.828l-9.576-71.817c-1.752-13.142-9.895-24.558-23.304-31.262l-37.647-16.592
		c-4.168-1.837-9.007,0.185-10.627,4.441C271.202,348.713,245.033,368,214.296,368s-56.906-19.288-67.224-46.403
		c-1.62-4.257-6.459-6.278-10.627-4.441l-37.647,16.592c-13.41,6.705-21.552,18.121-23.304,31.262l-9.576,71.817
		C64,451.216,75.193,464,89.708,464h249.175C353.398,464,364.591,451.216,362.673,436.828z"/>
	<path style="fill:#8DB9E2;" d="M306.132,326.662l-28.786,46.058c-4.386,7.017-12.077,11.28-20.352,11.28h-85.396
		c-8.275,0-15.966-4.263-20.352-11.28l-28.786-46.058c-2.312-3.699-7.16-4.864-10.9-2.62l-26.278,15.767
		c-3.837,2.302-5.04,7.305-2.668,11.1L118.296,408h192l35.682-57.092c2.372-3.795,1.169-8.797-2.668-11.1l-26.278-15.767
		C313.292,321.798,308.444,322.964,306.132,326.662z"/>
	<rect x="118.296" y="408" style="fill:#6AA2DE;" width="192" height="56"/>
	<path style="fill:#FFD7A3;" d="M224.987,96.24c-3.851-2.295-7.467-5.017-10.691-8.24c-10.245,10.245-24.139,16-38.628,16h-33.373
		c-2.748,0-5.418,0.298-8,0.835v-0.029c-18.257,3.707-32,19.843-32,39.194v16c-13.255,0-24,10.745-24,24s10.745,24,24,24v8
		c0,19.378,11.651,36.855,29.538,44.308l51.69,21.538c2.53,1.054,5.112,1.962,7.727,2.749c-22.844-16.711-38.05-31.32-46.96-40.872
		c-6.482-6.95-9.995-16.121-9.995-25.625v-97.804C202.864,122.339,216.371,109.373,224.987,96.24z"/>
</g>
<g>
</g>
<g>
</g>
<g>
</g>
<g>
</g>
<g>
</g>
<g>
</g>
<g>
</g>
<g>
</g>
<g>
</g>
<g>
</g>
<g>
</g>
<g>
</g>
<g>
</g>
<g>
</g>
<g>
</g>
</svg>
