<?xml version="1.0" encoding="iso-8859-1"?>
<!-- Generator: Adobe Illustrator 19.0.0, SVG Export Plug-In . SVG Version: 6.00 Build 0)  -->
<svg version="1.1" id="Layer_1" xmlns="http://www.w3.org/2000/svg" xmlns:xlink="http://www.w3.org/1999/xlink" x="0px" y="0px"
	 viewBox="0 0 464.001 464.001" style="enable-background:new 0 0 464.001 464.001;" xml:space="preserve">
<g>
	<path style="fill:#A2795C;" d="M415.971,422.878l-0.726-6.536c-0.287-2.586-2.616-4.449-5.202-4.162l-0.407,0.045l-7.027-56.214
		c-1.529-12.228-9.943-22.492-21.634-26.389l-39.047-13.016c-5.362-1.788-11.244-0.649-15.379,2.874l-11.502-3.834
		c-6.534-2.178-10.94-8.292-10.94-15.179v-25.802l34.461-14.359c17.887-7.453,29.539-24.93,29.539-44.308v-8
		c13.255,0,24-10.745,24-24s-10.745-24-24-24v-32c0-22.091-17.909-40-40-40h-144c-22.091,0-40,17.909-40,40v32
		c-13.255,0-24,10.745-24,24s10.745,24,24,24v8c0,19.377,11.651,36.854,29.538,44.308l34.462,14.359v25.801
		c0,6.887-4.407,13.001-10.94,15.179l-11.502,3.834c-4.135-3.523-10.017-4.662-15.379-2.874l-39.047,13.016
		c-11.691,3.897-20.105,14.161-21.634,26.389l-7.027,56.214l-0.407-0.045c-2.586-0.287-4.914,1.576-5.202,4.162l-0.726,6.536
		c-0.287,2.585,1.576,4.914,4.161,5.201l11.702,1.3v18.621c0,8.836,7.163,16,16,16h256c8.837,0,16-7.164,16-16v-18.621l11.702-1.3
		C414.395,427.792,416.258,425.463,415.971,422.878z"/>
	<path style="fill:#8F6951;" d="M208.108,300.468c0,5.693-3.017,10.852-7.753,13.701c66.926,11.563,103.753-39.503,103.753-39.503
		l-96,0.001V300.468z"/>
	<g>
		<path style="fill:#C93F44;" d="M146,112l-90.371,7.364c-4.312,0.359-7.629,3.964-7.629,8.291v0.024c0,4.595,3.725,8.32,8.32,8.32
			H146V112z"/>
	</g>
	<g>
		<path style="fill:#F23F44;" d="M344.108,464.001v-40h67l-8.499-67.989c-1.529-12.228-9.943-22.492-21.634-26.389l-39.047-13.016
			c-6.8-2.267-14.45,0.154-18.291,6.206C309.457,345.157,284.531,360,256.108,360s-53.349-14.844-67.53-37.188
			c-3.841-6.052-11.491-8.473-18.291-6.206l-39.047,13.016c-11.691,3.897-20.105,14.161-21.634,26.389l-7.609,60.872l66.11,7.117v40
			L344.108,464.001L344.108,464.001z"/>
	</g>
	<path style="fill:#AD8366;" d="M368.108,160v-32c0-22.091-17.909-40-40-40h-144c-22.091,0-40,17.909-40,40v32.003
		c-0.036,0-0.072-0.003-0.108-0.003c-13.255,0-24,10.745-24,24s10.745,24,24,24c0.036,0,0.072-0.003,0.108-0.003V216
		c0,19.377,11.651,36.854,29.538,44.308l51.691,21.538c9.75,4.063,20.207,6.154,30.77,6.154l0,0c10.562,0,21.019-2.091,30.769-6.154
		l51.694-21.539c17.887-7.453,29.539-24.93,29.539-44.308v-8c13.255,0,24-10.745,24-24C392.108,170.745,381.363,160,368.108,160z"/>
	<path style="fill:#A2795C;" d="M186.103,243.723c-6.482-6.95-9.995-16.121-9.995-25.625v-89.097h-32v31c-13.255,0-24,10.745-24,24
		s10.745,24,24,24v8c0,19.378,11.651,36.855,29.538,44.308l51.69,21.538c2.53,1.054,5.112,1.962,7.727,2.749
		C210.219,267.883,195.013,253.275,186.103,243.723z"/>
	<g>
		<path style="fill:#623F33;" d="M200.108,192L200.108,192c-4.4,0-8-3.6-8-8v-8c0-4.4,3.6-8,8-8l0,0c4.4,0,8,3.6,8,8v8
			C208.108,188.4,204.508,192,200.108,192z"/>
	</g>
	<g>
		<path style="fill:#623F33;" d="M312.108,192L312.108,192c-4.4,0-8-3.6-8-8v-8c0-4.4,3.6-8,8-8l0,0c4.4,0,8,3.6,8,8v8
			C320.108,188.4,316.508,192,312.108,192z"/>
	</g>
	<g>
		<g>
			<path style="fill:#8F6951;" d="M256.108,248.219c-14.223,0-27.527-3.5-36.5-9.605c-3.652-2.484-4.602-7.461-2.113-11.113
				c2.48-3.648,7.461-4.598,11.113-2.113c6.289,4.277,16.57,6.832,27.5,6.832s21.211-2.555,27.5-6.832
				c3.66-2.492,8.629-1.539,11.113,2.113c2.488,3.652,1.539,8.629-2.113,11.113C283.635,244.719,270.331,248.219,256.108,248.219z"
				/>
		</g>
	</g>
	<g>
		<path style="fill:#FF4F4F;" d="M168.108,430.04v-18.106c0-7.697-2.774-15.135-7.813-20.953l-44.019-50.813
			c-3.552,4.497-5.93,9.93-6.669,15.843l-8.356,66.847C113.975,423.622,147.819,427.587,168.108,430.04z"/>
	</g>
	<g>
		<path style="fill:#C93F44;" d="M168.108,419.507l-65.936-7.326c-2.586-0.287-4.914,1.576-5.202,4.161l-0.726,6.536
			c-0.287,2.585,1.576,4.914,4.161,5.201l67.702,7.522L168.108,419.507L168.108,419.507z"/>
	</g>
	<g>
		<path style="fill:#FF4F4F;" d="M344.108,430.04v-18.106c0-7.697,2.774-15.135,7.813-20.953l44.019-50.813
			c3.552,4.497,5.93,9.93,6.669,15.843l8.356,66.847C398.241,423.622,364.397,427.587,344.108,430.04z"/>
	</g>
	<g>
		<path style="fill:#C93F44;" d="M344.108,419.507l65.936-7.326c2.586-0.287,4.914,1.576,5.202,4.161l0.726,6.536
			c0.287,2.585-1.576,4.914-4.161,5.201l-67.702,7.522v-16.094H344.108z"/>
	</g>
	<g>
		<path style="fill:#FF4F4F;" d="M349.398,36.553L271.458,3.15C266.609,1.072,261.387,0,256.111,0h-0.006
			c-5.276,0-10.498,1.072-15.347,3.15l-77.94,33.403c-15.927,6.826-25.648,23.131-24.079,40.388l5.369,59.06h136
			c4.418,0,8-3.582,8-8v-24c0-4.418,3.582-8,8-8h48c4.418,0,8,3.582,8,8v24c0,4.418,3.582,8,8,8h8l5.369-59.06
			C375.046,59.683,365.325,43.379,349.398,36.553z"/>
	</g>
	<g>
		<path style="fill:#F23F44;" d="M256.108,0h-0.003c-5.276,0-10.498,1.072-15.347,3.15l-77.94,33.403
			c-15.927,6.826-25.648,23.13-24.079,40.387l5.369,59.06h64V67.882c0-12.73,5.057-24.939,14.059-33.941L256.108,0z"/>
	</g>
	<g>
		<rect x="288.108" y="112" style="fill:#F23F44;" width="64" height="16"/>
	</g>
</g>
<g>
</g>
<g>
</g>
<g>
</g>
<g>
</g>
<g>
</g>
<g>
</g>
<g>
</g>
<g>
</g>
<g>
</g>
<g>
</g>
<g>
</g>
<g>
</g>
<g>
</g>
<g>
</g>
<g>
</g>
</svg>
