<?xml version="1.0" encoding="iso-8859-1"?>
<!-- Generator: Adobe Illustrator 19.0.0, SVG Export Plug-In . SVG Version: 6.00 Build 0)  -->
<svg version="1.1" id="Layer_1" xmlns="http://www.w3.org/2000/svg" xmlns:xlink="http://www.w3.org/1999/xlink" x="0px" y="0px"
	 viewBox="0 0 464.005 464.005" style="enable-background:new 0 0 464.005 464.005;" xml:space="preserve">
<g>
	<g>
		<path style="fill:#5E342E;" d="M104.002,184v0.004l0,0c-17.673,0-32,14.327-32,32c0,3.041,0.56,5.924,1.352,8.711
			c-14.479,3.063-25.352,15.897-25.352,31.289c0,5.534,1.532,10.66,4.004,15.201c-7.264,5.866-12.004,14.735-12.004,24.8
			c0,12.687,7.443,23.551,18.148,28.727c-1.33,3.518-2.147,7.29-2.147,11.273c0,17.673,14.327,32,32,32h144V184H104.002z"/>
		<path style="fill:#734A3E;" d="M424.002,296.004c0-10.064-4.74-18.933-12.004-24.8c2.472-4.541,4.004-9.667,4.004-15.201
			c0-15.391-10.873-28.226-25.352-31.289c0.792-2.787,1.352-5.67,1.352-8.711c0-17.673-14.327-32-32-32l0,0V184h-128v184.004h144
			c17.673,0,32-14.327,32-32c0-3.983-0.818-7.755-2.147-11.273C416.559,319.555,424.002,308.691,424.002,296.004z"/>
	</g>
	<path style="fill:#F6B47B;" d="M380.379,436.832l-9.188-68.908c-0.875-6.564-3.348-12.664-7.047-17.87
		c1.714-3.661,0.426-8.109-3.128-10.242l-26.278-15.767c-3.74-2.244-8.588-1.079-10.9,2.62l-0.553,0.885l-32.343-11.9
		c-6.534-2.178-10.94-8.292-10.94-15.179V274.67l34.461-14.359c17.887-7.453,29.539-24.93,29.539-44.308v-72
		c0-22.091-17.909-56-40-56h-144c-22.091,0-40,33.909-40,56v72c0,19.378,11.651,36.855,29.538,44.308l34.462,14.36v25.801
		c0,6.887-4.407,13.001-10.94,15.179l-32.343,11.9l-0.553-0.885c-2.312-3.699-7.16-4.864-10.9-2.62l-26.278,15.767
		c-3.555,2.133-4.842,6.581-3.128,10.242c-3.698,5.206-6.172,11.306-7.047,17.87l-9.188,68.908
		c-1.918,14.388,9.275,27.172,23.789,27.172H356.59C371.105,464.004,382.298,451.22,380.379,436.832z"/>
	<path style="fill:#E2A071;" d="M280.002,274h-96v26.472c0,5.693-3.017,10.852-7.752,13.701
		C243.175,325.734,280.002,274,280.002,274z"/>
	<g>
		<path style="fill:#FDC88E;" d="M314.464,260.311L262.77,281.85c-9.75,4.062-20.207,6.154-30.769,6.154l0,0
			c-10.562,0-21.02-2.092-30.77-6.154l-51.691-21.538c-17.887-7.453-29.538-24.93-29.538-44.308v-72c0-22.091,17.909-56,40-56h144
			c22.091,0,40,33.909,40,56v72C344.002,235.381,332.351,252.859,314.464,260.311z"/>
	</g>
	<g>
		<path style="fill:#623F33;" d="M176.002,192.004L176.002,192.004c-4.4,0-8-3.6-8-8v-8c0-4.4,3.6-8,8-8l0,0c4.4,0,8,3.6,8,8v8
			C184.002,188.404,180.402,192.004,176.002,192.004z"/>
	</g>
	<g>
		<path style="fill:#623F33;" d="M288.002,192.004L288.002,192.004c-4.4,0-8-3.6-8-8v-8c0-4.4,3.6-8,8-8l0,0c4.4,0,8,3.6,8,8v8
			C296.002,188.404,292.402,192.004,288.002,192.004z"/>
	</g>
	<g>
		<g>
			<path style="fill:#E2A071;" d="M232.002,248.223c-14.223,0-27.527-3.5-36.5-9.605c-3.652-2.484-4.602-7.461-2.113-11.113
				c2.48-3.648,7.461-4.598,11.113-2.113c6.289,4.277,16.57,6.832,27.5,6.832s21.211-2.555,27.5-6.832
				c3.66-2.492,8.629-1.539,11.113,2.113c2.488,3.652,1.539,8.629-2.113,11.113C259.53,244.723,246.225,248.223,232.002,248.223z"/>
		</g>
	</g>
	<path style="fill:#F6B47B;" d="M232.002,64.004c0,0-22.333,28.329-74,59.996c-15.884,9.735-38,30.649-38,50v42.004
		c0,19.378,11.651,36.855,29.538,44.308l51.69,21.538c2.53,1.054,5.112,1.962,7.727,2.749c-22.844-16.711-38.05-31.32-46.96-40.872
		c-6.482-6.949-9.995-16.121-9.995-25.625V162.11c24.648-27.081,94.857-50.104,96-74.105
		C248.787,71.53,232.002,64.004,232.002,64.004z"/>
	<g>
		<path style="fill:#FF8C51;" d="M323.839,326.666l-28.786,46.058c-4.386,7.017-12.077,11.28-20.352,11.28h-85.396
			c-8.275,0-15.966-4.263-20.352-11.28l-28.786-46.058c-2.312-3.699-7.16-4.864-10.9-2.62l-26.278,15.767
			c-3.837,2.302-5.04,7.305-2.668,11.1l35.682,57.092h192l35.682-57.092c2.372-3.795,1.169-8.797-2.668-11.1l-26.278-15.767
			C330.999,321.802,326.15,322.967,323.839,326.666z"/>
	</g>
	<g>
		<rect x="136.002" y="408.004" style="fill:#FF7941;" width="192" height="56"/>
	</g>
	<path style="fill:#5E342E;" d="M120.002,193c0-0.333,0-0.661,0-0.996c0-49.333,112-89.334,112-112v-72c0,0-3.305-7.704-24-8
		c-10.846-0.156-31.75,4.5-48,16C111.344,50.439,92.003,129.086,84.453,193H120.002z"/>
	<path style="fill:#734A3E;" d="M344.002,192.004c0,0.335,0,0.663,0,0.996h35.549c-7.55-63.914-26.89-142.561-75.549-176.996
		c-16.25-11.5-37.154-16.156-48-16c-20.695,0.296-24,8-24,8v72C232.002,102.67,344.002,142.671,344.002,192.004z"/>
</g>
<g>
</g>
<g>
</g>
<g>
</g>
<g>
</g>
<g>
</g>
<g>
</g>
<g>
</g>
<g>
</g>
<g>
</g>
<g>
</g>
<g>
</g>
<g>
</g>
<g>
</g>
<g>
</g>
<g>
</g>
</svg>
