<?xml version="1.0" encoding="iso-8859-1"?>
<!-- Generator: Adobe Illustrator 19.0.0, SVG Export Plug-In . SVG Version: 6.00 Build 0)  -->
<svg version="1.1" id="Layer_1" xmlns="http://www.w3.org/2000/svg" xmlns:xlink="http://www.w3.org/1999/xlink" x="0px" y="0px"
	 viewBox="0 0 464 464" style="enable-background:new 0 0 464 464;" xml:space="preserve">
<g>
	<path style="fill:#9D6E48;" d="M232,0C182.551,0,72,26.236,72,168c0,33.667,7.087,72.872,24,120
		c89.972,15.877,182.029,15.877,272,0c16.913-47.128,24-86.334,24-120C392,26.236,281.449,0,232,0z"/>
	<path style="fill:#8D5F3D;" d="M72,168c0,33.667,7.087,72.872,24,120c40.099,7.076,80.615,10.816,121.173,11.585
		c0,0-63.506-151.252-29.245-293.719C135.622,19.418,72,60.446,72,168z"/>
	<path style="fill:#FFD7A3;" d="M380.378,436.829l-9.576-71.817c-1.752-13.142-9.902-24.562-21.761-30.491l-17.232-8.616
		c-2.567-1.284-5.51-0.145-6.766,2.29l-34.103-12.548c-6.533-2.178-10.94-8.292-10.94-15.179v-25.802l34.461-14.359
		C332.349,252.855,344,235.378,344,216l0,0c13.255,0,24-10.745,24-24s-10.745-24-24-24v-24c0-22.092-17.909-40-40-40H160
		c-22.091,0-40,17.909-40,40v24c-13.255,0-24,10.745-24,24s10.745,24,24,24l0,0c0,19.378,11.651,36.855,29.538,44.308L184,274.667
		v25.801c0,6.887-4.407,13.001-10.94,15.179l-34.101,12.547c-1.242-2.438-4.18-3.583-6.742-2.302l-15.714,7.857
		c-13.41,6.705-21.552,18.121-23.304,31.262l-0.388,2.908v0.001l-9.188,68.908C81.705,451.216,92.898,464,107.413,464h249.175
		C371.103,464,382.296,451.216,380.378,436.829z"/>
	<path style="fill:#FDC88E;" d="M184,274v26.468c0,5.693-3.017,10.852-7.752,13.701c63.753,11.015,100.192-35.801,103.504-40.17H184
		V274z"/>
	<path style="fill:#FFE1B2;" d="M344,168v-24c0-22.092-17.909-40-40-40H160c-22.091,0-40,17.909-40,40v24c-13.255,0-24,10.745-24,24
		s10.745,24,24,24l0,0c0,19.378,11.651,36.855,29.538,44.308l51.691,21.538c9.75,4.063,20.208,6.154,30.77,6.154l0,0
		c10.562,0,21.019-2.091,30.769-6.154l51.694-21.539C332.349,252.855,344,235.378,344,216l0,0c13.255,0,24-10.745,24-24
		S357.255,168,344,168z"/>
	<path style="fill:#623F33;" d="M176,192L176,192c-4.4,0-8-3.6-8-8v-8c0-4.4,3.6-8,8-8l0,0c4.4,0,8,3.6,8,8v8
		C184,188.4,180.4,192,176,192z"/>
	<path style="fill:#623F33;" d="M288,192L288,192c-4.4,0-8-3.6-8-8v-8c0-4.4,3.6-8,8-8l0,0c4.4,0,8,3.6,8,8v8
		C296,188.4,292.4,192,288,192z"/>
	<g>
		<path style="fill:#E4B07B;" d="M232,248.219c-14.223,0-27.527-3.5-36.5-9.605c-3.652-2.484-4.602-7.461-2.113-11.113
			c2.48-3.648,7.461-4.598,11.113-2.113c6.289,4.277,16.57,6.832,27.5,6.832s21.211-2.555,27.5-6.832
			c3.66-2.492,8.629-1.539,11.113,2.113c2.488,3.652,1.539,8.629-2.113,11.113C259.528,244.719,246.223,248.219,232,248.219z"/>
	</g>
	<path style="fill:#FFD7A3;" d="M120,168c-13.255,0-24,10.745-24,24s10.745,24,24,24c0,19.378,11.651,36.855,29.538,44.308
		l51.69,21.538c2.53,1.054,5.112,1.962,7.727,2.749c-22.844-16.711-38.05-31.32-46.96-40.872c-6.482-6.95-9.995-16.121-9.995-25.625
		v-57.919c24.637,0.776,77.746,2.802,123-21.389V108H120V168z"/>
	<path style="fill:#8DB9E2;" d="M349.041,334.521l-17.232-8.616c-2.92-1.46-6.327,0.212-7.184,3.362
		c-11.09,40.761-48.352,70.736-92.626,70.736c-44.285,0-81.555-29.99-92.635-70.767c-0.852-3.134-4.242-4.797-7.146-3.345
		l-15.714,7.857c-13.41,6.705-21.552,18.121-23.304,31.262l-9.576,71.817c-1.918,14.388,9.275,27.172,23.789,27.172h249.176
		c14.515,0,25.708-12.784,23.789-27.172l-9.576-71.817C369.05,351.87,360.9,340.45,349.041,334.521z"/>
	<path style="fill:#6AA2DE;" d="M96.843,353.124c-1.813,3.734-3.087,7.708-3.645,11.887l-9.576,71.817
		C81.704,451.216,92.897,464,107.412,464H144v-32c0-10.386-3.369-20.491-9.6-28.8L96.843,353.124z"/>
	<path style="fill:#6AA2DE;" d="M367.157,353.124c1.813,3.734,3.087,7.708,3.645,11.887l9.576,71.817
		c1.918,14.388-9.275,27.172-23.79,27.172H320v-32c0-10.386,3.368-20.491,9.6-28.8L367.157,353.124z"/>
	<path style="fill:#9D6E48;" d="M117,105v31c0,0,33.371,13,90.357,8l8.214-32l8.214,32c22.589-2,32.857-8,32.857-8l8.214-16
		l8.214,24c0,0,29.435-0.333,49.286-8l8.214-16L347,160v-57c0,0-33.884-48-118.08-48C145.066,55,117,105,117,105z"/>
	<path style="fill:#8D5F3D;" d="M203.404,56.659C139.27,65.326,117,105,117,105v31c0,0,20.954,8.106,57.897,9.03
		C174.897,145.03,174.545,92.249,203.404,56.659z"/>
	<g>
		<path style="fill:#FFC84A;" d="M343.789,112c-2.645,0-5.23-1.313-6.758-3.703C320.172,81.805,277.965,64,232,64
			s-88.172,17.805-105.031,44.297c-2.367,3.719-7.32,4.813-11.043,2.453c-3.73-2.375-4.828-7.32-2.457-11.047
			C133.457,68.297,179.985,48,232,48s98.543,20.297,118.531,51.703c2.371,3.727,1.273,8.672-2.457,11.047
			C346.746,111.594,345.258,112,343.789,112z"/>
	</g>
	<path style="fill:#734A3E;" d="M347,156h-83c-6.617,0-12,5.383-12,12v0.432c-5.086-5.198-12.172-8.432-20-8.432
		s-14.914,3.234-20,8.432V168c0-6.617-5.383-12-12-12h-83c-2.209,0-4,1.791-4,4s1.791,4,4,4h23.7c-0.445,1.253-0.7,2.596-0.7,4v24
		c0,6.617,5.383,12,12,12h48c6.617,0,12-5.383,12-12v-4c0-11.027,8.973-20,20-20s20,8.973,20,20v4c0,6.617,5.383,12,12,12h48
		c6.617,0,12-5.383,12-12v-24c0-1.404-0.255-2.747-0.7-4H347c2.209,0,4-1.791,4-4S349.209,156,347,156z M204,192
		c0,2.203-1.793,4-4,4h-48c-2.207,0-4-1.797-4-4v-24c0-2.203,1.793-4,4-4h48c2.207,0,4,1.797,4,4V192z M316,168v24
		c0,2.203-1.793,4-4,4h-48c-2.207,0-4-1.797-4-4v-24c0-2.203,1.793-4,4-4h48C314.207,164,316,165.797,316,168z"/>
</g>
<g>
</g>
<g>
</g>
<g>
</g>
<g>
</g>
<g>
</g>
<g>
</g>
<g>
</g>
<g>
</g>
<g>
</g>
<g>
</g>
<g>
</g>
<g>
</g>
<g>
</g>
<g>
</g>
<g>
</g>
</svg>
