<?xml version="1.0" encoding="iso-8859-1"?>
<!-- Generator: Adobe Illustrator 19.0.0, SVG Export Plug-In . SVG Version: 6.00 Build 0)  -->
<svg version="1.1" id="Layer_1" xmlns="http://www.w3.org/2000/svg" xmlns:xlink="http://www.w3.org/1999/xlink" x="0px" y="0px"
	 viewBox="0 0 464 464" style="enable-background:new 0 0 464 464;" xml:space="preserve">
<g>
	<path style="fill:#C38762;" d="M383.388,413.991l-1.526-5.227c-0.737-2.525-3.197-4.073-5.727-3.751l-5.334-40.002
		c-1.752-13.142-9.902-24.561-21.76-30.49l-17.232-8.616c-2.567-1.284-5.51-0.145-6.766,2.29l-34.103-12.548
		c-6.534-2.178-10.94-8.292-10.94-15.179v-25.802l34.461-14.359C332.349,252.855,344,235.378,344,216v-8c13.255,0,24-10.745,24-24
		s-10.745-24-24-24v-16c0-22.092-17.909-40-40-40H160c-22.091,0-40,17.908-40,40v72c0,19.377,11.651,36.854,29.538,44.308
		L184,274.667v25.801c0,6.887-4.407,13.001-10.94,15.179l-34.101,12.547c-1.242-2.438-4.179-3.583-6.742-2.302l-15.714,7.857
		c-13.41,6.705-21.552,18.121-23.304,31.262l-5.334,40.002c-2.53-0.322-4.989,1.226-5.727,3.751l-1.526,5.227
		c-0.817,2.799,0.79,5.729,3.588,6.546l11.8,3.442V448c0,8.836,7.164,16,16,16h32h176h32c8.836,0,16-7.164,16-16v-24.021
		l11.799-3.442C382.598,419.721,384.205,416.79,383.388,413.991z"/>
	<path style="fill:#6E4439;" d="M360,48c-6.667-12.667-26.667-32-72-32v160h72C360,176,372.422,71.6,360,48z"/>
	<path style="fill:#FF6473;" d="M377.192,412.936l-6.39-47.925c-1.752-13.142-9.902-24.561-21.76-30.49l-17.232-8.616
		c-2.919-1.46-6.327,0.212-7.184,3.362c-11.09,40.761-48.352,70.736-92.627,70.736c-44.285,0-81.555-29.99-92.635-70.767
		c-0.852-3.134-4.242-4.797-7.146-3.345l-15.714,7.857c-13.41,6.705-21.552,18.121-23.304,31.262l-6.512,48.836
		C107.822,421.124,144,432,144,432v32h176v-32L377.192,412.936z"/>
	<path style="fill:#A46D4D;" d="M280,274.667l-96-21.334v47.135c0,5.759-3.186,10.831-8.017,13.659
		C243.077,325.871,280,274.667,280,274.667z"/>
	<path style="fill:#D29771;" d="M344,160v-16c0-22.092-17.909-40-40-40H160c-22.091,0-40,17.908-40,40v72
		c0,19.377,11.651,36.854,29.538,44.308l51.691,21.538c9.75,4.063,20.208,6.154,30.77,6.154l0,0c10.562,0,21.019-2.091,30.769-6.154
		l51.694-21.539C332.349,252.855,344,235.378,344,216v-8c13.255,0,24-10.745,24-24S357.255,160,344,160z"/>
	<path style="fill:#623F33;" d="M288,192L288,192c-4.4,0-8-3.6-8-8v-8c0-4.4,3.6-8,8-8l0,0c4.4,0,8,3.6,8,8v8
		C296,188.4,292.4,192,288,192z"/>
	<path style="fill:#A46D4D;" d="M232,248.219c-14.223,0-27.527-3.5-36.5-9.605c-3.652-2.484-4.602-7.461-2.113-11.113
		c2.48-3.648,7.461-4.598,11.113-2.113c6.289,4.277,16.57,6.832,27.5,6.832s21.211-2.555,27.5-6.832
		c3.66-2.492,8.629-1.539,11.113,2.113c2.488,3.652,1.539,8.629-2.113,11.113C259.528,244.719,246.223,248.219,232,248.219z"/>
	<path style="fill:#C38762;" d="M120,216L120,216c0,19.378,11.651,36.855,29.538,44.308l51.69,21.538
		c2.53,1.054,5.112,1.962,7.727,2.749c-22.844-16.711-38.05-31.32-46.96-40.872c-6.482-6.95-9.995-16.121-9.995-25.625
		C152,199.333,177.334,166,216,152c36.965-13.384,71.478-23.73,86.095-45H229C168.801,107,120,155.801,120,216z"/>
	<path style="fill:#F05467;" d="M143.802,429.556c-0.489-9.513-3.665-18.705-9.402-26.355l-37.557-50.076
		c-1.813,3.734-3.087,7.708-3.645,11.887l-6.341,47.561L143.802,429.556z"/>
	<path style="fill:#BD445A;" d="M80.612,413.991c-0.817,2.799,0.79,5.73,3.588,6.546l59.8,17.444V432
		c0-3.779-0.594-7.481-1.461-11.113l-53.856-15.71c-2.798-0.816-5.728,0.79-6.544,3.588L80.612,413.991z"/>
	<path style="fill:#F05467;" d="M320.198,429.556c0.489-9.513,3.665-18.705,9.402-26.355l37.557-50.076
		c1.813,3.734,3.087,7.708,3.645,11.887l6.341,47.561L320.198,429.556z"/>
	<path style="fill:#BD445A;" d="M383.388,413.991c0.817,2.799-0.79,5.73-3.588,6.546L320,437.981V432
		c0-3.779,0.594-7.481,1.461-11.113l53.856-15.71c2.798-0.816,5.728,0.79,6.544,3.588L383.388,413.991z"/>
	<path style="fill:#6E4439;" d="M216,0C36,0,104,288,104,288l32,8c0.764-53.489,6.711-114.039,32-136c38-33,127.576-30.288,144-64
		c12.667-26,0.167-69-8-80C304,16,292.667,0,216,0z"/>
	<path style="fill:#5E342E;" d="M176,120c67.334-32.667,104-39.334,96-112c-0.157-1.423-0.422-2.752-0.657-4.107
		C258.412,1.655,240.602,0,216,0C36,0,104,288,104,288l15.848,3.962C118.752,238.792,113.645,150.252,176,120z"/>
	<path style="fill:#BD445A;" d="M316,47.649c0,10.77-21.73,19.5-32.5,19.5s-19.5-8.73-19.5-19.5s8.73-19.5,19.5-19.5
		C294.27,28.149,316,36.88,316,47.649z"/>
	<path style="fill:#BD445A;" d="M316,47.649c0-10.77,21.73-19.5,32.5-19.5s19.5,8.73,19.5,19.5s-8.73,19.5-19.5,19.5
		S316,58.419,316,47.649z"/>
	<path style="fill:#FF6473;" d="M316,47.649c9.327,5.385,6.022,28.569,0.637,37.896S299.327,98.067,290,92.683
		c-9.327-5.385-12.522-17.311-7.138-26.638C288.248,56.718,306.674,42.264,316,47.649z"/>
	<path style="fill:#FF6473;" d="M316,47.649c-9.327-5.385-6.022-28.569-0.638-37.896C320.748,0.427,332.674-2.769,342,2.616
		c9.327,5.385,12.522,17.311,7.138,26.638C343.753,38.58,325.327,53.034,316,47.649z"/>
	<path style="fill:#F05467;" d="M316,47.649c-9.327,5.385-6.022,28.569-0.638,37.896c5.385,9.327,17.311,12.522,26.638,7.137
		s12.522-17.311,7.138-26.638C343.753,56.718,325.327,42.264,316,47.649z"/>
	<path style="fill:#F05467;" d="M316,47.649c9.327-5.385,6.022-28.569,0.637-37.896S299.327-2.769,290,2.616
		s-12.522,17.311-7.138,26.638C288.248,38.58,306.674,53.034,316,47.649z"/>
	<circle style="fill:#FFFFFF;" cx="316" cy="47.649" r="13"/>
	<path style="fill:#6E4439;" d="M232,360c-32.102,0-60.59-16.711-69.277-40.625c-1.508-4.156,0.637-8.742,4.789-10.258
		c4.172-1.469,8.742,0.641,10.25,4.789C184.196,331.625,206.5,344,232,344c25.371,0,47.648-12.297,54.172-29.906
		c1.539-4.148,6.156-6.266,10.277-4.719c4.145,1.531,6.258,6.133,4.723,10.281C292.375,343.407,263.93,360,232,360z"/>
	<circle style="fill:#FF6473;" cx="232" cy="368" r="16"/>
	<path style="fill:#F05467;" d="M224,368c0-7.447,5.111-13.65,12-15.434c-1.286-0.333-2.61-0.566-4-0.566c-8.836,0-16,7.163-16,16
		c0,8.836,7.164,16,16,16c1.39,0,2.714-0.233,4-0.566C229.111,381.65,224,375.447,224,368z"/>
	<circle style="fill:#FFA0B5;" cx="236" cy="364" r="4"/>
	<path style="fill:#623F33;" d="M176,192L176,192c-4.4,0-8-3.6-8-8v-8c0-4.4,3.6-8,8-8l0,0c4.4,0,8,3.6,8,8v8
		C184,188.4,180.4,192,176,192z"/>
</g>
<g>
</g>
<g>
</g>
<g>
</g>
<g>
</g>
<g>
</g>
<g>
</g>
<g>
</g>
<g>
</g>
<g>
</g>
<g>
</g>
<g>
</g>
<g>
</g>
<g>
</g>
<g>
</g>
<g>
</g>
</svg>
