<?xml version="1.0" encoding="iso-8859-1"?>
<!-- Generator: Adobe Illustrator 19.0.0, SVG Export Plug-In . SVG Version: 6.00 Build 0)  -->
<svg version="1.1" id="Layer_1" xmlns="http://www.w3.org/2000/svg" xmlns:xlink="http://www.w3.org/1999/xlink" x="0px" y="0px"
	 viewBox="0 0 464.674 464.674" style="enable-background:new 0 0 464.674 464.674;" xml:space="preserve">
<g>
	<path style="fill:#A63F44;" d="M312.208,288c-16.73-5.334-58.032-7.846-80-7.993l0,0c-21.968,0.147-63.27,2.659-80,7.993l80,73
		L312.208,288z"/>
	<path style="fill:#FDC88E;" d="M388.836,437.024l-10.126-81.012c-1.529-12.228-9.943-22.492-21.633-26.389l-28.943-9.648
		c0.077-0.466,1.095-7.575-7.504-13.308c-7-4.667,2.167-13.167-8.5-18.667l-26.835,24.152c-3.168-2.961-5.085-7.151-5.085-11.684
		v-25.802l34.461-14.359c17.887-7.453,29.539-24.93,29.539-44.308v-105c0-22.091-17.909-40-40-40h-144c-22.091,0-40,17.909-40,40
		v105c0,19.377,11.651,36.854,29.538,44.308l34.462,14.359v25.801c0,4.551-1.933,8.757-5.124,11.72L152.208,288
		c-10.667,5.5-1.5,14-8.5,18.667c-8.891,5.927-7.501,13.327-7.5,13.333l-28.868,9.623c-11.691,3.897-20.105,14.161-21.633,26.389
		l-10.126,81.012c-1.791,14.324,9.379,26.977,23.815,26.977h0.225h265.176h0.225C379.457,464.001,390.627,451.348,388.836,437.024z"
		/>
	<g>
		<path style="fill:#FDC88E;" d="M280.208,274.667l-96-21.334v47.135c0,5.759-3.186,10.831-8.017,13.659
			C243.285,325.871,280.208,274.667,280.208,274.667z"/>
	</g>
	<g>
		<path style="fill:#FFE1B2;" d="M314.669,260.308l-51.694,21.539c-9.75,4.062-20.207,6.154-30.769,6.154l0,0
			c-10.562,0-21.02-2.092-30.77-6.154l-51.691-21.538c-17.887-7.453-29.538-24.93-29.538-44.308v-105c0-22.091,17.909-40,40-40h144
			c22.091,0,40,17.909,40,40V216C344.208,235.378,332.557,252.855,314.669,260.308z"/>
	</g>
	<g>
		<path style="fill:#623F33;" d="M176.208,192L176.208,192c-4.4,0-8-3.6-8-8v-8c0-4.4,3.6-8,8-8l0,0c4.4,0,8,3.6,8,8v8
			C184.208,188.4,180.608,192,176.208,192z"/>
	</g>
	<g>
		<path style="fill:#623F33;" d="M288.208,192L288.208,192c-4.4,0-8-3.6-8-8v-8c0-4.4,3.6-8,8-8l0,0c4.4,0,8,3.6,8,8v8
			C296.208,188.4,292.608,192,288.208,192z"/>
	</g>
	<g>
		<g>
			<path style="fill:#E4B07B;" d="M232.208,248.219c-14.223,0-27.527-3.5-36.5-9.605c-3.652-2.484-4.602-7.461-2.113-11.113
				c2.48-3.648,7.461-4.598,11.113-2.113c6.289,4.277,16.57,6.832,27.5,6.832s21.211-2.555,27.5-6.832
				c3.66-2.492,8.629-1.539,11.113,2.113c2.488,3.652,1.539,8.629-2.113,11.113C259.735,244.719,246.431,248.219,232.208,248.219z"
				/>
		</g>
	</g>
	<path style="fill:#FFD7A3;" d="M270.208,156.001v-54l-150-1v115c0,19.378,11.651,36.855,29.538,44.308l51.69,21.538
		c2.53,1.054,5.112,1.962,7.727,2.749c-22.844-16.711-38.05-31.32-46.96-40.872c-6.482-6.95-9.995-16.121-9.995-25.625v-88.097
		C166.708,138.001,215.208,156.001,270.208,156.001z"/>
	<g>
		<path style="fill:#FF4F4F;" d="M389.078,436.226l-10.538-80.96c-1.591-12.22-10.057-22.441-21.767-26.278l-45.242-14.826
			c-3.608-1.182-7.619,0.297-9.416,3.641c-13.423,24.981-66.957,42.181-70.054,42.197s-56.803-16.639-70.48-41.482
			c-1.831-3.326-5.857-4.764-9.452-3.545l-45.089,15.285c-11.671,3.956-20.033,14.263-21.499,26.498l-9.714,81.063
			c-1.718,14.333,9.516,26.929,23.952,26.855l265.623-1.351C379.837,463.25,390.941,450.541,389.078,436.226z"/>
	</g>
	<g>
		<path style="fill:#F23F44;" d="M92.376,340.168c-3.552,4.497-5.93,9.93-6.669,15.843l-10.126,81.012
			C73.79,451.348,84.96,464,99.396,464h44.813v-52.067c0-7.697-2.774-15.135-7.813-20.953L92.376,340.168z"/>
	</g>
	<g>
		<path style="fill:#F23F44;" d="M372.04,340.168c3.552,4.497,5.93,9.93,6.669,15.843l10.126,81.012
			C390.626,451.348,379.456,464,365.02,464h-44.813v-52.067c0-7.697,2.774-15.135,7.813-20.953L372.04,340.168z"/>
	</g>
	<g>
		<path style="fill:#F23F44;" d="M320.629,306.667c-7-4.667,2.167-13.167-8.5-18.667l-79.96,71.964L152.208,288
			c-10.667,5.5-1.5,14-8.5,18.667c-8.895,5.93-7.5,13.334-7.5,13.334l95.921,47.96V368l0.04-0.02l0.04,0.02v-0.04l95.92-47.96
			C328.129,320,329.524,312.597,320.629,306.667z"/>
	</g>
	<g>
		<path style="fill:#FFC84A;" d="M232.208,408c-30.928,0-56,25.072-56,56h112C288.208,433.072,263.136,408,232.208,408z"/>
	</g>
	<path style="fill:#9D6E48;" d="M154.935,104.935c1.461,1.313,23.273,21.816,53.273,23.066v-16c0,0,20.667,26.5,72,33v-33l16,32
		l53-26.5v-36.5c0-38.66-31.34-70-70-70h-94c-38.66,0-70,31.34-70,70v60l39.724-36.068
		C154.933,104.933,154.934,104.934,154.935,104.935z"/>
	<path style="fill:#8D5F3D;" d="M178.405,11.335c-35.466,3.422-63.197,33.302-63.197,69.666v60l39.724-36.068
		c0.001,0.001,0.002,0.002,0.003,0.002c1.461,1.313,23.273,21.816,53.273,23.066C188.985,93.673,179.818,37.147,178.405,11.335z"/>
	<g>
		<path style="fill:#A63F44;" d="M104.208,208h-8c-4.418,0-8-3.582-8-8v-24c0-4.418,3.582-8,8-8h8c4.418,0,8,3.582,8,8v24
			C112.208,204.419,108.626,208,104.208,208z"/>
	</g>
	<g>
		<path style="fill:#A63F44;" d="M360.208,168h8c4.418,0,8,3.582,8,8v24c0,4.418-3.582,8-8,8h-8c-4.418,0-8-3.582-8-8v-24
			C352.208,171.582,355.79,168,360.208,168z"/>
	</g>
	<g>
		<path style="fill:#A63F44;" d="M360.208,168h-16V80c0-35.289-28.711-64-64-64h-96c-35.289,0-64,28.711-64,64v88h-16V80
			c0-44.109,35.887-80,80-80h96c44.113,0,80,35.891,80,80V168z"/>
	</g>
	<g>
		<path style="fill:#F23F44;" d="M108.208,224L108.208,224c-6.627,0-12-5.373-12-12v-48c0-6.627,5.373-12,12-12l0,0
			c6.627,0,12,5.373,12,12v48C120.208,218.628,114.835,224,108.208,224z"/>
	</g>
	<g>
		<path style="fill:#F23F44;" d="M356.208,152L356.208,152c6.627,0,12,5.373,12,12v48c0,6.627-5.373,12-12,12l0,0
			c-6.627,0-12-5.373-12-12v-48C344.208,157.373,349.581,152,356.208,152z"/>
	</g>
</g>
<g>
</g>
<g>
</g>
<g>
</g>
<g>
</g>
<g>
</g>
<g>
</g>
<g>
</g>
<g>
</g>
<g>
</g>
<g>
</g>
<g>
</g>
<g>
</g>
<g>
</g>
<g>
</g>
<g>
</g>
</svg>
