<?xml version="1.0" encoding="iso-8859-1"?>
<!-- Generator: Adobe Illustrator 19.0.0, SVG Export Plug-In . SVG Version: 6.00 Build 0)  -->
<svg version="1.1" id="Layer_1" xmlns="http://www.w3.org/2000/svg" xmlns:xlink="http://www.w3.org/1999/xlink" x="0px" y="0px"
	 viewBox="0 0 448 448" style="enable-background:new 0 0 448 448;" xml:space="preserve">
<g>
	<path style="fill:#FFD7A3;" d="M380.628,421.023l-10.126-81.012c-1.529-12.228-9.943-22.492-21.634-26.389l-43.803-14.602
		c-4.057-1.353-8.51,0.705-9.962,4.68l-12.163-4.054c-6.534-2.178-10.94-8.292-10.94-15.179v-25.802l34.461-14.358
		C324.349,236.855,336,219.378,336,200v-8c13.255,0,24-10.745,24-24c0-7.02-3.015-13.334-7.819-17.723l4.656-44.228
		C362.804,49.368,318.36,0,261.365,0H160c-17.096,0-31.68,10.729-37.404,25.819c-22.982,6.396-38.992,28.817-36.053,53.798
		l8.411,71.492C90.656,155.446,88,161.412,88,168c0,13.255,10.745,24,24,24v8c0,19.377,11.651,36.854,29.538,44.308L176,258.667
		v25.801c0,6.887-4.407,13.001-10.94,15.179l-12.163,4.054c-1.452-3.975-5.905-6.032-9.962-4.68l-43.803,14.602
		c-11.691,3.897-20.105,14.161-21.634,26.389l-10.126,81.012C65.582,435.348,76.751,448,91.187,448h0.225h265.176h0.225
		C371.249,448,382.419,435.348,380.628,421.023z"/>
	<g>
		<path style="fill:#EF8C56;" d="M136,24L136,24c-29.809,0-52.94,26.012-49.457,55.616L96,160h40l32-88L136,24z"/>
	</g>
	<path style="fill:#FDC88E;" d="M272,258h-96v26.468c0,5.693-3.017,10.852-7.752,13.701C235.173,309.73,272,258,272,258z"/>
	<g>
		<path style="fill:#FF9656;" d="M325,152.001v-64L120,40l0,0c0-22.091,17.909-40,40-40h101.364
			c56.995,0,101.439,49.368,95.473,106.05L352,152L325,152.001z"/>
	</g>
	<g>
		<path style="fill:#FFC33D;" d="M289.049,323.031C272.968,335.904,249.801,344,224,344c-25.831,0-48.987-8.141-65.076-21.037
			C165.255,338.596,187.185,375.505,224,404C260.761,375.547,282.682,338.739,289.049,323.031z"/>
	</g>
	<g>
		<path style="fill:#95B995;" d="M380.628,421.023l-10.126-81.012c-1.529-12.228-9.943-22.492-21.634-26.389l-43.803-14.602
			c-4.166-1.389-8.758,0.811-10.081,4.998C278.098,357.451,224,400,224,400s-54.098-42.549-70.984-95.982
			c-1.323-4.187-5.916-6.386-10.081-4.998l-43.803,14.602c-11.691,3.897-20.105,14.161-21.634,26.389l-10.126,81.012
			C65.582,435.348,76.751,448,91.187,448h265.626C371.249,448,382.419,435.348,380.628,421.023z"/>
	</g>
	<path style="fill:#FFE1B2;" d="M336,144v-16c0-22.091-17.909-40-40-40H152c-22.091,0-40,17.909-40,40v16c-13.255,0-24,10.746-24,24
		c0,13.255,10.745,24,24,24v8c0,19.377,11.651,36.854,29.538,44.308l51.691,21.538c9.75,4.063,20.208,6.154,30.77,6.154l0,0
		c10.562,0,21.019-2.092,30.769-6.154l51.694-21.539C324.349,236.855,336,219.378,336,200v-8c13.255,0,24-10.745,24-24
		S349.255,144,336,144z"/>
	<g>
		<path style="fill:#623F33;" d="M168,176L168,176c-4.4,0-8-3.6-8-8v-8c0-4.4,3.6-8,8-8l0,0c4.4,0,8,3.6,8,8v8
			C176,172.4,172.4,176,168,176z"/>
	</g>
	<g>
		<path style="fill:#623F33;" d="M280,176L280,176c-4.4,0-8-3.6-8-8v-8c0-4.4,3.6-8,8-8l0,0c4.4,0,8,3.6,8,8v8
			C288,172.4,284.4,176,280,176z"/>
	</g>
	<g>
		<g>
			<path style="fill:#E4B07B;" d="M224,232.219c-14.223,0-27.527-3.5-36.5-9.605c-3.652-2.484-4.602-7.461-2.113-11.113
				c2.48-3.648,7.461-4.598,11.113-2.113c6.289,4.277,16.57,6.832,27.5,6.832s21.211-2.555,27.5-6.832
				c3.66-2.492,8.629-1.539,11.113,2.113c2.488,3.652,1.539,8.629-2.113,11.113C251.528,228.719,238.223,232.219,224,232.219z"/>
		</g>
	</g>
	<g>
		<path style="fill:#80A68B;" d="M84.168,324.168c-3.552,4.497-5.93,9.93-6.669,15.843l-10.126,81.012
			C65.582,435.348,76.751,448,91.187,448H136v-52.067c0-7.697-2.774-15.135-7.813-20.953L84.168,324.168z"/>
	</g>
	<g>
		<path style="fill:#80A68B;" d="M363.832,324.168c3.552,4.497,5.93,9.93,6.669,15.843l10.126,81.012
			C382.419,435.348,371.25,448,356.813,448H312v-52.067c0-7.697,2.774-15.135,7.813-20.953L363.832,324.168z"/>
	</g>
	<path style="fill:#FFD7A3;" d="M256,138.001v-65H128l5.177,19.71C120.578,99.443,112,112.715,112,128v16c-13.255,0-24,10.745-24,24
		s10.745,24,24,24v8c0,19.378,11.651,36.855,29.538,44.308l51.69,21.538c2.53,1.054,5.112,1.962,7.727,2.749
		c-22.844-16.711-38.05-31.32-46.96-40.872c-6.482-6.95-9.995-16.121-9.995-25.625v-94.899C160,114.334,207.099,132.05,256,138.001z
		"/>
	<g>
		<path style="fill:#FF9656;" d="M200,112V96c0,0,20.667,22.667,72,32V96l16,32l48-24l0,0c0-35.346-28.654-64-64-64H120
			C120,40,126.667,102,200,112z"/>
	</g>
	<g>
		<path style="fill:#EF8C56;" d="M120,40c0,0,6.667,62,80,72c-32.667-36-40-91.334-40-112C137.909,0,120,17.909,120,40z"/>
	</g>
</g>
<g>
</g>
<g>
</g>
<g>
</g>
<g>
</g>
<g>
</g>
<g>
</g>
<g>
</g>
<g>
</g>
<g>
</g>
<g>
</g>
<g>
</g>
<g>
</g>
<g>
</g>
<g>
</g>
<g>
</g>
</svg>
