<?xml version="1.0" encoding="iso-8859-1"?>
<!-- Generator: Adobe Illustrator 19.0.0, SVG Export Plug-In . SVG Version: 6.00 Build 0)  -->
<svg version="1.1" id="Layer_1" xmlns="http://www.w3.org/2000/svg" xmlns:xlink="http://www.w3.org/1999/xlink" x="0px" y="0px"
	 viewBox="0 0 464.001 464.001" style="enable-background:new 0 0 464.001 464.001;" xml:space="preserve">
<g>
	<path style="fill:#FFD7A3;" d="M380.378,436.829l-2.984-22.384l-6.542-49.067c-1.779-13.344-10.151-24.898-22.277-30.744
		l-30.861-14.879c-3.003-1.448-6.501-0.134-7.99,2.804l-18.782-6.911c-6.534-2.178-10.94-8.292-10.94-15.179v-25.802l34.461-14.359
		C332.349,252.855,344,235.378,344,216v-8c13.255,0,24-10.745,24-24s-10.745-24-24-24v-16c0-22.092-17.909-56-40-56H160
		c-22.091,0-40,33.908-40,56v16c-13.255,0-24,10.745-24,24s10.745,24,24,24v8c0,19.377,11.651,36.854,29.538,44.308L184,274.667
		v25.801c0,6.887-4.407,13.001-10.94,15.179l-18.782,6.911c-1.489-2.938-4.987-4.251-7.99-2.804l-30.861,14.879
		c-12.126,5.847-20.498,17.4-22.277,30.744l-6.006,45.047l-3.521,26.404C81.705,451.216,92.898,464,107.413,464l0,0h249.175l0,0
		C371.103,464,382.296,451.216,380.378,436.829z"/>
	<path style="fill:#FDC88E;" d="M280,274h-96v26.469c0,5.693-3.017,10.852-7.752,13.701C243.173,325.732,280,274,280,274z"/>
	<path style="fill:#0087B1;" d="M300.167,319.041C290.551,347.491,263.697,368,232,368s-58.55-20.51-68.167-48.959l-34.764,12.889
		C143.919,374.474,184.392,405,232,405c47.686,0,88.214-30.625,103.004-73.278L300.167,319.041z"/>
	<path style="fill:#8DB9E2;" d="M380.377,436.829l-9.526-71.451c-1.779-13.344-10.151-24.897-22.277-30.744l-30.861-14.879
		c-3.107-1.498-6.75-0.046-8.143,3.109C289.335,368.69,254.667,390,232,400.003c-22.667-10.002-57.335-31.313-77.569-77.14
		c-1.393-3.155-5.036-4.606-8.143-3.109l-30.861,14.879c-12.126,5.847-20.498,17.4-22.277,30.744l-9.526,71.451
		C81.706,451.215,92.898,464,107.414,464h249.175C371.103,464.001,382.296,451.216,380.377,436.829z"/>
	<path style="fill:#00A1B4;" d="M237.106,410.864c38.651-18.172,68.226-48.756,86.091-88.465l-5.484-2.644
		c-3.107-1.498-6.75-0.046-8.143,3.109C289.335,368.69,254.667,390,232,400.003c-22.667-10.002-57.335-31.313-77.569-77.14
		c-1.393-3.155-5.036-4.606-8.143-3.109l-5.483,2.644c17.865,39.709,47.439,70.293,86.09,88.465l5.105,2.402L237.106,410.864z"/>
	<path style="fill:#00A1B4;" d="M144,429.725c0-8.895-2.965-17.536-8.426-24.558l-39.339-50.579
		c-1.497,3.403-2.582,7.011-3.086,10.79l-9.526,71.451c-1.918,14.387,9.274,27.172,23.79,27.172H144V429.725z"/>
	<path style="fill:#00A1B4;" d="M320,429.725c0-8.895,2.965-17.536,8.426-24.558l39.339-50.579c1.497,3.403,2.582,7.011,3.086,10.79
		l9.526,71.451c1.918,14.387-9.274,27.172-23.79,27.172H320V429.725z"/>
	<path style="fill:#FFC85C;" d="M351.992,200h-16c0,0-7.62,21.091-8,47.999c-0.213,15.071,3.692,31.966,8,48.001h16
		c4.308-16.036,8.213-32.931,8-48.001C359.612,221.092,351.992,200,351.992,200z"/>
	<path style="fill:#F6B45E;" d="M128,200h-16c0,0-7.62,21.091-8,47.999c-0.213,15.071,3.692,31.966,8,48.001h16
		c4.308-16.036,8.213-32.931,8-48.001C135.62,221.092,128,200,128,200z"/>
	<path style="fill:#FFE1B2;" d="M344,160v-16c0-22.092-17.909-56-40-56H160c-22.091,0-40,33.908-40,56v16c-13.255,0-24,10.745-24,24
		s10.745,24,24,24v8c0,19.377,11.651,36.854,29.538,44.308l51.691,21.538c9.75,4.063,20.208,6.154,30.77,6.154l0,0
		c10.562,0,21.019-2.091,30.769-6.154l51.694-21.539C332.349,252.855,344,235.378,344,216v-8c13.255,0,24-10.745,24-24
		S357.255,160,344,160z"/>
	<path style="fill:#623F33;" d="M176,192L176,192c-4.4,0-8-3.6-8-8v-8c0-4.4,3.6-8,8-8l0,0c4.4,0,8,3.6,8,8v8
		C184,188.4,180.4,192,176,192z"/>
	<path style="fill:#623F33;" d="M288,192L288,192c-4.4,0-8-3.6-8-8v-8c0-4.4,3.6-8,8-8l0,0c4.4,0,8,3.6,8,8v8
		C296,188.4,292.4,192,288,192z"/>
	<path style="fill:#E4B07B;" d="M232,248.219c-14.223,0-27.527-3.5-36.5-9.605c-3.652-2.484-4.602-7.461-2.113-11.113
		c2.48-3.648,7.461-4.598,11.113-2.113c6.289,4.277,16.57,6.832,27.5,6.832s21.211-2.555,27.5-6.832
		c3.66-2.492,8.629-1.539,11.113,2.113c2.488,3.652,1.539,8.629-2.113,11.113C259.528,244.719,246.223,248.219,232,248.219z"/>
	<path style="fill:#FFD7A3;" d="M243,85h-18c0,0,13.666,52.667-104.998,75H120l0,0c-13.255,0-24,10.745-24,24s10.745,24,24,24v8
		c0,19.377,11.651,36.855,29.538,44.308l51.69,21.538c2.53,1.054,5.112,1.962,7.727,2.749c-22.844-16.711-38.05-31.32-46.96-40.872
		c-6.482-6.95-9.995-16.121-9.995-25.625v-44.711C174.473,165.543,243,137.5,243,85z"/>
	<path style="fill:#00A1B4;" d="M128,312h-16c-4.418,0-8-3.582-8-8l0,0c0-4.418,3.582-8,8-8h16c4.418,0,8,3.582,8,8l0,0
		C136,308.419,132.418,312,128,312z"/>
	<path style="fill:#F6B45E;" d="M128,312c0,0,14,24-8,56c-22-32-8-56-8-56"/>
	<path style="fill:#00A1B4;" d="M335.992,312h16c4.418,0,8-3.582,8-8l0,0c0-4.418-3.582-8-8-8h-16c-4.418,0-8,3.582-8,8l0,0
		C327.992,308.419,331.574,312,335.992,312z"/>
	<path style="fill:#FFC85C;" d="M335.992,312c0,0-14,24,8,56c22-32,8-56,8-56"/>
	<path style="fill:#734A3E;" d="M344.159,151.965h-40.816c-0.027,0-0.051,0.007-0.078,0.008c-4.577-2.529-9.834-3.973-15.422-3.973
		c-14.752,0-27.199,10.038-30.885,23.64c-4.574-9.256-14.112-15.64-25.115-15.64s-20.541,6.384-25.115,15.64
		c-3.686-13.602-16.133-23.64-30.885-23.64c-5.583,0-10.835,1.441-15.409,3.965h-40.591c-2.211,0-4,1.789-4,4s1.789,4,4,4h31.074
		c-4.42,5.488-7.074,12.456-7.074,20.035c0,17.645,14.356,32,32,32c14.931,0,27.505-10.281,31.019-24.135
		c0.315,0.08,0.64,0.135,0.981,0.135c2.211,0,4-1.789,4-4c0-11.027,8.973-20,20-20s20,8.973,20,20c0,2.211,1.789,4,4,4
		c0.34,0,0.665-0.055,0.981-0.135C260.337,201.719,272.911,212,287.842,212c17.645,0,32-14.355,32-32
		c0-7.579-2.654-14.547-7.074-20.035h31.391c2.211,0,4-1.789,4-4S346.37,151.965,344.159,151.965z M175.842,204
		c-13.234,0-24-10.766-24-24s10.766-24,24-24s24,10.766,24,24S189.076,204,175.842,204z M287.842,204c-13.234,0-24-10.766-24-24
		s10.766-24,24-24s24,10.766,24,24S301.076,204,287.842,204z"/>
	<path style="fill:#FFC85C;" d="M272,0c-26,0-40,8-40,8s-14-8-40-8S67.333,50.055,104,166.055c0,0,128-22.722,128-78.055
		c0,55.333,128,78.055,128,78.055C396.667,50.055,298,0,272,0z"/>
	<path style="fill:#F6B45E;" d="M232,8.004V8c0,0-14-8-40-8S67.334,50.055,104,166.055c0,0,15.495-2.757,35.69-8.67
		C117.088,53.368,207.192,8.084,232,8.004z"/>
</g>
<g>
</g>
<g>
</g>
<g>
</g>
<g>
</g>
<g>
</g>
<g>
</g>
<g>
</g>
<g>
</g>
<g>
</g>
<g>
</g>
<g>
</g>
<g>
</g>
<g>
</g>
<g>
</g>
<g>
</g>
</svg>
