<?xml version="1.0" encoding="iso-8859-1"?>
<!-- Generator: Adobe Illustrator 19.0.0, SVG Export Plug-In . SVG Version: 6.00 Build 0)  -->
<svg version="1.1" id="Layer_1" xmlns="http://www.w3.org/2000/svg" xmlns:xlink="http://www.w3.org/1999/xlink" x="0px" y="0px"
	 viewBox="0 0 464 464" style="enable-background:new 0 0 464 464;" xml:space="preserve">
<g>
	<path style="fill:#956E55;" d="M380.378,436.829l-9.188-68.908c-1.962-14.712-11.908-27.128-25.837-32.253l-54.412-20.02
		c-6.534-2.178-10.94-8.292-10.94-15.179v-25.802l34.461-14.359C332.349,252.855,344,235.378,344,216v-8c13.255,0,24-10.745,24-24
		s-10.745-24-24-24v-16c0-22.092-17.909-56-40-56H160c-22.091,0-40,33.909-40,56v16c-13.255,0-24,10.745-24,24s10.745,24,24,24v8
		c0,19.378,11.651,36.855,29.538,44.308L184,274.667v25.801c0,6.887-4.407,13.001-10.94,15.179l-54.412,20.02
		c-13.929,5.125-23.875,17.541-25.837,32.253l-9.188,68.908C81.705,451.216,92.898,464,107.413,464h249.175
		C371.103,464,382.296,451.216,380.378,436.829z"/>
	<g>
		<path style="fill:#6E4439;" d="M320,32c0,0,23.5-32,64-32s64,30.667,64,72c0,41.967-46.667,154.667-24,224c0,0-60-20.667-80-104
			c-18.34-76.418,8-128,8-128L320,32z"/>
	</g>
	<g>
		<path style="fill:#5E342E;" d="M347,40c0,0,26.5-19,45-8c40.721,24.213,7.454,90.732,0,128c-10,50-6,98,32,136
			c0,0-60-20.667-80-104c-18.34-76.418,3-128,3-128V40z"/>
	</g>
	<g>
		<path style="fill:#BD445A;" d="M356.092,50.666L356.092,50.666c3.293-2.946,3.574-8.004,0.628-11.296l-19.461-21.75
			c-2.946-3.293-8.004-3.574-11.296-0.628l0,0c-3.293,2.946-3.574,8.004-0.628,11.296l19.461,21.75
			C347.741,53.331,352.799,53.612,356.092,50.666z"/>
	</g>
	<g>
		<path style="fill:#6E4439;" d="M144,32c0,0-23.5-32-64-32S16,30.667,16,72c0,41.967,46.667,154.667,24,224c0,0,60-20.667,80-104
			c18.34-76.418-8-128-8-128L144,32z"/>
	</g>
	<g>
		<path style="fill:#5E342E;" d="M117,40c0,0-26.5-19-45-8c-40.721,24.213-7.454,90.732,0,128c10,50,6,98-32,136
			c0,0,60-20.667,80-104c18.34-76.418-3-128-3-128V40z"/>
	</g>
	<g>
		<path style="fill:#BD445A;" d="M107.909,50.666L107.909,50.666c-3.293-2.946-3.574-8.004-0.628-11.296l19.461-21.75
			c2.946-3.293,8.004-3.574,11.296-0.628l0,0c3.293,2.946,3.574,8.004,0.628,11.296l-19.461,21.75
			C116.259,53.331,111.202,53.612,107.909,50.666z"/>
	</g>
	<g>
		<path style="fill:#7C5A49;" d="M280,274.667l-96-21.334v47.135c0,5.759-3.186,10.831-8.017,13.659
			C243.077,325.871,280,274.667,280,274.667z"/>
	</g>
	<path style="fill:#A2795C;" d="M344,160v-16c0-22.092-17.909-56-40-56H160c-22.091,0-40,33.909-40,56v16c-13.255,0-24,10.745-24,24
		s10.745,24,24,24v8c0,19.378,11.651,36.855,29.538,44.308l51.691,21.538c9.75,4.063,20.208,6.154,30.77,6.154l0,0
		c10.562,0,21.019-2.091,30.769-6.154l51.694-21.539C332.349,252.855,344,235.378,344,216v-8c13.255,0,24-10.745,24-24
		S357.255,160,344,160z"/>
	<g>
		<path style="fill:#623F33;" d="M176,192L176,192c-4.4,0-8-3.6-8-8v-8c0-4.4,3.6-8,8-8l0,0c4.4,0,8,3.6,8,8v8
			C184,188.4,180.4,192,176,192z"/>
	</g>
	<g>
		<path style="fill:#623F33;" d="M288,192L288,192c-4.4,0-8-3.6-8-8v-8c0-4.4,3.6-8,8-8l0,0c4.4,0,8,3.6,8,8v8
			C296,188.4,292.4,192,288,192z"/>
	</g>
	<g>
		<g>
			<path style="fill:#7C5A49;" d="M232,248.219c-14.223,0-27.527-3.5-36.5-9.605c-3.652-2.484-4.602-7.461-2.113-11.113
				c2.48-3.648,7.461-4.598,11.113-2.113c6.289,4.277,16.57,6.832,27.5,6.832s21.211-2.555,27.5-6.832
				c3.66-2.492,8.629-1.539,11.113,2.113c2.488,3.652,1.539,8.629-2.113,11.113C259.528,244.719,246.223,248.219,232,248.219z"/>
		</g>
	</g>
	<path style="fill:#956E55;" d="M239.943,97.356L230,84c-23.667,54-86.783,63.591-110,64.795V160c-13.255,0-24,10.745-24,24
		s10.745,24,24,24v8c0,19.378,11.651,36.855,29.538,44.308l51.69,21.538c2.53,1.054,5.112,1.962,7.727,2.749
		c-22.844-16.711-38.05-31.32-46.96-40.872c-6.482-6.95-9.995-16.121-9.995-25.625v-44.711
		C174.658,165.478,237.818,139.688,239.943,97.356z"/>
	<path style="fill:#6E4439;" d="M272,0c-26,0-40,8-40,8s-14-8-40-8S67.333,50.055,104,166.055c0,0,128-22.722,128-78.055
		c0,55.333,128,78.055,128,78.055C396.667,50.055,298,0,272,0z"/>
	<g>
		<path style="fill:#653C34;" d="M232,8.004V8c0,0-14-8-40-8S67.334,50.055,104,166.055c0,0,15.495-2.757,35.69-8.67
			C117.089,53.368,207.192,8.084,232,8.004z"/>
	</g>
	<g>
		<g>
			<path style="fill:#BD445A;" d="M137.155,379.991l-17.606-44.603c-1.159-2.935,0.282-6.254,3.217-7.412l19.14-7.555
				c2.935-1.159,6.254,0.282,7.412,3.217l17.605,44.603L137.155,379.991z"/>
		</g>
	</g>
	<g>
		<g>
			<path style="fill:#BD445A;" d="M326.846,379.991l17.605-44.603c1.159-2.935-0.282-6.254-3.217-7.412l-19.14-7.555
				c-2.935-1.159-6.254,0.282-7.412,3.217l-17.605,44.603L326.846,379.991z"/>
		</g>
	</g>
	<g>
		<path style="fill:#F05467;" d="M312,368H152c-8.837,0-16,7.163-16,16v80h192v-80C328,375.164,320.837,368,312,368z"/>
	</g>
	<polygon style="fill:#FFC84A;" points="280,384 232,408 184,384 136,408 136,424 184,400 232,424 280,400 328,424 328,408 	"/>
	<polygon style="fill:#FFA34E;" points="280,416 232,440 184,416 136,440 136,456 184,432 232,456 280,432 328,456 328,440 	"/>
</g>
<g>
</g>
<g>
</g>
<g>
</g>
<g>
</g>
<g>
</g>
<g>
</g>
<g>
</g>
<g>
</g>
<g>
</g>
<g>
</g>
<g>
</g>
<g>
</g>
<g>
</g>
<g>
</g>
<g>
</g>
</svg>
