<?xml version="1.0" encoding="iso-8859-1"?>
<!-- Generator: Adobe Illustrator 19.0.0, SVG Export Plug-In . SVG Version: 6.00 Build 0)  -->
<svg version="1.1" id="Layer_1" xmlns="http://www.w3.org/2000/svg" xmlns:xlink="http://www.w3.org/1999/xlink" x="0px" y="0px"
	 viewBox="0 0 464 464" style="enable-background:new 0 0 464 464;" xml:space="preserve">
<g>
	<path style="fill:#FFD7A3;" d="M380.378,436.829l-9.188-68.908c0-0.001,0-0.003-0.001-0.004l-0.387-2.905
		c-1.752-13.142-9.902-24.561-21.76-30.49l-38.201-19.1c-5.144-2.572-11.206-1.766-15.592,1.812l-4.308-1.585
		c-6.534-2.178-10.94-8.292-10.94-15.179v-25.802l34.461-14.359C332.349,252.855,344,235.378,344,216v-72c0-22.092-17.909-40-40-40
		H160c-22.091,0-40,17.909-40,40v72c0,19.378,11.651,36.855,29.538,44.308L184,274.667v25.801c0,6.887-4.407,13.001-10.94,15.179
		l-4.308,1.585c-4.385-3.578-10.448-4.384-15.592-1.812l-38.201,19.1c-11.858,5.929-20.008,17.349-21.76,30.49l-0.387,2.905
		c0,0.001,0,0.003-0.001,0.004l-9.188,68.908C81.705,451.216,92.898,464,107.412,464l0,0h249.175l0,0
		C371.103,464,382.296,451.216,380.378,436.829z"/>
	<g>
		<path style="fill:#FDC88E;" d="M184,274v26.468c0,5.693-3.017,10.852-7.752,13.701C243.173,325.732,280,274,280,274H184z"/>
	</g>
	<path style="fill:#FFE1B2;" d="M314.462,260.308l-51.694,21.539c-9.75,4.062-20.207,6.154-30.769,6.154l0,0
		c-10.562,0-21.02-2.092-30.77-6.154l-51.691-21.538C131.651,252.855,120,235.378,120,216v-72c0-22.091,17.909-40,40-40h144
		c22.091,0,40,17.909,40,40v72C344,235.378,332.349,252.855,314.462,260.308z"/>
	<path style="fill:#623F33;" d="M176,192L176,192c-4.4,0-8-3.6-8-8v-8c0-4.4,3.6-8,8-8l0,0c4.4,0,8,3.6,8,8v8
		C184,188.4,180.4,192,176,192z"/>
	<path style="fill:#623F33;" d="M288,192L288,192c-4.4,0-8-3.6-8-8v-8c0-4.4,3.6-8,8-8l0,0c4.4,0,8,3.6,8,8v8
		C296,188.4,292.4,192,288,192z"/>
	<g>
		<path style="fill:#E4B07B;" d="M232,248.219c-14.223,0-27.527-3.5-36.5-9.605c-3.652-2.484-4.602-7.461-2.113-11.113
			c2.48-3.648,7.461-4.598,11.113-2.113c6.289,4.277,16.57,6.832,27.5,6.832s21.211-2.555,27.5-6.832
			c3.66-2.492,8.629-1.539,11.113,2.113c2.488,3.652,1.539,8.629-2.113,11.113C259.528,244.719,246.223,248.219,232,248.219z"/>
	</g>
	<path style="fill:#FFD7A3;" d="M301.472,127H120v89c0,19.378,11.651,36.855,29.538,44.308l51.69,21.538
		c2.53,1.054,5.112,1.962,7.727,2.749c-22.844-16.711-38.05-31.32-46.96-40.872c-6.482-6.95-9.995-16.121-9.995-25.625v-57.617
		C224,160.481,277.396,159.263,301.472,127z"/>
	<g>
		<path style="fill:#FFC85C;" d="M325.257,270.564C349.18,263.62,374.77,254.584,384,248c-3.521-48.608-8.837-94.149-16.215-130.726
			C353.4,45.96,297.633,0,232,0S110.6,45.96,96.215,117.274C88.837,153.851,83.521,199.392,80,248
			c9.288,6.626,35.077,15.778,59.196,22.688c1.785-53.46,3.837-103.144,4.804-126.688c49.5-7.5,56.5,12,112,0l8-16l8,8h32l16-24
			C320,112,322.942,188.874,325.257,270.564z"/>
	</g>
	<path style="fill:#F6B45E;" d="M96.215,117.274C88.837,153.851,83.521,199.392,80,248c9.288,6.626,35.077,15.778,59.196,22.688
		c1.785-53.46,3.837-103.144,4.804-126.688c13.205-2.001,23.345-2.055,32.229-1.324C178.965,79.792,208.193,0,232,0
		C166.368,0,110.601,45.96,96.215,117.274z"/>
	<path style="fill:#FF6473;" d="M380.377,436.828l-9.576-71.817c-1.752-13.142-9.902-24.561-21.76-30.49l-38.201-19.1
		c-5.599-2.799-12.292-1.607-16.719,2.818C278.211,334.141,256.273,344,232,344s-46.211-9.86-62.121-25.762
		c-4.427-4.425-11.12-5.618-16.719-2.818l-38.201,19.1c-11.858,5.929-20.008,17.349-21.76,30.49l-9.576,71.817
		c-1.918,14.388,9.275,27.172,23.79,27.172h249.175C371.103,464.001,382.296,451.216,380.377,436.828z"/>
	<path style="fill:#F05467;" d="M98.143,350.49c-2.525,4.423-4.251,9.328-4.944,14.521l-9.576,71.817
		C81.705,451.216,92.898,464,107.413,464H144v-32.869c0-9.848-3.029-19.458-8.677-27.526L98.143,350.49z"/>
	<path style="fill:#F05467;" d="M365.858,350.49c2.525,4.423,4.251,9.328,4.944,14.521l9.576,71.817
		c1.918,14.388-9.275,27.172-23.79,27.172H320v-32.869c0-9.848,3.029-19.458,8.677-27.526L365.858,350.49z"/>
	<path style="fill:#F05467;" d="M232,360c34.276,0,64.586-16.655,83.532-42.234l-4.692-2.346
		c-5.599-2.799-12.292-1.607-16.719,2.818C278.211,334.141,256.273,344,232,344s-46.211-9.86-62.121-25.762
		c-4.428-4.425-11.121-5.618-16.719-2.818l-4.692,2.346C167.414,343.346,197.724,360,232,360z"/>
</g>
<g>
</g>
<g>
</g>
<g>
</g>
<g>
</g>
<g>
</g>
<g>
</g>
<g>
</g>
<g>
</g>
<g>
</g>
<g>
</g>
<g>
</g>
<g>
</g>
<g>
</g>
<g>
</g>
<g>
</g>
</svg>
