<?xml version="1.0" encoding="iso-8859-1"?>
<!-- Generator: Adobe Illustrator 19.0.0, SVG Export Plug-In . SVG Version: 6.00 Build 0)  -->
<svg version="1.1" id="Layer_1" xmlns="http://www.w3.org/2000/svg" xmlns:xlink="http://www.w3.org/1999/xlink" x="0px" y="0px"
	 viewBox="0 0 464 464" style="enable-background:new 0 0 464 464;" xml:space="preserve">
<g>
	<g>
		<path style="fill:#5E342E;" d="M232,256h-86.633c-7.551,26.392-19.396,55.126-23.715,79.353L232,320V256L232,256z"/>
		<path style="fill:#6E4439;" d="M318.634,256h-86.633H232v64l110.349,15.353C338.029,311.126,326.185,282.392,318.634,256z"/>
	</g>
	<path style="fill:#C38762;" d="M383.388,413.991l-1.526-5.227c-0.737-2.525-3.197-4.073-5.727-3.751l-5.334-40.002
		c-1.752-13.142-9.902-24.561-21.76-30.49l-17.232-8.616c-2.567-1.284-5.51-0.145-6.766,2.29l-34.103-12.548
		c-6.534-2.178-10.94-8.292-10.94-15.179v-25.802l34.461-14.359C332.349,252.855,344,235.378,344,216v-8c13.255,0,24-10.745,24-24
		c0-7.158-3.138-13.58-8.108-17.978c0.106,0.02,0.179,0.033,0.179,0.033c36.667-116-62-166.055-88-166.055s-40,8-40,8s-14-8-40-8
		s-124.667,50.055-88,166.055C99.122,170.451,96,176.86,96,184c0,13.255,10.745,24,24,24v8c0,19.377,11.651,36.854,29.538,44.308
		L184,274.667v25.801c0,6.887-4.407,13.001-10.94,15.179l-34.101,12.547c-1.242-2.438-4.179-3.583-6.742-2.302l-15.714,7.857
		c-13.41,6.705-21.552,18.121-23.304,31.262l-5.334,40.002c-2.53-0.322-4.989,1.226-5.727,3.751l-1.526,5.227
		c-0.817,2.799,0.79,5.73,3.588,6.546l11.8,3.442V448c0,8.836,7.164,16,16,16h32h176h32c8.836,0,16-7.164,16-16v-24.021
		l11.799-3.442C382.598,419.721,384.205,416.79,383.388,413.991z"/>
	<path style="fill:#A46D4D;" d="M280,274h-96v26.468c0,5.693-3.017,10.852-7.752,13.701C243.173,325.73,280,274,280,274z"/>
	<g>
		<path style="fill:#FFA64E;" d="M377.192,412.936l-6.39-47.925c-1.752-13.142-9.902-24.561-21.76-30.49l-17.232-8.616
			c-2.919-1.46-6.327,0.212-7.184,3.362c-11.09,40.761-48.352,70.736-92.627,70.736c-44.285,0-81.555-29.99-92.635-70.767
			c-0.852-3.134-4.242-4.797-7.146-3.345l-15.714,7.857c-13.41,6.705-21.552,18.121-23.304,31.262l-6.512,48.836
			C107.822,421.124,144,432,144,432v32h176v-32L377.192,412.936z"/>
	</g>
	<path style="fill:#D29771;" d="M344,160v-16c0-22.091-17.909-40-40-40H160c-22.091,0-40,17.909-40,40v16c-13.255,0-24,10.745-24,24
		s10.745,24,24,24v8c0,19.377,11.651,36.854,29.538,44.308l51.691,21.538c9.75,4.063,20.208,6.154,30.77,6.154l0,0
		c10.562,0,21.019-2.092,30.769-6.154l51.694-21.539C332.349,252.855,344,235.378,344,216v-8c13.255,0,24-10.745,24-24
		S357.255,160,344,160z"/>
	<g>
		<path style="fill:#623F33;" d="M176,192L176,192c-4.4,0-8-3.6-8-8v-8c0-4.4,3.6-8,8-8l0,0c4.4,0,8,3.6,8,8v8
			C184,188.4,180.4,192,176,192z"/>
	</g>
	<g>
		<path style="fill:#623F33;" d="M288,192L288,192c-4.4,0-8-3.6-8-8v-8c0-4.4,3.6-8,8-8l0,0c4.4,0,8,3.6,8,8v8
			C296,188.4,292.4,192,288,192z"/>
	</g>
	<g>
		<g>
			<path style="fill:#A46D4D;" d="M232,248.219c-14.223,0-27.527-3.5-36.5-9.605c-3.652-2.484-4.602-7.461-2.113-11.113
				c2.48-3.648,7.461-4.598,11.113-2.113c6.289,4.277,16.57,6.832,27.5,6.832s21.211-2.555,27.5-6.832
				c3.66-2.492,8.629-1.539,11.113,2.113c2.488,3.652,1.539,8.629-2.113,11.113C259.528,244.719,246.223,248.219,232,248.219z"/>
		</g>
	</g>
	<g>
		<path style="fill:#FF8C51;" d="M143.802,429.556c-0.489-9.513-3.665-18.705-9.402-26.355l-37.557-50.076
			c-1.813,3.734-3.087,7.708-3.645,11.887l-6.341,47.561L143.802,429.556z"/>
	</g>
	<g>
		<path style="fill:#F77447;" d="M80.612,413.991c-0.817,2.799,0.79,5.73,3.588,6.546l59.8,17.444V432
			c0-3.779-0.594-7.481-1.461-11.113l-53.856-15.71c-2.798-0.816-5.728,0.79-6.544,3.588L80.612,413.991z"/>
	</g>
	<g>
		<path style="fill:#FF8C51;" d="M320.198,429.556c0.489-9.513,3.665-18.705,9.402-26.355l37.557-50.076
			c1.813,3.734,3.087,7.708,3.645,11.887l6.341,47.561L320.198,429.556z"/>
	</g>
	<g>
		<path style="fill:#F77447;" d="M383.388,413.991c0.817,2.799-0.79,5.73-3.588,6.546L320,437.981V432
			c0-3.779,0.594-7.481,1.461-11.113l53.856-15.71c2.798-0.816,5.728,0.79,6.544,3.588L383.388,413.991z"/>
	</g>
	<path style="fill:#C38762;" d="M230,85c-7,53-110,75-110,75c-13.255,0-24,10.745-24,24s10.745,24,24,24v8
		c0,19.378,11.651,36.855,29.538,44.308l51.69,21.538c2.53,1.054,5.112,1.962,7.727,2.749c-22.844-16.711-38.05-31.32-46.96-40.872
		c-6.482-6.95-9.995-16.121-9.995-25.625v-44.686C174.838,165.448,238.25,134,240.071,96C240.072,95.991,230,85,230,85z"/>
	<path style="fill:#6E4439;" d="M272.071,0c-26,0-40,8-40,8s-14-8-40-8s-124.667,50.055-88,166.055c0,0,128-22.722,128-78.055
		c0,55.333,128,78.055,128,78.055C396.738,50.055,298.071,0,272.071,0z"/>
	<g>
		<path style="fill:#5E342E;" d="M232.071,8.004V8c0,0-14-8-40-8s-124.667,50.055-88,166.055c0,0,15.495-2.757,35.69-8.67
			C117.16,53.368,207.263,8.084,232.071,8.004z"/>
	</g>
</g>
<g>
</g>
<g>
</g>
<g>
</g>
<g>
</g>
<g>
</g>
<g>
</g>
<g>
</g>
<g>
</g>
<g>
</g>
<g>
</g>
<g>
</g>
<g>
</g>
<g>
</g>
<g>
</g>
<g>
</g>
</svg>
