<?xml version="1.0" encoding="iso-8859-1"?>
<!-- Generator: Adobe Illustrator 19.0.0, SVG Export Plug-In . SVG Version: 6.00 Build 0)  -->
<svg version="1.1" id="Layer_1" xmlns="http://www.w3.org/2000/svg" xmlns:xlink="http://www.w3.org/1999/xlink" x="0px" y="0px"
	 viewBox="0 0 464.001 464.001" style="enable-background:new 0 0 464.001 464.001;" xml:space="preserve">
<g>
	<path style="fill:#FFD7A3;" d="M388.378,436.829l-9.736-73.019c-1.616-12.121-9.999-22.262-21.6-26.129l-66.101-22.034
		c-6.533-2.178-10.94-8.292-10.94-15.179v-25.802l34.461-14.359C332.349,252.855,344,235.378,344,216v-8c13.255,0,24-10.745,24-24
		s-10.745-24-24-24v-16c0-22.092-17.909-40-40-40H160c-22.091,0-40,17.909-40,40v16c-13.255,0-24,10.745-24,24s10.745,24,24,24v8
		c0,19.378,11.651,36.855,29.538,44.308L184,274.667v25.801c0,6.887-4.407,13.001-10.94,15.179l-66.101,22.034
		c-11.601,3.867-19.984,14.007-21.6,26.129l-9.736,73.019C73.705,451.216,84.898,464,99.412,464h265.176
		C379.103,464,390.296,451.216,388.378,436.829z"/>
	<path style="fill:#FDC88E;" d="M280,274.667l-96,0.001v25.801c0,5.693-3.017,10.852-7.752,13.701
		C243.173,325.732,280,274.667,280,274.667z"/>
	<path style="fill:#FFE1B2;" d="M344,160v-16c0-22.092-17.909-40-40-40H160c-22.091,0-40,17.909-40,40v16c-13.255,0-24,10.745-24,24
		s10.745,24,24,24v8c0,19.378,11.651,36.855,29.538,44.308l51.691,21.538c9.75,4.063,20.208,6.154,30.77,6.154l0,0
		c10.562,0,21.019-2.091,30.769-6.154l51.694-21.539C332.349,252.855,344,235.378,344,216v-8c13.255,0,24-10.745,24-24
		S357.255,160,344,160z"/>
	<g>
		<path style="fill:#623F33;" d="M176,192L176,192c-4.4,0-8-3.6-8-8v-8c0-4.4,3.6-8,8-8l0,0c4.4,0,8,3.6,8,8v8
			C184,188.4,180.4,192,176,192z"/>
	</g>
	<g>
		<path style="fill:#623F33;" d="M288,192L288,192c-4.4,0-8-3.6-8-8v-8c0-4.4,3.6-8,8-8l0,0c4.4,0,8,3.6,8,8v8
			C296,188.4,292.4,192,288,192z"/>
	</g>
	<g>
		<g>
			<path style="fill:#E4B07B;" d="M232,248.219c-14.223,0-27.527-3.5-36.5-9.605c-3.652-2.484-4.602-7.461-2.113-11.113
				c2.48-3.648,7.461-4.598,11.113-2.113c6.289,4.277,16.57,6.832,27.5,6.832s21.211-2.555,27.5-6.832
				c3.66-2.492,8.629-1.539,11.113,2.113c2.488,3.652,1.539,8.629-2.113,11.113C259.528,244.719,246.223,248.219,232,248.219z"/>
		</g>
	</g>
	<path style="fill:#FFD7A3;" d="M161.996,243.723c-6.482-6.95-9.995-16.121-9.995-25.625V104.806c-18.257,3.707-32,19.843-32,39.194
		v16c-13.255,0-24,10.745-24,24s10.745,24,24,24v8c0,19.378,11.651,36.855,29.538,44.308l51.69,21.538
		c2.53,1.054,5.112,1.962,7.727,2.749C186.111,267.883,170.905,253.275,161.996,243.723z"/>
	<path style="fill:#FDB685;" d="M304.184,72h-144c-22.091,0-40,17.909-40,40v48h8c8.837,0,16-7.164,16-16v-16
		c0-8.837,7.163-16,16-16h144c8.837,0,16,7.163,16,16v16c0,8.836,7.163,16,16,16h8v-48C344.184,89.909,326.275,72,304.184,72z"/>
	<g>
		<path style="fill:#FF9656;" d="M288.184,112h-120c-13.255,0-24-10.745-24-24v-9.592c0-29.989,23.596-54.615,53.556-55.944
			C250.287,20.134,325.217,14.331,344.184,0C344.184,0,382.851,112,288.184,112z"/>
	</g>
	<g>
		<path style="fill:#EF8C56;" d="M215,77.682C287.352,66.065,344.184,14.181,344.184,0c-18.967,14.331-93.897,20.134-146.444,22.464
			c-29.96,1.329-53.556,25.954-53.556,55.943V88c0,13.255,10.745,24,24,24h17.964C186.148,95.069,198.283,80.366,215,77.682z"/>
	</g>
	<g>
		<path style="fill:#8D5F3D;" d="M302.336,319.213l-11.546,50.031C284.474,396.613,260.103,416,232.015,416h-0.029
			c-28.088,0-52.459-19.387-58.775-46.757l-11.546-50.031c-0.914-3.962-4.901-6.404-8.846-5.417l-18.991,4.748
			c-3.383,0.846-5.688,3.974-5.495,7.455L136,464.001h192l7.667-138.002c0.193-3.481-2.112-6.61-5.495-7.455l-18.991-4.748
			C307.237,312.809,303.25,315.251,302.336,319.213z"/>
	</g>
</g>
<g>
</g>
<g>
</g>
<g>
</g>
<g>
</g>
<g>
</g>
<g>
</g>
<g>
</g>
<g>
</g>
<g>
</g>
<g>
</g>
<g>
</g>
<g>
</g>
<g>
</g>
<g>
</g>
<g>
</g>
</svg>
