<?xml version="1.0" encoding="iso-8859-1"?>
<!-- Generator: Adobe Illustrator 19.0.0, SVG Export Plug-In . SVG Version: 6.00 Build 0)  -->
<svg version="1.1" id="Layer_1" xmlns="http://www.w3.org/2000/svg" xmlns:xlink="http://www.w3.org/1999/xlink" x="0px" y="0px"
	 viewBox="0 0 464.003 464.003" style="enable-background:new 0 0 464.003 464.003;" xml:space="preserve">
<g>
	<path style="fill:#F6B47B;" d="M380.378,436.83l-9.576-71.817c-1.752-13.142-9.902-24.561-21.761-30.491l-17.232-8.616
		c-2.568-1.284-5.513-0.144-6.768,2.293l-34.101-12.547c-6.533-2.178-10.94-8.292-10.94-15.179v-25.802l34.461-14.359
		c17.887-7.453,29.539-24.93,29.539-44.308v-72c0-22.091-17.909-56-40-56H160c-22.092,0-40,33.909-40,56v72
		c0,19.378,11.651,36.855,29.538,44.308L184,274.671v25.801c0,6.887-4.407,13.001-10.94,15.179l-34.099,12.546
		c-1.241-2.441-4.18-3.587-6.743-2.306l-15.714,7.857c-13.41,6.705-21.552,18.121-23.304,31.262l-9.576,71.817
		c-0.12,0.9-0.189,1.794-0.208,2.68c-0.298,13.26,10.39,24.496,23.998,24.496h249.175c13.608,0,24.296-11.236,23.998-24.496
		C380.567,438.624,380.498,437.73,380.378,436.83z"/>
	<path style="fill:#E2A071;" d="M280.001,274.672v-0.666l-96,0.667v25.801c0,5.693-3.017,10.852-7.752,13.701
		C243.172,325.737,279.999,274.675,280.001,274.672z"/>
	<path style="fill:#FDC88E;" d="M314.463,260.313l-51.694,21.538c-9.749,4.062-20.207,6.154-30.769,6.154l0,0
		c-10.562,0-21.02-2.092-30.77-6.154l-51.691-21.538c-17.887-7.453-29.538-24.93-29.538-44.308v-72c0-22.091,17.909-56,40-56h144
		c22.091,0,40,33.909,40,56v72C344.001,235.383,332.35,252.86,314.463,260.313z"/>
	<path style="fill:#623F33;" d="M176.001,192.005L176.001,192.005c-4.4,0-8-3.6-8-8v-8c0-4.4,3.6-8,8-8l0,0c4.4,0,8,3.6,8,8v8
		C184.001,188.405,180.401,192.005,176.001,192.005z"/>
	<path style="fill:#623F33;" d="M288.001,192.005L288.001,192.005c-4.4,0-8-3.6-8-8v-8c0-4.4,3.6-8,8-8l0,0c4.4,0,8,3.6,8,8v8
		C296.001,188.405,292.401,192.005,288.001,192.005z"/>
	<path style="fill:#E2A071;" d="M232.001,248.224c-14.223,0-27.527-3.5-36.5-9.605c-3.652-2.484-4.602-7.461-2.113-11.113
		c2.48-3.648,7.461-4.598,11.113-2.113c6.289,4.277,16.57,6.832,27.5,6.832c10.93,0,21.211-2.555,27.5-6.832
		c3.66-2.492,8.629-1.539,11.113,2.113c2.488,3.652,1.539,8.629-2.113,11.113C259.529,244.724,246.224,248.224,232.001,248.224z"/>
	<path style="fill:#F6B47B;" d="M161.996,243.727c-6.482-6.95-9.995-16.121-9.995-25.625v-50.101c0,0,62.333-5.329,119-27.996
		l-31-46c0,0-81.524,40.163-120,55.3v66.7c0,19.378,11.651,36.855,29.538,44.308l51.69,21.538c2.53,1.054,5.112,1.962,7.727,2.749
		C186.112,267.888,170.906,253.279,161.996,243.727z"/>
	<path style="fill:#6E4439;" d="M376.001,113.315c-36-83.314-78.367-113.314-144-113.314s-108,30-144,113.314
		c-30.282,70.08-32,166.686-32,166.686c52.667,19.333,112,16,112,16c-19.334-44.667-26.544-98.291-24.645-144.569
		c24.022,0,45.532-0.981,64.648-2.449c5.533-0.425,23.997-44.983,23.997-44.983l0.004,42.789
		c20.496-0.288,35.496-0.788,47.996-2.788l16-32l8,24c7.75,0,16,0,16,0c1.899,46.278-4.667,115.333-24,160c0,0,59.334,3.333,112-16
		C408.001,280.001,406.283,183.395,376.001,113.315z"/>
	<path style="fill:#5E342E;" d="M88.001,113.315c-30.282,70.08-32,166.686-32,166.686c52.667,19.333,112,16,112,16
		c-19.334-44.667-26.544-98.291-24.645-144.569c14.495,0,27.964-0.388,40.655-0.994c0.204-22.873,5.03-126.354,47.99-150.438
		C166.369,0.001,124.001,30.001,88.001,113.315z"/>
	<path style="fill:#FF6473;" d="M349.042,334.522l-17.232-8.616c-2.92-1.46-6.327,0.212-7.184,3.362
		c-11.09,40.761-48.352,70.736-92.626,70.736c-44.285,0-81.555-29.99-92.635-70.767c-0.852-3.134-4.242-4.797-7.146-3.345
		l-15.714,7.857c-13.41,6.705-21.552,18.121-23.304,31.262l-9.576,71.817C81.707,451.216,92.9,464,107.414,464h249.175
		c14.515,0,25.708-12.784,23.789-27.172l-9.576-71.817C369.051,351.871,360.901,340.451,349.042,334.522z"/>
	<path style="fill:#CA64B3;" d="M96.844,353.125c-1.813,3.734-3.087,7.708-3.645,11.887l-9.576,71.817
		c-1.918,14.388,9.275,27.172,23.79,27.172H144v-32c0-10.386-3.369-20.491-9.6-28.8L96.844,353.125z"/>
	<path style="fill:#CA64B3;" d="M367.158,353.125c1.813,3.734,3.087,7.708,3.645,11.887l9.576,71.817
		c1.918,14.388-9.275,27.172-23.79,27.172h-36.587v-32c0-10.386,3.369-20.491,9.6-28.8L367.158,353.125z"/>
	<path style="fill:#CA64B3;" d="M232.001,416.001c52.755,0,96.872-36.521,108.747-85.627l-8.938-4.469
		c-2.919-1.46-6.327,0.212-7.184,3.362c-11.09,40.761-48.352,70.736-92.627,70.736c-44.285,0-81.555-29.99-92.635-70.767
		c-0.852-3.134-4.242-4.797-7.146-3.345l-8.964,4.482C135.129,379.481,179.246,416.001,232.001,416.001z"/>
	<circle style="fill:#FFC84A;" cx="176.008" cy="431.994" r="15.993"/>
	<path style="fill:#FFAC4D;" d="M170.678,431.994c0-6.953,4.464-12.81,10.662-15.013c-1.675-0.595-3.452-0.979-5.331-0.979
		c-8.833,0-15.993,7.16-15.993,15.993s7.16,15.993,15.993,15.993c1.879,0,3.656-0.384,5.331-0.979
		C175.142,444.804,170.678,438.947,170.678,431.994z"/>
	<circle style="fill:#9BCE7A;" cx="215.994" cy="440.001" r="15.993"/>
	<path style="fill:#8ABE69;" d="M210.663,440.001c0-6.953,4.464-12.81,10.662-15.013c-1.675-0.595-3.452-0.979-5.331-0.979
		c-8.833,0-15.993,7.16-15.993,15.993s7.16,15.993,15.993,15.993c1.879,0,3.656-0.384,5.331-0.979
		C215.128,452.812,210.663,446.955,210.663,440.001z"/>
</g>
<g>
</g>
<g>
</g>
<g>
</g>
<g>
</g>
<g>
</g>
<g>
</g>
<g>
</g>
<g>
</g>
<g>
</g>
<g>
</g>
<g>
</g>
<g>
</g>
<g>
</g>
<g>
</g>
<g>
</g>
</svg>
