<?xml version="1.0" encoding="iso-8859-1"?>
<!-- Generator: Adobe Illustrator 19.0.0, SVG Export Plug-In . SVG Version: 6.00 Build 0)  -->
<svg version="1.1"  xmlns="http://www.w3.org/2000/svg" xmlns:xlink="http://www.w3.org/1999/xlink" x="0px" y="0px"
	 viewBox="0 0 464.002 464.002" style="enable-background:new 0 0 464.002 464.002;" xml:space="preserve">
<g>
	<path style="fill:#FDC88E;" d="M391.864,422.878l-0.726-6.536c-0.287-2.586-2.616-4.449-5.202-4.162l-0.407,0.045l-7.027-56.214
		c-1.529-12.228-9.943-22.492-21.634-26.389l-39.047-13.016c-5.362-1.788-11.244-0.649-15.379,2.874l-11.502-3.834
		c-6.534-2.178-10.94-8.292-10.94-15.179v-25.802l34.461-14.359c17.889-7.451,29.54-24.928,29.54-44.306v-8
		c13.255,0,24-10.745,24-24s-10.745-24-24-24v-16c0-22.091-17.909-40-40-40h-144c-22.091,0-40,17.909-40,40v16
		c-13.255,0-24,10.745-24,24s10.745,24,24,24v8c0,19.377,11.651,36.854,29.538,44.308l34.462,14.36v25.801
		c0,6.887-4.407,13.001-10.94,15.179l-11.502,3.834c-4.135-3.523-10.017-4.662-15.379-2.874l-39.047,13.016
		c-11.691,3.897-20.105,14.161-21.634,26.389l-7.027,56.214l-0.407-0.045c-2.586-0.287-4.914,1.576-5.202,4.162l-0.726,6.536
		c-0.287,2.585,1.576,4.914,4.161,5.201l11.702,1.3v18.621c0,8.837,7.163,16,16,16h40h176h40c8.837,0,16-7.163,16-16v-18.621
		l11.702-1.3C390.288,427.792,392.152,425.463,391.864,422.878z"/>
	<g>
		<path style="fill:#F5B97A;" d="M280.001,274.667l-96-21.334v47.135c0,5.759-3.186,10.831-8.017,13.659
			C243.078,325.871,280.001,274.667,280.001,274.667z"/>
	</g>
	<path style="fill:#FFD7A3;" d="M344.001,160v-16c0-22.091-17.909-40-40-40h-144c-22.091,0-40,17.909-40,40v16
		c-13.255,0-24,10.745-24,24s10.745,24,24,24v8c0,19.377,11.651,36.854,29.538,44.308l51.691,21.538
		C210.98,285.909,221.438,288,232,288l0,0c10.562,0,21.019-2.091,30.769-6.154l51.694-21.539
		c17.887-7.452,29.538-24.929,29.538-44.307v-8c13.255,0,24-10.745,24-24S357.256,160,344.001,160z"/>
	<g>
		<path style="fill:#623F33;" d="M176.001,192L176.001,192c-4.4,0-8-3.6-8-8v-8c0-4.4,3.6-8,8-8l0,0c4.4,0,8,3.6,8,8v8
			C184.001,188.4,180.401,192,176.001,192z"/>
	</g>
	<g>
		<path style="fill:#623F33;" d="M288.001,192L288.001,192c-4.4,0-8-3.6-8-8v-8c0-4.4,3.6-8,8-8l0,0c4.4,0,8,3.6,8,8v8
			C296.001,188.4,292.401,192,288.001,192z"/>
	</g>
	<g>
		<g>
			<path style="fill:#E4B07B;" d="M232.001,248.219c-14.223,0-27.527-3.5-36.5-9.605c-3.652-2.484-4.602-7.461-2.113-11.113
				c2.48-3.648,7.461-4.598,11.113-2.113c6.289,4.277,16.57,6.832,27.5,6.832s21.211-2.555,27.5-6.832
				c3.66-2.492,8.629-1.539,11.113,2.113c2.488,3.652,1.539,8.629-2.113,11.113C259.529,244.719,246.224,248.219,232.001,248.219z"
				/>
		</g>
	</g>
	<path style="fill:#FDC88E;" d="M161.997,243.723c-6.482-6.95-9.995-16.121-9.995-25.625v-70.607
		C174.081,135.549,238.601,104,304.001,104h-144c-2.754,0-5.421,0.321-8,0.881v-0.075c-18.257,3.707-32,19.843-32,39.194v16
		c-13.255,0-24,10.745-24,24s10.745,24,24,24v8c0,19.378,11.651,36.855,29.538,44.308l51.69,21.538
		c2.53,1.054,5.112,1.962,7.727,2.749C186.112,267.883,170.906,253.275,161.997,243.723z"/>
	<g>
		<path style="fill:#8DB9E2;" d="M368.001,40c0,0-2.863-2.102-8.21-5.26C358.342,16.289,352.001,8,352.001,8l-29.199,9.733
			C297.359,8.546,261.587,0,216.001,0c0,0-5.25,5.5-16,8c0,0-27.25-6-56-8l-16,40c0,0-40-0.333-40,48
			c0,17.761,9.921,62.104,14.13,80.12c4.396-4.944,10.734-8.12,17.87-8.12v-16c0-21.893,17.604-39.625,39.421-39.942
			C153.28,117.382,152.001,128,152.001,128c20-13.334,46-24,80-24h72c22.091,0,40,17.909,40,40v16
			c7.708,0,14.491,3.698,18.882,9.346C369.818,151.89,385.67,101.572,368.001,40z"/>
	</g>
	<g>
		<path style="fill:#6AA2DE;" d="M352.001,8l-29.199,9.733C297.359,8.546,261.587,0,216.001,0c0,0-5.25,5.5-16,8c0,0-27.25-6-56-8
			l-16,40c0,0-40-0.333-40,48c0,17.761,9.921,62.104,14.13,80.12c4.396-4.944,10.734-8.12,17.87-8.12v-16
			c0-20.881,16.059-37.829,36.468-39.644c-2.145,5.966-4.468,14.467-4.468,23.644c31.5-40,76.242-54.431,112-64
			c35.5-9.5,40-24,40-24S339.001,38,352.001,8z"/>
	</g>
	<g>
		<path style="fill:#9BCE7A;" d="M320.001,464.001v-40h67l-8.499-67.989c-1.529-12.228-9.943-22.492-21.634-26.389l-39.047-13.016
			c-6.8-2.267-14.45,0.154-18.291,6.206C285.35,345.157,260.425,360,232.001,360s-53.349-14.844-67.53-37.188
			c-3.841-6.052-11.491-8.473-18.291-6.206l-39.047,13.016c-11.691,3.897-20.105,14.161-21.634,26.389l-7.609,60.872L144.001,424v40
			h176V464.001z"/>
	</g>
	<g>
		<path style="fill:#8ABE69;" d="M144.001,430.04v-18.106c0-7.697-2.774-15.135-7.813-20.953l-44.019-50.813
			c-3.552,4.497-5.93,9.93-6.669,15.843l-8.356,66.847C89.868,423.622,123.712,427.587,144.001,430.04z"/>
	</g>
	<g>
		<path style="fill:#76AB5F;" d="M144.001,419.507l-65.936-7.326c-2.586-0.287-4.914,1.576-5.202,4.161l-0.726,6.536
			c-0.287,2.585,1.576,4.914,4.161,5.201l67.703,7.523V419.507z"/>
	</g>
	<g>
		<path style="fill:#8ABE69;" d="M320.001,430.04v-18.106c0-7.697,2.774-15.135,7.813-20.953l44.019-50.813
			c3.552,4.497,5.93,9.93,6.669,15.843l8.356,66.847C374.135,423.622,340.29,427.587,320.001,430.04z"/>
	</g>
	<g>
		<path style="fill:#76AB5F;" d="M320.001,419.507l65.936-7.326c2.586-0.287,4.914,1.576,5.202,4.161l0.726,6.536
			c0.287,2.585-1.576,4.914-4.161,5.201l-67.703,7.523V419.507z"/>
	</g>
	<g>
		<path style="fill:#8ABE69;" d="M317.822,316.607c-6.8-2.267-14.45,0.154-18.291,6.206C285.35,345.157,260.425,360,232.001,360
			s-53.349-14.844-67.53-37.188c-3.841-6.052-11.491-8.473-18.291-6.206l-2.586,0.862C158.192,351.87,192.277,376,232.001,376
			s73.81-24.131,88.407-58.531L317.822,316.607z"/>
	</g>
	<g>
		<circle style="fill:#82B8AD;" cx="232.001" cy="440" r="8"/>
	</g>
	<g>
		<circle style="fill:#82B8AD;" cx="168.001" cy="440" r="8"/>
	</g>
	<g>
		<circle style="fill:#82B8AD;" cx="296.001" cy="440" r="8"/>
	</g>
	<g>
		<circle style="fill:#6AA2DE;" cx="264.001" cy="440" r="8"/>
	</g>
	<g>
		<circle style="fill:#6AA2DE;" cx="200.001" cy="440" r="8"/>
	</g>
	<g>
		<circle style="fill:#6AA2DE;" cx="248.001" cy="416" r="8"/>
	</g>
	<g>
		<circle style="fill:#6AA2DE;" cx="184.001" cy="416" r="8"/>
	</g>
	<g>
		<circle style="fill:#6AA2DE;" cx="312.001" cy="416" r="8"/>
	</g>
	<g>
		<circle style="fill:#82B8AD;" cx="152.001" cy="416" r="8"/>
	</g>
	<g>
		<circle style="fill:#82B8AD;" cx="280.001" cy="416" r="8"/>
	</g>
	<g>
		<circle style="fill:#82B8AD;" cx="216.001" cy="416" r="8"/>
	</g>
</g>
<g>
</g>
<g>
</g>
<g>
</g>
<g>
</g>
<g>
</g>
<g>
</g>
<g>
</g>
<g>
</g>
<g>
</g>
<g>
</g>
<g>
</g>
<g>
</g>
<g>
</g>
<g>
</g>
<g>
</g>
</svg>
