<?xml version="1.0" encoding="iso-8859-1"?>
<!-- Generator: Adobe Illustrator 19.0.0, SVG Export Plug-In . SVG Version: 6.00 Build 0)  -->
<svg version="1.1" id="Layer_1" xmlns="http://www.w3.org/2000/svg" xmlns:xlink="http://www.w3.org/1999/xlink" x="0px" y="0px"
	 viewBox="0 0 464 464" style="enable-background:new 0 0 464 464;" xml:space="preserve">
<g>
	<path style="fill:#FFD7A3;" d="M388.377,436.829l-9.736-73.019c-1.616-12.121-9.999-22.261-21.6-26.129l-21.623-7.208l0.249-4.475
		c0.193-3.481-2.112-6.61-5.495-7.455l-18.991-4.748c-3.945-0.986-7.931,1.455-8.846,5.417l-0.05,0.216l-11.345-3.782
		c-6.533-2.178-10.94-8.292-10.94-15.179v-25.802l34.461-14.359C332.349,252.855,344,235.378,344,216v-8c13.255,0,24-10.745,24-24
		s-10.745-24-24-24v-16c0-44.183-35.817-80-80-80h-64c-44.183,0-80,35.817-80,80v16c-13.255,0-24,10.745-24,24s10.745,24,24,24v8
		c0,19.377,11.651,36.854,29.538,44.308L184,274.667v25.801c0,6.887-4.407,13.001-10.94,15.179l-11.345,3.782l-0.05-0.216
		c-0.914-3.962-4.901-6.404-8.846-5.417l-18.991,4.748c-3.383,0.845-5.688,3.974-5.495,7.455l0.249,4.475l-21.623,7.208
		c-11.601,3.867-19.984,14.008-21.6,26.129l-9.736,73.019C73.705,451.216,84.897,464,99.412,464H136h192h36.588
		C379.103,464,390.296,451.216,388.377,436.829z"/>
	<g>
		<path style="fill:#FFD7A3;" d="M357.042,337.681l-66.101-22.034c-6.533-2.178-10.94-8.292-10.94-15.179V248h-96v52.468
			c0,6.887-4.407,13.001-10.94,15.179l-66.101,22.034c-11.601,3.867-19.984,14.007-21.6,26.129l-9.736,73.019
			C73.705,451.216,84.898,464,99.412,464h265.176c14.515,0,25.708-12.784,23.789-27.172l-9.736-73.019
			C377.025,351.688,368.643,341.548,357.042,337.681z"/>
		<path style="fill:#FDC88E;" d="M176.248,314.169C243.173,325.732,280,273,280,273h-96v27.468
			C184,306.162,180.983,311.32,176.248,314.169z"/>
	</g>
	<path style="fill:#FFE1B2;" d="M344,160v-16c0-44.183-35.817-80-80-80h-64c-44.183,0-80,35.817-80,80v16c-13.255,0-24,10.745-24,24
		s10.745,24,24,24v8c0,19.377,11.651,36.854,29.538,44.308l51.691,21.538c9.75,4.063,20.208,6.154,30.77,6.154l0,0
		c10.562,0,21.019-2.091,30.769-6.154l51.694-21.539C332.349,252.855,344,235.378,344,216v-8c13.255,0,24-10.745,24-24
		S357.255,160,344,160z"/>
	<g>
		<path style="fill:#623F33;" d="M176,192L176,192c-4.4,0-8-3.6-8-8v-8c0-4.4,3.6-8,8-8l0,0c4.4,0,8,3.6,8,8v8
			C184,188.4,180.4,192,176,192z"/>
	</g>
	<g>
		<path style="fill:#623F33;" d="M288,192L288,192c-4.4,0-8-3.6-8-8v-8c0-4.4,3.6-8,8-8l0,0c4.4,0,8,3.6,8,8v8
			C296,188.4,292.4,192,288,192z"/>
	</g>
	<g>
		<g>
			<path style="fill:#E4B07B;" d="M232,248.219c-14.223,0-27.527-3.5-36.5-9.605c-3.652-2.484-4.602-7.461-2.113-11.113
				c2.48-3.648,7.461-4.598,11.113-2.113c6.289,4.277,16.57,6.832,27.5,6.832s21.211-2.555,27.5-6.832
				c3.66-2.492,8.629-1.539,11.113,2.113c2.488,3.652,1.539,8.629-2.113,11.113C259.528,244.719,246.223,248.219,232,248.219z"/>
		</g>
	</g>
	<path style="fill:#FFD7A3;" d="M161.996,243.722c-6.482-6.95-9.996-16.121-9.996-25.625V112h-32v48c-13.255,0-24,10.745-24,24
		s10.745,24,24,24v8c0,19.377,11.651,36.854,29.538,44.308l51.691,21.538c2.53,1.054,5.111,1.962,7.727,2.749l0,0
		C186.112,267.883,170.906,253.275,161.996,243.722z"/>
	<g>
		<path style="fill:#4F6E7F;" d="M302.336,319.213l-11.546,50.031C284.474,396.613,260.103,416,232.015,416h-0.029
			c-28.088,0-52.459-19.387-58.775-46.757l-11.546-50.031c-0.914-3.962-4.901-6.404-8.846-5.417l-18.991,4.748
			c-3.383,0.846-5.688,3.974-5.495,7.455L136,464h192l7.667-138.002c0.193-3.481-2.112-6.61-5.495-7.455l-18.991-4.748
			C307.237,312.809,303.25,315.251,302.336,319.213z"/>
	</g>
	<g>
		<g>
			<circle style="fill:#FF4F4F;" cx="164" cy="420" r="20"/>
		</g>
		<g>
			<path style="fill:#F23F44;" d="M157.333,420c0-8.695,5.583-16.02,13.333-18.775C168.572,400.481,166.35,400,164,400
				c-11.046,0-20,8.954-20,20s8.954,20,20,20c2.35,0,4.572-0.48,6.667-1.225C162.917,436.021,157.333,428.696,157.333,420z"/>
		</g>
	</g>
	<g>
		<g>
			<circle style="fill:#FFC84A;" cx="207.993" cy="440.008" r="15.993"/>
		</g>
		<g>
			<path style="fill:#FFAC4D;" d="M202.662,440.008c0-6.953,4.464-12.81,10.662-15.013c-1.675-0.595-3.452-0.979-5.331-0.979
				c-8.833,0-15.993,7.16-15.993,15.993s7.16,15.993,15.993,15.993c1.879,0,3.656-0.384,5.331-0.979
				C207.126,452.818,202.662,446.961,202.662,440.008z"/>
		</g>
	</g>
	<g>
		<g>
			<circle style="fill:#9BCE7A;" cx="303.993" cy="416.008" r="15.993"/>
		</g>
		<g>
			<path style="fill:#8ABE69;" d="M298.662,416.008c0-6.953,4.464-12.81,10.662-15.013c-1.675-0.595-3.452-0.979-5.331-0.979
				c-8.833,0-15.993,7.16-15.993,15.993S295.16,432,303.993,432c1.879,0,3.656-0.384,5.331-0.979
				C303.127,428.818,298.662,422.961,298.662,416.008z"/>
		</g>
	</g>
	<path style="fill:#734A3E;" d="M280,48h-8c-4.998,0-9.665-2.498-12.438-6.656L232,0l-27.563,41.344
		C201.665,45.502,196.998,48,192,48h-8c-35.346,0-64,28.654-64,64v48h4.468c6.887,0,13.001-4.407,15.179-10.94l8.706-26.119
		c2.178-6.534,8.292-10.941,15.179-10.941H232h68.468c6.887,0,13.001,4.407,15.179,10.941l8.706,26.119
		c2.178,6.534,8.292,10.94,15.179,10.94H344v-48C344,76.654,315.347,48,280,48z"/>
	<path style="fill:#5E342E;" d="M204.438,41.344C201.665,45.502,196.998,48,192,48h-8c-35.346,0-64,28.654-64,64v48h4.468
		c6.887,0,13.001-4.407,15.179-10.94l8.706-26.119c2.178-6.534,8.292-10.941,15.179-10.941H232V0L204.438,41.344z"/>
</g>
<g>
</g>
<g>
</g>
<g>
</g>
<g>
</g>
<g>
</g>
<g>
</g>
<g>
</g>
<g>
</g>
<g>
</g>
<g>
</g>
<g>
</g>
<g>
</g>
<g>
</g>
<g>
</g>
<g>
</g>
</svg>
