<?xml version="1.0" encoding="iso-8859-1"?>
<!-- Generator: Adobe Illustrator 19.0.0, SVG Export Plug-In . SVG Version: 6.00 Build 0)  -->
<svg version="1.1" id="Layer_1" xmlns="http://www.w3.org/2000/svg" xmlns:xlink="http://www.w3.org/1999/xlink" x="0px" y="0px"
	 viewBox="0 0 464.002 464.002" style="enable-background:new 0 0 464.002 464.002;" xml:space="preserve">
<g>
	<g>
		<path style="fill:#6E4439;" d="M360.001,72c-25-53-72-72-128-72s-103,19-128,72s-10,87-40,168c0,0,54,56,168,56s168-56,168-56
			C370.001,159,385.001,125,360.001,72z"/>
	</g>
	<path style="fill:#C38762;" d="M380.379,436.829l-9.188-68.908c0-0.001,0-0.002-0.001-0.004l-0.387-2.906
		c-0.787-5.906-2.876-11.459-6.144-16.397c0.834-3.324-0.544-6.945-3.643-8.805l-26.278-15.767c-2.769-1.661-6.143-1.45-8.648,0.271
		l-16.238-7.156c-3.287-1.448-6.984-0.49-9.198,2.064l-9.712-3.573c-6.533-2.178-10.94-8.292-10.94-15.179v-25.802l34.461-14.359
		c17.887-7.453,29.538-24.93,29.538-44.308v-8c13.255,0,24-10.745,24-24s-10.745-24-24-24v-16c0-22.091-17.909-40-40-40h-144
		c-22.091,0-40,17.909-40,40v16c-13.255,0-24,10.745-24,24s10.745,24,24,24v8c0,19.378,11.651,36.855,29.538,44.308l34.462,14.36
		v25.801c0,6.887-4.407,13.001-10.94,15.179l-9.712,3.573c-2.214-2.554-5.911-3.512-9.198-2.064l-16.238,7.156
		c-2.505-1.721-5.879-1.932-8.648-0.271l-26.278,15.767c-3.1,1.86-4.478,5.482-3.643,8.806c-3.267,4.938-5.356,10.49-6.144,16.397
		l-0.387,2.904c0,0.002-0.001,0.004-0.001,0.006l-9.188,68.908c-1.019,7.644,1.662,14.834,6.576,19.896
		c0.006,0.006,0.013,0.012,0.019,0.019c4.334,4.455,10.4,7.257,17.194,7.257l0,0h28.588h192h28.587l0,0
		C371.104,464.001,382.297,451.216,380.379,436.829z"/>
	<path style="fill:#00858A;" d="M380.378,436.829l-9.576-71.817c-1.752-13.142-9.895-24.558-23.304-31.262l-37.647-16.592
		c-4.168-1.837-9.007,0.185-10.627,4.441C288.908,348.713,262.738,368,232.001,368s-56.906-19.288-67.224-46.403
		c-1.62-4.257-6.459-6.278-10.627-4.441l-37.647,16.592c-13.41,6.705-21.552,18.121-23.304,31.262l-9.576,71.818
		C81.705,451.215,92.897,464,107.412,464h249.175C371.104,464.001,382.297,451.216,380.378,436.829z"/>
	<g>
		<path style="fill:#5E342E;" d="M232.001,0c-56,0-103,19-128,72s-10,87-40,168c0,0,50.21,51.747,155.644,55.624l4.356-7.624l-48-40
			c0,0-4-20-8-104S219.335,0,232.001,0z"/>
	</g>
	<path style="fill:#A46D4D;" d="M280.001,273.996h-96v26.472c0,5.693-3.017,10.852-7.752,13.701
		C243.174,325.731,280.001,273.996,280.001,273.996z"/>
	<path style="fill:#D29771;" d="M344.001,160v-16c0-22.091-17.909-40-40-40h-144c-22.091,0-40,17.909-40,40v16
		c-13.255,0-24,10.745-24,24s10.745,24,24,24v8c0,19.378,11.651,36.855,29.538,44.308l51.691,21.538
		C210.98,285.909,221.438,288,232,288l0,0c10.562,0,21.019-2.092,30.769-6.154l51.694-21.539
		c17.887-7.452,29.538-24.929,29.538-44.307v-8c13.255,0,24-10.745,24-24S357.256,160,344.001,160z"/>
	<g>
		<path style="fill:#623F33;" d="M176.001,192L176.001,192c-4.4,0-8-3.6-8-8v-8c0-4.4,3.6-8,8-8l0,0c4.4,0,8,3.6,8,8v8
			C184.001,188.4,180.401,192,176.001,192z"/>
	</g>
	<g>
		<path style="fill:#623F33;" d="M288.001,192L288.001,192c-4.4,0-8-3.6-8-8v-8c0-4.4,3.6-8,8-8l0,0c4.4,0,8,3.6,8,8v8
			C296.001,188.4,292.401,192,288.001,192z"/>
	</g>
	<g>
		<g>
			<path style="fill:#A46D4D;" d="M232.001,248.219c-14.223,0-27.527-3.5-36.5-9.605c-3.652-2.484-4.602-7.461-2.113-11.113
				c2.48-3.648,7.461-4.598,11.113-2.113c6.289,4.277,16.57,6.832,27.5,6.832s21.211-2.555,27.5-6.832
				c3.66-2.492,8.629-1.539,11.113,2.113c2.488,3.652,1.539,8.629-2.113,11.113C259.529,244.719,246.224,248.219,232.001,248.219z"
				/>
		</g>
	</g>
	<g>
		<path style="fill:#C38762;" d="M120.001,144v16c-13.255,0-24,10.745-24,24s10.745,24,24,24v8
			c0,19.378,11.651,36.855,29.538,44.308l51.69,21.538c2.53,1.054,5.112,1.962,7.727,2.749c-22.844-16.711-38.05-31.32-46.96-40.872
			c-6.482-6.949-9.995-16.121-9.995-25.625V160c19.333,0,130.333-6.004,162-47.004c0,0-0.042-8.917,0-8.972l-162,0.782
			C133.744,108.513,120.001,124.649,120.001,144z"/>
	</g>
	<g>
		<path style="fill:#6E4439;" d="M136.001,90.996V144c0,0,56.997,0.74,111.999-6.336L272.001,120l0.004,13.998
			c26.371-4.748,50.107-11.732,63.996-21.998V90.996H136.001z"/>
	</g>
	<g>
		<g>
			<path style="fill:#57B9DD;" d="M323.838,326.662l-28.787,46.058c-4.386,7.017-12.077,11.28-20.352,11.28h-85.396
				c-8.275,0-15.966-4.263-20.352-11.28l-28.786-46.058c-2.312-3.699-7.16-4.864-10.9-2.62l-26.278,15.767
				c-3.837,2.302-5.04,7.305-2.668,11.1L136.001,408h192l35.682-57.092c2.372-3.795,1.169-8.797-2.668-11.1l-26.278-15.767
				C330.998,321.798,326.149,322.964,323.838,326.662z"/>
		</g>
		<g>
			<rect x="136.001" y="408" style="fill:#43A0C5;" width="192" height="56"/>
		</g>
	</g>
	<g>
		<circle style="fill:#FFC33D;" cx="180.001" cy="396" r="28"/>
	</g>
	<g>
		<g>
			<path style="fill:#FF4F4F;" d="M186.763,383.418c-2.64,0-5.029,1.068-6.762,2.795c-1.733-1.727-4.122-2.795-6.762-2.795
				c-5.291,0-9.58,4.289-9.58,9.579c0,7.326,8.594,16.13,16.342,19.723c7.748-3.592,16.342-12.397,16.342-19.723
				C196.343,387.707,192.054,383.418,186.763,383.418z"/>
		</g>
	</g>
	<path style="fill:#5E342E;" d="M173.247,90.996h-37.246V144c0,0,12.742,0.165,31.985-0.408
		C167.129,124.703,169.272,107.037,173.247,90.996z"/>
</g>
<g>
</g>
<g>
</g>
<g>
</g>
<g>
</g>
<g>
</g>
<g>
</g>
<g>
</g>
<g>
</g>
<g>
</g>
<g>
</g>
<g>
</g>
<g>
</g>
<g>
</g>
<g>
</g>
<g>
</g>
</svg>
