<?xml version="1.0" encoding="iso-8859-1"?>
<!-- Generator: Adobe Illustrator 19.0.0, SVG Export Plug-In . SVG Version: 6.00 Build 0)  -->
<svg version="1.1" id="Layer_1" xmlns="http://www.w3.org/2000/svg" xmlns:xlink="http://www.w3.org/1999/xlink" x="0px" y="0px"
	 viewBox="0 0 456.001 456.001" style="enable-background:new 0 0 456.001 456.001;" xml:space="preserve">
<g>
	<path style="fill:#956E55;" d="M373.4,342.782c-2.961-9.867-10.552-17.833-20.532-21.159l-31.5-10.5
		c-4.116-1.372-8.639,0.769-10.019,4.883c-0.062,0.185-0.134,0.366-0.197,0.55l-24.212-8.908c-6.533-2.178-10.94-8.292-10.94-15.179
		v-25.802l34.461-14.358C328.349,244.855,340,227.378,340,208v-8c13.255,0,24-10.745,24-24c0-7.064-3.053-13.414-7.91-17.806
		l5.39-107.797C362.852,22.98,340.991,0,313.54,0h-171.08C115.01,0,93.15,22.98,94.521,50.397l5.39,107.797
		c-4.857,4.392-7.91,10.742-7.91,17.806c0,13.255,10.745,24,24,24v8c0,19.377,11.651,36.854,29.538,44.308l34.462,14.36v25.801
		c0,6.887-4.407,13-10.94,15.179l-24.212,8.908c-0.063-0.184-0.135-0.365-0.197-0.55c-1.38-4.114-5.903-6.255-10.019-4.883
		l-31.5,10.5c-9.98,3.326-17.572,11.292-20.532,21.159c-0.898,2.993,0.051,6.254,2.386,8.329l5.67,5.039l-5.519,82.786
		C84.521,448.171,91.846,456,101.101,456h38.899h176h38.898c9.255,0,16.58-7.83,15.964-17.064l-5.519-82.786l5.67-5.039
		C373.349,349.036,374.298,345.775,373.4,342.782z"/>
	<path style="fill:#7C5A49;" d="M180.001,266.001v26.468c0,5.693-3.017,10.852-7.752,13.701
		c66.923,11.563,103.75-40.166,103.752-40.169L180.001,266.001L180.001,266.001z"/>
	<g>
		<path style="fill:#623F33;" d="M94.521,50.397L100.001,160h256l5.48-109.603C362.852,22.98,340.991,0,313.54,0h-171.08
			C115.01,0,93.15,22.98,94.521,50.397z"/>
	</g>
	<path style="fill:#A2795C;" d="M340,152v-32c0-22.091-17.909-40-40-40h-144c-22.092,0-40,17.909-40,40v32
		c-13.255,0-24,10.746-24,24c0,13.255,10.745,24,24,24v8c0,19.377,11.651,36.854,29.538,44.308l51.691,21.538
		C206.98,277.909,217.438,280,228,280l0,0c10.562,0,21.019-2.092,30.769-6.154l51.694-21.539C328.349,244.855,340,227.378,340,208
		v-8c13.255,0,24-10.745,24-24S353.255,152,340,152z"/>
	<g>
		<path style="fill:#623F33;" d="M172.001,184L172.001,184c-4.4,0-8-3.6-8-8v-8c0-4.4,3.6-8,8-8l0,0c4.4,0,8,3.6,8,8v8
			C180.001,180.4,176.4,184,172.001,184z"/>
	</g>
	<g>
		<path style="fill:#623F33;" d="M284,184L284,184c-4.4,0-8-3.6-8-8v-8c0-4.4,3.6-8,8-8l0,0c4.4,0,8,3.6,8,8v8
			C292,180.4,288.4,184,284,184z"/>
	</g>
	<g>
		<g>
			<path style="fill:#7C5A49;" d="M228.001,240.219c-14.223,0-27.527-3.5-36.5-9.605c-3.652-2.484-4.602-7.461-2.113-11.113
				c2.48-3.648,7.461-4.598,11.113-2.113c6.289,4.277,16.57,6.832,27.5,6.832s21.211-2.555,27.5-6.832
				c3.66-2.492,8.629-1.539,11.113,2.113c2.488,3.652,1.539,8.629-2.113,11.113C255.529,236.719,242.224,240.219,228.001,240.219z"
				/>
		</g>
	</g>
	<path style="fill:#956E55;" d="M157.997,235.723c-6.482-6.95-9.995-16.121-9.995-25.625V80.806c-18.257,3.707-32,19.843-32,39.194
		v32c-13.255,0-24,10.745-24,24s10.745,24,24,24v8c0,19.378,11.651,36.855,29.538,44.308l51.69,21.538
		c2.53,1.054,5.112,1.962,7.727,2.749C182.111,259.883,166.906,245.274,157.997,235.723z"/>
	<g>
		<path style="fill:#FFA64E;" d="M373.4,342.782c-2.961-9.867-10.552-17.833-20.532-21.159l-31.5-10.5
			c-4.116-1.372-8.639,0.769-10.019,4.883C299.652,350.862,266.797,376,228.001,376s-71.652-25.138-83.349-59.995
			c-1.38-4.114-5.903-6.255-10.019-4.883l-31.5,10.5c-9.98,3.326-17.572,11.293-20.532,21.159c-0.898,2.993,0.051,6.254,2.386,8.329
			l44.27,39.342c6.834,6.074,10.744,14.779,10.744,23.921v41.628h176v-41.628c0-9.142,3.91-17.847,10.743-23.919l44.27-39.342
			C373.349,349.036,374.298,345.775,373.4,342.782z"/>
	</g>
	<g>
		<path style="fill:#FFC84A;" d="M321.369,311.122c-4.116-1.372-8.639,0.769-10.02,4.883C299.652,350.862,266.798,376,228.001,376
			s-71.651-25.138-83.349-59.995c-1.38-4.114-5.903-6.255-10.02-4.883l-7.334,2.445C138.71,358.619,179.402,392,228.001,392
			s89.292-33.382,100.702-78.433L321.369,311.122z"/>
	</g>
</g>
<g>
</g>
<g>
</g>
<g>
</g>
<g>
</g>
<g>
</g>
<g>
</g>
<g>
</g>
<g>
</g>
<g>
</g>
<g>
</g>
<g>
</g>
<g>
</g>
<g>
</g>
<g>
</g>
<g>
</g>
</svg>
