<svg id="wizardSubmit" width="54" height="54" xmlns="http://www.w3.org/2000/svg">
    <g fill-rule="nonzero">
        <path d="M50.4 13.5V2.687A2.69 2.69 0 0 0 47.714 0h-3.627A2.69 2.69 0 0 0 41.4 2.687V13.5H4a4 4 0 0 0-4 4v21.7a4 4 0 0 0 4 4h37.4v2.04l3.6 6.3v1.56a.9.9 0 1 0 1.8 0v-1.56l3.6-6.3V43.2a3.6 3.6 0 0 0 3.6-3.6V17.1a3.6 3.6 0 0 0-3.6-3.6zm-1.8-3.6h-5.4V8.1h5.4v1.8zm-5.4-7.213c0-.49.398-.887.886-.887h3.628c.488 0 .886.398.886.887V6.3h-5.4V2.687zM1.8 38.4V18.3a3 3 0 0 1 3-3h33.6a3 3 0 0 1 3 3v20.1a3 3 0 0 1-3 3H4.8a3 3 0 0 1-3-3zm44.1 11.086L43.85 45.9h4.1l-2.05 3.586zm2.7-5.386h-5.4V11.7h5.4v32.4zm2.7-2.7a.9.9 0 0 1-.9-.9V16.2a.9.9 0 1 1 1.8 0v24.3a.9.9 0 0 1-.9.9z"/>
        <path d="M35.1 23.4h-2.7a.9.9 0 1 0 0 1.8h2.7a.9.9 0 1 0 0-1.8zM18.9 21.6h2.7a.9.9 0 1 0 0-1.8h-2.7a.9.9 0 1 0 0 1.8zM35.1 19.8h-6.3a.9.9 0 1 0 0 1.8h6.3a.9.9 0 1 0 0-1.8zM25.2 21.6a.946.946 0 0 0 .639-.261.946.946 0 0 0 .261-.639.945.945 0 0 0-.261-.639c-.342-.333-.945-.333-1.278 0a.945.945 0 0 0-.261.639c0 .234.099.468.261.639a.93.93 0 0 0 .639.261zM21.6 24.3a.9.9 0 0 0 .9.9h6.3a.9.9 0 1 0 0-1.8h-6.3a.9.9 0 0 0-.9.9zM18.9 25.2a.946.946 0 0 0 .639-.261.946.946 0 0 0 .261-.639.926.926 0 0 0-.261-.639c-.342-.333-.945-.333-1.278 0A.926.926 0 0 0 18 24.3c0 .234.099.468.261.639a.93.93 0 0 0 .639.261zM9.9 20.79v-.99a.9.9 0 1 0-1.8 0v.994c-.982.2-1.877.721-2.536 1.502a3.094 3.094 0 0 0-.715 2.342 3.284 3.284 0 0 0 1.245 2.242L8.1 28.44v4.894A2.696 2.696 0 0 1 6.3 30.8a.9.9 0 1 0-1.8 0 4.508 4.508 0 0 0 3.6 4.409V36a.9.9 0 1 0 1.8 0v-.794c.982-.2 1.877-.72 2.537-1.501a3.1 3.1 0 0 0 .714-2.345 3.282 3.282 0 0 0-1.245-2.239L9.9 27.56v-4.894a2.696 2.696 0 0 1 1.8 2.534.9.9 0 1 0 1.8 0 4.508 4.508 0 0 0-3.6-4.41zm.9 9.752c.315.243.52.611.56 1.006.04.369-.067.722-.297.994-.313.37-.718.63-1.163.788v-3.49l.9.701zm-3.6-5.083a1.478 1.478 0 0 1-.56-1.008c-.038-.368.067-.72.297-.993.313-.37.718-.63 1.163-.788v3.49l-.9-.7zM21.73 30.06c-1.97 1.026-2.635 2.989-2.876 5.024l-1.117-.936c-.882-.74-2.162.527-1.272 1.272l2.525 2.116c.592.497 1.51.183 1.536-.636.066-1.95.158-4.268 2.114-5.286 1.026-.534.117-2.089-.91-1.554zM27.715 33.65c-1.246.289-2.664 1.875-3.542.096-.512-1.04-2.065-.128-1.554.908.465.944 1.35 1.604 2.402 1.737a3.006 3.006 0 0 0 1.52-.203c.367-.143 1.742-1.176 2.04-.645.565 1.011 2.12.104 1.554-.908-.484-.865-1.462-1.207-2.42-.985z"/>
    </g>
</svg>
