<svg id="wizardPayment" width="58" height="54" xmlns="http://www.w3.org/2000/svg">
    <g fill-rule="nonzero">
        <path d="M8.679 23.143h7.714V13.5H8.679v9.643zm1.928-7.714h3.857v5.785h-3.857V15.43zM8.679 34.714h7.714v-9.643H8.679v9.643zM10.607 27h3.857v5.786h-3.857V27zM8.679 46.286h7.714v-9.643H8.679v9.643zm1.928-7.715h3.857v5.786h-3.857v-5.786zM34.714 22.179a.963.963 0 0 0-.964.964v8.678a.963.963 0 1 0 1.929 0v-8.678a.963.963 0 0 0-.965-.964zM34.714 34.714a.963.963 0 0 0-.964.965v8.678a.963.963 0 1 0 1.929 0V35.68a.963.963 0 0 0-.965-.965zM29.893 22.179a.963.963 0 0 0-.964.964v.964a.963.963 0 1 0 1.928 0v-.964a.963.963 0 0 0-.964-.964zM29.893 27a.963.963 0 0 0-.964.964v1.929a.963.963 0 1 0 1.928 0v-1.929a.963.963 0 0 0-.964-.964zM29.893 32.786a.963.963 0 0 0-.964.964v.964a.963.963 0 1 0 1.928 0v-.964a.963.963 0 0 0-.964-.964zM29.893 37.607a.963.963 0 0 0-.964.964V40.5a.963.963 0 1 0 1.928 0v-1.929a.963.963 0 0 0-.964-.964zM29.208 43.672c-.174.183-.28.434-.28.685 0 .26.106.502.28.685.182.173.434.28.685.28.25 0 .501-.107.684-.28a.996.996 0 0 0 .28-.685c0-.25-.106-.502-.28-.684a1 1 0 0 0-1.369 0z"/>
        <path d="M42.286 0H4a4 4 0 0 0-4 4v2.75h2.893v43.184A4.071 4.071 0 0 0 6.959 54h32.367a4.071 4.071 0 0 0 4.067-4.066V6.75h2.893V4a4 4 0 0 0-4-4zm-.822 49.934a2.14 2.14 0 0 1-2.138 2.137H6.96a2.14 2.14 0 0 1-2.138-2.137V4.82H8.68v6.75h7.714v-6.75h8.678v11.326c0 1.199.976 2.174 2.175 2.174h9.151a2.177 2.177 0 0 0 2.174-2.174V4.821h2.893v45.113zM10.607 4.82h3.857v4.822h-3.857V4.82zm22.179 0V6.75h-1.929V4.821h1.929zm3.857 0v1.954c-.082-.01-.162-.025-.246-.025h-1.683V4.821h1.929zm-9.397 11.572a.246.246 0 0 1-.246-.246v-3.636c.082.01.162.025.246.025h1.683v3.857h-1.683zm3.611-3.857h1.683c.136 0 .246.11.246.246v3.365c0 .084.015.164.025.246h-1.954v-3.857zm3.857 3.611v-3.365a2.177 2.177 0 0 0-2.174-2.175h-5.294a.246.246 0 0 1-.246-.246V8.924c0-.135.11-.245.246-.245h9.151c.136 0 .246.11.246.245v7.223c0 .136-.11.246-.246.246H34.96a.246.246 0 0 1-.246-.246zM28.93 6.75h-1.683c-.084 0-.164.015-.246.025V4.821h1.929V6.75zm15.428-1.929h-.964V2.893h-40.5V4.82h-.964V2.93a1 1 0 0 1 1-1h40.428a1 1 0 0 1 1 1V4.82z"/>
        <path d="m57.575 31.14-5.785-5.785a.965.965 0 0 0-1.365 0L44.64 31.14a.963.963 0 1 0 1.363 1.363l4.14-4.14v24.673a.963.963 0 1 0 1.928 0V28.363l4.14 4.14a.962.962 0 0 0 1.364 0 .963.963 0 0 0 0-1.363z"/>
    </g>
</svg>
