<svg id="wizardCheckoutAddress" width="54" height="54" xmlns="http://www.w3.org/2000/svg">
    <g fill-rule="nonzero">
        <path d="M54 7.2V4a4 4 0 0 0-4-4H4a4 4 0 0 0-4 4v3.2h1.8v36H.9a.9.9 0 1 0 0 1.8h25.2v1.8c0 .042.019.08.024.12A3.596 3.596 0 0 0 23.4 50.4c0 1.985 1.615 3.6 3.6 3.6s3.6-1.615 3.6-3.6a3.596 3.596 0 0 0-2.724-3.48c.005-.04.024-.078.024-.12V45h25.2a.9.9 0 1 0 0-1.8h-.9v-36H54zM28.8 50.4c0 .993-.807 1.8-1.8 1.8s-1.8-.807-1.8-1.8.807-1.8 1.8-1.8 1.8.807 1.8 1.8zM5.4 1.8h43.2a3.6 3.6 0 0 1 3.6 3.6H1.8a3.6 3.6 0 0 1 3.6-3.6zm43 41.4H5.6a2 2 0 0 1-2-2v-32a2 2 0 0 1 2-2h42.8a2 2 0 0 1 2 2v32a2 2 0 0 1-2 2z"/>
        <path d="M45 36.9H31.5a.9.9 0 1 0 0 1.8H45a.9.9 0 1 0 0-1.8zM9 32.4h9a.9.9 0 1 0 0-1.8H9a.9.9 0 1 0 0 1.8zM27 32.4h13.5a.9.9 0 1 0 0-1.8H27a.9.9 0 1 0 0 1.8zM21.861 30.861a.926.926 0 0 0-.261.639c0 .234.099.468.261.639a.946.946 0 0 0 .639.261.946.946 0 0 0 .639-.261.946.946 0 0 0 .261-.639.945.945 0 0 0-.261-.639c-.333-.333-.945-.333-1.278 0zM27 36.9H13.5a.9.9 0 1 0 0 1.8H27a.9.9 0 1 0 0-1.8zM9 38.7a.946.946 0 0 0 .639-.261.946.946 0 0 0 .261-.639.906.906 0 0 0-.261-.63c-.333-.342-.936-.342-1.278-.009a.945.945 0 0 0-.261.639c0 .234.099.468.261.639A.946.946 0 0 0 9 38.7zM44.361 30.861a.926.926 0 0 0-.261.639c0 .234.099.468.261.639A.946.946 0 0 0 45 32.4a.946.946 0 0 0 .639-.261.946.946 0 0 0 .261-.639.945.945 0 0 0-.261-.639c-.333-.333-.936-.333-1.278 0zM45 18H31.5a.9.9 0 1 0 0 1.8H45a.9.9 0 1 0 0-1.8zM45 24.3h-9a.9.9 0 1 0 0 1.8h9a.9.9 0 1 0 0-1.8zM27 26.1h1.8a.9.9 0 1 0 0-1.8H27a.9.9 0 1 0 0 1.8zM27 13.5h13.5a.9.9 0 1 0 0-1.8H27a.9.9 0 1 0 0 1.8zM45 13.5a.946.946 0 0 0 .639-.261.906.906 0 0 0 .261-.639.905.905 0 0 0-.261-.639c-.342-.333-.945-.333-1.278 0a.945.945 0 0 0-.261.639c0 .234.099.468.261.639A.946.946 0 0 0 45 13.5zM27.261 18.261A.926.926 0 0 0 27 18.9c0 .234.099.468.261.639a.946.946 0 0 0 .639.261.946.946 0 0 0 .639-.261.946.946 0 0 0 .261-.639.926.926 0 0 0-.261-.639.942.942 0 0 0-1.278 0zM31.761 24.561a.945.945 0 0 0-.261.639c0 .234.099.468.261.639a.946.946 0 0 0 .639.261.946.946 0 0 0 .639-.261.946.946 0 0 0 .261-.639.945.945 0 0 0-.261-.639c-.333-.333-.945-.333-1.278 0zM22.5 11.7H8.1v14.4h14.4V11.7zm-1.8 12.6H9.9V13.5h10.8v10.8z"/>
    </g>
</svg>
