<svg id="wizardCart" width="58" height="54" xmlns="http://www.w3.org/2000/svg">
    <g fill-rule="nonzero">
        <path d="M57.927 34.29V16.765a4 4 0 0 0-4-4h-4.836a.98.98 0 1 0 0 1.963h3.873a3 3 0 0 1 3 3v15.6a3 3 0 0 1-3 3H14.8a4 4 0 0 1-4-4v-14.6a3 3 0 0 1 3-3h3.873a.98.98 0 1 0 0-1.963H10.8V4.909a.98.98 0 0 0-.982-.982H7.715C7.276 2.24 5.752.982 3.927.982A3.931 3.931 0 0 0 0 4.909a3.931 3.931 0 0 0 3.927 3.927c1.825 0 3.35-1.256 3.788-2.945h1.121v38.29a.98.98 0 0 0 .982.983h6.903c-1.202.895-1.994 2.316-1.994 3.927A4.915 4.915 0 0 0 19.637 54a4.915 4.915 0 0 0 4.908-4.91c0-1.61-.79-3.03-1.994-3.926h17.734c-1.203.895-1.994 2.316-1.994 3.927A4.915 4.915 0 0 0 43.2 54a4.915 4.915 0 0 0 4.91-4.91c0-1.61-.792-3.03-1.995-3.926h5.921a.98.98 0 1 0 0-1.964H10.8v-4.91h43.127a4 4 0 0 0 4-4zm-54-27.417a1.966 1.966 0 0 1-1.963-1.964c0-1.083.88-1.964 1.963-1.964.724 0 1.35.398 1.691.982h-.709a.98.98 0 1 0 0 1.964h.709c-.34.584-.967.982-1.69.982zm15.71 45.163a2.949 2.949 0 0 1-2.946-2.945 2.949 2.949 0 0 1 2.945-2.946 2.95 2.95 0 0 1 2.946 2.946 2.949 2.949 0 0 1-2.946 2.945zm23.563 0a2.949 2.949 0 0 1-2.945-2.945 2.949 2.949 0 0 1 2.945-2.946 2.949 2.949 0 0 1 2.945 2.946 2.949 2.949 0 0 1-2.945 2.945z"/>
        <path d="M33.382 27.49c7.58 0 13.745-6.165 13.745-13.745C47.127 6.165 40.961 0 33.382 0c-7.58 0-13.746 6.166-13.746 13.745 0 7.58 6.166 13.746 13.746 13.746zm0-25.526c6.497 0 11.782 5.285 11.782 11.781 0 6.497-5.285 11.782-11.782 11.782S21.6 20.242 21.6 13.745c0-6.496 5.285-11.781 11.782-11.781z"/>
        <path d="M31.77 19.41c.064.052.136.083.208.117.03.015.056.039.086.05a.982.982 0 0 0 .736-.027c.049-.023.085-.066.13-.095.07-.046.145-.083.202-.149l.02-.021.001-.001.001-.002 7.832-8.812a.98.98 0 1 0-1.467-1.304l-7.222 8.126-5.16-4.3a.983.983 0 0 0-1.258 1.508l5.892 4.91z"/>
    </g>
</svg>
