<?xml version="1.0" encoding="UTF-8"?>
<svg width="24px" height="24px" viewBox="0 0 24 24" version="1.1" xmlns="http://www.w3.org/2000/svg" xmlns:xlink="http://www.w3.org/1999/xlink">
    <g id="Stockholm-icons-/-Home-/-Armchair" stroke="none" stroke-width="1" fill="none" fill-rule="evenodd">
        <path d="M20,8 L18.173913,8 C17.0693435,8 16.173913,8.8954305 16.173913,10 L16.173913,12 C16.173913,12.5522847 15.7261978,13 15.173913,13 L8.86956522,13 C8.31728047,13 7.86956522,12.5522847 7.86956522,12 L7.86956522,10 C7.86956522,8.8954305 6.97413472,8 5.86956522,8 L4,8 L4,6 C4,4.34314575 5.34314575,3 7,3 L17,3 C18.6568542,3 20,4.34314575 20,6 L20,8 Z" id="Path" fill="#000000" opacity="0.3"></path>
        <path d="M6.15999985,21.0604779 L8.15999985,17.5963763 C8.43614222,17.1180837 9.04773263,16.9542085 9.52602525,17.2303509 C10.0043179,17.5064933 10.168193,18.1180837 9.89205065,18.5963763 L7.89205065,22.0604779 C7.61590828,22.5387706 7.00431787,22.7026457 6.52602525,22.4265033 C6.04773263,22.150361 5.88385747,21.5387706 6.15999985,21.0604779 Z M17.8320512,21.0301278 C18.1081936,21.5084204 17.9443184,22.1200108 17.4660258,22.3961532 C16.9877332,22.6722956 16.3761428,22.5084204 16.1000004,22.0301278 L14.1000004,18.5660262 C13.823858,18.0877335 13.9877332,17.4761431 14.4660258,17.2000008 C14.9443184,16.9238584 15.5559088,17.0877335 15.8320512,17.5660262 L17.8320512,21.0301278 Z" id="Combined-Shape" fill="#000000" opacity="0.3"></path>
        <path d="M20,10 L20,15 C20,16.6568542 18.6568542,18 17,18 L7,18 C5.34314575,18 4,16.6568542 4,15 L4,10 L5.86956522,10 L5.86956522,12 C5.86956522,13.6568542 7.21271097,15 8.86956522,15 L15.173913,15 C16.8307673,15 18.173913,13.6568542 18.173913,12 L18.173913,10 L20,10 Z" id="Combined-Shape" fill="#000000"></path>
    </g>
</svg>
