<?xml version="1.0" encoding="UTF-8"?>
<svg width="24px" height="24px" viewBox="0 0 24 24" version="1.1" xmlns="http://www.w3.org/2000/svg" xmlns:xlink="http://www.w3.org/1999/xlink">
    <g id="Stockholm-icons-/-Home-/-Box" stroke="none" stroke-width="1" fill="none" fill-rule="evenodd">
        <rect id="bound" x="0" y="0" width="24" height="24"></rect>
        <path d="M4,7 L20,7 L20,19.5 C20,20.3284271 19.3284271,21 18.5,21 L5.5,21 C4.67157288,21 4,20.3284271 4,19.5 L4,7 Z M10,10 C9.44771525,10 9,10.4477153 9,11 C9,11.5522847 9.44771525,12 10,12 L14,12 C14.5522847,12 15,11.5522847 15,11 C15,10.4477153 14.5522847,10 14,10 L10,10 Z" id="Combined-Shape" fill="#000000"></path>
        <rect id="Rectangle-143" fill="#000000" opacity="0.3" x="2" y="3" width="20" height="4" rx="1"></rect>
    </g>
</svg>
