<?xml version="1.0" encoding="UTF-8"?>
<svg width="24px" height="24px" viewBox="0 0 24 24" version="1.1" xmlns="http://www.w3.org/2000/svg" xmlns:xlink="http://www.w3.org/1999/xlink">
    <g id="Stockholm-icons-/-Home-/-Broom" stroke="none" stroke-width="1" fill="none" fill-rule="evenodd">
        <rect id="bound" x="0" y="0" width="24" height="24"></rect>
        <path d="M10.5278225,22.5278225 L8.79765312,20.7976531 L9.99546268,18.4463973 L7.35584531,19.3558453 L5.04895282,17.0489528 L8.15438502,11.6366281 L2.74206034,14.7420603 L1.30025253,13.3002525 L9.26548692,8.03126375 C11.3411817,6.65819522 14.1285885,7.15099488 15.6076701,9.15253022 C17.1660799,11.2614147 17.1219524,14.1519817 15.4998952,16.212313 L10.5278225,22.5278225 Z" id="Rectangle-124" fill="#000000" opacity="0.3"></path>
        <path d="M22.4246212,4.91054166 L18.4071175,8.92804534 C17.6260689,9.70909393 16.359739,9.70909393 15.5786904,8.92804534 C14.7976418,8.14699676 14.7976418,6.8806668 15.5786904,6.09961822 L19.6029298,2.0753788 C19.7817428,2.41498256 19.9878937,2.74436937 20.2214305,3.06039796 C20.8190224,3.86907629 21.5791361,4.49033747 22.4246212,4.91054166 Z" id="Combined-Shape" fill="#000000" transform="translate(18.708763, 5.794605) rotate(-180.000000) translate(-18.708763, -5.794605) "></path>
    </g>
</svg>
