<?xml version="1.0" encoding="UTF-8"?>
<svg width="24px" height="24px" viewBox="0 0 24 24" version="1.1" xmlns="http://www.w3.org/2000/svg" xmlns:xlink="http://www.w3.org/1999/xlink">
    <g id="Stockholm-icons-/-Home-/-Fireplace" stroke="none" stroke-width="1" fill="none" fill-rule="evenodd">
        <rect id="bound" x="0" y="0" width="24" height="24"></rect>
        <path d="M17,20 L17,12 C17,9.23857625 14.7614237,7 12,7 C9.23857625,7 7,9.23857625 7,12 L7,20 L5,20 C3.8954305,20 3,19.1045695 3,18 L3,6 C3,4.8954305 3.8954305,4 5,4 L19,4 C20.1045695,4 21,4.8954305 21,6 L21,18 C21,19.1045695 20.1045695,20 19,20 L17,20 Z" id="Combined-Shape" fill="#000000" opacity="0.3"></path>
        <path d="M12.9717525,11.7005668 C12.8097937,13.3201542 12.3239175,14.1866868 11.5141238,14.3001646 C11.5141238,14.3001646 12.2429381,11.4576287 11.2711857,10 C11.2711857,10 11.1681401,11.5618236 10.126941,13.4359819 C9.63887975,14.3144921 9.08474261,14.9067082 9.08474261,16.0734529 C9.08474261,17.7393714 10.7908674,18.6003292 12.002779,18.6003292 C13.2146906,18.6003292 14.9152574,18.0172577 14.9152574,15.9765075 C14.9152574,15.1373628 14.2674224,13.7120493 12.9717525,11.7005668 Z" id="Path-17" fill="#000000"></path>
    </g>
</svg>
