<?xml version="1.0" encoding="UTF-8"?>
<svg width="24px" height="24px" viewBox="0 0 24 24" version="1.1" xmlns="http://www.w3.org/2000/svg" xmlns:xlink="http://www.w3.org/1999/xlink">
    <g id="Stockholm-icons-/-Home-/-Water-mixer" stroke="none" stroke-width="1" fill="none" fill-rule="evenodd">
        <polygon id="bound" points="0 0 24 0 24 24 0 24"></polygon>
        <path d="M8,18 L8,18 C10.209139,18 12,19.790861 12,22 L4,22 L4,22 C4,19.790861 5.790861,18 8,18 Z" id="Rectangle-71" fill="#000000" opacity="0.3"></path>
        <path d="M7,12.1260175 L7,8 C7,4.6862915 9.6862915,2 13,2 C16.3137085,2 19,4.6862915 19,8 L19,9 L17,9 L17,8 C17,5.790861 15.209139,4 13,4 C10.790861,4 9,5.790861 9,8 L9,12.1260175 C10.7252272,12.5700603 12,14.1361606 12,16 C12,18.209139 10.209139,20 8,20 C5.790861,20 4,18.209139 4,16 C4,14.1361606 5.27477279,12.5700603 7,12.1260175 Z M8,18 C9.1045695,18 10,17.1045695 10,16 C10,14.8954305 9.1045695,14 8,14 C6.8954305,14 6,14.8954305 6,16 C6,17.1045695 6.8954305,18 8,18 Z" id="Combined-Shape" fill="#000000"></path>
        <path d="M18,17 C19.1045695,17 20,16.1045695 20,15 C20,14.2636203 19.3333333,13.2636203 18,12 C16.6666667,13.2636203 16,14.2636203 16,15 C16,16.1045695 16.8954305,17 18,17 Z" id="Oval-31" fill="#000000" opacity="0.3"></path>
    </g>
</svg>
