<?xml version="1.0" standalone="no"?> 
<!DOCTYPE svg PUBLIC "-//W3C//DTD SVG 1.1//EN" "http://www.w3.org/Graphics/SVG/1.1/DTD/svg11.dtd" >
<svg xmlns="http://www.w3.org/2000/svg">
<defs>
  <font id="hermes-dashboard-icons" horiz-adv-x="256">
    <font-face font-family="hermes-dashboard-icons"
      units-per-em="256" ascent="256"
      descent="0" />
    <missing-glyph horiz-adv-x="0" />
    <glyph glyph-name="active-40"
      unicode="&#xEA02;"
      horiz-adv-x="256" d=" M193.36128 154.90432L106.6666666666667 170.6666666666667V222.8587733333333C106.6666666666667 233.48576 99.4055466666667 243.33472 88.9166933333333 245.0417066666667C75.5508266666667 247.2154666666667 64 236.9576533333334 64 224V106.6666666666667H53.3333333333333V138.6666666666667H42.6666666666667C30.8848 138.6666666666667 21.3333333333333 129.11584 21.3333333333333 117.3333333333334V86.44992C21.3333333333333 71.9173333333334 26.2792533333333 57.8170666666667 35.35808 46.4688L64 10.6666666666667H202.6666666666667L219.26496 118.5546666666667C221.9003733333333 135.6868266666667 210.416 151.8034133333334 193.36128 154.90432z" />
    <glyph glyph-name="air-baloon"
      unicode="&#xEA03;"
      horiz-adv-x="256" d=" M149.3333333333333 42.6666666666667H106.6666666666667C100.768 42.6666666666667 96 37.888 96 32V10.6666666666667C96 4.7786666666667 100.768 0 106.6666666666667 0H149.3333333333333C155.232 0 160 4.7786666666667 160 10.6666666666667V32C160 37.888 155.232 42.6666666666667 149.3333333333333 42.6666666666667z M128.736 255.9573333333334C128.6613333333333 255.9573333333334 128.5866666666667 255.968 128.512 255.968C128.3413333333333 255.9786666666667 128.1706666666667 256 128 256C127.84 256 127.68 255.9786666666667 127.5093333333333 255.9786666666667C127.4133333333333 255.9786666666667 127.3386666666667 255.968 127.2426666666667 255.968C80.544 255.552 42.6666666666667 217.4613333333333 42.6666666666667 170.6666666666667C42.6666666666667 138.6773333333333 82.4853333333333 75.936 87.0293333333333 68.8853333333333C89.0026666666667 65.8453333333333 92.3733333333333 64 96 64H106.6346666666667C106.6453333333333 64 106.656 64 106.6666666666667 64C106.6773333333333 64 106.688 64 106.6986666666667 64H160C163.6266666666667 64 166.9973333333333 65.8453333333333 168.9706666666667 68.8853333333333C173.5146666666667 75.936 213.3333333333333 138.6773333333333 213.3333333333333 170.6666666666667C213.3333333333333 217.472 175.4453333333334 255.5626666666667 128.736 255.9573333333334z" />
    <glyph glyph-name="album-2"
      unicode="&#xEA04;"
      horiz-adv-x="256" d=" M245.3333333333333 234.6666666666667H192V256H170.6666666666667V234.6666666666667H138.6666666666667V256H117.3333333333333V234.6666666666667H85.3333333333333V256H64V234.6666666666667H10.6666666666667C4.7786666666667 234.6666666666667 0 229.8986666666667 0 224V10.6666666666667C0 4.768 4.7786666666667 0 10.6666666666667 0H245.3333333333333C251.2213333333333 0 256 4.768 256 10.6666666666667V224C256 229.8986666666667 251.2213333333333 234.6666666666667 245.3333333333333 234.6666666666667zM234.6666666666667 21.3333333333333H21.3333333333333V213.3333333333334H64V192H85.3333333333333V213.3333333333334H117.3333333333333V192H138.6666666666667V213.3333333333334H170.6666666666667V192H192V213.3333333333334H234.6666666666667V21.3333333333333z M158.3786666666667 144.32C156.7146666666667 146.9866666666667 153.952 148.7786666666667 150.848 149.2266666666667C147.744 149.6853333333334 144.5973333333334 148.7253333333333 142.24 146.6453333333333L46.24 61.312C42.9333333333333 58.368 41.792 53.6853333333333 43.36 49.5466666666667S48.9066666666667 42.6666666666667 53.3333333333333 42.6666666666667H202.6666666666666C206.5493333333333 42.6666666666667 210.112 44.768 212 48.16S213.7706666666667 55.7013333333334 211.7226666666667 58.9866666666667L158.3786666666667 144.32z M53.3333333333333 144C53.3333333333333 135.1634440027073 60.4967773360406 128 69.3333333333333 128C78.169889330626 128 85.3333333333333 135.1634440027073 85.3333333333333 144C85.3333333333333 152.8365559972927 78.169889330626 160 69.3333333333333 160C60.4967773360406 160 53.3333333333333 152.8365559972927 53.3333333333333 144z" />
    <glyph glyph-name="align-center"
      unicode="&#xEA05;"
      horiz-adv-x="256" d=" M245.3333333333333 213.3333333333334H10.6666666666667C4.776 213.3333333333334 0 218.1093333333333 0 224S4.776 234.6666666666667 10.6666666666667 234.6666666666667H245.3333333333333C251.224 234.6666666666667 256 229.8906666666667 256 224S251.224 213.3333333333334 245.3333333333333 213.3333333333334z M192 149.3333333333334H64C58.1093333333333 149.3333333333334 53.3333333333333 154.1093333333333 53.3333333333333 160S58.1093333333333 170.6666666666667 64 170.6666666666667H192C197.8906666666667 170.6666666666667 202.6666666666667 165.8906666666667 202.6666666666667 160S197.8906666666667 149.3333333333334 192 149.3333333333334z M245.3333333333333 85.3333333333333H10.6666666666667C4.776 85.3333333333333 0 90.1093333333334 0 96S4.776 106.6666666666667 10.6666666666667 106.6666666666667H245.3333333333333C251.224 106.6666666666667 256 101.8906666666667 256 96S251.224 85.3333333333333 245.3333333333333 85.3333333333333z M192 21.3333333333333H64C58.1093333333333 21.3333333333333 53.3333333333333 26.1093333333334 53.3333333333333 32S58.1093333333333 42.6666666666667 64 42.6666666666667H192C197.8906666666667 42.6666666666667 202.6666666666667 37.8906666666666 202.6666666666667 32S197.8906666666667 21.3333333333333 192 21.3333333333333z" />
    <glyph glyph-name="align-left-2"
      unicode="&#xEA06;"
      horiz-adv-x="256" d=" M245.3333333333333 213.3333333333334H10.6666666666667C4.776 213.3333333333334 0 218.1093333333333 0 224S4.776 234.6666666666667 10.6666666666667 234.6666666666667H245.3333333333333C251.224 234.6666666666667 256 229.8906666666667 256 224S251.224 213.3333333333334 245.3333333333333 213.3333333333334z M138.6666666666667 149.3333333333334H10.6666666666667C4.776 149.3333333333334 0 154.1093333333333 0 160S4.776 170.6666666666667 10.6666666666667 170.6666666666667H138.6666666666667C144.5573333333333 170.6666666666667 149.3333333333333 165.8906666666667 149.3333333333333 160S144.5573333333333 149.3333333333334 138.6666666666667 149.3333333333334z M245.3333333333333 85.3333333333333H10.6666666666667C4.776 85.3333333333333 0 90.1093333333334 0 96S4.776 106.6666666666667 10.6666666666667 106.6666666666667H245.3333333333333C251.224 106.6666666666667 256 101.8906666666667 256 96S251.224 85.3333333333333 245.3333333333333 85.3333333333333z M138.6666666666667 21.3333333333333H10.6666666666667C4.776 21.3333333333333 0 26.1093333333334 0 32S4.776 42.6666666666667 10.6666666666667 42.6666666666667H138.6666666666667C144.5573333333333 42.6666666666667 149.3333333333333 37.8906666666666 149.3333333333333 32S144.5573333333333 21.3333333333333 138.6666666666667 21.3333333333333z" />
    <glyph glyph-name="ambulance"
      unicode="&#xEA07;"
      horiz-adv-x="256" d=" M249.6 126.9333333333333L234.6666666666667 134.4V170.6666666666667C234.6666666666667 177.0666666666667 230.4 181.3333333333334 224 181.3333333333334H170.6666666666667V213.3333333333334C170.6666666666667 219.7333333333334 166.4 224 160 224H10.6666666666667C4.2666666666667 224 0 219.7333333333334 0 213.3333333333334V74.6666666666667C0 68.2666666666667 4.2666666666667 64 10.6666666666667 64H22.4C26.6666666666667 45.8666666666667 43.7333333333333 32 64 32S100.2666666666667 45.8666666666667 105.6 64H150.4C152.5333333333333 45.8666666666667 168.5333333333333 32 186.6666666666666 32S220.8 45.8666666666667 222.9333333333333 64H245.3333333333333C251.7333333333333 64 256 68.2666666666667 256 74.6666666666667V117.3333333333334C256 121.6 253.8666666666667 124.8 249.6 126.9333333333333zM64 53.3333333333333C52.2666666666667 53.3333333333333 42.6666666666667 62.9333333333333 42.6666666666667 74.6666666666667C42.6666666666667 86.4 52.2666666666667 96 64 96S85.3333333333333 86.4 85.3333333333333 74.6666666666667C85.3333333333333 62.9333333333333 75.7333333333333 53.3333333333333 64 53.3333333333333zM117.3333333333333 149.3333333333334H96V128H74.6666666666667V149.3333333333334H53.3333333333333V170.6666666666667H74.6666666666667V192H96V170.6666666666667H117.3333333333333V149.3333333333334zM186.6666666666667 53.3333333333333C178.1333333333333 53.3333333333333 170.6666666666667 60.8 170.6666666666667 69.3333333333333S178.1333333333333 85.3333333333333 186.6666666666667 85.3333333333333S202.6666666666667 77.8666666666667 202.6666666666667 69.3333333333333S195.2 53.3333333333333 186.6666666666667 53.3333333333333zM213.3333333333333 144C213.3333333333333 140.8 211.2 138.6666666666667 208 138.6666666666667H186.6666666666666C183.4666666666667 138.6666666666667 181.3333333333333 140.8 181.3333333333333 144V154.6666666666667C181.3333333333333 157.8666666666667 183.4666666666667 160 186.6666666666667 160H208C211.2 160 213.3333333333333 157.8666666666667 213.3333333333333 154.6666666666667V144z" />
    <glyph glyph-name="app"
      unicode="&#xEA08;"
      horiz-adv-x="256" d=" M128 161.0666666666667L222.9333333333333 203.7333333333333L132.2666666666667 244.2666666666667C129.0666666666667 245.3333333333333 125.8666666666667 245.3333333333333 123.7333333333334 244.2666666666667L33.0666666666667 203.7333333333334L128 161.0666666666667z M138.6666666666667 142.9333333333333V14.9333333333333L228.2666666666667 54.4C232.5333333333334 56.5333333333333 234.6666666666667 59.7333333333334 234.6666666666667 64V185.6L138.6666666666667 142.9333333333333z M117.3333333333333 142.9333333333333L21.3333333333333 185.6V64C21.3333333333333 59.7333333333333 23.4666666666667 55.4666666666667 27.7333333333333 54.4L117.3333333333333 14.9333333333333V142.9333333333333z" />
    <glyph glyph-name="archive-2"
      unicode="&#xEA09;"
      horiz-adv-x="256" d=" M224 170.6666666666667H32C26.112 170.6666666666667 21.3333333333333 165.8986666666667 21.3333333333333 160V10.6666666666667C21.3333333333333 4.768 26.112 0 32 0H224C229.888 0 234.6666666666667 4.768 234.6666666666667 10.6666666666667V160C234.6666666666667 165.8986666666667 229.888 170.6666666666667 224 170.6666666666667zM181.3333333333333 96C181.3333333333333 90.1013333333333 176.5546666666667 85.3333333333333 170.6666666666667 85.3333333333333H85.3333333333333C79.4453333333333 85.3333333333333 74.6666666666667 90.1013333333333 74.6666666666667 96V128H96V106.6666666666667H160V128H181.3333333333334V96z M42.6666666666667 213.3333333333334H213.3333333333333V192H42.6666666666667V213.3333333333333z M74.6666666666667 256H181.3333333333333V234.6666666666667H74.6666666666667V256z" />
    <glyph glyph-name="atom"
      unicode="&#xEA0A;"
      horiz-adv-x="256" d=" M235.7973333333334 197.0133333333333C229.6106666666667 206.6666666666667 214.784 216.5013333333333 179.264 208.5546666666667C176.5546666666667 207.9466666666667 173.7706666666667 207.2213333333334 170.9546666666667 206.432C162.1226666666667 235.6053333333334 147.7013333333333 256 128 256C109.8026666666667 256 94.7946666666667 238.3786666666667 85.0986666666667 206.336C57.1413333333333 214.208 31.2426666666667 214.272 20.2133333333333 197.0133333333333C14.0266666666667 187.3493333333333 11.2853333333333 169.76 33.3866666666667 140.8426666666667C36.64 136.5866666666667 40.352 132.2986666666667 44.3413333333333 128C40.352 123.7013333333334 36.64 119.4133333333333 33.3866666666667 115.1466666666667C11.2853333333333 86.2293333333333 14.0266666666667 68.64 20.2133333333333 58.976C26.3786666666667 49.344 37.7173333333333 44.4906666666667 53.312 44.4906666666667C62.4746666666667 44.4906666666667 73.1413333333333 46.208 85.0666666666667 49.568C93.472 21.6533333333334 107.3813333333333 0 128 0C147.7013333333334 0 162.1226666666667 20.3946666666667 170.9653333333333 49.5786666666667C173.7813333333333 48.7893333333333 176.5546666666667 48.064 179.2746666666667 47.456C199.4133333333333 42.944 224.7253333333333 41.6533333333333 235.7973333333333 58.9973333333333C246.3893333333333 75.5306666666667 237.5786666666667 99.7546666666667 211.4133333333333 127.712C233.8666666666667 151.6693333333333 247.9893333333333 177.9733333333333 235.7973333333334 197.0133333333333zM217.8346666666667 185.5146666666667C222.5386666666667 178.1653333333333 211.5093333333333 155.008 181.3333333333333 128.192C181.3226666666666 147.9466666666667 179.5413333333333 167.7653333333333 176.0426666666667 185.696C185.952 188.5226666666667 212.2986666666666 194.144 217.8346666666667 185.5146666666667zM74.8586666666667 128C97.76 148.288 127.392 166.9546666666667 155.6053333333333 178.528C161.2906666666667 147.6586666666667 161.632 110.2293333333333 155.6053333333333 77.472C127.4133333333333 89.0346666666667 97.7813333333333 107.7013333333333 74.8586666666667 128zM128 234.6666666666667C134.9973333333333 234.6666666666667 143.9573333333334 221.76 150.6133333333334 199.5413333333334C143.2213333333333 196.6186666666667 135.6373333333333 193.1626666666667 128 189.312C120.672 192.992 113.024 196.4373333333334 105.28 199.4773333333334C112.9173333333333 224.992 122.752 234.6666666666667 128 234.6666666666667zM38.176 185.5146666666667C42.7626666666667 192.704 68.3306666666667 192.5226666666667 105.12 176.5226666666667C88.3626666666667 166.272 73.504 155.392 59.584 142.9226666666667C51.6693333333333 151.52 32 175.8933333333334 38.176 185.5146666666667zM38.1653333333333 70.4853333333334C32.0106666666667 80.1066666666667 51.648 104.4586666666667 59.584 113.0773333333334C64.704 108.4906666666667 70.1653333333333 103.968 75.9146666666667 99.5413333333333C76.768 89.8666666666667 78.1013333333333 80 79.9893333333333 70.368C54.3893333333333 63.04 40.992 66.1013333333333 38.1653333333333 70.4853333333334zM128 21.3333333333333C119.2746666666667 21.3333333333333 105.696 43.1146666666667 99.392 82.9973333333333C116.5013333333333 72.0533333333333 134.0053333333334 63.0186666666667 150.6133333333333 56.4586666666667C143.9573333333334 34.24 134.9973333333333 21.3333333333333 128 21.3333333333333zM217.824 70.4853333333334C212.32 61.824 185.92 67.488 176.0426666666667 70.2933333333334C177.856 79.6053333333334 179.1573333333333 89.44 180.0426666666667 99.488C185.504 103.7013333333334 190.9226666666667 108.1706666666667 196.1493333333333 112.8533333333334C217.1093333333333 90.3253333333333 220.9386666666667 75.3386666666667 217.824 70.4853333333334z M117.3333333333333 128C117.3333333333333 122.1089626684716 122.1089626684715 117.3333333333334 128 117.3333333333334C133.8910373315285 117.3333333333334 138.6666666666667 122.1089626684716 138.6666666666667 128C138.6666666666667 133.8910373315285 133.8910373315285 138.6666666666667 128 138.6666666666667C122.1089626684715 138.6666666666667 117.3333333333333 133.8910373315285 117.3333333333333 128z" />
    <glyph glyph-name="badge"
      unicode="&#xEA0B;"
      horiz-adv-x="256" d=" M149.3333333333333 181.3333333333334H106.6666666666667V234.6666666666667C106.6666666666667 246.4533333333333 116.2133333333333 256 128 256H128C139.7866666666667 256 149.3333333333333 246.4533333333333 149.3333333333333 234.6666666666667V181.3333333333334z M245.3333333333333 202.6666666666667H170.6666666666667V160H85.3333333333333V202.6666666666667H10.6666666666667C4.7786666666667 202.6666666666667 0 197.888 0 192V10.6666666666667C0 4.7786666666667 4.7786666666667 0 10.6666666666667 0H245.3333333333333C251.2213333333333 0 256 4.7786666666667 256 10.6666666666667V192C256 197.888 251.2213333333333 202.6666666666667 245.3333333333333 202.6666666666667zM85.3333333333333 128C97.12 128 106.6666666666667 118.4533333333333 106.6666666666667 106.6666666666667C106.6666666666667 94.88 97.12 85.3333333333333 85.3333333333333 85.3333333333333S64 94.88 64 106.6666666666667C64 118.4533333333334 73.5466666666667 128 85.3333333333333 128zM42.6666666666667 42.6666666666667C42.6666666666667 60.3413333333334 56.992 74.6666666666667 74.6666666666667 74.6666666666667H96C113.6746666666667 74.6666666666667 128 60.3413333333334 128 42.6666666666667H42.6666666666667zM213.3333333333333 53.3333333333333H149.3333333333333V74.6666666666667H213.3333333333333V53.3333333333333zM213.3333333333333 96H149.3333333333333V117.3333333333334H213.3333333333333V96z" />
    <glyph glyph-name="bag-17"
      unicode="&#xEA0C;"
      horiz-adv-x="256" d=" M213.3333333333333 256H42.6666666666667C24.5333333333333 256 10.6666666666667 242.1333333333334 10.6666666666667 224V10.6666666666667C10.6666666666667 4.2666666666667 14.9333333333333 0 21.3333333333333 0H234.6666666666667C241.0666666666667 0 245.3333333333333 4.2666666666667 245.3333333333333 10.6666666666667V224C245.3333333333333 242.1333333333334 231.4666666666667 256 213.3333333333333 256zM128 85.3333333333333C92.8 85.3333333333333 64 114.1333333333334 64 149.3333333333334C64 155.7333333333334 68.2666666666667 160 74.6666666666667 160S85.3333333333333 155.7333333333334 85.3333333333333 149.3333333333334C85.3333333333333 125.8666666666667 104.5333333333334 106.6666666666667 128 106.6666666666667S170.6666666666667 125.8666666666667 170.6666666666667 149.3333333333334C170.6666666666667 155.7333333333334 174.9333333333333 160 181.3333333333333 160S192 155.7333333333334 192 149.3333333333334C192 114.1333333333333 163.2 85.3333333333333 128 85.3333333333333zM213.3333333333333 213.3333333333334H42.6666666666667C36.2666666666667 213.3333333333334 32 217.6 32 224S36.2666666666667 234.6666666666667 42.6666666666667 234.6666666666667H213.3333333333333C219.7333333333333 234.6666666666667 224 230.4 224 224S219.7333333333334 213.3333333333334 213.3333333333333 213.3333333333334z" />
    <glyph glyph-name="basket"
      unicode="&#xEA0D;"
      horiz-adv-x="256" d=" M245.3333333333333 181.3333333333334H208.8533333333333L169.2586666666667 250.624C166.3466666666667 255.7333333333334 159.8293333333334 257.5253333333333 154.7093333333334 254.592C149.6 251.6693333333334 147.8186666666667 245.152 150.7413333333334 240.0426666666667L184.288 181.3333333333334H71.712L105.2586666666667 240.0426666666667C108.1813333333333 245.152 106.4 251.6693333333334 101.2906666666667 254.592C96.1813333333333 257.5253333333333 89.664 255.7333333333334 86.7413333333333 250.624L47.1466666666667 181.3333333333334H10.6666666666667C4.7786666666667 181.3333333333334 0 176.5653333333334 0 170.6666666666667V149.3333333333334C0 143.4346666666667 4.7786666666667 138.6666666666667 10.6666666666667 138.6666666666667H245.3333333333333C251.2213333333333 138.6666666666667 256 143.4346666666667 256 149.3333333333334V170.6666666666667C256 176.5653333333334 251.2213333333333 181.3333333333334 245.3333333333333 181.3333333333334z M234.6666666666667 117.3333333333334H21.3333333333333V10.6666666666667C21.3333333333333 4.7786666666667 26.112 0 32 0H224C229.888 0 234.6666666666667 4.7786666666667 234.6666666666667 10.6666666666667V117.3333333333334zM96 32H74.6666666666667L74.6666666666667 85.3333333333333H96L96 32zM138.6666666666667 32H117.3333333333333L117.3333333333333 85.3333333333333H138.6666666666667L138.6666666666667 32zM181.3333333333333 32H160L160 85.3333333333333H181.3333333333333L181.3333333333333 32z" />
    <glyph glyph-name="bell-55"
      unicode="&#xEA0E;"
      horiz-adv-x="256" d=" M202.6666666666667 138.6666666666667C202.6666666666667 155.7333333333334 202.6666666666667 170.6666666666667 202.6666666666667 170.6666666666667C202.6666666666667 212.2666666666667 169.6 245.3333333333333 128 245.3333333333333S53.3333333333333 212.2666666666667 53.3333333333333 170.6666666666667C53.3333333333333 170.6666666666667 53.3333333333333 155.7333333333334 53.3333333333333 138.6666666666667C53.3333333333333 103.4666666666667 21.3333333333333 94.9333333333333 21.3333333333333 74.6666666666667C21.3333333333333 56.5333333333334 62.9333333333333 42.6666666666667 128 42.6666666666667S234.6666666666667 56.5333333333334 234.6666666666667 74.6666666666667C234.6666666666667 94.9333333333333 202.6666666666667 103.4666666666667 202.6666666666667 138.6666666666667z M128 21.3333333333333C114.1333333333333 21.3333333333333 102.4 22.4 90.6666666666667 23.4666666666667C98.1333333333333 9.6 112 0 128 0S158.9333333333333 9.6 165.3333333333333 23.4666666666667C153.6 22.4 141.8666666666667 21.3333333333333 128 21.3333333333333z" />
    <glyph glyph-name="bold-down"
      unicode="&#xEA0F;"
      horiz-adv-x="256" d=" M21.3333333333333 160L64 202.6666666666667L128 138.6666666666667L192 202.6666666666667L234.6666666666667 160L128 53.3333333333333z" />
    <glyph glyph-name="bold-left"
      unicode="&#xEA10;"
      horiz-adv-x="256" d=" M160 234.6666666666667L202.6666666666667 192L138.6666666666667 128L202.6666666666667 64L160 21.3333333333333L53.3333333333333 128z" />
    <glyph glyph-name="bold-right"
      unicode="&#xEA11;"
      horiz-adv-x="256" d=" M96 234.6666666666667L53.3333333333333 192L117.3333333333333 128L53.3333333333333 64L96 21.3333333333333L202.6666666666667 128z" />
    <glyph glyph-name="bold-up"
      unicode="&#xEA12;"
      horiz-adv-x="256" d=" M234.6666666666667 96L192 53.3333333333333L128 117.3333333333334L64 53.3333333333333L21.3333333333333 96L128 202.6666666666667z" />
    <glyph glyph-name="bold"
      unicode="&#xEA13;"
      horiz-adv-x="256" d=" M32 10.6666666666667V35.9504L45.86976 40.3169066666667C50.312 41.71552 53.3333333333333 45.83424 53.3333333333333 50.4913066666667V205.2781866666667C53.3333333333333 210.0450133333334 50.17056 214.23328 45.5856 215.5377066666667L32 219.4029866666667V245.3333333333334H139.8369066666667C195.2605866666667 245.3333333333334 210.81888 220.0496 210.81888 187.9698133333333C210.81888 157.1700266666667 191.0510933333333 139.9886933333334 171.2833066666667 133.50944V132.5461333333333C208.2324266666667 128.3233066666667 224 107.0763733333334 224 74.6666666666667C224 26.6987733333334 187.8048 10.6666666666667 136.9205333333334 10.6666666666667H32zM119.0925866666667 146.7978666666667C142.42336 146.7978666666667 163.16768 152.3138133333333 163.16768 179.8673066666667C163.16768 206.4442666666667 146.3162666666667 210.0072533333333 123.9488 210.0072533333333H106.6666666666667V146.7978666666667H119.0925866666667zM128.4882133333333 45.6759466666667C155.7117866666666 45.6759466666667 173.5397333333333 52.1552 173.5397333333333 80.3553066666667C173.5397333333333 107.2621866666667 155.3950933333333 114.38816 133.3575466666666 114.38816H106.6666666666667V45.6759466666667H128.4882133333333z" />
    <glyph glyph-name="book-bookmark"
      unicode="&#xEA14;"
      horiz-adv-x="256" d=" M42.6666666666667 32C42.6666666666667 37.888 47.4453333333333 42.6666666666667 53.3333333333333 42.6666666666667H213.3333333333333C225.12 42.6666666666667 234.6666666666667 52.2133333333333 234.6666666666667 64V224C234.6666666666667 241.6746666666667 220.3413333333333 256 202.6666666666667 256H128V170.6666666666667L96 192L64 170.6666666666667V256H53.3333333333333C35.6586666666667 256 21.3333333333333 241.6746666666667 21.3333333333333 224V32C21.3333333333333 14.3253333333333 35.6586666666667 0 53.3333333333333 0H224C229.888 0 234.6666666666667 4.7786666666667 234.6666666666667 10.6666666666667C234.6666666666667 16.5546666666667 229.888 21.3333333333333 224 21.3333333333333H53.3333333333333C47.4453333333333 21.3333333333333 42.6666666666667 26.112 42.6666666666667 32z" />
    <glyph glyph-name="books"
      unicode="&#xEA15;"
      horiz-adv-x="256" d=" M53.3333333333333 234.6666666666667H10.6666666666667C4.7786666666667 234.6666666666667 0 229.8986666666667 0 224V32C0 26.1013333333333 4.7786666666667 21.3333333333333 10.6666666666667 21.3333333333333H53.3333333333333C59.2213333333333 21.3333333333333 64 26.1013333333333 64 32V224C64 229.8986666666667 59.2213333333333 234.6666666666667 53.3333333333333 234.6666666666667z M138.6666666666667 234.6666666666667H96C90.112 234.6666666666667 85.3333333333333 229.8986666666667 85.3333333333333 224V32C85.3333333333333 26.1013333333333 90.112 21.3333333333333 96 21.3333333333333H138.6666666666667C144.5546666666667 21.3333333333333 149.3333333333333 26.1013333333333 149.3333333333333 32V224C149.3333333333333 229.8986666666667 144.5546666666667 234.6666666666667 138.6666666666667 234.6666666666667z M255.7013333333334 44.5546666666667L210.5173333333334 231.1573333333334C209.1306666666667 236.8853333333334 203.3173333333334 240.4373333333334 197.6426666666667 239.008L156.1706666666667 228.9813333333334C153.4186666666667 228.32 151.0506666666667 226.5813333333334 149.5786666666667 224.1706666666667C148.1066666666667 221.76 147.648 218.8586666666667 148.3093333333334 216.1066666666667L193.4826666666667 29.4933333333333C194.1440000000001 26.7413333333333 195.8826666666667 24.3733333333333 198.2933333333334 22.9013333333333C200 21.8666666666667 201.92 21.3333333333333 203.8613333333333 21.3333333333333C204.704 21.3333333333333 205.5466666666667 21.44 206.368 21.632L247.84 31.6693333333333C253.568 33.0666666666667 257.088 38.8266666666667 255.7013333333334 44.5546666666667z" />
    <glyph glyph-name="box-2"
      unicode="&#xEA16;"
      horiz-adv-x="256" d=" M167.4666666666667 202.6666666666667H249.6L188.8 253.8666666666667C186.6666666666667 254.9333333333334 183.4666666666667 256 181.3333333333333 256H147.2L167.4666666666667 202.6666666666667z M170.6666666666667 181.3333333333334V106.6666666666667H85.3333333333333V181.3333333333334H0V10.6666666666667C0 4.2666666666667 4.2666666666667 0 10.6666666666667 0H245.3333333333333C251.7333333333333 0 256 4.2666666666667 256 10.6666666666667V181.3333333333334H170.6666666666667z M88.5333333333333 202.6666666666667L108.8 256H74.6666666666667C72.5333333333333 256 69.3333333333333 254.9333333333334 68.2666666666667 253.8666666666667L6.4 202.6666666666667H88.5333333333333z" />
    <glyph glyph-name="briefcase-24"
      unicode="&#xEA17;"
      horiz-adv-x="256" d=" M160 64V42.6666666666667H96V64H10.6666666666667V10.6666666666667C10.6666666666667 4.7786666666667 15.4453333333333 0 21.3333333333333 0H234.6666666666667C240.5546666666667 0 245.3333333333333 4.7786666666667 245.3333333333333 10.6666666666667V64H160z M245.3333333333333 213.3333333333334H181.3333333333333V245.3333333333334C181.3333333333333 251.2213333333334 176.5546666666667 256 170.6666666666667 256H85.3333333333333C79.4453333333333 256 74.6666666666667 251.2213333333334 74.6666666666667 245.3333333333334V213.3333333333334H10.6666666666667C4.7786666666667 213.3333333333334 0 208.5546666666667 0 202.6666666666667V96C0 90.112 4.7786666666667 85.3333333333333 10.6666666666667 85.3333333333333H96V117.3333333333334H160V85.3333333333333H245.3333333333333C251.2213333333333 85.3333333333333 256 90.112 256 96V202.6666666666667C256 208.5546666666667 251.2213333333333 213.3333333333334 245.3333333333333 213.3333333333334zM160 213.3333333333334H96V234.6666666666667H160V213.3333333333334z" />
    <glyph glyph-name="building"
      unicode="&#xEA18;"
      horiz-adv-x="256" d=" M74.6666666666667 149.3333333333334H53.3333333333333V245.3333333333334C53.3333333333333 251.232 58.1013333333333 256 64 256H192C197.8986666666667 256 202.6666666666667 251.232 202.6666666666667 245.3333333333334V181.3333333333333H181.3333333333333V234.6666666666667H74.6666666666667V149.3333333333334z M245.3333333333333 170.6666666666667H149.3333333333333C143.4346666666667 170.6666666666667 138.6666666666667 165.8986666666667 138.6666666666667 160V21.3333333333333H117.3333333333333V117.3333333333334C117.3333333333333 123.232 112.5653333333333 128 106.6666666666667 128H10.6666666666667C4.768 128 0 123.232 0 117.3333333333334V10.6666666666667C0 4.768 4.768 0 10.6666666666667 0H245.3333333333333C251.232 0 256 4.768 256 10.6666666666667V160C256 165.8986666666667 251.232 170.6666666666667 245.3333333333333 170.6666666666667zM74.6666666666667 32H42.6666666666667V53.3333333333333H74.6666666666667V32zM74.6666666666667 74.6666666666667H42.6666666666667V96H74.6666666666667V74.6666666666667zM213.3333333333333 32H181.3333333333333V53.3333333333333H213.3333333333333V32zM213.3333333333333 74.6666666666667H181.3333333333333V96H213.3333333333333V74.6666666666667zM213.3333333333333 117.3333333333334H181.3333333333333V138.6666666666667H213.3333333333333V117.3333333333334z" />
    <glyph glyph-name="bulb-61"
      unicode="&#xEA19;"
      horiz-adv-x="256" d=" M85.3333333333333 74.0266666666667V42.6666666666667H170.6666666666667V74.0266666666667C203.296 90.1760000000001 224 123.168 224 160C224 212.9386666666667 180.928 256 128 256S32 212.9386666666667 32 160C32 123.1786666666667 52.704 90.176 85.3333333333333 74.0266666666667zM74.6666666666667 160C74.6666666666667 189.408 98.592 213.3333333333333 128 213.3333333333333H138.6666666666667V192H128C110.3573333333333 192 96 177.6426666666667 96 160V149.3333333333333H74.6666666666667V160z M85.3333333333333 21.3333333333333V10.6666666666667C85.3333333333333 4.768 90.112 0 96 0H160C165.888 0 170.6666666666667 4.768 170.6666666666667 10.6666666666667V21.3333333333333H85.3333333333333z" />
    <glyph glyph-name="bullet-list-67"
      unicode="&#xEA1A;"
      horiz-adv-x="256" d=" M10.6666666666667 213.3333333333334C10.6666666666667 195.6602213387479 24.9935546720813 181.3333333333334 42.6666666666667 181.3333333333334C60.3397786612521 181.3333333333334 74.6666666666667 195.6602213387479 74.6666666666667 213.3333333333334C74.6666666666667 231.0064453279188 60.3397786612521 245.3333333333334 42.6666666666667 245.3333333333334C24.9935546720813 245.3333333333334 10.6666666666667 231.0064453279188 10.6666666666667 213.3333333333334z M10.6666666666667 128C10.6666666666667 110.3268880054146 24.9935546720813 96 42.6666666666667 96C60.3397786612521 96 74.6666666666667 110.3268880054146 74.6666666666667 128C74.6666666666667 145.6731119945854 60.3397786612521 160 42.6666666666667 160C24.9935546720813 160 10.6666666666667 145.6731119945854 10.6666666666667 128z M10.6666666666667 42.6666666666667C10.6666666666667 24.9935546720813 24.9935546720813 10.6666666666667 42.6666666666667 10.6666666666667C60.3397786612521 10.6666666666667 74.6666666666667 24.9935546720813 74.6666666666667 42.6666666666667C74.6666666666667 60.3397786612521 60.3397786612521 74.6666666666667 42.6666666666667 74.6666666666667C24.9935546720813 74.6666666666667 10.6666666666667 60.3397786612521 10.6666666666667 42.6666666666667z M96 224H245.3333333333333V202.6666666666667H96V224z M96 138.6666666666667H245.3333333333333V117.3333333333334H96V138.6666666666667z M96 53.3333333333333H245.3333333333333V32H96V53.3333333333333z" />
    <glyph glyph-name="bus-front-12"
      unicode="&#xEA1B;"
      horiz-adv-x="256" d=" M42.6666666666667 21.3333333333333V10.6666666666667C42.6666666666667 4.7786666666667 47.4346666666667 0 53.3333333333333 0H85.3333333333333C91.232 0 96 4.7786666666667 96 10.6666666666667V21.3333333333333H42.6666666666667z M160 21.3333333333333V10.6666666666667C160 4.7786666666667 164.768 0 170.6666666666667 0H202.6666666666667C208.5653333333333 0 213.3333333333333 4.7786666666667 213.3333333333333 10.6666666666667V21.3333333333333H160z M0 170.6666666666667H21.3333333333333V117.3333333333334H0V170.6666666666667z M234.6666666666667 170.6666666666667H256V117.3333333333334H234.6666666666667V170.6666666666667z M192 256H64C46.3573333333333 256 32 241.6426666666667 32 224V42.6666666666667C32 36.7786666666667 36.7786666666667 32 42.6666666666667 32H213.3333333333333C219.2213333333333 32 224 36.7786666666667 224 42.6666666666667V224C224 241.6426666666667 209.6426666666667 256 192 256zM74.6666666666667 64C68.7786666666667 64 64 68.7786666666667 64 74.6666666666667C64 80.5546666666667 68.7786666666667 85.3333333333333 74.6666666666667 85.3333333333333S85.3333333333333 80.5546666666667 85.3333333333333 74.6666666666667C85.3333333333333 68.7786666666667 80.5546666666667 64 74.6666666666667 64zM181.3333333333333 64C175.4453333333333 64 170.6666666666667 68.7786666666667 170.6666666666667 74.6666666666667C170.6666666666667 80.5546666666667 175.4453333333334 85.3333333333333 181.3333333333333 85.3333333333333S192 80.5546666666667 192 74.6666666666667C192 68.7786666666667 187.2213333333333 64 181.3333333333333 64zM202.6666666666667 117.3333333333334H53.3333333333333V213.3333333333334H202.6666666666666V117.3333333333334z" />
    <glyph glyph-name="button-pause"
      unicode="&#xEA1C;"
      horiz-adv-x="256" d=" M96 245.3333333333334H32C26.1013333333333 245.3333333333334 21.3333333333333 240.5653333333334 21.3333333333333 234.6666666666667V21.3333333333333C21.3333333333333 15.4346666666667 26.1013333333333 10.6666666666667 32 10.6666666666667H96C101.8986666666667 10.6666666666667 106.6666666666667 15.4346666666667 106.6666666666667 21.3333333333333V234.6666666666667C106.6666666666667 240.5653333333334 101.8986666666667 245.3333333333334 96 245.3333333333334z M224 245.3333333333334H160C154.1013333333334 245.3333333333334 149.3333333333334 240.5653333333334 149.3333333333334 234.6666666666667V21.3333333333333C149.3333333333334 15.4346666666667 154.1013333333334 10.6666666666667 160 10.6666666666667H224C229.8986666666667 10.6666666666667 234.6666666666667 15.4346666666667 234.6666666666667 21.3333333333333V234.6666666666667C234.6666666666667 240.5653333333334 229.8986666666667 245.3333333333334 224 245.3333333333334z" />
    <glyph glyph-name="button-play"
      unicode="&#xEA1D;"
      horiz-adv-x="256" d=" M219.2533333333333 136.8746666666667L59.2533333333333 243.5413333333334C55.9786666666667 245.7173333333334 51.7653333333333 245.9306666666667 48.3093333333333 244.0746666666667C44.832 242.2186666666667 42.6666666666667 238.6026666666667 42.6666666666667 234.6666666666667V21.3333333333333C42.6666666666667 17.3973333333333 44.832 13.7813333333334 48.2986666666667 11.9253333333334C49.8773333333333 11.0826666666667 51.6053333333333 10.6666666666667 53.3333333333333 10.6666666666667C55.4026666666667 10.6666666666667 57.472 11.2746666666667 59.2533333333333 12.4586666666667L219.2533333333333 119.1253333333334C222.2186666666667 121.1093333333333 224 124.4373333333334 224 128S222.2186666666667 134.8906666666667 219.2533333333333 136.8746666666667z" />
    <glyph glyph-name="button-power"
      unicode="&#xEA1E;"
      horiz-adv-x="256" d=" M186.6346666666667 218.9866666666667C181.536 221.9306666666667 175.008 220.192 172.064 215.0826666666667C169.12 209.984 170.8693333333333 203.456 175.968 200.512C205.5893333333334 183.3813333333334 224 151.5093333333334 224 117.3333333333334C224 64.3946666666667 180.9386666666667 21.3333333333333 128 21.3333333333333S32 64.3946666666667 32 117.3333333333334C32 151.4986666666667 50.4 183.36 80.0106666666667 200.5013333333333C85.1093333333333 203.4453333333334 86.8586666666667 209.9733333333333 83.8933333333333 215.072C80.96 220.1813333333333 74.432 221.9413333333333 69.3226666666667 218.9546666666667C33.1413333333333 198.0266666666667 10.6666666666667 159.0826666666667 10.6666666666667 117.3333333333334C10.6666666666667 52.64 63.3066666666667 0 128 0S245.3333333333333 52.64 245.3333333333333 117.3333333333333C245.3333333333333 159.104 222.848 198.0586666666667 186.6346666666667 218.9866666666667z M128 160C133.8986666666667 160 138.6666666666667 164.768 138.6666666666667 170.6666666666667V245.3333333333334C138.6666666666667 251.232 133.8986666666667 256 128 256S117.3333333333333 251.232 117.3333333333333 245.3333333333334V170.6666666666667C117.3333333333333 164.768 122.1013333333333 160 128 160z" />
    <glyph glyph-name="calendar-grid-58"
      unicode="&#xEA1F;"
      horiz-adv-x="256" d=" M245.3333333333333 234.6666666666667H202.6666666666667V256H181.3333333333333V234.6666666666667H138.6666666666667V256H117.3333333333333V234.6666666666667H74.6666666666667V256H53.3333333333333V234.6666666666667H10.6666666666667C4.7786666666667 234.6666666666667 0 229.888 0 224V10.6666666666667C0 4.7786666666667 4.7786666666667 0 10.6666666666667 0H245.3333333333333C251.2213333333333 0 256 4.7786666666667 256 10.6666666666667V224C256 229.888 251.2213333333333 234.6666666666667 245.3333333333333 234.6666666666667zM234.6666666666667 21.3333333333333H21.3333333333333V170.6666666666667H234.6666666666667V21.3333333333333z M42.6666666666667 138.6666666666667H85.3333333333333V106.6666666666667H42.6666666666667V138.6666666666667z M106.6666666666667 138.6666666666667H149.3333333333333V106.6666666666667H106.6666666666667V138.6666666666667z M42.6666666666667 85.3333333333333H85.3333333333333V53.3333333333333H42.6666666666667V85.3333333333333z M106.6666666666667 85.3333333333333H149.3333333333333V53.3333333333333H106.6666666666667V85.3333333333333z M170.6666666666667 138.6666666666667H213.3333333333333V106.6666666666667H170.6666666666667V138.6666666666667z" />
    <glyph glyph-name="camera-compact"
      unicode="&#xEA20;"
      horiz-adv-x="256" d=" M32 245.3333333333334H96V224H32V245.3333333333334z M245.3333333333333 213.3333333333334H10.6666666666667C4.768 213.3333333333334 0 208.5546666666667 0 202.6666666666667V21.3333333333334C0 15.4453333333334 4.768 10.6666666666667 10.6666666666667 10.6666666666667H245.3333333333333C251.232 10.6666666666667 256 15.4453333333334 256 21.3333333333334V202.6666666666667C256 208.5546666666667 251.232 213.3333333333334 245.3333333333333 213.3333333333334zM64 138.6666666666667C58.112 138.6666666666667 53.3333333333333 143.4453333333334 53.3333333333333 149.3333333333334C53.3333333333333 155.2213333333334 58.112 160 64 160S74.6666666666667 155.2213333333334 74.6666666666667 149.3333333333334C74.6666666666667 143.4453333333334 69.888 138.6666666666667 64 138.6666666666667zM160 53.3333333333333C130.5493333333333 53.3333333333333 106.6666666666667 77.216 106.6666666666667 106.6666666666667S130.5493333333333 160 160 160S213.3333333333333 136.1173333333334 213.3333333333333 106.6666666666667S189.4506666666667 53.3333333333333 160 53.3333333333333z" />
    <glyph glyph-name="caps-small"
      unicode="&#xEA21;"
      horiz-adv-x="256" d=" M42.6666666666667 21.3333333333333V38.44448L70.7122133333333 40.0974933333333C74.0183466666667 40.3381333333334 74.6666666666667 41.2797866666667 74.6666666666667 44.816V213.3333333333334H23.34144C20.7467733333333 213.3333333333334 20.0353066666667 213.09792 19.5645866666667 210.7386666666667L15.79808 192H0V234.6666666666667H170.6666666666667V192H154.8685866666667L151.1021866666667 210.7386666666667C150.63136 213.09792 149.9198933333333 213.3333333333334 147.3252266666667 213.3333333333334H96V44.816C96 41.5098666666667 96.40768 40.56832 99.944 40.3381333333333L128 38.44448V21.3333333333333H42.6666666666667z M160 21.3333333333333V38.44448L177.37888 40.0974933333333C180.6850133333333 40.3381333333334 181.3333333333333 41.2797866666667 181.3333333333333 44.816V138.6666666666667H151.34144C148.7467733333333 138.6666666666667 148.0353066666667 138.4312533333334 147.5645866666667 136.072L143.79808 117.3333333333334H128V160H256V117.3333333333334H240.20192L236.43552 136.072C235.9646933333334 138.4312533333334 235.2532266666667 138.6666666666667 232.65856 138.6666666666667H202.6666666666667V44.816C202.6666666666667 41.5098666666667 203.0743466666667 40.56832 206.6106666666667 40.3381333333333L224 38.44448V21.3333333333333H160z" />
    <glyph glyph-name="cart"
      unicode="&#xEA22;"
      horiz-adv-x="256" d=" M245.3333333333333 85.3333333333333H32L48 106.6666666666667H202.6666666666667C207.264 106.6666666666667 211.328 109.6 212.7786666666667 113.9626666666667L244.7786666666667 209.9626666666667C245.8773333333334 213.216 245.3226666666667 216.7893333333333 243.3173333333333 219.5733333333334C241.312 222.3573333333334 238.0906666666667 224 234.6666666666667 224H47.0826666666667L18.208 252.8746666666667C14.0373333333333 257.0453333333334 7.296 257.0453333333334 3.1253333333333 252.8746666666667S-1.0453333333333 241.9626666666667 3.1253333333333 237.792L32 208.9173333333334V120.896L2.1333333333333 81.0666666666667C-0.2986666666667 77.8346666666667 -0.6826666666667 73.5146666666667 1.12 69.8986666666667C2.9333333333333 66.2826666666667 6.624 64 10.6666666666667 64H245.3333333333333C251.232 64 256 68.7786666666667 256 74.6666666666667S251.232 85.3333333333333 245.3333333333333 85.3333333333333z M21.3333333333333 21.3333333333333C21.3333333333333 9.5512586702764 30.8845920036097 0 42.6666666666667 0C54.4487413297236 0 64 9.5512586702764 64 21.3333333333333C64 33.1154079963903 54.4487413297236 42.6666666666667 42.6666666666667 42.6666666666667C30.8845920036097 42.6666666666667 21.3333333333333 33.1154079963903 21.3333333333333 21.3333333333333z M192 21.3333333333333C192 9.5512586702764 201.5512586702764 0 213.3333333333333 0C225.1154079963903 0 234.6666666666667 9.5512586702764 234.6666666666667 21.3333333333333C234.6666666666667 33.1154079963903 225.1154079963903 42.6666666666667 213.3333333333333 42.6666666666667C201.5512586702764 42.6666666666667 192 33.1154079963903 192 21.3333333333333z" />
    <glyph glyph-name="chart-bar-32"
      unicode="&#xEA23;"
      horiz-adv-x="256" d=" M149.3333333333333 234.6666666666667H106.6666666666667C100.7786666666667 234.6666666666667 96 229.888 96 224V32C96 26.112 100.7786666666667 21.3333333333333 106.6666666666667 21.3333333333333H149.3333333333334C155.2213333333334 21.3333333333333 160 26.112 160 32V224C160 229.888 155.2213333333333 234.6666666666667 149.3333333333333 234.6666666666667z M53.3333333333333 117.3333333333334H10.6666666666667C4.7786666666667 117.3333333333334 0 112.5546666666667 0 106.6666666666667V32C0 26.112 4.7786666666667 21.3333333333334 10.6666666666667 21.3333333333334H53.3333333333333C59.2213333333333 21.3333333333334 64 26.112 64 32V106.6666666666667C64 112.5546666666667 59.2213333333333 117.3333333333334 53.3333333333333 117.3333333333334z M245.3333333333333 170.6666666666667H202.6666666666667C196.7786666666667 170.6666666666667 192 165.888 192 160V32C192 26.112 196.7786666666667 21.3333333333333 202.6666666666667 21.3333333333333H245.3333333333333C251.2213333333333 21.3333333333333 256 26.112 256 32V160C256 165.888 251.2213333333333 170.6666666666667 245.3333333333333 170.6666666666667z" />
    <glyph glyph-name="chart-pie-35"
      unicode="&#xEA24;"
      horiz-adv-x="256" d=" M138.6666666666667 138.6666666666667H255.456C250.304 200.736 200.736 250.304 138.6666666666667 255.456V138.6666666666667z M132.416 117.3333333333334L45.4293333333333 30.3466666666667C67.744 11.456 96.544 0 128 0C194.976 0 250.0053333333334 51.744 255.456 117.3333333333333H132.416z M117.3333333333333 132.416V255.456C51.744 250.0053333333334 0 194.976 0 128C0 96.544 11.456 67.744 30.3466666666667 45.4293333333333L117.3333333333333 132.416z" />
    <glyph glyph-name="chat-round"
      unicode="&#xEA25;"
      horiz-adv-x="256" d=" M128 245.3333333333334C57.6 245.3333333333334 0 197.3333333333334 0 138.6666666666667S57.6 32 128 32C138.6666666666667 32 149.3333333333334 33.0666666666667 160 35.2L219.7333333333333 11.7333333333333C220.8 11.7333333333333 221.8666666666667 10.6666666666667 224 10.6666666666667C226.1333333333334 10.6666666666667 228.2666666666667 11.7333333333333 230.4 12.8C233.6 14.9333333333333 234.6666666666667 19.2 234.6666666666667 22.4L229.3333333333334 72.5333333333333C246.4 91.7333333333333 256 114.1333333333333 256 137.6C256 197.3333333333334 198.4 245.3333333333334 128 245.3333333333334z" />
    <glyph glyph-name="check-bold"
      unicode="&#xEA26;"
      horiz-adv-x="256" d=" M21.3333333333333 138.6666666666667L42.6666666666667 160L96 128L213.3333333333333 213.3333333333334L234.6666666666667 192L96 53.3333333333333z" />
    <glyph glyph-name="circle-08"
      unicode="&#xEA27;"
      horiz-adv-x="256" d=" M128 256C57.4186666666667 256 0 198.5813333333333 0 128S57.4186666666667 0 128 0S256 57.4186666666667 256 128S198.5813333333333 256 128 256zM85.3333333333333 149.3333333333334C85.3333333333333 172.896 105.0026666666667 192 128 192S170.6666666666667 172.896 170.6666666666667 149.3333333333334V138.6666666666667C170.6666666666667 115.104 150.9973333333333 96 128 96S85.3333333333333 115.104 85.3333333333333 138.6666666666667V149.3333333333334zM128 21.3333333333333C102.048 21.3333333333333 78.24 30.6773333333333 59.7226666666667 46.144C68.672 63.0293333333333 86.2186666666667 74.6666666666667 106.6666666666667 74.6666666666667H149.3333333333333C169.7813333333333 74.6666666666667 187.328 63.0293333333333 196.2773333333333 46.144C177.76 30.6773333333334 153.952 21.3333333333333 128 21.3333333333333z" />
    <glyph glyph-name="cloud-download-95"
      unicode="&#xEA28;"
      horiz-adv-x="256" d=" M211.968 148.5226666666667C204.6826666666667 191.52 167.104 224 122.6666666666667 224C76.7573333333333 224 38.6453333333333 189.9093333333333 32.864 145.1093333333333C13.184 136.9493333333334 0 117.728 0 96C0 66.592 23.9253333333333 42.6666666666667 53.3333333333333 42.6666666666667H202.6666666666666C232.0746666666667 42.6666666666667 256 66.592 256 96C256 122.24 236.96 144.1066666666667 211.968 148.5226666666667zM128 74.6666666666667L74.6666666666667 128H117.3333333333334V170.6666666666667H138.6666666666667V128H181.3333333333334L128 74.6666666666667z" />
    <glyph glyph-name="cloud-upload-96"
      unicode="&#xEA29;"
      horiz-adv-x="256" d=" M211.968 148.5226666666667C204.6826666666667 191.52 167.104 224 122.6666666666667 224C76.7573333333333 224 38.656 189.9093333333333 32.864 145.1093333333333C13.1733333333333 136.9493333333334 0 117.728 0 96C0 66.592 23.9253333333333 42.6666666666667 53.3333333333333 42.6666666666667H202.6666666666666C232.0746666666667 42.6666666666667 256 66.592 256 96C256 122.24 236.96 144.1173333333333 211.968 148.5226666666667zM138.6666666666667 117.3333333333334V74.6666666666667H117.3333333333333V117.3333333333334H74.6666666666667L128 170.6666666666667L181.3333333333333 117.3333333333334H138.6666666666667z" />
    <glyph glyph-name="compass-04"
      unicode="&#xEA2A;"
      horiz-adv-x="256" d=" M128 256C57.4186666666667 256 0 198.5813333333333 0 128S57.4186666666667 0 128 0S256 57.4186666666667 256 128S198.5813333333333 256 128 256zM138.6666666666667 21.8773333333333V42.6666666666667H117.3333333333333V21.8773333333334C67.0186666666667 26.8906666666667 26.8906666666667 67.0186666666667 21.8773333333333 117.3333333333334H42.6666666666667V138.6666666666667H21.8773333333333C26.8906666666667 188.9813333333334 67.0186666666667 229.1093333333333 117.3333333333333 234.1226666666667V213.3333333333334H138.6666666666667V234.1226666666667C188.9813333333333 229.0986666666667 229.1093333333333 188.9813333333334 234.1226666666667 138.6666666666667H213.3333333333333V117.3333333333334H234.1226666666667C229.1093333333333 67.0186666666667 188.9813333333333 26.8906666666667 138.6666666666667 21.8773333333333z M98.5386666666667 157.4613333333334L54.3573333333333 54.3573333333333L157.4613333333333 98.5386666666667L201.6426666666667 201.6426666666667L98.5386666666667 157.4613333333334zM94.976 94.976L114.7946666666667 141.2053333333333L141.216 114.784L94.976 94.976z" />
    <glyph glyph-name="controller"
      unicode="&#xEA2B;"
      horiz-adv-x="256" d=" M138.6666666666667 234.6666666666667C138.6666666666667 240.5546666666667 133.888 245.3333333333334 128 245.3333333333334S117.3333333333333 240.5546666666667 117.3333333333333 234.6666666666667V181.3333333333334H138.6666666666667V234.6666666666667z M192 160H64C28.704 160 0 131.296 0 96S28.704 32 64 32C86.9866666666667 32 108.0213333333333 44.352 119.3706666666667 64H136.6186666666667C147.968 44.352 169.0026666666667 32 191.9893333333333 32C227.2853333333333 32 255.9893333333333 60.704 255.9893333333333 96S227.296 160 192 160zM96 85.3333333333333H74.6666666666667V64H53.3333333333333V85.3333333333333H32V106.6666666666667H53.3333333333333V128H74.6666666666667V106.6666666666667H96V85.3333333333333zM181.3333333333333 64C175.4453333333333 64 170.6666666666667 68.7786666666667 170.6666666666667 74.6666666666667C170.6666666666667 80.5546666666667 175.4453333333334 85.3333333333333 181.3333333333333 85.3333333333333S192 80.5546666666667 192 74.6666666666667C192 68.7786666666667 187.2213333333333 64 181.3333333333333 64zM213.3333333333333 96C207.4453333333333 96 202.6666666666667 100.7786666666667 202.6666666666667 106.6666666666667C202.6666666666667 112.5546666666667 207.4453333333334 117.3333333333333 213.3333333333333 117.3333333333333S224 112.5546666666667 224 106.6666666666667C224 100.7786666666667 219.2213333333333 96 213.3333333333333 96z" />
    <glyph glyph-name="credit-card"
      unicode="&#xEA2C;"
      horiz-adv-x="256" d=" M256 170.6773333333333V213.3333333333334C256 225.12 246.4533333333333 234.6666666666667 234.6666666666667 234.6666666666667H21.3333333333333C9.5466666666667 234.6666666666667 0 225.12 0 213.3333333333334V170.6773333333333H256z M0 138.6666666666667V42.6666666666667C0 30.88 9.5466666666667 21.3333333333333 21.3333333333333 21.3333333333333H234.6666666666667C246.4533333333333 21.3333333333333 256 30.88 256 42.6666666666667V138.6666666666667H0zM117.3333333333333 74.6666666666667H42.6666666666667V96H117.3333333333333V74.6666666666667zM213.3333333333333 74.6666666666667H170.6666666666667V96H213.3333333333333V74.6666666666667z" />
    <glyph glyph-name="curved-next"
      unicode="&#xEA2D;"
      horiz-adv-x="256" d=" M138.6666666666667 96V27.7333333333334L249.6 138.6666666666667L138.6666666666667 249.6V181.3333333333334C89.6 179.2 0 158.9333333333333 0 42.6666666666667V3.2L20.2666666666667 37.3333333333333C45.8666666666667 81.0666666666667 71.4666666666667 94.9333333333333 138.6666666666667 96z" />
    <glyph glyph-name="delivery-fast"
      unicode="&#xEA2E;"
      horiz-adv-x="256" d=" M0 245.3333333333334H96V224H0V245.3333333333334z M21.3333333333333 202.6666666666667H96V181.3333333333334H21.3333333333333V202.6666666666667z M42.6666666666667 160H96V138.6666666666667H42.6666666666667V160z M64 117.3333333333334H96V96H64V117.3333333333334z M250.1013333333333 137.5466666666667L211.8186666666667 156.6826666666667L202.3466666666666 194.5813333333333C201.1626666666667 199.3386666666667 196.896 202.6666666666667 192 202.6666666666667H174.6666666666667H117.3333333333333C117.3333333333333 202.6666666666667 117.3333333333333 69.856 117.3333333333333 64S117.8773333333333 53.3333333333333 117.8773333333333 53.3333333333333C120.5653333333333 29.3973333333333 140.6933333333333 10.6666666666667 165.3333333333333 10.6666666666667S210.1013333333333 29.3973333333333 212.7893333333333 53.3333333333333H245.3333333333333C251.2213333333333 53.3333333333333 256 58.112 256 64V128C256 132.0426666666667 253.7173333333334 135.7333333333334 250.1013333333333 137.5466666666667zM165.3333333333333 32C150.6346666666667 32 138.6666666666667 43.9573333333333 138.6666666666667 58.6666666666667S150.6346666666667 85.3333333333333 165.3333333333333 85.3333333333333S192 73.376 192 58.6666666666667S180.032 32 165.3333333333333 32zM138.6666666666667 149.3333333333334V181.3333333333334H185.0026666666667L192 149.3333333333334H138.6666666666667z" />
    <glyph glyph-name="diamond"
      unicode="&#xEA2F;"
      horiz-adv-x="256" d=" M200.192 241.4933333333334C198.1653333333333 243.9253333333334 195.168 245.3333333333334 192 245.3333333333334H64C60.832 245.3333333333334 57.8346666666667 243.9253333333334 55.808 241.4933333333334L2.4746666666667 177.4933333333334C-0.6613333333333 173.728 -0.832 168.3093333333334 2.0586666666667 164.3626666666667L119.392 4.3626666666667C121.408 1.6213333333334 124.608 0 128 0S134.592 1.6213333333333 136.608 4.3626666666667L253.9413333333333 164.3626666666667C256.832 168.32 256.672 173.728 253.5253333333333 177.4933333333334L200.192 241.4933333333334zM202.6666666666667 160H53.3333333333333V181.3333333333334H202.6666666666666V160z" />
    <glyph glyph-name="email-83"
      unicode="&#xEA30;"
      horiz-adv-x="256" d=" M245.3333333333333 234.6666666666667H10.6666666666667C4.2666666666667 234.6666666666667 0 230.4 0 224V192C0 187.7333333333334 2.1333333333333 184.5333333333333 5.3333333333333 182.4L122.6666666666667 118.4C124.8 117.3333333333334 125.8666666666667 117.3333333333334 128 117.3333333333334S131.2 117.3333333333334 133.3333333333334 118.4L250.6666666666667 182.4C253.8666666666667 184.5333333333333 256 187.7333333333334 256 192V224C256 230.4 251.7333333333334 234.6666666666667 245.3333333333333 234.6666666666667z M142.9333333333333 100.2666666666667C138.6666666666667 97.0666666666667 133.3333333333333 96 128 96S117.3333333333333 97.0666666666667 113.0666666666667 100.2666666666667L0 161.0666666666667V32C0 25.6 4.2666666666667 21.3333333333333 10.6666666666667 21.3333333333333H245.3333333333333C251.7333333333333 21.3333333333333 256 25.6 256 32V161.0666666666667L142.9333333333333 100.2666666666667z" />
    <glyph glyph-name="fat-add"
      unicode="&#xEA31;"
      horiz-adv-x="256" d=" M192 149.3333333333334L149.3333333333333 149.3333333333334L149.3333333333333 192L106.6666666666667 192L106.6666666666667 149.3333333333334L64 149.3333333333334L64 106.6666666666667L106.6666666666667 106.6666666666667L106.6666666666667 64L149.3333333333333 64L149.3333333333333 106.6666666666667L192 106.6666666666667z" />
    <glyph glyph-name="fat-delete"
      unicode="&#xEA32;"
      horiz-adv-x="256" d=" M64 149.3333333333334H192V106.6666666666667H64V149.3333333333334z" />
    <glyph glyph-name="fat-remove"
      unicode="&#xEA33;"
      horiz-adv-x="256" d=" M188.8 98.1333333333333L157.8666666666667 128L188.8 157.8666666666667L157.8666666666667 188.8L128 157.8666666666667L98.1333333333333 188.8L67.2 157.8666666666667L98.1333333333333 128L67.2 98.1333333333333L98.1333333333333 67.2L128 98.1333333333333L157.8666666666667 67.2z" />
    <glyph glyph-name="favourite-28"
      unicode="&#xEA34;"
      horiz-adv-x="256" d=" M181.3333333333333 256C161.0666666666667 256 141.8666666666667 247.4666666666667 128 233.6C114.1333333333333 247.4666666666667 94.9333333333333 256 74.6666666666667 256C33.0666666666667 256 0 222.9333333333333 0 181.3333333333334C0 113.0666666666667 116.2666666666667 17.0666666666667 121.6 12.8C123.7333333333333 10.6666666666667 125.8666666666667 10.6666666666667 128 10.6666666666667S132.2666666666667 11.7333333333333 134.4 12.8C139.7333333333333 17.0666666666667 256 113.0666666666667 256 181.3333333333334C256 222.9333333333333 222.9333333333333 256 181.3333333333333 256z" />
    <glyph glyph-name="folder-17"
      unicode="&#xEA35;"
      horiz-adv-x="256" d=" M101.3333333333333 224C107.7333333333333 224 114.1333333333333 220.8 118.4 215.4666666666667L144 181.3333333333334H234.6666666666667V245.3333333333334C234.6666666666667 251.7333333333333 230.4 256 224 256H32C25.6 256 21.3333333333333 251.7333333333333 21.3333333333333 245.3333333333334V224H101.3333333333333z M245.3333333333333 160H133.3333333333333L104.5333333333333 198.4C102.4 201.6 99.2 202.6666666666667 96 202.6666666666667H10.6666666666667C4.2666666666667 202.6666666666667 0 198.4 0 192V10.6666666666667C0 4.2666666666667 4.2666666666667 0 10.6666666666667 0H245.3333333333333C251.7333333333333 0 256 4.2666666666667 256 10.6666666666667V149.3333333333334C256 155.7333333333334 251.7333333333334 160 245.3333333333333 160z" />
    <glyph glyph-name="glasses-2"
      unicode="&#xEA36;"
      horiz-adv-x="256" d=" M213.3333333333333 245.3333333333334H202.6666666666667V224H213.3333333333333C225.0986666666667 224 234.6666666666667 214.432 234.6666666666667 202.6666666666667V114.5493333333334C224.512 122.944 211.4986666666667 128 197.3333333333333 128C176.2133333333333 128 157.7173333333333 116.7466666666667 147.392 99.9466666666667C141.9946666666667 104.096 135.3173333333333 106.6666666666667 128 106.6666666666667S114.0053333333334 104.096 108.608 99.9466666666667C98.2826666666667 116.7466666666667 79.7866666666667 128 58.6666666666667 128C44.5013333333333 128 31.488 122.944 21.3333333333333 114.5493333333333V202.6666666666667C21.3333333333333 214.432 30.9013333333333 224 42.6666666666667 224H53.3333333333333V245.3333333333334H42.6666666666667C19.136 245.3333333333334 0 226.1973333333334 0 202.6666666666667V69.3333333333334C0 36.992 26.3253333333333 10.6666666666667 58.6666666666667 10.6666666666667C89.2053333333333 10.6666666666667 114.3573333333333 34.144 117.0666666666667 64H117.3333333333333V74.6666666666667C117.3333333333333 80.5546666666667 122.112 85.3333333333333 128 85.3333333333333S138.6666666666667 80.5546666666667 138.6666666666667 74.6666666666667V64H138.9333333333333C141.6426666666667 34.144 166.784 10.6666666666667 197.3333333333333 10.6666666666667C229.6746666666667 10.6666666666667 256 36.992 256 69.3333333333333V202.6666666666667C256 226.1973333333334 236.864 245.3333333333334 213.3333333333333 245.3333333333334z" />
    <glyph glyph-name="hat-3"
      unicode="&#xEA37;"
      horiz-adv-x="256" d=" M234.6666666666667 138.6666666666667H256V74.6666666666667H234.6666666666667V138.6666666666667z M141.2373333333333 88.2133333333333C137.0346666666667 86.2933333333334 132.5866666666667 85.3333333333333 128 85.3333333333333S118.9653333333333 86.2933333333334 114.7733333333334 88.2026666666667L42.6666666666667 120.9813333333334V64C42.6666666666667 35.9893333333333 85.5893333333333 21.3333333333333 128 21.3333333333333S213.3333333333333 35.9893333333334 213.3333333333333 64V120.9706666666667L141.2373333333333 88.2133333333333z M249.7493333333334 180.3733333333333L132.416 233.7066666666667C129.6106666666667 234.976 126.4 234.976 123.5946666666667 233.7066666666667L6.2613333333333 180.3733333333333C2.4426666666667 178.6453333333333 0 174.8586666666667 0 170.6666666666667S2.4426666666667 162.688 6.2506666666667 160.96L123.584 107.6266666666667C124.992 106.9866666666667 126.496 106.6666666666667 128 106.6666666666667S131.008 106.9866666666667 132.416 107.6266666666667L249.7493333333333 160.96C253.5573333333334 162.688 256 166.4746666666667 256 170.6666666666667S253.5573333333334 178.6453333333333 249.7493333333334 180.3733333333333z" />
    <glyph glyph-name="headphones"
      unicode="&#xEA38;"
      horiz-adv-x="256" d=" M245.3333333333333 106.112V160C245.3333333333333 212.928 202.2613333333333 256 149.3333333333333 256H106.6666666666667C53.7386666666667 256 10.6666666666667 212.928 10.6666666666667 160V106.112C3.9466666666667 95.4346666666667 0 82.848 0 69.3333333333334C0 31.104 31.104 0 69.3333333333333 0C75.6266666666667 0 81.984 0.896 88.2346666666667 2.6666666666667C92.832 3.968 96 8.16 96 12.928V125.7386666666667C96 130.5066666666667 92.832 134.6986666666667 88.2346666666667 136C81.984 137.7706666666667 75.6266666666667 138.6666666666667 69.3333333333333 138.6666666666667C55.584 138.6666666666667 42.7946666666667 134.592 32 127.6586666666667V160C32 201.1733333333334 65.4933333333333 234.6666666666667 106.6666666666667 234.6666666666667H149.3333333333333C190.5066666666667 234.6666666666667 224 201.1733333333333 224 160V127.6586666666667C213.2053333333333 134.592 200.416 138.6666666666667 186.6666666666667 138.6666666666667C180.3733333333333 138.6666666666667 174.016 137.7706666666667 167.7653333333333 136C163.168 134.6986666666667 160 130.5066666666667 160 125.7386666666667V12.9386666666667C160 8.1706666666667 163.168 3.9786666666667 167.7653333333333 2.6773333333334C174.016 0.896 180.3733333333333 0 186.6666666666667 0C224.896 0 256 31.104 256 69.3333333333333C256 82.848 252.0533333333333 95.4346666666667 245.3333333333333 106.112z" />
    <glyph glyph-name="html5"
      unicode="&#xEA39;"
      horiz-adv-x="256" d=" M231.9466666666667 241.7813333333333C229.9306666666667 244.0426666666667 227.04 245.3333333333334 224 245.3333333333334H32C28.96 245.3333333333334 26.0693333333333 244.0426666666667 24.0533333333333 241.7813333333333C22.0266666666667 239.52 21.0666666666667 236.5013333333333 21.3973333333333 233.4933333333334L42.7306666666667 41.4933333333333C43.2 37.1946666666667 46.24 33.6106666666667 50.4 32.4053333333333L125.0666666666667 11.072C126.0266666666667 10.8053333333334 127.0186666666667 10.6666666666667 128 10.6666666666667S129.9733333333333 10.8053333333334 130.9333333333333 11.072L205.6 32.4053333333334C209.76 33.6000000000001 212.7893333333333 37.184 213.2693333333333 41.4933333333334L234.6026666666667 233.4933333333334C234.9333333333333 236.5013333333333 233.9733333333333 239.52 231.9466666666667 241.7813333333333zM192 181.3333333333334H86.2613333333333L89.8133333333333 138.6666666666667H187.7866666666667L180.5333333333333 66.1333333333334L128 53.0026666666667L74.6666666666667 66.336V96H96V82.9973333333333L128 74.9973333333333L160.8 83.2L164.2133333333334 117.3333333333333H70.1866666666667L63.072 202.6666666666667H192V181.3333333333334z" />
    <glyph glyph-name="istanbul"
      unicode="&#xEA3A;"
      horiz-adv-x="256" d=" M234.6666666666667 221.8666666666667V245.3333333333334C234.6666666666667 251.7333333333333 230.4 256 224 256S213.3333333333334 251.7333333333333 213.3333333333334 245.3333333333334V221.8666666666667C200.5333333333333 217.6 192 205.8666666666667 192 192V160V128C192 160 168.5333333333333 185.6 138.6666666666667 190.9333333333333V213.3333333333334C138.6666666666667 219.7333333333334 134.4 224 128 224S117.3333333333334 219.7333333333334 117.3333333333334 213.3333333333334V190.9333333333333C87.4666666666667 185.6 64 160 64 128V160V192C64 205.8666666666667 55.4666666666667 217.6 42.6666666666667 221.8666666666667V245.3333333333334C42.6666666666667 251.7333333333333 38.4 256 32 256S21.3333333333333 251.7333333333333 21.3333333333333 245.3333333333334V221.8666666666667C8.5333333333333 217.6 0 205.8666666666667 0 192V160V10.6666666666667C0 4.2666666666667 4.2666666666667 0 10.6666666666667 0H106.6666666666667V21.3333333333334C106.6666666666667 33.0666666666667 116.2666666666667 42.6666666666667 128 42.6666666666667L128 42.6666666666667C139.7333333333334 42.6666666666667 149.3333333333334 33.0666666666667 149.3333333333334 21.3333333333334V0H245.3333333333334C251.7333333333334 0 256 4.2666666666667 256 10.6666666666667V160V192C256 205.8666666666667 247.4666666666667 217.6 234.6666666666667 221.8666666666667zM42.6666666666667 170.6666666666667H21.3333333333333V192C21.3333333333333 198.4 25.6 202.6666666666667 32 202.6666666666667S42.6666666666667 198.4 42.6666666666667 192V170.6666666666667zM170.6666666666667 117.3333333333334H85.3333333333333V128C85.3333333333333 151.4666666666667 104.5333333333333 170.6666666666667 128 170.6666666666667C151.4666666666667 170.6666666666667 170.6666666666667 151.4666666666667 170.6666666666667 128V117.3333333333334zM234.6666666666667 170.6666666666667H213.3333333333333V192C213.3333333333333 198.4 217.6 202.6666666666667 224 202.6666666666667S234.6666666666667 198.4 234.6666666666667 192V170.6666666666667z" />
    <glyph glyph-name="key-25"
      unicode="&#xEA3B;"
      horiz-adv-x="256" d=" M252.8746666666667 178.208L217.7493333333334 213.3333333333334L242.208 237.792C246.3786666666667 241.9626666666667 246.3786666666667 248.704 242.208 252.8746666666667S231.296 257.0453333333334 227.1253333333334 252.8746666666667L116.2773333333333 142.0266666666667C119.072 139.8506666666667 121.792 137.5466666666667 124.3413333333333 135.008C126.8906666666667 132.4586666666667 129.184 129.7386666666667 131.36 126.944L170.6666666666667 166.2506666666667L205.792 131.1253333333334C207.872 129.0453333333334 210.6026666666667 128 213.3333333333333 128S218.7946666666667 129.0453333333333 220.8746666666667 131.1253333333334L252.8746666666667 163.1253333333334C257.0453333333333 167.296 257.0453333333333 174.0373333333333 252.8746666666667 178.208z M64 10.6666666666667C81.0986666666667 10.6666666666667 97.1626666666667 17.3226666666667 109.2586666666667 29.408S128 57.568 128 74.6666666666667S121.344 107.8293333333334 109.2586666666667 119.9253333333334S81.0986666666667 138.6666666666667 64 138.6666666666667S30.8373333333333 132.0106666666667 18.7413333333333 119.9253333333334S0 91.7653333333333 0 74.6666666666667S6.656 41.504 18.7413333333333 29.408S46.9013333333333 10.6666666666667 64 10.6666666666667z" />
    <glyph glyph-name="laptop"
      unicode="&#xEA3C;"
      horiz-adv-x="256" d=" M224 108.8533333333334V213.3333333333334C224 225.0986666666667 214.432 234.6666666666667 202.6666666666667 234.6666666666667H53.3333333333333C41.568 234.6666666666667 32 225.0986666666667 32 213.3333333333334V108.8533333333334L7.232 51.072C4.4053333333333 44.4586666666667 5.0773333333333 36.928 9.0346666666667 30.9226666666667C12.992 24.9173333333333 19.648 21.3333333333333 26.848 21.3333333333333H229.1626666666667C236.352 21.3333333333333 243.008 24.9173333333333 246.976 30.9226666666667C250.9333333333334 36.928 251.6053333333334 44.4586666666667 248.768 51.072L224 108.8533333333334zM202.6666666666667 117.3333333333334H53.3333333333333V213.3333333333334H202.6666666666666V117.3333333333334z" />
    <glyph glyph-name="like-2"
      unicode="&#xEA3D;"
      horiz-adv-x="256" d=" M53.3333333333333 21.3333333333333H32C25.6 21.3333333333333 21.3333333333333 25.6 21.3333333333333 32V128C21.3333333333333 134.4 25.6 138.6666666666667 32 138.6666666666667H53.3333333333333C59.7333333333333 138.6666666666667 64 134.4 64 128V32C64 25.6 59.7333333333333 21.3333333333333 53.3333333333333 21.3333333333333z M213.3333333333333 149.3333333333334H160V181.3333333333334C160 199.4666666666667 149.3333333333334 224 133.3333333333334 233.6C125.8666666666667 236.8 117.3333333333333 232.5333333333334 117.3333333333333 224V181.3333333333334L85.3333333333333 142.9333333333333V32L88.5333333333333 30.9333333333333C100.2666666666667 24.5333333333334 114.1333333333333 21.3333333333333 128 21.3333333333333H202.6666666666667C214.4 21.3333333333333 224 30.9333333333333 224 42.6666666666667L234.6666666666667 128C234.6666666666667 139.7333333333334 225.0666666666667 149.3333333333334 213.3333333333333 149.3333333333334z" />
    <glyph glyph-name="lock-circle-open"
      unicode="&#xEA3E;"
      horiz-adv-x="256" d=" M128 170.6666666666667C112.448 170.6666666666667 97.8986666666667 166.4213333333333 85.3333333333333 159.1253333333334V192C85.3333333333333 215.5306666666667 104.4693333333333 234.6666666666667 128 234.6666666666667S170.6666666666667 215.5306666666667 170.6666666666667 192H192C192 227.296 163.296 256 128 256S64 227.296 64 192V141.5893333333334C50.7626666666667 126.5493333333334 42.6666666666667 106.8906666666667 42.6666666666667 85.3333333333333C42.6666666666667 38.2826666666667 80.9493333333333 0 128 0S213.3333333333333 38.2826666666667 213.3333333333333 85.3333333333333S175.0506666666667 170.6666666666667 128 170.6666666666667zM138.6666666666667 65.9626666666667V42.6666666666667H117.3333333333333V65.9626666666667C104.9493333333333 70.3786666666667 96 82.112 96 96C96 113.6426666666667 110.3573333333333 128 128 128S160 113.6426666666667 160 96C160 82.112 151.0506666666667 70.3786666666667 138.6666666666667 65.9626666666667z" />
    <glyph glyph-name="map-big"
      unicode="&#xEA3F;"
      horiz-adv-x="256" d=" M181.3333333333333 241.2586666666667L138.6666666666667 219.9253333333333L138.6666666666667 14.7413333333334L181.3333333333333 36.0746666666667z M117.3333333333333 219.9253333333333L74.6666666666667 241.2586666666667L74.6666666666667 36.0746666666667L117.3333333333333 14.7413333333334z M53.3333333333333 240.704L5.1733333333333 211.808C1.9733333333333 209.888 0 206.4213333333333 0 202.6666666666667V0L53.3333333333333 34.496V240.704z M250.8266666666667 211.808L202.6666666666667 240.704V34.496L256 0V202.6666666666667C256 206.4213333333333 254.0266666666667 209.888 250.8266666666667 211.808z" />
    <glyph glyph-name="mobile-button"
      unicode="&#xEA40;"
      horiz-adv-x="256" d=" M192 256H64C46.3573333333333 256 32 241.6426666666667 32 224V32C32 14.3573333333333 46.3573333333333 0 64 0H192C209.6426666666667 0 224 14.3573333333333 224 32V224C224 241.6426666666667 209.6426666666667 256 192 256zM128 21.3333333333333C122.112 21.3333333333333 117.3333333333333 26.112 117.3333333333333 32S122.112 42.6666666666667 128 42.6666666666667S138.6666666666667 37.888 138.6666666666667 32S133.888 21.3333333333333 128 21.3333333333333zM202.6666666666667 74.6666666666667C202.6666666666667 68.7786666666667 197.888 64 192 64H64C58.112 64 53.3333333333333 68.7786666666667 53.3333333333333 74.6666666666667V213.3333333333334C53.3333333333333 219.2213333333334 58.112 224 64 224H192C197.888 224 202.6666666666667 219.2213333333334 202.6666666666667 213.3333333333334V74.6666666666667z" />
    <glyph glyph-name="money-coins"
      unicode="&#xEA41;"
      horiz-adv-x="256" d=" M85.3333333333333 106.6666666666667H10.6666666666667C4.7786666666667 106.6666666666667 0 111.4453333333333 0 117.3333333333334V245.3333333333334C0 251.2213333333334 4.7786666666667 256 10.6666666666667 256H202.6666666666667C208.5546666666667 256 213.3333333333333 251.2213333333334 213.3333333333333 245.3333333333334V192H192V234.6666666666667H21.3333333333333V128H85.3333333333333V106.6666666666667z M181.3333333333333 85.3333333333333C149.856 85.3333333333333 123.7013333333333 92.1493333333334 106.6666666666667 103.5946666666667C106.6666666666667 95.6373333333334 106.6666666666667 90.3893333333334 106.6666666666667 85.3333333333333C106.6666666666667 67.6586666666667 140.096 53.3333333333333 181.3333333333333 53.3333333333333S256 67.6586666666667 256 85.3333333333333C256 90.3893333333334 256 95.6373333333334 256 103.5946666666667C238.9653333333333 92.1493333333334 212.8106666666667 85.3333333333333 181.3333333333333 85.3333333333333z M181.3333333333333 32C149.856 32 123.7013333333333 38.816 106.6666666666667 50.2613333333333C106.6666666666667 42.304 106.6666666666667 37.056 106.6666666666667 32C106.6666666666667 14.3253333333333 140.096 0 181.3333333333333 0S256 14.3253333333333 256 32C256 37.056 256 42.304 256 50.2613333333333C238.9653333333333 38.816 212.8106666666667 32 181.3333333333333 32z M95.0293333333333 163.4986666666667C102.3466666666667 172.0426666666667 113.5253333333333 179.0186666666667 127.7333333333333 183.936C126.4426666666667 194.4533333333334 117.5466666666667 202.6666666666667 106.6666666666667 202.6666666666667C94.9013333333333 202.6666666666667 85.3333333333333 193.0986666666667 85.3333333333333 181.3333333333334C85.3333333333333 173.8666666666667 89.2053333333333 167.3066666666667 95.0293333333333 163.4986666666667z M106.6666666666667 138.6666666666667C106.6666666666667 120.9935546720813 140.0960720126341 106.6666666666667 181.3333333333333 106.6666666666667C222.5705946540326 106.6666666666667 256 120.9935546720813 256 138.6666666666667C256 156.3397786612521 222.5705946540326 170.6666666666667 181.3333333333333 170.6666666666667C140.0960720126341 170.6666666666667 106.6666666666667 156.3397786612521 106.6666666666667 138.6666666666667z" />
    <glyph glyph-name="note-03"
      unicode="&#xEA42;"
      horiz-adv-x="256" d=" M245.3333333333333 256H85.3333333333333C79.4453333333333 256 74.6666666666667 251.2213333333334 74.6666666666667 245.3333333333334V87.872C67.0293333333333 92.992 57.8666666666667 96 48 96C21.536 96 0 74.464 0 48S21.536 0 48 0S96 21.536 96 48V170.6666666666667H234.6666666666667V109.2053333333333C227.0293333333333 114.3253333333333 217.8666666666667 117.3333333333334 208 117.3333333333334C181.536 117.3333333333334 160 95.7973333333333 160 69.3333333333333S181.536 21.3333333333333 208 21.3333333333333S256 42.8693333333333 256 69.3333333333333V245.3333333333334C256 251.2213333333334 251.2213333333333 256 245.3333333333333 256z" />
    <glyph glyph-name="notification-70"
      unicode="&#xEA43;"
      horiz-adv-x="256" d=" M202.6666666666667 256C170.6666666666667 256 140.8 240 122.6666666666667 213.3333333333334H85.3333333333333H74.6666666666667H32C13.8666666666667 213.3333333333334 0 190.9333333333333 0 160S13.8666666666667 106.6666666666667 32 106.6666666666667H56.5333333333333L102.4 28.8C108.8 18.1333333333334 121.6 14.9333333333333 131.2 21.3333333333333C141.8666666666667 27.7333333333334 145.0666666666667 40.5333333333333 138.6666666666667 50.1333333333334L105.6 106.6666666666667H122.6666666666667C140.8 80 170.6666666666667 64 202.6666666666667 64C233.6 64 256 105.6 256 160S233.6 256 202.6666666666667 256zM202.6666666666667 85.3333333333333C193.0666666666667 85.3333333333333 182.4 99.2 176 120.5333333333333C192 126.9333333333333 202.6666666666667 141.8666666666667 202.6666666666667 160S192 193.0666666666667 176 199.4666666666667C182.4 220.8 193.0666666666667 234.6666666666667 202.6666666666667 234.6666666666667C217.6 234.6666666666667 234.6666666666667 202.6666666666667 234.6666666666667 160S217.6 85.3333333333333 202.6666666666667 85.3333333333333z" />
    <glyph glyph-name="palette"
      unicode="&#xEA44;"
      horiz-adv-x="256" d=" M217.6 190.9333333333333C205.8666666666666 196.2666666666667 194.1333333333333 199.4666666666667 181.3333333333333 199.4666666666667C164.2666666666667 199.4666666666667 149.3333333333333 194.1333333333333 135.4666666666667 189.8666666666667C126.9333333333333 186.6666666666667 118.4 184.5333333333334 112 184.5333333333334C107.7333333333333 184.5333333333334 105.6 185.6 104.5333333333333 187.7333333333334C104.5333333333333 188.8 105.6 194.1333333333334 106.6666666666666 197.3333333333334C109.8666666666667 206.9333333333333 113.0666666666667 218.6666666666667 104.5333333333333 230.4C99.2 236.8 90.6666666666666 241.0666666666667 81.0666666666666 241.0666666666667C71.4666666666666 241.0666666666667 62.9333333333333 237.8666666666667 54.4 232.5333333333334C20.2666666666667 209.0666666666667 0 169.6 0 128C0 57.6 57.6 0 128 0C184.5333333333333 0 235.7333333333333 38.4 251.7333333333333 93.8666666666667C252.8 100.2666666666667 267.7333333333334 166.4 217.6 190.9333333333333zM32 128C32 139.7333333333334 41.6 149.3333333333333 53.3333333333333 149.3333333333333S74.6666666666667 139.7333333333334 74.6666666666667 128S65.0666666666667 106.6666666666667 53.3333333333333 106.6666666666667S32 116.2666666666667 32 128zM80 53.3333333333333C68.2666666666667 53.3333333333333 58.6666666666667 62.9333333333333 58.6666666666667 74.6666666666667S68.2666666666667 96 80 96S101.3333333333333 86.4 101.3333333333333 74.6666666666667S91.7333333333333 53.3333333333333 80 53.3333333333333zM138.6666666666667 32C126.9333333333333 32 117.3333333333333 41.6 117.3333333333333 53.3333333333333S126.9333333333333 74.6666666666667 138.6666666666667 74.6666666666667S160 65.0666666666667 160 53.3333333333333S150.4 32 138.6666666666667 32zM181.3333333333333 96C163.2 96 149.3333333333333 109.8666666666667 149.3333333333333 128S163.2 160 181.3333333333333 160S213.3333333333333 146.1333333333333 213.3333333333333 128S199.4666666666667 96 181.3333333333333 96z" />
    <glyph glyph-name="paper-diploma"
      unicode="&#xEA45;"
      horiz-adv-x="256" d=" M74.6666666666667 37.3333333333333C74.6666666666667 24.608 61.9306666666667 21.8986666666667 58.24 21.376C49.6106666666667 21.6106666666667 42.6666666666667 28.6613333333333 42.6666666666667 37.3333333333333V234.6666666666667H138.6666666666667V256H32C26.112 256 21.3333333333333 251.2213333333334 21.3333333333333 245.3333333333334V37.3333333333333C21.3333333333333 16.7466666666667 38.08 0 58.6666666666667 0H218.6666666666667C239.2533333333334 0 256 16.7466666666667 256 37.3333333333333V53.3333333333333H74.6666666666667V37.3333333333333z M202.6666666666667 128C186.8053333333333 128 172.1066666666667 133.0133333333333 160 141.4826666666667V74.6666666666667L202.6666666666667 106.6666666666667L245.3333333333333 74.6666666666667V141.4826666666667C233.2266666666667 133.0133333333334 218.528 128 202.6666666666667 128z M149.3333333333333 202.6666666666667C149.3333333333333 173.2114800090244 173.2114800090243 149.3333333333334 202.6666666666667 149.3333333333334C232.121853324309 149.3333333333334 256 173.2114800090244 256 202.6666666666667C256 232.121853324309 232.121853324309 256 202.6666666666667 256C173.2114800090243 256 149.3333333333333 232.121853324309 149.3333333333333 202.6666666666667z" />
    <glyph glyph-name="pin-3"
      unicode="&#xEA46;"
      horiz-adv-x="256" d=" M128 256C81.0666666666667 256 32 219.7333333333334 32 160C32 103.4666666666667 117.3333333333333 17.0666666666667 120.5333333333333 13.8666666666667C122.6666666666667 11.7333333333333 124.8 10.6666666666667 128 10.6666666666667S133.3333333333334 11.7333333333333 135.4666666666667 13.8666666666667C138.6666666666667 17.0666666666667 224 103.4666666666667 224 160C224 219.7333333333334 174.9333333333333 256 128 256zM128 128C109.8666666666667 128 96 141.8666666666667 96 160S109.8666666666667 192 128 192S160 178.1333333333333 160 160S146.1333333333333 128 128 128z" />
    <glyph glyph-name="planet"
      unicode="&#xEA47;"
      horiz-adv-x="256" d=" M228.608 54.624C235.7653333333333 37.5253333333333 236.032 26.4426666666667 232.5333333333333 22.9333333333333C228.1066666666667 18.5066666666667 211.1466666666667 21.7066666666667 185.984 35.8186666666667C209.2053333333333 55.4133333333334 224 84.6613333333334 224 117.3333333333334C224 176.1493333333334 176.1493333333334 224 117.3333333333334 224C84.6613333333333 224 55.4133333333333 209.2053333333333 35.8293333333333 185.9946666666667C21.7066666666667 211.1573333333333 18.5173333333333 228.1173333333334 22.9333333333333 232.544C26.4426666666667 236.0426666666667 37.5253333333333 235.776 54.624 228.6186666666667C62.7093333333333 233.2053333333334 71.3386666666667 236.8426666666667 80.384 239.6053333333334C47.2853333333333 257.952 21.3866666666667 261.1840000000001 7.84 247.6373333333334C-7.8293333333333 231.936 1.3653333333333 200.7466666666667 22.6666666666667 166.2826666666667C15.04 151.6053333333333 10.6666666666667 134.9866666666667 10.6666666666667 117.3333333333334C10.6666666666667 58.5173333333333 58.5173333333333 10.6666666666667 117.3333333333333 10.6666666666667C134.9866666666667 10.6666666666667 151.6053333333333 15.04 166.2826666666667 22.6666666666667C200.7573333333334 1.3653333333334 231.936 -7.8293333333333 247.6266666666667 7.8613333333334C261.1733333333334 21.408 257.9413333333333 47.296 239.5946666666667 80.4053333333334C236.8426666666667 71.3493333333333 233.1946666666667 62.7093333333334 228.608 54.624zM69.3333333333333 96C60.5013333333333 96 53.3333333333333 103.168 53.3333333333333 112S60.5013333333333 128 69.3333333333333 128S85.3333333333333 120.832 85.3333333333333 112S78.1653333333333 96 69.3333333333333 96zM138.6666666666667 74.6666666666667C132.7786666666667 74.6666666666667 128 79.4453333333333 128 85.3333333333333C128 91.2213333333334 132.7786666666667 96 138.6666666666667 96C144.5546666666667 96 149.3333333333333 91.2213333333334 149.3333333333333 85.3333333333333C149.3333333333333 79.4453333333333 144.5546666666667 74.6666666666667 138.6666666666667 74.6666666666667zM133.3333333333333 138.6666666666667C124.5013333333333 138.6666666666667 117.3333333333333 145.8346666666667 117.3333333333333 154.6666666666667S124.5013333333333 170.6666666666667 133.3333333333333 170.6666666666667S149.3333333333333 163.4986666666667 149.3333333333333 154.6666666666667S142.1653333333333 138.6666666666667 133.3333333333333 138.6666666666667z" />
    <glyph glyph-name="ruler-pencil"
      unicode="&#xEA48;"
      horiz-adv-x="256" d=" M202.6666666666667 0C199.3173333333333 0 196.1493333333333 1.5786666666667 194.1333333333333 4.2666666666667L162.1333333333333 46.9333333333333C160.7466666666667 48.7786666666667 160 51.0293333333333 160 53.3333333333333V202.6666666666667H245.3333333333333V53.3333333333334C245.3333333333333 51.0293333333334 244.5866666666667 48.7786666666667 243.2 46.9333333333334L211.2 4.2666666666667C209.184 1.5786666666667 206.016 0 202.6666666666667 0z M234.6666666666667 256H170.6666666666667C164.7786666666667 256 160 251.2213333333334 160 245.3333333333334V224H245.3333333333333V245.3333333333334C245.3333333333333 251.2213333333334 240.5546666666667 256 234.6666666666667 256z M106.6666666666667 256H21.3333333333333C14.9333333333333 256 10.6666666666667 251.7333333333333 10.6666666666667 245.3333333333334V202.6666666666667H53.3333333333333V181.3333333333334H10.6666666666667V160H42.6666666666667V138.6666666666667H10.6666666666667V117.3333333333334H53.3333333333333V96H10.6666666666667V74.6666666666667H42.6666666666667V53.3333333333333H10.6666666666667V10.6666666666667C10.6666666666667 4.2666666666667 14.9333333333333 0 21.3333333333333 0H106.6666666666667C113.0666666666667 0 117.3333333333333 4.2666666666667 117.3333333333333 10.6666666666667V245.3333333333334C117.3333333333333 251.7333333333333 113.0666666666667 256 106.6666666666667 256z" />
    <glyph glyph-name="satisfied"
      unicode="&#xEA49;"
      horiz-adv-x="256" d=" M128 256C57.6 256 0 198.4 0 128S57.6 0 128 0C198.4 0 256 57.6 256 128S198.4 256 128 256zM53.3333333333333 160C53.3333333333333 178.1333333333333 67.2 192 85.3333333333333 192C103.4666666666667 192 117.3333333333333 178.1333333333333 117.3333333333333 160H96C96 166.4 91.7333333333333 170.6666666666667 85.3333333333333 170.6666666666667C78.9333333333333 170.6666666666667 74.6666666666667 166.4 74.6666666666667 160H53.3333333333333zM202.6666666666667 117.3333333333334C202.6666666666667 75.7333333333334 169.6 42.6666666666667 128 42.6666666666667C86.4 42.6666666666667 53.3333333333333 75.7333333333334 53.3333333333333 117.3333333333334H74.6666666666667C74.6666666666667 87.4666666666667 98.1333333333333 64 128 64C157.8666666666667 64 181.3333333333333 87.4666666666667 181.3333333333333 117.3333333333333H202.6666666666667zM181.3333333333333 160C181.3333333333333 166.4 177.0666666666666 170.6666666666667 170.6666666666667 170.6666666666667C164.2666666666667 170.6666666666667 160 166.4 160 160H138.6666666666667C138.6666666666667 178.1333333333333 152.5333333333333 192 170.6666666666667 192C188.8 192 202.6666666666667 178.1333333333333 202.6666666666667 160H181.3333333333333z" />
    <glyph glyph-name="scissors"
      unicode="&#xEA4A;"
      horiz-adv-x="256" d=" M197.3333333333333 96C189.568 96 182.336 93.9733333333333 175.8293333333333 90.6773333333333L152.2773333333333 118.144L212.2773333333333 178.144C232.96 198.8266666666667 236.9173333333333 230.9226666666667 221.8666666666667 256L128 146.4853333333334L34.1333333333333 256C19.0826666666667 230.9226666666667 23.04 198.8266666666667 43.7226666666667 178.1546666666667L103.7226666666667 118.1546666666667L80.1706666666667 90.688C73.664 93.9733333333334 66.432 96 58.6666666666667 96C32.2026666666667 96 10.6666666666667 74.464 10.6666666666667 48S32.2026666666667 0 58.6666666666667 0S106.6666666666667 21.536 106.6666666666667 48C106.6666666666667 55.168 104.9813333333333 61.9093333333333 102.1546666666667 68.0213333333333L128 93.8666666666667L153.8453333333334 68.0213333333333C151.0186666666667 61.9093333333333 149.3333333333333 55.168 149.3333333333333 48C149.3333333333333 21.536 170.8693333333333 0 197.3333333333333 0S245.3333333333333 21.536 245.3333333333333 48S223.7973333333334 96 197.3333333333333 96zM58.6666666666667 21.3333333333333C43.968 21.3333333333333 32 33.2906666666667 32 48S43.968 74.6666666666667 58.6666666666667 74.6666666666667S85.3333333333333 62.7093333333334 85.3333333333333 48S73.3653333333333 21.3333333333333 58.6666666666667 21.3333333333333zM170.6666666666667 48C170.6666666666667 62.7093333333334 182.6346666666667 74.6666666666667 197.3333333333333 74.6666666666667S224 62.7093333333333 224 48S212.032 21.3333333333333 197.3333333333333 21.3333333333333S170.6666666666667 33.2906666666667 170.6666666666667 48z" />
    <glyph glyph-name="send"
      unicode="&#xEA4B;"
      horiz-adv-x="256" d=" M15.1786666666667 138.1546666666667L42.6666666666667 117.3333333333334L138.6666666666667 160L64.2453333333333 101.344V29.3546666666667C64.2453333333333 19.4026666666667 76.6613333333333 14.8693333333333 83.072 22.4853333333333L116.4693333333333 62.1653333333333L185.8026666666667 10.1546666666667C192.0853333333333 5.4506666666667 201.12 8.896 202.6666666666667 16.5973333333334L245.376 229.9306666666667C247.04 238.24 238.816 245.0773333333334 230.9546666666667 241.9306666666667L17.6213333333333 156.5973333333333C9.8986666666667 153.504 8.5226666666667 143.1466666666667 15.1786666666667 138.1546666666667z" />
    <glyph glyph-name="settings-gear-65"
      unicode="&#xEA4C;"
      horiz-adv-x="256" d=" M224 149.3333333333334H210.1333333333333C208 156.8 204.8 164.2666666666667 200.5333333333333 171.7333333333334L210.1333333333333 181.3333333333334C218.6666666666667 189.8666666666667 218.6666666666667 202.6666666666667 210.1333333333333 211.2H210.1333333333333C201.6 219.7333333333334 188.8 219.7333333333334 180.2666666666667 211.2L170.6666666666667 201.6C164.2666666666667 205.8666666666667 156.8 209.0666666666667 148.2666666666667 211.2V224C148.2666666666667 235.7333333333334 138.6666666666667 245.3333333333334 126.9333333333333 245.3333333333334S105.6 235.7333333333334 105.6 224V210.1333333333333C99.2 208 91.7333333333333 205.8666666666667 84.2666666666667 201.6L75.7333333333333 211.2C67.2 219.7333333333334 54.4 219.7333333333334 45.8666666666667 211.2H45.8666666666667C37.3333333333333 202.6666666666667 37.3333333333333 189.8666666666667 45.8666666666667 181.3333333333334L55.4666666666667 171.7333333333334C50.1333333333333 164.2666666666667 48 156.8 45.8666666666667 149.3333333333334H32C20.2666666666667 149.3333333333334 10.6666666666667 139.7333333333334 10.6666666666667 128C10.6666666666667 116.2666666666667 20.2666666666667 106.6666666666667 32 106.6666666666667H45.8666666666667C48 99.2 51.2 91.7333333333334 55.4666666666667 84.2666666666667L45.8666666666667 74.6666666666667C37.3333333333333 66.1333333333334 37.3333333333333 53.3333333333333 45.8666666666667 44.8H45.8666666666667C54.4 36.2666666666667 67.2 36.2666666666667 75.7333333333333 44.8L85.3333333333333 54.4C91.7333333333333 50.1333333333333 99.2 46.9333333333333 107.7333333333333 44.8V32C107.7333333333333 20.2666666666667 117.3333333333333 10.6666666666667 129.0666666666667 10.6666666666667S150.4 20.2666666666667 150.4 32V45.8666666666667C157.8666666666667 48 165.3333333333334 51.2 172.8 55.4666666666667L182.4 45.8666666666667C190.9333333333333 37.3333333333333 203.7333333333334 37.3333333333333 212.2666666666667 45.8666666666667H212.2666666666667C220.8 54.4 220.8 67.2 212.2666666666667 75.7333333333334L202.6666666666667 85.3333333333333C206.9333333333334 91.7333333333334 210.1333333333334 99.2 212.2666666666667 107.7333333333334H224C235.7333333333334 107.7333333333334 245.3333333333334 117.3333333333334 245.3333333333334 129.0666666666667C245.3333333333333 139.7333333333334 235.7333333333334 149.3333333333334 224 149.3333333333334zM128 96C109.8666666666667 96 96 109.8666666666667 96 128S109.8666666666667 160 128 160S160 146.1333333333333 160 128S146.1333333333333 96 128 96z" />
    <glyph glyph-name="settings"
      unicode="&#xEA4D;"
      horiz-adv-x="256" d=" M115.7653333333333 155.3173333333334L71.5413333333333 199.5413333333334L85.3333333333333 213.3333333333334L42.6666666666667 256L0 213.3333333333334L42.6666666666667 170.6666666666667L56.4586666666667 184.4586666666667L98.016 142.9013333333334z M202.0266666666667 107.3066666666667C198.7306666666667 106.9226666666667 195.392 106.6666666666667 192 106.6666666666667C188.7466666666667 106.6666666666667 185.5146666666667 106.8586666666667 182.272 107.232L143.4346666666667 59.2426666666667L191.6266666666667 11.0506666666667C206.3573333333334 -3.6799999999999 230.2293333333334 -3.6799999999999 244.96 11.0506666666667V11.0506666666667C259.6906666666667 25.7813333333334 259.6906666666667 49.6533333333334 244.96 64.384L202.0266666666667 107.3066666666667z M216.224 183.776L183.776 216.224L217.9946666666667 250.4426666666667C210.048 253.984 201.2693333333333 256 192 256C156.6506666666667 256 128 227.3493333333334 128 192C128 185.664 128.9493333333333 179.5626666666667 130.6666666666667 173.7813333333334L15.584 80.6613333333334C6.08 72.2666666666667 0.4053333333333 60.192 0.0213333333333 47.5306666666667C-0.3733333333333 34.8586666666667 4.544 22.4533333333333 13.504 13.504C22.208 4.7893333333334 33.7813333333333 0 46.0906666666667 0C59.3066666666667 0 71.9146666666667 5.6746666666667 80.6613333333333 15.584L173.7813333333334 130.6666666666667C179.5626666666667 128.9493333333334 185.664 128 192 128C227.3493333333334 128 256 156.6506666666667 256 192C256 201.2693333333334 253.984 210.048 250.4426666666667 218.0053333333334L216.224 183.776z" />
    <glyph glyph-name="single-02"
      unicode="&#xEA4E;"
      horiz-adv-x="256" d=" M164.9173333333333 106.4213333333333C153.856 99.9253333333334 141.4186666666667 96 128 96S102.144 99.9253333333333 91.0826666666667 106.4213333333333C52.2026666666667 103.872 21.3333333333333 71.5093333333334 21.3333333333333 32V13.5466666666667L28.7466666666667 11.168C30.176 10.72 64.4053333333333 0 128 0S225.824 10.72 227.2533333333334 11.168L234.6666666666667 13.5466666666667V32C234.6666666666667 71.5093333333334 203.7973333333334 103.872 164.9173333333333 106.4213333333333z M128 117.3333333333334C164.0426666666667 117.3333333333334 192 157.472 192 192C192 227.296 163.296 256 128 256S64 227.296 64 192C64 157.472 91.9573333333333 117.3333333333334 128 117.3333333333334z" />
    <glyph glyph-name="single-copy-04"
      unicode="&#xEA4F;"
      horiz-adv-x="256" d=" M245.3333333333333 21.3333333333333H224V234.6666666666667H42.6666666666667V256H234.6666666666667C240.5546666666667 256 245.3333333333333 251.2213333333334 245.3333333333333 245.3333333333334V21.3333333333333z M192 213.3333333333334H21.3333333333333C15.4453333333333 213.3333333333334 10.6666666666667 208.5546666666667 10.6666666666667 202.6666666666667V10.6666666666667C10.6666666666667 4.7786666666667 15.4453333333333 0 21.3333333333333 0H192C197.888 0 202.6666666666667 4.7786666666667 202.6666666666667 10.6666666666667V202.6666666666667C202.6666666666667 208.5546666666667 197.888 213.3333333333334 192 213.3333333333334zM117.3333333333333 53.3333333333333H53.3333333333333V74.6666666666667H117.3333333333333V53.3333333333333zM160 96H53.3333333333333V117.3333333333334H160V96zM160 138.6666666666667H53.3333333333333V160H160V138.6666666666667z" />
    <glyph glyph-name="sound-wave"
      unicode="&#xEA50;"
      horiz-adv-x="256" d=" M96 32C91.6586666666667 32 87.7226666666667 34.6453333333333 86.0906666666667 38.6986666666667L50.9546666666667 126.5386666666667L40.8746666666667 111.4133333333333C38.8906666666667 108.448 35.5626666666667 106.6666666666667 32 106.6666666666667H0V128H26.2933333333333L44.4586666666667 155.2533333333333C46.656 158.5386666666667 50.4213333333333 160.3093333333334 54.4426666666667 159.9466666666667C58.3786666666667 159.5306666666667 61.7813333333333 156.9813333333334 63.2426666666667 153.3013333333333L94.7626666666667 74.4746666666667L139.1573333333333 216.512C140.544 220.9706666666667 144.6613333333333 224 149.3333333333333 224C149.344 224 149.344 224 149.3546666666667 224C154.0266666666667 223.9893333333333 158.1546666666667 220.9386666666667 159.5306666666666 216.4693333333334L196.032 97.824L215.4666666666667 123.7333333333334C217.472 126.4213333333333 220.64 128 224 128H256V106.6666666666667H229.3333333333333L200.5333333333333 68.2666666666667C198.1333333333333 65.0666666666667 194.144 63.488 190.1653333333333 64.16C186.2186666666667 64.8533333333334 182.9866666666667 67.7013333333334 181.8026666666667 71.5306666666667L149.248 177.312L106.176 39.488C104.832 35.1786666666667 100.928 32.1813333333334 96.416 32.0106666666667C96.2666666666667 32 96.1386666666667 32 96 32z" />
    <glyph glyph-name="spaceship"
      unicode="&#xEA51;"
      horiz-adv-x="256" d=" M254.592 243.3493333333334A10.623999999999999 10.623999999999999 0 0 1 243.392 254.6026666666667C198.6453333333333 252.2666666666667 162.4 238.6773333333334 133.4613333333334 220.7893333333333C98.4 233.6 59.424 225.376 32.7573333333334 198.6986666666667A96.544 96.544 0 0 1 18.0053333333334 179.5093333333333C15.5413333333334 175.328 16.224 169.9946666666667 19.6586666666667 166.5493333333333L50.4 135.808C42.0373333333334 121.9733333333333 38.0906666666667 112.5226666666667 37.952 112.1706666666667C36.3626666666667 108.2026666666667 37.2906666666667 103.6693333333333 40.3093333333334 100.6506666666666L100.6506666666667 40.3093333333333A10.666666666666666 10.666666666666666 0 0 1 112.2346666666667 37.9733333333333C112.5866666666667 38.112 121.9626666666667 42.0906666666666 135.7226666666667 50.496L166.56 19.6586666666666A10.613333333333335 10.613333333333335 0 0 1 179.5200000000001 18.016A95.93599999999998 95.93599999999998 0 0 1 198.7093333333334 32.768C225.6106666666667 59.6693333333333 233.7813333333334 98.8266666666667 220.6720000000001 133.9946666666667C238.4853333333334 162.8586666666667 252.0746666666668 198.9333333333333 254.5920000000001 243.3493333333334zM110.4853333333333 60.64L60.5866666666667 110.528C69.3013333333333 128.5333333333334 98.3253333333333 179.7013333333334 157.1306666666667 210.1013333333334L209.824 157.408C179.3706666666666 98.7093333333334 128.4693333333334 69.4613333333334 110.4853333333333 60.64z M128 149.3333333333334C128 137.5512586702764 137.5512586702764 128 149.3333333333333 128C161.1154079963903 128 170.6666666666667 137.5512586702764 170.6666666666667 149.3333333333334C170.6666666666667 161.1154079963903 161.1154079963903 170.6666666666667 149.3333333333333 170.6666666666667C137.5512586702764 170.6666666666667 128 161.1154079963903 128 149.3333333333334z M11.872 54.9973333333333A30.32533333333333 30.32533333333333 0 1 0 54.7733333333333 12.096C42.9226666666667 0.2453333333333 0 0 0 0S0.0213333333333 43.1573333333333 11.872 54.9973333333333z" />
    <glyph glyph-name="square-pin"
      unicode="&#xEA52;"
      horiz-adv-x="256" d=" M234.6666666666667 0H21.3333333333333C17.632 0 14.208 1.92 12.256 5.056C10.3146666666667 8.2026666666667 10.1333333333333 12.128 11.7866666666667 15.4346666666667L43.7866666666667 79.4346666666667C46.4213333333333 84.704 52.8213333333333 86.8373333333334 58.1013333333333 84.2026666666667C63.3706666666667 81.568 65.504 75.1573333333334 62.8693333333333 69.888L38.592 21.3333333333333H217.408L193.1306666666666 69.8986666666667C190.496 75.168 192.6293333333333 81.5786666666667 197.8986666666666 84.2133333333333C203.1786666666666 86.848 209.5786666666666 84.704 212.2133333333333 79.4453333333333L244.2133333333333 15.4453333333333C245.8666666666667 12.1386666666666 245.6853333333333 8.2133333333333 243.744 5.0666666666666C241.792 1.92 238.368 0 234.6666666666667 0z M128 256C86.048 256 42.6666666666667 224.0853333333333 42.6666666666667 170.6666666666667C42.6666666666667 121.6 112.4693333333333 49.8453333333333 120.4266666666667 41.8133333333333C122.432 39.7973333333333 125.152 38.6666666666667 128 38.6666666666667S133.568 39.7973333333333 135.5733333333333 41.8133333333333C143.5306666666667 49.8453333333333 213.3333333333333 121.6 213.3333333333333 170.6666666666667C213.3333333333333 224.0853333333333 169.952 256 128 256zM128 149.3333333333334C116.2133333333334 149.3333333333334 106.6666666666667 158.88 106.6666666666667 170.6666666666667C106.6666666666667 182.4533333333333 116.2133333333334 192 128 192S149.3333333333334 182.4533333333333 149.3333333333334 170.6666666666667C149.3333333333333 158.88 139.7866666666667 149.3333333333334 128 149.3333333333334z" />
    <glyph glyph-name="support-16"
      unicode="&#xEA53;"
      horiz-adv-x="256" d=" M245.3333333333333 160H240.9173333333333C229.856 199.2533333333333 199.264 229.856 160 240.9173333333334V245.3333333333334C160 251.2213333333334 155.232 256 149.3333333333334 256H106.6666666666667C100.768 256 96 251.2213333333334 96 245.3333333333334V240.9173333333334C56.736 229.856 26.144 199.2533333333333 15.0826666666667 160H10.6666666666667C4.768 160 0 155.2213333333334 0 149.3333333333333V106.6666666666667C0 100.7786666666667 4.768 96 10.6666666666667 96H15.0826666666667C26.144 56.7466666666667 56.736 26.144 96 15.0826666666667V10.6666666666667C96 4.7786666666667 100.768 0 106.6666666666667 0H149.3333333333334C155.232 0 160 4.7786666666667 160 10.6666666666667V15.0826666666667C199.264 26.144 229.856 56.7466666666667 240.9173333333333 96H245.3333333333333C251.232 96 256 100.7786666666667 256 106.6666666666667V149.3333333333333C256 155.2213333333334 251.232 160 245.3333333333333 160zM128 85.3333333333333C104.4693333333333 85.3333333333333 85.3333333333333 104.4693333333333 85.3333333333333 128S104.4693333333333 170.6666666666667 128 170.6666666666667S170.6666666666667 151.5306666666667 170.6666666666667 128S151.5306666666667 85.3333333333333 128 85.3333333333333zM218.4746666666667 160H183.3386666666667C177.728 169.6746666666667 169.6746666666667 177.728 160 183.3386666666667V218.4746666666667C187.3813333333333 208.8533333333334 208.8533333333333 187.3813333333334 218.4746666666667 160zM96 218.4746666666667V183.3386666666667C86.3253333333333 177.728 78.272 169.6746666666667 72.6613333333333 160H37.5253333333333C47.1466666666667 187.3813333333334 68.6186666666667 208.8533333333334 96 218.4746666666667zM37.5253333333333 96H72.6613333333333C78.272 86.3253333333333 86.3253333333333 78.272 96 72.6613333333334V37.5253333333334C68.6186666666667 47.1466666666667 47.1466666666667 68.6186666666667 37.5253333333333 96zM160 37.5253333333334V72.6613333333334C169.6746666666667 78.272 177.728 86.336 183.3386666666667 96H218.4746666666667C208.8533333333333 68.6186666666667 187.3813333333333 47.1466666666667 160 37.5253333333334z" />
    <glyph glyph-name="tablet-button"
      unicode="&#xEA54;"
      horiz-adv-x="256" d=" M213.3333333333333 256H42.6666666666667C25.024 256 10.6666666666667 241.6426666666667 10.6666666666667 224V32C10.6666666666667 14.3573333333333 25.024 0 42.6666666666667 0H213.3333333333333C230.976 0 245.3333333333333 14.3573333333333 245.3333333333333 32V224C245.3333333333333 241.6426666666667 230.976 256 213.3333333333333 256zM128 21.3333333333333C122.112 21.3333333333333 117.3333333333333 26.112 117.3333333333333 32S122.112 42.6666666666667 128 42.6666666666667S138.6666666666667 37.888 138.6666666666667 32S133.888 21.3333333333333 128 21.3333333333333zM224 74.6666666666667C224 68.7786666666667 219.2213333333334 64 213.3333333333334 64H42.6666666666667C36.7786666666667 64 32 68.7786666666667 32 74.6666666666667V213.3333333333334C32 219.2213333333334 36.7786666666667 224 42.6666666666667 224H213.3333333333333C219.2213333333333 224 224 219.2213333333334 224 213.3333333333334V74.6666666666667z" />
    <glyph glyph-name="tag"
      unicode="&#xEA55;"
      horiz-adv-x="256" d=" M242.208 124.8746666666667L124.8746666666667 242.2080000000001C122.88 244.2026666666667 120.16 245.3333333333334 117.3333333333333 245.3333333333334H21.3333333333333C15.4453333333333 245.3333333333334 10.6666666666667 240.5546666666667 10.6666666666667 234.6666666666667V138.6666666666667C10.6666666666667 135.84 11.7866666666667 133.12 13.792 131.1253333333334L131.1253333333333 13.792C133.2053333333333 11.7013333333334 135.936 10.6666666666667 138.6666666666667 10.6666666666667S144.128 11.712 146.208 13.792L242.208 109.792C246.3786666666667 113.952 246.3786666666667 120.704 242.208 124.8746666666667zM74.6666666666667 160C62.88 160 53.3333333333333 169.5466666666667 53.3333333333333 181.3333333333334C53.3333333333333 193.12 62.88 202.6666666666667 74.6666666666667 202.6666666666667S96 193.12 96 181.3333333333334C96 169.5466666666667 86.4533333333333 160 74.6666666666667 160z" />
    </font>
</defs>
</svg>
