<svg xmlns="http://www.w3.org/2000/svg" id="flag-icon-css-ck" viewBox="0 0 512 512">
  <path id="path6059" fill="#006" d="M0 0h512v512H0z"/>
  <path id="path6069" fill="#fff" fill-rule="evenodd" d="M344.8 250.1l5.7-18.3-15.4-11.7 19.4-.2 6.5-18.1 6.3 18.1 19.4.6-15.6 11.4 5.6 18.4-15.9-11m29.7 14.4l11.4-15.3-10.6-16.3 18.4 6.4 12-14.8V233l18 7.1-18.4 5.5-.9 19.2-11.3-15.8m-108 16.5l-.8-19.2-18.4-5.7 18.2-7v-19.1l12 14.9 18.4-6.2-10.8 16.1 11.4 15.4-18.6-5m-43.6 45l-8-17.4-19.2 2 14-13.5-7.2-17.7 16.7 9 14.6-13-3.7 19.1 16.3 9.7-19 2.8m-19.2 61l-14.6-12.1-16.5 10 7-18.3-14-12.8 18.9.9 7.7-18 4.7 18.8 18.9 1.7-16 10.8m3.5 66.3l-18.2-5.3-11 16-.8-19.7-18-6 17.7-6.9v-19.7l11.7 15.5 18-6.1-10.5 16.3m32.4 55.9l-18.7 2.6-3.8 19.1L244 428l-18.8 1.8 13.5-13.5-7.9-18 16.9 9.3 14-13-3 19.3m49.4 41.7l-16.7 9 3 19.3-14.1-13.6-17 8.3 8-17.4-13.5-14.1 19 2.8 8.7-17 3.7 19m59.1 10l-9 16.8 12.8 14.5-19.1-3.6-9.8 16.4-2.7-19-18.9-4.4 17.4-8.2-1.9-19 13.5 13.9m63-14.4l-.7 19.2 18 7-18.6 5.6-1.3 19.1-11-15.7-18.8 4.9 11.9-15.4-10.3-16.1 18.3 6.2m59.8-223.2l13.1 13.9 17.5-8.1-9 17.4L475 284l-18.7-3-9.8 17-2.5-19.3-18.6-4 17.2-8.7m37.6 23.1l6 18.3 19.1.3-15.5 11.7L495 338l-15.6-11-16 11.1 6-18.5-15.2-11.6 19.3-.5m21.4 36.5l-2.2 19 17.3 8.6-19 4-3 19-9.5-16.7-19.1 3.2 13-14.3-8.8-17 17.7 7.9m3.2 43.7l-8.5 17.1 13.3 14-19.1-2.8-9.3 16.7-3.3-18.9-19-3.7 17-8.8-2.5-19 14 13.5m-10.9 43l-16.1 10 4.1 19-14.8-12.6-16.5 9.4 7-18-14.4-13.2 19.1 1.6 7.7-17.6 4.9 19"/>
  <g id="g6703" transform="matrix(.5 0 0 .5 0 -.5)">
    <path id="path6681" fill="#006" d="M0 0h512v512H0z"/>
    <path id="path6683" fill="#fff" d="M512 0v64L322 256l190 187v69h-67L254 324 68 512H0v-68l186-187L0 74V0h62l192 188L440 0z"/>
    <path id="path6685" fill="#c8102e" d="M184 324l11 34L42 512H0v-3zm124-12l54 8 150 147v45zM512 0L320 196l-4-44L466 0zM0 1l193 189-59-8L0 49z"/>
    <path id="path6687" fill="#fff" d="M176 0v512h160V0zM0 176v160h512V176z"/>
    <path id="path6689" fill="#c8102e" d="M0 208v96h512v-96zM208 0v512h96V0z"/>
  </g>
</svg>
