<svg xmlns="http://www.w3.org/2000/svg" id="flag-icon-css-me" viewBox="0 0 512 512">
  <path fill="#d3ae3b" d="M0 0h512v512H0z"/>
  <path fill="#c40308" d="M25.6 25.6h460.8v460.8H25.6z"/>
  <path fill="#b96b29" d="M367.4 251.8c3-.8 13.5-3.9 20.8-9.8 7.3-6 8.8-10.7 9.4-13.3.6-2.6.8-4.6-1-3.2-2 1.5-7.7 6-11.6 8.2a43 43 0 01-9.6 3.7c-2 .6-3.8 1-1.7.2 2-.8 8.6-3.1 13.7-8.2 5.1-5.2 9.2-12.8 9.3-17.6 0-4.7-.3-4.3-1.8-3.1-1.5 1.1-6.9 7.8-10 10.3a96 96 0 01-10.3 7.3c-2.4 1.4-5.8 3-1-.2 4.8-3.3 13.8-11 17.5-21 3.7-10 3-16 3-17-.1-1-1-3-1.8-1.1-.8 1.8-6.9 14-11.8 19.2-4.8 5.2-3.7 4.2-4.8 5-1 .8-3 2.3-.5-.6 2.3-3 7.2-9.7 9.7-16.5a54.9 54.9 0 003.3-17.3c0-3.9-1.6-9.2-2.4-10.8-.7-1.6-1.5-2.8-1.7-1s-4.2 13.8-6.3 19.6a74.9 74.9 0 01-7.1 13.7c-.8 1.2-3 3.8-.7-.6a82.6 82.6 0 007.5-29.4 47 47 0 00-2.8-22.3c-1.6-3.3-3.1-4.5-3.1-4.5s.3 8.3-2.2 20.3-6.1 18.2-6.1 18.2-1.5 1.8-.5-1.1c.7-2 2.2-6.2 2.8-13.4.7-7.5.8-16.1-1.4-23.4-2.4-8-6.5-12-6.5-12-1.2 11.4-1 26-5.2 38-.7-.7-1.8-2-2.2.7a67.3 67.3 0 01-7.4 20.6c-5.2 9.4-7.3 10.6-7.3 10.6l-1.6-3.5c-.7-1.3-1-2-2-.2-.8 1.7-3.7 8.3-10 15.6-6.3 7.2-9.8 10.8-9.6 16.2.2 5.5 3 8.3 6.9 10.7 3.8 2.5 4.5 3.9 3.9 6.8-.6 3-4 4-7 4.1-3 .1-6.7-.1-8 .6-1.3.8-1.4 2.7-2.8 4-1.3 1.4-1.9 2.1-3.1 2.3l-1 .2c-.4-14.4 5.2-20.8 5.2-20.8L291 217.7l-2.4 1.1a4.4 4.4 0 00-.4-.7 12 12 0 01-2.8-8.3c.8.1 2.3.7 3.8.4 1.4-.3.3-1.7-.1-3a27.6 27.6 0 01-.2-10.3s2.3 2.4 3.7 2.4c1.4 0 1.3-1.4 1.5-3a12 12 0 013.2-6.9s2.5 1.7 5.3 1.7c2.9 0 6.7-.7 9.7-3.6 3-3 3-3.6 3-3.6s5.6 2 10 2.2c4.2.2 8.8-.5 11-5 2.2-4.6-.6-8.8-1.1-9.5-.5-.7-2-1.3-2 0s.1 4.7-2.5 6.4c-2.6 1.7-4.6 1.6-7.1.8a21.8 21.8 0 00-14-.3c.2-.2 3.4-3.5 6.6-4.5 3.2-1 5.1.4 6.2 1.6 1 1.3 2 3.4 2.8.4.9-3 .4-6.4-1-8.6a8 8 0 00-7.7-3.2c-3.1.3-4.3.8-4.3.8s-1.6-4.6-5.7-5.4c-5-1-10.5.8-14.8 3.2 0 0-3.4.8-6.8-.2a22.4 22.4 0 01-5.9-2.9 301.9 301.9 0 011.2-3.7l2-.7c1-.4.8-.8 1-1.6.1-.9-2-2.4-2-2.4s-.3-2.6 3.1-4.3l3-1.5s2 .3 2.9-.2c.8-.6.8-1 .8-1s1.5-.5 2-1.4c.6-1 .7-2.2.3-3.3-.4-1-1-1.3-.4-1.8a4.5 4.5 0 001.2-2.5v-1s1.2-.5 1.1-2.3c0-1.7-1-2.4-1.6-2.6l-.9-.1s0-1.1-1-2.5c-.9-1.4-1.5-2-1.5-2s.7-.5.3-1.7a3.1 3.1 0 00-2-2.1c-.7-.3-1.6 0-1.6 0l-4-2.3-1.5-.8s0-1.1-.5-1.7c-.4-.6-1.5-.9-2-.9-.6 0-1.2.3-1.2.3s-4.5-1.1-6.4-1.4c-1.9-.3-2-.5-2-.5s-4-1.9-5.5-2.2l-2-.5s1.6-2 1.7-4.2a6.3 6.3 0 00-3-5.4l-1.7-.8V99l3 .3.2-4.8-3 .4.5-3h-6.2l.5 2.9-3-.2.3 4.8 3-.4-.2 1.8s-1.1.2-2.1.9a5.7 5.7 0 00-2.9 5.1 9.2 9.2 0 001.5 4.3l-2 .4c-1.5.3-5.6 2.2-5.6 2.2s0 .2-2 .5l-6.3 1.4s-.6-.3-1.2-.3c-.5 0-1.6.3-2 .9-.5.6-.5 1.7-.5 1.7l-1.6.8-4 2.3s-.8-.3-1.6 0a3.1 3.1 0 00-2 2.1c-.3 1.2.3 1.7.3 1.7s-.6.6-1.5 2-1 2.5-1 2.5l-.9.1c-.5.2-1.5.9-1.5 2.6-.1 1.8 1 2.2 1 2.2l.1 1c0 1 .6 2.1 1.1 2.6.6.5 0 .7-.3 1.8a4 4 0 00.2 3.3c.6.9 2 1.4 2 1.4s0 .4.9 1c.8.5 2.8.2 2.8.2s-.4-.3 3 1.4c3.4 1.8 3.1 4.4 3.1 4.4s-2 1.5-2 2.4c.2.8 0 1.2 1 1.6l2 .7 1.2 3.7c-1.3.9-3.5 2.3-5.8 3-3.4 1-6.8.1-6.8.1a22.5 22.5 0 00-14.8-3.2c-4.1.8-5.8 5.4-5.8 5.4s-1.1-.5-4.3-.8a8 8 0 00-7.6 3.2 11.1 11.1 0 00-1 8.6c.8 3 1.7 1 2.8-.4 1-1.2 3-2.6 6.2-1.6a19 19 0 016.5 4.5s-.5-.4-4-.9c-4-.5-7.4.4-10 1.2-2.4.8-4.4.9-7-.8-2.7-1.7-2.6-5.1-2.6-6.4 0-1.3-1.4-.7-1.9 0s-3.3 4.9-1.1 9.4c2.2 4.5 6.8 5.3 11 5 4.4-.2 10-2.2 10-2.2s0 .8 3 3.7c3 2.9 6.8 3.6 9.6 3.6s5.3-1.7 5.3-1.7a12 12 0 013.3 7c.2 1.5 0 3 1.5 3s3.6-2.5 3.6-2.5l.4 2.4c.2 1.7-.1 6.5-.5 7.8-.4 1.4-1.5 2.8 0 3 1.3.4 2.9-.2 3.7-.3a12 12 0 01-2.8 8.3 4.8 4.8 0 00-.4.7 57.5 57.5 0 01-2.3-1.1L205.6 236s5.6 6.4 5.3 20.9v-.1a20.7 20.7 0 01-1.2-.2c-1.2-.2-1.8-1-3.1-2.3-1.3-1.3-1.4-3.2-2.8-4-1.3-.8-5-.5-8-.6-3 0-6.4-1.1-7-4-.5-3 .1-4.4 4-6.9 3.8-2.4 6.6-5.2 6.8-10.7.2-5.4-3.3-9-9.6-16.2-6.3-7.3-9.2-13.9-10-15.6-1-1.7-1.3-1-2 .2l-1.6 3.5s-2-1.2-7.2-10.6a67.2 67.2 0 01-7.5-20.7c-.4-2.6-1.4-1.3-2.2-.6-4.2-12-4-26.7-5.1-38 0 0-4.2 4-6.6 12a63.8 63.8 0 00-1.4 23.4c.6 7.2 2.1 11.5 2.8 13.4 1 2.9-.5 1.1-.5 1.1s-3.6-6.3-6-18.2c-2.6-12-2.3-20.3-2.3-20.3s-1.4 1.2-3.1 4.5a47 47 0 00-2.8 22.3c.6 12.2 5.1 25 7.5 29.4 2.4 4.4.2 1.8-.7.5-.8-1.2-5-7.8-7.1-13.6A242 242 0 01128 165c-.3-1.8-1-.6-1.8 1s-2.4 7-2.4 10.8a54.9 54.9 0 003.3 17.3 68.1 68.1 0 009.8 16.5c2.3 3 .5 1.4-.6.6s0 .1-4.8-5a98.3 98.3 0 01-11.8-19.2c-.8-1.9-1.7.1-1.7 1.2-.1 1-.8 6.9 2.9 16.9a48.8 48.8 0 0017.6 21c4.8 3.2 1.3 1.6-1.1.2A96 96 0 01127 219c-3-2.5-8.4-9.2-9.9-10.3-1.5-1.2-1.8-1.6-1.7 3.2 0 4.7 4 12.3 9.2 17.4 5 5.2 11.7 7.5 13.7 8.3 2 .8.4.4-1.7-.2a42.9 42.9 0 01-9.6-3.7c-3.9-2.2-9.6-6.7-11.5-8.2-1.9-1.4-1.6.6-1 3.2.5 2.5 2 7.3 9.3 13.3 7.4 6 17.8 9 20.8 9.8 3 .9.9.9.9.9l-7.3-1.5c-6-1.4-15.3-6.2-17.8-7.8-2.5-1.5-2.8-2.1-2.5 1.2.3 3.3 3.9 10.3 9.5 13.6a53 53 0 0018.3 5.1c2.6.2 2 .5.8.6a55.1 55.1 0 01-20.6-3.5 32 32 0 01-.5-2.1c-.2-1.3-.9-1-1.3-.8-.4.3-.6.5-2 1.2s-1.5-.1-1.5-.6l-.4-3.1c0-1-.5-1-1.2-.7l-5 2c-1 .6 0 1.5.6 2.6a157 157 0 001.5 2.8l-3.8 1c-1 .2-.7.9-.4 1.5l2 4.9c.4 1 1.2.4 1.2.4l3-1.8 1 4c-.1 0-1.4.3-2.9 1.3s-1 2.4.7 2.9c1.8.5 3.8 1.4 6.1 5.6 2.3 4.1 2.9 11.6 4.3 23.4 1.4 11.8 9 17.8 10 18.5 1 .8.4 1.4.4 1.4s-1 1.5-.6 3.7a5.7 5.7 0 003.5 4c1 .4.8 1.5.8 1.5s-.6 2.5 0 7c.5 4.7 4.2 9.9 5.3 10.8 1 .8 1 1.3 1 1.7-.2.3-.9 0-2.1 1-1.3 1-2.7 2.3-3.6 4-.9 1.6-.6 2.5-.3 4.7.3 2.3 3.6 4.3 3.6 4.3s-.6.1-.8 1.8c-.1 1.6 1 3.4 2.6 4.6 1.4 1.2 4.2 1.8 4.2 1.8l.4 2.4c.2 1 2 2 3.2 2.6 1.2.6 3.5.3 4.4-.2 1-.4 1.7.1 2.2 1 .6 1 .4 4.7.4 6.2s-.9 3-.4 3.8c.6.7 2 .2 3.4-.6s1.7-.2 3 .6 3.3 1.6 3.8 1.5c.5 0 .3-1.4.3-2.5 0-1.2.2-3.7.7-4 .2-.2 2.4-.4 4-1 .9-.4 1.8-.7 2-1.5 0-.7-1.1-.7-3.6-2-2.4-1.3-2.8-2-4.4-3-1.5-1-.8-1.4-.8-1.9 0-.4.7-1 1-1.5.3-.6.2-2 .2-2l1.8-1.9c.6-.7 1.4-1.7 2.2-2.4.8-.6 2-3.8 2.9-4.9.8-1 2.6-2.1 3.7-3.5s4-3.7 5.8-4.8c1.7-1.2 6.3-3.3 6.3-3.3s-.1 2.7 1 4c1.3 1.4 2.8-1 8-4.7s9.3-5 9.3-5l2.5 3.5c1.4 1.7 2.7-.1 9.1-9 5-7 11.8-13.4 14.4-15.8l1.4.6-.4 1.2c-.6 1.8-1.5 3-2.8 5.6-1.2 2.5-3.2 3.1-5.4 6.6a16.8 16.8 0 00-2.7 9.3c-.2 3.6 1.8 4.3 1.8 4.3s-3.3 3.2-4.2 5.5c-1 2.4-1.5 7.2-1.5 7.2s-.5.2-1.7 2.6c-1.2 2.5-3.3 2.8-6.4 6-3.1 3-6.6 4.4-8.2 5.3-1.6 1-1.2 2-.7 3.2.4 1.2 2.6 2.5 5.2 3.4 2.6 1 3.5.6 5.2.6 1.8-.1.4 1.3-.3 2-.8.8-1.7 3.3-1.6 6.2.2 2.9 2.3 2.2 5 1.8 2.6-.5 5.7-1.8 5.7-1.8l-.3.8c-.3.8-.4 1.4-.4 3.7 0 2.3.3 3.4 1 4 .7.6 2-.7 3-1 .9-.3 2.5-1.2 4.9-1.7 2.3-.6 3.2-1.6 3.2-1.6s-.6.7-.7 2.4a18.8 18.8 0 00.3 5.4 10 10 0 003 4.6c1.6 1.5 2 .8 3.2-1 1.2-1.9 3.6-4.2 3.6-4.2l1.8 5.8c1.6 5.2 6.9 9.5 6.9 9.5s5.3-4.3 6.9-9.5l1.8-5.9s2.4 2.4 3.6 4.2c1.2 1.9 1.5 2.5 3.1 1a10 10 0 003-4.5c.4-1.4.5-3.8.4-5.4-.2-1.7-.8-2.4-.8-2.4s.9 1 3.3 1.6c2.3.5 4 1.4 4.9 1.7 1 .3 2.3 1.6 3 1 .6-.6 1-1.7 1-4a9 9 0 00-.5-3.7l-.3-.8s3.1 1.3 5.8 1.8c2.6.4 4.8 1 5-1.8a11 11 0 00-1.6-6.2c-.8-.7-2.2-2.1-.4-2 1.8 0 2.7.4 5.2-.6 2.6-1 4.8-2.2 5.3-3.4.4-1.3.9-2.2-.8-3.2-1.6-1-5-2.3-8.1-5.4-3.1-3-5.3-3.4-6.5-5.9-1.1-2.4-1.6-2.6-1.6-2.6s-.6-4.8-1.5-7.2c-1-2.3-4.2-5.5-4.2-5.5s2-.7 1.8-4.3c-.3-3.5-.6-5.9-2.8-9.3-2.2-3.5-4.1-4-5.4-6.6s-2.2-3.8-2.8-5.6a33.8 33.8 0 00-.3-1.2 152.2 152.2 0 011.9-.8c2.5 2.4 9.3 8.8 14.4 15.9 6.4 8.9 7.6 10.7 9 9 1.5-1.8 2.6-3.5 2.6-3.5s4 1.3 9.2 5c5.2 3.7 6.8 6 8 4.8.6-.8.7-2 .8-2.8l6.5 2a111.5 111.5 0 016 2.4c4.6 2 5.1 3 8.7 5.8 3.7 2.9 8.8 2.6 13.7 1.1 4.9-1.5 17.8-5.8 23-8 5.3-2.3 9-4.2 9.5-5.3a16.6 16.6 0 001.2-5c0-1-1.2-2.6-1.6-2.9-.3-.2-.2-1 0-1.7 0-.7-.3-2.6-1.1-3.5-.8-1-.7-1.2-.6-3.8a16 16 0 00-9-14.2s-.2-.7-.6-1c-.4-.4-1.2-.7-1.2-.7v-3.8c0-.6.4-.6.7-.4.4.2 1 1 1.9 1.2.8.2 1.4-.4 1.6-1.4.1-1 .9-3 1.2-4 .3-1 0-1.1-.5-1.2-.4-.2-1.7-.3-2.3-.4-.6-.2-.6-.2-.5-.6l1.2-2c.8-1.3 0-1.3-.7-1.6a62.3 62.3 0 00-5.2-1.5c-1-.1-1.2.7-1.2 1v3c.1.6-.5.4-.9.2l-1.8-1.2c-.7-.5-1.2 0-1.4.7l-1.3 4.6c-.3 1-.2 1.6.2 1.8h3c1 0 .5.5.5.5l-1.5 2.5c-.3.7-1 .8-1.8.8h-2.2s-5.7.2-9.8 3.3a17.4 17.4 0 00-6 7.1c-.6 1.5-1.3 1.2-2 1.7-.6.6-2.4 2.5-2.4 3.6 0 1.2.4 1.8-1.4 3-1.8 1.2-3.3 6.3-.8 9 2.4 2.6 3.4 5.2 4.1 6.5.7 1.3 0 1.8-.6 1.8a273.5 273.5 0 01-12.2-9c-2.4-1.7-.7-1.5-.7-1.5s.6 0 2-.5c1.5-.6 1.7-1.4.3-1.8-1.4-.5-4.2-2-5-2.8-.6-.7-1-1.5.4-2.3 1.4-.7 4.5-2.7 2-3.4l-7.6-1.8c-2.4-.7-2.6-1.4-2.6-1.4l1.5-2.2s1.3-1.8-.2-2c-1.5-.2-5-.7-8.3-2a20 20 0 01-12-13.5v-.1c1.3 2.4 4.1 6.9 8.4 7 5.8.2 6.5-1.6 5.1-3.5-1.3-2-2.8-3.7-3.2-4.2-.4-.6-.5-1.4 1 0 1.6 1.5 4.5 6.4 13.2 5.8 8.8-.6 8.8-2.3 8.8-2.8 0-1.7-1.8-2-2.9-3-.5-.5-.8-1.3 1-.7 1.7.7 6 1.5 12 .2 2.3-.5 8.5-3.2 9-6.3 0 0-3.8-.2-6.6-1.4-2.7-1.2-4.4-2.1-1.5-1.6 3 .6 8.6 1.8 13.6.1 2.9-1 6.7-3.3 6.7-7.6 0 0-5.4-1.2-7.4-1.9S355 288 355 288s7.8 2.4 14.8-1.1c7-3.6 7.3-8.5 7.3-9.6 0-1.1-.2-1.5-.2-1.5s-6.4 1.6-11.1 1.5c-4.8 0-6.3-.4-6.3-.4s13.4-.4 20-4.5c6.8-4.1 7.2-12.2 7.2-12.2s-7.6 2.7-12.4 3.3a55 55 0 01-8.9.4c-1.1 0-1.8-.4.8-.6 2.6 0 12.7-1.8 18.4-5a21.7 21.7 0 009.4-13.7c.4-3.3 0-2.7-2.5-1.2a76.6 76.6 0 01-25 9.3s-2.4-.1.6-1zm-240.1 15.4l-2.7 1.5-1.4-2.8c-.2-.7-.1-1 .3-1l2.3-.4h.4l1.2 2.6h-.1zm81.9 48a22 22 0 01-9.4 7.6c-3.2 1.4-6.8 1.8-8.2 2-1.5.3-.3 2-.3 2l1.6 2.3s-.2.6-2.6 1.3c-2.4.7-5.2 1.2-7.7 1.9-2.4.6.7 2.6 2 3.4 1.5.7 1.1 1.5.4 2.3a18 18 0 01-4.9 2.7c-1.4.5-1.2 1.2.2 1.8 1.4.6 5.3 1.3 5.3 1.3l-2.5 2c-2.3 1.7-6.5 3-9.2 3-2.7.2-7 .4-12.6.1l-6-.3-.6-4.6a23 23 0 00-3.3-8.3l-4-5.3.3-1.6c.2-1 0-1.9-.5-3.5-.7-1.7-3.9-4.1-3.9-4.1l-.1-3.5c0-1.7-1.2-8.2-2.2-11.3-1-3-6-11.1-8.3-15a42 42 0 01-4.6-21l.5-1.3a13.8 13.8 0 003.7 3.3c6.7 4 20 4.5 20 4.5s-1.4.4-6.1.4c-4.8 0-11.2-1.5-11.2-1.5s-.2.3-.2 1.5.3 6 7.3 9.6c7 3.5 14.8 1 14.8 1s-.7.6-2.6 1.3a86.7 86.7 0 01-7.4 1.9c0 4.3 3.7 6.6 6.6 7.6 5 1.7 10.7.5 13.6 0 2.9-.6 1.3.3-1.5 1.5-2.7 1.2-6.7 1.4-6.7 1.4.6 3.1 6.8 5.8 9.2 6.3 5.9 1.3 10.2.5 12-.2 1.8-.6 1.4.2.9.7-1 1-2.9 1.3-2.9 3 0 .5 0 2.2 8.8 2.8s11.7-4.3 13.2-5.7c1.5-1.5 1.4-.7 1-.1-.3.5-1.9 2.3-3.2 4.2-1.3 1.9-.7 3.7 5.2 3.5 4.3-.1 7-4.7 8.3-7l.3.4a55.1 55.1 0 01-2.5 5.6zM280 125l-1.2-2.2s3.3 1.5 5.3 3.8c2 2.2 1.9 3.4 2.2 4.5.3 1 0 3-.3 5-.3 1.8-.3 3 0 3.7l.8 1s-1.5.3-2.9.9c-1.3.5-3.1 1-4.1.2-1-.9-1.3-1.4-.7-2 .6-.5 3-1.2 3.3-5.2.3-4-1.6-8.2-2.4-9.7zm-18 11c.7-2 1-3.8.4-7.7-.4-3.3-1-6.1-1.2-9.7 0 0 2.4.6 6 3.8 3.4 3.2 4.2 6.5 4.2 8 0 1.7-.8 3.7-1 5.2s.5 3 .5 3-1.3.5-2.5 1.3-2 1.3-3.7 1.2c-1.8 0-2.8-.9-3.9-1.4-1-.6-1.7-.7-1.7-.7s2-1.1 2.8-3zm-17.2-13.6a15 15 0 016-3.8c-.2 3.6-.8 6.4-1.3 9.7-.6 4-.3 5.8.5 7.7.7 1.9 2.8 3 2.8 3l-1.7.7c-1 .5-2 1.3-3.9 1.4-1.7.1-2.5-.4-3.7-1.2-1.2-.8-2.5-1.3-2.5-1.3s.6-1.4.5-3c-.1-1.5-1-3.5-1-5.1 0-1.6.8-5 4.3-8.1zM232.2 142c-1 .8-2.8.3-4.2-.2-1.4-.6-2.9-1-2.9-1l.8-1c.3-.6.3-1.8 0-3.6-.3-2-.5-4-.3-5 .3-1.1.3-2.3 2.3-4.5 2-2.3 5.2-3.8 5.2-3.8L232 125c-.8 1.5-2.7 5.6-2.4 9.7.3 4 2.7 4.7 3.3 5.2.6.6.4 1.2-.6 2zm46.8 33.7c-3.5 2-5.5 1.5-5.3 3 .1 1.3 3.2 2.4 3.2 2.4s-3.2 3.4-5.6 5c-2.5 1.5-5.4 2.5-5.4 2.5s-1 .1-.4 1.7a5.8 5.8 0 002.3 3l1.2.6s-4.3 4.6-6.2 6.1a16.3 16.3 0 01-4.5 2.6c-1.6.7-.8 3.2-.4 4.3a5.7 5.7 0 002.4 3c.8.2 1 .7.1 2.3l-4.4 6-4.4-6c-1-1.6-.7-2.1 0-2.4.8-.2 2.1-1.7 2.5-2.9.3-1 1.1-3.6-.4-4.3a16.2 16.2 0 01-4.5-2.6c-2-1.5-6.3-6-6.3-6l1.2-.7a5.8 5.8 0 002.4-3c.5-1.6-.5-1.7-.5-1.7s-2.8-1-5.3-2.5c-2.5-1.6-5.7-5-5.7-5s3.1-1 3.3-2.5c.1-1.4-1.8-1-5.3-2.9s-4.6-4.3-4.6-4.3 4-1.3 6-5.4a7 7 0 00.8-3.8h.2c6.4 2.2 13.9 3 20.6 3 6.7 0 14.2-.8 20.6-3h.2c-.1 1.1 0 2.4.8 3.8 2 4 6 5.4 6 5.4s-1.2 2.4-4.6 4.3z"/>
  <path fill="#d4af3a" d="M300 253.6c0-10.9 5-17.7 5-17.7l-13.7-15.6c-12.9 5-24.8 5.3-35.3 0-10.6 5.3-22.4 5-35.4 0L207 236s5 6.8 5 17.7-2 19-3.3 24.2c-1.2 5.2-2.2 15 .6 22 2.7 7 5.7 13.2 17.8 18.2 12 5.1 18.4 7.7 22.6 11.2 4.2 3.6 6.3 6.4 6.3 6.4s2.1-2.9 6.3-6.4c4.2-3.4 10.5-6 22.6-11.2 12-5 15-11.2 17.9-18.2 2.8-7 1.7-16.8.5-22s-3.3-13.3-3.3-24.2z"/>
  <path fill="#b96b29" d="M295.7 258a30.3 30.3 0 014.3-19.4L288.3 225c-9 5-21.4 4.3-32.3-.7-10.8 5-23.3 5.7-32.2.7L212 238.6s6 9.1 4.3 19.5c-1.7 10.3-5.4 26.8-4.5 33.4 1 6.7 5.7 14.5 10.5 18.5a61 61 0 0017.2 9.4 49.3 49.3 0 0112.5 7.2c2.4 1.8 4 3.4 4 3.4s1.5-1.6 3.9-3.4c2.3-1.8 7.3-5.4 12.4-7.2a61.5 61.5 0 0017.3-9.3 33 33 0 0010.4-18.6c1-6.7-2.7-23-4.4-33.4z"/>
  <path fill="#1d5e91" d="M294.6 259.3a34.6 34.6 0 013.3-20.2l-10.5-11.7c-8.8 4.6-19.6 3.4-31.4-.7-11.7 4-22.5 5.3-31.4.7l-10.5 11.7s5 9 3.4 20.2c-1.7 11.2-4.3 23.9-3.8 31.3 0 .5 0 1 .2 1.6h9.5s.6-.7 1.6-1.1c1.1-.5 1.4-.8 1.4-.8s.2-2 1.4-2.3c1.1-.4 1.6-.4 2.1-.4s.8-.1 1.4-.7 2-2 2.7-3.9c.7-1.9 1-2.7 1-4s.5-3.2.5-3.2-.2-.6-1.2-.3c-1 .4-1.1-.6-1.2-1.6-.1-1 0-2.9.5-3.8l.8-1.2-.4-1.6s-6.1 1.3-7.2-3.5c-1-4.7-1.2-7-1.4-7.5-.1-.5-.3-.7-1.1-.7s-2.5-.5-3.8-3c-1.2-2.4-1.3-3.4-1-4.4.4-1 1-.6 1.3-.3.2.3 1.8 2.7 2.5 2 .6-.6.3-.6-.6-2.5-1-1.8-.6-2.4-.5-3.3 0-1-.3-2.2-.3-2.7s.5-.9 1-.6a4 4 0 011.4 1c.2.2.3.7.9.4.5-.3.2-2 .2-2.5 0-.6.6-1 1.4-.6a2.4 2.4 0 011.2 2c0 .6 0 1.1.4 1.1.3 0 .7-.9.7-1.5s.4-1.5 1-.7.7 1.8.5 3c-.2 1.2.2.6-.2 2.6s-.6 3-.5 4.5c0 1.5 0 2.4.8 4.2.8 2 1.4 4.1 2.8 4.2h1.8s1.6-3 2.8-3.8c1.2-.7 3-.8 4.2-1 1.2 0 1.7-.4 1.7-.7 0-.3-.4-.4-1.9-.6-1.4-.2-2.7-.6-2.7-1.7s.2-2.1-.7-2.2c-1 0-3.4-.8-4.2-2.4-.9-1.5-.7-1.9-.6-2.7.1-.9 1.2-2.6 2-1s1.1 1.8 1.7 2.2c.6.3 1.4.4 1-.7a5.4 5.4 0 01-.5-2.6c0-.8.6-1.2 1.3-1.3l3.6-1 1.1-.3s.1-.7 1.4-1.1a9.5 9.5 0 013.2-.5c1 0 1.6.2 2.9-.4a6 6 0 013-.7 4 4 0 012.1.8c.6.4.4 1 .4 1.5s.1.8 1 .8c.8 0 1.6 0 2.4.4s2 .7 1.2 1.6c-.7.8-.7 1.8-1.2 1.8-.4 0-.4.4-.6.7-.2.3-.3.6.2.9.5.3.5.6 1.2 1.3s1.8 1.3.7 2.4c-1 1-3 2-3 2s-1 .4.2 1.2c1.3.6 1.8 2.1 2.3 2.4l1.2.8c.3.1.2 1.2.2 1.2l-1.5.8c-1 .3-1.9.7-2.8.7-.8 0-1.3 0-1 .8l1.2 2.2.4 1.3s1.4.3 2.6.3c1.3 0 1.9 0 4.6-.3s3.6-.4 6.3 0c2.7.2 3.1.1 3.8.4l1.4.6s3.8 0 6-.5c2-.5 2.5-1.8 2.2-2.5-.3-.7-.3-1.8-3.9-2.3-3.6-.5-5.1-.3-8-.9-2.9-.5-7.4-2-8.2-5.6-.8-3.6 2.1-5.2 3.6-5.9 1.5-.7 4.6-1.8 6.1-2.4a14.1 14.1 0 017-.8c2.8.4 4.5 1.2 5.6.5 1-.7 2-.2 1.8.9-.2 1-1.3 3-4.5 4s-7 1.1-9.1.5c-2.1-.5-3.7-1.3-5-.9-1.2.5-2.6 2-1.3 4 1.4 1.8 8.4 2.4 10.3 2.6 1.9.2 8.8-.3 10.8 3.1 2 3.5.4 7.3-2 8.2a30 30 0 01-6 1.7l-1.8.2s.8 1.9.8 2.6c0 .8-.1 2.2.8 2.8s2 1 3.5.8c1.5-.2 3.3.8 3.4 2.2 0 1.3.5 3.1.6 5.8.2 2.6 0 4.8 0 4.8s0 1-.4 2l-2.2 4.7h10.2a22.5 22.5 0 00.1-1.6c.5-7.5-2.1-20.2-3.8-31.4z"/>
  <path fill="#6d8c3e" d="M215 297.1c2 5.8 6.2 11.5 12.5 15.3 8.7 5.3 12.4 4.6 20.7 10 8.2 5.3 7.7 6.2 7.8 6.2.1 0-.4-1 7.8-6.3 8.3-5.3 12-4.6 20.7-9.9a29.2 29.2 0 0012.4-15.3h-81.8z"/>
  <path fill="#d4af3a" d="M222.2 253c1 1 1.6 1.3 3 1.1 1.5-.1 1.8 1 2 2 .3 1.2.3 3.9 1.4 6.3 1 2.5 4.4 2.6 4.4 2.6.1-1.2.6-2.8 1-4 .2-.3.6-1.4-.6-1.4s-1.2-.5-2-1.7a23.1 23.1 0 01-2.4-6.3c-.4-2 .3-5 .6-6.1.3-1.1.4-1.9 0-2-.4-.3-1.2 0-1.2 0s.3.9 0 1c-.4.2-.7-.5-1-1.2-.2-.7-.5-.6-1-.5-.5 0-.5.5-.1 1 .3.5.1 1.4.1 1.4l-1.5-1c-.4-.2-1.5.2-1.6.8 0 .6.4 2 1.4 2.9 1 .8 1 2.4.6 3.1-.3.8-1.7.7-2 .3a.8.8 0 00-1.2 0c-.4.5-.8.7.1 1.7zm-.5-2.6l-.8-.7-.6-.8v.9c0 .6.6 1.2.6 1.2l.8-.6zm2-6.8c.5-.2.8-.3.5-.8-.4-.5-.7-1-1-1.2h-.6l.4 1.4c.1.6.3.8.7.6zm2.6-2.1c0 .4 0 .6.4.4s.6-.7.4-1.1c-.2-.4-.7-.7-.7-.7l-.3-.2.2 1.6zm3.7.6l-.2-1s0 .5-.2.9c-.3.3-.2.2 0 .5.3.3.3 0 .4-.4zm5.8 25c.7 1.7 2.5-1 4.2-3 1.7-2.2 1.6-.6 1.4 1.2a8.2 8.2 0 001.1 4.7c.7 1.2 1.3.5 1.5-.3.3-.8.5-2.6 1-3.4.7-.9 1.2-.1 1.3.6a8 8 0 001.7 3.3c.9 1 1.3-.3 1.5-1.5l.9-3.7c.2-.7 1-.1 1-.1l1.7 1.6c1 1 1.2-.6 1.3-1.4.1-.9-.2-2.7.2-3 .3-.3 1.2.4 2.7 1.1 1.5.7 1.4-.7 1.2-1.4a8 8 0 00-2.1-3.6c-1.2-1-1.4-2.2-1-2.7.4-.5 1.8 0 2.7-.2.9 0 1.3-.2 2-.3.7-.1.7-.8.7-.8s-.5-.8-1.5-1.7-1.5-1.5-2.7-1.8c-1.1-.2-2.7 0-2.7 0l-.2-.3c-.2-.3-.5-.3-.7 0l-1.3 1.2c-.4.4-.7.6-1 .4-.3-.1.3-.5.3-.5s.6-.5 1.1-1.6c.6-1.1.7-2.2.3-2.7-.4-.5-1.7 0-2.3 0-.7 0-1.1.1-1.2-.2 0-.4.7-.2 1.5-.3.9-.1 1.4-1.1 1.7-2 .2-.8.5-.7 1-.2s1 .4 1 0l1.1-2c.6-.8 1-2 .3-2.7-.6-.8-2.1-.7-2.7-.2-.6.5-1 1-1.2 2.2-.1 1.3-.5.6-.5.2s-.5-1-.3-1.5c.3-.5 0-1 0-1s0-1.1-1.2-1.4a9.2 9.2 0 00-3.7.4c-1.2.3-1 1.3-1 1.3l-1.8.1c-1 .1-2 .5-3 .8-.9.2-1.2.3-1.2.7l.2 1.2s.7 0 1 .2c.5.3.3.7-.2.8-.4.2-.6.2-.6.8s.2.7.7.7c.4 0 1.4 0 2.5.5 1 .5 1.4 1.5 1.3 2-.2.6-1.7 1.3-2.5 1.3s-1 .2-1 .7 1 .5 1 .5l2.7.2c1.9.3 2.2.6 3 1.4.8.7.2.9-.2 1-.4.3-1 .8-1.6 1-.6.3-1 .7-1.6.8-.5.1-2 0-4.5 1s-3.4 4.5-3.4 4.5l1.5-.8 4-2.1c1.3-.8 1.3.4.6 1.6s.6 1 1 .6.9-.7 2.2-1.4c1.3-.6.8.4.8.4s-.4.8-.5 2.7c-.1 1.8 1.9 0 2.7-1.1 1-1.2 1.3 0 .7 1.3-.7 1.4-2 2.4-2.7 2.4-.7 0-1.3-.7-1.4-1.2 0-.4.3-1.8-.2-2.1-.4-.4-1.7 0-2.7.6-1 .6-1.1.1-1.4-.4-.2-.5.4-.7.2-1-.3-.3-.8 0-1.2.2l-3 1.5c-1.7 1-1.6 1.4-1.6 2.7s.3 1.6 1 3.3z"/>
  <path fill="#d4af3a" d="M252.5 239.1l1-.5 1.6-.3c.8 0 .6-.5.5-.9-.2-.3-.5-.5-1.5-.5s-1.6.5-2.1.7c-.6.3-1.3.4-1.3.4l.5.7c.4.6 1 .7 1.3.4zm4 4l.9-.2 1.3-.6c.7-.3 1-.4 1.4-1.1.4-.8-.5-.8-1.6-1.1-1.2-.3-1.7 0-1.9.5 0 .4 0 1-.5 1.8s0 .7.4.7zm-.3 1c-1.1 0-2.4 1.7-2.9 2-.4.3-.2.6-.2.6a6.7 6.7 0 00.7 3.1h.8c.6 0 1-.3 1.7-.7a4.3 4.3 0 012-.8 6 6 0 002.3-.9c1-.5-.5-1.4-1.6-2.3a4 4 0 00-2.8-1zm-15 3.9c1-.1 1.4-.6 1.4-1 0-.6-.5-1-1.6-1-2.8.3-5.5-.7-6-3.5 0 0-1 1.7.8 3.7 1.7 1.9 4.6 1.9 5.5 1.8zm-9.4 43.7l.5.5h4.3c.7-.2.7-.9.7-1.3 0-.6.5-2.1 1-5 .7-2.8 1.7-4.8 2.1-6 .4-1.1-.4-1.5-.7-2.2-.3-.7-.8-2-.9-2.6-.1-.7-1.1-.6-1.7-.5-.5 0-.6 1-.7 1.7 0 .9-.5 3.4-.9 5.5-.4 2.2-2.8 5-3.5 5.7-.7.6-1.2.9-1.7.9s-1.5 0-2 .3-1 1-1 1.7c0 .6 1 1 1 1l1-.9c.3-.4 1-.4 1.7-.6.7-.1.7.2.5.5-.3.3-.2.4.3 1.3zm-6.5-.2c-.3 0-.6.4-.7.7h2.8a1.5 1.5 0 00-.3-.7c-.3-.4-1.2-.2-1.8 0z"/>
  <path fill="#d4af3a" d="M229 291.4a3 3 0 00-.9.8h3c.1-.3.2-.7-.2-1-.7-.5-1.4 0-1.8.2zm26-1.2c-.3 0-.6.3-1 .6-.5.3-.7.8-.7 1.2a.3.3 0 000 .2h1.3a.2.2 0 000-.2c0-.4.2-.7.7-1.2.6-.4 0-.6-.2-.6zm2.5 1.3c0-.4-.1-.7-.4-.7-.3 0-.8.6-1.2.8l-.5.6h2l.1-.7z"/>
  <path fill="#d4af3a" d="M269 277.7c1-.6.8-.8.9-1.5 0-.7 0-.9-.3-1.1-.4-.3-1.8-.9-3-.9s-3.6.3-4.6 1c-.9.5-1.3 2.8-1.3 4 0 1 .2 1.2.5 1.2s.9-.8.9-.8l1.9 2.7c.7 1 .4 1.5 0 2.3-.3.8-1.4 3-2.4 3.5s-1.6 0-2.8-.1c-1-.2-1.7.1-2.3.8-.7.6 0 1.1.3 1.1.4 0 1 0 1.4.5.3.4 0 1.3 0 1.8h5.5c.9-.4 1.6-1.7 1.8-2.4.3-.8 1.5-1.9 2-2.4.7-.6.7-1 .7-2.1a5.2 5.2 0 00-.7-2.7 5 5 0 01-.7-2.8c.1-.7 1.3-1.5 2.2-2.1z"/>
  <path fill="#d4af3a" d="M260 264c.5.8.3 1-.5 1.2-.8.1-1.7.3-3 .2s-1.1 0-1.2.7a5.4 5.4 0 01-.8 2.9c-.8 1-1.7.5-2.2.2-.6-.4-.9-.3-1 .4l-1.2 2.2c-.6 1-1 1-1.4 1-.4-.2-.8-.8-1.2-.8-.4 0-1.1-.9-1.7-1.9-.6-1-1 .1-1.4 1-.4.9-.8 1.5-1.6 1.4-.8-.1-1.7-1.6-2.1-2.5-.5-1-.8-1.8-1.4-1.7-.7 0-1.9 1.4-2.6 1.8-.8.4-1 .3-1.3-.2-.4-.5-.8.2-1.3 1.3-.4 1.1 0 2.1.7 2.4.6.3 1.8-.6 2.7-1.1.8-.6 1.2-.4 2-.4.9 0 .8 1.4 1.2 3.4.4 2.1 1.6 2.4 1.6 2.4s.4.3 1.3-1.2c1-1.6 1-3.2 2-3.2.9 0 1 .2 1.8 1.5 1 1.2 1.7 2.1 2.2 1.2.5-1 1-2.3 1.6-2.8.5-.5 1-.6.5.3-.6.9-1 1.8.4 1.5 1.2-.4 6-2.4 8-2.8l5-.5 4.4-.3c1 0 1 0 1.1-.8 0-.7-.5-.5-2.4-.5-2 0-3.3.2-4.6.4-1.4.2-2 .2-1.8-.2.3-.3.7-.6 2.2-.8a63 63 0 016.4-.4c1.7 0 1.1.4 1 1.6-.1 1 .1 2.7.2 3.7s.2 1.4 1 2.8c1 1.5 4 2.4 5 2.8.9.5.7 0 .7-.8 0-.9.7-.9 1.5-.4.8.4 2 .8 3 1 1 .3 1 .5 1 1l.3 2.5c.1 1 0 1.3-.4 2l-2.1 2.4s-.8 0-2.5.4-2.2 1.2-2.4 1.9c-.2.7.3.9.4 1.1v.9h.4a8.8 8.8 0 01.6-1c.6-.7 2-.9 3-.4.7.3.7 1 .6 1.4h3.9l2-4.2c.5-.9.7-1.5.7-2.8 0-1.2.2-6.2 0-6.4-.3-.3 0-1.1 0-2.5-.1-1.4 0-2.4-2.6-2.7-2.5-.2-3.3-1.3-4.2-2.2-.9-.8-.6-2.8-1.3-5.2-.7-2.5-2.4-2.8-5.4-3.4a25 25 0 00-7.5-.5c-2.2.2-5 .6-6.6.4-1.5-.2-1.2.3-.7 1.2z"/>
  <path fill="#d4af3a" d="M274.5 291.6a1.9 1.9 0 00-.6.6h2.6a1 1 0 00-.2-.8c-.4-.5-1.2-.2-1.8.2zm4.7-.1a2.4 2.4 0 00-1 .7h2.7v-.3c0-.4-.9-.9-1.7-.4zM214 293l.6 2.5h82.8a24.5 24.5 0 00.6-2.5h-84zm55.8-39.6c2.7 1.8 11 1.9 14.9 2.6 3.9.8 3.6 3.8 2.4 5.4-1.2 1.5-6.7 1.7-7.7 1.8.6.4 1.4 1.6 1.4 1.6l2.2-.2a12 12 0 006.5-2.2c2-1.7 1.9-4.3.1-6.1-1.7-1.8-4.6-2-7.6-2.3l-8.5-1.1c-3.3-.6-4.9-2-4.9-3.8 0-2 1.8-3 3-3.3 1.4-.4 3.4-1 5.3-.3 1.8.7 4 .8 7.6.3 3.6-.4 4.4-3 4.4-3s-.4.3-2.3.3c-1.8 0-3.1-.7-6.5-.8-3.3 0-4.5 1.2-6 1.7-1.6.6-5.8 1-7 3.7-1.3 2.7.1 4 2.8 5.7z"/>
  <ellipse cx="248.1" cy="241" fill="#b96b29" rx="1.6" ry="1.5"/>
  <path fill="#b96b29" d="M281.6 243.7c-2-.2-4.8.3-4.8.3s.6.4 1.3.4c.6 0 1.9-.1 3.9.3 2 .3 3.5-.6 3.5-.6l-3.9-.5z"/>
  <path fill="#1d5e91" d="M262 282.2c-.5-.8-.7-.7-1.2-.2-.6.5-1.2-1.2-1.3-2.3l.4-4.4s-2.8.5-4.3 1-3 .7-4.2 1c-1.2.3-1.9.6-2.5.4a18.5 18.5 0 00-3.1-.2c-1.1 0-1 .2-2.1 1.3-1.1 1-1.4 1.7-2.3 3.7-.8 2-1.1 3.9-1.4 6.4-.2 1.6-.5 2.7-.7 3.3h13l.5-1.4a3.2 3.2 0 011.5-1.4c.6-.3 1-.3 1.2-.8.3-.6 1-1 1.6-1.4.7-.3 1.9-.1 3 .2 1 .3 1.4-.5 1.7-.9l1-1.7c.6-.8.2-1.4.2-1.4s-.5-.4-1-1.2zm20.8.4c-.2-.8-.1-.9-.5-1-.5 0-1.2-.2-1.9-.5-.6-.3-.6 1.5-.6 1.5s-1.5.1-3.2 0c-1.7-.3-3.8-1.8-4.5-2.3-.7-.6-1.5-1.7-1.5-1.7l-1 .8c-.6.3-1 1.4-1 2.5-.1 1 1.2 2.4 1.3 3.5.1 1-1.2 3.3-1.8 4.1-.4.6-1 2-1.3 2.7h6.2l.7-1c.6-.7 1.7-.9 1.7-.9l.3-.8c.2-.6.9-1.3 2.4-1.9 1.6-.6 3.4-.7 3.4-.7s.8-.6 1.3-1.5c.6-.8.2-2 0-2.8z"/>
  <path fill="#d4af3a" d="M230.6 351.6c1.2.4 3.4-.4 4.5-1.8 1-1.3 1.4-3.3 2.2-4.5l1.4-2s-.2 2-1.2 4.5a16.5 16.5 0 00-1 7.3c.5 2.8 2.4 3.3 3.5 3 .8-.4 2-1.7 3.2-3.6l1-2c.7-1.5 1.4-3.8 1.7-3.7.7.1.3 1.7 0 2.8-.6 2.2-1.6 5.4-1.7 7.3-.1 2 .1 5.5 2 5.7 2 .1 3-1.6 4.1-5.6 1.1-4 1.3-5.2 1.8-5.2s.5 2.7.5 3.9a19.5 19.5 0 001.7 7.9c1 .8 1.7.7 1.7.7s.8.1 1.7-.7c1-.9 1.7-6.7 1.7-7.9 0-1.2 0-3.9.5-3.9s.7 1.3 1.8 5.2c1 4 2 5.7 4 5.6 2-.2 2.2-3.7 2.1-5.6 0-2-1.1-5.2-1.7-7.4-.5-2.1.3-2 1.7.8l1.4 2.7c1 1.6 2 2.6 2.8 3 1.1.3 3-.2 3.5-3 .4-3-1.7-11.2-1.7-11.2l.9 1.4c.8 1.2 1.2 3.2 2.2 4.5 1.1 1.4 3.3 2.2 4.5 1.8s1.3-2.5.4-6.4c-.8-4-4.3-6.1-6.8-9.2-2.3-2.9-4-8-4.3-8.7a28.7 28.7 0 00-8.4 6l-6.3 6.6s-1-1.3-6.2-6.7a28.9 28.9 0 00-8.5-6c-.2.7-2.4 5.6-4.7 8.4-1.1 1.5-2.7 2.6-3.9 4a13.2 13.2 0 00-2.5 5.6c-.9 3.8-.7 6 .5 6.4z"/>
  <path fill="#d4af3a" d="M230.5 364.8l2.3-2s1-1 .8.8c-.3 1.7-.9 5.3-.5 6.8.4 1.6.6 3 2.5 1.8s2.3-1.9 3.2-2.8c1-1 2-1.4 1.7.1-.2 1.5-1 3.8-.6 6.9.3 3 1.8 3.5 3.8.9a34.4 34.4 0 003.7-6.3c.6-1.3 1.8-2.4 1.8 0 0 5.1 1.2 12.6 6.8 14.5 5.7-2 6.8-9.4 6.8-14.5 0-2.4 1.2-1.3 1.8 0a34.5 34.5 0 003.7 6.3c2 2.6 3.5 2.1 3.8-1 .4-3-.3-5.3-.6-6.8-.2-1.5.8-1 1.7-.1.9 1 1.4 1.6 3.3 2.8 1.9 1.1 2-.2 2.4-1.8.4-1.5-.2-5-.5-6.8-.2-1.8.9-.8.9-.8l2.2 2c1.5 1.3 3.6 1.4 3.6 1.4s1-5.3-1.3-8.5l-3-4.3s-1.3 0-2.2-.4c-1-.4-2-1.1-2-1.1v3l3.4 3.3c.7.8 2 2.1 0 .9a53.9 53.9 0 01-3.3-2.6s-.4 2.7-1.2 3.4c-.8.7-1.9.8-2.3.6l-.5-.2-.1 1s1.7 3.2 2 4.5c.1 1.2-.2 1.1-1-.5-.8-1.7-2.3-3.8-3-5-.7-1-1.7-1.8-1.6-.4.1 1.5-.5 4.1-1 5l-.8 1.4 1.2 4.4c.1.6 0 1.4-.6.5-.6-.8-2.2-4.5-2.2-4.5s-2.3 0-3-.7c-.6-.6-1.6-3.1-1.6-3.1s-.9 3.1-1.6 4.1c-.8 1-2.6 2-2.6 2l-.2 6.5c-.1 1-.2 1.4-.6 1.4-.4 0-.4-.4-.6-1.4l-.2-6.4s-1.8-1-2.5-2c-.8-1-1.7-4.2-1.7-4.2s-1 2.5-1.6 3.1c-.7.6-3 .7-3 .7s-1.6 3.7-2.2 4.5c-.6 1-.7.1-.5-.6 0-.6 1.1-4.3 1.1-4.3l-.8-1.3a13 13 0 01-1-5c.1-1.5-1-.8-1.6.4-.7 1.1-2.2 3.2-3 4.9-.7 1.6-1.1 1.7-.9.5.3-1.3 2-4.5 2-4.5l-.2-1-.4.2c-.5.2-1.6 0-2.4-.6-.7-.7-1.1-3.4-1.1-3.4l-3.4 2.6c-2 1.2-.6 0 0-.9a76.8 76.8 0 013.4-3.3v-3s-1 .7-2 1a8 8 0 01-2.2.5l-3 4.3c-2.2 3.2-1.3 8.5-1.3 8.5s2.1 0 3.6-1.4zm27.5 35.7c-1.5-1.7-2-2.5-2-2.5s-.4.8-1.9 2.5c-1.4 1.7-4.8 4.3-4.8 4.3A16.5 16.5 0 00256 417c2.2-1.4 3.5-3.3 4.9-5.3 1.6-2.4 1.9-6.9 1.9-6.9s-3.4-2.6-4.8-4.3z"/>
  <path fill="#b96b29" d="M255.3 406c.1 1 0 3.6.7 3.6.6 0 .5-2.6.7-3.6l.1-3.5h-1.7s0 2.4.2 3.5z"/>
  <path fill="#d4af3a" d="M256 161.4a54 54 0 01-17-2.2l-4.2 1a55.3 55.3 0 0021.2 3.4c9.3-.1 14.7-1 21.1-3.5l-4.2-.9a54 54 0 01-17 2.2zm21.9-5a43 43 0 00-4-2.7c-.7-.4-.1-1.4 0-1.8a18 18 0 015-1.7c1.6-.4 1.4-.8 1.4-.8s-1-1.1-7.2-1.8-17.1-.5-17.1-.5-11-.2-17.1.5c-6.2.7-7.2 1.8-7.2 1.8s-.3.4 1.4.8c1.7.5 4.8 1.3 5 1.7 0 .4.6 1.4 0 1.8a31 31 0 00-4 2.7c-.5.4-.5 1 .2 1 .8 0 .8 0 3-.4a101 101 0 0137.5 0c2 .5 2.1.5 2.9.4.7 0 .7-.6.2-1z"/>
  <path fill="#d4af3a" d="M270.8 159c-4.2-.5-7-1-14.8-1-7.9 0-10.6.5-14.8 1 2.6 1 7 1.6 14.8 1.6s12.2-.5 14.8-1.6zm-19.4-61l3.5-.4-.2 3 3.2-.2-.3-2.9 3.5.5.2-2.8-3.7.3.6-3h-4l.7 3-3.5-.3zm10.4 7.2h-4.4v-3.7a6.4 6.4 0 00-1.3-.1 6 6 0 00-1.1 0v3.8h-4.5a4.9 4.9 0 00-.2 2.1H262v-.6a5.8 5.8 0 00-.3-1.5z"/>
  <path fill="#1d5e91" d="M256.1 112c2.6 0 4.8-1.5 5.6-3.6h-11.2c.8 2.1 3 3.6 5.6 3.6zm2.4-10.2v2.6h3a5.6 5.6 0 00-3-2.6zm-4.8 0a5.7 5.7 0 00-2.9 2.6h3v-2.6z"/>
  <path fill="#b96b29" d="M259.5 149.3l-3.5-1.6-3.5 1.8c-1.3.6-1.1.4-1.5 1.4-.4.8 0 1.2.6 1.4l4.4 2.3 4.9-2.3c.9-.4.7-.9.5-1.6-.3-.6-.8-.9-2-1.4z"/>
  <path fill="#d4af3a" d="M259.9 150.4l-4-1.8-3.7 1.8 3.9 2zm-4-15s-.3 1.4-.7 2c-.4.5-.7 1-.6 1.8.1.7.9 1.1 1.4 1.1.4 0 1.2-.4 1.4-1.1 0-.7-.2-1.3-.7-1.8-.4-.6-.7-2-.7-2z"/>
  <circle cx="256" cy="141.7" r=".7" fill="#d4af3a"/>
  <path fill="#d4af3a" d="M253.4 138s1.3-1.4 1.7-2.3l.9-1.6.8 1.6c.5.9 1.7 2.3 1.7 2.3s1.8-1 2.8-4.3c1-3.4-.3-7-.7-10.8a162 162 0 01-.8-10.4 7.8 7.8 0 01-3.8 1.1 7.8 7.8 0 01-3.8-1.1s-.4 6.6-.9 10.4c-.4 3.9-1.7 7.4-.7 10.8 1 3.4 2.8 4.3 2.8 4.3z"/>
  <ellipse cx="256" cy="130.4" fill="#b96b29" rx="3" ry="2.9"/>
  <ellipse cx="256" cy="123.5" fill="#b96b29" rx="2.9" ry="2.8"/>
  <ellipse cx="256" cy="117" fill="#b96b29" rx="2.8" ry="2.7"/>
  <circle cx="256" cy="129.9" r="1.6" fill="#d4af3a"/>
  <ellipse cx="256" cy="123" fill="#d4af3a" rx="1.6" ry="1.5"/>
  <ellipse cx="256" cy="116.5" fill="#d4af3a" rx="1.4" ry="1.3"/>
  <path fill="#b96b29" d="M255.9 358.5c.2 0 .2-.5.2-1.4l.4-4.3c.2-1.2-.3-1.2-.7-1-.3 0-.5 1-.5 1.5l.2 4.4c0 .7.2.7.4.8z"/>
  <path fill="#d4af3a" d="M224.4 383c1.4-.8 2.6-1.7 5.6-3.8a12.6 12.6 0 004.2-4.2h-1c-.7 0-1.2-.8-1.2-1.7 0-.8 0-2.4.2-4.4.2-2-.3-3.5-.3-3.5s-1.3 1.2-3.3 2.3c-2 1-2.8.5-2.8.5l-.5-2-2 4c-1.2 2-4.5 4.4-6.8 6.2a30.8 30.8 0 01-6.9 4.2c-1.9.7-.8 1.6-.8 1.6s2 2 7 2.8c5 1 7.3-1 8.6-2z"/>
  <path fill="#d4af3a" d="M241.9 381.1c-1.8-.2-2.9-.8-3.2-2.8-.2-1.2 0-6 0-6l-1.2 1.2c-.7.9-2.2 1-2.2 1s-.2.7-.9 1.8a10 10 0 01-3.2 3.5 53.8 53.8 0 00-5 3.4 30 30 0 01-4.5 3.3 7.5 7.5 0 00-3.8 5c-.6 2.5-.2 3.3 1.8 3.2 2-.2 2.2 0 5.4-.8s7.7-4.4 11-6.5c3.4-2 5.8-6.3 5.8-6.3z"/>
  <path fill="#d4af3a" d="M250.7 384s-1.3-1.7-1.8-3.6l-1.5-5.8-1.5 3.5c-1 2.3-3 2.9-3 2.9s0 1-1.5 2.9a22.5 22.5 0 01-6 5 22.5 22.5 0 00-7 5.6c-1.6 2.3-1.7 4.7-1 5.7.8 1 1.9-.2 3.4-1 1.5-.7 5.9-1.4 12-4.6 6-3.2 7.9-10.6 7.9-10.6z"/>
  <path fill="#d4af3a" d="M253.3 397.5c1.7-2.5 2-8.5 2-8.5l-1.5-1-2.3-3.1-2 4a16.2 16.2 0 01-4 4.6c-2.2 2.1-5.2 4.1-6.5 6.3-1.3 2.3-.6 6.7.2 8.1.9 1.5 2 1 3.3-.2l3.9-3.4c2.2-1.9 5.3-4.3 7-6.8z"/>
  <path fill="#b96b29" d="M233.6 347a23 23 0 012.7-5 16 16 0 001.3-2.5s-2.1 2-3 3.4a15 15 0 00-1.7 4.2c-.4 1.5-.2 1.7.7 0zm8.5 1.6a53.6 53.6 0 00.5-2s.4-1.2.2-1.3c-.2 0-1 .8-1.7 2.7-.6 2-1.5 4.8-1.3 5 .1 0 2-3.2 2.3-4.4zm6.7 5.4l.4-1s.7-2.1.7-2.6-.2-1-.8.2c-.6 1.1-.6 2.2-.7 2.7-.2.5-.8 2.2-.6 2.4.2.1.6-.9 1-1.7zM228 374.4l-.9-.5-1.3 1.5c-.7.8-1.6 1.2-2.2 2a8.5 8.5 0 01-2.8 2.4c-1.4.7-2 1-1.7 1.1.3.3 1.2-.3 1.2-.3s.4 0 2.1-1c1.7-1 2-1.6 3.1-2.5 1.1-1 2.5-2.7 2.5-2.7zm7.3 8.7c.7-.7 1.3-1.2 1-1.5-.4-.4-.8-.4-1.4.1l-3 2.8-2.2 1.7c-.7.6-2.4 1.5-3.2 1.9-.8.5 0 .5 0 .5l1.3-.5 2.6-1.1 1.8-1.1a25.9 25.9 0 003.1-2.8zm8.4 5.8c.6-1.1 0-.8-1-.4-.8.3-2.8 2.5-4 3.3-1.2.8-2.2 1.2-3.1 1.7-1 .5-1 .7-1 1 0 .2.5.2.9 0l1.8-1 1-.2c.6 0 1.4-.7 2.6-1.7 1.2-1 2.3-1.7 2.8-2.7zm4 7.7c-1.6.9-4.1 2.9-4.8 4.2-.7 1.4-1.1 2.3-.9 2.6.2.2 1-.3 1.3-.8.3-.6 1-1.4 1-1.4s2.5-2.5 3.4-3a8.9 8.9 0 002.9-3.3c.3-1 0-1.5 0-1.5s-1.5 2.3-3 3.2z"/>
  <path fill="#c52126" d="M208 181.3a23.7 23.7 0 00-19-1.6c-2.3.6-4.2.7-6 .2-2.8-.7-5-3.2-5.7-6.3 0 0-2.6 3.3 0 6.8a7.7 7.7 0 004.6 3.2c5.5 1 10.8-2.3 15.3-2.6 4.4-.2 7.8 2.5 7.8 2.5s1 .9 2.5 0c1.4-.8 1.8-1.5.5-2.3z"/>
  <path fill="#d4af3a" d="M192.3 338.7l-1.3-.2a16 16 0 01-2.8-.9c-.5-.2-1.2-.2-1.7.3s-4.4 2.9-4.4 2.9h6.5c2.2 0 3.7-2.2 3.7-2.2z"/>
  <path fill="#d4af3a" d="M210.5 337.6v-.7l-.8-1.8s-1 .6-2 1.6c-1.3 1.3-2.6 3.2-3.2 4-1.1 1.3-2.6 2.6-1.3.4s1.7-3.2 2.7-4.6c1-1.5 1.8-2.1 1.7-2.2l-3.7-.6c-2.7-.3-4.4-1.4-5.6-2.1l-3.5-2s-4.6 2-6.3 2.4c-1.8.5-2.8.7-1.1 1.5 1.7.9 3.1 1.1 4 1.6.7.6 3.3 1.4 4.8 1.4 1.6 0 4.2 0 3.2 1-1 1.2-2.2 3.3-3.3 6.4a21.6 21.6 0 00-1.2 7.4l.2 2.7s1.9-2.1 7-5.3c5-3.2 7-4.3 7.9-4.7 1-.4 1.4-.4 1.2-1.6l-.7-4.8z"/>
  <path fill="#d4af3a" d="M230 322.1l-1-.4a1.1 1.1 0 00-.2 0c-.6.4-3.7 2.4-5 4.5s-2.5 2.2-1.1 0a19.1 19.1 0 013.5-4.4l1-1a56.4 56.4 0 01-7.8-4.5c-.3.7-1 2-1.7 2.7-1 1.1-3.5 2.1-3.5 2.1s2-2 2.6-3.5l.8-2.6a33.9 33.9 0 01-5.1-4.9 19 19 0 01-4.4 7.9c-4 4.5-12 6.7-12 6.7s-2.8.3-.5 1c2.2.5 3.8 1.5 8.3.8 4.4-.8 4.7-1 5.3-1.2.6-.1 2.2 0 0 .8s-7.4 1.6-9.3 1.4c-2-.1-4.7-.6-1.9 1s4 2 5.7 2c1.8 0 2.5.6 4.2.6s2.1-.3 3.3-.6c1.2-.2 2 .2 2 .7s-1.6 1.8-1.6 5c0 3.3.3 5.5.6 6.4.3 1 1 2.5 1.5 3.4.5 1 .7 1.8 1.1 0 .5-2 1.6-4.7 2-6.6.4-1.8.7-1.9.8-2.9.2-.9 1.2-1.6.8.1a142.3 142.3 0 00-1.4 5.5c-.4 1.5-1.2 4.4.2 2.1 1.5-2.2 6.8-8.3 7.7-9.3 1-1 1.6-2.1 2.3-3 .6-.9 2.5-2 3.4-3.4.8-1.2 3.2-3.5 4.2-4.3L230 322zm-74.2-137.7c.1 3.3 3.8 9.6 5.8 13 2.1 3.3 2.7 4.6 2.3 4.8-.3.3-1.2-1.5-2.3-3l-5.2-7.6c-1.9-2.6-4.6-9-5-9.5-.3-.6-.5-1-1.4-.2-1 .7-2.7 7.6-.6 12.3 2.2 4.8 5.4 8.2 6.7 9.8 1.4 1.7 3.2 4.2 2.9 4.5-.3.2-.8-.5-2.4-2.2a152.9 152.9 0 01-6.2-6.8 49 49 0 01-4-6.5c-.3-.5-.7-.4-1-.1-.5.6-1.4 2-1 5.7.5 5.2 3.3 8.2 5.7 10.9 2.4 2.6 4.8 4.8 4.5 5.2-.4.3-2.9-1.9-4.6-3.5-1.7-1.7-6-5.7-6.8-6.9-1-1.1-2.3-.6-2.2 4 0 4.4 5 9 7 11.5 2.2 2.5 4.7 4 4.5 4.5-.2.5-2.3-.8-3.6-1.7-1.4-1-6.4-4.2-7.4-5-1-.6-1.5.7-.3 5 1.3 4.3 5 7.7 7.2 9.3 2.3 1.6 5.8 3.5 5.6 4-.2.5-1.7-.1-3.8-1.1-2-1-4.5-2-6.3-2.5-1.8-.5-1.8.8-1.8.8s-.4 3.7 2.3 6.6a14.2 14.2 0 008.5 4.6c2.8.5 3.3.6 3.2 1 0 .5-.4.5-1 .5-.7 0-3.3.3-5.7.3s-3.7.6-3.7 1.7c0 1-.1 2.5 3.5 4.9 3.7 2.4 7.7 2.8 9.5 3.1 1.7.4 1.7.5 1.4 1-.4.5-1.2.5-3.9.8-2.7.2-4.3 1.3-4.7 2-.4.8.2 2.9 2.4 4.4 2.2 1.5 5.1 2 9.4 1.7 4.3-.3 5.3-.3 5.5.4.1.7-1.3.9-3.4 1.3-2.2.3-3.8.3-5 1.3s-.3 3 1.7 4.6c2.1 1.5 7.2 1.5 9.4 1.3 2.1-.1 5.4-.9 5.6-.3.2.6-1.5 1.4-3.8 2.2-2.2.8-2.8 1.3-3.2 2.2-.5 1-.1 1.8 2.5 2.8 2.7 1 6.5 1 8.5 0 2-.8 3.1-1.2 3.5-.8.3.3 0 .7-.5 1.2a9.8 9.8 0 01-4.3 2.4c-2.2.6-2.5.6-3.2 2.4-.8 1.8 1.2 3.2 5.2 3.3 4 .2 9.3-1.4 11-2.4 1.7-1 2.4-1.2 2.7-.9.3.4.2.6-.7 1.2-.8.7-3.5 2.6-4.9 3-1.4.3-1.5 1.3-1.5 2.3 0 .9-.4 2.8 3.2 3.6 3.6.9 7.8.2 11.6-2.5a8.8 8.8 0 002.4-2.2c-.3-3.7-.1-6.2.3-8.5a14 14 0 01-3.6-.9c-2.2-.8-3-2.8-3.5-4-.5-1-1.3-1-2.1-.7-.9.3-1.7.7-3 .6a8.4 8.4 0 01-5.6-3c-1.8-2.2-1.5-4.3-1.6-5.4 0-1-1.7-.3-2.6-.3-.9 0-3.3-.3-5.6-1.9-2.3-1.6-2.3-3.7-2.5-4.6-.2-.8-1.2-1.4-1.9-1.7-.7-.3-1.8-.6-3.4-1.8s-2.1-3.8-2.2-4.7c0-.8-1-1-4.2-2.6s-3-5-2.8-6.4c.1-1.4 1.6-2.5 1.6-3s-1-.6-2.1-1.3c-1-.6-3.8-1.7-3.9-5.7 0-4 2.6-4.4 2.6-4.4l-1.6-.9c-1-.6-4-2.6-4-5s1.1-3.4 1.9-4c.8-.6 3-1.1 3-1.1s-1.4-1-2-2.8c-.6-1.8-.8-4.1.6-5.8 1.3-1.6 3.6-1.6 4.8-1.6s2.3.7 2.7.3c.4-.4.5-.6.1-1.6s-.5-3.2-.2-4c.4-.8.5-2.3 3.5-3.3s6.3 1 7.3 1.6.6-.8.6-1.8-2-3.5-4.4-7a77.8 77.8 0 01-10.8-25.1c-.4-1.8-1-1-1-1s-.8.3-2.4 4.5a26.7 26.7 0 00-1.8 11.2z"/>
  <path fill="#d4af3a" d="M209.6 257.5a8 8 0 01-6-3.8c-1.9-2.7-4.6-3.3-9.4-3.2-4.8 0-7-2.2-8.2-5.5-1.2-3.4.2-7.1 5-9.5 5-2.4 7.1-5.1 7.3-9.2.2-4.2-4.9-9.3-9.9-15.1-5-5.8-9-14-9-14s-1.5 1.9-1.5 3.8c0 2 .8 4 0 4.5-.7.6-1-.8-4-2s-5.3-1.5-7.1.6 0 5.8 1.7 7.5c1.6 1.8 3 3 2.5 3.7-.4.7-3-1-3.7-1.6-.9-.5-2.8-2.6-5.7-2.4-2.8.3-3.8 1.1-4 3.5-.4 2.4 2.5 4.6 4.3 5.5 1.9.9 2.6 1.7 2.1 2-.4.5-.9 0-1.7-.2-.8-.3-3.1-.5-4.6 0-1.5.6-3.9 2.6-1.7 5 2.2 2.6 6.8 3.5 7.8 3.7.9.2 1.3-.1 1.4.6.1.8-1.9.8-4.4.9-2.5 0-3.2 2.4-2.8 4.3.3 1.8 4.5 3.8 6.8 4.2 2.3.4 3 0 3.3.7.2.6-.3.9-1.6 1.2-1.3.4-3.8.7-4.2 2.7-.5 2-.6 3 1.4 4.7 1.9 1.8 5 1.5 6 1.3.9-.2 2-1.2 2.9-.3.9 1-.8 1.7-2.4 2.8-1.6 1-1.5 3.2 1.2 4.7a8.2 8.2 0 006.4.5c1.1-.3 2.6-2 3.3-1 .8 1.1-2.3 1.5-3.6 3-1.2 1.6-.8 4.2 1.8 5.8 2.6 1.5 6.8.4 7.5-.2.8-.7 1.7-1 2.2-.4.6.6-.2 2-.8 3.3-.5 1.3-1.5 5 2.3 6.6 3.9 1.4 7.4-1.9 8-2.5.7-.7 1.3-.8 1.8-.5.6.3.3.8-.1 1.5a3.9 3.9 0 001.3 5.3 6.8 6.8 0 005 1c.6-2.1 1.3-4.4 2-7.6h-.5c-.4 0-.4.5-.4.7 0 .3 0 .4-.3.4s-.3.2-.8.6c-.5.3-1 .7-1.2.5-.2-.2 1-.8 1.3-1.2.4-.4 1-1 1-1.5.1-.5.3-.7 1-1.3l.5-.5c.4-2.2.9-4.7 1.3-7.7a61 61 0 00.4-5.9h-1.2zM131.1 200c4 8.3 9.9 13 9.9 13s-.8-2.1-1.1-3.5c-.4-1.4-.1-3-.1-3s-1.5-2-4.1-6c-2.7-4.2-4.2-10.3-4.2-10.3s2.5 6.1 4.5 9.3a50.3 50.3 0 004.2 6s.8-3 1.3-3c.6-.2 1 .2 1.5.9.5.6.9.5.9.5l-1.7-3c-.5-.7-1.2-1.5-1.6-2.3-1.6-2.4-4.9-7-6.6-11.6-1.7-4.6-5.4-16.1-6-19.5-.6-3.4-1.3-1.6-2 1a29.4 29.4 0 00-.9 11.3 57.1 57.1 0 006 20.2zm5.3 22.4a145 145 0 003.8 2.7l-.6-1.9-.3-3-3.1-2.7a44.2 44.2 0 01-6-6.4c-3-3.8-.6-1.5 2 1.3s7.4 6.8 7.4 6.8v-1c0-.8.3-1.4.7-2 .5-.6.3-.6-2.5-2.7a79.6 79.6 0 01-18.7-26.1s-1.6 9.5 4.2 20c5.8 10.5 11.5 13.9 13 15zm30.4 60c3.2-1.2 2.3-4.3 2.3-4.4l-3.7 1.3c-1.8.7-6.2 2-8 2-1.7 0-1.7-.2-1.8-.4 0-.3 1.4 0 3.9-.5s6.9-2.8 7.7-3.3c.7-.5.6-.6-.5-.7a4.8 4.8 0 01-2.5-1c-.4-.3-1.6.2-4.5.9a53.3 53.3 0 01-23 .8c-.6-.2-1.4.2.8 3.9 2.2 3.7 10 5.7 15.4 5.6 5.3 0 10.7-3 13.9-4.1zm-14.3-7.6c5.5 0 7.6-1.6 7.6-1.6s0-.3-.7-1.4c-.8-1.1-.6-3-.6-3l-3.7.5c-2.3.4-5 .7-8 .2-2.9-.6-1.6-.9.7-.6 2.4.3 7-.6 8.4-1 1.4-.6.8-1-.2-1.4-1-.3-3.6-2-3.6-2s-6.8.8-13 .1c-6.3-.7-10.2-2.3-11.5-2.5-1.3-.2-1.2.3-1.2.3s-.4.6 1.8 4a18 18 0 0010 6.6 53.7 53.7 0 0014 1.8zm-1.4-13l-.6-1.4c-.3-1.2.6-2 .6-2s-1.3-.4-5.4-1c-4.1-.4-4.4-.8-7-1.3-2.4-.6-4.1-1.3-4.1-1.6 0-.3.8.1 2.4.7 1.4.5 7.8 1.2 10.5 1.6 2.7.4 4.2.6 4.6.4.5-.3 2.2-.7 2.2-.7l-2.6-.6a9 9 0 01-3.4-1.4c-.8-.5-1-.6-4.4-1-3.4-.4-6.1-1.5-12.2-3.7-6-2.2-10.6-4.8-11.8-5.8-1.3-1-1.2-.3-.8 1 .3 1.2.3 2.8 3.3 6.4 3 3.6 4.6 5.1 12.3 8 7.7 2.8 16.4 2.4 16.4 2.4zM128.3 243a43.3 43.3 0 0016.5 6.8c.3-.4-.4-2 0-3 .4-1.2 1.1-1.2 2.7-1.3 1.7 0 .6-.4.2-.4l-3.2-.8c-2.7-.7-5.5-1-9.2-2.5-3.8-1.4-5-2.5-4.8-2.7 0-.3 1.7.9 5.2 2.2 3.5 1.3 7.5 1.8 9.7 2.3s.3-.5-.7-1.1c-1-.6-2.5-2.9-2.5-2.9s-2.5-.4-6.5-1.6c-4-1.2-7.3-2.6-10.6-4.5-1.2-.6-2.3-1.5-3.5-2.3l-5.5-4c-1.3-1-1-.2-.8.4.2.6 1.1 3.5 3.3 6.6 2.1 3 2.8 4 9.7 8.8zm-1.2-13.5c6.8 5.3 12.5 7 13.5 7.4 1 .4 1-.1.7-.7-.2-.6-.3-2.4-.3-2.4l-5-3c-2.8-1.5-5.7-3.6-7.7-5-2-1.3-.8-1.2-.2-.7.6.5 3.4 2 6 3.8l7 4.1s0-.9.6-1.4c.6-.6 2-.4 2-.4l-1.1-1.4c-.5-.7-2.7-1.4-5.2-2.6a62 62 0 01-10.2-7.2c-3.3-2.8-9.7-9.8-10.1-10.3-.5-.6-.7-.5-.8.2 0 .7-.3 1.2.4 4.4s3.7 9.9 10.4 15.2zm23.8-50.3l2.2 3.8a55.5 55.5 0 011.5 2.5V184a11.7 11.7 0 010-3.7c.1-.9.3-1.7.2-2.4 0-.9-.3-1.6-.4-2-.2-1-1.2-4.9-1.7-7.7a62 62 0 01-.9-10.2c0-3.5.5-1.7.5 0s.2 4.3.8 8.3c.5 4 2.2 10 2.2 10s0-.9.6-2.2c.5-1.4 1.3-2.9 2-4.5s.4-2 .4-2-2.4-11.3-3-16.6c-.6-5.3-1.6-19.4-1.6-19.4-3.5 3.5-6 12.6-6.5 21.3-.3 6.5.7 12.5 1 15a38 38 0 002.7 11.3zm-7.6 17.8c0-2.6.7-4.5 2.3-5 0 0-1.4-2.6-2.7-6.3a49 49 0 01-2-8.2c-.9-6-1.6-12.3.2-2 1.8 10.2 4 13.8 4 13.8l2.6 4.3a18.4 18.4 0 01-.3-5.3c0-2 .3-4.8 1-7 0 0-3.2-6.3-5.2-13.9a87 87 0 01-3.4-24.1s-3.3 2.4-4.4 14.8a73.5 73.5 0 003.8 28.8 202.7 202.7 0 004 10zm35.4 94.5l-2-1.3c-1.5-1-1-4-1-4l-1.6 1.1c-1.2.8-2.4 1.7-4 2.3L167 291c-1 .3-.8 0 0-.5.9-.5 1.1-.8 3.2-1.6 2-.8 6.1-4.4 6.1-4.4l-2.6-.1c-1.7-.1-3.9-1-3.9-1s-1.7 1.6-8.5 4.5c-6.8 3-12.6 3.7-12.6 3.7s.7 3.5 4 4.7c2.7 1.1 6.5 1.9 13.8.1a46.5 46.5 0 0012.3-4.8zm9 7c.6-2.9-1-4.9-1-4.9l-1.4 1.1c-1 1-2.6 2.7-5.4 4.1-2.9 1.5-4 1.4-1.2-.1s6.9-5.7 6.9-5.7l-1.1-.4c-1-.4-3 .3-10.6 4.9-7.7 4.6-12.2 4.8-12.2 4.8s3.4 4.1 12.7 3.8c9.4-.3 12.7-4.7 13.3-7.6zm17.6-3.4s-1 1.5-2.4 2.4c-1.4 1-5 1.5-5 1.5l-1 1.3a15 15 0 01-3.9 4.3c-1.6 1.2-4.2 2-4.3 1.7-.2-.3 1.5-1 3-2 1.7-.9 3-2.7 4.2-4 1-1.2-.5-1-.5-1h-3.7c-1.8-.2-1.5 0-2 .8-.5.9-1.2 1.7-2.6 3.2l-4.7 5.4c-1 1.3-.2 1.6-.2 1.6s.4.8 4.6 1.3c2.5.2 5.3 0 8.2-1.8a25 25 0 005.6-4.8c5-5.4 4.7-9.9 4.7-9.9zm2.2 11.3l-1.5 1.9s.7-2.2 1.3-3.3l1-1.4a27.6 27.6 0 01-1.7-5c-.5 1.5-1.9 5.8-3.7 8.6-2.1 3.5-4 4.7-2.8 5.6 1.3 1 3.7 1.2 6.4-.2a6.8 6.8 0 003.7-5.3 26.4 26.4 0 01-1.3-2.3c-.3.2-.8.6-1.3 1.4z"/>
  <ellipse cx="206.9" cy="169.2" fill="#d4af3a" rx="1.9" ry="1.8"/>
  <path fill="#d4af3a" d="M203 165.9c1.7 0 2.6-.9 4.5-.7a28 28 0 019.1 3.6 15.5 15.5 0 0010.5.9c1-.3 2-1 3-1.5 4.6-2.5 3.5-7.6 3.5-7.6a17.8 17.8 0 01-11.4 3.5l1 .8c.6.7 1.8 1.5 1.4 1.8-.4.3-2-1.3-3.4-2.3a20.6 20.6 0 00-7-3.4c-3.4-1-7.4-1.1-10 .3-2.7 1.5-2.9 3.3-2.5 4 .2.5.7.6 1.2.6zm49.2 37c-.8-.2-2.2-.5-4-2.2a76.4 76.4 0 01-6.7-7.3c-.5-1-.3-1.8 1-2.3 1.2-.5 2-2 2-2s-2.7-1.1-4.5-2.4-6-5.2-6.6-6.1c-.6-1-.3-1.1.5-1.4 1-.3 1.1-1 1.1-1s-2-1.1-3.8-2.6a75.5 75.5 0 01-4.3-4c-2.7 1.2-7 .7-9.3.3-4.1-.7-7.1-2.4-7.1-2.4l-.7 1.9c-.5 1.3-2.4 2-4.3.7-2-1.2-1.5-4-1.5-4s-1.5-.9-4.7-2c-3.1-1.2-5.7-1.4-8.2-.2-2.6 1.2-3.8 4.7-3.8 7.3 0 2.7 1.4 1.6 1.6 1.2.3-.4 1-2.3 4.1-2.8 3.3-.5 6.2 1 9.8 4 3.7 3 4.5 3.3 6.3 5.2 1.9 1.9.4 3-2.7 4-3.2 1-7.2-1-7.4-1-.6.3 1.4 3.1 4.1 4.2 2.7 1 6.2.3 8.9-.7 1.8-.8 2.2 0 2.7.5 3 3.2 3.7 6 4.2 9.7a4.3 4.3 0 002.8-3.3c.1-.6.3-1.9 1.3-1 1 1 1.9 6.3 1.9 8.7 0 2.5-.8 5.7-.8 5.7l.8-.1c.4 0 1.3-.6 2.5-1.2 1.1-.7 1.2 0 1.2 1.4 0 1.3.4 3.8 2.2 8.3 1.7 4.4 4.3 5.9 4.3 5.9s.5-.9 1-2.7c.5-1.7 1-5.2 1-8.2 0-3-.9-9.4-.9-9.4s3.7 4.4 7.5 5.5c3.8 1.1 7.6.5 9.2-1.4 1.6-1.8.1-2.6-.7-2.8z"/>
  <path fill="#d4af3a" d="M227.2 214.5s-1.2 2.5-1.8 3.4c-.6 1-.9 1-.9 1s1.2 1 2.8 1.6l3.2.8s-1.9-2.6-2.5-4.4l-.8-2.4zm22.9-1.5l-1-2.3a16 16 0 01-8.7-1.8s1.8 3.6 3.5 4.8c1.8 1.3 2 1.3 2 1.3s-1.7.3-4-2c-2.4-2.3-3.5-5-3.5-5s.6 6.2-.4 10l-1.1 4.2s5 1 10.5-.6 6-2 6-2 .6-.2-.3-1.4a29.9 29.9 0 01-3-5.2z"/>
  <path fill="#b96b29" d="M240 199.4l-1.9-2.4s-.6.6 0 1.4 2.9 3 4.5 4a11.8 11.8 0 003.3 1.2v-.3s-4.2-2-5.9-3.9zm-6.8 12.9l-.4-9c0-1-.7-.8-.7-.8l-.8.4 1.6 11.3c.2 1.2.8 1.1 1.1 1-.6-.2-.7-2.6-.8-3zm-10.4-33.6c-.6-.6-2-1-.7.5 1.4 1.5 3.2 3.4 3.7 5s.8 3.5 0 3c-1-.3-1.6-.3-2.5-1.1-1-.8-2.8-2.1-3.5-2.3-.7-.3-2 0-1 1.1a26.4 26.4 0 004.2 3.7l4.2 2.9 2.1 1.4s-1-6.4-2.7-9.1a28 28 0 00-3.8-5zm-34.1 105.9c-1.3 1-3 1.4-3 1.4s-.8 0-.8.2 1 0 1.9-.1c1-.2 2.3-1.2 2.8-1.5.5-.4 1.2-.8 1-1.5-.3-.6-.7.5-2 1.5zm11 5.9l-2.4 2-1.4.6c-.7.3-.9.7-.9.7s.2.2 1 0 2.9-1.8 3.6-2.5c.7-.6 1-.8.7-1-.2-.3-.4-.1-.6.2zM155 211.1c.4.5.9 1.1 1 1 .3-.3 0-.5-.5-1.1l-.8-1-1.2-1.6c-.4-.4-1.1-.7-.3.4l1.8 2.3zm-3.4 7.4l1.5 1.4c.5.6.9 1.2 1.2 1 .3-.4-.8-1-1.3-1.7a8 8 0 00-1.5-1.5 10.6 10.6 0 00-1.4-.8l1.5 1.6zm1.3 12c.8 1 2 1.2 2.2.8.2-.3 0-.6-.8-1a24.2 24.2 0 01-4-2.7c-.3-.4-.8-.7-1-.6 0 .1 1.2 1.6 1.6 1.8.4.2 1.1.9 2 1.7zm2.4 9.7c0-.4 0-.6-.6-.6l-1.7-.2s-1.4-.5-1.5-.3c0 .3 1.2.8 1.7 1a3 3 0 011.5.4c.3.2.6 0 .6-.3zm1 10.4c-1.4 0-2.7-.3-2.8-.1-.1.2.7.6 1.4.8.8.3 2.2.4 3.2.4s1.1-.1 1-.6c0-.5-1.2-.5-2.7-.5zm11.8 11.5c-.2-.3-.7 0-1.6 0-.8.3-2.2.5-3 .5a134.6 134.6 0 00-2.5-.1l-1 .2c0 .3 1.3.2 3.2.4 1.8.2 3-.2 4-.3.8-.1 1.2-.5 1-.7zm4.9 8.1c-1 .4-1.6.4-2.3.4l-2.4.3s-.8.2-.7.5c.2.3.4 0 1.1-.1h2.5c1.2 0 2-.4 2.7-.6.8-.1 1.6-.5 1.2-1-.4-.5-1.2.1-2.1.5zm9.5 6.2l-2.6 1.9-1.2.7c-.8.4-.7.6-.6.8.1.2.6-.3 1-.5.5-.2 2-1.2 2.7-1.8.8-.6 1.7-1 1.6-1.5-.2-.5-.4-.2-1 .4zm-15.8-79.8l1.8 2.5c1.6 2 .8 0 .4-.5s-2.8-3.9-3.7-4.8c-.8-1-.9-.5-.5.1l2 2.7zm-3.4 10.5c.2-.2-.3-.5-1.3-1.6a536.8 536.8 0 01-2.8-3.6s-.5-1.1-.7-1c-.1.1.7 1.9 1.4 2.6.8.8 1.8 2.3 2.3 2.9.5.6.8 1 1 .7zm4.5 19.7c0-.6-1.9-.5-2.7-.7l-2.3-.5s-1.8-.3-1.8 0c0 .2.3.4 1.3.6l3.5.8c1.1.1 2 .4 2-.2zm-4.5-10.7l2.6 1.9c.7.3 1.2.8 1.6.4.3-.4-.3-.7-1.4-1.1-1-.5-1.5-1-1.5-1l-1.2-.5c-.5-.3-1.4-.6-.1.3zm10.5-7l-1.4-1s-1-.8-1-.5c-.3.3 1 1.1 1.5 1.7.6.5 1.7 2 2.2 1.7.5-.3-.5-1.2-1.3-1.9zm-6.9 27.5l-1.7.4c-.6.2-.7.5.5.5s1.7-.3 3-.5c1.1-.3 1.5-.4 1.3-.8-.2-.4-.8-.2-1.3-.1l-1.8.5zm1.9 10c-.1.1.8 0 1.4-.3l2.7-1.1c.8-.2.8-.4.8-.8 0-.5-.8-.1-1.8.2s-2.2 1.3-2.2 1.3l-1 .6zm12.8 6c.8-.6 1-1 .7-1.3-.3-.2-.6-.2-1.3.4l-2 1.5-1.3.6c-.6.3-1.2.7-1 1 .2.2 1.3 0 1.9-.6.5-.4 2-1.1 3-1.7zm6 8c.3-.4 1.4-.8 1.9-1.1.5-.4.8-1.4.4-1.6-.4-.1-.6.5-1.5 1.1l-3.7 2.5-.7.3c-.8.3-.5.6.2.5.7-.1 1-.1 1.9-.7.8-.7 1.2-.8 1.5-1zm9 7.5c.7-.3 1.8-1.3 2.3-1.8s1.2-1.1.8-1.4c-.4-.3-.8 0-1.4.7-.7.5-2.3 2.2-2.3 2.2l-1.1.8c-.9.7 0 .6.3.3.4-.3.6-.5 1.3-.8z"/>
  <path fill="#d4af3a" d="M232.3 150.9l-2.7 2.2 3.3 1.4 3.6-2.5z"/>
  <ellipse cx="244.4" cy="151.6" fill="#b96b29" rx="3.4" ry="3.3"/>
  <ellipse cx="244.4" cy="150.8" fill="#d4af3a" rx="2.1" ry="2"/>
  <path fill="#d4af3a" d="M237.3 140.2c.9.3 2 .2 2 .2s.4-1.6-.5-2.3c-.8-.8-1.6-1.3-2-1.8l-.7-.6v2.1c-.1.8.3 2 1.2 2.4z"/>
  <circle cx="239.1" cy="141.8" r=".6" fill="#d4af3a"/>
  <path fill="#d4af3a" d="M234.4 141.2l-.8 1s.7 0 1.2.4c.6.4 1.4.8 2 .7a1 1 0 00.9-1.2c-.2-.5-.5-1-1.6-1.3-1.1-.4-1.4 0-1.7.4z"/>
  <path fill="#d4af3a" d="M236.8 145.2c-2.1.2-5-2.2-5-2.2-.3 2-1.4 3-3.3 3.3h.2s1.7 1 3.7 1.2c.9.2 1.7 0 2.7-.2a10 10 0 003.2-1c1.3-.8.9-2.9.9-2.9s-.2 1.6-2.4 1.8zm-8.4-2.1c-.9-.4-2.2-1-2.8-1-.5 0-1.3-.2-1.2.8.2 1 1.2 1.5 2.2 1.6 1 0 1.6-.4 2.2-.7.6-.3.5-.4-.4-.7zm-6.7-3.7c-1-.7-1.9-.9-1.9-.9s-.6 1.7-.2 2.7 1 1.3 2 1.3c.9 0 2.3-.5 1.9-1.2a5.4 5.4 0 00-1.8-2z"/>
  <ellipse cx="222.5" cy="144.1" fill="#d4af3a" rx=".8" ry=".5"/>
  <path fill="#d4af3a" d="M224.6 135.8c-.6-2.9-.5-6 2.2-9.9 2.7-4 7.4-5.5 7.4-5.5l1.6-1.9c1.5-1.6 4.5-3.6 4.5-3.6l-5.5 1.5v.1a2.4 2.4 0 01-2.4 2.5 2.4 2.4 0 01-1.4-.4 24 24 0 00-5.6 3.1c.2.4.4.8.4 1.3a2.4 2.4 0 01-2.5 2.5c-.4 0-.7-.1-1-.3a10.8 10.8 0 00-.4.5 25 25 0 00-1.7 4 2.6 2.6 0 011 2.1c0 1.4-.9 2.5-2 2.5a4 4 0 000 1.6c0 .8.3 1.3 1.7 1.7 1.4.4 3.3 2.8 3.3 2.8.1 0 1.1-1.8.4-4.6z"/>
  <path fill="#d4af3a" d="M233.2 117.6c.5-.4.6-1 .2-1.4-.4-.4-1.2-.3-1.7.1s-.6 1-.2 1.4c.4.4 1.2.3 1.7-.1zm-9 6.1c.5-.5.6-1.3.2-1.8-.5-.4-1.3-.4-1.9.2-.6.5-.7 1.3-.2 1.7.4.5 1.3.4 1.9 0z"/>
  <circle cx="218.8" cy="131.4" r="1.4" fill="#d4af3a"/>
  <path fill="#d4af3a" d="M248.9 112c-.8.2-2.1.6-4.1 1.7 1.4 0 2.5.9 2.5 2s-1.3 2.4-2.6 2.4a2.4 2.4 0 01-2.4-2.3c0-.3 0-.6.2-.8l-1.9 1.2c-4.4 3-5.5 4.5-7.7 8.5-2.2 4.1-3 8.6-2 11.2 1 2.7 4.4 3.2 4.5 3.2 0 0-.4-.4-.5-.9l.3-1.7v-2.2s.8-.1 1.3.4l1.5 1.8 1.7 1.6s.7-1 .7-2.2c0-1.2-.8-2.5-1-4.6-.1-2 1-5.8 3-8.6a24 24 0 017-5.7 2.2 2.2 0 001.4-2l.3-2c0-1.3-1-1.2-2.2-1z"/>
  <path fill="#d4af3a" d="M244.5 116.8c.8 0 1.5-.7 1.5-1.4 0-.6-.6-1.1-1.4-1.1-.8 0-1.4.5-1.4 1.1 0 .7.5 1.4 1.3 1.4zm6.6 26c1 .4 2.2.2 2.8-.2.6-.4.8-1.3 0-1.9a2.1 2.1 0 00-2.2-.2l-2 1.4s.3.5 1.4.9z"/>
  <path fill="#d4af3a" d="M254.5 144c-.4.6-.7 1-1.9 1s-2.5 0-3.2-.8a8.2 8.2 0 01-1.3-1.9h-1.4s-.4 1.9-1 2.4-2.7.6-3.6 0c-.9-.8-1.7-1.6-1.9-1.5-.1.1 0 .8 1 1.6s1.5 1.3 3 1.3h8.5s1.8.1 2.3-1c.5-1 .5-1.6.2-1.9-.2-.2-.3.2-.7.8z"/>
  <path fill="#d4af3a" d="M241.5 142.6c1.3.7 2 .2 2.5-.3l.5-.9s-1.2-.4-1.8-.8c-.5-.3-1-.6-1.5-.6l-.7.2s-.2 1.6 1 2.4z"/>
  <circle cx="235.4" cy="130" r="2.8" fill="#b96b29"/>
  <path fill="#b96b29" d="M240.3 120.2c-1.1-.7-2.8-.4-3.7.7-1 1.2-.8 2.7.4 3.5 1.1.7 2.8.4 3.7-.7 1-1.2.7-2.7-.4-3.5z"/>
  <circle cx="235.3" cy="129.6" r="1.6" fill="#d4af3a"/>
  <path fill="#d4af3a" d="M239.1 120.5c-.7-.2-1.6.2-2 .8-.4.7 0 1.4 1 1.6 1.8.3 2.6-2 1-2.4zm-43.4 219.8s-4.3 2-5.7 2.4l-1.8.4s-3 2.7-5.1 4a19.4 19.4 0 01-7.6 2.7c-3.5.3-12.9.2-17.1 0-4.2 0-6.8 1-8.7 3-1.8 2-2.2 5 0 7.2 2.4 2.3 5 1.1 5.8-.2.9-1.4.4-3.2 0-4-.3-.8.8-1 2-1.1a25.5 25.5 0 0111.4 2.5c1.4.7.6.8-.4.6a21.5 21.5 0 01-3.7-1.2 14.8 14.8 0 00-4.3-1c-1 0-.7.6-.4 1l1 1.7-.4 2 .5 1 .9-1.5c.2-.6 0-1.6.2-2 .2-.6 1-.6 1.8.2a7 7 0 011.8 3.8c.4 2-.3 3.5-.3 3.5s.9.7 1 1.2c.2.5-.2 2.4-.2 2.4s.6.4 1.2-.7a25.3 25.3 0 001.3-3.8c.2-.7.6-2 1.5-1a8 8 0 011.6 2.7l.2 1s1.9-1.8 2.5-2.9a17.9 17.9 0 013.8-4.2c1.8-1.5 5-4.5 6.5-5.5l6.8-4c1.2-.7 1.4-.7 1.6-2.8.3-2.1 1.3-4 1.8-5.4l.5-2zm-70.1-78.7c0-.3-.8-1.6-1-2.2-.1-.7-.8-.3-.8-.3s-1.4.8-2.4 1.1c-1 .3-1.2-.1-1.3-.6l-.5-3.4c-.2-1.2-.4-1.1-.9-1l-2.6 1c-.9.5-.6.9-.3 1.4l1.8 3.4c.5.7 0 1-.5 1.3l-2.4.7c-1 .4-1 .6-.9 1l1.2 2.5c.4.6.8.2.8.2s1.1-1 2-1.5c1-.5 1.1-.3 1.4.4l1.5 5.2c.2.7.6.6 1.1.4l1.8-.5c.5-.2.7-1.3.7-1.3l-2.6-4.8c-.6-1 0-1.2.4-1.2l2.7-.5c1-.3.8-1 .8-1.3zm23.8 103c-.2-.9 0-1.8-.7-2.5a8.7 8.7 0 01-2-3.2c-.2-1.1.4-1.7.3-2.3-.1-.7-1-.7-1.9 0-.8.7-2 1.4-2 3.4s.8 4.5 3.6 5.3c2.9.9 2.8.3 2.7-.7zm2.8-1s-.5-.3-.8.2-.2.8.5 2 1.2 1.5 2.1 2c.9.5.3-.5.2-.9-.1-.3 0-.7-.3-1-.2-.2-.3-.6-.3-1.4s-1.4-.8-1.4-.8z"/>
  <path fill="#d4af3a" d="M155.7 373.3c.6-.8 1-1 2.3-1.6 1.3-.6 3.7-.9 4.5-1 .8 0 2.6-1.6 2.3-3.2-.3-1.6-1.4-2.2-2.5-2.4-1-.3-1.9-.3-2.2.2a3.8 3.8 0 01-2 1.5c-1.2.4-1.3.8-2 1-.7.2-.2.6-.8 1.1-.6.5-1.4 0-2.3-.2-.9-.3-1-.5-2-.5l-3.6-.2h-.7c-.6 0-.7 0-1 .7-.2.6.1 2.2.8 3 .6.8 2.7 1.2 4 1.6a24 24 0 003.3.8c1.3.2 1.4 0 2-.8zm13 1.3c1.1-.7.5-2 .2-2.8-.2-.8-1.8-1-2.6-1s-1.2 0-1.7.4c-.4.3-1 .9-2.1 1.3-1.2.3-2.1.8-3.7 1.4-1.6.6-2.1 1.7-2.8 2.2-.7.4-2 0-2 0s-1-.3-1.3 0c-.3.2 0 .8.6 1.5s1.9.6 3.3 1c1.4.5 1.6.1 2.2-.2.5-.4 1-1.2 1.9-1.8 1-.6 3-.7 4-.8 1.1-.1 3-.4 4-1.2zm0-4.9c.5.5 1 1 1.5.3.4-.7 1-2.1.6-3l-1-1.6-1.2 3.1c-.4.7-.3.8.1 1.2zm-4.3-7.4c0-1.4-1-3-1-3s-.3 1.2-.9 2.3a8 8 0 01-1.2 1.7l2 .4c.5 0 1.1 0 1.1-1.4zm-8 3c1.5-.3 2.3-1 3-1.5.5-.5 1-2 .5-2.7-.4-.8-1.5-1.6-2-1.6h-.7s-.5 1.4-1 2.1c-.6.7-1.3 1.2-1.3 2.1 0 1 0 1.9 1.5 1.6zm3-6.8c0-.7-.2-1.5-.7-2l-.8-.8-.2 1.7-.2.7.8.6c.4.1 1 .5 1-.2zM141 320.4l1-6.3c-.7-6.3-4-12.3-6.6-16.5a79.3 79.3 0 01-6.5-14 39.9 39.9 0 01-2-10.7c0-2.5 1-3.8 1-3.8s.5-.6 0-1c-.3-.5-1 0-1.7.6a8 8 0 00-1.6 2.8l-.3 1.2s-1.4-.3-3.5-.2c-2.2.2-3.2.4-3.3.8 0 .5.3.9 1.9 1.5s2.5 1 3.3 2c.8.8 2.8 5.5 3.4 7.7a109 109 0 012.4 13 52 52 0 004.4 15.3c.7 1.6 4.7 9.1 8.1 7.6zm4 11.1c-1.5.8-1.5 6.8-.8 10 .6 3 3.7 6.9 4.6 8 1 1 1.1 1 1.6.7l.7-.3s1.3-.4 2.3-1.2c1-.7.6-2.6.4-4.3-.1-1.7-1.4-5-3.8-9s-3.6-4.7-5-3.9zm1.5-4.8c0-2-1.7-3.4-3.6-3.4-1 0-1.7.2-2.2.6-2 1.8-.8 6.3 2 6.3 1 0 2.3-.2 3-1 .7-.5.9-1.6.9-2.5zm28.3 56.2a12.6 12.6 0 01-5.7-4.4c-.3-.8-.3-.8-1.4-.5-1 .4-2.7.4-3.8.4-1.2 0 .1 1.4 1 2.6.7 1.3.5 5.4.5 5.4l-.2 1c-.2.6 0 1 .3 1.2.3.1.5-.2 1.3-1.1.8-1 2.3-3.5 2.3-3.5l1.6.3c1.3.3 3.3.2 4.4-.1 1-.4.5-1.1-.2-1.3z"/>
  <path fill="#d4af3a" d="M169.8 386.1c-.5 0-.8-.1-1 .3-.3.3-.5 1-.7 1.4-.1.4 0 .7.3 1l.7.6s.5.5 1 .7c.4.2.5-.5.5-1l.3-2c0-.6-.5-.9-1-1z"/>
  <path fill="#1d5e91" d="M378.6 345.8c-1.4-.3-2-.9-2-.9s-.5 0-1 .8c-.4.8-2.1 2-2.1 2s-2.4.6-2.8 2.2c-.3 1.7.9 2.3 2 2 1.2-.1 4-.7 5.2-2.2 1.2-1.4 1.4-2.3 1.7-2.8.2-.6.3-.8-1-1.1zm3.8-13.2c-1-3.7-3.3-8.3-7.9-10.6l-2.2 8c-.5 2-.5 1.9 1 2.2l7 1.7c1 .3 2.6 1 2-1.4zm-22-3.5c1.2.2 1-.2 1.4-1.7l2.3-8.7s-4.8-.2-9 1.8c-4.3 2-6.1 5.8-6.1 5.8s1 .5 4 1.1l7.5 1.7zm-11.2 10l-2.3-.5s1 4.2 2.8 6.5c1.8 2.3 3.8 3.4 7.5 3.5 3.7 0 6.5-2 7-3.6a11.7 11.7 0 011.2-2.8s-6.7-.9-9.5-1.5c-2.7-.7-5-1.3-6.7-1.6z"/>
  <path fill="#d4af3a" d="M348 336.5l16.5 3.3c1.2.2 2.1.5 2.5.2.3-.4.5-.6 1.7-1 1.2-.5 1.1-1.7 1.1-1.7l.5-2.3c0-1.2.7-1.5 2 0 1.4 1.3 1.7 3.4 2 5.3.2 2 3.3 2.5 4.5 2.7 1.3.2 1.8-.2 2.5-1.3a16 16 0 001.3-5c.2-1.4 0-1.3-1.5-1.7l-9.9-2.3c-1.2-.3-1-1.1-.8-2l3-9.9a21 21 0 00-8.1-2.4s-2 9.2-2.5 10.6c-.4 1.4-1.3 1.4-2.7 1.2a636.2 636.2 0 01-12-2.8l-1 2a16.5 16.5 0 00-1.1 5.6c0 1.2.4 1.2 2 1.5z"/>
  <path fill="#d4af3a" d="M384.3 344.8c-1.4-.9-2.4-1.2-3.2.6-.7 1.7-.8 4.2-2.6 6-1.8 1.7-4.4 3.6-7 3.4-2.5-.2-4-.8-3.4-3.7.6-3 4.5-3.9 5.5-5.4a3.4 3.4 0 00-.7-4.5c-1.4-1.2-3.3-1.4-3.9-1a8.4 8.4 0 00-2.9 3.9c-.8 2.2-1.3 4-3 5.4a13 13 0 01-9.5 2c-3.4-.8-4.7-1.8-6-5.2-1.2-3.4-2.7-9-3.4-9.6-.7-.6-1.6-1-3 0-1.5 1-1.6 2.6-1.8 3.8-.2 1.2 0 2.6 1.5 4.4 1.4 1.8 3 3.5 3.5 5.4.6 1.8 2.2 4.6-.1 4.7-2.3.1-3.4.2-5.1-1.5-1.8-1.7-8.7-6.4-10.6-8l-2.7-2c-3.2 0-6.4-1.3-9.6-3.5 0 0 1.9 4.7 2.2 6.5.4 1.7.3 2.7.3 2.7l9.7 5a177 177 0 0111 6c2.7 1.8 5 4.3 9.7 3.3 4.8-1 14.5-3.9 17.6-4.8 3.1-1 11.7-3 14.9-5.3 3.2-2.2 3.5-2 4-4.2.6-2.2 0-3.4-1.4-4.3zm-18.4-33l2.4-.3c1.6-.2 1 1.4.7 2-.2.6-.7 1.8-1.4 2.9-.7 1.1.2 1.3.7 1.5l2.4.6c1.3.3 1-.6 1.1-1.1 0-.5.1-3 .3-4 0-1 1-.7 1.3-.5l1.8 1c.6.3 1 0 1-.4l.8-2.2c.3-1-.3-.8-1-.8h-2.6c-1 0-.4-1-.4-1l1.4-2.3c.6-1 .4-1.1-.2-1.3l-3-.7c-.5-.2-.8 0-.8.3v2.9c0 .7-.1 1.1-1 1.1-1 0-1.5-.5-2.3-1.3-.7-.8-1-.5-1.1-.2l-.8 3.3c-.2.7.2.6.7.5zm5.2 23.3s-.1 1.8-.3 2.4c-.2.7-.6 1.6.1 1.9.8.3 1.5.6 2 .4.4 0 .2-1 0-1.7a6.8 6.8 0 00-1.3-2.4l-.5-.6zm11.2 7.3c.2.6.8.8 1.1.9.4.1 1 .1 1-.6s0-1.6-.5-2.4c-.6-.7-.9-1.3-1.2-.2-.4 1.2-.7 1.8-.4 2.3zm-39.1-7.4l1.5.4s0-1.7.3-3c.2-1.2.7-2 .3-2-.5 0-.7.4-1 .9-.4.5-1.3.6-1.6 2.1-.3 1.4.2 1.5.5 1.6z"/>
  <circle cx="350.8" cy="331.9" r="2.5" fill="#b96b29"/>
  <circle cx="357.8" cy="333.6" r="2.5" fill="#b96b29"/>
  <circle cx="378.3" cy="338" r="2.5" fill="#b96b29"/>
  <circle cx="364.9" cy="335.3" r="2.5" fill="#b96b29"/>
  <circle cx="366.7" cy="329.2" r="2.5" fill="#b96b29"/>
  <circle cx="368.5" cy="323.1" r="2.5" fill="#b96b29"/>
  <circle cx="351" cy="331.7" r="1.2" fill="#d4af3a"/>
  <circle cx="358" cy="333.4" r="1.3" fill="#d4af3a"/>
  <circle cx="378.5" cy="337.7" r="1.3" fill="#d4af3a"/>
  <circle cx="365.1" cy="335.1" r="1.3" fill="#d4af3a"/>
  <circle cx="366.9" cy="328.9" r="1.3" fill="#d4af3a"/>
  <circle cx="368.7" cy="322.8" r="1.3" fill="#d4af3a"/>
  <path fill="#d4af3a" d="M287.5 383c-1.4-.8-2.5-1.7-5.6-3.8-3-2-4.1-4.2-4.1-4.2h1c.6 0 1.1-.8 1.2-1.7 0-.8 0-2.4-.3-4.4-.2-2 .3-3.5.3-3.5s1.3 1.2 3.3 2.3c2 1 2.8.5 2.8.5l.5-2 2 4c1.3 2 4.5 4.4 6.9 6.2 2.3 1.7 4.9 3.6 6.8 4.2 2 .7.8 1.6.8 1.6s-2 2-6.9 2.8c-5 1-7.4-1-8.7-2z"/>
  <path fill="#d4af3a" d="M270 381.1c1.8-.2 3-.8 3.3-2.8.2-1.2-.1-6-.1-6l1.2 1.2c.7.9 2.2 1 2.2 1s.2.7 1 1.8a10 10 0 003.2 3.5 53.8 53.8 0 015 3.4 30 30 0 004.5 3.3 7.5 7.5 0 013.8 5c.6 2.5.1 3.3-1.9 3.2-2-.2-2.1 0-5.3-.8-3.2-.8-7.8-4.4-11-6.5-3.4-2-5.8-6.3-5.8-6.3z"/>
  <path fill="#d4af3a" d="M261.2 384s1.4-1.7 1.9-3.6l1.4-5.8 1.5 3.5c1.1 2.3 3 2.9 3 2.9s0 1 1.6 2.9a22.5 22.5 0 006 5c2.3 1.4 5.3 3.3 6.9 5.6s1.8 4.7 1 5.7-1.8-.2-3.4-1c-1.5-.7-5.9-1.4-11.9-4.6-6-3.2-8-10.6-8-10.6z"/>
  <path fill="#d4af3a" d="M258.6 397.5c-1.6-2.5-1.9-8.5-1.9-8.5l1.4-1c.8-.8 2.4-3.1 2.4-3.1l2 4c1.1 1.9 1.6 2.6 3.9 4.6 2.2 2.1 5.3 4.1 6.6 6.3 1.3 2.3.6 6.7-.3 8.1-.8 1.5-2 1-3.3-.2l-3.8-3.4c-2.3-1.9-5.3-4.3-7-6.8z"/>
  <path fill="#b96b29" d="M278.4 347c-1-1.8-1.9-4-2.7-5a16 16 0 01-1.4-2.5s2.2 2 3 3.4a15 15 0 011.8 4.2c.3 1.5.2 1.7-.7 0zm-8.5 1.6a53.6 53.6 0 01-.6-2s-.3-1.2-.1-1.3c.2 0 1 .8 1.7 2.7.6 2 1.5 4.8 1.3 5-.2 0-2-3.2-2.3-4.4zM263 354l-.4-1s-.6-2.1-.6-2.6.2-1 .7.2c.6 1.1.7 2.2.8 2.7.1.5.8 2.2.6 2.4-.2.1-.7-.9-1-1.7zm20.9 20.4l.9-.5 1.3 1.5c.8.8 1.6 1.2 2.2 2a8.5 8.5 0 002.9 2.4c1.4.7 1.9 1 1.6 1.1-.2.3-1.2-.3-1.2-.3s-.4 0-2-1-2.1-1.6-3.2-2.5l-2.5-2.7zm-7.3 8.7c-.6-.7-1.3-1.2-1-1.5.4-.4.9-.4 1.5.1l3 2.8c.7.7 1.4 1 2.1 1.7.8.6 2.4 1.5 3.2 1.9.9.5.1.5.1.5l-1.3-.5-2.6-1.1-1.8-1.1a25.9 25.9 0 01-3.2-2.8zm-8.4 5.8c-.5-1.1 0-.8 1-.4.9.3 2.9 2.5 4 3.3 1.2.8 2.2 1.2 3.2 1.7s1 .7 1 1c-.1.2-.5.2-1 0l-1.7-1-1.1-.2c-.6 0-1.3-.7-2.6-1.7-1.2-1-2.2-1.7-2.8-2.7zm-3.9 7.7c1.5.9 4 2.9 4.7 4.2.7 1.4 1.2 2.3 1 2.6-.3.2-1-.3-1.3-.8-.3-.6-1-1.4-1-1.4s-2.6-2.5-3.5-3a8.9 8.9 0 01-2.8-3.3c-.4-1-.1-1.5-.1-1.5s1.6 2.3 3 3.2z"/>
  <path fill="#c52126" d="M304 181.3a23.7 23.7 0 0119-1.6c2.3.6 4.1.7 6 .2a8 8 0 005.6-6.3s2.6 3.3 0 6.8a7.7 7.7 0 01-4.6 3.2c-5.4 1-10.8-2.3-15.3-2.6-4.3-.2-7.7 2.5-7.7 2.5s-1 .9-2.5 0c-1.5-.8-1.9-1.5-.5-2.3z"/>
  <path fill="#d4af3a" d="M319.6 338.7l1.3-.2c.8-.1 2.4-.6 2.8-.9.5-.2 1.3-.2 1.7.3.5.5 4.4 2.9 4.4 2.9h-6.4c-2.3 0-3.8-2.2-3.8-2.2z"/>
  <path fill="#d4af3a" d="M301.4 337.6v-.7l.9-1.8s1 .6 2 1.6c1.2 1.3 2.6 3.2 3.2 4 1 1.3 2.6 2.6 1.3.4s-1.7-3.2-2.8-4.6c-1-1.5-1.8-2.1-1.7-2.2l3.7-.6c2.7-.3 4.4-1.4 5.6-2.1l3.5-2s4.6 2 6.4 2.4c1.7.5 2.7.7 1 1.5-1.6.9-3 1.1-3.9 1.6a11 11 0 01-4.9 1.4c-1.5 0-4.2 0-3.1 1 1 1.2 2.2 3.3 3.3 6.4a21.6 21.6 0 011.2 7.4l-.2 2.7s-2-2.1-7-5.3c-5-3.2-7-4.3-8-4.7-.9-.4-1.4-.4-1.2-1.6l.7-4.8z"/>
  <path fill="#d4af3a" d="M282 322.1l1-.4h.2c.6.4 3.7 2.4 5 4.5 1.2 2 2.4 2.2 1 0a19.1 19.1 0 00-3.4-4.4 25 25 0 00-1.1-1c2.5-1.2 5.2-2.6 7.8-4.5.4.7 1 2 1.8 2.7 1 1.1 3.4 2.1 3.4 2.1s-1.9-2-2.5-3.5c-.5-1-.7-2-.9-2.6a33.9 33.9 0 005.2-4.9 19 19 0 004.4 7.9c4 4.5 12 6.7 12 6.7s2.8.3.5 1c-2.3.5-3.9 1.5-8.3.8-4.4-.8-4.7-1-5.3-1.2-.6-.1-2.2 0 0 .8s7.3 1.6 9.3 1.4c2-.1 4.7-.6 1.8 1-2.8 1.4-4 2-5.7 2-1.7 0-2.4.6-4.1.6-1.7 0-2.1-.3-3.3-.6-1.2-.2-2 .2-2 .7s1.6 1.8 1.5 5a28 28 0 01-.6 6.4c-.3 1-1 2.5-1.5 3.4-.4 1-.6 1.8-1 0-.6-2-1.6-4.7-2-6.6-.5-1.8-.7-1.9-.9-2.9-.2-.9-1.2-1.6-.7.1l1.4 5.5c.3 1.5 1.2 4.4-.3 2.1-1.4-2.2-6.8-8.3-7.7-9.3-.9-1-1.6-2.1-2.2-3-.7-.9-2.5-2-3.4-3.4a30.3 30.3 0 00-4.2-4.3l4.8-2.1zm74.2-137.7c-.2 3.3-3.8 9.6-5.9 13-2 3.3-2.6 4.6-2.3 4.8.4.3 1.2-1.5 2.4-3s3.3-5 5.2-7.6c1.8-2.6 4.5-9 5-9.5.3-.6.4-1 1.3-.2 1 .7 2.8 7.6.6 12.3-2.1 4.8-5.3 8.2-6.7 9.8-1.4 1.7-3.1 4.2-2.9 4.5.3.2.8-.5 2.5-2.2a152.9 152.9 0 006.1-6.8c1.4-1.7 3.4-5.2 4.1-6.5.3-.5.6-.4.8-.1.7.6 1.6 2 1.2 5.7-.6 5.2-3.3 8.2-5.7 10.9-2.5 2.6-4.9 4.8-4.5 5.2.3.3 2.8-1.9 4.5-3.5 1.8-1.7 6-5.7 6.9-6.9 1-1.1 2.3-.6 2.2 4 0 4.4-5 9-7.1 11.5-2.1 2.5-4.7 4-4.5 4.5.3.5 2.3-.8 3.7-1.7 1.3-1 6.4-4.2 7.4-5 1-.6 1.5.7.2 5s-5 7.7-7.2 9.3c-2.2 1.6-5.8 3.5-5.6 4 .3.5 1.7-.1 3.8-1.1 2-1 4.6-2 6.4-2.5 1.8-.5 1.8.8 1.8.8s.3 3.7-2.3 6.6a14.2 14.2 0 01-8.5 4.6c-2.9.5-3.3.6-3.2 1 0 .5.3.5 1 .5.6 0 3.3.3 5.7.3s3.7.6 3.7 1.7c0 1 0 2.5-3.6 4.9-3.6 2.4-7.7 2.8-9.4 3.1-1.7.4-1.8.5-1.4 1 .3.5 1.1.5 3.8.8 2.7.2 4.4 1.3 4.7 2 .4.8-.2 2.9-2.4 4.4-2.2 1.5-5 2-9.3 1.7-4.3-.3-5.4-.3-5.5.4-.2.7 1.3.9 3.4 1.3 2.1.3 3.8.3 5 1.3 1.2 1 .3 3-1.8 4.6-2 1.5-7.2 1.5-9.3 1.3-2.2-.1-5.5-.9-5.7-.3-.2.6 1.6 1.4 3.8 2.2 2.2.8 2.8 1.3 3.3 2.2.4 1 0 1.8-2.6 2.8-2.6 1-6.5 1-8.5 0-2-.8-3-1.2-3.4-.8-.4.3 0 .7.4 1.2s2.2 1.8 4.4 2.4c2.2.6 2.4.6 3.2 2.4.8 1.8-1.2 3.2-5.2 3.3a25 25 0 01-11-2.4c-1.8-1-2.4-1.2-2.7-.9-.3.4-.2.6.6 1.2.9.7 3.6 2.6 5 3 1.3.3 1.4 1.3 1.4 2.3 0 .9.4 2.8-3.2 3.6-3.6.9-7.8.2-11.6-2.5a8.8 8.8 0 01-2.4-2.2c.3-3.7.2-6.2-.3-8.5.8 0 2.2-.3 3.7-.9 2.1-.8 3-2.8 3.5-4 .5-1 1.2-1 2-.7 1 .3 1.8.7 3 .6a8.4 8.4 0 005.6-3c1.9-2.2 1.5-4.3 1.6-5.4 0-1 1.8-.3 2.6-.3.9 0 3.4-.3 5.7-1.9 2.3-1.6 2.3-3.7 2.5-4.6.2-.8 1.1-1.4 1.8-1.7.7-.3 1.9-.6 3.4-1.8 1.6-1.3 2.2-3.8 2.3-4.7 0-.8 1-1 4.2-2.6s2.9-5 2.8-6.4c-.2-1.4-1.7-2.5-1.7-3s1-.6 2.2-1.3c1-.6 3.7-1.7 3.8-5.7 0-4-2.6-4.4-2.6-4.4l1.6-.9c1.1-.6 4-2.6 4-5s-1-3.4-1.8-4c-.8-.6-3-1.1-3-1.1s1.4-1 2-2.8c.5-1.8.7-4.1-.6-5.8-1.4-1.6-3.6-1.6-4.9-1.6s-2.2.7-2.7.3c-.4-.4-.5-.6 0-1.6s.5-3.2 0-4c-.3-.8-.3-2.3-3.4-3.3-3-1-6.3 1-7.3 1.6s-.6-.8-.6-1.8 2.1-3.5 4.5-7a78.9 78.9 0 0010.7-25.1c.4-1.8 1.1-1 1.1-1s.7.3 2.4 4.5a26.7 26.7 0 011.8 11.2z"/>
  <path fill="#d4af3a" d="M302.3 257.5a8 8 0 006-3.8c2-2.7 4.7-3.3 9.5-3.2 4.7 0 7-2.2 8.1-5.5 1.2-3.4-.1-7.1-5-9.5-4.9-2.4-7.1-5.1-7.3-9.2-.2-4.2 4.9-9.3 10-15.1 5-5.8 9-14 9-14s1.4 1.9 1.4 3.8c0 2-.7 4 0 4.5.8.6 1-.8 4-2 3-1.4 5.3-1.5 7.2.6s0 5.8-1.7 7.5c-1.7 1.8-3 3-2.6 3.7.5.7 3-1 3.8-1.6.8-.5 2.8-2.6 5.6-2.4 2.9.3 3.9 1.1 4.1 3.5.3 2.4-2.5 4.6-4.4 5.5-1.8.9-2.5 1.7-2 2 .4.5.8 0 1.7-.2.8-.3 3-.5 4.6 0 1.4.6 3.8 2.6 1.6 5-2.2 2.6-6.8 3.5-7.7 3.7-1 .2-1.4-.1-1.5.6 0 .8 2 .8 4.4.9 2.5 0 3.2 2.4 2.9 4.3-.4 1.8-4.5 3.8-6.8 4.2-2.3.4-3.1 0-3.3.7-.2.6.2.9 1.5 1.2s3.8.7 4.3 2.7c.4 2 .5 3-1.4 4.7-2 1.8-5 1.5-6 1.3-1-.2-2-1.2-3-.3-.9 1 .9 1.7 2.5 2.8 1.5 1 1.4 3.2-1.2 4.7a8.2 8.2 0 01-6.5.5c-1-.3-2.6-2-3.3-1-.7 1.1 2.3 1.5 3.6 3 1.3 1.6.8 4.2-1.8 5.8-2.5 1.5-6.8.4-7.5-.2-.7-.7-1.6-1-2.2-.4-.5.6.3 2 .8 3.3.6 1.3 1.6 5-2.3 6.6-3.8 1.4-7.3-1.9-8-2.5-.6-.7-1.3-.8-1.8-.5-.6.3-.3.8.2 1.5a3.9 3.9 0 01-1.3 5.3 6.8 6.8 0 01-5 1c-.6-2.1-1.4-4.4-2.1-7.6h.5c.4 0 .5.5.5.7 0 .3-.1.4.2.4.3 0 .4.2.8.6.5.3 1 .7 1.2.5.3-.2-1-.8-1.3-1.2-.3-.4-1-1-1-1.5s-.3-.7-1-1.3a2.5 2.5 0 01-.4-.5 104.4 104.4 0 01-1.3-7.7 61 61 0 01-.5-5.9h1.2zM381 200c-4.1 8.3-10 13-10 13l1.2-3.5c.3-1.4 0-3 0-3l4.2-6c2.7-4.2 4.1-10.3 4.1-10.3s-2.5 6.1-4.4 9.3c-2 3.3-4.2 6-4.2 6s-.8-3-1.4-3c-.5-.2-1 .2-1.4.9-.5.6-1 .5-1 .5l1.8-3 1.6-2.3c1.5-2.4 4.8-7 6.5-11.6 1.7-4.6 5.4-16.1 6-19.5.7-3.4 1.3-1.6 2 1a31 31 0 011 11.3 57.1 57.1 0 01-6 20.2zm-5.3 22.4l-3.8 2.7.6-1.9.3-3 3-2.7c1.3-1.1 2.9-2.5 6-6.4 3.1-3.8.6-1.5-2 1.3a96.8 96.8 0 01-7.3 6.8v-1a3.3 3.3 0 00-.8-2c-.5-.6-.2-.6 2.5-2.7a72.8 72.8 0 0018.7-26.1s1.6 9.5-4.2 20c-5.8 10.5-11.5 13.9-13 15zm-30.5 60c-3.1-1.2-2.3-4.3-2.3-4.4l3.8 1.3c1.8.7 6.2 2 8 2 1.7 0 1.7-.2 1.7-.4 0-.3-1.3 0-3.8-.5s-7-2.8-7.7-3.3c-.8-.5-.7-.6.4-.7 1.2-.1 2.1-.6 2.5-1 .5-.3 1.6.2 4.5.9a53.4 53.4 0 0023 .8c.6-.2 1.4.2-.8 3.9-2.2 3.7-10 5.7-15.3 5.6-5.4 0-10.8-3-14-4.1zm14.3-7.6c-5.5 0-7.6-1.6-7.6-1.6s0-.3.8-1.4.6-3 .6-3l3.6.5c2.3.4 5 .7 8 .2s1.7-.9-.7-.6c-2.4.3-6.9-.6-8.3-1-1.5-.6-.9-1 .1-1.4 1-.3 3.7-2 3.7-2s6.7.8 13 .1c6.2-.7 10.2-2.3 11.5-2.5 1.2-.2 1.2.3 1.2.3s.3.6-1.8 4a18 18 0 01-10 6.6 53.7 53.7 0 01-14 1.8zm1.5-13l.5-1.4c.4-1.2-.6-2-.6-2s1.3-.4 5.4-1c4.2-.4 4.4-.8 7-1.3 2.5-.6 4.2-1.3 4.1-1.6 0-.3-.8.1-2.3.7-1.5.5-7.9 1.2-10.6 1.6-2.6.4-4.1.6-4.6.4-.5-.3-2.1-.7-2.1-.7l2.5-.6a9 9 0 003.4-1.4c.8-.5 1-.6 4.4-1 3.4-.4 6.1-1.5 12.2-3.7 6-2.2 10.6-4.8 11.9-5.8 1.2-1 1.1-.3.8 1-.4 1.2-.3 2.8-3.4 6.4-3 3.6-4.5 5.1-12.3 8s-16.3 2.4-16.3 2.4zm22.8-18.8a43.3 43.3 0 01-16.5 6.8c-.4-.4.4-2 0-3-.4-1.2-1.1-1.2-2.8-1.3-1.6 0-.6-.4-.2-.4.4 0 .5 0 3.2-.8 2.7-.7 5.5-1 9.3-2.5 3.7-1.4 4.9-2.5 4.8-2.7-.1-.3-1.8.9-5.2 2.2-3.5 1.3-7.6 1.8-9.8 2.3-2.2.5-.3-.5.8-1.1 1-.6 2.5-2.9 2.5-2.9s2.4-.4 6.4-1.6c4-1.2 7.3-2.6 10.7-4.5 1.1-.6 2.3-1.5 3.4-2.3l5.5-4c1.4-1 1-.2.8.4-.1.6-1 3.5-3.2 6.6-2.2 3-2.9 4-9.7 8.8zm1.1-13.5c-6.7 5.3-12.5 7-13.5 7.4-1 .4-.9-.1-.7-.7.2-.6.3-2.4.3-2.4l5.1-3c2.7-1.5 5.7-3.6 7.6-5 2-1.3.8-1.2.2-.7-.6.5-3.3 2-6 3.8l-7 4.1s0-.9-.6-1.4c-.5-.6-2-.4-2-.4l1.2-1.4c.4-.7 2.6-1.4 5.1-2.6a62 62 0 0010.3-7.2c3.3-2.8 9.7-9.8 10-10.3.5-.6.8-.5.8.2s.3 1.2-.4 4.4-3.7 9.9-10.4 15.2zM361 179.3l-2.2 3.8c-1 1.5-1.4 2.5-1.4 2.5s-.2-.5 0-1.5c0-.9.2-2.2 0-3.7l-.3-2.4c0-.9.3-1.6.5-2l1.6-7.7c.5-2.7 1-6.7 1-10.2 0-3.5-.6-1.7-.6 0s-.2 4.3-.7 8.3c-.5 4-2.2 10-2.2 10s-.1-.9-.7-2.2c-.5-1.4-1.3-2.9-2-4.5s-.4-2-.4-2 2.4-11.3 3-16.6c.6-5.3 1.6-19.4 1.6-19.4 3.5 3.5 6 12.6 6.5 21.3.4 6.5-.7 12.5-1 15-.6 4.8-1.4 8.6-2.7 11.3zm7.7 17.8c-.1-2.6-.7-4.5-2.4-5 0 0 1.5-2.6 2.7-6.3a35 35 0 002-8.2c1-6 1.6-12.3-.2-2a44.4 44.4 0 01-4 13.8l-2.6 4.3c.4-2 .5-3.2.4-5.3a33.6 33.6 0 00-1-7s3.2-6.3 5.2-13.9a87.7 87.7 0 003.4-24.1s3.2 2.4 4.3 14.8a74 74 0 01-3.8 28.8c-1.6 4.5-4 10-4 10zm-35.5 94.5l2-1.3c1.6-1 1.1-4 1.1-4a81 81 0 005.5 3.4l3.3 1.3c1 .3.7 0-.1-.5-.8-.5-1-.8-3.1-1.6-2-.8-6.2-4.4-6.2-4.4l2.7-.1c1.7-.1 3.8-1 3.8-1s1.7 1.6 8.5 4.5c6.9 3 12.7 3.7 12.7 3.7s-.8 3.5-4 4.7c-2.8 1.1-6.5 1.9-13.8.1a46.5 46.5 0 01-12.4-4.8zm-9 7c-.5-2.9 1.1-4.9 1.1-4.9l1.4 1.1c1 1 2.5 2.7 5.4 4.1 2.8 1.5 3.9 1.4 1.1-.1s-6.8-5.7-6.8-5.7l1-.4c1.1-.4 3 .3 10.7 4.9a29 29 0 0012.2 4.8s-3.5 4.1-12.8 3.8c-9.3-.3-12.7-4.7-13.3-7.6zm-17.6-3.4s1 1.5 2.4 2.4c1.4 1 5 1.5 5 1.5l1 1.3c.7 1 2.3 3.2 3.9 4.3 1.6 1.2 4.2 2 4.4 1.7.1-.3-1.5-1-3.1-2-1.6-.9-3-2.7-4.1-4-1-1.2.4-1 .4-1h3.8c1.8-.2 1.4 0 2 .8.4.9 1.2 1.7 2.5 3.2l4.7 5.4c1 1.3.3 1.6.3 1.6s-.5.8-4.7 1.3c-2.5.2-5.3 0-8.2-1.8a25 25 0 01-5.6-4.8c-5-5.4-4.7-9.9-4.7-9.9zm-2.2 11.3l1.6 1.9s-.7-2.2-1.4-3.3a20.2 20.2 0 00-.9-1.4 27.6 27.6 0 001.7-5c.4 1.5 1.8 5.8 3.6 8.6 2.2 3.5 4 4.7 2.8 5.6-1.2 1-3.6 1.2-6.3-.2-2.7-1.3-3.4-3.5-3.8-5.3a26.4 26.4 0 001.3-2.3c.3.2.8.6 1.4 1.4z"/>
  <ellipse cx="-305" cy="169.2" fill="#d4af3a" rx="1.9" ry="1.8" transform="scale(-1 1)"/>
  <path fill="#d4af3a" d="M309 165.9c-1.7 0-2.7-.9-4.6-.7a28 28 0 00-9 3.6 15.5 15.5 0 01-10.5.9c-1-.3-2-1-3-1.5-4.6-2.5-3.5-7.6-3.5-7.6a17.8 17.8 0 0011.3 3.5l-1 .8c-.6.7-1.8 1.5-1.4 1.8.4.3 2-1.3 3.4-2.3a20.6 20.6 0 017-3.4c3.5-1 7.4-1.1 10 .3 2.7 1.5 3 3.3 2.6 4-.2.5-.7.6-1.3.6zm-49.3 37c.8-.2 2.2-.5 4-2.2a78 78 0 006.8-7.3c.5-1 .3-1.8-1-2.3-1.2-.5-2.1-2-2.1-2s2.7-1.1 4.5-2.4c1.9-1.4 6.1-5.2 6.7-6.1.6-1 .3-1.1-.6-1.4-.9-.3-1-1-1-1s1.9-1.1 3.7-2.6a75.5 75.5 0 004.3-4c2.8 1.2 7 .7 9.4.3 4.1-.7 7.1-2.4 7.1-2.4l.7 1.9c.5 1.3 2.4 2 4.3.7 1.9-1.2 1.4-4 1.4-4s1.6-.9 4.7-2c3.2-1.2 5.7-1.4 8.3-.2 2.5 1.2 3.8 4.7 3.8 7.3 0 2.7-1.4 1.6-1.7 1.2-.3-.4-.9-2.3-4.1-2.8-3.2-.5-6.1 1-9.8 4-3.7 3-4.5 3.3-6.3 5.2-1.8 1.9-.4 3 2.8 4 3.1 1 7.2-1 7.3-1 .6.3-1.4 3.1-4 4.2-2.8 1-6.3.3-9-.7-1.8-.8-2.1 0-2.6.5-3 3.2-3.8 6-4.3 9.7a4.3 4.3 0 01-2.8-3.3c0-.6-.3-1.9-1.3-1s-1.8 6.3-1.8 8.7c0 2.5.7 5.7.7 5.7l-.7-.1c-.5 0-1.3-.6-2.5-1.2-1.2-.7-1.3 0-1.3 1.4 0 1.3-.4 3.8-2.2 8.3-1.7 4.4-4.3 5.9-4.3 5.9s-.5-.9-1-2.7c-.5-1.7-.9-5.2-.9-8.2 0-3 .8-9.4.8-9.4s-3.6 4.4-7.4 5.5c-3.8 1.1-7.6.5-9.2-1.4-1.6-1.8-.2-2.6.6-2.8z"/>
  <path fill="#d4af3a" d="M284.8 214.5s1.1 2.5 1.7 3.4c.7 1 1 1 1 1s-1.2 1-2.9 1.6l-3.2.8s2-2.6 2.6-4.4l.8-2.4zm-22.9-1.5l.9-2.3a16 16 0 008.7-1.8s-1.8 3.6-3.5 4.8c-1.8 1.3-2 1.3-2 1.3s1.7.3 4.1-2c2.3-2.3 3.4-5 3.4-5s-.5 6.2.4 10l1.2 4.2s-5 1-10.5-.6c-5.6-1.6-6-2-6-2s-.7-.2.2-1.4a29.9 29.9 0 003.1-5.2z"/>
  <path fill="#b96b29" d="M272 199.4l1.8-2.4s.6.6.1 1.4c-.5.9-3 3-4.6 4a13 13 0 01-3.3 1.2v-.3s4.2-2 6-3.9zm6.7 12.9l.4-9c0-1 .7-.8.7-.8l.9.4-1.7 11.3c-.1 1.2-.7 1.1-1 1 .6-.2.7-2.6.7-3zm10.4-33.6c.7-.6 2.1-1 .7.5-1.3 1.5-3.1 3.4-3.7 5-.5 1.6-.8 3.5 0 3 1-.3 1.6-.3 2.6-1.1s2.7-2.1 3.5-2.3c.7-.3 2 0 1 1.1a26.4 26.4 0 01-4.3 3.7l-4.2 2.9a39.3 39.3 0 01-2 1.4s.9-6.4 2.6-9.1a28 28 0 013.8-5zm34.2 105.9c1.3 1 3 1.4 3 1.4s.7 0 .7.2-.9 0-1.9-.2c-1-.1-2.3-1.1-2.7-1.5-.5-.3-1.2-.8-1-1.4.2-.6.6.5 1.9 1.5zm-11 5.9a28 28 0 002.4 1.9l1.3.7c.7.3 1 .7 1 .7h-1c-.8-.1-3-1.8-3.6-2.5-.8-.6-1-.8-.8-1 .3-.3.4-.1.7.2zM357 211c-.4.5-1 1.1-1.1 1-.3-.3 0-.5.5-1.2l.9-.9s.7-1.2 1.1-1.6c.5-.4 1.1-.7.3.3l-1.8 2.4zm3.3 7.4L359 220c-.5.6-1 1.2-1.2 1-.3-.4.8-1 1.2-1.7a8 8 0 011.5-1.5 10.6 10.6 0 011.4-.9l-1.5 1.7zm-1.2 12c-.9 1-2.1 1.2-2.3.8-.2-.3.1-.6.8-1a24.4 24.4 0 004-2.7c.4-.4.8-.7 1-.6.1.1-1.2 1.5-1.6 1.8-.4.2-1 .9-2 1.7zm-2.5 9.7c0-.4 0-.6.7-.6l1.6-.2s1.4-.5 1.5-.3c.1.3-1.1.8-1.7 1-.5 0-1.2.2-1.5.4-.3.1-.6 0-.6-.3zm-1 10.4c1.5 0 2.8-.4 2.9-.1 0 .2-.7.5-1.5.8-.8.3-2.2.4-3.1.4-1 0-1.2-.2-1.1-.7 0-.4 1.3-.4 2.8-.4zM343.8 262c.2-.2.8 0 1.6.2.9.2 2.2.4 3 .4l2.5-.1 1 .2c0 .2-1.3.2-3.1.4-1.9.2-3.1-.2-4-.3-.9-.1-1.2-.5-1-.8zm-4.9 8.2a8 8 0 002.4.4l2.3.3s.8.1.7.4c-.1.3-.4 0-1 0h-2.6c-1.2-.1-2-.5-2.7-.6-.7-.1-1.6-.5-1.2-1 .4-.5 1.2.1 2.1.5zm-9.4 6.1a27.7 27.7 0 003.7 2.7c.8.4.8.5.7.8-.2.2-.7-.3-1.1-.5a17.4 17.4 0 01-2.7-1.8c-.7-.6-1.7-1.1-1.5-1.6.2-.4.3 0 .9.5zm15.7-79.7l-1.8 2.4c-1.6 2-.7.2-.3-.4l3.6-4.8c.8-1 1-.5.5.1l-2 2.7zm3.5 10.5c-.3-.3.3-.5 1.2-1.7l2.8-3.5s.5-1.1.7-1c.2.1-.6 1.9-1.4 2.6-.8.8-1.7 2.2-2.3 2.9-.5.6-.8 1-1 .7zm-4.6 19.7c0-.6 1.9-.5 2.7-.7l2.4-.5s1.7-.3 1.8 0c0 .1-.4.4-1.4.5-1 .2-2.4.7-3.5.8-1 .2-2 .4-2-.1zm4.6-10.7c-1.3 1-2 1.5-2.7 1.8-.7.4-1.2 1-1.5.5-.4-.4.3-.7 1.3-1.2l1.6-.8 1.1-.6c.5-.3 1.4-.7.2.3zm-10.6-7l1.4-1s1-.8 1.1-.5c.2.3-1 1.1-1.6 1.6-.6.6-1.6 2-2.2 1.8-.5-.3.6-1.2 1.3-1.9zm7 27.5l1.6.4c.7.2.7.5-.5.5s-1.7-.3-2.9-.5c-1.2-.3-1.6-.4-1.4-.8.2-.4.8-.3 1.3-.1l1.8.5zm-2 9.9c.1.2-.8 0-1.4-.2-.6-.3-1.9-1-2.7-1.1-.7-.3-.7-.4-.7-.8 0-.5.8-.1 1.8.2 1 .3 2.2 1.3 2.2 1.3s.8.4.9.6zm-12.7 6c-1-.5-1-1-.8-1.2.3-.3.6-.2 1.3.4l2 1.5 1.3.6c.5.3 1.2.7 1 1-.1.2-1.2 0-1.8-.6l-3-1.7zm-6 8l-2-1c-.4-.4-.7-1.4-.3-1.6.3-.1.6.5 1.4 1 .8.7 3.7 2.6 3.7 2.6l.8.3c.8.3.4.6-.2.5-.7-.1-1.2-.1-2-.7-.7-.7-1.1-.8-1.4-1.1zm-9 7.6c-.7-.3-1.8-1.3-2.4-1.8-.5-.5-1.2-1.1-.8-1.4.4-.3.9 0 1.5.6l2.2 2.3s.3 0 1.1.8c1 .7 0 .6-.3.3s-.5-.5-1.3-.8z"/>
  <path fill="#d4af3a" d="M279 154.5l-3.6-2.5 4.3-1.1 2.7 2.2z"/>
  <ellipse cx="-267.5" cy="151.6" fill="#b96b29" rx="3.4" ry="3.3" transform="scale(-1 1)"/>
  <ellipse cx="-267.5" cy="150.8" fill="#d4af3a" rx="2.1" ry="2" transform="scale(-1 1)"/>
  <path fill="#d4af3a" d="M274.7 140.2c-1 .3-2 .2-2 .2s-.4-1.6.4-2.3l2.1-1.8.6-.6.1 2.1c0 .8-.3 2-1.2 2.4z"/>
  <circle cx="-272.8" cy="141.8" r=".6" fill="#d4af3a" transform="scale(-1 1)"/>
  <path fill="#d4af3a" d="M277.5 141.2l.9 1s-.7 0-1.3.4c-.6.4-1.3.8-2 .7a1 1 0 01-.8-1.2c.1-.5.5-1 1.6-1.3 1-.4 1.4 0 1.6.4z"/>
  <path fill="#d4af3a" d="M275.1 145.2c2.2.2 5-2.2 5-2.2.3 2 1.5 3 3.3 3.3h-.2s-1.7 1-3.7 1.2c-.9.2-1.7 0-2.6-.2a11.3 11.3 0 01-3.2-1c-1.3-.8-1-2.9-1-2.9s.3 1.6 2.4 1.8zm8.4-2.1c1-.4 2.2-1 2.8-1 .5 0 1.3-.2 1.2.8-.1 1-1.2 1.5-2.2 1.6-1 0-1.6-.4-2.2-.7-.6-.3-.5-.4.4-.7zm6.8-3.7c1-.7 1.8-.9 1.8-.9s.6 1.7.3 2.7-1.1 1.3-2 1.3c-1 0-2.3-.5-2-1.2.5-.7 1-1.2 1.9-2z"/>
  <ellipse cx="-289.4" cy="144.1" fill="#d4af3a" rx=".8" ry=".5" transform="scale(-1 1)"/>
  <path fill="#d4af3a" d="M287.3 135.8c.6-2.9.5-6-2.2-9.9-2.7-4-7.3-5.5-7.3-5.5l-1.7-1.9a32.7 32.7 0 00-4.5-3.6l5.5 1.5v.1a2.4 2.4 0 002.4 2.5 2.4 2.4 0 001.4-.4c1.1.2 4.7 2.3 5.7 3.1a2.5 2.5 0 00-.4 1.3 2.4 2.4 0 002.4 2.5 2 2 0 001.1-.3l.3.5a25 25 0 011.8 4 2.6 2.6 0 00-1 2.1c0 1.4.8 2.5 2 2.5v1.6c0 .8-.4 1.3-1.8 1.7-1.4.4-3.3 2.8-3.3 2.8-.1 0-1-1.8-.4-4.6z"/>
  <path fill="#d4af3a" d="M278.8 117.6c-.5-.4-.6-1-.2-1.4.4-.4 1.1-.3 1.6.1s.6 1 .2 1.4c-.4.4-1.1.3-1.6-.1zm9 6.1c-.6-.5-.7-1.3-.2-1.8.4-.4 1.2-.4 1.8.2.6.5.7 1.3.2 1.7-.4.5-1.2.4-1.8 0z"/>
  <circle cx="-293.2" cy="131.4" r="1.4" fill="#d4af3a" transform="scale(-1 1)"/>
  <path fill="#d4af3a" d="M263 112c.8.2 2.1.6 4.1 1.7-1.4 0-2.5.9-2.5 2s1.3 2.4 2.7 2.4c1.4 0 2.3-1.2 2.3-2.3 0-.3 0-.6-.2-.8l2 1.2c4.4 3 5.4 4.5 7.6 8.5 2.2 4.1 3 8.6 2 11.2-.9 2.7-4.4 3.2-4.4 3.2s.4-.4.4-.9l-.2-1.7c-.2-1 0-2.2 0-2.2s-.9-.1-1.3.4l-1.6 1.8-1.6 1.6s-.7-1-.7-2.2c0-1.2.8-2.5 1-4.6.1-2-1-5.8-3-8.6a24 24 0 00-7-5.7 2.2 2.2 0 01-1.5-2l-.2-2c-.1-1.3 1-1.2 2.2-1z"/>
  <path fill="#d4af3a" d="M267.5 116.8c-.8 0-1.5-.7-1.5-1.4 0-.6.6-1.1 1.4-1.1.8 0 1.4.5 1.4 1.1 0 .7-.5 1.4-1.3 1.4zm-6.6 26a3.3 3.3 0 01-2.8-.2c-.6-.4-.8-1.3-.1-1.9a2.1 2.1 0 012.3-.2l2 1.4s-.3.5-1.4.9z"/>
  <path fill="#d4af3a" d="M257.5 144c.4.6.6 1 1.8 1 1.2 0 2.5 0 3.3-.8a8.2 8.2 0 001.3-1.9h1.3s.5 1.9 1 2.4c.7.5 2.7.6 3.6 0 1-.8 1.7-1.6 1.9-1.5.1.1 0 .8-1 1.6s-1.5 1.3-3 1.3h-8.5s-1.7.1-2.2-1c-.5-1-.5-1.6-.3-1.9.2-.2.4.2.8.8z"/>
  <path fill="#d4af3a" d="M270.4 142.6c-1.3.7-2 .2-2.4-.3l-.6-.9s1.2-.4 1.8-.8c.6-.3 1-.6 1.6-.6l.6.2s.3 1.6-1 2.4z"/>
  <circle cx="-276.6" cy="130" r="2.8" fill="#b96b29" transform="scale(-1 1)"/>
  <path fill="#b96b29" d="M271.6 120.2a3 3 0 013.8.7c.9 1.2.7 2.7-.4 3.5a3 3 0 01-3.7-.7c-1-1.2-.8-2.7.3-3.5z"/>
  <circle cx="-276.7" cy="129.6" r="1.6" fill="#d4af3a" transform="scale(-1 1)"/>
  <path fill="#d4af3a" d="M272.8 120.5c.8-.2 1.7.2 2 .8.4.7 0 1.4-1 1.6-1.8.3-2.6-2-1-2.4z"/>
</svg>
