<svg xmlns="http://www.w3.org/2000/svg" id="flag-icon-css-pg" viewBox="0 0 512 512">
  <defs>
    <clipPath id="a">
      <path fill-opacity=".7" d="M81.4 0h496v496h-496z"/>
    </clipPath>
  </defs>
  <g clip-path="url(#a)" transform="translate(-84) scale(1.0321)">
    <g fill-rule="evenodd">
      <path d="M.5 0L0 496h659L.5 0z"/>
      <path fill="red" d="M658.5 496L659 0H0l658.5 496z"/>
    </g>
    <path fill="#fc0" stroke="#fc0" stroke-width="2.3" d="M406.9 123.4l-8.8-.4c-2.7-6.4-10.3-8.8-15-6-4.2.3-26.5-.4-26.5-.4l16.3 7.1c4 10.9 18 13.5 18 13.5-1.2 20-20.3-2.6-36.3 8.8-11.4 6.9-11.6 15-17.8 28.3a119 119 0 01-10 13.1l13.5-1-4.3 5.6 16-2.3s-2.1 1.8-3.4 3.2c2.4.5 18.3-3.7 18.3-3.7l-1.1 5.1c8.1-3.3 18.2-6.6 18.2-6.6s3.6 3 6.9 4.3l2.3-9.1 9.1 2.3 2.3-9.2c13.7 18.3 18.3 36.6 43.4 41.2l-2.3-9.2c7 3 20 9.4 20 9.4l2-4.2c10.9 7.8 20 7.7 26 8.5l-4.5-11.4 4.6 2.3-6.9-18.3 6.9 2.3-9.2-13.7 3.4-2.3-1-6.9c13.6 4.6 32 11.5 34.2 27.5 2.3 25.1-25.2 32-43.4 29.7 13.7 11.4 38.8 6.8 50.3-4.6a47 47 0 009.1-18.3c2.3 6.9 6.9 16 6.9 25.2-2.3 20.5-29.8 27.4-48 29.7 20.5 11.4 57.1-2.3 59.4-32 0-25.2-16-36.6-22.9-48a231 231 0 01-2.3-12.3c1 .2 6.9 3.2 6.9 3.2s-4-7.6-4.6-9.2c0 0-7.1-19.4-9.7-23.7.4-.3 5.2.8 5.2.8l-18.8-23.5 5.3-.6S493 100.5 487 98.3l6.9-2.3c-13.8-6.8-29.8-2.3-43.5 6.9l2.3-6.9-4.2.4v-7.8l4.2-6.3-6.8-2.3 4.5-11.4-6.8 2.3 2.3-11.5s-5.2 2.4-8.3 2c.1.3 3.7-7.7 3.7-7.7-2.2-3.4 0-10.3 0-10.3-16 2.3-18.3 4.6-27.4 18.3-13.8 25.2-9.2 36.6-6.9 61.7z"/>
    <path fill="red" fill-rule="evenodd" stroke="red" stroke-width="3" d="M493.3 161c1.2 2 14.1 8.2 23.9 13.8-2.6-10.6-21.7-12.9-24-13.8z"/>
    <path fill="#fff" fill-rule="evenodd" d="M179 412.4l-14.6-9.3-19.5 9.4 4.4-16.7-15-15.7 17.3-1 10.3-19 6.3 16 21.2 3.9-13.3 11zm37.3-81.6l-6.8-3.2-6.4 3.7 1-7.4-5.6-5 7.4-1.4 3-6.8 3.6 6.6 7.4.8-5.2 5.4zm32.9-46.8l-14.8-7.2-14.4 8 2.3-16.2-12.1-11.2 16.2-2.8 6.8-15 7.8 14.6 16.3 1.8-11.3 12zm-67.7-65l-17.4-8.8-17 9.4 2.8-19.2-14.2-13.4 19.2-3.1 8.3-17.7 9 17.3 19.3 2.4-13.7 14zM119 286.5l-17.6-10.4-17.5 10.7 4.5-20-15.6-13.3 20.4-2 7.9-18.9 8 18.8 20.5 1.7-15.3 13.5z"/>
  </g>
</svg>
