<svg xmlns="http://www.w3.org/2000/svg" id="flag-icon-css-sz" viewBox="0 0 512 512">
  <defs>
    <clipPath id="a">
      <path fill-opacity=".7" d="M124 0h496v496H124z"/>
    </clipPath>
  </defs>
  <g clip-path="url(#a)" transform="translate(-128) scale(1.0321)">
    <path fill="#3e5eb9" fill-rule="evenodd" d="M0 0h744v496H0z"/>
    <path fill="#ffd900" fill-rule="evenodd" d="M0 88.6h744v318.9H0z"/>
    <path fill="#b10c0c" fill-rule="evenodd" d="M0 124h744v248H0z"/>
    <rect width="602.4" height="10.6" x="74.2" y="242.7" fill="#ffd900" fill-rule="evenodd" stroke="#000" stroke-width="1.3" rx="5.2" ry="5.3"/>
    <g stroke="#000" transform="translate(-609.5 -24.8)">
      <path fill="#fff" fill-rule="evenodd" stroke-width="3.9" d="M-106.3 265.8l-88.6 35.4 88.6 35.4 88.6-35.4-88.6-35.4z" transform="matrix(.34 0 0 .3 1256.8 136.4)"/>
      <rect width="442.9" height="7.1" x="761.8" y="223.2" fill="#ffd900" fill-rule="evenodd" stroke-width="1.3" rx="3.9" ry="3.5"/>
      <path fill="none" stroke-width="2.5" d="M1224.4 280c-3.5 0-7-3.6-7-7.2s3.5-7 7-7" transform="matrix(-.50001 0 0 .5 1806.3 90.3)"/>
      <path fill="none" stroke-width="2.5" d="M1224.4 280c-3.5 0-7-3.6-7-7.2s3.5-7 7-7" transform="matrix(-.50001 0 0 .5 1802.8 90.3)"/>
      <path fill="none" stroke-width="2.5" d="M1224.4 280c-3.5 0-7-3.6-7-7.2s3.5-7 7-7" transform="matrix(-.50001 0 0 .5 1799.2 90.4)"/>
    </g>
    <g stroke="#000" transform="translate(-637.8 -3.5)">
      <path fill="#fff" fill-rule="evenodd" stroke-width="3.9" d="M-106.3 265.8l-88.6 35.4 88.6 35.4 88.6-35.4-88.6-35.4z" transform="matrix(.34 0 0 .3 1256.8 136.4)"/>
      <rect width="442.9" height="7.1" x="761.8" y="223.2" fill="#ffd900" fill-rule="evenodd" stroke-width="1.3" rx="3.9" ry="3.5"/>
      <path fill="none" stroke-width="2.5" d="M1224.4 280c-3.5 0-7-3.6-7-7.2s3.5-7 7-7" transform="matrix(-.50001 0 0 .5 1806.3 90.3)"/>
      <path fill="none" stroke-width="2.5" d="M1224.4 280c-3.5 0-7-3.6-7-7.2s3.5-7 7-7" transform="matrix(-.50001 0 0 .5 1802.8 90.3)"/>
      <path fill="none" stroke-width="2.5" d="M1224.4 280c-3.5 0-7-3.6-7-7.2s3.5-7 7-7" transform="matrix(-.50001 0 0 .5 1799.2 90.4)"/>
    </g>
    <g fill-rule="evenodd" stroke-width="1pt">
      <path fill="#3d5da7" stroke="#000" d="M338-.4c-5.5 12.4 4.3-4.1 28.4 16.7 4.4 3.8 8.3 14 8.3 21.1-1.1-1-2-3-3.2-4.5-1.8 2.3 1.7 12.6 2.2 17.5-3.8-2.7-3.4-4-4.7-7.4.3 4-.6 15.2.9 19.4-3-1-2.8-4.1-4.3-4.8 1 4.9-1 10.1-.4 15.6-1.8-2.2-3.6-4-4.4-4.9-.1 2.6-3.3 9.4-3.4 11.9-1.5-1.2-1.9-3-2.1-4.2-1.8 3-8.3 14-8.7 17.2-5-5.7-17.8-19.5-19.5-26.9-1.5 4.2-3.6 5.6-7.8 8.7-1.7-11.7-8-24.8-4.6-34.8a84.4 84.4 0 00-6.6 5.9A67.9 67.9 0 01338-.4z" transform="matrix(.96345 0 0 .74716 308.4 244.1)"/>
      <path fill="#a70000" d="M614.1 289.9c2.3-4.5 4.3-6 5.8-8.8 2.5-5 2.9-9 5-8.5 2.3.6 2.3 2.7-.6 7.7-2.8 5-4.2 6-10.2 9.6zm15.1 10.6c-.3-3.4.7-4.8.5-7-.3-3.9-1.8-6.5.2-6.7 2-.2 3 1.1 3 5s-.6 4.9-3.7 8.7zm11.4 6.6c-.8-4.7-.2-6.8-.8-9.9-1-5.3-3-8.9-1-9.4 1.9-.5 3 1.3 3.7 6.7.8 5.5.4 7-1.8 12.6zm12-33.2c-2.9-2-4.5-2.2-6.3-3.6-3.2-2.4-4.8-5-5.8-3.7-1 1.3-.3 2.7 3 4.9 3.4 2.2 4.5 2.4 9 2.4zm-2 15.8c-1.5-3.1-3-3.9-4-5.8-1.7-3.5-1.7-6.5-3.5-5.7-1.8.7-2 2.3 0 5.7 2 3.3 3 3.9 7.5 5.8z"/>
    </g>
    <g fill-rule="evenodd" stroke-width="1pt">
      <path fill="#3d5da7" stroke="#000" d="M329.6 20.7c-.3-2.7.3-3-1.3-5 2.2 1 2.3 3.7 5 1.8 1-.6 1.4-.6.2-3.5 2.8 0 12 3.5 13.4 3.6 3.9.2 10.9-4.4 15.7 1.2 4.7 5.1 3.1 10.4 3.1 17.5-1.8-1-1-1.4-3-4 1.6 6.2 0 17.4 0 24-.8-1.6-.7-1-1.4-2.6-2 6-4.4 7.3-4.4 14.3-.7-2.7 0-2.2-.8-3.6-2 4.5-15 8.4-10 13-4.4-2.8-6.4-2.5-8.5-5.1-.9.6-1.6 1.8-2.4 3.4-8-4-5-12.5-11.3-18.2-1 2.4-.6 2-1.8 5.9-1.2-5.4-1.6-8.9-3-12.8-1.2 2.2-1 1.3-3.3 4.7-1-6.6-2.4-8.2-1.8-12.5-2.4 1.8-.8 1-3.2 3.3 2.2-17 11.9-29.4 18.8-25.4z" transform="matrix(1.1018 0 0 1.01684 -263 231.7)"/>
      <path fill="#a70000" d="M89.4 280.8c2.3-5.5 4.3-7.3 5.8-10.8 2.5-6.3 3-11.3 5.1-10.5 2.2.7 2.1 3.3-.8 9.5a24.7 24.7 0 01-10 11.8zm8.6 13.8c.9-5 2.3-6.8 2.9-10 1-5.6.4-9.7 2.4-9.5 2 .2 2.5 2.3 1.2 8-1.4 5.5-2.3 6.8-6.5 11.5zm10.2 9.6c.2-4.8 1.4-6.7 1.5-9.8.3-5.4-.7-9.3 1.2-9.3 2 0 2.6 2 2 7.4-.6 5.4-1.3 6.8-4.7 11.7zm21.9-31.4c-4.2-4.2-6.7-5-9.4-7.6-4.8-4.7-7.1-9.2-8.8-7.6-1.7 1.6-.7 4 4.3 8.4 5 4.5 6.8 5.2 13.9 6.8zm-2.5 16.2c-2.8-4.2-4.8-5.3-6.5-8-3.2-4.8-4.2-8.8-6-7.8-1.8 1-1.4 3.1 2 7.7s4.7 5.4 10.5 8z"/>
    </g>
    <g fill-rule="evenodd">
      <path fill="#fff" stroke="#000" stroke-width="2" d="M637.8 230.3c-53.1 59-124 177.2-265.8 177.2-124 0-212.6-118.1-265.7-177.2C159.4 171.3 248 53.2 372 53.2c141.8 0 212.6 118 265.8 177.1z" transform="matrix(.66667 0 0 .6 124 109.8)"/>
      <path d="M359.7 178.7c9.4 10.6 1.5 14.9 11.5 15.6 10.5.7 4.6 11.2 13.4 11.5 6.2.3-.6 25 5.4 33.2 6 8.5 11.1 2.5 11.2 8.6.1 6.4-16.5 5.7-16.8 25.3-.5 11.3-14 12-14.7 19.3-.8 6.8 26.7 10.6 26.3 16.8-.3 6-29.6 5-30.9 12-.6 6.3 40.2 11.4 43.5 29.4-6 2-23.4 4-36.6 4-82.6 0-141.7-71-177.1-106.4 35.4-35.4 94.5-106.3 177.1-106.3 0 0-24.5 22.5-12.3 37z"/>
      <path fill="#fff" stroke-width="1pt" d="M261 210.2h8.6v28.4H261zm0 47.3h8.6v28.3H261zm17.2-47.3h8.6v28.4h-8.6zm0 47.3h8.6v28.3h-8.6zm17.2-47.3h8.6v28.4h-8.6zm0 47.3h8.6v28.3h-8.6zm17.2-47.3h8.6v28.4h-8.6zm0 47.3h8.6v28.3h-8.6zm17.1-47.3h8.6v28.4h-8.6zm0 47.3h8.6v28.3h-8.6zm17.2-47.3h8.6v28.4H347zm0 47.3h8.6v28.3H347z"/>
      <path stroke-width="1pt" d="M391 210.2h8.5v28.4H391zm0 47.3h8.5v28.3H391zm17.1-47.3h8.6v28.4h-8.6zm0 47.3h8.6v28.3h-8.6zm17.2-47.3h8.6v28.4h-8.6zm0 47.3h8.6v28.3h-8.6zm17.2-47.3h8.6v28.4h-8.6zm0 47.3h8.6v28.3h-8.6zm17.2-47.3h8.6v28.4h-8.6zm0 47.3h8.6v28.3h-8.6zm17.1-47.3h8.6v28.4h-8.6zm0 47.3h8.6v28.3h-8.6z"/>
    </g>
    <g fill-rule="evenodd" stroke-width="1pt">
      <path fill="#3d5da7" stroke="#000" d="M338-.4c-5.5 12.4 9.8-4.1 33.8 16.7a51.2 51.2 0 0110.9 26.2c-5.1-1.2-14.2-7-14.2-7s10.6 12.2 10.6 26.4c-3.7-2.7-5.6-2.3-6.8-5.6 0 4.5 3.3 7.5 3.3 14.6a49.8 49.8 0 00-7.3-5.7c3.5 7.1-6.5 20.9-1.5 25.5-8.7-1.5-17.7-8-21.2-15-1.9 1.4-2 3.7-2.2 6.2.3.2-13.3-11.7-12-16.3-1.9 3-2.1 4.6-2.5 8a44 44 0 01-11.3-18.8l-4.6 6.7c-1.6-11.7-1.6-11.3 1.7-21.3a84.4 84.4 0 00-6.6 5.9A67.8 67.8 0 01338-.4z" transform="matrix(.8811 0 0 .76298 16.9 161)"/>
      <path fill="#a70000" d="M302.6 207c.8-6.5 2.5-9 3-13.2 1-7.4-.1-12.9 2.5-12.7 2.6.1 3.4 2.9 2.1 10.3s-2.4 9.1-7.6 15.6zm13.7 12c-.5-5.6.5-7.9.2-11.5-.6-6.2-2.5-10.4-.2-10.8 2.3-.4 3.4 1.7 3.7 8 .2 6.3-.4 8-3.7 14.3zm21.4 9.7c-2.3-4.7-4.3-6.2-5.8-9.2-2.6-5.4-3.2-9.9-5.2-9-2 .7-2 3 1 8.3 3 5.3 4.3 6.4 10 10zm7.4-42.7c-5.9-3.2-9-3.2-12.8-5.2-6.7-3.5-10.6-7.5-12-5.3-1.4 2.2.5 4.4 7.4 7.6 7 3.2 9 3.3 17.4 2.9zm2.2 17.8c-4.3-3.6-6.9-4-9.6-6.4-5-4-7.4-8-9-6.4-1.7 1.6-.6 3.7 4.6 7.5 5.1 3.9 6.9 4.3 14 5.3z"/>
    </g>
  </g>
</svg>
