<svg xmlns="http://www.w3.org/2000/svg" id="flag-icon-css-tv" viewBox="0 0 512 512">
  <defs id="defs540">
    <clipPath id="a">
      <path id="path537" fill-opacity=".7" d="M0 0h512v512H0z"/>
    </clipPath>
  </defs>
  <path id="rect597" fill="#009fca" fill-opacity="1" stroke-width="4.9" d="M0 0h512v512H0z"/>
  <path id="path572" fill="#fff40d" fill-rule="evenodd" stroke-width="1pt" d="M478 226.3l7.1 20.4-18.4-12.6-18.5 12.6 7.1-20.4-18.5-12.6h22.9l7-20.4 7 20.4h22.8zm-57.2 162.8l7 20.4-18.4-12.7-18.4 12.7 7-20.4-18.4-12.7h22.8l7-20.4 7 20.5h22.9zm57.3-36.9l7 20.4-18.4-12.6-18.5 12.6 7.1-20.4-18.5-12.6h22.9l7-20.4 7 20.4h22.8zm-246.2 118l7.1 20.5-18.4-12.7-18.5 12.7 7.1-20.4-18.5-12.6h22.8l7-20.4 7.1 20.4h22.8zm43.1-88.4l-7-20.4 18.4 12.6 18.4-12.6-7 20.4 18.4 12.6h-22.8l-7 20.4-7-20.4h-22.8zm67.3-93l-7.1-20.4 18.4 12.6 18.5-12.6-7 20.4 18.4 12.6h-22.8l-7 20.4-7-20.4h-22.9zm56.5-19.3l-7-20.4 18.4 12.6 18.4-12.6-7 20.4 18.4 12.6h-22.8l-7 20.4-7-20.4h-22.9zm-56.5 161l-7.1-20.4 18.4 12.6 18.5-12.6-7 20.4 18.4 12.6h-22.8l-7 20.4-7-20.4h-22.9zM275 446.9l-7-20.4 18.4 12.6 18.4-12.6-7 20.4 18.4 12.6h-22.8l-7 20.4-7-20.4h-22.8z" opacity="1" stop-opacity="1"/>
  <g id="g947" transform="scale(.5)">
    <path id="path925" fill="#012169" d="M0 0h512v512H0z"/>
    <path id="path927" fill="#FFF" d="M512 0v64L322 256l190 187v69h-67L254 324 68 512H0v-68l186-187L0 74V0h62l192 188L440 0z"/>
    <path id="path929" fill="#C8102E" d="M184 324l11 34L42 512H0v-3zm124-12l54 8 150 147v45zM512 0L320 196l-4-44L466 0zM0 1l193 189-59-8L0 49z"/>
    <path id="path931" fill="#FFF" d="M176 0v512h160V0zM0 176v160h512V176z"/>
    <path id="path933" fill="#C8102E" d="M0 208v96h512v-96zM208 0v512h96V0z"/>
  </g>
</svg>
