<?xml version="1.0" encoding="UTF-8"?>
<svg width="24px" height="24px" viewBox="0 0 24 24" version="1.1" xmlns="http://www.w3.org/2000/svg">
        <path d="M14.2928932,16.7071068 C13.9023689,16.3165825 13.9023689,15.6834175 14.2928932,15.2928932 C14.6834175,14.9023689 15.3165825,14.9023689 15.7071068,15.2928932 L19.7071068,19.2928932 C20.0976311,19.6834175 20.0976311,20.3165825 19.7071068,20.7071068 C19.3165825,21.0976311 18.6834175,21.0976311 18.2928932,20.7071068 L14.2928932,16.7071068 Z" id="Path-2" fill="#000000" fill-rule="nonzero" opacity="0.3"></path>
        <path d="M11,16 C13.7614237,16 16,13.7614237 16,11 C16,8.23857625 13.7614237,6 11,6 C8.23857625,6 6,8.23857625 6,11 C6,13.7614237 8.23857625,16 11,16 Z M11,18 C7.13400675,18 4,14.8659932 4,11 C4,7.13400675 7.13400675,4 11,4 C14.8659932,4 18,7.13400675 18,11 C18,14.8659932 14.8659932,18 11,18 Z" id="Path" fill="#000000" fill-rule="nonzero"></path>
        <path d="M10.5,10.5 L10.5,9.5 C10.5,9.22385763 10.7238576,9 11,9 C11.2761424,9 11.5,9.22385763 11.5,9.5 L11.5,10.5 L12.5,10.5 C12.7761424,10.5 13,10.7238576 13,11 C13,11.2761424 12.7761424,11.5 12.5,11.5 L11.5,11.5 L11.5,12.5 C11.5,12.7761424 11.2761424,13 11,13 C10.7238576,13 10.5,12.7761424 10.5,12.5 L10.5,11.5 L9.5,11.5 C9.22385763,11.5 9,11.2761424 9,11 C9,10.7238576 9.22385763,10.5 9.5,10.5 L10.5,10.5 Z" id="Combined-Shape" fill="#000000" opacity="0.3"></path>
</svg>
