<?xml version="1.0" encoding="iso-8859-1"?>
<!-- Generator: Adobe Illustrator 19.0.0, SVG Export Plug-In . SVG Version: 6.00 Build 0)  -->
<svg version="1.1" id="Capa_1" xmlns="http://www.w3.org/2000/svg" xmlns:xlink="http://www.w3.org/1999/xlink" x="0px" y="0px"
	 viewBox="0 0 512 512" style="enable-background:new 0 0 512 512;" xml:space="preserve">
<polygon style="fill:#66BD21;" points="375.443,141.61 257.904,282.118 301.938,297.726 482.035,300.197 512,285.61 "/>
<polygon style="fill:#E50027;" points="140.263,143.529 281.986,259.779 297.048,233.512 297.449,63.806 282.598,0 "/>
<polygon style="fill:#FEA832;" points="0,232.449 140.526,374.74 254.096,235.858 214.723,220.328 37.472,217.954 "/>
<polygon style="fill:#1689FC;" points="233.104,260.688 217.732,286.925 214.84,490.383 229.547,512 371.737,374.477 "/>
<path style="fill:#18A7FC;" d="M35.307,461.488c-8.498,8.655-3.732,23.313,8.232,25.313L229.547,512l3.558-251.313
	C161.529,333.349,106.883,388.827,35.307,461.488z"/>
<path style="fill:#FEDB41;" d="M53.515,38.295c-8.643-8.452-23.315-3.724-25.313,8.247L0,232.449l254.096,3.409
	C181.513,164.367,126.098,109.785,53.515,38.295z"/>
<path style="fill:#FD003A;" d="M468.461,31.205L282.598,0l-0.612,259.779c70.521-73.616,124.362-129.822,194.883-203.438
	C485.144,47.62,480.321,33.17,468.461,31.205z"/>
<path style="fill:#78DE28;" d="M257.904,282.118c72.583,71.495,127.998,126.083,200.581,197.578
	c8.564,8.432,23.295,3.829,25.313-8.232L512,285.61L257.904,282.118z"/>
<path style="fill:#E1E4FB;" d="M256,334.003c-41.353,0-75-33.647-75-75s33.647-75,75-75s75,33.647,75,75
	S297.353,334.003,256,334.003z"/>
<path style="fill:#C5C9F7;" d="M256,214.003c-24.814,0-45,20.186-45,45s20.186,45,45,45s45-20.186,45-45
	S280.814,214.003,256,214.003z"/>
<g>
</g>
<g>
</g>
<g>
</g>
<g>
</g>
<g>
</g>
<g>
</g>
<g>
</g>
<g>
</g>
<g>
</g>
<g>
</g>
<g>
</g>
<g>
</g>
<g>
</g>
<g>
</g>
<g>
</g>
</svg>
