<?xml version="1.0" encoding="iso-8859-1"?>
<!-- Generator: Adobe Illustrator 19.0.0, SVG Export Plug-In . SVG Version: 6.00 Build 0)  -->
<svg version="1.1" id="Capa_1" xmlns="http://www.w3.org/2000/svg" xmlns:xlink="http://www.w3.org/1999/xlink" x="0px" y="0px"
	 viewBox="0 0 512 512" style="enable-background:new 0 0 512 512;" xml:space="preserve">
<g>
	<path style="fill:#6EE1FF;" d="M338.892,452.953H108.126c-29.966,0-54.346-24.379-54.346-54.346V241.686H15.132
		c-5.922,0-11.298-3.454-13.761-8.839c-2.462-5.384-1.559-11.71,2.314-16.19l92.994-107.559c2.875-3.325,7.052-5.235,11.447-5.235
		s8.573,1.911,11.447,5.235l92.994,107.559c3.873,4.479,4.777,10.806,2.314,16.19c-2.462,5.385-7.839,8.839-13.761,8.839h-38.647
		v102.576h108.984c4.409,0,8.599,1.923,11.474,5.267l67.436,78.428c3.855,4.483,4.745,10.803,2.279,16.177
		C350.178,449.508,344.806,452.953,338.892,452.953z"/>
	<path style="fill:#6EE1FF;" d="M403.876,408.137c-4.394,0-8.573-1.911-11.447-5.235l-92.994-107.559
		c-3.873-4.479-4.777-10.806-2.314-16.19c2.461-5.385,7.839-8.839,13.761-8.839h38.648V167.738H240.545
		c-4.409,0-8.599-1.923-11.474-5.267l-67.436-78.428c-3.856-4.483-4.746-10.803-2.279-16.177c2.467-5.375,7.838-8.82,13.752-8.82
		h230.767c29.966,0,54.346,24.38,54.346,54.346v156.922h38.648c5.921,0,11.298,3.454,13.761,8.839
		c2.462,5.384,1.559,11.71-2.314,16.19l-92.994,107.559C412.448,406.227,408.27,408.137,403.876,408.137z"/>
</g>
<g>
	<path style="fill:#05CDFF;" d="M496.868,270.314H458.22V113.393c0-29.966-24.38-54.346-54.346-54.346H255.997v108.691h93.532
		v102.576h-38.648c-5.921,0-11.299,3.454-13.761,8.839c-2.462,5.384-1.559,11.71,2.314,16.19l92.994,107.559
		c2.874,3.325,7.051,5.235,11.447,5.235c4.395,0,8.573-1.911,11.447-5.235l92.994-107.559c3.873-4.479,4.777-10.806,2.314-16.19
		C508.167,273.768,502.789,270.314,496.868,270.314z"/>
	<path style="fill:#05CDFF;" d="M282.93,349.528c-2.875-3.343-7.065-5.267-11.474-5.267h-13.63v108.691h81.066
		c5.914,0,11.286-3.445,13.753-8.82c2.466-5.374,1.577-11.694-2.279-16.177L282.93,349.528z"/>
</g>
<g>
</g>
<g>
</g>
<g>
</g>
<g>
</g>
<g>
</g>
<g>
</g>
<g>
</g>
<g>
</g>
<g>
</g>
<g>
</g>
<g>
</g>
<g>
</g>
<g>
</g>
<g>
</g>
<g>
</g>
</svg>
