<svg width="162" height="162" viewBox="0 0 162 162" fill="none" xmlns="http://www.w3.org/2000/svg">
<path d="M49.4497 17.217C48.1717 17.217 46.9261 17.667 46.0459 18.5454C45.1639 19.4202 44.7139 20.6748 44.7139 21.9492V140.123C44.7139 141.397 45.1639 142.643 46.0459 143.525C46.9261 144.407 48.1717 144.857 49.4497 144.857H112.666C113.94 144.857 115.196 144.407 116.068 143.525C116.951 142.643 117.4 141.397 117.4 140.123V21.9492C117.4 20.6748 116.95 19.4202 116.068 18.5454C115.196 17.6652 113.94 17.217 112.666 17.217H102.906C102.137 17.217 101.453 17.676 101.164 18.387L99.7093 21.9492C99.2395 23.1138 98.8669 23.6844 98.2729 24.0696C97.6933 24.4638 96.6619 24.7914 94.6369 24.7914H67.4749C65.4517 24.7914 64.4203 24.462 63.8389 24.0696C63.2485 23.6862 62.8723 23.1156 62.4043 21.9492L60.9517 18.387C60.6673 17.6832 59.9833 17.217 59.2255 17.217H49.4497Z" fill="#E5EBF4"/>
<path d="M49.1654 13.176H112.947C117.551 13.176 121.185 16.83 121.185 21.4254V140.647C121.185 145.24 117.549 148.898 112.947 148.898H49.1654C44.5646 148.898 40.925 145.24 40.925 140.647V21.4254C40.9268 16.8318 44.5646 13.176 49.1654 13.176ZM49.1654 9.44458C42.5594 9.44458 37.1846 14.8194 37.1846 21.4254V140.647C37.1846 147.256 42.5594 152.627 49.1654 152.627H112.947C119.556 152.627 124.936 147.256 124.936 140.647V21.4254C124.936 14.8194 119.556 9.44458 112.947 9.44458H49.1654Z" fill="#B5B5C3"/>
<path d="M75.0242 17.217C73.982 17.217 73.1504 18.0486 73.1504 19.0908C73.1504 20.1312 73.982 20.9664 75.0242 20.9664H88.0364C89.0678 20.9664 89.912 20.1312 89.912 19.0908C89.912 18.0486 89.0678 17.217 88.0364 17.217H75.0242Z" fill="#B5B5C3"/>
</svg>
