<?xml version="1.0" encoding="UTF-8"?>
<svg width="140px" height="140px" viewBox="0 0 140 140" version="1.1" xmlns="http://www.w3.org/2000/svg" xmlns:xlink="http://www.w3.org/1999/xlink">
    <title>devto</title>
    <g id="devto" stroke="none" stroke-width="1" fill="none" fill-rule="evenodd">
        <g transform="translate(15.000000, 17.000000)" fill="#000000" fill-rule="nonzero" id="Shape">
            <path d="M28.689375,42.1049777 C27.7626786,41.4123437 26.8335937,41.0660268 25.9068973,41.0660268 L21.7415402,41.0660268 L21.7415402,66.017567 L25.9092857,66.017567 C26.8359821,66.017567 27.765067,65.67125 28.6917634,64.9786161 C29.6184598,64.2859821 30.081808,63.2470312 30.081808,61.859375 L30.081808,45.2242187 C30.0794196,43.8389509 29.613683,42.7976116 28.689375,42.1049777 L28.689375,42.1049777 Z M96.5149554,0 L10.4850446,0 C4.70513393,0 0.0143303571,4.67886161 0,10.4611607 L0,96.5388393 C0.0143303571,102.321138 4.70513393,107 10.4850446,107 L96.5149554,107 C102.297254,107 106.98567,102.321138 107,96.5388393 L107,10.4611607 C106.98567,4.67886161 102.294866,0 96.5149554,0 L96.5149554,0 Z M36.8290179,61.9047545 C36.8290179,66.3973214 34.0560937,73.2042411 25.27875,73.1899333 L14.1966071,73.1899333 L14.1966071,33.6715625 L25.5128125,33.6715625 C33.9772768,33.6715625 36.8242411,40.4689286 36.8266295,44.9638839 L36.8290179,61.9047545 Z M60.8753571,40.7292634 L48.15,40.7292634 L48.15,49.9054687 L55.9289955,49.9054687 L55.9289955,56.9679464 L48.15,56.9679464 L48.15,66.1417634 L60.8777455,66.1417634 L60.8777455,73.2042411 L46.0267187,73.2042411 C43.3612723,73.2735045 41.1448437,71.166942 41.0779687,68.5014955 L41.0779687,38.6203125 C41.0134821,35.9572545 43.122433,33.7456027 45.7854911,33.6787277 L60.8777455,33.6787277 L60.8753571,40.7292634 Z M85.6286607,68.2650446 C82.4759821,75.6093527 76.827433,74.1476562 74.298125,68.2650446 L65.0956473,33.6811161 L72.8746429,33.6811161 L79.970558,60.8419196 L87.0330357,33.6811161 L94.8144196,33.6811161 L85.6286607,68.2650446 Z"></path>
        </g>
    </g>
</svg>