<?xml version="1.0" encoding="UTF-8"?>
<svg width="140px" height="140px" viewBox="0 0 140 140" version="1.1" xmlns="http://www.w3.org/2000/svg" xmlns:xlink="http://www.w3.org/1999/xlink">
    <title>google-webdev</title>
    <g id="google-webdev" stroke="none" stroke-width="1" fill="none" fill-rule="evenodd">
        <g id="google-webdev-logo" transform="translate(17.000000, 25.000000)" fill-rule="nonzero">
            <path d="M93.8463619,66.1884002 L58.0362274,66.1884002 C57.4587141,66.1884002 56.89844,66.3823412 56.445911,66.7443645 L29.7596247,87.9615136 C29.0700566,88.5088583 29.4579387,89.6121672 30.3414478,89.6121672 L94.255793,89.6121672 C100.573961,89.6121672 106.254278,83.9404695 105.810369,77.1180549 C105.405247,70.8947026 100.104193,66.1884002 93.8463619,66.1884002" id="Path" fill="#00C9DB"></path>
            <path d="M64.8758812,44.0403341 C64.8758812,44.0101655 64.8715714,43.9799969 64.8672616,43.9455185 C64.6690108,40.7476463 63.1648903,37.64028 60.4324767,35.5069286 L18.8859974,2.47661565 C13.8133619,-1.48840104 6.47377125,-0.596272281 2.49151535,4.4634338 C-1.49074054,9.52744968 -0.602921586,16.8411816 4.4654041,20.8061983 L34.5866015,44.7514512 L4.4654041,68.6967042 C-0.602921586,72.6574111 -1.49074054,79.9754528 2.49151535,85.0351588 C6.47377125,90.0948649 13.8133619,90.9869937 18.8859974,87.021977 L60.4367865,53.9873542 C63.1692001,51.8540029 64.6733206,48.7466365 64.8715714,45.5487644 C64.8758812,45.5185958 64.8758812,45.4884272 64.880191,45.4539487 C64.8931204,45.2169097 64.8974302,44.9841805 64.8974302,44.7471414 C64.8974302,44.5144122 64.8888106,44.2773731 64.8758812,44.0403341" id="Path" fill="#0D55FF"></path>
            <path d="M106,77.8981288 C106,84.3671397 100.746353,89.6078574 94.255793,89.6078574 C87.7738526,89.6078574 82.5202055,84.3628299 82.5202055,77.8981288 C82.5202055,71.4334277 87.7738526,66.1884002 94.255793,66.1884002 C100.746353,66.1884002 106,71.4334277 106,77.8981288" id="Path" fill="#7000F2"></path>
        </g>
    </g>
</svg>