<?xml version="1.0" encoding="UTF-8"?>
<svg width="177px" height="150px" viewBox="0 0 177 150" version="1.1" xmlns="http://www.w3.org/2000/svg" xmlns:xlink="http://www.w3.org/1999/xlink">
    <title>Logos</title>
    <g id="Logos" stroke="none" stroke-width="1" fill="none" fill-rule="evenodd">
        <g id="adobe-xd-1" transform="translate(35.000000, 23.000000)" fill-rule="nonzero">
            <path d="M88.87536,105 L19.12464,105 C8.54928,105 0,96.4750769 0,85.9298462 L0,19.0701538 C0,8.52492308 8.54928,0 19.12464,0 L88.87536,0 C99.45072,0 108,8.52492308 108,19.0701538 L108,85.9298462 C108,96.4750769 99.45072,105 88.87536,105 Z" id="Path" fill="#FF26BE"></path>
            <path d="M85.8661662,101 L20.1764293,101 C11.2646329,101 4,93.7634471 4,84.8860975 L4,22.1139025 C4,13.2365529 11.2646329,6 20.1764293,6 L85.8233827,6 C94.7822409,6 102,13.2365529 102,22.1139025 L102,84.8434794 C102.042595,93.7634471 94.7779626,101 85.8661662,101 L85.8661662,101 Z" id="Path" fill="#2E001F"></path>
            <path d="M42.8937592,49.0345674 L55.6917204,73.6219562 C55.9198637,73.9861163 55.7838552,74.3546639 55.4153161,74.3546639 L47.4610124,74.3546639 C46.9564647,74.3546639 46.7283214,74.2186523 46.5001781,73.7623553 C43.5738017,67.7295823 40.6035515,61.6968094 37.5411665,55.2077394 L37.4490317,55.2077394 C34.7069249,61.3326493 31.6884136,67.7778445 28.7664245,73.8106174 C28.5382812,74.1747775 28.3101379,74.3151766 27.9415987,74.3151766 L20.4084827,74.3151766 C19.9521961,74.3151766 19.903935,73.9510165 20.1364657,73.6746058 L32.6580226,49.8155373 L20.5488786,25.6844455 C20.2724742,25.3202854 20.5488786,25.0438747 20.8208956,25.0438747 L28.6830644,25.0438747 C29.139351,25.0438747 29.3236206,25.1360116 29.5035028,25.5484339 C32.3816182,31.5812068 35.3079947,37.7982536 38.0501016,43.8749012 L38.1422364,43.8749012 C40.7922085,37.8421283 43.7185849,31.5812068 46.5528266,25.5923086 C46.7809699,25.2281485 46.9169784,25 47.3776523,25 L54.7352735,25 C55.0994253,25 55.2398212,25.2764107 55.0116779,25.6405708 L42.8937592,49.0345674 Z M57.933665,56.4844935 C57.933665,45.8361009 65.0192712,37.5174554 76.2597158,37.5174554 C77.22055,37.5174554 77.7207103,37.5174554 78.6376708,37.6095923 L78.6376708,25.5001717 C78.6376708,25.223761 78.8658141,25.0438747 79.0939574,25.0438747 L86.3155701,25.0438747 C86.6797219,25.0438747 86.7718567,25.1798863 86.7718567,25.4080348 L86.7718567,67.3654222 C86.7718567,68.5983016 86.7718567,70.1514664 87,71.8450303 C87,72.121441 86.9078652,72.2091904 86.6358482,72.3495895 C82.7968986,74.179165 78.7736793,74.999812 74.9347297,74.999812 C65.0148838,75.0391094 57.9292796,68.918587 57.933665,56.4844935 L57.933665,56.4844935 Z M78.6332835,44.7874952 C77.9927273,44.5110846 77.0801541,44.3311982 75.9833114,44.3311982 C70.2226932,44.3311982 66.2038614,48.7625442 66.2038614,56.1247209 C66.2038614,64.5355033 70.3192154,67.9182436 75.4831511,67.9182436 C76.5799938,67.9182436 77.7689714,67.782232 78.6376708,67.4136844 L78.6376708,44.7874952 L78.6332835,44.7874952 Z" id="Shape" fill="#FFD9F2"></path>
        </g>
    </g>
</svg>