<?xml version="1.0" encoding="UTF-8"?>
<svg width="177px" height="150px" viewBox="0 0 177 150" version="1.1" xmlns="http://www.w3.org/2000/svg" xmlns:xlink="http://www.w3.org/1999/xlink">
    <title>Logos</title>
    <g id="Logos" stroke="none" stroke-width="1" fill="none" fill-rule="evenodd">
        <g id="slack-new-logo" transform="translate(35.000000, 22.000000)" fill-rule="nonzero">
            <path d="M39.2803996,-1.77635684e-15 C33.3581411,0.00436871997 28.5651823,4.80122324 28.5695565,10.7121014 C28.5651823,16.6229795 33.3625182,21.419834 39.2847767,21.4242027 L49.999997,21.4242027 L49.999997,10.7164701 C50.0043711,4.80559196 45.2070353,0.00873743993 39.2803996,-1.77635684e-15 C39.2847767,-1.77635684e-15 39.2847767,-1.77635684e-15 39.2803996,-1.77635684e-15 M39.2803996,28.5714286 L10.7152412,28.5714286 C4.7929826,28.5757973 -0.00435323957,33.3726518 1.19295144e-05,39.2835299 C-0.0087303708,45.194408 4.78860547,49.9912626 10.710864,50 L39.2803996,50 C45.2026582,49.9956313 49.999994,45.1987768 49.9956199,39.2878986 C49.999994,33.3726518 45.2026582,28.5757973 39.2803996,28.5714286 Z" id="Shape" fill="#36C5F0"></path>
            <path d="M106.999997,39.2835299 C107.004372,33.3726518 102.206616,28.5757973 96.2838386,28.5714286 C90.3610616,28.5757973 85.5633057,33.3726518 85.5676802,39.2835299 L85.5676802,50 L96.2838386,50 C102.206616,49.9956313 107.004372,45.1987768 106.999997,39.2835299 Z M78.4279602,39.2835299 L78.4279602,10.7121014 C78.4323347,4.80559196 73.6389563,0.00873743993 67.7161793,7.10542736e-15 C61.7934022,0.00436871997 56.9956464,4.80122324 57.0000119,10.7121014 L57.0000119,39.2835299 C56.9912689,45.194408 61.7890247,49.9912626 67.7118018,50 C73.6345788,49.9956313 78.4323347,45.1987768 78.4279602,39.2835299 Z" id="Shape" fill="#2EB67D"></path>
            <path d="M67.7152233,107 C73.6374818,106.995632 78.4348177,102.199196 78.4304435,96.2888345 C78.4348177,90.3784728 73.6374818,85.5820374 67.7152233,85.5776691 L57.000003,85.5776691 L57.000003,96.2888345 C56.9956289,102.194828 61.7929647,106.991263 67.7152233,107 Z M67.7152233,78.4266993 L96.2847588,78.4266993 C102.207017,78.4223309 107.004353,73.6258955 106.999988,67.7155338 C107.00873,61.8051721 102.211395,57.0087367 96.289136,57 L67.7196004,57 C61.7973418,57.0043683 57.000006,61.8008038 57.0043801,67.7111655 C57.000006,73.6258955 61.7929647,78.4223309 67.7152233,78.4266993 L67.7152233,78.4266993 Z" id="Shape" fill="#ECB22E"></path>
            <path d="M2.98908926e-06,67.7121014 C-0.00437153219,73.6229795 4.79338431,78.419834 10.7161614,78.4242027 C16.6389384,78.419834 21.4366943,73.6229795 21.4323198,67.7121014 L21.4323198,57 L10.7161614,57 C4.79338431,57.0043687 -0.00437153219,61.8012232 2.98908926e-06,67.7121014 Z M28.5720309,67.7121014 L28.5720309,96.2835299 C28.5632878,102.194408 33.3610437,106.991263 39.2838207,107 C45.2065978,106.995631 50.0043536,102.198777 49.9999881,96.2878986 L49.9999881,67.7208388 C50.0087311,61.8099607 45.2109753,57.0131062 39.2881982,57.0043687 C33.3610437,57.0043687 28.5676653,61.8012232 28.5720309,67.7121014 C28.5720309,67.7121014 28.5720309,67.7164701 28.5720309,67.7121014" id="Shape" fill="#E01E5A"></path>
        </g>
    </g>
</svg>