<?xml version="1.0" encoding="UTF-8"?>
<svg width="24px" height="24px" viewBox="0 0 24 24" version="1.1" xmlns="http://www.w3.org/2000/svg" xmlns:xlink="http://www.w3.org/1999/xlink">
    <g id="Stockholm-icons-/-Navigation-/-Arrows-h" stroke="none" stroke-width="1" fill="none" fill-rule="evenodd">
        <polygon id="Bound" points="0 0 24 0 24 24 0 24"></polygon>
        <rect id="Rectangle-15" fill="#000000" opacity="0.5" transform="translate(12.000000, 12.000000) rotate(-360.000000) translate(-12.000000, -12.000000) " x="7" y="11" width="10" height="2" rx="1"></rect>
        <path d="M13.7071045,15.7071104 C13.3165802,16.0976347 12.6834152,16.0976347 12.2928909,15.7071104 C11.9023666,15.3165861 11.9023666,14.6834211 12.2928909,14.2928968 L18.2928909,8.29289682 C18.6714699,7.91431789 19.2810563,7.90107226 19.6757223,8.26284946 L25.6757223,13.7628495 C26.0828413,14.1360419 26.1103443,14.7686092 25.7371519,15.1757282 C25.3639594,15.5828472 24.7313921,15.6103502 24.3242731,15.2371577 L19.0300735,10.3841414 L13.7071045,15.7071104 Z" id="Path-94" fill="#000000" fill-rule="nonzero" transform="translate(19.000001, 12.000003) rotate(-270.000000) translate(-19.000001, -12.000003) "></path>
        <path d="M-0.292895505,15.7071104 C-0.683419796,16.0976347 -1.31658478,16.0976347 -1.70710907,15.7071104 C-2.09763336,15.3165861 -2.09763336,14.6834211 -1.70710907,14.2928968 L4.29289093,8.29289682 C4.67146987,7.91431789 5.28105631,7.90107226 5.67572234,8.26284946 L11.6757223,13.7628495 C12.0828413,14.1360419 12.1103443,14.7686092 11.7371519,15.1757282 C11.3639594,15.5828472 10.7313921,15.6103502 10.3242731,15.2371577 L5.03007346,10.3841414 L-0.292895505,15.7071104 Z" id="Path-94-Copy" fill="#000000" fill-rule="nonzero" transform="translate(5.000001, 12.000003) rotate(-450.000000) translate(-5.000001, -12.000003) "></path>
    </g>
</svg>
