<?xml version="1.0" encoding="UTF-8"?>
<svg width="24px" height="24px" viewBox="0 0 24 24" version="1.1" xmlns="http://www.w3.org/2000/svg" xmlns:xlink="http://www.w3.org/1999/xlink">
    <g id="Stockholm-icons-/-Navigation-/-Arrows-v" stroke="none" stroke-width="1" fill="none" fill-rule="evenodd">
        <polygon id="Bound" points="0 0 24 0 24 24 0 24"></polygon>
        <rect id="Rectangle-15" fill="#000000" opacity="0.5" transform="translate(12.000000, 12.000000) rotate(-90.000000) translate(-12.000000, -12.000000) " x="7" y="11" width="10" height="2" rx="1"></rect>
        <path d="M6.70710678,8.70710678 C6.31658249,9.09763107 5.68341751,9.09763107 5.29289322,8.70710678 C4.90236893,8.31658249 4.90236893,7.68341751 5.29289322,7.29289322 L11.2928932,1.29289322 C11.6714722,0.914314282 12.2810586,0.90106866 12.6757246,1.26284586 L18.6757246,6.76284586 C19.0828436,7.13603827 19.1103465,7.76860564 18.7371541,8.17572463 C18.3639617,8.58284362 17.7313944,8.61034655 17.3242754,8.23715414 L12.0300757,3.38413782 L6.70710678,8.70710678 Z" id="Path-94" fill="#000000" fill-rule="nonzero"></path>
        <path d="M6.70710678,22.7071068 C6.31658249,23.0976311 5.68341751,23.0976311 5.29289322,22.7071068 C4.90236893,22.3165825 4.90236893,21.6834175 5.29289322,21.2928932 L11.2928932,15.2928932 C11.6714722,14.9143143 12.2810586,14.9010687 12.6757246,15.2628459 L18.6757246,20.7628459 C19.0828436,21.1360383 19.1103465,21.7686056 18.7371541,22.1757246 C18.3639617,22.5828436 17.7313944,22.6103465 17.3242754,22.2371541 L12.0300757,17.3841378 L6.70710678,22.7071068 Z" id="Path-94-Copy" fill="#000000" fill-rule="nonzero" transform="translate(12.000003, 18.999999) rotate(-180.000000) translate(-12.000003, -18.999999) "></path>
    </g>
</svg>
