<?xml version="1.0" encoding="UTF-8"?>
<svg width="24px" height="24px" viewBox="0 0 24 24" version="1.1" xmlns="http://www.w3.org/2000/svg" xmlns:xlink="http://www.w3.org/1999/xlink">
    <g id="Stockholm-icons-/-Navigation-/-Up-left" stroke="none" stroke-width="1" fill="none" fill-rule="evenodd">
        <polygon id="Shape" points="0 0 24 0 24 24 0 24"></polygon>
        <rect id="Rectangle" fill="#000000" opacity="0.5" transform="translate(12.353553, 12.853553) rotate(-45.000000) translate(-12.353553, -12.853553) " x="11.3535534" y="5.85355339" width="2" height="14" rx="1"></rect>
        <path d="M8.40380592,16.3890873 C8.40380592,16.941372 7.95609067,17.3890873 7.40380592,17.3890873 C6.85152117,17.3890873 6.40380592,16.941372 6.40380592,16.3890873 L6.40380592,7.90380592 C6.40380592,7.36841446 6.82548256,6.92800568 7.3603687,6.90474976 L15.4920967,6.55119637 C16.0438602,6.52720666 16.5106003,6.95505183 16.5345901,7.50681531 C16.5585798,8.05857879 16.1307346,8.52531897 15.5789711,8.54930869 L8.40380592,8.86127239 L8.40380592,16.3890873 Z" id="Path-94" fill="#000000" fill-rule="nonzero"></path>
    </g>
</svg>
