<?xml version="1.0" encoding="UTF-8"?>
<svg width="24px" height="24px" viewBox="0 0 24 24" version="1.1" xmlns="http://www.w3.org/2000/svg" xmlns:xlink="http://www.w3.org/1999/xlink">
    <g id="Stockholm-icons-/-Tools-/-Hummer" stroke="none" stroke-width="1" fill="none" fill-rule="evenodd">
        <rect id="bound" x="0" y="0" width="24" height="24"></rect>
        <path d="M18.4246212,12.6464466 L21.2530483,9.81801948 C21.4483105,9.62275734 21.764893,9.62275734 21.9601551,9.81801948 L22.6672619,10.5251263 C22.862524,10.7203884 22.862524,11.0369709 22.6672619,11.232233 L19.8388348,14.0606602 C19.6435726,14.2559223 19.3269901,14.2559223 19.131728,14.0606602 L18.4246212,13.3535534 C18.2293591,13.1582912 18.2293591,12.8417088 18.4246212,12.6464466 Z M3.22182541,17.9497475 L13.1213203,8.05025253 C13.5118446,7.65972824 14.1450096,7.65972824 14.5355339,8.05025253 L15.9497475,9.46446609 C16.3402718,9.85499039 16.3402718,10.4881554 15.9497475,10.8786797 L6.05025253,20.7781746 C5.65972824,21.1686989 5.02656326,21.1686989 4.63603897,20.7781746 L3.22182541,19.363961 C2.83130112,18.9734367 2.83130112,18.3402718 3.22182541,17.9497475 Z" id="Combined-Shape" fill="#000000" opacity="0.3"></path>
        <path d="M12.3890873,1.28248558 L12.3890873,1.28248558 C15.150511,1.28248558 17.3890873,3.52106183 17.3890873,6.28248558 L17.3890873,10.7824856 C17.3890873,11.058628 17.1652297,11.2824856 16.8890873,11.2824856 L12.8890873,11.2824856 C12.6129449,11.2824856 12.3890873,11.058628 12.3890873,10.7824856 L12.3890873,1.28248558 Z" id="Rectangle" fill="#000000" transform="translate(14.889087, 6.282486) rotate(-45.000000) translate(-14.889087, -6.282486) "></path>
    </g>
</svg>
