<svg width="24" height="24" viewBox="0 0 24 24" fill="none" xmlns="http://www.w3.org/2000/svg">
<path opacity="0.25" d="M2 10C2 8.34315 3.34315 7 5 7H19C20.6569 7 22 8.34315 22 10V19C22 20.6569 20.6569 22 19 22H5C3.34315 22 2 20.6569 2 19V10Z" fill="#12131A"/>
<path fill-rule="evenodd" clip-rule="evenodd" d="M9 4C8.44772 4 8 4.44772 8 5V8C8 8.55228 7.55228 9 7 9C6.44772 9 6 8.55228 6 8V5C6 3.34315 7.34315 2 9 2H15C16.6569 2 18 3.34315 18 5V8C18 8.55228 17.5523 9 17 9C16.4477 9 16 8.55228 16 8V5C16 4.44772 15.5523 4 15 4H9Z" fill="#12131A"/>
</svg>
