<svg width="24" height="24" viewBox="0 0 24 24" fill="none" xmlns="http://www.w3.org/2000/svg">
<path opacity="0.25" fill-rule="evenodd" clip-rule="evenodd" d="M11.9999 2C10.8954 2 9.99994 2.89543 9.99994 4C9.99994 4.14834 9.89932 4.27718 9.75691 4.3187C9.19509 4.48248 8.65883 4.70622 8.15552 4.98253C8.02513 5.05412 7.86242 5.03411 7.75724 4.92893C6.97619 4.14788 5.70986 4.14788 4.92881 4.92893C4.14776 5.70998 4.14776 6.97631 4.92881 7.75736C5.03399 7.86254 5.05399 8.02525 4.98241 8.15564C4.70611 8.65893 4.48238 9.19516 4.3186 9.75695C4.27708 9.89937 4.14822 10 3.99988 10C2.89531 10 1.99988 10.8954 1.99988 12C1.99988 13.1046 2.89531 14 3.99988 14C4.14822 14 4.27708 14.1006 4.3186 14.2431C4.48238 14.8048 4.70611 15.3411 4.98241 15.8444C5.05399 15.9747 5.03399 16.1375 4.92881 16.2426C4.14776 17.0237 4.14776 18.29 4.92881 19.0711C5.70986 19.8521 6.97619 19.8521 7.75724 19.0711C7.86242 18.9659 8.02513 18.9459 8.15552 19.0175C8.65883 19.2938 9.19509 19.5175 9.75691 19.6813C9.89932 19.7228 9.99994 19.8517 9.99994 20C9.99994 21.1046 10.8954 22 11.9999 22C13.1045 22 13.9999 21.1046 13.9999 20C13.9999 19.8516 14.1006 19.7228 14.243 19.6813C14.8048 19.5175 15.341 19.2938 15.8442 19.0175C15.9746 18.9459 16.1373 18.9659 16.2425 19.0711C17.0236 19.8521 18.2899 19.8521 19.0709 19.0711C19.852 18.29 19.852 17.0237 19.0709 16.2426C18.9658 16.1375 18.9458 15.9747 19.0173 15.8444C19.2936 15.3411 19.5174 14.8048 19.6812 14.2431C19.7227 14.1006 19.8515 14 19.9999 14C21.1044 14 21.9999 13.1046 21.9999 12C21.9999 10.8954 21.1044 10 19.9999 10C19.8515 10 19.7227 9.89937 19.6812 9.75695C19.5174 9.19516 19.2936 8.65893 19.0173 8.15564C18.9458 8.02525 18.9658 7.86254 19.0709 7.75736C19.852 6.97631 19.852 5.70998 19.0709 4.92893C18.2899 4.14788 17.0236 4.14788 16.2425 4.92893C16.1373 5.03411 15.9746 5.05412 15.8442 4.98253C15.341 4.70625 14.8048 4.48252 14.243 4.31875C14.1006 4.27722 13.9999 4.14836 13.9999 4C13.9999 2.89543 13.1045 2 11.9999 2ZM12 15C13.6569 15 15 13.6569 15 12C15 10.3431 13.6569 9 12 9C10.3431 9 9 10.3431 9 12C9 13.6569 10.3431 15 12 15Z" fill="#12131A"/>
<path fill-rule="evenodd" clip-rule="evenodd" d="M12 14C13.1046 14 14 13.1046 14 12C14 10.8954 13.1046 10 12 10C10.8954 10 10 10.8954 10 12C10 13.1046 10.8954 14 12 14ZM12 16C14.2091 16 16 14.2091 16 12C16 9.79086 14.2091 8 12 8C9.79086 8 8 9.79086 8 12C8 14.2091 9.79086 16 12 16Z" fill="#12131A"/>
</svg>
