<svg width="24" height="24" viewBox="0 0 24 24" fill="none" xmlns="http://www.w3.org/2000/svg">
<path opacity="0.25" d="M3 4C3 2.34315 4.34315 1 6 1H15.7574C16.553 1 17.3161 1.31607 17.8787 1.87868L20.1213 4.12132C20.6839 4.68393 21 5.44699 21 6.24264V20C21 21.6569 19.6569 23 18 23H6C4.34315 23 3 21.6569 3 20V4Z" fill="#12131A"/>
<path d="M15 1.89181C15 1.39927 15.3993 1 15.8918 1V1C16.6014 1 17.2819 1.28187 17.7836 1.78361L20.2164 4.21639C20.7181 4.71813 21 5.39863 21 6.10819V6.10819C21 6.60073 20.6007 7 20.1082 7H16C15.4477 7 15 6.55228 15 6V1.89181Z" fill="#12131A"/>
<path d="M11.6172 9.07588C11.4993 9.12468 11.3888 9.19702 11.2929 9.29289L8.29289 12.2929C7.90237 12.6834 7.90237 13.3166 8.29289 13.7071C8.68342 14.0976 9.31658 14.0976 9.70711 13.7071L11 12.4142V17C11 17.5523 11.4477 18 12 18C12.5523 18 13 17.5523 13 17V12.4142L14.2929 13.7071C14.6834 14.0976 15.3166 14.0976 15.7071 13.7071C16.0976 13.3166 16.0976 12.6834 15.7071 12.2929L12.7071 9.29289C12.4125 8.99825 11.9797 8.92591 11.6172 9.07588Z" fill="#12131A"/>
</svg>
