<svg width="24" height="24" viewBox="0 0 24 24" fill="none" xmlns="http://www.w3.org/2000/svg">
<path opacity="0.25" d="M13.2621 4.48263C13.3664 3.27603 14.2725 2.33642 15.4724 2.17209C16.1606 2.07784 16.9082 2 17.5 2C18.0918 2 18.8394 2.07784 19.5276 2.17209C20.7275 2.33642 21.6336 3.27603 21.7379 4.48263C21.8668 5.97302 22 8.38715 22 12C22 15.6129 21.8668 18.027 21.7379 19.5174C21.6336 20.724 20.7275 21.6636 19.5276 21.8279C18.8394 21.9222 18.0918 22 17.5 22C16.9082 22 16.1606 21.9222 15.4724 21.8279C14.2725 21.6636 13.3664 20.724 13.2621 19.5174C13.1332 18.027 13 15.6129 13 12C13 8.38715 13.1332 5.97301 13.2621 4.48263Z" fill="#12131A"/>
<path d="M2.26209 4.48263C2.36644 3.27603 3.27253 2.33642 4.47244 2.17209C5.16065 2.07784 5.90816 2 6.5 2C7.09184 2 7.83935 2.07784 8.52756 2.17209C9.72747 2.33642 10.6336 3.27603 10.7379 4.48263C10.8668 5.97302 11 8.38715 11 12C11 15.6129 10.8668 18.027 10.7379 19.5174C10.6336 20.724 9.72747 21.6636 8.52756 21.8279C7.83935 21.9222 7.09184 22 6.5 22C5.90816 22 5.16065 21.9222 4.47244 21.8279C3.27253 21.6636 2.36644 20.724 2.26209 19.5174C2.13319 18.027 2 15.6129 2 12C2 8.38715 2.13319 5.97301 2.26209 4.48263Z" fill="#12131A"/>
</svg>
