<svg width="24" height="24" viewBox="0 0 24 24" fill="none" xmlns="http://www.w3.org/2000/svg">
<path d="M19.5174 2.26209C20.724 2.36644 21.6636 3.27253 21.8279 4.47244C21.9222 5.16065 22 5.90816 22 6.5C22 7.09184 21.9222 7.83935 21.8279 8.52756C21.6636 9.72747 20.724 10.6336 19.5174 10.7379C18.027 10.8668 15.6129 11 12 11C8.38715 11 5.97301 10.8668 4.48263 10.7379C3.27603 10.6336 2.33642 9.72747 2.17209 8.52756C2.07784 7.83935 2 7.09184 2 6.5C2 5.90816 2.07784 5.16064 2.17209 4.47244C2.33642 3.27253 3.27603 2.36644 4.48263 2.26209C5.97302 2.13319 8.38715 2 12 2C15.6129 2 18.027 2.13319 19.5174 2.26209Z" fill="#12131A"/>
<path opacity="0.25" d="M19.5174 13.2621C20.724 13.3664 21.6636 14.2725 21.8279 15.4724C21.9222 16.1606 22 16.9082 22 17.5C22 18.0918 21.9222 18.8394 21.8279 19.5276C21.6636 20.7275 20.724 21.6336 19.5174 21.7379C18.027 21.8668 15.6129 22 12 22C8.38715 22 5.97301 21.8668 4.48263 21.7379C3.27603 21.6336 2.33642 20.7275 2.17209 19.5276C2.07784 18.8394 2 18.0918 2 17.5C2 16.9082 2.07784 16.1606 2.17209 15.4724C2.33642 14.2725 3.27603 13.3664 4.48263 13.2621C5.97302 13.1332 8.38715 13 12 13C15.6129 13 18.027 13.1332 19.5174 13.2621Z" fill="#12131A"/>
</svg>
