<svg width="24" height="24" viewBox="0 0 24 24" fill="none" xmlns="http://www.w3.org/2000/svg">
<path opacity="0.25" d="M2.45153 5.94826C2.71842 4.12109 4.12109 2.71842 5.94826 2.45153C7.54228 2.21869 9.6618 2 12 2C14.3382 2 16.4577 2.21869 18.0517 2.45153C19.8789 2.71842 21.2816 4.12109 21.5485 5.94826C21.7813 7.54228 22 9.6618 22 12C22 14.3382 21.7813 16.4577 21.5485 18.0517C21.2816 19.8789 19.8789 21.2816 18.0517 21.5485C16.4577 21.7813 14.3382 22 12 22C9.6618 22 7.54228 21.7813 5.94826 21.5485C4.12109 21.2816 2.71842 19.8789 2.45153 18.0517C2.21869 16.4577 2 14.3382 2 12C2 9.6618 2.21869 7.54228 2.45153 5.94826Z" fill="#12131A"/>
<path d="M8 10C9.10457 10 10 9.10457 10 8C10 6.89543 9.10457 6 8 6C6.89543 6 6 6.89543 6 8C6 9.10457 6.89543 10 8 10Z" fill="#12131A"/>
<path d="M21.6642 17.2016C21.7024 16.8989 21.5962 16.5963 21.3805 16.3806L17.4143 12.4144C16.6332 11.6334 15.3669 11.6334 14.5858 12.4144L11.7072 15.2931C11.3166 15.6836 10.6835 15.6836 10.293 15.2931L9.41427 14.4144C8.63322 13.6334 7.36689 13.6334 6.58584 14.4144L2.93337 18.0669C2.68517 18.3151 2.57669 18.679 2.70674 19.005C3.24439 20.3529 4.45448 21.3303 5.94832 21.5485C7.54234 21.7813 9.66186 22 12.0001 22C14.3383 22 16.4578 21.7813 18.0518 21.5485C19.879 21.2816 21.2816 19.8789 21.5485 18.0517C21.5878 17.7828 21.6267 17.499 21.6642 17.2016Z" fill="#12131A"/>
</svg>
