<svg width="24" height="24" viewBox="0 0 24 24" fill="none" xmlns="http://www.w3.org/2000/svg">
<path opacity="0.25" d="M1 5C1 3.89543 1.89543 3 3 3H21C22.1046 3 23 3.89543 23 5V19C23 20.1046 22.1046 21 21 21H3C1.89543 21 1 20.1046 1 19V5Z" fill="#12131A"/>
<path fill-rule="evenodd" clip-rule="evenodd" d="M20.8682 6.49631C21.1422 6.01679 20.9756 5.40594 20.4961 5.13193C20.0166 4.85792 19.4058 5.02451 19.1317 5.50403L15.8834 11.1886C15.6612 11.5775 15.2073 11.7712 14.7727 11.6626L9.71238 10.3975C8.40847 10.0715 7.04688 10.6526 6.38005 11.8195L3.13174 17.504C2.85773 17.9835 3.02433 18.5944 3.50385 18.8684C3.98337 19.1424 4.59422 18.9758 4.86823 18.4963L8.11653 12.8118C8.33881 12.4228 8.79268 12.2291 9.22731 12.3378L14.2876 13.6028C15.5915 13.9288 16.9531 13.3478 17.6199 12.1808L20.8682 6.49631Z" fill="#12131A"/>
</svg>
