<svg width="24" height="24" viewBox="0 0 24 24" fill="none" xmlns="http://www.w3.org/2000/svg">
<path opacity="0.25" fill-rule="evenodd" clip-rule="evenodd" d="M3.11117 13.2288C3.27137 11.0124 5.01376 9.29156 7.2315 9.15059C8.55778 9.06629 10.1795 9 12 9C13.8205 9 15.4422 9.06629 16.7685 9.15059C18.9862 9.29156 20.7286 11.0124 20.8888 13.2288C20.9535 14.1234 21 15.085 21 16C21 16.915 20.9535 17.8766 20.8888 18.7712C20.7286 20.9876 18.9862 22.7084 16.7685 22.8494C15.4422 22.9337 13.8205 23 12 23C10.1795 23 8.55778 22.9337 7.23151 22.8494C5.01376 22.7084 3.27137 20.9876 3.11118 18.7712C3.04652 17.8766 3 16.915 3 16C3 15.085 3.04652 14.1234 3.11117 13.2288Z" fill="#12131A"/>
<path fill-rule="evenodd" clip-rule="evenodd" d="M13 16.7324C13.5978 16.3866 14 15.7403 14 15C14 13.8954 13.1046 13 12 13C10.8954 13 10 13.8954 10 15C10 15.7403 10.4022 16.3866 11 16.7324V18C11 18.5523 11.4477 19 12 19C12.5523 19 13 18.5523 13 18V16.7324Z" fill="#12131A"/>
<path fill-rule="evenodd" clip-rule="evenodd" d="M7 6C7 3.23858 9.23858 1 12 1C14.7614 1 17 3.23858 17 6V10C17 10.5523 16.5523 11 16 11C15.4477 11 15 10.5523 15 10V6C15 4.34315 13.6569 3 12 3C10.3431 3 9 4.34315 9 6V10C9 10.5523 8.55228 11 8 11C7.44772 11 7 10.5523 7 10V6Z" fill="#12131A"/>
</svg>
