<svg width="24" height="24" viewBox="0 0 24 24" fill="none" xmlns="http://www.w3.org/2000/svg">
<path d="M17 6C17 8.76142 14.7614 11 12 11C9.23858 11 7 8.76142 7 6C7 3.23858 9.23858 1 12 1C14.7614 1 17 3.23858 17 6Z" fill="#121319"/>
<path opacity="0.25" fill-rule="evenodd" clip-rule="evenodd" d="M18.818 14.1248C18.2016 13.4101 17.1428 13.4469 16.3149 13.9001C15.0338 14.6013 13.5635 15 12 15C10.4365 15 8.96618 14.6013 7.68505 13.9001C6.85717 13.4469 5.79841 13.4101 5.182 14.1248C3.82222 15.7014 3 17.7547 3 20V21C3 22.1045 3.89543 23 5 23H19C20.1046 23 21 22.1045 21 21V20C21 17.7547 20.1778 15.7014 18.818 14.1248Z" fill="#191213"/>
</svg>
