<?xml version="1.0" encoding="UTF-8"?>
<svg width="140px" height="140px" viewBox="0 0 140 140" version="1.1" xmlns="http://www.w3.org/2000/svg" xmlns:xlink="http://www.w3.org/1999/xlink">
    <title>bootstrap</title>
    <g id="bootstrap" stroke="none" stroke-width="1" fill="none" fill-rule="evenodd">
        <g id="bootstrap-5-1" transform="translate(6.000000, 21.000000)" fill="#7952B3">
            <path d="M25.7551875,0 C18.6799219,0 13.4445547,6.19273437 13.6789922,12.9085937 C13.9039844,19.3607109 13.6116641,27.7171484 11.5080234,34.5318203 C9.396875,41.365625 5.82896875,45.6961797 0,46.252 L0,52.5275625 C5.82896875,53.0845937 9.396875,57.4129687 11.5077812,64.2477422 C13.6116641,71.0624141 13.9037422,79.4188516 13.67875,85.8709687 C13.4443125,92.5858594 18.6796797,98.7795625 25.7561562,98.7795625 L98.2542578,98.7795625 C105.329523,98.7795625 110.563922,92.5868281 110.329484,85.8709687 C110.104492,79.4188516 110.396812,71.0624141 112.500453,64.2477422 C114.611602,57.4129687 118.170789,53.0828984 124,52.5275625 L124,46.252 C118.171031,45.6949687 114.611844,41.3665937 112.500453,34.5318203 C110.39657,27.7181172 110.104492,19.3607109 110.329484,12.9085937 C110.563922,6.19370312 105.329523,0 98.2542578,0 L25.7542187,0 L25.7551875,0 Z M84.0678828,60.8052891 C84.0678828,70.0527344 77.1701406,75.6610703 65.7231484,75.6610703 L46.2372266,75.6610703 C45.076488,75.6610703 44.1355234,74.7201058 44.1355234,73.5593672 L44.1355234,25.2204375 C44.1355234,24.0596989 45.076488,23.1187344 46.2372266,23.1187344 L65.6122266,23.1187344 C75.1570781,23.1187344 81.4212578,28.2889531 81.4212578,36.2268906 C81.4212578,41.7984141 77.2071953,46.7862656 71.838625,47.6600781 L71.838625,47.9507031 C79.146875,48.7523437 84.0678828,53.8140625 84.0678828,60.8052891 L84.0678828,60.8052891 Z M63.5984375,29.7810703 L52.4878437,29.7810703 L52.4878437,45.4748203 L61.8457266,45.4748203 C69.0798672,45.4748203 73.0686953,42.5617891 73.0686953,37.355 C73.0679687,32.4754062 69.6385937,29.7810703 63.5984375,29.7810703 Z M52.4878437,51.7017031 L52.4878437,68.9965547 L64.00725,68.9965547 C71.5392812,68.9965547 75.5288359,65.9742969 75.5288359,60.2945156 C75.5288359,54.6147344 71.4273906,51.7007344 63.522875,51.7007344 L52.4878437,51.7007344 L52.4878437,51.7017031 Z" id="Shape"></path>
        </g>
    </g>
</svg>