<?xml version="1.0" standalone="no"?>
<!DOCTYPE svg PUBLIC "-//W3C//DTD SVG 1.1//EN" "http://www.w3.org/Graphics/SVG/1.1/DTD/svg11.dtd" >
<svg xmlns="http://www.w3.org/2000/svg" xmlns:xlink="http://www.w3.org/1999/xlink" version="1.1">
<metadata>
Created by FontForge 20161013 at Sun Jul 23 14:11:40 2017
 By ,,,
Copyright (c)2016. Cerebri Sans is a trademark of Alfredo Marco Pradil. All rights reserved.
</metadata>
<defs>
<font id="CerebriSans-Light" horiz-adv-x="0" >
  <font-face 
    font-family="Cerebri Sans Light"
    font-weight="300"
    font-stretch="normal"
    units-per-em="2048"
    panose-1="0 0 4 0 0 0 0 0 0 0"
    ascent="1536"
    descent="-512"
    x-height="968"
    cap-height="1395"
    bbox="-1630 -554 2745 2328"
    underline-thickness="102"
    underline-position="-388"
    unicode-range="U+0020-FB02"
  />
<missing-glyph horiz-adv-x="1254" 
d="M219 0v1536h816v-1536h-816zM327 108h600v1320h-600v-1320z" />
    <glyph glyph-name="fi" unicode="fi" horiz-adv-x="1127" 
d="M229 1206q0 84 18.5 144.5t48.5 96t79 56t99 27t119 6.5v-116q-26 0 -39 -0.5t-37 -2t-36.5 -5.5t-31.5 -11.5t-29.5 -18t-23 -27t-19 -38t-11 -50.5t-4.5 -65v-234h231v-110h-231v-858h-133v858h-186v110h186v238zM875 1425q41 0 70.5 -29t29.5 -71q0 -41 -29.5 -71
t-70.5 -30t-71 30t-30 71q0 42 30 71t71 29zM806 0v968h135v-968h-135z" />
    <glyph glyph-name="fl" unicode="fl" horiz-adv-x="1127" 
d="M229 1206q0 84 18.5 144.5t48.5 96t79 56t99 27t119 6.5v-116q-26 0 -39 -0.5t-37 -2t-36.5 -5.5t-31.5 -11.5t-29.5 -18t-23 -27t-19 -38t-11 -50.5t-4.5 -65v-234h231v-110h-231v-858h-133v858h-186v110h186v238zM806 1536h136v-1536h-136v1536z" />
    <glyph glyph-name="f_f" unicode="ff" horiz-adv-x="1231" 
d="M229 0v858h-186v110h186v238q0 84 18.5 144.5t48.5 96t79 56t99 27t119 6.5v-116q-26 0 -39 -0.5t-37 -2t-36.5 -5.5t-31.5 -11.5t-29.5 -18t-23 -27t-19 -38t-11 -50.5t-4.5 -65v-234h478v238q0 84 18.5 144.5t48.5 96t79 56t99 27t119 6.5v-116q-26 0 -39 -0.5t-37 -2
t-36.5 -5.5t-31.5 -11.5t-29.5 -18t-23 -27t-19 -38t-11 -50.5t-4.5 -65v-234h231v-110h-231v-858h-133v858h-478v-858h-133z" />
    <glyph glyph-name=".notdef" horiz-adv-x="1254" 
d="M219 0v1536h816v-1536h-816zM327 108h600v1320h-600v-1320z" />
    <glyph glyph-name=".null" 
 />
    <glyph glyph-name="nonmarkingreturn" horiz-adv-x="682" 
 />
    <glyph glyph-name="space" unicode=" " horiz-adv-x="532" 
 />
    <glyph glyph-name="exclam" unicode="!" horiz-adv-x="648" 
d="M263 379l-6 1016h134l-6 -1016h-122zM324 -20q-41 0 -70.5 29.5t-29.5 70.5q0 42 29.5 71t70.5 29t70.5 -29t29.5 -71q0 -41 -29.5 -70.5t-70.5 -29.5z" />
    <glyph glyph-name="quotedbl" unicode="&#x22;" horiz-adv-x="955" 
d="M262 753l-8 642h128l-5 -642h-115zM578 753l-4 642h126l-7 -642h-115z" />
    <glyph glyph-name="numbersign" unicode="#" horiz-adv-x="1487" 
d="M343 0l50 351h-281l16 110h280l69 475h-281l16 109h277l54 355h107l-48 -355h381l50 355h111l-52 -355h283l-18 -109h-279l-66 -475h278l-15 -110h-279l-54 -351h-107l50 351h-384l-51 -351h-107zM518 461h383l68 475h-385z" />
    <glyph glyph-name="dollar" unicode="$" horiz-adv-x="1360" 
d="M1186 371q0 -76 -23 -138.5t-64 -106.5t-99 -75.5t-125 -48t-144 -20.5v-125h-88v125q-186 11 -314 105.5t-163 251.5l139 33q26 -112 118 -182.5t220 -82.5v550q-45 12 -74 20t-70.5 21.5t-68.5 25.5t-60.5 30t-55 36.5t-44 44.5t-35.5 55t-21 65.5t-8 78.5
q0 92 35.5 165t97 118.5t139 69.5t165.5 26v134h88v-137q167 -15 281.5 -97t147.5 -228l-135 -36q-25 103 -103.5 162.5t-190.5 73.5v-521q59 -15 95.5 -25.5t90.5 -30t87 -38.5t71.5 -49t60 -64.5t36 -82t14.5 -103.5zM345 1034q0 -44 16 -79.5t41 -60t66 -45.5t80.5 -34
t94.5 -28v502q-58 -2 -109.5 -17.5t-94.5 -45t-68.5 -79t-25.5 -113.5zM731 106q141 8 229 72t86 192q-1 58 -25.5 102t-72 74.5t-96.5 49.5t-121 39v-529z" />
    <glyph glyph-name="percent" unicode="%" horiz-adv-x="1475" 
d="M406 866q-113 0 -192.5 80.5t-79.5 195.5q0 113 80 193t192 80q113 0 192.5 -80.5t79.5 -192.5q0 -114 -79 -195t-193 -81zM293 -2l747 1400h131l-748 -1400h-130zM406 970q72 0 122 50.5t50 121.5t-50 120.5t-122 49.5q-70 0 -121 -49.5t-51 -120.5q0 -72 51 -122
t121 -50zM1071 -18q-114 0 -194 80.5t-80 193.5q0 114 80.5 194t193.5 80q111 0 190.5 -80.5t79.5 -193.5t-79 -193.5t-191 -80.5zM1071 84q70 0 121 51t51 121q0 71 -51 121t-121 50q-73 0 -122.5 -49t-49.5 -122q0 -70 50 -121t122 -51z" />
    <glyph glyph-name="ampersand" unicode="&#x26;" horiz-adv-x="1489" 
d="M1329 773q0 -141 -51.5 -275t-144.5 -243l194 -255h-165l-121 162q-213 -182 -475 -182q-187 0 -306.5 94.5t-119.5 268.5q0 52 11 97t36.5 86t55 75t80.5 74.5t98.5 73t121.5 79.5q-93 126 -127.5 190.5t-34.5 134.5q0 118 91 192q85 70 215 70q129 0 217 -71t88 -192
q0 -98 -65.5 -177t-211.5 -172l339 -444q69 92 107.5 199.5t38.5 214.5h129zM558 1260q-45 -45 -45 -119q0 -47 22.5 -88t88.5 -130q12 -16 19 -25l8 -10q110 73 161 132.5t51 129.5q0 75 -52 118t-124 43q-78 0 -129 -51zM570 99q218 0 396 163l-355 475
q-76 -48 -119 -77.5t-91.5 -69.5t-73 -73.5t-41 -76.5t-16.5 -92q0 -123 84 -186t216 -63z" />
    <glyph glyph-name="quotesingle" unicode="'" horiz-adv-x="637" 
d="M261 753l-4 642h126l-7 -642h-115z" />
    <glyph glyph-name="parenleft" unicode="(" horiz-adv-x="666" 
d="M547 -506q-194 119 -305.5 393.5t-111.5 651.5q0 374 111.5 649.5t305.5 394.5l67 -87q-171 -105 -269.5 -357t-98.5 -600q0 -352 98 -601.5t270 -354.5z" />
    <glyph glyph-name="parenright" unicode=")" horiz-adv-x="666" 
d="M119 -506l-67 89q172 105 270 354.5t98 601.5q0 348 -98.5 600t-269.5 357l67 87q194 -119 305.5 -394.5t111.5 -649.5q0 -377 -111.5 -651.5t-305.5 -393.5z" />
    <glyph glyph-name="asterisk" unicode="*" horiz-adv-x="985" 
d="M361 941l-73 45l145 201q13 19 6 31.5t-29 10.5l-252 -18v84l252 -21q22 -2 29 11t-6 31l-145 207l73 39l109 -222q10 -20 24.5 -20t22.5 20l107 222l74 -39l-146 -207q-13 -18 -6 -31t29 -11l253 21v-84l-253 18q-22 2 -29 -10.5t6 -31.5l146 -201l-74 -45l-107 223
q-8 21 -22.5 21.5t-24.5 -21.5z" />
    <glyph glyph-name="plus" unicode="+" horiz-adv-x="1211" 
d="M548 207v411h-411v116h411v409h116v-409h410v-116h-410v-411h-116z" />
    <glyph glyph-name="comma" unicode="," horiz-adv-x="641" 
d="M298 -359h-100l121 609h143z" />
    <glyph glyph-name="hyphen" unicode="-" horiz-adv-x="1077" 
d="M180 477v111h717v-111h-717z" />
    <glyph glyph-name="period" unicode="." horiz-adv-x="658" 
d="M328 -20q-41 0 -70.5 29t-29.5 71q0 40 30 70t70 30t70 -30t30 -70q0 -42 -29.5 -71t-70.5 -29z" />
    <glyph glyph-name="slash" unicode="/" horiz-adv-x="1128" 
d="M3 -360l991 1896h131l-990 -1896h-132z" />
    <glyph glyph-name="zero" unicode="0" horiz-adv-x="1129" 
d="M565 -19q-215 0 -333 183t-118 534q0 352 116 534t335 182q218 0 334 -182.5t116 -533.5q0 -350 -118 -533.5t-332 -183.5zM565 109q153 0 234.5 148t81.5 441q0 298 -83 443t-233 145q-151 0 -232.5 -144.5t-81.5 -443.5q0 -294 80 -441.5t234 -147.5z" />
    <glyph glyph-name="one" unicode="1" horiz-adv-x="1129" 
d="M593 1395h124v-1395h-133v1242l-340 -288v148z" />
    <glyph glyph-name="two" unicode="2" horiz-adv-x="1129" 
d="M298 127h729v-127h-927v102l561 581q100 105 137 181.5t37 152.5q0 132 -77.5 204.5t-197.5 72.5q-130 0 -207 -78.5t-77 -243.5v-103l-134 12v92q0 216 114.5 329.5t304.5 113.5q177 0 291.5 -105.5t114.5 -287.5q0 -111 -48.5 -205t-154.5 -206z" />
    <glyph glyph-name="three" unicode="3" horiz-adv-x="1129" 
d="M553 -19q-225 0 -339 126t-114 363l136 8q0 -183 74 -277t243 -94q143 0 234.5 82t91.5 214q0 134 -88.5 213t-217.5 79h-75v121h74q96 0 165.5 70t69.5 170q0 101 -73 167t-183 66q-135 0 -191.5 -79t-56.5 -224l-137 3q0 205 99 315t286 110q164 0 274.5 -100
t110.5 -249q0 -104 -56 -183t-146 -116q126 -36 204 -131.5t78 -237.5q0 -185 -132 -300.5t-331 -115.5z" />
    <glyph glyph-name="four" unicode="4" horiz-adv-x="1129" 
d="M1090 413v-127h-232v-286h-134v286h-677v127l610 982h201v-982h232zM195 413h529v869z" />
    <glyph glyph-name="five" unicode="5" horiz-adv-x="1129" 
d="M531 895q249 0 372.5 -119.5t123.5 -326.5q0 -204 -127.5 -335t-331.5 -131q-89 0 -169 27.5t-144 79.5t-101.5 136.5t-37.5 189.5q0 20 4 72l141 16q-8 -62 -8 -84q0 -65 18.5 -118.5t49 -88t71.5 -58.5t84 -34t89 -10q146 0 236 94t90 240q0 152 -90 239.5t-279 87.5
h-350l97 621h700v-128h-590l-58 -370h210z" />
    <glyph glyph-name="six" unicode="6" horiz-adv-x="1129" 
d="M1036 464q4 -211 -132 -345t-335 -134q-204 0 -341 128.5t-137 335.5q0 178 119 333l478 613h164l-400 -496q69 24 143 24q84 0 162.5 -31.5t140 -89t99 -145.5t39.5 -193zM566 114q149 0 245.5 95.5t93.5 255.5q-4 162 -100.5 254.5t-243.5 92.5q-148 0 -246 -104
t-95 -253q3 -162 99 -251.5t247 -89.5z" />
    <glyph glyph-name="seven" unicode="7" horiz-adv-x="1129" 
d="M94 1395h944v-118l-699 -1277h-155l706 1268h-796v127z" />
    <glyph glyph-name="eight" unicode="8" horiz-adv-x="1129" 
d="M567 -19q-198 0 -330.5 115t-132.5 300q0 136 74.5 233.5t200.5 139.5q-90 41 -144 120t-54 177q0 151 110.5 249.5t275.5 98.5q161 0 271 -99t110 -249q0 -98 -53 -177t-143 -120q125 -43 200 -140t75 -233q0 -186 -132 -300.5t-328 -114.5zM567 817q107 0 181 70
t74 172q0 100 -74 168t-181 68q-110 0 -183.5 -67.5t-73.5 -168.5q0 -102 73.5 -172t183.5 -70zM567 108q138 0 231 83t93 218q0 133 -93 214t-231 81q-141 0 -234.5 -81t-93.5 -214q0 -135 93.5 -218t234.5 -83z" />
    <glyph glyph-name="nine" unicode="9" horiz-adv-x="1129" 
d="M560 1410q203 0 340.5 -128.5t137.5 -335.5q0 -175 -120 -333l-479 -613h-167l397 494q-66 -22 -139 -22q-173 0 -303 126.5t-134 332.5q-4 213 131.5 346t335.5 133zM568 583q148 0 245.5 104t93.5 253q-3 161 -99 251t-245 90q-148 0 -246 -96t-94 -256
q3 -160 100.5 -253t244.5 -93z" />
    <glyph glyph-name="colon" unicode=":" horiz-adv-x="637" 
d="M317 689q-40 0 -70 29.5t-30 70.5q0 40 30 70t70 30q41 0 71 -29.5t30 -70.5q0 -42 -29.5 -71t-71.5 -29zM317 -20q-40 0 -70 29.5t-30 70.5q0 40 30 70t70 30q41 0 71 -29.5t30 -70.5q0 -42 -29.5 -71t-71.5 -29z" />
    <glyph glyph-name="semicolon" unicode=";" horiz-adv-x="646" 
d="M348 689q-42 0 -72 29t-30 71q0 41 30 70.5t72 29.5q39 0 69.5 -30t30.5 -70q0 -41 -30 -70.5t-70 -29.5zM168 -359l121 609h143l-164 -609h-100z" />
    <glyph glyph-name="less" unicode="&#x3c;" horiz-adv-x="1406" 
d="M1255 1330v-129l-1008 -508l1008 -509v-131l-1131 572v137z" />
    <glyph glyph-name="equal" unicode="=" horiz-adv-x="1279" 
d="M277 828v116h724v-116h-724zM277 429v116h724v-116h-724z" />
    <glyph glyph-name="greater" unicode="&#x3e;" horiz-adv-x="1406" 
d="M151 1330l1131 -568v-137l-1131 -572v131l1008 509l-1008 508v129z" />
    <glyph glyph-name="question" unicode="?" horiz-adv-x="1027" 
d="M446 376v131q0 66 26.5 113t65 73.5t108.5 60.5q133 65 133 254q0 131 -76.5 212t-197.5 81q-117 0 -195 -86t-78 -217q0 -37 8 -80l-117 8q-8 41 -8 90q0 175 109.5 287t279.5 112q173 0 284 -113.5t111 -292.5q0 -141 -59 -228t-150 -126q-64 -28 -93.5 -61.5
t-29.5 -93.5v-124h-121zM513 -20q-39 0 -68.5 29t-29.5 71q0 40 29.5 70t68.5 30t68.5 -30t29.5 -70q0 -42 -29 -71t-69 -29z" />
    <glyph glyph-name="at" unicode="@" horiz-adv-x="1797" 
d="M901 -195q-150 0 -285.5 58t-234 156.5t-156.5 234.5t-58 286q0 198 97 366t266.5 266.5t372.5 98.5q150 0 285 -57t232.5 -156t155 -239t57.5 -299q0 -106 -25 -185t-69 -124.5t-98 -67.5t-117 -22q-92 0 -155.5 39t-81.5 103h-6q-91 -121 -258 -121q-106 0 -172 54
t-66 160q0 107 72.5 162t215.5 79l199 36v55q0 88 -50 129t-129 41q-72 0 -121 -32.5t-62 -99.5l-105 27q19 93 95 143t193 50q129 0 211 -64.5t82 -200.5v-334q0 -64 37.5 -101t106.5 -37q94 0 148 76t54 228q0 143 -50 267t-135 209t-200 133.5t-244 48.5
q-175 0 -321 -84.5t-230 -229.5t-84 -317t84.5 -317.5t231 -230t321.5 -84.5q168 0 306 81l46 -88q-160 -96 -356 -96zM852 229q40 0 77 11t72 35t56 69.5t21 106.5v99l-194 -36q-97 -18 -141 -51.5t-44 -97.5q0 -67 42 -101.5t111 -34.5z" />
    <glyph glyph-name="A" unicode="A" horiz-adv-x="1332" 
d="M1116 0l-126 350h-647l-126 -350h-147l514 1395h164l514 -1395h-146zM389 477h555l-278 772z" />
    <glyph glyph-name="B" unicode="B" horiz-adv-x="1267" 
d="M868 725q128 -32 202.5 -122.5t74.5 -228.5q0 -163 -107 -268.5t-274 -105.5h-532v1395h413q174 0 285.5 -102.5t111.5 -261.5q0 -104 -46 -184.5t-128 -121.5zM910 1022q0 107 -73 177.5t-194 70.5h-276v-501h316q96 0 161.5 74t65.5 179zM743 127q117 0 192 76t75 184
q0 114 -78.5 188t-204.5 74h-360v-522h376z" />
    <glyph glyph-name="C" unicode="C" horiz-adv-x="1520" 
d="M822 -19q-194 0 -349 84.5t-247 249t-92 383.5q0 218 92 382.5t247 249t349 84.5q200 0 359 -92.5t243 -259.5l-126 -56q-69 131 -194.5 201.5t-281.5 70.5q-115 0 -214.5 -39t-174.5 -111t-118 -183t-43 -247t43 -247.5t118 -183.5t174.5 -111t214.5 -39
q156 0 281.5 70.5t194.5 201.5l126 -56q-84 -167 -243 -259.5t-359 -92.5z" />
    <glyph glyph-name="D" unicode="D" horiz-adv-x="1439" 
d="M232 0v1395h431q205 0 350.5 -90.5t216 -246t70.5 -360.5q0 -153 -41 -280.5t-119.5 -220.5t-200.5 -145t-276 -52h-431zM371 128h289q244 0 370.5 153.5t126.5 416.5t-126.5 416t-370.5 153h-289v-1139z" />
    <glyph glyph-name="E" unicode="E" horiz-adv-x="1081" 
d="M960 1267h-584v-507h513v-127h-513v-505h584v-128h-728v1395h728v-128z" />
    <glyph glyph-name="F" unicode="F" horiz-adv-x="1047" 
d="M963 1267h-587v-505h513v-129h-513v-633h-144v1395h731v-128z" />
    <glyph glyph-name="G" unicode="G" horiz-adv-x="1626" 
d="M821 -19q-145 0 -270 48.5t-218 138t-146 225t-53 301.5t53 303t146 227.5t218.5 140t270.5 49.5q190 0 344 -83t242 -241l-123 -66q-71 128 -192 192.5t-271 64.5q-116 0 -215.5 -39t-173.5 -111.5t-116.5 -184.5t-42.5 -250t42.5 -249.5t117 -184t174.5 -111.5t218 -39
q209 0 344.5 120.5t156.5 341.5h-502v122h640v-696h-117v286q-71 -147 -206.5 -226t-320.5 -79z" />
    <glyph glyph-name="H" unicode="H" horiz-adv-x="1490" 
d="M1119 1395h139v-1395h-139v635h-746v-635h-141v1395h141v-633h746v633z" />
    <glyph glyph-name="I" unicode="I" horiz-adv-x="603" 
d="M232 0v1395h139v-1395h-139z" />
    <glyph glyph-name="J" unicode="J" horiz-adv-x="951" 
d="M340 -19q-148 0 -283 78l62 119q99 -66 216 -66q124 0 195 84.5t71 225.5v973h139v-995q0 -191 -109.5 -305t-290.5 -114z" />
    <glyph glyph-name="K" unicode="K" horiz-adv-x="1267" 
d="M1026 0l-526 664h-129v-664h-139v1395h139v-604h129l500 604h171l-551 -664l584 -731h-178z" />
    <glyph glyph-name="L" unicode="L" horiz-adv-x="934" 
d="M371 128h500v-128h-639v1395h139v-1267z" />
    <glyph glyph-name="M" unicode="M" horiz-adv-x="1847" 
d="M1666 0h-133l-93 1185l-478 -1185h-78l-475 1177l-94 -1177h-134l103 1395h172l467 -1154l467 1154h174z" />
    <glyph glyph-name="N" unicode="N" horiz-adv-x="1535" 
d="M1165 1395h137v-1395h-136l-799 1173v-1173h-135v1395h135l798 -1168v1168z" />
    <glyph glyph-name="O" unicode="O" horiz-adv-x="1643" 
d="M822 -19q-194 0 -349 84.5t-247 249t-92 383.5q0 218 92 382.5t247 249t349 84.5q144 0 269 -49.5t218 -140t146.5 -226.5t53.5 -300q0 -165 -53.5 -301t-146.5 -226.5t-218 -140t-269 -49.5zM822 115q115 0 214 39t173.5 111.5t117 184t42.5 248.5q0 136 -42.5 247
t-117 183t-173.5 111t-214 39t-214.5 -39t-174.5 -111t-118 -183t-43 -247q0 -137 43 -248.5t118 -184t174.5 -111.5t214.5 -39z" />
    <glyph glyph-name="P" unicode="P" horiz-adv-x="1252" 
d="M743 1395q119 0 212.5 -56.5t143.5 -152t50 -211.5q0 -179 -113 -298.5t-293 -119.5h-372v-557h-139v1395h511zM724 681q131 0 207.5 81.5t76.5 213.5q0 130 -76.5 213.5t-207.5 83.5h-353v-592h353z" />
    <glyph glyph-name="Q" unicode="Q" horiz-adv-x="1659" 
d="M1559 -74l-132 -42l-204 215q-173 -118 -401 -118q-145 0 -271 49.5t-219 140t-146.5 226.5t-53.5 301q0 164 53.5 300t146.5 226.5t219 140t271 49.5q144 0 269.5 -49.5t219 -140t147 -226.5t53.5 -300q0 -321 -194 -520zM270 698q0 -138 43 -250t118 -185t175.5 -112
t215.5 -39t214.5 39t174 112t117.5 185t43 250q0 136 -43 247t-117.5 183t-174 111t-214.5 39t-215.5 -39t-175.5 -111t-118 -183t-43 -247z" />
    <glyph glyph-name="R" unicode="R" horiz-adv-x="1254" 
d="M994 0l-357 635h-266v-635h-139v1395h448q198 0 304 -108.5t106 -277.5q0 -147 -83 -246.5t-232 -121.5l379 -641h-160zM371 1270v-518h293q145 0 218.5 69.5t73.5 187.5t-74 189.5t-218 71.5h-293z" />
    <glyph glyph-name="S" unicode="S" horiz-adv-x="1262" 
d="M653 -19q-214 0 -356.5 95.5t-180.5 262.5l139 34q28 -124 137 -195.5t265 -71.5q67 0 125 14t108 43.5t78 82.5t27 124q-1 34 -9 63t-26 52.5t-37.5 42.5t-51 35.5t-58 28t-67.5 24.5t-70 20.5t-74 19.5q-5 1 -8 2q-59 15 -95.5 25.5t-88 29t-83.5 37t-68.5 47
t-56.5 61.5t-33.5 78t-13.5 99q0 94 37 167.5t101 119t144 69t171 23.5q193 0 329 -84t173 -245l-135 -35q-29 118 -128.5 178.5t-235.5 60.5q-60 0 -114.5 -14t-100.5 -43t-73.5 -80t-27.5 -118q0 -41 12 -74t39 -58.5t54.5 -43.5t74.5 -35t81.5 -27t92.5 -24
q190 -47 270 -84q178 -81 209 -237q8 -37 8 -79q0 -100 -39 -176.5t-107 -122.5t-153.5 -69t-183.5 -23z" />
    <glyph glyph-name="T" unicode="T" horiz-adv-x="996" 
d="M934 1395v-128h-367v-1267h-138v1267h-367v128h872z" />
    <glyph glyph-name="U" unicode="U" horiz-adv-x="1397" 
d="M697 -19q-140 0 -252 56.5t-177 164.5t-65 251v942h139v-922q0 -174 99 -268.5t256 -94.5t257.5 95t100.5 268v922h138v-942q0 -215 -140.5 -343.5t-355.5 -128.5z" />
    <glyph glyph-name="V" unicode="V" horiz-adv-x="1297" 
d="M1081 1395h146l-511 -1395h-135l-511 1395h144l434 -1214z" />
    <glyph glyph-name="W" unicode="W" horiz-adv-x="1998" 
d="M491 0l-412 1395h145l351 -1182l361 1182h126l361 -1182l353 1182h143l-412 -1395h-151l-357 1147l-357 -1147h-151z" />
    <glyph glyph-name="X" unicode="X" horiz-adv-x="1384" 
d="M66 0l544 729l-516 666h168l431 -570l429 570h168l-516 -666l544 -729h-175l-450 626l-452 -626h-175z" />
    <glyph glyph-name="Y" unicode="Y" horiz-adv-x="1167" 
d="M1113 1395l-459 -730v-665h-141v665l-459 730h162l368 -604l367 604h162z" />
    <glyph glyph-name="Z" unicode="Z" horiz-adv-x="1231" 
d="M275 128h863v-128h-1038v116l838 1151h-834v128h1004v-118z" />
    <glyph glyph-name="bracketleft" unicode="[" horiz-adv-x="625" 
d="M185 -512v2048h382v-103h-262v-1842h262v-103h-382z" />
    <glyph glyph-name="backslash" unicode="\" horiz-adv-x="1128" 
d="M994 -360l-991 1896h132l990 -1896h-131z" />
    <glyph glyph-name="bracketright" unicode="]" horiz-adv-x="623" 
d="M438 -512h-382v103h262v1842h-262v103h382v-2048z" />
    <glyph glyph-name="asciicircum" unicode="^" horiz-adv-x="1382" 
d="M1267 264h-119l-457 1007l-457 -1007h-119l512 1131h128z" />
    <glyph glyph-name="underscore" unicode="_" horiz-adv-x="1384" 
d="M180 -111v111h1024v-111h-1024z" />
    <glyph glyph-name="grave" unicode="`" horiz-adv-x="481" 
d="M311 1238l-224 256l76 57l247 -313h-99z" />
    <glyph glyph-name="a" unicode="a" horiz-adv-x="1046" 
d="M404 -19q-129 0 -210.5 67.5t-81.5 198.5q0 72 25.5 124.5t76 87t113 55t148.5 34.5l163 25q84 15 84 91q0 109 -64.5 160.5t-165.5 51.5q-95 0 -160.5 -46.5t-76.5 -140.5l-123 30q20 131 116.5 198.5t247.5 67.5q75 0 138 -18.5t113 -56t78.5 -103t28.5 -152.5v-417
q0 -81 24 -108t79 -27h16v-103h-70q-149 0 -174 133h-6q-114 -152 -319 -152zM435 93q138 0 218.5 103.5t80.5 288.5l-262 -46q-116 -18 -171.5 -60t-55.5 -122q0 -83 52.5 -123.5t137.5 -40.5z" />
    <glyph glyph-name="b" unicode="b" horiz-adv-x="1230" 
d="M678 986q187 0 316.5 -140t129.5 -362q0 -223 -129 -363.5t-317 -140.5q-119 0 -214 62.5t-145 167.5l-2 -210h-132v1536h133l2 -776q49 104 144 165t214 61zM650 100q144 0 242 107.5t98 276.5t-98 276.5t-242 107.5q-141 0 -239.5 -111t-98.5 -273t98 -273t240 -111z
" />
    <glyph glyph-name="c" unicode="c" horiz-adv-x="1092" 
d="M573 -17q-203 0 -336.5 139t-133.5 363t133.5 362.5t336.5 138.5q153 0 268.5 -81.5t163.5 -224.5l-127 -26q-37 102 -119 159t-186 57q-145 0 -240.5 -106t-95.5 -279t95.5 -279.5t240.5 -106.5q104 0 186 57t119 159l127 -25q-48 -144 -163.5 -225.5t-268.5 -81.5z" />
    <glyph glyph-name="d" unicode="d" horiz-adv-x="1230" 
d="M910 1536h134v-1536h-131l-2 210q-50 -104 -145.5 -167t-212.5 -63q-92 0 -174 36.5t-142.5 101.5t-96 160t-35.5 206t36 205.5t96.5 159t142.5 101t173 36.5q117 0 212.5 -61t144.5 -165v776zM580 100q142 0 240 111t98 273q0 161 -98.5 272.5t-239.5 111.5
q-144 0 -242 -107.5t-98 -276.5t98 -276.5t242 -107.5z" />
    <glyph glyph-name="e" unicode="e" horiz-adv-x="1114" 
d="M1010 506l-3 -41h-770q3 -177 98.5 -272.5t237.5 -95.5q94 0 172.5 51t121.5 139l120 -31q-55 -127 -165 -201t-247 -74q-206 0 -337 135.5t-131 367.5q0 116 35.5 211.5t98 159t147.5 98t184 34.5q197 0 317 -125t121 -356zM572 878q-131 0 -220.5 -79t-109.5 -227h632
q-9 151 -90.5 228.5t-211.5 77.5z" />
    <glyph glyph-name="f" unicode="f" horiz-adv-x="621" 
d="M593 1420q-26 0 -39 -0.5t-37 -2t-36.5 -5.5t-31.5 -11.5t-29.5 -18t-23 -27t-19 -38t-11 -50.5t-4.5 -65v-234h231v-110h-231v-858h-133v858h-186v110h186v238q0 84 18.5 144.5t48.5 96t79 56t99 27t119 6.5v-116z" />
    <glyph glyph-name="g" unicode="g" horiz-adv-x="1216" 
d="M899 968h132v-926q0 -236 -121 -369.5t-336 -133.5q-169 0 -285 76t-175 219l112 60q86 -238 345 -238q157 0 241 101t84 279v206q-46 -97 -143.5 -157t-212.5 -60q-90 0 -171.5 36.5t-141 99.5t-95 153.5t-35.5 192.5q0 206 130 342.5t314 136.5q116 0 213 -59.5
t143 -158.5zM566 144q141 0 240 107.5t99 255.5t-99 255.5t-240 107.5q-140 0 -238 -104t-98 -259q0 -154 98.5 -258.5t237.5 -104.5z" />
    <glyph glyph-name="h" unicode="h" horiz-adv-x="1094" 
d="M605 986q143 0 232.5 -89t89.5 -252v-645h-134v618q0 128 -63 190t-162 62q-108 0 -178 -71t-70 -204v-595h-135v1536h135v-701q45 73 118 112t167 39z" />
    <glyph glyph-name="i" unicode="i" horiz-adv-x="506" 
d="M254 1224q-41 0 -71 30t-30 71q0 42 30 71t71 29t70.5 -29t29.5 -71q0 -41 -29.5 -71t-70.5 -30zM185 0v968h135v-968h-135z" />
    <glyph glyph-name="j" unicode="j" horiz-adv-x="506" 
d="M254 1224q-41 0 -71 30t-30 71q0 42 30 71t71 29t70.5 -29t29.5 -71q0 -41 -29.5 -71t-70.5 -30zM-47 -452v121q72 0 114.5 13.5t70.5 52.5t37.5 102t9.5 170v961h136v-961q0 -174 -36.5 -273.5t-115.5 -142.5t-216 -43z" />
    <glyph glyph-name="k" unicode="k" horiz-adv-x="994" 
d="M792 0l-386 463h-85v-463h-136v1536h136v-964h80l347 396h165l-394 -440l451 -528h-178z" />
    <glyph glyph-name="l" unicode="l" horiz-adv-x="506" 
d="M185 0v1536h136v-1536h-136z" />
    <glyph glyph-name="m" unicode="m" horiz-adv-x="1588" 
d="M1119 986q133 0 216.5 -83t83.5 -232v-671h-135v638q0 114 -56.5 173t-142.5 59q-97 0 -155 -65t-58 -188v-617h-136v629q0 119 -57.5 180t-146.5 61q-94 0 -153 -65.5t-59 -190.5v-614h-135v968h135v-131q40 72 107 110.5t152 38.5q90 0 159.5 -42.5t104.5 -122.5
q41 80 112.5 122.5t163.5 42.5z" />
    <glyph glyph-name="n" unicode="n" horiz-adv-x="1094" 
d="M602 986q145 0 235 -87.5t90 -247.5v-651h-134v621q0 126 -63 187.5t-161 61.5q-110 0 -179.5 -71t-69.5 -204v-595h-135v968h135v-131q93 149 282 149z" />
    <glyph glyph-name="o" unicode="o" horiz-adv-x="1154" 
d="M578 -19q-133 0 -240 61t-170 176.5t-63 266.5q0 226 134 363.5t339 137.5t338 -137.5t133 -363.5q0 -227 -133.5 -365.5t-337.5 -138.5zM577 97q145 0 242.5 107t97.5 281q0 173 -97.5 279t-242.5 106t-241.5 -106t-96.5 -279q0 -174 96.5 -281t241.5 -107z" />
    <glyph glyph-name="p" unicode="p" horiz-adv-x="1230" 
d="M676 986q189 0 318 -138.5t129 -363.5q0 -226 -129 -365t-318 -139q-116 0 -211 62t-145 165v-700h-135v1461h132l2 -209q49 104 144.5 165.5t212.5 61.5zM652 100q141 0 238.5 105.5t97.5 278.5q0 172 -97.5 277t-238.5 105q-144 0 -243 -110.5t-99 -271.5
q0 -162 99.5 -273t242.5 -111z" />
    <glyph glyph-name="q" unicode="q" horiz-adv-x="1228" 
d="M911 968h131v-1461h-134v699q-49 -102 -144.5 -164t-210.5 -62q-189 0 -318.5 139t-129.5 365q0 149 61 265t162.5 176.5t224.5 60.5q116 0 212 -61.5t144 -164.5zM576 100q145 0 243.5 111t98.5 273q0 161 -99 271.5t-243 110.5q-141 0 -238.5 -105t-97.5 -277
q0 -173 97.5 -278.5t238.5 -105.5z" />
    <glyph glyph-name="r" unicode="r" horiz-adv-x="651" 
d="M318 790q36 86 118 136t185 52v-132q-143 0 -222.5 -76t-79.5 -237v-533h-134v968h133v-178z" />
    <glyph glyph-name="s" unicode="s" horiz-adv-x="929" 
d="M479 -19q-152 0 -253.5 71t-122.5 198l120 35q15 -91 83 -143.5t171 -52.5q57 0 103.5 15t79 54t30.5 99q-1 33 -13.5 59t-33.5 43.5t-52.5 32t-66 25t-79.5 23.5l-33 9q-51 15 -84 26.5t-74.5 33.5t-65 48t-40.5 67t-17 93q0 132 93.5 200t234.5 68q136 0 230 -63.5
t114 -188.5l-115 -31q-14 88 -77.5 133.5t-149.5 45.5q-38 0 -72.5 -9t-64 -27t-47.5 -49.5t-18 -72.5q0 -25 7.5 -45.5t17 -35t31.5 -28.5t36 -21.5t47 -18t48 -14.5t54 -14q59 -15 94 -25.5t83.5 -33.5t76 -50.5t47.5 -73t20 -103.5q0 -140 -97.5 -209.5t-244.5 -69.5z
" />
    <glyph glyph-name="t" unicode="t" horiz-adv-x="670" 
d="M477 0q-113 0 -179 65.5t-66 183.5v609h-201v110h77q73 0 101.5 31.5t28.5 103.5v191h128v-326h231v-110h-231v-596q0 -71 39.5 -111t102.5 -40h89v-111h-120z" />
    <glyph glyph-name="u" unicode="u" horiz-adv-x="1094" 
d="M774 968h134v-968h-129l-3 134q-44 -73 -117.5 -113t-166.5 -40q-145 0 -235.5 87.5t-90.5 247.5v652h135v-621q0 -125 63.5 -187t162.5 -62q110 0 178.5 71t68.5 203v596z" />
    <glyph glyph-name="v" unicode="v" horiz-adv-x="962" 
d="M780 968h144l-387 -968h-112l-387 968h144l299 -807z" />
    <glyph glyph-name="w" unicode="w" horiz-adv-x="1545" 
d="M1355 968h143l-332 -968h-119l-276 783l-277 -783h-120l-326 968h142l253 -782l275 782h103l276 -784z" />
    <glyph glyph-name="x" unicode="x" horiz-adv-x="985" 
d="M46 0l364 485l-364 483h165l283 -393l284 393h161l-364 -484l364 -484h-163l-281 392l-285 -392h-164z" />
    <glyph glyph-name="y" unicode="y" horiz-adv-x="956" 
d="M769 968h146l-548 -1424h-142l185 474l-368 950h151l289 -796z" />
    <glyph glyph-name="z" unicode="z" horiz-adv-x="884" 
d="M267 113h552v-113h-762l542 854h-514v114h729z" />
    <glyph glyph-name="braceleft" unicode="{" horiz-adv-x="601" 
d="M444 -511q-93 0 -151.5 62.5t-58.5 160.5v444q0 56 -2.5 92t-11.5 72t-26 60.5t-44.5 46.5t-69.5 40v91q35 15 60 32t42 39t27 44.5t15.5 55t7.5 64t2 78.5v439q0 100 58.5 163t151.5 63h77v-91h-55q-113 0 -113 -162v-435q0 -60 -5.5 -101.5t-22.5 -87.5t-53 -82.5
t-93 -64.5q57 -27 93 -63.5t53 -82.5t22.5 -87.5t5.5 -101.5v-438q0 -156 113 -156h55v-94h-77z" />
    <glyph glyph-name="bar" unicode="|" horiz-adv-x="648" 
d="M277 -307v1843h94v-1843h-94z" />
    <glyph glyph-name="braceright" unicode="}" horiz-adv-x="599" 
d="M155 -511h-77v94h55q113 0 113 156v438q0 60 5.5 101.5t22.5 87.5t53 82.5t93 63.5q-57 28 -93 64.5t-53 82.5t-22.5 87.5t-5.5 101.5v435q0 162 -113 162h-55v91h77q93 0 151.5 -63t58.5 -163v-439q0 -47 2 -78.5t7.5 -64t15.5 -55t27 -44.5t42 -39t60 -32v-91
q-42 -18 -69.5 -40t-44.5 -46.5t-26 -60.5t-11.5 -72t-2.5 -92v-444q0 -98 -58.5 -160.5t-151.5 -62.5z" />
    <glyph glyph-name="asciitilde" unicode="~" horiz-adv-x="1448" 
d="M943 362q-38 0 -74 10.5t-60.5 24t-52.5 38t-41.5 38.5t-36.5 41q-43 51 -80 75.5t-83 24.5q-81 0 -131 -66t-52 -164h-109q-4 151 78 245t215 94q80 0 136.5 -37.5t116.5 -111.5q30 -36 48.5 -54t50 -34t67.5 -16q79 0 130.5 63t49.5 164h109q7 -144 -74 -239.5
t-207 -95.5z" />
    <glyph glyph-name="exclamdown" unicode="&#xa1;" horiz-adv-x="648" 
d="M324 989q41 0 70.5 -29.5t29.5 -70.5q0 -42 -29.5 -71t-70.5 -29t-70.5 29t-29.5 71q0 41 29.5 70.5t70.5 29.5zM263 590h122l6 -1016h-134z" />
    <glyph glyph-name="cent" unicode="&#xa2;" horiz-adv-x="1222" 
d="M675 340q92 0 170.5 47.5t131.5 129.5l97 -78q-65 -93 -156.5 -149.5t-199.5 -66.5v-223h-89v223q-196 18 -326 171.5t-130 375.5t130 375.5t326 171.5v219h89v-219q108 -10 199.5 -66.5t156.5 -149.5l-97 -78q-53 82 -131.5 129.5t-170.5 47.5q-157 0 -265 -121.5
t-108 -308.5t108 -308.5t265 -121.5z" />
    <glyph glyph-name="sterling" unicode="&#xa3;" horiz-adv-x="1345" 
d="M178 0v97l61 4q95 6 95 100v426h-156v112h156v245q0 190 121.5 311t313.5 121q161 0 270 -98t109 -260q0 -34 -6 -72l-120 -24q9 50 9 78q0 114 -77 181t-186 67q-138 0 -221 -82.5t-83 -221.5v-245h347v-112h-347v-502h705v-125h-991z" />
    <glyph glyph-name="currency" unicode="&#xa4;" horiz-adv-x="1398" 
d="M329 297l-75 80l102 100q-92 118 -92 266q0 152 94 265l-102 100l75 80l102 -105q119 96 269 96q151 0 264 -94l102 102l76 -75l-100 -102q93 -118 93 -267q0 -145 -93 -266l99 -100l-74 -80l-103 104q-114 -93 -266 -93t-269 93zM700 413q137 0 233.5 97.5t96.5 233.5
t-96.5 232t-231.5 96q-139 0 -235.5 -97t-96.5 -236q0 -136 97 -231t233 -95z" />
    <glyph glyph-name="yen" unicode="&#xa5;" horiz-adv-x="1431" 
d="M648 0v263h-424v100h424v220h-424v100h410l-466 712h160l389 -608l389 608h159l-466 -712h408v-100h-422v-220h422v-100h-422v-263h-137z" />
    <glyph glyph-name="brokenbar" unicode="&#xa6;" horiz-adv-x="648" 
d="M277 799v737h94v-737h-94zM277 -307v737h94v-737h-94z" />
    <glyph glyph-name="section" unicode="&#xa7;" horiz-adv-x="1363" 
d="M1174 383q0 -142 -83 -236q83 -86 83 -223q0 -98 -38.5 -172.5t-107 -119.5t-156 -67.5t-190.5 -22.5q-198 0 -335 94t-174 255l127 31q30 -122 136 -193t249 -71q58 0 109.5 8.5t98.5 28t80.5 49.5t52.5 76t18 104q0 28 -5.5 52.5t-18.5 45t-25 37.5t-35.5 32.5t-40 27
t-48.5 24t-51 19.5t-57.5 17.5t-57.5 15.5t-61 16q-58 15 -94 25t-87 28.5t-82.5 36.5t-67 46t-55.5 60.5t-33 76.5t-13 97q0 144 89 235q-89 84 -89 224q0 92 36.5 165t99 117t140.5 67t167 23q123 0 224 -34.5t172.5 -108t95.5 -178.5l-125 -34q-29 118 -128.5 178.5
t-235.5 60.5q-61 0 -115.5 -14t-101 -43.5t-74 -80.5t-27.5 -119q0 -41 12 -74.5t39 -59t54 -43.5t74 -35t81.5 -27t92.5 -24q187 -46 265 -81q173 -78 207 -227q9 -40 9 -85zM340 580q0 -35 10.5 -65t26 -52.5t44 -42t54 -32.5t67 -27t72 -22.5t79.5 -20.5q214 -54 296 -98
q56 63 55 163q-1 53 -26.5 96.5t-51.5 68t-94 51.5t-98 36t-120 32q-2 1 -3.5 1.5l-3 1t-3.5 0.5q-162 40 -237 77q-67 -64 -67 -167z" />
    <glyph glyph-name="dieresis" unicode="&#xa8;" horiz-adv-x="867" 
d="M256 1224q-41 0 -71 30t-30 71q0 42 30 71t71 29t70.5 -29t29.5 -71q0 -41 -29.5 -71t-70.5 -30zM611 1224q-41 0 -71 30t-30 71q0 42 29.5 71t71.5 29q41 0 70.5 -29t29.5 -71q0 -41 -29.5 -71t-70.5 -30z" />
    <glyph glyph-name="copyright" unicode="&#xa9;" horiz-adv-x="1783" 
d="M890 -20q-147 0 -280.5 57.5t-230.5 154.5t-154.5 231t-57.5 281q0 196 97 362.5t263.5 264t362.5 97.5q197 0 364 -97.5t264.5 -264t97.5 -362.5q0 -147 -57.5 -281t-155 -231t-232 -154.5t-281.5 -57.5zM890 72q173 0 318 84t229 229.5t84 318.5q0 172 -84 317
t-229 229.5t-318 84.5q-172 0 -317 -84.5t-229 -229.5t-84 -317q0 -173 84 -318.5t229 -229.5t317 -84zM889 284q-170 0 -291.5 121.5t-121.5 292.5q0 172 120.5 292.5t292.5 120.5q89 0 171 -36.5t138 -101.5l-73 -67q-43 51 -105.5 79t-130.5 28q-130 0 -221 -91.5
t-91 -223.5t91.5 -223t220.5 -91q68 0 130.5 28t105.5 78l73 -68q-56 -65 -138 -101.5t-171 -36.5z" />
    <glyph glyph-name="ordfeminine" unicode="&#xaa;" horiz-adv-x="965" 
d="M685 1395h92v-614h-92v130q-41 -66 -107.5 -104.5t-147.5 -38.5q-129 0 -220 93.5t-91 226.5q0 132 91.5 225.5t219.5 93.5q81 0 147.5 -38.5t107.5 -105.5v132zM447 849q99 0 168.5 69.5t69.5 169.5q0 97 -70 166t-168 69t-167.5 -69t-69.5 -166q0 -100 69.5 -169.5
t167.5 -69.5z" />
    <glyph glyph-name="guillemotleft" unicode="&#xab;" horiz-adv-x="960" 
d="M394 214l-312 377l312 377h119l-311 -377l311 -377h-119zM747 214l-311 377l311 377h120l-311 -377l311 -377h-120z" />
    <glyph glyph-name="logicalnot" unicode="&#xac;" horiz-adv-x="1646" 
d="M1254 328v524h-1112v116h1227v-640h-115z" />
    <glyph glyph-name="uni00AD" unicode="&#xad;" horiz-adv-x="1077" 
d="M180 500v120h717v-120h-717z" />
    <glyph glyph-name="registered" unicode="&#xae;" horiz-adv-x="1792" 
d="M894 1428q197 0 364 -97.5t264.5 -264t97.5 -362.5q0 -147 -57.5 -281t-155 -231t-232 -154.5t-281.5 -57.5q-196 0 -362 97t-263 264t-97 363q0 147 57.5 281t154 231t230 154.5t280.5 57.5zM894 72q173 0 318 84t229 229.5t84 318.5q0 172 -84 317t-229 229.5
t-318 84.5q-172 0 -317 -84.5t-229 -229.5t-84 -317q0 -173 84 -318.5t229 -229.5t317 -84zM1210 895q0 -75 -41.5 -136t-109.5 -88l182 -406h-108l-171 388h-213v-388h-99v877h313q103 0 175 -72t72 -175zM749 741h204q67 0 112.5 44t45.5 109q0 66 -45.5 109.5
t-112.5 43.5h-204v-306z" />
    <glyph glyph-name="macron" unicode="&#xaf;" horiz-adv-x="1004" 
d="M181 1263v91h641v-91h-641z" />
    <glyph glyph-name="degree" unicode="&#xb0;" horiz-adv-x="989" 
d="M494 854q-117 0 -199 82.5t-82 198.5t82 198t199 82q116 0 198 -82t82 -198t-82 -198.5t-198 -82.5zM494 938q81 0 138.5 57.5t57.5 139.5q0 81 -57.5 139.5t-138.5 58.5t-139 -58.5t-58 -139.5q0 -82 57.5 -139.5t139.5 -57.5z" />
    <glyph glyph-name="plusminus" unicode="&#xb1;" horiz-adv-x="1259" 
d="M575 329v411h-410v116h410v412h117v-412h410v-116h-410v-411h-117zM156 3v118h928v-118h-928z" />
    <glyph glyph-name="acute" unicode="&#xb4;" horiz-adv-x="481" 
d="M70 1238l248 313l76 -57l-224 -256h-100z" />
    <glyph glyph-name="uni00B5" unicode="&#xb5;" horiz-adv-x="1360" 
d="M1014 968h124v-968h-124v168q-55 -87 -144 -137.5t-193 -50.5q-85 0 -160.5 33.5t-131.5 93.5v-619h-108v1480h126v-574q0 -126 88.5 -214t214.5 -88q127 0 217.5 88t90.5 214v574z" />
    <glyph glyph-name="paragraph" unicode="&#xb6;" horiz-adv-x="1192" 
d="M563 -307v1016h-73q-171 0 -267.5 89.5t-96.5 254.5t96.5 253.5t267.5 88.5h152v-1702h-79zM834 -307v1702h81v-1702h-81z" />
    <glyph glyph-name="periodcentered" unicode="&#xb7;" horiz-adv-x="634" 
d="M318 652q-35 0 -60 24.5t-25 60.5q0 34 25 59t60 25q33 0 58 -25t25 -59q0 -35 -24.5 -60t-58.5 -25z" />
    <glyph glyph-name="cedilla" unicode="&#xb8;" horiz-adv-x="623" 
d="M317 -532q-68 0 -135 35.5t-100 87.5l72 34q25 -34 71.5 -56.5t90.5 -22.5q53 0 90 37t37 91q0 57 -37.5 89.5t-96.5 32.5q-43 0 -82 -18l-66 45l107 219h80l-86 -184q47 7 59 7q88 0 144.5 -53t56.5 -138q0 -87 -59 -146.5t-146 -59.5z" />
    <glyph glyph-name="ordmasculine" unicode="&#xba;" horiz-adv-x="893" 
d="M444 776q-135 0 -231.5 93.5t-96.5 226.5q0 132 96.5 225.5t231.5 93.5q139 0 235 -93t96 -226q0 -134 -96 -227t-235 -93zM444 858q99 0 169 69.5t70 168.5q0 97 -70.5 166t-168.5 69q-97 0 -166.5 -69t-69.5 -166q0 -99 69 -168.5t167 -69.5z" />
    <glyph glyph-name="guillemotright" unicode="&#xbb;" horiz-adv-x="960" 
d="M93 214l311 377l-311 377h120l311 -377l-311 -377h-120zM446 214l311 377l-311 377h120l312 -377l-312 -377h-120z" />
    <glyph glyph-name="onequarter" unicode="&#xbc;" horiz-adv-x="1518" 
d="M235 473v819l-227 -175v101l233 177h92v-922h-98zM1017 1395h109l-788 -1395h-109zM1453 276v-81h-103v-195h-95v195h-441v72l412 655h124v-646h103zM912 276h343v554z" />
    <glyph glyph-name="onehalf" unicode="&#xbd;" horiz-adv-x="1591" 
d="M235 473v819l-227 -175v101l233 177h92v-922h-98zM1017 1395h109l-788 -1395h-109zM1021 83h514v-83h-624v93q166 145 259 230.5t149.5 151t73 104t16.5 82.5q0 90 -51.5 138.5t-128.5 47.5q-83 -1 -133 -52t-53 -134h-101q3 123 85 199t206 76q115 0 191 -71t80 -189
q3 -80 -41 -157t-142.5 -173.5t-299.5 -262.5z" />
    <glyph glyph-name="threequarters" unicode="&#xbe;" horiz-adv-x="1737" 
d="M625 751q0 -118 -84.5 -200t-205.5 -82q-119 0 -203 78t-84 193h99q0 -77 55.5 -129.5t133.5 -52.5q80 0 134.5 55.5t54.5 138.5q0 81 -55 134t-139 53h-67v83h63q67 0 111 44.5t44 111.5q0 65 -43 107.5t-107 42.5t-106.5 -42t-42.5 -108l-98 1q0 101 71 168.5t176 67.5
q102 0 172 -67t70 -166q0 -61 -29.5 -110t-81.5 -78q74 -34 118 -98t44 -145zM1236 1395h109l-788 -1395h-109zM1672 276v-81h-103v-195h-95v195h-441v72l412 655h124v-646h103zM1131 276h343v554z" />
    <glyph glyph-name="questiondown" unicode="&#xbf;" horiz-adv-x="1027" 
d="M501 988q39 0 68.5 -29t29.5 -71q0 -40 -29.5 -70t-68.5 -30t-68.5 30t-29.5 70q0 42 29 71t69 29zM568 592v-131q0 -66 -26.5 -113t-65 -73.5t-108.5 -60.5q-133 -65 -133 -254q0 -131 76.5 -212t197.5 -81q117 0 195 86t78 217q0 37 -8 80l117 -8q8 -41 8 -90
q0 -175 -109.5 -287t-279.5 -112q-173 0 -284 113.5t-111 292.5q0 141 59 228t150 126q64 28 93.5 61.5t29.5 93.5v124h121z" />
    <glyph glyph-name="Agrave" unicode="&#xc0;" horiz-adv-x="1332" 
d="M715 1545h-99l-224 256l76 57zM1116 0l-126 350h-647l-126 -350h-147l514 1395h164l514 -1395h-146zM389 477h555l-278 772z" />
    <glyph glyph-name="Aacute" unicode="&#xc1;" horiz-adv-x="1332" 
d="M930 1801l-224 -256h-100l248 313zM1116 0l-126 350h-647l-126 -350h-147l514 1395h164l514 -1395h-146zM389 477h555l-278 772z" />
    <glyph glyph-name="Acircumflex" unicode="&#xc2;" horiz-adv-x="1332" 
d="M664 1773l-164 -228h-97l206 294h111l206 -294h-99zM1116 0l-126 350h-647l-126 -350h-147l514 1395h164l514 -1395h-146zM389 477h555l-278 772z" />
    <glyph glyph-name="Atilde" unicode="&#xc3;" horiz-adv-x="1332" 
d="M529 1709q-54 0 -85.5 -44.5t-31.5 -115.5h-76q0 104 52.5 170t141.5 66q57 0 95 -27t69 -73q17 -23 28 -36t33.5 -25.5t49.5 -12.5q54 0 84.5 42t30.5 114h78q0 -102 -52 -167.5t-141 -65.5q-61 0 -99.5 27.5t-70.5 73.5q-16 24 -27.5 37t-32.5 25t-46 12zM1116 0
l-126 350h-647l-126 -350h-147l514 1395h164l514 -1395h-146zM389 477h555l-278 772z" />
    <glyph glyph-name="Adieresis" unicode="&#xc4;" horiz-adv-x="1332" 
d="M488 1536q-41 0 -71 30t-30 70q0 42 30 71t71 29t70.5 -29t29.5 -71q0 -40 -30 -70t-70 -30zM843 1536q-41 0 -71 29.5t-30 70.5q0 42 29.5 71t71.5 29q41 0 70.5 -29t29.5 -71q0 -40 -29.5 -70t-70.5 -30zM1116 0l-126 350h-647l-126 -350h-147l514 1395h164l514 -1395
h-146zM389 477h555l-278 772z" />
    <glyph glyph-name="Aring" unicode="&#xc5;" horiz-adv-x="1332" 
d="M665 1545q-83 0 -142.5 59.5t-59.5 140.5q0 83 59 141.5t143 58.5q81 0 139.5 -58.5t58.5 -141.5q0 -81 -58.5 -140.5t-139.5 -59.5zM665 1876q-54 0 -91 -38.5t-37 -92.5t37 -90.5t91 -36.5t90.5 36.5t36.5 90.5t-37 92.5t-90 38.5zM1116 0l-126 350h-647l-126 -350
h-147l514 1395h164l514 -1395h-146zM389 477h555l-278 772z" />
    <glyph glyph-name="AE" unicode="&#xc6;" horiz-adv-x="1730" 
d="M70 0l525 1395h1014v-127h-622v-507h546v-128h-546v-505h622v-128h-761v350h-505l-129 -350h-144zM389 477h459v790h-166z" />
    <glyph glyph-name="Ccedilla" unicode="&#xc7;" horiz-adv-x="1520" 
d="M822 117q156 0 281.5 70.5t194.5 201.5l126 -56q-80 -160 -230.5 -252t-339.5 -99l-58 -124q47 7 59 7q88 0 144.5 -53t56.5 -138q0 -87 -59 -146.5t-146 -59.5q-68 0 -135 35.5t-100 87.5l72 34q25 -34 71.5 -56.5t90.5 -22.5q53 0 90 37t37 91q0 57 -37.5 89.5
t-96.5 32.5q-43 0 -82 -18l-66 45l78 159q-136 8 -252.5 61t-202.5 143.5t-135 222t-49 289.5q0 218 92 382.5t247 249t349 84.5q200 0 359 -92.5t243 -259.5l-126 -56q-69 131 -194.5 201.5t-281.5 70.5q-115 0 -214.5 -39t-174.5 -111t-118 -183t-43 -247t43 -247.5
t118 -183.5t174.5 -111t214.5 -39z" />
    <glyph glyph-name="Egrave" unicode="&#xc8;" horiz-adv-x="1081" 
d="M648 1545h-99l-224 256l76 57zM960 1267h-584v-507h513v-127h-513v-505h584v-128h-728v1395h728v-128z" />
    <glyph glyph-name="Eacute" unicode="&#xc9;" horiz-adv-x="1081" 
d="M863 1801l-224 -256h-100l248 313zM960 1267h-584v-507h513v-127h-513v-505h584v-128h-728v1395h728v-128z" />
    <glyph glyph-name="Ecircumflex" unicode="&#xca;" horiz-adv-x="1081" 
d="M597 1773l-164 -228h-97l206 294h111l206 -294h-99zM960 1267h-584v-507h513v-127h-513v-505h584v-128h-728v1395h728v-128z" />
    <glyph glyph-name="Edieresis" unicode="&#xcb;" horiz-adv-x="1081" 
d="M421 1536q-41 0 -71 30t-30 70q0 42 30 71t71 29t70.5 -29t29.5 -71q0 -40 -29.5 -70t-70.5 -30zM776 1536q-41 0 -71 29.5t-30 70.5q0 42 29.5 71t71.5 29q41 0 70.5 -29t29.5 -71q0 -40 -30 -70t-70 -30zM960 1267h-584v-507h513v-127h-513v-505h584v-128h-728v1395
h728v-128z" />
    <glyph glyph-name="Igrave" unicode="&#xcc;" horiz-adv-x="603" 
d="M252 1545l-224 256l76 57l247 -313h-99zM232 0v1395h139v-1395h-139z" />
    <glyph glyph-name="Iacute" unicode="&#xcd;" horiz-adv-x="603" 
d="M242 1545l248 313l76 -57l-224 -256h-100zM232 0v1395h139v-1395h-139z" />
    <glyph glyph-name="Icircumflex" unicode="&#xce;" horiz-adv-x="603" 
d="M136 1545h-97l206 294h111l206 -294h-99l-163 228zM232 0v1395h139v-1395h-139z" />
    <glyph glyph-name="Idieresis" unicode="&#xcf;" horiz-adv-x="603" 
d="M124 1536q-41 0 -71 30t-30 70q0 42 30 71t71 29t70.5 -29t29.5 -71q0 -40 -30 -70t-70 -30zM479 1536q-41 0 -71 29.5t-30 70.5q0 42 29.5 71t71.5 29q41 0 70.5 -29t29.5 -71q0 -40 -29.5 -70t-70.5 -30zM232 0v1395h139v-1395h-139z" />
    <glyph glyph-name="Eth" unicode="&#xd0;" horiz-adv-x="1439" 
d="M663 1395q205 0 350.5 -90.5t216 -246t70.5 -360.5q0 -153 -41 -280.5t-119.5 -220.5t-200.5 -145t-276 -52h-431v651h-165v94h165v650h431zM660 128q244 0 370.5 153.5t126.5 416.5t-126.5 416t-370.5 153h-289v-522h274v-94h-274v-523h289z" />
    <glyph glyph-name="Ntilde" unicode="&#xd1;" horiz-adv-x="1535" 
d="M631 1709q-54 0 -85.5 -44.5t-31.5 -115.5h-76q0 104 52.5 170t141.5 66q57 0 95 -27t69 -73q17 -23 28 -36t33.5 -25.5t49.5 -12.5q54 0 84.5 42t30.5 114h78q0 -102 -52 -167.5t-141 -65.5q-61 0 -99.5 27.5t-70.5 73.5q-16 24 -27.5 37t-32.5 25t-46 12zM1165 1395
h137v-1395h-136l-799 1173v-1173h-135v1395h135l798 -1168v1168z" />
    <glyph glyph-name="Ograve" unicode="&#xd2;" horiz-adv-x="1643" 
d="M773 1545l-224 256l76 57l247 -313h-99zM822 -19q-194 0 -349 84.5t-247 249t-92 383.5q0 218 92 382.5t247 249t349 84.5q144 0 269 -49.5t218 -140t146.5 -226.5t53.5 -300q0 -165 -53.5 -301t-146.5 -226.5t-218 -140t-269 -49.5zM822 115q115 0 214 39t173.5 111.5
t117 184t42.5 248.5q0 136 -42.5 247t-117 183t-173.5 111t-214 39t-214.5 -39t-174.5 -111t-118 -183t-43 -247q0 -137 43 -248.5t118 -184t174.5 -111.5t214.5 -39z" />
    <glyph glyph-name="Oacute" unicode="&#xd3;" horiz-adv-x="1643" 
d="M763 1545l248 313l76 -57l-224 -256h-100zM822 -19q-194 0 -349 84.5t-247 249t-92 383.5q0 218 92 382.5t247 249t349 84.5q144 0 269 -49.5t218 -140t146.5 -226.5t53.5 -300q0 -165 -53.5 -301t-146.5 -226.5t-218 -140t-269 -49.5zM822 115q115 0 214 39t173.5 111.5
t117 184t42.5 248.5q0 136 -42.5 247t-117 183t-173.5 111t-214 39t-214.5 -39t-174.5 -111t-118 -183t-43 -247q0 -137 43 -248.5t118 -184t174.5 -111.5t214.5 -39z" />
    <glyph glyph-name="Ocircumflex" unicode="&#xd4;" horiz-adv-x="1643" 
d="M657 1545h-97l206 294h111l206 -294h-99l-163 228zM822 -19q-194 0 -349 84.5t-247 249t-92 383.5q0 218 92 382.5t247 249t349 84.5q144 0 269 -49.5t218 -140t146.5 -226.5t53.5 -300q0 -165 -53.5 -301t-146.5 -226.5t-218 -140t-269 -49.5zM822 115q115 0 214 39
t173.5 111.5t117 184t42.5 248.5q0 136 -42.5 247t-117 183t-173.5 111t-214 39t-214.5 -39t-174.5 -111t-118 -183t-43 -247q0 -137 43 -248.5t118 -184t174.5 -111.5t214.5 -39z" />
    <glyph glyph-name="Otilde" unicode="&#xd5;" horiz-adv-x="1643" 
d="M962 1534q-61 0 -99.5 27.5t-70.5 73.5q-16 24 -27.5 37t-32.5 25t-46 12q-54 0 -85.5 -44.5t-31.5 -115.5h-76q0 104 52.5 170t141.5 66q57 0 95 -27t69 -73q17 -23 28 -36t33.5 -25.5t49.5 -12.5q54 0 84.5 42t30.5 114h78q0 -102 -52 -167.5t-141 -65.5zM822 -19
q-194 0 -349 84.5t-247 249t-92 383.5q0 218 92 382.5t247 249t349 84.5q144 0 269 -49.5t218 -140t146.5 -226.5t53.5 -300q0 -165 -53.5 -301t-146.5 -226.5t-218 -140t-269 -49.5zM822 115q115 0 214 39t173.5 111.5t117 184t42.5 248.5q0 136 -42.5 247t-117 183
t-173.5 111t-214 39t-214.5 -39t-174.5 -111t-118 -183t-43 -247q0 -137 43 -248.5t118 -184t174.5 -111.5t214.5 -39z" />
    <glyph glyph-name="Odieresis" unicode="&#xd6;" horiz-adv-x="1643" 
d="M645 1536q-41 0 -71 30t-30 70q0 42 30 71t71 29t70.5 -29t29.5 -71q0 -40 -29.5 -70t-70.5 -30zM1000 1536q-41 0 -71 29.5t-30 70.5q0 42 29.5 71t71.5 29q41 0 70.5 -29t29.5 -71q0 -40 -30 -70t-70 -30zM822 -19q-194 0 -349 84.5t-247 249t-92 383.5q0 218 92 382.5
t247 249t349 84.5q144 0 269 -49.5t218 -140t146.5 -226.5t53.5 -300q0 -165 -53.5 -301t-146.5 -226.5t-218 -140t-269 -49.5zM822 115q115 0 214 39t173.5 111.5t117 184t42.5 248.5q0 136 -42.5 247t-117 183t-173.5 111t-214 39t-214.5 -39t-174.5 -111t-118 -183
t-43 -247q0 -137 43 -248.5t118 -184t174.5 -111.5t214.5 -39z" />
    <glyph glyph-name="multiply" unicode="&#xd7;" horiz-adv-x="1072" 
d="M252 286l-82 84l283 283l-283 284l82 81l285 -281l281 280l84 -80l-284 -284l284 -283l-84 -82l-281 283z" />
    <glyph glyph-name="Oslash" unicode="&#xd8;" horiz-adv-x="1643" 
d="M1270 1259q113 -95 176 -238t63 -323q0 -165 -53.5 -301t-146.5 -226.5t-218 -140t-269 -49.5q-210 0 -373 99l-136 -195l-82 48l141 203q-113 95 -175.5 238t-62.5 324q0 218 92 382.5t247 249t349 84.5q208 0 371 -99l138 198l80 -52zM272 698q0 -288 179 -449l663 953
q-128 76 -292 76q-115 0 -214.5 -39t-174.5 -111t-118 -183t-43 -247zM822 115q115 0 214 39t173.5 111.5t117 184t42.5 248.5q0 288 -178 447l-664 -952q130 -78 295 -78z" />
    <glyph glyph-name="Ugrave" unicode="&#xd9;" horiz-adv-x="1397" 
d="M648 1545l-224 256l76 57l247 -313h-99zM697 -19q-140 0 -252 56.5t-177 164.5t-65 251v942h139v-922q0 -174 99 -268.5t256 -94.5t257.5 95t100.5 268v922h138v-942q0 -215 -140.5 -343.5t-355.5 -128.5z" />
    <glyph glyph-name="Uacute" unicode="&#xda;" horiz-adv-x="1397" 
d="M638 1545l248 313l76 -57l-224 -256h-100zM697 -19q-140 0 -252 56.5t-177 164.5t-65 251v942h139v-922q0 -174 99 -268.5t256 -94.5t257.5 95t100.5 268v922h138v-942q0 -215 -140.5 -343.5t-355.5 -128.5z" />
    <glyph glyph-name="Ucircumflex" unicode="&#xdb;" horiz-adv-x="1397" 
d="M532 1545h-97l206 294h111l206 -294h-99l-163 228zM697 -19q-140 0 -252 56.5t-177 164.5t-65 251v942h139v-922q0 -174 99 -268.5t256 -94.5t257.5 95t100.5 268v922h138v-942q0 -215 -140.5 -343.5t-355.5 -128.5z" />
    <glyph glyph-name="Udieresis" unicode="&#xdc;" horiz-adv-x="1397" 
d="M520 1536q-41 0 -71 30t-30 70q0 42 30 71t71 29t70.5 -29t29.5 -71q0 -40 -30 -70t-70 -30zM875 1536q-41 0 -71 29.5t-30 70.5q0 42 29.5 71t71.5 29q41 0 70.5 -29t29.5 -71q0 -40 -29.5 -70t-70.5 -30zM697 -19q-140 0 -252 56.5t-177 164.5t-65 251v942h139v-922
q0 -174 99 -268.5t256 -94.5t257.5 95t100.5 268v922h138v-942q0 -215 -140.5 -343.5t-355.5 -128.5z" />
    <glyph glyph-name="Yacute" unicode="&#xdd;" horiz-adv-x="1167" 
d="M849 1801l-224 -256h-100l248 313zM1113 1395l-459 -730v-665h-141v665l-459 730h162l368 -604l367 604h162z" />
    <glyph glyph-name="Thorn" unicode="&#xde;" horiz-adv-x="1201" 
d="M720 1324q158 0 268.5 -123.5t110.5 -300.5q0 -173 -111 -295t-268 -122h-354v-483h-134v1526h134v-202h354zM712 608q109 0 184 86t75 210q0 125 -75 210t-184 85h-346v-591h346z" />
    <glyph glyph-name="germandbls" unicode="&#xdf;" horiz-adv-x="1183" 
d="M185 0v1054q0 257 113.5 379.5t311.5 122.5q181 0 296.5 -102.5t115.5 -255.5q0 -58 -16 -104.5t-39 -76.5t-45.5 -57.5t-38.5 -62t-16 -75.5t24 -78t58 -69.5t68 -71.5t58 -102.5t24 -144.5q0 -146 -100 -251t-255 -105h-189v113h159q106 0 179 71.5t73 175.5
q0 61 -17 110t-42.5 78.5t-55.5 60.5t-55.5 56t-42.5 64.5t-17 87.5q0 52 16.5 93.5t39.5 70t46 56.5t39.5 68t16.5 89q0 107 -78 178.5t-203 71.5q-298 0 -298 -378v-1066h-130z" />
    <glyph glyph-name="agrave" unicode="&#xe0;" horiz-adv-x="1046" 
d="M478 1147l-224 256l76 57l247 -313h-99zM404 -19q-129 0 -210.5 67.5t-81.5 198.5q0 72 25.5 124.5t76 87t113 55t148.5 34.5l163 25q84 15 84 91q0 109 -64.5 160.5t-165.5 51.5q-95 0 -160.5 -46.5t-76.5 -140.5l-123 30q20 131 116.5 198.5t247.5 67.5q75 0 138 -18.5
t113 -56t78.5 -103t28.5 -152.5v-417q0 -81 24 -108t79 -27h16v-103h-70q-149 0 -174 133h-6q-114 -152 -319 -152zM435 93q138 0 218.5 103.5t80.5 288.5l-262 -46q-116 -18 -171.5 -60t-55.5 -122q0 -83 52.5 -123.5t137.5 -40.5z" />
    <glyph glyph-name="aacute" unicode="&#xe1;" horiz-adv-x="1046" 
d="M468 1147l248 313l76 -57l-224 -256h-100zM404 -19q-129 0 -210.5 67.5t-81.5 198.5q0 72 25.5 124.5t76 87t113 55t148.5 34.5l163 25q84 15 84 91q0 109 -64.5 160.5t-165.5 51.5q-95 0 -160.5 -46.5t-76.5 -140.5l-123 30q20 131 116.5 198.5t247.5 67.5
q75 0 138 -18.5t113 -56t78.5 -103t28.5 -152.5v-417q0 -81 24 -108t79 -27h16v-103h-70q-149 0 -174 133h-6q-114 -152 -319 -152zM435 93q138 0 218.5 103.5t80.5 288.5l-262 -46q-116 -18 -171.5 -60t-55.5 -122q0 -83 52.5 -123.5t137.5 -40.5z" />
    <glyph glyph-name="acircumflex" unicode="&#xe2;" horiz-adv-x="1046" 
d="M362 1151h-97l206 294h111l206 -294h-99l-163 228zM404 -19q-129 0 -210.5 67.5t-81.5 198.5q0 72 25.5 124.5t76 87t113 55t148.5 34.5l163 25q84 15 84 91q0 109 -64.5 160.5t-165.5 51.5q-95 0 -160.5 -46.5t-76.5 -140.5l-123 30q20 131 116.5 198.5t247.5 67.5
q75 0 138 -18.5t113 -56t78.5 -103t28.5 -152.5v-417q0 -81 24 -108t79 -27h16v-103h-70q-149 0 -174 133h-6q-114 -152 -319 -152zM435 93q138 0 218.5 103.5t80.5 288.5l-262 -46q-116 -18 -171.5 -60t-55.5 -122q0 -83 52.5 -123.5t137.5 -40.5z" />
    <glyph glyph-name="atilde" unicode="&#xe3;" horiz-adv-x="1046" 
d="M654 1138q-100 0 -160 95q-36 55 -87 55q-43 0 -68.5 -38t-25.5 -98h-83q0 96 48 157t127 61q100 0 158 -96q34 -53 89 -53q43 0 68 36.5t25 97.5h84q0 -94 -48 -155.5t-127 -61.5zM404 -19q-129 0 -210.5 67.5t-81.5 198.5q0 72 25.5 124.5t76 87t113 55t148.5 34.5
l163 25q84 15 84 91q0 109 -64.5 160.5t-165.5 51.5q-95 0 -160.5 -46.5t-76.5 -140.5l-123 30q20 131 116.5 198.5t247.5 67.5q75 0 138 -18.5t113 -56t78.5 -103t28.5 -152.5v-417q0 -81 24 -108t79 -27h16v-103h-70q-149 0 -174 133h-6q-114 -152 -319 -152zM435 93
q138 0 218.5 103.5t80.5 288.5l-262 -46q-116 -18 -171.5 -60t-55.5 -122q0 -83 52.5 -123.5t137.5 -40.5z" />
    <glyph glyph-name="adieresis" unicode="&#xe4;" horiz-adv-x="1046" 
d="M350 1224q-41 0 -71 30t-30 71q0 42 30 71t71 29t70.5 -29t29.5 -71q0 -41 -29.5 -71t-70.5 -30zM705 1224q-41 0 -71 30t-30 71q0 42 29.5 71t71.5 29q41 0 70.5 -29t29.5 -71q0 -41 -29.5 -71t-70.5 -30zM404 -19q-129 0 -210.5 67.5t-81.5 198.5q0 72 25.5 124.5
t76 87t113 55t148.5 34.5l163 25q84 15 84 91q0 109 -64.5 160.5t-165.5 51.5q-95 0 -160.5 -46.5t-76.5 -140.5l-123 30q20 131 116.5 198.5t247.5 67.5q75 0 138 -18.5t113 -56t78.5 -103t28.5 -152.5v-417q0 -81 24 -108t79 -27h16v-103h-70q-149 0 -174 133h-6
q-114 -152 -319 -152zM435 93q138 0 218.5 103.5t80.5 288.5l-262 -46q-116 -18 -171.5 -60t-55.5 -122q0 -83 52.5 -123.5t137.5 -40.5z" />
    <glyph glyph-name="aring" unicode="&#xe5;" horiz-adv-x="1046" 
d="M527 1108q-83 0 -142.5 59.5t-59.5 141.5q0 83 59 141.5t143 58.5q81 0 139.5 -58.5t58.5 -141.5q0 -81 -58.5 -141t-139.5 -60zM527 1182q54 0 90.5 36.5t36.5 90.5t-37 92t-90 38q-54 0 -91 -38t-37 -92t37 -90.5t91 -36.5zM404 -19q-129 0 -210.5 67.5t-81.5 198.5
q0 72 25.5 124.5t76 87t113 55t148.5 34.5l163 25q84 15 84 91q0 109 -64.5 160.5t-165.5 51.5q-95 0 -160.5 -46.5t-76.5 -140.5l-123 30q20 131 116.5 198.5t247.5 67.5q75 0 138 -18.5t113 -56t78.5 -103t28.5 -152.5v-417q0 -81 24 -108t79 -27h16v-103h-70
q-149 0 -174 133h-6q-114 -152 -319 -152zM435 93q138 0 218.5 103.5t80.5 288.5l-262 -46q-116 -18 -171.5 -60t-55.5 -122q0 -83 52.5 -123.5t137.5 -40.5z" />
    <glyph glyph-name="ae" unicode="&#xe6;" horiz-adv-x="1712" 
d="M1608 506l-2 -42h-770q1 -90 28.5 -161t74 -115.5t106 -67.5t127.5 -23q94 0 172 51t121 139l120 -31q-55 -128 -164.5 -201.5t-248.5 -73.5q-124 0 -224.5 52t-161.5 148h-16q-82 -115 -169 -157.5t-195 -42.5q-131 0 -212.5 67.5t-81.5 198.5q0 72 25.5 124.5t76 87
t113 55t148.5 34.5l163 25q84 15 84 91q0 109 -64.5 160.5t-165.5 51.5q-95 0 -160.5 -46.5t-76.5 -140.5l-123 30q20 131 116.5 198.5t247.5 67.5q109 0 192.5 -39t125.5 -120q132 161 357 161q197 0 317 -125t120 -356zM1169 879q-116 0 -201.5 -65.5t-116.5 -188.5v-57
h622q-9 152 -90 231.5t-214 79.5zM441 93q175 0 290 207q-26 84 -26 183l-228 -38q-118 -18 -175 -60.5t-57 -124.5q0 -84 54.5 -125.5t141.5 -41.5z" />
    <glyph glyph-name="ccedilla" unicode="&#xe7;" horiz-adv-x="1092" 
d="M573 99q104 0 186 57t119 159l127 -25q-45 -138 -153.5 -218.5t-252.5 -87.5l-59 -126q47 7 59 7q88 0 144.5 -53t56.5 -138q0 -87 -59 -146.5t-146 -59.5q-68 0 -135 35.5t-100 87.5l72 34q25 -34 71.5 -56.5t90.5 -22.5q53 0 90 37t37 91q0 57 -37.5 89.5t-96.5 32.5
q-43 0 -82 -18l-66 45l80 163q-183 19 -299.5 155t-116.5 344q0 224 133.5 362.5t336.5 138.5q153 0 268.5 -81.5t163.5 -224.5l-127 -26q-37 102 -119 159t-186 57q-145 0 -240.5 -106t-95.5 -279t95.5 -279.5t240.5 -106.5z" />
    <glyph glyph-name="egrave" unicode="&#xe8;" horiz-adv-x="1114" 
d="M627 1150h-99l-224 256l76 57zM1010 506l-3 -41h-770q3 -177 98.5 -272.5t237.5 -95.5q94 0 172.5 51t121.5 139l120 -31q-55 -127 -165 -201t-247 -74q-206 0 -337 135.5t-131 367.5q0 116 35.5 211.5t98 159t147.5 98t184 34.5q197 0 317 -125t121 -356zM572 878
q-131 0 -220.5 -79t-109.5 -227h632q-9 151 -90.5 228.5t-211.5 77.5z" />
    <glyph glyph-name="eacute" unicode="&#xe9;" horiz-adv-x="1114" 
d="M842 1406l-224 -256h-100l248 313zM1010 506l-3 -41h-770q3 -177 98.5 -272.5t237.5 -95.5q94 0 172.5 51t121.5 139l120 -31q-55 -127 -165 -201t-247 -74q-206 0 -337 135.5t-131 367.5q0 116 35.5 211.5t98 159t147.5 98t184 34.5q197 0 317 -125t121 -356zM572 878
q-131 0 -220.5 -79t-109.5 -227h632q-9 151 -90.5 228.5t-211.5 77.5z" />
    <glyph glyph-name="ecircumflex" unicode="&#xea;" horiz-adv-x="1114" 
d="M576 1382l-164 -228h-97l206 294h111l206 -294h-99zM1010 506l-3 -41h-770q3 -177 98.5 -272.5t237.5 -95.5q94 0 172.5 51t121.5 139l120 -31q-55 -127 -165 -201t-247 -74q-206 0 -337 135.5t-131 367.5q0 116 35.5 211.5t98 159t147.5 98t184 34.5q197 0 317 -125
t121 -356zM572 878q-131 0 -220.5 -79t-109.5 -227h632q-9 151 -90.5 228.5t-211.5 77.5z" />
    <glyph glyph-name="edieresis" unicode="&#xeb;" horiz-adv-x="1114" 
d="M400 1227q-41 0 -71 30t-30 71q0 42 30 71t71 29t70.5 -29t29.5 -71q0 -41 -29.5 -71t-70.5 -30zM755 1227q-41 0 -71 30t-30 71q0 42 29.5 71t71.5 29q41 0 70.5 -29t29.5 -71q0 -41 -29.5 -71t-70.5 -30zM1010 506l-3 -41h-770q3 -177 98.5 -272.5t237.5 -95.5
q94 0 172.5 51t121.5 139l120 -31q-55 -127 -165 -201t-247 -74q-206 0 -337 135.5t-131 367.5q0 116 35.5 211.5t98 159t147.5 98t184 34.5q197 0 317 -125t121 -356zM572 878q-131 0 -220.5 -79t-109.5 -227h632q-9 151 -90.5 228.5t-211.5 77.5z" />
    <glyph glyph-name="igrave" unicode="&#xec;" horiz-adv-x="506" 
d="M205 1147l-224 256l76 57l247 -313h-99zM185 0v968h135v-968h-135z" />
    <glyph glyph-name="iacute" unicode="&#xed;" horiz-adv-x="506" 
d="M195 1147l248 313l76 -57l-224 -256h-100zM185 0v968h135v-968h-135z" />
    <glyph glyph-name="icircumflex" unicode="&#xee;" horiz-adv-x="506" 
d="M89 1151h-97l206 294h111l206 -294h-99l-163 228zM185 0v968h135v-968h-135z" />
    <glyph glyph-name="idieresis" unicode="&#xef;" horiz-adv-x="506" 
d="M77 1224q-41 0 -71 30t-30 71q0 42 30 71t71 29t70.5 -29t29.5 -71q0 -41 -29.5 -71t-70.5 -30zM432 1224q-41 0 -71 30t-30 71q0 42 29.5 71t71.5 29q41 0 70.5 -29t29.5 -71q0 -41 -29.5 -71t-70.5 -30zM185 0v968h135v-968h-135z" />
    <glyph glyph-name="eth" unicode="&#xf0;" horiz-adv-x="1157" 
d="M935 829q122 -165 119 -352q-2 -222 -139 -358t-342 -136q-97 0 -183.5 36.5t-150.5 102t-101 162t-35 209.5q4 222 132.5 355t306.5 138q91 1 173 -39l-223 294l-286 -74l-16 63l259 67l-182 239h146l154 -208l282 73l18 -63l-258 -67zM925 482q4 161 -95 274t-249 113
q-148 0 -245 -100t-101 -276q-4 -175 94 -278.5t248 -103.5q151 0 247.5 98t100.5 273z" />
    <glyph glyph-name="ntilde" unicode="&#xf1;" horiz-adv-x="1094" 
d="M426 1288q-43 0 -68.5 -38t-25.5 -98h-83q0 96 48 157t127 61q100 0 158 -96q34 -53 89 -53q43 0 68 36.5t25 97.5h84q0 -94 -48 -155.5t-127 -61.5q-100 0 -160 95q-36 55 -87 55zM602 986q145 0 235 -87.5t90 -247.5v-651h-134v621q0 126 -63 187.5t-161 61.5
q-110 0 -179.5 -71t-69.5 -204v-595h-135v968h135v-131q93 149 282 149z" />
    <glyph glyph-name="ograve" unicode="&#xf2;" horiz-adv-x="1154" 
d="M529 1146l-224 256l76 57l247 -313h-99zM578 -19q-133 0 -240 61t-170 176.5t-63 266.5q0 226 134 363.5t339 137.5t338 -137.5t133 -363.5q0 -227 -133.5 -365.5t-337.5 -138.5zM577 97q145 0 242.5 107t97.5 281q0 173 -97.5 279t-242.5 106t-241.5 -106t-96.5 -279
q0 -174 96.5 -281t241.5 -107z" />
    <glyph glyph-name="oacute" unicode="&#xf3;" horiz-adv-x="1154" 
d="M519 1146l248 313l76 -57l-224 -256h-100zM578 -19q-133 0 -240 61t-170 176.5t-63 266.5q0 226 134 363.5t339 137.5t338 -137.5t133 -363.5q0 -227 -133.5 -365.5t-337.5 -138.5zM577 97q145 0 242.5 107t97.5 281q0 173 -97.5 279t-242.5 106t-241.5 -106t-96.5 -279
q0 -174 96.5 -281t241.5 -107z" />
    <glyph glyph-name="ocircumflex" unicode="&#xf4;" horiz-adv-x="1154" 
d="M413 1150h-97l206 294h111l206 -294h-99l-163 228zM578 -19q-133 0 -240 61t-170 176.5t-63 266.5q0 226 134 363.5t339 137.5t338 -137.5t133 -363.5q0 -227 -133.5 -365.5t-337.5 -138.5zM577 97q145 0 242.5 107t97.5 281q0 173 -97.5 279t-242.5 106t-241.5 -106
t-96.5 -279q0 -174 96.5 -281t241.5 -107z" />
    <glyph glyph-name="otilde" unicode="&#xf5;" horiz-adv-x="1154" 
d="M705 1137q-100 0 -160 95q-36 55 -87 55q-43 0 -68.5 -38t-25.5 -98h-83q0 96 48 157t127 61q100 0 158 -96q34 -53 89 -53q43 0 68 36.5t25 97.5h84q0 -94 -48 -155.5t-127 -61.5zM578 -19q-133 0 -240 61t-170 176.5t-63 266.5q0 226 134 363.5t339 137.5t338 -137.5
t133 -363.5q0 -227 -133.5 -365.5t-337.5 -138.5zM577 97q145 0 242.5 107t97.5 281q0 173 -97.5 279t-242.5 106t-241.5 -106t-96.5 -279q0 -174 96.5 -281t241.5 -107z" />
    <glyph glyph-name="odieresis" unicode="&#xf6;" horiz-adv-x="1154" 
d="M401 1223q-41 0 -71 30t-30 71q0 42 30 71t71 29t70.5 -29t29.5 -71q0 -41 -29.5 -71t-70.5 -30zM756 1223q-41 0 -71 30t-30 71q0 42 29.5 71t71.5 29q41 0 70.5 -29t29.5 -71q0 -41 -29.5 -71t-70.5 -30zM578 -19q-133 0 -240 61t-170 176.5t-63 266.5q0 226 134 363.5
t339 137.5t338 -137.5t133 -363.5q0 -227 -133.5 -365.5t-337.5 -138.5zM577 97q145 0 242.5 107t97.5 281q0 173 -97.5 279t-242.5 106t-241.5 -106t-96.5 -279q0 -174 96.5 -281t241.5 -107z" />
    <glyph glyph-name="divide" unicode="&#xf7;" horiz-adv-x="1006" 
d="M498 935q-40 0 -68.5 28.5t-28.5 69.5q0 39 29 69t68 30q40 0 70.5 -30t30.5 -69q0 -41 -30 -69.5t-71 -28.5zM140 618v116h723v-116h-723zM498 220q-40 0 -68.5 28.5t-28.5 71.5q0 39 29 68t68 29q41 0 71 -29t30 -68q0 -43 -30 -71.5t-71 -28.5z" />
    <glyph glyph-name="oslash" unicode="&#xf8;" horiz-adv-x="1154" 
d="M898 866q151 -141 151 -381q0 -227 -133.5 -365.5t-337.5 -138.5q-139 0 -250 68l-119 -170l-75 47l123 176q-152 142 -152 383q0 226 134 363.5t339 137.5q141 0 249 -67l120 172l76 -47zM239 485q0 -168 92 -276l425 609q-80 52 -179 52q-145 0 -241.5 -106t-96.5 -279
zM577 97q145 0 242.5 107t97.5 281q0 167 -93 274l-426 -609q79 -53 179 -53z" />
    <glyph glyph-name="ugrave" unicode="&#xf9;" horiz-adv-x="1094" 
d="M600 1147h-99l-224 256l76 57zM774 968h134v-968h-129l-3 134q-44 -73 -117.5 -113t-166.5 -40q-145 0 -235.5 87.5t-90.5 247.5v652h135v-621q0 -125 63.5 -187t162.5 -62q110 0 178.5 71t68.5 203v596z" />
    <glyph glyph-name="uacute" unicode="&#xfa;" horiz-adv-x="1094" 
d="M815 1403l-224 -256h-100l248 313zM774 968h134v-968h-129l-3 134q-44 -73 -117.5 -113t-166.5 -40q-145 0 -235.5 87.5t-90.5 247.5v652h135v-621q0 -125 63.5 -187t162.5 -62q110 0 178.5 71t68.5 203v596z" />
    <glyph glyph-name="ucircumflex" unicode="&#xfb;" horiz-adv-x="1094" 
d="M549 1379l-164 -228h-97l206 294h111l206 -294h-99zM774 968h134v-968h-129l-3 134q-44 -73 -117.5 -113t-166.5 -40q-145 0 -235.5 87.5t-90.5 247.5v652h135v-621q0 -125 63.5 -187t162.5 -62q110 0 178.5 71t68.5 203v596z" />
    <glyph glyph-name="udieresis" unicode="&#xfc;" horiz-adv-x="1094" 
d="M373 1224q-41 0 -71 30t-30 71q0 42 30 71t71 29t70.5 -29t29.5 -71q0 -41 -29.5 -71t-70.5 -30zM728 1224q-41 0 -71 30t-30 71q0 42 29.5 71t71.5 29q41 0 70.5 -29t29.5 -71q0 -41 -29.5 -71t-70.5 -30zM774 968h134v-968h-129l-3 134q-44 -73 -117.5 -113t-166.5 -40
q-145 0 -235.5 87.5t-90.5 247.5v652h135v-621q0 -125 63.5 -187t162.5 -62q110 0 178.5 71t68.5 203v596z" />
    <glyph glyph-name="yacute" unicode="&#xfd;" horiz-adv-x="956" 
d="M744 1403l-224 -256h-100l248 313zM769 968h146l-548 -1424h-142l185 474l-368 950h151l289 -796z" />
    <glyph glyph-name="thorn" unicode="&#xfe;" horiz-adv-x="1230" 
d="M676 986q189 0 318 -138.5t129 -363.5q0 -226 -129 -365t-318 -139q-116 0 -211 62t-145 165v-700h-135v2029h135v-776q49 104 144 165t212 61zM652 100q141 0 238.5 105.5t97.5 278.5q0 172 -97.5 277t-238.5 105q-144 0 -243 -110.5t-99 -271.5q0 -162 99.5 -273
t242.5 -111z" />
    <glyph glyph-name="ydieresis" unicode="&#xff;" horiz-adv-x="956" 
d="M302 1224q-41 0 -71 30t-30 71q0 42 30 71t71 29t70.5 -29t29.5 -71q0 -41 -29.5 -71t-70.5 -30zM657 1224q-41 0 -71 30t-30 71q0 42 29.5 71t71.5 29q41 0 70.5 -29t29.5 -71q0 -41 -29.5 -71t-70.5 -30zM769 968h146l-548 -1424h-142l185 474l-368 950h151l289 -796z
" />
    <glyph glyph-name="Amacron" unicode="&#x100;" horiz-adv-x="1332" 
d="M985 1636v-91h-641v91h641zM1116 0l-126 350h-647l-126 -350h-147l514 1395h164l514 -1395h-146zM389 477h555l-278 772z" />
    <glyph glyph-name="amacron" unicode="&#x101;" horiz-adv-x="1046" 
d="M206 1172v91h641v-91h-641zM404 -19q-129 0 -210.5 67.5t-81.5 198.5q0 72 25.5 124.5t76 87t113 55t148.5 34.5l163 25q84 15 84 91q0 109 -64.5 160.5t-165.5 51.5q-95 0 -160.5 -46.5t-76.5 -140.5l-123 30q20 131 116.5 198.5t247.5 67.5q75 0 138 -18.5t113 -56
t78.5 -103t28.5 -152.5v-417q0 -81 24 -108t79 -27h16v-103h-70q-149 0 -174 133h-6q-114 -152 -319 -152zM435 93q138 0 218.5 103.5t80.5 288.5l-262 -46q-116 -18 -171.5 -60t-55.5 -122q0 -83 52.5 -123.5t137.5 -40.5z" />
    <glyph glyph-name="Abreve" unicode="&#x102;" horiz-adv-x="1332" 
d="M664 1545q-149 0 -239.5 66t-90.5 196h87q0 -94 66.5 -140t176.5 -46q111 0 178 46t67 140h87q0 -130 -91 -196t-241 -66zM1116 0l-126 350h-647l-126 -350h-147l514 1395h164l514 -1395h-146zM389 477h555l-278 772z" />
    <glyph glyph-name="abreve" unicode="&#x103;" horiz-adv-x="1046" 
d="M525 1139q-143 0 -236.5 85t-93.5 221h90q0 -100 68 -165t172 -65q106 0 174 65t68 165h90q0 -137 -93.5 -221.5t-238.5 -84.5zM404 -19q-129 0 -210.5 67.5t-81.5 198.5q0 72 25.5 124.5t76 87t113 55t148.5 34.5l163 25q84 15 84 91q0 109 -64.5 160.5t-165.5 51.5
q-95 0 -160.5 -46.5t-76.5 -140.5l-123 30q20 131 116.5 198.5t247.5 67.5q75 0 138 -18.5t113 -56t78.5 -103t28.5 -152.5v-417q0 -81 24 -108t79 -27h16v-103h-70q-149 0 -174 133h-6q-114 -152 -319 -152zM435 93q138 0 218.5 103.5t80.5 288.5l-262 -46
q-116 -18 -171.5 -60t-55.5 -122q0 -83 52.5 -123.5t137.5 -40.5z" />
    <glyph glyph-name="Aogonek" unicode="&#x104;" horiz-adv-x="1332" 
d="M1095 -231q0 -45 81 -45q45 0 86 26v-108q-42 -15 -96 -15q-170 0 -170 89q0 52 51.5 123t135.5 161h-67l-126 350h-647l-126 -350h-147l514 1395h164l514 -1395q-3 -3 -42.5 -45t-60 -66t-42.5 -60.5t-22 -59.5zM389 477h555l-278 772z" />
    <glyph glyph-name="aogonek" unicode="&#x105;" horiz-adv-x="1046" 
d="M973 103v-103q-3 -3 -42.5 -45t-60 -66t-42.5 -60.5t-22 -59.5q0 -45 81 -45q45 0 86 26v-108q-42 -15 -96 -15q-170 0 -170 89q0 85 188 284q-143 5 -166 133h-6q-114 -152 -319 -152q-129 0 -210.5 67.5t-81.5 198.5q0 72 25.5 124.5t76 87t113 55t148.5 34.5l163 25
q84 15 84 91q0 109 -64.5 160.5t-165.5 51.5q-95 0 -160.5 -46.5t-76.5 -140.5l-123 30q20 131 116.5 198.5t247.5 67.5q75 0 138 -18.5t113 -56t78.5 -103t28.5 -152.5v-417q0 -81 24 -108t79 -27h16zM435 93q138 0 218.5 103.5t80.5 288.5l-262 -46q-116 -18 -171.5 -60
t-55.5 -122q0 -83 52.5 -123.5t137.5 -40.5z" />
    <glyph glyph-name="Cacute" unicode="&#x106;" horiz-adv-x="1520" 
d="M764 1545l248 313l76 -57l-224 -256h-100zM822 -19q-194 0 -349 84.5t-247 249t-92 383.5q0 218 92 382.5t247 249t349 84.5q200 0 359 -92.5t243 -259.5l-126 -56q-69 131 -194.5 201.5t-281.5 70.5q-115 0 -214.5 -39t-174.5 -111t-118 -183t-43 -247t43 -247.5
t118 -183.5t174.5 -111t214.5 -39q156 0 281.5 70.5t194.5 201.5l126 -56q-84 -167 -243 -259.5t-359 -92.5z" />
    <glyph glyph-name="cacute" unicode="&#x107;" horiz-adv-x="1092" 
d="M508 1147l248 313l76 -57l-224 -256h-100zM573 -17q-203 0 -336.5 139t-133.5 363t133.5 362.5t336.5 138.5q153 0 268.5 -81.5t163.5 -224.5l-127 -26q-37 102 -119 159t-186 57q-145 0 -240.5 -106t-95.5 -279t95.5 -279.5t240.5 -106.5q104 0 186 57t119 159l127 -25
q-48 -144 -163.5 -225.5t-268.5 -81.5z" />
    <glyph glyph-name="Cdotaccent" unicode="&#x10a;" horiz-adv-x="1520" 
d="M823 1536q-41 0 -71 30t-30 70q0 42 30 71t71 29t70.5 -29t29.5 -71q0 -40 -29.5 -70t-70.5 -30zM822 -19q-194 0 -349 84.5t-247 249t-92 383.5q0 218 92 382.5t247 249t349 84.5q200 0 359 -92.5t243 -259.5l-126 -56q-69 131 -194.5 201.5t-281.5 70.5
q-115 0 -214.5 -39t-174.5 -111t-118 -183t-43 -247t43 -247.5t118 -183.5t174.5 -111t214.5 -39q156 0 281.5 70.5t194.5 201.5l126 -56q-84 -167 -243 -259.5t-359 -92.5z" />
    <glyph glyph-name="cdotaccent" unicode="&#x10b;" horiz-adv-x="1092" 
d="M567 1224q-41 0 -71 30t-30 71q0 42 30 71t71 29t70.5 -29t29.5 -71q0 -41 -29.5 -71t-70.5 -30zM573 -17q-203 0 -336.5 139t-133.5 363t133.5 362.5t336.5 138.5q153 0 268.5 -81.5t163.5 -224.5l-127 -26q-37 102 -119 159t-186 57q-145 0 -240.5 -106t-95.5 -279
t95.5 -279.5t240.5 -106.5q104 0 186 57t119 159l127 -25q-48 -144 -163.5 -225.5t-268.5 -81.5z" />
    <glyph glyph-name="Ccaron" unicode="&#x10c;" horiz-adv-x="1520" 
d="M766 1545l-206 294h98l163 -230l164 230h99l-206 -294h-112zM822 -19q-194 0 -349 84.5t-247 249t-92 383.5q0 218 92 382.5t247 249t349 84.5q200 0 359 -92.5t243 -259.5l-126 -56q-69 131 -194.5 201.5t-281.5 70.5q-115 0 -214.5 -39t-174.5 -111t-118 -183t-43 -247
t43 -247.5t118 -183.5t174.5 -111t214.5 -39q156 0 281.5 70.5t194.5 201.5l126 -56q-84 -167 -243 -259.5t-359 -92.5z" />
    <glyph glyph-name="ccaron" unicode="&#x10d;" horiz-adv-x="1092" 
d="M510 1151l-206 294h98l163 -230l164 230h99l-206 -294h-112zM573 -17q-203 0 -336.5 139t-133.5 363t133.5 362.5t336.5 138.5q153 0 268.5 -81.5t163.5 -224.5l-127 -26q-37 102 -119 159t-186 57q-145 0 -240.5 -106t-95.5 -279t95.5 -279.5t240.5 -106.5q104 0 186 57
t119 159l127 -25q-48 -144 -163.5 -225.5t-268.5 -81.5z" />
    <glyph glyph-name="Dcaron" unicode="&#x10e;" horiz-adv-x="1439" 
d="M537 1545l-206 294h98l163 -230l164 230h99l-206 -294h-112zM232 0v1395h431q205 0 350.5 -90.5t216 -246t70.5 -360.5q0 -153 -41 -280.5t-119.5 -220.5t-200.5 -145t-276 -52h-431zM371 128h289q244 0 370.5 153.5t126.5 416.5t-126.5 416t-370.5 153h-289v-1139z" />
    <glyph glyph-name="dcaron" unicode="&#x10f;" horiz-adv-x="1339" 
d="M546 -19q-186 0 -313 140.5t-127 363.5q0 221 127.5 361.5t312.5 140.5q115 0 210 -61t149 -166l2 776h133v-1536h-135v210q-54 -105 -149 -167t-210 -62zM1207 927l124 609h143l-165 -609h-102zM580 101q142 0 239 111t97 273t-97.5 273t-238.5 111q-144 0 -241.5 -107
t-97.5 -277t97.5 -277t241.5 -107z" />
    <glyph glyph-name="Dcroat" unicode="&#x110;" horiz-adv-x="1439" 
d="M663 1395q205 0 350.5 -90.5t216 -246t70.5 -360.5q0 -153 -41 -280.5t-119.5 -220.5t-200.5 -145t-276 -52h-431v651h-165v94h165v650h431zM660 128q244 0 370.5 153.5t126.5 416.5t-126.5 416t-370.5 153h-289v-522h274v-94h-274v-523h289z" />
    <glyph glyph-name="dcroat" unicode="&#x111;" horiz-adv-x="1230" 
d="M1212 1284v-94h-168v-1190h-131l-2 210q-50 -104 -145.5 -167t-212.5 -63q-92 0 -174 36.5t-142.5 101.5t-96 160t-35.5 206t36 205.5t96.5 159t142.5 101t173 36.5q117 0 212.5 -61t144.5 -165v430h-276v94h276v252h134v-252h168zM580 100q142 0 240 111t98 273
q0 161 -98.5 272.5t-239.5 111.5q-144 0 -242 -107.5t-98 -276.5t98 -276.5t242 -107.5z" />
    <glyph glyph-name="Emacron" unicode="&#x112;" horiz-adv-x="1081" 
d="M918 1636v-91h-641v91h641zM960 1267h-584v-507h513v-127h-513v-505h584v-128h-728v1395h728v-128z" />
    <glyph glyph-name="emacron" unicode="&#x113;" horiz-adv-x="1114" 
d="M897 1266v-91h-641v91h641zM1010 506l-3 -41h-770q3 -177 98.5 -272.5t237.5 -95.5q94 0 172.5 51t121.5 139l120 -31q-55 -127 -165 -201t-247 -74q-206 0 -337 135.5t-131 367.5q0 116 35.5 211.5t98 159t147.5 98t184 34.5q197 0 317 -125t121 -356zM572 878
q-131 0 -220.5 -79t-109.5 -227h632q-9 151 -90.5 228.5t-211.5 77.5z" />
    <glyph glyph-name="Edotaccent" unicode="&#x116;" horiz-adv-x="1081" 
d="M598 1536q-41 0 -71 30t-30 70q0 42 30 71t71 29t70.5 -29t29.5 -71q0 -40 -30 -70t-70 -30zM960 1267h-584v-507h513v-127h-513v-505h584v-128h-728v1395h728v-128z" />
    <glyph glyph-name="edotaccent" unicode="&#x117;" horiz-adv-x="1114" 
d="M577 1227q-41 0 -71 30t-30 71q0 42 30 71t71 29t70.5 -29t29.5 -71q0 -41 -29.5 -71t-70.5 -30zM1010 506l-3 -41h-770q3 -177 98.5 -272.5t237.5 -95.5q94 0 172.5 51t121.5 139l120 -31q-55 -127 -165 -201t-247 -74q-206 0 -337 135.5t-131 367.5q0 116 35.5 211.5
t98 159t147.5 98t184 34.5q197 0 317 -125t121 -356zM572 878q-131 0 -220.5 -79t-109.5 -227h632q-9 151 -90.5 228.5t-211.5 77.5z" />
    <glyph glyph-name="Eogonek" unicode="&#x118;" horiz-adv-x="1081" 
d="M960 1267h-584v-507h513v-127h-513v-505h584v-128q-3 -3 -42.5 -45t-60 -66t-42.5 -60.5t-22 -59.5q0 -45 81 -45q45 0 86 26v-108q-42 -15 -96 -15q-170 0 -170 89q0 52 51.5 123t135.5 161h-649v1395h728v-128z" />
    <glyph glyph-name="eogonek" unicode="&#x119;" horiz-adv-x="1114" 
d="M1010 506l-3 -41h-770q3 -177 98.5 -272.5t237.5 -95.5q94 0 172.5 51t121.5 139l120 -31q-29 -68 -78 -125q-3 -3 -42.5 -45t-60 -66t-42.5 -60.5t-22 -59.5q0 -45 81 -45q45 0 86 26v-108q-42 -15 -96 -15q-170 0 -170 89q0 56 77 158q-68 -24 -145 -24
q-206 0 -337 135.5t-131 367.5q0 116 35.5 211.5t98 159t147.5 98t184 34.5q197 0 317 -125t121 -356zM572 878q-131 0 -220.5 -79t-109.5 -227h632q-9 151 -90.5 228.5t-211.5 77.5z" />
    <glyph glyph-name="Ecaron" unicode="&#x11a;" horiz-adv-x="1081" 
d="M653 1545h-112l-206 294h98l163 -230l164 230h99zM960 1267h-584v-507h513v-127h-513v-505h584v-128h-728v1395h728v-128z" />
    <glyph glyph-name="ecaron" unicode="&#x11b;" horiz-adv-x="1114" 
d="M632 1154h-112l-206 294h98l163 -230l164 230h99zM1010 506l-3 -41h-770q3 -177 98.5 -272.5t237.5 -95.5q94 0 172.5 51t121.5 139l120 -31q-55 -127 -165 -201t-247 -74q-206 0 -337 135.5t-131 367.5q0 116 35.5 211.5t98 159t147.5 98t184 34.5q197 0 317 -125
t121 -356zM572 878q-131 0 -220.5 -79t-109.5 -227h632q-9 151 -90.5 228.5t-211.5 77.5z" />
    <glyph glyph-name="Gbreve" unicode="&#x11e;" horiz-adv-x="1626" 
d="M812 1545q-149 0 -239.5 66t-90.5 196h87q0 -94 66.5 -140t176.5 -46q111 0 178 46t67 140h87q0 -130 -91 -196t-241 -66zM821 -19q-145 0 -270 48.5t-218 138t-146 225t-53 301.5t53 303t146 227.5t218.5 140t270.5 49.5q190 0 344 -83t242 -241l-123 -66
q-71 128 -192 192.5t-271 64.5q-116 0 -215.5 -39t-173.5 -111.5t-116.5 -184.5t-42.5 -250t42.5 -249.5t117 -184t174.5 -111.5t218 -39q209 0 344.5 120.5t156.5 341.5h-502v122h640v-696h-117v286q-71 -147 -206.5 -226t-320.5 -79z" />
    <glyph glyph-name="gbreve" unicode="&#x11f;" horiz-adv-x="1216" 
d="M561 1139q-143 0 -236.5 85t-93.5 221h90q0 -100 68 -165t172 -65q106 0 174 65t68 165h90q0 -137 -93.5 -221.5t-238.5 -84.5zM899 968h132v-926q0 -236 -121 -369.5t-336 -133.5q-169 0 -285 76t-175 219l112 60q86 -238 345 -238q157 0 241 101t84 279v206
q-46 -97 -143.5 -157t-212.5 -60q-90 0 -171.5 36.5t-141 99.5t-95 153.5t-35.5 192.5q0 206 130 342.5t314 136.5q116 0 213 -59.5t143 -158.5zM566 144q141 0 240 107.5t99 255.5t-99 255.5t-240 107.5q-140 0 -238 -104t-98 -259q0 -154 98.5 -258.5t237.5 -104.5z" />
    <glyph glyph-name="Gdotaccent" unicode="&#x120;" horiz-adv-x="1626" 
d="M813 1536q-41 0 -71 30t-30 70q0 42 30 71t71 29t70.5 -29t29.5 -71q0 -40 -29.5 -70t-70.5 -30zM821 -19q-145 0 -270 48.5t-218 138t-146 225t-53 301.5t53 303t146 227.5t218.5 140t270.5 49.5q190 0 344 -83t242 -241l-123 -66q-71 128 -192 192.5t-271 64.5
q-116 0 -215.5 -39t-173.5 -111.5t-116.5 -184.5t-42.5 -250t42.5 -249.5t117 -184t174.5 -111.5t218 -39q209 0 344.5 120.5t156.5 341.5h-502v122h640v-696h-117v286q-71 -147 -206.5 -226t-320.5 -79z" />
    <glyph glyph-name="gdotaccent" unicode="&#x121;" horiz-adv-x="1216" 
d="M563 1224q-41 0 -71 30t-30 71q0 42 30 71t71 29t70.5 -29t29.5 -71q0 -41 -29.5 -71t-70.5 -30zM899 968h132v-926q0 -236 -121 -369.5t-336 -133.5q-169 0 -285 76t-175 219l112 60q86 -238 345 -238q157 0 241 101t84 279v206q-46 -97 -143.5 -157t-212.5 -60
q-90 0 -171.5 36.5t-141 99.5t-95 153.5t-35.5 192.5q0 206 130 342.5t314 136.5q116 0 213 -59.5t143 -158.5zM566 144q141 0 240 107.5t99 255.5t-99 255.5t-240 107.5q-140 0 -238 -104t-98 -259q0 -154 98.5 -258.5t237.5 -104.5z" />
    <glyph glyph-name="Gcommaaccent" unicode="&#x122;" horiz-adv-x="1626" 
d="M821 -19q-145 0 -270 48.5t-218 138t-146 225t-53 301.5t53 303t146 227.5t218.5 140t270.5 49.5q190 0 344 -83t242 -241l-123 -66q-71 128 -192 192.5t-271 64.5q-116 0 -215.5 -39t-173.5 -111.5t-116.5 -184.5t-42.5 -250t42.5 -249.5t117 -184t174.5 -111.5t218 -39
q209 0 344.5 120.5t156.5 341.5h-502v122h640v-696h-117v286q-71 -147 -206.5 -226t-320.5 -79zM664 -554l-76 33l158 363h128z" />
    <glyph glyph-name="gcommaaccent" unicode="&#x123;" horiz-adv-x="1216" 
d="M698 1436l-121 -299h-143l164 299h100zM899 968h132v-926q0 -236 -121 -369.5t-336 -133.5q-169 0 -285 76t-175 219l112 60q86 -238 345 -238q157 0 241 101t84 279v206q-46 -97 -143.5 -157t-212.5 -60q-90 0 -171.5 36.5t-141 99.5t-95 153.5t-35.5 192.5
q0 206 130 342.5t314 136.5q116 0 213 -59.5t143 -158.5zM566 144q141 0 240 107.5t99 255.5t-99 255.5t-240 107.5q-140 0 -238 -104t-98 -259q0 -154 98.5 -258.5t237.5 -104.5z" />
    <glyph glyph-name="Hbar" unicode="&#x126;" horiz-adv-x="1490" 
d="M1402 1128v-83h-144v-1045h-139v635h-746v-635h-141v1045h-146v83h146v267h141v-267h746v267h139v-267h144zM1119 762v283h-746v-283h746z" />
    <glyph glyph-name="hbar" unicode="&#x127;" horiz-adv-x="1094" 
d="M605 986q143 0 232.5 -89t89.5 -252v-645h-134v618q0 128 -63 190t-162 62q-108 0 -178 -71t-70 -204v-595h-135v1191h-138v94h138v251h135v-251h305v-94h-305v-356q45 73 118 112t167 39z" />
    <glyph glyph-name="Itilde" unicode="&#x128;" horiz-adv-x="603" 
d="M441 1534q-61 0 -99.5 27.5t-70.5 73.5q-16 24 -27.5 37t-32.5 25t-46 12q-54 0 -85.5 -44.5t-31.5 -115.5h-76q0 104 52.5 170t141.5 66q57 0 95 -27t69 -73q17 -23 28 -36t33.5 -25.5t49.5 -12.5q54 0 84.5 42t30.5 114h78q0 -102 -52 -167.5t-141 -65.5zM232 0v1395
h139v-1395h-139z" />
    <glyph glyph-name="itilde" unicode="&#x129;" horiz-adv-x="506" 
d="M381 1138q-100 0 -160 95q-36 55 -87 55q-43 0 -68.5 -38t-25.5 -98h-83q0 96 48 157t127 61q100 0 158 -96q34 -53 89 -53q43 0 68 36.5t25 97.5h84q0 -94 -48 -155.5t-127 -61.5zM185 0v968h135v-968h-135z" />
    <glyph glyph-name="Imacron" unicode="&#x12a;" horiz-adv-x="603" 
d="M-20 1545v91h641v-91h-641zM232 0v1395h139v-1395h-139z" />
    <glyph glyph-name="imacron" unicode="&#x12b;" horiz-adv-x="506" 
d="M-67 1172v91h641v-91h-641zM185 0v968h135v-968h-135z" />
    <glyph glyph-name="Iogonek" unicode="&#x12e;" horiz-adv-x="603" 
d="M206 -231q0 -45 81 -45q45 0 86 26v-108q-42 -15 -96 -15q-170 0 -170 89q0 52 51.5 123t135.5 161h-62v1395h139v-1394l2 -1q-3 -3 -42.5 -45t-60 -66t-42.5 -60.5t-22 -59.5z" />
    <glyph glyph-name="iogonek" unicode="&#x12f;" horiz-adv-x="506" 
d="M254 1425q41 0 70.5 -29t29.5 -71q0 -41 -29.5 -71t-70.5 -30t-71 30t-30 71q0 42 30 71t71 29zM185 0v968h135v-968q-3 -3 -42.5 -45t-60 -66t-42.5 -60.5t-22 -59.5q0 -45 81 -45q45 0 86 26v-108q-42 -15 -96 -15q-170 0 -170 89q0 52 51.5 123t135.5 161h-56z" />
    <glyph glyph-name="Idotaccent" unicode="&#x130;" horiz-adv-x="603" 
d="M301 1536q-41 0 -71 30t-30 70q0 42 30 71t71 29t70.5 -29t29.5 -71q0 -40 -29.5 -70t-70.5 -30zM232 0v1395h139v-1395h-139z" />
    <glyph glyph-name="dotlessi" unicode="&#x131;" horiz-adv-x="506" 
d="M185 0v968h135v-968h-135z" />
    <glyph glyph-name="Kcommaaccent" unicode="&#x136;" horiz-adv-x="1267" 
d="M620 731l584 -731h-178l-526 664h-129v-664h-139v1395h139v-604h129l500 604h171zM389 -521l158 363h128l-210 -396z" />
    <glyph glyph-name="kcommaaccent" unicode="&#x137;" horiz-adv-x="994" 
d="M519 528l451 -528h-178l-386 463h-85v-463h-136v1536h136v-964h80l347 396h165zM273 -521l158 363h128l-210 -396z" />
    <glyph glyph-name="Lacute" unicode="&#x139;" horiz-adv-x="934" 
d="M567 1801l-224 -256h-100l248 313zM371 128h500v-128h-639v1395h139v-1267z" />
    <glyph glyph-name="lacute" unicode="&#x13a;" horiz-adv-x="506" 
d="M195 1715l248 313l76 -57l-224 -256h-100zM185 0v1536h136v-1536h-136z" />
    <glyph glyph-name="Lcommaaccent" unicode="&#x13b;" horiz-adv-x="934" 
d="M371 128h500v-128h-639v1395h139v-1267zM327 -521l158 363h128l-210 -396z" />
    <glyph glyph-name="lcommaaccent" unicode="&#x13c;" horiz-adv-x="506" 
d="M185 0v1536h136v-1536h-136zM105 -554l-76 33l158 363h128z" />
    <glyph glyph-name="Lcaron" unicode="&#x13d;" horiz-adv-x="1002" 
d="M371 1395v-1267h500v-128h-639v1395h139zM885 1395l-164 -609h-100l121 609h143z" />
    <glyph glyph-name="lcaron" unicode="&#x13e;" horiz-adv-x="585" 
d="M185 0v1536h132v-1536h-132zM456 927l123 609h143l-164 -609h-102z" />
    <glyph glyph-name="Lslash" unicode="&#x141;" horiz-adv-x="934" 
d="M371 128h500v-128h-639v572l-161 -121v110l161 121v713h139v-608l208 156v-110l-208 -156v-549z" />
    <glyph glyph-name="lslash" unicode="&#x142;" horiz-adv-x="506" 
d="M505 945v-110l-184 -138v-697h-136v594l-188 -141v110l188 141v832h136v-729z" />
    <glyph glyph-name="Nacute" unicode="&#x143;" horiz-adv-x="1535" 
d="M1032 1801l-224 -256h-100l248 313zM1165 1395h137v-1395h-136l-799 1173v-1173h-135v1395h135l798 -1168v1168z" />
    <glyph glyph-name="nacute" unicode="&#x144;" horiz-adv-x="1094" 
d="M811 1403l-224 -256h-100l248 313zM602 986q145 0 235 -87.5t90 -247.5v-651h-134v621q0 126 -63 187.5t-161 61.5q-110 0 -179.5 -71t-69.5 -204v-595h-135v968h135v-131q93 149 282 149z" />
    <glyph glyph-name="Ncommaaccent" unicode="&#x145;" horiz-adv-x="1535" 
d="M1165 1395h137v-1395h-136l-799 1173v-1173h-135v1395h135l798 -1168v1168zM544 -521l158 363h128l-210 -396z" />
    <glyph glyph-name="ncommaaccent" unicode="&#x146;" horiz-adv-x="1094" 
d="M602 986q145 0 235 -87.5t90 -247.5v-651h-134v621q0 126 -63 187.5t-161 61.5q-110 0 -179.5 -71t-69.5 -204v-595h-135v968h135v-131q93 149 282 149zM323 -521l158 363h128l-210 -396z" />
    <glyph glyph-name="Ncaron" unicode="&#x147;" horiz-adv-x="1535" 
d="M822 1545h-112l-206 294h98l163 -230l164 230h99zM1165 1395h137v-1395h-136l-799 1173v-1173h-135v1395h135l798 -1168v1168z" />
    <glyph glyph-name="ncaron" unicode="&#x148;" horiz-adv-x="1094" 
d="M601 1151h-112l-206 294h98l163 -230l164 230h99zM602 986q145 0 235 -87.5t90 -247.5v-651h-134v621q0 126 -63 187.5t-161 61.5q-110 0 -179.5 -71t-69.5 -204v-595h-135v968h135v-131q93 149 282 149z" />
    <glyph glyph-name="Eng" unicode="&#x14a;" horiz-adv-x="1575" 
d="M1207 1395h136v-1395q0 -220 -127 -339t-342 -119v114q156 0 250 88.5t85 255.5l-843 1179v-1179h-134v1395h131l844 -1172v1172z" />
    <glyph glyph-name="eng" unicode="&#x14b;" horiz-adv-x="1096" 
d="M599 986q149 0 239.5 -89.5t90.5 -257.5v-825q0 -120 -68.5 -195t-180.5 -75h-118v105h90q61 0 101.5 44t40.5 115v813q0 127 -64 188t-168 61q-105 0 -173.5 -65.5t-68.5 -195.5v-609h-135v968h135v-116q46 64 118.5 99t160.5 35z" />
    <glyph glyph-name="Omacron" unicode="&#x14c;" horiz-adv-x="1643" 
d="M501 1545v91h641v-91h-641zM822 -19q-194 0 -349 84.5t-247 249t-92 383.5q0 218 92 382.5t247 249t349 84.5q144 0 269 -49.5t218 -140t146.5 -226.5t53.5 -300q0 -165 -53.5 -301t-146.5 -226.5t-218 -140t-269 -49.5zM822 115q115 0 214 39t173.5 111.5t117 184
t42.5 248.5q0 136 -42.5 247t-117 183t-173.5 111t-214 39t-214.5 -39t-174.5 -111t-118 -183t-43 -247q0 -137 43 -248.5t118 -184t174.5 -111.5t214.5 -39z" />
    <glyph glyph-name="omacron" unicode="&#x14d;" horiz-adv-x="1154" 
d="M257 1171v91h641v-91h-641zM578 -19q-133 0 -240 61t-170 176.5t-63 266.5q0 226 134 363.5t339 137.5t338 -137.5t133 -363.5q0 -227 -133.5 -365.5t-337.5 -138.5zM577 97q145 0 242.5 107t97.5 281q0 173 -97.5 279t-242.5 106t-241.5 -106t-96.5 -279
q0 -174 96.5 -281t241.5 -107z" />
    <glyph glyph-name="Ohungarumlaut" unicode="&#x150;" horiz-adv-x="1643" 
d="M594 1545l248 313l76 -57l-224 -256h-100zM948 1545l248 313l76 -57l-224 -256h-100zM822 -19q-194 0 -349 84.5t-247 249t-92 383.5q0 218 92 382.5t247 249t349 84.5q144 0 269 -49.5t218 -140t146.5 -226.5t53.5 -300q0 -165 -53.5 -301t-146.5 -226.5t-218 -140
t-269 -49.5zM822 115q115 0 214 39t173.5 111.5t117 184t42.5 248.5q0 136 -42.5 247t-117 183t-173.5 111t-214 39t-214.5 -39t-174.5 -111t-118 -183t-43 -247q0 -137 43 -248.5t118 -184t174.5 -111.5t214.5 -39z" />
    <glyph glyph-name="ohungarumlaut" unicode="&#x151;" horiz-adv-x="1154" 
d="M350 1146l248 313l76 -57l-224 -256h-100zM704 1146l248 313l76 -57l-224 -256h-100zM578 -19q-133 0 -240 61t-170 176.5t-63 266.5q0 226 134 363.5t339 137.5t338 -137.5t133 -363.5q0 -227 -133.5 -365.5t-337.5 -138.5zM577 97q145 0 242.5 107t97.5 281
q0 173 -97.5 279t-242.5 106t-241.5 -106t-96.5 -279q0 -174 96.5 -281t241.5 -107z" />
    <glyph glyph-name="OE" unicode="&#x152;" horiz-adv-x="1945" 
d="M843 0q-352 0 -530.5 183.5t-178.5 515.5q0 330 178.5 513t530.5 183h981v-128h-624v-505h538v-129h-538v-505h624v-128h-981zM848 128h215v1139h-215q-295 0 -434 -144.5t-139 -423.5q0 -280 139 -425.5t434 -145.5z" />
    <glyph glyph-name="oe" unicode="&#x153;" horiz-adv-x="1927" 
d="M1824 506l-3 -41h-770q3 -177 98.5 -272.5t237.5 -95.5q94 0 172.5 51t121.5 139l120 -31q-55 -127 -165 -201t-247 -74q-135 0 -241 60t-165 171q-61 -110 -167 -170.5t-238 -60.5q-133 0 -240 61t-170 176.5t-63 266.5q0 226 134 363.5t339 137.5q132 0 238.5 -60.5
t167.5 -169.5q59 110 164.5 170.5t237.5 60.5q197 0 317 -125t121 -356zM1386 878q-131 0 -220.5 -79t-109.5 -227h632q-9 151 -90.5 228.5t-211.5 77.5zM577 97q145 0 242.5 107t97.5 281q0 173 -97.5 279t-242.5 106t-241.5 -106t-96.5 -279q0 -174 96.5 -281t241.5 -107z
" />
    <glyph glyph-name="Racute" unicode="&#x154;" horiz-adv-x="1254" 
d="M893 1801l-224 -256h-100l248 313zM994 0l-357 635h-266v-635h-139v1395h448q198 0 304 -108.5t106 -277.5q0 -147 -83 -246.5t-232 -121.5l379 -641h-160zM371 1270v-518h293q145 0 218.5 69.5t73.5 187.5t-74 189.5t-218 71.5h-293z" />
    <glyph glyph-name="racute" unicode="&#x155;" horiz-adv-x="651" 
d="M602 1403l-224 -256h-100l248 313zM318 790q36 86 118 136t185 52v-132q-143 0 -222.5 -76t-79.5 -237v-533h-134v968h133v-178z" />
    <glyph glyph-name="Rcommaaccent" unicode="&#x156;" horiz-adv-x="1254" 
d="M775 641l379 -641h-160l-357 635h-266v-635h-139v1395h448q198 0 304 -108.5t106 -277.5q0 -147 -83 -246.5t-232 -121.5zM371 1270v-518h293q145 0 218.5 69.5t73.5 187.5t-74 189.5t-218 71.5h-293zM405 -521l158 363h128l-210 -396z" />
    <glyph glyph-name="rcommaaccent" unicode="&#x157;" horiz-adv-x="651" 
d="M318 790q36 86 118 136t185 52v-132q-143 0 -222.5 -76t-79.5 -237v-533h-134v968h133v-178zM31 -521l158 363h128l-210 -396z" />
    <glyph glyph-name="Rcaron" unicode="&#x158;" horiz-adv-x="1254" 
d="M683 1545h-112l-206 294h98l163 -230l164 230h99zM994 0l-357 635h-266v-635h-139v1395h448q198 0 304 -108.5t106 -277.5q0 -147 -83 -246.5t-232 -121.5l379 -641h-160zM371 1270v-518h293q145 0 218.5 69.5t73.5 187.5t-74 189.5t-218 71.5h-293z" />
    <glyph glyph-name="rcaron" unicode="&#x159;" horiz-adv-x="651" 
d="M392 1151h-112l-206 294h98l163 -230l164 230h99zM318 790q36 86 118 136t185 52v-132q-143 0 -222.5 -76t-79.5 -237v-533h-134v968h133v-178z" />
    <glyph glyph-name="Sacute" unicode="&#x15a;" horiz-adv-x="1262" 
d="M571 1545l248 313l76 -57l-224 -256h-100zM653 -19q-214 0 -356.5 95.5t-180.5 262.5l139 34q28 -124 137 -195.5t265 -71.5q67 0 125 14t108 43.5t78 82.5t27 124q-1 34 -9 63t-26 52.5t-37.5 42.5t-51 35.5t-58 28t-67.5 24.5t-70 20.5t-74 19.5q-5 1 -8 2
q-59 15 -95.5 25.5t-88 29t-83.5 37t-68.5 47t-56.5 61.5t-33.5 78t-13.5 99q0 94 37 167.5t101 119t144 69t171 23.5q193 0 329 -84t173 -245l-135 -35q-29 118 -128.5 178.5t-235.5 60.5q-60 0 -114.5 -14t-100.5 -43t-73.5 -80t-27.5 -118q0 -41 12 -74t39 -58.5
t54.5 -43.5t74.5 -35t81.5 -27t92.5 -24q190 -47 270 -84q178 -81 209 -237q8 -37 8 -79q0 -100 -39 -176.5t-107 -122.5t-153.5 -69t-183.5 -23z" />
    <glyph glyph-name="sacute" unicode="&#x15b;" horiz-adv-x="929" 
d="M410 1147l248 313l76 -57l-224 -256h-100zM479 -19q-152 0 -253.5 71t-122.5 198l120 35q15 -91 83 -143.5t171 -52.5q57 0 103.5 15t79 54t30.5 99q-1 33 -13.5 59t-33.5 43.5t-52.5 32t-66 25t-79.5 23.5l-33 9q-51 15 -84 26.5t-74.5 33.5t-65 48t-40.5 67t-17 93
q0 132 93.5 200t234.5 68q136 0 230 -63.5t114 -188.5l-115 -31q-14 88 -77.5 133.5t-149.5 45.5q-38 0 -72.5 -9t-64 -27t-47.5 -49.5t-18 -72.5q0 -25 7.5 -45.5t17 -35t31.5 -28.5t36 -21.5t47 -18t48 -14.5t54 -14q59 -15 94 -25.5t83.5 -33.5t76 -50.5t47.5 -73
t20 -103.5q0 -140 -97.5 -209.5t-244.5 -69.5z" />
    <glyph glyph-name="Scedilla" unicode="&#x15e;" horiz-adv-x="1262" 
d="M1136 372q0 -99 -38.5 -175t-105.5 -122t-150.5 -69.5t-180.5 -24.5l-58 -123q47 7 59 7q88 0 144.5 -53t56.5 -138q0 -87 -59 -146.5t-146 -59.5q-68 0 -135 35.5t-100 87.5l72 34q25 -34 71.5 -56.5t90.5 -22.5q53 0 90 37t37 91q0 57 -37.5 89.5t-96.5 32.5
q-43 0 -82 -18l-66 45l79 161q-186 16 -308 109.5t-157 245.5l139 34q28 -124 137 -195.5t265 -71.5q67 0 125 14t108 43.5t78 82.5t27 124q-1 34 -9 63t-26 52.5t-37.5 42.5t-51 35.5t-58 28t-67.5 24.5t-70 20.5t-74 19.5q-5 1 -8 2q-59 15 -95.5 25.5t-88 29t-83.5 37
t-68.5 47t-56.5 61.5t-33.5 78t-13.5 99q0 94 37 167.5t101 119t144 69t171 23.5q193 0 329 -84t173 -245l-135 -35q-29 118 -128.5 178.5t-235.5 60.5q-60 0 -114.5 -14t-100.5 -43t-73.5 -80t-27.5 -118q0 -41 12 -74t39 -58.5t54.5 -43.5t74.5 -35t81.5 -27t92.5 -24
q190 -47 270 -84q178 -81 209 -237q8 -37 8 -79z" />
    <glyph glyph-name="scedilla" unicode="&#x15f;" horiz-adv-x="929" 
d="M821 260q0 -69 -26 -123t-71 -86.5t-101.5 -50t-122.5 -19.5l-58 -123q47 7 59 7q88 0 144.5 -53t56.5 -138q0 -87 -59 -146.5t-146 -59.5q-68 0 -135 35.5t-100 87.5l72 34q25 -34 71.5 -56.5t90.5 -22.5q53 0 90 37t37 91q0 57 -37.5 89.5t-96.5 32.5q-43 0 -82 -18
l-66 45l79 161q-129 14 -213.5 83t-103.5 183l120 35q15 -91 83 -143.5t171 -52.5q57 0 103.5 15t79 54t30.5 99q-1 33 -13.5 59t-33.5 43.5t-52.5 32t-66 25t-79.5 23.5l-33 9q-51 15 -84 26.5t-74.5 33.5t-65 48t-40.5 67t-17 93q0 132 93.5 200t234.5 68q136 0 230 -63.5
t114 -188.5l-115 -31q-14 88 -77.5 133.5t-149.5 45.5q-38 0 -72.5 -9t-64 -27t-47.5 -49.5t-18 -72.5q0 -25 7.5 -45.5t17 -35t31.5 -28.5t36 -21.5t47 -18t48 -14.5t54 -14q59 -15 94 -25.5t83.5 -33.5t76 -50.5t47.5 -73t20 -103.5z" />
    <glyph glyph-name="Scaron" unicode="&#x160;" horiz-adv-x="1262" 
d="M573 1545l-206 294h98l163 -230l164 230h99l-206 -294h-112zM653 -19q-214 0 -356.5 95.5t-180.5 262.5l139 34q28 -124 137 -195.5t265 -71.5q67 0 125 14t108 43.5t78 82.5t27 124q-1 34 -9 63t-26 52.5t-37.5 42.5t-51 35.5t-58 28t-67.5 24.5t-70 20.5t-74 19.5
q-5 1 -8 2q-59 15 -95.5 25.5t-88 29t-83.5 37t-68.5 47t-56.5 61.5t-33.5 78t-13.5 99q0 94 37 167.5t101 119t144 69t171 23.5q193 0 329 -84t173 -245l-135 -35q-29 118 -128.5 178.5t-235.5 60.5q-60 0 -114.5 -14t-100.5 -43t-73.5 -80t-27.5 -118q0 -41 12 -74
t39 -58.5t54.5 -43.5t74.5 -35t81.5 -27t92.5 -24q190 -47 270 -84q178 -81 209 -237q8 -37 8 -79q0 -100 -39 -176.5t-107 -122.5t-153.5 -69t-183.5 -23z" />
    <glyph glyph-name="scaron" unicode="&#x161;" horiz-adv-x="929" 
d="M412 1151l-206 294h98l163 -230l164 230h99l-206 -294h-112zM479 -19q-152 0 -253.5 71t-122.5 198l120 35q15 -91 83 -143.5t171 -52.5q57 0 103.5 15t79 54t30.5 99q-1 33 -13.5 59t-33.5 43.5t-52.5 32t-66 25t-79.5 23.5l-33 9q-51 15 -84 26.5t-74.5 33.5t-65 48
t-40.5 67t-17 93q0 132 93.5 200t234.5 68q136 0 230 -63.5t114 -188.5l-115 -31q-14 88 -77.5 133.5t-149.5 45.5q-38 0 -72.5 -9t-64 -27t-47.5 -49.5t-18 -72.5q0 -25 7.5 -45.5t17 -35t31.5 -28.5t36 -21.5t47 -18t48 -14.5t54 -14q59 -15 94 -25.5t83.5 -33.5t76 -50.5
t47.5 -73t20 -103.5q0 -140 -97.5 -209.5t-244.5 -69.5z" />
    <glyph glyph-name="uni0162" unicode="&#x162;" horiz-adv-x="996" 
d="M567 0h-30l-66 -142q47 7 59 7q88 0 144.5 -53t56.5 -138q0 -87 -59 -146.5t-146 -59.5q-68 0 -135 35.5t-100 87.5l72 34q25 -34 71.5 -56.5t90.5 -22.5q53 0 90 37t37 91q0 57 -37.5 89.5t-96.5 32.5q-43 0 -82 -18l-66 45l86 177h-27v1267h-367v128h872v-128h-367
v-1267z" />
    <glyph glyph-name="uni0163" unicode="&#x163;" horiz-adv-x="670" 
d="M549 -135q88 0 144.5 -53t56.5 -138q0 -87 -59 -146.5t-146 -59.5q-68 0 -135 35.5t-100 87.5l72 34q25 -34 71.5 -56.5t90.5 -22.5q53 0 90 37t37 91q0 57 -37.5 89.5t-96.5 32.5q-43 0 -82 -18l-66 45l86 177q-112 1 -177.5 66.5t-65.5 182.5v609h-201v110h77
q73 0 101.5 31.5t28.5 103.5v191h128v-326h231v-110h-231v-596q0 -71 39.5 -111t102.5 -40h89v-111h-41l-66 -142q47 7 59 7z" />
    <glyph glyph-name="Tcaron" unicode="&#x164;" horiz-adv-x="996" 
d="M553 1545h-112l-206 294h98l163 -230l164 230h99zM934 1395v-128h-367v-1267h-138v1267h-367v128h872z" />
    <glyph glyph-name="tcaron" unicode="&#x165;" horiz-adv-x="630" 
d="M516 1203l123 608h143l-165 -608h-101zM472 0q-113 0 -179 65.5t-66 183.5v609h-201v110h77q74 0 102.5 31.5t28.5 103.5v191h127v-326h231v-110h-231v-596q0 -71 39.5 -111t102.5 -40h89v-111h-120z" />
    <glyph glyph-name="Tbar" unicode="&#x166;" horiz-adv-x="996" 
d="M934 1267h-367v-522h221v-94h-221v-651h-138v651h-219v94h219v522h-367v128h872v-128z" />
    <glyph glyph-name="tbar" unicode="&#x167;" horiz-adv-x="670" 
d="M597 858h-231v-326h172v-94h-172v-176q0 -71 39.5 -111t102.5 -40h89v-111h-120q-113 0 -179 65.5t-66 183.5v189h-157v94h157v326h-201v110h77q73 0 101.5 31.5t28.5 103.5v191h128v-326h231v-110z" />
    <glyph glyph-name="Utilde" unicode="&#x168;" horiz-adv-x="1397" 
d="M837 1534q-61 0 -99.5 27.5t-70.5 73.5q-16 24 -27.5 37t-32.5 25t-46 12q-54 0 -85.5 -44.5t-31.5 -115.5h-76q0 104 52.5 170t141.5 66q57 0 95 -27t69 -73q17 -23 28 -36t33.5 -25.5t49.5 -12.5q54 0 84.5 42t30.5 114h78q0 -102 -52 -167.5t-141 -65.5zM697 -19
q-140 0 -252 56.5t-177 164.5t-65 251v942h139v-922q0 -174 99 -268.5t256 -94.5t257.5 95t100.5 268v922h138v-942q0 -215 -140.5 -343.5t-355.5 -128.5z" />
    <glyph glyph-name="utilde" unicode="&#x169;" horiz-adv-x="1094" 
d="M430 1288q-43 0 -68.5 -38t-25.5 -98h-83q0 96 48 157t127 61q100 0 158 -96q34 -53 89 -53q43 0 68 36.5t25 97.5h84q0 -94 -48 -155.5t-127 -61.5q-100 0 -160 95q-36 55 -87 55zM774 968h134v-968h-129l-3 134q-44 -73 -117.5 -113t-166.5 -40q-145 0 -235.5 87.5
t-90.5 247.5v652h135v-621q0 -125 63.5 -187t162.5 -62q110 0 178.5 71t68.5 203v596z" />
    <glyph glyph-name="Umacron" unicode="&#x16a;" horiz-adv-x="1397" 
d="M376 1545v91h641v-91h-641zM697 -19q-140 0 -252 56.5t-177 164.5t-65 251v942h139v-922q0 -174 99 -268.5t256 -94.5t257.5 95t100.5 268v922h138v-942q0 -215 -140.5 -343.5t-355.5 -128.5z" />
    <glyph glyph-name="umacron" unicode="&#x16b;" horiz-adv-x="1094" 
d="M870 1263v-91h-641v91h641zM774 968h134v-968h-129l-3 134q-44 -73 -117.5 -113t-166.5 -40q-145 0 -235.5 87.5t-90.5 247.5v652h135v-621q0 -125 63.5 -187t162.5 -62q110 0 178.5 71t68.5 203v596z" />
    <glyph glyph-name="Uring" unicode="&#x16e;" horiz-adv-x="1397" 
d="M697 1545q-83 0 -142.5 59.5t-59.5 140.5q0 83 59 141.5t143 58.5q81 0 139.5 -58.5t58.5 -141.5q0 -81 -58.5 -140.5t-139.5 -59.5zM697 1618q54 0 90.5 36.5t36.5 90.5t-37 92.5t-90 38.5q-54 0 -91 -38.5t-37 -92.5t37 -90.5t91 -36.5zM697 -19q-140 0 -252 56.5
t-177 164.5t-65 251v942h139v-922q0 -174 99 -268.5t256 -94.5t257.5 95t100.5 268v922h138v-942q0 -215 -140.5 -343.5t-355.5 -128.5z" />
    <glyph glyph-name="uring" unicode="&#x16f;" horiz-adv-x="1094" 
d="M550 1108q-83 0 -142.5 59.5t-59.5 141.5q0 83 59 141.5t143 58.5q81 0 139.5 -58.5t58.5 -141.5q0 -81 -58.5 -141t-139.5 -60zM550 1439q-54 0 -91 -38t-37 -92t37 -90.5t91 -36.5t90.5 36.5t36.5 90.5t-37 92t-90 38zM774 968h134v-968h-129l-3 134
q-44 -73 -117.5 -113t-166.5 -40q-145 0 -235.5 87.5t-90.5 247.5v652h135v-621q0 -125 63.5 -187t162.5 -62q110 0 178.5 71t68.5 203v596z" />
    <glyph glyph-name="Uhungarumlaut" unicode="&#x170;" horiz-adv-x="1397" 
d="M469 1545l248 313l76 -57l-224 -256h-100zM823 1545l248 313l76 -57l-224 -256h-100zM697 -19q-140 0 -252 56.5t-177 164.5t-65 251v942h139v-922q0 -174 99 -268.5t256 -94.5t257.5 95t100.5 268v922h138v-942q0 -215 -140.5 -343.5t-355.5 -128.5z" />
    <glyph glyph-name="uhungarumlaut" unicode="&#x171;" horiz-adv-x="1094" 
d="M646 1403l-224 -256h-100l248 313zM1000 1403l-224 -256h-100l248 313zM774 372v596h134v-968h-129l-3 134q-44 -73 -117.5 -113t-166.5 -40q-145 0 -235.5 87.5t-90.5 247.5v652h135v-621q0 -125 63.5 -187t162.5 -62q110 0 178.5 71t68.5 203z" />
    <glyph glyph-name="Uogonek" unicode="&#x172;" horiz-adv-x="1397" 
d="M1055 1395h138v-942q0 -163 -84.5 -279t-226.5 -164q-3 -3 -16.5 -17.5t-19 -20.5t-19.5 -21t-20.5 -23t-18.5 -22.5t-18.5 -24t-14.5 -22.5t-12.5 -22.5t-7.5 -20t-3 -19.5q0 -45 81 -45q45 0 86 26v-108q-42 -15 -96 -15q-170 0 -170 89q0 78 149 243q-40 -6 -85 -6
q-140 0 -252 56.5t-177 164.5t-65 251v942h139v-922q0 -174 99 -268.5t256 -94.5t257.5 95t100.5 268v922z" />
    <glyph glyph-name="uogonek" unicode="&#x173;" horiz-adv-x="1094" 
d="M908 968v-968q-3 -3 -42.5 -45t-60 -66t-42.5 -60.5t-22 -59.5q0 -45 81 -45q45 0 86 26v-108q-42 -15 -96 -15q-170 0 -170 89q0 52 51.5 123t135.5 161h-50l-3 134q-44 -73 -117.5 -113t-166.5 -40q-145 0 -235.5 87.5t-90.5 247.5v652h135v-621q0 -125 63.5 -187
t162.5 -62q110 0 178.5 71t68.5 203v596h134z" />
    <glyph glyph-name="Wcircumflex" unicode="&#x174;" horiz-adv-x="1998" 
d="M834 1545h-97l206 294h111l206 -294h-99l-163 228zM491 0l-412 1395h145l351 -1182l361 1182h126l361 -1182l353 1182h143l-412 -1395h-151l-357 1147l-357 -1147h-151z" />
    <glyph glyph-name="wcircumflex" unicode="&#x175;" horiz-adv-x="1545" 
d="M776 1379l-164 -228h-97l206 294h111l206 -294h-99zM1355 968h143l-332 -968h-119l-276 783l-277 -783h-120l-326 968h142l253 -782l275 782h103l276 -784z" />
    <glyph glyph-name="Ycircumflex" unicode="&#x176;" horiz-adv-x="1167" 
d="M583 1773l-164 -228h-97l206 294h111l206 -294h-99zM1113 1395l-459 -730v-665h-141v665l-459 730h162l368 -604l367 604h162z" />
    <glyph glyph-name="ycircumflex" unicode="&#x177;" horiz-adv-x="956" 
d="M478 1379l-164 -228h-97l206 294h111l206 -294h-99zM769 968h146l-548 -1424h-142l185 474l-368 950h151l289 -796z" />
    <glyph glyph-name="Ydieresis" unicode="&#x178;" horiz-adv-x="1167" 
d="M407 1536q-41 0 -71 30t-30 70q0 42 30 71t71 29t70.5 -29t29.5 -71q0 -40 -29.5 -70t-70.5 -30zM762 1536q-41 0 -71 29.5t-30 70.5q0 42 29.5 71t71.5 29q41 0 70.5 -29t29.5 -71q0 -40 -30 -70t-70 -30zM1113 1395l-459 -730v-665h-141v665l-459 730h162l368 -604
l367 604h162z" />
    <glyph glyph-name="Zacute" unicode="&#x179;" horiz-adv-x="1231" 
d="M890 1801l-224 -256h-100l248 313zM275 128h863v-128h-1038v116l838 1151h-834v128h1004v-118z" />
    <glyph glyph-name="zacute" unicode="&#x17a;" horiz-adv-x="884" 
d="M717 1403l-224 -256h-100l248 313zM267 113h552v-113h-762l542 854h-514v114h729z" />
    <glyph glyph-name="Zdotaccent" unicode="&#x17b;" horiz-adv-x="1231" 
d="M625 1536q-41 0 -71 30t-30 70q0 42 30 71t71 29t70.5 -29t29.5 -71q0 -40 -29.5 -70t-70.5 -30zM275 128h863v-128h-1038v116l838 1151h-834v128h1004v-118z" />
    <glyph glyph-name="zdotaccent" unicode="&#x17c;" horiz-adv-x="884" 
d="M452 1224q-41 0 -71 30t-30 71q0 42 30 71t71 29t70.5 -29t29.5 -71q0 -41 -29.5 -71t-70.5 -30zM267 113h552v-113h-762l542 854h-514v114h729z" />
    <glyph glyph-name="Zcaron" unicode="&#x17d;" horiz-adv-x="1231" 
d="M680 1545h-112l-206 294h98l163 -230l164 230h99zM275 128h863v-128h-1038v116l838 1151h-834v128h1004v-118z" />
    <glyph glyph-name="zcaron" unicode="&#x17e;" horiz-adv-x="884" 
d="M507 1151h-112l-206 294h98l163 -230l164 230h99zM267 113h552v-113h-762l542 854h-514v114h729z" />
    <glyph glyph-name="florin" unicode="&#x192;" horiz-adv-x="1030" 
d="M184 -371l194 1220h-173l18 119h174l48 309q18 117 113 198t212 81q37 0 74.5 -10.5t55.5 -24.5l-13 -113q-42 36 -104 36q-77 0 -135.5 -52t-70.5 -133l-45 -291h289l-18 -119h-290l-196 -1220h-133z" />
    <glyph glyph-name="Ohorn" unicode="&#x1a0;" horiz-adv-x="1643" 
d="M1484 1457h99v-89q0 -235 -164 -235q-18 0 -36 3q126 -183 126 -438q0 -165 -53.5 -301t-146.5 -226.5t-218 -140t-269 -49.5q-194 0 -349 84.5t-247 249t-92 383.5q0 218 92 382.5t247 249t349 84.5q292 0 484 -187q43 -20 87 -20q91 0 91 155v95zM822 115q115 0 214 39
t173.5 111.5t117 184t42.5 248.5q0 136 -42.5 247t-117 183t-173.5 111t-214 39t-214.5 -39t-174.5 -111t-118 -183t-43 -247q0 -137 43 -248.5t118 -184t174.5 -111.5t214.5 -39z" />
    <glyph glyph-name="ohorn" unicode="&#x1a1;" horiz-adv-x="1154" 
d="M1071 1094h99v-89q0 -235 -164 -235q-10 0 -32 2q75 -122 75 -287q0 -227 -133.5 -365.5t-337.5 -138.5q-133 0 -240 61t-170 176.5t-63 266.5q0 226 134 363.5t339 137.5q197 0 327 -127q41 -15 75 -15q91 0 91 155v95zM577 97q145 0 242.5 107t97.5 281
q0 173 -97.5 279t-242.5 106t-241.5 -106t-96.5 -279q0 -174 96.5 -281t241.5 -107z" />
    <glyph glyph-name="Uhorn" unicode="&#x1af;" horiz-adv-x="1397" 
d="M1359 1500h99v-89q0 -235 -164 -235q-47 0 -101 20v-743q0 -215 -140.5 -343.5t-355.5 -128.5q-140 0 -252 56.5t-177 164.5t-65 251v942h139v-922q0 -174 99 -268.5t256 -94.5t257.5 95t100.5 268v922h138v-130q39 -15 75 -15q91 0 91 155v95z" />
    <glyph glyph-name="uhorn" unicode="&#x1b0;" horiz-adv-x="1094" 
d="M1089 1073h99v-89q0 -235 -164 -235q-55 0 -116 26v-775h-129l-3 134q-44 -73 -117.5 -113t-166.5 -40q-145 0 -235.5 87.5t-90.5 247.5v652h135v-621q0 -125 63.5 -187t162.5 -62q110 0 178.5 71t68.5 203v596h134v-124q46 -21 90 -21q91 0 91 155v95z" />
    <glyph glyph-name="uni01CD" unicode="&#x1cd;" horiz-adv-x="1332" 
d="M720 1545h-112l-206 294h98l163 -230l164 230h99zM1116 0l-126 350h-647l-126 -350h-147l514 1395h164l514 -1395h-146zM389 477h555l-278 772z" />
    <glyph glyph-name="uni01CE" unicode="&#x1ce;" horiz-adv-x="1046" 
d="M470 1151l-206 294h98l163 -230l164 230h99l-206 -294h-112zM404 -19q-129 0 -210.5 67.5t-81.5 198.5q0 72 25.5 124.5t76 87t113 55t148.5 34.5l163 25q84 15 84 91q0 109 -64.5 160.5t-165.5 51.5q-95 0 -160.5 -46.5t-76.5 -140.5l-123 30q20 131 116.5 198.5
t247.5 67.5q75 0 138 -18.5t113 -56t78.5 -103t28.5 -152.5v-417q0 -81 24 -108t79 -27h16v-103h-70q-149 0 -174 133h-6q-114 -152 -319 -152zM435 93q138 0 218.5 103.5t80.5 288.5l-262 -46q-116 -18 -171.5 -60t-55.5 -122q0 -83 52.5 -123.5t137.5 -40.5z" />
    <glyph glyph-name="uni01CF" unicode="&#x1cf;" horiz-adv-x="603" 
d="M244 1545l-206 294h98l163 -230l164 230h99l-206 -294h-112zM232 0v1395h139v-1395h-139z" />
    <glyph glyph-name="uni01D0" unicode="&#x1d0;" horiz-adv-x="506" 
d="M197 1151l-206 294h98l163 -230l164 230h99l-206 -294h-112zM185 0v968h135v-968h-135z" />
    <glyph glyph-name="uni01D1" unicode="&#x1d1;" horiz-adv-x="1643" 
d="M765 1545l-206 294h98l163 -230l164 230h99l-206 -294h-112zM822 -19q-194 0 -349 84.5t-247 249t-92 383.5q0 218 92 382.5t247 249t349 84.5q144 0 269 -49.5t218 -140t146.5 -226.5t53.5 -300q0 -165 -53.5 -301t-146.5 -226.5t-218 -140t-269 -49.5zM822 115
q115 0 214 39t173.5 111.5t117 184t42.5 248.5q0 136 -42.5 247t-117 183t-173.5 111t-214 39t-214.5 -39t-174.5 -111t-118 -183t-43 -247q0 -137 43 -248.5t118 -184t174.5 -111.5t214.5 -39z" />
    <glyph glyph-name="uni01D2" unicode="&#x1d2;" horiz-adv-x="1154" 
d="M521 1150l-206 294h98l163 -230l164 230h99l-206 -294h-112zM578 -19q-133 0 -240 61t-170 176.5t-63 266.5q0 226 134 363.5t339 137.5t338 -137.5t133 -363.5q0 -227 -133.5 -365.5t-337.5 -138.5zM577 97q145 0 242.5 107t97.5 281q0 173 -97.5 279t-242.5 106
t-241.5 -106t-96.5 -279q0 -174 96.5 -281t241.5 -107z" />
    <glyph glyph-name="uni01D3" unicode="&#x1d3;" horiz-adv-x="1397" 
d="M640 1545l-206 294h98l163 -230l164 230h99l-206 -294h-112zM697 -19q-140 0 -252 56.5t-177 164.5t-65 251v942h139v-922q0 -174 99 -268.5t256 -94.5t257.5 95t100.5 268v922h138v-942q0 -215 -140.5 -343.5t-355.5 -128.5z" />
    <glyph glyph-name="uni01D4" unicode="&#x1d4;" horiz-adv-x="1094" 
d="M605 1151h-112l-206 294h98l163 -230l164 230h99zM774 968h134v-968h-129l-3 134q-44 -73 -117.5 -113t-166.5 -40q-145 0 -235.5 87.5t-90.5 247.5v652h135v-621q0 -125 63.5 -187t162.5 -62q110 0 178.5 71t68.5 203v596z" />
    <glyph glyph-name="uni01D5" unicode="&#x1d5;" horiz-adv-x="1397" 
d="M376 1886v91h641v-91h-641zM520 1536q-41 0 -71 30t-30 70q0 42 30 71t71 29t70.5 -29t29.5 -71q0 -40 -30 -70t-70 -30zM875 1536q-41 0 -71 29.5t-30 70.5q0 42 29.5 71t71.5 29q41 0 70.5 -29t29.5 -71q0 -40 -29.5 -70t-70.5 -30zM697 -19q-140 0 -252 56.5
t-177 164.5t-65 251v942h139v-922q0 -174 99 -268.5t256 -94.5t257.5 95t100.5 268v922h138v-942q0 -215 -140.5 -343.5t-355.5 -128.5z" />
    <glyph glyph-name="uni01D6" unicode="&#x1d6;" horiz-adv-x="1094" 
d="M870 1699v-91h-641v91h641zM272 1325q0 42 30 71t71 29t70.5 -29t29.5 -71q0 -41 -29.5 -71t-70.5 -30t-71 30t-30 71zM627 1325q0 42 29.5 71t71.5 29q41 0 70.5 -29t29.5 -71q0 -41 -29.5 -71t-70.5 -30t-71 30t-30 71zM774 968h134v-968h-129l-3 134
q-44 -73 -117.5 -113t-166.5 -40q-145 0 -235.5 87.5t-90.5 247.5v652h135v-621q0 -125 63.5 -187t162.5 -62q110 0 178.5 71t68.5 203v596z" />
    <glyph glyph-name="uni01D7" unicode="&#x1d7;" horiz-adv-x="1397" 
d="M638 1886l248 313l76 -57l-224 -256h-100zM520 1536q-41 0 -71 30t-30 70q0 42 30 71t71 29t70.5 -29t29.5 -71q0 -40 -30 -70t-70 -30zM875 1536q-41 0 -71 29.5t-30 70.5q0 42 29.5 71t71.5 29q41 0 70.5 -29t29.5 -71q0 -40 -29.5 -70t-70.5 -30zM697 -19
q-140 0 -252 56.5t-177 164.5t-65 251v942h139v-922q0 -174 99 -268.5t256 -94.5t257.5 95t100.5 268v922h138v-942q0 -215 -140.5 -343.5t-355.5 -128.5z" />
    <glyph glyph-name="uni01D8" unicode="&#x1d8;" horiz-adv-x="1094" 
d="M815 1839l-224 -256h-100l248 313zM373 1224q-41 0 -71 30t-30 71q0 42 30 71t71 29t70.5 -29t29.5 -71q0 -41 -29.5 -71t-70.5 -30zM728 1425q41 0 70.5 -29t29.5 -71q0 -41 -29.5 -71t-70.5 -30t-71 30t-30 71q0 42 29.5 71t71.5 29zM774 968h134v-968h-129l-3 134
q-44 -73 -117.5 -113t-166.5 -40q-145 0 -235.5 87.5t-90.5 247.5v652h135v-621q0 -125 63.5 -187t162.5 -62q110 0 178.5 71t68.5 203v596z" />
    <glyph glyph-name="uni01D9" unicode="&#x1d9;" horiz-adv-x="1397" 
d="M640 1886l-206 294h98l163 -230l164 230h99l-206 -294h-112zM520 1536q-41 0 -71 30t-30 70q0 42 30 71t71 29t70.5 -29t29.5 -71q0 -40 -30 -70t-70 -30zM875 1536q-41 0 -71 29.5t-30 70.5q0 42 29.5 71t71.5 29q41 0 70.5 -29t29.5 -71q0 -40 -29.5 -70t-70.5 -30z
M697 -19q-140 0 -252 56.5t-177 164.5t-65 251v942h139v-922q0 -174 99 -268.5t256 -94.5t257.5 95t100.5 268v922h138v-942q0 -215 -140.5 -343.5t-355.5 -128.5z" />
    <glyph glyph-name="uni01DA" unicode="&#x1da;" horiz-adv-x="1094" 
d="M605 1587h-112l-206 294h98l163 -230l164 230h99zM373 1224q-41 0 -71 30t-30 71q0 42 30 71t71 29t70.5 -29t29.5 -71q0 -41 -29.5 -71t-70.5 -30zM728 1425q41 0 70.5 -29t29.5 -71q0 -41 -29.5 -71t-70.5 -30t-71 30t-30 71q0 42 29.5 71t71.5 29zM774 968h134v-968
h-129l-3 134q-44 -73 -117.5 -113t-166.5 -40q-145 0 -235.5 87.5t-90.5 247.5v652h135v-621q0 -125 63.5 -187t162.5 -62q110 0 178.5 71t68.5 203v596z" />
    <glyph glyph-name="uni01DB" unicode="&#x1db;" horiz-adv-x="1397" 
d="M648 1886l-224 256l76 57l247 -313h-99zM520 1536q-41 0 -71 30t-30 70q0 42 30 71t71 29t70.5 -29t29.5 -71q0 -40 -30 -70t-70 -30zM875 1536q-41 0 -71 29.5t-30 70.5q0 42 29.5 71t71.5 29q41 0 70.5 -29t29.5 -71q0 -40 -29.5 -70t-70.5 -30zM697 -19
q-140 0 -252 56.5t-177 164.5t-65 251v942h139v-922q0 -174 99 -268.5t256 -94.5t257.5 95t100.5 268v922h138v-942q0 -215 -140.5 -343.5t-355.5 -128.5z" />
    <glyph glyph-name="uni01DC" unicode="&#x1dc;" horiz-adv-x="1094" 
d="M600 1583h-99l-224 256l76 57zM373 1224q-41 0 -71 30t-30 71q0 42 30 71t71 29t70.5 -29t29.5 -71q0 -41 -29.5 -71t-70.5 -30zM728 1224q-41 0 -71 30t-30 71q0 42 29.5 71t71.5 29q41 0 70.5 -29t29.5 -71q0 -41 -29.5 -71t-70.5 -30zM774 968h134v-968h-129l-3 134
q-44 -73 -117.5 -113t-166.5 -40q-145 0 -235.5 87.5t-90.5 247.5v652h135v-621q0 -125 63.5 -187t162.5 -62q110 0 178.5 71t68.5 203v596z" />
    <glyph glyph-name="Scommaaccent" unicode="&#x218;" horiz-adv-x="1262" 
d="M653 -19q-214 0 -356.5 95.5t-180.5 262.5l139 34q28 -124 137 -195.5t265 -71.5q67 0 125 14t108 43.5t78 82.5t27 124q-1 34 -9 63t-26 52.5t-37.5 42.5t-51 35.5t-58 28t-67.5 24.5t-70 20.5t-74 19.5q-5 1 -8 2q-59 15 -95.5 25.5t-88 29t-83.5 37t-68.5 47
t-56.5 61.5t-33.5 78t-13.5 99q0 94 37 167.5t101 119t144 69t171 23.5q193 0 329 -84t173 -245l-135 -35q-29 118 -128.5 178.5t-235.5 60.5q-60 0 -114.5 -14t-100.5 -43t-73.5 -80t-27.5 -118q0 -41 12 -74t39 -58.5t54.5 -43.5t74.5 -35t81.5 -27t92.5 -24
q190 -47 270 -84q178 -81 209 -237q8 -37 8 -79q0 -100 -39 -176.5t-107 -122.5t-153.5 -69t-183.5 -23zM483 -554l-76 33l158 363h128z" />
    <glyph glyph-name="scommaaccent" unicode="&#x219;" horiz-adv-x="929" 
d="M479 -19q-152 0 -253.5 71t-122.5 198l120 35q15 -91 83 -143.5t171 -52.5q57 0 103.5 15t79 54t30.5 99q-1 33 -13.5 59t-33.5 43.5t-52.5 32t-66 25t-79.5 23.5l-33 9q-51 15 -84 26.5t-74.5 33.5t-65 48t-40.5 67t-17 93q0 132 93.5 200t234.5 68q136 0 230 -63.5
t114 -188.5l-115 -31q-14 88 -77.5 133.5t-149.5 45.5q-38 0 -72.5 -9t-64 -27t-47.5 -49.5t-18 -72.5q0 -25 7.5 -45.5t17 -35t31.5 -28.5t36 -21.5t47 -18t48 -14.5t54 -14q59 -15 94 -25.5t83.5 -33.5t76 -50.5t47.5 -73t20 -103.5q0 -140 -97.5 -209.5t-244.5 -69.5z
M322 -554l-76 33l158 363h128z" />
    <glyph glyph-name="uni021A" unicode="&#x21a;" horiz-adv-x="996" 
d="M934 1395v-128h-367v-1267h-138v1267h-367v128h872zM275 -521l158 363h128l-210 -396z" />
    <glyph glyph-name="uni021B" unicode="&#x21b;" horiz-adv-x="670" 
d="M477 0q-113 0 -179 65.5t-66 183.5v609h-201v110h77q73 0 101.5 31.5t28.5 103.5v191h128v-326h231v-110h-231v-596q0 -71 39.5 -111t102.5 -40h89v-111h-120zM370 -554l-76 33l158 363h128z" />
    <glyph glyph-name="uni0237" unicode="&#x237;" horiz-adv-x="506" 
d="M-47 -452v121q72 0 114.5 13.5t70.5 52.5t37.5 102t9.5 170v961h136v-961q0 -174 -36.5 -273.5t-115.5 -142.5t-216 -43z" />
    <glyph glyph-name="circumflex" unicode="&#x2c6;" horiz-adv-x="691" 
d="M181 1242h-97l206 294h111l206 -294h-99l-163 228z" />
    <glyph glyph-name="caron" unicode="&#x2c7;" horiz-adv-x="699" 
d="M293 1242l-206 294h98l163 -230l164 230h99l-206 -294h-112z" />
    <glyph glyph-name="breve" unicode="&#x2d8;" horiz-adv-x="904" 
d="M450 1230q-143 0 -236.5 85t-93.5 221h90q0 -100 68 -165t172 -65q106 0 174 65t68 165h90q0 -137 -93.5 -221.5t-238.5 -84.5z" />
    <glyph glyph-name="dotaccent" unicode="&#x2d9;" horiz-adv-x="512" 
d="M256 1224q-41 0 -71 30t-30 71q0 42 30 71t71 29t70.5 -29t29.5 -71q0 -41 -29.5 -71t-70.5 -30z" />
    <glyph glyph-name="ring" unicode="&#x2da;" horiz-adv-x="674" 
d="M338 1164q-83 0 -142.5 59.5t-59.5 141.5q0 83 59 141.5t143 58.5q81 0 139.5 -58.5t58.5 -141.5q0 -81 -58.5 -141t-139.5 -60zM338 1238q54 0 90.5 36.5t36.5 90.5t-37 92t-90 38q-54 0 -91 -38t-37 -92t37 -90.5t91 -36.5z" />
    <glyph glyph-name="ogonek" unicode="&#x2db;" horiz-adv-x="520" 
d="M278 -373q-170 0 -170 89q0 39 38 99.5t75 102.5t98 107l55 -25q-3 -3 -42.5 -45t-60 -66t-42.5 -60.5t-22 -59.5q0 -45 81 -45q45 0 86 26v-108q-42 -15 -96 -15z" />
    <glyph glyph-name="tilde" unicode="&#x2dc;" horiz-adv-x="893" 
d="M571 1138q-100 0 -160 95q-36 55 -87 55q-43 0 -68.5 -38t-25.5 -98h-83q0 96 48 157t127 61q100 0 158 -96q34 -53 89 -53q43 0 68 36.5t25 97.5h84q0 -94 -48 -155.5t-127 -61.5z" />
    <glyph glyph-name="hungarumlaut" unicode="&#x2dd;" horiz-adv-x="835" 
d="M70 1238l248 313l76 -57l-224 -256h-100zM424 1238l248 313l76 -57l-224 -256h-100z" />
    <glyph glyph-name="gravecomb" unicode="&#x300;" 
d="M-170 1238l-224 256l76 57l247 -313h-99z" />
    <glyph glyph-name="acutecomb" unicode="&#x301;" 
d="M-411 1238l248 313l76 -57l-224 -256h-100z" />
    <glyph glyph-name="uni0302" unicode="&#x302;" 
d="M-510 1242h-97l206 294h111l206 -294h-99l-163 228z" />
    <glyph glyph-name="tildecomb" unicode="&#x303;" 
d="M-322 1138q-100 0 -160 95q-36 55 -87 55q-43 0 -68.5 -38t-25.5 -98h-83q0 96 48 157t127 61q100 0 158 -96q34 -53 89 -53q43 0 68 36.5t25 97.5h84q0 -94 -48 -155.5t-127 -61.5z" />
    <glyph glyph-name="uni0304" unicode="&#x304;" 
d="M-823 1263v91h641v-91h-641z" />
    <glyph glyph-name="uni0306" unicode="&#x306;" 
d="M-454 1230q-143 0 -236.5 85t-93.5 221h90q0 -100 68 -165t172 -65q106 0 174 65t68 165h90q0 -137 -93.5 -221.5t-238.5 -84.5z" />
    <glyph glyph-name="uni0307" unicode="&#x307;" 
d="M-256 1224q-41 0 -71 30t-30 71q0 42 30 71t71 29t70.5 -29t29.5 -71q0 -41 -29.5 -71t-70.5 -30z" />
    <glyph glyph-name="uni0308" unicode="&#x308;" 
d="M-611 1224q-41 0 -71 30t-30 71q0 42 30 71t71 29t70.5 -29t29.5 -71q0 -41 -29.5 -71t-70.5 -30zM-256 1224q-41 0 -71 30t-30 71q0 42 29.5 71t71.5 29q41 0 70.5 -29t29.5 -71q0 -41 -29.5 -71t-70.5 -30z" />
    <glyph glyph-name="hookabovecomb" unicode="&#x309;" 
d="M-335 1160v114q121 27 121 115q0 39 -25 64.5t-68 25.5q-45 0 -86 -29l-46 61q59 45 129 45q78 0 129 -47t51 -119q0 -56 -34 -96t-96 -60v-74h-75z" />
    <glyph glyph-name="uni030A" unicode="&#x30a;" 
d="M-336 1164q-83 0 -142.5 59.5t-59.5 141.5q0 83 59 141.5t143 58.5q81 0 139.5 -58.5t58.5 -141.5q0 -81 -58.5 -141t-139.5 -60zM-336 1238q54 0 90.5 36.5t36.5 90.5t-37 92t-90 38q-54 0 -91 -38t-37 -92t37 -90.5t91 -36.5z" />
    <glyph glyph-name="uni030B" unicode="&#x30b;" 
d="M-765 1238l248 313l76 -57l-224 -256h-100zM-411 1238l248 313l76 -57l-224 -256h-100z" />
    <glyph glyph-name="uni030C" unicode="&#x30c;" 
d="M-406 1242l-206 294h98l163 -230l164 230h99l-206 -294h-112z" />
    <glyph glyph-name="uni0312" unicode="&#x312;" 
d="M-226 1527h100l-121 -299h-143z" />
    <glyph glyph-name="uni031B" unicode="&#x31b;" 
d="M-325 803q-84 0 -172 54l43 48q52 -28 103 -28q91 0 91 155v95h99v-89q0 -235 -164 -235z" />
    <glyph glyph-name="dotbelowcomb" unicode="&#x323;" 
d="M-256 -512q-41 0 -71 29t-30 71q0 40 30 70t71 30q40 0 70 -30t30 -70q0 -42 -29.5 -71t-70.5 -29z" />
    <glyph glyph-name="uni0326" unicode="&#x326;" 
d="M-296 -554l-76 33l158 363h128z" />
    <glyph glyph-name="uni0327" unicode="&#x327;" 
d="M-306 -532q-68 0 -135 35.5t-100 87.5l72 34q25 -34 71.5 -56.5t90.5 -22.5q53 0 90 37t37 91q0 57 -37.5 89.5t-96.5 32.5q-43 0 -82 -18l-66 45l107 219h80l-86 -184q47 7 59 7q88 0 144.5 -53t56.5 -138q0 -87 -59 -146.5t-146 -59.5z" />
    <glyph glyph-name="uni0328" unicode="&#x328;" 
d="M-242 -373q-170 0 -170 89q0 39 38 99.5t75 102.5t98 107l55 -25q-3 -3 -42.5 -45t-60 -66t-42.5 -60.5t-22 -59.5q0 -45 81 -45q45 0 86 26v-108q-42 -15 -96 -15z" />
    <glyph glyph-name="uni0335" unicode="&#x335;" 
d="M-760 489v94h578v-94h-578z" />
    <glyph glyph-name="uni0336" unicode="&#x336;" 
d="M-1630 491v83h1449v-83h-1449z" />
    <glyph glyph-name="uni0337" unicode="&#x337;" 
d="M-578 284v110l508 382v-110z" />
    <glyph glyph-name="uni0338" unicode="&#x338;" 
d="M-902 214l813 1165l76 -47l-814 -1165z" />
    <glyph glyph-name="uni0394" unicode="&#x394;" horiz-adv-x="1514" 
d="M831 1536l617 -1536h-1382l617 1536h148zM260 124h992l-495 1260z" />
    <glyph glyph-name="uni03A9" unicode="&#x3a9;" horiz-adv-x="1851" 
d="M1299 117h423v-117h-606v100q81 41 151.5 104t129.5 149t93.5 200t34.5 242q0 93 -24.5 184t-74 172.5t-119 143.5t-166 98.5t-207.5 36.5q-173 0 -312 -82.5t-216.5 -228.5t-77.5 -327q0 -163 61 -307t150.5 -237.5t196.5 -147.5v-100h-607v117h417v2q-70 46 -133.5 113
t-117 154t-85 197.5t-31.5 227.5q0 154 57 290.5t155.5 234.5t239 155t301.5 57q137 0 257.5 -42.5t207.5 -115t150 -166.5t94 -198.5t31 -209.5q0 -120 -31.5 -232t-85.5 -199.5t-119 -155t-137 -112.5z" />
    <glyph glyph-name="uni03BC" unicode="&#x3bc;" horiz-adv-x="1196" 
d="M878 1010h133v-1010h-133v153q-53 -79 -135.5 -125t-179.5 -46q-164 0 -276 122v-538h-102v1444h133v-626q0 -119 81 -202t196 -83q117 0 200 83.5t83 201.5v626z" />
    <glyph glyph-name="pi" unicode="&#x3c0;" horiz-adv-x="1243" 
d="M158 0q60 142 106.5 391t55.5 464q-106 0 -163 -8t-98 -28l-17 99q94 48 296 48h873l-13 -111h-186v-567q0 -195 32 -288h-126q-32 57 -32 270v585l-440 2q-13 -206 -60 -471.5t-103 -385.5h-125z" />
    <glyph glyph-name="Wgrave" unicode="&#x1e80;" horiz-adv-x="1998" 
d="M950 1545l-224 256l76 57l247 -313h-99zM491 0l-412 1395h145l351 -1182l361 1182h126l361 -1182l353 1182h143l-412 -1395h-151l-357 1147l-357 -1147h-151z" />
    <glyph glyph-name="wgrave" unicode="&#x1e81;" horiz-adv-x="1545" 
d="M827 1147h-99l-224 256l76 57zM1355 968h143l-332 -968h-119l-276 783l-277 -783h-120l-326 968h142l253 -782l275 782h103l276 -784z" />
    <glyph glyph-name="Wacute" unicode="&#x1e82;" horiz-adv-x="1998" 
d="M940 1545l248 313l76 -57l-224 -256h-100zM491 0l-412 1395h145l351 -1182l361 1182h126l361 -1182l353 1182h143l-412 -1395h-151l-357 1147l-357 -1147h-151z" />
    <glyph glyph-name="wacute" unicode="&#x1e83;" horiz-adv-x="1545" 
d="M1042 1403l-224 -256h-100l248 313zM1355 968h143l-332 -968h-119l-276 783l-277 -783h-120l-326 968h142l253 -782l275 782h103l276 -784z" />
    <glyph glyph-name="Wdieresis" unicode="&#x1e84;" horiz-adv-x="1998" 
d="M822 1536q-41 0 -71 30t-30 70q0 42 30 71t71 29t70.5 -29t29.5 -71q0 -40 -30 -70t-70 -30zM1177 1536q-41 0 -71 29.5t-30 70.5q0 42 29.5 71t71.5 29q41 0 70.5 -29t29.5 -71q0 -40 -29.5 -70t-70.5 -30zM491 0l-412 1395h145l351 -1182l361 1182h126l361 -1182
l353 1182h143l-412 -1395h-151l-357 1147l-357 -1147h-151z" />
    <glyph glyph-name="wdieresis" unicode="&#x1e85;" horiz-adv-x="1545" 
d="M600 1224q-41 0 -71 30t-30 71q0 42 30 71t71 29t70.5 -29t29.5 -71q0 -41 -29.5 -71t-70.5 -30zM955 1224q-41 0 -71 30t-30 71q0 42 29.5 71t71.5 29q41 0 70.5 -29t29.5 -71q0 -41 -29.5 -71t-70.5 -30zM1355 968h143l-332 -968h-119l-276 783l-277 -783h-120
l-326 968h142l253 -782l275 782h103l276 -784z" />
    <glyph glyph-name="uni1EA0" unicode="&#x1ea0;" horiz-adv-x="1332" 
d="M1262 0h-146l-126 350h-647l-126 -350h-147l514 1395h164zM389 477h555l-278 772zM665 -312q41 0 70.5 -30t29.5 -70q0 -42 -29.5 -71t-70.5 -29t-71 29t-30 71q0 40 30 70t71 30z" />
    <glyph glyph-name="uni1EA1" unicode="&#x1ea1;" horiz-adv-x="1046" 
d="M404 -19q-129 0 -210.5 67.5t-81.5 198.5q0 72 25.5 124.5t76 87t113 55t148.5 34.5l163 25q84 15 84 91q0 109 -64.5 160.5t-165.5 51.5q-95 0 -160.5 -46.5t-76.5 -140.5l-123 30q20 131 116.5 198.5t247.5 67.5q75 0 138 -18.5t113 -56t78.5 -103t28.5 -152.5v-417
q0 -81 24 -108t79 -27h16v-103h-70q-149 0 -174 133h-6q-114 -152 -319 -152zM435 93q138 0 218.5 103.5t80.5 288.5l-262 -46q-116 -18 -171.5 -60t-55.5 -122q0 -83 52.5 -123.5t137.5 -40.5zM526 -512q-41 0 -71 29t-30 71q0 40 30 70t71 30q40 0 70 -30t30 -70
q0 -42 -29.5 -71t-70.5 -29z" />
    <glyph glyph-name="uni1EA2" unicode="&#x1ea2;" horiz-adv-x="1332" 
d="M656 1855q-42 0 -86 -29l-46 60q58 46 129 46q77 0 128.5 -47t51.5 -119q0 -116 -130 -156v-74h-75v114q121 27 121 114q0 39 -25 65t-68 26zM1116 0l-126 350h-647l-126 -350h-147l514 1395h164l514 -1395h-146zM389 477h555l-278 772z" />
    <glyph glyph-name="uni1EA3" unicode="&#x1ea3;" horiz-adv-x="1046" 
d="M490 1069v114q121 27 121 115q0 39 -25 64.5t-68 25.5q-45 0 -86 -29l-46 61q59 45 129 45q78 0 129 -47t51 -119q0 -56 -34 -96t-96 -60v-74h-75zM404 -19q-129 0 -210.5 67.5t-81.5 198.5q0 72 25.5 124.5t76 87t113 55t148.5 34.5l163 25q84 15 84 91
q0 109 -64.5 160.5t-165.5 51.5q-95 0 -160.5 -46.5t-76.5 -140.5l-123 30q20 131 116.5 198.5t247.5 67.5q75 0 138 -18.5t113 -56t78.5 -103t28.5 -152.5v-417q0 -81 24 -108t79 -27h16v-103h-70q-149 0 -174 133h-6q-114 -152 -319 -152zM435 93q138 0 218.5 103.5
t80.5 288.5l-262 -46q-116 -18 -171.5 -60t-55.5 -122q0 -83 52.5 -123.5t137.5 -40.5z" />
    <glyph glyph-name="uni1EA4" unicode="&#x1ea4;" horiz-adv-x="1332" 
d="M929 2197l-224 -256h-100l248 313zM664 1773l-164 -228h-97l206 294h111l206 -294h-99zM1116 0l-126 350h-647l-126 -350h-147l514 1395h164l514 -1395h-146zM389 477h555l-278 772z" />
    <glyph glyph-name="uni1EA5" unicode="&#x1ea5;" horiz-adv-x="1046" 
d="M467 1624l248 313l76 -57l-224 -256h-100zM362 1151h-97l206 294h111l206 -294h-99l-163 228zM404 -19q-129 0 -210.5 67.5t-81.5 198.5q0 72 25.5 124.5t76 87t113 55t148.5 34.5l163 25q84 15 84 91q0 109 -64.5 160.5t-165.5 51.5q-95 0 -160.5 -46.5t-76.5 -140.5
l-123 30q20 131 116.5 198.5t247.5 67.5q75 0 138 -18.5t113 -56t78.5 -103t28.5 -152.5v-417q0 -81 24 -108t79 -27h16v-103h-70q-149 0 -174 133h-6q-114 -152 -319 -152zM435 93q138 0 218.5 103.5t80.5 288.5l-262 -46q-116 -18 -171.5 -60t-55.5 -122
q0 -83 52.5 -123.5t137.5 -40.5z" />
    <glyph glyph-name="uni1EA6" unicode="&#x1ea6;" horiz-adv-x="1332" 
d="M714 1941h-99l-224 256l76 57zM403 1545l206 294h111l206 -294h-99l-163 228l-164 -228h-97zM1116 0l-126 350h-647l-126 -350h-147l514 1395h164l514 -1395h-146zM389 477h555l-278 772z" />
    <glyph glyph-name="uni1EA7" unicode="&#x1ea7;" horiz-adv-x="1046" 
d="M477 1624l-224 256l76 57l247 -313h-99zM362 1151h-97l206 294h111l206 -294h-99l-163 228zM404 -19q-129 0 -210.5 67.5t-81.5 198.5q0 72 25.5 124.5t76 87t113 55t148.5 34.5l163 25q84 15 84 91q0 109 -64.5 160.5t-165.5 51.5q-95 0 -160.5 -46.5t-76.5 -140.5
l-123 30q20 131 116.5 198.5t247.5 67.5q75 0 138 -18.5t113 -56t78.5 -103t28.5 -152.5v-417q0 -81 24 -108t79 -27h16v-103h-70q-149 0 -174 133h-6q-114 -152 -319 -152zM435 93q138 0 218.5 103.5t80.5 288.5l-262 -46q-116 -18 -171.5 -60t-55.5 -122
q0 -83 52.5 -123.5t137.5 -40.5z" />
    <glyph glyph-name="uni1EA8" unicode="&#x1ea8;" horiz-adv-x="1332" 
d="M655 2251q-43 0 -86 -29l-46 60q58 46 129 46q77 0 128.5 -47t51.5 -119q0 -116 -130 -156v-74h-75v114q121 27 121 114q0 39 -25 65t-68 26zM664 1773l-164 -228h-97l206 294h111l206 -294h-99zM1116 0l-126 350h-647l-126 -350h-147l514 1395h164l514 -1395h-146z
M389 477h555l-278 772z" />
    <glyph glyph-name="uni1EA9" unicode="&#x1ea9;" horiz-adv-x="1046" 
d="M489 1546v114q121 27 121 115q0 39 -25 64.5t-68 25.5q-45 0 -86 -29l-46 61q59 45 129 45q78 0 129 -47t51 -119q0 -56 -34 -96t-96 -60v-74h-75zM362 1151h-97l206 294h111l206 -294h-99l-163 228zM404 -19q-129 0 -210.5 67.5t-81.5 198.5q0 72 25.5 124.5t76 87
t113 55t148.5 34.5l163 25q84 15 84 91q0 109 -64.5 160.5t-165.5 51.5q-95 0 -160.5 -46.5t-76.5 -140.5l-123 30q20 131 116.5 198.5t247.5 67.5q75 0 138 -18.5t113 -56t78.5 -103t28.5 -152.5v-417q0 -81 24 -108t79 -27h16v-103h-70q-149 0 -174 133h-6
q-114 -152 -319 -152zM435 93q138 0 218.5 103.5t80.5 288.5l-262 -46q-116 -18 -171.5 -60t-55.5 -122q0 -83 52.5 -123.5t137.5 -40.5z" />
    <glyph glyph-name="uni1EAA" unicode="&#x1eaa;" horiz-adv-x="1332" 
d="M528 2105q-54 0 -85.5 -44.5t-31.5 -115.5h-76q0 104 52.5 170t141.5 66q57 0 95 -27t69 -73q17 -23 28 -36t33.5 -25.5t49.5 -12.5q54 0 84.5 42t30.5 114h78q0 -102 -52 -167.5t-141 -65.5q-61 0 -99.5 27.5t-70.5 73.5q-16 24 -27.5 37t-32.5 25t-46 12zM609 1839h111
l206 -294h-99l-163 228l-164 -228h-97zM1116 0l-126 350h-647l-126 -350h-147l514 1395h164l514 -1395h-146zM389 477h555l-278 772z" />
    <glyph glyph-name="uni1EAB" unicode="&#x1eab;" horiz-adv-x="1046" 
d="M653 1615q-100 0 -160 95q-36 55 -87 55q-43 0 -68.5 -38t-25.5 -98h-83q0 96 48 157t127 61q100 0 158 -96q34 -53 89 -53q43 0 68 36.5t25 97.5h84q0 -94 -48 -155.5t-127 -61.5zM362 1151h-97l206 294h111l206 -294h-99l-163 228zM404 -19q-129 0 -210.5 67.5
t-81.5 198.5q0 72 25.5 124.5t76 87t113 55t148.5 34.5l163 25q84 15 84 91q0 109 -64.5 160.5t-165.5 51.5q-95 0 -160.5 -46.5t-76.5 -140.5l-123 30q20 131 116.5 198.5t247.5 67.5q75 0 138 -18.5t113 -56t78.5 -103t28.5 -152.5v-417q0 -81 24 -108t79 -27h16v-103h-70
q-149 0 -174 133h-6q-114 -152 -319 -152zM435 93q138 0 218.5 103.5t80.5 288.5l-262 -46q-116 -18 -171.5 -60t-55.5 -122q0 -83 52.5 -123.5t137.5 -40.5z" />
    <glyph glyph-name="uni1EAC" unicode="&#x1eac;" horiz-adv-x="1332" 
d="M664 1773l-164 -228h-97l206 294h111l206 -294h-99zM1262 0h-146l-126 350h-647l-126 -350h-147l514 1395h164zM389 477h555l-278 772zM665 -312q41 0 70.5 -30t29.5 -70q0 -42 -29.5 -71t-70.5 -29t-71 29t-30 71q0 40 30 70t71 30z" />
    <glyph glyph-name="uni1EAD" unicode="&#x1ead;" horiz-adv-x="1046" 
d="M362 1151h-97l206 294h111l206 -294h-99l-163 228zM404 -19q-129 0 -210.5 67.5t-81.5 198.5q0 72 25.5 124.5t76 87t113 55t148.5 34.5l163 25q84 15 84 91q0 109 -64.5 160.5t-165.5 51.5q-95 0 -160.5 -46.5t-76.5 -140.5l-123 30q20 131 116.5 198.5t247.5 67.5
q75 0 138 -18.5t113 -56t78.5 -103t28.5 -152.5v-417q0 -81 24 -108t79 -27h16v-103h-70q-149 0 -174 133h-6q-114 -152 -319 -152zM435 93q138 0 218.5 103.5t80.5 288.5l-262 -46q-116 -18 -171.5 -60t-55.5 -122q0 -83 52.5 -123.5t137.5 -40.5zM526 -512q-41 0 -71 29
t-30 71q0 40 30 70t71 30q40 0 70 -30t30 -70q0 -42 -29.5 -71t-70.5 -29z" />
    <glyph glyph-name="uni1EAE" unicode="&#x1eae;" horiz-adv-x="1332" 
d="M931 2136l-224 -256h-100l248 313zM664 1545q-149 0 -239.5 66t-90.5 196h87q0 -94 66.5 -140t176.5 -46q111 0 178 46t67 140h87q0 -130 -91 -196t-241 -66zM1116 0l-126 350h-647l-126 -350h-147l514 1395h164l514 -1395h-146zM389 477h555l-278 772z" />
    <glyph glyph-name="uni1EAF" unicode="&#x1eaf;" horiz-adv-x="1046" 
d="M468 1624l248 313l76 -57l-224 -256h-100zM525 1139q-143 0 -236.5 85t-93.5 221h90q0 -100 68 -165t172 -65q106 0 174 65t68 165h90q0 -137 -93.5 -221.5t-238.5 -84.5zM404 -19q-129 0 -210.5 67.5t-81.5 198.5q0 72 25.5 124.5t76 87t113 55t148.5 34.5l163 25
q84 15 84 91q0 109 -64.5 160.5t-165.5 51.5q-95 0 -160.5 -46.5t-76.5 -140.5l-123 30q20 131 116.5 198.5t247.5 67.5q75 0 138 -18.5t113 -56t78.5 -103t28.5 -152.5v-417q0 -81 24 -108t79 -27h16v-103h-70q-149 0 -174 133h-6q-114 -152 -319 -152zM435 93
q138 0 218.5 103.5t80.5 288.5l-262 -46q-116 -18 -171.5 -60t-55.5 -122q0 -83 52.5 -123.5t137.5 -40.5z" />
    <glyph glyph-name="uni1EB0" unicode="&#x1eb0;" horiz-adv-x="1332" 
d="M716 1880h-99l-224 256l76 57zM664 1545q-149 0 -239.5 66t-90.5 196h87q0 -94 66.5 -140t176.5 -46q111 0 178 46t67 140h87q0 -130 -91 -196t-241 -66zM1116 0l-126 350h-647l-126 -350h-147l514 1395h164l514 -1395h-146zM389 477h555l-278 772z" />
    <glyph glyph-name="uni1EB1" unicode="&#x1eb1;" horiz-adv-x="1046" 
d="M478 1624l-224 256l76 57l247 -313h-99zM525 1139q-143 0 -236.5 85t-93.5 221h90q0 -100 68 -165t172 -65q106 0 174 65t68 165h90q0 -137 -93.5 -221.5t-238.5 -84.5zM404 -19q-129 0 -210.5 67.5t-81.5 198.5q0 72 25.5 124.5t76 87t113 55t148.5 34.5l163 25
q84 15 84 91q0 109 -64.5 160.5t-165.5 51.5q-95 0 -160.5 -46.5t-76.5 -140.5l-123 30q20 131 116.5 198.5t247.5 67.5q75 0 138 -18.5t113 -56t78.5 -103t28.5 -152.5v-417q0 -81 24 -108t79 -27h16v-103h-70q-149 0 -174 133h-6q-114 -152 -319 -152zM435 93
q138 0 218.5 103.5t80.5 288.5l-262 -46q-116 -18 -171.5 -60t-55.5 -122q0 -83 52.5 -123.5t137.5 -40.5z" />
    <glyph glyph-name="uni1EB2" unicode="&#x1eb2;" horiz-adv-x="1332" 
d="M657 2190q-43 0 -86 -29l-46 60q58 46 129 46q77 0 128.5 -47t51.5 -119q0 -116 -130 -156v-74h-75v114q121 27 121 114q0 39 -25 65t-68 26zM664 1545q-149 0 -239.5 66t-90.5 196h87q0 -94 66.5 -140t176.5 -46q111 0 178 46t67 140h87q0 -130 -91 -196t-241 -66z
M1116 0l-126 350h-647l-126 -350h-147l514 1395h164l514 -1395h-146zM389 477h555l-278 772z" />
    <glyph glyph-name="uni1EB3" unicode="&#x1eb3;" horiz-adv-x="1046" 
d="M490 1546v114q121 27 121 115q0 39 -25 64.5t-68 25.5q-45 0 -86 -29l-46 61q59 45 129 45q78 0 129 -47t51 -119q0 -56 -34 -96t-96 -60v-74h-75zM525 1139q-143 0 -236.5 85t-93.5 221h90q0 -100 68 -165t172 -65q106 0 174 65t68 165h90q0 -137 -93.5 -221.5
t-238.5 -84.5zM404 -19q-129 0 -210.5 67.5t-81.5 198.5q0 72 25.5 124.5t76 87t113 55t148.5 34.5l163 25q84 15 84 91q0 109 -64.5 160.5t-165.5 51.5q-95 0 -160.5 -46.5t-76.5 -140.5l-123 30q20 131 116.5 198.5t247.5 67.5q75 0 138 -18.5t113 -56t78.5 -103
t28.5 -152.5v-417q0 -81 24 -108t79 -27h16v-103h-70q-149 0 -174 133h-6q-114 -152 -319 -152zM435 93q138 0 218.5 103.5t80.5 288.5l-262 -46q-116 -18 -171.5 -60t-55.5 -122q0 -83 52.5 -123.5t137.5 -40.5z" />
    <glyph glyph-name="uni1EB4" unicode="&#x1eb4;" horiz-adv-x="1332" 
d="M530 2044q-54 0 -85.5 -44.5t-31.5 -115.5h-76q0 104 52.5 170t141.5 66q57 0 95 -27t69 -73q17 -23 28 -36t33.5 -25.5t49.5 -12.5q54 0 84.5 42t30.5 114h78q0 -102 -52 -167.5t-141 -65.5q-61 0 -99.5 27.5t-70.5 73.5q-16 24 -27.5 37t-32.5 25t-46 12zM664 1545
q-149 0 -239.5 66t-90.5 196h87q0 -94 66.5 -140t176.5 -46q111 0 178 46t67 140h87q0 -130 -91 -196t-241 -66zM1116 0l-126 350h-647l-126 -350h-147l514 1395h164l514 -1395h-146zM389 477h555l-278 772z" />
    <glyph glyph-name="uni1EB5" unicode="&#x1eb5;" horiz-adv-x="1046" 
d="M654 1615q-100 0 -160 95q-36 55 -87 55q-43 0 -68.5 -38t-25.5 -98h-83q0 96 48 157t127 61q100 0 158 -96q34 -53 89 -53q43 0 68 36.5t25 97.5h84q0 -94 -48 -155.5t-127 -61.5zM525 1139q-143 0 -236.5 85t-93.5 221h90q0 -100 68 -165t172 -65q106 0 174 65t68 165
h90q0 -137 -93.5 -221.5t-238.5 -84.5zM404 -19q-129 0 -210.5 67.5t-81.5 198.5q0 72 25.5 124.5t76 87t113 55t148.5 34.5l163 25q84 15 84 91q0 109 -64.5 160.5t-165.5 51.5q-95 0 -160.5 -46.5t-76.5 -140.5l-123 30q20 131 116.5 198.5t247.5 67.5q75 0 138 -18.5
t113 -56t78.5 -103t28.5 -152.5v-417q0 -81 24 -108t79 -27h16v-103h-70q-149 0 -174 133h-6q-114 -152 -319 -152zM435 93q138 0 218.5 103.5t80.5 288.5l-262 -46q-116 -18 -171.5 -60t-55.5 -122q0 -83 52.5 -123.5t137.5 -40.5z" />
    <glyph glyph-name="uni1EB6" unicode="&#x1eb6;" horiz-adv-x="1332" 
d="M664 1545q-149 0 -239.5 66t-90.5 196h87q0 -94 66.5 -140t176.5 -46q111 0 178 46t67 140h87q0 -130 -91 -196t-241 -66zM1262 0h-146l-126 350h-647l-126 -350h-147l514 1395h164zM389 477h555l-278 772zM665 -312q41 0 70.5 -30t29.5 -70q0 -42 -29.5 -71t-70.5 -29
t-71 29t-30 71q0 40 30 70t71 30z" />
    <glyph glyph-name="uni1EB7" unicode="&#x1eb7;" horiz-adv-x="1046" 
d="M525 1139q-143 0 -236.5 85t-93.5 221h90q0 -100 68 -165t172 -65q106 0 174 65t68 165h90q0 -137 -93.5 -221.5t-238.5 -84.5zM404 -19q-129 0 -210.5 67.5t-81.5 198.5q0 72 25.5 124.5t76 87t113 55t148.5 34.5l163 25q84 15 84 91q0 109 -64.5 160.5t-165.5 51.5
q-95 0 -160.5 -46.5t-76.5 -140.5l-123 30q20 131 116.5 198.5t247.5 67.5q75 0 138 -18.5t113 -56t78.5 -103t28.5 -152.5v-417q0 -81 24 -108t79 -27h16v-103h-70q-149 0 -174 133h-6q-114 -152 -319 -152zM435 93q138 0 218.5 103.5t80.5 288.5l-262 -46
q-116 -18 -171.5 -60t-55.5 -122q0 -83 52.5 -123.5t137.5 -40.5zM526 -512q-41 0 -71 29t-30 71q0 40 30 70t71 30q40 0 70 -30t30 -70q0 -42 -29.5 -71t-70.5 -29z" />
    <glyph glyph-name="uni1EB8" unicode="&#x1eb8;" horiz-adv-x="1081" 
d="M960 1267h-584v-507h513v-127h-513v-505h584v-128h-728v1395h728v-128zM598 -312q40 0 70 -30t30 -70q0 -42 -29.5 -71t-70.5 -29t-71 29t-30 71q0 40 30 70t71 30z" />
    <glyph glyph-name="uni1EB9" unicode="&#x1eb9;" horiz-adv-x="1114" 
d="M1010 506l-3 -41h-770q3 -177 98.5 -272.5t237.5 -95.5q94 0 172.5 51t121.5 139l120 -31q-55 -127 -165 -201t-247 -74q-206 0 -337 135.5t-131 367.5q0 116 35.5 211.5t98 159t147.5 98t184 34.5q197 0 317 -125t121 -356zM572 878q-131 0 -220.5 -79t-109.5 -227h632
q-9 151 -90.5 228.5t-211.5 77.5zM581 -312q41 0 70.5 -30t29.5 -70q0 -42 -29.5 -71t-70.5 -29t-71 29t-30 71q0 40 30 70t71 30z" />
    <glyph glyph-name="uni1EBA" unicode="&#x1eba;" horiz-adv-x="1081" 
d="M589 1855q-43 0 -86 -29l-46 60q58 46 129 46q77 0 128.5 -47t51.5 -119q0 -116 -130 -156v-74h-75v114q121 27 121 114q0 39 -25 65t-68 26zM960 1267h-584v-507h513v-127h-513v-505h584v-128h-728v1395h728v-128z" />
    <glyph glyph-name="uni1EBB" unicode="&#x1ebb;" horiz-adv-x="1114" 
d="M568 1391q-45 0 -86 -29l-46 61q59 45 129 45q78 0 129 -47t51 -119q0 -56 -34 -96t-96 -60v-74h-75v114q121 27 121 115q0 39 -25 64.5t-68 25.5zM1010 506l-3 -41h-770q3 -177 98.5 -272.5t237.5 -95.5q94 0 172.5 51t121.5 139l120 -31q-55 -127 -165 -201t-247 -74
q-206 0 -337 135.5t-131 367.5q0 116 35.5 211.5t98 159t147.5 98t184 34.5q197 0 317 -125t121 -356zM572 878q-131 0 -220.5 -79t-109.5 -227h632q-9 151 -90.5 228.5t-211.5 77.5z" />
    <glyph glyph-name="uni1EBC" unicode="&#x1ebc;" horiz-adv-x="1081" 
d="M462 1709q-54 0 -85.5 -44.5t-31.5 -115.5h-76q0 104 52.5 170t141.5 66q57 0 95 -27t69 -73q17 -23 28 -36t33.5 -25.5t49.5 -12.5q54 0 84.5 42t30.5 114h78q0 -102 -52 -167.5t-141 -65.5q-61 0 -99.5 27.5t-70.5 73.5q-16 24 -27.5 37t-32.5 25t-46 12zM960 1267
h-584v-507h513v-127h-513v-505h584v-128h-728v1395h728v-128z" />
    <glyph glyph-name="uni1EBD" unicode="&#x1ebd;" horiz-adv-x="1114" 
d="M457 1291q-43 0 -68.5 -38t-25.5 -98h-83q0 96 48 157t127 61q100 0 158 -96q34 -53 89 -53q43 0 68 36.5t25 97.5h84q0 -94 -48 -155.5t-127 -61.5q-100 0 -160 95q-36 55 -87 55zM1010 506l-3 -41h-770q3 -177 98.5 -272.5t237.5 -95.5q94 0 172.5 51t121.5 139
l120 -31q-55 -127 -165 -201t-247 -74q-206 0 -337 135.5t-131 367.5q0 116 35.5 211.5t98 159t147.5 98t184 34.5q197 0 317 -125t121 -356zM572 878q-131 0 -220.5 -79t-109.5 -227h632q-9 151 -90.5 228.5t-211.5 77.5z" />
    <glyph glyph-name="uni1EBE" unicode="&#x1ebe;" horiz-adv-x="1081" 
d="M862 2197l-224 -256h-100l248 313zM597 1773l-164 -228h-97l206 294h111l206 -294h-99zM960 1267h-584v-507h513v-127h-513v-505h584v-128h-728v1395h728v-128z" />
    <glyph glyph-name="uni1EBF" unicode="&#x1ebf;" horiz-adv-x="1114" 
d="M841 1883l-224 -256h-100l248 313zM576 1382l-164 -228h-97l206 294h111l206 -294h-99zM1010 506l-3 -41h-770q3 -177 98.5 -272.5t237.5 -95.5q94 0 172.5 51t121.5 139l120 -31q-55 -127 -165 -201t-247 -74q-206 0 -337 135.5t-131 367.5q0 116 35.5 211.5t98 159
t147.5 98t184 34.5q197 0 317 -125t121 -356zM572 878q-131 0 -220.5 -79t-109.5 -227h632q-9 151 -90.5 228.5t-211.5 77.5z" />
    <glyph glyph-name="uni1EC0" unicode="&#x1ec0;" horiz-adv-x="1081" 
d="M647 1941h-99l-224 256l76 57zM336 1545l206 294h111l206 -294h-99l-163 228l-164 -228h-97zM960 1267h-584v-507h513v-127h-513v-505h584v-128h-728v1395h728v-128z" />
    <glyph glyph-name="uni1EC1" unicode="&#x1ec1;" horiz-adv-x="1114" 
d="M626 1627h-99l-224 256l76 57zM315 1154l206 294h111l206 -294h-99l-163 228l-164 -228h-97zM1010 506l-3 -41h-770q3 -177 98.5 -272.5t237.5 -95.5q94 0 172.5 51t121.5 139l120 -31q-55 -127 -165 -201t-247 -74q-206 0 -337 135.5t-131 367.5q0 116 35.5 211.5
t98 159t147.5 98t184 34.5q197 0 317 -125t121 -356zM572 878q-131 0 -220.5 -79t-109.5 -227h632q-9 151 -90.5 228.5t-211.5 77.5z" />
    <glyph glyph-name="uni1EC2" unicode="&#x1ec2;" horiz-adv-x="1081" 
d="M588 2251q-42 0 -86 -29l-46 60q58 46 129 46q77 0 128.5 -47t51.5 -119q0 -116 -130 -156v-74h-75v114q121 27 121 114q0 39 -25 65t-68 26zM597 1773l-164 -228h-97l206 294h111l206 -294h-99zM960 1267h-584v-507h513v-127h-513v-505h584v-128h-728v1395h728v-128z
" />
    <glyph glyph-name="uni1EC3" unicode="&#x1ec3;" horiz-adv-x="1114" 
d="M567 1868q-45 0 -86 -29l-46 61q59 45 129 45q78 0 129 -47t51 -119q0 -56 -34 -96t-96 -60v-74h-75v114q121 27 121 115q0 39 -25 64.5t-68 25.5zM576 1382l-164 -228h-97l206 294h111l206 -294h-99zM1010 506l-3 -41h-770q3 -177 98.5 -272.5t237.5 -95.5
q94 0 172.5 51t121.5 139l120 -31q-55 -127 -165 -201t-247 -74q-206 0 -337 135.5t-131 367.5q0 116 35.5 211.5t98 159t147.5 98t184 34.5q197 0 317 -125t121 -356zM572 878q-131 0 -220.5 -79t-109.5 -227h632q-9 151 -90.5 228.5t-211.5 77.5z" />
    <glyph glyph-name="uni1EC4" unicode="&#x1ec4;" horiz-adv-x="1081" 
d="M461 2105q-54 0 -85.5 -44.5t-31.5 -115.5h-76q0 104 52.5 170t141.5 66q57 0 95 -27t69 -73q17 -23 28 -36t33.5 -25.5t49.5 -12.5q54 0 84.5 42t30.5 114h78q0 -102 -52 -167.5t-141 -65.5q-61 0 -99.5 27.5t-70.5 73.5q-16 24 -27.5 37t-32.5 25t-46 12zM542 1839h111
l206 -294h-99l-163 228l-164 -228h-97zM960 1267h-584v-507h513v-127h-513v-505h584v-128h-728v1395h728v-128z" />
    <glyph glyph-name="uni1EC5" unicode="&#x1ec5;" horiz-adv-x="1114" 
d="M456 1768q-43 0 -68.5 -38t-25.5 -98h-83q0 96 48 157t127 61q100 0 158 -96q34 -53 89 -53q43 0 68 36.5t25 97.5h84q0 -94 -48 -155.5t-127 -61.5q-100 0 -160 95q-36 55 -87 55zM521 1448h111l206 -294h-99l-163 228l-164 -228h-97zM1010 506l-3 -41h-770
q3 -177 98.5 -272.5t237.5 -95.5q94 0 172.5 51t121.5 139l120 -31q-55 -127 -165 -201t-247 -74q-206 0 -337 135.5t-131 367.5q0 116 35.5 211.5t98 159t147.5 98t184 34.5q197 0 317 -125t121 -356zM572 878q-131 0 -220.5 -79t-109.5 -227h632q-9 151 -90.5 228.5
t-211.5 77.5z" />
    <glyph glyph-name="uni1EC6" unicode="&#x1ec6;" horiz-adv-x="1081" 
d="M597 1773l-164 -228h-97l206 294h111l206 -294h-99zM960 1267h-584v-507h513v-127h-513v-505h584v-128h-728v1395h728v-128zM598 -312q40 0 70 -30t30 -70q0 -42 -29.5 -71t-70.5 -29t-71 29t-30 71q0 40 30 70t71 30z" />
    <glyph glyph-name="uni1EC7" unicode="&#x1ec7;" horiz-adv-x="1114" 
d="M576 1382l-164 -228h-97l206 294h111l206 -294h-99zM1010 506l-3 -41h-770q3 -177 98.5 -272.5t237.5 -95.5q94 0 172.5 51t121.5 139l120 -31q-55 -127 -165 -201t-247 -74q-206 0 -337 135.5t-131 367.5q0 116 35.5 211.5t98 159t147.5 98t184 34.5q197 0 317 -125
t121 -356zM572 878q-131 0 -220.5 -79t-109.5 -227h632q-9 151 -90.5 228.5t-211.5 77.5zM581 -312q41 0 70.5 -30t29.5 -70q0 -42 -29.5 -71t-70.5 -29t-71 29t-30 71q0 40 30 70t71 30z" />
    <glyph glyph-name="uni1EC8" unicode="&#x1ec8;" horiz-adv-x="603" 
d="M264 1536v114q121 27 121 114q0 39 -25 65t-68 26t-86 -29l-46 60q58 46 129 46q77 0 128.5 -47t51.5 -119q0 -116 -130 -156v-74h-75zM232 0v1395h139v-1395h-139z" />
    <glyph glyph-name="uni1EC9" unicode="&#x1ec9;" horiz-adv-x="506" 
d="M217 1069v114q121 27 121 115q0 39 -25 64.5t-68 25.5q-45 0 -86 -29l-46 61q59 45 129 45q78 0 129 -47t51 -119q0 -56 -34 -96t-96 -60v-74h-75zM185 0v968h135v-968h-135z" />
    <glyph glyph-name="uni1ECA" unicode="&#x1eca;" horiz-adv-x="603" 
d="M232 0v1395h139v-1395h-139zM301 -512q-41 0 -71 29t-30 71q0 40 30 70t71 30t70.5 -30t29.5 -70q0 -42 -29.5 -71t-70.5 -29z" />
    <glyph glyph-name="uni1ECB" unicode="&#x1ecb;" horiz-adv-x="506" 
d="M254 1224q-41 0 -71 30t-30 71q0 42 30 71t71 29t70.5 -29t29.5 -71q0 -41 -29.5 -71t-70.5 -30zM185 0v968h135v-968h-135zM254 -512q-41 0 -71 29t-30 71q0 40 30 70t71 30q40 0 70 -30t30 -70q0 -42 -29.5 -71t-70.5 -29z" />
    <glyph glyph-name="uni1ECC" unicode="&#x1ecc;" horiz-adv-x="1643" 
d="M822 -19q-194 0 -349 84.5t-247 249t-92 383.5q0 218 92 382.5t247 249t349 84.5q144 0 269 -49.5t218 -140t146.5 -226.5t53.5 -300q0 -165 -53.5 -301t-146.5 -226.5t-218 -140t-269 -49.5zM822 115q115 0 214 39t173.5 111.5t117 184t42.5 248.5q0 136 -42.5 247
t-117 183t-173.5 111t-214 39t-214.5 -39t-174.5 -111t-118 -183t-43 -247q0 -137 43 -248.5t118 -184t174.5 -111.5t214.5 -39zM822 -512q-41 0 -71 29t-30 71q0 40 30 70t71 30q40 0 70 -30t30 -70q0 -42 -29.5 -71t-70.5 -29z" />
    <glyph glyph-name="uni1ECD" unicode="&#x1ecd;" horiz-adv-x="1154" 
d="M578 -19q-133 0 -240 61t-170 176.5t-63 266.5q0 226 134 363.5t339 137.5t338 -137.5t133 -363.5q0 -227 -133.5 -365.5t-337.5 -138.5zM577 97q145 0 242.5 107t97.5 281q0 173 -97.5 279t-242.5 106t-241.5 -106t-96.5 -279q0 -174 96.5 -281t241.5 -107zM578 -512
q-41 0 -71 29t-30 71q0 40 30 70t71 30q40 0 70 -30t30 -70q0 -42 -29.5 -71t-70.5 -29z" />
    <glyph glyph-name="uni1ECE" unicode="&#x1ece;" horiz-adv-x="1643" 
d="M785 1536v114q121 27 121 114q0 39 -25 65t-68 26t-86 -29l-46 60q58 46 129 46q77 0 128.5 -47t51.5 -119q0 -116 -130 -156v-74h-75zM822 -19q-194 0 -349 84.5t-247 249t-92 383.5q0 218 92 382.5t247 249t349 84.5q144 0 269 -49.5t218 -140t146.5 -226.5t53.5 -300
q0 -165 -53.5 -301t-146.5 -226.5t-218 -140t-269 -49.5zM822 115q115 0 214 39t173.5 111.5t117 184t42.5 248.5q0 136 -42.5 247t-117 183t-173.5 111t-214 39t-214.5 -39t-174.5 -111t-118 -183t-43 -247q0 -137 43 -248.5t118 -184t174.5 -111.5t214.5 -39z" />
    <glyph glyph-name="uni1ECF" unicode="&#x1ecf;" horiz-adv-x="1154" 
d="M541 1068v114q121 27 121 115q0 39 -25 64.5t-68 25.5q-45 0 -86 -29l-46 61q59 45 129 45q78 0 129 -47t51 -119q0 -56 -34 -96t-96 -60v-74h-75zM578 -19q-133 0 -240 61t-170 176.5t-63 266.5q0 226 134 363.5t339 137.5t338 -137.5t133 -363.5q0 -227 -133.5 -365.5
t-337.5 -138.5zM577 97q145 0 242.5 107t97.5 281q0 173 -97.5 279t-242.5 106t-241.5 -106t-96.5 -279q0 -174 96.5 -281t241.5 -107z" />
    <glyph glyph-name="uni1ED0" unicode="&#x1ed0;" horiz-adv-x="1643" 
d="M762 1941l248 313l76 -57l-224 -256h-100zM657 1545h-97l206 294h111l206 -294h-99l-163 228zM822 -19q-194 0 -349 84.5t-247 249t-92 383.5q0 218 92 382.5t247 249t349 84.5q144 0 269 -49.5t218 -140t146.5 -226.5t53.5 -300q0 -165 -53.5 -301t-146.5 -226.5
t-218 -140t-269 -49.5zM822 115q115 0 214 39t173.5 111.5t117 184t42.5 248.5q0 136 -42.5 247t-117 183t-173.5 111t-214 39t-214.5 -39t-174.5 -111t-118 -183t-43 -247q0 -137 43 -248.5t118 -184t174.5 -111.5t214.5 -39z" />
    <glyph glyph-name="uni1ED1" unicode="&#x1ed1;" horiz-adv-x="1154" 
d="M518 1623l248 313l76 -57l-224 -256h-100zM413 1150h-97l206 294h111l206 -294h-99l-163 228zM578 -19q-133 0 -240 61t-170 176.5t-63 266.5q0 226 134 363.5t339 137.5t338 -137.5t133 -363.5q0 -227 -133.5 -365.5t-337.5 -138.5zM577 97q145 0 242.5 107t97.5 281
q0 173 -97.5 279t-242.5 106t-241.5 -106t-96.5 -279q0 -174 96.5 -281t241.5 -107z" />
    <glyph glyph-name="uni1ED2" unicode="&#x1ed2;" horiz-adv-x="1643" 
d="M772 1941l-224 256l76 57l247 -313h-99zM657 1545h-97l206 294h111l206 -294h-99l-163 228zM822 -19q-194 0 -349 84.5t-247 249t-92 383.5q0 218 92 382.5t247 249t349 84.5q144 0 269 -49.5t218 -140t146.5 -226.5t53.5 -300q0 -165 -53.5 -301t-146.5 -226.5
t-218 -140t-269 -49.5zM822 115q115 0 214 39t173.5 111.5t117 184t42.5 248.5q0 136 -42.5 247t-117 183t-173.5 111t-214 39t-214.5 -39t-174.5 -111t-118 -183t-43 -247q0 -137 43 -248.5t118 -184t174.5 -111.5t214.5 -39z" />
    <glyph glyph-name="uni1ED3" unicode="&#x1ed3;" horiz-adv-x="1154" 
d="M528 1623l-224 256l76 57l247 -313h-99zM413 1150h-97l206 294h111l206 -294h-99l-163 228zM578 -19q-133 0 -240 61t-170 176.5t-63 266.5q0 226 134 363.5t339 137.5t338 -137.5t133 -363.5q0 -227 -133.5 -365.5t-337.5 -138.5zM577 97q145 0 242.5 107t97.5 281
q0 173 -97.5 279t-242.5 106t-241.5 -106t-96.5 -279q0 -174 96.5 -281t241.5 -107z" />
    <glyph glyph-name="uni1ED4" unicode="&#x1ed4;" horiz-adv-x="1643" 
d="M784 1932v114q121 27 121 114q0 39 -25 65t-68 26q-42 0 -86 -29l-46 60q58 46 129 46q77 0 128.5 -47t51.5 -119q0 -116 -130 -156v-74h-75zM657 1545h-97l206 294h111l206 -294h-99l-163 228zM822 -19q-194 0 -349 84.5t-247 249t-92 383.5q0 218 92 382.5t247 249
t349 84.5q144 0 269 -49.5t218 -140t146.5 -226.5t53.5 -300q0 -165 -53.5 -301t-146.5 -226.5t-218 -140t-269 -49.5zM822 115q115 0 214 39t173.5 111.5t117 184t42.5 248.5q0 136 -42.5 247t-117 183t-173.5 111t-214 39t-214.5 -39t-174.5 -111t-118 -183t-43 -247
q0 -137 43 -248.5t118 -184t174.5 -111.5t214.5 -39z" />
    <glyph glyph-name="uni1ED5" unicode="&#x1ed5;" horiz-adv-x="1154" 
d="M540 1545v114q121 27 121 115q0 39 -25 64.5t-68 25.5q-45 0 -86 -29l-46 61q59 45 129 45q78 0 129 -47t51 -119q0 -56 -34 -96t-96 -60v-74h-75zM413 1150h-97l206 294h111l206 -294h-99l-163 228zM578 -19q-133 0 -240 61t-170 176.5t-63 266.5q0 226 134 363.5
t339 137.5t338 -137.5t133 -363.5q0 -227 -133.5 -365.5t-337.5 -138.5zM577 97q145 0 242.5 107t97.5 281q0 173 -97.5 279t-242.5 106t-241.5 -106t-96.5 -279q0 -174 96.5 -281t241.5 -107z" />
    <glyph glyph-name="uni1ED6" unicode="&#x1ed6;" horiz-adv-x="1643" 
d="M961 1930q-61 0 -99.5 27.5t-70.5 73.5q-16 24 -27.5 37t-32.5 25t-46 12q-54 0 -85.5 -44.5t-31.5 -115.5h-76q0 104 52.5 170t141.5 66q57 0 95 -27t69 -73q17 -23 28 -36t33.5 -25.5t49.5 -12.5q54 0 84.5 42t30.5 114h78q0 -102 -52 -167.5t-141 -65.5zM657 1545h-97
l206 294h111l206 -294h-99l-163 228zM822 -19q-194 0 -349 84.5t-247 249t-92 383.5q0 218 92 382.5t247 249t349 84.5q144 0 269 -49.5t218 -140t146.5 -226.5t53.5 -300q0 -165 -53.5 -301t-146.5 -226.5t-218 -140t-269 -49.5zM822 115q115 0 214 39t173.5 111.5t117 184
t42.5 248.5q0 136 -42.5 247t-117 183t-173.5 111t-214 39t-214.5 -39t-174.5 -111t-118 -183t-43 -247q0 -137 43 -248.5t118 -184t174.5 -111.5t214.5 -39z" />
    <glyph glyph-name="uni1ED7" unicode="&#x1ed7;" horiz-adv-x="1154" 
d="M704 1614q-100 0 -160 95q-36 55 -87 55q-43 0 -68.5 -38t-25.5 -98h-83q0 96 48 157t127 61q100 0 158 -96q34 -53 89 -53q43 0 68 36.5t25 97.5h84q0 -94 -48 -155.5t-127 -61.5zM413 1150h-97l206 294h111l206 -294h-99l-163 228zM578 -19q-133 0 -240 61t-170 176.5
t-63 266.5q0 226 134 363.5t339 137.5t338 -137.5t133 -363.5q0 -227 -133.5 -365.5t-337.5 -138.5zM577 97q145 0 242.5 107t97.5 281q0 173 -97.5 279t-242.5 106t-241.5 -106t-96.5 -279q0 -174 96.5 -281t241.5 -107z" />
    <glyph glyph-name="uni1ED8" unicode="&#x1ed8;" horiz-adv-x="1643" 
d="M657 1545h-97l206 294h111l206 -294h-99l-163 228zM822 -19q-194 0 -349 84.5t-247 249t-92 383.5q0 218 92 382.5t247 249t349 84.5q144 0 269 -49.5t218 -140t146.5 -226.5t53.5 -300q0 -165 -53.5 -301t-146.5 -226.5t-218 -140t-269 -49.5zM822 115q115 0 214 39
t173.5 111.5t117 184t42.5 248.5q0 136 -42.5 247t-117 183t-173.5 111t-214 39t-214.5 -39t-174.5 -111t-118 -183t-43 -247q0 -137 43 -248.5t118 -184t174.5 -111.5t214.5 -39zM822 -512q-41 0 -71 29t-30 71q0 40 30 70t71 30q40 0 70 -30t30 -70q0 -42 -29.5 -71
t-70.5 -29z" />
    <glyph glyph-name="uni1ED9" unicode="&#x1ed9;" horiz-adv-x="1154" 
d="M413 1150h-97l206 294h111l206 -294h-99l-163 228zM578 -19q-133 0 -240 61t-170 176.5t-63 266.5q0 226 134 363.5t339 137.5t338 -137.5t133 -363.5q0 -227 -133.5 -365.5t-337.5 -138.5zM577 97q145 0 242.5 107t97.5 281q0 173 -97.5 279t-242.5 106t-241.5 -106
t-96.5 -279q0 -174 96.5 -281t241.5 -107zM578 -512q-41 0 -71 29t-30 71q0 40 30 70t71 30q40 0 70 -30t30 -70q0 -42 -29.5 -71t-70.5 -29z" />
    <glyph glyph-name="uni1EDA" unicode="&#x1eda;" horiz-adv-x="1643" 
d="M1087 1801l-224 -256h-100l248 313zM1484 1457h99v-89q0 -235 -164 -235q-18 0 -36 3q126 -183 126 -438q0 -165 -53.5 -301t-146.5 -226.5t-218 -140t-269 -49.5q-194 0 -349 84.5t-247 249t-92 383.5q0 218 92 382.5t247 249t349 84.5q292 0 484 -187q43 -20 87 -20
q91 0 91 155v95zM822 115q115 0 214 39t173.5 111.5t117 184t42.5 248.5q0 136 -42.5 247t-117 183t-173.5 111t-214 39t-214.5 -39t-174.5 -111t-118 -183t-43 -247q0 -137 43 -248.5t118 -184t174.5 -111.5t214.5 -39z" />
    <glyph glyph-name="uni1EDB" unicode="&#x1edb;" horiz-adv-x="1154" 
d="M843 1402l-224 -256h-100l248 313zM1071 1094h99v-89q0 -235 -164 -235q-10 0 -32 2q75 -122 75 -287q0 -227 -133.5 -365.5t-337.5 -138.5q-133 0 -240 61t-170 176.5t-63 266.5q0 226 134 363.5t339 137.5q197 0 327 -127q41 -15 75 -15q91 0 91 155v95zM577 97
q145 0 242.5 107t97.5 281q0 173 -97.5 279t-242.5 106t-241.5 -106t-96.5 -279q0 -174 96.5 -281t241.5 -107z" />
    <glyph glyph-name="uni1EDC" unicode="&#x1edc;" horiz-adv-x="1643" 
d="M872 1545h-99l-224 256l76 57zM1484 1457h99v-89q0 -235 -164 -235q-18 0 -36 3q126 -183 126 -438q0 -165 -53.5 -301t-146.5 -226.5t-218 -140t-269 -49.5q-194 0 -349 84.5t-247 249t-92 383.5q0 218 92 382.5t247 249t349 84.5q292 0 484 -187q43 -20 87 -20
q91 0 91 155v95zM822 115q115 0 214 39t173.5 111.5t117 184t42.5 248.5q0 136 -42.5 247t-117 183t-173.5 111t-214 39t-214.5 -39t-174.5 -111t-118 -183t-43 -247q0 -137 43 -248.5t118 -184t174.5 -111.5t214.5 -39z" />
    <glyph glyph-name="uni1EDD" unicode="&#x1edd;" horiz-adv-x="1154" 
d="M628 1146h-99l-224 256l76 57zM1071 1094h99v-89q0 -235 -164 -235q-10 0 -32 2q75 -122 75 -287q0 -227 -133.5 -365.5t-337.5 -138.5q-133 0 -240 61t-170 176.5t-63 266.5q0 226 134 363.5t339 137.5q197 0 327 -127q41 -15 75 -15q91 0 91 155v95zM577 97
q145 0 242.5 107t97.5 281q0 173 -97.5 279t-242.5 106t-241.5 -106t-96.5 -279q0 -174 96.5 -281t241.5 -107z" />
    <glyph glyph-name="uni1EDE" unicode="&#x1ede;" horiz-adv-x="1643" 
d="M813 1855q-43 0 -86 -29l-46 60q58 46 129 46q77 0 128.5 -47t51.5 -119q0 -116 -130 -156v-74h-75v114q121 27 121 114q0 39 -25 65t-68 26zM1484 1457h99v-89q0 -235 -164 -235q-18 0 -36 3q126 -183 126 -438q0 -165 -53.5 -301t-146.5 -226.5t-218 -140t-269 -49.5
q-194 0 -349 84.5t-247 249t-92 383.5q0 218 92 382.5t247 249t349 84.5q292 0 484 -187q43 -20 87 -20q91 0 91 155v95zM822 115q115 0 214 39t173.5 111.5t117 184t42.5 248.5q0 136 -42.5 247t-117 183t-173.5 111t-214 39t-214.5 -39t-174.5 -111t-118 -183t-43 -247
q0 -137 43 -248.5t118 -184t174.5 -111.5t214.5 -39z" />
    <glyph glyph-name="uni1EDF" unicode="&#x1edf;" horiz-adv-x="1154" 
d="M569 1387q-45 0 -86 -29l-46 61q59 45 129 45q78 0 129 -47t51 -119q0 -56 -34 -96t-96 -60v-74h-75v114q121 27 121 115q0 39 -25 64.5t-68 25.5zM1071 1094h99v-89q0 -235 -164 -235q-10 0 -32 2q75 -122 75 -287q0 -227 -133.5 -365.5t-337.5 -138.5q-133 0 -240 61
t-170 176.5t-63 266.5q0 226 134 363.5t339 137.5q197 0 327 -127q41 -15 75 -15q91 0 91 155v95zM577 97q145 0 242.5 107t97.5 281q0 173 -97.5 279t-242.5 106t-241.5 -106t-96.5 -279q0 -174 96.5 -281t241.5 -107z" />
    <glyph glyph-name="uni1EE0" unicode="&#x1ee0;" horiz-adv-x="1643" 
d="M686 1709q-54 0 -85.5 -44.5t-31.5 -115.5h-76q0 104 52.5 170t141.5 66q57 0 95 -27t69 -73q17 -23 28 -36t33.5 -25.5t49.5 -12.5q54 0 84.5 42t30.5 114h78q0 -102 -52 -167.5t-141 -65.5q-61 0 -99.5 27.5t-70.5 73.5q-16 24 -27.5 37t-32.5 25t-46 12zM1484 1457h99
v-89q0 -235 -164 -235q-18 0 -36 3q126 -183 126 -438q0 -165 -53.5 -301t-146.5 -226.5t-218 -140t-269 -49.5q-194 0 -349 84.5t-247 249t-92 383.5q0 218 92 382.5t247 249t349 84.5q292 0 484 -187q43 -20 87 -20q91 0 91 155v95zM822 115q115 0 214 39t173.5 111.5
t117 184t42.5 248.5q0 136 -42.5 247t-117 183t-173.5 111t-214 39t-214.5 -39t-174.5 -111t-118 -183t-43 -247q0 -137 43 -248.5t118 -184t174.5 -111.5t214.5 -39z" />
    <glyph glyph-name="uni1EE1" unicode="&#x1ee1;" horiz-adv-x="1154" 
d="M458 1287q-43 0 -68.5 -38t-25.5 -98h-83q0 96 48 157t127 61q100 0 158 -96q34 -53 89 -53q43 0 68 36.5t25 97.5h84q0 -94 -48 -155.5t-127 -61.5q-100 0 -160 95q-36 55 -87 55zM1071 1094h99v-89q0 -235 -164 -235q-10 0 -32 2q75 -122 75 -287q0 -227 -133.5 -365.5
t-337.5 -138.5q-133 0 -240 61t-170 176.5t-63 266.5q0 226 134 363.5t339 137.5q197 0 327 -127q41 -15 75 -15q91 0 91 155v95zM577 97q145 0 242.5 107t97.5 281q0 173 -97.5 279t-242.5 106t-241.5 -106t-96.5 -279q0 -174 96.5 -281t241.5 -107z" />
    <glyph glyph-name="uni1EE2" unicode="&#x1ee2;" horiz-adv-x="1643" 
d="M1484 1457h99v-89q0 -235 -164 -235q-18 0 -36 3q126 -183 126 -438q0 -165 -53.5 -301t-146.5 -226.5t-218 -140t-269 -49.5q-194 0 -349 84.5t-247 249t-92 383.5q0 218 92 382.5t247 249t349 84.5q292 0 484 -187q43 -20 87 -20q91 0 91 155v95zM822 115q115 0 214 39
t173.5 111.5t117 184t42.5 248.5q0 136 -42.5 247t-117 183t-173.5 111t-214 39t-214.5 -39t-174.5 -111t-118 -183t-43 -247q0 -137 43 -248.5t118 -184t174.5 -111.5t214.5 -39zM822 -312q40 0 70 -30t30 -70q0 -42 -29.5 -71t-70.5 -29t-71 29t-30 71q0 40 30 70t71 30z
" />
    <glyph glyph-name="uni1EE3" unicode="&#x1ee3;" horiz-adv-x="1154" 
d="M1071 1094h99v-89q0 -235 -164 -235q-10 0 -32 2q75 -122 75 -287q0 -227 -133.5 -365.5t-337.5 -138.5q-133 0 -240 61t-170 176.5t-63 266.5q0 226 134 363.5t339 137.5q197 0 327 -127q41 -15 75 -15q91 0 91 155v95zM577 97q145 0 242.5 107t97.5 281
q0 173 -97.5 279t-242.5 106t-241.5 -106t-96.5 -279q0 -174 96.5 -281t241.5 -107zM578 -312q40 0 70 -30t30 -70q0 -42 -29.5 -71t-70.5 -29t-71 29t-30 71q0 40 30 70t71 30z" />
    <glyph glyph-name="uni1EE4" unicode="&#x1ee4;" horiz-adv-x="1397" 
d="M697 -19q-140 0 -252 56.5t-177 164.5t-65 251v942h139v-922q0 -174 99 -268.5t256 -94.5t257.5 95t100.5 268v922h138v-942q0 -215 -140.5 -343.5t-355.5 -128.5zM697 -512q-41 0 -71 29t-30 71q0 40 30 70t71 30t70.5 -30t29.5 -70q0 -42 -29.5 -71t-70.5 -29z" />
    <glyph glyph-name="uni1EE5" unicode="&#x1ee5;" horiz-adv-x="1094" 
d="M774 968h134v-968h-129l-3 134q-44 -73 -117.5 -113t-166.5 -40q-145 0 -235.5 87.5t-90.5 247.5v652h135v-621q0 -125 63.5 -187t162.5 -62q110 0 178.5 71t68.5 203v596zM550 -312q40 0 70 -30t30 -70q0 -42 -29.5 -71t-70.5 -29t-71 29t-30 71q0 40 30 70t71 30z" />
    <glyph glyph-name="uni1EE6" unicode="&#x1ee6;" horiz-adv-x="1397" 
d="M660 1536v114q121 27 121 114q0 39 -25 65t-68 26q-42 0 -86 -29l-46 60q58 46 129 46q77 0 128.5 -47t51.5 -119q0 -116 -130 -156v-74h-75zM697 -19q-140 0 -252 56.5t-177 164.5t-65 251v942h139v-922q0 -174 99 -268.5t256 -94.5t257.5 95t100.5 268v922h138v-942
q0 -215 -140.5 -343.5t-355.5 -128.5z" />
    <glyph glyph-name="uni1EE7" unicode="&#x1ee7;" horiz-adv-x="1094" 
d="M541 1388q-45 0 -86 -29l-46 61q59 45 129 45q78 0 129 -47t51 -119q0 -56 -34 -96t-96 -60v-74h-75v114q121 27 121 115q0 39 -25 64.5t-68 25.5zM774 968h134v-968h-129l-3 134q-44 -73 -117.5 -113t-166.5 -40q-145 0 -235.5 87.5t-90.5 247.5v652h135v-621
q0 -125 63.5 -187t162.5 -62q110 0 178.5 71t68.5 203v596z" />
    <glyph glyph-name="uni1EE8" unicode="&#x1ee8;" horiz-adv-x="1397" 
d="M962 1801l-224 -256h-100l248 313zM1359 1500h99v-89q0 -235 -164 -235q-47 0 -101 20v-743q0 -215 -140.5 -343.5t-355.5 -128.5q-140 0 -252 56.5t-177 164.5t-65 251v942h139v-922q0 -174 99 -268.5t256 -94.5t257.5 95t100.5 268v922h138v-130q39 -15 75 -15
q91 0 91 155v95z" />
    <glyph glyph-name="uni1EE9" unicode="&#x1ee9;" horiz-adv-x="1094" 
d="M815 1403l-224 -256h-100l248 313zM1089 1073h99v-89q0 -235 -164 -235q-55 0 -116 26v-775h-129l-3 134q-44 -73 -117.5 -113t-166.5 -40q-145 0 -235.5 87.5t-90.5 247.5v652h135v-621q0 -125 63.5 -187t162.5 -62q110 0 178.5 71t68.5 203v596h134v-124q46 -21 90 -21
q91 0 91 155v95z" />
    <glyph glyph-name="uni1EEA" unicode="&#x1eea;" horiz-adv-x="1397" 
d="M747 1545h-99l-224 256l76 57zM1359 1500h99v-89q0 -235 -164 -235q-47 0 -101 20v-743q0 -215 -140.5 -343.5t-355.5 -128.5q-140 0 -252 56.5t-177 164.5t-65 251v942h139v-922q0 -174 99 -268.5t256 -94.5t257.5 95t100.5 268v922h138v-130q39 -15 75 -15q91 0 91 155
v95z" />
    <glyph glyph-name="uni1EEB" unicode="&#x1eeb;" horiz-adv-x="1094" 
d="M600 1147h-99l-224 256l76 57zM1089 1073h99v-89q0 -235 -164 -235q-55 0 -116 26v-775h-129l-3 134q-44 -73 -117.5 -113t-166.5 -40q-145 0 -235.5 87.5t-90.5 247.5v652h135v-621q0 -125 63.5 -187t162.5 -62q110 0 178.5 71t68.5 203v596h134v-124q46 -21 90 -21
q91 0 91 155v95z" />
    <glyph glyph-name="uni1EEC" unicode="&#x1eec;" horiz-adv-x="1397" 
d="M688 1855q-42 0 -86 -29l-46 60q58 46 129 46q77 0 128.5 -47t51.5 -119q0 -116 -130 -156v-74h-75v114q121 27 121 114q0 39 -25 65t-68 26zM1359 1500h99v-89q0 -235 -164 -235q-47 0 -101 20v-743q0 -215 -140.5 -343.5t-355.5 -128.5q-140 0 -252 56.5t-177 164.5
t-65 251v942h139v-922q0 -174 99 -268.5t256 -94.5t257.5 95t100.5 268v922h138v-130q39 -15 75 -15q91 0 91 155v95z" />
    <glyph glyph-name="uni1EED" unicode="&#x1eed;" horiz-adv-x="1094" 
d="M541 1388q-45 0 -86 -29l-46 61q59 45 129 45q78 0 129 -47t51 -119q0 -56 -34 -96t-96 -60v-74h-75v114q121 27 121 115q0 39 -25 64.5t-68 25.5zM1089 1073h99v-89q0 -235 -164 -235q-55 0 -116 26v-775h-129l-3 134q-44 -73 -117.5 -113t-166.5 -40
q-145 0 -235.5 87.5t-90.5 247.5v652h135v-621q0 -125 63.5 -187t162.5 -62q110 0 178.5 71t68.5 203v596h134v-124q46 -21 90 -21q91 0 91 155v95z" />
    <glyph glyph-name="uni1EEE" unicode="&#x1eee;" horiz-adv-x="1397" 
d="M561 1709q-54 0 -85.5 -44.5t-31.5 -115.5h-76q0 104 52.5 170t141.5 66q57 0 95 -27t69 -73q17 -23 28 -36t33.5 -25.5t49.5 -12.5q54 0 84.5 42t30.5 114h78q0 -102 -52 -167.5t-141 -65.5q-61 0 -99.5 27.5t-70.5 73.5q-16 24 -27.5 37t-32.5 25t-46 12zM1359 1500h99
v-89q0 -235 -164 -235q-47 0 -101 20v-743q0 -215 -140.5 -343.5t-355.5 -128.5q-140 0 -252 56.5t-177 164.5t-65 251v942h139v-922q0 -174 99 -268.5t256 -94.5t257.5 95t100.5 268v922h138v-130q39 -15 75 -15q91 0 91 155v95z" />
    <glyph glyph-name="uni1EEF" unicode="&#x1eef;" horiz-adv-x="1094" 
d="M430 1288q-43 0 -68.5 -38t-25.5 -98h-83q0 96 48 157t127 61q100 0 158 -96q34 -53 89 -53q43 0 68 36.5t25 97.5h84q0 -94 -48 -155.5t-127 -61.5q-100 0 -160 95q-36 55 -87 55zM1089 1073h99v-89q0 -235 -164 -235q-55 0 -116 26v-775h-129l-3 134
q-44 -73 -117.5 -113t-166.5 -40q-145 0 -235.5 87.5t-90.5 247.5v652h135v-621q0 -125 63.5 -187t162.5 -62q110 0 178.5 71t68.5 203v596h134v-124q46 -21 90 -21q91 0 91 155v95z" />
    <glyph glyph-name="uni1EF0" unicode="&#x1ef0;" horiz-adv-x="1397" 
d="M1359 1500h99v-89q0 -235 -164 -235q-47 0 -101 20v-743q0 -215 -140.5 -343.5t-355.5 -128.5q-140 0 -252 56.5t-177 164.5t-65 251v942h139v-922q0 -174 99 -268.5t256 -94.5t257.5 95t100.5 268v922h138v-130q39 -15 75 -15q91 0 91 155v95zM697 -312q41 0 70.5 -30
t29.5 -70q0 -42 -29.5 -71t-70.5 -29t-71 29t-30 71q0 40 30 70t71 30z" />
    <glyph glyph-name="uni1EF1" unicode="&#x1ef1;" horiz-adv-x="1094" 
d="M1089 1073h99v-89q0 -235 -164 -235q-55 0 -116 26v-775h-129l-3 134q-44 -73 -117.5 -113t-166.5 -40q-145 0 -235.5 87.5t-90.5 247.5v652h135v-621q0 -125 63.5 -187t162.5 -62q110 0 178.5 71t68.5 203v596h134v-124q46 -21 90 -21q91 0 91 155v95zM550 -312
q40 0 70 -30t30 -70q0 -42 -29.5 -71t-70.5 -29t-71 29t-30 71q0 40 30 70t71 30z" />
    <glyph glyph-name="Ygrave" unicode="&#x1ef2;" horiz-adv-x="1167" 
d="M634 1545h-99l-224 256l76 57zM1113 1395l-459 -730v-665h-141v665l-459 730h162l368 -604l367 604h162z" />
    <glyph glyph-name="ygrave" unicode="&#x1ef3;" horiz-adv-x="956" 
d="M529 1147h-99l-224 256l76 57zM769 968h146l-548 -1424h-142l185 474l-368 950h151l289 -796z" />
    <glyph glyph-name="uni1EF4" unicode="&#x1ef4;" horiz-adv-x="1167" 
d="M513 0v665l-459 730h162l368 -604l367 604h162l-459 -730v-665h-141zM585 -312q41 0 70.5 -30t29.5 -70q0 -42 -29.5 -71t-70.5 -29t-71 29t-30 71q0 40 30 70t71 30z" />
    <glyph glyph-name="uni1EF5" unicode="&#x1ef5;" horiz-adv-x="956" 
d="M769 968h146l-548 -1424h-142l185 474l-368 950h151l289 -796zM764 -312q40 0 70 -30t30 -70q0 -42 -29.5 -71t-70.5 -29t-71 29t-30 71q0 40 30 70t71 30z" />
    <glyph glyph-name="uni1EF6" unicode="&#x1ef6;" horiz-adv-x="1167" 
d="M575 1855q-43 0 -86 -29l-46 60q58 46 129 46q77 0 128.5 -47t51.5 -119q0 -116 -130 -156v-74h-75v114q121 27 121 114q0 39 -25 65t-68 26zM1113 1395l-459 -730v-665h-141v665l-459 730h162l368 -604l367 604h162z" />
    <glyph glyph-name="uni1EF7" unicode="&#x1ef7;" horiz-adv-x="956" 
d="M470 1388q-45 0 -86 -29l-46 61q59 45 129 45q78 0 129 -47t51 -119q0 -56 -34 -96t-96 -60v-74h-75v114q121 27 121 115q0 39 -25 64.5t-68 25.5zM769 968h146l-548 -1424h-142l185 474l-368 950h151l289 -796z" />
    <glyph glyph-name="uni1EF8" unicode="&#x1ef8;" horiz-adv-x="1167" 
d="M448 1709q-54 0 -85.5 -44.5t-31.5 -115.5h-76q0 104 52.5 170t141.5 66q57 0 95 -27t69 -73q17 -23 28 -36t33.5 -25.5t49.5 -12.5q54 0 84.5 42t30.5 114h78q0 -102 -52 -167.5t-141 -65.5q-61 0 -99.5 27.5t-70.5 73.5q-16 24 -27.5 37t-32.5 25t-46 12zM1113 1395
l-459 -730v-665h-141v665l-459 730h162l368 -604l367 604h162z" />
    <glyph glyph-name="uni1EF9" unicode="&#x1ef9;" horiz-adv-x="956" 
d="M359 1288q-43 0 -68.5 -38t-25.5 -98h-83q0 96 48 157t127 61q100 0 158 -96q34 -53 89 -53q43 0 68 36.5t25 97.5h84q0 -94 -48 -155.5t-127 -61.5q-100 0 -160 95q-36 55 -87 55zM769 968h146l-548 -1424h-142l185 474l-368 950h151l289 -796z" />
    <glyph glyph-name="endash" unicode="&#x2013;" horiz-adv-x="1384" 
d="M180 477v111h1024v-111h-1024z" />
    <glyph glyph-name="emdash" unicode="&#x2014;" horiz-adv-x="2408" 
d="M180 477v111h2048v-111h-2048z" />
    <glyph glyph-name="quoteleft" unicode="&#x2018;" horiz-adv-x="568" 
d="M305 1395h100l-121 -609h-143z" />
    <glyph glyph-name="quoteright" unicode="&#x2019;" horiz-adv-x="566" 
d="M261 786h-100l121 609h143z" />
    <glyph glyph-name="quotesinglbase" unicode="&#x201a;" horiz-adv-x="566" 
d="M261 -359h-100l121 609h143z" />
    <glyph glyph-name="quotedblleft" unicode="&#x201c;" horiz-adv-x="918" 
d="M305 1395h100l-121 -609h-143zM655 1395h100l-121 -609h-143z" />
    <glyph glyph-name="quotedblright" unicode="&#x201d;" horiz-adv-x="916" 
d="M261 786h-100l121 609h143zM611 786h-100l121 609h143z" />
    <glyph glyph-name="quotedblbase" unicode="&#x201e;" horiz-adv-x="932" 
d="M261 -359h-100l121 609h143zM626 -359h-100l121 609h143z" />
    <glyph glyph-name="dagger" unicode="&#x2020;" horiz-adv-x="1028" 
d="M921 979v-94h-365v-1210h-96v1210h-353v94h353v416h96v-416h365z" />
    <glyph glyph-name="daggerdbl" unicode="&#x2021;" horiz-adv-x="1094" 
d="M954 885h-365v-694h365v-94h-365v-422h-96v422h-353v94h353v694h-353v94h353v416h96v-416h365v-94z" />
    <glyph glyph-name="bullet" unicode="&#x2022;" horiz-adv-x="870" 
d="M436 432q-95 0 -163 66.5t-68 163.5q0 92 68.5 161t162.5 69q91 0 160.5 -69t69.5 -161q0 -97 -69 -163.5t-161 -66.5z" />
    <glyph glyph-name="ellipsis" unicode="&#x2026;" horiz-adv-x="1835" 
d="M328 -20q-41 0 -70.5 29t-29.5 71q0 40 30 70t70 30t70 -30t30 -70q0 -42 -29.5 -71t-70.5 -29zM923 -20q-41 0 -70.5 29t-29.5 71q0 40 29.5 70t70.5 30t70.5 -30t29.5 -70q0 -42 -29.5 -71t-70.5 -29zM1505 -20q-41 0 -70.5 29t-29.5 71q0 40 29.5 70t70.5 30t70.5 -30
t29.5 -70q0 -42 -29.5 -71t-70.5 -29z" />
    <glyph glyph-name="perthousand" unicode="&#x2030;" horiz-adv-x="2118" 
d="M406 866q-113 0 -192.5 80.5t-79.5 195.5q0 113 80 193t192 80q113 0 192.5 -80.5t79.5 -192.5q0 -114 -79 -195t-193 -81zM293 -2l747 1400h131l-748 -1400h-130zM406 970q72 0 122 50.5t50 121.5t-50 120.5t-122 49.5q-70 0 -121 -49.5t-51 -120.5q0 -72 51 -122
t121 -50zM1071 -18q-114 0 -194 80.5t-80 193.5q0 114 80.5 194t193.5 80q111 0 190.5 -80.5t79.5 -193.5t-79 -193.5t-191 -80.5zM1717 -18q-114 0 -194 80.5t-80 193.5q0 114 80.5 194t193.5 80q112 0 191 -80.5t79 -193.5t-79 -193.5t-191 -80.5zM1071 84q70 0 121 51
t51 121q0 71 -51 121t-121 50q-73 0 -122.5 -49t-49.5 -122q0 -70 50 -121t122 -51zM1717 84q70 0 121 51t51 121q0 71 -51 121t-121 50q-72 0 -122 -49.5t-50 -121.5q0 -70 50.5 -121t121.5 -51z" />
    <glyph glyph-name="guilsinglleft" unicode="&#x2039;" horiz-adv-x="606" 
d="M394 214l-312 377l312 377h119l-311 -377l311 -377h-119z" />
    <glyph glyph-name="guilsinglright" unicode="&#x203a;" horiz-adv-x="606" 
d="M93 214l311 377l-311 377h120l311 -377l-311 -377h-120z" />
    <glyph glyph-name="fraction" unicode="&#x2044;" horiz-adv-x="393" 
d="M-252 0l788 1395h109l-788 -1395h-109z" />
    <glyph glyph-name="Euro" unicode="&#x20ac;" horiz-adv-x="1571" 
d="M945 114q106 0 201 49.5t164 139.5l111 -86q-88 -110 -213 -173t-262 -63q-239 0 -405 132t-214 386h-162v96h149q-5 57 -5 105q0 55 4 96h-148v97h160q24 130 81 230t138.5 163.5t183 96t218.5 32.5q136 0 261.5 -63t213.5 -171l-111 -86q-68 89 -163 136.5t-202 47.5
q-89 0 -165 -22t-140 -67.5t-109.5 -121t-67.5 -175.5h532v-97h-547q-4 -40 -4 -96q0 -50 5 -105h546v-96h-530q44 -194 171.5 -289.5t308.5 -95.5z" />
    <glyph glyph-name="uni2113" unicode="&#x2113;" horiz-adv-x="1147" 
d="M639 -11q-84 0 -150 28t-106.5 77t-63.5 108t-28 127v18q-20 -13 -63 -45t-62 -45l-42 81q27 22 83 64t83 65v514q0 101 18.5 180.5t49 129.5t72.5 83t86 46t92 13q88 0 149 -44t87.5 -112t26.5 -152q0 -168 -114.5 -337t-331.5 -360v-47q1 -137 71.5 -208.5t168.5 -71.5
q95 0 175 60.5t125 141.5l69 -64q-70 -124 -171 -187t-224 -63zM425 562q162 159 251.5 293.5t89.5 262.5q0 215 -160 215q-32 0 -62 -17t-57.5 -53t-44.5 -103.5t-17 -158.5v-439z" />
    <glyph glyph-name="uni2116" unicode="&#x2116;" horiz-adv-x="2922" 
d="M1294 237v1299h134v-1536h-121l-896 1301v-1301h-134v1536h122zM2240 312q-105 0 -198 39.5t-161 110.5t-107 175t-39 226q0 244 144.5 396.5t360.5 152.5q217 0 361 -152.5t144 -396.5q0 -246 -144 -398.5t-361 -152.5zM2240 1291q-160 0 -267 -117t-107 -311
q0 -196 106.5 -314t267.5 -118q160 0 268 118.5t108 313.5q0 194 -108 311t-268 117zM1779 0v98h924v-98h-924z" />
    <glyph glyph-name="trademark" unicode="&#x2122;" horiz-adv-x="1602" 
d="M143 1462v74h435v-74h-179v-648h-78v648h-178zM1241 1536h83v-722h-78v586l-246 -407l-247 404v-583h-80v722h85l241 -401z" />
    <glyph glyph-name="estimated" unicode="&#x212e;" horiz-adv-x="2040" 
d="M1036 -18q-178 0 -340 62t-279 167.5t-186.5 250.5t-69.5 304q0 161 69.5 307.5t186.5 252t279 168t340 62.5q239 0 440.5 -105.5t319 -287.5t117.5 -397v-21h-1418q-12 0 -12 -8v-430q0 -24 18 -49q107 -109 245.5 -171t291.5 -62q167 0 313.5 69.5t251.5 192.5h125
q-118 -141 -300.5 -223t-391.5 -82zM495 788h1088q8 0 8 15v430q0 34 -20 51q-107 105 -244 165t-289 60q-151 0 -288.5 -61.5t-245.5 -169.5q-21 -23 -21 -53v-422q0 -15 12 -15z" />
    <glyph glyph-name="partialdiff" unicode="&#x2202;" horiz-adv-x="1190" 
d="M394 1441q127 16 241 -37t195 -156.5t128 -253.5t46 -322q-2 -185 -64.5 -335t-171.5 -235t-242 -85q-113 0 -198 46t-127.5 126.5t-47 189.5t44.5 235q43 116 115.5 199t159 123t185.5 38t195 -49q-47 205 -169.5 317t-289.5 93v106zM877 672q1 63 -5 132
q-115 71 -221 69.5t-195.5 -78.5t-139.5 -215q-47 -137 -34.5 -240t79 -164t169.5 -61q140 0 241.5 158.5t105.5 398.5z" />
    <glyph glyph-name="emptyset" unicode="&#x2205;" horiz-adv-x="1601" 
d="M800 -16q-116 0 -221 41.5t-188 116.5l-88 -89l-45 45l88 89q-158 174 -158 409q0 166 82 307t223 223t307 82q236 0 410 -158l88 89l45 -45l-88 -89q158 -174 158 -409q0 -166 -82 -307t-223.5 -223t-307.5 -82zM425 265l706 707q-139 123 -331 123q-136 0 -251 -66.5
t-181.5 -181.5t-66.5 -251q0 -193 124 -331zM800 97q136 0 251.5 66.5t182 181.5t66.5 251q0 193 -124 331l-706 -707q139 -123 330 -123z" />
    <glyph glyph-name="product" unicode="&#x220f;" horiz-adv-x="1638" 
d="M295 0v1274h-129v121h1308v-121h-131v-1274h-119v1274h-807v-1274h-122z" />
    <glyph glyph-name="summation" unicode="&#x2211;" horiz-adv-x="1416" 
d="M130 2v97l654 669l-654 671v97h1151v-118h-954l624 -650l-624 -649h954v-117h-1151z" />
    <glyph glyph-name="minus" unicode="&#x2212;" horiz-adv-x="1271" 
d="M274 618v116h723v-116h-723z" />
    <glyph glyph-name="radical" unicode="&#x221a;" horiz-adv-x="1410" 
d="M483 0l-235 726h-135v113h215l213 -644l642 1341h124l-734 -1536h-90z" />
    <glyph glyph-name="infinity" unicode="&#x221e;" horiz-adv-x="1734" 
d="M491 305q-115 0 -193.5 83t-83.5 208q5 125 83.5 208t193.5 83q178 0 375 -214q92 103 189 158.5t186 55.5q118 0 194.5 -81.5t81.5 -209.5q-5 -128 -81.5 -209.5t-194.5 -81.5q-89 0 -186 55t-189 158q-197 -213 -375 -213zM491 408q66 0 146 49t159 139
q-79 90 -159 139t-146 49q-70 0 -121 -54.5t-53 -133.5q2 -79 53 -133.5t121 -54.5zM1241 408q70 0 120.5 54t52.5 134q-2 80 -52.5 134t-120.5 54q-137 0 -308 -188q171 -188 308 -188z" />
    <glyph glyph-name="integral" unicode="&#x222b;" horiz-adv-x="965" 
d="M99 -457v133q168 0 245 76.5t77 242.5v1131q0 125 77.5 207t193.5 82q106 0 180 -65l-68 -102q-45 42 -105 42q-65 0 -105 -48.5t-40 -128.5v-1115q0 -218 -121 -336.5t-334 -118.5z" />
    <glyph glyph-name="approxequal" unicode="&#x2248;" horiz-adv-x="1452" 
d="M947 663q-47 0 -87 12.5t-76.5 41.5t-53 45.5t-49.5 53.5q-43 48 -80 72.5t-82 24.5q-81 0 -131 -63.5t-52 -163.5h-110q1 151 82.5 244t210.5 93q77 0 133 -37t121 -114q22 -25 35 -38.5t34.5 -30.5t45 -25t51.5 -8q78 0 128 62t52 163h109q-2 -144 -79.5 -238
t-201.5 -94zM947 252q-47 0 -87.5 12.5t-76 40t-53 45t-49.5 53.5q-42 49 -78.5 74t-83.5 25q-81 -1 -131 -64.5t-52 -163.5h-110q1 152 82.5 245t210.5 93q77 0 133 -36.5t121 -112.5q42 -52 78 -78t88 -26q78 0 128 62.5t52 164.5h109q-2 -146 -79 -240t-202 -94z" />
    <glyph glyph-name="notequal" unicode="&#x2260;" horiz-adv-x="1259" 
d="M212 0l225 429h-253v116h313l147 283h-460v116h520l217 412h105l-215 -412h271v-116h-333l-147 -283h480v-116h-540l-225 -429h-105z" />
    <glyph glyph-name="lessequal" unicode="&#x2264;" horiz-adv-x="1452" 
d="M1283 1396v-129l-1005 -476l1005 -479v-130l-1131 540v138zM152 0v106h1131v-106h-1131z" />
    <glyph glyph-name="greaterequal" unicode="&#x2265;" horiz-adv-x="1452" 
d="M169 1396l1130 -536v-138l-1130 -540v130l1005 479l-1005 476v129zM169 0v106h1130v-106h-1130z" />
    <glyph glyph-name="lozenge" unicode="&#x25ca;" horiz-adv-x="1449" 
d="M725 106l-618 617l618 618l617 -616zM727 260l461 465l-461 461l-465 -463z" />
    <glyph glyph-name="uniF8FF" unicode="&#xf8ff;" horiz-adv-x="1887" 
d="M944 0q-158 0 -302 62t-248.5 166t-166.5 248t-62 302t62 302.5t166.5 248.5t248.5 165.5t302 61.5t302.5 -61.5t248.5 -165.5t165.5 -248.5t61.5 -302.5t-61.5 -302t-165.5 -248t-248.5 -166t-302.5 -62zM944 74q143 0 273.5 56t225 150.5t150 224.5t55.5 273
t-55.5 273.5t-150 225t-225 150.5t-273.5 56t-273.5 -56t-225 -150.5t-150.5 -225t-56 -273.5t56 -273t150.5 -224.5t225 -150.5t273.5 -56zM1351 444q-12 0 -23 13l-297 295q-12 12 -12 27.5t11 25.5l297 297q11 10 25.5 10t25.5 -10q10 -11 10 -26.5t-10 -26.5l-271 -271
l271 -270q22 -22 0 -51q-10 -13 -27 -13zM536 444q-15 0 -26 11t-11 26v594q0 16 11 26.5t26 10.5t26 -10.5t11 -26.5v-594q0 -15 -11 -26t-26 -11zM944 444q-16 0 -26.5 11t-10.5 26v594q0 16 10.5 26.5t26.5 10.5q15 0 25.5 -10.5t10.5 -26.5v-594q0 -15 -10.5 -26
t-25.5 -11zM647 741q-16 0 -26.5 11t-10.5 26q0 16 10.5 26.5t26.5 10.5h186q15 0 26 -10.5t11 -26.5q0 -15 -11 -26t-26 -11h-186z" />
    <glyph glyph-name="G.ss02" horiz-adv-x="1583" 
d="M825 -19q-146 0 -272 48.5t-219.5 138t-146.5 225t-53 301.5t53 303t146 227.5t218.5 140t270.5 49.5q190 0 344 -83t242 -241l-123 -66q-71 128 -192 192.5t-271 64.5q-116 0 -215.5 -39t-173.5 -111.5t-116.5 -184t-42.5 -249.5t43 -250t117.5 -184.5t173 -111.5
t211.5 -39q217 0 361.5 133t147.5 329h-503v122h644q2 -82 -9 -160q-35 -255 -202.5 -405t-432.5 -150z" />
    <glyph glyph-name="Gbreve.ss02" horiz-adv-x="1583" 
d="M812 1545q-149 0 -239.5 66t-90.5 196h87q0 -94 66.5 -140t176.5 -46q111 0 178 46t67 140h87q0 -130 -91 -196t-241 -66zM825 -19q-146 0 -272 48.5t-219.5 138t-146.5 225t-53 301.5t53 303t146 227.5t218.5 140t270.5 49.5q190 0 344 -83t242 -241l-123 -66
q-71 128 -192 192.5t-271 64.5q-116 0 -215.5 -39t-173.5 -111.5t-116.5 -184t-42.5 -249.5t43 -250t117.5 -184.5t173 -111.5t211.5 -39q217 0 361.5 133t147.5 329h-503v122h644q2 -82 -9 -160q-35 -255 -202.5 -405t-432.5 -150z" />
    <glyph glyph-name="Gcommaaccent.ss02" horiz-adv-x="1583" 
d="M825 -19q-146 0 -272 48.5t-219.5 138t-146.5 225t-53 301.5t53 303t146 227.5t218.5 140t270.5 49.5q190 0 344 -83t242 -241l-123 -66q-71 128 -192 192.5t-271 64.5q-116 0 -215.5 -39t-173.5 -111.5t-116.5 -184t-42.5 -249.5t43 -250t117.5 -184.5t173 -111.5
t211.5 -39q217 0 361.5 133t147.5 329h-503v122h644q2 -82 -9 -160q-35 -255 -202.5 -405t-432.5 -150zM664 -554l-76 33l158 363h128z" />
    <glyph glyph-name="Gdotaccent.ss02" horiz-adv-x="1583" 
d="M813 1536q-41 0 -71 30t-30 70q0 42 30 71t71 29t70.5 -29t29.5 -71q0 -40 -29.5 -70t-70.5 -30zM825 -19q-146 0 -272 48.5t-219.5 138t-146.5 225t-53 301.5t53 303t146 227.5t218.5 140t270.5 49.5q190 0 344 -83t242 -241l-123 -66q-71 128 -192 192.5t-271 64.5
q-116 0 -215.5 -39t-173.5 -111.5t-116.5 -184t-42.5 -249.5t43 -250t117.5 -184.5t173 -111.5t211.5 -39q217 0 361.5 133t147.5 329h-503v122h644q2 -82 -9 -160q-35 -255 -202.5 -405t-432.5 -150z" />
    <glyph glyph-name="G.ss03" horiz-adv-x="1583" 
d="M825 -19q-146 0 -272 48.5t-219.5 138t-146.5 225t-53 301.5t53 303t146 227.5t218.5 140t270.5 49.5q190 0 344 -83t242 -241l-123 -66q-71 128 -192 192.5t-271 64.5q-116 0 -215.5 -39t-173.5 -111.5t-116.5 -184t-42.5 -249.5t43 -250t117.5 -184.5t173 -111.5
t211.5 -39q217 0 361.5 133t147.5 329h-503v122h644q2 -82 -9 -160q-35 -255 -202.5 -405t-432.5 -150z" />
    <glyph glyph-name="Gbreve.ss03" horiz-adv-x="1583" 
d="M812 1545q-149 0 -239.5 66t-90.5 196h87q0 -94 66.5 -140t176.5 -46q111 0 178 46t67 140h87q0 -130 -91 -196t-241 -66zM825 -19q-146 0 -272 48.5t-219.5 138t-146.5 225t-53 301.5t53 303t146 227.5t218.5 140t270.5 49.5q190 0 344 -83t242 -241l-123 -66
q-71 128 -192 192.5t-271 64.5q-116 0 -215.5 -39t-173.5 -111.5t-116.5 -184t-42.5 -249.5t43 -250t117.5 -184.5t173 -111.5t211.5 -39q217 0 361.5 133t147.5 329h-503v122h644q2 -82 -9 -160q-35 -255 -202.5 -405t-432.5 -150z" />
    <glyph glyph-name="Gcommaaccent.ss03" horiz-adv-x="1583" 
d="M825 -19q-146 0 -272 48.5t-219.5 138t-146.5 225t-53 301.5t53 303t146 227.5t218.5 140t270.5 49.5q190 0 344 -83t242 -241l-123 -66q-71 128 -192 192.5t-271 64.5q-116 0 -215.5 -39t-173.5 -111.5t-116.5 -184t-42.5 -249.5t43 -250t117.5 -184.5t173 -111.5
t211.5 -39q217 0 361.5 133t147.5 329h-503v122h644q2 -82 -9 -160q-35 -255 -202.5 -405t-432.5 -150zM664 -554l-76 33l158 363h128z" />
    <glyph glyph-name="Gdotaccent.ss03" horiz-adv-x="1583" 
d="M813 1536q-41 0 -71 30t-30 70q0 42 30 71t71 29t70.5 -29t29.5 -71q0 -40 -29.5 -70t-70.5 -30zM825 -19q-146 0 -272 48.5t-219.5 138t-146.5 225t-53 301.5t53 303t146 227.5t218.5 140t270.5 49.5q190 0 344 -83t242 -241l-123 -66q-71 128 -192 192.5t-271 64.5
q-116 0 -215.5 -39t-173.5 -111.5t-116.5 -184t-42.5 -249.5t43 -250t117.5 -184.5t173 -111.5t211.5 -39q217 0 361.5 133t147.5 329h-503v122h644q2 -82 -9 -160q-35 -255 -202.5 -405t-432.5 -150z" />
    <glyph glyph-name="i.loclTRK" horiz-adv-x="506" 
d="M254 1224q-41 0 -71 30t-30 71q0 42 30 71t71 29t70.5 -29t29.5 -71q0 -41 -29.5 -71t-70.5 -30zM185 0v968h135v-968h-135z" />
    <glyph glyph-name="g.ss01" horiz-adv-x="1066" 
d="M992 968v-106h-164q85 -94 85 -230q0 -154 -107.5 -245.5t-275.5 -91.5q-131 0 -227 57q-46 -41 -46 -92q0 -26 10 -46t33 -34.5t46 -24.5t63.5 -18t71 -13t80.5 -12q10 -1 15 -2q57 -8 94.5 -14t85.5 -17.5t78.5 -24t63.5 -33t51.5 -45t30.5 -59.5t12 -78
q0 -143 -118 -224t-311 -81q-190 0 -305 74.5t-115 189.5q0 129 130 255q-141 58 -141 182q0 104 94 178q-86 91 -86 226q0 154 110 251.5t273 97.5q72 0 137 -20h332zM527 401q116 0 185 64.5t69 173.5q0 110 -69 176t-184 66q-116 0 -186 -66t-70 -176q0 -108 69 -173
t186 -65zM863 -178q0 38 -15.5 65.5t-43 44.5t-68.5 29t-89 20t-108 16q-12 1 -18 2q-104 14 -162 28q-90 -112 -90 -205q0 -87 80 -135.5t221 -48.5q131 0 212 45t81 139z" />
    <glyph glyph-name="gbreve.ss01" horiz-adv-x="1066" 
d="M532 1139q-143 0 -236.5 85t-93.5 221h90q0 -100 68 -165t172 -65q106 0 174 65t68 165h90q0 -137 -93.5 -221.5t-238.5 -84.5zM992 968v-106h-164q85 -94 85 -230q0 -154 -107.5 -245.5t-275.5 -91.5q-131 0 -227 57q-46 -41 -46 -92q0 -26 10 -46t33 -34.5t46 -24.5
t63.5 -18t71 -13t80.5 -12q10 -1 15 -2q57 -8 94.5 -14t85.5 -17.5t78.5 -24t63.5 -33t51.5 -45t30.5 -59.5t12 -78q0 -143 -118 -224t-311 -81q-190 0 -305 74.5t-115 189.5q0 129 130 255q-141 58 -141 182q0 104 94 178q-86 91 -86 226q0 154 110 251.5t273 97.5
q72 0 137 -20h332zM527 401q116 0 185 64.5t69 173.5q0 110 -69 176t-184 66q-116 0 -186 -66t-70 -176q0 -108 69 -173t186 -65zM863 -178q0 38 -15.5 65.5t-43 44.5t-68.5 29t-89 20t-108 16q-12 1 -18 2q-104 14 -162 28q-90 -112 -90 -205q0 -87 80 -135.5t221 -48.5
q131 0 212 45t81 139z" />
    <glyph glyph-name="gcommaaccent.ss01" horiz-adv-x="1066" 
d="M669 1436l-121 -299h-143l164 299h100zM992 968v-106h-164q85 -94 85 -230q0 -154 -107.5 -245.5t-275.5 -91.5q-131 0 -227 57q-46 -41 -46 -92q0 -26 10 -46t33 -34.5t46 -24.5t63.5 -18t71 -13t80.5 -12q10 -1 15 -2q57 -8 94.5 -14t85.5 -17.5t78.5 -24t63.5 -33
t51.5 -45t30.5 -59.5t12 -78q0 -143 -118 -224t-311 -81q-190 0 -305 74.5t-115 189.5q0 129 130 255q-141 58 -141 182q0 104 94 178q-86 91 -86 226q0 154 110 251.5t273 97.5q72 0 137 -20h332zM527 401q116 0 185 64.5t69 173.5q0 110 -69 176t-184 66q-116 0 -186 -66
t-70 -176q0 -108 69 -173t186 -65zM863 -178q0 38 -15.5 65.5t-43 44.5t-68.5 29t-89 20t-108 16q-12 1 -18 2q-104 14 -162 28q-90 -112 -90 -205q0 -87 80 -135.5t221 -48.5q131 0 212 45t81 139z" />
    <glyph glyph-name="gdotaccent.ss01" horiz-adv-x="1066" 
d="M534 1224q-41 0 -71 30t-30 71q0 42 30 71t71 29t70.5 -29t29.5 -71q0 -41 -29.5 -71t-70.5 -30zM992 968v-106h-164q85 -94 85 -230q0 -154 -107.5 -245.5t-275.5 -91.5q-131 0 -227 57q-46 -41 -46 -92q0 -26 10 -46t33 -34.5t46 -24.5t63.5 -18t71 -13t80.5 -12
q10 -1 15 -2q57 -8 94.5 -14t85.5 -17.5t78.5 -24t63.5 -33t51.5 -45t30.5 -59.5t12 -78q0 -143 -118 -224t-311 -81q-190 0 -305 74.5t-115 189.5q0 129 130 255q-141 58 -141 182q0 104 94 178q-86 91 -86 226q0 154 110 251.5t273 97.5q72 0 137 -20h332zM527 401
q116 0 185 64.5t69 173.5q0 110 -69 176t-184 66q-116 0 -186 -66t-70 -176q0 -108 69 -173t186 -65zM863 -178q0 38 -15.5 65.5t-43 44.5t-68.5 29t-89 20t-108 16q-12 1 -18 2q-104 14 -162 28q-90 -112 -90 -205q0 -87 80 -135.5t221 -48.5q131 0 212 45t81 139z" />
    <glyph glyph-name="a.ss02" horiz-adv-x="1230" 
d="M913 968h131v-968h-131l-2 210q-50 -104 -145.5 -167t-212.5 -63q-92 0 -174 36.5t-142.5 101.5t-96 160t-35.5 206t36 205.5t96.5 159t142.5 101t173 36.5q119 0 215 -63t145 -169v214zM580 100q142 0 240 111t98 273q0 161 -98.5 272.5t-239.5 111.5
q-144 0 -242 -107.5t-98 -276.5t98 -276.5t242 -107.5z" />
    <glyph glyph-name="aacute.ss02" horiz-adv-x="1230" 
d="M880 1403l-224 -256h-100l248 313zM913 968h131v-968h-131l-2 210q-50 -104 -145.5 -167t-212.5 -63q-92 0 -174 36.5t-142.5 101.5t-96 160t-35.5 206t36 205.5t96.5 159t142.5 101t173 36.5q119 0 215 -63t145 -169v214zM580 100q142 0 240 111t98 273
q0 161 -98.5 272.5t-239.5 111.5q-144 0 -242 -107.5t-98 -276.5t98 -276.5t242 -107.5z" />
    <glyph glyph-name="abreve.ss02" horiz-adv-x="1230" 
d="M613 1139q-143 0 -236.5 85t-93.5 221h90q0 -100 68 -165t172 -65q106 0 174 65t68 165h90q0 -137 -93.5 -221.5t-238.5 -84.5zM913 968h131v-968h-131l-2 210q-50 -104 -145.5 -167t-212.5 -63q-92 0 -174 36.5t-142.5 101.5t-96 160t-35.5 206t36 205.5t96.5 159
t142.5 101t173 36.5q119 0 215 -63t145 -169v214zM580 100q142 0 240 111t98 273q0 161 -98.5 272.5t-239.5 111.5q-144 0 -242 -107.5t-98 -276.5t98 -276.5t242 -107.5z" />
    <glyph glyph-name="uni1EAF.ss02" horiz-adv-x="1230" 
d="M880 1880l-224 -256h-100l248 313zM613 1139q-143 0 -236.5 85t-93.5 221h90q0 -100 68 -165t172 -65q106 0 174 65t68 165h90q0 -137 -93.5 -221.5t-238.5 -84.5zM913 968h131v-968h-131l-2 210q-50 -104 -145.5 -167t-212.5 -63q-92 0 -174 36.5t-142.5 101.5t-96 160
t-35.5 206t36 205.5t96.5 159t142.5 101t173 36.5q119 0 215 -63t145 -169v214zM580 100q142 0 240 111t98 273q0 161 -98.5 272.5t-239.5 111.5q-144 0 -242 -107.5t-98 -276.5t98 -276.5t242 -107.5z" />
    <glyph glyph-name="uni1EB7.ss02" horiz-adv-x="1230" 
d="M613 1139q-143 0 -236.5 85t-93.5 221h90q0 -100 68 -165t172 -65q106 0 174 65t68 165h90q0 -137 -93.5 -221.5t-238.5 -84.5zM913 968h131v-968h-131l-2 210q-50 -104 -145.5 -167t-212.5 -63q-92 0 -174 36.5t-142.5 101.5t-96 160t-35.5 206t36 205.5t96.5 159
t142.5 101t173 36.5q119 0 215 -63t145 -169v214zM580 100q142 0 240 111t98 273q0 161 -98.5 272.5t-239.5 111.5q-144 0 -242 -107.5t-98 -276.5t98 -276.5t242 -107.5zM615 -312q41 0 70.5 -30t29.5 -70q0 -42 -29.5 -71t-70.5 -29t-71 29t-30 71q0 40 30 70t71 30z" />
    <glyph glyph-name="uni1EB1.ss02" horiz-adv-x="1230" 
d="M665 1624h-99l-224 256l76 57zM613 1139q-143 0 -236.5 85t-93.5 221h90q0 -100 68 -165t172 -65q106 0 174 65t68 165h90q0 -137 -93.5 -221.5t-238.5 -84.5zM913 968h131v-968h-131l-2 210q-50 -104 -145.5 -167t-212.5 -63q-92 0 -174 36.5t-142.5 101.5t-96 160
t-35.5 206t36 205.5t96.5 159t142.5 101t173 36.5q119 0 215 -63t145 -169v214zM580 100q142 0 240 111t98 273q0 161 -98.5 272.5t-239.5 111.5q-144 0 -242 -107.5t-98 -276.5t98 -276.5t242 -107.5z" />
    <glyph glyph-name="uni1EB3.ss02" horiz-adv-x="1230" 
d="M606 1865q-45 0 -86 -29l-46 61q59 45 129 45q78 0 129 -47t51 -119q0 -56 -34 -96t-96 -60v-74h-75v114q121 27 121 115q0 39 -25 64.5t-68 25.5zM613 1139q-143 0 -236.5 85t-93.5 221h90q0 -100 68 -165t172 -65q106 0 174 65t68 165h90q0 -137 -93.5 -221.5
t-238.5 -84.5zM913 968h131v-968h-131l-2 210q-50 -104 -145.5 -167t-212.5 -63q-92 0 -174 36.5t-142.5 101.5t-96 160t-35.5 206t36 205.5t96.5 159t142.5 101t173 36.5q119 0 215 -63t145 -169v214zM580 100q142 0 240 111t98 273q0 161 -98.5 272.5t-239.5 111.5
q-144 0 -242 -107.5t-98 -276.5t98 -276.5t242 -107.5z" />
    <glyph glyph-name="uni1EB5.ss02" horiz-adv-x="1230" 
d="M495 1765q-43 0 -68.5 -38t-25.5 -98h-83q0 96 48 157t127 61q100 0 158 -96q34 -53 89 -53q43 0 68 36.5t25 97.5h84q0 -94 -48 -155.5t-127 -61.5q-100 0 -160 95q-36 55 -87 55zM613 1139q-143 0 -236.5 85t-93.5 221h90q0 -100 68 -165t172 -65q106 0 174 65t68 165
h90q0 -137 -93.5 -221.5t-238.5 -84.5zM913 968h131v-968h-131l-2 210q-50 -104 -145.5 -167t-212.5 -63q-92 0 -174 36.5t-142.5 101.5t-96 160t-35.5 206t36 205.5t96.5 159t142.5 101t173 36.5q119 0 215 -63t145 -169v214zM580 100q142 0 240 111t98 273
q0 161 -98.5 272.5t-239.5 111.5q-144 0 -242 -107.5t-98 -276.5t98 -276.5t242 -107.5z" />
    <glyph glyph-name="uni01CE.ss02" horiz-adv-x="1230" 
d="M670 1151h-112l-206 294h98l163 -230l164 230h99zM913 968h131v-968h-131l-2 210q-50 -104 -145.5 -167t-212.5 -63q-92 0 -174 36.5t-142.5 101.5t-96 160t-35.5 206t36 205.5t96.5 159t142.5 101t173 36.5q119 0 215 -63t145 -169v214zM580 100q142 0 240 111t98 273
q0 161 -98.5 272.5t-239.5 111.5q-144 0 -242 -107.5t-98 -276.5t98 -276.5t242 -107.5z" />
    <glyph glyph-name="acircumflex.ss02" horiz-adv-x="1230" 
d="M614 1379l-164 -228h-97l206 294h111l206 -294h-99zM913 968h131v-968h-131l-2 210q-50 -104 -145.5 -167t-212.5 -63q-92 0 -174 36.5t-142.5 101.5t-96 160t-35.5 206t36 205.5t96.5 159t142.5 101t173 36.5q119 0 215 -63t145 -169v214zM580 100q142 0 240 111t98 273
q0 161 -98.5 272.5t-239.5 111.5q-144 0 -242 -107.5t-98 -276.5t98 -276.5t242 -107.5z" />
    <glyph glyph-name="uni1EA5.ss02" horiz-adv-x="1230" 
d="M879 1880l-224 -256h-100l248 313zM614 1379l-164 -228h-97l206 294h111l206 -294h-99zM913 968h131v-968h-131l-2 210q-50 -104 -145.5 -167t-212.5 -63q-92 0 -174 36.5t-142.5 101.5t-96 160t-35.5 206t36 205.5t96.5 159t142.5 101t173 36.5q119 0 215 -63t145 -169
v214zM580 100q142 0 240 111t98 273q0 161 -98.5 272.5t-239.5 111.5q-144 0 -242 -107.5t-98 -276.5t98 -276.5t242 -107.5z" />
    <glyph glyph-name="uni1EAD.ss02" horiz-adv-x="1230" 
d="M614 1379l-164 -228h-97l206 294h111l206 -294h-99zM913 968h131v-968h-131l-2 210q-50 -104 -145.5 -167t-212.5 -63q-92 0 -174 36.5t-142.5 101.5t-96 160t-35.5 206t36 205.5t96.5 159t142.5 101t173 36.5q119 0 215 -63t145 -169v214zM580 100q142 0 240 111t98 273
q0 161 -98.5 272.5t-239.5 111.5q-144 0 -242 -107.5t-98 -276.5t98 -276.5t242 -107.5zM615 -312q41 0 70.5 -30t29.5 -70q0 -42 -29.5 -71t-70.5 -29t-71 29t-30 71q0 40 30 70t71 30z" />
    <glyph glyph-name="uni1EA7.ss02" horiz-adv-x="1230" 
d="M664 1624h-99l-224 256l76 57zM353 1151l206 294h111l206 -294h-99l-163 228l-164 -228h-97zM913 968h131v-968h-131l-2 210q-50 -104 -145.5 -167t-212.5 -63q-92 0 -174 36.5t-142.5 101.5t-96 160t-35.5 206t36 205.5t96.5 159t142.5 101t173 36.5q119 0 215 -63
t145 -169v214zM580 100q142 0 240 111t98 273q0 161 -98.5 272.5t-239.5 111.5q-144 0 -242 -107.5t-98 -276.5t98 -276.5t242 -107.5z" />
    <glyph glyph-name="uni1EA9.ss02" horiz-adv-x="1230" 
d="M605 1865q-45 0 -86 -29l-46 61q59 45 129 45q78 0 129 -47t51 -119q0 -56 -34 -96t-96 -60v-74h-75v114q121 27 121 115q0 39 -25 64.5t-68 25.5zM614 1379l-164 -228h-97l206 294h111l206 -294h-99zM913 968h131v-968h-131l-2 210q-50 -104 -145.5 -167t-212.5 -63
q-92 0 -174 36.5t-142.5 101.5t-96 160t-35.5 206t36 205.5t96.5 159t142.5 101t173 36.5q119 0 215 -63t145 -169v214zM580 100q142 0 240 111t98 273q0 161 -98.5 272.5t-239.5 111.5q-144 0 -242 -107.5t-98 -276.5t98 -276.5t242 -107.5z" />
    <glyph glyph-name="uni1EAB.ss02" horiz-adv-x="1230" 
d="M494 1765q-43 0 -68.5 -38t-25.5 -98h-83q0 96 48 157t127 61q100 0 158 -96q34 -53 89 -53q43 0 68 36.5t25 97.5h84q0 -94 -48 -155.5t-127 -61.5q-100 0 -160 95q-36 55 -87 55zM559 1445h111l206 -294h-99l-163 228l-164 -228h-97zM913 968h131v-968h-131l-2 210
q-50 -104 -145.5 -167t-212.5 -63q-92 0 -174 36.5t-142.5 101.5t-96 160t-35.5 206t36 205.5t96.5 159t142.5 101t173 36.5q119 0 215 -63t145 -169v214zM580 100q142 0 240 111t98 273q0 161 -98.5 272.5t-239.5 111.5q-144 0 -242 -107.5t-98 -276.5t98 -276.5
t242 -107.5z" />
    <glyph glyph-name="adieresis.ss02" horiz-adv-x="1230" 
d="M438 1224q-41 0 -71 30t-30 71q0 42 30 71t71 29t70.5 -29t29.5 -71q0 -41 -29.5 -71t-70.5 -30zM793 1224q-41 0 -71 30t-30 71q0 42 29.5 71t71.5 29q41 0 70.5 -29t29.5 -71q0 -41 -29.5 -71t-70.5 -30zM913 968h131v-968h-131l-2 210q-50 -104 -145.5 -167
t-212.5 -63q-92 0 -174 36.5t-142.5 101.5t-96 160t-35.5 206t36 205.5t96.5 159t142.5 101t173 36.5q119 0 215 -63t145 -169v214zM580 100q142 0 240 111t98 273q0 161 -98.5 272.5t-239.5 111.5q-144 0 -242 -107.5t-98 -276.5t98 -276.5t242 -107.5z" />
    <glyph glyph-name="uni1EA1.ss02" horiz-adv-x="1230" 
d="M913 968h131v-968h-131l-2 210q-50 -104 -145.5 -167t-212.5 -63q-92 0 -174 36.5t-142.5 101.5t-96 160t-35.5 206t36 205.5t96.5 159t142.5 101t173 36.5q119 0 215 -63t145 -169v214zM580 100q142 0 240 111t98 273q0 161 -98.5 272.5t-239.5 111.5
q-144 0 -242 -107.5t-98 -276.5t98 -276.5t242 -107.5zM615 -312q41 0 70.5 -30t29.5 -70q0 -42 -29.5 -71t-70.5 -29t-71 29t-30 71q0 40 30 70t71 30z" />
    <glyph glyph-name="agrave.ss02" horiz-adv-x="1230" 
d="M665 1147h-99l-224 256l76 57zM913 968h131v-968h-131l-2 210q-50 -104 -145.5 -167t-212.5 -63q-92 0 -174 36.5t-142.5 101.5t-96 160t-35.5 206t36 205.5t96.5 159t142.5 101t173 36.5q119 0 215 -63t145 -169v214zM580 100q142 0 240 111t98 273q0 161 -98.5 272.5
t-239.5 111.5q-144 0 -242 -107.5t-98 -276.5t98 -276.5t242 -107.5z" />
    <glyph glyph-name="uni1EA3.ss02" horiz-adv-x="1230" 
d="M606 1388q-45 0 -86 -29l-46 61q59 45 129 45q78 0 129 -47t51 -119q0 -56 -34 -96t-96 -60v-74h-75v114q121 27 121 115q0 39 -25 64.5t-68 25.5zM913 968h131v-968h-131l-2 210q-50 -104 -145.5 -167t-212.5 -63q-92 0 -174 36.5t-142.5 101.5t-96 160t-35.5 206
t36 205.5t96.5 159t142.5 101t173 36.5q119 0 215 -63t145 -169v214zM580 100q142 0 240 111t98 273q0 161 -98.5 272.5t-239.5 111.5q-144 0 -242 -107.5t-98 -276.5t98 -276.5t242 -107.5z" />
    <glyph glyph-name="amacron.ss02" horiz-adv-x="1230" 
d="M935 1263v-91h-641v91h641zM913 968h131v-968h-131l-2 210q-50 -104 -145.5 -167t-212.5 -63q-92 0 -174 36.5t-142.5 101.5t-96 160t-35.5 206t36 205.5t96.5 159t142.5 101t173 36.5q119 0 215 -63t145 -169v214zM580 100q142 0 240 111t98 273q0 161 -98.5 272.5
t-239.5 111.5q-144 0 -242 -107.5t-98 -276.5t98 -276.5t242 -107.5z" />
    <glyph glyph-name="aogonek.ss02" horiz-adv-x="1230" 
d="M1044 968v-968q-3 -3 -42.5 -45t-60 -66t-42.5 -60.5t-22 -59.5q0 -45 81 -45q45 0 86 26v-108q-42 -15 -96 -15q-170 0 -170 89q0 52 51.5 123t135.5 161h-52l-2 210q-50 -104 -145.5 -167t-212.5 -63q-92 0 -174 36.5t-142.5 101.5t-96 160t-35.5 206t36 205.5
t96.5 159t142.5 101t173 36.5q119 0 215 -63t145 -169v214h131zM580 100q142 0 240 111t98 273q0 161 -98.5 272.5t-239.5 111.5q-144 0 -242 -107.5t-98 -276.5t98 -276.5t242 -107.5z" />
    <glyph glyph-name="aring.ss02" horiz-adv-x="1230" 
d="M615 1108q-83 0 -142.5 59.5t-59.5 141.5q0 83 59 141.5t143 58.5q81 0 139.5 -58.5t58.5 -141.5q0 -81 -58.5 -141t-139.5 -60zM615 1439q-54 0 -91 -38t-37 -92t37 -90.5t91 -36.5t90.5 36.5t36.5 90.5t-37 92t-90 38zM913 968h131v-968h-131l-2 210
q-50 -104 -145.5 -167t-212.5 -63q-92 0 -174 36.5t-142.5 101.5t-96 160t-35.5 206t36 205.5t96.5 159t142.5 101t173 36.5q119 0 215 -63t145 -169v214zM580 100q142 0 240 111t98 273q0 161 -98.5 272.5t-239.5 111.5q-144 0 -242 -107.5t-98 -276.5t98 -276.5
t242 -107.5z" />
    <glyph glyph-name="atilde.ss02" horiz-adv-x="1230" 
d="M495 1288q-43 0 -68.5 -38t-25.5 -98h-83q0 96 48 157t127 61q100 0 158 -96q34 -53 89 -53q43 0 68 36.5t25 97.5h84q0 -94 -48 -155.5t-127 -61.5q-100 0 -160 95q-36 55 -87 55zM913 968h131v-968h-131l-2 210q-50 -104 -145.5 -167t-212.5 -63q-92 0 -174 36.5
t-142.5 101.5t-96 160t-35.5 206t36 205.5t96.5 159t142.5 101t173 36.5q119 0 215 -63t145 -169v214zM580 100q142 0 240 111t98 273q0 161 -98.5 272.5t-239.5 111.5q-144 0 -242 -107.5t-98 -276.5t98 -276.5t242 -107.5z" />
    <glyph glyph-name="f_t" horiz-adv-x="1202" 
d="M229 0v858h-186v110h186v238q0 84 18.5 144.5t48.5 96t79 56t99 27t119 6.5v-116q-26 0 -39 -0.5t-37 -2t-36.5 -5.5t-31.5 -11.5t-29.5 -18t-23 -27t-19 -38t-11 -50.5t-4.5 -65v-234h286q133 0 133 129v197h116v-326h231v-110h-231v-596q0 -71 40 -111t102 -40h88v-111
h-119q-112 0 -178 65.5t-66 183.5v609h-402v-858h-133z" />
    <glyph glyph-name="t_t" horiz-adv-x="1234" 
d="M477 0q-113 0 -179 65.5t-66 183.5v609h-201v110h80q62 0 94.5 32t32.5 92v144h128v-268h308q62 0 94.5 32t32.5 92v144h128v-268h231v-110h-231v-596q0 -71 40 -111t102 -40h88v-111h-119q-112 0 -178 65.5t-66 183.5v609h-430v-596q0 -71 39.5 -111t102.5 -40h88v-111
h-119z" />
    <glyph glyph-name="zero.subs" horiz-adv-x="817" 
d="M408 -381q-144 0 -237.5 134.5t-93.5 338.5q0 205 93.5 339t237.5 134q145 0 238.5 -134t93.5 -339t-94 -339t-238 -134zM408 -285q98 0 165 107.5t67 269.5t-67 269.5t-165 107.5t-165 -107.5t-67 -269.5t67 -269.5t165 -107.5z" />
    <glyph glyph-name="one.subs" horiz-adv-x="481" 
d="M240 553h93v-922h-98v818l-227 -176v103z" />
    <glyph glyph-name="two.subs" horiz-adv-x="717" 
d="M147 -286h514v-83h-624v93q219 190 322 291t139.5 160t36.5 117q0 90 -51.5 138.5t-128.5 47.5q-82 -1 -132.5 -51.5t-53.5 -133.5h-101q3 122 85 198t206 76q115 0 191 -70.5t80 -189.5q4 -116 -93 -233t-390 -360z" />
    <glyph glyph-name="three.subs" horiz-adv-x="700" 
d="M465 143q73 -33 116.5 -97t43.5 -145q0 -117 -84.5 -199.5t-206.5 -82.5q-119 0 -202.5 78t-83.5 192h97q1 -77 57 -129t135 -52q81 0 135 55t54 138q0 81 -54.5 135t-136.5 54h-71v82h66q66 0 110.5 44t44.5 111q0 65 -44 107.5t-109 42.5q-64 0 -107 -41.5t-44 -108.5
l-96 2q0 101 71 168.5t175 67.5q103 0 173 -67t70 -166q0 -61 -29 -110t-80 -79z" />
    <glyph glyph-name="four.subs" horiz-adv-x="720" 
d="M655 -93v-81h-103v-195h-95v195h-441v72l412 655h124v-646h103zM114 -93h343v555z" />
    <glyph glyph-name="five.subs" horiz-adv-x="764" 
d="M365 224q166 0 247 -79.5t81 -217.5q0 -134 -88.5 -220.5t-225.5 -86.5q-116 0 -202.5 60.5t-104.5 174.5h102q17 -74 74 -110.5t127 -36.5q97 0 157 61.5t60 155.5q0 100 -58.5 157.5t-179.5 57.5h-252l79 413h471v-89h-397l-46 -240h156z" />
    <glyph glyph-name="six.subs" horiz-adv-x="723" 
d="M680 -50q7 -134 -85 -229t-223 -100q-132 -5 -230.5 81.5t-103.5 217.5q-4 125 79 223l327 410h119l-265 -319q31 10 70 11q121 2 213 -83t99 -212zM372 -288q93 5 156 74.5t57 162.5q-7 95 -76 155.5t-160 55.5q-97 -5 -158.5 -73.5t-56.5 -163.5t74.5 -155.5
t163.5 -55.5z" />
    <glyph glyph-name="seven.subs" horiz-adv-x="641" 
d="M27 553h614v-64l-484 -858h-115l476 831h-491v91z" />
    <glyph glyph-name="eight.subs" horiz-adv-x="737" 
d="M505 142q72 -34 114 -99t42 -147q0 -115 -84.5 -196t-207.5 -81q-124 0 -209 81t-85 196q0 82 42.5 147t114.5 99q-50 30 -77 80.5t-27 112.5q0 97 69 163.5t173 66.5q101 0 170 -66.5t69 -163.5q0 -62 -27 -112.5t-77 -80.5zM370 480q-66 0 -110.5 -43.5t-44.5 -109.5
q0 -65 44.5 -109t110.5 -44q63 0 107 44t44 109t-44 109t-107 44zM369 -294q81 0 137.5 58t56.5 142q0 81 -56.5 137.5t-137.5 56.5q-82 0 -139.5 -56.5t-57.5 -137.5q0 -84 57 -142t140 -58z" />
    <glyph glyph-name="nine.subs" horiz-adv-x="723" 
d="M685 264q4 -121 -78 -223l-326 -410h-121l266 320q-30 -10 -73 -11q-119 -3 -212 82.5t-100 211.5q-7 133 86 228.5t224 100.5q132 5 230.5 -81.5t103.5 -217.5zM375 24q96 5 157.5 73.5t56.5 164.5q-5 95 -73.5 155t-162.5 55q-95 -5 -158 -74t-57 -163q7 -96 76 -156
t161 -55z" />
    <glyph glyph-name="zero.dnom" horiz-adv-x="817" 
d="M408 -12q-144 0 -237.5 134t-93.5 339q0 204 93.5 338.5t237.5 134.5t238 -134t94 -339t-93.5 -339t-238.5 -134zM408 84q98 0 165 107.5t67 269.5q0 161 -67 269t-165 108t-165 -108t-67 -269q0 -162 67 -269.5t165 -107.5z" />
    <glyph glyph-name="one.dnom" horiz-adv-x="481" 
d="M240 922h93v-922h-98v818l-227 -176v103z" />
    <glyph glyph-name="two.dnom" horiz-adv-x="717" 
d="M147 83h514v-83h-624v93q166 145 259 230.5t149.5 151t73 104t16.5 82.5q0 90 -51.5 138.5t-128.5 47.5q-83 -1 -133 -52t-53 -134h-101q3 123 85 199t206 76q115 0 191 -71t80 -189q3 -80 -41 -157t-142.5 -173.5t-299.5 -262.5z" />
    <glyph glyph-name="three.dnom" horiz-adv-x="700" 
d="M465 512q73 -33 116.5 -97.5t43.5 -145.5q0 -117 -84.5 -199t-206.5 -82q-119 0 -202.5 77.5t-83.5 192.5h97q1 -77 57 -129t135 -52q81 0 135 55t54 138q0 81 -54 134t-137 53h-71v84h66q66 0 110.5 44t44.5 111q0 65 -44 107.5t-109 42.5q-63 0 -106.5 -42t-44.5 -108
l-96 2q0 101 71 168.5t175 67.5q103 0 173 -67t70 -167q0 -61 -29 -109.5t-80 -78.5z" />
    <glyph glyph-name="four.dnom" horiz-adv-x="720" 
d="M655 276v-81h-103v-195h-95v195h-441v72l412 655h124v-646h103zM114 276h343v554z" />
    <glyph glyph-name="five.dnom" horiz-adv-x="764" 
d="M365 593q166 0 247 -79.5t81 -217.5q0 -135 -88.5 -221.5t-225.5 -86.5q-116 0 -202.5 60.5t-104.5 174.5h102q17 -73 74 -109.5t127 -36.5q98 0 157.5 61t59.5 155q0 101 -58.5 158t-179.5 57h-252l79 414h471v-89h-397l-46 -240h156z" />
    <glyph glyph-name="six.dnom" horiz-adv-x="723" 
d="M680 319q7 -134 -84.5 -229t-223.5 -100t-230.5 81.5t-103.5 217.5q-4 125 79 223l327 410h119l-266 -319q33 9 71 10q121 3 213 -82t99 -212zM372 81q93 5 156 74.5t57 162.5q-7 95 -76 155.5t-160 55.5q-97 -5 -158.5 -73.5t-56.5 -164.5q5 -94 74.5 -154.5
t163.5 -55.5z" />
    <glyph glyph-name="seven.dnom" horiz-adv-x="641" 
d="M27 922h614v-64l-484 -858h-115l476 831h-491v91z" />
    <glyph glyph-name="eight.dnom" horiz-adv-x="737" 
d="M505 511q72 -34 114 -99.5t42 -146.5q0 -116 -84.5 -196.5t-207.5 -80.5q-124 0 -209 80.5t-85 196.5q0 81 42.5 146.5t114.5 99.5q-50 30 -77 80.5t-27 112.5q0 97 69 163.5t173 66.5q101 0 170 -66.5t69 -163.5q0 -62 -27 -112.5t-77 -80.5zM370 849
q-66 0 -110.5 -44.5t-44.5 -108.5q0 -65 44.5 -109t110.5 -44q63 0 107 44t44 109q0 64 -44.5 108.5t-106.5 44.5zM369 75q81 0 137.5 58t56.5 142q0 80 -56.5 137t-137.5 57q-82 0 -139.5 -57t-57.5 -137q0 -84 57 -142t140 -58z" />
    <glyph glyph-name="nine.dnom" horiz-adv-x="723" 
d="M685 633q4 -121 -78 -223l-326 -410h-121l264 318q-27 -8 -71 -10q-119 -2 -212 83.5t-100 211.5q-7 133 86 228.5t224 100.5q132 5 230.5 -81.5t103.5 -217.5zM375 393q96 5 157.5 73.5t56.5 163.5t-73.5 155.5t-162.5 55.5q-95 -5 -158 -74t-57 -163q7 -96 76 -156
t161 -55z" />
    <glyph glyph-name="zero.numr" horiz-adv-x="817" 
d="M408 469q-144 0 -237.5 134.5t-93.5 338.5q0 205 93.5 339t237.5 134q145 0 238.5 -134t93.5 -339t-94 -339t-238 -134zM408 565q98 0 165 108t67 269q0 162 -67 269t-165 107q-99 0 -165.5 -106.5t-66.5 -269.5q0 -162 66.5 -269.5t165.5 -107.5z" />
    <glyph glyph-name="one.numr" horiz-adv-x="481" 
d="M241 1395h92v-922h-98v819l-227 -175v101z" />
    <glyph glyph-name="two.numr" horiz-adv-x="717" 
d="M147 562h514v-82h-624v92q219 190 322 291t139.5 160t36.5 117q0 91 -51 139t-129 48q-83 -1 -133 -52t-53 -134h-101q3 122 85 198t206 76q115 0 191 -70.5t80 -189.5q4 -116 -93 -233t-390 -360z" />
    <glyph glyph-name="three.numr" horiz-adv-x="700" 
d="M463 994q74 -34 118 -98t44 -145q0 -118 -84.5 -200t-205.5 -82q-119 0 -203 78t-84 193h99q0 -77 55.5 -129.5t133.5 -52.5q80 0 134.5 55.5t54.5 138.5q0 81 -55 134t-139 53h-67v83h63q67 0 111 44.5t44 111.5q0 65 -43 107.5t-107 42.5t-106.5 -42t-42.5 -108l-98 1
q0 101 71 168.5t176 67.5q102 0 172 -67t70 -166q0 -61 -29.5 -110t-81.5 -78z" />
    <glyph glyph-name="four.numr" horiz-adv-x="720" 
d="M655 749v-81h-103v-195h-95v195h-441v72l412 655h124v-646h103zM114 749h343v555z" />
    <glyph glyph-name="five.numr" horiz-adv-x="764" 
d="M365 1066q166 0 247 -79.5t81 -217.5q0 -135 -88.5 -221.5t-225.5 -86.5q-116 0 -202.5 60.5t-104.5 174.5h102q17 -73 74 -109.5t127 -36.5q98 0 157.5 61.5t59.5 155.5q0 99 -59 157t-179 58h-252l79 413h471v-89h-397l-46 -240h156z" />
    <glyph glyph-name="six.numr" horiz-adv-x="723" 
d="M680 792q7 -134 -85 -229t-223 -100q-132 -5 -230.5 81.5t-103.5 217.5q-4 125 79 223l327 410h119l-265 -319q31 10 70 11q121 4 213 -82t99 -213zM372 554q93 5 156 74.5t57 162.5q-7 95 -76 155.5t-160 55.5q-97 -5 -158.5 -73.5t-56.5 -163.5t74.5 -155.5
t163.5 -55.5z" />
    <glyph glyph-name="seven.numr" horiz-adv-x="641" 
d="M27 1395h614v-64l-484 -858h-115l476 831h-491v91z" />
    <glyph glyph-name="eight.numr" horiz-adv-x="737" 
d="M504 992q72 -33 114.5 -98.5t42.5 -147.5q0 -115 -84.5 -196t-207.5 -81q-124 0 -209 81t-85 196q0 82 42.5 147.5t115.5 99.5q-50 29 -77.5 79.5t-27.5 112.5q0 97 69 163.5t173 66.5q100 0 169.5 -66.5t69.5 -163.5q0 -130 -105 -193zM370 1331q-66 0 -110.5 -44.5
t-44.5 -109.5t44.5 -109t110.5 -44q63 0 107 44t44 109q0 64 -44.5 109t-106.5 45zM369 556q81 0 137.5 58t56.5 143q0 80 -56.5 137t-137.5 57q-82 0 -139.5 -57t-57.5 -137q0 -85 57 -143t140 -58z" />
    <glyph glyph-name="nine.numr" horiz-adv-x="723" 
d="M363 1415q132 0 227 -89.5t95 -221.5q0 -115 -78 -211l-326 -409h-121l266 319q-33 -11 -80 -11q-120 0 -212.5 89.5t-92.5 218.5q0 132 95.5 223.5t226.5 91.5zM363 876q96 0 161 65.5t65 160.5q0 96 -65 159t-159 63t-160.5 -64.5t-66.5 -156.5q0 -97 66.5 -162
t158.5 -65z" />
    <glyph glyph-name="zero.sups" horiz-adv-x="817" 
d="M408 978q-144 0 -237.5 134t-93.5 339q0 204 93.5 338.5t237.5 134.5t238 -134t94 -339t-93.5 -339t-238.5 -134zM408 1074q98 0 165 107.5t67 269.5t-67 268.5t-165 106.5q-99 0 -165.5 -106.5t-66.5 -268.5q0 -163 66.5 -270t165.5 -107z" />
    <glyph glyph-name="one.sups" horiz-adv-x="481" 
d="M241 1905h92v-922h-98v818l-227 -175v102z" />
    <glyph glyph-name="two.sups" horiz-adv-x="717" 
d="M147 1066h514v-83h-624v93q166 145 259 230.5t149.5 151t73 104t16.5 82.5q0 90 -51.5 138.5t-128.5 47.5q-83 -1 -133 -52t-53 -134h-101q3 123 85 199t206 76q115 0 191 -70.5t80 -189.5q4 -116 -92.5 -232.5t-390.5 -360.5z" />
    <glyph glyph-name="three.sups" horiz-adv-x="700" 
d="M464 1495q74 -33 117.5 -97.5t43.5 -145.5q0 -118 -84 -199.5t-206 -81.5q-119 0 -203 77.5t-84 192.5h99q0 -77 55.5 -129t133.5 -52q81 0 135 55t54 138q0 81 -55 134t-139 53h-67v84h63q67 0 111 44t44 111q0 65 -43 107.5t-107 42.5t-106.5 -42t-42.5 -108l-98 2
q0 101 71 168.5t176 67.5q102 0 172 -67.5t70 -166.5q0 -61 -29 -110t-81 -78z" />
    <glyph glyph-name="four.sups" horiz-adv-x="720" 
d="M655 1259v-81h-103v-195h-95v195h-441v72l412 655h124v-646h103zM114 1259h343v554z" />
    <glyph glyph-name="five.sups" horiz-adv-x="764" 
d="M365 1576q166 0 247 -79.5t81 -217.5q0 -135 -88.5 -221.5t-225.5 -86.5q-116 0 -202.5 60.5t-104.5 174.5h102q17 -73 74 -109.5t127 -36.5q98 0 157.5 61t59.5 155q0 100 -59 158t-179 58h-252l79 413h471v-89h-397l-46 -240h156z" />
    <glyph glyph-name="six.sups" horiz-adv-x="723" 
d="M680 1302q7 -134 -84.5 -229t-223.5 -100t-230.5 81.5t-103.5 217.5q-4 125 79 223l327 410h119l-265 -319q27 9 70 10q121 3 213 -82t99 -212zM372 1064q93 5 156 74.5t57 162.5q-7 95 -76 155.5t-160 55.5q-97 -5 -158.5 -73.5t-56.5 -164.5q5 -94 74.5 -154.5
t163.5 -55.5z" />
    <glyph glyph-name="seven.sups" horiz-adv-x="641" 
d="M27 1905h614v-64l-484 -858h-115l476 831h-491v91z" />
    <glyph glyph-name="eight.sups" horiz-adv-x="737" 
d="M505 1494q72 -34 114 -99.5t42 -146.5q0 -116 -84.5 -196.5t-207.5 -80.5q-124 0 -209 80.5t-85 196.5q0 81 42.5 146.5t114.5 99.5q-50 30 -77 80.5t-27 112.5q0 97 69 163.5t173 66.5q100 0 169.5 -66.5t69.5 -163.5q0 -62 -27 -112.5t-77 -80.5zM370 1832
q-66 0 -110.5 -44.5t-44.5 -108.5q0 -65 44.5 -109t110.5 -44q63 0 107 44t44 109q0 64 -44.5 108.5t-106.5 44.5zM369 1058q81 0 137.5 58t56.5 142q0 80 -56.5 137t-137.5 57q-82 0 -139.5 -57t-57.5 -137q0 -84 57 -142t140 -58z" />
    <glyph glyph-name="nine.sups" horiz-adv-x="723" 
d="M685 1616q4 -121 -78 -223l-326 -410h-121l266 319q-30 -10 -73 -11q-119 -2 -212 83.5t-100 211.5q-7 133 86 228.5t224 100.5q132 5 230.5 -81.5t103.5 -217.5zM375 1376q96 5 157.5 73.5t56.5 163.5t-73.5 155.5t-162.5 55.5q-95 -5 -158 -74t-57 -163q7 -96 76 -156
t161 -55z" />
    <glyph glyph-name="uni0308.case" 
d="M-611 1536q-41 0 -71 30t-30 70q0 42 30 71t71 29t70.5 -29t29.5 -71q0 -40 -29.5 -70t-70.5 -30zM-256 1536q-41 0 -71 29.5t-30 70.5q0 42 29.5 71t71.5 29q41 0 70.5 -29t29.5 -71q0 -40 -30 -70t-70 -30z" />
    <glyph glyph-name="uni0307.case" 
d="M-256 1536q-41 0 -71 30t-30 70q0 42 30 71t71 29t70.5 -29t29.5 -71q0 -40 -30 -70t-70 -30z" />
    <glyph glyph-name="gravecomb.case" 
d="M-170 1545l-224 256l76 57l247 -313h-99z" />
    <glyph glyph-name="acutecomb.case" 
d="M-411 1545l248 313l76 -57l-224 -256h-100z" />
    <glyph glyph-name="uni030B.case" 
d="M-765 1545l248 313l76 -57l-224 -256h-100zM-411 1545l248 313l76 -57l-224 -256h-100z" />
    <glyph glyph-name="uni0302.case" 
d="M-510 1545h-97l206 294h111l206 -294h-99l-163 228z" />
    <glyph glyph-name="uni030C.case" 
d="M-406 1545l-206 294h98l163 -230l164 230h99l-206 -294h-112z" />
    <glyph glyph-name="uni0306.case" 
d="M-461 1545q-149 0 -239.5 66t-90.5 196h87q0 -94 66.5 -140t176.5 -46q111 0 178 46t67 140h87q0 -130 -91 -196t-241 -66z" />
    <glyph glyph-name="uni030A.case" 
d="M-336 1545q-84 0 -143 59.5t-59 140.5q0 83 59 141.5t143 58.5q81 0 139.5 -58.5t58.5 -141.5q0 -81 -58.5 -140.5t-139.5 -59.5zM-336 1618q54 0 90.5 36.5t36.5 90.5t-37 92.5t-90 38.5q-54 0 -91 -38.5t-37 -92.5t37 -90.5t91 -36.5z" />
    <glyph glyph-name="tildecomb.case" 
d="M-338 1534q-61 0 -99.5 27.5t-70.5 73.5q-16 24 -27.5 37t-32.5 25t-46 12q-54 0 -85.5 -44.5t-31.5 -115.5h-76q0 104 52.5 170t141.5 66q57 0 95 -27t69 -73q17 -23 28 -36t33.5 -25.5t49.5 -12.5q54 0 84.5 42t30.5 114h78q0 -102 -52 -167.5t-141 -65.5z" />
    <glyph glyph-name="uni0304.case" 
d="M-823 1545v91h641v-91h-641z" />
    <glyph glyph-name="hookabovecomb.case" 
d="M-335 1536v114q121 27 121 114q0 39 -25 65t-68 26t-86 -29l-46 60q58 46 129 46q77 0 128.5 -47t51.5 -119q0 -116 -130 -156v-74h-75z" />
    <glyph glyph-name="uni0312.case" 
d="M-226 1845h100l-121 -300h-143z" />
    <glyph glyph-name="uni0338.case" 
d="M-1188 8l1100 1580l80 -52l-1098 -1576z" />
    <glyph glyph-name="uni03060301" 
d="M-511 1715l248 313l76 -57l-224 -256h-100zM-454 1230q-143 0 -236.5 85t-93.5 221h90q0 -100 68 -165t172 -65q106 0 174 65t68 165h90q0 -137 -93.5 -221.5t-238.5 -84.5z" />
    <glyph glyph-name="uni03060300" 
d="M-501 1715l-224 256l76 57l247 -313h-99zM-454 1230q-143 0 -236.5 85t-93.5 221h90q0 -100 68 -165t172 -65q106 0 174 65t68 165h90q0 -137 -93.5 -221.5t-238.5 -84.5z" />
    <glyph glyph-name="uni03060309" 
d="M-489 1637v114q121 27 121 115q0 39 -25 64.5t-68 25.5q-45 0 -86 -29l-46 61q59 45 129 45q78 0 129 -47t51 -119q0 -56 -34 -96t-96 -60v-74h-75zM-454 1230q-143 0 -236.5 85t-93.5 221h90q0 -100 68 -165t172 -65q106 0 174 65t68 165h90q0 -137 -93.5 -221.5
t-238.5 -84.5z" />
    <glyph glyph-name="uni03060303" 
d="M-325 1706q-100 0 -160 95q-36 55 -87 55q-43 0 -68.5 -38t-25.5 -98h-83q0 96 48 157t127 61q100 0 158 -96q34 -53 89 -53q43 0 68 36.5t25 97.5h84q0 -94 -48 -155.5t-127 -61.5zM-454 1230q-143 0 -236.5 85t-93.5 221h90q0 -100 68 -165t172 -65q106 0 174 65
t68 165h90q0 -137 -93.5 -221.5t-238.5 -84.5z" />
    <glyph glyph-name="uni03020301" 
d="M-405 1715l248 313l76 -57l-224 -256h-100zM-510 1242h-97l206 294h111l206 -294h-99l-163 228z" />
    <glyph glyph-name="uni03020300" 
d="M-395 1715l-224 256l76 57l247 -313h-99zM-510 1242h-97l206 294h111l206 -294h-99l-163 228z" />
    <glyph glyph-name="uni03020309" 
d="M-383 1637v114q121 27 121 115q0 39 -25 64.5t-68 25.5q-45 0 -86 -29l-46 61q59 45 129 45q78 0 129 -47t51 -119q0 -56 -34 -96t-96 -60v-74h-75zM-510 1242h-97l206 294h111l206 -294h-99l-163 228z" />
    <glyph glyph-name="uni03020303" 
d="M-219 1706q-100 0 -160 95q-36 55 -87 55q-43 0 -68.5 -38t-25.5 -98h-83q0 96 48 157t127 61q100 0 158 -96q34 -53 89 -53q43 0 68 36.5t25 97.5h84q0 -94 -48 -155.5t-127 -61.5zM-510 1242h-97l206 294h111l206 -294h-99l-163 228z" />
    <glyph glyph-name="uni03060301.case" 
d="M-518 1880l248 313l76 -57l-224 -256h-100zM-461 1545q-149 0 -239.5 66t-90.5 196h87q0 -94 66.5 -140t176.5 -46q111 0 178 46t67 140h87q0 -130 -91 -196t-241 -66z" />
    <glyph glyph-name="uni03060300.case" 
d="M-508 1880l-224 256l76 57l247 -313h-99zM-461 1545q-149 0 -239.5 66t-90.5 196h87q0 -94 66.5 -140t176.5 -46q111 0 178 46t67 140h87q0 -130 -91 -196t-241 -66z" />
    <glyph glyph-name="uni03060309.case" 
d="M-496 1871v114q121 27 121 114q0 39 -25 65t-68 26q-42 0 -86 -29l-46 60q58 46 129 46q77 0 128.5 -47t51.5 -119q0 -116 -130 -156v-74h-75zM-461 1545q-149 0 -239.5 66t-90.5 196h87q0 -94 66.5 -140t176.5 -46q111 0 178 46t67 140h87q0 -130 -91 -196t-241 -66z
" />
    <glyph glyph-name="uni03060303.case" 
d="M-319 1869q-61 0 -99.5 27.5t-70.5 73.5q-16 24 -27.5 37t-32.5 25t-46 12q-54 0 -85.5 -44.5t-31.5 -115.5h-76q0 104 52.5 170t141.5 66q57 0 95 -27t69 -73q17 -23 28 -36t33.5 -25.5t49.5 -12.5q54 0 84.5 42t30.5 114h78q0 -102 -52 -167.5t-141 -65.5zM-461 1545
q-149 0 -239.5 66t-90.5 196h87q0 -94 66.5 -140t176.5 -46q111 0 178 46t67 140h87q0 -130 -91 -196t-241 -66z" />
    <glyph glyph-name="uni03020301.case" 
d="M-405 1941l248 313l76 -57l-224 -256h-100zM-510 1545h-97l206 294h111l206 -294h-99l-163 228z" />
    <glyph glyph-name="uni03020300.case" 
d="M-395 1941l-224 256l76 57l247 -313h-99zM-510 1545h-97l206 294h111l206 -294h-99l-163 228z" />
    <glyph glyph-name="uni03020309.case" 
d="M-383 1932v114q121 27 121 114q0 39 -25 65t-68 26t-86 -29l-46 60q58 46 129 46q77 0 128.5 -47t51.5 -119q0 -116 -130 -156v-74h-75zM-510 1545h-97l206 294h111l206 -294h-99l-163 228z" />
    <glyph glyph-name="uni03020303.case" 
d="M-206 1930q-61 0 -99.5 27.5t-70.5 73.5q-16 24 -27.5 37t-32.5 25t-46 12q-54 0 -85.5 -44.5t-31.5 -115.5h-76q0 104 52.5 170t141.5 66q57 0 95 -27t69 -73q17 -23 28 -36t33.5 -25.5t49.5 -12.5q54 0 84.5 42t30.5 114h78q0 -102 -52 -167.5t-141 -65.5zM-510 1545
h-97l206 294h111l206 -294h-99l-163 228z" />
    </font>
</defs>
</svg>
