<?xml version="1.0" standalone="no"?>
<!DOCTYPE svg PUBLIC "-//W3C//DTD SVG 1.1//EN" "http://www.w3.org/Graphics/SVG/1.1/DTD/svg11.dtd" >
<svg xmlns="http://www.w3.org/2000/svg" xmlns:xlink="http://www.w3.org/1999/xlink" version="1.1">
<metadata>
Created by FontForge 20161013 at Sun Jul 23 14:11:40 2017
 By ,,,
Copyright (c)2016. Cerebri Sans is a trademark of Alfredo Marco Pradil. All rights reserved.
</metadata>
<defs>
<font id="CerebriSans-Medium" horiz-adv-x="0" >
  <font-face 
    font-family="Cerebri Sans Medium"
    font-weight="500"
    font-stretch="normal"
    units-per-em="2048"
    panose-1="0 0 6 0 0 0 0 0 0 0"
    ascent="1536"
    descent="-512"
    x-height="1006"
    cap-height="1426"
    bbox="-1649 -566 2805 2338"
    underline-thickness="102"
    underline-position="-388"
    unicode-range="U+0020-FB02"
  />
<missing-glyph horiz-adv-x="1250" 
d="M182 0v1536h886v-1536h-886zM359 177h532v1182h-532v-1182z" />
    <glyph glyph-name="fi" unicode="fi" horiz-adv-x="1254" 
d="M224 1164q0 68 11.5 122.5t32 93.5t52.5 67t68 45t85 27t96.5 13.5t108.5 3.5v-187h-36t-34 -1.5t-35 -4.5t-31 -9.5t-29.5 -15.5t-23 -23t-19.5 -32.5t-11 -44t-5 -56.5v-156h224v-180h-224v-826h-230v826h-195v180h195v158zM978 1198q-58 0 -100 41.5t-42 99.5
t41.5 99.5t100.5 41.5q57 0 99 -41.5t42 -99.5t-42 -99.5t-99 -41.5zM860 0v1006h231v-1006h-231z" />
    <glyph glyph-name="fl" unicode="fl" horiz-adv-x="1255" 
d="M224 1164q0 68 11.5 122.5t32 93.5t52.5 67t68 45t85 27t96.5 13.5t108.5 3.5v-187h-36t-34 -1.5t-35 -4.5t-31 -9.5t-29.5 -15.5t-23 -23t-19.5 -32.5t-11 -44t-5 -56.5v-156h224v-180h-224v-826h-230v826h-195v180h195v158zM860 1536h232v-1536h-232v1536z" />
    <glyph glyph-name="f_f" unicode="ff" horiz-adv-x="1361" 
d="M224 0v826h-195v180h195v158q0 68 11.5 122.5t32 93.5t52.5 67t68 45t85 27t96.5 13.5t108.5 3.5v-187h-36t-34 -1.5t-35 -4.5t-31 -9.5t-29.5 -15.5t-23 -23t-19.5 -32.5t-11 -44t-5 -56.5v-156h434v158q0 95 22.5 163t60 108.5t98 63t123 30t149.5 7.5v-187
q-32 0 -45.5 -0.5t-43 -3.5t-44 -9.5t-35 -20t-30.5 -33t-18 -50t-8 -70.5v-156h224v-180h-224v-826h-229v826h-434v-826h-230z" />
    <glyph glyph-name=".notdef" horiz-adv-x="1250" 
d="M182 0v1536h886v-1536h-886zM359 177h532v1182h-532v-1182z" />
    <glyph glyph-name=".null" 
 />
    <glyph glyph-name="nonmarkingreturn" horiz-adv-x="682" 
 />
    <glyph glyph-name="space" unicode=" " horiz-adv-x="532" 
 />
    <glyph glyph-name="exclam" unicode="!" horiz-adv-x="662" 
d="M234 430l-20 996h231l-20 -996h-191zM330 -20q-58 0 -99.5 41t-41.5 99q0 59 41.5 100t99.5 41q59 0 100 -41t41 -100q0 -58 -41.5 -99t-99.5 -41z" />
    <glyph glyph-name="quotedbl" unicode="&#x22;" horiz-adv-x="1027" 
d="M240 778l-27 648h219l-20 -648h-172zM615 778l-19 648h217l-26 -648h-172z" />
    <glyph glyph-name="numbersign" unicode="#" horiz-adv-x="1537" 
d="M324 0l47 336h-280l23 168h280l62 418h-283l28 165h275l51 343h165l-46 -343h351l49 343h167l-49 -343h283l-27 -165h-278l-59 -418h279l-24 -168h-277l-52 -336h-165l48 336h-355l-48 -336h-165zM562 504h352l61 418h-355z" />
    <glyph glyph-name="dollar" unicode="$" horiz-adv-x="1367" 
d="M1224 398q0 -101 -37.5 -179.5t-104.5 -128t-151.5 -76.5t-185.5 -33v-135h-102v136q-203 11 -341.5 115t-170.5 279l246 57q17 -105 88.5 -170t177.5 -80v451q-5 2 -14 4.5t-14 3.5q-57 17 -93 28.5t-87.5 32t-83.5 40t-68.5 50t-57 64.5t-34.5 80.5t-14 101.5
q0 125 63 217t167 138.5t236 50.5v131h102v-135q176 -16 302 -105t161 -252l-231 -58q-20 93 -80.5 146.5t-151.5 67.5v-419q60 -16 97.5 -27.5t94 -33t92 -42t76.5 -53.5t64 -69.5t39 -87.5t16 -110zM419 1043q0 -73 57 -115.5t167 -76.5v393q-98 -8 -161 -58t-63 -143z
M745 181q106 8 169.5 59t62.5 148q-1 82 -60.5 130.5t-171.5 85.5v-423z" />
    <glyph glyph-name="percent" unicode="%" horiz-adv-x="1619" 
d="M417 819q-130 0 -221.5 92t-91.5 223q0 129 92 221t221 92q130 0 221 -92t91 -221q0 -130 -91 -222.5t-221 -92.5zM329 -1l752 1429h200l-754 -1429h-198zM417 978q66 0 110.5 45.5t44.5 110.5q0 64 -45 109t-110 45q-64 0 -110 -44.5t-46 -109.5t46 -110.5t110 -45.5z
M1204 -17q-131 0 -222.5 91.5t-91.5 221.5t92 221.5t222 91.5q128 0 219 -91.5t91 -221.5q0 -129 -90.5 -221t-219.5 -92zM1204 141q64 0 110 45.5t46 109.5t-46.5 110t-109.5 46q-66 0 -111 -45t-45 -111q0 -64 45 -109.5t111 -45.5z" />
    <glyph glyph-name="ampersand" unicode="&#x26;" horiz-adv-x="1547" 
d="M1425 0h-268l-104 134q-210 -154 -465 -154q-211 0 -344.5 105.5t-133.5 296.5q0 62 17 115t44.5 95t80 88t105 83t137.5 90l-2 2q-81 105 -114.5 174t-33.5 135q0 131 105 209q97 74 251 74q161 0 261 -78.5t100 -207.5q0 -97 -65.5 -177.5t-213.5 -170.5l292 -369
q60 87 92.5 186t32.5 192h211q0 -148 -53.5 -289.5t-150.5 -255.5zM600 1252q-37 -35 -37 -95q0 -40 20 -77t76 -111l17 -22q177 110 177 216q0 59 -42.5 93.5t-104.5 34.5q-66 0 -106 -39zM597 172q182 0 334 119l-325 417q-53 -33 -81.5 -51.5t-66.5 -46t-57.5 -49
t-39.5 -49.5t-28 -58.5t-8 -65.5q0 -105 74.5 -160.5t197.5 -55.5z" />
    <glyph glyph-name="quotesingle" unicode="'" horiz-adv-x="648" 
d="M237 778l-20 648h217l-25 -648h-172z" />
    <glyph glyph-name="parenleft" unicode="(" horiz-adv-x="687" 
d="M527 -489q-199 136 -312.5 425.5t-113.5 668.5q0 378 114 668.5t312 426.5l128 -155q-159 -104 -253 -355.5t-94 -584.5q0 -334 94 -584.5t253 -354.5z" />
    <glyph glyph-name="parenright" unicode=")" horiz-adv-x="687" 
d="M160 -489l-128 155q159 104 253 354.5t94 584.5q0 333 -94 584.5t-253 355.5l128 155q198 -136 312 -426.5t114 -668.5q0 -379 -113.5 -668.5t-312.5 -425.5z" />
    <glyph glyph-name="asterisk" unicode="*" horiz-adv-x="996" 
d="M369 858l-113 68l155 198q19 25 9.5 42t-39.5 12l-254 -31v130l254 -32q30 -4 39.5 13t-9.5 40l-155 202l113 65l99 -233q11 -29 30.5 -29t30.5 29l99 233l114 -65l-156 -202q-20 -23 -10.5 -40t40.5 -13l253 32v-130l-253 31q-31 5 -40 -12t11 -42l155 -198l-114 -68
l-99 233q-11 29 -30.5 29t-30.5 -29z" />
    <glyph glyph-name="plus" unicode="+" horiz-adv-x="1201" 
d="M511 206v395h-395v180h395v395h180v-395h394v-180h-394v-395h-180z" />
    <glyph glyph-name="comma" unicode="," horiz-adv-x="660" 
d="M331 -365h-166l124 637h238z" />
    <glyph glyph-name="hyphen" unicode="-" horiz-adv-x="1034" 
d="M159 436v193h717v-193h-717z" />
    <glyph glyph-name="period" unicode="." horiz-adv-x="659" 
d="M329 -20q-57 0 -99 41.5t-42 98.5q0 58 42 99.5t99 41.5q58 0 99.5 -41.5t41.5 -99.5t-41.5 -99t-99.5 -41z" />
    <glyph glyph-name="slash" unicode="/" horiz-adv-x="1185" 
d="M-14 -389l994 1925h219l-994 -1925h-219z" />
    <glyph glyph-name="zero" unicode="0" horiz-adv-x="1188" 
d="M595 -19q-239 0 -368 185t-129 548t128 547.5t369 184.5q239 0 367.5 -185t128.5 -547t-129 -547.5t-367 -185.5zM595 190q128 0 196.5 130t68.5 394q0 265 -69.5 393.5t-195.5 128.5q-127 0 -196 -128t-69 -394q0 -524 265 -524z" />
    <glyph glyph-name="one" unicode="1" horiz-adv-x="1188" 
d="M580 1426h218v-1426h-230v1184l-335 -301v240z" />
    <glyph glyph-name="two" unicode="2" horiz-adv-x="1188" 
d="M426 208h658v-208h-984v174l570 585q143 147 143 280q0 103 -61 160.5t-165 57.5q-109 0 -172 -63.5t-63 -202.5v-105l-229 22v80q0 222 125 341t338 119q200 0 327 -109t127 -299q0 -109 -47 -201t-148 -197z" />
    <glyph glyph-name="three" unicode="3" horiz-adv-x="1188" 
d="M588 -19q-253 0 -373.5 129.5t-120.5 388.5l236 11q0 -83 11 -140t39.5 -100.5t79.5 -64.5t128 -21q123 0 194.5 67.5t71.5 175.5q0 114 -68.5 177.5t-177.5 63.5h-63v185h60q82 0 137.5 58t55.5 145q0 86 -60 137t-154 51q-61 0 -103 -20t-63.5 -58t-30.5 -81.5
t-9 -100.5l-234 10q0 219 115 335.5t323 116.5q186 0 309 -107t123 -265q0 -106 -56 -185t-134 -112q114 -32 189.5 -123t75.5 -237q0 -197 -139 -316.5t-362 -119.5z" />
    <glyph glyph-name="four" unicode="4" horiz-adv-x="1188" 
d="M1141 486v-207h-196v-279h-230v279h-670v208l549 939h351v-940h196zM269 486h446v792z" />
    <glyph glyph-name="five" unicode="5" horiz-adv-x="1188" 
d="M563 922q268 0 401 -117.5t133 -335.5q0 -219 -135.5 -353.5t-355.5 -134.5q-134 0 -244 50.5t-179 154t-69 242.5q0 29 5 72l231 14q-7 -47 -7 -72q0 -124 75.5 -186t182.5 -62q123 0 193.5 73.5t70.5 193.5q0 265 -335 265h-367l74 699h795v-208h-594l-31 -295h156z
" />
    <glyph glyph-name="six" unicode="6" horiz-adv-x="1188" 
d="M1103 477q1 -143 -69 -257t-186.5 -175.5t-254.5 -61.5q-217 0 -364 138t-147 350q0 174 125 345l461 610h265l-382 -489q45 9 93 9q89 0 171.5 -33t146 -92t102 -148.5t39.5 -195.5zM587 193q128 0 210 79.5t81 209.5q-1 132 -82 212t-209 80q-126 0 -207 -84.5
t-81 -209.5q0 -132 79 -209.5t209 -77.5z" />
    <glyph glyph-name="seven" unicode="7" horiz-adv-x="1188" 
d="M104 1426h991v-183l-671 -1243h-262l674 1219h-732v207z" />
    <glyph glyph-name="eight" unicode="8" horiz-adv-x="1188" 
d="M596 -19q-142 0 -255.5 51.5t-180 151.5t-66.5 231q0 130 65.5 226t180.5 145q-82 47 -129 122.5t-47 168.5q0 163 122 266t310 103q185 0 306.5 -103.5t121.5 -265.5q0 -93 -46 -168.5t-126 -122.5q113 -50 179 -146t66 -225q0 -131 -66.5 -231t-179.5 -151.5
t-255 -51.5zM596 857q90 0 153.5 60t63.5 147q0 86 -63 144.5t-154 58.5q-92 0 -155 -58.5t-63 -144.5q0 -88 63 -147.5t155 -59.5zM596 189q115 0 192 69.5t77 183.5q0 113 -77 181t-192 68q-117 0 -194 -68t-77 -181q0 -115 77 -184t194 -69z" />
    <glyph glyph-name="nine" unicode="9" horiz-adv-x="1188" 
d="M594 1444q142 0 258.5 -62t184.5 -174.5t68 -252.5q0 -175 -126 -345l-461 -610h-267l380 489q-43 -9 -90 -9q-119 0 -222 56t-168.5 164.5t-66.5 248.5q-1 143 68.5 257.5t186 176t255.5 61.5zM600 652q126 0 206.5 84.5t80.5 209.5q0 132 -79 210t-208 78
q-127 0 -210 -80.5t-82 -209.5q1 -131 82.5 -211.5t209.5 -80.5z" />
    <glyph glyph-name="colon" unicode=":" horiz-adv-x="638" 
d="M317 655q-57 0 -98.5 42t-41.5 100q0 56 42 98t98 42q58 0 100 -42t42 -98q0 -58 -42 -100t-100 -42zM317 -20q-57 0 -98.5 41.5t-41.5 98.5q0 58 41.5 99.5t98.5 41.5q58 0 100 -41.5t42 -99.5t-42 -99t-100 -41z" />
    <glyph glyph-name="semicolon" unicode=";" horiz-adv-x="658" 
d="M356 655q-57 0 -99 42t-42 100q0 56 42 98t99 42t99.5 -42t42.5 -98q0 -58 -42.5 -100t-99.5 -42zM131 -365l124 637h239l-197 -637h-166z" />
    <glyph glyph-name="less" unicode="&#x3c;" horiz-adv-x="1367" 
d="M1232 1408v-200l-943 -476l943 -476v-203l-1131 572v216z" />
    <glyph glyph-name="equal" unicode="=" horiz-adv-x="1311" 
d="M244 819v180h823v-180h-823zM244 395v180h823v-180h-823z" />
    <glyph glyph-name="greater" unicode="&#x3e;" horiz-adv-x="1367" 
d="M135 1408l1131 -567v-216l-1131 -572v203l943 476l-943 476v200z" />
    <glyph glyph-name="question" unicode="?" horiz-adv-x="1054" 
d="M426 420v117q0 65 25.5 112t64 75t107.5 62q128 64 128 227q0 113 -65 177.5t-168 64.5t-167.5 -67.5t-64.5 -173.5q0 -38 10 -85l-205 23q-6 42 -6 81q0 183 119.5 298.5t310.5 115.5q192 0 315.5 -117.5t123.5 -311.5q0 -79 -20 -143.5t-55 -108.5t-74.5 -73.5
t-87.5 -48.5q-52 -22 -76.5 -50.5t-24.5 -78.5v-95h-190zM526 -20q-57 0 -98.5 41t-41.5 99t41.5 99t98.5 41t98 -41t41 -99t-41 -99t-98 -41z" />
    <glyph glyph-name="at" unicode="@" horiz-adv-x="1784" 
d="M895 -210q-155 0 -296 60t-243 161.5t-162 243t-60 297.5q0 154 58.5 294t159 242t243 162.5t301.5 60.5q211 0 385.5 -101.5t274 -277.5t99.5 -388q0 -106 -26.5 -185.5t-72 -125t-101 -67t-119.5 -21.5q-187 0 -256 126h-11q-90 -118 -256 -118q-107 0 -178.5 55
t-71.5 159q0 55 22 96.5t62.5 68.5t86 43.5t105.5 28.5l200 43v44q0 134 -145 134q-137 0 -161 -120l-158 37q23 97 105.5 150t213.5 53q63 0 116.5 -13.5t99.5 -44t72 -86t26 -131.5v-259q0 -139 133 -139q172 0 172 257q0 137 -47.5 256.5t-130 203t-196 131.5t-242.5 48
q-173 0 -316.5 -83t-224 -224t-80.5 -308q0 -127 49 -242t132 -198t198.5 -132t242.5 -49q172 0 320 90l65 -124q-174 -108 -388 -108zM852 274q34 0 66.5 9.5t64 29.5t51 60t19.5 94v76l-171 -39q-82 -19 -116.5 -46.5t-34.5 -77.5q0 -51 31.5 -78.5t89.5 -27.5z" />
    <glyph glyph-name="A" unicode="A" horiz-adv-x="1432" 
d="M1140 0l-113 317h-623l-112 -317h-247l525 1426h291l525 -1426h-246zM477 522h478l-239 674z" />
    <glyph glyph-name="B" unicode="B" horiz-adv-x="1297" 
d="M925 749q130 -35 203 -123t73 -233q0 -179 -112 -286t-314 -107h-571v1426h447q210 0 328.5 -104t118.5 -280q0 -100 -44.5 -176t-128.5 -117zM652 1224h-217v-401h241q93 0 146.5 58t53.5 146q0 87 -59 142t-165 55zM732 208q115 0 176 60.5t61 150.5q0 94 -62.5 154.5
t-183.5 60.5h-288v-426h297z" />
    <glyph glyph-name="C" unicode="C" horiz-adv-x="1550" 
d="M825 -19q-153 0 -285.5 51.5t-228.5 144.5t-151 231.5t-55 305.5q0 221 94.5 388.5t257.5 255.5t368 88q225 0 399 -108t254 -299l-223 -85q-55 127 -169.5 198t-260.5 71q-101 0 -189 -35t-153 -99t-102 -160.5t-37 -214.5t37 -215.5t102 -161.5t153 -98.5t189 -34.5
q147 0 261 70.5t169 197.5l223 -85q-80 -191 -253.5 -298.5t-399.5 -107.5z" />
    <glyph glyph-name="D" unicode="D" horiz-adv-x="1473" 
d="M204 0v1426h488q164 0 292 -51.5t210.5 -146t125 -225t42.5 -289.5q0 -214 -73.5 -373t-226 -250t-370.5 -91h-488zM443 214h239q214 0 321.5 130.5t107.5 369.5q0 238 -107.5 368.5t-321.5 130.5h-239v-999z" />
    <glyph glyph-name="E" unicode="E" horiz-adv-x="1122" 
d="M1000 1213h-554v-395h490v-211h-490v-393h554v-214h-796v1426h796v-213z" />
    <glyph glyph-name="F" unicode="F" horiz-adv-x="1085" 
d="M1011 1213h-565v-394h490v-212h-490v-607h-242v1426h807v-213z" />
    <glyph glyph-name="G" unicode="G" horiz-adv-x="1636" 
d="M815 -19q-202 0 -362.5 87t-254 254t-93.5 388q0 167 55 306.5t151 233t228.5 145t285.5 51.5q202 0 364 -86.5t254 -247.5l-211 -113q-61 116 -167.5 175t-239.5 59q-210 0 -344.5 -137.5t-134.5 -380.5q0 -241 134.5 -381.5t353.5 -140.5q171 0 290 92.5t145 269.5
h-435v197h664v-752h-191v232q-72 -121 -196.5 -186t-295.5 -65z" />
    <glyph glyph-name="H" unicode="H" horiz-adv-x="1549" 
d="M1106 1426h240v-1426h-240v609h-662v-609h-240v1426h240v-606h662v606z" />
    <glyph glyph-name="I" unicode="I" horiz-adv-x="647" 
d="M204 0v1426h239v-1426h-239z" />
    <glyph glyph-name="J" unicode="J" horiz-adv-x="990" 
d="M382 -19q-176 0 -345 91l102 199q106 -72 218 -72q103 0 157 67.5t54 198.5v961h240v-1005q0 -207 -116 -323.5t-310 -116.5z" />
    <glyph glyph-name="K" unicode="K" horiz-adv-x="1383" 
d="M1036 0l-477 633h-116v-633h-239v1426h239v-581h114l469 581h293l-556 -681l579 -745h-306z" />
    <glyph glyph-name="L" unicode="L" horiz-adv-x="964" 
d="M443 214h471v-214h-710v1426h239v-1212z" />
    <glyph glyph-name="M" unicode="M" horiz-adv-x="1924" 
d="M1777 0h-237l-94 1126l-409 -1126h-150l-407 1124l-95 -1124h-238l114 1426h333l367 -1008l370 1008h333z" />
    <glyph glyph-name="N" unicode="N" horiz-adv-x="1613" 
d="M1170 1426h239v-1426h-268l-700 1088v-1088h-237v1426h265l701 -1081v1081z" />
    <glyph glyph-name="O" unicode="O" horiz-adv-x="1650" 
d="M825 -19q-205 0 -368 88t-257.5 256t-94.5 389t94.5 388.5t257.5 255.5t368 88t367.5 -88t257 -255.5t94.5 -388.5t-94.5 -389t-257 -256t-367.5 -88zM825 203q101 0 189 34.5t153 99t102 161.5t37 216q0 118 -37 214.5t-102 160.5t-153 99t-189 35t-189 -35t-153 -99
t-102 -160.5t-37 -214.5q0 -119 37 -216t102 -161.5t153 -99t189 -34.5z" />
    <glyph glyph-name="P" unicode="P" horiz-adv-x="1289" 
d="M771 1426q131 0 232 -60.5t154 -162.5t53 -226q0 -193 -120.5 -319t-318.5 -126h-328v-532h-239v1426h567zM733 736q118 0 181 66t63 178q0 109 -63.5 176.5t-180.5 67.5h-290v-488h290z" />
    <glyph glyph-name="Q" unicode="Q" horiz-adv-x="1676" 
d="M1595 -66l-205 -74l-191 210q-164 -89 -370 -89q-207 0 -371 88t-259.5 256t-95.5 389t95.5 388.5t259.5 255.5t371 88t371 -88t259.5 -255.5t95.5 -388.5q0 -319 -193 -520zM342 714q0 -243 137.5 -382t349.5 -139q213 0 350 139t137 382q0 118 -37.5 214.5t-103 160.5
t-154.5 99t-192 35q-138 0 -247.5 -59.5t-174.5 -176.5t-65 -273z" />
    <glyph glyph-name="R" unicode="R" horiz-adv-x="1307" 
d="M967 0l-370 636h-154v-636h-239v1426h495q113 0 199.5 -32t139.5 -89.5t79.5 -131t26.5 -161.5q0 -148 -82 -244.5t-225 -122.5l411 -645h-281zM443 1224v-411h221q127 0 188.5 54.5t61.5 149.5t-62 151t-188 56h-221z" />
    <glyph glyph-name="S" unicode="S" horiz-adv-x="1284" 
d="M662 -19q-230 0 -385 104.5t-189 291.5l246 57q19 -121 110.5 -187.5t226.5 -66.5q114 0 189 51.5t74 157.5q-1 44 -22 80t-47 58.5t-81 45.5t-90 34t-108 32q-9 3 -14 4q-57 17 -93 28.5t-87.5 32t-83.5 40t-68.5 50t-57 64.5t-34.5 80.5t-14 101.5q0 192 138.5 299
t350.5 107q97 0 183 -21t160.5 -63t126.5 -113t72 -164l-231 -58q-23 110 -102.5 164.5t-196.5 54.5q-110 0 -184.5 -50t-74.5 -152q0 -28 10 -51.5t23 -41t41 -35t48.5 -28t62.5 -24.5t65.5 -20.5t73.5 -20.5q47 -13 75.5 -21.5t74.5 -24t74.5 -28.5t67 -34t63 -42
t51 -50.5t41 -62t24.5 -73.5t10 -88q0 -107 -42.5 -189t-115.5 -131t-164.5 -73.5t-196.5 -24.5z" />
    <glyph glyph-name="T" unicode="T" horiz-adv-x="1039" 
d="M991 1426v-213h-352v-1213h-238v1213h-353v213h943z" />
    <glyph glyph-name="U" unicode="U" horiz-adv-x="1427" 
d="M713 -19q-155 0 -274.5 55t-192 171t-72.5 279v940h240v-907q0 -162 82.5 -243t216.5 -81t217.5 81t83.5 243v907h239v-940q0 -163 -72.5 -279t-192.5 -171t-275 -55z" />
    <glyph glyph-name="V" unicode="V" horiz-adv-x="1396" 
d="M1097 1426h254l-526 -1426h-257l-523 1426h253l400 -1139z" />
    <glyph glyph-name="W" unicode="W" horiz-adv-x="2108" 
d="M447 0l-390 1426h249l308 -1127l337 1127h206l336 -1127l310 1127h248l-390 -1426h-298l-309 988l-309 -988h-298z" />
    <glyph glyph-name="X" unicode="X" horiz-adv-x="1482" 
d="M43 0l556 744l-536 682h291l387 -510l386 510h291l-535 -682l556 -744h-304l-394 554l-394 -554h-304z" />
    <glyph glyph-name="Y" unicode="Y" horiz-adv-x="1242" 
d="M1211 1426l-469 -745v-681h-240v678l-471 748h268l322 -533l323 533h267z" />
    <glyph glyph-name="Z" unicode="Z" horiz-adv-x="1232" 
d="M385 214h757v-214h-1048v191l742 1022h-740v213h1026v-192z" />
    <glyph glyph-name="bracketleft" unicode="[" horiz-adv-x="677" 
d="M163 -512v2048h466v-166h-263v-1716h263v-166h-466z" />
    <glyph glyph-name="backslash" unicode="\" horiz-adv-x="1185" 
d="M980 -389l-994 1925h219l994 -1925h-219z" />
    <glyph glyph-name="bracketright" unicode="]" horiz-adv-x="672" 
d="M509 -512h-466v166h263v1716h-263v166h466v-2048z" />
    <glyph glyph-name="asciicircum" unicode="^" horiz-adv-x="1408" 
d="M1322 296h-197l-421 929l-421 -929h-197l512 1130h212z" />
    <glyph glyph-name="underscore" unicode="_" horiz-adv-x="1341" 
d="M159 -193v193h1024v-193h-1024z" />
    <glyph glyph-name="grave" unicode="`" horiz-adv-x="484" 
d="M290 1214l-225 264l116 84l257 -348h-148z" />
    <glyph glyph-name="a" unicode="a" horiz-adv-x="1112" 
d="M400 -19q-86 0 -153.5 26.5t-112 90t-44.5 157.5q0 63 20.5 112.5t54 82.5t85 58t104 39.5t121.5 27.5l152 28q93 18 93 91q0 86 -56 125.5t-141 39.5q-88 0 -145 -42.5t-68 -134.5l-207 38q51 304 434 304q64 0 119.5 -9.5t109 -34.5t91.5 -63.5t61 -102t23 -145.5v-390
q0 -70 21 -96t74 -26h16v-157h-109q-171 0 -204 133h-11q-55 -78 -142.5 -115t-185.5 -37zM454 162q121 0 201 83t80 218l-257 -57q-83 -16 -124 -46.5t-41 -85.5q0 -56 39 -84t102 -28z" />
    <glyph glyph-name="b" unicode="b" horiz-adv-x="1283" 
d="M725 1025q97 0 184 -37t151.5 -103.5t102.5 -165.5t38 -217q0 -119 -37.5 -218.5t-102.5 -166t-151.5 -103.5t-184.5 -37q-112 0 -202 49.5t-134 134.5l-6 -161h-220v1536h229l1 -687q46 83 134 129.5t198 46.5zM673 172q127 0 212.5 91t85.5 239t-85.5 238.5
t-212.5 90.5q-126 0 -211.5 -93t-85.5 -236q0 -144 85 -237t212 -93z" />
    <glyph glyph-name="c" unicode="c" horiz-adv-x="1144" 
d="M599 -18q-229 0 -375 144.5t-146 377.5t146.5 377t374.5 144q181 0 308.5 -92.5t168.5 -258.5l-214 -28q-29 94 -98.5 144t-166.5 50q-127 0 -208 -92.5t-81 -243.5t81 -243.5t208 -92.5q97 0 166.5 49.5t98.5 143.5l214 -27q-41 -166 -169.5 -259t-307.5 -93z" />
    <glyph glyph-name="d" unicode="d" horiz-adv-x="1283" 
d="M890 1536h230v-1536h-220l-6 160q-45 -85 -134.5 -134t-200.5 -49q-98 0 -184.5 37t-151.5 103.5t-103 166t-38 218.5q0 118 38 217t103 165.5t152 103.5t184 37q108 0 196.5 -46.5t134.5 -127.5v685zM610 172q127 0 212 93t85 237q0 143 -85.5 236t-211.5 93
q-127 0 -212.5 -90.5t-85.5 -238.5t85.5 -239t212.5 -91z" />
    <glyph glyph-name="e" unicode="e" horiz-adv-x="1158" 
d="M1076 520l-3 -58h-765q6 -144 88 -220t203 -76q84 0 149.5 41t99.5 117l210 -36q-52 -145 -174 -226t-283 -81q-235 0 -377 139t-142 383q0 243 142 383t370 140q217 0 349 -128.5t133 -377.5zM595 855q-109 0 -181.5 -54.5t-95.5 -166.5h527q-13 109 -80 165t-170 56z
" />
    <glyph glyph-name="f" unicode="f" horiz-adv-x="697" 
d="M678 1349h-36t-34 -1.5t-35 -4.5t-31 -9.5t-29.5 -15.5t-23 -23t-19.5 -32.5t-11 -44t-5 -56.5v-156h224v-180h-224v-826h-230v826h-195v180h195v158q0 68 11.5 122.5t32 93.5t52.5 67t68 45t85 27t96.5 13.5t108.5 3.5v-187z" />
    <glyph glyph-name="g" unicode="g" horiz-adv-x="1256" 
d="M872 1006h222v-943q0 -268 -135.5 -403.5t-376.5 -135.5q-381 0 -504 310l191 86q44 -107 118 -159.5t186 -52.5q143 0 216 88.5t73 251.5v149q-46 -74 -134.5 -119.5t-193.5 -45.5q-192 0 -325.5 140t-133.5 358q0 109 37 202.5t99.5 157t146.5 99.5t178 36
q109 0 197.5 -48.5t132.5 -128.5zM590 222q123 0 208 90t85 218t-84.5 218.5t-208.5 90.5t-208 -88t-84 -221q0 -131 85 -219.5t207 -88.5z" />
    <glyph glyph-name="h" unicode="h" horiz-adv-x="1202" 
d="M709 1025q164 0 257.5 -94.5t93.5 -274.5v-656h-232v616q0 115 -55.5 168t-144.5 53q-100 0 -167 -62.5t-68 -196.5v-578h-230v1536h230v-656q52 69 133 107t183 38z" />
    <glyph glyph-name="i" unicode="i" horiz-adv-x="557" 
d="M281 1198q-58 0 -100 41.5t-42 99.5t41.5 99.5t100.5 41.5q57 0 99 -41.5t42 -99.5t-42 -99.5t-99 -41.5zM163 0v1006h231v-1006h-231z" />
    <glyph glyph-name="j" unicode="j" horiz-adv-x="559" 
d="M282 1198q-58 0 -100 41.5t-42 99.5t41.5 99.5t100.5 41.5q57 0 99 -41.5t42 -99.5t-42 -99.5t-99 -41.5zM-55 -471v186q133 0 175.5 63.5t42.5 246.5v981h233v-981q0 -265 -104 -380.5t-347 -115.5z" />
    <glyph glyph-name="k" unicode="k" horiz-adv-x="1110" 
d="M816 0l-351 443h-70v-443h-232v1536h232v-927h64l333 397h265l-401 -464l446 -542h-286z" />
    <glyph glyph-name="l" unicode="l" horiz-adv-x="558" 
d="M163 0v1536h232v-1536h-232z" />
    <glyph glyph-name="m" unicode="m" horiz-adv-x="1758" 
d="M1274 1025q155 0 247 -83.5t92 -236.5v-705h-231v641q0 97 -50 146.5t-126 49.5q-89 0 -144.5 -59.5t-55.5 -183.5v-594h-234v636q0 99 -50.5 150t-128.5 51q-89 0 -145 -61.5t-56 -191.5v-584h-229v1006h229v-124q99 143 284 143q103 0 180 -40.5t116 -116.5
q100 157 302 157z" />
    <glyph glyph-name="n" unicode="n" horiz-adv-x="1203" 
d="M698 1025q170 0 266 -90.5t96 -257.5v-677h-232v627q0 107 -55.5 158.5t-142.5 51.5q-104 0 -170 -63.5t-67 -195.5v-578h-230v1006h230v-119q51 66 129.5 102t175.5 36z" />
    <glyph glyph-name="o" unicode="o" horiz-adv-x="1219" 
d="M609 -19q-233 0 -381 141.5t-148 381.5q0 238 148 379.5t381 141.5q234 0 382 -141t148 -380q0 -240 -148 -381.5t-382 -141.5zM607 167q133 0 218 93t85 244t-85 243.5t-218 92.5q-130 0 -214 -92.5t-84 -243.5t83.5 -244t214.5 -93z" />
    <glyph glyph-name="p" unicode="p" horiz-adv-x="1283" 
d="M724 1025q131 0 238.5 -62t172.5 -182.5t65 -278.5q0 -120 -37.5 -219.5t-102.5 -166t-151.5 -103t-184.5 -36.5q-108 0 -196.5 47t-134.5 129v-651h-230v1504h220l6 -164q45 86 134.5 134.5t200.5 48.5zM674 172q126 0 211 90t85 240t-85 239t-211 89q-127 0 -213 -92.5
t-86 -235.5q0 -144 86 -237t213 -93z" />
    <glyph glyph-name="q" unicode="q" horiz-adv-x="1282" 
d="M899 1006h220v-1504h-230v648q-46 -81 -134.5 -127t-195.5 -46q-202 0 -339.5 143.5t-137.5 381.5q0 119 38 218.5t103 165.5t151.5 102.5t184.5 36.5q110 0 199.5 -48t134.5 -132zM608 172q128 0 213.5 93t85.5 237q0 143 -86 235.5t-213 92.5q-126 0 -211 -89t-85 -239
t85 -240t211 -90z" />
    <glyph glyph-name="r" unicode="r" horiz-adv-x="732" 
d="M385 837q38 77 127.5 128t196.5 52v-210q-160 0 -237.5 -67.5t-77.5 -226.5v-513h-231v1006h222v-169z" />
    <glyph glyph-name="s" unicode="s" horiz-adv-x="969" 
d="M499 -19q-169 0 -282 71.5t-138 207.5l195 55q20 -84 79 -126.5t146 -42.5q72 0 122 30t49 97q0 28 -13 49.5t-31 36t-51.5 28.5t-61 22t-74.5 22t-78 24q-57 18 -96 37t-79 50t-60.5 78.5t-20.5 110.5q0 98 51 165t134 97.5t190 30.5q151 0 254.5 -65t128.5 -199
l-182 -43q-19 76 -72.5 112t-127.5 36q-69 0 -116.5 -28.5t-47.5 -86.5q0 -16 3.5 -29.5t13.5 -24.5t18 -19.5t26 -17.5t29 -14t36 -12.5t37 -11t41.5 -11t41.5 -10.5q56 -15 95.5 -28t87 -38.5t77 -56.5t49.5 -80.5t20 -110.5q0 -81 -32 -141.5t-87.5 -95t-124 -51.5
t-149.5 -17z" />
    <glyph glyph-name="t" unicode="t" horiz-adv-x="749" 
d="M511 0q-136 0 -212 77t-76 217v532h-201v180h69q82 0 118.5 38.5t36.5 134.5v156h210v-329h219v-180h-219v-508q0 -69 34.5 -104.5t93.5 -35.5h91v-178h-164z" />
    <glyph glyph-name="u" unicode="u" horiz-adv-x="1202" 
d="M809 1006h230v-1006h-219l-6 126q-106 -145 -310 -145q-170 0 -266 90.5t-96 257.5v677h232v-627q0 -107 55.5 -158.5t143.5 -51.5q104 0 169.5 63.5t66.5 195.5v578z" />
    <glyph glyph-name="v" unicode="v" horiz-adv-x="1064" 
d="M804 1006h245l-419 -1006h-199l-416 1006h244l271 -742z" />
    <glyph glyph-name="w" unicode="w" horiz-adv-x="1674" 
d="M1410 1006h240l-350 -1007h-211l-253 719l-253 -719h-214l-343 1007h238l228 -712l254 712h178l254 -711z" />
    <glyph glyph-name="x" unicode="x" horiz-adv-x="1124" 
d="M23 0l400 504l-400 502h286l254 -351l255 351h284l-402 -503l402 -503h-285l-253 348l-255 -348h-286z" />
    <glyph glyph-name="y" unicode="y" horiz-adv-x="1059" 
d="M802 1006h239l-602 -1479h-235l216 506l-403 973h253l261 -720z" />
    <glyph glyph-name="z" unicode="z" horiz-adv-x="924" 
d="M867 1006l-487 -825h480v-181h-815l484 824h-451v182h789z" />
    <glyph glyph-name="braceleft" unicode="{" horiz-adv-x="655" 
d="M483 -500q-125 0 -199 72.5t-74 183.5v420q0 136 -28 186.5t-126 88.5v134q68 26 99 55t43 77.5t12 143.5v418q0 112 74 184.5t199 72.5h107v-161h-64q-49 0 -76.5 -33.5t-27.5 -97.5v-392q0 -52 -4 -89.5t-17.5 -77t-36.5 -68t-62.5 -54.5t-95.5 -45q56 -18 95.5 -44.5
t62.5 -55t36.5 -68t17.5 -77t4 -89.5v-395q0 -66 25 -96.5t79 -30.5h64v-162h-107z" />
    <glyph glyph-name="bar" unicode="|" horiz-adv-x="635" 
d="M244 -307v1843h147v-1843h-147z" />
    <glyph glyph-name="braceright" unicode="}" horiz-adv-x="652" 
d="M169 -500h-107v162h64q54 0 79 30.5t25 96.5v395q0 52 4 89.5t17.5 77t36.5 68t62.5 55t95.5 44.5q-56 19 -95.5 45t-62.5 54.5t-36.5 68t-17.5 77t-4 89.5v392q0 64 -27.5 97.5t-76.5 33.5h-64v161h107q125 0 199 -72.5t74 -184.5v-418q0 -95 12 -143.5t43 -77.5t99 -55
v-134q-98 -38 -126 -88.5t-28 -186.5v-420q0 -111 -74 -183.5t-199 -72.5z" />
    <glyph glyph-name="asciitilde" unicode="~" horiz-adv-x="1407" 
d="M915 334q-24 0 -47 3t-44 10.5t-37.5 14.5t-35 20t-30 20.5t-28 23.5t-23 22t-22 22.5t-17.5 18.5q-65 71 -123 71q-71 0 -111.5 -60.5t-42.5 -147.5h-169q-6 168 83.5 272.5t243.5 104.5q85 0 143 -36t116 -111q22 -28 36.5 -42t39.5 -27.5t54 -13.5q66 0 110 57t40 149
h167q12 -158 -75 -264.5t-228 -106.5z" />
    <glyph glyph-name="exclamdown" unicode="&#xa1;" horiz-adv-x="662" 
d="M330 1025q58 0 99.5 -41t41.5 -99q0 -59 -41 -100t-100 -41q-58 0 -99.5 41t-41.5 100q0 58 41.5 99t99.5 41zM234 575h191l20 -996h-231z" />
    <glyph glyph-name="cent" unicode="&#xa2;" horiz-adv-x="1174" 
d="M658 417q74 0 137 37.5t105 104.5l160 -137q-63 -83 -151 -134.5t-192 -63.5v-224h-139v227q-193 29 -316 178t-123 365t123 365.5t316 177.5v223h139v-220q104 -12 192 -63.5t151 -134.5l-160 -137q-42 67 -105 104.5t-137 37.5q-126 0 -212.5 -99t-86.5 -254t86.5 -254
t212.5 -99z" />
    <glyph glyph-name="sterling" unicode="&#xa3;" horiz-adv-x="1337" 
d="M153 0v144l59 10q93 15 93 113v339h-152v172h152v189q0 211 131.5 346.5t339.5 135.5q107 0 196 -39.5t147.5 -126t58.5 -207.5q0 -36 -6 -72l-200 -45q11 53 11 90q0 96 -60 149t-151 53q-118 0 -185.5 -74.5t-67.5 -209.5v-189h308v-172h-308v-405h652v-201h-1018z" />
    <glyph glyph-name="currency" unicode="&#xa4;" horiz-adv-x="1396" 
d="M327 247l-123 130l105 104q-82 118 -82 261q0 145 83 263l-104 103l123 130l107 -109q118 84 264 84q147 0 261 -83l106 107l125 -125l-105 -105q82 -116 82 -264q0 -145 -82 -263l104 -103l-123 -130l-107 108q-117 -82 -263 -82q-144 0 -264 82zM698 447
q124 0 209.5 88.5t85.5 208.5q0 121 -86 207t-208 86q-123 0 -209.5 -87.5t-86.5 -210.5t87.5 -207.5t207.5 -84.5z" />
    <glyph glyph-name="yen" unicode="&#xa5;" horiz-adv-x="1436" 
d="M600 0v229h-374v146h374v203h-374v145h344l-453 703h267l335 -535l335 535h266l-454 -703h343v-145h-370v-203h370v-146h-370v-229h-239z" />
    <glyph glyph-name="brokenbar" unicode="&#xa6;" horiz-adv-x="635" 
d="M244 799v737h147v-737h-147zM244 -307v737h147v-737h-147z" />
    <glyph glyph-name="section" unicode="&#xa7;" horiz-adv-x="1324" 
d="M1070 190q93 -91 93 -235q0 -81 -26 -146.5t-71.5 -110.5t-109 -75.5t-135.5 -44.5t-154 -14q-208 0 -351 97.5t-176 269.5l205 49q22 -116 112 -181t217 -65q125 0 204.5 52.5t78.5 162.5q0 26 -7.5 48.5t-17 40.5t-29 35t-35 28.5t-45.5 25t-48.5 21.5t-56.5 19.5
t-57 17t-61 16.5q-54 15 -89.5 26t-83.5 29.5t-79.5 37t-65.5 47t-54 61t-33 76.5t-13 96q0 153 104 248q-104 87 -104 237q0 181 130 280.5t327 99.5q124 0 227 -34t179.5 -111t100.5 -190l-195 -50q-23 108 -104 161.5t-199 53.5q-111 0 -187 -51.5t-76 -155.5
q0 -33 10.5 -60t35.5 -48.5t48 -36.5t67.5 -30.5t73 -24t83.5 -23.5q48 -13 73.5 -20.5t71 -22t71.5 -26.5t64 -31.5t60 -39t48 -47.5t39.5 -58.5t23 -69.5t9.5 -84q0 -152 -93 -250zM385 578q0 -29 9.5 -53.5t23 -42.5t40.5 -35.5t48 -28t61 -24t64.5 -20.5t71.5 -20
q143 -40 197 -61q58 51 57 140q-1 44 -23 80.5t-44 58t-82.5 46t-87 32.5t-107.5 31q-9 3 -13 4q-90 26 -134 41q-81 -50 -81 -148z" />
    <glyph glyph-name="dieresis" unicode="&#xa8;" horiz-adv-x="934" 
d="M266 1198q-58 0 -100 41.5t-42 99.5t41.5 99.5t100.5 41.5q57 0 99 -41.5t42 -99.5t-42 -99.5t-99 -41.5zM669 1198q-59 0 -101 41.5t-42 99.5t42 99.5t101 41.5q57 0 98.5 -41.5t41.5 -99.5q0 -57 -41.5 -99t-98.5 -42z" />
    <glyph glyph-name="copyright" unicode="&#xa9;" horiz-adv-x="1745" 
d="M871 -20q-199 0 -368.5 99t-268.5 268.5t-99 369.5q0 199 99 369t268.5 269t368.5 99q150 0 287 -58.5t236 -157.5t157.5 -235.5t58.5 -285.5q0 -150 -58.5 -286t-157.5 -235t-236 -157.5t-287 -58.5zM871 110q125 0 237.5 47.5t194 128.5t129 193.5t47.5 237.5
t-47.5 237.5t-129 193.5t-194 128.5t-237.5 47.5q-124 0 -236.5 -47.5t-193.5 -128.5t-128.5 -193.5t-47.5 -237.5t47.5 -237.5t128.5 -193.5t193.5 -128.5t236.5 -47.5zM873 297q-171 0 -293 122t-122 295q0 172 121 293.5t294 121.5q94 0 179 -39.5t142 -109.5l-109 -89
q-37 48 -93 74.5t-119 26.5q-115 0 -194 -80t-79 -198t79 -198t194 -80q133 0 212 101l109 -90q-57 -70 -142 -110t-179 -40z" />
    <glyph glyph-name="ordfeminine" unicode="&#xaa;" horiz-adv-x="957" 
d="M643 1426h137v-614h-137v103q-83 -115 -227 -115q-128 0 -217.5 93t-89.5 226t90 226.5t217 93.5q71 0 129.5 -31t97.5 -85v103zM443 920q83 0 141.5 58.5t58.5 140.5t-58.5 140t-141.5 58q-82 0 -140 -58t-58 -140t58 -140.5t140 -58.5z" />
    <glyph glyph-name="guillemotleft" unicode="&#xab;" horiz-adv-x="1051" 
d="M369 252l-312 377l312 377h189l-311 -377l311 -377h-189zM792 252l-312 377l312 377h190l-311 -377l311 -377h-190z" />
    <glyph glyph-name="logicalnot" unicode="&#xac;" horiz-adv-x="1666" 
d="M1234 292v524h-1112v190h1300v-714h-188z" />
    <glyph glyph-name="uni00AD" unicode="&#xad;" horiz-adv-x="1034" 
d="M159 447v203h717v-203h-717z" />
    <glyph glyph-name="registered" unicode="&#xae;" horiz-adv-x="1776" 
d="M887 1454q149 0 286 -58.5t236 -157.5t157.5 -235.5t58.5 -285.5q0 -150 -58.5 -286t-157.5 -235t-235.5 -157.5t-286.5 -58.5t-286 58.5t-234.5 157.5t-157 235t-58.5 286q0 149 58.5 285.5t157 235.5t235 157.5t285.5 58.5zM887 110q167 0 306.5 80.5t220 220
t80.5 306.5q0 125 -47.5 237.5t-128.5 193.5t-193.5 128.5t-237.5 47.5q-166 0 -305.5 -80.5t-220 -220.5t-80.5 -306q0 -167 80.5 -306.5t220 -220t305.5 -80.5zM1208 894q0 -73 -37.5 -131.5t-100.5 -87.5l166 -381h-154l-148 358h-161v-358h-140v846h330q102 0 173.5 -72
t71.5 -174zM773 1013v-242h170q55 0 91.5 34.5t36.5 86.5q0 53 -36.5 87t-91.5 34h-170z" />
    <glyph glyph-name="macron" unicode="&#xaf;" horiz-adv-x="973" 
d="M159 1241v140h655v-140h-655z" />
    <glyph glyph-name="degree" unicode="&#xb0;" horiz-adv-x="947" 
d="M473 853q-124 0 -210.5 86.5t-86.5 210.5t86.5 210.5t210.5 86.5t210.5 -86.5t86.5 -210.5t-86.5 -210.5t-210.5 -86.5zM473 984q69 0 117 48t48 118q0 69 -48 117.5t-117 48.5t-117 -48.5t-48 -117.5q0 -70 48 -118t117 -48z" />
    <glyph glyph-name="plusminus" unicode="&#xb1;" horiz-adv-x="1256" 
d="M542 353v396h-395v180h395v395h181v-395h394v-180h-394v-396h-181zM137 1v181h970v-181h-970z" />
    <glyph glyph-name="acute" unicode="&#xb4;" horiz-adv-x="484" 
d="M46 1214l257 348l117 -84l-225 -264h-149z" />
    <glyph glyph-name="uni00B5" unicode="&#xb5;" horiz-adv-x="1355" 
d="M964 1006h201v-1006h-201v143q-57 -76 -140.5 -119.5t-179.5 -43.5q-118 0 -217 64v-556h-183v1518h202v-595q0 -105 74 -178.5t179 -73.5q110 0 187.5 73t77.5 179v595z" />
    <glyph glyph-name="paragraph" unicode="&#xb6;" horiz-adv-x="1192" 
d="M513 -307v1047h-52q-171 0 -268 89.5t-97 254.5q0 166 97 254t268 88h173v-1733h-121zM825 -307v1733h123v-1733h-123z" />
    <glyph glyph-name="periodcentered" unicode="&#xb7;" horiz-adv-x="607" 
d="M304 629q-44 0 -76 31.5t-32 76.5q0 44 32 76t76 32q43 0 75.5 -32t32.5 -76q0 -45 -32.5 -76.5t-75.5 -31.5z" />
    <glyph glyph-name="cedilla" unicode="&#xb8;" horiz-adv-x="603" 
d="M305 -532q-79 0 -144.5 40t-92.5 101l106 40q18 -31 54.5 -50.5t72.5 -19.5q44 0 75.5 30t31.5 76q0 48 -31.5 75t-79.5 27q-44 0 -77 -26l-90 56l116 221h115l-88 -168q34 6 51 6q85 0 141 -53.5t56 -137.5q0 -91 -62.5 -154t-153.5 -63z" />
    <glyph glyph-name="ordmasculine" unicode="&#xba;" horiz-adv-x="882" 
d="M439 808q-140 0 -237.5 93t-97.5 226t97.5 226.5t237.5 93.5q141 0 239 -93t98 -227t-97.5 -226.5t-239.5 -92.5zM439 928q83 0 141.5 58.5t58.5 140.5t-58.5 140t-141.5 58q-82 0 -140 -58t-58 -140t58 -140.5t140 -58.5z" />
    <glyph glyph-name="guillemotright" unicode="&#xbb;" horiz-adv-x="1051" 
d="M69 252l311 377l-311 377h189l311 -377l-311 -377h-189zM492 252l311 377l-311 377h190l311 -377l-311 -377h-190z" />
    <glyph glyph-name="onequarter" unicode="&#xbc;" horiz-adv-x="1575" 
d="M351 505h-143l1 783l-206 -160l-1 140l216 158h133v-921zM1020 1426h155l-805 -1426h-155zM1524 305v-110h-99v-195h-139v195h-430v118l383 609h186v-617h99zM982 305h304v501z" />
    <glyph glyph-name="onehalf" unicode="&#xbd;" horiz-adv-x="1628" 
d="M351 505h-143l1 783l-206 -160l-1 140l216 158h133v-921zM1020 1426h155l-805 -1426h-155zM1095 115h480v-115h-629v135q149 113 244.5 195t143 141t63.5 97.5t16 79.5q0 87 -43.5 127.5t-108.5 38.5q-73 -3 -111 -50t-38 -119h-149q-1 127 86 209t220 82
q123 0 202 -74.5t81 -195.5q2 -128 -102.5 -256t-354.5 -295z" />
    <glyph glyph-name="threequarters" unicode="&#xbe;" horiz-adv-x="1792" 
d="M642 791q0 -122 -87.5 -206t-217.5 -84q-127 0 -214 77t-87 193h147q0 -67 44.5 -107.5t110.5 -40.5q70 0 114 45t44 119q0 73 -46.5 115.5t-126.5 42.5h-53v114h44q67 0 105 37t38 102q0 60 -35.5 95.5t-89.5 35.5q-56 0 -90.5 -35t-34.5 -101l-145 1q0 112 76.5 182.5
t193.5 70.5q112 0 185.5 -69t73.5 -176q0 -118 -96 -181q69 -34 108 -93.5t39 -136.5zM1237 1426h155l-805 -1426h-155zM1741 305v-110h-99v-195h-139v195h-430v118l383 609h186v-617h99zM1199 305h304v501z" />
    <glyph glyph-name="questiondown" unicode="&#xbf;" horiz-adv-x="1054" 
d="M513 1026q57 0 98.5 -41t41.5 -99t-41.5 -99t-98.5 -41t-98 41t-41 99t41 99t98 41zM613 586v-117q0 -65 -25.5 -112t-64 -75t-107.5 -62q-128 -64 -128 -227q0 -113 65 -177.5t168 -64.5t167.5 67.5t64.5 173.5q0 38 -10 85l205 -23q6 -42 6 -81q0 -183 -119.5 -298.5
t-310.5 -115.5q-192 0 -315.5 117.5t-123.5 311.5q0 79 20 143.5t55 108.5t74.5 73.5t87.5 48.5q52 22 76.5 50.5t24.5 78.5v95h190z" />
    <glyph glyph-name="Agrave" unicode="&#xc0;" horiz-adv-x="1432" 
d="M790 1567h-148l-225 263l116 84zM1140 0l-113 317h-623l-112 -317h-247l525 1426h291l525 -1426h-246zM477 522h478l-239 674z" />
    <glyph glyph-name="Aacute" unicode="&#xc1;" horiz-adv-x="1432" 
d="M1012 1830l-225 -263h-149l257 347zM1140 0l-113 317h-623l-112 -317h-247l525 1426h291l525 -1426h-246zM477 522h478l-239 674z" />
    <glyph glyph-name="Acircumflex" unicode="&#xc2;" horiz-adv-x="1432" 
d="M715 1756l-146 -189h-148l219 297h151l219 -297h-148zM1140 0l-113 317h-623l-112 -317h-247l525 1426h291l525 -1426h-246zM477 522h478l-239 674z" />
    <glyph glyph-name="Atilde" unicode="&#xc3;" horiz-adv-x="1432" 
d="M592 1729q-46 0 -71 -40.5t-25 -105.5h-123q0 113 58 184t158 71t167 -83q3 -3 14.5 -17.5t15.5 -19t14.5 -14.5t18 -14t19 -7.5t23.5 -3.5q45 0 68.5 38.5t23.5 105.5h125q0 -112 -57 -183t-160 -71q-62 0 -100 24t-70 64q-19 26 -28 37t-29 23t-42 12zM1140 0l-113 317
h-623l-112 -317h-247l525 1426h291l525 -1426h-246zM477 522h478l-239 674z" />
    <glyph glyph-name="Adieresis" unicode="&#xc4;" horiz-adv-x="1432" 
d="M515 1536q-59 0 -100.5 41.5t-41.5 99.5t41.5 99.5t100.5 41.5q57 0 99 -41.5t42 -99.5t-42 -99.5t-99 -41.5zM918 1536q-59 0 -101 41.5t-42 99.5t42 99.5t101 41.5q57 0 98.5 -41.5t41.5 -99.5t-41.5 -99.5t-98.5 -41.5zM1140 0l-113 317h-623l-112 -317h-247l525 1426
h291l525 -1426h-246zM477 522h478l-239 674z" />
    <glyph glyph-name="Aring" unicode="&#xc5;" horiz-adv-x="1432" 
d="M716 1567q-94 0 -160 66.5t-66 158.5t66 157.5t160 65.5q92 0 157 -65.5t65 -157.5t-65.5 -158.5t-156.5 -66.5zM716 1916q-51 0 -86 -36.5t-35 -87.5q0 -54 34.5 -88t86.5 -34q51 0 86 34.5t35 87.5q0 51 -35.5 87.5t-85.5 36.5zM1140 0l-113 317h-623l-112 -317h-247
l525 1426h291l525 -1426h-246zM477 522h478l-239 674z" />
    <glyph glyph-name="AE" unicode="&#xc6;" horiz-adv-x="1826" 
d="M45 0l508 1426h1151v-213h-585v-394h509v-213h-509v-392h585v-214h-824v317h-477l-108 -317h-250zM472 522h408v691h-173z" />
    <glyph glyph-name="Ccedilla" unicode="&#xc7;" horiz-adv-x="1550" 
d="M825 204q147 0 261 70.5t169 197.5l223 -85q-75 -180 -235 -286.5t-369 -118.5l-59 -112q34 6 51 6q85 0 141 -53.5t56 -137.5q0 -91 -62.5 -154t-153.5 -63q-79 0 -144.5 40t-92.5 101l106 40q18 -31 54.5 -50.5t72.5 -19.5q44 0 75.5 30t31.5 76q0 48 -31.5 75
t-79.5 27q-44 0 -77 -26l-90 56l87 166q-141 11 -261 67t-207.5 148.5t-136.5 225.5t-49 290q0 221 94.5 388.5t257.5 255.5t368 88q225 0 399 -108t254 -299l-223 -85q-55 127 -169.5 198t-260.5 71q-101 0 -189 -35t-153 -99t-102 -160.5t-37 -214.5t37 -215.5t102 -161.5
t153 -98.5t189 -34.5z" />
    <glyph glyph-name="Egrave" unicode="&#xc8;" horiz-adv-x="1122" 
d="M681 1567h-148l-225 263l116 84zM1000 1213h-554v-395h490v-211h-490v-393h554v-214h-796v1426h796v-213z" />
    <glyph glyph-name="Eacute" unicode="&#xc9;" horiz-adv-x="1122" 
d="M903 1830l-225 -263h-149l257 347zM1000 1213h-554v-395h490v-211h-490v-393h554v-214h-796v1426h796v-213z" />
    <glyph glyph-name="Ecircumflex" unicode="&#xca;" horiz-adv-x="1122" 
d="M606 1756l-146 -189h-148l219 297h151l219 -297h-148zM1000 1213h-554v-395h490v-211h-490v-393h554v-214h-796v1426h796v-213z" />
    <glyph glyph-name="Edieresis" unicode="&#xcb;" horiz-adv-x="1122" 
d="M406 1536q-59 0 -100.5 41.5t-41.5 99.5t41.5 99.5t100.5 41.5q57 0 99 -41.5t42 -99.5t-42 -99.5t-99 -41.5zM809 1536q-59 0 -101 41.5t-42 99.5t42 99.5t101 41.5q57 0 98.5 -41.5t41.5 -99.5t-41.5 -99.5t-98.5 -41.5zM1000 1213h-554v-395h490v-211h-490v-393h554
v-214h-796v1426h796v-213z" />
    <glyph glyph-name="Igrave" unicode="&#xcc;" horiz-adv-x="647" 
d="M249 1567l-225 263l116 84l257 -347h-148zM204 0v1426h239v-1426h-239z" />
    <glyph glyph-name="Iacute" unicode="&#xcd;" horiz-adv-x="647" 
d="M245 1567l257 347l117 -84l-225 -263h-149zM204 0v1426h239v-1426h-239z" />
    <glyph glyph-name="Icircumflex" unicode="&#xce;" horiz-adv-x="647" 
d="M176 1567h-148l219 297h151l219 -297h-148l-147 189zM204 0v1426h239v-1426h-239z" />
    <glyph glyph-name="Idieresis" unicode="&#xcf;" horiz-adv-x="647" 
d="M122 1536q-59 0 -100.5 41.5t-41.5 99.5t41.5 99.5t100.5 41.5q57 0 99 -41.5t42 -99.5t-42 -99.5t-99 -41.5zM525 1536q-59 0 -101 41.5t-42 99.5t42 99.5t101 41.5q57 0 98.5 -41.5t41.5 -99.5t-41.5 -99.5t-98.5 -41.5zM204 0v1426h239v-1426h-239z" />
    <glyph glyph-name="Eth" unicode="&#xd0;" horiz-adv-x="1473" 
d="M692 1426q164 0 292 -51.5t210.5 -146t125 -225t42.5 -289.5q0 -214 -73.5 -373t-226 -250t-370.5 -91h-488v642h-158v145h158v639h488zM682 214q214 0 321.5 130.5t107.5 369.5q0 238 -107.5 368.5t-321.5 130.5h-239v-426h251v-145h-251v-428h239z" />
    <glyph glyph-name="Ntilde" unicode="&#xd1;" horiz-adv-x="1613" 
d="M683 1729q-46 0 -71 -40.5t-25 -105.5h-123q0 113 58 184t158 71t167 -83q3 -3 14.5 -17.5t15.5 -19t14.5 -14.5t18 -14t19 -7.5t23.5 -3.5q45 0 68.5 38.5t23.5 105.5h125q0 -112 -57 -183t-160 -71q-62 0 -100 24t-70 64q-19 26 -28 37t-29 23t-42 12zM1170 1426h239
v-1426h-268l-700 1088v-1088h-237v1426h265l701 -1081v1081z" />
    <glyph glyph-name="Ograve" unicode="&#xd2;" horiz-adv-x="1650" 
d="M751 1567l-225 263l116 84l257 -347h-148zM825 -19q-205 0 -368 88t-257.5 256t-94.5 389t94.5 388.5t257.5 255.5t368 88t367.5 -88t257 -255.5t94.5 -388.5t-94.5 -389t-257 -256t-367.5 -88zM825 203q101 0 189 34.5t153 99t102 161.5t37 216q0 118 -37 214.5
t-102 160.5t-153 99t-189 35t-189 -35t-153 -99t-102 -160.5t-37 -214.5q0 -119 37 -216t102 -161.5t153 -99t189 -34.5z" />
    <glyph glyph-name="Oacute" unicode="&#xd3;" horiz-adv-x="1650" 
d="M747 1567l257 347l117 -84l-225 -263h-149zM825 -19q-205 0 -368 88t-257.5 256t-94.5 389t94.5 388.5t257.5 255.5t368 88t367.5 -88t257 -255.5t94.5 -388.5t-94.5 -389t-257 -256t-367.5 -88zM825 203q101 0 189 34.5t153 99t102 161.5t37 216q0 118 -37 214.5
t-102 160.5t-153 99t-189 35t-189 -35t-153 -99t-102 -160.5t-37 -214.5q0 -119 37 -216t102 -161.5t153 -99t189 -34.5z" />
    <glyph glyph-name="Ocircumflex" unicode="&#xd4;" horiz-adv-x="1650" 
d="M678 1567h-148l219 297h151l219 -297h-148l-147 189zM825 -19q-205 0 -368 88t-257.5 256t-94.5 389t94.5 388.5t257.5 255.5t368 88t367.5 -88t257 -255.5t94.5 -388.5t-94.5 -389t-257 -256t-367.5 -88zM825 203q101 0 189 34.5t153 99t102 161.5t37 216
q0 118 -37 214.5t-102 160.5t-153 99t-189 35t-189 -35t-153 -99t-102 -160.5t-37 -214.5q0 -119 37 -216t102 -161.5t153 -99t189 -34.5z" />
    <glyph glyph-name="Otilde" unicode="&#xd5;" horiz-adv-x="1650" 
d="M970 1569q-62 0 -100 24t-70 64q-19 26 -28 37t-29 23t-42 12q-46 0 -71 -40.5t-25 -105.5h-123q0 113 58 184t158 71t167 -83q3 -3 14.5 -17.5t15.5 -19t14.5 -14.5t18 -14t19 -7.5t23.5 -3.5q45 0 68.5 38.5t23.5 105.5h125q0 -112 -57 -183t-160 -71zM825 -19
q-205 0 -368 88t-257.5 256t-94.5 389t94.5 388.5t257.5 255.5t368 88t367.5 -88t257 -255.5t94.5 -388.5t-94.5 -389t-257 -256t-367.5 -88zM825 203q101 0 189 34.5t153 99t102 161.5t37 216q0 118 -37 214.5t-102 160.5t-153 99t-189 35t-189 -35t-153 -99t-102 -160.5
t-37 -214.5q0 -119 37 -216t102 -161.5t153 -99t189 -34.5z" />
    <glyph glyph-name="Odieresis" unicode="&#xd6;" horiz-adv-x="1650" 
d="M624 1536q-59 0 -100.5 41.5t-41.5 99.5t41.5 99.5t100.5 41.5q57 0 99 -41.5t42 -99.5t-42 -99.5t-99 -41.5zM1027 1536q-59 0 -101 41.5t-42 99.5t42 99.5t101 41.5q57 0 98.5 -41.5t41.5 -99.5t-41.5 -99.5t-98.5 -41.5zM825 -19q-205 0 -368 88t-257.5 256t-94.5 389
t94.5 388.5t257.5 255.5t368 88t367.5 -88t257 -255.5t94.5 -388.5t-94.5 -389t-257 -256t-367.5 -88zM825 203q101 0 189 34.5t153 99t102 161.5t37 216q0 118 -37 214.5t-102 160.5t-153 99t-189 35t-189 -35t-153 -99t-102 -160.5t-37 -214.5q0 -119 37 -216t102 -161.5
t153 -99t189 -34.5z" />
    <glyph glyph-name="multiply" unicode="&#xd7;" horiz-adv-x="1073" 
d="M261 273l-128 129l276 276l-276 275l128 128l277 -274l273 273l129 -127l-275 -275l275 -276l-129 -128l-273 276z" />
    <glyph glyph-name="Oslash" unicode="&#xd8;" horiz-adv-x="1650" 
d="M1297 1286q118 -98 182.5 -243.5t64.5 -328.5q0 -221 -94.5 -389t-257 -256t-367.5 -88q-207 0 -373 92l-128 -184l-104 62l132 190q-117 97 -182 243.5t-65 329.5q0 221 94.5 388.5t257.5 255.5t368 88q208 0 372 -92l129 185l103 -63zM344 714q0 -240 143 -380l578 831
q-107 58 -240 58q-101 0 -189 -35t-153 -99t-102 -160.5t-37 -214.5zM825 203q101 0 189 34.5t153 99t102 161.5t37 216q0 238 -144 379l-578 -831q106 -59 241 -59z" />
    <glyph glyph-name="Ugrave" unicode="&#xd9;" horiz-adv-x="1427" 
d="M639 1567l-225 263l116 84l257 -347h-148zM713 -19q-155 0 -274.5 55t-192 171t-72.5 279v940h240v-907q0 -162 82.5 -243t216.5 -81t217.5 81t83.5 243v907h239v-940q0 -163 -72.5 -279t-192.5 -171t-275 -55z" />
    <glyph glyph-name="Uacute" unicode="&#xda;" horiz-adv-x="1427" 
d="M635 1567l257 347l117 -84l-225 -263h-149zM713 -19q-155 0 -274.5 55t-192 171t-72.5 279v940h240v-907q0 -162 82.5 -243t216.5 -81t217.5 81t83.5 243v907h239v-940q0 -163 -72.5 -279t-192.5 -171t-275 -55z" />
    <glyph glyph-name="Ucircumflex" unicode="&#xdb;" horiz-adv-x="1427" 
d="M566 1567h-148l219 297h151l219 -297h-148l-147 189zM713 -19q-155 0 -274.5 55t-192 171t-72.5 279v940h240v-907q0 -162 82.5 -243t216.5 -81t217.5 81t83.5 243v907h239v-940q0 -163 -72.5 -279t-192.5 -171t-275 -55z" />
    <glyph glyph-name="Udieresis" unicode="&#xdc;" horiz-adv-x="1427" 
d="M512 1536q-59 0 -100.5 41.5t-41.5 99.5t41.5 99.5t100.5 41.5q57 0 99 -41.5t42 -99.5t-42 -99.5t-99 -41.5zM915 1536q-59 0 -101 41.5t-42 99.5t42 99.5t101 41.5q57 0 98.5 -41.5t41.5 -99.5t-41.5 -99.5t-98.5 -41.5zM713 -19q-155 0 -274.5 55t-192 171t-72.5 279
v940h240v-907q0 -162 82.5 -243t216.5 -81t217.5 81t83.5 243v907h239v-940q0 -163 -72.5 -279t-192.5 -171t-275 -55z" />
    <glyph glyph-name="Yacute" unicode="&#xdd;" horiz-adv-x="1242" 
d="M918 1830l-225 -263h-149l257 347zM1211 1426l-469 -745v-681h-240v678l-471 748h268l322 -533l323 533h267z" />
    <glyph glyph-name="Thorn" unicode="&#xde;" horiz-adv-x="1225" 
d="M750 1318q166 0 281.5 -129.5t115.5 -316.5q0 -180 -115.5 -306t-281.5 -126h-315v-440h-231v1531h231v-213h315zM739 648q82 0 139 67.5t57 164.5q0 98 -56.5 164t-139.5 66h-304v-462h304z" />
    <glyph glyph-name="germandbls" unicode="&#xdf;" horiz-adv-x="1249" 
d="M163 0v996q0 124 26 221t70 160t106.5 104t131 58t148.5 17q204 0 331 -107.5t127 -271.5q0 -60 -17.5 -107.5t-42 -77t-49 -55t-42 -55t-17.5 -62.5q0 -27 14 -50.5t36 -43t48.5 -41t53 -49.5t48.5 -62t36 -85.5t14 -113.5q0 -73 -23.5 -139t-69.5 -119.5t-121 -85
t-169 -31.5h-196v175h132q102 0 159.5 59.5t57.5 146.5q0 65 -24.5 112t-59 75.5t-69 56.5t-59 71.5t-24.5 103.5q0 56 17 99t41.5 70.5t49.5 53.5t42 62t17 83q0 91 -64 147.5t-173 56.5q-125 0 -192 -79t-67 -256v-1037h-227z" />
    <glyph glyph-name="agrave" unicode="&#xe0;" horiz-adv-x="1112" 
d="M485 1161l-225 264l116 84l257 -348h-148zM400 -19q-86 0 -153.5 26.5t-112 90t-44.5 157.5q0 63 20.5 112.5t54 82.5t85 58t104 39.5t121.5 27.5l152 28q93 18 93 91q0 86 -56 125.5t-141 39.5q-88 0 -145 -42.5t-68 -134.5l-207 38q51 304 434 304q64 0 119.5 -9.5
t109 -34.5t91.5 -63.5t61 -102t23 -145.5v-390q0 -70 21 -96t74 -26h16v-157h-109q-171 0 -204 133h-11q-55 -78 -142.5 -115t-185.5 -37zM454 162q121 0 201 83t80 218l-257 -57q-83 -16 -124 -46.5t-41 -85.5q0 -56 39 -84t102 -28z" />
    <glyph glyph-name="aacute" unicode="&#xe1;" horiz-adv-x="1112" 
d="M481 1161l257 348l117 -84l-225 -264h-149zM400 -19q-86 0 -153.5 26.5t-112 90t-44.5 157.5q0 63 20.5 112.5t54 82.5t85 58t104 39.5t121.5 27.5l152 28q93 18 93 91q0 86 -56 125.5t-141 39.5q-88 0 -145 -42.5t-68 -134.5l-207 38q51 304 434 304q64 0 119.5 -9.5
t109 -34.5t91.5 -63.5t61 -102t23 -145.5v-390q0 -70 21 -96t74 -26h16v-157h-109q-171 0 -204 133h-11q-55 -78 -142.5 -115t-185.5 -37zM454 162q121 0 201 83t80 218l-257 -57q-83 -16 -124 -46.5t-41 -85.5q0 -56 39 -84t102 -28z" />
    <glyph glyph-name="acircumflex" unicode="&#xe2;" horiz-adv-x="1112" 
d="M412 1186h-148l219 297h151l219 -297h-148l-147 189zM400 -19q-86 0 -153.5 26.5t-112 90t-44.5 157.5q0 63 20.5 112.5t54 82.5t85 58t104 39.5t121.5 27.5l152 28q93 18 93 91q0 86 -56 125.5t-141 39.5q-88 0 -145 -42.5t-68 -134.5l-207 38q51 304 434 304
q64 0 119.5 -9.5t109 -34.5t91.5 -63.5t61 -102t23 -145.5v-390q0 -70 21 -96t74 -26h16v-157h-109q-171 0 -204 133h-11q-55 -78 -142.5 -115t-185.5 -37zM454 162q121 0 201 83t80 218l-257 -57q-83 -16 -124 -46.5t-41 -85.5q0 -56 39 -84t102 -28z" />
    <glyph glyph-name="atilde" unicode="&#xe3;" horiz-adv-x="1112" 
d="M690 1153q-107 0 -170 99q-28 45 -69 45q-37 0 -57.5 -36t-20.5 -95h-117q0 109 52 177.5t139 68.5q107 0 169 -100q28 -44 71 -44q37 0 57 34.5t20 95.5h117q0 -107 -51 -176t-140 -69zM400 -19q-86 0 -153.5 26.5t-112 90t-44.5 157.5q0 63 20.5 112.5t54 82.5t85 58
t104 39.5t121.5 27.5l152 28q93 18 93 91q0 86 -56 125.5t-141 39.5q-88 0 -145 -42.5t-68 -134.5l-207 38q51 304 434 304q64 0 119.5 -9.5t109 -34.5t91.5 -63.5t61 -102t23 -145.5v-390q0 -70 21 -96t74 -26h16v-157h-109q-171 0 -204 133h-11q-55 -78 -142.5 -115
t-185.5 -37zM454 162q121 0 201 83t80 218l-257 -57q-83 -16 -124 -46.5t-41 -85.5q0 -56 39 -84t102 -28z" />
    <glyph glyph-name="adieresis" unicode="&#xe4;" horiz-adv-x="1112" 
d="M358 1198q-58 0 -100 41.5t-42 99.5t41.5 99.5t100.5 41.5q57 0 99 -41.5t42 -99.5t-42 -99.5t-99 -41.5zM761 1198q-59 0 -101 41.5t-42 99.5t42 99.5t101 41.5q57 0 98.5 -41.5t41.5 -99.5q0 -57 -41.5 -99t-98.5 -42zM400 -19q-86 0 -153.5 26.5t-112 90t-44.5 157.5
q0 63 20.5 112.5t54 82.5t85 58t104 39.5t121.5 27.5l152 28q93 18 93 91q0 86 -56 125.5t-141 39.5q-88 0 -145 -42.5t-68 -134.5l-207 38q51 304 434 304q64 0 119.5 -9.5t109 -34.5t91.5 -63.5t61 -102t23 -145.5v-390q0 -70 21 -96t74 -26h16v-157h-109q-171 0 -204 133
h-11q-55 -78 -142.5 -115t-185.5 -37zM454 162q121 0 201 83t80 218l-257 -57q-83 -16 -124 -46.5t-41 -85.5q0 -56 39 -84t102 -28z" />
    <glyph glyph-name="aring" unicode="&#xe5;" horiz-adv-x="1112" 
d="M559 1129q-93 0 -159.5 66.5t-66.5 158.5t66 157.5t160 65.5q92 0 157 -65.5t65 -157.5t-65.5 -158.5t-156.5 -66.5zM559 1232q51 0 86 34.5t35 87.5q0 51 -35.5 87.5t-85.5 36.5q-51 0 -86 -36.5t-35 -87.5q0 -54 34.5 -88t86.5 -34zM400 -19q-86 0 -153.5 26.5t-112 90
t-44.5 157.5q0 63 20.5 112.5t54 82.5t85 58t104 39.5t121.5 27.5l152 28q93 18 93 91q0 86 -56 125.5t-141 39.5q-88 0 -145 -42.5t-68 -134.5l-207 38q51 304 434 304q64 0 119.5 -9.5t109 -34.5t91.5 -63.5t61 -102t23 -145.5v-390q0 -70 21 -96t74 -26h16v-157h-109
q-171 0 -204 133h-11q-55 -78 -142.5 -115t-185.5 -37zM454 162q121 0 201 83t80 218l-257 -57q-83 -16 -124 -46.5t-41 -85.5q0 -56 39 -84t102 -28z" />
    <glyph glyph-name="ae" unicode="&#xe6;" horiz-adv-x="1778" 
d="M1696 520l-3 -63h-765q8 -141 89.5 -216t202.5 -75q83 0 148 41.5t99 116.5l210 -36q-53 -147 -174.5 -227t-287.5 -80q-130 0 -235 46t-173 134h-6q-156 -180 -392 -180q-142 0 -230.5 67.5t-88.5 206.5q0 63 20.5 112.5t54 82.5t85.5 58t104 39.5t121 27.5l152 28
q93 18 93 91q0 86 -56 125.5t-141 39.5q-88 0 -145 -42.5t-68 -134.5l-207 38q51 304 434 304q228 0 325 -121q137 123 352 123q217 0 349 -128.5t133 -377.5zM1209 860q-107 0 -180 -60.5t-94 -179.5h531q-10 116 -77.5 178t-179.5 62zM472 162q77 0 144 44t109 118
q-20 70 -23 144l-203 -41q-93 -16 -138 -49t-45 -92q0 -62 43.5 -93t112.5 -31z" />
    <glyph glyph-name="ccedilla" unicode="&#xe7;" horiz-adv-x="1144" 
d="M597 168q97 0 166.5 49.5t98.5 143.5l214 -27q-38 -157 -156 -249t-284 -102l-59 -113q34 6 51 6q85 0 141 -53.5t56 -137.5q0 -91 -62.5 -154t-153.5 -63q-79 0 -144.5 40t-92.5 101l106 40q18 -31 54.5 -50.5t72.5 -19.5q44 0 75.5 30t31.5 76q0 48 -31.5 75t-79.5 27
q-44 0 -77 -26l-90 56l89 170q-199 24 -322 164t-123 353q0 233 146.5 377t374.5 144q181 0 308.5 -92.5t168.5 -258.5l-214 -28q-29 94 -98.5 144t-166.5 50q-127 0 -208 -92.5t-81 -243.5t81 -243.5t208 -92.5z" />
    <glyph glyph-name="egrave" unicode="&#xe8;" horiz-adv-x="1158" 
d="M675 1164h-148l-225 264l116 84zM1076 520l-3 -58h-765q6 -144 88 -220t203 -76q84 0 149.5 41t99.5 117l210 -36q-52 -145 -174 -226t-283 -81q-235 0 -377 139t-142 383q0 243 142 383t370 140q217 0 349 -128.5t133 -377.5zM595 855q-109 0 -181.5 -54.5t-95.5 -166.5
h527q-13 109 -80 165t-170 56z" />
    <glyph glyph-name="eacute" unicode="&#xe9;" horiz-adv-x="1158" 
d="M897 1428l-225 -264h-149l257 348zM1076 520l-3 -58h-765q6 -144 88 -220t203 -76q84 0 149.5 41t99.5 117l210 -36q-52 -145 -174 -226t-283 -81q-235 0 -377 139t-142 383q0 243 142 383t370 140q217 0 349 -128.5t133 -377.5zM595 855q-109 0 -181.5 -54.5
t-95.5 -166.5h527q-13 109 -80 165t-170 56z" />
    <glyph glyph-name="ecircumflex" unicode="&#xea;" horiz-adv-x="1158" 
d="M600 1378l-146 -189h-148l219 297h151l219 -297h-148zM1076 520l-3 -58h-765q6 -144 88 -220t203 -76q84 0 149.5 41t99.5 117l210 -36q-52 -145 -174 -226t-283 -81q-235 0 -377 139t-142 383q0 243 142 383t370 140q217 0 349 -128.5t133 -377.5zM595 855
q-109 0 -181.5 -54.5t-95.5 -166.5h527q-13 109 -80 165t-170 56z" />
    <glyph glyph-name="edieresis" unicode="&#xeb;" horiz-adv-x="1158" 
d="M400 1201q-58 0 -100 41.5t-42 99.5t41.5 99.5t100.5 41.5q57 0 99 -41.5t42 -99.5t-42 -99.5t-99 -41.5zM803 1201q-59 0 -101 41.5t-42 99.5t42 99.5t101 41.5q57 0 98.5 -41.5t41.5 -99.5t-41.5 -99.5t-98.5 -41.5zM1076 520l-3 -58h-765q6 -144 88 -220t203 -76
q84 0 149.5 41t99.5 117l210 -36q-52 -145 -174 -226t-283 -81q-235 0 -377 139t-142 383q0 243 142 383t370 140q217 0 349 -128.5t133 -377.5zM595 855q-109 0 -181.5 -54.5t-95.5 -166.5h527q-13 109 -80 165t-170 56z" />
    <glyph glyph-name="igrave" unicode="&#xec;" horiz-adv-x="557" 
d="M206 1161l-225 264l116 84l257 -348h-148zM163 0v1006h231v-1006h-231z" />
    <glyph glyph-name="iacute" unicode="&#xed;" horiz-adv-x="557" 
d="M202 1161l257 348l117 -84l-225 -264h-149zM163 0v1006h231v-1006h-231z" />
    <glyph glyph-name="icircumflex" unicode="&#xee;" horiz-adv-x="557" 
d="M133 1186h-148l219 297h151l219 -297h-148l-147 189zM163 0v1006h231v-1006h-231z" />
    <glyph glyph-name="idieresis" unicode="&#xef;" horiz-adv-x="557" 
d="M79 1198q-58 0 -100 41.5t-42 99.5t41.5 99.5t100.5 41.5q57 0 99 -41.5t42 -99.5t-42 -99.5t-99 -41.5zM482 1198q-59 0 -101 41.5t-42 99.5t42 99.5t101 41.5q57 0 98.5 -41.5t41.5 -99.5q0 -57 -42 -99t-98 -42zM163 0v1006h231v-1006h-231z" />
    <glyph glyph-name="eth" unicode="&#xf0;" horiz-adv-x="1176" 
d="M975 857q125 -178 124 -361q-1 -148 -69 -266t-184 -183t-258 -65q-212 0 -361.5 147t-148.5 374q1 114 36 209t96 158.5t140 101.5t170 47q49 3 103 -9l-165 222l-258 -66l-21 77l228 58l-174 235h255l130 -181l240 62l21 -77l-212 -54zM883 505q1 135 -80.5 227.5
t-208.5 92.5q-128 0 -208.5 -86.5t-81.5 -231.5q-1 -143 81 -230t210 -87q129 0 208 85t80 230z" />
    <glyph glyph-name="ntilde" unicode="&#xf1;" horiz-adv-x="1203" 
d="M491 1297q-37 0 -57.5 -36t-20.5 -95h-117q0 109 52 177.5t139 68.5q107 0 169 -100q28 -44 71 -44q37 0 57 34.5t20 95.5h117q0 -107 -51 -176t-140 -69q-107 0 -170 99q-28 45 -69 45zM698 1025q170 0 266 -90.5t96 -257.5v-677h-232v627q0 107 -55.5 158.5
t-142.5 51.5q-104 0 -170 -63.5t-67 -195.5v-578h-230v1006h230v-119q51 66 129.5 102t175.5 36z" />
    <glyph glyph-name="ograve" unicode="&#xf2;" horiz-adv-x="1219" 
d="M535 1160l-225 264l116 84l257 -348h-148zM609 -19q-233 0 -381 141.5t-148 381.5q0 238 148 379.5t381 141.5q234 0 382 -141t148 -380q0 -240 -148 -381.5t-382 -141.5zM607 167q133 0 218 93t85 244t-85 243.5t-218 92.5q-130 0 -214 -92.5t-84 -243.5t83.5 -244
t214.5 -93z" />
    <glyph glyph-name="oacute" unicode="&#xf3;" horiz-adv-x="1219" 
d="M531 1160l257 348l117 -84l-225 -264h-149zM609 -19q-233 0 -381 141.5t-148 381.5q0 238 148 379.5t381 141.5q234 0 382 -141t148 -380q0 -240 -148 -381.5t-382 -141.5zM607 167q133 0 218 93t85 244t-85 243.5t-218 92.5q-130 0 -214 -92.5t-84 -243.5t83.5 -244
t214.5 -93z" />
    <glyph glyph-name="ocircumflex" unicode="&#xf4;" horiz-adv-x="1219" 
d="M462 1185h-148l219 297h151l219 -297h-148l-147 189zM609 -19q-233 0 -381 141.5t-148 381.5q0 238 148 379.5t381 141.5q234 0 382 -141t148 -380q0 -240 -148 -381.5t-382 -141.5zM607 167q133 0 218 93t85 244t-85 243.5t-218 92.5q-130 0 -214 -92.5t-84 -243.5
t83.5 -244t214.5 -93z" />
    <glyph glyph-name="otilde" unicode="&#xf5;" horiz-adv-x="1219" 
d="M740 1152q-107 0 -170 99q-28 45 -69 45q-37 0 -57.5 -36t-20.5 -95h-117q0 109 52 177.5t139 68.5q107 0 169 -100q28 -44 71 -44q37 0 57 34.5t20 95.5h117q0 -107 -51 -176t-140 -69zM609 -19q-233 0 -381 141.5t-148 381.5q0 238 148 379.5t381 141.5q234 0 382 -141
t148 -380q0 -240 -148 -381.5t-382 -141.5zM607 167q133 0 218 93t85 244t-85 243.5t-218 92.5q-130 0 -214 -92.5t-84 -243.5t83.5 -244t214.5 -93z" />
    <glyph glyph-name="odieresis" unicode="&#xf6;" horiz-adv-x="1219" 
d="M408 1197q-58 0 -100 41.5t-42 99.5t41.5 99.5t100.5 41.5q57 0 99 -41.5t42 -99.5t-42 -99.5t-99 -41.5zM811 1197q-59 0 -101 41.5t-42 99.5t42 99.5t101 41.5q57 0 98.5 -41.5t41.5 -99.5t-41.5 -99.5t-98.5 -41.5zM609 -19q-233 0 -381 141.5t-148 381.5
q0 238 148 379.5t381 141.5q234 0 382 -141t148 -380q0 -240 -148 -381.5t-382 -141.5zM607 167q133 0 218 93t85 244t-85 243.5t-218 92.5q-130 0 -214 -92.5t-84 -243.5t83.5 -244t214.5 -93z" />
    <glyph glyph-name="divide" unicode="&#xf7;" horiz-adv-x="1055" 
d="M520 932q-52 0 -90.5 37.5t-38.5 92.5q0 51 39 90.5t90 39.5q52 0 91.5 -39.5t39.5 -90.5q0 -55 -39 -92.5t-92 -37.5zM115 601v180h823v-180h-823zM520 190q-52 0 -90.5 38.5t-38.5 93.5q0 51 39 90t90 39q52 0 91.5 -39t39.5 -90q0 -55 -39 -93.5t-92 -38.5z" />
    <glyph glyph-name="oslash" unicode="&#xf8;" horiz-adv-x="1219" 
d="M962 910q84 -69 130.5 -172.5t46.5 -233.5q0 -240 -148 -381.5t-382 -141.5q-141 0 -256 55l-100 -143l-100 60l102 146q-83 69 -129 172t-46 233q0 238 148 379.5t381 141.5q140 0 254 -54l99 142l100 -60zM309 504q0 -136 70 -227l369 530q-64 33 -141 33
q-130 0 -214 -92.5t-84 -243.5zM607 167q133 0 218 93t85 244q0 135 -72 228l-370 -531q63 -34 139 -34z" />
    <glyph glyph-name="ugrave" unicode="&#xf9;" horiz-adv-x="1202" 
d="M677 1161h-148l-225 264l116 84zM809 1006h230v-1006h-219l-6 126q-106 -145 -310 -145q-170 0 -266 90.5t-96 257.5v677h232v-627q0 -107 55.5 -158.5t143.5 -51.5q104 0 169.5 63.5t66.5 195.5v578z" />
    <glyph glyph-name="uacute" unicode="&#xfa;" horiz-adv-x="1202" 
d="M899 1425l-225 -264h-149l257 348zM809 1006h230v-1006h-219l-6 126q-106 -145 -310 -145q-170 0 -266 90.5t-96 257.5v677h232v-627q0 -107 55.5 -158.5t143.5 -51.5q104 0 169.5 63.5t66.5 195.5v578z" />
    <glyph glyph-name="ucircumflex" unicode="&#xfb;" horiz-adv-x="1202" 
d="M602 1375l-146 -189h-148l219 297h151l219 -297h-148zM809 1006h230v-1006h-219l-6 126q-106 -145 -310 -145q-170 0 -266 90.5t-96 257.5v677h232v-627q0 -107 55.5 -158.5t143.5 -51.5q104 0 169.5 63.5t66.5 195.5v578z" />
    <glyph glyph-name="udieresis" unicode="&#xfc;" horiz-adv-x="1202" 
d="M402 1198q-58 0 -100 41.5t-42 99.5t41.5 99.5t100.5 41.5q57 0 99 -41.5t42 -99.5t-42 -99.5t-99 -41.5zM805 1198q-59 0 -101 41.5t-42 99.5t42 99.5t101 41.5q57 0 98.5 -41.5t41.5 -99.5q0 -57 -41.5 -99t-98.5 -42zM809 1006h230v-1006h-219l-6 126
q-106 -145 -310 -145q-170 0 -266 90.5t-96 257.5v677h232v-627q0 -107 55.5 -158.5t143.5 -51.5q104 0 169.5 63.5t66.5 195.5v578z" />
    <glyph glyph-name="yacute" unicode="&#xfd;" horiz-adv-x="1059" 
d="M826 1425l-225 -264h-149l257 348zM802 1006h239l-602 -1479h-235l216 506l-403 973h253l261 -720z" />
    <glyph glyph-name="thorn" unicode="&#xfe;" horiz-adv-x="1283" 
d="M724 1025q131 0 238.5 -62t172.5 -182.5t65 -278.5q0 -120 -37.5 -219.5t-102.5 -166t-151.5 -103t-184.5 -36.5q-108 0 -196.5 47t-134.5 129v-651h-230v2034h230v-687q45 83 133.5 129.5t197.5 46.5zM674 172q126 0 211 90t85 240t-85 239t-211 89q-127 0 -213 -92.5
t-86 -235.5q0 -144 86 -237t213 -93z" />
    <glyph glyph-name="ydieresis" unicode="&#xff;" horiz-adv-x="1059" 
d="M329 1198q-58 0 -100 41.5t-42 99.5t41.5 99.5t100.5 41.5q57 0 99 -41.5t42 -99.5t-42 -99.5t-99 -41.5zM732 1198q-59 0 -101 41.5t-42 99.5t42 99.5t101 41.5q57 0 98.5 -41.5t41.5 -99.5q0 -57 -42 -99t-98 -42zM802 1006h239l-602 -1479h-235l216 506l-403 973h253
l261 -720z" />
    <glyph glyph-name="Amacron" unicode="&#x100;" horiz-adv-x="1432" 
d="M1044 1707v-140h-655v140h655zM1140 0l-113 317h-623l-112 -317h-247l525 1426h291l525 -1426h-246zM477 522h478l-239 674z" />
    <glyph glyph-name="amacron" unicode="&#x101;" horiz-adv-x="1112" 
d="M232 1188v140h655v-140h-655zM400 -19q-86 0 -153.5 26.5t-112 90t-44.5 157.5q0 63 20.5 112.5t54 82.5t85 58t104 39.5t121.5 27.5l152 28q93 18 93 91q0 86 -56 125.5t-141 39.5q-88 0 -145 -42.5t-68 -134.5l-207 38q51 304 434 304q64 0 119.5 -9.5t109 -34.5
t91.5 -63.5t61 -102t23 -145.5v-390q0 -70 21 -96t74 -26h16v-157h-109q-171 0 -204 133h-11q-55 -78 -142.5 -115t-185.5 -37zM454 162q121 0 201 83t80 218l-257 -57q-83 -16 -124 -46.5t-41 -85.5q0 -56 39 -84t102 -28z" />
    <glyph glyph-name="Abreve" unicode="&#x102;" horiz-adv-x="1432" 
d="M715 1567q-163 0 -257.5 68.5t-94.5 213.5h137q0 -85 57.5 -127.5t157.5 -42.5q101 0 159 42.5t58 127.5h136q0 -146 -94.5 -214t-258.5 -68zM1140 0l-113 317h-623l-112 -317h-247l525 1426h291l525 -1426h-246zM477 522h478l-239 674z" />
    <glyph glyph-name="abreve" unicode="&#x103;" horiz-adv-x="1112" 
d="M558 1149q-158 0 -255 88.5t-97 245.5h147q0 -98 55.5 -159.5t149.5 -61.5q95 0 150.5 61.5t55.5 159.5h147q0 -157 -97.5 -245.5t-255.5 -88.5zM400 -19q-86 0 -153.5 26.5t-112 90t-44.5 157.5q0 63 20.5 112.5t54 82.5t85 58t104 39.5t121.5 27.5l152 28q93 18 93 91
q0 86 -56 125.5t-141 39.5q-88 0 -145 -42.5t-68 -134.5l-207 38q51 304 434 304q64 0 119.5 -9.5t109 -34.5t91.5 -63.5t61 -102t23 -145.5v-390q0 -70 21 -96t74 -26h16v-157h-109q-171 0 -204 133h-11q-55 -78 -142.5 -115t-185.5 -37zM454 162q121 0 201 83t80 218
l-257 -57q-83 -16 -124 -46.5t-41 -85.5q0 -56 39 -84t102 -28z" />
    <glyph glyph-name="Aogonek" unicode="&#x104;" horiz-adv-x="1432" 
d="M1216 -224q0 -39 68 -39q61 0 102 35v-155q-59 -23 -126 -23q-86 0 -135 26.5t-49 75.5q0 102 206 304h-142l-113 317h-623l-112 -317h-247l525 1426h291l525 -1426q-170 -162 -170 -224zM477 522h478l-239 674z" />
    <glyph glyph-name="aogonek" unicode="&#x105;" horiz-adv-x="1112" 
d="M1052 0q-170 -162 -170 -224q0 -39 68 -39q61 0 102 35v-155q-59 -23 -126 -23q-86 0 -135 26.5t-49 75.5q0 102 206 304h-5q-171 0 -204 133h-11q-55 -78 -142.5 -115t-185.5 -37q-86 0 -153.5 26.5t-112 90t-44.5 157.5q0 63 20.5 112.5t54 82.5t85 58t104 39.5
t121.5 27.5l152 28q93 18 93 91q0 86 -56 125.5t-141 39.5q-88 0 -145 -42.5t-68 -134.5l-207 38q51 304 434 304q64 0 119.5 -9.5t109 -34.5t91.5 -63.5t61 -102t23 -145.5v-390q0 -70 21 -96t74 -26h16v-157zM454 162q121 0 201 83t80 218l-257 -57q-83 -16 -124 -46.5
t-41 -85.5q0 -56 39 -84t102 -28z" />
    <glyph glyph-name="Cacute" unicode="&#x106;" horiz-adv-x="1550" 
d="M748 1567l257 347l117 -84l-225 -263h-149zM825 -19q-153 0 -285.5 51.5t-228.5 144.5t-151 231.5t-55 305.5q0 221 94.5 388.5t257.5 255.5t368 88q225 0 399 -108t254 -299l-223 -85q-55 127 -169.5 198t-260.5 71q-101 0 -189 -35t-153 -99t-102 -160.5t-37 -214.5
t37 -215.5t102 -161.5t153 -98.5t189 -34.5q147 0 261 70.5t169 197.5l223 -85q-80 -191 -253.5 -298.5t-399.5 -107.5z" />
    <glyph glyph-name="cacute" unicode="&#x107;" horiz-adv-x="1144" 
d="M510 1161l257 348l117 -84l-225 -264h-149zM599 -18q-229 0 -375 144.5t-146 377.5t146.5 377t374.5 144q181 0 308.5 -92.5t168.5 -258.5l-214 -28q-29 94 -98.5 144t-166.5 50q-127 0 -208 -92.5t-81 -243.5t81 -243.5t208 -92.5q97 0 166.5 49.5t98.5 143.5l214 -27
q-41 -166 -169.5 -259t-307.5 -93z" />
    <glyph glyph-name="Cdotaccent" unicode="&#x10a;" horiz-adv-x="1550" 
d="M827 1536q-59 0 -100.5 41.5t-41.5 99.5t41.5 99.5t100.5 41.5q57 0 99 -41.5t42 -99.5t-42 -99.5t-99 -41.5zM825 -19q-153 0 -285.5 51.5t-228.5 144.5t-151 231.5t-55 305.5q0 221 94.5 388.5t257.5 255.5t368 88q225 0 399 -108t254 -299l-223 -85
q-55 127 -169.5 198t-260.5 71q-101 0 -189 -35t-153 -99t-102 -160.5t-37 -214.5t37 -215.5t102 -161.5t153 -98.5t189 -34.5q147 0 261 70.5t169 197.5l223 -85q-80 -191 -253.5 -298.5t-399.5 -107.5z" />
    <glyph glyph-name="cdotaccent" unicode="&#x10b;" horiz-adv-x="1144" 
d="M589 1198q-58 0 -100 41.5t-42 99.5t41.5 99.5t100.5 41.5q57 0 99 -41.5t42 -99.5t-42 -99.5t-99 -41.5zM599 -18q-229 0 -375 144.5t-146 377.5t146.5 377t374.5 144q181 0 308.5 -92.5t168.5 -258.5l-214 -28q-29 94 -98.5 144t-166.5 50q-127 0 -208 -92.5
t-81 -243.5t81 -243.5t208 -92.5q97 0 166.5 49.5t98.5 143.5l214 -27q-41 -166 -169.5 -259t-307.5 -93z" />
    <glyph glyph-name="Ccaron" unicode="&#x10c;" horiz-adv-x="1550" 
d="M751 1567l-220 297h148l146 -191l147 191h148l-219 -297h-150zM825 -19q-153 0 -285.5 51.5t-228.5 144.5t-151 231.5t-55 305.5q0 221 94.5 388.5t257.5 255.5t368 88q225 0 399 -108t254 -299l-223 -85q-55 127 -169.5 198t-260.5 71q-101 0 -189 -35t-153 -99
t-102 -160.5t-37 -214.5t37 -215.5t102 -161.5t153 -98.5t189 -34.5q147 0 261 70.5t169 197.5l223 -85q-80 -191 -253.5 -298.5t-399.5 -107.5z" />
    <glyph glyph-name="ccaron" unicode="&#x10d;" horiz-adv-x="1144" 
d="M513 1186l-220 297h148l146 -190l147 190h148l-219 -297h-150zM599 -18q-229 0 -375 144.5t-146 377.5t146.5 377t374.5 144q181 0 308.5 -92.5t168.5 -258.5l-214 -28q-29 94 -98.5 144t-166.5 50q-127 0 -208 -92.5t-81 -243.5t81 -243.5t208 -92.5q97 0 166.5 49.5
t98.5 143.5l214 -27q-41 -166 -169.5 -259t-307.5 -93z" />
    <glyph glyph-name="Dcaron" unicode="&#x10e;" horiz-adv-x="1473" 
d="M545 1567l-220 297h148l146 -191l147 191h148l-219 -297h-150zM204 0v1426h488q164 0 292 -51.5t210.5 -146t125 -225t42.5 -289.5q0 -214 -73.5 -373t-226 -250t-370.5 -91h-488zM443 214h239q214 0 321.5 130.5t107.5 369.5q0 238 -107.5 368.5t-321.5 130.5h-239v-999
z" />
    <glyph glyph-name="dcaron" unicode="&#x10f;" horiz-adv-x="1464" 
d="M534 -19q-194 0 -321.5 143t-127.5 381q0 236 128 379.5t321 143.5q106 0 195 -49t145 -136l2 693h229v-1536h-231v167q-56 -87 -145 -136.5t-195 -49.5zM1256 899l125 637h239l-197 -637h-167zM610 175q125 0 208.5 93t83.5 237q0 143 -84 236.5t-208 93.5
q-127 0 -211 -91t-84 -239t84 -239t211 -91z" />
    <glyph glyph-name="Dcroat" unicode="&#x110;" horiz-adv-x="1473" 
d="M692 1426q164 0 292 -51.5t210.5 -146t125 -225t42.5 -289.5q0 -214 -73.5 -373t-226 -250t-370.5 -91h-488v642h-158v145h158v639h488zM682 214q214 0 321.5 130.5t107.5 369.5q0 238 -107.5 368.5t-321.5 130.5h-239v-426h251v-145h-251v-428h239z" />
    <glyph glyph-name="dcroat" unicode="&#x111;" horiz-adv-x="1283" 
d="M1270 1335v-145h-150v-1190h-220l-6 160q-45 -85 -134.5 -134t-200.5 -49q-98 0 -184.5 37t-151.5 103.5t-103 166t-38 218.5q0 118 38 217t103 165.5t152 103.5t184 37q108 0 196.5 -46.5t134.5 -127.5v339h-268v145h268v201h230v-201h150zM610 172q127 0 212 93t85 237
q0 143 -85.5 236t-211.5 93q-127 0 -212.5 -90.5t-85.5 -238.5t85.5 -239t212.5 -91z" />
    <glyph glyph-name="Emacron" unicode="&#x112;" horiz-adv-x="1122" 
d="M935 1707v-140h-655v140h655zM1000 1213h-554v-395h490v-211h-490v-393h554v-214h-796v1426h796v-213z" />
    <glyph glyph-name="emacron" unicode="&#x113;" horiz-adv-x="1158" 
d="M929 1331v-140h-655v140h655zM1076 520l-3 -58h-765q6 -144 88 -220t203 -76q84 0 149.5 41t99.5 117l210 -36q-52 -145 -174 -226t-283 -81q-235 0 -377 139t-142 383q0 243 142 383t370 140q217 0 349 -128.5t133 -377.5zM595 855q-109 0 -181.5 -54.5t-95.5 -166.5
h527q-13 109 -80 165t-170 56z" />
    <glyph glyph-name="Edotaccent" unicode="&#x116;" horiz-adv-x="1122" 
d="M608 1536q-59 0 -100.5 41.5t-41.5 99.5t41.5 99.5t100.5 41.5q57 0 99 -41.5t42 -99.5t-42 -99.5t-99 -41.5zM1000 1213h-554v-395h490v-211h-490v-393h554v-214h-796v1426h796v-213z" />
    <glyph glyph-name="edotaccent" unicode="&#x117;" horiz-adv-x="1158" 
d="M602 1201q-58 0 -100 41.5t-42 99.5t41.5 99.5t100.5 41.5q57 0 99 -41.5t42 -99.5t-42 -99.5t-99 -41.5zM1076 520l-3 -58h-765q6 -144 88 -220t203 -76q84 0 149.5 41t99.5 117l210 -36q-52 -145 -174 -226t-283 -81q-235 0 -377 139t-142 383q0 243 142 383t370 140
q217 0 349 -128.5t133 -377.5zM595 855q-109 0 -181.5 -54.5t-95.5 -166.5h527q-13 109 -80 165t-170 56z" />
    <glyph glyph-name="Eogonek" unicode="&#x118;" horiz-adv-x="1122" 
d="M1000 1213h-554v-395h490v-211h-490v-393h554v-214q-170 -162 -170 -224q0 -39 68 -39q61 0 102 35v-155q-59 -23 -126 -23q-86 0 -135 26.5t-49 75.5q0 102 206 304h-692v1426h796v-213z" />
    <glyph glyph-name="eogonek" unicode="&#x119;" horiz-adv-x="1158" 
d="M1076 520l-3 -58h-765q6 -144 88 -220t203 -76q84 0 149.5 41t99.5 117l210 -36q-30 -85 -85 -147l1 -1l-14 -14q-17 -17 -26 -25q-130 -128 -130 -185q0 -39 68 -39q61 0 102 35v-155q-59 -23 -126 -23q-86 0 -135 26.5t-49 75.5q0 61 78 163q-68 -18 -141 -18
q-235 0 -377 139t-142 383q0 243 142 383t370 140q217 0 349 -128.5t133 -377.5zM595 855q-109 0 -181.5 -54.5t-95.5 -166.5h527q-13 109 -80 165t-170 56z" />
    <glyph glyph-name="Ecaron" unicode="&#x11a;" horiz-adv-x="1122" 
d="M682 1567h-150l-220 297h148l146 -191l147 191h148zM1000 1213h-554v-395h490v-211h-490v-393h554v-214h-796v1426h796v-213z" />
    <glyph glyph-name="ecaron" unicode="&#x11b;" horiz-adv-x="1158" 
d="M676 1189h-150l-220 297h148l146 -190l147 190h148zM1076 520l-3 -58h-765q6 -144 88 -220t203 -76q84 0 149.5 41t99.5 117l210 -36q-52 -145 -174 -226t-283 -81q-235 0 -377 139t-142 383q0 243 142 383t370 140q217 0 349 -128.5t133 -377.5zM595 855
q-109 0 -181.5 -54.5t-95.5 -166.5h527q-13 109 -80 165t-170 56z" />
    <glyph glyph-name="Gbreve" unicode="&#x11e;" horiz-adv-x="1636" 
d="M817 1567q-163 0 -257.5 68.5t-94.5 213.5h137q0 -85 57.5 -127.5t157.5 -42.5q101 0 159 42.5t58 127.5h136q0 -146 -94.5 -214t-258.5 -68zM815 -19q-202 0 -362.5 87t-254 254t-93.5 388q0 167 55 306.5t151 233t228.5 145t285.5 51.5q202 0 364 -86.5t254 -247.5
l-211 -113q-61 116 -167.5 175t-239.5 59q-210 0 -344.5 -137.5t-134.5 -380.5q0 -241 134.5 -381.5t353.5 -140.5q171 0 290 92.5t145 269.5h-435v197h664v-752h-191v232q-72 -121 -196.5 -186t-295.5 -65z" />
    <glyph glyph-name="gbreve" unicode="&#x11f;" horiz-adv-x="1256" 
d="M601 1149q-158 0 -255 88.5t-97 245.5h147q0 -98 55.5 -159.5t149.5 -61.5q95 0 150.5 61.5t55.5 159.5h147q0 -157 -97.5 -245.5t-255.5 -88.5zM872 1006h222v-943q0 -268 -135.5 -403.5t-376.5 -135.5q-381 0 -504 310l191 86q44 -107 118 -159.5t186 -52.5
q143 0 216 88.5t73 251.5v149q-46 -74 -134.5 -119.5t-193.5 -45.5q-192 0 -325.5 140t-133.5 358q0 109 37 202.5t99.5 157t146.5 99.5t178 36q109 0 197.5 -48.5t132.5 -128.5zM590 222q123 0 208 90t85 218t-84.5 218.5t-208.5 90.5t-208 -88t-84 -221q0 -131 85 -219.5
t207 -88.5z" />
    <glyph glyph-name="Gdotaccent" unicode="&#x120;" horiz-adv-x="1636" 
d="M819 1536q-59 0 -100.5 41.5t-41.5 99.5t41.5 99.5t100.5 41.5q57 0 99 -41.5t42 -99.5t-42 -99.5t-99 -41.5zM815 -19q-202 0 -362.5 87t-254 254t-93.5 388q0 167 55 306.5t151 233t228.5 145t285.5 51.5q202 0 364 -86.5t254 -247.5l-211 -113q-61 116 -167.5 175
t-239.5 59q-210 0 -344.5 -137.5t-134.5 -380.5q0 -241 134.5 -381.5t353.5 -140.5q171 0 290 92.5t145 269.5h-435v197h664v-752h-191v232q-72 -121 -196.5 -186t-295.5 -65z" />
    <glyph glyph-name="gdotaccent" unicode="&#x121;" horiz-adv-x="1256" 
d="M603 1198q-58 0 -100 41.5t-42 99.5t41.5 99.5t100.5 41.5q57 0 99 -41.5t42 -99.5t-42 -99.5t-99 -41.5zM872 1006h222v-943q0 -268 -135.5 -403.5t-376.5 -135.5q-381 0 -504 310l191 86q44 -107 118 -159.5t186 -52.5q143 0 216 88.5t73 251.5v149
q-46 -74 -134.5 -119.5t-193.5 -45.5q-192 0 -325.5 140t-133.5 358q0 109 37 202.5t99.5 157t146.5 99.5t178 36q109 0 197.5 -48.5t132.5 -128.5zM590 222q123 0 208 90t85 218t-84.5 218.5t-208.5 90.5t-208 -88t-84 -221q0 -131 85 -219.5t207 -88.5z" />
    <glyph glyph-name="Gcommaaccent" unicode="&#x122;" horiz-adv-x="1636" 
d="M815 -19q-202 0 -362.5 87t-254 254t-93.5 388q0 167 55 306.5t151 233t228.5 145t285.5 51.5q202 0 364 -86.5t254 -247.5l-211 -113q-61 116 -167.5 175t-239.5 59q-210 0 -344.5 -137.5t-134.5 -380.5q0 -241 134.5 -381.5t353.5 -140.5q171 0 290 92.5t145 269.5
h-435v197h664v-752h-191v232q-72 -121 -196.5 -186t-295.5 -65zM667 -566l-117 53l164 370h205z" />
    <glyph glyph-name="gcommaaccent" unicode="&#x123;" horiz-adv-x="1256" 
d="M788 1478l-124 -316h-238l196 316h166zM872 1006h222v-943q0 -268 -135.5 -403.5t-376.5 -135.5q-381 0 -504 310l191 86q44 -107 118 -159.5t186 -52.5q143 0 216 88.5t73 251.5v149q-46 -74 -134.5 -119.5t-193.5 -45.5q-192 0 -325.5 140t-133.5 358q0 109 37 202.5
t99.5 157t146.5 99.5t178 36q109 0 197.5 -48.5t132.5 -128.5zM590 222q123 0 208 90t85 218t-84.5 218.5t-208.5 90.5t-208 -88t-84 -221q0 -131 85 -219.5t207 -88.5z" />
    <glyph glyph-name="Hbar" unicode="&#x126;" horiz-adv-x="1549" 
d="M1481 1172v-105h-135v-1067h-240v609h-662v-609h-240v1067h-135v105h135v254h240v-254h662v254h240v-254h135zM1106 820v247h-662v-247h662z" />
    <glyph glyph-name="hbar" unicode="&#x127;" horiz-adv-x="1202" 
d="M709 1025q164 0 257.5 -94.5t93.5 -274.5v-656h-232v616q0 115 -55.5 168t-144.5 53q-100 0 -167 -62.5t-68 -196.5v-578h-230v1191h-129v145h129v200h230v-200h289v-145h-289v-311q52 69 133 107t183 38z" />
    <glyph glyph-name="Itilde" unicode="&#x128;" horiz-adv-x="647" 
d="M468 1569q-62 0 -100 24t-70 64q-19 26 -28 37t-29 23t-42 12q-46 0 -71 -40.5t-25 -105.5h-123q0 113 58 184t158 71t167 -83q3 -3 14.5 -17.5t15.5 -19t14.5 -14.5t18 -14t19 -7.5t23.5 -3.5q45 0 68.5 38.5t23.5 105.5h125q0 -112 -57 -183t-160 -71zM204 0v1426h239
v-1426h-239z" />
    <glyph glyph-name="itilde" unicode="&#x129;" horiz-adv-x="557" 
d="M411 1153q-107 0 -170 99q-28 45 -69 45q-37 0 -57.5 -36t-20.5 -95h-117q0 109 52 177.5t139 68.5q107 0 169 -100q28 -44 71 -44q37 0 57 34.5t20 95.5h117q0 -107 -51 -176t-140 -69zM163 0v1006h231v-1006h-231z" />
    <glyph glyph-name="Imacron" unicode="&#x12a;" horiz-adv-x="647" 
d="M-4 1567v140h655v-140h-655zM204 0v1426h239v-1426h-239z" />
    <glyph glyph-name="imacron" unicode="&#x12b;" horiz-adv-x="557" 
d="M-47 1188v140h655v-140h-655zM163 0v1006h231v-1006h-231z" />
    <glyph glyph-name="Iogonek" unicode="&#x12e;" horiz-adv-x="647" 
d="M274 -224q0 -39 68 -39q61 0 102 35v-155q-59 -23 -126 -23q-86 0 -135 26.5t-49 75.5q0 102 206 304h-136v1426h239v-1426h1q-170 -162 -170 -224z" />
    <glyph glyph-name="iogonek" unicode="&#x12f;" horiz-adv-x="557" 
d="M281 1198q-58 0 -100 41.5t-42 99.5t41.5 99.5t100.5 41.5q57 0 99 -41.5t42 -99.5t-42 -99.5t-99 -41.5zM163 0v1006h231v-1006q-170 -162 -170 -224q0 -39 68 -39q61 0 102 35v-155q-59 -23 -126 -23q-86 0 -135 26.5t-49 75.5q0 102 206 304h-127z" />
    <glyph glyph-name="Idotaccent" unicode="&#x130;" horiz-adv-x="647" 
d="M324 1536q-59 0 -100.5 41.5t-41.5 99.5t41.5 99.5t100.5 41.5q57 0 99 -41.5t42 -99.5t-42 -99.5t-99 -41.5zM204 0v1426h239v-1426h-239z" />
    <glyph glyph-name="dotlessi" unicode="&#x131;" horiz-adv-x="557" 
d="M163 0v1006h231v-1006h-231z" />
    <glyph glyph-name="Kcommaaccent" unicode="&#x136;" horiz-adv-x="1383" 
d="M763 745l579 -745h-306l-477 633h-116v-633h-239v1426h239v-581h114l469 581h293zM407 -513l164 370h205l-252 -423z" />
    <glyph glyph-name="kcommaaccent" unicode="&#x137;" horiz-adv-x="1110" 
d="M656 542l446 -542h-286l-351 443h-70v-443h-232v1536h232v-927h64l333 397h265zM287 -513l164 370h205l-252 -423z" />
    <glyph glyph-name="Lacute" unicode="&#x139;" horiz-adv-x="964" 
d="M620 1830l-225 -263h-149l257 347zM443 214h471v-214h-710v1426h239v-1212z" />
    <glyph glyph-name="lacute" unicode="&#x13a;" horiz-adv-x="558" 
d="M202 1691l257 348l117 -84l-225 -264h-149zM163 0v1536h232v-1536h-232z" />
    <glyph glyph-name="Lcommaaccent" unicode="&#x13b;" horiz-adv-x="964" 
d="M443 214h471v-214h-710v1426h239v-1212zM292 -513l164 370h205l-252 -423z" />
    <glyph glyph-name="lcommaaccent" unicode="&#x13c;" horiz-adv-x="558" 
d="M163 0v1536h232v-1536h-232zM129 -566l-117 53l164 370h205z" />
    <glyph glyph-name="Lcaron" unicode="&#x13d;" horiz-adv-x="1076" 
d="M443 1426v-1212h471v-214h-710v1426h239zM1002 1426l-196 -637h-166l124 637h238z" />
    <glyph glyph-name="lcaron" unicode="&#x13e;" horiz-adv-x="727" 
d="M163 0v1536h230v-1536h-230zM520 899l125 637h239l-197 -637h-167z" />
    <glyph glyph-name="Lslash" unicode="&#x141;" horiz-adv-x="964" 
d="M443 214h471v-214h-710v540l-166 -123v155l166 124v730h239v-552l183 136v-156l-183 -136v-504z" />
    <glyph glyph-name="lslash" unicode="&#x142;" horiz-adv-x="558" 
d="M572 1047v-156l-177 -132v-759h-232v587l-179 -133v155l179 133v794h232v-621z" />
    <glyph glyph-name="Nacute" unicode="&#x143;" horiz-adv-x="1613" 
d="M1103 1830l-225 -263h-149l257 347zM1170 1426h239v-1426h-268l-700 1088v-1088h-237v1426h265l701 -1081v1081z" />
    <glyph glyph-name="nacute" unicode="&#x144;" horiz-adv-x="1203" 
d="M895 1425l-225 -264h-149l257 348zM698 1025q170 0 266 -90.5t96 -257.5v-677h-232v627q0 107 -55.5 158.5t-142.5 51.5q-104 0 -170 -63.5t-67 -195.5v-578h-230v1006h230v-119q51 66 129.5 102t175.5 36z" />
    <glyph glyph-name="Ncommaaccent" unicode="&#x145;" horiz-adv-x="1613" 
d="M1170 1426h239v-1426h-268l-700 1088v-1088h-237v1426h265l701 -1081v1081zM540 -513l164 370h205l-252 -423z" />
    <glyph glyph-name="ncommaaccent" unicode="&#x146;" horiz-adv-x="1203" 
d="M698 1025q170 0 266 -90.5t96 -257.5v-677h-232v627q0 107 -55.5 158.5t-142.5 51.5q-104 0 -170 -63.5t-67 -195.5v-578h-230v1006h230v-119q51 66 129.5 102t175.5 36zM332 -513l164 370h205l-252 -423z" />
    <glyph glyph-name="Ncaron" unicode="&#x147;" horiz-adv-x="1613" 
d="M882 1567h-150l-220 297h148l146 -191l147 191h148zM1170 1426h239v-1426h-268l-700 1088v-1088h-237v1426h265l701 -1081v1081z" />
    <glyph glyph-name="ncaron" unicode="&#x148;" horiz-adv-x="1203" 
d="M674 1186h-150l-220 297h148l146 -190l147 190h148zM698 1025q170 0 266 -90.5t96 -257.5v-677h-232v627q0 107 -55.5 158.5t-142.5 51.5q-104 0 -170 -63.5t-67 -195.5v-578h-230v1006h230v-119q51 66 129.5 102t175.5 36z" />
    <glyph glyph-name="Eng" unicode="&#x14a;" horiz-adv-x="1636" 
d="M1195 1426h238v-1426q0 -220 -134.5 -342.5t-360.5 -122.5v182q121 0 188.5 74.5t39.5 208.5l-726 1094v-1094h-236v1426h263l728 -1088v1088z" />
    <glyph glyph-name="eng" unicode="&#x14b;" horiz-adv-x="1204" 
d="M706 1025q166 0 260.5 -92t94.5 -263v-829q0 -142 -82.5 -228t-222.5 -86h-157v166h96q60 0 97 34t37 102v798q0 108 -56 159t-147 51q-101 0 -166.5 -60.5t-66.5 -190.5v-586h-230v1006h230v-118q112 137 313 137z" />
    <glyph glyph-name="Omacron" unicode="&#x14c;" horiz-adv-x="1650" 
d="M498 1567v140h655v-140h-655zM825 -19q-205 0 -368 88t-257.5 256t-94.5 389t94.5 388.5t257.5 255.5t368 88t367.5 -88t257 -255.5t94.5 -388.5t-94.5 -389t-257 -256t-367.5 -88zM825 203q101 0 189 34.5t153 99t102 161.5t37 216q0 118 -37 214.5t-102 160.5t-153 99
t-189 35t-189 -35t-153 -99t-102 -160.5t-37 -214.5q0 -119 37 -216t102 -161.5t153 -99t189 -34.5z" />
    <glyph glyph-name="omacron" unicode="&#x14d;" horiz-adv-x="1219" 
d="M282 1187v140h655v-140h-655zM609 -19q-233 0 -381 141.5t-148 381.5q0 238 148 379.5t381 141.5q234 0 382 -141t148 -380q0 -240 -148 -381.5t-382 -141.5zM607 167q133 0 218 93t85 244t-85 243.5t-218 92.5q-130 0 -214 -92.5t-84 -243.5t83.5 -244t214.5 -93z" />
    <glyph glyph-name="Ohungarumlaut" unicode="&#x150;" horiz-adv-x="1650" 
d="M566 1567l257 347l117 -84l-225 -263h-149zM935 1567l257 347l116 -84l-225 -263h-148zM825 -19q-205 0 -368 88t-257.5 256t-94.5 389t94.5 388.5t257.5 255.5t368 88t367.5 -88t257 -255.5t94.5 -388.5t-94.5 -389t-257 -256t-367.5 -88zM825 203q101 0 189 34.5
t153 99t102 161.5t37 216q0 118 -37 214.5t-102 160.5t-153 99t-189 35t-189 -35t-153 -99t-102 -160.5t-37 -214.5q0 -119 37 -216t102 -161.5t153 -99t189 -34.5z" />
    <glyph glyph-name="ohungarumlaut" unicode="&#x151;" horiz-adv-x="1219" 
d="M350 1160l257 348l117 -84l-225 -264h-149zM719 1160l257 348l116 -84l-225 -264h-148zM609 -19q-233 0 -381 141.5t-148 381.5q0 238 148 379.5t381 141.5q234 0 382 -141t148 -380q0 -240 -148 -381.5t-382 -141.5zM607 167q133 0 218 93t85 244t-85 243.5t-218 92.5
q-130 0 -214 -92.5t-84 -243.5t83.5 -244t214.5 -93z" />
    <glyph glyph-name="OE" unicode="&#x152;" horiz-adv-x="1979" 
d="M822 0q-184 0 -322 50.5t-224 145t-128.5 224.5t-42.5 296q0 337 177 523.5t540 186.5h1036v-214h-591v-390h505v-214h-505v-394h591v-214h-1036zM834 214h194v998h-194q-257 0 -368.5 -123.5t-111.5 -372.5q0 -250 112 -376t368 -126z" />
    <glyph glyph-name="oe" unicode="&#x153;" horiz-adv-x="1990" 
d="M1907 520l-3 -58h-765q6 -144 88 -220t203 -76q84 0 149.5 41t99.5 117l210 -36q-52 -145 -174 -226t-283 -81q-131 0 -236 45t-174 130q-71 -85 -177.5 -130t-235.5 -45q-233 0 -381 141.5t-148 381.5q0 238 148 379.5t381 141.5q129 0 235.5 -45.5t178.5 -129.5
q68 85 171.5 130.5t230.5 45.5q217 0 349 -128.5t133 -377.5zM1426 855q-109 0 -181.5 -54.5t-95.5 -166.5h527q-13 109 -80 165t-170 56zM607 167q133 0 218 93t85 244t-85 243.5t-218 92.5q-130 0 -214 -92.5t-84 -243.5t83.5 -244t214.5 -93z" />
    <glyph glyph-name="Racute" unicode="&#x154;" horiz-adv-x="1307" 
d="M944 1830l-225 -263h-149l257 347zM967 0l-370 636h-154v-636h-239v1426h495q113 0 199.5 -32t139.5 -89.5t79.5 -131t26.5 -161.5q0 -148 -82 -244.5t-225 -122.5l411 -645h-281zM443 1224v-411h221q127 0 188.5 54.5t61.5 149.5t-62 151t-188 56h-221z" />
    <glyph glyph-name="racute" unicode="&#x155;" horiz-adv-x="732" 
d="M652 1425l-225 -264h-149l257 348zM385 837q38 77 127.5 128t196.5 52v-210q-160 0 -237.5 -67.5t-77.5 -226.5v-513h-231v1006h222v-169z" />
    <glyph glyph-name="Rcommaaccent" unicode="&#x156;" horiz-adv-x="1307" 
d="M837 645l411 -645h-281l-370 636h-154v-636h-239v1426h495q113 0 199.5 -32t139.5 -89.5t79.5 -131t26.5 -161.5q0 -148 -82 -244.5t-225 -122.5zM443 1224v-411h221q127 0 188.5 54.5t61.5 149.5t-62 151t-188 56h-221zM381 -513l164 370h205l-252 -423z" />
    <glyph glyph-name="rcommaaccent" unicode="&#x157;" horiz-adv-x="732" 
d="M385 837q38 77 127.5 128t196.5 52v-210q-160 0 -237.5 -67.5t-77.5 -226.5v-513h-231v1006h222v-169zM12 -513l164 370h205l-252 -423z" />
    <glyph glyph-name="Rcaron" unicode="&#x158;" horiz-adv-x="1307" 
d="M723 1567h-150l-220 297h148l146 -191l147 191h148zM967 0l-370 636h-154v-636h-239v1426h495q113 0 199.5 -32t139.5 -89.5t79.5 -131t26.5 -161.5q0 -148 -82 -244.5t-225 -122.5l411 -645h-281zM443 1224v-411h221q127 0 188.5 54.5t61.5 149.5t-62 151t-188 56h-221z
" />
    <glyph glyph-name="rcaron" unicode="&#x159;" horiz-adv-x="732" 
d="M431 1186h-150l-220 297h148l146 -190l147 190h148zM385 837q38 77 127.5 128t196.5 52v-210q-160 0 -237.5 -67.5t-77.5 -226.5v-513h-231v1006h222v-169z" />
    <glyph glyph-name="Sacute" unicode="&#x15a;" horiz-adv-x="1284" 
d="M566 1567l257 347l117 -84l-225 -263h-149zM662 -19q-230 0 -385 104.5t-189 291.5l246 57q19 -121 110.5 -187.5t226.5 -66.5q114 0 189 51.5t74 157.5q-1 44 -22 80t-47 58.5t-81 45.5t-90 34t-108 32q-9 3 -14 4q-57 17 -93 28.5t-87.5 32t-83.5 40t-68.5 50t-57 64.5
t-34.5 80.5t-14 101.5q0 192 138.5 299t350.5 107q97 0 183 -21t160.5 -63t126.5 -113t72 -164l-231 -58q-23 110 -102.5 164.5t-196.5 54.5q-110 0 -184.5 -50t-74.5 -152q0 -28 10 -51.5t23 -41t41 -35t48.5 -28t62.5 -24.5t65.5 -20.5t73.5 -20.5q47 -13 75.5 -21.5
t74.5 -24t74.5 -28.5t67 -34t63 -42t51 -50.5t41 -62t24.5 -73.5t10 -88q0 -107 -42.5 -189t-115.5 -131t-164.5 -73.5t-196.5 -24.5z" />
    <glyph glyph-name="sacute" unicode="&#x15b;" horiz-adv-x="969" 
d="M410 1162l257 348l117 -84l-225 -264h-149zM499 -19q-169 0 -282 71.5t-138 207.5l195 55q20 -84 79 -126.5t146 -42.5q72 0 122 30t49 97q0 28 -13 49.5t-31 36t-51.5 28.5t-61 22t-74.5 22t-78 24q-57 18 -96 37t-79 50t-60.5 78.5t-20.5 110.5q0 98 51 165t134 97.5
t190 30.5q151 0 254.5 -65t128.5 -199l-182 -43q-19 76 -72.5 112t-127.5 36q-69 0 -116.5 -28.5t-47.5 -86.5q0 -16 3.5 -29.5t13.5 -24.5t18 -19.5t26 -17.5t29 -14t36 -12.5t37 -11t41.5 -11t41.5 -10.5q56 -15 95.5 -28t87 -38.5t77 -56.5t49.5 -80.5t20 -110.5
q0 -81 -32 -141.5t-87.5 -95t-124 -51.5t-149.5 -17z" />
    <glyph glyph-name="Scedilla" unicode="&#x15e;" horiz-adv-x="1284" 
d="M1181 399q0 -103 -39.5 -183t-108.5 -129.5t-155 -76t-187 -29.5l-58 -111q34 6 51 6q85 0 141 -53.5t56 -137.5q0 -91 -62.5 -154t-153.5 -63q-79 0 -144.5 40t-92.5 101l106 40q18 -31 54.5 -50.5t72.5 -19.5q44 0 75.5 30t31.5 76q0 48 -31.5 75t-79.5 27
q-44 0 -77 -26l-90 56l88 168q-197 18 -328 120.5t-162 271.5l246 57q19 -121 110.5 -187.5t226.5 -66.5q114 0 189 51.5t74 157.5q-1 44 -22 80t-47 58.5t-81 45.5t-90 34t-108 32q-9 3 -14 4q-57 17 -93 28.5t-87.5 32t-83.5 40t-68.5 50t-57 64.5t-34.5 80.5t-14 101.5
q0 192 138.5 299t350.5 107q97 0 183 -21t160.5 -63t126.5 -113t72 -164l-231 -58q-23 110 -102.5 164.5t-196.5 54.5q-110 0 -184.5 -50t-74.5 -152q0 -28 10 -51.5t23 -41t41 -35t48.5 -28t62.5 -24.5t65.5 -20.5t73.5 -20.5q47 -13 75.5 -21.5t74.5 -24t74.5 -28.5
t67 -34t63 -42t51 -50.5t41 -62t24.5 -73.5t10 -88z" />
    <glyph glyph-name="scedilla" unicode="&#x15f;" horiz-adv-x="969" 
d="M892 286q0 -76 -28.5 -134.5t-78.5 -93.5t-112.5 -53.5t-137.5 -22.5l-58 -111q34 6 51 6q85 0 141 -53.5t56 -137.5q0 -91 -62.5 -154t-153.5 -63q-79 0 -144.5 40t-92.5 101l106 40q18 -31 54.5 -50.5t72.5 -19.5q44 0 75.5 30t31.5 76q0 48 -31.5 75t-79.5 27
q-44 0 -77 -26l-90 56l88 167q-140 15 -230.5 85.5t-112.5 189.5l195 55q20 -84 79 -126.5t146 -42.5q72 0 122 30t49 97q0 28 -13 49.5t-31 36t-51.5 28.5t-61 22t-74.5 22t-78 24q-57 18 -96 37t-79 50t-60.5 78.5t-20.5 110.5q0 98 51 165t134 97.5t190 30.5
q151 0 254.5 -65t128.5 -199l-182 -43q-19 76 -72.5 112t-127.5 36q-69 0 -116.5 -28.5t-47.5 -86.5q0 -16 3.5 -29.5t13.5 -24.5t18 -19.5t26 -17.5t29 -14t36 -12.5t37 -11t41.5 -11t41.5 -10.5q56 -15 95.5 -28t87 -38.5t77 -56.5t49.5 -80.5t20 -110.5z" />
    <glyph glyph-name="Scaron" unicode="&#x160;" horiz-adv-x="1284" 
d="M569 1567l-220 297h148l146 -191l147 191h148l-219 -297h-150zM662 -19q-230 0 -385 104.5t-189 291.5l246 57q19 -121 110.5 -187.5t226.5 -66.5q114 0 189 51.5t74 157.5q-1 44 -22 80t-47 58.5t-81 45.5t-90 34t-108 32q-9 3 -14 4q-57 17 -93 28.5t-87.5 32t-83.5 40
t-68.5 50t-57 64.5t-34.5 80.5t-14 101.5q0 192 138.5 299t350.5 107q97 0 183 -21t160.5 -63t126.5 -113t72 -164l-231 -58q-23 110 -102.5 164.5t-196.5 54.5q-110 0 -184.5 -50t-74.5 -152q0 -28 10 -51.5t23 -41t41 -35t48.5 -28t62.5 -24.5t65.5 -20.5t73.5 -20.5
q47 -13 75.5 -21.5t74.5 -24t74.5 -28.5t67 -34t63 -42t51 -50.5t41 -62t24.5 -73.5t10 -88q0 -107 -42.5 -189t-115.5 -131t-164.5 -73.5t-196.5 -24.5z" />
    <glyph glyph-name="scaron" unicode="&#x161;" horiz-adv-x="969" 
d="M413 1187l-220 297h148l146 -190l147 190h148l-219 -297h-150zM499 -19q-169 0 -282 71.5t-138 207.5l195 55q20 -84 79 -126.5t146 -42.5q72 0 122 30t49 97q0 28 -13 49.5t-31 36t-51.5 28.5t-61 22t-74.5 22t-78 24q-57 18 -96 37t-79 50t-60.5 78.5t-20.5 110.5
q0 98 51 165t134 97.5t190 30.5q151 0 254.5 -65t128.5 -199l-182 -43q-19 76 -72.5 112t-127.5 36q-69 0 -116.5 -28.5t-47.5 -86.5q0 -16 3.5 -29.5t13.5 -24.5t18 -19.5t26 -17.5t29 -14t36 -12.5t37 -11t41.5 -11t41.5 -10.5q56 -15 95.5 -28t87 -38.5t77 -56.5
t49.5 -80.5t20 -110.5q0 -81 -32 -141.5t-87.5 -95t-124 -51.5t-149.5 -17z" />
    <glyph glyph-name="uni0162" unicode="&#x162;" horiz-adv-x="1039" 
d="M639 0h-62l-68 -130q34 6 51 6q85 0 141 -53.5t56 -137.5q0 -91 -62.5 -154t-153.5 -63q-79 0 -144.5 40t-92.5 101l106 40q18 -31 54.5 -50.5t72.5 -19.5q44 0 75.5 30t31.5 76q0 48 -31.5 75t-79.5 27q-44 0 -77 -26l-90 56l96 183h-61v1213h-353v213h943v-213h-352
v-1213z" />
    <glyph glyph-name="uni0163" unicode="&#x163;" horiz-adv-x="749" 
d="M599 -124q85 0 141 -53.5t56 -137.5q0 -91 -62.5 -154t-153.5 -63q-79 0 -144.5 40t-92.5 101l106 40q18 -31 54.5 -50.5t72.5 -19.5q44 0 75.5 30t31.5 76q0 48 -31.5 75t-79.5 27q-44 0 -77 -26l-90 56l96 183q-131 3 -204.5 79.5t-73.5 214.5v532h-201v180h69
q82 0 118.5 38.5t36.5 134.5v156h210v-329h219v-180h-219v-508q0 -69 34.5 -104.5t93.5 -35.5h91v-178h-59l-68 -130q34 6 51 6z" />
    <glyph glyph-name="Tcaron" unicode="&#x164;" horiz-adv-x="1039" 
d="M595 1567h-150l-220 297h148l146 -191l147 191h148zM991 1426v-213h-352v-1213h-238v1213h-353v213h943z" />
    <glyph glyph-name="tcaron" unicode="&#x165;" horiz-adv-x="711" 
d="M581 1201l125 636h238l-196 -636h-167zM495 0q-136 0 -212 77t-76 217v532h-202v180h70q81 0 117.5 38.5t36.5 134.5v156h210v-329h219v-180h-219v-508q0 -69 34.5 -104.5t93.5 -35.5h91v-178h-163z" />
    <glyph glyph-name="Tbar" unicode="&#x166;" horiz-adv-x="1039" 
d="M991 1213h-352v-426h206v-145h-206v-642h-238v642h-204v145h204v426h-353v213h943v-213z" />
    <glyph glyph-name="tbar" unicode="&#x167;" horiz-adv-x="749" 
d="M675 826h-219v-249h158v-145h-158v-114q0 -69 34.5 -104.5t93.5 -35.5h91v-178h-164q-136 0 -212 77t-76 217v138h-146v145h146v249h-201v180h69q82 0 118.5 38.5t36.5 134.5v156h210v-329h219v-180z" />
    <glyph glyph-name="Utilde" unicode="&#x168;" horiz-adv-x="1427" 
d="M858 1569q-62 0 -100 24t-70 64q-19 26 -28 37t-29 23t-42 12q-46 0 -71 -40.5t-25 -105.5h-123q0 113 58 184t158 71t167 -83q3 -3 14.5 -17.5t15.5 -19t14.5 -14.5t18 -14t19 -7.5t23.5 -3.5q45 0 68.5 38.5t23.5 105.5h125q0 -112 -57 -183t-160 -71zM713 -19
q-155 0 -274.5 55t-192 171t-72.5 279v940h240v-907q0 -162 82.5 -243t216.5 -81t217.5 81t83.5 243v907h239v-940q0 -163 -72.5 -279t-192.5 -171t-275 -55z" />
    <glyph glyph-name="utilde" unicode="&#x169;" horiz-adv-x="1202" 
d="M495 1297q-37 0 -57.5 -36t-20.5 -95h-117q0 109 52 177.5t139 68.5q107 0 169 -100q28 -44 71 -44q37 0 57 34.5t20 95.5h117q0 -107 -51 -176t-140 -69q-107 0 -170 99q-28 45 -69 45zM809 1006h230v-1006h-219l-6 126q-106 -145 -310 -145q-170 0 -266 90.5t-96 257.5
v677h232v-627q0 -107 55.5 -158.5t143.5 -51.5q104 0 169.5 63.5t66.5 195.5v578z" />
    <glyph glyph-name="Umacron" unicode="&#x16a;" horiz-adv-x="1427" 
d="M386 1567v140h655v-140h-655zM713 -19q-155 0 -274.5 55t-192 171t-72.5 279v940h240v-907q0 -162 82.5 -243t216.5 -81t217.5 81t83.5 243v907h239v-940q0 -163 -72.5 -279t-192.5 -171t-275 -55z" />
    <glyph glyph-name="umacron" unicode="&#x16b;" horiz-adv-x="1202" 
d="M931 1328v-140h-655v140h655zM809 1006h230v-1006h-219l-6 126q-106 -145 -310 -145q-170 0 -266 90.5t-96 257.5v677h232v-627q0 -107 55.5 -158.5t143.5 -51.5q104 0 169.5 63.5t66.5 195.5v578z" />
    <glyph glyph-name="Uring" unicode="&#x16e;" horiz-adv-x="1427" 
d="M713 1567q-93 0 -159.5 66.5t-66.5 158.5t66 157.5t160 65.5q92 0 157 -65.5t65 -157.5t-65.5 -158.5t-156.5 -66.5zM713 1670q51 0 86 34.5t35 87.5q0 51 -35.5 87.5t-85.5 36.5q-51 0 -86 -36.5t-35 -87.5q0 -54 34.5 -88t86.5 -34zM713 -19q-155 0 -274.5 55t-192 171
t-72.5 279v940h240v-907q0 -162 82.5 -243t216.5 -81t217.5 81t83.5 243v907h239v-940q0 -163 -72.5 -279t-192.5 -171t-275 -55z" />
    <glyph glyph-name="uring" unicode="&#x16f;" horiz-adv-x="1202" 
d="M603 1129q-93 0 -159.5 66.5t-66.5 158.5t66 157.5t160 65.5q92 0 157 -65.5t65 -157.5t-65.5 -158.5t-156.5 -66.5zM603 1478q-51 0 -86 -36.5t-35 -87.5q0 -54 34.5 -88t86.5 -34q51 0 86 34.5t35 87.5q0 51 -35.5 87.5t-85.5 36.5zM809 1006h230v-1006h-219l-6 126
q-106 -145 -310 -145q-170 0 -266 90.5t-96 257.5v677h232v-627q0 -107 55.5 -158.5t143.5 -51.5q104 0 169.5 63.5t66.5 195.5v578z" />
    <glyph glyph-name="Uhungarumlaut" unicode="&#x170;" horiz-adv-x="1427" 
d="M454 1567l257 347l117 -84l-225 -263h-149zM823 1567l257 347l116 -84l-225 -263h-148zM713 -19q-155 0 -274.5 55t-192 171t-72.5 279v940h240v-907q0 -162 82.5 -243t216.5 -81t217.5 81t83.5 243v907h239v-940q0 -163 -72.5 -279t-192.5 -171t-275 -55z" />
    <glyph glyph-name="uhungarumlaut" unicode="&#x171;" horiz-adv-x="1202" 
d="M718 1425l-225 -264h-149l257 348zM861 1161h-148l257 348l116 -84zM809 428v578h230v-1006h-219l-6 126q-106 -145 -310 -145q-170 0 -266 90.5t-96 257.5v677h232v-627q0 -107 55.5 -158.5t143.5 -51.5q104 0 169.5 63.5t66.5 195.5z" />
    <glyph glyph-name="Uogonek" unicode="&#x172;" horiz-adv-x="1427" 
d="M1014 1426h239v-940q0 -169 -75 -285t-207 -172q-149 -142 -149 -203q0 -39 68 -39q61 0 102 35v-155q-59 -23 -126 -23q-86 0 -135 26.5t-49 75.5q0 86 147 244q-55 -9 -116 -9q-155 0 -274.5 55t-192 171t-72.5 279v940h240v-907q0 -162 82.5 -243t216.5 -81t217.5 81
t83.5 243v907z" />
    <glyph glyph-name="uogonek" unicode="&#x173;" horiz-adv-x="1202" 
d="M1039 0q-170 -162 -170 -224q0 -39 68 -39q61 0 102 35v-155q-59 -23 -126 -23q-86 0 -135 26.5t-49 75.5q0 102 206 304h-115l-6 126q-106 -145 -310 -145q-170 0 -266 90.5t-96 257.5v677h232v-627q0 -107 55.5 -158.5t143.5 -51.5q104 0 169.5 63.5t66.5 195.5v578
h230v-1006z" />
    <glyph glyph-name="Wcircumflex" unicode="&#x174;" horiz-adv-x="2108" 
d="M907 1567h-148l219 297h151l219 -297h-148l-147 189zM447 0l-390 1426h249l308 -1127l337 1127h206l336 -1127l310 1127h248l-390 -1426h-298l-309 988l-309 -988h-298z" />
    <glyph glyph-name="wcircumflex" unicode="&#x175;" horiz-adv-x="1674" 
d="M845 1375l-146 -189h-148l219 297h151l219 -297h-148zM1410 1006h240l-350 -1007h-211l-253 719l-253 -719h-214l-343 1007h238l228 -712l254 712h178l254 -711z" />
    <glyph glyph-name="Ycircumflex" unicode="&#x176;" horiz-adv-x="1242" 
d="M621 1756l-146 -189h-148l219 297h151l219 -297h-148zM1211 1426l-469 -745v-681h-240v678l-471 748h268l322 -533l323 533h267z" />
    <glyph glyph-name="ycircumflex" unicode="&#x177;" horiz-adv-x="1059" 
d="M529 1375l-146 -189h-148l219 297h151l219 -297h-148zM802 1006h239l-602 -1479h-235l216 506l-403 973h253l261 -720z" />
    <glyph glyph-name="Ydieresis" unicode="&#x178;" horiz-adv-x="1242" 
d="M421 1536q-59 0 -100.5 41.5t-41.5 99.5t41.5 99.5t100.5 41.5q57 0 99 -41.5t42 -99.5t-42 -99.5t-99 -41.5zM824 1536q-59 0 -101 41.5t-42 99.5t42 99.5t101 41.5q57 0 98.5 -41.5t41.5 -99.5t-41.5 -99.5t-98.5 -41.5zM1211 1426l-469 -745v-681h-240v678l-471 748
h268l322 -533l323 533h267z" />
    <glyph glyph-name="Zacute" unicode="&#x179;" horiz-adv-x="1232" 
d="M931 1830l-225 -263h-149l257 347zM385 214h757v-214h-1048v191l742 1022h-740v213h1026v-192z" />
    <glyph glyph-name="zacute" unicode="&#x17a;" horiz-adv-x="924" 
d="M771 1425l-225 -264h-149l257 348zM867 1006l-487 -825h480v-181h-815l484 824h-451v182h789z" />
    <glyph glyph-name="Zdotaccent" unicode="&#x17b;" horiz-adv-x="1232" 
d="M636 1536q-59 0 -100.5 41.5t-41.5 99.5t41.5 99.5t100.5 41.5q57 0 99 -41.5t42 -99.5t-42 -99.5t-99 -41.5zM385 214h757v-214h-1048v191l742 1022h-740v213h1026v-192z" />
    <glyph glyph-name="zdotaccent" unicode="&#x17c;" horiz-adv-x="924" 
d="M476 1198q-58 0 -100 41.5t-42 99.5t41.5 99.5t100.5 41.5q57 0 99 -41.5t42 -99.5t-42 -99.5t-99 -41.5zM867 1006l-487 -825h480v-181h-815l484 824h-451v182h789z" />
    <glyph glyph-name="Zcaron" unicode="&#x17d;" horiz-adv-x="1232" 
d="M710 1567h-150l-220 297h148l146 -191l147 191h148zM385 214h757v-214h-1048v191l742 1022h-740v213h1026v-192z" />
    <glyph glyph-name="zcaron" unicode="&#x17e;" horiz-adv-x="924" 
d="M550 1186h-150l-220 297h148l146 -190l147 190h148zM867 1006l-487 -825h480v-181h-815l484 824h-451v182h789z" />
    <glyph glyph-name="florin" unicode="&#x192;" horiz-adv-x="1049" 
d="M152 -402l194 1224h-172l29 184h173l34 222q20 139 133.5 233.5t253.5 94.5q45 0 86.5 -11t59.5 -25l-19 -170q-41 33 -104 33q-77 0 -131.5 -50.5t-67.5 -135.5l-30 -191h281l-28 -184h-282l-196 -1224h-214z" />
    <glyph glyph-name="Ohorn" unicode="&#x1a0;" horiz-adv-x="1650" 
d="M1493 1510h125v-137q0 -125 -48.5 -179t-128.5 -54h-14q117 -180 117 -426q0 -221 -94.5 -389t-257 -256t-367.5 -88t-368 88t-257.5 256t-94.5 389t94.5 388.5t257.5 255.5t368 88q296 0 494 -179q42 -18 80 -18q52 0 73 34t21 112v115zM825 203q101 0 189 34.5t153 99
t102 161.5t37 216q0 118 -37 214.5t-102 160.5t-153 99t-189 35t-189 -35t-153 -99t-102 -160.5t-37 -214.5q0 -119 37 -216t102 -161.5t153 -99t189 -34.5z" />
    <glyph glyph-name="ohorn" unicode="&#x1a1;" horiz-adv-x="1219" 
d="M1116 1156h125v-137q0 -231 -173 -233q71 -123 71 -282q0 -240 -148 -381.5t-382 -141.5q-233 0 -381 141.5t-148 381.5q0 238 148 379.5t381 141.5q217 0 361 -122q25 -8 52 -8q52 0 73 34t21 112v115zM607 167q133 0 218 93t85 244t-85 243.5t-218 92.5
q-130 0 -214 -92.5t-84 -243.5t83.5 -244t214.5 -93z" />
    <glyph glyph-name="Uhorn" unicode="&#x1af;" horiz-adv-x="1427" 
d="M1411 1572h125v-137q0 -125 -48.5 -179t-128.5 -54q-49 0 -106 20v-736q0 -163 -72.5 -279t-192.5 -171t-275 -55t-274.5 55t-192 171t-72.5 279v940h240v-907q0 -162 82.5 -243t216.5 -81t217.5 81t83.5 243v907h239v-103q36 -12 64 -12q52 0 73 34t21 112v115z" />
    <glyph glyph-name="uhorn" unicode="&#x1b0;" horiz-adv-x="1202" 
d="M1200 1152h125v-137q0 -125 -48.5 -179t-128.5 -54q-52 0 -109 21v-803h-219l-6 126q-106 -145 -310 -145q-170 0 -266 90.5t-96 257.5v677h232v-627q0 -107 55.5 -158.5t143.5 -51.5q104 0 169.5 63.5t66.5 195.5v578h230v-102q36 -13 67 -13q52 0 73 34t21 112v115z
" />
    <glyph glyph-name="uni01CD" unicode="&#x1cd;" horiz-adv-x="1432" 
d="M791 1567h-150l-220 297h148l146 -191l147 191h148zM1140 0l-113 317h-623l-112 -317h-247l525 1426h291l525 -1426h-246zM477 522h478l-239 674z" />
    <glyph glyph-name="uni01CE" unicode="&#x1ce;" horiz-adv-x="1112" 
d="M484 1186l-220 297h148l146 -190l147 190h148l-219 -297h-150zM400 -19q-86 0 -153.5 26.5t-112 90t-44.5 157.5q0 63 20.5 112.5t54 82.5t85 58t104 39.5t121.5 27.5l152 28q93 18 93 91q0 86 -56 125.5t-141 39.5q-88 0 -145 -42.5t-68 -134.5l-207 38q51 304 434 304
q64 0 119.5 -9.5t109 -34.5t91.5 -63.5t61 -102t23 -145.5v-390q0 -70 21 -96t74 -26h16v-157h-109q-171 0 -204 133h-11q-55 -78 -142.5 -115t-185.5 -37zM454 162q121 0 201 83t80 218l-257 -57q-83 -16 -124 -46.5t-41 -85.5q0 -56 39 -84t102 -28z" />
    <glyph glyph-name="uni01CF" unicode="&#x1cf;" horiz-adv-x="647" 
d="M248 1567l-220 297h148l146 -191l147 191h148l-219 -297h-150zM204 0v1426h239v-1426h-239z" />
    <glyph glyph-name="uni01D0" unicode="&#x1d0;" horiz-adv-x="557" 
d="M205 1186l-220 297h148l146 -190l147 190h148l-219 -297h-150zM163 0v1006h231v-1006h-231z" />
    <glyph glyph-name="uni01D1" unicode="&#x1d1;" horiz-adv-x="1650" 
d="M750 1567l-220 297h148l146 -191l147 191h148l-219 -297h-150zM825 -19q-205 0 -368 88t-257.5 256t-94.5 389t94.5 388.5t257.5 255.5t368 88t367.5 -88t257 -255.5t94.5 -388.5t-94.5 -389t-257 -256t-367.5 -88zM825 203q101 0 189 34.5t153 99t102 161.5t37 216
q0 118 -37 214.5t-102 160.5t-153 99t-189 35t-189 -35t-153 -99t-102 -160.5t-37 -214.5q0 -119 37 -216t102 -161.5t153 -99t189 -34.5z" />
    <glyph glyph-name="uni01D2" unicode="&#x1d2;" horiz-adv-x="1219" 
d="M534 1185l-220 297h148l146 -190l147 190h148l-219 -297h-150zM609 -19q-233 0 -381 141.5t-148 381.5q0 238 148 379.5t381 141.5q234 0 382 -141t148 -380q0 -240 -148 -381.5t-382 -141.5zM607 167q133 0 218 93t85 244t-85 243.5t-218 92.5q-130 0 -214 -92.5
t-84 -243.5t83.5 -244t214.5 -93z" />
    <glyph glyph-name="uni01D3" unicode="&#x1d3;" horiz-adv-x="1427" 
d="M638 1567l-220 297h148l146 -191l147 191h148l-219 -297h-150zM713 -19q-155 0 -274.5 55t-192 171t-72.5 279v940h240v-907q0 -162 82.5 -243t216.5 -81t217.5 81t83.5 243v907h239v-940q0 -163 -72.5 -279t-192.5 -171t-275 -55z" />
    <glyph glyph-name="uni01D4" unicode="&#x1d4;" horiz-adv-x="1202" 
d="M678 1186h-150l-220 297h148l146 -190l147 190h148zM809 1006h230v-1006h-219l-6 126q-106 -145 -310 -145q-170 0 -266 90.5t-96 257.5v677h232v-627q0 -107 55.5 -158.5t143.5 -51.5q104 0 169.5 63.5t66.5 195.5v578z" />
    <glyph glyph-name="uni01D5" unicode="&#x1d5;" horiz-adv-x="1427" 
d="M386 1959v140h655v-140h-655zM512 1536q-59 0 -100.5 41.5t-41.5 99.5t41.5 99.5t100.5 41.5q57 0 99 -41.5t42 -99.5t-42 -99.5t-99 -41.5zM915 1536q-59 0 -101 41.5t-42 99.5t42 99.5t101 41.5q57 0 98.5 -41.5t41.5 -99.5t-41.5 -99.5t-98.5 -41.5zM713 -19
q-155 0 -274.5 55t-192 171t-72.5 279v940h240v-907q0 -162 82.5 -243t216.5 -81t217.5 81t83.5 243v907h239v-940q0 -163 -72.5 -279t-192.5 -171t-275 -55z" />
    <glyph glyph-name="uni01D6" unicode="&#x1d6;" horiz-adv-x="1202" 
d="M931 1781v-140h-655v140h655zM402 1198q-58 0 -100 41.5t-42 99.5t41.5 99.5t100.5 41.5q57 0 99 -41.5t42 -99.5t-42 -99.5t-99 -41.5zM805 1480q57 0 98.5 -41.5t41.5 -99.5q0 -57 -41.5 -99t-98.5 -42q-59 0 -101 41.5t-42 99.5t42 99.5t101 41.5zM809 1006h230v-1006
h-219l-6 126q-106 -145 -310 -145q-170 0 -266 90.5t-96 257.5v677h232v-627q0 -107 55.5 -158.5t143.5 -51.5q104 0 169.5 63.5t66.5 195.5v578z" />
    <glyph glyph-name="uni01D7" unicode="&#x1d7;" horiz-adv-x="1427" 
d="M635 1959l257 347l117 -84l-225 -263h-149zM512 1536q-59 0 -100.5 41.5t-41.5 99.5t41.5 99.5t100.5 41.5q57 0 99 -41.5t42 -99.5t-42 -99.5t-99 -41.5zM915 1536q-59 0 -101 41.5t-42 99.5t42 99.5t101 41.5q57 0 98.5 -41.5t41.5 -99.5t-41.5 -99.5t-98.5 -41.5z
M713 -19q-155 0 -274.5 55t-192 171t-72.5 279v940h240v-907q0 -162 82.5 -243t216.5 -81t217.5 81t83.5 243v907h239v-940q0 -163 -72.5 -279t-192.5 -171t-275 -55z" />
    <glyph glyph-name="uni01D8" unicode="&#x1d8;" horiz-adv-x="1202" 
d="M899 1878l-225 -264h-149l257 348zM402 1198q-58 0 -100 41.5t-42 99.5t41.5 99.5t100.5 41.5q57 0 99 -41.5t42 -99.5t-42 -99.5t-99 -41.5zM662 1339q0 58 42 99.5t101 41.5q57 0 98.5 -41.5t41.5 -99.5q0 -57 -41.5 -99t-98.5 -42q-59 0 -101 41.5t-42 99.5zM809 1006
h230v-1006h-219l-6 126q-106 -145 -310 -145q-170 0 -266 90.5t-96 257.5v677h232v-627q0 -107 55.5 -158.5t143.5 -51.5q104 0 169.5 63.5t66.5 195.5v578z" />
    <glyph glyph-name="uni01D9" unicode="&#x1d9;" horiz-adv-x="1427" 
d="M638 1959l-220 297h148l146 -191l147 191h148l-219 -297h-150zM512 1536q-59 0 -100.5 41.5t-41.5 99.5t41.5 99.5t100.5 41.5q57 0 99 -41.5t42 -99.5t-42 -99.5t-99 -41.5zM915 1536q-59 0 -101 41.5t-42 99.5t42 99.5t101 41.5q57 0 98.5 -41.5t41.5 -99.5
t-41.5 -99.5t-98.5 -41.5zM713 -19q-155 0 -274.5 55t-192 171t-72.5 279v940h240v-907q0 -162 82.5 -243t216.5 -81t217.5 81t83.5 243v907h239v-940q0 -163 -72.5 -279t-192.5 -171t-275 -55z" />
    <glyph glyph-name="uni01DA" unicode="&#x1da;" horiz-adv-x="1202" 
d="M678 1639h-150l-220 297h148l146 -190l147 190h148zM402 1198q-58 0 -100 41.5t-42 99.5t41.5 99.5t100.5 41.5q57 0 99 -41.5t42 -99.5t-42 -99.5t-99 -41.5zM662 1339q0 58 42 99.5t101 41.5q57 0 98.5 -41.5t41.5 -99.5q0 -57 -41.5 -99t-98.5 -42q-59 0 -101 41.5
t-42 99.5zM809 1006h230v-1006h-219l-6 126q-106 -145 -310 -145q-170 0 -266 90.5t-96 257.5v677h232v-627q0 -107 55.5 -158.5t143.5 -51.5q104 0 169.5 63.5t66.5 195.5v578z" />
    <glyph glyph-name="uni01DB" unicode="&#x1db;" horiz-adv-x="1427" 
d="M639 1959l-225 263l116 84l257 -347h-148zM512 1536q-59 0 -100.5 41.5t-41.5 99.5t41.5 99.5t100.5 41.5q57 0 99 -41.5t42 -99.5t-42 -99.5t-99 -41.5zM915 1536q-59 0 -101 41.5t-42 99.5t42 99.5t101 41.5q57 0 98.5 -41.5t41.5 -99.5t-41.5 -99.5t-98.5 -41.5z
M713 -19q-155 0 -274.5 55t-192 171t-72.5 279v940h240v-907q0 -162 82.5 -243t216.5 -81t217.5 81t83.5 243v907h239v-940q0 -163 -72.5 -279t-192.5 -171t-275 -55z" />
    <glyph glyph-name="uni01DC" unicode="&#x1dc;" horiz-adv-x="1202" 
d="M677 1614h-148l-225 264l116 84zM402 1198q-58 0 -100 41.5t-42 99.5t41.5 99.5t100.5 41.5q57 0 99 -41.5t42 -99.5t-42 -99.5t-99 -41.5zM805 1198q-59 0 -101 41.5t-42 99.5t42 99.5t101 41.5q57 0 98.5 -41.5t41.5 -99.5q0 -57 -41.5 -99t-98.5 -42zM809 1006h230
v-1006h-219l-6 126q-106 -145 -310 -145q-170 0 -266 90.5t-96 257.5v677h232v-627q0 -107 55.5 -158.5t143.5 -51.5q104 0 169.5 63.5t66.5 195.5v578z" />
    <glyph glyph-name="Scommaaccent" unicode="&#x218;" horiz-adv-x="1284" 
d="M662 -19q-230 0 -385 104.5t-189 291.5l246 57q19 -121 110.5 -187.5t226.5 -66.5q114 0 189 51.5t74 157.5q-1 44 -22 80t-47 58.5t-81 45.5t-90 34t-108 32q-9 3 -14 4q-57 17 -93 28.5t-87.5 32t-83.5 40t-68.5 50t-57 64.5t-34.5 80.5t-14 101.5q0 192 138.5 299
t350.5 107q97 0 183 -21t160.5 -63t126.5 -113t72 -164l-231 -58q-23 110 -102.5 164.5t-196.5 54.5q-110 0 -184.5 -50t-74.5 -152q0 -28 10 -51.5t23 -41t41 -35t48.5 -28t62.5 -24.5t65.5 -20.5t73.5 -20.5q47 -13 75.5 -21.5t74.5 -24t74.5 -28.5t67 -34t63 -42
t51 -50.5t41 -62t24.5 -73.5t10 -88q0 -107 -42.5 -189t-115.5 -131t-164.5 -73.5t-196.5 -24.5zM494 -566l-117 53l164 370h205z" />
    <glyph glyph-name="scommaaccent" unicode="&#x219;" horiz-adv-x="969" 
d="M499 -19q-169 0 -282 71.5t-138 207.5l195 55q20 -84 79 -126.5t146 -42.5q72 0 122 30t49 97q0 28 -13 49.5t-31 36t-51.5 28.5t-61 22t-74.5 22t-78 24q-57 18 -96 37t-79 50t-60.5 78.5t-20.5 110.5q0 98 51 165t134 97.5t190 30.5q151 0 254.5 -65t128.5 -199
l-182 -43q-19 76 -72.5 112t-127.5 36q-69 0 -116.5 -28.5t-47.5 -86.5q0 -16 3.5 -29.5t13.5 -24.5t18 -19.5t26 -17.5t29 -14t36 -12.5t37 -11t41.5 -11t41.5 -10.5q56 -15 95.5 -28t87 -38.5t77 -56.5t49.5 -80.5t20 -110.5q0 -81 -32 -141.5t-87.5 -95t-124 -51.5
t-149.5 -17zM338 -565l-117 53l164 370h205z" />
    <glyph glyph-name="uni021A" unicode="&#x21a;" horiz-adv-x="1039" 
d="M991 1426v-213h-352v-1213h-238v1213h-353v213h943zM253 -513l164 370h205l-252 -423z" />
    <glyph glyph-name="uni021B" unicode="&#x21b;" horiz-adv-x="749" 
d="M511 0q-136 0 -212 77t-76 217v532h-201v180h69q82 0 118.5 38.5t36.5 134.5v156h210v-329h219v-180h-219v-508q0 -69 34.5 -104.5t93.5 -35.5h91v-178h-164zM409 -566l-117 53l164 370h205z" />
    <glyph glyph-name="uni0237" unicode="&#x237;" horiz-adv-x="559" 
d="M-55 -471v186q133 0 175.5 63.5t42.5 246.5v981h233v-981q0 -265 -104 -380.5t-347 -115.5z" />
    <glyph glyph-name="circumflex" unicode="&#x2c6;" horiz-adv-x="703" 
d="M205 1239h-148l219 297h151l219 -297h-148l-147 189z" />
    <glyph glyph-name="caron" unicode="&#x2c7;" horiz-adv-x="710" 
d="M280 1239l-220 297h148l146 -190l147 190h148l-219 -297h-150z" />
    <glyph glyph-name="breve" unicode="&#x2d8;" horiz-adv-x="900" 
d="M449 1202q-158 0 -255 88.5t-97 245.5h147q0 -98 55.5 -159.5t149.5 -61.5q95 0 150.5 61.5t55.5 159.5h147q0 -157 -97.5 -245.5t-255.5 -88.5z" />
    <glyph glyph-name="dotaccent" unicode="&#x2d9;" horiz-adv-x="531" 
d="M266 1198q-58 0 -100 41.5t-42 99.5t41.5 99.5t100.5 41.5q57 0 99 -41.5t42 -99.5t-42 -99.5t-99 -41.5z" />
    <glyph glyph-name="ring" unicode="&#x2da;" horiz-adv-x="666" 
d="M334 1147q-94 0 -160 66.5t-66 158.5t66 157.5t160 65.5q92 0 157 -65.5t65 -157.5t-65.5 -158.5t-156.5 -66.5zM334 1250q51 0 86 34.5t35 87.5q0 51 -35.5 87.5t-85.5 36.5q-51 0 -86 -36.5t-35 -87.5q0 -54 34.5 -88t86.5 -34z" />
    <glyph glyph-name="ogonek" unicode="&#x2db;" horiz-adv-x="521" 
d="M266 -406q-86 0 -135 26.5t-49 75.5q0 110 237 334l73 -30q-170 -162 -170 -224q0 -39 68 -39q61 0 102 35v-155q-59 -23 -126 -23z" />
    <glyph glyph-name="tilde" unicode="&#x2dc;" horiz-adv-x="867" 
d="M555 1153q-107 0 -170 99q-28 45 -69 45q-37 0 -57.5 -36t-20.5 -95h-117q0 109 52 177.5t139 68.5q107 0 169 -100q28 -44 71 -44q37 0 57 34.5t20 95.5h117q0 -107 -51 -176t-140 -69z" />
    <glyph glyph-name="hungarumlaut" unicode="&#x2dd;" horiz-adv-x="853" 
d="M46 1214l257 348l117 -84l-225 -264h-149zM415 1214l257 348l116 -84l-225 -264h-148z" />
    <glyph glyph-name="gravecomb" unicode="&#x300;" 
d="M-194 1214l-225 264l116 84l257 -348h-148z" />
    <glyph glyph-name="acutecomb" unicode="&#x301;" 
d="M-438 1214l257 348l117 -84l-225 -264h-149z" />
    <glyph glyph-name="uni0302" unicode="&#x302;" 
d="M-498 1239h-148l219 297h151l219 -297h-148l-147 189z" />
    <glyph glyph-name="tildecomb" unicode="&#x303;" 
d="M-312 1153q-107 0 -170 99q-28 45 -69 45q-37 0 -57.5 -36t-20.5 -95h-117q0 109 52 177.5t139 68.5q107 0 169 -100q28 -44 71 -44q37 0 57 34.5t20 95.5h117q0 -107 -51 -176t-140 -69z" />
    <glyph glyph-name="uni0304" unicode="&#x304;" 
d="M-814 1241v140h655v-140h-655z" />
    <glyph glyph-name="uni0306" unicode="&#x306;" 
d="M-451 1202q-158 0 -255 88.5t-97 245.5h147q0 -98 55.5 -159.5t149.5 -61.5q95 0 150.5 61.5t55.5 159.5h147q0 -157 -97.5 -245.5t-255.5 -88.5z" />
    <glyph glyph-name="uni0307" unicode="&#x307;" 
d="M-265 1198q-58 0 -100 41.5t-42 99.5t41.5 99.5t100.5 41.5q57 0 99 -41.5t42 -99.5t-42 -99.5t-99 -41.5z" />
    <glyph glyph-name="uni0308" unicode="&#x308;" 
d="M-668 1198q-58 0 -100 41.5t-42 99.5t41.5 99.5t100.5 41.5q57 0 99 -41.5t42 -99.5t-42 -99.5t-99 -41.5zM-265 1198q-59 0 -101 41.5t-42 99.5t42 99.5t101 41.5q57 0 98.5 -41.5t41.5 -99.5q0 -57 -41.5 -99t-98.5 -42z" />
    <glyph glyph-name="hookabovecomb" unicode="&#x309;" 
d="M-343 1148v127q115 22 115 103q0 34 -20.5 55.5t-57.5 21.5q-47 0 -86 -35l-59 83q64 53 153 53q87 0 139 -47.5t52 -124.5q0 -117 -128 -156v-80h-108z" />
    <glyph glyph-name="uni030A" unicode="&#x30a;" 
d="M-332 1147q-94 0 -160 66.5t-66 158.5t66 157.5t160 65.5q92 0 157 -65.5t65 -157.5t-65.5 -158.5t-156.5 -66.5zM-332 1250q51 0 86 34.5t35 87.5q0 51 -35.5 87.5t-85.5 36.5q-51 0 -86 -36.5t-35 -87.5q0 -54 34.5 -88t86.5 -34z" />
    <glyph glyph-name="uni030B" unicode="&#x30b;" 
d="M-807 1214l257 348l117 -84l-225 -264h-149zM-438 1214l257 348l116 -84l-225 -264h-148z" />
    <glyph glyph-name="uni030C" unicode="&#x30c;" 
d="M-430 1239l-220 297h148l146 -190l147 190h148l-219 -297h-150z" />
    <glyph glyph-name="uni0312" unicode="&#x312;" 
d="M-267 1531h166l-124 -316h-238z" />
    <glyph glyph-name="uni031B" unicode="&#x31b;" 
d="M-316 773q-92 0 -190 60l47 77q53 -28 101 -28q52 0 73 34t21 112v115h125v-137q0 -125 -48.5 -179t-128.5 -54z" />
    <glyph glyph-name="dotbelowcomb" unicode="&#x323;" 
d="M-265 -512q-59 0 -100.5 41t-41.5 100q0 58 42 99.5t100 41.5q57 0 99 -41.5t42 -99.5q0 -59 -41.5 -100t-99.5 -41z" />
    <glyph glyph-name="uni0326" unicode="&#x326;" 
d="M-304 -566l-117 53l164 370h205z" />
    <glyph glyph-name="uni0327" unicode="&#x327;" 
d="M-298 -532q-79 0 -144.5 40t-92.5 101l106 40q18 -31 54.5 -50.5t72.5 -19.5q44 0 75.5 30t31.5 76q0 48 -31.5 75t-79.5 27q-44 0 -77 -26l-90 56l116 221h115l-88 -168q34 6 51 6q85 0 141 -53.5t56 -137.5q0 -91 -62.5 -154t-153.5 -63z" />
    <glyph glyph-name="uni0328" unicode="&#x328;" 
d="M-255 -406q-86 0 -135 26.5t-49 75.5q0 110 237 334l73 -30q-170 -162 -170 -224q0 -39 68 -39q61 0 102 35v-155q-59 -23 -126 -23z" />
    <glyph glyph-name="uni0335" unicode="&#x335;" 
d="M-808 451v145h648v-145h-648z" />
    <glyph glyph-name="uni0336" unicode="&#x336;" 
d="M-1649 480v105h1491v-105h-1491z" />
    <glyph glyph-name="uni0337" unicode="&#x337;" 
d="M-638 261v155l588 438v-156z" />
    <glyph glyph-name="uni0338" unicode="&#x338;" 
d="M-906 210l809 1160l100 -60l-809 -1160z" />
    <glyph glyph-name="uni0394" unicode="&#x394;" horiz-adv-x="1567" 
d="M908 1536l617 -1536h-1483l616 1536h250zM367 215h832l-415 1072z" />
    <glyph glyph-name="uni03A9" unicode="&#x3a9;" horiz-adv-x="1804" 
d="M114 0v199h326v3q-114 92 -198.5 259.5t-84.5 363.5q0 151 55 284t152.5 229.5t238 152.5t304.5 56q139 0 260 -40.5t208 -110.5t149.5 -161.5t93 -195.5t30.5 -211q0 -194 -84.5 -363t-207.5 -265v-1h334v-199h-647v157q150 81 248 244.5t98 390.5q0 152 -54.5 276.5
t-165.5 201t-260 76.5q-216 0 -354.5 -153.5t-138.5 -402.5q0 -224 100.5 -392t245.5 -241v-157h-648z" />
    <glyph glyph-name="uni03BC" unicode="&#x3bc;" horiz-adv-x="1221" 
d="M830 990h231v-990h-231v122q-54 -66 -129.5 -103t-161.5 -37q-115 0 -209 64v-500h-170v1444h231v-590q0 -90 62 -153.5t151 -63.5q94 0 160 63.5t66 153.5v590z" />
    <glyph glyph-name="pi" unicode="&#x3c0;" horiz-adv-x="1282" 
d="M144 0q54 149 96 383t47 410q-161 0 -233 -26l-24 140q89 58 328 58h894l-18 -172h-165v-503q0 -193 29 -290h-211q-34 52 -34 273v520h-353q-10 -189 -51.5 -431.5t-93.5 -361.5h-211z" />
    <glyph glyph-name="Wgrave" unicode="&#x1e80;" horiz-adv-x="2108" 
d="M980 1567l-225 263l116 84l257 -347h-148zM447 0l-390 1426h249l308 -1127l337 1127h206l336 -1127l310 1127h248l-390 -1426h-298l-309 988l-309 -988h-298z" />
    <glyph glyph-name="wgrave" unicode="&#x1e81;" horiz-adv-x="1674" 
d="M920 1161h-148l-225 264l116 84zM1410 1006h240l-350 -1007h-211l-253 719l-253 -719h-214l-343 1007h238l228 -712l254 712h178l254 -711z" />
    <glyph glyph-name="Wacute" unicode="&#x1e82;" horiz-adv-x="2108" 
d="M976 1567l257 347l117 -84l-225 -263h-149zM447 0l-390 1426h249l308 -1127l337 1127h206l336 -1127l310 1127h248l-390 -1426h-298l-309 988l-309 -988h-298z" />
    <glyph glyph-name="wacute" unicode="&#x1e83;" horiz-adv-x="1674" 
d="M1142 1425l-225 -264h-149l257 348zM1410 1006h240l-350 -1007h-211l-253 719l-253 -719h-214l-343 1007h238l228 -712l254 712h178l254 -711z" />
    <glyph glyph-name="Wdieresis" unicode="&#x1e84;" horiz-adv-x="2108" 
d="M853 1536q-59 0 -100.5 41.5t-41.5 99.5t41.5 99.5t100.5 41.5q57 0 99 -41.5t42 -99.5t-42 -99.5t-99 -41.5zM1256 1536q-59 0 -101 41.5t-42 99.5t42 99.5t101 41.5q57 0 98.5 -41.5t41.5 -99.5t-41.5 -99.5t-98.5 -41.5zM447 0l-390 1426h249l308 -1127l337 1127h206
l336 -1127l310 1127h248l-390 -1426h-298l-309 988l-309 -988h-298z" />
    <glyph glyph-name="wdieresis" unicode="&#x1e85;" horiz-adv-x="1674" 
d="M645 1198q-58 0 -100 41.5t-42 99.5t41.5 99.5t100.5 41.5q57 0 99 -41.5t42 -99.5t-42 -99.5t-99 -41.5zM1048 1198q-59 0 -101 41.5t-42 99.5t42 99.5t101 41.5q57 0 98.5 -41.5t41.5 -99.5q0 -57 -42 -99t-98 -42zM1410 1006h240l-350 -1007h-211l-253 719l-253 -719
h-214l-343 1007h238l228 -712l254 712h178l254 -711z" />
    <glyph glyph-name="uni1EA0" unicode="&#x1ea0;" horiz-adv-x="1432" 
d="M1386 0h-246l-113 317h-623l-112 -317h-247l525 1426h291zM477 522h478l-239 674zM717 -230q57 0 99 -41.5t42 -99.5q0 -59 -41.5 -100t-99.5 -41q-59 0 -100.5 41t-41.5 100q0 58 42 99.5t100 41.5z" />
    <glyph glyph-name="uni1EA1" unicode="&#x1ea1;" horiz-adv-x="1112" 
d="M400 -19q-86 0 -153.5 26.5t-112 90t-44.5 157.5q0 63 20.5 112.5t54 82.5t85 58t104 39.5t121.5 27.5l152 28q93 18 93 91q0 86 -56 125.5t-141 39.5q-88 0 -145 -42.5t-68 -134.5l-207 38q51 304 434 304q64 0 119.5 -9.5t109 -34.5t91.5 -63.5t61 -102t23 -145.5v-390
q0 -70 21 -96t74 -26h16v-157h-109q-171 0 -204 133h-11q-55 -78 -142.5 -115t-185.5 -37zM454 162q121 0 201 83t80 218l-257 -57q-83 -16 -124 -46.5t-41 -85.5q0 -56 39 -84t102 -28zM557 -512q-59 0 -100.5 41t-41.5 100q0 58 42 99.5t100 41.5q57 0 99 -41.5t42 -99.5
q0 -59 -41.5 -100t-99.5 -41z" />
    <glyph glyph-name="uni1EA2" unicode="&#x1ea2;" horiz-adv-x="1432" 
d="M701 1843q-47 0 -86 -35l-59 83q65 54 153 54q87 0 139 -47.5t52 -124.5q0 -118 -128 -157v-80h-108v127q115 22 115 103q0 34 -20.5 55.5t-57.5 21.5zM1140 0l-113 317h-623l-112 -317h-247l525 1426h291l525 -1426h-246zM477 522h478l-239 674z" />
    <glyph glyph-name="uni1EA3" unicode="&#x1ea3;" horiz-adv-x="1112" 
d="M507 1095v127q115 22 115 103q0 34 -20.5 55.5t-57.5 21.5q-47 0 -86 -35l-59 83q64 53 153 53q87 0 139 -47.5t52 -124.5q0 -117 -128 -156v-80h-108zM400 -19q-86 0 -153.5 26.5t-112 90t-44.5 157.5q0 63 20.5 112.5t54 82.5t85 58t104 39.5t121.5 27.5l152 28
q93 18 93 91q0 86 -56 125.5t-141 39.5q-88 0 -145 -42.5t-68 -134.5l-207 38q51 304 434 304q64 0 119.5 -9.5t109 -34.5t91.5 -63.5t61 -102t23 -145.5v-390q0 -70 21 -96t74 -26h16v-157h-109q-171 0 -204 133h-11q-55 -78 -142.5 -115t-185.5 -37zM454 162q121 0 201 83
t80 218l-257 -57q-83 -16 -124 -46.5t-41 -85.5q0 -56 39 -84t102 -28z" />
    <glyph glyph-name="uni1EA4" unicode="&#x1ea4;" horiz-adv-x="1432" 
d="M1011 2223l-225 -263h-149l257 347zM715 1756l-146 -189h-148l219 297h151l219 -297h-148zM1140 0l-113 317h-623l-112 -317h-247l525 1426h291l525 -1426h-246zM477 522h478l-239 674z" />
    <glyph glyph-name="uni1EA5" unicode="&#x1ea5;" horiz-adv-x="1112" 
d="M480 1638l257 348l117 -84l-225 -264h-149zM412 1186h-148l219 297h151l219 -297h-148l-147 189zM400 -19q-86 0 -153.5 26.5t-112 90t-44.5 157.5q0 63 20.5 112.5t54 82.5t85 58t104 39.5t121.5 27.5l152 28q93 18 93 91q0 86 -56 125.5t-141 39.5q-88 0 -145 -42.5
t-68 -134.5l-207 38q51 304 434 304q64 0 119.5 -9.5t109 -34.5t91.5 -63.5t61 -102t23 -145.5v-390q0 -70 21 -96t74 -26h16v-157h-109q-171 0 -204 133h-11q-55 -78 -142.5 -115t-185.5 -37zM454 162q121 0 201 83t80 218l-257 -57q-83 -16 -124 -46.5t-41 -85.5
q0 -56 39 -84t102 -28z" />
    <glyph glyph-name="uni1EA6" unicode="&#x1ea6;" horiz-adv-x="1432" 
d="M789 1960h-148l-225 263l116 84zM421 1567l219 297h151l219 -297h-148l-147 189l-146 -189h-148zM1140 0l-113 317h-623l-112 -317h-247l525 1426h291l525 -1426h-246zM477 522h478l-239 674z" />
    <glyph glyph-name="uni1EA7" unicode="&#x1ea7;" horiz-adv-x="1112" 
d="M484 1638l-225 264l116 84l257 -348h-148zM412 1186h-148l219 297h151l219 -297h-148l-147 189zM400 -19q-86 0 -153.5 26.5t-112 90t-44.5 157.5q0 63 20.5 112.5t54 82.5t85 58t104 39.5t121.5 27.5l152 28q93 18 93 91q0 86 -56 125.5t-141 39.5q-88 0 -145 -42.5
t-68 -134.5l-207 38q51 304 434 304q64 0 119.5 -9.5t109 -34.5t91.5 -63.5t61 -102t23 -145.5v-390q0 -70 21 -96t74 -26h16v-157h-109q-171 0 -204 133h-11q-55 -78 -142.5 -115t-185.5 -37zM454 162q121 0 201 83t80 218l-257 -57q-83 -16 -124 -46.5t-41 -85.5
q0 -56 39 -84t102 -28z" />
    <glyph glyph-name="uni1EA8" unicode="&#x1ea8;" horiz-adv-x="1432" 
d="M700 2236q-47 0 -86 -35l-59 83q65 54 153 54q87 0 139 -47.5t52 -124.5q0 -118 -128 -157v-80h-108v127q115 22 115 103q0 34 -20.5 55.5t-57.5 21.5zM715 1756l-146 -189h-148l219 297h151l219 -297h-148zM1140 0l-113 317h-623l-112 -317h-247l525 1426h291l525 -1426
h-246zM477 522h478l-239 674z" />
    <glyph glyph-name="uni1EA9" unicode="&#x1ea9;" horiz-adv-x="1112" 
d="M506 1572v127q115 22 115 103q0 34 -20.5 55.5t-57.5 21.5q-47 0 -86 -35l-59 83q64 53 153 53q87 0 139 -47.5t52 -124.5q0 -117 -128 -156v-80h-108zM412 1186h-148l219 297h151l219 -297h-148l-147 189zM400 -19q-86 0 -153.5 26.5t-112 90t-44.5 157.5
q0 63 20.5 112.5t54 82.5t85 58t104 39.5t121.5 27.5l152 28q93 18 93 91q0 86 -56 125.5t-141 39.5q-88 0 -145 -42.5t-68 -134.5l-207 38q51 304 434 304q64 0 119.5 -9.5t109 -34.5t91.5 -63.5t61 -102t23 -145.5v-390q0 -70 21 -96t74 -26h16v-157h-109q-171 0 -204 133
h-11q-55 -78 -142.5 -115t-185.5 -37zM454 162q121 0 201 83t80 218l-257 -57q-83 -16 -124 -46.5t-41 -85.5q0 -56 39 -84t102 -28z" />
    <glyph glyph-name="uni1EAA" unicode="&#x1eaa;" horiz-adv-x="1432" 
d="M591 2122q-46 0 -71 -40.5t-25 -105.5h-123q0 113 58 184t158 71t167 -83q3 -3 14.5 -17.5t15.5 -19t14.5 -14.5t18 -14t19 -7.5t23.5 -3.5q45 0 68.5 38.5t23.5 105.5h125q0 -112 -57 -183t-160 -71q-62 0 -100 24t-70 64q-19 26 -28 37t-29 23t-42 12zM640 1864h151
l219 -297h-148l-147 189l-146 -189h-148zM1140 0l-113 317h-623l-112 -317h-247l525 1426h291l525 -1426h-246zM477 522h478l-239 674z" />
    <glyph glyph-name="uni1EAB" unicode="&#x1eab;" horiz-adv-x="1112" 
d="M689 1630q-107 0 -170 99q-28 45 -69 45q-37 0 -57.5 -36t-20.5 -95h-117q0 109 52 177.5t139 68.5q107 0 169 -100q28 -44 71 -44q37 0 57 34.5t20 95.5h117q0 -107 -51 -176t-140 -69zM412 1186h-148l219 297h151l219 -297h-148l-147 189zM400 -19q-86 0 -153.5 26.5
t-112 90t-44.5 157.5q0 63 20.5 112.5t54 82.5t85 58t104 39.5t121.5 27.5l152 28q93 18 93 91q0 86 -56 125.5t-141 39.5q-88 0 -145 -42.5t-68 -134.5l-207 38q51 304 434 304q64 0 119.5 -9.5t109 -34.5t91.5 -63.5t61 -102t23 -145.5v-390q0 -70 21 -96t74 -26h16v-157
h-109q-171 0 -204 133h-11q-55 -78 -142.5 -115t-185.5 -37zM454 162q121 0 201 83t80 218l-257 -57q-83 -16 -124 -46.5t-41 -85.5q0 -56 39 -84t102 -28z" />
    <glyph glyph-name="uni1EAC" unicode="&#x1eac;" horiz-adv-x="1432" 
d="M715 1756l-146 -189h-148l219 297h151l219 -297h-148zM1386 0h-246l-113 317h-623l-112 -317h-247l525 1426h291zM477 522h478l-239 674zM717 -230q57 0 99 -41.5t42 -99.5q0 -59 -41.5 -100t-99.5 -41q-59 0 -100.5 41t-41.5 100q0 58 42 99.5t100 41.5z" />
    <glyph glyph-name="uni1EAD" unicode="&#x1ead;" horiz-adv-x="1112" 
d="M412 1186h-148l219 297h151l219 -297h-148l-147 189zM400 -19q-86 0 -153.5 26.5t-112 90t-44.5 157.5q0 63 20.5 112.5t54 82.5t85 58t104 39.5t121.5 27.5l152 28q93 18 93 91q0 86 -56 125.5t-141 39.5q-88 0 -145 -42.5t-68 -134.5l-207 38q51 304 434 304
q64 0 119.5 -9.5t109 -34.5t91.5 -63.5t61 -102t23 -145.5v-390q0 -70 21 -96t74 -26h16v-157h-109q-171 0 -204 133h-11q-55 -78 -142.5 -115t-185.5 -37zM454 162q121 0 201 83t80 218l-257 -57q-83 -16 -124 -46.5t-41 -85.5q0 -56 39 -84t102 -28zM557 -512
q-59 0 -100.5 41t-41.5 100q0 58 42 99.5t100 41.5q57 0 99 -41.5t42 -99.5q0 -59 -41.5 -100t-99.5 -41z" />
    <glyph glyph-name="uni1EAE" unicode="&#x1eae;" horiz-adv-x="1432" 
d="M1013 2185l-225 -263h-149l257 347zM715 1567q-163 0 -257.5 68.5t-94.5 213.5h137q0 -85 57.5 -127.5t157.5 -42.5q101 0 159 42.5t58 127.5h136q0 -146 -94.5 -214t-258.5 -68zM1140 0l-113 317h-623l-112 -317h-247l525 1426h291l525 -1426h-246zM477 522h478
l-239 674z" />
    <glyph glyph-name="uni1EAF" unicode="&#x1eaf;" horiz-adv-x="1112" 
d="M481 1638l257 348l117 -84l-225 -264h-149zM558 1149q-158 0 -255 88.5t-97 245.5h147q0 -98 55.5 -159.5t149.5 -61.5q95 0 150.5 61.5t55.5 159.5h147q0 -157 -97.5 -245.5t-255.5 -88.5zM400 -19q-86 0 -153.5 26.5t-112 90t-44.5 157.5q0 63 20.5 112.5t54 82.5
t85 58t104 39.5t121.5 27.5l152 28q93 18 93 91q0 86 -56 125.5t-141 39.5q-88 0 -145 -42.5t-68 -134.5l-207 38q51 304 434 304q64 0 119.5 -9.5t109 -34.5t91.5 -63.5t61 -102t23 -145.5v-390q0 -70 21 -96t74 -26h16v-157h-109q-171 0 -204 133h-11q-55 -78 -142.5 -115
t-185.5 -37zM454 162q121 0 201 83t80 218l-257 -57q-83 -16 -124 -46.5t-41 -85.5q0 -56 39 -84t102 -28z" />
    <glyph glyph-name="uni1EB0" unicode="&#x1eb0;" horiz-adv-x="1432" 
d="M791 1922h-148l-225 263l116 84zM715 1567q-163 0 -257.5 68.5t-94.5 213.5h137q0 -85 57.5 -127.5t157.5 -42.5q101 0 159 42.5t58 127.5h136q0 -146 -94.5 -214t-258.5 -68zM1140 0l-113 317h-623l-112 -317h-247l525 1426h291l525 -1426h-246zM477 522h478l-239 674z
" />
    <glyph glyph-name="uni1EB1" unicode="&#x1eb1;" horiz-adv-x="1112" 
d="M485 1638l-225 264l116 84l257 -348h-148zM558 1149q-158 0 -255 88.5t-97 245.5h147q0 -98 55.5 -159.5t149.5 -61.5q95 0 150.5 61.5t55.5 159.5h147q0 -157 -97.5 -245.5t-255.5 -88.5zM400 -19q-86 0 -153.5 26.5t-112 90t-44.5 157.5q0 63 20.5 112.5t54 82.5t85 58
t104 39.5t121.5 27.5l152 28q93 18 93 91q0 86 -56 125.5t-141 39.5q-88 0 -145 -42.5t-68 -134.5l-207 38q51 304 434 304q64 0 119.5 -9.5t109 -34.5t91.5 -63.5t61 -102t23 -145.5v-390q0 -70 21 -96t74 -26h16v-157h-109q-171 0 -204 133h-11q-55 -78 -142.5 -115
t-185.5 -37zM454 162q121 0 201 83t80 218l-257 -57q-83 -16 -124 -46.5t-41 -85.5q0 -56 39 -84t102 -28z" />
    <glyph glyph-name="uni1EB2" unicode="&#x1eb2;" horiz-adv-x="1432" 
d="M702 2198q-47 0 -86 -35l-59 83q65 54 153 54q87 0 139 -47.5t52 -124.5q0 -118 -128 -157v-80h-108v127q115 22 115 103q0 34 -20.5 55.5t-57.5 21.5zM715 1567q-163 0 -257.5 68.5t-94.5 213.5h137q0 -85 57.5 -127.5t157.5 -42.5q101 0 159 42.5t58 127.5h136
q0 -146 -94.5 -214t-258.5 -68zM1140 0l-113 317h-623l-112 -317h-247l525 1426h291l525 -1426h-246zM477 522h478l-239 674z" />
    <glyph glyph-name="uni1EB3" unicode="&#x1eb3;" horiz-adv-x="1112" 
d="M507 1572v127q115 22 115 103q0 34 -20.5 55.5t-57.5 21.5q-47 0 -86 -35l-59 83q64 53 153 53q87 0 139 -47.5t52 -124.5q0 -117 -128 -156v-80h-108zM558 1149q-158 0 -255 88.5t-97 245.5h147q0 -98 55.5 -159.5t149.5 -61.5q95 0 150.5 61.5t55.5 159.5h147
q0 -157 -97.5 -245.5t-255.5 -88.5zM400 -19q-86 0 -153.5 26.5t-112 90t-44.5 157.5q0 63 20.5 112.5t54 82.5t85 58t104 39.5t121.5 27.5l152 28q93 18 93 91q0 86 -56 125.5t-141 39.5q-88 0 -145 -42.5t-68 -134.5l-207 38q51 304 434 304q64 0 119.5 -9.5t109 -34.5
t91.5 -63.5t61 -102t23 -145.5v-390q0 -70 21 -96t74 -26h16v-157h-109q-171 0 -204 133h-11q-55 -78 -142.5 -115t-185.5 -37zM454 162q121 0 201 83t80 218l-257 -57q-83 -16 -124 -46.5t-41 -85.5q0 -56 39 -84t102 -28z" />
    <glyph glyph-name="uni1EB4" unicode="&#x1eb4;" horiz-adv-x="1432" 
d="M593 2084q-46 0 -71 -40.5t-25 -105.5h-123q0 113 58 184t158 71t167 -83q3 -3 14.5 -17.5t15.5 -19t14.5 -14.5t18 -14t19 -7.5t23.5 -3.5q45 0 68.5 38.5t23.5 105.5h125q0 -112 -57 -183t-160 -71q-62 0 -100 24t-70 64q-19 26 -28 37t-29 23t-42 12zM715 1567
q-163 0 -257.5 68.5t-94.5 213.5h137q0 -85 57.5 -127.5t157.5 -42.5q101 0 159 42.5t58 127.5h136q0 -146 -94.5 -214t-258.5 -68zM1140 0l-113 317h-623l-112 -317h-247l525 1426h291l525 -1426h-246zM477 522h478l-239 674z" />
    <glyph glyph-name="uni1EB5" unicode="&#x1eb5;" horiz-adv-x="1112" 
d="M690 1630q-107 0 -170 99q-28 45 -69 45q-37 0 -57.5 -36t-20.5 -95h-117q0 109 52 177.5t139 68.5q107 0 169 -100q28 -44 71 -44q37 0 57 34.5t20 95.5h117q0 -107 -51 -176t-140 -69zM558 1149q-158 0 -255 88.5t-97 245.5h147q0 -98 55.5 -159.5t149.5 -61.5
q95 0 150.5 61.5t55.5 159.5h147q0 -157 -97.5 -245.5t-255.5 -88.5zM400 -19q-86 0 -153.5 26.5t-112 90t-44.5 157.5q0 63 20.5 112.5t54 82.5t85 58t104 39.5t121.5 27.5l152 28q93 18 93 91q0 86 -56 125.5t-141 39.5q-88 0 -145 -42.5t-68 -134.5l-207 38
q51 304 434 304q64 0 119.5 -9.5t109 -34.5t91.5 -63.5t61 -102t23 -145.5v-390q0 -70 21 -96t74 -26h16v-157h-109q-171 0 -204 133h-11q-55 -78 -142.5 -115t-185.5 -37zM454 162q121 0 201 83t80 218l-257 -57q-83 -16 -124 -46.5t-41 -85.5q0 -56 39 -84t102 -28z" />
    <glyph glyph-name="uni1EB6" unicode="&#x1eb6;" horiz-adv-x="1432" 
d="M715 1567q-163 0 -257.5 68.5t-94.5 213.5h137q0 -85 57.5 -127.5t157.5 -42.5q101 0 159 42.5t58 127.5h136q0 -146 -94.5 -214t-258.5 -68zM1386 0h-246l-113 317h-623l-112 -317h-247l525 1426h291zM477 522h478l-239 674zM717 -230q57 0 99 -41.5t42 -99.5
q0 -59 -41.5 -100t-99.5 -41q-59 0 -100.5 41t-41.5 100q0 58 42 99.5t100 41.5z" />
    <glyph glyph-name="uni1EB7" unicode="&#x1eb7;" horiz-adv-x="1112" 
d="M558 1149q-158 0 -255 88.5t-97 245.5h147q0 -98 55.5 -159.5t149.5 -61.5q95 0 150.5 61.5t55.5 159.5h147q0 -157 -97.5 -245.5t-255.5 -88.5zM400 -19q-86 0 -153.5 26.5t-112 90t-44.5 157.5q0 63 20.5 112.5t54 82.5t85 58t104 39.5t121.5 27.5l152 28q93 18 93 91
q0 86 -56 125.5t-141 39.5q-88 0 -145 -42.5t-68 -134.5l-207 38q51 304 434 304q64 0 119.5 -9.5t109 -34.5t91.5 -63.5t61 -102t23 -145.5v-390q0 -70 21 -96t74 -26h16v-157h-109q-171 0 -204 133h-11q-55 -78 -142.5 -115t-185.5 -37zM454 162q121 0 201 83t80 218
l-257 -57q-83 -16 -124 -46.5t-41 -85.5q0 -56 39 -84t102 -28zM557 -512q-59 0 -100.5 41t-41.5 100q0 58 42 99.5t100 41.5q57 0 99 -41.5t42 -99.5q0 -59 -41.5 -100t-99.5 -41z" />
    <glyph glyph-name="uni1EB8" unicode="&#x1eb8;" horiz-adv-x="1122" 
d="M1000 1213h-554v-395h490v-211h-490v-393h554v-214h-796v1426h796v-213zM608 -230q57 0 99 -41.5t42 -99.5q0 -59 -41.5 -100t-99.5 -41q-59 0 -100.5 41t-41.5 100q0 58 42 99.5t100 41.5z" />
    <glyph glyph-name="uni1EB9" unicode="&#x1eb9;" horiz-adv-x="1158" 
d="M1076 520l-3 -58h-765q6 -144 88 -220t203 -76q84 0 149.5 41t99.5 117l210 -36q-52 -145 -174 -226t-283 -81q-235 0 -377 139t-142 383q0 243 142 383t370 140q217 0 349 -128.5t133 -377.5zM595 855q-109 0 -181.5 -54.5t-95.5 -166.5h527q-13 109 -80 165t-170 56z
M611 -231q57 0 99 -41.5t42 -99.5q0 -59 -41.5 -100t-99.5 -41q-59 0 -100.5 41t-41.5 100q0 58 42 99.5t100 41.5z" />
    <glyph glyph-name="uni1EBA" unicode="&#x1eba;" horiz-adv-x="1122" 
d="M592 1843q-47 0 -86 -35l-59 83q65 54 153 54q87 0 139 -47.5t52 -124.5q0 -118 -128 -157v-80h-108v127q115 22 115 103q0 34 -20.5 55.5t-57.5 21.5zM1000 1213h-554v-395h490v-211h-490v-393h554v-214h-796v1426h796v-213z" />
    <glyph glyph-name="uni1EBB" unicode="&#x1ebb;" horiz-adv-x="1158" 
d="M586 1405q-47 0 -86 -35l-59 83q64 53 153 53q87 0 139 -47.5t52 -124.5q0 -117 -128 -156v-80h-108v127q115 22 115 103q0 34 -20.5 55.5t-57.5 21.5zM1076 520l-3 -58h-765q6 -144 88 -220t203 -76q84 0 149.5 41t99.5 117l210 -36q-52 -145 -174 -226t-283 -81
q-235 0 -377 139t-142 383q0 243 142 383t370 140q217 0 349 -128.5t133 -377.5zM595 855q-109 0 -181.5 -54.5t-95.5 -166.5h527q-13 109 -80 165t-170 56z" />
    <glyph glyph-name="uni1EBC" unicode="&#x1ebc;" horiz-adv-x="1122" 
d="M483 1729q-46 0 -71 -40.5t-25 -105.5h-123q0 113 58 184t158 71t167 -83q3 -3 14.5 -17.5t15.5 -19t14.5 -14.5t18 -14t19 -7.5t23.5 -3.5q45 0 68.5 38.5t23.5 105.5h125q0 -112 -57 -183t-160 -71q-62 0 -100 24t-70 64q-19 26 -28 37t-29 23t-42 12zM1000 1213h-554
v-395h490v-211h-490v-393h554v-214h-796v1426h796v-213z" />
    <glyph glyph-name="uni1EBD" unicode="&#x1ebd;" horiz-adv-x="1158" 
d="M493 1300q-37 0 -57.5 -36t-20.5 -95h-117q0 109 52 177.5t139 68.5q107 0 169 -100q28 -44 71 -44q37 0 57 34.5t20 95.5h117q0 -107 -51 -176t-140 -69q-107 0 -170 99q-28 45 -69 45zM1076 520l-3 -58h-765q6 -144 88 -220t203 -76q84 0 149.5 41t99.5 117l210 -36
q-52 -145 -174 -226t-283 -81q-235 0 -377 139t-142 383q0 243 142 383t370 140q217 0 349 -128.5t133 -377.5zM595 855q-109 0 -181.5 -54.5t-95.5 -166.5h527q-13 109 -80 165t-170 56z" />
    <glyph glyph-name="uni1EBE" unicode="&#x1ebe;" horiz-adv-x="1122" 
d="M902 2223l-225 -263h-149l257 347zM606 1756l-146 -189h-148l219 297h151l219 -297h-148zM1000 1213h-554v-395h490v-211h-490v-393h554v-214h-796v1426h796v-213z" />
    <glyph glyph-name="uni1EBF" unicode="&#x1ebf;" horiz-adv-x="1158" 
d="M896 1905l-225 -264h-149l257 348zM600 1378l-146 -189h-148l219 297h151l219 -297h-148zM1076 520l-3 -58h-765q6 -144 88 -220t203 -76q84 0 149.5 41t99.5 117l210 -36q-52 -145 -174 -226t-283 -81q-235 0 -377 139t-142 383q0 243 142 383t370 140q217 0 349 -128.5
t133 -377.5zM595 855q-109 0 -181.5 -54.5t-95.5 -166.5h527q-13 109 -80 165t-170 56z" />
    <glyph glyph-name="uni1EC0" unicode="&#x1ec0;" horiz-adv-x="1122" 
d="M680 1960h-148l-225 263l116 84zM312 1567l219 297h151l219 -297h-148l-147 189l-146 -189h-148zM1000 1213h-554v-395h490v-211h-490v-393h554v-214h-796v1426h796v-213z" />
    <glyph glyph-name="uni1EC1" unicode="&#x1ec1;" horiz-adv-x="1158" 
d="M674 1641h-148l-225 264l116 84zM306 1189l219 297h151l219 -297h-148l-147 189l-146 -189h-148zM1076 520l-3 -58h-765q6 -144 88 -220t203 -76q84 0 149.5 41t99.5 117l210 -36q-52 -145 -174 -226t-283 -81q-235 0 -377 139t-142 383q0 243 142 383t370 140
q217 0 349 -128.5t133 -377.5zM595 855q-109 0 -181.5 -54.5t-95.5 -166.5h527q-13 109 -80 165t-170 56z" />
    <glyph glyph-name="uni1EC2" unicode="&#x1ec2;" horiz-adv-x="1122" 
d="M591 2236q-47 0 -86 -35l-59 83q65 54 153 54q87 0 139 -47.5t52 -124.5q0 -118 -128 -157v-80h-108v127q115 22 115 103q0 34 -20.5 55.5t-57.5 21.5zM606 1756l-146 -189h-148l219 297h151l219 -297h-148zM1000 1213h-554v-395h490v-211h-490v-393h554v-214h-796v1426
h796v-213z" />
    <glyph glyph-name="uni1EC3" unicode="&#x1ec3;" horiz-adv-x="1158" 
d="M585 1882q-47 0 -86 -35l-59 83q64 53 153 53q87 0 139 -47.5t52 -124.5q0 -117 -128 -156v-80h-108v127q115 22 115 103q0 34 -20.5 55.5t-57.5 21.5zM600 1378l-146 -189h-148l219 297h151l219 -297h-148zM1076 520l-3 -58h-765q6 -144 88 -220t203 -76q84 0 149.5 41
t99.5 117l210 -36q-52 -145 -174 -226t-283 -81q-235 0 -377 139t-142 383q0 243 142 383t370 140q217 0 349 -128.5t133 -377.5zM595 855q-109 0 -181.5 -54.5t-95.5 -166.5h527q-13 109 -80 165t-170 56z" />
    <glyph glyph-name="uni1EC4" unicode="&#x1ec4;" horiz-adv-x="1122" 
d="M482 2122q-46 0 -71 -40.5t-25 -105.5h-123q0 113 58 184t158 71t167 -83q3 -3 14.5 -17.5t15.5 -19t14.5 -14.5t18 -14t19 -7.5t23.5 -3.5q45 0 68.5 38.5t23.5 105.5h125q0 -112 -57 -183t-160 -71q-62 0 -100 24t-70 64q-19 26 -28 37t-29 23t-42 12zM531 1864h151
l219 -297h-148l-147 189l-146 -189h-148zM1000 1213h-554v-395h490v-211h-490v-393h554v-214h-796v1426h796v-213z" />
    <glyph glyph-name="uni1EC5" unicode="&#x1ec5;" horiz-adv-x="1158" 
d="M492 1777q-37 0 -57.5 -36t-20.5 -95h-117q0 109 52 177.5t139 68.5q107 0 169 -100q28 -44 71 -44q37 0 57 34.5t20 95.5h117q0 -107 -51 -176t-140 -69q-107 0 -170 99q-28 45 -69 45zM525 1486h151l219 -297h-148l-147 189l-146 -189h-148zM1076 520l-3 -58h-765
q6 -144 88 -220t203 -76q84 0 149.5 41t99.5 117l210 -36q-52 -145 -174 -226t-283 -81q-235 0 -377 139t-142 383q0 243 142 383t370 140q217 0 349 -128.5t133 -377.5zM595 855q-109 0 -181.5 -54.5t-95.5 -166.5h527q-13 109 -80 165t-170 56z" />
    <glyph glyph-name="uni1EC6" unicode="&#x1ec6;" horiz-adv-x="1122" 
d="M606 1756l-146 -189h-148l219 297h151l219 -297h-148zM1000 1213h-554v-395h490v-211h-490v-393h554v-214h-796v1426h796v-213zM608 -230q57 0 99 -41.5t42 -99.5q0 -59 -41.5 -100t-99.5 -41q-59 0 -100.5 41t-41.5 100q0 58 42 99.5t100 41.5z" />
    <glyph glyph-name="uni1EC7" unicode="&#x1ec7;" horiz-adv-x="1158" 
d="M600 1378l-146 -189h-148l219 297h151l219 -297h-148zM1076 520l-3 -58h-765q6 -144 88 -220t203 -76q84 0 149.5 41t99.5 117l210 -36q-52 -145 -174 -226t-283 -81q-235 0 -377 139t-142 383q0 243 142 383t370 140q217 0 349 -128.5t133 -377.5zM595 855
q-109 0 -181.5 -54.5t-95.5 -166.5h527q-13 109 -80 165t-170 56zM611 -231q57 0 99 -41.5t42 -99.5q0 -59 -41.5 -100t-99.5 -41q-59 0 -100.5 41t-41.5 100q0 58 42 99.5t100 41.5z" />
    <glyph glyph-name="uni1EC8" unicode="&#x1ec8;" horiz-adv-x="647" 
d="M271 1536v127q115 22 115 103q0 34 -20.5 55.5t-57.5 21.5q-47 0 -86 -35l-59 83q65 54 153 54q87 0 139 -47.5t52 -124.5q0 -118 -128 -157v-80h-108zM204 0v1426h239v-1426h-239z" />
    <glyph glyph-name="uni1EC9" unicode="&#x1ec9;" horiz-adv-x="557" 
d="M228 1095v127q115 22 115 103q0 34 -20.5 55.5t-57.5 21.5q-47 0 -86 -35l-59 83q64 53 153 53q87 0 139 -47.5t52 -124.5q0 -117 -128 -156v-80h-108zM163 0v1006h231v-1006h-231z" />
    <glyph glyph-name="uni1ECA" unicode="&#x1eca;" horiz-adv-x="647" 
d="M204 0v1426h239v-1426h-239zM324 -512q-59 0 -100.5 41t-41.5 100q0 58 42 99.5t100 41.5q57 0 99 -41.5t42 -99.5q0 -59 -41.5 -100t-99.5 -41z" />
    <glyph glyph-name="uni1ECB" unicode="&#x1ecb;" horiz-adv-x="557" 
d="M281 1198q-58 0 -100 41.5t-42 99.5t41.5 99.5t100.5 41.5q57 0 99 -41.5t42 -99.5t-42 -99.5t-99 -41.5zM163 0v1006h231v-1006h-231zM281 -512q-59 0 -100.5 41t-41.5 100q0 58 42 99.5t100 41.5q57 0 99 -41.5t42 -99.5q0 -59 -41.5 -100t-99.5 -41z" />
    <glyph glyph-name="uni1ECC" unicode="&#x1ecc;" horiz-adv-x="1650" 
d="M825 -19q-205 0 -368 88t-257.5 256t-94.5 389t94.5 388.5t257.5 255.5t368 88t367.5 -88t257 -255.5t94.5 -388.5t-94.5 -389t-257 -256t-367.5 -88zM825 203q101 0 189 34.5t153 99t102 161.5t37 216q0 118 -37 214.5t-102 160.5t-153 99t-189 35t-189 -35t-153 -99
t-102 -160.5t-37 -214.5q0 -119 37 -216t102 -161.5t153 -99t189 -34.5zM826 -512q-59 0 -100.5 41t-41.5 100q0 58 42 99.5t100 41.5q57 0 99 -41.5t42 -99.5q0 -59 -41.5 -100t-99.5 -41z" />
    <glyph glyph-name="uni1ECD" unicode="&#x1ecd;" horiz-adv-x="1219" 
d="M609 -19q-233 0 -381 141.5t-148 381.5q0 238 148 379.5t381 141.5q234 0 382 -141t148 -380q0 -240 -148 -381.5t-382 -141.5zM607 167q133 0 218 93t85 244t-85 243.5t-218 92.5q-130 0 -214 -92.5t-84 -243.5t83.5 -244t214.5 -93zM610 -512q-59 0 -100.5 41
t-41.5 100q0 58 42 99.5t100 41.5q57 0 99 -41.5t42 -99.5q0 -59 -41.5 -100t-99.5 -41z" />
    <glyph glyph-name="uni1ECE" unicode="&#x1ece;" horiz-adv-x="1650" 
d="M773 1536v127q115 22 115 103q0 34 -20.5 55.5t-57.5 21.5q-47 0 -86 -35l-59 83q65 54 153 54q87 0 139 -47.5t52 -124.5q0 -118 -128 -157v-80h-108zM825 -19q-205 0 -368 88t-257.5 256t-94.5 389t94.5 388.5t257.5 255.5t368 88t367.5 -88t257 -255.5t94.5 -388.5
t-94.5 -389t-257 -256t-367.5 -88zM825 203q101 0 189 34.5t153 99t102 161.5t37 216q0 118 -37 214.5t-102 160.5t-153 99t-189 35t-189 -35t-153 -99t-102 -160.5t-37 -214.5q0 -119 37 -216t102 -161.5t153 -99t189 -34.5z" />
    <glyph glyph-name="uni1ECF" unicode="&#x1ecf;" horiz-adv-x="1219" 
d="M557 1094v127q115 22 115 103q0 34 -20.5 55.5t-57.5 21.5q-47 0 -86 -35l-59 83q64 53 153 53q87 0 139 -47.5t52 -124.5q0 -117 -128 -156v-80h-108zM609 -19q-233 0 -381 141.5t-148 381.5q0 238 148 379.5t381 141.5q234 0 382 -141t148 -380q0 -240 -148 -381.5
t-382 -141.5zM607 167q133 0 218 93t85 244t-85 243.5t-218 92.5q-130 0 -214 -92.5t-84 -243.5t83.5 -244t214.5 -93z" />
    <glyph glyph-name="uni1ED0" unicode="&#x1ed0;" horiz-adv-x="1650" 
d="M746 1960l257 347l117 -84l-225 -263h-149zM678 1567h-148l219 297h151l219 -297h-148l-147 189zM825 -19q-205 0 -368 88t-257.5 256t-94.5 389t94.5 388.5t257.5 255.5t368 88t367.5 -88t257 -255.5t94.5 -388.5t-94.5 -389t-257 -256t-367.5 -88zM825 203
q101 0 189 34.5t153 99t102 161.5t37 216q0 118 -37 214.5t-102 160.5t-153 99t-189 35t-189 -35t-153 -99t-102 -160.5t-37 -214.5q0 -119 37 -216t102 -161.5t153 -99t189 -34.5z" />
    <glyph glyph-name="uni1ED1" unicode="&#x1ed1;" horiz-adv-x="1219" 
d="M530 1637l257 348l117 -84l-225 -264h-149zM462 1185h-148l219 297h151l219 -297h-148l-147 189zM609 -19q-233 0 -381 141.5t-148 381.5q0 238 148 379.5t381 141.5q234 0 382 -141t148 -380q0 -240 -148 -381.5t-382 -141.5zM607 167q133 0 218 93t85 244t-85 243.5
t-218 92.5q-130 0 -214 -92.5t-84 -243.5t83.5 -244t214.5 -93z" />
    <glyph glyph-name="uni1ED2" unicode="&#x1ed2;" horiz-adv-x="1650" 
d="M750 1960l-225 263l116 84l257 -347h-148zM678 1567h-148l219 297h151l219 -297h-148l-147 189zM825 -19q-205 0 -368 88t-257.5 256t-94.5 389t94.5 388.5t257.5 255.5t368 88t367.5 -88t257 -255.5t94.5 -388.5t-94.5 -389t-257 -256t-367.5 -88zM825 203
q101 0 189 34.5t153 99t102 161.5t37 216q0 118 -37 214.5t-102 160.5t-153 99t-189 35t-189 -35t-153 -99t-102 -160.5t-37 -214.5q0 -119 37 -216t102 -161.5t153 -99t189 -34.5z" />
    <glyph glyph-name="uni1ED3" unicode="&#x1ed3;" horiz-adv-x="1219" 
d="M534 1637l-225 264l116 84l257 -348h-148zM462 1185h-148l219 297h151l219 -297h-148l-147 189zM609 -19q-233 0 -381 141.5t-148 381.5q0 238 148 379.5t381 141.5q234 0 382 -141t148 -380q0 -240 -148 -381.5t-382 -141.5zM607 167q133 0 218 93t85 244t-85 243.5
t-218 92.5q-130 0 -214 -92.5t-84 -243.5t83.5 -244t214.5 -93z" />
    <glyph glyph-name="uni1ED4" unicode="&#x1ed4;" horiz-adv-x="1650" 
d="M772 1929v127q115 22 115 103q0 34 -20.5 55.5t-57.5 21.5q-47 0 -86 -35l-59 83q65 54 153 54q87 0 139 -47.5t52 -124.5q0 -118 -128 -157v-80h-108zM678 1567h-148l219 297h151l219 -297h-148l-147 189zM825 -19q-205 0 -368 88t-257.5 256t-94.5 389t94.5 388.5
t257.5 255.5t368 88t367.5 -88t257 -255.5t94.5 -388.5t-94.5 -389t-257 -256t-367.5 -88zM825 203q101 0 189 34.5t153 99t102 161.5t37 216q0 118 -37 214.5t-102 160.5t-153 99t-189 35t-189 -35t-153 -99t-102 -160.5t-37 -214.5q0 -119 37 -216t102 -161.5t153 -99
t189 -34.5z" />
    <glyph glyph-name="uni1ED5" unicode="&#x1ed5;" horiz-adv-x="1219" 
d="M556 1571v127q115 22 115 103q0 34 -20.5 55.5t-57.5 21.5q-47 0 -86 -35l-59 83q64 53 153 53q87 0 139 -47.5t52 -124.5q0 -117 -128 -156v-80h-108zM462 1185h-148l219 297h151l219 -297h-148l-147 189zM609 -19q-233 0 -381 141.5t-148 381.5q0 238 148 379.5
t381 141.5q234 0 382 -141t148 -380q0 -240 -148 -381.5t-382 -141.5zM607 167q133 0 218 93t85 244t-85 243.5t-218 92.5q-130 0 -214 -92.5t-84 -243.5t83.5 -244t214.5 -93z" />
    <glyph glyph-name="uni1ED6" unicode="&#x1ed6;" horiz-adv-x="1650" 
d="M969 1962q-62 0 -100 24t-70 64q-19 26 -28 37t-29 23t-42 12q-46 0 -71 -40.5t-25 -105.5h-123q0 113 58 184t158 71t167 -83q3 -3 14.5 -17.5t15.5 -19t14.5 -14.5t18 -14t19 -7.5t23.5 -3.5q45 0 68.5 38.5t23.5 105.5h125q0 -112 -57 -183t-160 -71zM678 1567h-148
l219 297h151l219 -297h-148l-147 189zM825 -19q-205 0 -368 88t-257.5 256t-94.5 389t94.5 388.5t257.5 255.5t368 88t367.5 -88t257 -255.5t94.5 -388.5t-94.5 -389t-257 -256t-367.5 -88zM825 203q101 0 189 34.5t153 99t102 161.5t37 216q0 118 -37 214.5t-102 160.5
t-153 99t-189 35t-189 -35t-153 -99t-102 -160.5t-37 -214.5q0 -119 37 -216t102 -161.5t153 -99t189 -34.5z" />
    <glyph glyph-name="uni1ED7" unicode="&#x1ed7;" horiz-adv-x="1219" 
d="M739 1629q-107 0 -170 99q-28 45 -69 45q-37 0 -57.5 -36t-20.5 -95h-117q0 109 52 177.5t139 68.5q107 0 169 -100q28 -44 71 -44q37 0 57 34.5t20 95.5h117q0 -107 -51 -176t-140 -69zM462 1185h-148l219 297h151l219 -297h-148l-147 189zM609 -19q-233 0 -381 141.5
t-148 381.5q0 238 148 379.5t381 141.5q234 0 382 -141t148 -380q0 -240 -148 -381.5t-382 -141.5zM607 167q133 0 218 93t85 244t-85 243.5t-218 92.5q-130 0 -214 -92.5t-84 -243.5t83.5 -244t214.5 -93z" />
    <glyph glyph-name="uni1ED8" unicode="&#x1ed8;" horiz-adv-x="1650" 
d="M678 1567h-148l219 297h151l219 -297h-148l-147 189zM825 -19q-205 0 -368 88t-257.5 256t-94.5 389t94.5 388.5t257.5 255.5t368 88t367.5 -88t257 -255.5t94.5 -388.5t-94.5 -389t-257 -256t-367.5 -88zM825 203q101 0 189 34.5t153 99t102 161.5t37 216
q0 118 -37 214.5t-102 160.5t-153 99t-189 35t-189 -35t-153 -99t-102 -160.5t-37 -214.5q0 -119 37 -216t102 -161.5t153 -99t189 -34.5zM826 -512q-59 0 -100.5 41t-41.5 100q0 58 42 99.5t100 41.5q57 0 99 -41.5t42 -99.5q0 -59 -41.5 -100t-99.5 -41z" />
    <glyph glyph-name="uni1ED9" unicode="&#x1ed9;" horiz-adv-x="1219" 
d="M462 1185h-148l219 297h151l219 -297h-148l-147 189zM609 -19q-233 0 -381 141.5t-148 381.5q0 238 148 379.5t381 141.5q234 0 382 -141t148 -380q0 -240 -148 -381.5t-382 -141.5zM607 167q133 0 218 93t85 244t-85 243.5t-218 92.5q-130 0 -214 -92.5t-84 -243.5
t83.5 -244t214.5 -93zM610 -512q-59 0 -100.5 41t-41.5 100q0 58 42 99.5t100 41.5q57 0 99 -41.5t42 -99.5q0 -59 -41.5 -100t-99.5 -41z" />
    <glyph glyph-name="uni1EDA" unicode="&#x1eda;" horiz-adv-x="1650" 
d="M1121 1830l-225 -263h-149l257 347zM1493 1510h125v-137q0 -125 -48.5 -179t-128.5 -54h-14q117 -180 117 -426q0 -221 -94.5 -389t-257 -256t-367.5 -88t-368 88t-257.5 256t-94.5 389t94.5 388.5t257.5 255.5t368 88q296 0 494 -179q42 -18 80 -18q52 0 73 34t21 112
v115zM825 203q101 0 189 34.5t153 99t102 161.5t37 216q0 118 -37 214.5t-102 160.5t-153 99t-189 35t-189 -35t-153 -99t-102 -160.5t-37 -214.5q0 -119 37 -216t102 -161.5t153 -99t189 -34.5z" />
    <glyph glyph-name="uni1EDB" unicode="&#x1edb;" horiz-adv-x="1219" 
d="M905 1424l-225 -264h-149l257 348zM1116 1156h125v-137q0 -231 -173 -233q71 -123 71 -282q0 -240 -148 -381.5t-382 -141.5q-233 0 -381 141.5t-148 381.5q0 238 148 379.5t381 141.5q217 0 361 -122q25 -8 52 -8q52 0 73 34t21 112v115zM607 167q133 0 218 93t85 244
t-85 243.5t-218 92.5q-130 0 -214 -92.5t-84 -243.5t83.5 -244t214.5 -93z" />
    <glyph glyph-name="uni1EDC" unicode="&#x1edc;" horiz-adv-x="1650" 
d="M899 1567h-148l-225 263l116 84zM1493 1510h125v-137q0 -125 -48.5 -179t-128.5 -54h-14q117 -180 117 -426q0 -221 -94.5 -389t-257 -256t-367.5 -88t-368 88t-257.5 256t-94.5 389t94.5 388.5t257.5 255.5t368 88q296 0 494 -179q42 -18 80 -18q52 0 73 34t21 112v115z
M825 203q101 0 189 34.5t153 99t102 161.5t37 216q0 118 -37 214.5t-102 160.5t-153 99t-189 35t-189 -35t-153 -99t-102 -160.5t-37 -214.5q0 -119 37 -216t102 -161.5t153 -99t189 -34.5z" />
    <glyph glyph-name="uni1EDD" unicode="&#x1edd;" horiz-adv-x="1219" 
d="M683 1160h-148l-225 264l116 84zM1116 1156h125v-137q0 -231 -173 -233q71 -123 71 -282q0 -240 -148 -381.5t-382 -141.5q-233 0 -381 141.5t-148 381.5q0 238 148 379.5t381 141.5q217 0 361 -122q25 -8 52 -8q52 0 73 34t21 112v115zM607 167q133 0 218 93t85 244
t-85 243.5t-218 92.5q-130 0 -214 -92.5t-84 -243.5t83.5 -244t214.5 -93z" />
    <glyph glyph-name="uni1EDE" unicode="&#x1ede;" horiz-adv-x="1650" 
d="M810 1843q-47 0 -86 -35l-59 83q65 54 153 54q87 0 139 -47.5t52 -124.5q0 -118 -128 -157v-80h-108v127q115 22 115 103q0 34 -20.5 55.5t-57.5 21.5zM1493 1510h125v-137q0 -125 -48.5 -179t-128.5 -54h-14q117 -180 117 -426q0 -221 -94.5 -389t-257 -256t-367.5 -88
t-368 88t-257.5 256t-94.5 389t94.5 388.5t257.5 255.5t368 88q296 0 494 -179q42 -18 80 -18q52 0 73 34t21 112v115zM825 203q101 0 189 34.5t153 99t102 161.5t37 216q0 118 -37 214.5t-102 160.5t-153 99t-189 35t-189 -35t-153 -99t-102 -160.5t-37 -214.5
q0 -119 37 -216t102 -161.5t153 -99t189 -34.5z" />
    <glyph glyph-name="uni1EDF" unicode="&#x1edf;" horiz-adv-x="1219" 
d="M594 1401q-47 0 -86 -35l-59 83q64 53 153 53q87 0 139 -47.5t52 -124.5q0 -117 -128 -156v-80h-108v127q115 22 115 103q0 34 -20.5 55.5t-57.5 21.5zM1116 1156h125v-137q0 -231 -173 -233q71 -123 71 -282q0 -240 -148 -381.5t-382 -141.5q-233 0 -381 141.5
t-148 381.5q0 238 148 379.5t381 141.5q217 0 361 -122q25 -8 52 -8q52 0 73 34t21 112v115zM607 167q133 0 218 93t85 244t-85 243.5t-218 92.5q-130 0 -214 -92.5t-84 -243.5t83.5 -244t214.5 -93z" />
    <glyph glyph-name="uni1EE0" unicode="&#x1ee0;" horiz-adv-x="1650" 
d="M701 1729q-46 0 -71 -40.5t-25 -105.5h-123q0 113 58 184t158 71t167 -83q3 -3 14.5 -17.5t15.5 -19t14.5 -14.5t18 -14t19 -7.5t23.5 -3.5q45 0 68.5 38.5t23.5 105.5h125q0 -112 -57 -183t-160 -71q-62 0 -100 24t-70 64q-19 26 -28 37t-29 23t-42 12zM1493 1510h125
v-137q0 -125 -48.5 -179t-128.5 -54h-14q117 -180 117 -426q0 -221 -94.5 -389t-257 -256t-367.5 -88t-368 88t-257.5 256t-94.5 389t94.5 388.5t257.5 255.5t368 88q296 0 494 -179q42 -18 80 -18q52 0 73 34t21 112v115zM825 203q101 0 189 34.5t153 99t102 161.5t37 216
q0 118 -37 214.5t-102 160.5t-153 99t-189 35t-189 -35t-153 -99t-102 -160.5t-37 -214.5q0 -119 37 -216t102 -161.5t153 -99t189 -34.5z" />
    <glyph glyph-name="uni1EE1" unicode="&#x1ee1;" horiz-adv-x="1219" 
d="M501 1296q-37 0 -57.5 -36t-20.5 -95h-117q0 109 52 177.5t139 68.5q107 0 169 -100q28 -44 71 -44q37 0 57 34.5t20 95.5h117q0 -107 -51 -176t-140 -69q-107 0 -170 99q-28 45 -69 45zM1116 1156h125v-137q0 -231 -173 -233q71 -123 71 -282q0 -240 -148 -381.5
t-382 -141.5q-233 0 -381 141.5t-148 381.5q0 238 148 379.5t381 141.5q217 0 361 -122q25 -8 52 -8q52 0 73 34t21 112v115zM607 167q133 0 218 93t85 244t-85 243.5t-218 92.5q-130 0 -214 -92.5t-84 -243.5t83.5 -244t214.5 -93z" />
    <glyph glyph-name="uni1EE2" unicode="&#x1ee2;" horiz-adv-x="1650" 
d="M1493 1510h125v-137q0 -125 -48.5 -179t-128.5 -54h-14q117 -180 117 -426q0 -221 -94.5 -389t-257 -256t-367.5 -88t-368 88t-257.5 256t-94.5 389t94.5 388.5t257.5 255.5t368 88q296 0 494 -179q42 -18 80 -18q52 0 73 34t21 112v115zM825 203q101 0 189 34.5t153 99
t102 161.5t37 216q0 118 -37 214.5t-102 160.5t-153 99t-189 35t-189 -35t-153 -99t-102 -160.5t-37 -214.5q0 -119 37 -216t102 -161.5t153 -99t189 -34.5zM826 -230q57 0 99 -41.5t42 -99.5q0 -59 -41.5 -100t-99.5 -41q-59 0 -100.5 41t-41.5 100q0 58 42 99.5t100 41.5z
" />
    <glyph glyph-name="uni1EE3" unicode="&#x1ee3;" horiz-adv-x="1219" 
d="M1116 1156h125v-137q0 -231 -173 -233q71 -123 71 -282q0 -240 -148 -381.5t-382 -141.5q-233 0 -381 141.5t-148 381.5q0 238 148 379.5t381 141.5q217 0 361 -122q25 -8 52 -8q52 0 73 34t21 112v115zM607 167q133 0 218 93t85 244t-85 243.5t-218 92.5
q-130 0 -214 -92.5t-84 -243.5t83.5 -244t214.5 -93zM610 -230q57 0 99 -41.5t42 -99.5q0 -59 -41.5 -100t-99.5 -41q-59 0 -100.5 41t-41.5 100q0 58 42 99.5t100 41.5z" />
    <glyph glyph-name="uni1EE4" unicode="&#x1ee4;" horiz-adv-x="1427" 
d="M713 -19q-155 0 -274.5 55t-192 171t-72.5 279v940h240v-907q0 -162 82.5 -243t216.5 -81t217.5 81t83.5 243v907h239v-940q0 -163 -72.5 -279t-192.5 -171t-275 -55zM714 -512q-59 0 -100.5 41t-41.5 100q0 58 42 99.5t100 41.5q57 0 99 -41.5t42 -99.5
q0 -59 -41.5 -100t-99.5 -41z" />
    <glyph glyph-name="uni1EE5" unicode="&#x1ee5;" horiz-adv-x="1202" 
d="M809 1006h230v-1006h-219l-6 126q-106 -145 -310 -145q-170 0 -266 90.5t-96 257.5v677h232v-627q0 -107 55.5 -158.5t143.5 -51.5q104 0 169.5 63.5t66.5 195.5v578zM604 -230q57 0 99 -41.5t42 -99.5q0 -59 -41.5 -100t-99.5 -41q-59 0 -100.5 41t-41.5 100
q0 58 42 99.5t100 41.5z" />
    <glyph glyph-name="uni1EE6" unicode="&#x1ee6;" horiz-adv-x="1427" 
d="M661 1536v127q115 22 115 103q0 34 -20.5 55.5t-57.5 21.5q-47 0 -86 -35l-59 83q65 54 153 54q87 0 139 -47.5t52 -124.5q0 -118 -128 -157v-80h-108zM713 -19q-155 0 -274.5 55t-192 171t-72.5 279v940h240v-907q0 -162 82.5 -243t216.5 -81t217.5 81t83.5 243v907h239
v-940q0 -163 -72.5 -279t-192.5 -171t-275 -55z" />
    <glyph glyph-name="uni1EE7" unicode="&#x1ee7;" horiz-adv-x="1202" 
d="M588 1402q-47 0 -86 -35l-59 83q64 53 153 53q87 0 139 -47.5t52 -124.5q0 -117 -128 -156v-80h-108v127q115 22 115 103q0 34 -20.5 55.5t-57.5 21.5zM809 1006h230v-1006h-219l-6 126q-106 -145 -310 -145q-170 0 -266 90.5t-96 257.5v677h232v-627q0 -107 55.5 -158.5
t143.5 -51.5q104 0 169.5 63.5t66.5 195.5v578z" />
    <glyph glyph-name="uni1EE8" unicode="&#x1ee8;" horiz-adv-x="1427" 
d="M1009 1830l-225 -263h-149l257 347zM1411 1572h125v-137q0 -125 -48.5 -179t-128.5 -54q-49 0 -106 20v-736q0 -163 -72.5 -279t-192.5 -171t-275 -55t-274.5 55t-192 171t-72.5 279v940h240v-907q0 -162 82.5 -243t216.5 -81t217.5 81t83.5 243v907h239v-103
q36 -12 64 -12q52 0 73 34t21 112v115z" />
    <glyph glyph-name="uni1EE9" unicode="&#x1ee9;" horiz-adv-x="1202" 
d="M899 1425l-225 -264h-149l257 348zM1200 1152h125v-137q0 -125 -48.5 -179t-128.5 -54q-52 0 -109 21v-803h-219l-6 126q-106 -145 -310 -145q-170 0 -266 90.5t-96 257.5v677h232v-627q0 -107 55.5 -158.5t143.5 -51.5q104 0 169.5 63.5t66.5 195.5v578h230v-102
q36 -13 67 -13q52 0 73 34t21 112v115z" />
    <glyph glyph-name="uni1EEA" unicode="&#x1eea;" horiz-adv-x="1427" 
d="M787 1567h-148l-225 263l116 84zM1411 1572h125v-137q0 -125 -48.5 -179t-128.5 -54q-49 0 -106 20v-736q0 -163 -72.5 -279t-192.5 -171t-275 -55t-274.5 55t-192 171t-72.5 279v940h240v-907q0 -162 82.5 -243t216.5 -81t217.5 81t83.5 243v907h239v-103q36 -12 64 -12
q52 0 73 34t21 112v115z" />
    <glyph glyph-name="uni1EEB" unicode="&#x1eeb;" horiz-adv-x="1202" 
d="M677 1161h-148l-225 264l116 84zM1200 1152h125v-137q0 -125 -48.5 -179t-128.5 -54q-52 0 -109 21v-803h-219l-6 126q-106 -145 -310 -145q-170 0 -266 90.5t-96 257.5v677h232v-627q0 -107 55.5 -158.5t143.5 -51.5q104 0 169.5 63.5t66.5 195.5v578h230v-102
q36 -13 67 -13q52 0 73 34t21 112v115z" />
    <glyph glyph-name="uni1EEC" unicode="&#x1eec;" horiz-adv-x="1427" 
d="M698 1843q-47 0 -86 -35l-59 83q65 54 153 54q87 0 139 -47.5t52 -124.5q0 -118 -128 -157v-80h-108v127q115 22 115 103q0 34 -20.5 55.5t-57.5 21.5zM1411 1572h125v-137q0 -125 -48.5 -179t-128.5 -54q-49 0 -106 20v-736q0 -163 -72.5 -279t-192.5 -171t-275 -55
t-274.5 55t-192 171t-72.5 279v940h240v-907q0 -162 82.5 -243t216.5 -81t217.5 81t83.5 243v907h239v-103q36 -12 64 -12q52 0 73 34t21 112v115z" />
    <glyph glyph-name="uni1EED" unicode="&#x1eed;" horiz-adv-x="1202" 
d="M588 1402q-47 0 -86 -35l-59 83q64 53 153 53q87 0 139 -47.5t52 -124.5q0 -117 -128 -156v-80h-108v127q115 22 115 103q0 34 -20.5 55.5t-57.5 21.5zM1200 1152h125v-137q0 -125 -48.5 -179t-128.5 -54q-52 0 -109 21v-803h-219l-6 126q-106 -145 -310 -145
q-170 0 -266 90.5t-96 257.5v677h232v-627q0 -107 55.5 -158.5t143.5 -51.5q104 0 169.5 63.5t66.5 195.5v578h230v-102q36 -13 67 -13q52 0 73 34t21 112v115z" />
    <glyph glyph-name="uni1EEE" unicode="&#x1eee;" horiz-adv-x="1427" 
d="M589 1729q-46 0 -71 -40.5t-25 -105.5h-123q0 113 58 184t158 71t167 -83q3 -3 14.5 -17.5t15.5 -19t14.5 -14.5t18 -14t19 -7.5t23.5 -3.5q45 0 68.5 38.5t23.5 105.5h125q0 -112 -57 -183t-160 -71q-62 0 -100 24t-70 64q-19 26 -28 37t-29 23t-42 12zM1411 1572h125
v-137q0 -125 -48.5 -179t-128.5 -54q-49 0 -106 20v-736q0 -163 -72.5 -279t-192.5 -171t-275 -55t-274.5 55t-192 171t-72.5 279v940h240v-907q0 -162 82.5 -243t216.5 -81t217.5 81t83.5 243v907h239v-103q36 -12 64 -12q52 0 73 34t21 112v115z" />
    <glyph glyph-name="uni1EEF" unicode="&#x1eef;" horiz-adv-x="1202" 
d="M495 1297q-37 0 -57.5 -36t-20.5 -95h-117q0 109 52 177.5t139 68.5q107 0 169 -100q28 -44 71 -44q37 0 57 34.5t20 95.5h117q0 -107 -51 -176t-140 -69q-107 0 -170 99q-28 45 -69 45zM1200 1152h125v-137q0 -125 -48.5 -179t-128.5 -54q-52 0 -109 21v-803h-219
l-6 126q-106 -145 -310 -145q-170 0 -266 90.5t-96 257.5v677h232v-627q0 -107 55.5 -158.5t143.5 -51.5q104 0 169.5 63.5t66.5 195.5v578h230v-102q36 -13 67 -13q52 0 73 34t21 112v115z" />
    <glyph glyph-name="uni1EF0" unicode="&#x1ef0;" horiz-adv-x="1427" 
d="M1411 1572h125v-137q0 -125 -48.5 -179t-128.5 -54q-49 0 -106 20v-736q0 -163 -72.5 -279t-192.5 -171t-275 -55t-274.5 55t-192 171t-72.5 279v940h240v-907q0 -162 82.5 -243t216.5 -81t217.5 81t83.5 243v907h239v-103q36 -12 64 -12q52 0 73 34t21 112v115z
M714 -230q57 0 99 -41.5t42 -99.5q0 -59 -41.5 -100t-99.5 -41q-59 0 -100.5 41t-41.5 100q0 58 42 99.5t100 41.5z" />
    <glyph glyph-name="uni1EF1" unicode="&#x1ef1;" horiz-adv-x="1202" 
d="M1200 1152h125v-137q0 -125 -48.5 -179t-128.5 -54q-52 0 -109 21v-803h-219l-6 126q-106 -145 -310 -145q-170 0 -266 90.5t-96 257.5v677h232v-627q0 -107 55.5 -158.5t143.5 -51.5q104 0 169.5 63.5t66.5 195.5v578h230v-102q36 -13 67 -13q52 0 73 34t21 112v115z
M604 -230q57 0 99 -41.5t42 -99.5q0 -59 -41.5 -100t-99.5 -41q-59 0 -100.5 41t-41.5 100q0 58 42 99.5t100 41.5z" />
    <glyph glyph-name="Ygrave" unicode="&#x1ef2;" horiz-adv-x="1242" 
d="M696 1567h-148l-225 263l116 84zM1211 1426l-469 -745v-681h-240v678l-471 748h268l322 -533l323 533h267z" />
    <glyph glyph-name="ygrave" unicode="&#x1ef3;" horiz-adv-x="1059" 
d="M604 1161h-148l-225 264l116 84zM802 1006h239l-602 -1479h-235l216 506l-403 973h253l261 -720z" />
    <glyph glyph-name="uni1EF4" unicode="&#x1ef4;" horiz-adv-x="1242" 
d="M502 0v678l-471 748h268l322 -533l323 533h267l-469 -745v-681h-240zM624 -230q57 0 99 -41.5t42 -99.5q0 -59 -41.5 -100t-99.5 -41q-59 0 -100.5 41t-41.5 100q0 58 42 99.5t100 41.5z" />
    <glyph glyph-name="uni1EF5" unicode="&#x1ef5;" horiz-adv-x="1059" 
d="M802 1006h239l-602 -1479h-235l216 506l-403 973h253l261 -720zM885 -230q57 0 99 -41.5t42 -99.5q0 -59 -41.5 -100t-99.5 -41q-59 0 -100.5 41t-41.5 100q0 58 42 99.5t100 41.5z" />
    <glyph glyph-name="uni1EF6" unicode="&#x1ef6;" horiz-adv-x="1242" 
d="M607 1843q-47 0 -86 -35l-59 83q65 54 153 54q87 0 139 -47.5t52 -124.5q0 -118 -128 -157v-80h-108v127q115 22 115 103q0 34 -20.5 55.5t-57.5 21.5zM1211 1426l-469 -745v-681h-240v678l-471 748h268l322 -533l323 533h267z" />
    <glyph glyph-name="uni1EF7" unicode="&#x1ef7;" horiz-adv-x="1059" 
d="M515 1402q-47 0 -86 -35l-59 83q64 53 153 53q87 0 139 -47.5t52 -124.5q0 -117 -128 -156v-80h-108v127q115 22 115 103q0 34 -20.5 55.5t-57.5 21.5zM802 1006h239l-602 -1479h-235l216 506l-403 973h253l261 -720z" />
    <glyph glyph-name="uni1EF8" unicode="&#x1ef8;" horiz-adv-x="1242" 
d="M498 1729q-46 0 -71 -40.5t-25 -105.5h-123q0 113 58 184t158 71t167 -83q3 -3 14.5 -17.5t15.5 -19t14.5 -14.5t18 -14t19 -7.5t23.5 -3.5q45 0 68.5 38.5t23.5 105.5h125q0 -112 -57 -183t-160 -71q-62 0 -100 24t-70 64q-19 26 -28 37t-29 23t-42 12zM1211 1426
l-469 -745v-681h-240v678l-471 748h268l322 -533l323 533h267z" />
    <glyph glyph-name="uni1EF9" unicode="&#x1ef9;" horiz-adv-x="1059" 
d="M422 1297q-37 0 -57.5 -36t-20.5 -95h-117q0 109 52 177.5t139 68.5q107 0 169 -100q28 -44 71 -44q37 0 57 34.5t20 95.5h117q0 -107 -51 -176t-140 -69q-107 0 -170 99q-28 45 -69 45zM802 1006h239l-602 -1479h-235l216 506l-403 973h253l261 -720z" />
    <glyph glyph-name="endash" unicode="&#x2013;" horiz-adv-x="1341" 
d="M159 436v193h1024v-193h-1024z" />
    <glyph glyph-name="emdash" unicode="&#x2014;" horiz-adv-x="2365" 
d="M159 436v193h2048v-193h-2048z" />
    <glyph glyph-name="quoteleft" unicode="&#x2018;" horiz-adv-x="596" 
d="M297 1427h166l-124 -637h-238z" />
    <glyph glyph-name="quoteright" unicode="&#x2019;" horiz-adv-x="595" 
d="M298 789h-166l124 637h238z" />
    <glyph glyph-name="quotesinglbase" unicode="&#x201a;" horiz-adv-x="595" 
d="M298 -365h-166l124 637h238z" />
    <glyph glyph-name="quotedblleft" unicode="&#x201c;" horiz-adv-x="1016" 
d="M297 1427h166l-124 -637h-238zM717 1427h166l-124 -637h-238z" />
    <glyph glyph-name="quotedblright" unicode="&#x201d;" horiz-adv-x="1015" 
d="M298 789h-166l124 637h238zM718 789h-166l124 637h238z" />
    <glyph glyph-name="quotedblbase" unicode="&#x201e;" horiz-adv-x="1019" 
d="M298 -365h-166l124 637h238zM722 -365h-166l124 637h238z" />
    <glyph glyph-name="dagger" unicode="&#x2020;" horiz-adv-x="1008" 
d="M925 1044v-149h-351v-1189h-151v1189h-340v149h340v382h151v-382h351z" />
    <glyph glyph-name="daggerdbl" unicode="&#x2021;" horiz-adv-x="1083" 
d="M963 895h-351v-645h351v-150h-351v-394h-151v394h-340v150h340v645h-340v149h340v382h151v-382h351v-149z" />
    <glyph glyph-name="bullet" unicode="&#x2022;" horiz-adv-x="901" 
d="M452 382q-118 0 -203.5 83t-85.5 204q0 116 86 201.5t203 85.5q114 0 200 -86t86 -201q0 -120 -85 -203.5t-201 -83.5z" />
    <glyph glyph-name="ellipsis" unicode="&#x2026;" horiz-adv-x="1948" 
d="M329 -20q-57 0 -99 41.5t-42 98.5q0 58 42 99.5t99 41.5q58 0 99.5 -41.5t41.5 -99.5t-41.5 -99t-99.5 -41zM977 -20q-57 0 -99 41.5t-42 98.5q0 58 42 99.5t99 41.5q58 0 99.5 -41.5t41.5 -99.5t-41.5 -99t-99.5 -41zM1617 -20q-57 0 -99 41.5t-42 98.5q0 58 42 99.5
t99 41.5q58 0 99.5 -41.5t41.5 -99.5t-41.5 -99t-99.5 -41z" />
    <glyph glyph-name="perthousand" unicode="&#x2030;" horiz-adv-x="2343" 
d="M417 819q-130 0 -221.5 92t-91.5 223q0 129 92 221t221 92q130 0 221 -92t91 -221q0 -130 -91 -222.5t-221 -92.5zM329 -1l752 1429h200l-754 -1429h-198zM417 978q66 0 110.5 45.5t44.5 110.5q0 64 -45 109t-110 45q-64 0 -110 -44.5t-46 -109.5t46 -110.5t110 -45.5z
M1204 -17q-131 0 -222.5 91.5t-91.5 221.5t92 221.5t222 91.5q128 0 219 -91.5t91 -221.5q0 -129 -90.5 -221t-219.5 -92zM1930 -17q-131 0 -222.5 91.5t-91.5 221.5t92 221.5t222 91.5q128 0 219.5 -91.5t91.5 -221.5q0 -129 -91 -221t-220 -92zM1204 141q64 0 110 45.5
t46 109.5t-46.5 110t-109.5 46q-66 0 -111 -45t-45 -111q0 -64 45 -109.5t111 -45.5zM1930 141q64 0 110 45.5t46 109.5t-46.5 110t-109.5 46q-66 0 -111 -45t-45 -111q0 -64 45 -109.5t111 -45.5z" />
    <glyph glyph-name="guilsinglleft" unicode="&#x2039;" horiz-adv-x="627" 
d="M369 252l-312 377l312 377h189l-311 -377l311 -377h-189z" />
    <glyph glyph-name="guilsinglright" unicode="&#x203a;" horiz-adv-x="627" 
d="M69 252l311 377l-311 377h189l311 -377l-311 -377h-189z" />
    <glyph glyph-name="fraction" unicode="&#x2044;" horiz-adv-x="428" 
d="M-266 0l805 1426h155l-805 -1426h-155z" />
    <glyph glyph-name="Euro" unicode="&#x20ac;" horiz-adv-x="1560" 
d="M912 201q106 0 190 51.5t138 145.5l202 -131q-90 -133 -227.5 -209.5t-301.5 -76.5q-237 0 -404.5 133t-219.5 385h-152v133h134q-3 40 -3 84q0 28 2 78h-133v134h151q51 253 219 386t406 133q164 0 301.5 -76.5t227.5 -208.5l-202 -131q-54 95 -138.5 145.5t-189.5 50.5
q-142 0 -242.5 -72t-141.5 -227h452v-134h-473q-3 -38 -3 -78q0 -44 3 -84h473v-133h-451q42 -154 142 -226t241 -72z" />
    <glyph glyph-name="uni2113" unicode="&#x2113;" horiz-adv-x="1159" 
d="M638 -12q-167 0 -258.5 88t-113.5 230q0 13 -1 19q-15 -10 -52.5 -38t-59.5 -42l-63 120q18 14 79 59t92 70v482q0 129 29 226t80 153.5t114.5 83.5t139.5 27q145 0 220 -95t75 -238q0 -168 -111 -332.5t-326 -350.5l2 -58q2 -107 61 -165.5t145 -58.5q85 0 161 55.5
t125 134.5l99 -99q-78 -139 -191.5 -205t-245.5 -66zM483 651q278 281 278 482q0 179 -129 179q-61 0 -105 -72.5t-44 -234.5v-354z" />
    <glyph glyph-name="uni2116" unicode="&#x2116;" horiz-adv-x="2948" 
d="M1268 380v1156h237v-1536h-237l-788 1161v-1161h-236v1536h237zM2275 345q-231 0 -380.5 152.5t-149.5 398.5q0 245 149 397t381 152t381 -152t149 -397q0 -246 -149.5 -398.5t-380.5 -152.5zM2273 1248q-132 0 -215 -95t-83 -257q0 -164 83 -259t215 -95
q133 0 217.5 95.5t84.5 258.5q0 162 -84.5 257t-217.5 95zM1814 0v153h923v-153h-923z" />
    <glyph glyph-name="trademark" unicode="&#x2122;" horiz-adv-x="1602" 
d="M121 1432v104h452v-104h-169v-615h-114v615h-169zM1237 1536h121v-719h-114v526l-228 -377l-230 376v-525h-115v719h125l219 -368z" />
    <glyph glyph-name="estimated" unicode="&#x212e;" horiz-adv-x="1978" 
d="M1005 -18q-178 0 -340 62t-279.5 167.5t-186.5 250.5t-69 304q0 215 117 397t318.5 287.5t439.5 105.5q179 0 341 -62.5t279.5 -168t186.5 -252t69 -307.5v-21h-1417q-12 0 -12 -8v-430q0 -24 18 -49q106 -109 245 -171t292 -62q167 0 313.5 69.5t251.5 192.5h125
q-119 -141 -301.5 -223t-390.5 -82zM464 788h1087q9 0 9 15v430q0 33 -21 51q-106 105 -243.5 165t-288.5 60t-289 -61.5t-246 -169.5q-20 -23 -20 -53v-422q0 -15 12 -15z" />
    <glyph glyph-name="partialdiff" unicode="&#x2202;" horiz-adv-x="1202" 
d="M359 1450q114 22 221 -4.5t192.5 -95.5t149.5 -169.5t98 -232t31 -276.5q-6 -292 -153.5 -478t-373.5 -186q-120 0 -211 47t-138.5 129.5t-53.5 195t45 244.5q86 230 267.5 325.5t376.5 21.5q-51 174 -168 259.5t-283 52.5v167zM843 672q2 71 -2 117q-149 92 -282.5 31.5
t-199.5 -250.5q-43 -128 -28.5 -219t69.5 -140.5t135 -49.5q117 0 208 138t100 373z" />
    <glyph glyph-name="emptyset" unicode="&#x2205;" horiz-adv-x="1537" 
d="M769 -16q-227 0 -398 148l-89 -89l-66 66l89 89q-148 171 -148 398q0 166 82 307t223 223t307 82q227 0 398 -148l89 89l66 -66l-89 -89q148 -171 148 -398q0 -166 -82 -307t-223 -223t-307 -82zM436 329l600 600q-113 93 -267 93q-178 0 -302 -124t-124 -302
q0 -154 93 -267zM769 170q178 0 302 124t124 302q0 154 -93 267l-600 -600q113 -93 267 -93z" />
    <glyph glyph-name="product" unicode="&#x220f;" horiz-adv-x="1673" 
d="M265 0v1222h-119v204h1382v-204h-120v-1222h-203v1222h-734v-1222h-206z" />
    <glyph glyph-name="summation" unicode="&#x2211;" horiz-adv-x="1414" 
d="M114 1v150l616 616l-616 617v152h1179v-183h-866l570 -586l-570 -585h866v-181h-1179z" />
    <glyph glyph-name="minus" unicode="&#x2212;" horiz-adv-x="1305" 
d="M241 601v180h823v-180h-823z" />
    <glyph glyph-name="radical" unicode="&#x221a;" horiz-adv-x="1444" 
d="M462 0l-222 686h-147v193h283l191 -581l592 1238h211l-736 -1536h-172z" />
    <glyph glyph-name="infinity" unicode="&#x221e;" horiz-adv-x="1711" 
d="M479 279q-128 0 -213 89t-90 228q5 139 90 228t213 89q181 0 375 -202q191 202 375 202q134 0 216 -86t86 -231q-4 -145 -86 -231t-216 -86q-183 0 -375 201q-195 -201 -375 -201zM479 434q57 0 127.5 42t143.5 120q-73 78 -143.5 120t-127.5 42q-61 0 -104 -46.5
t-44 -115.5q1 -69 44 -115.5t104 -46.5zM1229 434q62 0 104 45t43 117q-1 72 -43 117t-104 45q-117 0 -273 -162q156 -162 273 -162z" />
    <glyph glyph-name="integral" unicode="&#x222b;" horiz-adv-x="951" 
d="M79 -457v219q155 0 216.5 60t61.5 206v1101q0 138 89.5 228t223.5 90q132 0 213 -76l-91 -173q-46 45 -101 45q-52 0 -82 -39t-30 -114v-1076q0 -221 -136.5 -346t-363.5 -125z" />
    <glyph glyph-name="approxequal" unicode="&#x2248;" horiz-adv-x="1407" 
d="M919 678q-43 0 -84 12.5t-65.5 24.5t-58 41.5t-41.5 38.5t-36 39q-65 69 -124 69q-69 0 -109.5 -57.5t-43.5 -149.5h-169q4 172 90 274.5t234 102.5q79 0 139 -36t123 -113q22 -26 35.5 -39.5t40 -27.5t55.5 -14q64 0 104.5 55t44.5 149h167q-5 -162 -85 -265.5
t-217 -103.5zM919 215q-43 0 -83.5 12t-66.5 25.5t-57.5 40.5t-42 39t-35.5 39q-33 36 -60 53t-64 16q-70 -2 -110 -58.5t-43 -148.5h-169q4 173 91 275.5t233 102.5q76 0 136 -35.5t126 -112.5q23 -27 35.5 -40t39.5 -28t56 -15q64 0 104.5 55t44.5 151h167
q-5 -163 -85.5 -267t-216.5 -104z" />
    <glyph glyph-name="notequal" unicode="&#x2260;" horiz-adv-x="1258" 
d="M173 0l205 395h-205v180h297l126 244h-423v180h515l185 357h174l-185 -357h236v-180h-329l-126 -244h455v-180h-547l-205 -395h-173z" />
    <glyph glyph-name="lessequal" unicode="&#x2264;" horiz-adv-x="1420" 
d="M1265 1461v-199l-934 -419l934 -420v-202l-1131 514v216zM134 0v156h1131v-156h-1131z" />
    <glyph glyph-name="greaterequal" unicode="&#x2265;" horiz-adv-x="1420" 
d="M156 1461l1130 -510v-216l-1130 -514v202l933 420l-933 419v199zM156 0v156h1130v-156h-1130z" />
    <glyph glyph-name="lozenge" unicode="&#x25ca;" horiz-adv-x="1390" 
d="M695 106l-618 617l618 618l617 -616zM696 362l360 363l-360 359l-362 -361z" />
    <glyph glyph-name="uniF8FF" unicode="&#xf8ff;" horiz-adv-x="1823" 
d="M911 0q-158 0 -302 62t-248 166t-166 248t-62 302t62 302.5t166 248.5t248 165.5t302 61.5q127 0 246 -39t214.5 -111t167.5 -168t111.5 -214.5t39.5 -245.5q0 -211 -104.5 -390t-284 -283.5t-390.5 -104.5zM911 74q143 0 273.5 56t225 150.5t150.5 224.5t56 273
q0 191 -94.5 353.5t-257 257t-353.5 94.5q-143 0 -273 -56t-224.5 -150.5t-150.5 -225t-56 -273.5t56 -273t150.5 -224.5t224.5 -150.5t273 -56zM1319 444q-11 0 -24 13l-297 295q-11 12 -11.5 27.5t10.5 25.5l297 297q11 10 26 10t26 -10q10 -11 10 -26.5t-10 -26.5
l-271 -271l271 -270q22 -22 0 -51q-11 -13 -27 -13zM504 444q-16 0 -26.5 11t-10.5 26v594q0 16 10.5 26.5t26.5 10.5q15 0 26 -10.5t11 -26.5v-594q0 -15 -11 -26t-26 -11zM911 444q-15 0 -26 11t-11 26v594q0 16 11 26.5t26 10.5q16 0 26.5 -10.5t10.5 -26.5v-594
q0 -15 -10.5 -26t-26.5 -11zM614 741q-15 0 -25.5 11t-10.5 26q0 16 10.5 26.5t25.5 10.5h187q15 0 26 -10.5t11 -26.5q0 -15 -11 -26t-26 -11h-187z" />
    <glyph glyph-name="G.ss02" horiz-adv-x="1597" 
d="M829 -19q-157 0 -290 51t-229 143.5t-150.5 230.5t-54.5 304q0 167 55 306.5t151 233t228.5 145t285.5 51.5q202 0 364 -86.5t254 -247.5l-211 -113q-61 116 -167.5 175t-239.5 59q-210 0 -344.5 -137.5t-134.5 -379.5t136 -382.5t357 -140.5q179 0 300 99.5t131 262.5
h-436v197h666q6 -87 0 -165q-10 -148 -65.5 -265t-146.5 -190.5t-207.5 -112t-251.5 -38.5z" />
    <glyph glyph-name="Gbreve.ss02" horiz-adv-x="1597" 
d="M817 1567q-163 0 -257.5 68.5t-94.5 213.5h137q0 -85 57.5 -127.5t157.5 -42.5q101 0 159 42.5t58 127.5h136q0 -146 -94.5 -214t-258.5 -68zM829 -19q-157 0 -290 51t-229 143.5t-150.5 230.5t-54.5 304q0 167 55 306.5t151 233t228.5 145t285.5 51.5q202 0 364 -86.5
t254 -247.5l-211 -113q-61 116 -167.5 175t-239.5 59q-210 0 -344.5 -137.5t-134.5 -379.5t136 -382.5t357 -140.5q179 0 300 99.5t131 262.5h-436v197h666q6 -87 0 -165q-10 -148 -65.5 -265t-146.5 -190.5t-207.5 -112t-251.5 -38.5z" />
    <glyph glyph-name="Gcommaaccent.ss02" horiz-adv-x="1597" 
d="M829 -19q-157 0 -290 51t-229 143.5t-150.5 230.5t-54.5 304q0 167 55 306.5t151 233t228.5 145t285.5 51.5q202 0 364 -86.5t254 -247.5l-211 -113q-61 116 -167.5 175t-239.5 59q-210 0 -344.5 -137.5t-134.5 -379.5t136 -382.5t357 -140.5q179 0 300 99.5t131 262.5
h-436v197h666q6 -87 0 -165q-10 -148 -65.5 -265t-146.5 -190.5t-207.5 -112t-251.5 -38.5zM667 -566l-117 53l164 370h205z" />
    <glyph glyph-name="Gdotaccent.ss02" horiz-adv-x="1597" 
d="M819 1536q-59 0 -100.5 41.5t-41.5 99.5t41.5 99.5t100.5 41.5q57 0 99 -41.5t42 -99.5t-42 -99.5t-99 -41.5zM829 -19q-157 0 -290 51t-229 143.5t-150.5 230.5t-54.5 304q0 167 55 306.5t151 233t228.5 145t285.5 51.5q202 0 364 -86.5t254 -247.5l-211 -113
q-61 116 -167.5 175t-239.5 59q-210 0 -344.5 -137.5t-134.5 -379.5t136 -382.5t357 -140.5q179 0 300 99.5t131 262.5h-436v197h666q6 -87 0 -165q-10 -148 -65.5 -265t-146.5 -190.5t-207.5 -112t-251.5 -38.5z" />
    <glyph glyph-name="G.ss03" horiz-adv-x="1597" 
d="M829 -19q-157 0 -290 51t-229 143.5t-150.5 230.5t-54.5 304q0 167 55 306.5t151 233t228.5 145t285.5 51.5q202 0 364 -86.5t254 -247.5l-211 -113q-61 116 -167.5 175t-239.5 59q-210 0 -344.5 -137.5t-134.5 -379.5t136 -382.5t357 -140.5q179 0 300 99.5t131 262.5
h-436v197h666q6 -87 0 -165q-10 -148 -65.5 -265t-146.5 -190.5t-207.5 -112t-251.5 -38.5z" />
    <glyph glyph-name="Gbreve.ss03" horiz-adv-x="1597" 
d="M817 1567q-163 0 -257.5 68.5t-94.5 213.5h137q0 -85 57.5 -127.5t157.5 -42.5q101 0 159 42.5t58 127.5h136q0 -146 -94.5 -214t-258.5 -68zM829 -19q-157 0 -290 51t-229 143.5t-150.5 230.5t-54.5 304q0 167 55 306.5t151 233t228.5 145t285.5 51.5q202 0 364 -86.5
t254 -247.5l-211 -113q-61 116 -167.5 175t-239.5 59q-210 0 -344.5 -137.5t-134.5 -379.5t136 -382.5t357 -140.5q179 0 300 99.5t131 262.5h-436v197h666q6 -87 0 -165q-10 -148 -65.5 -265t-146.5 -190.5t-207.5 -112t-251.5 -38.5z" />
    <glyph glyph-name="Gcommaaccent.ss03" horiz-adv-x="1597" 
d="M829 -19q-157 0 -290 51t-229 143.5t-150.5 230.5t-54.5 304q0 167 55 306.5t151 233t228.5 145t285.5 51.5q202 0 364 -86.5t254 -247.5l-211 -113q-61 116 -167.5 175t-239.5 59q-210 0 -344.5 -137.5t-134.5 -379.5t136 -382.5t357 -140.5q179 0 300 99.5t131 262.5
h-436v197h666q6 -87 0 -165q-10 -148 -65.5 -265t-146.5 -190.5t-207.5 -112t-251.5 -38.5zM667 -566l-117 53l164 370h205z" />
    <glyph glyph-name="Gdotaccent.ss03" horiz-adv-x="1597" 
d="M819 1536q-59 0 -100.5 41.5t-41.5 99.5t41.5 99.5t100.5 41.5q57 0 99 -41.5t42 -99.5t-42 -99.5t-99 -41.5zM829 -19q-157 0 -290 51t-229 143.5t-150.5 230.5t-54.5 304q0 167 55 306.5t151 233t228.5 145t285.5 51.5q202 0 364 -86.5t254 -247.5l-211 -113
q-61 116 -167.5 175t-239.5 59q-210 0 -344.5 -137.5t-134.5 -379.5t136 -382.5t357 -140.5q179 0 300 99.5t131 262.5h-436v197h666q6 -87 0 -165q-10 -148 -65.5 -265t-146.5 -190.5t-207.5 -112t-251.5 -38.5z" />
    <glyph glyph-name="i.loclTRK" horiz-adv-x="557" 
d="M281 1198q-58 0 -100 41.5t-42 99.5t41.5 99.5t100.5 41.5q57 0 99 -41.5t42 -99.5t-42 -99.5t-99 -41.5zM163 0v1006h231v-1006h-231z" />
    <glyph glyph-name="g.ss01" horiz-adv-x="1118" 
d="M1062 1006v-165h-146q54 -87 54 -196q0 -165 -117.5 -254.5t-297.5 -89.5q-122 0 -218 41q-26 -37 -26 -71t18.5 -56t67.5 -36t84 -20t115 -15q7 -1 11 -1.5t10.5 -1t11.5 -1.5q66 -8 111.5 -15.5t100 -21t90 -34t67 -49.5t47 -71.5t15.5 -96.5q0 -161 -132.5 -246.5
t-348.5 -85.5q-214 0 -340.5 78t-126.5 197t119 234q-123 62 -123 193q0 124 99 208q-87 93 -87 229q0 111 58 196t152.5 128t209.5 43q77 0 146 -20h376zM548 468q96 0 151 52.5t55 139.5q0 88 -55 142.5t-150 54.5q-96 0 -152 -54.5t-56 -143.5q0 -86 55.5 -138.5
t151.5 -52.5zM838 -181q0 38 -20 63t-65 39.5t-90.5 22t-124.5 16.5q-13 1 -20 2q-75 8 -143 21q-62 -78 -62 -145q0 -74 77 -116.5t211 -42.5q105 0 171 33.5t66 106.5z" />
    <glyph glyph-name="gbreve.ss01" horiz-adv-x="1118" 
d="M558 1149q-158 0 -255 88.5t-97 245.5h147q0 -98 55.5 -159.5t149.5 -61.5q95 0 150.5 61.5t55.5 159.5h147q0 -157 -97.5 -245.5t-255.5 -88.5zM1062 1006v-165h-146q54 -87 54 -196q0 -165 -117.5 -254.5t-297.5 -89.5q-122 0 -218 41q-26 -37 -26 -71t18.5 -56
t67.5 -36t84 -20t115 -15q7 -1 11 -1.5t10.5 -1t11.5 -1.5q66 -8 111.5 -15.5t100 -21t90 -34t67 -49.5t47 -71.5t15.5 -96.5q0 -161 -132.5 -246.5t-348.5 -85.5q-214 0 -340.5 78t-126.5 197t119 234q-123 62 -123 193q0 124 99 208q-87 93 -87 229q0 111 58 196
t152.5 128t209.5 43q77 0 146 -20h376zM548 468q96 0 151 52.5t55 139.5q0 88 -55 142.5t-150 54.5q-96 0 -152 -54.5t-56 -143.5q0 -86 55.5 -138.5t151.5 -52.5zM838 -181q0 38 -20 63t-65 39.5t-90.5 22t-124.5 16.5q-13 1 -20 2q-75 8 -143 21q-62 -78 -62 -145
q0 -74 77 -116.5t211 -42.5q105 0 171 33.5t66 106.5z" />
    <glyph glyph-name="gcommaaccent.ss01" horiz-adv-x="1118" 
d="M745 1478l-124 -316h-238l196 316h166zM1062 1006v-165h-146q54 -87 54 -196q0 -165 -117.5 -254.5t-297.5 -89.5q-122 0 -218 41q-26 -37 -26 -71t18.5 -56t67.5 -36t84 -20t115 -15q7 -1 11 -1.5t10.5 -1t11.5 -1.5q66 -8 111.5 -15.5t100 -21t90 -34t67 -49.5
t47 -71.5t15.5 -96.5q0 -161 -132.5 -246.5t-348.5 -85.5q-214 0 -340.5 78t-126.5 197t119 234q-123 62 -123 193q0 124 99 208q-87 93 -87 229q0 111 58 196t152.5 128t209.5 43q77 0 146 -20h376zM548 468q96 0 151 52.5t55 139.5q0 88 -55 142.5t-150 54.5
q-96 0 -152 -54.5t-56 -143.5q0 -86 55.5 -138.5t151.5 -52.5zM838 -181q0 38 -20 63t-65 39.5t-90.5 22t-124.5 16.5q-13 1 -20 2q-75 8 -143 21q-62 -78 -62 -145q0 -74 77 -116.5t211 -42.5q105 0 171 33.5t66 106.5z" />
    <glyph glyph-name="gdotaccent.ss01" horiz-adv-x="1118" 
d="M560 1198q-58 0 -100 41.5t-42 99.5t41.5 99.5t100.5 41.5q57 0 99 -41.5t42 -99.5t-42 -99.5t-99 -41.5zM1062 1006v-165h-146q54 -87 54 -196q0 -165 -117.5 -254.5t-297.5 -89.5q-122 0 -218 41q-26 -37 -26 -71t18.5 -56t67.5 -36t84 -20t115 -15q7 -1 11 -1.5
t10.5 -1t11.5 -1.5q66 -8 111.5 -15.5t100 -21t90 -34t67 -49.5t47 -71.5t15.5 -96.5q0 -161 -132.5 -246.5t-348.5 -85.5q-214 0 -340.5 78t-126.5 197t119 234q-123 62 -123 193q0 124 99 208q-87 93 -87 229q0 111 58 196t152.5 128t209.5 43q77 0 146 -20h376zM548 468
q96 0 151 52.5t55 139.5q0 88 -55 142.5t-150 54.5q-96 0 -152 -54.5t-56 -143.5q0 -86 55.5 -138.5t151.5 -52.5zM838 -181q0 38 -20 63t-65 39.5t-90.5 22t-124.5 16.5q-13 1 -20 2q-75 8 -143 21q-62 -78 -62 -145q0 -74 77 -116.5t211 -42.5q105 0 171 33.5t66 106.5z
" />
    <glyph glyph-name="a.ss02" horiz-adv-x="1283" 
d="M900 1006h220v-1006h-220l-6 160q-45 -85 -134.5 -134t-200.5 -49q-98 0 -184.5 37t-151.5 103.5t-103 166t-38 218.5q0 118 38 217t103 165.5t152 103.5t184 37q115 0 207 -51.5t134 -141.5v174zM610 172q127 0 212 93t85 237q0 143 -85.5 236t-211.5 93
q-127 0 -212.5 -90.5t-85.5 -238.5t85.5 -239t212.5 -91z" />
    <glyph glyph-name="aacute.ss02" horiz-adv-x="1283" 
d="M938 1425l-225 -264h-149l257 348zM900 1006h220v-1006h-220l-6 160q-45 -85 -134.5 -134t-200.5 -49q-98 0 -184.5 37t-151.5 103.5t-103 166t-38 218.5q0 118 38 217t103 165.5t152 103.5t184 37q115 0 207 -51.5t134 -141.5v174zM610 172q127 0 212 93t85 237
q0 143 -85.5 236t-211.5 93q-127 0 -212.5 -90.5t-85.5 -238.5t85.5 -239t212.5 -91z" />
    <glyph glyph-name="abreve.ss02" horiz-adv-x="1283" 
d="M641 1149q-158 0 -255 88.5t-97 245.5h147q0 -98 55.5 -159.5t149.5 -61.5q95 0 150.5 61.5t55.5 159.5h147q0 -157 -97.5 -245.5t-255.5 -88.5zM900 1006h220v-1006h-220l-6 160q-45 -85 -134.5 -134t-200.5 -49q-98 0 -184.5 37t-151.5 103.5t-103 166t-38 218.5
q0 118 38 217t103 165.5t152 103.5t184 37q115 0 207 -51.5t134 -141.5v174zM610 172q127 0 212 93t85 237q0 143 -85.5 236t-211.5 93q-127 0 -212.5 -90.5t-85.5 -238.5t85.5 -239t212.5 -91z" />
    <glyph glyph-name="uni1EAF.ss02" horiz-adv-x="1283" 
d="M938 1902l-225 -264h-149l257 348zM641 1149q-158 0 -255 88.5t-97 245.5h147q0 -98 55.5 -159.5t149.5 -61.5q95 0 150.5 61.5t55.5 159.5h147q0 -157 -97.5 -245.5t-255.5 -88.5zM900 1006h220v-1006h-220l-6 160q-45 -85 -134.5 -134t-200.5 -49q-98 0 -184.5 37
t-151.5 103.5t-103 166t-38 218.5q0 118 38 217t103 165.5t152 103.5t184 37q115 0 207 -51.5t134 -141.5v174zM610 172q127 0 212 93t85 237q0 143 -85.5 236t-211.5 93q-127 0 -212.5 -90.5t-85.5 -238.5t85.5 -239t212.5 -91z" />
    <glyph glyph-name="uni1EB7.ss02" horiz-adv-x="1283" 
d="M641 1149q-158 0 -255 88.5t-97 245.5h147q0 -98 55.5 -159.5t149.5 -61.5q95 0 150.5 61.5t55.5 159.5h147q0 -157 -97.5 -245.5t-255.5 -88.5zM900 1006h220v-1006h-220l-6 160q-45 -85 -134.5 -134t-200.5 -49q-98 0 -184.5 37t-151.5 103.5t-103 166t-38 218.5
q0 118 38 217t103 165.5t152 103.5t184 37q115 0 207 -51.5t134 -141.5v174zM610 172q127 0 212 93t85 237q0 143 -85.5 236t-211.5 93q-127 0 -212.5 -90.5t-85.5 -238.5t85.5 -239t212.5 -91zM643 -230q57 0 99 -41.5t42 -99.5q0 -59 -41.5 -100t-99.5 -41
q-59 0 -100.5 41t-41.5 100q0 58 42 99.5t100 41.5z" />
    <glyph glyph-name="uni1EB1.ss02" horiz-adv-x="1283" 
d="M716 1638h-148l-225 264l116 84zM641 1149q-158 0 -255 88.5t-97 245.5h147q0 -98 55.5 -159.5t149.5 -61.5q95 0 150.5 61.5t55.5 159.5h147q0 -157 -97.5 -245.5t-255.5 -88.5zM900 1006h220v-1006h-220l-6 160q-45 -85 -134.5 -134t-200.5 -49q-98 0 -184.5 37
t-151.5 103.5t-103 166t-38 218.5q0 118 38 217t103 165.5t152 103.5t184 37q115 0 207 -51.5t134 -141.5v174zM610 172q127 0 212 93t85 237q0 143 -85.5 236t-211.5 93q-127 0 -212.5 -90.5t-85.5 -238.5t85.5 -239t212.5 -91z" />
    <glyph glyph-name="uni1EB3.ss02" horiz-adv-x="1283" 
d="M627 1879q-47 0 -86 -35l-59 83q64 53 153 53q87 0 139 -47.5t52 -124.5q0 -117 -128 -156v-80h-108v127q115 22 115 103q0 34 -20.5 55.5t-57.5 21.5zM641 1149q-158 0 -255 88.5t-97 245.5h147q0 -98 55.5 -159.5t149.5 -61.5q95 0 150.5 61.5t55.5 159.5h147
q0 -157 -97.5 -245.5t-255.5 -88.5zM900 1006h220v-1006h-220l-6 160q-45 -85 -134.5 -134t-200.5 -49q-98 0 -184.5 37t-151.5 103.5t-103 166t-38 218.5q0 118 38 217t103 165.5t152 103.5t184 37q115 0 207 -51.5t134 -141.5v174zM610 172q127 0 212 93t85 237
q0 143 -85.5 236t-211.5 93q-127 0 -212.5 -90.5t-85.5 -238.5t85.5 -239t212.5 -91z" />
    <glyph glyph-name="uni1EB5.ss02" horiz-adv-x="1283" 
d="M534 1774q-37 0 -57.5 -36t-20.5 -95h-117q0 109 52 177.5t139 68.5q107 0 169 -100q28 -44 71 -44q37 0 57 34.5t20 95.5h117q0 -107 -51 -176t-140 -69q-107 0 -170 99q-28 45 -69 45zM641 1149q-158 0 -255 88.5t-97 245.5h147q0 -98 55.5 -159.5t149.5 -61.5
q95 0 150.5 61.5t55.5 159.5h147q0 -157 -97.5 -245.5t-255.5 -88.5zM900 1006h220v-1006h-220l-6 160q-45 -85 -134.5 -134t-200.5 -49q-98 0 -184.5 37t-151.5 103.5t-103 166t-38 218.5q0 118 38 217t103 165.5t152 103.5t184 37q115 0 207 -51.5t134 -141.5v174z
M610 172q127 0 212 93t85 237q0 143 -85.5 236t-211.5 93q-127 0 -212.5 -90.5t-85.5 -238.5t85.5 -239t212.5 -91z" />
    <glyph glyph-name="uni01CE.ss02" horiz-adv-x="1283" 
d="M717 1186h-150l-220 297h148l146 -190l147 190h148zM900 1006h220v-1006h-220l-6 160q-45 -85 -134.5 -134t-200.5 -49q-98 0 -184.5 37t-151.5 103.5t-103 166t-38 218.5q0 118 38 217t103 165.5t152 103.5t184 37q115 0 207 -51.5t134 -141.5v174zM610 172
q127 0 212 93t85 237q0 143 -85.5 236t-211.5 93q-127 0 -212.5 -90.5t-85.5 -238.5t85.5 -239t212.5 -91z" />
    <glyph glyph-name="acircumflex.ss02" horiz-adv-x="1283" 
d="M641 1375l-146 -189h-148l219 297h151l219 -297h-148zM900 1006h220v-1006h-220l-6 160q-45 -85 -134.5 -134t-200.5 -49q-98 0 -184.5 37t-151.5 103.5t-103 166t-38 218.5q0 118 38 217t103 165.5t152 103.5t184 37q115 0 207 -51.5t134 -141.5v174zM610 172
q127 0 212 93t85 237q0 143 -85.5 236t-211.5 93q-127 0 -212.5 -90.5t-85.5 -238.5t85.5 -239t212.5 -91z" />
    <glyph glyph-name="uni1EA5.ss02" horiz-adv-x="1283" 
d="M937 1902l-225 -264h-149l257 348zM641 1375l-146 -189h-148l219 297h151l219 -297h-148zM900 1006h220v-1006h-220l-6 160q-45 -85 -134.5 -134t-200.5 -49q-98 0 -184.5 37t-151.5 103.5t-103 166t-38 218.5q0 118 38 217t103 165.5t152 103.5t184 37q115 0 207 -51.5
t134 -141.5v174zM610 172q127 0 212 93t85 237q0 143 -85.5 236t-211.5 93q-127 0 -212.5 -90.5t-85.5 -238.5t85.5 -239t212.5 -91z" />
    <glyph glyph-name="uni1EAD.ss02" horiz-adv-x="1283" 
d="M641 1375l-146 -189h-148l219 297h151l219 -297h-148zM900 1006h220v-1006h-220l-6 160q-45 -85 -134.5 -134t-200.5 -49q-98 0 -184.5 37t-151.5 103.5t-103 166t-38 218.5q0 118 38 217t103 165.5t152 103.5t184 37q115 0 207 -51.5t134 -141.5v174zM610 172
q127 0 212 93t85 237q0 143 -85.5 236t-211.5 93q-127 0 -212.5 -90.5t-85.5 -238.5t85.5 -239t212.5 -91zM643 -230q57 0 99 -41.5t42 -99.5q0 -59 -41.5 -100t-99.5 -41q-59 0 -100.5 41t-41.5 100q0 58 42 99.5t100 41.5z" />
    <glyph glyph-name="uni1EA7.ss02" horiz-adv-x="1283" 
d="M715 1638h-148l-225 264l116 84zM347 1186l219 297h151l219 -297h-148l-147 189l-146 -189h-148zM900 1006h220v-1006h-220l-6 160q-45 -85 -134.5 -134t-200.5 -49q-98 0 -184.5 37t-151.5 103.5t-103 166t-38 218.5q0 118 38 217t103 165.5t152 103.5t184 37
q115 0 207 -51.5t134 -141.5v174zM610 172q127 0 212 93t85 237q0 143 -85.5 236t-211.5 93q-127 0 -212.5 -90.5t-85.5 -238.5t85.5 -239t212.5 -91z" />
    <glyph glyph-name="uni1EA9.ss02" horiz-adv-x="1283" 
d="M626 1879q-47 0 -86 -35l-59 83q64 53 153 53q87 0 139 -47.5t52 -124.5q0 -117 -128 -156v-80h-108v127q115 22 115 103q0 34 -20.5 55.5t-57.5 21.5zM641 1375l-146 -189h-148l219 297h151l219 -297h-148zM900 1006h220v-1006h-220l-6 160q-45 -85 -134.5 -134
t-200.5 -49q-98 0 -184.5 37t-151.5 103.5t-103 166t-38 218.5q0 118 38 217t103 165.5t152 103.5t184 37q115 0 207 -51.5t134 -141.5v174zM610 172q127 0 212 93t85 237q0 143 -85.5 236t-211.5 93q-127 0 -212.5 -90.5t-85.5 -238.5t85.5 -239t212.5 -91z" />
    <glyph glyph-name="uni1EAB.ss02" horiz-adv-x="1283" 
d="M533 1774q-37 0 -57.5 -36t-20.5 -95h-117q0 109 52 177.5t139 68.5q107 0 169 -100q28 -44 71 -44q37 0 57 34.5t20 95.5h117q0 -107 -51 -176t-140 -69q-107 0 -170 99q-28 45 -69 45zM566 1483h151l219 -297h-148l-147 189l-146 -189h-148zM900 1006h220v-1006h-220
l-6 160q-45 -85 -134.5 -134t-200.5 -49q-98 0 -184.5 37t-151.5 103.5t-103 166t-38 218.5q0 118 38 217t103 165.5t152 103.5t184 37q115 0 207 -51.5t134 -141.5v174zM610 172q127 0 212 93t85 237q0 143 -85.5 236t-211.5 93q-127 0 -212.5 -90.5t-85.5 -238.5
t85.5 -239t212.5 -91z" />
    <glyph glyph-name="adieresis.ss02" horiz-adv-x="1283" 
d="M441 1198q-58 0 -100 41.5t-42 99.5t41.5 99.5t100.5 41.5q57 0 99 -41.5t42 -99.5t-42 -99.5t-99 -41.5zM844 1198q-59 0 -101 41.5t-42 99.5t42 99.5t101 41.5q57 0 98.5 -41.5t41.5 -99.5q0 -57 -42 -99t-98 -42zM900 1006h220v-1006h-220l-6 160q-45 -85 -134.5 -134
t-200.5 -49q-98 0 -184.5 37t-151.5 103.5t-103 166t-38 218.5q0 118 38 217t103 165.5t152 103.5t184 37q115 0 207 -51.5t134 -141.5v174zM610 172q127 0 212 93t85 237q0 143 -85.5 236t-211.5 93q-127 0 -212.5 -90.5t-85.5 -238.5t85.5 -239t212.5 -91z" />
    <glyph glyph-name="uni1EA1.ss02" horiz-adv-x="1283" 
d="M900 1006h220v-1006h-220l-6 160q-45 -85 -134.5 -134t-200.5 -49q-98 0 -184.5 37t-151.5 103.5t-103 166t-38 218.5q0 118 38 217t103 165.5t152 103.5t184 37q115 0 207 -51.5t134 -141.5v174zM610 172q127 0 212 93t85 237q0 143 -85.5 236t-211.5 93
q-127 0 -212.5 -90.5t-85.5 -238.5t85.5 -239t212.5 -91zM643 -230q57 0 99 -41.5t42 -99.5q0 -59 -41.5 -100t-99.5 -41q-59 0 -100.5 41t-41.5 100q0 58 42 99.5t100 41.5z" />
    <glyph glyph-name="agrave.ss02" horiz-adv-x="1283" 
d="M716 1161h-148l-225 264l116 84zM900 1006h220v-1006h-220l-6 160q-45 -85 -134.5 -134t-200.5 -49q-98 0 -184.5 37t-151.5 103.5t-103 166t-38 218.5q0 118 38 217t103 165.5t152 103.5t184 37q115 0 207 -51.5t134 -141.5v174zM610 172q127 0 212 93t85 237
q0 143 -85.5 236t-211.5 93q-127 0 -212.5 -90.5t-85.5 -238.5t85.5 -239t212.5 -91z" />
    <glyph glyph-name="uni1EA3.ss02" horiz-adv-x="1283" 
d="M627 1402q-47 0 -86 -35l-59 83q64 53 153 53q87 0 139 -47.5t52 -124.5q0 -117 -128 -156v-80h-108v127q115 22 115 103q0 34 -20.5 55.5t-57.5 21.5zM900 1006h220v-1006h-220l-6 160q-45 -85 -134.5 -134t-200.5 -49q-98 0 -184.5 37t-151.5 103.5t-103 166t-38 218.5
q0 118 38 217t103 165.5t152 103.5t184 37q115 0 207 -51.5t134 -141.5v174zM610 172q127 0 212 93t85 237q0 143 -85.5 236t-211.5 93q-127 0 -212.5 -90.5t-85.5 -238.5t85.5 -239t212.5 -91z" />
    <glyph glyph-name="amacron.ss02" horiz-adv-x="1283" 
d="M970 1328v-140h-655v140h655zM900 1006h220v-1006h-220l-6 160q-45 -85 -134.5 -134t-200.5 -49q-98 0 -184.5 37t-151.5 103.5t-103 166t-38 218.5q0 118 38 217t103 165.5t152 103.5t184 37q115 0 207 -51.5t134 -141.5v174zM610 172q127 0 212 93t85 237
q0 143 -85.5 236t-211.5 93q-127 0 -212.5 -90.5t-85.5 -238.5t85.5 -239t212.5 -91z" />
    <glyph glyph-name="aogonek.ss02" horiz-adv-x="1283" 
d="M1120 0q-170 -162 -170 -224q0 -39 68 -39q61 0 102 35v-155q-59 -23 -126 -23q-86 0 -135 26.5t-49 75.5q0 102 206 304h-116l-6 160q-45 -85 -134.5 -134t-200.5 -49q-98 0 -184.5 37t-151.5 103.5t-103 166t-38 218.5q0 118 38 217t103 165.5t152 103.5t184 37
q115 0 207 -51.5t134 -141.5v174h220v-1006zM610 172q127 0 212 93t85 237q0 143 -85.5 236t-211.5 93q-127 0 -212.5 -90.5t-85.5 -238.5t85.5 -239t212.5 -91z" />
    <glyph glyph-name="aring.ss02" horiz-adv-x="1283" 
d="M642 1129q-94 0 -160 66.5t-66 158.5t66 157.5t160 65.5q92 0 157 -65.5t65 -157.5t-65.5 -158.5t-156.5 -66.5zM642 1478q-51 0 -86 -36.5t-35 -87.5q0 -54 34.5 -88t86.5 -34q51 0 86 34.5t35 87.5q0 51 -35.5 87.5t-85.5 36.5zM900 1006h220v-1006h-220l-6 160
q-45 -85 -134.5 -134t-200.5 -49q-98 0 -184.5 37t-151.5 103.5t-103 166t-38 218.5q0 118 38 217t103 165.5t152 103.5t184 37q115 0 207 -51.5t134 -141.5v174zM610 172q127 0 212 93t85 237q0 143 -85.5 236t-211.5 93q-127 0 -212.5 -90.5t-85.5 -238.5t85.5 -239
t212.5 -91z" />
    <glyph glyph-name="atilde.ss02" horiz-adv-x="1283" 
d="M534 1297q-37 0 -57.5 -36t-20.5 -95h-117q0 109 52 177.5t139 68.5q107 0 169 -100q28 -44 71 -44q37 0 57 34.5t20 95.5h117q0 -107 -51 -176t-140 -69q-107 0 -170 99q-28 45 -69 45zM900 1006h220v-1006h-220l-6 160q-45 -85 -134.5 -134t-200.5 -49q-98 0 -184.5 37
t-151.5 103.5t-103 166t-38 218.5q0 118 38 217t103 165.5t152 103.5t184 37q115 0 207 -51.5t134 -141.5v174zM610 172q127 0 212 93t85 237q0 143 -85.5 236t-211.5 93q-127 0 -212.5 -90.5t-85.5 -238.5t85.5 -239t212.5 -91z" />
    <glyph glyph-name="f_t" horiz-adv-x="1355" 
d="M224 0v826h-195v180h195v158q0 68 11.5 122.5t32 93.5t52.5 67t68 45t85 27t96.5 13.5t108.5 3.5v-187h-36t-34 -1.5t-35 -4.5t-31 -9.5t-29.5 -15.5t-23 -23t-19.5 -32.5t-11 -44t-5 -56.5v-156h248q82 0 122.5 37t40.5 115v177h197v-329h219v-180h-219v-508
q0 -69 34.5 -104.5t93.5 -35.5h88v-178h-161q-136 0 -212 77t-76 217v532h-375v-826h-230z" />
    <glyph glyph-name="t_t" horiz-adv-x="1395" 
d="M511 0q-136 0 -212 77t-76 217v532h-201v180h79q143 0 143 132v146h212v-278h292q142 0 142 132v146h212v-278h219v-180h-219v-508q0 -69 34.5 -104.5t93.5 -35.5h88v-178h-161q-136 0 -212 77t-76 217v532h-413v-508q0 -69 34.5 -104.5t93.5 -35.5h88v-178h-161z" />
    <glyph glyph-name="zero.subs" horiz-adv-x="796" 
d="M397 -381q-148 0 -242.5 132.5t-94.5 340.5t94 340.5t243 132.5q150 0 244.5 -132t94.5 -341q0 -208 -94.5 -340.5t-244.5 -132.5zM398 -240q83 0 138 92.5t55 239.5q0 148 -54.5 240t-138.5 92q-83 0 -137.5 -92.5t-54.5 -239.5t54.5 -239.5t137.5 -92.5z" />
    <glyph glyph-name="one.subs" horiz-adv-x="480" 
d="M217 553h133v-922h-142v783l-206 -160v140z" />
    <glyph glyph-name="two.subs" horiz-adv-x="719" 
d="M186 -254h480v-115h-629v136q149 113 244.5 195t143 140.5t63.5 97.5t16 80q0 87 -43.5 127t-108.5 38q-73 -3 -111 -49.5t-38 -119.5h-149q-1 127 86 209t220 82q124 0 202.5 -74t80.5 -196q2 -128 -102.5 -256t-354.5 -295z" />
    <glyph glyph-name="three.subs" horiz-adv-x="698" 
d="M497 139q68 -34 106.5 -93.5t38.5 -136.5q0 -121 -87.5 -205.5t-218.5 -84.5q-126 0 -213 77.5t-87 192.5h140q2 -67 49.5 -107.5t114.5 -40.5q72 0 116.5 45t44.5 119q0 73 -45.5 116.5t-121.5 43.5h-64v112h55q63 0 100.5 37t37.5 101q0 62 -36 97t-94 35
q-57 0 -94 -35t-39 -101l-138 1q0 112 76.5 182.5t192.5 70.5q112 0 186 -69t74 -174q0 -119 -94 -183z" />
    <glyph glyph-name="four.subs" horiz-adv-x="727" 
d="M676 -63v-111h-99v-195h-139v195h-430v119l383 608h186v-616h99zM134 -63h304v500z" />
    <glyph glyph-name="five.subs" horiz-adv-x="765" 
d="M376 227q169 0 249.5 -79.5t80.5 -217.5q0 -139 -91.5 -224t-230.5 -85q-132 0 -223.5 69t-102.5 200h146q10 -74 60 -111t116 -37q82 0 131.5 51t49.5 133q0 185 -209 185h-270l89 443h498v-122h-395l-40 -205h142z" />
    <glyph glyph-name="six.subs" horiz-adv-x="713" 
d="M685 -51q2 -95 -43.5 -170.5t-120.5 -115.5t-162 -42q-135 -3 -234.5 83t-102.5 226q-4 112 76 213l313 410h171l-250 -307q26 6 46 6q119 2 211 -87.5t96 -215.5zM359 -245q80 3 135.5 58.5t51.5 136.5q-4 82 -62 133t-137 48q-81 -3 -134.5 -58t-50.5 -139
q3 -82 60.5 -132t136.5 -47z" />
    <glyph glyph-name="seven.subs" horiz-adv-x="640" 
d="M22 553h624v-101l-450 -821h-166l443 789h-451v133z" />
    <glyph glyph-name="eight.subs" horiz-adv-x="732" 
d="M534 141q66 -37 103.5 -99t37.5 -139q0 -120 -88.5 -202t-220.5 -82t-221 82t-89 202q0 77 38 139t104 99q-87 63 -87 188q0 101 72.5 168.5t183.5 67.5q108 0 181 -68t73 -168q0 -125 -87 -188zM367 447q-57 0 -95 -37.5t-38 -94.5q0 -55 38 -93t95 -38q55 0 92.5 38
t37.5 93q0 57 -37.5 94.5t-92.5 37.5zM366 -255q70 0 118 50.5t48 122.5q0 71 -48 119t-118 48q-72 0 -119.5 -48t-47.5 -119q0 -73 48 -123t119 -50z" />
    <glyph glyph-name="nine.subs" horiz-adv-x="714" 
d="M691 254q3 -110 -76 -213l-312 -410h-172l251 308q-23 -7 -48 -7q-118 -2 -210.5 88.5t-96.5 215.5q-2 94 43.5 169t120.5 115.5t162 42.5q135 3 235 -83t103 -226zM367 53q80 3 133.5 58t50.5 139q-3 82 -60.5 132t-136.5 47q-80 -3 -135.5 -58.5t-51.5 -136.5
q4 -83 62.5 -133.5t137.5 -47.5z" />
    <glyph glyph-name="zero.dnom" horiz-adv-x="796" 
d="M397 -12q-149 0 -243 132.5t-94 340.5t94.5 340.5t242.5 132.5q150 0 244.5 -132.5t94.5 -340.5q0 -209 -94.5 -341t-244.5 -132zM398 129q84 0 138.5 92t54.5 240q0 147 -55 239.5t-138 92.5t-137.5 -92.5t-54.5 -239.5t54.5 -239.5t137.5 -92.5z" />
    <glyph glyph-name="one.dnom" horiz-adv-x="480" 
d="M217 922h133v-922h-142v783l-206 -160v140z" />
    <glyph glyph-name="two.dnom" horiz-adv-x="719" 
d="M186 115h480v-115h-629v135q149 113 244.5 195t143 141t63.5 97.5t16 79.5q0 87 -43.5 127.5t-108.5 38.5q-73 -3 -111 -50t-38 -119h-149q-1 127 86 209t220 82q123 0 202 -74.5t81 -195.5q2 -128 -102.5 -256t-354.5 -295z" />
    <glyph glyph-name="three.dnom" horiz-adv-x="698" 
d="M497 508q68 -34 106.5 -93.5t38.5 -136.5q0 -121 -87.5 -205.5t-218.5 -84.5q-126 0 -213 77.5t-87 192.5h140q2 -67 49.5 -107.5t114.5 -40.5q72 0 116.5 44.5t44.5 118.5q0 73 -45 116t-122 43h-64v114h55q63 0 100.5 37t37.5 101q0 62 -36 97t-94 35q-57 0 -94 -35
t-39 -101l-138 1q0 111 77 182t192 71q112 0 186 -69t74 -175q0 -118 -94 -182z" />
    <glyph glyph-name="four.dnom" horiz-adv-x="727" 
d="M676 305v-110h-99v-195h-139v195h-430v118l383 609h186v-617h99zM134 305h304v501z" />
    <glyph glyph-name="five.dnom" horiz-adv-x="765" 
d="M376 596q169 0 249.5 -79.5t80.5 -217.5q0 -139 -91.5 -224t-230.5 -85q-132 0 -223.5 69t-102.5 200h146q10 -74 60 -111t116 -37q82 0 131.5 51t49.5 133q0 184 -209 184h-270l89 444h498v-122h-395l-40 -205h142z" />
    <glyph glyph-name="six.dnom" horiz-adv-x="713" 
d="M685 317q4 -141 -93.5 -232.5t-232.5 -94.5t-234.5 82.5t-102.5 226.5q-4 112 76 213l313 410h171l-251 -307q26 6 47 6q119 2 211 -88t96 -216zM359 124q80 3 135.5 58.5t51.5 135.5q-4 83 -62 134t-137 48q-81 -3 -134.5 -58t-50.5 -139q3 -83 60.5 -132.5t136.5 -46.5
z" />
    <glyph glyph-name="seven.dnom" horiz-adv-x="640" 
d="M22 922h624v-102l-450 -820h-166l443 788h-451v134z" />
    <glyph glyph-name="eight.dnom" horiz-adv-x="732" 
d="M534 509q66 -37 103.5 -99t37.5 -139q0 -119 -88.5 -201t-220.5 -82t-221 82t-89 201q0 77 38 139.5t104 99.5q-87 62 -87 187q0 101 72.5 169t183.5 68q108 0 181 -68.5t73 -168.5q0 -125 -87 -188zM367 816q-57 0 -95 -38t-38 -94t38 -93.5t95 -37.5q55 0 92.5 38
t37.5 93q0 56 -37.5 94t-92.5 38zM366 114q70 0 118 50t48 123q0 71 -48 119t-118 48q-72 0 -119.5 -48t-47.5 -119q0 -73 47.5 -123t119.5 -50z" />
    <glyph glyph-name="nine.dnom" horiz-adv-x="714" 
d="M691 623q3 -110 -76 -213l-312 -410h-172l250 307q-20 -6 -47 -6q-118 -2 -210.5 88t-96.5 215q-4 141 93.5 233t232.5 95t235 -83t103 -226zM367 422q80 3 133.5 58t50.5 138t-60.5 133t-136.5 47q-80 -3 -135.5 -58.5t-51.5 -136.5q4 -83 62.5 -133.5t137.5 -47.5z" />
    <glyph glyph-name="zero.numr" horiz-adv-x="796" 
d="M397 501q-149 0 -243 132.5t-94 340.5t94.5 340.5t242.5 132.5q150 0 244.5 -132.5t94.5 -340.5q0 -209 -94.5 -341t-244.5 -132zM398 642q84 0 138.5 92t54.5 240q0 147 -55 239t-138 92t-137.5 -92t-54.5 -239q0 -148 54.5 -240t137.5 -92z" />
    <glyph glyph-name="one.numr" horiz-adv-x="481" 
d="M218 1426h133v-921h-143l1 783l-206 -160l-1 140z" />
    <glyph glyph-name="two.numr" horiz-adv-x="719" 
d="M186 626h480v-115h-629v135q149 113 244.5 195t143 141t63.5 97.5t16 79.5q0 87 -43.5 127.5t-108.5 38.5q-73 -3 -111 -50t-38 -119h-149q-1 127 86 209t220 82q123 0 202 -74.5t81 -195.5q2 -129 -102.5 -257t-354.5 -294z" />
    <glyph glyph-name="three.numr" horiz-adv-x="698" 
d="M495 1021q69 -34 108 -93.5t39 -136.5q0 -122 -87.5 -206t-217.5 -84q-127 0 -214 77t-87 193h147q0 -67 44.5 -107.5t110.5 -40.5q70 0 114 45t44 119q0 73 -46.5 115.5t-126.5 42.5h-53v114h44q67 0 105 37t38 102q0 60 -35.5 95.5t-89.5 35.5q-56 0 -90.5 -35
t-34.5 -101l-145 1q0 112 76.5 182.5t193.5 70.5q112 0 185.5 -69t73.5 -176q0 -118 -96 -181z" />
    <glyph glyph-name="four.numr" horiz-adv-x="727" 
d="M676 810v-111h-99v-194h-139v194h-430v119l383 608h186v-616h99zM134 810h304v501z" />
    <glyph glyph-name="five.numr" horiz-adv-x="765" 
d="M376 1100q169 0 249.5 -79.5t80.5 -217.5q0 -140 -91.5 -224.5t-230.5 -84.5q-132 0 -223.5 69t-102.5 200h146q10 -75 60 -112t116 -37q82 0 131.5 51.5t49.5 133.5q0 184 -209 184h-270l89 443h498v-121h-395l-40 -205h142z" />
    <glyph glyph-name="six.numr" horiz-adv-x="713" 
d="M685 822q4 -141 -93.5 -232.5t-232.5 -94.5q-135 -4 -234.5 82t-102.5 227q-4 111 76 213l313 409h171l-251 -307q26 6 47 6q119 2 211 -87.5t96 -215.5zM359 629q80 3 135.5 58.5t51.5 135.5q-4 83 -62 134t-137 48q-81 -4 -134.5 -58.5t-50.5 -138.5q3 -83 60.5 -132.5
t136.5 -46.5z" />
    <glyph glyph-name="seven.numr" horiz-adv-x="640" 
d="M22 1426h624v-101l-450 -820h-166l443 788h-451v133z" />
    <glyph glyph-name="eight.numr" horiz-adv-x="732" 
d="M534 1022q66 -37 103.5 -99t37.5 -139q0 -119 -88.5 -201t-220.5 -82t-221 82t-89 201q0 77 38 139.5t104 99.5q-87 61 -87 187q0 101 72.5 169t183.5 68q108 0 181 -68.5t73 -168.5q0 -125 -87 -188zM367 1329q-57 0 -95 -38t-38 -94t38 -93.5t95 -37.5q55 0 92.5 38
t37.5 93q0 56 -37.5 94t-92.5 38zM366 627q70 0 118 50t48 123q0 71 -48 119t-118 48q-72 0 -119.5 -48t-47.5 -119q0 -73 47.5 -123t119.5 -50z" />
    <glyph glyph-name="nine.numr" horiz-adv-x="713" 
d="M360 1447q136 0 233.5 -88t97.5 -229q0 -107 -76 -205l-312 -410h-172l251 308q-25 -7 -52 -7q-118 0 -210.5 92t-92.5 219q0 141 99 230.5t234 89.5zM359 937q80 0 136 53t56 136t-55.5 135t-134.5 52q-80 0 -137 -53t-57 -133q0 -84 57 -137t135 -53z" />
    <glyph glyph-name="zero.sups" horiz-adv-x="796" 
d="M397 975q-149 0 -243 132.5t-94 340.5t94.5 340.5t242.5 132.5q150 0 244.5 -132.5t94.5 -340.5q0 -209 -94.5 -341t-244.5 -132zM398 1116q84 0 138.5 92t54.5 240q0 147 -54.5 239t-138.5 92q-83 0 -137.5 -91.5t-54.5 -239.5t54.5 -240t137.5 -92z" />
    <glyph glyph-name="one.sups" horiz-adv-x="481" 
d="M218 1905h133v-922h-143l1 783l-206 -159l-1 139z" />
    <glyph glyph-name="two.sups" horiz-adv-x="719" 
d="M186 1098h480v-115h-629v135q149 113 244.5 195t143 141t63.5 97.5t16 79.5q0 87 -43.5 127.5t-108.5 38.5q-73 -3 -111 -50t-38 -119h-149q-1 127 86 209t220 82q123 0 202 -74.5t81 -195.5q2 -128 -102.5 -256t-354.5 -295z" />
    <glyph glyph-name="three.sups" horiz-adv-x="698" 
d="M495 1491q69 -34 108 -93.5t39 -136.5q0 -122 -87.5 -206t-217.5 -84q-127 0 -214 77t-87 193h147q0 -67 44.5 -107.5t110.5 -40.5q70 0 114 45t44 119q0 73 -46.5 115.5t-126.5 42.5h-53v114h44q67 0 105 37t38 102q0 60 -35.5 95.5t-89.5 35.5q-56 0 -90.5 -35
t-34.5 -101l-145 1q0 112 76.5 182.5t193.5 70.5q112 0 185.5 -69t73.5 -176q0 -118 -96 -181z" />
    <glyph glyph-name="four.sups" horiz-adv-x="727" 
d="M676 1288v-110h-99v-195h-139v195h-430v118l383 609h186v-617h99zM133 1288h305v501z" />
    <glyph glyph-name="five.sups" horiz-adv-x="765" 
d="M376 1579q169 0 249.5 -79.5t80.5 -217.5q0 -139 -91.5 -224t-230.5 -85q-132 0 -223.5 69t-102.5 200h146q10 -74 60 -111t116 -37q82 0 131.5 51t49.5 133q0 184 -209 184h-270l89 444h498v-122h-395l-40 -205h142z" />
    <glyph glyph-name="six.sups" horiz-adv-x="713" 
d="M685 1300q4 -141 -93.5 -232.5t-232.5 -94.5t-234.5 83t-102.5 226q-4 112 76 213l313 410h171l-250 -307q26 6 46 6q119 2 211 -88t96 -216zM359 1107q80 3 135.5 58.5t51.5 136.5q-4 82 -62 133t-137 48q-81 -3 -134.5 -58t-50.5 -139q3 -82 60.5 -132t136.5 -47z" />
    <glyph glyph-name="seven.sups" horiz-adv-x="640" 
d="M22 1905h624v-102l-450 -820h-166l443 789h-451v133z" />
    <glyph glyph-name="eight.sups" horiz-adv-x="732" 
d="M534 1492q66 -37 103.5 -99t37.5 -139q0 -119 -88.5 -201t-220.5 -82t-221 82t-89 201q0 77 38 139.5t104 99.5q-87 61 -87 187q0 101 72.5 169t183.5 68q108 0 181 -68t73 -169q0 -125 -87 -188zM367 1799q-57 0 -95 -38t-38 -94t38 -93.5t95 -37.5q55 0 92.5 38
t37.5 93q0 56 -37.5 94t-92.5 38zM366 1097q70 0 118 50.5t48 122.5q0 71 -48 119t-118 48q-72 0 -119.5 -48t-47.5 -119q0 -73 48 -123t119 -50z" />
    <glyph glyph-name="nine.sups" horiz-adv-x="714" 
d="M691 1606q3 -110 -76 -213l-312 -410h-172l251 308q-25 -7 -48 -7q-118 -2 -210.5 88t-96.5 215q-4 141 93.5 233t232.5 95t235 -83t103 -226zM367 1405q80 3 133.5 58t50.5 139q-3 82 -60.5 132t-136.5 47q-80 -3 -135.5 -58.5t-51.5 -136.5q4 -83 62.5 -133.5
t137.5 -47.5z" />
    <glyph glyph-name="uni0308.case" 
d="M-668 1536q-59 0 -100.5 41.5t-41.5 99.5t41.5 99.5t100.5 41.5q57 0 99 -41.5t42 -99.5t-42 -99.5t-99 -41.5zM-265 1536q-59 0 -101 41.5t-42 99.5t42 99.5t101 41.5q57 0 98.5 -41.5t41.5 -99.5t-41.5 -99.5t-98.5 -41.5z" />
    <glyph glyph-name="uni0307.case" 
d="M-265 1536q-59 0 -100.5 41.5t-41.5 99.5t41.5 99.5t100.5 41.5q57 0 99 -41.5t42 -99.5t-42 -99.5t-99 -41.5z" />
    <glyph glyph-name="gravecomb.case" 
d="M-194 1567l-225 263l116 84l257 -347h-148z" />
    <glyph glyph-name="acutecomb.case" 
d="M-438 1567l257 347l117 -84l-225 -263h-149z" />
    <glyph glyph-name="uni030B.case" 
d="M-807 1567l257 347l117 -84l-225 -263h-149zM-438 1567l257 347l116 -84l-225 -263h-148z" />
    <glyph glyph-name="uni0302.case" 
d="M-498 1567h-148l219 297h151l219 -297h-148l-147 189z" />
    <glyph glyph-name="uni030C.case" 
d="M-430 1567l-220 297h148l146 -191l147 191h148l-219 -297h-150z" />
    <glyph glyph-name="uni0306.case" 
d="M-458 1567q-163 0 -257.5 68.5t-94.5 213.5h137q0 -85 57.5 -127.5t157.5 -42.5q101 0 159 42.5t58 127.5h136q0 -146 -94.5 -214t-258.5 -68z" />
    <glyph glyph-name="uni030A.case" 
d="M-332 1567q-94 0 -160 66.5t-66 158.5t66 157.5t160 65.5q92 0 157 -65.5t65 -157.5t-65.5 -158.5t-156.5 -66.5zM-332 1670q51 0 86 34.5t35 87.5q0 51 -35.5 87.5t-85.5 36.5q-51 0 -86 -36.5t-35 -87.5q0 -54 34.5 -88t86.5 -34z" />
    <glyph glyph-name="tildecomb.case" 
d="M-335 1569q-62 0 -100 24t-70 64q-19 26 -28 37t-29 23t-42 12q-46 0 -71 -40.5t-25 -105.5h-123q0 113 58 184t158 71t167 -83q3 -3 14.5 -17.5t15.5 -19t14.5 -14.5t18 -14t19 -7.5t23.5 -3.5q45 0 68.5 38.5t23.5 105.5h125q0 -112 -57 -183t-160 -71z" />
    <glyph glyph-name="uni0304.case" 
d="M-814 1567v140h655v-140h-655z" />
    <glyph glyph-name="hookabovecomb.case" 
d="M-343 1536v127q115 22 115 103q0 34 -20.5 55.5t-57.5 21.5q-47 0 -86 -35l-59 83q65 54 153 54q87 0 139 -47.5t52 -124.5q0 -118 -128 -157v-80h-108z" />
    <glyph glyph-name="uni0312.case" 
d="M-268 1884h166l-124 -317h-238z" />
    <glyph glyph-name="uni0338.case" 
d="M-1199 -8l1106 1588l103 -63l-1105 -1587z" />
    <glyph glyph-name="uni03060301" 
d="M-528 1691l257 348l117 -84l-225 -264h-149zM-451 1202q-158 0 -255 88.5t-97 245.5h147q0 -98 55.5 -159.5t149.5 -61.5q95 0 150.5 61.5t55.5 159.5h147q0 -157 -97.5 -245.5t-255.5 -88.5z" />
    <glyph glyph-name="uni03060300" 
d="M-524 1691l-225 264l116 84l257 -348h-148zM-451 1202q-158 0 -255 88.5t-97 245.5h147q0 -98 55.5 -159.5t149.5 -61.5q95 0 150.5 61.5t55.5 159.5h147q0 -157 -97.5 -245.5t-255.5 -88.5z" />
    <glyph glyph-name="uni03060309" 
d="M-502 1625v127q115 22 115 103q0 34 -20.5 55.5t-57.5 21.5q-47 0 -86 -35l-59 83q64 53 153 53q87 0 139 -47.5t52 -124.5q0 -117 -128 -156v-80h-108zM-451 1202q-158 0 -255 88.5t-97 245.5h147q0 -98 55.5 -159.5t149.5 -61.5q95 0 150.5 61.5t55.5 159.5h147
q0 -157 -97.5 -245.5t-255.5 -88.5z" />
    <glyph glyph-name="uni03060303" 
d="M-319 1683q-107 0 -170 99q-28 45 -69 45q-37 0 -57.5 -36t-20.5 -95h-117q0 109 52 177.5t139 68.5q107 0 169 -100q28 -44 71 -44q37 0 57 34.5t20 95.5h117q0 -107 -51 -176t-140 -69zM-451 1202q-158 0 -255 88.5t-97 245.5h147q0 -98 55.5 -159.5t149.5 -61.5
q95 0 150.5 61.5t55.5 159.5h147q0 -157 -97.5 -245.5t-255.5 -88.5z" />
    <glyph glyph-name="uni03020301" 
d="M-430 1691l257 348l117 -84l-225 -264h-149zM-498 1239h-148l219 297h151l219 -297h-148l-147 189z" />
    <glyph glyph-name="uni03020300" 
d="M-426 1691l-225 264l116 84l257 -348h-148zM-498 1239h-148l219 297h151l219 -297h-148l-147 189z" />
    <glyph glyph-name="uni03020309" 
d="M-404 1625v127q115 22 115 103q0 34 -20.5 55.5t-57.5 21.5q-47 0 -86 -35l-59 83q64 53 153 53q87 0 139 -47.5t52 -124.5q0 -117 -128 -156v-80h-108zM-498 1239h-148l219 297h151l219 -297h-148l-147 189z" />
    <glyph glyph-name="uni03020303" 
d="M-221 1683q-107 0 -170 99q-28 45 -69 45q-37 0 -57.5 -36t-20.5 -95h-117q0 109 52 177.5t139 68.5q107 0 169 -100q28 -44 71 -44q37 0 57 34.5t20 95.5h117q0 -107 -51 -176t-140 -69zM-498 1239h-148l219 297h151l219 -297h-148l-147 189z" />
    <glyph glyph-name="uni03060301.case" 
d="M-534 1922l257 347l117 -84l-225 -263h-149zM-458 1567q-163 0 -257.5 68.5t-94.5 213.5h137q0 -85 57.5 -127.5t157.5 -42.5q101 0 159 42.5t58 127.5h136q0 -146 -94.5 -214t-258.5 -68z" />
    <glyph glyph-name="uni03060300.case" 
d="M-530 1922l-225 263l116 84l257 -347h-148zM-458 1567q-163 0 -257.5 68.5t-94.5 213.5h137q0 -85 57.5 -127.5t157.5 -42.5q101 0 159 42.5t58 127.5h136q0 -146 -94.5 -214t-258.5 -68z" />
    <glyph glyph-name="uni03060309.case" 
d="M-508 1891v127q115 22 115 103q0 34 -20.5 55.5t-57.5 21.5q-47 0 -86 -35l-59 83q65 54 153 54q87 0 139 -47.5t52 -124.5q0 -118 -128 -157v-80h-108zM-458 1567q-163 0 -257.5 68.5t-94.5 213.5h137q0 -85 57.5 -127.5t157.5 -42.5q101 0 159 42.5t58 127.5h136
q0 -146 -94.5 -214t-258.5 -68z" />
    <glyph glyph-name="uni03060303.case" 
d="M-311 1924q-62 0 -100 24t-70 64q-19 26 -28 37t-29 23t-42 12q-46 0 -71 -40.5t-25 -105.5h-123q0 113 58 184t158 71t167 -83q3 -3 14.5 -17.5t15.5 -19t14.5 -14.5t18 -14t19 -7.5t23.5 -3.5q45 0 68.5 38.5t23.5 105.5h125q0 -112 -57 -183t-160 -71zM-458 1567
q-163 0 -257.5 68.5t-94.5 213.5h137q0 -85 57.5 -127.5t157.5 -42.5q101 0 159 42.5t58 127.5h136q0 -146 -94.5 -214t-258.5 -68z" />
    <glyph glyph-name="uni03020301.case" 
d="M-430 1960l257 347l117 -84l-225 -263h-149zM-498 1567h-148l219 297h151l219 -297h-148l-147 189z" />
    <glyph glyph-name="uni03020300.case" 
d="M-426 1960l-225 263l116 84l257 -347h-148zM-498 1567h-148l219 297h151l219 -297h-148l-147 189z" />
    <glyph glyph-name="uni03020309.case" 
d="M-404 1929v127q115 22 115 103q0 34 -20.5 55.5t-57.5 21.5q-47 0 -86 -35l-59 83q65 54 153 54q87 0 139 -47.5t52 -124.5q0 -118 -128 -157v-80h-108zM-498 1567h-148l219 297h151l219 -297h-148l-147 189z" />
    <glyph glyph-name="uni03020303.case" 
d="M-207 1962q-62 0 -100 24t-70 64q-19 26 -28 37t-29 23t-42 12q-46 0 -71 -40.5t-25 -105.5h-123q0 113 58 184t158 71t167 -83q3 -3 14.5 -17.5t15.5 -19t14.5 -14.5t18 -14t19 -7.5t23.5 -3.5q45 0 68.5 38.5t23.5 105.5h125q0 -112 -57 -183t-160 -71zM-498 1567h-148
l219 297h151l219 -297h-148l-147 189z" />
    </font>
</defs>
</svg>
