<?xml version="1.0" standalone="no"?>
<!DOCTYPE svg PUBLIC "-//W3C//DTD SVG 1.1//EN" "http://www.w3.org/Graphics/SVG/1.1/DTD/svg11.dtd" >
<svg xmlns="http://www.w3.org/2000/svg" xmlns:xlink="http://www.w3.org/1999/xlink" version="1.1">
<metadata>
Created by FontForge 20161013 at Sun Jul 23 14:11:45 2017
 By ,,,
Copyright (c)2016. Cerebri Sans is a trademark of Alfredo Marco Pradil. All rights reserved.
</metadata>
<defs>
<font id="CerebriSans-SemiBold" horiz-adv-x="0" >
  <font-face 
    font-family="Cerebri Sans SemiBold"
    font-weight="600"
    font-stretch="normal"
    units-per-em="2048"
    panose-1="0 0 7 0 0 0 0 0 0 0"
    ascent="1536"
    descent="-512"
    x-height="1013"
    cap-height="1433"
    bbox="-1654 -569 2817 2338"
    underline-thickness="102"
    underline-position="-388"
    unicode-range="U+0020-FB02"
  />
<missing-glyph horiz-adv-x="1250" 
d="M175 0v1536h900v-1536h-900zM366 191h518v1154h-518v-1154z" />
    <glyph glyph-name="fi" unicode="fi" horiz-adv-x="1280" 
d="M223 1156q0 97 23.5 166.5t62.5 110.5t102.5 64.5t128 31t155.5 7.5v-202h-6q-29 0 -44 -0.5t-42 -4t-42 -9.5t-34.5 -19.5t-29.5 -32t-17.5 -47.5t-7.5 -67v-141h223v-193h-223v-820h-249v820h-197v193h197v143zM999 1193q-62 0 -106 44t-44 105q0 62 44 105.5t106 43.5
q61 0 105 -43.5t44 -105.5q0 -61 -44.5 -105t-104.5 -44zM871 0v1013h251v-1013h-251z" />
    <glyph glyph-name="fl" unicode="fl" horiz-adv-x="1281" 
d="M223 1156q0 97 23.5 166.5t62.5 110.5t102.5 64.5t128 31t155.5 7.5v-202h-6q-29 0 -44 -0.5t-42 -4t-42 -9.5t-34.5 -19.5t-29.5 -32t-17.5 -47.5t-7.5 -67v-141h223v-193h-223v-820h-249v820h-197v193h197v143zM871 1536h252v-1536h-252v1536z" />
    <glyph glyph-name="f_f" unicode="ff" horiz-adv-x="1387" 
d="M223 0v820h-197v193h197v143q0 97 23.5 166.5t62.5 110.5t102.5 64.5t128 31t155.5 7.5v-202h-6q-29 0 -44 -0.5t-42 -4t-42 -9.5t-34.5 -19.5t-29.5 -32t-17.5 -47.5t-7.5 -67v-141h425v143q0 97 23.5 166.5t62.5 110.5t102.5 64.5t128 31t155.5 7.5v-202h-6
q-29 0 -44 -0.5t-42 -4t-42 -9.5t-34.5 -19.5t-29.5 -32t-17.5 -47.5t-7.5 -67v-141h223v-193h-223v-820h-249v820h-425v-820h-249z" />
    <glyph glyph-name=".notdef" horiz-adv-x="1250" 
d="M175 0v1536h900v-1536h-900zM366 191h518v1154h-518v-1154z" />
    <glyph glyph-name=".null" 
 />
    <glyph glyph-name="nonmarkingreturn" horiz-adv-x="682" 
 />
    <glyph glyph-name="space" unicode=" " horiz-adv-x="532" 
 />
    <glyph glyph-name="exclam" unicode="!" horiz-adv-x="664" 
d="M229 440l-24 993h251l-23 -993h-204zM331 -20q-61 0 -104.5 43.5t-43.5 104.5q0 62 43.5 105.5t104.5 43.5q62 0 105.5 -43.5t43.5 -105.5q0 -61 -44 -104.5t-105 -43.5z" />
    <glyph glyph-name="quotedbl" unicode="&#x22;" horiz-adv-x="1042" 
d="M235 783l-30 650h237l-23 -650h-184zM623 783l-23 650h236l-30 -650h-183z" />
    <glyph glyph-name="numbersign" unicode="#" horiz-adv-x="1547" 
d="M320 0l46 333h-279l24 179h280l60 407h-282l29 177h276l50 339h177l-46 -339h345l48 339h179l-48 -339h282l-28 -177h-279l-56 -407h278l-25 -179h-277l-52 -333h-176l47 333h-349l-47 -333h-177zM571 512h346l59 407h-349z" />
    <glyph glyph-name="dollar" unicode="$" horiz-adv-x="1368" 
d="M1231 404q0 -102 -38 -182t-105.5 -130.5t-153 -78t-186.5 -33.5v-136h-105v137q-206 12 -347 118t-172 284l267 62q15 -103 83 -167t169 -79v430q-11 4 -33 10q-56 16 -92.5 28t-87.5 32.5t-84 41t-69.5 51t-57 65t-34.5 81.5t-14 102q0 188 132.5 296.5t339.5 114.5
v131h105v-135q86 -8 160.5 -32.5t138 -67.5t108.5 -110t63 -153l-251 -63q-18 91 -75 143.5t-144 66.5v-398l4 -1q60 -17 97 -28.5t93.5 -33.5t92 -43t76.5 -54t64.5 -70t39.5 -88t16 -111zM434 1045q0 -67 53 -107.5t156 -73.5v370q-92 -8 -150.5 -55.5t-58.5 -133.5z
M748 196q98 8 157 56.5t58 139.5q-1 76 -56 122.5t-159 82.5v-401z" />
    <glyph glyph-name="percent" unicode="%" horiz-adv-x="1648" 
d="M419 810q-133 0 -226.5 94t-93.5 228q0 132 94 226.5t226 94.5q133 0 226.5 -94.5t93.5 -226.5q0 -133 -93.5 -227.5t-226.5 -94.5zM336 -1l754 1435h213l-755 -1435h-212zM419 980q65 0 108.5 44t43.5 108q0 63 -44.5 107.5t-107.5 44.5t-107.5 -44.5t-44.5 -107.5
q0 -64 44.5 -108t107.5 -44zM1231 -17q-135 0 -229 93.5t-94 227.5q0 133 94.5 227t228.5 94q131 0 224.5 -94t93.5 -227q0 -132 -93 -226.5t-225 -94.5zM1231 153q62 0 107 44.5t45 106.5q0 63 -45 107.5t-107 44.5q-65 0 -109.5 -44t-44.5 -108q0 -62 45 -106.5t109 -44.5
z" />
    <glyph glyph-name="ampersand" unicode="&#x26;" horiz-adv-x="1559" 
d="M1445 0h-289l-101 129q-210 -149 -463 -149q-216 0 -352 108t-136 302q0 62 17 115t44 95t78.5 87t103.5 81.5t136 89.5l-5 6q-77 100 -109 168.5t-32 133.5q0 135 107 213q100 74 259 74q167 0 269.5 -80t102.5 -210q0 -96 -65 -177.5t-213 -171.5l281 -353
q121 178 121 371h227q0 -149 -54 -291.5t-151 -258.5zM609 1251q-36 -34 -36 -91q0 -38 19 -74t71 -103l19 -24q169 103 169 207q0 55 -40.5 88t-101.5 33q-63 0 -100 -36zM602 187q175 0 321 110l-318 405q-60 -37 -92 -58t-71.5 -52.5t-59 -58t-33 -62t-13.5 -75.5
q0 -102 72.5 -155.5t193.5 -53.5z" />
    <glyph glyph-name="quotesingle" unicode="'" horiz-adv-x="650" 
d="M232 783l-23 650h235l-29 -650h-183z" />
    <glyph glyph-name="parenleft" unicode="(" horiz-adv-x="691" 
d="M523 -486q-199 140 -313 432t-114 672q0 379 114 672.5t313 432.5l141 -168q-156 -104 -249.5 -355.5t-93.5 -581.5q0 -331 93.5 -581t249.5 -354z" />
    <glyph glyph-name="parenright" unicode=")" horiz-adv-x="691" 
d="M168 -486l-141 169q156 104 249.5 354t93.5 581q0 330 -93.5 581.5t-249.5 355.5l141 168q199 -139 313 -432.5t114 -672.5q0 -380 -114 -672t-313 -432z" />
    <glyph glyph-name="asterisk" unicode="*" horiz-adv-x="999" 
d="M370 841l-120 73l156 198q20 25 10.5 42.5t-41.5 12.5l-254 -33v139l254 -34q31 -4 41 13.5t-10 42.5l-156 201l120 69l98 -234q11 -31 32 -31t32 31l96 234l123 -69l-159 -201q-20 -25 -10 -42.5t43 -13.5l253 34v-139l-253 33q-33 5 -43 -12t12 -43l157 -198l-123 -73
l-96 235q-11 31 -32 31t-32 -31z" />
    <glyph glyph-name="plus" unicode="+" horiz-adv-x="1199" 
d="M504 206v392h-393v193h393v391h193v-391h391v-193h-391v-392h-193z" />
    <glyph glyph-name="comma" unicode="," horiz-adv-x="664" 
d="M337 -366h-179l125 643h257z" />
    <glyph glyph-name="hyphen" unicode="-" horiz-adv-x="1026" 
d="M154 428v209h717v-209h-717z" />
    <glyph glyph-name="period" unicode="." horiz-adv-x="660" 
d="M329 -20q-60 0 -104 43.5t-44 104.5t44 105t104 44q61 0 105 -44t44 -105t-44 -104.5t-105 -43.5z" />
    <glyph glyph-name="slash" unicode="/" horiz-adv-x="1196" 
d="M-18 -395l995 1931h237l-995 -1931h-237z" />
    <glyph glyph-name="zero" unicode="0" horiz-adv-x="1200" 
d="M601 -20q-244 0 -375 186t-131 551t130.5 550t375.5 185q244 0 374.5 -185t130.5 -550t-131 -551t-374 -186zM601 207q122 0 188.5 126t66.5 384q0 259 -67 384t-188 125q-122 0 -188.5 -124.5t-66.5 -384.5q0 -510 255 -510z" />
    <glyph glyph-name="one" unicode="1" horiz-adv-x="1200" 
d="M577 1433h237v-1433h-249v1172l-334 -304v260z" />
    <glyph glyph-name="two" unicode="2" horiz-adv-x="1200" 
d="M451 224h645v-224h-996v188l571 586q138 141 138 270q0 97 -58.5 151.5t-158.5 54.5q-104 0 -164.5 -61t-60.5 -194v-106l-248 25v77q0 223 127.5 343t344.5 120q205 0 334.5 -109.5t129.5 -300.5q0 -109 -46.5 -200t-147.5 -196z" />
    <glyph glyph-name="three" unicode="3" horiz-adv-x="1200" 
d="M595 -20q-259 0 -380.5 130.5t-121.5 393.5l255 12q0 -82 10 -136.5t36.5 -97t76 -62.5t124.5 -20q119 0 186.5 64t67.5 168q0 110 -65 170t-169 60h-61v198h58q78 0 131 56t53 140q0 83 -57.5 131t-148.5 48q-59 0 -99.5 -20t-61 -57t-28.5 -78.5t-8 -95.5l-253 11
q0 221 118 339t330 118q191 0 316 -108t125 -268q0 -106 -56 -185t-131 -112q111 -31 186 -121.5t75 -236.5q0 -200 -140 -320.5t-368 -120.5z" />
    <glyph glyph-name="four" unicode="4" horiz-adv-x="1200" 
d="M1151 501v-224h-188v-277h-250v277h-668v225l536 931h382v-932h188zM284 501h429v775z" />
    <glyph glyph-name="five" unicode="5" horiz-adv-x="1200" 
d="M570 927q272 0 406.5 -116.5t134.5 -337.5q0 -222 -137 -357.5t-360 -135.5q-101 0 -191.5 30.5t-159.5 86.5t-109.5 142t-40.5 191q0 30 5 72l250 14q-7 -46 -7 -69q0 -118 72 -177.5t175 -59.5q118 0 185 70t67 184q0 253 -328 253h-371l69 715h815v-225h-594l-27 -280
h146z" />
    <glyph glyph-name="six" unicode="6" horiz-adv-x="1200" 
d="M1116 480q1 -143 -70 -258t-189.5 -177.5t-258.5 -62.5q-220 0 -369 140.5t-149 352.5q0 176 126 348l458 610h285l-380 -489q49 7 85 7q90 0 173 -33.5t147 -93t102.5 -149t39.5 -195.5zM591 208q123 0 202 77t79 201q0 126 -78 203.5t-202 77.5q-121 0 -198.5 -81
t-78.5 -201q-1 -126 75 -201.5t201 -75.5z" />
    <glyph glyph-name="seven" unicode="7" horiz-adv-x="1200" 
d="M106 1433h1000v-197l-665 -1236h-284l668 1209h-719v224z" />
    <glyph glyph-name="eight" unicode="8" horiz-adv-x="1200" 
d="M602 -20q-222 0 -366 119.5t-144 318.5q0 129 64 225t176 147q-80 48 -126 123t-46 167q0 165 124.5 268.5t317.5 103.5q190 0 313.5 -104t123.5 -268q0 -92 -44.5 -167t-122.5 -123q111 -51 175 -147t64 -225q0 -199 -144 -318.5t-365 -119.5zM602 865q87 0 148 58
t61 142q0 83 -61 139.5t-148 56.5q-89 0 -150 -56.5t-61 -139.5q0 -85 61 -142.5t150 -57.5zM602 206q111 0 184.5 66t73.5 177q0 109 -73.5 174.5t-184.5 65.5q-113 0 -186.5 -65.5t-73.5 -174.5q0 -111 74 -177t186 -66z" />
    <glyph glyph-name="nine" unicode="9" horiz-adv-x="1200" 
d="M601 1451q219 0 368 -140.5t149 -353.5q0 -175 -127 -347l-457 -610h-287l378 489q-38 -7 -82 -7q-121 0 -224.5 56.5t-169.5 165.5t-67 249q-1 108 40.5 202t112.5 158t166 101t200 37zM883 947q1 126 -75 201.5t-201 75.5q-122 0 -202 -76.5t-80 -200.5q1 -125 79 -203
t203 -78q121 0 198 80.5t78 200.5z" />
    <glyph glyph-name="colon" unicode=":" horiz-adv-x="638" 
d="M317 649q-60 0 -104 44t-44 105q0 60 44 104t104 44q61 0 105.5 -44t44.5 -104q0 -61 -44 -105t-106 -44zM317 -20q-60 0 -104 43.5t-44 104.5t44 105t104 44q61 0 105.5 -44t44.5 -105t-44 -104.5t-106 -43.5z" />
    <glyph glyph-name="semicolon" unicode=";" horiz-adv-x="661" 
d="M358 649q-61 0 -105 44t-44 105q0 60 44 104t105 44t105.5 -44t44.5 -104q0 -61 -44.5 -105t-105.5 -44zM124 -366l124 643h258l-203 -643h-179z" />
    <glyph glyph-name="less" unicode="&#x3c;" horiz-adv-x="1359" 
d="M1227 1424v-214l-931 -470l931 -470v-217l-1130 572v231z" />
    <glyph glyph-name="equal" unicode="=" horiz-adv-x="1317" 
d="M237 817v194h843v-194h-843zM237 389v193h843v-193h-843z" />
    <glyph glyph-name="greater" unicode="&#x3e;" horiz-adv-x="1359" 
d="M132 1424l1130 -568v-231l-1130 -572v217l931 470l-931 470v214z" />
    <glyph glyph-name="question" unicode="?" horiz-adv-x="1059" 
d="M422 429v113q0 94 46.5 147t149.5 104q127 63 127 221q0 110 -62 171t-162 61t-162.5 -64t-62.5 -165q0 -33 11 -86l-222 27q-6 40 -6 79q0 184 122 300t316 116q197 0 322.5 -118t125.5 -315q0 -153 -69 -245t-174 -133q-49 -20 -72.5 -48t-23.5 -76v-89h-204zM529 -20
q-62 0 -105.5 43.5t-43.5 104.5t44.5 104.5t104.5 43.5t103 -43.5t43 -104.5t-43 -104.5t-103 -43.5z" />
    <glyph glyph-name="at" unicode="@" horiz-adv-x="1781" 
d="M894 -213q-209 0 -385 102t-278.5 278.5t-102.5 386.5q0 155 58.5 296t159.5 244t244.5 164t304.5 61q160 0 302 -60.5t243 -163.5t160 -245.5t59 -300.5q0 -106 -26.5 -186t-72.5 -125t-101.5 -66.5t-119.5 -21.5q-187 0 -260 123h-12q-45 -59 -112.5 -88.5
t-143.5 -29.5q-107 0 -179.5 55.5t-72.5 158.5q0 44 15.5 80.5t40.5 61t62 43.5t73 30.5t82 21.5l201 44v42q0 127 -139 127q-134 0 -156 -119l-168 40q23 97 107 151t217 54q63 0 117 -13.5t101 -44t74 -86.5t27 -134v-244q0 -138 131 -138q166 0 166 248q0 181 -81 327
t-221 227t-312 81q-173 0 -315.5 -83t-222.5 -223t-80 -306q0 -169 82.5 -311.5t225 -225t311.5 -82.5q172 0 322 91l69 -131q-177 -110 -394 -110zM852 284q25 0 50 5t52 18t47.5 33.5t33.5 54t13 75.5v71l-167 -39q-78 -19 -110.5 -45.5t-32.5 -73.5q0 -99 114 -99z" />
    <glyph glyph-name="A" unicode="A" horiz-adv-x="1451" 
d="M1145 0l-110 311h-618l-110 -311h-267l528 1433h316l527 -1433h-266zM495 531h462l-231 653z" />
    <glyph glyph-name="B" unicode="B" horiz-adv-x="1303" 
d="M937 754q275 -73 275 -357q0 -182 -113 -289.5t-322 -107.5h-579v1433h454q216 0 336.5 -104.5t120.5 -283.5q0 -99 -44 -174.5t-128 -116.5zM654 1214h-205v-380h225q93 0 144 54.5t51 139.5q0 83 -56 134.5t-159 51.5zM730 224q115 0 173 57.5t58 143.5
q0 89 -59.5 147.5t-179.5 58.5h-273v-407h281z" />
    <glyph glyph-name="C" unicode="C" horiz-adv-x="1556" 
d="M826 -20q-155 0 -288.5 52t-230.5 146t-152 233t-55 306q0 221 95 389.5t259 257t372 88.5q231 0 407 -111t255 -306l-241 -91q-53 127 -165 197.5t-256 70.5q-99 0 -184.5 -34t-148.5 -96.5t-99 -156.5t-36 -208q0 -229 132.5 -362.5t335.5 -133.5q144 0 256 70.5
t165 197.5l241 -91q-79 -196 -255.5 -307t-406.5 -111z" />
    <glyph glyph-name="D" unicode="D" horiz-adv-x="1479" 
d="M198 0v1433h500q221 0 374.5 -91t227.5 -250.5t74 -374.5q0 -329 -173.5 -523t-502.5 -194h-500zM458 231h228q209 0 312.5 126.5t103.5 359.5t-103.5 359.5t-312.5 126.5h-228v-972z" />
    <glyph glyph-name="E" unicode="E" horiz-adv-x="1130" 
d="M1008 1203h-547v-373h484v-228h-484v-371h547v-231h-810v1433h810v-230z" />
    <glyph glyph-name="F" unicode="F" horiz-adv-x="1093" 
d="M1020 1203h-559v-372h484v-229h-484v-602h-263v1433h822v-230z" />
    <glyph glyph-name="G" unicode="G" horiz-adv-x="1638" 
d="M814 -20q-204 0 -365.5 88t-255 256t-93.5 389q0 223 95 392.5t259 258t372 88.5q205 0 368 -87t256 -249l-229 -122q-59 114 -162 171.5t-233 57.5q-204 0 -335 -134t-131 -370q0 -235 130.5 -372.5t344.5 -137.5q163 0 279 87t143 255h-422v212h670v-763h-207v222
q-71 -116 -193.5 -179t-290.5 -63z" />
    <glyph glyph-name="H" unicode="H" horiz-adv-x="1561" 
d="M1103 1433h260v-1433h-260v604h-644v-604h-261v1433h261v-601h644v601z" />
    <glyph glyph-name="I" unicode="I" horiz-adv-x="656" 
d="M198 0v1433h260v-1433h-260z" />
    <glyph glyph-name="J" unicode="J" horiz-adv-x="998" 
d="M390 -20q-181 0 -357 94l110 216q108 -74 219 -74q200 0 200 257v960h260v-1008q0 -210 -118 -327.5t-314 -117.5z" />
    <glyph glyph-name="K" unicode="K" horiz-adv-x="1407" 
d="M1038 0l-468 627h-112v-627h-260v1433h260v-578h108l465 578h317l-557 -685l579 -748h-332z" />
    <glyph glyph-name="L" unicode="L" horiz-adv-x="970" 
d="M458 231h465v-231h-725v1433h260v-1202z" />
    <glyph glyph-name="M" unicode="M" horiz-adv-x="1939" 
d="M1799 0h-257l-96 1114l-394 -1114h-165l-392 1114l-96 -1114h-258l116 1433h364l348 -976l350 976h365z" />
    <glyph glyph-name="N" unicode="N" horiz-adv-x="1628" 
d="M1171 1433h259v-1433h-294l-680 1071v-1071h-258v1433h291l682 -1063v1063z" />
    <glyph glyph-name="O" unicode="O" horiz-adv-x="1651" 
d="M826 -20q-208 0 -372 89t-259 258t-95 390t95 389.5t259 257t372 88.5q207 0 371 -88.5t259 -257t95 -389.5t-95 -390t-259 -258t-371 -89zM826 220q203 0 335 134t132 363q0 227 -132.5 361t-334.5 134q-99 0 -184.5 -34t-148.5 -96.5t-99 -156.5t-36 -208
q0 -229 132.5 -363t335.5 -134z" />
    <glyph glyph-name="P" unicode="P" horiz-adv-x="1297" 
d="M777 1433q200 0 323 -131.5t123 -324.5q0 -195 -122.5 -322t-323.5 -127h-319v-528h-260v1433h579zM735 747q115 0 175.5 63t60.5 171q0 105 -61 169t-175 64h-277v-467h277z" />
    <glyph glyph-name="Q" unicode="Q" horiz-adv-x="1680" 
d="M1603 -64l-221 -81l-188 209q-162 -84 -363 -84q-209 0 -375 89t-262 258t-96 390t96 389.5t262 257t375 88.5t375 -88.5t262 -257t96 -389.5q0 -317 -192 -520zM356 717q0 -237 134 -372.5t341 -135.5t340.5 135.5t133.5 372.5q0 114 -36.5 208t-100.5 156.5
t-150.5 96.5t-186.5 34q-134 0 -241 -58t-170.5 -171.5t-63.5 -265.5z" />
    <glyph glyph-name="R" unicode="R" horiz-adv-x="1317" 
d="M961 0l-371 636h-131v-636h-261v1433h505q115 0 203 -32.5t141.5 -91t80 -133.5t26.5 -164q0 -142 -78.5 -234.5t-230.5 -124.5l422 -653h-306zM459 1214v-370h205q123 0 182.5 49t59.5 135t-59.5 136t-182.5 50h-205z" />
    <glyph glyph-name="S" unicode="S" horiz-adv-x="1288" 
d="M663 -20q-232 0 -389.5 107t-190.5 297l267 62q18 -120 105.5 -185.5t217.5 -65.5q109 0 179.5 49t69.5 149q0 30 -10.5 56.5t-25.5 46t-43.5 38t-52 31t-64.5 26.5t-69 22.5t-75 22.5q-9 3 -14 4q-57 17 -93 28.5t-87 32.5t-83.5 41t-69 51t-57 65.5t-34.5 81.5t-14 102
q0 129 66.5 223.5t177.5 140.5t252 46q97 0 184.5 -21t163 -63.5t129 -115t73.5 -167.5l-250 -62q-22 108 -97.5 161.5t-188.5 53.5q-106 0 -177 -47.5t-71 -143.5q0 -36 17 -65t43.5 -48.5t70 -38t83 -31t97.5 -28.5q5 -1 8 -2q87 -25 137 -42t124.5 -54t115 -77.5
t71.5 -107t31 -148.5q0 -108 -43 -191.5t-117.5 -133.5t-167 -75t-199.5 -25z" />
    <glyph glyph-name="T" unicode="T" horiz-adv-x="1048" 
d="M1003 1433v-230h-350v-1203h-257v1203h-351v230h958z" />
    <glyph glyph-name="U" unicode="U" horiz-adv-x="1434" 
d="M716 -20q-117 0 -216 32t-173.5 94t-116.5 161.5t-42 225.5v940h260v-905q0 -160 79 -238t209 -78q129 0 209.5 78.5t80.5 237.5v905h259v-940q0 -127 -42 -226t-117 -161t-173.5 -94t-216.5 -32z" />
    <glyph glyph-name="V" unicode="V" horiz-adv-x="1415" 
d="M1100 1433h275l-528 -1433h-281l-526 1433h275l393 -1125z" />
    <glyph glyph-name="W" unicode="W" horiz-adv-x="2131" 
d="M439 0l-386 1433h270l299 -1117l332 1117h222l331 -1117l302 1117h269l-386 -1433h-328l-299 956l-299 -956h-327z" />
    <glyph glyph-name="X" unicode="X" horiz-adv-x="1501" 
d="M38 0l559 748l-540 685h316l378 -498l377 498h316l-540 -685l559 -748h-330l-382 540l-383 -540h-330z" />
    <glyph glyph-name="Y" unicode="Y" horiz-adv-x="1257" 
d="M1231 1433l-471 -748v-685h-261v682l-473 751h290l313 -519l314 519h288z" />
    <glyph glyph-name="Z" unicode="Z" horiz-adv-x="1232" 
d="M406 231h736v-231h-1049v207l724 996h-722v230h1030v-208z" />
    <glyph glyph-name="bracketleft" unicode="[" horiz-adv-x="687" 
d="M158 -512v2048h483v-178h-263v-1692h263v-178h-483z" />
    <glyph glyph-name="backslash" unicode="\" horiz-adv-x="1196" 
d="M977 -395l-995 1931h237l995 -1931h-237z" />
    <glyph glyph-name="bracketright" unicode="]" horiz-adv-x="681" 
d="M523 -512h-483v178h263v1692h-263v178h483v-2048z" />
    <glyph glyph-name="asciicircum" unicode="^" horiz-adv-x="1413" 
d="M1333 302h-212l-414 913l-415 -913h-212l512 1131h229z" />
    <glyph glyph-name="underscore" unicode="_" horiz-adv-x="1333" 
d="M154 -209v209h1024v-209h-1024z" />
    <glyph glyph-name="grave" unicode="`" horiz-adv-x="485" 
d="M286 1210l-226 264l125 90l259 -354h-158z" />
    <glyph glyph-name="a" unicode="a" horiz-adv-x="1098" 
d="M957 284q0 -173 26 -257v-27h-237l-24 114q-55 -67 -142.5 -100.5t-182.5 -33.5q-63 0 -117 15.5t-99 47.5t-70.5 88t-25.5 130q0 76 26 132t78.5 92.5t114.5 59.5t150 41l169 35q51 11 73 31t22 54q0 41 -16 71.5t-43.5 47t-59.5 24t-68 7.5q-185 0 -210 -164l-222 42
q59 298 445 298q65 0 121 -9t111.5 -34t94 -64t62.5 -104t24 -150v-387zM474 153q121 0 188.5 79t67.5 243l-246 -63q-79 -17 -119.5 -47.5t-40.5 -86.5q0 -61 42 -93t108 -32z" />
    <glyph glyph-name="b" unicode="b" horiz-adv-x="1294" 
d="M734 1033q99 0 187 -37t153.5 -104t104 -167t38.5 -220t-38 -220t-104 -167t-154 -104t-187 -37q-110 0 -199 46t-132 128l-7 -151h-238v1536h249l1 -668q45 78 132 121.5t194 43.5zM677 186q124 0 207 87.5t83 231.5t-83 231.5t-207 87.5q-122 0 -205 -89.5t-83 -229.5
t82.5 -229.5t205.5 -89.5z" />
    <glyph glyph-name="c" unicode="c" horiz-adv-x="1154" 
d="M604 -19q-233 0 -382 146t-149 381t149 380t382 145q187 0 317 -94.5t169 -265.5l-231 -28q-27 93 -94.5 141t-162.5 48q-124 0 -202 -90t-78 -236q0 -147 78 -236.5t202 -89.5q95 0 162.5 48t94.5 141l231 -28q-39 -171 -170.5 -266.5t-315.5 -95.5z" />
    <glyph glyph-name="d" unicode="d" horiz-adv-x="1294" 
d="M886 1536h249v-1536h-237l-7 152q-44 -82 -132.5 -128.5t-198.5 -46.5q-99 0 -187 37t-153.5 104t-104 167t-38.5 220t38.5 220t104.5 167t153.5 104t186.5 37q106 0 193.5 -43.5t132.5 -121.5v668zM616 186q124 0 206.5 89.5t82.5 229.5t-83 229.5t-206 89.5
q-124 0 -206.5 -87.5t-82.5 -231.5t82.5 -231.5t206.5 -87.5z" />
    <glyph glyph-name="e" unicode="e" horiz-adv-x="1168" 
d="M1090 523l-4 -62h-764q7 -136 86 -208.5t196 -72.5q82 0 144.5 39t95.5 112l228 -37q-51 -148 -176 -231t-290 -83q-241 0 -385 140t-144 386q0 245 144.5 386.5t376.5 141.5q107 0 195.5 -31.5t155 -93t103.5 -160t38 -226.5zM599 854q-108 0 -178 -56.5t-91 -169.5h512
q-10 110 -75.5 168t-167.5 58z" />
    <glyph glyph-name="f" unicode="f" horiz-adv-x="713" 
d="M695 1334h-6q-29 0 -44 -0.5t-42 -4t-42 -9.5t-34.5 -19.5t-29.5 -32t-17.5 -47.5t-7.5 -67v-141h223v-193h-223v-820h-249v820h-197v193h197v143q0 97 23.5 166.5t62.5 110.5t102.5 64.5t128 31t155.5 7.5v-202z" />
    <glyph glyph-name="g" unicode="g" horiz-adv-x="1264" 
d="M867 1013h239v-945q0 -275 -138 -411t-385 -136q-390 0 -512 313l207 91q44 -105 115.5 -155.5t180.5 -50.5q140 0 210.5 86t70.5 246v139q-46 -71 -133 -114t-190 -43q-193 0 -327.5 141t-134.5 361q0 110 37 204.5t100.5 158t148.5 99.5t179 36q108 0 195.5 -46.5
t130.5 -123.5zM595 238q119 0 201 86.5t82 210.5t-81.5 210.5t-201.5 86.5q-121 0 -202 -84.5t-81 -212.5q0 -127 82 -212t201 -85z" />
    <glyph glyph-name="h" unicode="h" horiz-adv-x="1224" 
d="M729 1033q168 0 262.5 -95.5t94.5 -278.5v-659h-250v616q0 112 -54 163t-142 51q-98 0 -164.5 -61t-67.5 -195v-574h-250v1536h250v-648q112 145 321 145z" />
    <glyph glyph-name="i" unicode="i" horiz-adv-x="567" 
d="M286 1193q-62 0 -106 44t-44 105q0 62 44 105.5t106 43.5q61 0 105 -43.5t44 -105.5q0 -61 -44.5 -105t-104.5 -44zM158 0v1013h251v-1013h-251z" />
    <glyph glyph-name="j" unicode="j" horiz-adv-x="570" 
d="M287 1193q-62 0 -106 44t-44 105q0 62 44 105.5t106 43.5q61 0 105 -43.5t44 -105.5q0 -61 -44.5 -105t-104.5 -44zM-57 -475v200q131 0 173 62.5t42 240.5v985h253v-985q0 -266 -108.5 -384.5t-359.5 -118.5z" />
    <glyph glyph-name="k" unicode="k" horiz-adv-x="1133" 
d="M821 0l-343 439h-68v-439h-252v1536h252v-919h61l329 396h285l-402 -468l445 -545h-307z" />
    <glyph glyph-name="l" unicode="l" horiz-adv-x="568" 
d="M158 0v1536h252v-1536h-252z" />
    <glyph glyph-name="m" unicode="m" horiz-adv-x="1792" 
d="M1305 1033q159 0 253 -84t94 -238v-711h-250v642q0 93 -48.5 140.5t-122.5 47.5q-88 0 -143.5 -58.5t-55.5 -182.5v-589h-253v637q0 96 -48.5 144.5t-125.5 48.5q-87 0 -142.5 -60.5t-55.5 -191.5v-578h-249v1013h249v-122q101 142 288 142q107 0 185 -40t117 -116
q103 156 308 156z" />
    <glyph glyph-name="n" unicode="n" horiz-adv-x="1225" 
d="M718 1033q174 0 271 -91.5t97 -259.5v-682h-250v628q0 104 -54.5 153t-139.5 49q-102 0 -167.5 -62t-66.5 -194v-574h-250v1013h250v-117q109 137 310 137z" />
    <glyph glyph-name="o" unicode="o" horiz-adv-x="1231" 
d="M616 -20q-239 0 -390 142.5t-151 385.5q0 241 150.5 383t390.5 142t390.5 -142t150.5 -383q0 -243 -151 -385.5t-390 -142.5zM613 181q131 0 213.5 90t82.5 237q0 146 -82.5 236t-213.5 90q-127 0 -208.5 -90t-81.5 -236q0 -147 81.5 -237t208.5 -90z" />
    <glyph glyph-name="p" unicode="p" horiz-adv-x="1294" 
d="M733 1033q99 0 187 -36.5t154 -103t104 -167t38 -221.5t-38 -221.5t-104 -167t-154 -103t-187 -36.5q-106 0 -193 44t-132 121v-641h-250v1512h238l7 -154q44 82 132 128t198 46zM678 186q123 0 205.5 87t82.5 232t-82.5 231.5t-205.5 86.5q-124 0 -207 -89.5t-83 -228.5
q0 -140 83 -229.5t207 -89.5z" />
    <glyph glyph-name="q" unicode="q" horiz-adv-x="1293" 
d="M897 1013h238v-1512h-250v639q-45 -77 -132 -120t-193 -43q-99 0 -187 36.5t-153.5 103t-104 167t-38.5 221.5t38.5 221.5t104 167t153.5 103t187 36.5q109 0 198 -46t132 -127zM615 186q124 0 207 89.5t83 229.5q0 139 -83 228.5t-207 89.5q-123 0 -205.5 -86.5
t-82.5 -231.5t82.5 -232t205.5 -87z" />
    <glyph glyph-name="r" unicode="r" horiz-adv-x="748" 
d="M398 847q39 74 130.5 125.5t197.5 52.5v-226q-163 0 -240 -65.5t-77 -224.5v-509h-251v1013h240v-166z" />
    <glyph glyph-name="s" unicode="s" horiz-adv-x="977" 
d="M503 -20q-173 0 -288 72t-141 210l211 60q20 -83 77 -123.5t141 -40.5q69 0 116.5 28t46.5 91q-1 32 -16.5 55.5t-50.5 40.5t-66 27.5t-89 27t-93 28.5q-43 14 -75.5 28t-67.5 37.5t-57 51.5t-36.5 69.5t-14.5 91.5q0 147 107 222.5t277 75.5q155 0 260 -65.5t131 -201.5
l-195 -45q-39 142 -195 142q-66 0 -111 -27t-45 -80q0 -15 3.5 -27.5t13 -23.5t18.5 -19t26 -16.5t29 -13.5t36 -12t37.5 -10.5t41.5 -10.5t42 -11q56 -15 95.5 -29t87.5 -40t77 -57.5t49.5 -81.5t20.5 -112q0 -66 -21.5 -119t-59 -88.5t-89.5 -59t-109.5 -34t-123.5 -10.5z
" />
    <glyph glyph-name="t" unicode="t" horiz-adv-x="764" 
d="M518 0q-141 0 -219 79.5t-78 223.5v517h-201v193h68q83 0 121 40t38 141v149h227v-330h216v-193h-216v-490q0 -69 33 -103.5t92 -34.5h91v-192h-172z" />
    <glyph glyph-name="u" unicode="u" horiz-adv-x="1224" 
d="M816 1013h250v-1013h-237l-7 125q-51 -70 -132.5 -107.5t-183.5 -37.5q-175 0 -271.5 91.5t-96.5 259.5v682h250v-628q0 -103 54.5 -152.5t140.5 -49.5q102 0 167 62t66 194v574z" />
    <glyph glyph-name="v" unicode="v" horiz-adv-x="1084" 
d="M809 1013h264l-425 -1013h-216l-421 1013h263l267 -729z" />
    <glyph glyph-name="w" unicode="w" horiz-adv-x="1700" 
d="M1421 1013h259l-353 -1014h-230l-248 706l-249 -706h-233l-346 1014h258l223 -696l250 696h192l251 -695z" />
    <glyph glyph-name="x" unicode="x" horiz-adv-x="1152" 
d="M18 0l407 508l-407 505h311l248 -342l249 342h308l-408 -507l408 -506h-309l-247 339l-249 -339h-311z" />
    <glyph glyph-name="y" unicode="y" horiz-adv-x="1079" 
d="M808 1013h259l-613 -1490h-254l222 513l-409 977h273l255 -704z" />
    <glyph glyph-name="z" unicode="z" horiz-adv-x="932" 
d="M878 1013l-476 -818h466v-195h-825l473 818h-440v195h802z" />
    <glyph glyph-name="braceleft" unicode="{" horiz-adv-x="666" 
d="M491 -497q-131 0 -208.5 74t-77.5 188v415q0 95 -12.5 142.5t-43 73.5t-98.5 51v143q68 25 98.5 51.5t43 74t12.5 143.5v414q0 115 77.5 189t208.5 74h113v-175h-66q-48 0 -75 -32t-27 -93v-383q0 -53 -4.5 -91t-18 -77.5t-38 -68t-65.5 -54t-99 -43.5q58 -18 99 -43.5
t65.5 -54t38 -68t18 -77.5t4.5 -90v-387q0 -63 24 -92t78 -29h66v-175h-113z" />
    <glyph glyph-name="bar" unicode="|" horiz-adv-x="632" 
d="M237 -307v1843h158v-1843h-158z" />
    <glyph glyph-name="braceright" unicode="}" horiz-adv-x="663" 
d="M172 -497h-113v175h66q54 0 78 29t24 92v387q0 52 4.5 90t18 77.5t38 68t65.5 54t99 43.5q-58 18 -99 43.5t-65.5 54t-38 68t-18 77.5t-4.5 91v383q0 61 -27 93t-75 32h-66v175h113q131 0 208.5 -74t77.5 -189v-414q0 -96 12.5 -143.5t43 -74t98.5 -51.5v-143
q-68 -25 -98.5 -51t-43 -73.5t-12.5 -142.5v-415q0 -114 -77.5 -188t-208.5 -74z" />
    <glyph glyph-name="asciitilde" unicode="~" horiz-adv-x="1399" 
d="M910 328q-32 0 -61 5t-55.5 17.5t-45 22t-41.5 29.5t-32.5 28t-30.5 30t-23 24q-61 65 -115 65q-69 0 -107 -59t-40 -144h-181q-7 172 84 278t249 106q86 0 144.5 -36t116.5 -111q21 -26 34 -39.5t37 -26.5t51 -13q64 0 106 55.5t38 146.5h178q13 -161 -75 -269.5
t-231 -108.5z" />
    <glyph glyph-name="exclamdown" unicode="&#xa1;" horiz-adv-x="664" 
d="M331 1032q61 0 105 -43.5t44 -104.5q0 -62 -43.5 -105.5t-105.5 -43.5q-61 0 -104.5 43.5t-43.5 105.5q0 61 43.5 104.5t104.5 43.5zM229 572h204l23 -993h-251z" />
    <glyph glyph-name="cent" unicode="&#xa2;" horiz-adv-x="1164" 
d="M655 432q70 0 130 36t100 100l172 -150q-129 -168 -340 -194v-224h-150v228q-192 30 -313 179t-121 363t121 363t313 179v224h150v-220q211 -26 340 -194l-172 -149q-40 63 -100 99t-130 36q-121 0 -202.5 -94t-81.5 -244t81.5 -244t202.5 -94z" />
    <glyph glyph-name="sterling" unicode="&#xa3;" horiz-adv-x="1336" 
d="M147 0v154l60 10q92 18 92 117v321h-152v184h152v177q0 216 133.5 354.5t345.5 138.5q79 0 150 -23t129 -67.5t92 -118.5t34 -167q0 -31 -5 -73l-216 -48q11 55 11 91q0 93 -56.5 143.5t-143.5 50.5q-114 0 -178.5 -73.5t-64.5 -207.5v-177h301v-184h-301v-386h642v-216
h-1025z" />
    <glyph glyph-name="currency" unicode="&#xa4;" horiz-adv-x="1395" 
d="M326 237l-132 140l106 105q-80 118 -80 260q0 145 81 262l-105 104l132 140l109 -109q119 81 263 81q143 0 259 -80l108 107l135 -135l-106 -106q80 -118 80 -263q0 -143 -80 -262l104 -104l-132 -140l-109 109q-115 -79 -261 -79q-145 0 -263 79zM698 454
q121 0 204.5 86.5t83.5 204.5t-84 201.5t-203 83.5q-120 0 -204.5 -85.5t-84.5 -205.5t85.5 -202.5t202.5 -82.5z" />
    <glyph glyph-name="yen" unicode="&#xa5;" horiz-adv-x="1437" 
d="M590 0v223h-363v154h363v199h-363v155h331l-452 702h289l324 -521l324 521h288l-451 -702h330v-155h-361v-199h361v-154h-361v-223h-259z" />
    <glyph glyph-name="brokenbar" unicode="&#xa6;" horiz-adv-x="632" 
d="M237 799v737h158v-737h-158zM237 -307v737h158v-737h-158z" />
    <glyph glyph-name="section" unicode="&#xa7;" horiz-adv-x="1316" 
d="M1066 198q95 -92 95 -237q0 -101 -40 -178t-109.5 -123t-157.5 -69t-190 -23q-209 0 -353.5 98.5t-176.5 272.5l220 52q21 -114 107.5 -178t209.5 -64q119 0 194.5 50t74.5 155q0 22 -4.5 41.5t-15.5 37t-21.5 31t-31 27t-34.5 23t-42.5 21t-44.5 18t-50.5 16.5
t-50.5 14.5t-54 15.5q-53 15 -88.5 26t-83 29.5t-78.5 37.5t-65.5 47.5t-54 61t-32.5 76.5t-13 96q0 156 106 251q-106 89 -106 239q0 122 62.5 209.5t165 129.5t232.5 42q92 0 173.5 -19.5t151 -59t118 -105.5t67.5 -153l-209 -54q-22 106 -99.5 158t-191.5 52
q-68 0 -123 -19t-92 -64.5t-37 -113.5q0 -27 9.5 -50.5t22.5 -40.5t39.5 -33.5t47 -27t60 -23.5t63 -20t70.5 -20q46 -13 72 -20.5t70.5 -22.5t70.5 -27t63.5 -31.5t59.5 -39t47.5 -47.5t39 -58.5t23 -69.5t9.5 -83q0 -156 -95 -254zM394 577q0 -27 9.5 -50.5t22 -40.5
t39.5 -34t47 -27t60.5 -23.5t62.5 -20t71 -19.5q114 -31 176 -55q59 48 58 136q-1 43 -20 77t-47 56.5t-76 43.5t-88.5 33.5t-102.5 30.5q-10 3 -15 4q-83 25 -111 34q-86 -46 -86 -145z" />
    <glyph glyph-name="dieresis" unicode="&#xa8;" horiz-adv-x="947" 
d="M268 1193q-62 0 -106 44t-44 105q0 62 44 105.5t106 43.5q61 0 105 -43.5t44 -105.5q0 -61 -44.5 -105t-104.5 -44zM680 1193q-62 0 -106 44t-44 105q0 62 44 105.5t106 43.5q61 0 105 -43.5t44 -105.5q0 -61 -44.5 -105t-104.5 -44z" />
    <glyph glyph-name="copyright" unicode="&#xa9;" horiz-adv-x="1737" 
d="M868 -20q-100 0 -196 26.5t-177 74.5t-149 116t-116 149t-74.5 177t-26.5 196q0 150 58.5 287t157.5 236t236 158t287 59q201 0 371.5 -99.5t270 -270t99.5 -370.5q0 -150 -59 -287t-158 -236t-236.5 -157.5t-287.5 -58.5zM868 117q165 0 303.5 80t218.5 218.5t80 303.5
t-80 304t-218.5 219t-303.5 80t-303.5 -80t-218.5 -219t-80 -304t80 -303.5t218.5 -218.5t303.5 -80zM870 300q-171 0 -293.5 122t-122.5 295t121.5 294.5t294.5 121.5q95 0 180.5 -40.5t142.5 -111.5l-115 -93q-77 100 -208 100q-112 0 -188.5 -77.5t-76.5 -193.5
q0 -115 76.5 -192.5t188.5 -77.5q131 0 208 99l115 -93q-57 -72 -142.5 -112.5t-180.5 -40.5z" />
    <glyph glyph-name="ordfeminine" unicode="&#xaa;" horiz-adv-x="956" 
d="M635 1433h146v-615h-146v99q-83 -111 -222 -111q-128 0 -217.5 93t-89.5 227q0 133 89.5 226t217.5 93q139 0 222 -111v99zM443 934q79 0 135.5 56t56.5 136q0 79 -56.5 134.5t-135.5 55.5t-135 -55.5t-56 -134.5q0 -80 55.5 -136t135.5 -56z" />
    <glyph glyph-name="guillemotleft" unicode="&#xab;" horiz-adv-x="1069" 
d="M364 260l-312 376l312 377h203l-311 -377l311 -376h-203zM800 260l-311 376l311 377h205l-311 -377l311 -376h-205z" />
    <glyph glyph-name="logicalnot" unicode="&#xac;" horiz-adv-x="1670" 
d="M1230 285v524h-1112v204h1315v-728h-203z" />
    <glyph glyph-name="uni00AD" unicode="&#xad;" horiz-adv-x="1026" 
d="M154 437v218h717v-218h-717z" />
    <glyph glyph-name="registered" unicode="&#xae;" horiz-adv-x="1772" 
d="M885 1459q201 0 371.5 -99.5t270 -270t99.5 -370.5q0 -150 -59 -287t-158 -236t-236.5 -157.5t-287.5 -58.5q-100 0 -196 26.5t-177 74.5t-149 116t-116 149t-74.5 177t-26.5 196q0 150 58.5 287t157.5 236t236 158t287 59zM885 117q166 0 304.5 80t218.5 218.5t80 303.5
t-80 304t-218.5 219t-304.5 80q-165 0 -303 -80t-218 -219t-80 -304t80 -303.5t218 -218.5t303 -80zM1208 894q0 -73 -37 -131t-100 -87l164 -376h-163l-144 352h-150v-352h-149v839h334q103 0 174 -71.5t71 -173.5zM778 1006v-229h163q52 0 87 33t35 81q0 50 -34.5 82.5
t-87.5 32.5h-163z" />
    <glyph glyph-name="macron" unicode="&#xaf;" horiz-adv-x="967" 
d="M154 1237v150h658v-150h-658z" />
    <glyph glyph-name="degree" unicode="&#xb0;" horiz-adv-x="939" 
d="M469 853q-125 0 -212.5 87.5t-87.5 212.5t87.5 212.5t212.5 87.5t212.5 -87.5t87.5 -212.5t-87.5 -212.5t-212.5 -87.5zM469 993q67 0 113 46.5t46 113.5t-46 113t-113 46t-113 -46t-46 -113t46 -113.5t113 -46.5z" />
    <glyph glyph-name="plusminus" unicode="&#xb1;" horiz-adv-x="1256" 
d="M535 358v392h-391v193h391v392h194v-392h391v-193h-391v-392h-194zM133 1v194h978v-194h-978z" />
    <glyph glyph-name="acute" unicode="&#xb4;" horiz-adv-x="485" 
d="M41 1210l259 354l125 -90l-225 -264h-159z" />
    <glyph glyph-name="uni00B5" unicode="&#xb5;" horiz-adv-x="1354" 
d="M953 1013h218v-1013h-218v136q-57 -73 -139 -114.5t-176 -41.5q-110 0 -203 55v-547h-198v1525h218v-599q0 -101 71 -171.5t172 -70.5q107 0 181 70.5t74 171.5v599z" />
    <glyph glyph-name="paragraph" unicode="&#xb6;" horiz-adv-x="1192" 
d="M503 -307v1054h-48q-171 0 -268 89t-97 255q0 165 97 253.5t268 88.5h177v-1740h-129zM824 -307v1740h131v-1740h-131z" />
    <glyph glyph-name="periodcentered" unicode="&#xb7;" horiz-adv-x="602" 
d="M301 624q-46 0 -79.5 33t-33.5 80q0 46 33.5 79.5t79.5 33.5q45 0 79 -34t34 -79q0 -47 -34 -80t-79 -33z" />
    <glyph glyph-name="cedilla" unicode="&#xb8;" horiz-adv-x="599" 
d="M303 -532q-81 0 -146.5 41t-91.5 103l113 42q17 -31 51 -49.5t69 -18.5q43 0 73 28t30 73q0 46 -30 72t-76 26q-45 0 -76 -27l-95 57l117 222h123l-88 -165q30 6 48 6q85 0 141 -53.5t56 -137.5q0 -92 -63 -155.5t-155 -63.5z" />
    <glyph glyph-name="ordmasculine" unicode="&#xba;" horiz-adv-x="879" 
d="M438 814q-140 0 -238 93t-98 227q0 133 98 226t238 93q141 0 239.5 -93t98.5 -226q0 -134 -98 -227t-240 -93zM438 942q80 0 136 56t56 136q0 79 -56 134.5t-136 55.5q-79 0 -135 -55.5t-56 -134.5t56 -135.5t135 -56.5z" />
    <glyph glyph-name="guillemotright" unicode="&#xbb;" horiz-adv-x="1069" 
d="M64 260l311 376l-311 377h203l311 -377l-311 -376h-203zM501 260l311 376l-311 377h204l311 -377l-311 -376h-204z" />
    <glyph glyph-name="onequarter" unicode="&#xbc;" horiz-adv-x="1586" 
d="M355 511h-153l2 776l-202 -156l-1 147l213 155h141v-922zM1020 1433h165l-808 -1433h-165zM1537 311v-116h-99v-195h-147v195h-427v128l377 599h197v-611h99zM994 311h297v490z" />
    <glyph glyph-name="onehalf" unicode="&#xbd;" horiz-adv-x="1635" 
d="M355 511h-153l2 776l-202 -156l-1 147l213 155h141v-922zM1020 1433h165l-808 -1433h-165zM1111 121h471v-121h-629v144q147 107 242 188t141 138.5t62 96t16 79.5q0 86 -42 125t-104 36q-71 -3 -107 -49t-36 -116h-158q-1 128 87 211t223 83q125 0 204 -75t81 -197
q2 -131 -103.5 -261t-347.5 -282z" />
    <glyph glyph-name="threequarters" unicode="&#xbe;" horiz-adv-x="1803" 
d="M645 798q0 -122 -88 -206.5t-220 -84.5q-129 0 -216.5 77.5t-87.5 192.5h157q0 -65 42.5 -103.5t105.5 -38.5q68 0 110 43.5t42 116.5q0 71 -45 111t-124 40h-49v120h40q67 0 103.5 36t36.5 100q0 59 -33.5 93t-86.5 34q-55 0 -87.5 -33.5t-32.5 -99.5l-154 1
q0 114 77.5 185t196.5 71q114 0 188 -69.5t74 -177.5q0 -118 -93 -180q69 -34 106.5 -92.5t37.5 -135.5zM1237 1433h165l-808 -1433h-165zM1754 311v-116h-99v-195h-147v195h-427v128l377 599h197v-611h99zM1211 311h297v490z" />
    <glyph glyph-name="questiondown" unicode="&#xbf;" horiz-adv-x="1059" 
d="M515 1033q62 0 105.5 -43.5t43.5 -104.5t-44.5 -104.5t-104.5 -43.5t-103 43.5t-43 104.5t43 104.5t103 43.5zM622 584v-113q0 -94 -46.5 -147t-149.5 -104q-127 -63 -127 -221q0 -110 62 -171t162 -61t162.5 64t62.5 165q0 33 -11 86l222 -27q6 -40 6 -79
q0 -184 -122 -300t-316 -116q-197 0 -322.5 118t-125.5 315q0 153 69 245t174 133q49 20 72.5 48t23.5 76v89h204z" />
    <glyph glyph-name="Agrave" unicode="&#xc0;" horiz-adv-x="1451" 
d="M806 1571h-158l-226 265l125 89zM1145 0l-110 311h-618l-110 -311h-267l528 1433h316l527 -1433h-266zM495 531h462l-231 653z" />
    <glyph glyph-name="Aacute" unicode="&#xc1;" horiz-adv-x="1451" 
d="M1028 1836l-225 -265h-159l259 354zM1145 0l-110 311h-618l-110 -311h-267l528 1433h316l527 -1433h-266zM495 531h462l-231 653z" />
    <glyph glyph-name="Acircumflex" unicode="&#xc2;" horiz-adv-x="1451" 
d="M726 1753l-144 -182h-157l222 298h158l222 -298h-158zM1145 0l-110 311h-618l-110 -311h-267l528 1433h316l527 -1433h-266zM495 531h462l-231 653z" />
    <glyph glyph-name="Atilde" unicode="&#xc3;" horiz-adv-x="1451" 
d="M605 1732q-45 0 -68.5 -39t-23.5 -103h-132q0 115 59 187t161 72q103 0 167 -80q4 -5 17.5 -21t20 -22t18 -16t23.5 -13.5t26 -3.5q43 0 65 37.5t22 103.5h135q0 -113 -58.5 -185.5t-163.5 -72.5q-63 0 -100.5 23t-69.5 62q-20 27 -28.5 37t-28 22t-41.5 12zM1145 0
l-110 311h-618l-110 -311h-267l528 1433h316l527 -1433h-266zM495 531h462l-231 653z" />
    <glyph glyph-name="Adieresis" unicode="&#xc4;" horiz-adv-x="1451" 
d="M520 1536q-62 0 -106 44t-44 106q0 61 44 104.5t106 43.5q60 0 104.5 -43.5t44.5 -104.5q0 -62 -44.5 -106t-104.5 -44zM932 1536q-62 0 -106 44t-44 106q0 61 44 104.5t106 43.5q60 0 104.5 -43.5t44.5 -104.5q0 -62 -44.5 -106t-104.5 -44zM1145 0l-110 311h-618
l-110 -311h-267l528 1433h316l527 -1433h-266zM495 531h462l-231 653z" />
    <glyph glyph-name="Aring" unicode="&#xc5;" horiz-adv-x="1451" 
d="M726 1571q-96 0 -163.5 68t-67.5 162q0 95 67.5 161.5t163.5 66.5q94 0 160.5 -67t66.5 -161t-67 -162t-160 -68zM726 1924q-50 0 -84.5 -36.5t-34.5 -86.5q0 -53 34 -86.5t85 -33.5t85.5 33.5t34.5 86.5q0 50 -35 86.5t-85 36.5zM1145 0l-110 311h-618l-110 -311h-267
l528 1433h316l527 -1433h-266zM495 531h462l-231 653z" />
    <glyph glyph-name="AE" unicode="&#xc6;" horiz-adv-x="1845" 
d="M40 0l504 1433h1179v-231h-577v-371h501v-230h-501v-370h577v-231h-837v311h-471l-104 -311h-271zM489 531h397v672h-174z" />
    <glyph glyph-name="Ccedilla" unicode="&#xc7;" horiz-adv-x="1556" 
d="M826 221q144 0 256 70.5t165 197.5l241 -91q-74 -184 -235.5 -294t-374.5 -122l-58 -110q30 6 48 6q85 0 141 -53.5t56 -137.5q0 -92 -63 -155.5t-155 -63.5q-81 0 -146.5 41t-91.5 103l113 42q17 -31 51 -49.5t69 -18.5q43 0 73 28t30 73q0 46 -30 72t-76 26
q-45 0 -76 -27l-95 57l88 168q-142 11 -262.5 67.5t-208 150t-136.5 226.5t-49 290q0 221 95 389.5t259 257t372 88.5q231 0 407 -111t255 -306l-241 -91q-53 127 -165 197.5t-256 70.5q-99 0 -184.5 -34t-148.5 -96.5t-99 -156.5t-36 -208q0 -229 132.5 -362.5
t335.5 -133.5z" />
    <glyph glyph-name="Egrave" unicode="&#xc8;" horiz-adv-x="1130" 
d="M689 1571h-158l-226 265l125 89zM1008 1203h-547v-373h484v-228h-484v-371h547v-231h-810v1433h810v-230z" />
    <glyph glyph-name="Eacute" unicode="&#xc9;" horiz-adv-x="1130" 
d="M911 1836l-225 -265h-159l259 354zM1008 1203h-547v-373h484v-228h-484v-371h547v-231h-810v1433h810v-230z" />
    <glyph glyph-name="Ecircumflex" unicode="&#xca;" horiz-adv-x="1130" 
d="M609 1753l-144 -182h-157l222 298h158l222 -298h-158zM1008 1203h-547v-373h484v-228h-484v-371h547v-231h-810v1433h810v-230z" />
    <glyph glyph-name="Edieresis" unicode="&#xcb;" horiz-adv-x="1130" 
d="M403 1536q-62 0 -106 44t-44 106q0 61 44 104.5t106 43.5q60 0 104.5 -43.5t44.5 -104.5q0 -62 -44.5 -106t-104.5 -44zM815 1536q-62 0 -106 44t-44 106q0 61 44 104.5t106 43.5q60 0 104.5 -43.5t44.5 -104.5q0 -62 -44.5 -106t-104.5 -44zM1008 1203h-547v-373h484
v-228h-484v-371h547v-231h-810v1433h810v-230z" />
    <glyph glyph-name="Igrave" unicode="&#xcc;" horiz-adv-x="656" 
d="M249 1571l-226 265l125 89l259 -354h-158zM198 0v1433h260v-1433h-260z" />
    <glyph glyph-name="Iacute" unicode="&#xcd;" horiz-adv-x="656" 
d="M245 1571l259 354l125 -89l-225 -265h-159zM198 0v1433h260v-1433h-260z" />
    <glyph glyph-name="Icircumflex" unicode="&#xce;" horiz-adv-x="656" 
d="M183 1571h-157l222 298h158l222 -298h-158l-143 182zM198 0v1433h260v-1433h-260z" />
    <glyph glyph-name="Idieresis" unicode="&#xcf;" horiz-adv-x="656" 
d="M121 1536q-62 0 -106 44t-44 106q0 61 44 104.5t106 43.5q60 0 104.5 -43.5t44.5 -104.5q0 -62 -44.5 -106t-104.5 -44zM533 1536q-62 0 -106 44t-44 106q0 61 44 104.5t106 43.5q60 0 104.5 -43.5t44.5 -104.5q0 -62 -44.5 -106t-104.5 -44zM198 0v1433h260v-1433h-260z
" />
    <glyph glyph-name="Eth" unicode="&#xd0;" horiz-adv-x="1479" 
d="M698 1433q221 0 374.5 -91t227.5 -250.5t74 -374.5q0 -329 -173.5 -523t-502.5 -194h-500v639h-158v156h158v638h500zM686 231q209 0 312.5 126.5t103.5 359.5t-103.5 359.5t-312.5 126.5h-228v-408h244v-156h-244v-408h228z" />
    <glyph glyph-name="Ntilde" unicode="&#xd1;" horiz-adv-x="1628" 
d="M694 1732q-45 0 -68.5 -39t-23.5 -103h-132q0 115 59 187t161 72q103 0 167 -80q4 -5 17.5 -21t20 -22t18 -16t23.5 -13.5t26 -3.5q43 0 65 37.5t22 103.5h135q0 -113 -58.5 -185.5t-163.5 -72.5q-63 0 -100.5 23t-69.5 62q-20 27 -28.5 37t-28 22t-41.5 12zM1171 1433
h259v-1433h-294l-680 1071v-1071h-258v1433h291l682 -1063v1063z" />
    <glyph glyph-name="Ograve" unicode="&#xd2;" horiz-adv-x="1651" 
d="M748 1571l-226 265l125 89l259 -354h-158zM826 -20q-208 0 -372 89t-259 258t-95 390t95 389.5t259 257t372 88.5q207 0 371 -88.5t259 -257t95 -389.5t-95 -390t-259 -258t-371 -89zM826 220q203 0 335 134t132 363q0 227 -132.5 361t-334.5 134q-99 0 -184.5 -34
t-148.5 -96.5t-99 -156.5t-36 -208q0 -229 132.5 -363t335.5 -134z" />
    <glyph glyph-name="Oacute" unicode="&#xd3;" horiz-adv-x="1651" 
d="M744 1571l259 354l125 -89l-225 -265h-159zM826 -20q-208 0 -372 89t-259 258t-95 390t95 389.5t259 257t372 88.5q207 0 371 -88.5t259 -257t95 -389.5t-95 -390t-259 -258t-371 -89zM826 220q203 0 335 134t132 363q0 227 -132.5 361t-334.5 134q-99 0 -184.5 -34
t-148.5 -96.5t-99 -156.5t-36 -208q0 -229 132.5 -363t335.5 -134z" />
    <glyph glyph-name="Ocircumflex" unicode="&#xd4;" horiz-adv-x="1651" 
d="M682 1571h-157l222 298h158l222 -298h-158l-143 182zM826 -20q-208 0 -372 89t-259 258t-95 390t95 389.5t259 257t372 88.5q207 0 371 -88.5t259 -257t95 -389.5t-95 -390t-259 -258t-371 -89zM826 220q203 0 335 134t132 363q0 227 -132.5 361t-334.5 134
q-99 0 -184.5 -34t-148.5 -96.5t-99 -156.5t-36 -208q0 -229 132.5 -363t335.5 -134z" />
    <glyph glyph-name="Otilde" unicode="&#xd5;" horiz-adv-x="1651" 
d="M973 1576q-63 0 -100.5 23t-69.5 62q-20 27 -28.5 37t-28 22t-41.5 12q-45 0 -68.5 -39t-23.5 -103h-132q0 115 59 187t161 72q103 0 167 -80q4 -5 17.5 -21t20 -22t18 -16t23.5 -13.5t26 -3.5q43 0 65 37.5t22 103.5h135q0 -113 -58.5 -185.5t-163.5 -72.5zM826 -20
q-208 0 -372 89t-259 258t-95 390t95 389.5t259 257t372 88.5q207 0 371 -88.5t259 -257t95 -389.5t-95 -390t-259 -258t-371 -89zM826 220q203 0 335 134t132 363q0 227 -132.5 361t-334.5 134q-99 0 -184.5 -34t-148.5 -96.5t-99 -156.5t-36 -208q0 -229 132.5 -363
t335.5 -134z" />
    <glyph glyph-name="Odieresis" unicode="&#xd6;" horiz-adv-x="1651" 
d="M620 1536q-62 0 -106 44t-44 106q0 61 44 104.5t106 43.5q60 0 104.5 -43.5t44.5 -104.5q0 -62 -44.5 -106t-104.5 -44zM1032 1536q-62 0 -106 44t-44 106q0 61 44 104.5t106 43.5q60 0 104.5 -43.5t44.5 -104.5q0 -62 -44.5 -106t-104.5 -44zM826 -20q-208 0 -372 89
t-259 258t-95 390t95 389.5t259 257t372 88.5q207 0 371 -88.5t259 -257t95 -389.5t-95 -390t-259 -258t-371 -89zM826 220q203 0 335 134t132 363q0 227 -132.5 361t-334.5 134q-99 0 -184.5 -34t-148.5 -96.5t-99 -156.5t-36 -208q0 -229 132.5 -363t335.5 -134z" />
    <glyph glyph-name="multiply" unicode="&#xd7;" horiz-adv-x="1073" 
d="M263 271l-137 138l274 274l-274 274l137 137l275 -273l272 272l138 -136l-274 -274l274 -274l-138 -137l-272 274z" />
    <glyph glyph-name="Oslash" unicode="&#xd8;" horiz-adv-x="1651" 
d="M1302 1291q118 -97 183.5 -244t65.5 -330q0 -221 -95 -390t-259 -258t-371 -89t-374 91l-125 -180l-109 64l130 187q-118 98 -183 245t-65 330q0 221 95 389.5t259 257t372 88.5q209 0 372 -90l127 182l108 -65zM358 717q0 -230 136 -366l562 806q-104 55 -230 55
q-99 0 -184.5 -34t-148.5 -96.5t-99 -156.5t-36 -208zM826 220q203 0 335 134t132 363q0 227 -136 365l-562 -807q102 -55 231 -55z" />
    <glyph glyph-name="Ugrave" unicode="&#xd9;" horiz-adv-x="1434" 
d="M638 1571l-226 265l125 89l259 -354h-158zM716 -20q-117 0 -216 32t-173.5 94t-116.5 161.5t-42 225.5v940h260v-905q0 -160 79 -238t209 -78q129 0 209.5 78.5t80.5 237.5v905h259v-940q0 -127 -42 -226t-117 -161t-173.5 -94t-216.5 -32z" />
    <glyph glyph-name="Uacute" unicode="&#xda;" horiz-adv-x="1434" 
d="M634 1571l259 354l125 -89l-225 -265h-159zM716 -20q-117 0 -216 32t-173.5 94t-116.5 161.5t-42 225.5v940h260v-905q0 -160 79 -238t209 -78q129 0 209.5 78.5t80.5 237.5v905h259v-940q0 -127 -42 -226t-117 -161t-173.5 -94t-216.5 -32z" />
    <glyph glyph-name="Ucircumflex" unicode="&#xdb;" horiz-adv-x="1434" 
d="M572 1571h-157l222 298h158l222 -298h-158l-143 182zM716 -20q-117 0 -216 32t-173.5 94t-116.5 161.5t-42 225.5v940h260v-905q0 -160 79 -238t209 -78q129 0 209.5 78.5t80.5 237.5v905h259v-940q0 -127 -42 -226t-117 -161t-173.5 -94t-216.5 -32z" />
    <glyph glyph-name="Udieresis" unicode="&#xdc;" horiz-adv-x="1434" 
d="M510 1536q-62 0 -106 44t-44 106q0 61 44 104.5t106 43.5q60 0 104.5 -43.5t44.5 -104.5q0 -62 -44.5 -106t-104.5 -44zM922 1536q-62 0 -106 44t-44 106q0 61 44 104.5t106 43.5q60 0 104.5 -43.5t44.5 -104.5q0 -62 -44.5 -106t-104.5 -44zM716 -20q-117 0 -216 32
t-173.5 94t-116.5 161.5t-42 225.5v940h260v-905q0 -160 79 -238t209 -78q129 0 209.5 78.5t80.5 237.5v905h259v-940q0 -127 -42 -226t-117 -161t-173.5 -94t-216.5 -32z" />
    <glyph glyph-name="Yacute" unicode="&#xdd;" horiz-adv-x="1257" 
d="M931 1836l-225 -265h-159l259 354zM1231 1433l-471 -748v-685h-261v682l-473 751h290l313 -519l314 519h288z" />
    <glyph glyph-name="Thorn" unicode="&#xde;" horiz-adv-x="1229" 
d="M755 1317q168 0 285 -131t117 -319q0 -182 -117 -308.5t-285 -126.5h-306v-432h-251v1532h251v-215h306zM745 656q76 0 129.5 63.5t53.5 155.5t-53 154.5t-130 62.5h-296v-436h296z" />
    <glyph glyph-name="germandbls" unicode="&#xdf;" horiz-adv-x="1262" 
d="M158 0v985q0 127 27 227t72.5 163.5t110 105t134 58.5t150.5 17q208 0 337.5 -109t129.5 -275q0 -60 -17.5 -107.5t-42.5 -77t-50 -54.5t-42.5 -53t-17.5 -60q0 -35 26 -65t63.5 -58.5t74.5 -65t63 -101.5t26 -151q0 -58 -14 -112.5t-45 -103t-75.5 -85t-110 -57.5
t-144.5 -21h-197v188h127q101 0 155.5 57t54.5 140q0 47 -13 84t-34 61t-46.5 44.5t-51 40.5t-46.5 43.5t-34 58t-13 79.5q0 57 17.5 100.5t42.5 70.5t49.5 52.5t42 61.5t17.5 82q0 88 -61 141.5t-166 53.5q-122 0 -187 -76t-65 -250v-1032h-247z" />
    <glyph glyph-name="agrave" unicode="&#xe0;" horiz-adv-x="1098" 
d="M635 1164h-158l-226 264l125 90zM957 284q0 -173 26 -257v-27h-237l-24 114q-55 -67 -142.5 -100.5t-182.5 -33.5q-63 0 -117 15.5t-99 47.5t-70.5 88t-25.5 130q0 76 26 132t78.5 92.5t114.5 59.5t150 41l169 35q51 11 73 31t22 54q0 41 -16 71.5t-43.5 47t-59.5 24
t-68 7.5q-185 0 -210 -164l-222 42q59 298 445 298q65 0 121 -9t111.5 -34t94 -64t62.5 -104t24 -150v-387zM474 153q121 0 188.5 79t67.5 243l-246 -63q-79 -17 -119.5 -47.5t-40.5 -86.5q0 -61 42 -93t108 -32z" />
    <glyph glyph-name="aacute" unicode="&#xe1;" horiz-adv-x="1098" 
d="M857 1428l-225 -264h-159l259 354zM957 284q0 -173 26 -257v-27h-237l-24 114q-55 -67 -142.5 -100.5t-182.5 -33.5q-63 0 -117 15.5t-99 47.5t-70.5 88t-25.5 130q0 76 26 132t78.5 92.5t114.5 59.5t150 41l169 35q51 11 73 31t22 54q0 41 -16 71.5t-43.5 47t-59.5 24
t-68 7.5q-185 0 -210 -164l-222 42q59 298 445 298q65 0 121 -9t111.5 -34t94 -64t62.5 -104t24 -150v-387zM474 153q121 0 188.5 79t67.5 243l-246 -63q-79 -17 -119.5 -47.5t-40.5 -86.5q0 -61 42 -93t108 -32z" />
    <glyph glyph-name="acircumflex" unicode="&#xe2;" horiz-adv-x="1098" 
d="M555 1374l-144 -182h-157l222 298h158l222 -298h-158zM957 284q0 -173 26 -257v-27h-237l-24 114q-55 -67 -142.5 -100.5t-182.5 -33.5q-63 0 -117 15.5t-99 47.5t-70.5 88t-25.5 130q0 76 26 132t78.5 92.5t114.5 59.5t150 41l169 35q51 11 73 31t22 54q0 41 -16 71.5
t-43.5 47t-59.5 24t-68 7.5q-185 0 -210 -164l-222 42q59 298 445 298q65 0 121 -9t111.5 -34t94 -64t62.5 -104t24 -150v-387zM474 153q121 0 188.5 79t67.5 243l-246 -63q-79 -17 -119.5 -47.5t-40.5 -86.5q0 -61 42 -93t108 -32z" />
    <glyph glyph-name="atilde" unicode="&#xe3;" horiz-adv-x="1098" 
d="M450 1299q-36 0 -56 -36t-20 -94h-123q0 111 52.5 181t141.5 70q110 0 172 -101q25 -42 67 -42q36 0 54.5 34.5t18.5 94.5h125q0 -109 -52 -179.5t-143 -70.5q-109 0 -172 100q-28 43 -65 43zM957 284q0 -173 26 -257v-27h-237l-24 114q-55 -67 -142.5 -100.5
t-182.5 -33.5q-63 0 -117 15.5t-99 47.5t-70.5 88t-25.5 130q0 76 26 132t78.5 92.5t114.5 59.5t150 41l169 35q51 11 73 31t22 54q0 41 -16 71.5t-43.5 47t-59.5 24t-68 7.5q-185 0 -210 -164l-222 42q59 298 445 298q65 0 121 -9t111.5 -34t94 -64t62.5 -104t24 -150v-387
zM474 153q121 0 188.5 79t67.5 243l-246 -63q-79 -17 -119.5 -47.5t-40.5 -86.5q0 -61 42 -93t108 -32z" />
    <glyph glyph-name="adieresis" unicode="&#xe4;" horiz-adv-x="1098" 
d="M349 1193q-62 0 -106 44t-44 105q0 62 44 105.5t106 43.5q61 0 105 -43.5t44 -105.5q0 -61 -44.5 -105t-104.5 -44zM761 1193q-62 0 -106 44t-44 105q0 62 44 105.5t106 43.5q61 0 105 -43.5t44 -105.5q0 -61 -44.5 -105t-104.5 -44zM957 284q0 -173 26 -257v-27h-237
l-24 114q-55 -67 -142.5 -100.5t-182.5 -33.5q-63 0 -117 15.5t-99 47.5t-70.5 88t-25.5 130q0 76 26 132t78.5 92.5t114.5 59.5t150 41l169 35q51 11 73 31t22 54q0 41 -16 71.5t-43.5 47t-59.5 24t-68 7.5q-185 0 -210 -164l-222 42q59 298 445 298q65 0 121 -9t111.5 -34
t94 -64t62.5 -104t24 -150v-387zM474 153q121 0 188.5 79t67.5 243l-246 -63q-79 -17 -119.5 -47.5t-40.5 -86.5q0 -61 42 -93t108 -32z" />
    <glyph glyph-name="aring" unicode="&#xe5;" horiz-adv-x="1098" 
d="M555 1132q-96 0 -163.5 68t-67.5 163q0 94 67.5 161t163.5 67q94 0 160.5 -67t66.5 -161q0 -95 -66.5 -163t-160.5 -68zM555 1485q-50 0 -84.5 -36t-34.5 -86q0 -53 34 -87t85 -34t85.5 34t34.5 87q0 49 -35 85.5t-85 36.5zM957 284q0 -173 26 -257v-27h-237l-24 114
q-55 -67 -142.5 -100.5t-182.5 -33.5q-63 0 -117 15.5t-99 47.5t-70.5 88t-25.5 130q0 76 26 132t78.5 92.5t114.5 59.5t150 41l169 35q51 11 73 31t22 54q0 41 -16 71.5t-43.5 47t-59.5 24t-68 7.5q-185 0 -210 -164l-222 42q59 298 445 298q65 0 121 -9t111.5 -34t94 -64
t62.5 -104t24 -150v-387zM474 153q121 0 188.5 79t67.5 243l-246 -63q-79 -17 -119.5 -47.5t-40.5 -86.5q0 -61 42 -93t108 -32z" />
    <glyph glyph-name="ae" unicode="&#xe6;" horiz-adv-x="1791" 
d="M1713 523l-3 -68h-764q9 -133 88 -204t195 -71q81 0 143.5 39.5t95.5 111.5l228 -37q-54 -151 -177.5 -232.5t-294.5 -81.5q-269 0 -412 177h-5q-159 -177 -398 -177q-68 0 -125.5 16t-102.5 48t-70 86.5t-25 126.5q0 64 21.5 114.5t55 83t87 58.5t104.5 40.5t121 27.5
l149 28q50 10 72.5 32.5t22.5 58.5q0 82 -54.5 119t-134.5 37q-87 0 -143 -42t-66 -133l-223 39q52 312 447 312q228 0 326 -116q139 118 352 118q221 0 355 -129.5t135 -381.5zM1217 856q-103 0 -172.5 -56.5t-90.5 -169.5h511q-10 110 -75 168t-173 58zM478 176
q74 0 140 41.5t106 112.5q-17 61 -22 136l-199 -43q-87 -17 -129.5 -47t-42.5 -85q0 -57 41 -86t106 -29z" />
    <glyph glyph-name="ccedilla" unicode="&#xe7;" horiz-adv-x="1154" 
d="M602 182q95 0 162.5 48t94.5 141l231 -28q-37 -161 -157 -255.5t-289 -105.5l-59 -110q30 6 48 6q85 0 141 -53.5t56 -137.5q0 -92 -63 -155.5t-155 -63.5q-81 0 -146.5 41t-91.5 103l113 42q17 -31 51 -49.5t69 -18.5q43 0 73 28t30 73q0 46 -30 72t-76 26
q-44 0 -76 -27l-95 57l90 171q-202 26 -326 167t-124 355q0 235 149 380t382 145q187 0 317 -94.5t169 -265.5l-231 -28q-27 93 -94.5 141t-162.5 48q-124 0 -202 -90t-78 -236q0 -147 78 -236.5t202 -89.5z" />
    <glyph glyph-name="egrave" unicode="&#xe8;" horiz-adv-x="1168" 
d="M686 1167h-158l-226 264l125 90zM1090 523l-4 -62h-764q7 -136 86 -208.5t196 -72.5q82 0 144.5 39t95.5 112l228 -37q-51 -148 -176 -231t-290 -83q-241 0 -385 140t-144 386q0 245 144.5 386.5t376.5 141.5q107 0 195.5 -31.5t155 -93t103.5 -160t38 -226.5zM599 854
q-108 0 -178 -56.5t-91 -169.5h512q-10 110 -75.5 168t-167.5 58z" />
    <glyph glyph-name="eacute" unicode="&#xe9;" horiz-adv-x="1168" 
d="M908 1431l-225 -264h-159l259 354zM1090 523l-4 -62h-764q7 -136 86 -208.5t196 -72.5q82 0 144.5 39t95.5 112l228 -37q-51 -148 -176 -231t-290 -83q-241 0 -385 140t-144 386q0 245 144.5 386.5t376.5 141.5q107 0 195.5 -31.5t155 -93t103.5 -160t38 -226.5zM599 854
q-108 0 -178 -56.5t-91 -169.5h512q-10 110 -75.5 168t-167.5 58z" />
    <glyph glyph-name="ecircumflex" unicode="&#xea;" horiz-adv-x="1168" 
d="M606 1377l-144 -182h-157l222 298h158l222 -298h-158zM1090 523l-4 -62h-764q7 -136 86 -208.5t196 -72.5q82 0 144.5 39t95.5 112l228 -37q-51 -148 -176 -231t-290 -83q-241 0 -385 140t-144 386q0 245 144.5 386.5t376.5 141.5q107 0 195.5 -31.5t155 -93t103.5 -160
t38 -226.5zM599 854q-108 0 -178 -56.5t-91 -169.5h512q-10 110 -75.5 168t-167.5 58z" />
    <glyph glyph-name="edieresis" unicode="&#xeb;" horiz-adv-x="1168" 
d="M400 1196q-62 0 -106 44t-44 105q0 62 44 105.5t106 43.5q61 0 105 -43.5t44 -105.5q0 -61 -44.5 -105t-104.5 -44zM812 1196q-62 0 -106 44t-44 105q0 62 44 105.5t106 43.5q61 0 105 -43.5t44 -105.5q0 -61 -44.5 -105t-104.5 -44zM1090 523l-4 -62h-764
q7 -136 86 -208.5t196 -72.5q82 0 144.5 39t95.5 112l228 -37q-51 -148 -176 -231t-290 -83q-241 0 -385 140t-144 386q0 245 144.5 386.5t376.5 141.5q107 0 195.5 -31.5t155 -93t103.5 -160t38 -226.5zM599 854q-108 0 -178 -56.5t-91 -169.5h512q-10 110 -75.5 168
t-167.5 58z" />
    <glyph glyph-name="igrave" unicode="&#xec;" horiz-adv-x="567" 
d="M207 1164l-226 264l125 90l259 -354h-158zM158 0v1013h251v-1013h-251z" />
    <glyph glyph-name="iacute" unicode="&#xed;" horiz-adv-x="567" 
d="M203 1164l259 354l125 -90l-225 -264h-159zM158 0v1013h251v-1013h-251z" />
    <glyph glyph-name="icircumflex" unicode="&#xee;" horiz-adv-x="567" 
d="M141 1192h-157l222 298h158l222 -298h-158l-143 182zM158 0v1013h251v-1013h-251z" />
    <glyph glyph-name="idieresis" unicode="&#xef;" horiz-adv-x="567" 
d="M79 1193q-62 0 -106 44t-44 105q0 62 44 105.5t106 43.5q61 0 105 -43.5t44 -105.5q0 -61 -44.5 -105t-104.5 -44zM491 1193q-62 0 -106 44t-44 105q0 62 44 105.5t106 43.5q61 0 105 -43.5t44 -105.5q0 -61 -44.5 -105t-104.5 -44zM158 0v1013h251v-1013h-251z" />
    <glyph glyph-name="eth" unicode="&#xf0;" horiz-adv-x="1179" 
d="M983 863q126 -182 125 -364q-1 -148 -69.5 -267t-186 -185t-261.5 -66q-139 0 -257.5 65t-190 186.5t-70.5 272.5q1 226 126.5 363t316.5 157q47 3 93 -6l-157 212l-254 -65l-21 80l222 57l-172 233h277l125 -175l231 59l21 -79l-201 -52zM599 206q124 0 199.5 82.5
t75.5 220.5q0 131 -78 219.5t-199 88.5q-124 0 -201 -84t-78 -223q-1 -137 78.5 -220.5t202.5 -83.5z" />
    <glyph glyph-name="ntilde" unicode="&#xf1;" horiz-adv-x="1225" 
d="M505 1299q-36 0 -56 -36t-20 -94h-123q0 111 52.5 181t141.5 70q110 0 172 -101q25 -42 67 -42q36 0 54.5 34.5t18.5 94.5h125q0 -109 -52 -179.5t-143 -70.5q-109 0 -172 100q-28 43 -65 43zM718 1033q174 0 271 -91.5t97 -259.5v-682h-250v628q0 104 -54.5 153
t-139.5 49q-102 0 -167.5 -62t-66.5 -194v-574h-250v1013h250v-117q109 137 310 137z" />
    <glyph glyph-name="ograve" unicode="&#xf2;" horiz-adv-x="1231" 
d="M538 1163l-226 264l125 90l259 -354h-158zM616 -20q-239 0 -390 142.5t-151 385.5q0 241 150.5 383t390.5 142t390.5 -142t150.5 -383q0 -243 -151 -385.5t-390 -142.5zM613 181q131 0 213.5 90t82.5 237q0 146 -82.5 236t-213.5 90q-127 0 -208.5 -90t-81.5 -236
q0 -147 81.5 -237t208.5 -90z" />
    <glyph glyph-name="oacute" unicode="&#xf3;" horiz-adv-x="1231" 
d="M534 1163l259 354l125 -90l-225 -264h-159zM616 -20q-239 0 -390 142.5t-151 385.5q0 241 150.5 383t390.5 142t390.5 -142t150.5 -383q0 -243 -151 -385.5t-390 -142.5zM613 181q131 0 213.5 90t82.5 237q0 146 -82.5 236t-213.5 90q-127 0 -208.5 -90t-81.5 -236
q0 -147 81.5 -237t208.5 -90z" />
    <glyph glyph-name="ocircumflex" unicode="&#xf4;" horiz-adv-x="1231" 
d="M472 1191h-157l222 298h158l222 -298h-158l-143 182zM616 -20q-239 0 -390 142.5t-151 385.5q0 241 150.5 383t390.5 142t390.5 -142t150.5 -383q0 -243 -151 -385.5t-390 -142.5zM613 181q131 0 213.5 90t82.5 237q0 146 -82.5 236t-213.5 90q-127 0 -208.5 -90
t-81.5 -236q0 -147 81.5 -237t208.5 -90z" />
    <glyph glyph-name="otilde" unicode="&#xf5;" horiz-adv-x="1231" 
d="M748 1155q-109 0 -172 100q-28 43 -65 43q-36 0 -56 -36t-20 -94h-123q0 111 52.5 181t141.5 70q110 0 172 -101q25 -42 67 -42q36 0 54.5 34.5t18.5 94.5h125q0 -109 -52 -179.5t-143 -70.5zM616 -20q-239 0 -390 142.5t-151 385.5q0 241 150.5 383t390.5 142
t390.5 -142t150.5 -383q0 -243 -151 -385.5t-390 -142.5zM613 181q131 0 213.5 90t82.5 237q0 146 -82.5 236t-213.5 90q-127 0 -208.5 -90t-81.5 -236q0 -147 81.5 -237t208.5 -90z" />
    <glyph glyph-name="odieresis" unicode="&#xf6;" horiz-adv-x="1231" 
d="M410 1192q-62 0 -106 44t-44 105q0 62 44 105.5t106 43.5q61 0 105 -43.5t44 -105.5q0 -61 -44.5 -105t-104.5 -44zM822 1192q-62 0 -106 44t-44 105q0 62 44 105.5t106 43.5q61 0 105 -43.5t44 -105.5q0 -61 -44.5 -105t-104.5 -44zM616 -20q-239 0 -390 142.5
t-151 385.5q0 241 150.5 383t390.5 142t390.5 -142t150.5 -383q0 -243 -151 -385.5t-390 -142.5zM613 181q131 0 213.5 90t82.5 237q0 146 -82.5 236t-213.5 90q-127 0 -208.5 -90t-81.5 -236q0 -147 81.5 -237t208.5 -90z" />
    <glyph glyph-name="divide" unicode="&#xf7;" horiz-adv-x="1064" 
d="M525 931q-55 0 -95.5 39.5t-40.5 97.5q0 54 41 95t95 41t95.5 -41t41.5 -95q0 -57 -41 -97t-96 -40zM110 598v193h843v-193h-843zM525 185q-55 0 -95.5 39.5t-40.5 97.5q0 54 41 94.5t95 40.5t95.5 -40.5t41.5 -94.5q0 -57 -41 -97t-96 -40z" />
    <glyph glyph-name="oslash" unicode="&#xf8;" horiz-adv-x="1231" 
d="M976 918q181 -146 181 -410q0 -243 -151 -385.5t-390 -142.5q-142 0 -257 53l-95 -137l-105 63l96 138q-180 146 -180 411q0 241 150.5 383t390.5 142q141 0 256 -52l95 137l105 -63zM323 508q0 -131 66 -219l359 514q-62 31 -135 31q-127 0 -208.5 -90t-81.5 -236z
M613 181q131 0 213.5 90t82.5 237q0 131 -67 217l-359 -514q59 -30 130 -30z" />
    <glyph glyph-name="ugrave" unicode="&#xf9;" horiz-adv-x="1224" 
d="M694 1164h-158l-226 264l125 90zM816 1013h250v-1013h-237l-7 125q-51 -70 -132.5 -107.5t-183.5 -37.5q-175 0 -271.5 91.5t-96.5 259.5v682h250v-628q0 -103 54.5 -152.5t140.5 -49.5q102 0 167 62t66 194v574z" />
    <glyph glyph-name="uacute" unicode="&#xfa;" horiz-adv-x="1224" 
d="M916 1428l-225 -264h-159l259 354zM816 1013h250v-1013h-237l-7 125q-51 -70 -132.5 -107.5t-183.5 -37.5q-175 0 -271.5 91.5t-96.5 259.5v682h250v-628q0 -103 54.5 -152.5t140.5 -49.5q102 0 167 62t66 194v574z" />
    <glyph glyph-name="ucircumflex" unicode="&#xfb;" horiz-adv-x="1224" 
d="M614 1374l-144 -182h-157l222 298h158l222 -298h-158zM816 1013h250v-1013h-237l-7 125q-51 -70 -132.5 -107.5t-183.5 -37.5q-175 0 -271.5 91.5t-96.5 259.5v682h250v-628q0 -103 54.5 -152.5t140.5 -49.5q102 0 167 62t66 194v574z" />
    <glyph glyph-name="udieresis" unicode="&#xfc;" horiz-adv-x="1224" 
d="M408 1193q-62 0 -106 44t-44 105q0 62 44 105.5t106 43.5q61 0 105 -43.5t44 -105.5q0 -61 -44.5 -105t-104.5 -44zM820 1193q-62 0 -106 44t-44 105q0 62 44 105.5t106 43.5q61 0 105 -43.5t44 -105.5q0 -61 -44.5 -105t-104.5 -44zM816 1013h250v-1013h-237l-7 125
q-51 -70 -132.5 -107.5t-183.5 -37.5q-175 0 -271.5 91.5t-96.5 259.5v682h250v-628q0 -103 54.5 -152.5t140.5 -49.5q102 0 167 62t66 194v574z" />
    <glyph glyph-name="yacute" unicode="&#xfd;" horiz-adv-x="1079" 
d="M843 1428l-225 -264h-159l259 354zM808 1013h259l-613 -1490h-254l222 513l-409 977h273l255 -704z" />
    <glyph glyph-name="thorn" unicode="&#xfe;" horiz-adv-x="1294" 
d="M733 1033q99 0 187 -36.5t154 -103t104 -167t38 -221.5t-38 -221.5t-104 -167t-154 -103t-187 -36.5q-106 0 -193 44t-132 121v-641h-250v2035h250v-668q45 77 132 121t193 44zM678 186q123 0 205.5 87t82.5 232t-82.5 231.5t-205.5 86.5q-124 0 -207 -89.5t-83 -228.5
q0 -140 83 -229.5t207 -89.5z" />
    <glyph glyph-name="ydieresis" unicode="&#xff;" horiz-adv-x="1079" 
d="M335 1193q-62 0 -106 44t-44 105q0 62 44 105.5t106 43.5q61 0 105 -43.5t44 -105.5q0 -61 -44.5 -105t-104.5 -44zM747 1193q-62 0 -106 44t-44 105q0 62 44 105.5t106 43.5q61 0 105 -43.5t44 -105.5q0 -61 -44.5 -105t-104.5 -44zM808 1013h259l-613 -1490h-254
l222 513l-409 977h273l255 -704z" />
    <glyph glyph-name="Amacron" unicode="&#x100;" horiz-adv-x="1451" 
d="M1055 1721v-150h-658v150h658zM1145 0l-110 311h-618l-110 -311h-267l528 1433h316l527 -1433h-266zM495 531h462l-231 653z" />
    <glyph glyph-name="amacron" unicode="&#x101;" horiz-adv-x="1098" 
d="M884 1341v-150h-658v150h658zM957 284q0 -173 26 -257v-27h-237l-24 114q-55 -67 -142.5 -100.5t-182.5 -33.5q-63 0 -117 15.5t-99 47.5t-70.5 88t-25.5 130q0 76 26 132t78.5 92.5t114.5 59.5t150 41l169 35q51 11 73 31t22 54q0 41 -16 71.5t-43.5 47t-59.5 24
t-68 7.5q-185 0 -210 -164l-222 42q59 298 445 298q65 0 121 -9t111.5 -34t94 -64t62.5 -104t24 -150v-387zM474 153q121 0 188.5 79t67.5 243l-246 -63q-79 -17 -119.5 -47.5t-40.5 -86.5q0 -61 42 -93t108 -32z" />
    <glyph glyph-name="Abreve" unicode="&#x102;" horiz-adv-x="1451" 
d="M725 1571q-166 0 -260.5 69t-94.5 218h146q0 -85 55.5 -126t153.5 -41q99 0 155.5 41t56.5 126h146q0 -149 -95.5 -218t-262.5 -69zM1145 0l-110 311h-618l-110 -311h-267l528 1433h316l527 -1433h-266zM495 531h462l-231 653z" />
    <glyph glyph-name="abreve" unicode="&#x103;" horiz-adv-x="1098" 
d="M554 1151q-160 0 -257.5 89t-97.5 250h157q0 -98 53 -158.5t145 -60.5q93 0 146.5 60.5t53.5 158.5h158q0 -161 -98 -250t-260 -89zM957 284q0 -173 26 -257v-27h-237l-24 114q-55 -67 -142.5 -100.5t-182.5 -33.5q-63 0 -117 15.5t-99 47.5t-70.5 88t-25.5 130
q0 76 26 132t78.5 92.5t114.5 59.5t150 41l169 35q51 11 73 31t22 54q0 41 -16 71.5t-43.5 47t-59.5 24t-68 7.5q-185 0 -210 -164l-222 42q59 298 445 298q65 0 121 -9t111.5 -34t94 -64t62.5 -104t24 -150v-387zM474 153q121 0 188.5 79t67.5 243l-246 -63
q-79 -17 -119.5 -47.5t-40.5 -86.5q0 -61 42 -93t108 -32z" />
    <glyph glyph-name="Aogonek" unicode="&#x104;" horiz-adv-x="1451" 
d="M1240 -223q0 -38 65 -38q63 0 106 37v-164q-61 -24 -132 -24q-86 0 -136.5 27t-50.5 77q0 105 209 308h-156l-110 311h-618l-110 -311h-267l528 1433h316l527 -1433q-171 -158 -171 -223zM495 531h462l-231 653z" />
    <glyph glyph-name="aogonek" unicode="&#x105;" horiz-adv-x="1098" 
d="M983 0q-171 -158 -171 -223q0 -38 65 -38q63 0 106 37v-164q-61 -24 -132 -24q-86 0 -136.5 27t-50.5 77q0 105 209 308h-127l-24 114q-55 -67 -142.5 -100.5t-182.5 -33.5q-63 0 -117 15.5t-99 47.5t-70.5 88t-25.5 130q0 76 26 132t78.5 92.5t114.5 59.5t150 41l169 35
q51 11 73 31t22 54q0 41 -16 71.5t-43.5 47t-59.5 24t-68 7.5q-185 0 -210 -164l-222 42q59 298 445 298q65 0 121 -9t111.5 -34t94 -64t62.5 -104t24 -150v-387q0 -173 26 -257v-27zM474 153q121 0 188.5 79t67.5 243l-246 -63q-79 -17 -119.5 -47.5t-40.5 -86.5
q0 -61 42 -93t108 -32z" />
    <glyph glyph-name="Cacute" unicode="&#x106;" horiz-adv-x="1556" 
d="M745 1571l259 354l125 -89l-225 -265h-159zM826 -20q-155 0 -288.5 52t-230.5 146t-152 233t-55 306q0 221 95 389.5t259 257t372 88.5q231 0 407 -111t255 -306l-241 -91q-53 127 -165 197.5t-256 70.5q-99 0 -184.5 -34t-148.5 -96.5t-99 -156.5t-36 -208
q0 -229 132.5 -362.5t335.5 -133.5q144 0 256 70.5t165 197.5l241 -91q-79 -196 -255.5 -307t-406.5 -111z" />
    <glyph glyph-name="cacute" unicode="&#x107;" horiz-adv-x="1154" 
d="M510 1164l259 354l125 -90l-225 -264h-159zM604 -19q-233 0 -382 146t-149 381t149 380t382 145q187 0 317 -94.5t169 -265.5l-231 -28q-27 93 -94.5 141t-162.5 48q-124 0 -202 -90t-78 -236q0 -147 78 -236.5t202 -89.5q95 0 162.5 48t94.5 141l231 -28
q-39 -171 -170.5 -266.5t-315.5 -95.5z" />
    <glyph glyph-name="Cdotaccent" unicode="&#x10a;" horiz-adv-x="1556" 
d="M828 1536q-62 0 -106 44t-44 106q0 61 44 104.5t106 43.5q60 0 104.5 -43.5t44.5 -104.5q0 -62 -44.5 -106t-104.5 -44zM826 -20q-155 0 -288.5 52t-230.5 146t-152 233t-55 306q0 221 95 389.5t259 257t372 88.5q231 0 407 -111t255 -306l-241 -91q-53 127 -165 197.5
t-256 70.5q-99 0 -184.5 -34t-148.5 -96.5t-99 -156.5t-36 -208q0 -229 132.5 -362.5t335.5 -133.5q144 0 256 70.5t165 197.5l241 -91q-79 -196 -255.5 -307t-406.5 -111z" />
    <glyph glyph-name="cdotaccent" unicode="&#x10b;" horiz-adv-x="1154" 
d="M593 1193q-62 0 -106 44t-44 105q0 62 44 105.5t106 43.5q61 0 105 -43.5t44 -105.5q0 -61 -44.5 -105t-104.5 -44zM604 -19q-233 0 -382 146t-149 381t149 380t382 145q187 0 317 -94.5t169 -265.5l-231 -28q-27 93 -94.5 141t-162.5 48q-124 0 -202 -90t-78 -236
q0 -147 78 -236.5t202 -89.5q95 0 162.5 48t94.5 141l231 -28q-39 -171 -170.5 -266.5t-315.5 -95.5z" />
    <glyph glyph-name="Ccaron" unicode="&#x10c;" horiz-adv-x="1556" 
d="M748 1571l-222 298h157l143 -183l144 183h158l-222 -298h-158zM826 -20q-155 0 -288.5 52t-230.5 146t-152 233t-55 306q0 221 95 389.5t259 257t372 88.5q231 0 407 -111t255 -306l-241 -91q-53 127 -165 197.5t-256 70.5q-99 0 -184.5 -34t-148.5 -96.5t-99 -156.5
t-36 -208q0 -229 132.5 -362.5t335.5 -133.5q144 0 256 70.5t165 197.5l241 -91q-79 -196 -255.5 -307t-406.5 -111z" />
    <glyph glyph-name="ccaron" unicode="&#x10d;" horiz-adv-x="1154" 
d="M513 1192l-222 298h157l143 -183l144 183h158l-222 -298h-158zM604 -19q-233 0 -382 146t-149 381t149 380t382 145q187 0 317 -94.5t169 -265.5l-231 -28q-27 93 -94.5 141t-162.5 48q-124 0 -202 -90t-78 -236q0 -147 78 -236.5t202 -89.5q95 0 162.5 48t94.5 141
l231 -28q-39 -171 -170.5 -266.5t-315.5 -95.5z" />
    <glyph glyph-name="Dcaron" unicode="&#x10e;" horiz-adv-x="1479" 
d="M546 1571l-222 298h157l143 -183l144 183h158l-222 -298h-158zM198 0v1433h500q221 0 374.5 -91t227.5 -250.5t74 -374.5q0 -329 -173.5 -523t-502.5 -194h-500zM458 231h228q209 0 312.5 126.5t103.5 359.5t-103.5 359.5t-312.5 126.5h-228v-972z" />
    <glyph glyph-name="dcaron" unicode="&#x10f;" horiz-adv-x="1489" 
d="M531 -20q-195 0 -322.5 144t-127.5 385q0 240 127.5 383.5t322.5 143.5q105 0 192.5 -46.5t144.5 -130.5l1 677h249v-1536h-250v158q-57 -84 -145 -131t-192 -47zM1266 894l125 642h258l-203 -642h-180zM616 190q121 0 202 89.5t81 229.5t-81.5 229.5t-201.5 89.5
q-123 0 -204.5 -87.5t-81.5 -231.5t81.5 -231.5t204.5 -87.5z" />
    <glyph glyph-name="Dcroat" unicode="&#x110;" horiz-adv-x="1479" 
d="M698 1433q221 0 374.5 -91t227.5 -250.5t74 -374.5q0 -329 -173.5 -523t-502.5 -194h-500v639h-158v156h158v638h500zM686 231q209 0 312.5 126.5t103.5 359.5t-103.5 359.5t-312.5 126.5h-228v-408h244v-156h-244v-408h228z" />
    <glyph glyph-name="dcroat" unicode="&#x111;" horiz-adv-x="1294" 
d="M1281 1345v-156h-146v-1189h-237l-7 152q-44 -82 -132.5 -128.5t-198.5 -46.5q-99 0 -187 37t-153.5 104t-104 167t-38.5 220t38.5 220t104.5 167t153.5 104t186.5 37q106 0 193.5 -43.5t132.5 -121.5v321h-267v156h267v191h249v-191h146zM616 186q124 0 206.5 89.5
t82.5 229.5t-83 229.5t-206 89.5q-124 0 -206.5 -87.5t-82.5 -231.5t82.5 -231.5t206.5 -87.5z" />
    <glyph glyph-name="Emacron" unicode="&#x112;" horiz-adv-x="1130" 
d="M938 1721v-150h-658v150h658zM1008 1203h-547v-373h484v-228h-484v-371h547v-231h-810v1433h810v-230z" />
    <glyph glyph-name="emacron" unicode="&#x113;" horiz-adv-x="1168" 
d="M935 1344v-150h-658v150h658zM1090 523l-4 -62h-764q7 -136 86 -208.5t196 -72.5q82 0 144.5 39t95.5 112l228 -37q-51 -148 -176 -231t-290 -83q-241 0 -385 140t-144 386q0 245 144.5 386.5t376.5 141.5q107 0 195.5 -31.5t155 -93t103.5 -160t38 -226.5zM599 854
q-108 0 -178 -56.5t-91 -169.5h512q-10 110 -75.5 168t-167.5 58z" />
    <glyph glyph-name="Edotaccent" unicode="&#x116;" horiz-adv-x="1130" 
d="M610 1536q-62 0 -106 44t-44 106q0 61 44 104.5t106 43.5q60 0 104.5 -43.5t44.5 -104.5q0 -62 -44.5 -106t-104.5 -44zM1008 1203h-547v-373h484v-228h-484v-371h547v-231h-810v1433h810v-230z" />
    <glyph glyph-name="edotaccent" unicode="&#x117;" horiz-adv-x="1168" 
d="M607 1196q-62 0 -106 44t-44 105q0 62 44 105.5t106 43.5q61 0 105 -43.5t44 -105.5q0 -61 -44.5 -105t-104.5 -44zM1090 523l-4 -62h-764q7 -136 86 -208.5t196 -72.5q82 0 144.5 39t95.5 112l228 -37q-51 -148 -176 -231t-290 -83q-241 0 -385 140t-144 386
q0 245 144.5 386.5t376.5 141.5q107 0 195.5 -31.5t155 -93t103.5 -160t38 -226.5zM599 854q-108 0 -178 -56.5t-91 -169.5h512q-10 110 -75.5 168t-167.5 58z" />
    <glyph glyph-name="Eogonek" unicode="&#x118;" horiz-adv-x="1130" 
d="M1008 1203h-547v-373h484v-228h-484v-371h547v-231q-171 -158 -171 -223q0 -38 65 -38q63 0 106 37v-164q-61 -24 -132 -24q-86 0 -136.5 27t-50.5 77q0 105 209 308h-700v1433h810v-230z" />
    <glyph glyph-name="eogonek" unicode="&#x119;" horiz-adv-x="1168" 
d="M1090 523l-4 -62h-764q7 -136 86 -208.5t196 -72.5q82 0 144.5 39t95.5 112l228 -37q-29 -85 -86 -151l1 -1l-11 -11q-25 -25 -38 -36q-122 -122 -122 -176q0 -38 65 -38q63 0 106 37v-164q-61 -24 -132 -24q-86 0 -136.5 27t-50.5 77q0 62 76 163q-66 -17 -138 -17
q-241 0 -385 140t-144 386q0 245 144.5 386.5t376.5 141.5q107 0 195.5 -31.5t155 -93t103.5 -160t38 -226.5zM599 854q-108 0 -178 -56.5t-91 -169.5h512q-10 110 -75.5 168t-167.5 58z" />
    <glyph glyph-name="Ecaron" unicode="&#x11a;" horiz-adv-x="1130" 
d="M688 1571h-158l-222 298h157l143 -183l144 183h158zM1008 1203h-547v-373h484v-228h-484v-371h547v-231h-810v1433h810v-230z" />
    <glyph glyph-name="ecaron" unicode="&#x11b;" horiz-adv-x="1168" 
d="M685 1195h-158l-222 298h157l143 -183l144 183h158zM1090 523l-4 -62h-764q7 -136 86 -208.5t196 -72.5q82 0 144.5 39t95.5 112l228 -37q-51 -148 -176 -231t-290 -83q-241 0 -385 140t-144 386q0 245 144.5 386.5t376.5 141.5q107 0 195.5 -31.5t155 -93t103.5 -160
t38 -226.5zM599 854q-108 0 -178 -56.5t-91 -169.5h512q-10 110 -75.5 168t-167.5 58z" />
    <glyph glyph-name="Gbreve" unicode="&#x11e;" horiz-adv-x="1638" 
d="M818 1571q-166 0 -260.5 69t-94.5 218h146q0 -85 55.5 -126t153.5 -41q99 0 155.5 41t56.5 126h146q0 -149 -95.5 -218t-262.5 -69zM814 -20q-204 0 -365.5 88t-255 256t-93.5 389q0 223 95 392.5t259 258t372 88.5q205 0 368 -87t256 -249l-229 -122q-59 114 -162 171.5
t-233 57.5q-204 0 -335 -134t-131 -370q0 -235 130.5 -372.5t344.5 -137.5q163 0 279 87t143 255h-422v212h670v-763h-207v222q-71 -116 -193.5 -179t-290.5 -63z" />
    <glyph glyph-name="gbreve" unicode="&#x11f;" horiz-adv-x="1264" 
d="M609 1151q-160 0 -257.5 89t-97.5 250h157q0 -98 53 -158.5t145 -60.5q93 0 146.5 60.5t53.5 158.5h158q0 -161 -98 -250t-260 -89zM867 1013h239v-945q0 -275 -138 -411t-385 -136q-390 0 -512 313l207 91q44 -105 115.5 -155.5t180.5 -50.5q140 0 210.5 86t70.5 246
v139q-46 -71 -133 -114t-190 -43q-193 0 -327.5 141t-134.5 361q0 110 37 204.5t100.5 158t148.5 99.5t179 36q108 0 195.5 -46.5t130.5 -123.5zM595 238q119 0 201 86.5t82 210.5t-81.5 210.5t-201.5 86.5q-121 0 -202 -84.5t-81 -212.5q0 -127 82 -212t201 -85z" />
    <glyph glyph-name="Gdotaccent" unicode="&#x120;" horiz-adv-x="1638" 
d="M820 1536q-62 0 -106 44t-44 106q0 61 44 104.5t106 43.5q60 0 104.5 -43.5t44.5 -104.5q0 -62 -44.5 -106t-104.5 -44zM814 -20q-204 0 -365.5 88t-255 256t-93.5 389q0 223 95 392.5t259 258t372 88.5q205 0 368 -87t256 -249l-229 -122q-59 114 -162 171.5t-233 57.5
q-204 0 -335 -134t-131 -370q0 -235 130.5 -372.5t344.5 -137.5q163 0 279 87t143 255h-422v212h670v-763h-207v222q-71 -116 -193.5 -179t-290.5 -63z" />
    <glyph glyph-name="gdotaccent" unicode="&#x121;" horiz-adv-x="1264" 
d="M611 1193q-62 0 -106 44t-44 105q0 62 44 105.5t106 43.5q61 0 105 -43.5t44 -105.5q0 -61 -44.5 -105t-104.5 -44zM867 1013h239v-945q0 -275 -138 -411t-385 -136q-390 0 -512 313l207 91q44 -105 115.5 -155.5t180.5 -50.5q140 0 210.5 86t70.5 246v139
q-46 -71 -133 -114t-190 -43q-193 0 -327.5 141t-134.5 361q0 110 37 204.5t100.5 158t148.5 99.5t179 36q108 0 195.5 -46.5t130.5 -123.5zM595 238q119 0 201 86.5t82 210.5t-81.5 210.5t-201.5 86.5q-121 0 -202 -84.5t-81 -212.5q0 -127 82 -212t201 -85z" />
    <glyph glyph-name="Gcommaaccent" unicode="&#x122;" horiz-adv-x="1638" 
d="M814 -20q-204 0 -365.5 88t-255 256t-93.5 389q0 223 95 392.5t259 258t372 88.5q205 0 368 -87t256 -249l-229 -122q-59 114 -162 171.5t-233 57.5q-204 0 -335 -134t-131 -370q0 -235 130.5 -372.5t344.5 -137.5q163 0 279 87t143 255h-422v212h670v-763h-207v222
q-71 -116 -193.5 -179t-290.5 -63zM667 -569l-125 58l165 371h220z" />
    <glyph glyph-name="gcommaaccent" unicode="&#x123;" horiz-adv-x="1264" 
d="M807 1485l-125 -320h-257l203 320h179zM867 1013h239v-945q0 -275 -138 -411t-385 -136q-390 0 -512 313l207 91q44 -105 115.5 -155.5t180.5 -50.5q140 0 210.5 86t70.5 246v139q-46 -71 -133 -114t-190 -43q-193 0 -327.5 141t-134.5 361q0 110 37 204.5t100.5 158
t148.5 99.5t179 36q108 0 195.5 -46.5t130.5 -123.5zM595 238q119 0 201 86.5t82 210.5t-81.5 210.5t-201.5 86.5q-121 0 -202 -84.5t-81 -212.5q0 -127 82 -212t201 -85z" />
    <glyph glyph-name="Hbar" unicode="&#x126;" horiz-adv-x="1561" 
d="M1496 1181v-109h-133v-1072h-260v604h-644v-604h-261v1072h-133v109h133v252h261v-252h644v252h260v-252h133zM1103 832v240h-644v-240h644z" />
    <glyph glyph-name="hbar" unicode="&#x127;" horiz-adv-x="1224" 
d="M729 1033q168 0 262.5 -95.5t94.5 -278.5v-659h-250v616q0 112 -54 163t-142 51q-98 0 -164.5 -61t-67.5 -195v-574h-250v1189h-127v156h127v191h250v-191h285v-156h-285v-301q112 145 321 145z" />
    <glyph glyph-name="Itilde" unicode="&#x128;" horiz-adv-x="656" 
d="M474 1576q-63 0 -100.5 23t-69.5 62q-20 27 -28.5 37t-28 22t-41.5 12q-45 0 -68.5 -39t-23.5 -103h-132q0 115 59 187t161 72q103 0 167 -80q4 -5 17.5 -21t20 -22t18 -16t23.5 -13.5t26 -3.5q43 0 65 37.5t22 103.5h135q0 -113 -58.5 -185.5t-163.5 -72.5zM198 0v1433
h260v-1433h-260z" />
    <glyph glyph-name="itilde" unicode="&#x129;" horiz-adv-x="567" 
d="M417 1156q-109 0 -172 100q-28 43 -65 43q-36 0 -56 -36t-20 -94h-123q0 111 52.5 181t141.5 70q110 0 172 -101q25 -42 67 -42q36 0 54.5 34.5t18.5 94.5h125q0 -109 -52 -179.5t-143 -70.5zM158 0v1013h251v-1013h-251z" />
    <glyph glyph-name="Imacron" unicode="&#x12a;" horiz-adv-x="656" 
d="M-2 1571v150h658v-150h-658zM198 0v1433h260v-1433h-260z" />
    <glyph glyph-name="imacron" unicode="&#x12b;" horiz-adv-x="567" 
d="M-44 1191v150h658v-150h-658zM158 0v1013h251v-1013h-251z" />
    <glyph glyph-name="Iogonek" unicode="&#x12e;" horiz-adv-x="656" 
d="M288 -223q0 -38 65 -38q63 0 106 37v-164q-61 -24 -132 -24q-86 0 -136.5 27t-50.5 77q0 105 209 308h-151v1433h260v-1433h1q-171 -158 -171 -223z" />
    <glyph glyph-name="iogonek" unicode="&#x12f;" horiz-adv-x="567" 
d="M286 1193q-62 0 -106 44t-44 105q0 62 44 105.5t106 43.5q61 0 105 -43.5t44 -105.5q0 -61 -44.5 -105t-104.5 -44zM158 0v1013h251v-1013q-171 -158 -171 -223q0 -38 65 -38q63 0 106 37v-164q-61 -24 -132 -24q-86 0 -136.5 27t-50.5 77q0 105 209 308h-141z" />
    <glyph glyph-name="Idotaccent" unicode="&#x130;" horiz-adv-x="656" 
d="M328 1536q-62 0 -106 44t-44 106q0 61 44 104.5t106 43.5q60 0 104.5 -43.5t44.5 -104.5q0 -62 -44.5 -106t-104.5 -44zM198 0v1433h260v-1433h-260z" />
    <glyph glyph-name="dotlessi" unicode="&#x131;" horiz-adv-x="567" 
d="M158 0v1013h251v-1013h-251z" />
    <glyph glyph-name="Kcommaaccent" unicode="&#x136;" horiz-adv-x="1407" 
d="M791 748l579 -748h-332l-468 627h-112v-627h-260v1433h260v-578h108l465 578h317zM410 -511l165 371h220l-260 -429z" />
    <glyph glyph-name="kcommaaccent" unicode="&#x137;" horiz-adv-x="1133" 
d="M683 545l445 -545h-307l-343 439h-68v-439h-252v1536h252v-919h61l329 396h285zM290 -511l165 371h220l-260 -429z" />
    <glyph glyph-name="Lacute" unicode="&#x139;" horiz-adv-x="970" 
d="M630 1836l-225 -265h-159l259 354zM458 231h465v-231h-725v1433h260v-1202z" />
    <glyph glyph-name="lacute" unicode="&#x13a;" horiz-adv-x="568" 
d="M203 1687l259 354l125 -90l-225 -264h-159zM158 0v1536h252v-1536h-252z" />
    <glyph glyph-name="Lcommaaccent" unicode="&#x13b;" horiz-adv-x="970" 
d="M458 231h465v-231h-725v1433h260v-1202zM285 -511l165 371h220l-260 -429z" />
    <glyph glyph-name="lcommaaccent" unicode="&#x13c;" horiz-adv-x="568" 
d="M158 0v1536h252v-1536h-252zM133 -569l-125 58l165 371h220z" />
    <glyph glyph-name="Lcaron" unicode="&#x13d;" horiz-adv-x="1091" 
d="M458 1433v-1202h465v-231h-725v1433h260zM1025 1433l-203 -643h-179l125 643h257z" />
    <glyph glyph-name="lcaron" unicode="&#x13e;" horiz-adv-x="755" 
d="M158 0v1536h250v-1536h-250zM533 894l125 642h258l-203 -642h-180z" />
    <glyph glyph-name="Lslash" unicode="&#x141;" horiz-adv-x="970" 
d="M458 231h465v-231h-725v535l-167 -124v163l167 124v735h260v-541l177 132v-165l-177 -131v-497z" />
    <glyph glyph-name="lslash" unicode="&#x142;" horiz-adv-x="568" 
d="M585 1068v-165l-175 -130v-773h-252v586l-177 -131v163l177 132v786h252v-598z" />
    <glyph glyph-name="Nacute" unicode="&#x143;" horiz-adv-x="1628" 
d="M1117 1836l-225 -265h-159l259 354zM1171 1433h259v-1433h-294l-680 1071v-1071h-258v1433h291l682 -1063v1063z" />
    <glyph glyph-name="nacute" unicode="&#x144;" horiz-adv-x="1225" 
d="M912 1428l-225 -264h-159l259 354zM718 1033q174 0 271 -91.5t97 -259.5v-682h-250v628q0 104 -54.5 153t-139.5 49q-102 0 -167.5 -62t-66.5 -194v-574h-250v1013h250v-117q109 137 310 137z" />
    <glyph glyph-name="Ncommaaccent" unicode="&#x145;" horiz-adv-x="1628" 
d="M1171 1433h259v-1433h-294l-680 1071v-1071h-258v1433h291l682 -1063v1063zM539 -511l165 371h220l-260 -429z" />
    <glyph glyph-name="ncommaaccent" unicode="&#x146;" horiz-adv-x="1225" 
d="M718 1033q174 0 271 -91.5t97 -259.5v-682h-250v628q0 104 -54.5 153t-139.5 49q-102 0 -167.5 -62t-66.5 -194v-574h-250v1013h250v-117q109 137 310 137zM334 -511l165 371h220l-260 -429z" />
    <glyph glyph-name="Ncaron" unicode="&#x147;" horiz-adv-x="1628" 
d="M894 1571h-158l-222 298h157l143 -183l144 183h158zM1171 1433h259v-1433h-294l-680 1071v-1071h-258v1433h291l682 -1063v1063z" />
    <glyph glyph-name="ncaron" unicode="&#x148;" horiz-adv-x="1225" 
d="M689 1192h-158l-222 298h157l143 -183l144 183h158zM718 1033q174 0 271 -91.5t97 -259.5v-682h-250v628q0 104 -54.5 153t-139.5 49q-102 0 -167.5 -62t-66.5 -194v-574h-250v1013h250v-117q109 137 310 137z" />
    <glyph glyph-name="Eng" unicode="&#x14a;" horiz-adv-x="1649" 
d="M1193 1433h258v-1433q0 -220 -135.5 -343t-364.5 -123v196q113 0 175.5 71t31.5 199l-703 1076v-1076h-257v1433h290l705 -1070v1070z" />
    <glyph glyph-name="eng" unicode="&#x14b;" horiz-adv-x="1226" 
d="M727 1033q169 0 264.5 -93t95.5 -264v-829q0 -146 -85 -235t-231 -89h-164v179h97q60 0 96 32t36 99v795q0 104 -54.5 153t-143.5 49q-100 0 -164.5 -59t-65.5 -190v-581h-250v1013h250v-118q113 138 319 138z" />
    <glyph glyph-name="Omacron" unicode="&#x14c;" horiz-adv-x="1651" 
d="M497 1571v150h658v-150h-658zM826 -20q-208 0 -372 89t-259 258t-95 390t95 389.5t259 257t372 88.5q207 0 371 -88.5t259 -257t95 -389.5t-95 -390t-259 -258t-371 -89zM826 220q203 0 335 134t132 363q0 227 -132.5 361t-334.5 134q-99 0 -184.5 -34t-148.5 -96.5
t-99 -156.5t-36 -208q0 -229 132.5 -363t335.5 -134z" />
    <glyph glyph-name="omacron" unicode="&#x14d;" horiz-adv-x="1231" 
d="M287 1190v150h658v-150h-658zM616 -20q-239 0 -390 142.5t-151 385.5q0 241 150.5 383t390.5 142t390.5 -142t150.5 -383q0 -243 -151 -385.5t-390 -142.5zM613 181q131 0 213.5 90t82.5 237q0 146 -82.5 236t-213.5 90q-127 0 -208.5 -90t-81.5 -236q0 -147 81.5 -237
t208.5 -90z" />
    <glyph glyph-name="Ohungarumlaut" unicode="&#x150;" horiz-adv-x="1651" 
d="M560 1571l259 354l125 -89l-225 -265h-159zM932 1571l259 354l125 -89l-226 -265h-158zM826 -20q-208 0 -372 89t-259 258t-95 390t95 389.5t259 257t372 88.5q207 0 371 -88.5t259 -257t95 -389.5t-95 -390t-259 -258t-371 -89zM826 220q203 0 335 134t132 363
q0 227 -132.5 361t-334.5 134q-99 0 -184.5 -34t-148.5 -96.5t-99 -156.5t-36 -208q0 -229 132.5 -363t335.5 -134z" />
    <glyph glyph-name="ohungarumlaut" unicode="&#x151;" horiz-adv-x="1231" 
d="M350 1163l259 354l125 -90l-225 -264h-159zM722 1163l259 354l125 -90l-226 -264h-158zM616 -20q-239 0 -390 142.5t-151 385.5q0 241 150.5 383t390.5 142t390.5 -142t150.5 -383q0 -243 -151 -385.5t-390 -142.5zM613 181q131 0 213.5 90t82.5 237q0 146 -82.5 236
t-213.5 90q-127 0 -208.5 -90t-81.5 -236q0 -147 81.5 -237t208.5 -90z" />
    <glyph glyph-name="OE" unicode="&#x152;" horiz-adv-x="1986" 
d="M818 0q-185 0 -323.5 50.5t-224.5 146t-128 226t-42 296.5q0 339 176.5 526.5t541.5 187.5h1046v-231h-584v-368h498v-231h-498v-372h584v-231h-1046zM831 231h190v971h-190q-248 0 -354.5 -120t-106.5 -363q0 -244 106.5 -366t354.5 -122z" />
    <glyph glyph-name="oe" unicode="&#x153;" horiz-adv-x="2002" 
d="M1925 523l-4 -62h-764q7 -136 86 -208.5t196 -72.5q82 0 144.5 39t95.5 112l228 -37q-51 -148 -176 -231t-290 -83q-267 0 -411 167q-73 -81 -179.5 -124t-234.5 -43q-239 0 -390 142.5t-151 385.5q0 241 150.5 383t390.5 142q129 0 236 -43t179 -124q145 168 402 168
q107 0 195.5 -31.5t155 -93t103.5 -160t38 -226.5zM1434 854q-108 0 -178 -56.5t-91 -169.5h512q-10 110 -75.5 168t-167.5 58zM613 181q131 0 213.5 90t82.5 237q0 146 -82.5 236t-213.5 90q-127 0 -208.5 -90t-81.5 -236q0 -147 81.5 -237t208.5 -90z" />
    <glyph glyph-name="Racute" unicode="&#x154;" horiz-adv-x="1317" 
d="M954 1836l-225 -265h-159l259 354zM961 0l-371 636h-131v-636h-261v1433h505q115 0 203 -32.5t141.5 -91t80 -133.5t26.5 -164q0 -142 -78.5 -234.5t-230.5 -124.5l422 -653h-306zM459 1214v-370h205q123 0 182.5 49t59.5 135t-59.5 136t-182.5 50h-205z" />
    <glyph glyph-name="racute" unicode="&#x155;" horiz-adv-x="748" 
d="M662 1428l-225 -264h-159l259 354zM398 847q39 74 130.5 125.5t197.5 52.5v-226q-163 0 -240 -65.5t-77 -224.5v-509h-251v1013h240v-166z" />
    <glyph glyph-name="Rcommaaccent" unicode="&#x156;" horiz-adv-x="1317" 
d="M845 653l422 -653h-306l-371 636h-131v-636h-261v1433h505q115 0 203 -32.5t141.5 -91t80 -133.5t26.5 -164q0 -142 -78.5 -234.5t-230.5 -124.5zM459 1214v-370h205q123 0 182.5 49t59.5 135t-59.5 136t-182.5 50h-205zM376 -511l165 371h220l-260 -429z" />
    <glyph glyph-name="rcommaaccent" unicode="&#x157;" horiz-adv-x="748" 
d="M398 847q39 74 130.5 125.5t197.5 52.5v-226q-163 0 -240 -65.5t-77 -224.5v-509h-251v1013h240v-166zM8 -511l165 371h220l-260 -429z" />
    <glyph glyph-name="Rcaron" unicode="&#x158;" horiz-adv-x="1317" 
d="M731 1571h-158l-222 298h157l143 -183l144 183h158zM961 0l-371 636h-131v-636h-261v1433h505q115 0 203 -32.5t141.5 -91t80 -133.5t26.5 -164q0 -142 -78.5 -234.5t-230.5 -124.5l422 -653h-306zM459 1214v-370h205q123 0 182.5 49t59.5 135t-59.5 136t-182.5 50h-205z
" />
    <glyph glyph-name="rcaron" unicode="&#x159;" horiz-adv-x="748" 
d="M439 1192h-158l-222 298h157l143 -183l144 183h158zM398 847q39 74 130.5 125.5t197.5 52.5v-226q-163 0 -240 -65.5t-77 -224.5v-509h-251v1013h240v-166z" />
    <glyph glyph-name="Sacute" unicode="&#x15a;" horiz-adv-x="1288" 
d="M565 1571l259 354l125 -89l-225 -265h-159zM663 -20q-232 0 -389.5 107t-190.5 297l267 62q18 -120 105.5 -185.5t217.5 -65.5q109 0 179.5 49t69.5 149q0 30 -10.5 56.5t-25.5 46t-43.5 38t-52 31t-64.5 26.5t-69 22.5t-75 22.5q-9 3 -14 4q-57 17 -93 28.5t-87 32.5
t-83.5 41t-69 51t-57 65.5t-34.5 81.5t-14 102q0 129 66.5 223.5t177.5 140.5t252 46q97 0 184.5 -21t163 -63.5t129 -115t73.5 -167.5l-250 -62q-22 108 -97.5 161.5t-188.5 53.5q-106 0 -177 -47.5t-71 -143.5q0 -36 17 -65t43.5 -48.5t70 -38t83 -31t97.5 -28.5
q5 -1 8 -2q87 -25 137 -42t124.5 -54t115 -77.5t71.5 -107t31 -148.5q0 -108 -43 -191.5t-117.5 -133.5t-167 -75t-199.5 -25z" />
    <glyph glyph-name="sacute" unicode="&#x15b;" horiz-adv-x="977" 
d="M410 1165l259 354l125 -90l-225 -264h-159zM503 -20q-173 0 -288 72t-141 210l211 60q20 -83 77 -123.5t141 -40.5q69 0 116.5 28t46.5 91q-1 32 -16.5 55.5t-50.5 40.5t-66 27.5t-89 27t-93 28.5q-43 14 -75.5 28t-67.5 37.5t-57 51.5t-36.5 69.5t-14.5 91.5
q0 147 107 222.5t277 75.5q155 0 260 -65.5t131 -201.5l-195 -45q-39 142 -195 142q-66 0 -111 -27t-45 -80q0 -15 3.5 -27.5t13 -23.5t18.5 -19t26 -16.5t29 -13.5t36 -12t37.5 -10.5t41.5 -10.5t42 -11q56 -15 95.5 -29t87.5 -40t77 -57.5t49.5 -81.5t20.5 -112
q0 -66 -21.5 -119t-59 -88.5t-89.5 -59t-109.5 -34t-123.5 -10.5z" />
    <glyph glyph-name="Scedilla" unicode="&#x15e;" horiz-adv-x="1288" 
d="M1190 405q0 -104 -39.5 -185t-108.5 -131t-156 -77t-188 -31l-58 -109q30 6 48 6q85 0 141 -53.5t56 -137.5q0 -92 -63 -155.5t-155 -63.5q-81 0 -146.5 41t-91.5 103l113 42q17 -31 51 -49.5t69 -18.5q43 0 73 28t30 73q0 46 -30 72t-76 26q-45 0 -76 -27l-95 57l89 169
q-199 19 -331.5 123.5t-162.5 276.5l267 62q18 -120 105.5 -185.5t217.5 -65.5q109 0 179.5 49t69.5 149q0 30 -10.5 56.5t-25.5 46t-43.5 38t-52 31t-64.5 26.5t-69 22.5t-75 22.5q-9 3 -14 4q-57 17 -93 28.5t-87 32.5t-83.5 41t-69 51t-57 65.5t-34.5 81.5t-14 102
q0 129 66.5 223.5t177.5 140.5t252 46q97 0 184.5 -21t163 -63.5t129 -115t73.5 -167.5l-250 -62q-22 108 -97.5 161.5t-188.5 53.5q-106 0 -177 -47.5t-71 -143.5q0 -36 17 -65t43.5 -48.5t70 -38t83 -31t97.5 -28.5q5 -1 8 -2q87 -25 137 -42t124.5 -54t115 -77.5
t71.5 -107t31 -148.5z" />
    <glyph glyph-name="scedilla" unicode="&#x15f;" horiz-adv-x="977" 
d="M906 291q0 -77 -29 -136.5t-80 -95.5t-114.5 -55t-139.5 -23l-58 -108q30 6 48 6q85 0 141 -53.5t56 -137.5q0 -92 -63 -155.5t-155 -63.5q-81 0 -146.5 41t-91.5 103l113 42q17 -31 51 -49.5t69 -18.5q43 0 73 28t30 73q0 46 -30 72t-76 26q-44 0 -76 -27l-95 57l89 168
q-141 16 -233 86.5t-115 191.5l211 60q20 -83 77 -123.5t141 -40.5q69 0 116.5 28t46.5 91q-1 32 -16.5 55.5t-50.5 40.5t-66 27.5t-89 27t-93 28.5q-43 14 -75.5 28t-67.5 37.5t-57 51.5t-36.5 69.5t-14.5 91.5q0 147 107 222.5t277 75.5q155 0 260 -65.5t131 -201.5
l-195 -45q-39 142 -195 142q-66 0 -111 -27t-45 -80q0 -15 3.5 -27.5t13 -23.5t18.5 -19t26 -16.5t29 -13.5t36 -12t37.5 -10.5t41.5 -10.5t42 -11q56 -15 95.5 -29t87.5 -40t77 -57.5t49.5 -81.5t20.5 -112z" />
    <glyph glyph-name="Scaron" unicode="&#x160;" horiz-adv-x="1288" 
d="M568 1571l-222 298h157l143 -183l144 183h158l-222 -298h-158zM663 -20q-232 0 -389.5 107t-190.5 297l267 62q18 -120 105.5 -185.5t217.5 -65.5q109 0 179.5 49t69.5 149q0 30 -10.5 56.5t-25.5 46t-43.5 38t-52 31t-64.5 26.5t-69 22.5t-75 22.5q-9 3 -14 4
q-57 17 -93 28.5t-87 32.5t-83.5 41t-69 51t-57 65.5t-34.5 81.5t-14 102q0 129 66.5 223.5t177.5 140.5t252 46q97 0 184.5 -21t163 -63.5t129 -115t73.5 -167.5l-250 -62q-22 108 -97.5 161.5t-188.5 53.5q-106 0 -177 -47.5t-71 -143.5q0 -36 17 -65t43.5 -48.5t70 -38
t83 -31t97.5 -28.5q5 -1 8 -2q87 -25 137 -42t124.5 -54t115 -77.5t71.5 -107t31 -148.5q0 -108 -43 -191.5t-117.5 -133.5t-167 -75t-199.5 -25z" />
    <glyph glyph-name="scaron" unicode="&#x161;" horiz-adv-x="977" 
d="M413 1193l-222 298h157l143 -183l144 183h158l-222 -298h-158zM503 -20q-173 0 -288 72t-141 210l211 60q20 -83 77 -123.5t141 -40.5q69 0 116.5 28t46.5 91q-1 32 -16.5 55.5t-50.5 40.5t-66 27.5t-89 27t-93 28.5q-43 14 -75.5 28t-67.5 37.5t-57 51.5t-36.5 69.5
t-14.5 91.5q0 147 107 222.5t277 75.5q155 0 260 -65.5t131 -201.5l-195 -45q-39 142 -195 142q-66 0 -111 -27t-45 -80q0 -15 3.5 -27.5t13 -23.5t18.5 -19t26 -16.5t29 -13.5t36 -12t37.5 -10.5t41.5 -10.5t42 -11q56 -15 95.5 -29t87.5 -40t77 -57.5t49.5 -81.5
t20.5 -112q0 -66 -21.5 -119t-59 -88.5t-89.5 -59t-109.5 -34t-123.5 -10.5z" />
    <glyph glyph-name="uni0162" unicode="&#x162;" horiz-adv-x="1048" 
d="M653 0h-67l-68 -128q30 6 48 6q85 0 141 -53.5t56 -137.5q0 -92 -63 -155.5t-155 -63.5q-81 0 -146.5 41t-91.5 103l113 42q17 -31 51 -49.5t69 -18.5q43 0 73 28t30 73q0 46 -30 72t-76 26q-45 0 -76 -27l-95 57l98 185h-68v1203h-351v230h958v-230h-350v-1203z" />
    <glyph glyph-name="uni0163" unicode="&#x163;" horiz-adv-x="764" 
d="M609 -122q85 0 141 -53.5t56 -137.5q0 -92 -63 -155.5t-155 -63.5q-81 0 -146.5 41t-91.5 103l113 42q17 -31 51 -49.5t69 -18.5q43 0 73 28t30 73q0 46 -30 72t-76 26q-44 0 -76 -27l-95 57l98 185q-136 4 -211 83t-75 220v517h-201v193h68q83 0 121 40t38 141v149h227
v-330h216v-193h-216v-490q0 -69 33 -103.5t92 -34.5h91v-192h-61l-68 -128q30 6 48 6z" />
    <glyph glyph-name="Tcaron" unicode="&#x164;" horiz-adv-x="1048" 
d="M604 1571h-158l-222 298h157l143 -183l144 183h158zM1003 1433v-230h-350v-1203h-257v1203h-351v230h958z" />
    <glyph glyph-name="tcaron" unicode="&#x165;" horiz-adv-x="727" 
d="M594 1201l125 641h258l-203 -641h-180zM499 0q-141 0 -218.5 79.5t-77.5 223.5v517h-202v193h68q83 0 121 40t38 141v149h227v-330h217v-193h-217v-490q0 -69 33 -103.5t92 -34.5h92v-192h-173z" />
    <glyph glyph-name="Tbar" unicode="&#x166;" horiz-adv-x="1048" 
d="M1003 1203h-350v-408h203v-156h-203v-639h-257v639h-202v156h202v408h-351v230h958v-230z" />
    <glyph glyph-name="tbar" unicode="&#x167;" horiz-adv-x="764" 
d="M690 820h-216v-234h154v-156h-154v-100q0 -69 33 -103.5t92 -34.5h91v-192h-172q-141 0 -219 79.5t-78 223.5v127h-146v156h146v234h-201v193h68q83 0 121 40t38 141v149h227v-330h216v-193z" />
    <glyph glyph-name="Utilde" unicode="&#x168;" horiz-adv-x="1434" 
d="M863 1576q-63 0 -100.5 23t-69.5 62q-20 27 -28.5 37t-28 22t-41.5 12q-45 0 -68.5 -39t-23.5 -103h-132q0 115 59 187t161 72q103 0 167 -80q4 -5 17.5 -21t20 -22t18 -16t23.5 -13.5t26 -3.5q43 0 65 37.5t22 103.5h135q0 -113 -58.5 -185.5t-163.5 -72.5zM716 -20
q-117 0 -216 32t-173.5 94t-116.5 161.5t-42 225.5v940h260v-905q0 -160 79 -238t209 -78q129 0 209.5 78.5t80.5 237.5v905h259v-940q0 -127 -42 -226t-117 -161t-173.5 -94t-216.5 -32z" />
    <glyph glyph-name="utilde" unicode="&#x169;" horiz-adv-x="1224" 
d="M509 1299q-36 0 -56 -36t-20 -94h-123q0 111 52.5 181t141.5 70q110 0 172 -101q25 -42 67 -42q36 0 54.5 34.5t18.5 94.5h125q0 -109 -52 -179.5t-143 -70.5q-109 0 -172 100q-28 43 -65 43zM816 1013h250v-1013h-237l-7 125q-51 -70 -132.5 -107.5t-183.5 -37.5
q-175 0 -271.5 91.5t-96.5 259.5v682h250v-628q0 -103 54.5 -152.5t140.5 -49.5q102 0 167 62t66 194v574z" />
    <glyph glyph-name="Umacron" unicode="&#x16a;" horiz-adv-x="1434" 
d="M387 1571v150h658v-150h-658zM716 -20q-117 0 -216 32t-173.5 94t-116.5 161.5t-42 225.5v940h260v-905q0 -160 79 -238t209 -78q129 0 209.5 78.5t80.5 237.5v905h259v-940q0 -127 -42 -226t-117 -161t-173.5 -94t-216.5 -32z" />
    <glyph glyph-name="umacron" unicode="&#x16b;" horiz-adv-x="1224" 
d="M943 1341v-150h-658v150h658zM816 1013h250v-1013h-237l-7 125q-51 -70 -132.5 -107.5t-183.5 -37.5q-175 0 -271.5 91.5t-96.5 259.5v682h250v-628q0 -103 54.5 -152.5t140.5 -49.5q102 0 167 62t66 194v574z" />
    <glyph glyph-name="Uring" unicode="&#x16e;" horiz-adv-x="1434" 
d="M716 1571q-96 0 -163.5 68t-67.5 162q0 95 67.5 161.5t163.5 66.5q94 0 160.5 -67t66.5 -161t-67 -162t-160 -68zM716 1681q51 0 85.5 33.5t34.5 86.5q0 50 -35 86.5t-85 36.5t-84.5 -36.5t-34.5 -86.5q0 -53 34 -86.5t85 -33.5zM716 -20q-117 0 -216 32t-173.5 94
t-116.5 161.5t-42 225.5v940h260v-905q0 -160 79 -238t209 -78q129 0 209.5 78.5t80.5 237.5v905h259v-940q0 -127 -42 -226t-117 -161t-173.5 -94t-216.5 -32z" />
    <glyph glyph-name="uring" unicode="&#x16f;" horiz-adv-x="1224" 
d="M614 1132q-96 0 -163.5 68t-67.5 163q0 94 67.5 161t163.5 67q94 0 160.5 -67t66.5 -161q0 -95 -66.5 -163t-160.5 -68zM614 1485q-50 0 -84.5 -36t-34.5 -86q0 -53 33.5 -87t85.5 -34q51 0 85.5 34t34.5 87q0 49 -35 85.5t-85 36.5zM816 1013h250v-1013h-237l-7 125
q-51 -70 -132.5 -107.5t-183.5 -37.5q-175 0 -271.5 91.5t-96.5 259.5v682h250v-628q0 -103 54.5 -152.5t140.5 -49.5q102 0 167 62t66 194v574z" />
    <glyph glyph-name="Uhungarumlaut" unicode="&#x170;" horiz-adv-x="1434" 
d="M450 1571l259 354l125 -89l-225 -265h-159zM822 1571l259 354l125 -89l-226 -265h-158zM716 -20q-117 0 -216 32t-173.5 94t-116.5 161.5t-42 225.5v940h260v-905q0 -160 79 -238t209 -78q129 0 209.5 78.5t80.5 237.5v905h259v-940q0 -127 -42 -226t-117 -161
t-173.5 -94t-216.5 -32z" />
    <glyph glyph-name="uhungarumlaut" unicode="&#x171;" horiz-adv-x="1224" 
d="M732 1428l-225 -264h-159l259 354zM878 1164h-158l259 354l125 -90zM816 439v574h250v-1013h-237l-7 125q-51 -70 -132.5 -107.5t-183.5 -37.5q-175 0 -271.5 91.5t-96.5 259.5v682h250v-628q0 -103 54.5 -152.5t140.5 -49.5q102 0 167 62t66 194z" />
    <glyph glyph-name="Uogonek" unicode="&#x172;" horiz-adv-x="1434" 
d="M1006 1433h259v-940q0 -171 -74 -287t-205 -174q-146 -141 -146 -200q0 -38 65 -38q63 0 106 37v-164q-61 -24 -132 -24q-86 0 -136.5 27t-50.5 77q0 87 144 242q-57 -9 -120 -9q-117 0 -216 32t-173.5 94t-116.5 161.5t-42 225.5v940h260v-905q0 -160 79 -238t209 -78
q129 0 209.5 78.5t80.5 237.5v905z" />
    <glyph glyph-name="uogonek" unicode="&#x173;" horiz-adv-x="1224" 
d="M1066 0q-171 -158 -171 -223q0 -38 65 -38q63 0 106 37v-164q-61 -24 -132 -24q-86 0 -136.5 27t-50.5 77q0 105 209 308h-127l-7 125q-51 -70 -132.5 -107.5t-183.5 -37.5q-175 0 -271.5 91.5t-96.5 259.5v682h250v-628q0 -103 54.5 -152.5t140.5 -49.5q102 0 167 62
t66 194v574h250v-1013z" />
    <glyph glyph-name="Wcircumflex" unicode="&#x174;" horiz-adv-x="2131" 
d="M921 1571h-157l222 298h158l222 -298h-158l-143 182zM439 0l-386 1433h270l299 -1117l332 1117h222l331 -1117l302 1117h269l-386 -1433h-328l-299 956l-299 -956h-327z" />
    <glyph glyph-name="wcircumflex" unicode="&#x175;" horiz-adv-x="1700" 
d="M860 1374l-144 -182h-157l222 298h158l222 -298h-158zM1421 1013h259l-353 -1014h-230l-248 706l-249 -706h-233l-346 1014h258l223 -696l250 696h192l251 -695z" />
    <glyph glyph-name="Ycircumflex" unicode="&#x176;" horiz-adv-x="1257" 
d="M629 1753l-144 -182h-157l222 298h158l222 -298h-158zM1231 1433l-471 -748v-685h-261v682l-473 751h290l313 -519l314 519h288z" />
    <glyph glyph-name="ycircumflex" unicode="&#x177;" horiz-adv-x="1079" 
d="M541 1374l-144 -182h-157l222 298h158l222 -298h-158zM808 1013h259l-613 -1490h-254l222 513l-409 977h273l255 -704z" />
    <glyph glyph-name="Ydieresis" unicode="&#x178;" horiz-adv-x="1257" 
d="M423 1536q-62 0 -106 44t-44 106q0 61 44 104.5t106 43.5q60 0 104.5 -43.5t44.5 -104.5q0 -62 -44.5 -106t-104.5 -44zM835 1536q-62 0 -106 44t-44 106q0 61 44 104.5t106 43.5q60 0 104.5 -43.5t44.5 -104.5q0 -62 -44.5 -106t-104.5 -44zM1231 1433l-471 -748v-685
h-261v682l-473 751h290l313 -519l314 519h288z" />
    <glyph glyph-name="Zacute" unicode="&#x179;" horiz-adv-x="1232" 
d="M939 1836l-225 -265h-159l259 354zM406 231h736v-231h-1049v207l724 996h-722v230h1030v-208z" />
    <glyph glyph-name="zacute" unicode="&#x17a;" horiz-adv-x="932" 
d="M782 1428l-225 -264h-159l259 354zM878 1013l-476 -818h466v-195h-825l473 818h-440v195h802z" />
    <glyph glyph-name="Zdotaccent" unicode="&#x17b;" horiz-adv-x="1232" 
d="M638 1536q-62 0 -106 44t-44 106q0 61 44 104.5t106 43.5q60 0 104.5 -43.5t44.5 -104.5q0 -62 -44.5 -106t-104.5 -44zM406 231h736v-231h-1049v207l724 996h-722v230h1030v-208z" />
    <glyph glyph-name="zdotaccent" unicode="&#x17c;" horiz-adv-x="932" 
d="M481 1193q-62 0 -106 44t-44 105q0 62 44 105.5t106 43.5q61 0 105 -43.5t44 -105.5q0 -61 -44.5 -105t-104.5 -44zM878 1013l-476 -818h466v-195h-825l473 818h-440v195h802z" />
    <glyph glyph-name="Zcaron" unicode="&#x17d;" horiz-adv-x="1232" 
d="M716 1571h-158l-222 298h157l143 -183l144 183h158zM406 231h736v-231h-1049v207l724 996h-722v230h1030v-208z" />
    <glyph glyph-name="zcaron" unicode="&#x17e;" horiz-adv-x="932" 
d="M559 1192h-158l-222 298h157l143 -183l144 183h158zM878 1013l-476 -818h466v-195h-825l473 818h-440v195h802z" />
    <glyph glyph-name="florin" unicode="&#x192;" horiz-adv-x="1052" 
d="M145 -409l195 1226h-172l31 196h173l31 205q21 143 138 240.5t261 97.5q47 0 89 -11t61 -26l-21 -181q-40 33 -103 33q-78 0 -131.5 -50.5t-67.5 -135.5l-26 -172h280l-31 -196h-280l-197 -1226h-230z" />
    <glyph glyph-name="Ohorn" unicode="&#x1a0;" horiz-adv-x="1651" 
d="M1495 1520h130v-147q0 -232 -180 -232h-10q116 -180 116 -424q0 -221 -95 -390t-259 -258t-371 -89q-208 0 -372 89t-259 258t-95 390t95 389.5t259 257t372 88.5q298 0 495 -177q43 -18 79 -18q53 0 74 32.5t21 111.5v119zM826 220q203 0 335 134t132 363
q0 227 -132.5 361t-334.5 134q-99 0 -184.5 -34t-148.5 -96.5t-99 -156.5t-36 -208q0 -229 132.5 -363t335.5 -134z" />
    <glyph glyph-name="ohorn" unicode="&#x1a1;" horiz-adv-x="1231" 
d="M1126 1168h130v-147q0 -120 -46.5 -174.5t-122.5 -57.5q70 -121 70 -281q0 -243 -151 -385.5t-390 -142.5t-390 142.5t-151 385.5q0 241 150.5 383t390.5 142q221 0 367 -121q25 -7 48 -7q53 0 74 32.5t21 111.5v119zM613 181q131 0 213.5 90t82.5 237q0 146 -82.5 236
t-213.5 90q-127 0 -208.5 -90t-81.5 -236q0 -147 81.5 -237t208.5 -90z" />
    <glyph glyph-name="Uhorn" unicode="&#x1af;" horiz-adv-x="1434" 
d="M1422 1587h130v-147q0 -232 -180 -232q-49 0 -107 20v-735q0 -127 -42 -226t-117 -161t-173.5 -94t-216.5 -32q-117 0 -216 32t-173.5 94t-116.5 161.5t-42 225.5v940h260v-905q0 -160 79 -238t209 -78q129 0 209.5 78.5t80.5 237.5v905h259v-97q36 -12 62 -12
q53 0 74 32.5t21 111.5v119z" />
    <glyph glyph-name="uhorn" unicode="&#x1b0;" horiz-adv-x="1224" 
d="M1223 1167h130v-147q0 -232 -180 -232q-49 0 -107 20v-808h-237l-7 125q-51 -70 -132.5 -107.5t-183.5 -37.5q-175 0 -271.5 91.5t-96.5 259.5v682h250v-628q0 -103 54.5 -152.5t140.5 -49.5q102 0 167 62t66 194v574h250v-97q36 -12 62 -12q53 0 74 32.5t21 111.5v119z
" />
    <glyph glyph-name="uni01CD" unicode="&#x1cd;" horiz-adv-x="1451" 
d="M805 1571h-158l-222 298h157l143 -183l144 183h158zM1145 0l-110 311h-618l-110 -311h-267l528 1433h316l527 -1433h-266zM495 531h462l-231 653z" />
    <glyph glyph-name="uni01CE" unicode="&#x1ce;" horiz-adv-x="1098" 
d="M634 1192h-158l-222 298h157l143 -183l144 183h158zM957 284q0 -173 26 -257v-27h-237l-24 114q-55 -67 -142.5 -100.5t-182.5 -33.5q-63 0 -117 15.5t-99 47.5t-70.5 88t-25.5 130q0 76 26 132t78.5 92.5t114.5 59.5t150 41l169 35q51 11 73 31t22 54q0 41 -16 71.5
t-43.5 47t-59.5 24t-68 7.5q-185 0 -210 -164l-222 42q59 298 445 298q65 0 121 -9t111.5 -34t94 -64t62.5 -104t24 -150v-387zM474 153q121 0 188.5 79t67.5 243l-246 -63q-79 -17 -119.5 -47.5t-40.5 -86.5q0 -61 42 -93t108 -32z" />
    <glyph glyph-name="uni01CF" unicode="&#x1cf;" horiz-adv-x="656" 
d="M248 1571l-222 298h157l143 -183l144 183h158l-222 -298h-158zM198 0v1433h260v-1433h-260z" />
    <glyph glyph-name="uni01D0" unicode="&#x1d0;" horiz-adv-x="567" 
d="M206 1192l-222 298h157l143 -183l144 183h158l-222 -298h-158zM158 0v1013h251v-1013h-251z" />
    <glyph glyph-name="uni01D1" unicode="&#x1d1;" horiz-adv-x="1651" 
d="M747 1571l-222 298h157l143 -183l144 183h158l-222 -298h-158zM826 -20q-208 0 -372 89t-259 258t-95 390t95 389.5t259 257t372 88.5q207 0 371 -88.5t259 -257t95 -389.5t-95 -390t-259 -258t-371 -89zM826 220q203 0 335 134t132 363q0 227 -132.5 361t-334.5 134
q-99 0 -184.5 -34t-148.5 -96.5t-99 -156.5t-36 -208q0 -229 132.5 -363t335.5 -134z" />
    <glyph glyph-name="uni01D2" unicode="&#x1d2;" horiz-adv-x="1231" 
d="M537 1191l-222 298h157l143 -183l144 183h158l-222 -298h-158zM616 -20q-239 0 -390 142.5t-151 385.5q0 241 150.5 383t390.5 142t390.5 -142t150.5 -383q0 -243 -151 -385.5t-390 -142.5zM613 181q131 0 213.5 90t82.5 237q0 146 -82.5 236t-213.5 90
q-127 0 -208.5 -90t-81.5 -236q0 -147 81.5 -237t208.5 -90z" />
    <glyph glyph-name="uni01D3" unicode="&#x1d3;" horiz-adv-x="1434" 
d="M637 1571l-222 298h157l143 -183l144 183h158l-222 -298h-158zM716 -20q-117 0 -216 32t-173.5 94t-116.5 161.5t-42 225.5v940h260v-905q0 -160 79 -238t209 -78q129 0 209.5 78.5t80.5 237.5v905h259v-940q0 -127 -42 -226t-117 -161t-173.5 -94t-216.5 -32z" />
    <glyph glyph-name="uni01D4" unicode="&#x1d4;" horiz-adv-x="1224" 
d="M693 1192h-158l-222 298h157l143 -183l144 183h158zM816 1013h250v-1013h-237l-7 125q-51 -70 -132.5 -107.5t-183.5 -37.5q-175 0 -271.5 91.5t-96.5 259.5v682h250v-628q0 -103 54.5 -152.5t140.5 -49.5q102 0 167 62t66 194v574z" />
    <glyph glyph-name="uni01D5" unicode="&#x1d5;" horiz-adv-x="1434" 
d="M387 1972v150h658v-150h-658zM510 1536q-62 0 -106 44t-44 106q0 61 44 104.5t106 43.5q60 0 104.5 -43.5t44.5 -104.5q0 -62 -44.5 -106t-104.5 -44zM922 1536q-62 0 -106 44t-44 106q0 61 44 104.5t106 43.5q60 0 104.5 -43.5t44.5 -104.5q0 -62 -44.5 -106t-104.5 -44
zM716 -20q-117 0 -216 32t-173.5 94t-116.5 161.5t-42 225.5v940h260v-905q0 -160 79 -238t209 -78q129 0 209.5 78.5t80.5 237.5v905h259v-940q0 -127 -42 -226t-117 -161t-173.5 -94t-216.5 -32z" />
    <glyph glyph-name="uni01D6" unicode="&#x1d6;" horiz-adv-x="1224" 
d="M943 1798v-150h-658v150h658zM408 1193q-62 0 -106 44t-44 105q0 62 44 105.5t106 43.5q61 0 105 -43.5t44 -105.5q0 -61 -44.5 -105t-104.5 -44zM820 1491q61 0 105 -43.5t44 -105.5q0 -61 -44.5 -105t-104.5 -44q-62 0 -106 44t-44 105q0 62 44 105.5t106 43.5z
M816 1013h250v-1013h-237l-7 125q-51 -70 -132.5 -107.5t-183.5 -37.5q-175 0 -271.5 91.5t-96.5 259.5v682h250v-628q0 -103 54.5 -152.5t140.5 -49.5q102 0 167 62t66 194v574z" />
    <glyph glyph-name="uni01D7" unicode="&#x1d7;" horiz-adv-x="1434" 
d="M634 1972l259 354l125 -89l-225 -265h-159zM510 1536q-62 0 -106 44t-44 106q0 61 44 104.5t106 43.5q60 0 104.5 -43.5t44.5 -104.5q0 -62 -44.5 -106t-104.5 -44zM922 1536q-62 0 -106 44t-44 106q0 61 44 104.5t106 43.5q60 0 104.5 -43.5t44.5 -104.5
q0 -62 -44.5 -106t-104.5 -44zM716 -20q-117 0 -216 32t-173.5 94t-116.5 161.5t-42 225.5v940h260v-905q0 -160 79 -238t209 -78q129 0 209.5 78.5t80.5 237.5v905h259v-940q0 -127 -42 -226t-117 -161t-173.5 -94t-216.5 -32z" />
    <glyph glyph-name="uni01D8" unicode="&#x1d8;" horiz-adv-x="1224" 
d="M916 1885l-225 -264h-159l259 354zM408 1193q-62 0 -106 44t-44 105q0 62 44 105.5t106 43.5q61 0 105 -43.5t44 -105.5q0 -61 -44.5 -105t-104.5 -44zM670 1342q0 62 44 105.5t106 43.5q61 0 105 -43.5t44 -105.5q0 -61 -44.5 -105t-104.5 -44q-62 0 -106 44t-44 105z
M816 1013h250v-1013h-237l-7 125q-51 -70 -132.5 -107.5t-183.5 -37.5q-175 0 -271.5 91.5t-96.5 259.5v682h250v-628q0 -103 54.5 -152.5t140.5 -49.5q102 0 167 62t66 194v574z" />
    <glyph glyph-name="uni01D9" unicode="&#x1d9;" horiz-adv-x="1434" 
d="M637 1972l-222 298h157l143 -183l144 183h158l-222 -298h-158zM510 1536q-62 0 -106 44t-44 106q0 61 44 104.5t106 43.5q60 0 104.5 -43.5t44.5 -104.5q0 -62 -44.5 -106t-104.5 -44zM922 1536q-62 0 -106 44t-44 106q0 61 44 104.5t106 43.5q60 0 104.5 -43.5
t44.5 -104.5q0 -62 -44.5 -106t-104.5 -44zM716 -20q-117 0 -216 32t-173.5 94t-116.5 161.5t-42 225.5v940h260v-905q0 -160 79 -238t209 -78q129 0 209.5 78.5t80.5 237.5v905h259v-940q0 -127 -42 -226t-117 -161t-173.5 -94t-216.5 -32z" />
    <glyph glyph-name="uni01DA" unicode="&#x1da;" horiz-adv-x="1224" 
d="M693 1649h-158l-222 298h157l143 -183l144 183h158zM408 1193q-62 0 -106 44t-44 105q0 62 44 105.5t106 43.5q61 0 105 -43.5t44 -105.5q0 -61 -44.5 -105t-104.5 -44zM670 1342q0 62 44 105.5t106 43.5q61 0 105 -43.5t44 -105.5q0 -61 -44.5 -105t-104.5 -44
q-62 0 -106 44t-44 105zM816 1013h250v-1013h-237l-7 125q-51 -70 -132.5 -107.5t-183.5 -37.5q-175 0 -271.5 91.5t-96.5 259.5v682h250v-628q0 -103 54.5 -152.5t140.5 -49.5q102 0 167 62t66 194v574z" />
    <glyph glyph-name="uni01DB" unicode="&#x1db;" horiz-adv-x="1434" 
d="M638 1972l-226 265l125 89l259 -354h-158zM510 1536q-62 0 -106 44t-44 106q0 61 44 104.5t106 43.5q60 0 104.5 -43.5t44.5 -104.5q0 -62 -44.5 -106t-104.5 -44zM922 1536q-62 0 -106 44t-44 106q0 61 44 104.5t106 43.5q60 0 104.5 -43.5t44.5 -104.5
q0 -62 -44.5 -106t-104.5 -44zM716 -20q-117 0 -216 32t-173.5 94t-116.5 161.5t-42 225.5v940h260v-905q0 -160 79 -238t209 -78q129 0 209.5 78.5t80.5 237.5v905h259v-940q0 -127 -42 -226t-117 -161t-173.5 -94t-216.5 -32z" />
    <glyph glyph-name="uni01DC" unicode="&#x1dc;" horiz-adv-x="1224" 
d="M694 1621h-158l-226 264l125 90zM408 1193q-62 0 -106 44t-44 105q0 62 44 105.5t106 43.5q61 0 105 -43.5t44 -105.5q0 -61 -44.5 -105t-104.5 -44zM820 1193q-62 0 -106 44t-44 105q0 62 44 105.5t106 43.5q61 0 105 -43.5t44 -105.5q0 -61 -44.5 -105t-104.5 -44z
M816 1013h250v-1013h-237l-7 125q-51 -70 -132.5 -107.5t-183.5 -37.5q-175 0 -271.5 91.5t-96.5 259.5v682h250v-628q0 -103 54.5 -152.5t140.5 -49.5q102 0 167 62t66 194v574z" />
    <glyph glyph-name="Scommaaccent" unicode="&#x218;" horiz-adv-x="1288" 
d="M663 -20q-232 0 -389.5 107t-190.5 297l267 62q18 -120 105.5 -185.5t217.5 -65.5q109 0 179.5 49t69.5 149q0 30 -10.5 56.5t-25.5 46t-43.5 38t-52 31t-64.5 26.5t-69 22.5t-75 22.5q-9 3 -14 4q-57 17 -93 28.5t-87 32.5t-83.5 41t-69 51t-57 65.5t-34.5 81.5t-14 102
q0 129 66.5 223.5t177.5 140.5t252 46q97 0 184.5 -21t163 -63.5t129 -115t73.5 -167.5l-250 -62q-22 108 -97.5 161.5t-188.5 53.5q-106 0 -177 -47.5t-71 -143.5q0 -36 17 -65t43.5 -48.5t70 -38t83 -31t97.5 -28.5q5 -1 8 -2q87 -25 137 -42t124.5 -54t115 -77.5
t71.5 -107t31 -148.5q0 -108 -43 -191.5t-117.5 -133.5t-167 -75t-199.5 -25zM496 -569l-125 58l165 371h220z" />
    <glyph glyph-name="scommaaccent" unicode="&#x219;" horiz-adv-x="977" 
d="M503 -20q-173 0 -288 72t-141 210l211 60q20 -83 77 -123.5t141 -40.5q69 0 116.5 28t46.5 91q-1 32 -16.5 55.5t-50.5 40.5t-66 27.5t-89 27t-93 28.5q-43 14 -75.5 28t-67.5 37.5t-57 51.5t-36.5 69.5t-14.5 91.5q0 147 107 222.5t277 75.5q155 0 260 -65.5t131 -201.5
l-195 -45q-39 142 -195 142q-66 0 -111 -27t-45 -80q0 -15 3.5 -27.5t13 -23.5t18.5 -19t26 -16.5t29 -13.5t36 -12t37.5 -10.5t41.5 -10.5t42 -11q56 -15 95.5 -29t87.5 -40t77 -57.5t49.5 -81.5t20.5 -112q0 -66 -21.5 -119t-59 -88.5t-89.5 -59t-109.5 -34t-123.5 -10.5z
M341 -568l-125 58l165 371h220z" />
    <glyph glyph-name="uni021A" unicode="&#x21a;" horiz-adv-x="1048" 
d="M1003 1433v-230h-350v-1203h-257v1203h-351v230h958zM249 -511l165 371h220l-260 -429z" />
    <glyph glyph-name="uni021B" unicode="&#x21b;" horiz-adv-x="764" 
d="M518 0q-141 0 -219 79.5t-78 223.5v517h-201v193h68q83 0 121 40t38 141v149h227v-330h216v-193h-216v-490q0 -69 33 -103.5t92 -34.5h91v-192h-172zM417 -569l-125 58l165 371h220z" />
    <glyph glyph-name="uni0237" unicode="&#x237;" horiz-adv-x="570" 
d="M-57 -475v200q131 0 173 62.5t42 240.5v985h253v-985q0 -266 -108.5 -384.5t-359.5 -118.5z" />
    <glyph glyph-name="circumflex" unicode="&#x2c6;" horiz-adv-x="706" 
d="M209 1238h-157l222 298h158l222 -298h-158l-143 182z" />
    <glyph glyph-name="caron" unicode="&#x2c7;" horiz-adv-x="712" 
d="M277 1238l-222 298h157l143 -183l144 183h158l-222 -298h-158z" />
    <glyph glyph-name="breve" unicode="&#x2d8;" horiz-adv-x="899" 
d="M448 1197q-160 0 -257.5 89t-97.5 250h157q0 -98 53 -158.5t145 -60.5q93 0 146.5 60.5t53.5 158.5h158q0 -161 -98 -250t-260 -89z" />
    <glyph glyph-name="dotaccent" unicode="&#x2d9;" horiz-adv-x="535" 
d="M268 1193q-62 0 -106 44t-44 105q0 62 44 105.5t106 43.5q61 0 105 -43.5t44 -105.5q0 -61 -44.5 -105t-104.5 -44z" />
    <glyph glyph-name="ring" unicode="&#x2da;" horiz-adv-x="664" 
d="M333 1143q-96 0 -163.5 68t-67.5 163q0 94 67.5 161t163.5 67q94 0 160.5 -67t66.5 -161q0 -95 -66.5 -163t-160.5 -68zM333 1253q51 0 85.5 34t34.5 87q0 49 -35 85.5t-85 36.5t-84.5 -36t-34.5 -86q0 -54 34 -87.5t85 -33.5z" />
    <glyph glyph-name="ogonek" unicode="&#x2db;" horiz-adv-x="521" 
d="M264 -412q-86 0 -136.5 27t-50.5 77q0 116 242 339l77 -31q-171 -158 -171 -223q0 -38 65 -38q63 0 106 37v-164q-61 -24 -132 -24z" />
    <glyph glyph-name="tilde" unicode="&#x2dc;" horiz-adv-x="862" 
d="M552 1156q-109 0 -172 100q-28 43 -65 43q-36 0 -56 -36t-20 -94h-123q0 111 52.5 181t141.5 70q110 0 172 -101q25 -42 67 -42q36 0 54.5 34.5t18.5 94.5h125q0 -109 -52 -179.5t-143 -70.5z" />
    <glyph glyph-name="hungarumlaut" unicode="&#x2dd;" horiz-adv-x="857" 
d="M41 1210l259 354l125 -90l-225 -264h-159zM413 1210l259 354l125 -90l-226 -264h-158z" />
    <glyph glyph-name="gravecomb" unicode="&#x300;" 
d="M-199 1210l-226 264l125 90l259 -354h-158z" />
    <glyph glyph-name="acutecomb" unicode="&#x301;" 
d="M-444 1210l259 354l125 -90l-225 -264h-159z" />
    <glyph glyph-name="uni0302" unicode="&#x302;" 
d="M-497 1238h-157l222 298h158l222 -298h-158l-143 182z" />
    <glyph glyph-name="tildecomb" unicode="&#x303;" 
d="M-310 1156q-109 0 -172 100q-28 43 -65 43q-36 0 -56 -36t-20 -94h-123q0 111 52.5 181t141.5 70q110 0 172 -101q25 -42 67 -42q36 0 54.5 34.5t18.5 94.5h125q0 -109 -52 -179.5t-143 -70.5z" />
    <glyph glyph-name="uni0304" unicode="&#x304;" 
d="M-813 1237v150h658v-150h-658z" />
    <glyph glyph-name="uni0306" unicode="&#x306;" 
d="M-451 1197q-160 0 -257.5 89t-97.5 250h157q0 -98 53 -158.5t145 -60.5q93 0 146.5 60.5t53.5 158.5h158q0 -161 -98 -250t-260 -89z" />
    <glyph glyph-name="uni0307" unicode="&#x307;" 
d="M-267 1193q-62 0 -106 44t-44 105q0 62 44 105.5t106 43.5q61 0 105 -43.5t44 -105.5q0 -61 -44.5 -105t-104.5 -44z" />
    <glyph glyph-name="uni0308" unicode="&#x308;" 
d="M-679 1193q-62 0 -106 44t-44 105q0 62 44 105.5t106 43.5q61 0 105 -43.5t44 -105.5q0 -61 -44.5 -105t-104.5 -44zM-267 1193q-62 0 -106 44t-44 105q0 62 44 105.5t106 43.5q61 0 105 -43.5t44 -105.5q0 -61 -44.5 -105t-104.5 -44z" />
    <glyph glyph-name="hookabovecomb" unicode="&#x309;" 
d="M-345 1145v130q114 22 114 101q0 33 -19.5 53.5t-55.5 20.5q-49 0 -86 -36l-62 88q65 54 158 54q89 0 141 -47.5t52 -125.5q0 -117 -128 -157v-81h-114z" />
    <glyph glyph-name="uni030A" unicode="&#x30a;" 
d="M-331 1143q-96 0 -163.5 68t-67.5 163q0 94 67.5 161t163.5 67q94 0 160.5 -67t66.5 -161q0 -95 -66.5 -163t-160.5 -68zM-331 1253q51 0 85.5 34t34.5 87q0 49 -35 85.5t-85 36.5t-84.5 -36t-34.5 -86q0 -54 34 -87.5t85 -33.5z" />
    <glyph glyph-name="uni030B" unicode="&#x30b;" 
d="M-816 1210l259 354l125 -90l-225 -264h-159zM-444 1210l259 354l125 -90l-226 -264h-158z" />
    <glyph glyph-name="uni030C" unicode="&#x30c;" 
d="M-435 1238l-222 298h157l143 -183l144 183h158l-222 -298h-158z" />
    <glyph glyph-name="uni0312" unicode="&#x312;" 
d="M-275 1531h179l-125 -320h-257z" />
    <glyph glyph-name="uni031B" unicode="&#x31b;" 
d="M-315 767q-94 0 -193 61l48 83q55 -28 100 -28q53 0 74 32.5t21 111.5v119h130v-147q0 -232 -180 -232z" />
    <glyph glyph-name="dotbelowcomb" unicode="&#x323;" 
d="M-267 -512q-62 0 -106 43.5t-44 106.5q0 61 44 104.5t106 43.5q60 0 104.5 -44t44.5 -104q0 -62 -44 -106t-105 -44z" />
    <glyph glyph-name="uni0326" unicode="&#x326;" 
d="M-305 -569l-125 58l165 371h220z" />
    <glyph glyph-name="uni0327" unicode="&#x327;" 
d="M-296 -532q-81 0 -146.5 41t-91.5 103l113 42q17 -31 51 -49.5t69 -18.5q43 0 73 28t30 73q0 46 -30 72t-76 26q-45 0 -76 -27l-95 57l117 222h123l-88 -165q30 6 48 6q85 0 141 -53.5t56 -137.5q0 -92 -63 -155.5t-155 -63.5z" />
    <glyph glyph-name="uni0328" unicode="&#x328;" 
d="M-257 -412q-86 0 -136.5 27t-50.5 77q0 116 242 339l77 -31q-171 -158 -171 -223q0 -38 65 -38q63 0 106 37v-164q-61 -24 -132 -24z" />
    <glyph glyph-name="uni0335" unicode="&#x335;" 
d="M-818 443v156h662v-156h-662z" />
    <glyph glyph-name="uni0336" unicode="&#x336;" 
d="M-1654 478v109h1500v-109h-1500z" />
    <glyph glyph-name="uni0337" unicode="&#x337;" 
d="M-650 257v163l604 450v-165z" />
    <glyph glyph-name="uni0338" unicode="&#x338;" 
d="M-907 209l808 1159l105 -63l-808 -1159z" />
    <glyph glyph-name="uni0394" unicode="&#x394;" horiz-adv-x="1577" 
d="M924 1536l616 -1536h-1503l617 1536h270zM388 233h800l-399 1034z" />
    <glyph glyph-name="uni03A9" unicode="&#x3a9;" horiz-adv-x="1795" 
d="M111 0v215h308v3q-107 91 -187 255.5t-80 354.5q0 151 55 283t152 228.5t238 152t305 55.5q140 0 261 -40.5t208 -109.5t149 -160.5t92.5 -195t30.5 -210.5q0 -187 -79.5 -352.5t-196.5 -261.5v-2h316v-215h-654v168q145 80 238.5 240t93.5 383q0 151 -52 272t-157 193.5
t-248 72.5q-207 0 -339 -147.5t-132 -392.5q0 -220 97 -385t237 -236v-168h-656z" />
    <glyph glyph-name="uni03BC" unicode="&#x3bc;" horiz-adv-x="1226" 
d="M821 986h250v-986h-250v118q-114 -136 -287 -136q-106 0 -196 55v-495h-183v1444h251v-582q0 -86 58 -145t142 -59q90 0 152.5 59.5t62.5 144.5v582z" />
    <glyph glyph-name="pi" unicode="&#x3c0;" horiz-adv-x="1290" 
d="M142 0q53 150 93.5 380.5t44.5 399.5q-159 0 -227 -23l-26 148q88 59 335 59h899l-20 -184h-161v-490q0 -188 29 -290h-228q-35 51 -35 274v506h-335q-9 -184 -49 -422.5t-92 -357.5h-228z" />
    <glyph glyph-name="Wgrave" unicode="&#x1e80;" horiz-adv-x="2131" 
d="M987 1571l-226 265l125 89l259 -354h-158zM439 0l-386 1433h270l299 -1117l332 1117h222l331 -1117l302 1117h269l-386 -1433h-328l-299 956l-299 -956h-327z" />
    <glyph glyph-name="wgrave" unicode="&#x1e81;" horiz-adv-x="1700" 
d="M940 1164h-158l-226 264l125 90zM1421 1013h259l-353 -1014h-230l-248 706l-249 -706h-233l-346 1014h258l223 -696l250 696h192l251 -695z" />
    <glyph glyph-name="Wacute" unicode="&#x1e82;" horiz-adv-x="2131" 
d="M983 1571l259 354l125 -89l-225 -265h-159zM439 0l-386 1433h270l299 -1117l332 1117h222l331 -1117l302 1117h269l-386 -1433h-328l-299 956l-299 -956h-327z" />
    <glyph glyph-name="wacute" unicode="&#x1e83;" horiz-adv-x="1700" 
d="M1162 1428l-225 -264h-159l259 354zM1421 1013h259l-353 -1014h-230l-248 706l-249 -706h-233l-346 1014h258l223 -696l250 696h192l251 -695z" />
    <glyph glyph-name="Wdieresis" unicode="&#x1e84;" horiz-adv-x="2131" 
d="M859 1536q-62 0 -106 44t-44 106q0 61 44 104.5t106 43.5q60 0 104.5 -43.5t44.5 -104.5q0 -62 -44.5 -106t-104.5 -44zM1271 1536q-62 0 -106 44t-44 106q0 61 44 104.5t106 43.5q60 0 104.5 -43.5t44.5 -104.5q0 -62 -44.5 -106t-104.5 -44zM439 0l-386 1433h270
l299 -1117l332 1117h222l331 -1117l302 1117h269l-386 -1433h-328l-299 956l-299 -956h-327z" />
    <glyph glyph-name="wdieresis" unicode="&#x1e85;" horiz-adv-x="1700" 
d="M654 1193q-62 0 -106 44t-44 105q0 62 44 105.5t106 43.5q61 0 105 -43.5t44 -105.5q0 -61 -44.5 -105t-104.5 -44zM1066 1193q-62 0 -106 44t-44 105q0 62 44 105.5t106 43.5q61 0 105 -43.5t44 -105.5q0 -61 -44.5 -105t-104.5 -44zM1421 1013h259l-353 -1014h-230
l-248 706l-249 -706h-233l-346 1014h258l223 -696l250 696h192l251 -695z" />
    <glyph glyph-name="uni1EA0" unicode="&#x1ea0;" horiz-adv-x="1451" 
d="M1411 0h-266l-110 311h-618l-110 -311h-267l528 1433h316zM495 531h462l-231 653zM727 -214q60 0 104.5 -44t44.5 -104q0 -62 -44 -106t-105 -44q-62 0 -106 43.5t-44 106.5q0 61 44 104.5t106 43.5z" />
    <glyph glyph-name="uni1EA1" unicode="&#x1ea1;" horiz-adv-x="1098" 
d="M957 284q0 -173 26 -257v-27h-237l-24 114q-55 -67 -142.5 -100.5t-182.5 -33.5q-63 0 -117 15.5t-99 47.5t-70.5 88t-25.5 130q0 76 26 132t78.5 92.5t114.5 59.5t150 41l169 35q51 11 73 31t22 54q0 41 -16 71.5t-43.5 47t-59.5 24t-68 7.5q-185 0 -210 -164l-222 42
q59 298 445 298q65 0 121 -9t111.5 -34t94 -64t62.5 -104t24 -150v-387zM474 153q121 0 188.5 79t67.5 243l-246 -63q-79 -17 -119.5 -47.5t-40.5 -86.5q0 -61 42 -93t108 -32zM597 -214q60 0 104.5 -44t44.5 -104q0 -62 -44 -106t-105 -44q-62 0 -106 43.5t-44 106.5
q0 61 44 104.5t106 43.5z" />
    <glyph glyph-name="uni1EA2" unicode="&#x1ea2;" horiz-adv-x="1451" 
d="M711 1841q-47 0 -86 -36l-62 87q65 55 158 55q89 0 141 -47.5t52 -125.5q0 -117 -128 -157v-81h-114v130q114 22 114 101q0 32 -20 53t-55 21zM1145 0l-110 311h-618l-110 -311h-267l528 1433h316l527 -1433h-266zM495 531h462l-231 653z" />
    <glyph glyph-name="uni1EA3" unicode="&#x1ea3;" horiz-adv-x="1098" 
d="M540 1404q-49 0 -86 -36l-62 88q65 54 158 54q89 0 141 -47.5t52 -125.5q0 -117 -128 -157v-81h-114v130q114 22 114 101q0 33 -19.5 53.5t-55.5 20.5zM957 284q0 -173 26 -257v-27h-237l-24 114q-55 -67 -142.5 -100.5t-182.5 -33.5q-63 0 -117 15.5t-99 47.5t-70.5 88
t-25.5 130q0 76 26 132t78.5 92.5t114.5 59.5t150 41l169 35q51 11 73 31t22 54q0 41 -16 71.5t-43.5 47t-59.5 24t-68 7.5q-185 0 -210 -164l-222 42q59 298 445 298q65 0 121 -9t111.5 -34t94 -64t62.5 -104t24 -150v-387zM474 153q121 0 188.5 79t67.5 243l-246 -63
q-79 -17 -119.5 -47.5t-40.5 -86.5q0 -61 42 -93t108 -32z" />
    <glyph glyph-name="uni1EA4" unicode="&#x1ea4;" horiz-adv-x="1451" 
d="M1028 2227l-225 -265h-159l259 354zM726 1753l-144 -182h-157l222 298h158l222 -298h-158zM1145 0l-110 311h-618l-110 -311h-267l528 1433h316l527 -1433h-266zM495 531h462l-231 653z" />
    <glyph glyph-name="uni1EA5" unicode="&#x1ea5;" horiz-adv-x="1098" 
d="M857 1905l-225 -264h-159l259 354zM555 1374l-144 -182h-157l222 298h158l222 -298h-158zM957 284q0 -173 26 -257v-27h-237l-24 114q-55 -67 -142.5 -100.5t-182.5 -33.5q-63 0 -117 15.5t-99 47.5t-70.5 88t-25.5 130q0 76 26 132t78.5 92.5t114.5 59.5t150 41l169 35
q51 11 73 31t22 54q0 41 -16 71.5t-43.5 47t-59.5 24t-68 7.5q-185 0 -210 -164l-222 42q59 298 445 298q65 0 121 -9t111.5 -34t94 -64t62.5 -104t24 -150v-387zM474 153q121 0 188.5 79t67.5 243l-246 -63q-79 -17 -119.5 -47.5t-40.5 -86.5q0 -61 42 -93t108 -32z" />
    <glyph glyph-name="uni1EA6" unicode="&#x1ea6;" horiz-adv-x="1451" 
d="M806 1962h-158l-226 265l125 89zM647 1869h158l222 -298h-158l-143 182l-144 -182h-157zM1145 0l-110 311h-618l-110 -311h-267l528 1433h316l527 -1433h-266zM495 531h462l-231 653z" />
    <glyph glyph-name="uni1EA7" unicode="&#x1ea7;" horiz-adv-x="1098" 
d="M635 1641h-158l-226 264l125 90zM476 1490h158l222 -298h-158l-143 182l-144 -182h-157zM957 284q0 -173 26 -257v-27h-237l-24 114q-55 -67 -142.5 -100.5t-182.5 -33.5q-63 0 -117 15.5t-99 47.5t-70.5 88t-25.5 130q0 76 26 132t78.5 92.5t114.5 59.5t150 41l169 35
q51 11 73 31t22 54q0 41 -16 71.5t-43.5 47t-59.5 24t-68 7.5q-185 0 -210 -164l-222 42q59 298 445 298q65 0 121 -9t111.5 -34t94 -64t62.5 -104t24 -150v-387zM474 153q121 0 188.5 79t67.5 243l-246 -63q-79 -17 -119.5 -47.5t-40.5 -86.5q0 -61 42 -93t108 -32z" />
    <glyph glyph-name="uni1EA8" unicode="&#x1ea8;" horiz-adv-x="1451" 
d="M711 2232q-47 0 -86 -36l-62 87q65 55 158 55q89 0 141 -47.5t52 -125.5q0 -117 -128 -157v-81h-114v130q114 22 114 101q0 32 -20 53t-55 21zM726 1753l-144 -182h-157l222 298h158l222 -298h-158zM1145 0l-110 311h-618l-110 -311h-267l528 1433h316l527 -1433h-266z
M495 531h462l-231 653z" />
    <glyph glyph-name="uni1EA9" unicode="&#x1ea9;" horiz-adv-x="1098" 
d="M540 1881q-49 0 -86 -36l-62 88q65 54 158 54q89 0 141 -47.5t52 -125.5q0 -117 -128 -157v-81h-114v130q114 22 114 101q0 33 -19.5 53.5t-55.5 20.5zM555 1374l-144 -182h-157l222 298h158l222 -298h-158zM957 284q0 -173 26 -257v-27h-237l-24 114
q-55 -67 -142.5 -100.5t-182.5 -33.5q-63 0 -117 15.5t-99 47.5t-70.5 88t-25.5 130q0 76 26 132t78.5 92.5t114.5 59.5t150 41l169 35q51 11 73 31t22 54q0 41 -16 71.5t-43.5 47t-59.5 24t-68 7.5q-185 0 -210 -164l-222 42q59 298 445 298q65 0 121 -9t111.5 -34t94 -64
t62.5 -104t24 -150v-387zM474 153q121 0 188.5 79t67.5 243l-246 -63q-79 -17 -119.5 -47.5t-40.5 -86.5q0 -61 42 -93t108 -32z" />
    <glyph glyph-name="uni1EAA" unicode="&#x1eaa;" horiz-adv-x="1451" 
d="M605 2123q-45 0 -68.5 -39t-23.5 -103h-132q0 115 59 187t161 72q103 0 167 -80q4 -5 17.5 -21t20 -22t18 -16t23.5 -13.5t26 -3.5q43 0 65 37.5t22 103.5h135q0 -113 -58.5 -185.5t-163.5 -72.5q-63 0 -100.5 23t-69.5 62q-20 27 -28.5 37t-28 22t-41.5 12zM647 1869
h158l222 -298h-158l-143 182l-144 -182h-157zM1145 0l-110 311h-618l-110 -311h-267l528 1433h316l527 -1433h-266zM495 531h462l-231 653z" />
    <glyph glyph-name="uni1EAB" unicode="&#x1eab;" horiz-adv-x="1098" 
d="M450 1776q-36 0 -56 -36t-20 -94h-123q0 111 52.5 181t141.5 70q110 0 172 -101q25 -42 67 -42q36 0 54.5 34.5t18.5 94.5h125q0 -109 -52 -179.5t-143 -70.5q-109 0 -172 100q-28 43 -65 43zM476 1490h158l222 -298h-158l-143 182l-144 -182h-157zM957 284
q0 -173 26 -257v-27h-237l-24 114q-55 -67 -142.5 -100.5t-182.5 -33.5q-63 0 -117 15.5t-99 47.5t-70.5 88t-25.5 130q0 76 26 132t78.5 92.5t114.5 59.5t150 41l169 35q51 11 73 31t22 54q0 41 -16 71.5t-43.5 47t-59.5 24t-68 7.5q-185 0 -210 -164l-222 42
q59 298 445 298q65 0 121 -9t111.5 -34t94 -64t62.5 -104t24 -150v-387zM474 153q121 0 188.5 79t67.5 243l-246 -63q-79 -17 -119.5 -47.5t-40.5 -86.5q0 -61 42 -93t108 -32z" />
    <glyph glyph-name="uni1EAC" unicode="&#x1eac;" horiz-adv-x="1451" 
d="M726 1753l-144 -182h-157l222 298h158l222 -298h-158zM1411 0h-266l-110 311h-618l-110 -311h-267l528 1433h316zM495 531h462l-231 653zM727 -214q60 0 104.5 -44t44.5 -104q0 -62 -44 -106t-105 -44q-62 0 -106 43.5t-44 106.5q0 61 44 104.5t106 43.5z" />
    <glyph glyph-name="uni1EAD" unicode="&#x1ead;" horiz-adv-x="1098" 
d="M555 1374l-144 -182h-157l222 298h158l222 -298h-158zM957 284q0 -173 26 -257v-27h-237l-24 114q-55 -67 -142.5 -100.5t-182.5 -33.5q-63 0 -117 15.5t-99 47.5t-70.5 88t-25.5 130q0 76 26 132t78.5 92.5t114.5 59.5t150 41l169 35q51 11 73 31t22 54q0 41 -16 71.5
t-43.5 47t-59.5 24t-68 7.5q-185 0 -210 -164l-222 42q59 298 445 298q65 0 121 -9t111.5 -34t94 -64t62.5 -104t24 -150v-387zM474 153q121 0 188.5 79t67.5 243l-246 -63q-79 -17 -119.5 -47.5t-40.5 -86.5q0 -61 42 -93t108 -32zM597 -214q60 0 104.5 -44t44.5 -104
q0 -62 -44 -106t-105 -44q-62 0 -106 43.5t-44 106.5q0 61 44 104.5t106 43.5z" />
    <glyph glyph-name="uni1EAE" unicode="&#x1eae;" horiz-adv-x="1451" 
d="M1029 2194l-225 -265h-159l259 354zM725 1571q-166 0 -260.5 69t-94.5 218h146q0 -85 55.5 -126t153.5 -41q99 0 155.5 41t56.5 126h146q0 -149 -95.5 -218t-262.5 -69zM1145 0l-110 311h-618l-110 -311h-267l528 1433h316l527 -1433h-266zM495 531h462l-231 653z" />
    <glyph glyph-name="uni1EAF" unicode="&#x1eaf;" horiz-adv-x="1098" 
d="M857 1905l-225 -264h-159l259 354zM554 1151q-160 0 -257.5 89t-97.5 250h157q0 -98 53 -158.5t145 -60.5q93 0 146.5 60.5t53.5 158.5h158q0 -161 -98 -250t-260 -89zM957 284q0 -173 26 -257v-27h-237l-24 114q-55 -67 -142.5 -100.5t-182.5 -33.5q-63 0 -117 15.5
t-99 47.5t-70.5 88t-25.5 130q0 76 26 132t78.5 92.5t114.5 59.5t150 41l169 35q51 11 73 31t22 54q0 41 -16 71.5t-43.5 47t-59.5 24t-68 7.5q-185 0 -210 -164l-222 42q59 298 445 298q65 0 121 -9t111.5 -34t94 -64t62.5 -104t24 -150v-387zM474 153q121 0 188.5 79
t67.5 243l-246 -63q-79 -17 -119.5 -47.5t-40.5 -86.5q0 -61 42 -93t108 -32z" />
    <glyph glyph-name="uni1EB0" unicode="&#x1eb0;" horiz-adv-x="1451" 
d="M807 1929h-158l-226 265l125 89zM725 1571q-166 0 -260.5 69t-94.5 218h146q0 -85 55.5 -126t153.5 -41q99 0 155.5 41t56.5 126h146q0 -149 -95.5 -218t-262.5 -69zM1145 0l-110 311h-618l-110 -311h-267l528 1433h316l527 -1433h-266zM495 531h462l-231 653z" />
    <glyph glyph-name="uni1EB1" unicode="&#x1eb1;" horiz-adv-x="1098" 
d="M635 1641h-158l-226 264l125 90zM554 1151q-160 0 -257.5 89t-97.5 250h157q0 -98 53 -158.5t145 -60.5q93 0 146.5 60.5t53.5 158.5h158q0 -161 -98 -250t-260 -89zM957 284q0 -173 26 -257v-27h-237l-24 114q-55 -67 -142.5 -100.5t-182.5 -33.5q-63 0 -117 15.5
t-99 47.5t-70.5 88t-25.5 130q0 76 26 132t78.5 92.5t114.5 59.5t150 41l169 35q51 11 73 31t22 54q0 41 -16 71.5t-43.5 47t-59.5 24t-68 7.5q-185 0 -210 -164l-222 42q59 298 445 298q65 0 121 -9t111.5 -34t94 -64t62.5 -104t24 -150v-387zM474 153q121 0 188.5 79
t67.5 243l-246 -63q-79 -17 -119.5 -47.5t-40.5 -86.5q0 -61 42 -93t108 -32z" />
    <glyph glyph-name="uni1EB2" unicode="&#x1eb2;" horiz-adv-x="1451" 
d="M712 2199q-47 0 -86 -36l-62 87q65 55 158 55q89 0 141 -47.5t52 -125.5q0 -117 -128 -157v-81h-114v130q114 22 114 101q0 32 -20 53t-55 21zM725 1571q-166 0 -260.5 69t-94.5 218h146q0 -85 55.5 -126t153.5 -41q99 0 155.5 41t56.5 126h146q0 -149 -95.5 -218
t-262.5 -69zM1145 0l-110 311h-618l-110 -311h-267l528 1433h316l527 -1433h-266zM495 531h462l-231 653z" />
    <glyph glyph-name="uni1EB3" unicode="&#x1eb3;" horiz-adv-x="1098" 
d="M540 1881q-49 0 -86 -36l-62 88q65 54 158 54q89 0 141 -47.5t52 -125.5q0 -117 -128 -157v-81h-114v130q114 22 114 101q0 33 -19.5 53.5t-55.5 20.5zM554 1151q-160 0 -257.5 89t-97.5 250h157q0 -98 53 -158.5t145 -60.5q93 0 146.5 60.5t53.5 158.5h158
q0 -161 -98 -250t-260 -89zM957 284q0 -173 26 -257v-27h-237l-24 114q-55 -67 -142.5 -100.5t-182.5 -33.5q-63 0 -117 15.5t-99 47.5t-70.5 88t-25.5 130q0 76 26 132t78.5 92.5t114.5 59.5t150 41l169 35q51 11 73 31t22 54q0 41 -16 71.5t-43.5 47t-59.5 24t-68 7.5
q-185 0 -210 -164l-222 42q59 298 445 298q65 0 121 -9t111.5 -34t94 -64t62.5 -104t24 -150v-387zM474 153q121 0 188.5 79t67.5 243l-246 -63q-79 -17 -119.5 -47.5t-40.5 -86.5q0 -61 42 -93t108 -32z" />
    <glyph glyph-name="uni1EB4" unicode="&#x1eb4;" horiz-adv-x="1451" 
d="M606 2090q-45 0 -68.5 -39t-23.5 -103h-132q0 115 59 187t161 72q103 0 167 -80q4 -5 17.5 -21t20 -22t18 -16t23.5 -13.5t26 -3.5q43 0 65 37.5t22 103.5h135q0 -113 -58.5 -185.5t-163.5 -72.5q-63 0 -100.5 23t-69.5 62q-20 27 -28.5 37t-28 22t-41.5 12zM725 1571
q-166 0 -260.5 69t-94.5 218h146q0 -85 55.5 -126t153.5 -41q99 0 155.5 41t56.5 126h146q0 -149 -95.5 -218t-262.5 -69zM1145 0l-110 311h-618l-110 -311h-267l528 1433h316l527 -1433h-266zM495 531h462l-231 653z" />
    <glyph glyph-name="uni1EB5" unicode="&#x1eb5;" horiz-adv-x="1098" 
d="M450 1776q-36 0 -56 -36t-20 -94h-123q0 111 52.5 181t141.5 70q110 0 172 -101q25 -42 67 -42q36 0 54.5 34.5t18.5 94.5h125q0 -109 -52 -179.5t-143 -70.5q-109 0 -172 100q-28 43 -65 43zM554 1151q-160 0 -257.5 89t-97.5 250h157q0 -98 53 -158.5t145 -60.5
q93 0 146.5 60.5t53.5 158.5h158q0 -161 -98 -250t-260 -89zM957 284q0 -173 26 -257v-27h-237l-24 114q-55 -67 -142.5 -100.5t-182.5 -33.5q-63 0 -117 15.5t-99 47.5t-70.5 88t-25.5 130q0 76 26 132t78.5 92.5t114.5 59.5t150 41l169 35q51 11 73 31t22 54
q0 41 -16 71.5t-43.5 47t-59.5 24t-68 7.5q-185 0 -210 -164l-222 42q59 298 445 298q65 0 121 -9t111.5 -34t94 -64t62.5 -104t24 -150v-387zM474 153q121 0 188.5 79t67.5 243l-246 -63q-79 -17 -119.5 -47.5t-40.5 -86.5q0 -61 42 -93t108 -32z" />
    <glyph glyph-name="uni1EB6" unicode="&#x1eb6;" horiz-adv-x="1451" 
d="M725 1571q-166 0 -260.5 69t-94.5 218h146q0 -85 55.5 -126t153.5 -41q99 0 155.5 41t56.5 126h146q0 -149 -95.5 -218t-262.5 -69zM1411 0h-266l-110 311h-618l-110 -311h-267l528 1433h316zM495 531h462l-231 653zM727 -214q60 0 104.5 -44t44.5 -104q0 -62 -44 -106
t-105 -44q-62 0 -106 43.5t-44 106.5q0 61 44 104.5t106 43.5z" />
    <glyph glyph-name="uni1EB7" unicode="&#x1eb7;" horiz-adv-x="1098" 
d="M554 1151q-160 0 -257.5 89t-97.5 250h157q0 -98 53 -158.5t145 -60.5q93 0 146.5 60.5t53.5 158.5h158q0 -161 -98 -250t-260 -89zM957 284q0 -173 26 -257v-27h-237l-24 114q-55 -67 -142.5 -100.5t-182.5 -33.5q-63 0 -117 15.5t-99 47.5t-70.5 88t-25.5 130
q0 76 26 132t78.5 92.5t114.5 59.5t150 41l169 35q51 11 73 31t22 54q0 41 -16 71.5t-43.5 47t-59.5 24t-68 7.5q-185 0 -210 -164l-222 42q59 298 445 298q65 0 121 -9t111.5 -34t94 -64t62.5 -104t24 -150v-387zM474 153q121 0 188.5 79t67.5 243l-246 -63
q-79 -17 -119.5 -47.5t-40.5 -86.5q0 -61 42 -93t108 -32zM597 -214q60 0 104.5 -44t44.5 -104q0 -62 -44 -106t-105 -44q-62 0 -106 43.5t-44 106.5q0 61 44 104.5t106 43.5z" />
    <glyph glyph-name="uni1EB8" unicode="&#x1eb8;" horiz-adv-x="1130" 
d="M1008 1203h-547v-373h484v-228h-484v-371h547v-231h-810v1433h810v-230zM610 -214q60 0 104.5 -44t44.5 -104q0 -62 -44 -106t-105 -44q-62 0 -106 43.5t-44 106.5q0 61 44 104.5t106 43.5z" />
    <glyph glyph-name="uni1EB9" unicode="&#x1eb9;" horiz-adv-x="1168" 
d="M1090 523l-4 -62h-764q7 -136 86 -208.5t196 -72.5q82 0 144.5 39t95.5 112l228 -37q-51 -148 -176 -231t-290 -83q-241 0 -385 140t-144 386q0 245 144.5 386.5t376.5 141.5q107 0 195.5 -31.5t155 -93t103.5 -160t38 -226.5zM599 854q-108 0 -178 -56.5t-91 -169.5h512
q-10 110 -75.5 168t-167.5 58zM617 -215q60 0 104.5 -44t44.5 -104q0 -62 -44 -106t-105 -44q-62 0 -106 43.5t-44 106.5q0 61 44 104.5t106 43.5z" />
    <glyph glyph-name="uni1EBA" unicode="&#x1eba;" horiz-adv-x="1130" 
d="M594 1841q-47 0 -86 -36l-62 87q65 55 158 55q89 0 141 -47.5t52 -125.5q0 -117 -128 -157v-81h-114v130q114 22 114 101q0 32 -20 53t-55 21zM1008 1203h-547v-373h484v-228h-484v-371h547v-231h-810v1433h810v-230z" />
    <glyph glyph-name="uni1EBB" unicode="&#x1ebb;" horiz-adv-x="1168" 
d="M591 1407q-49 0 -86 -36l-62 88q65 54 158 54q89 0 141 -47.5t52 -125.5q0 -117 -128 -157v-81h-114v130q114 22 114 101q0 33 -19.5 53.5t-55.5 20.5zM1090 523l-4 -62h-764q7 -136 86 -208.5t196 -72.5q82 0 144.5 39t95.5 112l228 -37q-51 -148 -176 -231t-290 -83
q-241 0 -385 140t-144 386q0 245 144.5 386.5t376.5 141.5q107 0 195.5 -31.5t155 -93t103.5 -160t38 -226.5zM599 854q-108 0 -178 -56.5t-91 -169.5h512q-10 110 -75.5 168t-167.5 58z" />
    <glyph glyph-name="uni1EBC" unicode="&#x1ebc;" horiz-adv-x="1130" 
d="M488 1732q-45 0 -68.5 -39t-23.5 -103h-132q0 115 59 187t161 72q103 0 167 -80q4 -5 17.5 -21t20 -22t18 -16t23.5 -13.5t26 -3.5q43 0 65 37.5t22 103.5h135q0 -113 -58.5 -185.5t-163.5 -72.5q-63 0 -100.5 23t-69.5 62q-20 27 -28.5 37t-28 22t-41.5 12zM1008 1203
h-547v-373h484v-228h-484v-371h547v-231h-810v1433h810v-230z" />
    <glyph glyph-name="uni1EBD" unicode="&#x1ebd;" horiz-adv-x="1168" 
d="M501 1302q-36 0 -56 -36t-20 -94h-123q0 111 52.5 181t141.5 70q110 0 172 -101q25 -42 67 -42q36 0 54.5 34.5t18.5 94.5h125q0 -109 -52 -179.5t-143 -70.5q-109 0 -172 100q-28 43 -65 43zM1090 523l-4 -62h-764q7 -136 86 -208.5t196 -72.5q82 0 144.5 39t95.5 112
l228 -37q-51 -148 -176 -231t-290 -83q-241 0 -385 140t-144 386q0 245 144.5 386.5t376.5 141.5q107 0 195.5 -31.5t155 -93t103.5 -160t38 -226.5zM599 854q-108 0 -178 -56.5t-91 -169.5h512q-10 110 -75.5 168t-167.5 58z" />
    <glyph glyph-name="uni1EBE" unicode="&#x1ebe;" horiz-adv-x="1130" 
d="M911 2227l-225 -265h-159l259 354zM609 1753l-144 -182h-157l222 298h158l222 -298h-158zM1008 1203h-547v-373h484v-228h-484v-371h547v-231h-810v1433h810v-230z" />
    <glyph glyph-name="uni1EBF" unicode="&#x1ebf;" horiz-adv-x="1168" 
d="M908 1908l-225 -264h-159l259 354zM606 1377l-144 -182h-157l222 298h158l222 -298h-158zM1090 523l-4 -62h-764q7 -136 86 -208.5t196 -72.5q82 0 144.5 39t95.5 112l228 -37q-51 -148 -176 -231t-290 -83q-241 0 -385 140t-144 386q0 245 144.5 386.5t376.5 141.5
q107 0 195.5 -31.5t155 -93t103.5 -160t38 -226.5zM599 854q-108 0 -178 -56.5t-91 -169.5h512q-10 110 -75.5 168t-167.5 58z" />
    <glyph glyph-name="uni1EC0" unicode="&#x1ec0;" horiz-adv-x="1130" 
d="M689 1962h-158l-226 265l125 89zM530 1869h158l222 -298h-158l-143 182l-144 -182h-157zM1008 1203h-547v-373h484v-228h-484v-371h547v-231h-810v1433h810v-230z" />
    <glyph glyph-name="uni1EC1" unicode="&#x1ec1;" horiz-adv-x="1168" 
d="M686 1644h-158l-226 264l125 90zM527 1493h158l222 -298h-158l-143 182l-144 -182h-157zM1090 523l-4 -62h-764q7 -136 86 -208.5t196 -72.5q82 0 144.5 39t95.5 112l228 -37q-51 -148 -176 -231t-290 -83q-241 0 -385 140t-144 386q0 245 144.5 386.5t376.5 141.5
q107 0 195.5 -31.5t155 -93t103.5 -160t38 -226.5zM599 854q-108 0 -178 -56.5t-91 -169.5h512q-10 110 -75.5 168t-167.5 58z" />
    <glyph glyph-name="uni1EC2" unicode="&#x1ec2;" horiz-adv-x="1130" 
d="M594 2232q-47 0 -86 -36l-62 87q65 55 158 55q89 0 141 -47.5t52 -125.5q0 -117 -128 -157v-81h-114v130q114 22 114 101q0 32 -20 53t-55 21zM609 1753l-144 -182h-157l222 298h158l222 -298h-158zM1008 1203h-547v-373h484v-228h-484v-371h547v-231h-810v1433h810v-230
z" />
    <glyph glyph-name="uni1EC3" unicode="&#x1ec3;" horiz-adv-x="1168" 
d="M591 1884q-49 0 -86 -36l-62 88q65 54 158 54q89 0 141 -47.5t52 -125.5q0 -117 -128 -157v-81h-114v130q114 22 114 101q0 33 -19.5 53.5t-55.5 20.5zM606 1377l-144 -182h-157l222 298h158l222 -298h-158zM1090 523l-4 -62h-764q7 -136 86 -208.5t196 -72.5
q82 0 144.5 39t95.5 112l228 -37q-51 -148 -176 -231t-290 -83q-241 0 -385 140t-144 386q0 245 144.5 386.5t376.5 141.5q107 0 195.5 -31.5t155 -93t103.5 -160t38 -226.5zM599 854q-108 0 -178 -56.5t-91 -169.5h512q-10 110 -75.5 168t-167.5 58z" />
    <glyph glyph-name="uni1EC4" unicode="&#x1ec4;" horiz-adv-x="1130" 
d="M488 2123q-45 0 -68.5 -39t-23.5 -103h-132q0 115 59 187t161 72q103 0 167 -80q4 -5 17.5 -21t20 -22t18 -16t23.5 -13.5t26 -3.5q43 0 65 37.5t22 103.5h135q0 -113 -58.5 -185.5t-163.5 -72.5q-63 0 -100.5 23t-69.5 62q-20 27 -28.5 37t-28 22t-41.5 12zM530 1869
h158l222 -298h-158l-143 182l-144 -182h-157zM1008 1203h-547v-373h484v-228h-484v-371h547v-231h-810v1433h810v-230z" />
    <glyph glyph-name="uni1EC5" unicode="&#x1ec5;" horiz-adv-x="1168" 
d="M501 1779q-36 0 -56 -36t-20 -94h-123q0 111 52.5 181t141.5 70q110 0 172 -101q25 -42 67 -42q36 0 54.5 34.5t18.5 94.5h125q0 -109 -52 -179.5t-143 -70.5q-109 0 -172 100q-28 43 -65 43zM527 1493h158l222 -298h-158l-143 182l-144 -182h-157zM1090 523l-4 -62h-764
q7 -136 86 -208.5t196 -72.5q82 0 144.5 39t95.5 112l228 -37q-51 -148 -176 -231t-290 -83q-241 0 -385 140t-144 386q0 245 144.5 386.5t376.5 141.5q107 0 195.5 -31.5t155 -93t103.5 -160t38 -226.5zM599 854q-108 0 -178 -56.5t-91 -169.5h512q-10 110 -75.5 168
t-167.5 58z" />
    <glyph glyph-name="uni1EC6" unicode="&#x1ec6;" horiz-adv-x="1130" 
d="M609 1753l-144 -182h-157l222 298h158l222 -298h-158zM1008 1203h-547v-373h484v-228h-484v-371h547v-231h-810v1433h810v-230zM610 -214q60 0 104.5 -44t44.5 -104q0 -62 -44 -106t-105 -44q-62 0 -106 43.5t-44 106.5q0 61 44 104.5t106 43.5z" />
    <glyph glyph-name="uni1EC7" unicode="&#x1ec7;" horiz-adv-x="1168" 
d="M606 1377l-144 -182h-157l222 298h158l222 -298h-158zM1090 523l-4 -62h-764q7 -136 86 -208.5t196 -72.5q82 0 144.5 39t95.5 112l228 -37q-51 -148 -176 -231t-290 -83q-241 0 -385 140t-144 386q0 245 144.5 386.5t376.5 141.5q107 0 195.5 -31.5t155 -93t103.5 -160
t38 -226.5zM599 854q-108 0 -178 -56.5t-91 -169.5h512q-10 110 -75.5 168t-167.5 58zM617 -215q60 0 104.5 -44t44.5 -104q0 -62 -44 -106t-105 -44q-62 0 -106 43.5t-44 106.5q0 61 44 104.5t106 43.5z" />
    <glyph glyph-name="uni1EC8" unicode="&#x1ec8;" horiz-adv-x="656" 
d="M273 1536v130q114 22 114 101q0 32 -20 53t-55 21q-47 0 -86 -36l-62 87q65 55 158 55q89 0 141 -47.5t52 -125.5q0 -117 -128 -157v-81h-114zM198 0v1433h260v-1433h-260z" />
    <glyph glyph-name="uni1EC9" unicode="&#x1ec9;" horiz-adv-x="567" 
d="M231 1099v130q114 22 114 101q0 33 -19.5 53.5t-55.5 20.5q-49 0 -86 -36l-62 88q65 54 158 54q89 0 141 -47.5t52 -125.5q0 -117 -128 -157v-81h-114zM158 0v1013h251v-1013h-251z" />
    <glyph glyph-name="uni1ECA" unicode="&#x1eca;" horiz-adv-x="656" 
d="M198 0v1433h260v-1433h-260zM328 -512q-62 0 -106 43.5t-44 106.5q0 61 44 104.5t106 43.5q60 0 104.5 -44t44.5 -104q0 -62 -44 -106t-105 -44z" />
    <glyph glyph-name="uni1ECB" unicode="&#x1ecb;" horiz-adv-x="567" 
d="M286 1193q-62 0 -106 44t-44 105q0 62 44 105.5t106 43.5q61 0 105 -43.5t44 -105.5q0 -61 -44.5 -105t-104.5 -44zM158 0v1013h251v-1013h-251zM286 -512q-62 0 -106 43.5t-44 106.5q0 61 44 104.5t106 43.5q60 0 104.5 -44t44.5 -104q0 -62 -44 -106t-105 -44z" />
    <glyph glyph-name="uni1ECC" unicode="&#x1ecc;" horiz-adv-x="1651" 
d="M826 -20q-208 0 -372 89t-259 258t-95 390t95 389.5t259 257t372 88.5q207 0 371 -88.5t259 -257t95 -389.5t-95 -390t-259 -258t-371 -89zM826 220q203 0 335 134t132 363q0 227 -132.5 361t-334.5 134q-99 0 -184.5 -34t-148.5 -96.5t-99 -156.5t-36 -208
q0 -229 132.5 -363t335.5 -134zM827 -512q-62 0 -106 43.5t-44 106.5q0 61 44 104.5t106 43.5q60 0 104.5 -44t44.5 -104q0 -62 -44 -106t-105 -44z" />
    <glyph glyph-name="uni1ECD" unicode="&#x1ecd;" horiz-adv-x="1231" 
d="M616 -20q-239 0 -390 142.5t-151 385.5q0 241 150.5 383t390.5 142t390.5 -142t150.5 -383q0 -243 -151 -385.5t-390 -142.5zM613 181q131 0 213.5 90t82.5 237q0 146 -82.5 236t-213.5 90q-127 0 -208.5 -90t-81.5 -236q0 -147 81.5 -237t208.5 -90zM617 -512
q-62 0 -106 43.5t-44 106.5q0 61 44 104.5t106 43.5q60 0 104.5 -44t44.5 -104q0 -62 -44 -106t-105 -44z" />
    <glyph glyph-name="uni1ECE" unicode="&#x1ece;" horiz-adv-x="1651" 
d="M772 1536v130q114 22 114 101q0 32 -20 53t-55 21q-47 0 -86 -36l-62 87q65 55 158 55q89 0 141 -47.5t52 -125.5q0 -117 -128 -157v-81h-114zM826 -20q-208 0 -372 89t-259 258t-95 390t95 389.5t259 257t372 88.5q207 0 371 -88.5t259 -257t95 -389.5t-95 -390
t-259 -258t-371 -89zM826 220q203 0 335 134t132 363q0 227 -132.5 361t-334.5 134q-99 0 -184.5 -34t-148.5 -96.5t-99 -156.5t-36 -208q0 -229 132.5 -363t335.5 -134z" />
    <glyph glyph-name="uni1ECF" unicode="&#x1ecf;" horiz-adv-x="1231" 
d="M562 1098v130q114 22 114 101q0 33 -19.5 53.5t-55.5 20.5q-49 0 -86 -36l-62 88q65 54 158 54q89 0 141 -47.5t52 -125.5q0 -117 -128 -157v-81h-114zM616 -20q-239 0 -390 142.5t-151 385.5q0 241 150.5 383t390.5 142t390.5 -142t150.5 -383q0 -243 -151 -385.5
t-390 -142.5zM613 181q131 0 213.5 90t82.5 237q0 146 -82.5 236t-213.5 90q-127 0 -208.5 -90t-81.5 -236q0 -147 81.5 -237t208.5 -90z" />
    <glyph glyph-name="uni1ED0" unicode="&#x1ed0;" horiz-adv-x="1651" 
d="M744 1962l259 354l125 -89l-225 -265h-159zM682 1571h-157l222 298h158l222 -298h-158l-143 182zM826 -20q-208 0 -372 89t-259 258t-95 390t95 389.5t259 257t372 88.5q207 0 371 -88.5t259 -257t95 -389.5t-95 -390t-259 -258t-371 -89zM826 220q203 0 335 134t132 363
q0 227 -132.5 361t-334.5 134q-99 0 -184.5 -34t-148.5 -96.5t-99 -156.5t-36 -208q0 -229 132.5 -363t335.5 -134z" />
    <glyph glyph-name="uni1ED1" unicode="&#x1ed1;" horiz-adv-x="1231" 
d="M534 1640l259 354l125 -90l-225 -264h-159zM472 1191h-157l222 298h158l222 -298h-158l-143 182zM616 -20q-239 0 -390 142.5t-151 385.5q0 241 150.5 383t390.5 142t390.5 -142t150.5 -383q0 -243 -151 -385.5t-390 -142.5zM613 181q131 0 213.5 90t82.5 237
q0 146 -82.5 236t-213.5 90q-127 0 -208.5 -90t-81.5 -236q0 -147 81.5 -237t208.5 -90z" />
    <glyph glyph-name="uni1ED2" unicode="&#x1ed2;" horiz-adv-x="1651" 
d="M748 1962l-226 265l125 89l259 -354h-158zM682 1571h-157l222 298h158l222 -298h-158l-143 182zM826 -20q-208 0 -372 89t-259 258t-95 390t95 389.5t259 257t372 88.5q207 0 371 -88.5t259 -257t95 -389.5t-95 -390t-259 -258t-371 -89zM826 220q203 0 335 134t132 363
q0 227 -132.5 361t-334.5 134q-99 0 -184.5 -34t-148.5 -96.5t-99 -156.5t-36 -208q0 -229 132.5 -363t335.5 -134z" />
    <glyph glyph-name="uni1ED3" unicode="&#x1ed3;" horiz-adv-x="1231" 
d="M538 1640l-226 264l125 90l259 -354h-158zM472 1191h-157l222 298h158l222 -298h-158l-143 182zM616 -20q-239 0 -390 142.5t-151 385.5q0 241 150.5 383t390.5 142t390.5 -142t150.5 -383q0 -243 -151 -385.5t-390 -142.5zM613 181q131 0 213.5 90t82.5 237
q0 146 -82.5 236t-213.5 90q-127 0 -208.5 -90t-81.5 -236q0 -147 81.5 -237t208.5 -90z" />
    <glyph glyph-name="uni1ED4" unicode="&#x1ed4;" horiz-adv-x="1651" 
d="M772 1927v130q114 22 114 101q0 32 -20 53t-55 21q-47 0 -86 -36l-62 87q65 55 158 55q89 0 141 -47.5t52 -125.5q0 -117 -128 -157v-81h-114zM682 1571h-157l222 298h158l222 -298h-158l-143 182zM826 -20q-208 0 -372 89t-259 258t-95 390t95 389.5t259 257t372 88.5
q207 0 371 -88.5t259 -257t95 -389.5t-95 -390t-259 -258t-371 -89zM826 220q203 0 335 134t132 363q0 227 -132.5 361t-334.5 134q-99 0 -184.5 -34t-148.5 -96.5t-99 -156.5t-36 -208q0 -229 132.5 -363t335.5 -134z" />
    <glyph glyph-name="uni1ED5" unicode="&#x1ed5;" horiz-adv-x="1231" 
d="M562 1575v130q114 22 114 101q0 33 -19.5 53.5t-55.5 20.5q-49 0 -86 -36l-62 88q65 54 158 54q89 0 141 -47.5t52 -125.5q0 -117 -128 -157v-81h-114zM472 1191h-157l222 298h158l222 -298h-158l-143 182zM616 -20q-239 0 -390 142.5t-151 385.5q0 241 150.5 383
t390.5 142t390.5 -142t150.5 -383q0 -243 -151 -385.5t-390 -142.5zM613 181q131 0 213.5 90t82.5 237q0 146 -82.5 236t-213.5 90q-127 0 -208.5 -90t-81.5 -236q0 -147 81.5 -237t208.5 -90z" />
    <glyph glyph-name="uni1ED6" unicode="&#x1ed6;" horiz-adv-x="1651" 
d="M973 1967q-63 0 -100.5 23t-69.5 62q-20 27 -28.5 37t-28 22t-41.5 12q-45 0 -68.5 -39t-23.5 -103h-132q0 115 59 187t161 72q103 0 167 -80q4 -5 17.5 -21t20 -22t18 -16t23.5 -13.5t26 -3.5q43 0 65 37.5t22 103.5h135q0 -113 -58.5 -185.5t-163.5 -72.5zM682 1571
h-157l222 298h158l222 -298h-158l-143 182zM826 -20q-208 0 -372 89t-259 258t-95 390t95 389.5t259 257t372 88.5q207 0 371 -88.5t259 -257t95 -389.5t-95 -390t-259 -258t-371 -89zM826 220q203 0 335 134t132 363q0 227 -132.5 361t-334.5 134q-99 0 -184.5 -34
t-148.5 -96.5t-99 -156.5t-36 -208q0 -229 132.5 -363t335.5 -134z" />
    <glyph glyph-name="uni1ED7" unicode="&#x1ed7;" horiz-adv-x="1231" 
d="M748 1632q-109 0 -172 100q-28 43 -65 43q-36 0 -56 -36t-20 -94h-123q0 111 52.5 181t141.5 70q110 0 172 -101q25 -42 67 -42q36 0 54.5 34.5t18.5 94.5h125q0 -109 -52 -179.5t-143 -70.5zM472 1191h-157l222 298h158l222 -298h-158l-143 182zM616 -20
q-239 0 -390 142.5t-151 385.5q0 241 150.5 383t390.5 142t390.5 -142t150.5 -383q0 -243 -151 -385.5t-390 -142.5zM613 181q131 0 213.5 90t82.5 237q0 146 -82.5 236t-213.5 90q-127 0 -208.5 -90t-81.5 -236q0 -147 81.5 -237t208.5 -90z" />
    <glyph glyph-name="uni1ED8" unicode="&#x1ed8;" horiz-adv-x="1651" 
d="M682 1571h-157l222 298h158l222 -298h-158l-143 182zM826 -20q-208 0 -372 89t-259 258t-95 390t95 389.5t259 257t372 88.5q207 0 371 -88.5t259 -257t95 -389.5t-95 -390t-259 -258t-371 -89zM826 220q203 0 335 134t132 363q0 227 -132.5 361t-334.5 134
q-99 0 -184.5 -34t-148.5 -96.5t-99 -156.5t-36 -208q0 -229 132.5 -363t335.5 -134zM827 -512q-62 0 -106 43.5t-44 106.5q0 61 44 104.5t106 43.5q60 0 104.5 -44t44.5 -104q0 -62 -44 -106t-105 -44z" />
    <glyph glyph-name="uni1ED9" unicode="&#x1ed9;" horiz-adv-x="1231" 
d="M472 1191h-157l222 298h158l222 -298h-158l-143 182zM616 -20q-239 0 -390 142.5t-151 385.5q0 241 150.5 383t390.5 142t390.5 -142t150.5 -383q0 -243 -151 -385.5t-390 -142.5zM613 181q131 0 213.5 90t82.5 237q0 146 -82.5 236t-213.5 90q-127 0 -208.5 -90
t-81.5 -236q0 -147 81.5 -237t208.5 -90zM617 -512q-62 0 -106 43.5t-44 106.5q0 61 44 104.5t106 43.5q60 0 104.5 -44t44.5 -104q0 -62 -44 -106t-105 -44z" />
    <glyph glyph-name="uni1EDA" unicode="&#x1eda;" horiz-adv-x="1651" 
d="M1128 1836l-225 -265h-159l259 354zM1495 1520h130v-147q0 -232 -180 -232h-10q116 -180 116 -424q0 -221 -95 -390t-259 -258t-371 -89q-208 0 -372 89t-259 258t-95 390t95 389.5t259 257t372 88.5q298 0 495 -177q43 -18 79 -18q53 0 74 32.5t21 111.5v119zM826 220
q203 0 335 134t132 363q0 227 -132.5 361t-334.5 134q-99 0 -184.5 -34t-148.5 -96.5t-99 -156.5t-36 -208q0 -229 132.5 -363t335.5 -134z" />
    <glyph glyph-name="uni1EDB" unicode="&#x1edb;" horiz-adv-x="1231" 
d="M918 1427l-225 -264h-159l259 354zM1126 1168h130v-147q0 -120 -46.5 -174.5t-122.5 -57.5q70 -121 70 -281q0 -243 -151 -385.5t-390 -142.5t-390 142.5t-151 385.5q0 241 150.5 383t390.5 142q221 0 367 -121q25 -7 48 -7q53 0 74 32.5t21 111.5v119zM613 181
q131 0 213.5 90t82.5 237q0 146 -82.5 236t-213.5 90q-127 0 -208.5 -90t-81.5 -236q0 -147 81.5 -237t208.5 -90z" />
    <glyph glyph-name="uni1EDC" unicode="&#x1edc;" horiz-adv-x="1651" 
d="M906 1571h-158l-226 265l125 89zM1495 1520h130v-147q0 -232 -180 -232h-10q116 -180 116 -424q0 -221 -95 -390t-259 -258t-371 -89q-208 0 -372 89t-259 258t-95 390t95 389.5t259 257t372 88.5q298 0 495 -177q43 -18 79 -18q53 0 74 32.5t21 111.5v119zM826 220
q203 0 335 134t132 363q0 227 -132.5 361t-334.5 134q-99 0 -184.5 -34t-148.5 -96.5t-99 -156.5t-36 -208q0 -229 132.5 -363t335.5 -134z" />
    <glyph glyph-name="uni1EDD" unicode="&#x1edd;" horiz-adv-x="1231" 
d="M696 1163h-158l-226 264l125 90zM1126 1168h130v-147q0 -120 -46.5 -174.5t-122.5 -57.5q70 -121 70 -281q0 -243 -151 -385.5t-390 -142.5t-390 142.5t-151 385.5q0 241 150.5 383t390.5 142q221 0 367 -121q25 -7 48 -7q53 0 74 32.5t21 111.5v119zM613 181
q131 0 213.5 90t82.5 237q0 146 -82.5 236t-213.5 90q-127 0 -208.5 -90t-81.5 -236q0 -147 81.5 -237t208.5 -90z" />
    <glyph glyph-name="uni1EDE" unicode="&#x1ede;" horiz-adv-x="1651" 
d="M811 1841q-47 0 -86 -36l-62 87q65 55 158 55q89 0 141 -47.5t52 -125.5q0 -117 -128 -157v-81h-114v130q114 22 114 101q0 32 -20 53t-55 21zM1495 1520h130v-147q0 -232 -180 -232h-10q116 -180 116 -424q0 -221 -95 -390t-259 -258t-371 -89q-208 0 -372 89t-259 258
t-95 390t95 389.5t259 257t372 88.5q298 0 495 -177q43 -18 79 -18q53 0 74 32.5t21 111.5v119zM826 220q203 0 335 134t132 363q0 227 -132.5 361t-334.5 134q-99 0 -184.5 -34t-148.5 -96.5t-99 -156.5t-36 -208q0 -229 132.5 -363t335.5 -134z" />
    <glyph glyph-name="uni1EDF" unicode="&#x1edf;" horiz-adv-x="1231" 
d="M601 1403q-49 0 -86 -36l-62 88q65 54 158 54q89 0 141 -47.5t52 -125.5q0 -117 -128 -157v-81h-114v130q114 22 114 101q0 33 -19.5 53.5t-55.5 20.5zM1126 1168h130v-147q0 -120 -46.5 -174.5t-122.5 -57.5q70 -121 70 -281q0 -243 -151 -385.5t-390 -142.5t-390 142.5
t-151 385.5q0 241 150.5 383t390.5 142q221 0 367 -121q25 -7 48 -7q53 0 74 32.5t21 111.5v119zM613 181q131 0 213.5 90t82.5 237q0 146 -82.5 236t-213.5 90q-127 0 -208.5 -90t-81.5 -236q0 -147 81.5 -237t208.5 -90z" />
    <glyph glyph-name="uni1EE0" unicode="&#x1ee0;" horiz-adv-x="1651" 
d="M705 1732q-45 0 -68.5 -39t-23.5 -103h-132q0 115 59 187t161 72q103 0 167 -80q4 -5 17.5 -21t20 -22t18 -16t23.5 -13.5t26 -3.5q43 0 65 37.5t22 103.5h135q0 -113 -58.5 -185.5t-163.5 -72.5q-63 0 -100.5 23t-69.5 62q-20 27 -28.5 37t-28 22t-41.5 12zM1495 1520
h130v-147q0 -232 -180 -232h-10q116 -180 116 -424q0 -221 -95 -390t-259 -258t-371 -89q-208 0 -372 89t-259 258t-95 390t95 389.5t259 257t372 88.5q298 0 495 -177q43 -18 79 -18q53 0 74 32.5t21 111.5v119zM826 220q203 0 335 134t132 363q0 227 -132.5 361
t-334.5 134q-99 0 -184.5 -34t-148.5 -96.5t-99 -156.5t-36 -208q0 -229 132.5 -363t335.5 -134z" />
    <glyph glyph-name="uni1EE1" unicode="&#x1ee1;" horiz-adv-x="1231" 
d="M511 1298q-36 0 -56 -36t-20 -94h-123q0 111 52.5 181t141.5 70q110 0 172 -101q25 -42 67 -42q36 0 54.5 34.5t18.5 94.5h125q0 -109 -52 -179.5t-143 -70.5q-109 0 -172 100q-28 43 -65 43zM1126 1168h130v-147q0 -120 -46.5 -174.5t-122.5 -57.5q70 -121 70 -281
q0 -243 -151 -385.5t-390 -142.5t-390 142.5t-151 385.5q0 241 150.5 383t390.5 142q221 0 367 -121q25 -7 48 -7q53 0 74 32.5t21 111.5v119zM613 181q131 0 213.5 90t82.5 237q0 146 -82.5 236t-213.5 90q-127 0 -208.5 -90t-81.5 -236q0 -147 81.5 -237t208.5 -90z" />
    <glyph glyph-name="uni1EE2" unicode="&#x1ee2;" horiz-adv-x="1651" 
d="M1495 1520h130v-147q0 -232 -180 -232h-10q116 -180 116 -424q0 -221 -95 -390t-259 -258t-371 -89q-208 0 -372 89t-259 258t-95 390t95 389.5t259 257t372 88.5q298 0 495 -177q43 -18 79 -18q53 0 74 32.5t21 111.5v119zM826 220q203 0 335 134t132 363
q0 227 -132.5 361t-334.5 134q-99 0 -184.5 -34t-148.5 -96.5t-99 -156.5t-36 -208q0 -229 132.5 -363t335.5 -134zM827 -214q60 0 104.5 -44t44.5 -104q0 -62 -44 -106t-105 -44q-62 0 -106 43.5t-44 106.5q0 61 44 104.5t106 43.5z" />
    <glyph glyph-name="uni1EE3" unicode="&#x1ee3;" horiz-adv-x="1231" 
d="M1126 1168h130v-147q0 -120 -46.5 -174.5t-122.5 -57.5q70 -121 70 -281q0 -243 -151 -385.5t-390 -142.5t-390 142.5t-151 385.5q0 241 150.5 383t390.5 142q221 0 367 -121q25 -7 48 -7q53 0 74 32.5t21 111.5v119zM613 181q131 0 213.5 90t82.5 237q0 146 -82.5 236
t-213.5 90q-127 0 -208.5 -90t-81.5 -236q0 -147 81.5 -237t208.5 -90zM617 -214q60 0 104.5 -44t44.5 -104q0 -62 -44 -106t-105 -44q-62 0 -106 43.5t-44 106.5q0 61 44 104.5t106 43.5z" />
    <glyph glyph-name="uni1EE4" unicode="&#x1ee4;" horiz-adv-x="1434" 
d="M716 -20q-117 0 -216 32t-173.5 94t-116.5 161.5t-42 225.5v940h260v-905q0 -160 79 -238t209 -78q129 0 209.5 78.5t80.5 237.5v905h259v-940q0 -127 -42 -226t-117 -161t-173.5 -94t-216.5 -32zM717 -512q-62 0 -106 43.5t-44 106.5q0 61 44 104.5t106 43.5
q60 0 104.5 -44t44.5 -104q0 -62 -44 -106t-105 -44z" />
    <glyph glyph-name="uni1EE5" unicode="&#x1ee5;" horiz-adv-x="1224" 
d="M816 1013h250v-1013h-237l-7 125q-51 -70 -132.5 -107.5t-183.5 -37.5q-175 0 -271.5 91.5t-96.5 259.5v682h250v-628q0 -103 54.5 -152.5t140.5 -49.5q102 0 167 62t66 194v574zM615 -214q60 0 104.5 -44t44.5 -104q0 -62 -44 -106t-105 -44q-62 0 -106 43.5t-44 106.5
q0 61 44 104.5t106 43.5z" />
    <glyph glyph-name="uni1EE6" unicode="&#x1ee6;" horiz-adv-x="1434" 
d="M662 1536v130q114 22 114 101q0 32 -20 53t-55 21q-47 0 -86 -36l-62 87q65 55 158 55q89 0 141 -47.5t52 -125.5q0 -117 -128 -157v-81h-114zM716 -20q-117 0 -216 32t-173.5 94t-116.5 161.5t-42 225.5v940h260v-905q0 -160 79 -238t209 -78q129 0 209.5 78.5
t80.5 237.5v905h259v-940q0 -127 -42 -226t-117 -161t-173.5 -94t-216.5 -32z" />
    <glyph glyph-name="uni1EE7" unicode="&#x1ee7;" horiz-adv-x="1224" 
d="M599 1404q-49 0 -86 -36l-62 88q65 54 158 54q89 0 141 -47.5t52 -125.5q0 -117 -128 -157v-81h-114v130q114 22 114 101q0 33 -19.5 53.5t-55.5 20.5zM816 1013h250v-1013h-237l-7 125q-51 -70 -132.5 -107.5t-183.5 -37.5q-175 0 -271.5 91.5t-96.5 259.5v682h250v-628
q0 -103 54.5 -152.5t140.5 -49.5q102 0 167 62t66 194v574z" />
    <glyph glyph-name="uni1EE8" unicode="&#x1ee8;" horiz-adv-x="1434" 
d="M1018 1836l-225 -265h-159l259 354zM1422 1587h130v-147q0 -232 -180 -232q-49 0 -107 20v-735q0 -127 -42 -226t-117 -161t-173.5 -94t-216.5 -32q-117 0 -216 32t-173.5 94t-116.5 161.5t-42 225.5v940h260v-905q0 -160 79 -238t209 -78q129 0 209.5 78.5t80.5 237.5
v905h259v-97q36 -12 62 -12q53 0 74 32.5t21 111.5v119z" />
    <glyph glyph-name="uni1EE9" unicode="&#x1ee9;" horiz-adv-x="1224" 
d="M916 1428l-225 -264h-159l259 354zM1223 1167h130v-147q0 -232 -180 -232q-49 0 -107 20v-808h-237l-7 125q-51 -70 -132.5 -107.5t-183.5 -37.5q-175 0 -271.5 91.5t-96.5 259.5v682h250v-628q0 -103 54.5 -152.5t140.5 -49.5q102 0 167 62t66 194v574h250v-97
q36 -12 62 -12q53 0 74 32.5t21 111.5v119z" />
    <glyph glyph-name="uni1EEA" unicode="&#x1eea;" horiz-adv-x="1434" 
d="M796 1571h-158l-226 265l125 89zM1422 1587h130v-147q0 -232 -180 -232q-49 0 -107 20v-735q0 -127 -42 -226t-117 -161t-173.5 -94t-216.5 -32q-117 0 -216 32t-173.5 94t-116.5 161.5t-42 225.5v940h260v-905q0 -160 79 -238t209 -78q129 0 209.5 78.5t80.5 237.5v905
h259v-97q36 -12 62 -12q53 0 74 32.5t21 111.5v119z" />
    <glyph glyph-name="uni1EEB" unicode="&#x1eeb;" horiz-adv-x="1224" 
d="M694 1164h-158l-226 264l125 90zM1223 1167h130v-147q0 -232 -180 -232q-49 0 -107 20v-808h-237l-7 125q-51 -70 -132.5 -107.5t-183.5 -37.5q-175 0 -271.5 91.5t-96.5 259.5v682h250v-628q0 -103 54.5 -152.5t140.5 -49.5q102 0 167 62t66 194v574h250v-97
q36 -12 62 -12q53 0 74 32.5t21 111.5v119z" />
    <glyph glyph-name="uni1EEC" unicode="&#x1eec;" horiz-adv-x="1434" 
d="M701 1841q-47 0 -86 -36l-62 87q65 55 158 55q89 0 141 -47.5t52 -125.5q0 -117 -128 -157v-81h-114v130q114 22 114 101q0 32 -20 53t-55 21zM1422 1587h130v-147q0 -232 -180 -232q-49 0 -107 20v-735q0 -127 -42 -226t-117 -161t-173.5 -94t-216.5 -32q-117 0 -216 32
t-173.5 94t-116.5 161.5t-42 225.5v940h260v-905q0 -160 79 -238t209 -78q129 0 209.5 78.5t80.5 237.5v905h259v-97q36 -12 62 -12q53 0 74 32.5t21 111.5v119z" />
    <glyph glyph-name="uni1EED" unicode="&#x1eed;" horiz-adv-x="1224" 
d="M599 1404q-49 0 -86 -36l-62 88q65 54 158 54q89 0 141 -47.5t52 -125.5q0 -117 -128 -157v-81h-114v130q114 22 114 101q0 33 -19.5 53.5t-55.5 20.5zM1223 1167h130v-147q0 -232 -180 -232q-49 0 -107 20v-808h-237l-7 125q-51 -70 -132.5 -107.5t-183.5 -37.5
q-175 0 -271.5 91.5t-96.5 259.5v682h250v-628q0 -103 54.5 -152.5t140.5 -49.5q102 0 167 62t66 194v574h250v-97q36 -12 62 -12q53 0 74 32.5t21 111.5v119z" />
    <glyph glyph-name="uni1EEE" unicode="&#x1eee;" horiz-adv-x="1434" 
d="M595 1732q-45 0 -68.5 -39t-23.5 -103h-132q0 115 59 187t161 72q103 0 167 -80q4 -5 17.5 -21t20 -22t18 -16t23.5 -13.5t26 -3.5q43 0 65 37.5t22 103.5h135q0 -113 -58.5 -185.5t-163.5 -72.5q-63 0 -100.5 23t-69.5 62q-20 27 -28.5 37t-28 22t-41.5 12zM1422 1587
h130v-147q0 -232 -180 -232q-49 0 -107 20v-735q0 -127 -42 -226t-117 -161t-173.5 -94t-216.5 -32q-117 0 -216 32t-173.5 94t-116.5 161.5t-42 225.5v940h260v-905q0 -160 79 -238t209 -78q129 0 209.5 78.5t80.5 237.5v905h259v-97q36 -12 62 -12q53 0 74 32.5t21 111.5
v119z" />
    <glyph glyph-name="uni1EEF" unicode="&#x1eef;" horiz-adv-x="1224" 
d="M509 1299q-36 0 -56 -36t-20 -94h-123q0 111 52.5 181t141.5 70q110 0 172 -101q25 -42 67 -42q36 0 54.5 34.5t18.5 94.5h125q0 -109 -52 -179.5t-143 -70.5q-109 0 -172 100q-28 43 -65 43zM1223 1167h130v-147q0 -232 -180 -232q-49 0 -107 20v-808h-237l-7 125
q-51 -70 -132.5 -107.5t-183.5 -37.5q-175 0 -271.5 91.5t-96.5 259.5v682h250v-628q0 -103 54.5 -152.5t140.5 -49.5q102 0 167 62t66 194v574h250v-97q36 -12 62 -12q53 0 74 32.5t21 111.5v119z" />
    <glyph glyph-name="uni1EF0" unicode="&#x1ef0;" horiz-adv-x="1434" 
d="M1422 1587h130v-147q0 -232 -180 -232q-49 0 -107 20v-735q0 -127 -42 -226t-117 -161t-173.5 -94t-216.5 -32q-117 0 -216 32t-173.5 94t-116.5 161.5t-42 225.5v940h260v-905q0 -160 79 -238t209 -78q129 0 209.5 78.5t80.5 237.5v905h259v-97q36 -12 62 -12
q53 0 74 32.5t21 111.5v119zM717 -214q60 0 104.5 -44t44.5 -104q0 -62 -44 -106t-105 -44q-62 0 -106 43.5t-44 106.5q0 61 44 104.5t106 43.5z" />
    <glyph glyph-name="uni1EF1" unicode="&#x1ef1;" horiz-adv-x="1224" 
d="M1223 1167h130v-147q0 -232 -180 -232q-49 0 -107 20v-808h-237l-7 125q-51 -70 -132.5 -107.5t-183.5 -37.5q-175 0 -271.5 91.5t-96.5 259.5v682h250v-628q0 -103 54.5 -152.5t140.5 -49.5q102 0 167 62t66 194v574h250v-97q36 -12 62 -12q53 0 74 32.5t21 111.5v119z
M615 -214q60 0 104.5 -44t44.5 -104q0 -62 -44 -106t-105 -44q-62 0 -106 43.5t-44 106.5q0 61 44 104.5t106 43.5z" />
    <glyph glyph-name="Ygrave" unicode="&#x1ef2;" horiz-adv-x="1257" 
d="M709 1571h-158l-226 265l125 89zM1231 1433l-471 -748v-685h-261v682l-473 751h290l313 -519l314 519h288z" />
    <glyph glyph-name="ygrave" unicode="&#x1ef3;" horiz-adv-x="1079" 
d="M621 1164h-158l-226 264l125 90zM808 1013h259l-613 -1490h-254l222 513l-409 977h273l255 -704z" />
    <glyph glyph-name="uni1EF4" unicode="&#x1ef4;" horiz-adv-x="1257" 
d="M499 0v682l-473 751h290l313 -519l314 519h288l-471 -748v-685h-261zM631 -214q60 0 104.5 -44t44.5 -104q0 -62 -44 -106t-105 -44q-62 0 -106 43.5t-44 106.5q0 61 44 104.5t106 43.5z" />
    <glyph glyph-name="uni1EF5" unicode="&#x1ef5;" horiz-adv-x="1079" 
d="M808 1013h259l-613 -1490h-254l222 513l-409 977h273l255 -704zM909 -214q60 0 104.5 -44t44.5 -104q0 -62 -44 -106t-105 -44q-62 0 -106 43.5t-44 106.5q0 61 44 104.5t106 43.5z" />
    <glyph glyph-name="uni1EF6" unicode="&#x1ef6;" horiz-adv-x="1257" 
d="M614 1841q-47 0 -86 -36l-62 87q65 55 158 55q89 0 141 -47.5t52 -125.5q0 -117 -128 -157v-81h-114v130q114 22 114 101q0 32 -20 53t-55 21zM1231 1433l-471 -748v-685h-261v682l-473 751h290l313 -519l314 519h288z" />
    <glyph glyph-name="uni1EF7" unicode="&#x1ef7;" horiz-adv-x="1079" 
d="M526 1404q-49 0 -86 -36l-62 88q65 54 158 54q89 0 141 -47.5t52 -125.5q0 -117 -128 -157v-81h-114v130q114 22 114 101q0 33 -19.5 53.5t-55.5 20.5zM808 1013h259l-613 -1490h-254l222 513l-409 977h273l255 -704z" />
    <glyph glyph-name="uni1EF8" unicode="&#x1ef8;" horiz-adv-x="1257" 
d="M508 1732q-45 0 -68.5 -39t-23.5 -103h-132q0 115 59 187t161 72q103 0 167 -80q4 -5 17.5 -21t20 -22t18 -16t23.5 -13.5t26 -3.5q43 0 65 37.5t22 103.5h135q0 -113 -58.5 -185.5t-163.5 -72.5q-63 0 -100.5 23t-69.5 62q-20 27 -28.5 37t-28 22t-41.5 12zM1231 1433
l-471 -748v-685h-261v682l-473 751h290l313 -519l314 519h288z" />
    <glyph glyph-name="uni1EF9" unicode="&#x1ef9;" horiz-adv-x="1079" 
d="M436 1299q-36 0 -56 -36t-20 -94h-123q0 111 52.5 181t141.5 70q110 0 172 -101q25 -42 67 -42q36 0 54.5 34.5t18.5 94.5h125q0 -109 -52 -179.5t-143 -70.5q-109 0 -172 100q-28 43 -65 43zM808 1013h259l-613 -1490h-254l222 513l-409 977h273l255 -704z" />
    <glyph glyph-name="endash" unicode="&#x2013;" horiz-adv-x="1333" 
d="M154 428v209h1024v-209h-1024z" />
    <glyph glyph-name="emdash" unicode="&#x2014;" horiz-adv-x="2357" 
d="M154 428v209h2048v-209h-2048z" />
    <glyph glyph-name="quoteleft" unicode="&#x2018;" horiz-adv-x="602" 
d="M296 1433h179l-125 -643h-257z" />
    <glyph glyph-name="quoteright" unicode="&#x2019;" horiz-adv-x="601" 
d="M305 790h-179l125 643h257z" />
    <glyph glyph-name="quotesinglbase" unicode="&#x201a;" horiz-adv-x="601" 
d="M305 -366h-179l125 643h257z" />
    <glyph glyph-name="quotedblleft" unicode="&#x201c;" horiz-adv-x="1035" 
d="M296 1433h179l-125 -643h-257zM730 1433h179l-125 -643h-257z" />
    <glyph glyph-name="quotedblright" unicode="&#x201d;" horiz-adv-x="1035" 
d="M305 790h-179l125 643h257zM739 790h-179l125 643h257z" />
    <glyph glyph-name="quotedblbase" unicode="&#x201e;" horiz-adv-x="1036" 
d="M305 -366h-179l125 643h257zM741 -366h-179l125 643h257z" />
    <glyph glyph-name="dagger" unicode="&#x2020;" horiz-adv-x="1004" 
d="M925 1058v-161h-347v-1185h-163v1185h-337v161h337v375h163v-375h347z" />
    <glyph glyph-name="daggerdbl" unicode="&#x2021;" horiz-adv-x="1081" 
d="M964 897h-347v-635h347v-161h-347v-389h-163v389h-337v161h337v635h-337v161h337v375h163v-375h347v-161z" />
    <glyph glyph-name="bullet" unicode="&#x2022;" horiz-adv-x="907" 
d="M455 372q-123 0 -212 86.5t-89 211.5q0 121 89.5 210t211.5 89q119 0 208.5 -89.5t89.5 -209.5q0 -125 -88.5 -211.5t-209.5 -86.5z" />
    <glyph glyph-name="ellipsis" unicode="&#x2026;" horiz-adv-x="1970" 
d="M329 -20q-60 0 -104 43.5t-44 104.5t44 105t104 44q61 0 105 -44t44 -105t-44 -104.5t-105 -43.5zM988 -20q-60 0 -104 43.5t-44 104.5t44 105t104 44q61 0 105 -44t44 -105t-44 -104.5t-105 -43.5zM1639 -20q-60 0 -104 43.5t-44 104.5t44 105t104 44q61 0 105 -44
t44 -105t-44 -104.5t-105 -43.5z" />
    <glyph glyph-name="perthousand" unicode="&#x2030;" horiz-adv-x="2388" 
d="M419 810q-133 0 -226.5 94t-93.5 228q0 132 94 226.5t226 94.5q133 0 226.5 -94.5t93.5 -226.5q0 -133 -93.5 -227.5t-226.5 -94.5zM336 -1l754 1435h213l-755 -1435h-212zM419 980q65 0 108.5 44t43.5 108q0 63 -44.5 107.5t-107.5 44.5t-107.5 -44.5t-44.5 -107.5
q0 -64 44.5 -108t107.5 -44zM1231 -17q-135 0 -229 93.5t-94 227.5q0 133 94.5 227t228.5 94q131 0 224.5 -94t93.5 -227q0 -132 -93 -226.5t-225 -94.5zM1973 -17q-135 0 -229 93.5t-94 227.5q0 133 94.5 227t228.5 94q131 0 224.5 -94t93.5 -227q0 -132 -93 -226.5
t-225 -94.5zM1231 153q62 0 107 44.5t45 106.5q0 63 -45 107.5t-107 44.5q-65 0 -109.5 -44t-44.5 -108q0 -62 45 -106.5t109 -44.5zM1973 153q62 0 107 44.5t45 106.5q0 63 -45 107.5t-107 44.5q-65 0 -109.5 -44t-44.5 -108q0 -62 45 -106.5t109 -44.5z" />
    <glyph glyph-name="guilsinglleft" unicode="&#x2039;" horiz-adv-x="631" 
d="M364 260l-312 376l312 377h203l-311 -377l311 -376h-203z" />
    <glyph glyph-name="guilsinglright" unicode="&#x203a;" horiz-adv-x="631" 
d="M64 260l311 376l-311 377h203l311 -377l-311 -376h-203z" />
    <glyph glyph-name="fraction" unicode="&#x2044;" horiz-adv-x="435" 
d="M-269 0l808 1433h165l-808 -1433h-165z" />
    <glyph glyph-name="Euro" unicode="&#x20ac;" horiz-adv-x="1557" 
d="M906 218q105 0 186.5 52.5t133.5 146.5l220 -140q-90 -137 -230.5 -217t-308.5 -80q-236 0 -404.5 133.5t-221.5 385.5h-149v140h131q-3 39 -3 80q0 26 2 74h-130v142h149q52 252 220 385t406 133q168 0 308.5 -79t230.5 -215l-220 -141q-51 96 -133 147t-187 51
q-134 0 -229.5 -67.5t-134.5 -213.5h435v-142h-458q-3 -36 -3 -74q0 -43 3 -80h458v-140h-435q41 -145 136 -213t228 -68z" />
    <glyph glyph-name="uni2113" unicode="&#x2113;" horiz-adv-x="1162" 
d="M638 -13q-167 0 -259.5 87t-117.5 228q0 13 -1 18q-16 -11 -52.5 -38t-57.5 -40l-67 128q20 15 81 59.5t91 69.5v476q0 130 29 228t81 156t117.5 86t144.5 28q100 0 170 -48t100.5 -122.5t30.5 -168.5q0 -168 -110 -331.5t-324 -348.5l2 -60q3 -101 59.5 -157t139.5 -56
t157.5 54.5t125.5 134.5l105 -107q-80 -143 -195.5 -209.5t-249.5 -66.5zM495 669q265 270 265 466q0 173 -123 173q-59 0 -100.5 -71t-41.5 -232v-336z" />
    <glyph glyph-name="uni2116" unicode="&#x2116;" horiz-adv-x="2953" 
d="M1262 409v1127h259v-1536h-261l-766 1133v-1133h-257v1536h261zM2282 352q-234 0 -384.5 152t-150.5 399q0 245 150.5 396.5t384.5 151.5q235 0 385 -152t150 -396q0 -247 -150 -399t-385 -152zM2280 1240q-126 0 -204.5 -90.5t-78.5 -246.5q0 -157 78 -248t205 -91
q128 0 207.5 91t79.5 248q0 156 -79.5 246.5t-207.5 90.5zM1820 0v164h924v-164h-924z" />
    <glyph glyph-name="trademark" unicode="&#x2122;" horiz-adv-x="1602" 
d="M116 1425v111h457v-111h-167v-607h-122v607h-168zM1236 1536h129v-718h-121v513l-225 -371l-226 371v-513h-123v718h133l215 -361z" />
    <glyph glyph-name="estimated" unicode="&#x212e;" horiz-adv-x="1966" 
d="M998 -18q-178 0 -340 62t-279 167.5t-186 250.5t-69 304q0 215 117 397t318 287.5t439 105.5q179 0 341.5 -62.5t280 -168t186.5 -252t69 -307.5v-21h-1417q-13 0 -13 -8v-430q0 -25 19 -49q106 -109 244.5 -171t291.5 -62q167 0 313.5 69.5t252.5 192.5h124
q-118 -141 -300.5 -223t-391.5 -82zM458 788h1087q8 0 8 15v430q0 34 -20 51q-106 105 -243.5 165t-289.5 60q-151 0 -288.5 -61.5t-245.5 -169.5q-21 -23 -21 -53v-422q0 -15 13 -15z" />
    <glyph glyph-name="partialdiff" unicode="&#x2202;" horiz-adv-x="1205" 
d="M353 1452q145 30 277.5 -18t228 -154t150.5 -265.5t51 -342.5q-6 -294 -156 -480t-380 -186q-121 0 -213.5 47t-141 130t-55 196.5t44.5 246.5q86 230 266.5 326.5t375.5 26.5q-51 167 -167 247.5t-281 46.5v179zM836 672q2 69 -2 115q-145 88 -273.5 28t-192.5 -247
q-42 -126 -27.5 -214.5t67 -136t127.5 -47.5q114 0 203 134t98 368z" />
    <glyph glyph-name="emptyset" unicode="&#x2205;" horiz-adv-x="1524" 
d="M763 -16q-226 0 -396 146l-90 -89l-69 70l89 89q-147 171 -147 396q0 166 82 307t223.5 223t307.5 82q226 0 396 -146l89 89l70 -70l-89 -89q146 -172 146 -396q0 -166 -82 -307t-223 -223t-307 -82zM439 341l578 579q-107 87 -254 87q-172 0 -292 -120t-120 -291
q0 -145 88 -255zM763 185q171 0 291 119.5t120 291.5q0 144 -87 255l-579 -579q109 -87 255 -87z" />
    <glyph glyph-name="product" unicode="&#x220f;" horiz-adv-x="1680" 
d="M259 0v1211h-117v222h1397v-222h-118v-1211h-219v1211h-720v-1211h-223z" />
    <glyph glyph-name="summation" unicode="&#x2211;" horiz-adv-x="1414" 
d="M110 1v160l609 606l-609 607v162h1186v-196h-849l560 -573l-560 -572h849v-194h-1186z" />
    <glyph glyph-name="minus" unicode="&#x2212;" horiz-adv-x="1311" 
d="M234 598v193h843v-193h-843z" />
    <glyph glyph-name="radical" unicode="&#x221a;" horiz-adv-x="1451" 
d="M458 0l-220 678h-149v208h296l188 -567l581 1217h229l-737 -1536h-188z" />
    <glyph glyph-name="infinity" unicode="&#x221e;" horiz-adv-x="1707" 
d="M477 273q-131 0 -217 90.5t-91 232.5q5 142 91 232.5t217 90.5q180 0 375 -201q192 201 374 201q137 0 220 -87t88 -236q-5 -149 -88 -236t-220 -87q-182 0 -374 200q-195 -200 -375 -200zM477 439q55 0 124 41t139 116q-70 75 -139 115.5t-124 40.5q-59 0 -100.5 -44.5
t-42.5 -111.5q1 -67 42.5 -112t100.5 -45zM1226 439q60 0 101 43.5t42 113.5q-1 70 -42 113t-101 43q-115 0 -265 -156q151 -157 265 -157z" />
    <glyph glyph-name="integral" unicode="&#x222b;" horiz-adv-x="949" 
d="M75 -457v237q153 0 211.5 56t58.5 198v1096q0 141 91.5 232t228.5 91q138 0 220 -78l-96 -187q-48 46 -99 46q-50 0 -78.5 -37.5t-28.5 -111.5v-1067q0 -222 -139 -348.5t-369 -126.5z" />
    <glyph glyph-name="approxequal" unicode="&#x2248;" horiz-adv-x="1398" 
d="M913 681q-51 0 -95.5 13.5t-80 39.5t-56.5 45t-47 47q-7 8 -10 11q-60 64 -116 64q-66 0 -104.5 -56t-41.5 -147h-181q3 175 91 280t239 105q79 0 140 -35.5t123 -113.5q22 -25 33.5 -37t37 -26t53.5 -14q61 0 100 53.5t43 146.5h178q-5 -166 -86 -271t-220 -105z
M913 208q-51 0 -96.5 14t-81.5 40.5t-57 46t-46 46.5q-5 6 -8 9q-30 33 -55.5 49t-60.5 15q-68 -2 -105.5 -57t-40.5 -146h-181q3 177 91.5 281.5t238.5 104.5q76 0 136.5 -35t126.5 -113q21 -25 33 -37.5t37.5 -27t53.5 -14.5q61 0 100 53.5t43 148.5h178q-5 -166 -86 -272
t-220 -106z" />
    <glyph glyph-name="notequal" unicode="&#x2260;" horiz-adv-x="1258" 
d="M165 0l201 389h-195v193h294l121 235h-415v194h514l179 345h187l-179 -345h229v-194h-328l-122 -235h450v-193h-548l-201 -389h-187z" />
    <glyph glyph-name="lessequal" unicode="&#x2264;" horiz-adv-x="1414" 
d="M1261 1474v-214l-918 -407l918 -408v-216l-1131 509v232zM130 0v166h1131v-166h-1131z" />
    <glyph glyph-name="greaterequal" unicode="&#x2265;" horiz-adv-x="1414" 
d="M153 1474l1131 -504v-232l-1131 -509v216l918 408l-918 407v214zM153 0v166h1131v-166h-1131z" />
    <glyph glyph-name="lozenge" unicode="&#x25ca;" horiz-adv-x="1378" 
d="M689 106l-618 617l618 618l617 -616zM690 383l339 342l-339 339l-342 -341z" />
    <glyph glyph-name="uniF8FF" unicode="&#xf8ff;" horiz-adv-x="1810" 
d="M905 0q-158 0 -302 62t-248 166t-166 248t-62 302t62 302.5t166 248.5t248 165.5t302 61.5t302.5 -61.5t248.5 -165.5t165.5 -248.5t61.5 -302.5t-61.5 -302t-165.5 -248t-248.5 -166t-302.5 -62zM905 74q143 0 273.5 56t225 150.5t150 224.5t55.5 273t-55.5 273.5
t-150 225t-225 150.5t-273.5 56q-190 0 -352.5 -94.5t-257.5 -257t-95 -353.5q0 -190 95 -352.5t257.5 -257t352.5 -94.5zM1312 444q-13 0 -23 13l-297 295q-11 12 -11.5 27.5t10.5 25.5l297 297q10 10 25 10t26 -10q11 -11 11 -26.5t-11 -26.5l-270 -271l270 -270
q22 -22 0 -51q-10 -13 -27 -13zM497 444q-15 0 -25.5 11t-10.5 26v594q0 16 10.5 26.5t25.5 10.5q16 0 26.5 -10.5t10.5 -26.5v-594q0 -15 -10.5 -26t-26.5 -11zM905 444q-16 0 -26.5 11t-10.5 26v594q0 16 10.5 26.5t26.5 10.5q15 0 26 -10.5t11 -26.5v-594q0 -15 -11 -26
t-26 -11zM608 741q-16 0 -26.5 11t-10.5 26q0 16 10.5 26.5t26.5 10.5h186q16 0 26.5 -10.5t10.5 -26.5q0 -15 -10.5 -26t-26.5 -11h-186z" />
    <glyph glyph-name="G.ss02" horiz-adv-x="1600" 
d="M830 -20q-159 0 -293.5 51.5t-231 145t-151 231.5t-54.5 305q0 223 95 392.5t259 258t372 88.5q205 0 368 -87t256 -249l-229 -122q-59 114 -162 171.5t-233 57.5q-204 0 -335 -134t-131 -370q0 -235 132 -372.5t351 -137.5q171 0 287.5 93t127.5 249h-423v212h671
q8 -91 2 -166q-8 -153 -65 -272.5t-150 -194t-210.5 -112.5t-252.5 -38z" />
    <glyph glyph-name="Gbreve.ss02" horiz-adv-x="1600" 
d="M818 1571q-166 0 -260.5 69t-94.5 218h146q0 -85 55.5 -126t153.5 -41q99 0 155.5 41t56.5 126h146q0 -149 -95.5 -218t-262.5 -69zM830 -20q-159 0 -293.5 51.5t-231 145t-151 231.5t-54.5 305q0 223 95 392.5t259 258t372 88.5q205 0 368 -87t256 -249l-229 -122
q-59 114 -162 171.5t-233 57.5q-204 0 -335 -134t-131 -370q0 -235 132 -372.5t351 -137.5q171 0 287.5 93t127.5 249h-423v212h671q8 -91 2 -166q-8 -153 -65 -272.5t-150 -194t-210.5 -112.5t-252.5 -38z" />
    <glyph glyph-name="Gcommaaccent.ss02" horiz-adv-x="1600" 
d="M830 -20q-159 0 -293.5 51.5t-231 145t-151 231.5t-54.5 305q0 223 95 392.5t259 258t372 88.5q205 0 368 -87t256 -249l-229 -122q-59 114 -162 171.5t-233 57.5q-204 0 -335 -134t-131 -370q0 -235 132 -372.5t351 -137.5q171 0 287.5 93t127.5 249h-423v212h671
q8 -91 2 -166q-8 -153 -65 -272.5t-150 -194t-210.5 -112.5t-252.5 -38zM667 -569l-125 58l165 371h220z" />
    <glyph glyph-name="Gdotaccent.ss02" horiz-adv-x="1600" 
d="M820 1536q-62 0 -106 44t-44 106q0 61 44 104.5t106 43.5q60 0 104.5 -43.5t44.5 -104.5q0 -62 -44.5 -106t-104.5 -44zM830 -20q-159 0 -293.5 51.5t-231 145t-151 231.5t-54.5 305q0 223 95 392.5t259 258t372 88.5q205 0 368 -87t256 -249l-229 -122
q-59 114 -162 171.5t-233 57.5q-204 0 -335 -134t-131 -370q0 -235 132 -372.5t351 -137.5q171 0 287.5 93t127.5 249h-423v212h671q8 -91 2 -166q-8 -153 -65 -272.5t-150 -194t-210.5 -112.5t-252.5 -38z" />
    <glyph glyph-name="G.ss03" horiz-adv-x="1600" 
d="M830 -20q-159 0 -293.5 51.5t-231 145t-151 231.5t-54.5 305q0 223 95 392.5t259 258t372 88.5q205 0 368 -87t256 -249l-229 -122q-59 114 -162 171.5t-233 57.5q-204 0 -335 -134t-131 -370q0 -235 132 -372.5t351 -137.5q171 0 287.5 93t127.5 249h-423v212h671
q8 -91 2 -166q-8 -153 -65 -272.5t-150 -194t-210.5 -112.5t-252.5 -38z" />
    <glyph glyph-name="Gbreve.ss03" horiz-adv-x="1600" 
d="M818 1571q-166 0 -260.5 69t-94.5 218h146q0 -85 55.5 -126t153.5 -41q99 0 155.5 41t56.5 126h146q0 -149 -95.5 -218t-262.5 -69zM830 -20q-159 0 -293.5 51.5t-231 145t-151 231.5t-54.5 305q0 223 95 392.5t259 258t372 88.5q205 0 368 -87t256 -249l-229 -122
q-59 114 -162 171.5t-233 57.5q-204 0 -335 -134t-131 -370q0 -235 132 -372.5t351 -137.5q171 0 287.5 93t127.5 249h-423v212h671q8 -91 2 -166q-8 -153 -65 -272.5t-150 -194t-210.5 -112.5t-252.5 -38z" />
    <glyph glyph-name="Gcommaaccent.ss03" horiz-adv-x="1600" 
d="M830 -20q-159 0 -293.5 51.5t-231 145t-151 231.5t-54.5 305q0 223 95 392.5t259 258t372 88.5q205 0 368 -87t256 -249l-229 -122q-59 114 -162 171.5t-233 57.5q-204 0 -335 -134t-131 -370q0 -235 132 -372.5t351 -137.5q171 0 287.5 93t127.5 249h-423v212h671
q8 -91 2 -166q-8 -153 -65 -272.5t-150 -194t-210.5 -112.5t-252.5 -38zM667 -569l-125 58l165 371h220z" />
    <glyph glyph-name="Gdotaccent.ss03" horiz-adv-x="1600" 
d="M820 1536q-62 0 -106 44t-44 106q0 61 44 104.5t106 43.5q60 0 104.5 -43.5t44.5 -104.5q0 -62 -44.5 -106t-104.5 -44zM830 -20q-159 0 -293.5 51.5t-231 145t-151 231.5t-54.5 305q0 223 95 392.5t259 258t372 88.5q205 0 368 -87t256 -249l-229 -122
q-59 114 -162 171.5t-233 57.5q-204 0 -335 -134t-131 -370q0 -235 132 -372.5t351 -137.5q171 0 287.5 93t127.5 249h-423v212h671q8 -91 2 -166q-8 -153 -65 -272.5t-150 -194t-210.5 -112.5t-252.5 -38z" />
    <glyph glyph-name="i.loclTRK" horiz-adv-x="567" 
d="M286 1193q-62 0 -106 44t-44 105q0 62 44 105.5t106 43.5q61 0 105 -43.5t44 -105.5q0 -61 -44.5 -105t-104.5 -44zM158 0v1013h251v-1013h-251z" />
    <glyph glyph-name="g.ss01" horiz-adv-x="1129" 
d="M1076 1013v-177h-144q49 -85 49 -188q0 -168 -119 -257t-302 -89q-119 0 -215 38q-23 -35 -23 -66q0 -33 18.5 -55t67.5 -35.5t82.5 -19t114.5 -14.5q23 -3 34 -4q56 -6 96.5 -12t88.5 -17t81.5 -25t67.5 -36t54.5 -49.5t33 -66.5t12.5 -86q0 -164 -135.5 -250.5
t-355.5 -86.5q-219 0 -348 79t-129 199q0 114 117 230q-119 64 -119 195q0 127 101 213q-88 94 -88 231q0 168 124 269t303 101q81 0 152 -21h381zM552 481q92 0 144 50.5t52 133.5t-52 135t-143 52q-92 0 -145 -52t-53 -136q0 -82 52.5 -132.5t144.5 -50.5zM833 -182
q0 69 -83 98q-50 18 -215 37q-10 1 -17 2q-82 9 -140 19q-56 -71 -56 -133q0 -71 76.5 -112t208.5 -41q64 0 112.5 11.5t81 41.5t32.5 77z" />
    <glyph glyph-name="gbreve.ss01" horiz-adv-x="1129" 
d="M563 1151q-160 0 -257.5 89t-97.5 250h157q0 -98 53 -158.5t145 -60.5q93 0 146.5 60.5t53.5 158.5h158q0 -161 -98 -250t-260 -89zM1076 1013v-177h-144q49 -85 49 -188q0 -168 -119 -257t-302 -89q-119 0 -215 38q-23 -35 -23 -66q0 -33 18.5 -55t67.5 -35.5t82.5 -19
t114.5 -14.5q23 -3 34 -4q56 -6 96.5 -12t88.5 -17t81.5 -25t67.5 -36t54.5 -49.5t33 -66.5t12.5 -86q0 -164 -135.5 -250.5t-355.5 -86.5q-219 0 -348 79t-129 199q0 114 117 230q-119 64 -119 195q0 127 101 213q-88 94 -88 231q0 168 124 269t303 101q81 0 152 -21h381z
M552 481q92 0 144 50.5t52 133.5t-52 135t-143 52q-92 0 -145 -52t-53 -136q0 -82 52.5 -132.5t144.5 -50.5zM833 -182q0 69 -83 98q-50 18 -215 37q-10 1 -17 2q-82 9 -140 19q-56 -71 -56 -133q0 -71 76.5 -112t208.5 -41q64 0 112.5 11.5t81 41.5t32.5 77z" />
    <glyph glyph-name="gcommaaccent.ss01" horiz-adv-x="1129" 
d="M761 1485l-125 -320h-257l203 320h179zM1076 1013v-177h-144q49 -85 49 -188q0 -168 -119 -257t-302 -89q-119 0 -215 38q-23 -35 -23 -66q0 -33 18.5 -55t67.5 -35.5t82.5 -19t114.5 -14.5q23 -3 34 -4q56 -6 96.5 -12t88.5 -17t81.5 -25t67.5 -36t54.5 -49.5t33 -66.5
t12.5 -86q0 -164 -135.5 -250.5t-355.5 -86.5q-219 0 -348 79t-129 199q0 114 117 230q-119 64 -119 195q0 127 101 213q-88 94 -88 231q0 168 124 269t303 101q81 0 152 -21h381zM552 481q92 0 144 50.5t52 133.5t-52 135t-143 52q-92 0 -145 -52t-53 -136
q0 -82 52.5 -132.5t144.5 -50.5zM833 -182q0 69 -83 98q-50 18 -215 37q-10 1 -17 2q-82 9 -140 19q-56 -71 -56 -133q0 -71 76.5 -112t208.5 -41q64 0 112.5 11.5t81 41.5t32.5 77z" />
    <glyph glyph-name="gdotaccent.ss01" horiz-adv-x="1129" 
d="M565 1193q-62 0 -106 44t-44 105q0 62 44 105.5t106 43.5q61 0 105 -43.5t44 -105.5q0 -61 -44.5 -105t-104.5 -44zM1076 1013v-177h-144q49 -85 49 -188q0 -168 -119 -257t-302 -89q-119 0 -215 38q-23 -35 -23 -66q0 -33 18.5 -55t67.5 -35.5t82.5 -19t114.5 -14.5
q23 -3 34 -4q56 -6 96.5 -12t88.5 -17t81.5 -25t67.5 -36t54.5 -49.5t33 -66.5t12.5 -86q0 -164 -135.5 -250.5t-355.5 -86.5q-219 0 -348 79t-129 199q0 114 117 230q-119 64 -119 195q0 127 101 213q-88 94 -88 231q0 168 124 269t303 101q81 0 152 -21h381zM552 481
q92 0 144 50.5t52 133.5t-52 135t-143 52q-92 0 -145 -52t-53 -136q0 -82 52.5 -132.5t144.5 -50.5zM833 -182q0 69 -83 98q-50 18 -215 37q-10 1 -17 2q-82 9 -140 19q-56 -71 -56 -133q0 -71 76.5 -112t208.5 -41q64 0 112.5 11.5t81 41.5t32.5 77z" />
    <glyph glyph-name="a.ss02" horiz-adv-x="1294" 
d="M898 1013h237v-1013h-237l-7 152q-44 -82 -132.5 -128.5t-198.5 -46.5q-99 0 -187 37t-153.5 104t-104 167t-38.5 220t38.5 220t104.5 167t153.5 104t186.5 37q114 0 205.5 -50t132.5 -138v168zM616 186q124 0 206.5 89.5t82.5 229.5t-83 229.5t-206 89.5
q-124 0 -206.5 -87.5t-82.5 -231.5t82.5 -231.5t206.5 -87.5z" />
    <glyph glyph-name="aacute.ss02" horiz-adv-x="1294" 
d="M949 1428l-225 -264h-159l259 354zM898 1013h237v-1013h-237l-7 152q-44 -82 -132.5 -128.5t-198.5 -46.5q-99 0 -187 37t-153.5 104t-104 167t-38.5 220t38.5 220t104.5 167t153.5 104t186.5 37q114 0 205.5 -50t132.5 -138v168zM616 186q124 0 206.5 89.5t82.5 229.5
t-83 229.5t-206 89.5q-124 0 -206.5 -87.5t-82.5 -231.5t82.5 -231.5t206.5 -87.5z" />
    <glyph glyph-name="abreve.ss02" horiz-adv-x="1294" 
d="M646 1151q-160 0 -257.5 89t-97.5 250h157q0 -98 53 -158.5t145 -60.5q93 0 146.5 60.5t53.5 158.5h158q0 -161 -98 -250t-260 -89zM898 1013h237v-1013h-237l-7 152q-44 -82 -132.5 -128.5t-198.5 -46.5q-99 0 -187 37t-153.5 104t-104 167t-38.5 220t38.5 220
t104.5 167t153.5 104t186.5 37q114 0 205.5 -50t132.5 -138v168zM616 186q124 0 206.5 89.5t82.5 229.5t-83 229.5t-206 89.5q-124 0 -206.5 -87.5t-82.5 -231.5t82.5 -231.5t206.5 -87.5z" />
    <glyph glyph-name="uni1EAF.ss02" horiz-adv-x="1294" 
d="M949 1905l-225 -264h-159l259 354zM646 1151q-160 0 -257.5 89t-97.5 250h157q0 -98 53 -158.5t145 -60.5q93 0 146.5 60.5t53.5 158.5h158q0 -161 -98 -250t-260 -89zM898 1013h237v-1013h-237l-7 152q-44 -82 -132.5 -128.5t-198.5 -46.5q-99 0 -187 37t-153.5 104
t-104 167t-38.5 220t38.5 220t104.5 167t153.5 104t186.5 37q114 0 205.5 -50t132.5 -138v168zM616 186q124 0 206.5 89.5t82.5 229.5t-83 229.5t-206 89.5q-124 0 -206.5 -87.5t-82.5 -231.5t82.5 -231.5t206.5 -87.5z" />
    <glyph glyph-name="uni1EB7.ss02" horiz-adv-x="1294" 
d="M646 1151q-160 0 -257.5 89t-97.5 250h157q0 -98 53 -158.5t145 -60.5q93 0 146.5 60.5t53.5 158.5h158q0 -161 -98 -250t-260 -89zM898 1013h237v-1013h-237l-7 152q-44 -82 -132.5 -128.5t-198.5 -46.5q-99 0 -187 37t-153.5 104t-104 167t-38.5 220t38.5 220
t104.5 167t153.5 104t186.5 37q114 0 205.5 -50t132.5 -138v168zM616 186q124 0 206.5 89.5t82.5 229.5t-83 229.5t-206 89.5q-124 0 -206.5 -87.5t-82.5 -231.5t82.5 -231.5t206.5 -87.5zM648 -214q60 0 104.5 -44t44.5 -104q0 -62 -44 -106t-105 -44q-62 0 -106 43.5
t-44 106.5q0 61 44 104.5t106 43.5z" />
    <glyph glyph-name="uni1EB1.ss02" horiz-adv-x="1294" 
d="M727 1641h-158l-226 264l125 90zM646 1151q-160 0 -257.5 89t-97.5 250h157q0 -98 53 -158.5t145 -60.5q93 0 146.5 60.5t53.5 158.5h158q0 -161 -98 -250t-260 -89zM898 1013h237v-1013h-237l-7 152q-44 -82 -132.5 -128.5t-198.5 -46.5q-99 0 -187 37t-153.5 104
t-104 167t-38.5 220t38.5 220t104.5 167t153.5 104t186.5 37q114 0 205.5 -50t132.5 -138v168zM616 186q124 0 206.5 89.5t82.5 229.5t-83 229.5t-206 89.5q-124 0 -206.5 -87.5t-82.5 -231.5t82.5 -231.5t206.5 -87.5z" />
    <glyph glyph-name="uni1EB3.ss02" horiz-adv-x="1294" 
d="M632 1881q-49 0 -86 -36l-62 88q65 54 158 54q89 0 141 -47.5t52 -125.5q0 -117 -128 -157v-81h-114v130q114 22 114 101q0 33 -19.5 53.5t-55.5 20.5zM646 1151q-160 0 -257.5 89t-97.5 250h157q0 -98 53 -158.5t145 -60.5q93 0 146.5 60.5t53.5 158.5h158
q0 -161 -98 -250t-260 -89zM898 1013h237v-1013h-237l-7 152q-44 -82 -132.5 -128.5t-198.5 -46.5q-99 0 -187 37t-153.5 104t-104 167t-38.5 220t38.5 220t104.5 167t153.5 104t186.5 37q114 0 205.5 -50t132.5 -138v168zM616 186q124 0 206.5 89.5t82.5 229.5t-83 229.5
t-206 89.5q-124 0 -206.5 -87.5t-82.5 -231.5t82.5 -231.5t206.5 -87.5z" />
    <glyph glyph-name="uni1EB5.ss02" horiz-adv-x="1294" 
d="M542 1776q-36 0 -56 -36t-20 -94h-123q0 111 52.5 181t141.5 70q110 0 172 -101q25 -42 67 -42q36 0 54.5 34.5t18.5 94.5h125q0 -109 -52 -179.5t-143 -70.5q-109 0 -172 100q-28 43 -65 43zM646 1151q-160 0 -257.5 89t-97.5 250h157q0 -98 53 -158.5t145 -60.5
q93 0 146.5 60.5t53.5 158.5h158q0 -161 -98 -250t-260 -89zM898 1013h237v-1013h-237l-7 152q-44 -82 -132.5 -128.5t-198.5 -46.5q-99 0 -187 37t-153.5 104t-104 167t-38.5 220t38.5 220t104.5 167t153.5 104t186.5 37q114 0 205.5 -50t132.5 -138v168zM616 186
q124 0 206.5 89.5t82.5 229.5t-83 229.5t-206 89.5q-124 0 -206.5 -87.5t-82.5 -231.5t82.5 -231.5t206.5 -87.5z" />
    <glyph glyph-name="uni01CE.ss02" horiz-adv-x="1294" 
d="M726 1192h-158l-222 298h157l143 -183l144 183h158zM898 1013h237v-1013h-237l-7 152q-44 -82 -132.5 -128.5t-198.5 -46.5q-99 0 -187 37t-153.5 104t-104 167t-38.5 220t38.5 220t104.5 167t153.5 104t186.5 37q114 0 205.5 -50t132.5 -138v168zM616 186
q124 0 206.5 89.5t82.5 229.5t-83 229.5t-206 89.5q-124 0 -206.5 -87.5t-82.5 -231.5t82.5 -231.5t206.5 -87.5z" />
    <glyph glyph-name="acircumflex.ss02" horiz-adv-x="1294" 
d="M647 1374l-144 -182h-157l222 298h158l222 -298h-158zM898 1013h237v-1013h-237l-7 152q-44 -82 -132.5 -128.5t-198.5 -46.5q-99 0 -187 37t-153.5 104t-104 167t-38.5 220t38.5 220t104.5 167t153.5 104t186.5 37q114 0 205.5 -50t132.5 -138v168zM616 186
q124 0 206.5 89.5t82.5 229.5t-83 229.5t-206 89.5q-124 0 -206.5 -87.5t-82.5 -231.5t82.5 -231.5t206.5 -87.5z" />
    <glyph glyph-name="uni1EA5.ss02" horiz-adv-x="1294" 
d="M949 1905l-225 -264h-159l259 354zM647 1374l-144 -182h-157l222 298h158l222 -298h-158zM898 1013h237v-1013h-237l-7 152q-44 -82 -132.5 -128.5t-198.5 -46.5q-99 0 -187 37t-153.5 104t-104 167t-38.5 220t38.5 220t104.5 167t153.5 104t186.5 37q114 0 205.5 -50
t132.5 -138v168zM616 186q124 0 206.5 89.5t82.5 229.5t-83 229.5t-206 89.5q-124 0 -206.5 -87.5t-82.5 -231.5t82.5 -231.5t206.5 -87.5z" />
    <glyph glyph-name="uni1EAD.ss02" horiz-adv-x="1294" 
d="M647 1374l-144 -182h-157l222 298h158l222 -298h-158zM898 1013h237v-1013h-237l-7 152q-44 -82 -132.5 -128.5t-198.5 -46.5q-99 0 -187 37t-153.5 104t-104 167t-38.5 220t38.5 220t104.5 167t153.5 104t186.5 37q114 0 205.5 -50t132.5 -138v168zM616 186
q124 0 206.5 89.5t82.5 229.5t-83 229.5t-206 89.5q-124 0 -206.5 -87.5t-82.5 -231.5t82.5 -231.5t206.5 -87.5zM648 -214q60 0 104.5 -44t44.5 -104q0 -62 -44 -106t-105 -44q-62 0 -106 43.5t-44 106.5q0 61 44 104.5t106 43.5z" />
    <glyph glyph-name="uni1EA7.ss02" horiz-adv-x="1294" 
d="M727 1641h-158l-226 264l125 90zM568 1490h158l222 -298h-158l-143 182l-144 -182h-157zM898 1013h237v-1013h-237l-7 152q-44 -82 -132.5 -128.5t-198.5 -46.5q-99 0 -187 37t-153.5 104t-104 167t-38.5 220t38.5 220t104.5 167t153.5 104t186.5 37q114 0 205.5 -50
t132.5 -138v168zM616 186q124 0 206.5 89.5t82.5 229.5t-83 229.5t-206 89.5q-124 0 -206.5 -87.5t-82.5 -231.5t82.5 -231.5t206.5 -87.5z" />
    <glyph glyph-name="uni1EA9.ss02" horiz-adv-x="1294" 
d="M632 1881q-49 0 -86 -36l-62 88q65 54 158 54q89 0 141 -47.5t52 -125.5q0 -117 -128 -157v-81h-114v130q114 22 114 101q0 33 -19.5 53.5t-55.5 20.5zM647 1374l-144 -182h-157l222 298h158l222 -298h-158zM898 1013h237v-1013h-237l-7 152q-44 -82 -132.5 -128.5
t-198.5 -46.5q-99 0 -187 37t-153.5 104t-104 167t-38.5 220t38.5 220t104.5 167t153.5 104t186.5 37q114 0 205.5 -50t132.5 -138v168zM616 186q124 0 206.5 89.5t82.5 229.5t-83 229.5t-206 89.5q-124 0 -206.5 -87.5t-82.5 -231.5t82.5 -231.5t206.5 -87.5z" />
    <glyph glyph-name="uni1EAB.ss02" horiz-adv-x="1294" 
d="M542 1776q-36 0 -56 -36t-20 -94h-123q0 111 52.5 181t141.5 70q110 0 172 -101q25 -42 67 -42q36 0 54.5 34.5t18.5 94.5h125q0 -109 -52 -179.5t-143 -70.5q-109 0 -172 100q-28 43 -65 43zM568 1490h158l222 -298h-158l-143 182l-144 -182h-157zM898 1013h237v-1013
h-237l-7 152q-44 -82 -132.5 -128.5t-198.5 -46.5q-99 0 -187 37t-153.5 104t-104 167t-38.5 220t38.5 220t104.5 167t153.5 104t186.5 37q114 0 205.5 -50t132.5 -138v168zM616 186q124 0 206.5 89.5t82.5 229.5t-83 229.5t-206 89.5q-124 0 -206.5 -87.5t-82.5 -231.5
t82.5 -231.5t206.5 -87.5z" />
    <glyph glyph-name="adieresis.ss02" horiz-adv-x="1294" 
d="M441 1193q-62 0 -106 44t-44 105q0 62 44 105.5t106 43.5q61 0 105 -43.5t44 -105.5q0 -61 -44.5 -105t-104.5 -44zM853 1193q-62 0 -106 44t-44 105q0 62 44 105.5t106 43.5q61 0 105 -43.5t44 -105.5q0 -61 -44.5 -105t-104.5 -44zM898 1013h237v-1013h-237l-7 152
q-44 -82 -132.5 -128.5t-198.5 -46.5q-99 0 -187 37t-153.5 104t-104 167t-38.5 220t38.5 220t104.5 167t153.5 104t186.5 37q114 0 205.5 -50t132.5 -138v168zM616 186q124 0 206.5 89.5t82.5 229.5t-83 229.5t-206 89.5q-124 0 -206.5 -87.5t-82.5 -231.5t82.5 -231.5
t206.5 -87.5z" />
    <glyph glyph-name="uni1EA1.ss02" horiz-adv-x="1294" 
d="M898 1013h237v-1013h-237l-7 152q-44 -82 -132.5 -128.5t-198.5 -46.5q-99 0 -187 37t-153.5 104t-104 167t-38.5 220t38.5 220t104.5 167t153.5 104t186.5 37q114 0 205.5 -50t132.5 -138v168zM616 186q124 0 206.5 89.5t82.5 229.5t-83 229.5t-206 89.5
q-124 0 -206.5 -87.5t-82.5 -231.5t82.5 -231.5t206.5 -87.5zM648 -214q60 0 104.5 -44t44.5 -104q0 -62 -44 -106t-105 -44q-62 0 -106 43.5t-44 106.5q0 61 44 104.5t106 43.5z" />
    <glyph glyph-name="agrave.ss02" horiz-adv-x="1294" 
d="M727 1164h-158l-226 264l125 90zM898 1013h237v-1013h-237l-7 152q-44 -82 -132.5 -128.5t-198.5 -46.5q-99 0 -187 37t-153.5 104t-104 167t-38.5 220t38.5 220t104.5 167t153.5 104t186.5 37q114 0 205.5 -50t132.5 -138v168zM616 186q124 0 206.5 89.5t82.5 229.5
t-83 229.5t-206 89.5q-124 0 -206.5 -87.5t-82.5 -231.5t82.5 -231.5t206.5 -87.5z" />
    <glyph glyph-name="uni1EA3.ss02" horiz-adv-x="1294" 
d="M632 1404q-49 0 -86 -36l-62 88q65 54 158 54q89 0 141 -47.5t52 -125.5q0 -117 -128 -157v-81h-114v130q114 22 114 101q0 33 -19.5 53.5t-55.5 20.5zM898 1013h237v-1013h-237l-7 152q-44 -82 -132.5 -128.5t-198.5 -46.5q-99 0 -187 37t-153.5 104t-104 167t-38.5 220
t38.5 220t104.5 167t153.5 104t186.5 37q114 0 205.5 -50t132.5 -138v168zM616 186q124 0 206.5 89.5t82.5 229.5t-83 229.5t-206 89.5q-124 0 -206.5 -87.5t-82.5 -231.5t82.5 -231.5t206.5 -87.5z" />
    <glyph glyph-name="amacron.ss02" horiz-adv-x="1294" 
d="M976 1341v-150h-658v150h658zM898 1013h237v-1013h-237l-7 152q-44 -82 -132.5 -128.5t-198.5 -46.5q-99 0 -187 37t-153.5 104t-104 167t-38.5 220t38.5 220t104.5 167t153.5 104t186.5 37q114 0 205.5 -50t132.5 -138v168zM616 186q124 0 206.5 89.5t82.5 229.5
t-83 229.5t-206 89.5q-124 0 -206.5 -87.5t-82.5 -231.5t82.5 -231.5t206.5 -87.5z" />
    <glyph glyph-name="aogonek.ss02" horiz-adv-x="1294" 
d="M1135 0q-171 -158 -171 -223q0 -38 65 -38q63 0 106 37v-164q-61 -24 -132 -24q-86 0 -136.5 27t-50.5 77q0 105 209 308h-127l-7 152q-44 -82 -132.5 -128.5t-198.5 -46.5q-99 0 -187 37t-153.5 104t-104 167t-38.5 220t38.5 220t104.5 167t153.5 104t186.5 37
q114 0 205.5 -50t132.5 -138v168h237v-1013zM616 186q124 0 206.5 89.5t82.5 229.5t-83 229.5t-206 89.5q-124 0 -206.5 -87.5t-82.5 -231.5t82.5 -231.5t206.5 -87.5z" />
    <glyph glyph-name="aring.ss02" horiz-adv-x="1294" 
d="M647 1132q-96 0 -163.5 68t-67.5 163q0 94 67.5 161t163.5 67q94 0 160.5 -67t66.5 -161q0 -95 -66.5 -163t-160.5 -68zM647 1485q-50 0 -84.5 -36t-34.5 -86q0 -53 34 -87t85 -34t85.5 34t34.5 87q0 49 -35 85.5t-85 36.5zM898 1013h237v-1013h-237l-7 152
q-44 -82 -132.5 -128.5t-198.5 -46.5q-99 0 -187 37t-153.5 104t-104 167t-38.5 220t38.5 220t104.5 167t153.5 104t186.5 37q114 0 205.5 -50t132.5 -138v168zM616 186q124 0 206.5 89.5t82.5 229.5t-83 229.5t-206 89.5q-124 0 -206.5 -87.5t-82.5 -231.5t82.5 -231.5
t206.5 -87.5z" />
    <glyph glyph-name="atilde.ss02" horiz-adv-x="1294" 
d="M542 1299q-36 0 -56 -36t-20 -94h-123q0 111 52.5 181t141.5 70q110 0 172 -101q25 -42 67 -42q36 0 54.5 34.5t18.5 94.5h125q0 -109 -52 -179.5t-143 -70.5q-109 0 -172 100q-28 43 -65 43zM898 1013h237v-1013h-237l-7 152q-44 -82 -132.5 -128.5t-198.5 -46.5
q-99 0 -187 37t-153.5 104t-104 167t-38.5 220t38.5 220t104.5 167t153.5 104t186.5 37q114 0 205.5 -50t132.5 -138v168zM616 186q124 0 206.5 89.5t82.5 229.5t-83 229.5t-206 89.5q-124 0 -206.5 -87.5t-82.5 -231.5t82.5 -231.5t206.5 -87.5z" />
    <glyph glyph-name="f_t" horiz-adv-x="1385" 
d="M223 0v820h-197v193h197v143q0 97 23.5 166.5t62.5 110.5t102.5 64.5t128 31t155.5 7.5v-202h-6q-29 0 -44 -0.5t-42 -4t-42 -9.5t-34.5 -19.5t-29.5 -32t-17.5 -47.5t-7.5 -67v-141h241q85 0 127 38t42 119v173h213v-330h217v-193h-217v-490q0 -69 33 -103.5t92 -34.5
h88v-192h-169q-141 0 -218.5 79.5t-77.5 223.5v517h-371v-820h-249z" />
    <glyph glyph-name="t_t" horiz-adv-x="1427" 
d="M518 0q-141 0 -219 79.5t-78 223.5v517h-201v193h79q146 0 146 134v147h229v-281h288q146 0 146 134v147h228v-281h217v-193h-217v-490q0 -69 33.5 -103.5t92.5 -34.5h88v-192h-169q-141 0 -219 79.5t-78 223.5v517h-410v-490q0 -69 33 -103.5t92 -34.5h88v-192h-169z
" />
    <glyph glyph-name="zero.subs" horiz-adv-x="791" 
d="M395 -381q-150 0 -244 132t-94 341t94 341t244 132q151 0 246 -132t95 -341t-95 -341t-246 -132zM396 -231q81 0 133 89t52 234t-52 234t-133 89q-80 0 -132 -89.5t-52 -233.5t52 -233.5t132 -89.5z" />
    <glyph glyph-name="one.subs" horiz-adv-x="480" 
d="M212 553h142v-922h-152v775l-201 -156v148z" />
    <glyph glyph-name="two.subs" horiz-adv-x="719" 
d="M195 -248h471v-121h-629v144q147 108 241.5 188.5t141 138.5t62.5 96t16 79q0 87 -42 125.5t-104 36.5q-71 -4 -107 -50t-36 -116h-158q-1 129 87 211.5t223 82.5q125 0 204 -75t81 -197q2 -130 -103.5 -260t-347.5 -283z" />
    <glyph glyph-name="three.subs" horiz-adv-x="698" 
d="M504 138q66 -34 103.5 -93t37.5 -135q0 -122 -88 -206.5t-221 -84.5q-127 0 -215 77.5t-88 192.5h149q3 -65 48.5 -103t110.5 -38q70 0 112.5 42.5t42.5 114.5t-43.5 113t-118.5 41h-62v119h52q62 0 98 36t36 99q0 61 -34 94.5t-91 33.5q-55 0 -91 -33.5t-39 -99.5
l-145 1q0 114 77.5 185t195.5 71q114 0 188.5 -69t74.5 -177q0 -116 -90 -181z" />
    <glyph glyph-name="four.subs" horiz-adv-x="729" 
d="M680 -58v-116h-99v-195h-147v195h-427v128l377 599h197v-611h99zM137 -58h297v490z" />
    <glyph glyph-name="five.subs" horiz-adv-x="765" 
d="M378 228q170 0 250 -79.5t80 -217.5q0 -140 -91.5 -225t-231.5 -85q-135 0 -227.5 71t-101.5 206h154q8 -75 57 -112t114 -37q79 0 126.5 49t47.5 129q0 178 -203 178h-274l91 449h503v-128h-394l-39 -198h139z" />
    <glyph glyph-name="six.subs" horiz-adv-x="711" 
d="M686 -51q2 -96 -44.5 -171.5t-121.5 -115t-163 -41.5q-136 -2 -236 83.5t-103 227.5q-3 111 77 211l309 410h181l-248 -305q20 5 43 5q118 2 210.5 -88.5t95.5 -215.5zM357 -236q76 2 130 55t51 131q-3 80 -59.5 129t-131.5 46q-78 -2 -130 -54.5t-50 -133.5
q3 -80 58.5 -128t131.5 -45z" />
    <glyph glyph-name="seven.subs" horiz-adv-x="640" 
d="M20 553h627v-109l-444 -813h-176l437 780h-444v142z" />
    <glyph glyph-name="eight.subs" horiz-adv-x="731" 
d="M539 140q65 -37 102 -98.5t37 -137.5q0 -121 -89.5 -203t-223.5 -82q-133 0 -222.5 82.5t-89.5 202.5q0 76 37 137.5t101 98.5q-84 63 -84 187q0 101 73.5 169.5t185.5 68.5q110 0 183.5 -68.5t73.5 -169.5q0 -125 -84 -187zM366 441q-55 0 -91.5 -36.5t-36.5 -91.5
q0 -53 37 -90t91 -37t90 36.5t36 90.5q0 55 -36 91.5t-90 36.5zM365 -247q68 0 114.5 48.5t46.5 118.5q0 69 -46.5 115.5t-114.5 46.5q-69 0 -115 -46.5t-46 -115.5q0 -70 46 -118.5t115 -48.5z" />
    <glyph glyph-name="nine.subs" horiz-adv-x="712" 
d="M693 252q1 -107 -76 -211l-310 -410h-182l249 306q-26 -6 -44 -6q-117 -2 -210 89t-96 216q-2 95 44.5 170.5t122 115t163.5 41.5q136 3 236 -83t103 -228zM365 59q77 3 129 55.5t49 133.5q-2 80 -57 127.5t-131 44.5q-77 -2 -131.5 -55t-50.5 -131q3 -80 59.5 -128.5
t132.5 -46.5z" />
    <glyph glyph-name="zero.dnom" horiz-adv-x="791" 
d="M395 -12q-150 0 -244 132t-94 341t94 341t244 132q151 0 246 -132t95 -341t-95 -341t-246 -132zM396 138q81 0 133 89t52 234t-52 234t-133 89q-80 0 -132 -89.5t-52 -233.5t52 -233.5t132 -89.5z" />
    <glyph glyph-name="one.dnom" horiz-adv-x="480" 
d="M212 922h142v-922h-152v775l-201 -156v148z" />
    <glyph glyph-name="two.dnom" horiz-adv-x="719" 
d="M195 121h471v-121h-629v144q147 107 242 188t141 138.5t62 96t16 79.5q0 86 -42 125t-104 36q-71 -3 -107 -49t-36 -116h-158q-1 128 87 211t223 83q125 0 204 -75t81 -197q2 -131 -103.5 -261t-347.5 -282z" />
    <glyph glyph-name="three.dnom" horiz-adv-x="698" 
d="M504 507q66 -35 103.5 -93.5t37.5 -134.5q0 -122 -88 -206.5t-221 -84.5q-128 0 -215.5 77.5t-87.5 192.5h149q3 -65 48.5 -103.5t110.5 -38.5q70 0 112.5 43t42.5 115q0 71 -43.5 112t-118.5 41h-62v120h52q62 0 98 35.5t36 99.5q0 61 -34 94.5t-91 33.5q-55 0 -91 -34
t-39 -99l-145 1q0 113 77.5 184.5t195.5 71.5q114 0 188.5 -69.5t74.5 -176.5q0 -118 -90 -181z" />
    <glyph glyph-name="four.dnom" horiz-adv-x="729" 
d="M680 311v-116h-99v-195h-147v195h-427v128l377 599h197v-611h99zM137 311h297v490z" />
    <glyph glyph-name="five.dnom" horiz-adv-x="765" 
d="M378 597q170 0 250 -79.5t80 -217.5q0 -141 -91.5 -225.5t-231.5 -84.5q-135 0 -227.5 71t-101.5 205h154q8 -75 57 -112t114 -37q79 0 126.5 49.5t47.5 128.5q0 178 -203 178h-274l91 450h503v-129h-394l-39 -197h139z" />
    <glyph glyph-name="six.dnom" horiz-adv-x="711" 
d="M686 317q3 -143 -95 -234t-234 -93q-136 -3 -236 83t-103 228q-3 109 77 211l309 410h181l-249 -306q19 6 44 6q118 2 210.5 -89t95.5 -216zM357 133q76 2 130 55t51 131q-3 79 -59.5 128t-131.5 47q-78 -3 -130 -55.5t-50 -133.5q3 -80 58.5 -127.5t131.5 -44.5z" />
    <glyph glyph-name="seven.dnom" horiz-adv-x="640" 
d="M20 922h627v-109l-444 -813h-176l437 780h-444v142z" />
    <glyph glyph-name="eight.dnom" horiz-adv-x="731" 
d="M539 509q65 -37 102 -98.5t37 -137.5q0 -121 -89.5 -203t-223.5 -82q-133 0 -222.5 82.5t-89.5 202.5q0 76 37 137t101 99q-84 62 -84 187q0 101 73.5 169.5t185.5 68.5q110 0 183.5 -68.5t73.5 -169.5q0 -125 -84 -187zM366 810q-55 0 -91.5 -37t-36.5 -91t37 -90.5
t91 -36.5t90 36.5t36 90.5t-36 91t-90 37zM365 121q68 0 114.5 49t46.5 119q0 69 -46.5 115.5t-114.5 46.5q-69 0 -115 -46.5t-46 -115.5q0 -70 46 -119t115 -49z" />
    <glyph glyph-name="nine.dnom" horiz-adv-x="712" 
d="M693 621q1 -109 -76 -211l-310 -410h-182l247 305q-20 -5 -42 -5q-117 -2 -210 89t-96 215q-2 72 25 134t73.5 103.5t106.5 65t125 25.5q136 2 236 -83.5t103 -227.5zM365 428q77 2 129 54.5t49 133.5q-2 80 -57 128t-131 45q-77 -2 -131.5 -55t-50.5 -131
q3 -81 59.5 -129.5t132.5 -45.5z" />
    <glyph glyph-name="zero.numr" horiz-adv-x="791" 
d="M395 507q-150 0 -244 132t-94 341t94 341t244 132q151 0 246 -132t95 -341t-95 -341t-246 -132zM396 657q81 0 133 89t52 234q0 144 -52 233t-133 89q-80 0 -132 -88.5t-52 -233.5t52 -234t132 -89z" />
    <glyph glyph-name="one.numr" horiz-adv-x="481" 
d="M214 1433h141v-922h-153l2 776l-202 -156l-1 147z" />
    <glyph glyph-name="two.numr" horiz-adv-x="719" 
d="M195 638h471v-121h-629v144q147 107 242 188t141 138.5t62 96t16 79.5q0 87 -42 125.5t-104 36.5q-71 -4 -107 -50t-36 -116h-158q-1 128 87 211t223 83q125 0 204 -75t81 -197q2 -130 -103.5 -260t-347.5 -283z" />
    <glyph glyph-name="three.numr" horiz-adv-x="698" 
d="M501 1026q69 -34 106.5 -92.5t37.5 -135.5q0 -122 -88 -206.5t-220 -84.5q-129 0 -216.5 77.5t-87.5 192.5h157q0 -65 42.5 -103.5t105.5 -38.5q68 0 110 43.5t42 116.5q0 71 -45 111t-124 40h-49v120h40q67 0 103.5 36t36.5 100q0 59 -33.5 93t-86.5 34
q-55 0 -87.5 -33.5t-32.5 -99.5l-154 1q0 114 77.5 185t196.5 71q114 0 188 -69.5t74 -177.5q0 -118 -93 -180z" />
    <glyph glyph-name="four.numr" horiz-adv-x="729" 
d="M680 822v-116h-99v-195h-147v195h-427v128l377 599h197v-611h99zM137 822h297v490z" />
    <glyph glyph-name="five.numr" horiz-adv-x="765" 
d="M378 1107q170 0 250 -79.5t80 -217.5q0 -141 -91.5 -225.5t-231.5 -84.5q-135 0 -227.5 71t-101.5 205h154q8 -75 57 -112t114 -37q79 0 126.5 49.5t47.5 128.5q0 178 -203 178h-274l91 450h503v-129h-394l-39 -197h139z" />
    <glyph glyph-name="six.numr" horiz-adv-x="711" 
d="M686 828q3 -143 -95 -234t-234 -93q-136 -3 -236 83t-103 228q-3 109 77 211l309 410h181l-248 -305q20 5 43 5q118 2 210.5 -88.5t95.5 -216.5zM357 644q76 2 130 55t51 131q-3 79 -59.5 128t-131.5 47q-78 -3 -130 -55t-50 -133q3 -80 58.5 -128t131.5 -45z" />
    <glyph glyph-name="seven.numr" horiz-adv-x="640" 
d="M20 1433h627v-109l-444 -813h-176l437 780h-444v142z" />
    <glyph glyph-name="eight.numr" horiz-adv-x="731" 
d="M539 1028q65 -37 102 -98.5t37 -137.5q0 -121 -89.5 -203t-223.5 -82q-133 0 -222.5 82.5t-89.5 202.5q0 76 37 137.5t101 98.5q-84 63 -84 187q0 101 73.5 169.5t185.5 68.5q110 0 183.5 -68.5t73.5 -169.5q0 -125 -84 -187zM366 1329q-55 0 -91.5 -36.5t-36.5 -91.5
q0 -53 37 -90t91 -37t90 36.5t36 90.5q0 55 -36 91.5t-90 36.5zM365 641q68 0 114.5 48.5t46.5 118.5q0 69 -46.5 115.5t-114.5 46.5q-69 0 -115 -46.5t-46 -115.5q0 -70 46 -118.5t115 -48.5z" />
    <glyph glyph-name="nine.numr" horiz-adv-x="711" 
d="M360 1453q136 0 234.5 -87t98.5 -230q0 -104 -76 -205l-310 -410h-182l249 306q-19 -6 -47 -6q-118 0 -210.5 93t-92.5 219q0 95 48 169t124.5 112.5t163.5 38.5zM359 949q76 0 130 51t54 131q0 81 -53 130t-129 49q-77 0 -132.5 -50.5t-55.5 -127.5q0 -81 55 -132
t131 -51z" />
    <glyph glyph-name="zero.sups" horiz-adv-x="791" 
d="M395 974q-150 0 -244 132t-94 341t94 341t244 132q151 0 246 -132t95 -341t-95 -341t-246 -132zM396 1125q81 0 133 89t52 233t-52 233t-133 89q-80 0 -132 -88.5t-52 -233.5t52 -233.5t132 -88.5z" />
    <glyph glyph-name="one.sups" horiz-adv-x="481" 
d="M214 1905h141v-922h-153l2 776l-202 -156l-1 147z" />
    <glyph glyph-name="two.sups" horiz-adv-x="719" 
d="M195 1104h471v-121h-629v144q147 107 242 188t141 138.5t62 96t16 79.5q0 86 -42 125t-104 37q-71 -4 -107 -50t-36 -116h-158q-1 128 87 211t223 83q125 0 204 -75t81 -197q2 -131 -103.5 -261t-347.5 -282z" />
    <glyph glyph-name="three.sups" horiz-adv-x="698" 
d="M501 1490q68 -34 106 -93t38 -135q0 -122 -88 -206.5t-220 -84.5q-129 0 -216.5 77t-87.5 193h157q0 -66 42 -104t106 -38q68 0 110 43t42 116q0 71 -45 111.5t-124 40.5h-49v120h40q67 0 103.5 35.5t36.5 100.5q0 58 -33.5 92.5t-86.5 34.5q-55 0 -87.5 -33.5
t-32.5 -99.5l-154 1q0 114 77.5 185t196.5 71q114 0 188 -69.5t74 -177.5q0 -118 -93 -180z" />
    <glyph glyph-name="four.sups" horiz-adv-x="729" 
d="M680 1294v-116h-99v-195h-147v195h-427v128l377 599h197v-611h99zM137 1294h297v490z" />
    <glyph glyph-name="five.sups" horiz-adv-x="765" 
d="M378 1580q170 0 250 -79.5t80 -217.5q0 -141 -91.5 -225.5t-231.5 -84.5q-135 0 -227.5 71t-101.5 205h154q8 -75 57 -112t114 -37q79 0 126.5 49.5t47.5 128.5q0 178 -203 178h-274l91 450h503v-129h-394l-39 -197h139z" />
    <glyph glyph-name="six.sups" horiz-adv-x="711" 
d="M686 1300q3 -143 -95 -234t-234 -93q-136 -3 -236 83t-103 228q-3 109 77 211l309 410h181l-248 -306q18 6 43 6q118 2 210.5 -89t95.5 -216zM357 1116q76 2 130 55t51 131q-3 79 -59.5 128t-131.5 47q-78 -3 -130 -55.5t-50 -133.5q3 -80 58.5 -127.5t131.5 -44.5z" />
    <glyph glyph-name="seven.sups" horiz-adv-x="640" 
d="M20 1905h627v-109l-444 -813h-176l437 780h-444v142z" />
    <glyph glyph-name="eight.sups" horiz-adv-x="731" 
d="M539 1492q65 -37 102 -98.5t37 -137.5q0 -121 -89.5 -203t-223.5 -82q-133 0 -222.5 82.5t-89.5 202.5q0 76 37 137t101 99q-84 62 -84 187q0 101 73.5 169.5t185.5 68.5q110 0 183.5 -68.5t73.5 -169.5q0 -125 -84 -187zM366 1793q-55 0 -91.5 -37t-36.5 -91
q0 -53 37 -90t91 -37t90 36.5t36 90.5t-36 91t-90 37zM365 1104q68 0 114.5 49t46.5 119q0 69 -46.5 115.5t-114.5 46.5q-69 0 -115 -46.5t-46 -115.5q0 -70 46 -119t115 -49z" />
    <glyph glyph-name="nine.sups" horiz-adv-x="712" 
d="M693 1604q1 -109 -76 -211l-310 -410h-182l249 306q-19 -6 -44 -6q-117 -2 -210 89t-96 215q-2 72 25 134t73.5 103.5t106.5 65t125 25.5q136 2 236 -83.5t103 -227.5zM365 1411q77 2 129 54.5t49 133.5q-2 80 -57 128t-131 45q-77 -2 -131.5 -55t-50.5 -131
q3 -81 59.5 -129.5t132.5 -45.5z" />
    <glyph glyph-name="uni0308.case" 
d="M-679 1536q-62 0 -106 44t-44 106q0 61 44 104.5t106 43.5q60 0 104.5 -43.5t44.5 -104.5q0 -62 -44.5 -106t-104.5 -44zM-267 1536q-62 0 -106 44t-44 106q0 61 44 104.5t106 43.5q60 0 104.5 -43.5t44.5 -104.5q0 -62 -44.5 -106t-104.5 -44z" />
    <glyph glyph-name="uni0307.case" 
d="M-267 1536q-62 0 -106 44t-44 106q0 61 44 104.5t106 43.5q60 0 104.5 -43.5t44.5 -104.5q0 -62 -44.5 -106t-104.5 -44z" />
    <glyph glyph-name="gravecomb.case" 
d="M-199 1571l-226 265l125 89l259 -354h-158z" />
    <glyph glyph-name="acutecomb.case" 
d="M-444 1571l259 354l125 -89l-225 -265h-159z" />
    <glyph glyph-name="uni030B.case" 
d="M-816 1571l259 354l125 -89l-225 -265h-159zM-444 1571l259 354l125 -89l-226 -265h-158z" />
    <glyph glyph-name="uni0302.case" 
d="M-497 1571h-157l222 298h158l222 -298h-158l-143 182z" />
    <glyph glyph-name="uni030C.case" 
d="M-435 1571l-222 298h157l143 -183l144 183h158l-222 -298h-158z" />
    <glyph glyph-name="uni0306.case" 
d="M-458 1571q-166 0 -260.5 69t-94.5 218h146q0 -85 55.5 -126t153.5 -41q99 0 155.5 41t56.5 126h146q0 -149 -95.5 -218t-262.5 -69z" />
    <glyph glyph-name="uni030A.case" 
d="M-331 1571q-96 0 -163.5 68t-67.5 162q0 95 67.5 161.5t163.5 66.5q94 0 160.5 -67t66.5 -161t-67 -162t-160 -68zM-331 1681q51 0 85.5 33.5t34.5 86.5q0 50 -35 86.5t-85 36.5t-84.5 -36.5t-34.5 -86.5q0 -53 34 -86.5t85 -33.5z" />
    <glyph glyph-name="tildecomb.case" 
d="M-334 1576q-63 0 -100.5 23t-69.5 62q-20 27 -28.5 37t-28 22t-41.5 12q-45 0 -68.5 -39t-23.5 -103h-132q0 115 59 187t161 72q103 0 167 -80q4 -5 17.5 -21t20 -22t18 -16t23.5 -13.5t26 -3.5q43 0 65 37.5t22 103.5h135q0 -113 -58.5 -185.5t-163.5 -72.5z" />
    <glyph glyph-name="uni0304.case" 
d="M-813 1571v150h658v-150h-658z" />
    <glyph glyph-name="hookabovecomb.case" 
d="M-345 1536v130q114 22 114 101q0 32 -20 53t-55 21q-47 0 -86 -36l-62 87q65 55 158 55q89 0 141 -47.5t52 -125.5q0 -117 -128 -157v-81h-114z" />
    <glyph glyph-name="uni0312.case" 
d="M-275 1892h179l-125 -321h-257z" />
    <glyph glyph-name="uni0338.case" 
d="M-1202 -11l1107 1589l108 -65l-1106 -1588z" />
    <glyph glyph-name="uni03060301" 
d="M-532 1687l259 354l125 -90l-225 -264h-159zM-451 1197q-160 0 -257.5 89t-97.5 250h157q0 -98 53 -158.5t145 -60.5q93 0 146.5 60.5t53.5 158.5h158q0 -161 -98 -250t-260 -89z" />
    <glyph glyph-name="uni03060300" 
d="M-528 1687l-226 264l125 90l259 -354h-158zM-451 1197q-160 0 -257.5 89t-97.5 250h157q0 -98 53 -158.5t145 -60.5q93 0 146.5 60.5t53.5 158.5h158q0 -161 -98 -250t-260 -89z" />
    <glyph glyph-name="uni03060309" 
d="M-504 1622v130q114 22 114 101q0 33 -19.5 53.5t-55.5 20.5q-49 0 -86 -36l-62 88q65 54 158 54q89 0 141 -47.5t52 -125.5q0 -117 -128 -157v-81h-114zM-451 1197q-160 0 -257.5 89t-97.5 250h157q0 -98 53 -158.5t145 -60.5q93 0 146.5 60.5t53.5 158.5h158
q0 -161 -98 -250t-260 -89z" />
    <glyph glyph-name="uni03060303" 
d="M-318 1679q-109 0 -172 100q-28 43 -65 43q-36 0 -56 -36t-20 -94h-123q0 111 52.5 181t141.5 70q110 0 172 -101q25 -42 67 -42q36 0 54.5 34.5t18.5 94.5h125q0 -109 -52 -179.5t-143 -70.5zM-451 1197q-160 0 -257.5 89t-97.5 250h157q0 -98 53 -158.5t145 -60.5
q93 0 146.5 60.5t53.5 158.5h158q0 -161 -98 -250t-260 -89z" />
    <glyph glyph-name="uni03020301" 
d="M-435 1687l259 354l125 -90l-225 -264h-159zM-497 1238h-157l222 298h158l222 -298h-158l-143 182z" />
    <glyph glyph-name="uni03020300" 
d="M-431 1687l-226 264l125 90l259 -354h-158zM-497 1238h-157l222 298h158l222 -298h-158l-143 182z" />
    <glyph glyph-name="uni03020309" 
d="M-407 1622v130q114 22 114 101q0 33 -19.5 53.5t-55.5 20.5q-49 0 -86 -36l-62 88q65 54 158 54q89 0 141 -47.5t52 -125.5q0 -117 -128 -157v-81h-114zM-497 1238h-157l222 298h158l222 -298h-158l-143 182z" />
    <glyph glyph-name="uni03020303" 
d="M-221 1679q-109 0 -172 100q-28 43 -65 43q-36 0 -56 -36t-20 -94h-123q0 111 52.5 181t141.5 70q110 0 172 -101q25 -42 67 -42q36 0 54.5 34.5t18.5 94.5h125q0 -109 -52 -179.5t-143 -70.5zM-497 1238h-157l222 298h158l222 -298h-158l-143 182z" />
    <glyph glyph-name="uni03060301.case" 
d="M-538 1929l259 354l125 -89l-225 -265h-159zM-458 1571q-166 0 -260.5 69t-94.5 218h146q0 -85 55.5 -126t153.5 -41q99 0 155.5 41t56.5 126h146q0 -149 -95.5 -218t-262.5 -69z" />
    <glyph glyph-name="uni03060300.case" 
d="M-534 1929l-226 265l125 89l259 -354h-158zM-458 1571q-166 0 -260.5 69t-94.5 218h146q0 -85 55.5 -126t153.5 -41q99 0 155.5 41t56.5 126h146q0 -149 -95.5 -218t-262.5 -69z" />
    <glyph glyph-name="uni03060309.case" 
d="M-510 1894v130q114 22 114 101q0 32 -20 53t-55 21q-47 0 -86 -36l-62 87q65 55 158 55q89 0 141 -47.5t52 -125.5q0 -117 -128 -157v-81h-114zM-458 1571q-166 0 -260.5 69t-94.5 218h146q0 -85 55.5 -126t153.5 -41q99 0 155.5 41t56.5 126h146q0 -149 -95.5 -218
t-262.5 -69z" />
    <glyph glyph-name="uni03060303.case" 
d="M-309 1934q-63 0 -100.5 23t-69.5 62q-20 27 -28.5 37t-28 22t-41.5 12q-45 0 -68.5 -39t-23.5 -103h-132q0 115 59 187t161 72q103 0 167 -80q4 -5 17.5 -21t20 -22t18 -16t23.5 -13.5t26 -3.5q43 0 65 37.5t22 103.5h135q0 -113 -58.5 -185.5t-163.5 -72.5zM-458 1571
q-166 0 -260.5 69t-94.5 218h146q0 -85 55.5 -126t153.5 -41q99 0 155.5 41t56.5 126h146q0 -149 -95.5 -218t-262.5 -69z" />
    <glyph glyph-name="uni03020301.case" 
d="M-435 1962l259 354l125 -89l-225 -265h-159zM-497 1571h-157l222 298h158l222 -298h-158l-143 182z" />
    <glyph glyph-name="uni03020300.case" 
d="M-431 1962l-226 265l125 89l259 -354h-158zM-497 1571h-157l222 298h158l222 -298h-158l-143 182z" />
    <glyph glyph-name="uni03020309.case" 
d="M-407 1927v130q114 22 114 101q0 32 -20 53t-55 21q-47 0 -86 -36l-62 87q65 55 158 55q89 0 141 -47.5t52 -125.5q0 -117 -128 -157v-81h-114zM-497 1571h-157l222 298h158l222 -298h-158l-143 182z" />
    <glyph glyph-name="uni03020303.case" 
d="M-206 1967q-63 0 -100.5 23t-69.5 62q-20 27 -28.5 37t-28 22t-41.5 12q-45 0 -68.5 -39t-23.5 -103h-132q0 115 59 187t161 72q103 0 167 -80q4 -5 17.5 -21t20 -22t18 -16t23.5 -13.5t26 -3.5q43 0 65 37.5t22 103.5h135q0 -113 -58.5 -185.5t-163.5 -72.5zM-497 1571
h-157l222 298h158l222 -298h-158l-143 182z" />
    </font>
</defs>
</svg>
