<?xml version="1.0" standalone="no"?>
<!--
 Remix Icon v2.3.0
 https://remixicon.com
 https://github.com/Remix-Design/RemixIcon

 Copyright RemixIcon.com
 Released under the Apache License Version 2.0

 Date: 2020-02-04
-->
<!DOCTYPE svg PUBLIC "-//W3C//DTD SVG 1.1//EN" "http://www.w3.org/Graphics/SVG/1.1/DTD/svg11.dtd" >
<svg xmlns="http://www.w3.org/2000/svg">
<defs>
  <font id="remixicon" horiz-adv-x="1200">
    <font-face font-family="remixicon"
      units-per-em="1200" ascent="1200"
      descent="0" />
    <missing-glyph horiz-adv-x="0" />
    <glyph glyph-name="4k-fill"
      unicode="&#xEA01;"
      horiz-adv-x="1200" d="M150 1050H1050A50 50 0 0 0 1100 1000V200A50 50 0 0 0 1050 150H150A50 50 0 0 0 100 200V1000A50 50 0 0 0 150 1050zM575 525V600H525V750H450V600H375V750H300V525H450V450H525V525H575zM900 450L787.5 600L900 750H812.5L725 637.5V750H650V450H725V562.5L812.5 450H900z" />
    <glyph glyph-name="4k-line"
      unicode="&#xEA02;"
      horiz-adv-x="1200" d="M200 950V250H1000V950H200zM150 1050H1050A50 50 0 0 0 1100 1000V200A50 50 0 0 0 1050 150H150A50 50 0 0 0 100 200V1000A50 50 0 0 0 150 1050zM575 525H525V450H450V525H300V750H375V600H450V750H525V600H575V525zM900 450H812.5L725 562.5V450H650V750H725V637.5L812.5 750H900L787.5 600L900 450z" />
    <glyph glyph-name="a-b"
      unicode="&#xEA03;"
      horiz-adv-x="1200" d="M250 450V350C250 297.3000000000001 297.5 250 350 250H500V150H350A200 200 0 0 0 150 350V450H250zM900 700L1120 150H1012.2499999999998L952.1999999999998 300H747.6999999999998L687.7499999999999 150H580.0499999999998L800 700H900zM850 555.75L787.65 400H912.25L850 555.75zM150 1050H450A150 150 0 0 0 561.75 800A150 150 0 0 0 450 550H150V1050zM450 750H250V650H450A50 50 0 0 1 450 750zM850 1050A200 200 0 0 0 1050 850V750H950V850A100 100 0 0 1 850 950H700V1050H850zM450 950H250V850H450A50 50 0 1 1 450 950z" />
    <glyph glyph-name="account-box-fill"
      unicode="&#xEA04;"
      horiz-adv-x="1200" d="M150 950.25C150 1005.35 194.65 1050 249.75 1050H950.25C1005.35 1050 1050 1005.35 1050 950.25V249.75A99.75 99.75 0 0 0 950.25 150H249.75A99.75 99.75 0 0 0 150 249.75V950.25zM317.85 300H892.35A349.6 349.6 0 0 1 605.1 450A349.6 349.6 0 0 1 317.85 300zM600 550A175 175 0 1 1 600 900A175 175 0 0 1 600 550z" />
    <glyph glyph-name="account-box-line"
      unicode="&#xEA05;"
      horiz-adv-x="1200" d="M150 950.25C150 1005.35 194.65 1050 249.75 1050H950.25C1005.35 1050 1050 1005.35 1050 950.25V249.75A99.75 99.75 0 0 0 950.25 150H249.75A99.75 99.75 0 0 0 150 249.75V950.25zM250 950V250H950V950H250zM398.6 291A499.15 499.15 0 0 0 311.05 339.9000000000001A349.70000000000005 349.70000000000005 0 0 0 605.1 500C725.1 500 830.95 439.65 894 347.65A499.74999999999994 499.74999999999994 0 0 0 807.8 296.4000000000001A249.65000000000003 249.65000000000003 0 0 1 605.1 400C519.35 400 443.6 356.8 398.6 291zM600 550A175 175 0 1 0 600 900A175 175 0 0 0 600 550zM600 650A75 75 0 1 1 600 800A75 75 0 0 1 600 650z" />
    <glyph glyph-name="account-circle-fill"
      unicode="&#xEA06;"
      horiz-adv-x="1200" d="M600 1100C876 1100 1100 876 1100 600S876 100 600 100S100 324 100 600S324 1100 600 1100zM301.15 429.2C374.55 319.7 484.75 250 608 250C731.2 250 841.45 319.6500000000001 914.8 429.2A448.3999999999999 448.3999999999999 0 0 1 608 550A448.3999999999999 448.3999999999999 0 0 1 301.1500000000001 429.2zM600 650A150 150 0 1 1 600 950A150 150 0 0 1 600 650z" />
    <glyph glyph-name="account-circle-line"
      unicode="&#xEA07;"
      horiz-adv-x="1200" d="M600 100C323.85 100 100 323.85 100 600S323.85 1100 600 1100S1100 876.15 1100 600S876.15 100 600 100zM350.65 287.2000000000001A398.29999999999995 398.29999999999995 0 0 1 600 200C698.5 200 788.65 235.6 858.3500000000001 294.6A348.95 348.95 0 0 1 608 400A349.04999999999995 349.04999999999995 0 0 1 350.65 287.2000000000001zM280.8 359A448.75 448.75 0 0 0 608 500A448.6 448.6 0 0 0 926.1 368.3A400 400 0 1 1 280.7999999999999 358.95zM600 550A200 200 0 1 0 600 950A200 200 0 0 0 600 550zM600 650A100 100 0 1 1 600 850A100 100 0 0 1 600 650z" />
    <glyph glyph-name="account-pin-box-fill"
      unicode="&#xEA08;"
      horiz-adv-x="1200" d="M700 150L600 50L500 150H249.75A99.75 99.75 0 0 0 150 249.75V950.25C150 1005.35 194.65 1050 249.75 1050H950.25C1005.35 1050 1050 1005.35 1050 950.25V249.75A99.75 99.75 0 0 0 950.25 150H700zM317.85 300H892.35A349.6 349.6 0 0 1 605.1 450A349.6 349.6 0 0 1 317.85 300zM600 550A175 175 0 1 1 600 900A175 175 0 0 1 600 550z" />
    <glyph glyph-name="account-pin-box-line"
      unicode="&#xEA09;"
      horiz-adv-x="1200" d="M700 150L600 50L500 150H249.75A99.75 99.75 0 0 0 150 249.75V950.25C150 1005.35 194.65 1050 249.75 1050H950.25C1005.35 1050 1050 1005.35 1050 950.25V249.75A99.75 99.75 0 0 0 950.25 150H700zM950 250V950H250V250H541.4L600 191.4L658.6 250H950zM398.6 291A499.15 499.15 0 0 0 311.05 339.9000000000001A349.70000000000005 349.70000000000005 0 0 0 605.1 500C725.1 500 830.95 439.65 894 347.65A499.74999999999994 499.74999999999994 0 0 0 807.8 296.4000000000001A249.65000000000003 249.65000000000003 0 0 1 605.1 400C519.35 400 443.6 356.8 398.6 291zM600 550A175 175 0 1 0 600 900A175 175 0 0 0 600 550zM600 650A75 75 0 1 1 600 800A75 75 0 0 1 600 650z" />
    <glyph glyph-name="account-pin-circle-fill"
      unicode="&#xEA0A;"
      horiz-adv-x="1200" d="M712.8 112.8L600 0L487.2 112.8C265.5 164 100 362.8 100 600C100 876 324 1100 600 1100S1100 876 1100 600C1100 362.8 934.5000000000002 164 712.8 112.8zM301.15 429.2C374.55 319.7 484.75 250 608 250C731.2 250 841.45 319.6500000000001 914.8 429.2A448.3999999999999 448.3999999999999 0 0 1 608 550A448.3999999999999 448.3999999999999 0 0 1 301.1500000000001 429.2zM600 650A150 150 0 1 1 600 950A150 150 0 0 1 600 650z" />
    <glyph glyph-name="account-pin-circle-line"
      unicode="&#xEA0B;"
      horiz-adv-x="1200" d="M487.2499999999999 112.75C265.4 163.8999999999999 100 362.65 100 600C100 876.15 323.85 1100 600 1100S1100 876.15 1100 600C1100 362.65 934.6 163.8999999999999 712.75 112.7500000000002L600 0L487.2500000000001 112.75zM350.5999999999999 287.15A397.65000000000003 397.65000000000003 0 0 1 509.6999999999999 210.1999999999998L537.6999999999999 203.7499999999998L600 141.3999999999999L662.35 203.75L690.35 210.2499999999999A397.80000000000007 397.80000000000007 0 0 1 858.3500000000001 294.55A348.95 348.95 0 0 1 608 400C506.2 400 414.5 356.5 350.6 287.15zM280.8 359A448.75 448.75 0 0 0 608 500A448.6 448.6 0 0 0 926.1 368.3A400 400 0 1 1 280.7999999999999 358.95zM600 550A200 200 0 1 0 600 950A200 200 0 0 0 600 550zM600 650A100 100 0 1 1 600 850A100 100 0 0 1 600 650z" />
    <glyph glyph-name="add-box-fill"
      unicode="&#xEA0C;"
      horiz-adv-x="1200" d="M200 1050H1000A50 50 0 0 0 1050 1000V200A50 50 0 0 0 1000 150H200A50 50 0 0 0 150 200V1000A50 50 0 0 0 200 1050zM550 650H350V550H550V350H650V550H850V650H650V850H550V650z" />
    <glyph glyph-name="add-box-line"
      unicode="&#xEA0D;"
      horiz-adv-x="1200" d="M200 1050H1000A50 50 0 0 0 1050 1000V200A50 50 0 0 0 1000 150H200A50 50 0 0 0 150 200V1000A50 50 0 0 0 200 1050zM250 950V250H950V950H250zM550 650V850H650V650H850V550H650V350H550V550H350V650H550z" />
    <glyph glyph-name="add-circle-fill"
      unicode="&#xEA0E;"
      horiz-adv-x="1200" d="M600 100C323.85 100 100 323.85 100 600S323.85 1100 600 1100S1100 876.15 1100 600S876.15 100 600 100zM550 650H350V550H550V350H650V550H850V650H650V850H550V650z" />
    <glyph glyph-name="add-circle-line"
      unicode="&#xEA0F;"
      horiz-adv-x="1200" d="M550 650V850H650V650H850V550H650V350H550V550H350V650H550zM600 100C323.85 100 100 323.85 100 600S323.85 1100 600 1100S1100 876.15 1100 600S876.15 100 600 100zM600 200A400 400 0 1 1 600 1000A400 400 0 0 1 600 200z" />
    <glyph glyph-name="add-fill"
      unicode="&#xEA10;"
      horiz-adv-x="1200" d="M550 650V950H650V650H950V550H650V250H550V550H250V650z" />
    <glyph glyph-name="add-line"
      unicode="&#xEA11;"
      horiz-adv-x="1200" d="M550 650V950H650V650H950V550H650V250H550V550H250V650z" />
    <glyph glyph-name="admin-fill"
      unicode="&#xEA12;"
      horiz-adv-x="1200" d="M600 500V100H200A400 400 0 0 0 600 500zM600 550C434.25 550 300 684.25 300 850S434.25 1150 600 1150S900 1015.75 900 850S765.75 550 600 550zM1050 350H1100V100H700V350H750V400A150 150 0 0 0 1050 400V350zM950 350V400A50 50 0 0 1 850 400V350H950z" />
    <glyph glyph-name="admin-line"
      unicode="&#xEA13;"
      horiz-adv-x="1200" d="M600 500V400A300 300 0 0 1 300 100H200A400 400 0 0 0 600 500zM600 550C434.25 550 300 684.25 300 850S434.25 1150 600 1150S900 1015.75 900 850S765.75 550 600 550zM600 650C710.5 650 800 739.5 800 850S710.5 1050 600 1050S400 960.5 400 850S489.4999999999999 650 600 650zM1050 350H1100V100H700V350H750V400A150 150 0 0 0 1050 400V350zM950 350V400A50 50 0 0 1 850 400V350H950z" />
    <glyph glyph-name="advertisement-fill"
      unicode="&#xEA14;"
      horiz-adv-x="1200" d="M1050 1050A50 50 0 0 0 1100 1000V200A50 50 0 0 0 1050 150H150A50 50 0 0 0 100 200V1000A50 50 0 0 0 150 1050H1050zM469.9499999999999 800H369.95L209.95 400H317.6499999999999L337.65 450H502.15L522.15 400H629.9L469.9499999999999 800zM950 800H850V700H800A150 150 0 0 1 791.2 400.25L800 400H950V800zM850 600V500H800L794.15 500.35A50 50 0 0 0 794.15 599.65L800 600H850zM419.95 655.75L462.2 550H377.6L419.95 655.75z" />
    <glyph glyph-name="advertisement-line"
      unicode="&#xEA15;"
      horiz-adv-x="1200" d="M1050 1050A50 50 0 0 0 1100 1000V200A50 50 0 0 0 1050 150H150A50 50 0 0 0 100 200V1000A50 50 0 0 0 150 1050H1050zM1000 950H200V250H1000V950zM469.9499999999999 800L629.9 400H522.15L502.15 450H337.65L317.6499999999999 400H209.95L369.95 800H469.95zM950 800V400H800A150 150 0 0 0 800 700H849.9499999999999L850 800H950zM850 600H800A50 50 0 0 1 794.15 500.35L800 500H850V600zM419.95 655.75L377.6 550H462.2L419.95 655.75z" />
    <glyph glyph-name="airplay-fill"
      unicode="&#xEA16;"
      horiz-adv-x="1200" d="M620 523.35L869.9999999999999 190A25 25 0 0 0 850 150H350A25 25 0 0 0 330 190L580 523.35A25 25 0 0 0 620 523.35zM900 250V350H1000V950H200V350H300V250H149.6A49.7 49.7 0 0 0 100 300V1000C100 1027.6 122.75 1050 149.6 1050H1050.3999999999999C1077.8 1050 1100 1027.75 1100 1000V300C1100 272.4 1077.25 250 1050.3999999999999 250H900z" />
    <glyph glyph-name="airplay-line"
      unicode="&#xEA17;"
      horiz-adv-x="1200" d="M620 523.35L869.9999999999999 190A25 25 0 0 0 850 150H350A25 25 0 0 0 330 190L580 523.35A25 25 0 0 0 620 523.35zM600 383.5000000000001L500 250H700L600 383.5000000000001zM900 250V350H1000V950H200V350H300V250H149.6A49.7 49.7 0 0 0 100 300V1000C100 1027.6 122.75 1050 149.6 1050H1050.3999999999999C1077.8 1050 1100 1027.75 1100 1000V300C1100 272.4 1077.25 250 1050.3999999999999 250H900z" />
    <glyph glyph-name="alarm-fill"
      unicode="&#xEA18;"
      horiz-adv-x="1200" d="M600 100A450 450 0 1 0 600 1000A450 450 0 0 0 600 100zM650 550V800H550V450H800V550H650zM87.35 885.9L264.1 1062.65L334.85 991.95L158 815.15L87.35 885.9zM935.85 1062.65L1112.65 885.9L1041.9499999999998 815.15L865.1499999999999 991.95L935.8999999999997 1062.65z" />
    <glyph glyph-name="alarm-line"
      unicode="&#xEA19;"
      horiz-adv-x="1200" d="M600 100A450 450 0 1 0 600 1000A450 450 0 0 0 600 100zM600 200A350 350 0 1 1 600 900A350 350 0 0 1 600 200zM650 550H800V450H550V800H650V550zM87.35 885.9L264.1 1062.65L334.85 991.95L158 815.15L87.35 885.9zM935.85 1062.65L1112.65 885.9L1041.9499999999998 815.15L865.1499999999999 991.95L935.8999999999997 1062.65z" />
    <glyph glyph-name="alarm-warning-fill"
      unicode="&#xEA1A;"
      horiz-adv-x="1200" d="M200 200V500A400 400 0 1 0 1000 500V200H1050V100H150V200H200zM300 500H400A200 200 0 0 0 600 700V800A300 300 0 0 1 300 500zM550 1100H650V950H550V1100zM988.9 959.6L1059.6 888.9000000000001L953.6 782.85L882.85 853.55L988.9 959.6zM140.4 888.9L211.1 959.6L317.15 853.5999999999999L246.5 782.8L140.4 888.9z" />
    <glyph glyph-name="alarm-warning-line"
      unicode="&#xEA1B;"
      horiz-adv-x="1200" d="M200 200V500A400 400 0 1 0 1000 500V200H1050V100H150V200H200zM300 200H900V500A300 300 0 1 1 300 500V200zM550 1100H650V950H550V1100zM988.9 959.6L1059.6 888.9000000000001L953.6 782.85L882.85 853.55L988.9 959.6zM140.4 888.9L211.1 959.6L317.15 853.5999999999999L246.5 782.8L140.4 888.9zM350 500A250 250 0 0 0 600 750V650A150 150 0 0 1 450 500H350z" />
    <glyph glyph-name="album-fill"
      unicode="&#xEA1C;"
      horiz-adv-x="1200" d="M600 1100C876 1100 1100 876 1100 600S876 100 600 100S100 324 100 600S324 1100 600 1100zM600 400C710.6500000000001 400 800 489.3499999999999 800 600S710.6500000000001 800 600 800S400 710.6500000000001 400 600S489.35 400 600 400zM600 650C627.5 650 650 627.5 650 600S627.5 550 600 550S550 572.5 550 600S572.5 650 600 650z" />
    <glyph glyph-name="album-line"
      unicode="&#xEA1D;"
      horiz-adv-x="1200" d="M600 200A400 400 0 1 1 600 1000A400 400 0 0 1 600 200zM600 100C323.85 100 100 323.85 100 600S323.85 1100 600 1100S1100 876.15 1100 600S876.15 100 600 100zM600 500A100 100 0 1 1 600 700A100 100 0 0 1 600 500zM600 400A200 200 0 1 0 600 800A200 200 0 0 0 600 400z" />
    <glyph glyph-name="alert-fill"
      unicode="&#xEA1E;"
      horiz-adv-x="1200" d="M643.3 1050L1119.6 225A50 50 0 0 0 1076.3 150H123.7A50 50 0 0 0 80.4 225L556.7 1050A50 50 0 0 0 643.3 1050zM550 400V300H650V400H550zM550 750V500H650V750H550z" />
    <glyph glyph-name="alert-line"
      unicode="&#xEA1F;"
      horiz-adv-x="1200" d="M643.3 1050L1119.6 225A50 50 0 0 0 1076.3 150H123.7A50 50 0 0 0 80.4 225L556.7 1050A50 50 0 0 0 643.3 1050zM210.3 250H989.6999999999998L600 925L210.3 250zM550 400H650V300H550V400zM550 750H650V500H550V750z" />
    <glyph glyph-name="aliens-fill"
      unicode="&#xEA20;"
      horiz-adv-x="1200" d="M600 1100A424.99999999999994 424.99999999999994 0 0 0 1025 675C1025 350 750 75 600 75S175 350 175 675A424.99999999999994 424.99999999999994 0 0 0 600 1100zM875 600A225 225 0 0 1 651.25 351.2499999999999A225 225 0 0 1 898.7500000000001 598.7499999999999A227.6 227.6 0 0 1 875 600zM325 600C317 600 309.05 599.6 301.25 598.75A225 225 0 0 1 548.7500000000001 351.2499999999999A225 225 0 0 1 325 600z" />
    <glyph glyph-name="aliens-line"
      unicode="&#xEA21;"
      horiz-adv-x="1200" d="M600 1100A424.99999999999994 424.99999999999994 0 0 0 1025 675C1025 350 750 75 600 75S175 350 175 675A424.99999999999994 424.99999999999994 0 0 0 600 1100zM600 1000A325 325 0 0 1 275 675C275 435.3 483.2499999999999 175 600 175S925 435.3 925 675A325 325 0 0 1 600 1000zM875 650C883 650 890.9499999999999 649.6 898.7500000000001 648.75A225 225 0 0 0 651.2500000000001 401.2499999999999A225 225 0 0 0 875 650zM325 650A225 225 0 0 0 548.75 401.25A225 225 0 0 0 301.25 648.7500000000001C309 649.6 317 650 325 650z" />
    <glyph glyph-name="align-bottom"
      unicode="&#xEA22;"
      horiz-adv-x="1200" d="M150 250H1050V150H150V250zM400 550H550L350 350L150 550H300V1050H400V550zM900 550H1050L850 350L650 550H800V1050H900V550z" />
    <glyph glyph-name="align-center"
      unicode="&#xEA23;"
      horiz-adv-x="1200" d="M150 1000H1050V900H150V1000zM250 250H950V150H250V250zM150 500H1050V400H150V500zM250 750H950V650H250V750z" />
    <glyph glyph-name="align-justify"
      unicode="&#xEA24;"
      horiz-adv-x="1200" d="M150 1000H1050V900H150V1000zM150 250H1050V150H150V250zM150 500H1050V400H150V500zM150 750H1050V650H150V750z" />
    <glyph glyph-name="align-left"
      unicode="&#xEA25;"
      horiz-adv-x="1200" d="M150 1000H1050V900H150V1000zM150 250H850V150H150V250zM150 500H1050V400H150V500zM150 750H850V650H150V750z" />
    <glyph glyph-name="align-right"
      unicode="&#xEA26;"
      horiz-adv-x="1200" d="M150 1000H1050V900H150V1000zM350 250H1050V150H350V250zM150 500H1050V400H150V500zM350 750H1050V650H350V750z" />
    <glyph glyph-name="align-top"
      unicode="&#xEA27;"
      horiz-adv-x="1200" d="M150 1050H1050V950H150V1050zM400 650V150H300V650H150L350 850L550 650H400zM900 650V150H800V650H650L850 850L1050 650H900z" />
    <glyph glyph-name="align-vertically"
      unicode="&#xEA28;"
      horiz-adv-x="1200" d="M150 650H1050V550H150V650zM900 300V150H800V300H650L850 500L1050 300H900zM400 300V150H300V300H150L350 500L550 300H400zM900 900H1050L850 700L650 900H800V1050H900V900zM400 900H550L350 700L150 900H300V1050H400V900z" />
    <glyph glyph-name="alipay-fill"
      unicode="&#xEA29;"
      horiz-adv-x="1200" d="M1071.1000000000001 432.1C879.5999999999999 489.75 768.35 524.0999999999999 737.2 535.1999999999999A620.5 620.5 0 0 1 803.2 701.1999999999999H640V756.4H840V790.4H640V882.8H563.2C549.2 882.8 547.6000000000001 870.4 547.6000000000001 870.4V790.8H360V756.8H547.6V701.6H394V670.8000000000001H705.1999999999999A548.6 548.6 0 0 0 660.8 562C590.4 585.2 551.1999999999999 601.2 465.1999999999999 609.2C302.3999999999999 624.8000000000001 264.7999999999999 535.2 258.7999999999999 480.4C250 396.8 324 328.8000000000001 434.4000000000001 328.8000000000001S618.4 380.0000000000001 688.4000000000001 464.8000000000001C746.75 436.9000000000001 855.3000000000001 388.5500000000001 1014.1 319.7000000000001A499.5000000000001 499.5000000000001 0 0 0 600 100C323.85 100 100 323.85 100 600S323.85 1100 600 1100S1100 876.15 1100 600A499.15 499.15 0 0 0 1071.1000000000001 432.1zM421.6 381.5999999999999C304.8 381.5999999999999 286.4 455.5999999999999 292.4000000000001 486.3999999999999C298.4000000000001 517.1999999999999 332.4000000000001 557.1999999999999 397.6 557.1999999999999C472.4 557.1999999999999 539.2 537.9999999999999 619.6 499.1999999999999C562.8000000000001 425.2 493.6000000000001 381.5999999999999 421.6000000000002 381.5999999999999z" />
    <glyph glyph-name="alipay-line"
      unicode="&#xEA2A;"
      horiz-adv-x="1200" d="M920.4 360.5C811.75 408 734.4 442.8000000000001 688.4000000000001 464.8000000000001C618.4 380.0000000000001 544.8000000000001 328.8000000000001 434.4000000000001 328.8000000000001S250 396.8 258.8 480.4C264.8 535.2 302.4 624.8000000000001 465.2 609.2C551.2 601.2 590.4 585.2 660.8000000000001 562.0000000000001C678.8000000000001 595.2 694 632.0000000000001 705.2 670.8000000000001H394V701.6000000000001H547.6V756.8H360V790.8H547.6V870.4000000000001S549.2 882.8 563.1999999999999 882.8H640V790.4H840V756.4H640V701.2H803.2A620.5 620.5 0 0 0 737.2 535.2C762.6999999999999 526.1 842.0500000000001 501.4 975.2 461.05A400 400 0 1 1 920.3999999999997 360.45zM600 100C323.85 100 100 323.85 100 600S323.85 1100 600 1100S1100 876.15 1100 600S876.15 100 600 100zM421.6 381.5999999999999C493.6 381.5999999999999 562.8 425.2 619.6 499.1999999999999C539.1999999999999 537.9999999999999 472.4 557.1999999999999 397.6 557.1999999999999C332.3999999999999 557.1999999999999 298.4 517.1999999999999 292.4 486.3999999999999C286.3999999999999 455.5999999999999 304.8 381.5999999999999 421.5999999999999 381.5999999999999z" />
    <glyph glyph-name="amazon-fill"
      unicode="&#xEA2B;"
      horiz-adv-x="1200" d="M1099.8 288.5C1099.8 252.15 1079.55 182.1500000000001 1034.1 143.7000000000001C1025 136.6999999999998 1015.85 140.6499999999999 1019.85 150.8499999999999C1033.1 183.25 1063.4499999999998 258.2 1049.1999999999998 275.4500000000001C1039.2 288.5500000000001 997.6999999999998 287.5999999999999 962.3 284.55C946.1 282.4999999999999 931.95 281.55 920.9 279.3C910.75 278.45 908.6499999999997 287.45 918.85 294.45C931.95 303.7 946.1 310.7 962.35 315.85C1019.85 333.0500000000001 1086.35 322.7000000000001 1095.8500000000001 311.7000000000001C1097.65 309.6 1099.85 303.7000000000001 1099.85 288.5500000000001zM1003.75 223.8A371.3 371.3 0 0 0 962.25 196.3C856.1500000000001 132.55 718.75 99.1499999999999 599.3500000000001 99.1499999999999C407.2000000000001 99.1499999999999 235.3500000000001 170 104.9500000000001 288.5499999999999C93.8000000000001 297.6499999999998 103.0500000000001 310.8499999999999 116.1000000000001 303.7C256.6000000000001 221.6999999999998 430.5000000000002 172.0999999999999 610.5500000000001 172.0999999999999C723.8000000000002 172.0999999999999 845.9500000000002 193.2999999999999 962.3 238.8999999999998C970.4 241.9499999999997 979.5000000000002 246.0999999999997 987.4500000000002 248.9999999999999C1005.8000000000002 257.2499999999998 1021.9500000000002 236.8499999999999 1003.7500000000002 223.7999999999997zM695.25 775.3C695.25 827.3499999999999 697.3 858 680.05 884.3C664.75 905.9499999999998 638.4 918.9499999999998 601.65 916.8999999999997C561.75 914.7 518.9 888.55 507.9499999999999 840.5999999999999C505.85 829.5999999999999 499.4 818.8 486.15 816.4499999999999L364.35 831.9499999999999C355.6499999999999 833.9499999999999 342.45 840.5999999999999 346.75 858C372.9000000000001 995.6 490.5 1043.55 601.65 1050H627.8C688.8 1050 767.15 1032.55 817.3 986.8C878.15 930 871.7 853.7 871.7 770.8V574.45C871.7 515.55 895.5500000000001 489.45 919.6 458.75C926.1 447.8000000000001 928.3 434.9 917.35 426.0000000000001C893.3499999999999 404.25 847.65 365.0500000000001 821.4999999999998 343.3C812.7999999999998 336.65 797.0999999999998 335.9500000000001 790.9999999999999 341.05C752.4999999999999 373.2999999999999 743.0999999999998 391.2 719.2499999999998 423.9499999999998C677.7499999999998 380.3999999999999 642.9499999999998 356.3499999999999 601.4999999999998 343.2999999999999A351.75 351.75 0 0 0 512.2999999999997 332.4999999999998C407.7999999999998 332.4999999999998 324.9999999999997 397.6499999999998 324.9999999999997 526.4999999999997C324.9999999999997 628.9499999999997 379.4999999999997 698.5999999999997 459.9999999999998 731.5499999999997C540.4999999999998 764.5499999999997 657.4999999999998 775.0499999999996 695.1999999999998 775.2499999999997zM671.35 515.6999999999999C697.3499999999999 559.3 695.2 594.9999999999999 695.2 674.9499999999999C662.65 674.9499999999999 629.9 672.6999999999999 601.65 666.05C549.4 650.8999999999999 507.9499999999999 617.9999999999999 507.9499999999999 548.2999999999998C507.9499999999999 493.7999999999998 536.3 456.6999999999998 584.1999999999999 456.6999999999998C590.8 456.6999999999998 596.5999999999999 457.4999999999999 601.65 458.9499999999998C635.15 468.2499999999999 656.05 485.0499999999998 671.35 515.6999999999998z" />
    <glyph glyph-name="amazon-line"
      unicode="&#xEA2C;"
      horiz-adv-x="1200" d="M781.25 469C725.9000000000001 388.05 644.85 349.8000000000001 550 349.8000000000001C434.8 349.8000000000001 336.2 438.4500000000001 350.35 556C366.1 686.4000000000001 467.35 742.5 635.75 763.1500000000001C665.8 766.8000000000002 678.25 767.8500000000001 743.1 772.6500000000001L750 773.1500000000001V783.9000000000001C750 873.7 696.6 935 625 935C553.15 935 503 897.6500000000001 472.25 808.7L377.7500000000001 841.3C422.1 969.8 509.65 1035 625 1035C755.15 1035 850 926.1 850 783.9000000000001C850 651.45 858.15 546.1 874.15 506.0500000000001C891.9500000000002 461.45 898.45 450.2000000000001 918.35 425.4000000000001L840.3500000000001 362.85C814.2000000000002 395.4500000000002 802.7 415.3000000000001 781.3000000000001 468.95V469zM1062.85 172.75C1049.3 162.7500000000002 1025.7499999999998 168.7000000000001 1036.3999999999999 194.7500000000001C1049.6499999999999 227.1500000000001 1063.75 265.1500000000002 1049.5 282.3500000000002C1038.9999999999998 295.1 1026.15 301.4500000000002 998.1499999999997 301.4500000000002C975.1499999999997 301.4500000000002 963.6499999999997 298.4500000000003 948.3999999999997 297.4500000000003C938.1999999999998 296.8000000000002 933.7499999999998 312.3000000000003 943.8499999999998 319.4500000000003A148 148 0 0 0 987.3499999999998 340.8500000000004C1044.8499999999997 358.0500000000004 1112.5999999999997 348.6000000000004 1120.8499999999997 336.7000000000005C1139.0999999999997 310.2000000000004 1110.8999999999996 208.2500000000005 1062.8499999999997 172.7000000000003zM1003.75 226.9500000000001A377.74999999999994 377.74999999999994 0 0 0 962.25 192.2000000000001C856.1500000000001 111.4000000000001 718.75 69.2000000000001 599.3500000000001 69.2000000000001C407.2000000000001 69.2000000000001 235.3500000000001 158.8499999999999 104.9500000000001 308.9500000000001C93.8000000000001 320.4500000000002 103.0500000000001 337.25 116.1000000000001 328.1500000000001C256.6000000000001 224.3000000000002 430.5000000000002 161.5000000000002 610.5500000000001 161.5000000000002C723.8000000000002 161.5000000000002 845.9500000000002 188.3500000000001 962.3 246.1500000000003C970.4 249.9500000000003 979.5000000000002 255.1500000000002 987.4500000000002 258.8500000000004C1005.8000000000002 269.3500000000004 1021.9500000000002 243.5500000000003 1003.7500000000002 226.9500000000003zM750.4999999999999 672.95C687.5999999999999 668.2500000000001 675.6999999999999 667.3000000000001 647.8999999999999 663.9000000000001C520.3 648.2500000000001 458.0499999999999 613.7500000000001 449.6499999999999 544.0000000000001C443.35 491.8500000000001 490.15 449.8000000000001 549.9999999999999 449.8000000000001C651.9499999999999 449.8000000000001 725.8499999999999 511.2 751.0999999999999 672.9500000000002H750.4999999999999z" />
    <glyph glyph-name="anchor-fill"
      unicode="&#xEA2D;"
      horiz-adv-x="1200" d="M650 706.3V203.5999999999999C830.95 226.2499999999999 974.3500000000003 370.3999999999999 996.9 552.2H850L1035.2 850A502.05000000000007 502.05000000000007 0 0 0 1100 602.5C1100 325 876.15 100 600 100S100 325 100 602.5C100 692.5 123.55 776.95 164.8 850L350 552.2H203.1C225.65 370.4000000000001 369.1 226.2499999999999 550 203.5999999999999V706.3A200.10000000000002 200.10000000000002 0 0 0 600 1100A200 200 0 0 0 650 706.3000000000001zM600 800A100 100 0 1 1 600 1000A100 100 0 0 1 600 800z" />
    <glyph glyph-name="anchor-line"
      unicode="&#xEA2E;"
      horiz-adv-x="1200" d="M102.5 650H350V550H203.1A400.20000000000005 400.20000000000005 0 0 1 550 203.1V706.3A200.10000000000002 200.10000000000002 0 0 0 600 1100A200 200 0 0 0 650 706.3000000000001V203.1A400.20000000000005 400.20000000000005 0 0 1 996.9 550H850V650H1097.5C1099.15 633.55 1100 616.85 1100 600C1100 323.85 876.15 100 600 100S100 323.85 100 600C100 616.85 100.85 633.55 102.5 650zM600 800A100 100 0 1 1 600 1000A100 100 0 0 1 600 800z" />
    <glyph glyph-name="ancient-gate-fill"
      unicode="&#xEA2F;"
      horiz-adv-x="1200" d="M945.05 700A149.95000000000002 149.95000000000002 0 0 1 1148.8 644.35A175 175 0 0 0 1050.05 466.85L1050 150H750V250A150 150 0 0 1 450.25 258.8L450 250V150H150V466.8000000000001A175 175 0 0 0 51.05 644.4499999999999A149.95000000000002 149.95000000000002 0 0 1 254.9 700H945.05zM851.8000000000001 1050A175 175 0 0 1 1074.1 907A175 175 0 0 0 909.6 750.25L900 750H300A175 175 0 0 0 125.9 907A175 175 0 0 1 348.2000000000001 1050H851.8000000000001z" />
    <glyph glyph-name="ancient-gate-line"
      unicode="&#xEA30;"
      horiz-adv-x="1200" d="M945.05 700A149.95000000000002 149.95000000000002 0 0 1 1148.8 644.35A175 175 0 0 0 1050.05 466.85L1050 150H700V250A100 100 0 0 1 607.5 349.75L600 350A100 100 0 0 1 500.2499999999999 257.4999999999999L500 250V150H150V466.8000000000001A175 175 0 0 0 51.05 644.4499999999999A149.95000000000002 149.95000000000002 0 0 1 254.9 700H945.05zM896.5 600H303.45L299.6500000000001 596.05C278.1 575.05 252.9 558.05 225.35 545.9499999999999L220.55 544L250 530L249.95 250L400.05 250.0500000000001V253.65L400.55 264.8C408 365.5999999999999 489.55 444.75 593.2499999999999 449.7000000000001L603.65 449.9500000000001L614.8 449.4500000000001A200 200 0 0 0 799.75 260.1000000000002L799.9499999999999 250.0500000000001L950 250L950.05 530L979.4 544L974.65 545.9999999999999A250.09999999999997 250.09999999999997 0 0 0 900.35 596.0499999999998L896.5 600zM851.8000000000001 1050A175 175 0 0 1 1074.1 907A175 175 0 0 0 909.6 750.25L900 750H300A175 175 0 0 0 125.9 907A175 175 0 0 1 348.2000000000001 1050H851.8000000000001zM780 950H419.95A275.34999999999997 275.34999999999997 0 0 0 345.45 859.2L333.05 850H866.9000000000001L866.3000000000001 850.4A275.90000000000003 275.90000000000003 0 0 0 787.35 936.5L780 950z" />
    <glyph glyph-name="ancient-pavilion-fill"
      unicode="&#xEA31;"
      horiz-adv-x="1200" d="M625.65 1099.95A450.2 450.2 0 0 1 1124.15 806.1A225.05 225.05 0 0 0 950 605.6V250L1050 249.95V149.9500000000001H150V249.95H250V605.5999999999999A225.15 225.15 0 0 0 75.8 806.0999999999999A450.2 450.2 0 0 1 574.4 1099.8999999999999H625.65zM850 600H350V250H850V600z" />
    <glyph glyph-name="ancient-pavilion-line"
      unicode="&#xEA32;"
      horiz-adv-x="1200" d="M625.65 1099.95A450.2 450.2 0 0 1 1124.15 806.1A225.05 225.05 0 0 0 950 605.6V250L1050 249.95V149.9500000000001H150V249.95H250V605.5999999999999A225.15 225.15 0 0 0 75.8 806.0999999999999A450.2 450.2 0 0 1 574.4 1099.8999999999999H625.65zM850 600H350V250H850V600zM600 933.65L594.5 925.9A550.6 550.6 0 0 0 270 713.2L252.1 709.55L285.7500000000001 700.05H914.4L947.8 709.55L947.25 709.65A550.5 550.5 0 0 0 605.45 925.95L600 933.7z" />
    <glyph glyph-name="android-fill"
      unicode="&#xEA33;"
      horiz-adv-x="1200" d="M319.1 1001.6A448.1 448.1 0 0 0 600 1100C706.25 1100 803.9 1063.2 880.9000000000001 1001.6L953.55 1074.25L1024.2500000000002 1003.55L951.6000000000003 930.9A448.1 448.1 0 0 0 1050 650V600H150V650C150 756.25 186.8 853.9000000000001 248.4 930.9L175.75 1003.5L246.45 1074.2L319.1 1001.55zM150 500H1050V150A50 50 0 0 0 1000 100H200A50 50 0 0 0 150 150V500zM450 750A50 50 0 1 1 450 850A50 50 0 0 1 450 750zM750 750A50 50 0 1 1 750 850A50 50 0 0 1 750 750z" />
    <glyph glyph-name="android-line"
      unicode="&#xEA34;"
      horiz-adv-x="1200" d="M950 550H250V200H950V550zM950 650A350 350 0 0 1 250 650H950zM319.1 1001.6A448.1 448.1 0 0 0 600 1100C706.25 1100 803.9 1063.2 880.9000000000001 1001.6L953.55 1074.25L1024.2500000000002 1003.55L951.6000000000003 930.9A448.1 448.1 0 0 0 1050 650V150A50 50 0 0 0 1000 100H200A50 50 0 0 0 150 150V650C150 756.25 186.8 853.9000000000001 248.4 930.9L175.75 1003.5L246.45 1074.2L319.1 1001.55zM450 750A50 50 0 1 0 450 850A50 50 0 0 0 450 750zM750 750A50 50 0 1 0 750 850A50 50 0 0 0 750 750z" />
    <glyph glyph-name="angularjs-fill"
      unicode="&#xEA35;"
      horiz-adv-x="1200" d="M600 1100L1065 934L994.1 318.4999999999999L600 100L205.9 318.5L135 934L600 1100zM600 989.5L309.3 336.9999999999999H417.7L476.15 482.9999999999999H722.85L781.35 336.9999999999999H889.7L600 989.5zM684.9 573H515.1L600 777.5L684.9 573z" />
    <glyph glyph-name="angularjs-line"
      unicode="&#xEA36;"
      horiz-adv-x="1200" d="M876.15 367.5000000000001L900.6499999999999 381L956.5499999999998 866.5000000000001L600 993.85L243.45 866.55L299.4 381.05L323.05 367.8999999999999L600 989.5L876.15 367.5000000000001zM821.1999999999999 337.0000000000001H781.3L722.8499999999999 483.0000000000001H476.15L417.65 337.0000000000001H378.8L600 214.3499999999999L821.1999999999999 336.9999999999999zM600 1100L1065 934L994.1 318.4999999999999L600 100L205.9 318.5L135 934L600 1100zM684.9 573L600 777.5L515.1 573H684.9z" />
    <glyph glyph-name="anticlockwise-2-fill"
      unicode="&#xEA37;"
      horiz-adv-x="1200" d="M700 1000H800A250 250 0 0 0 1050 750V550H950V750A150 150 0 0 1 800 900H700V750L450 950L700 1150V1000zM750 650V150A50 50 0 0 0 700 100H200A50 50 0 0 0 150 150V650A50 50 0 0 0 200 700H700A50 50 0 0 0 750 650z" />
    <glyph glyph-name="anticlockwise-2-line"
      unicode="&#xEA38;"
      horiz-adv-x="1200" d="M670.6999999999999 900L762.15 808.5999999999999L691.4 737.8499999999999L479.3 950L691.4 1162.15L762.15 1091.4L670.6999999999999 1000H800A250 250 0 0 0 1050 750V550H950V750A150 150 0 0 1 800 900H670.6999999999999zM750 650V150A50 50 0 0 0 700 100H200A50 50 0 0 0 150 150V650A50 50 0 0 0 200 700H700A50 50 0 0 0 750 650zM650 600H250V200H650V600z" />
    <glyph glyph-name="anticlockwise-fill"
      unicode="&#xEA39;"
      horiz-adv-x="1200" d="M300 700H450L250 450L50 700H200V800A250 250 0 0 0 450 1050H650V950H450A150 150 0 0 1 300 800V700zM550 750H1050A50 50 0 0 0 1100 700V200A50 50 0 0 0 1050 150H550A50 50 0 0 0 500 200V700A50 50 0 0 0 550 750z" />
    <glyph glyph-name="anticlockwise-line"
      unicode="&#xEA3A;"
      horiz-adv-x="1200" d="M550 750H1050A50 50 0 0 0 1100 700V200A50 50 0 0 0 1050 150H550A50 50 0 0 0 500 200V700A50 50 0 0 0 550 750zM600 650V250H1000V650H600zM300 670.6999999999999L391.4000000000001 762.1500000000001L462.15 691.4L250 479.3000000000001L37.85 691.4L108.6 762.1499999999999L200 670.6999999999999V800A250 250 0 0 0 450 1050H650V950H450A150 150 0 0 1 300 800V670.6999999999999z" />
    <glyph glyph-name="app-store-fill"
      unicode="&#xEA3B;"
      horiz-adv-x="1200" d="M600 1100C876.15 1100 1100 876.15 1100 600S876.15 100 600 100S100 323.85 100 600S323.85 1100 600 1100zM441.1500000000001 432.85C421.4000000000001 456.7 396.85 465.2 367.2 458.3000000000001L359.7 456.25L330.2 405.4500000000001A41.15 41.15 0 0 1 398.5000000000001 359.6500000000001L401.6 364.3000000000001L441.1 432.8500000000002zM660.5 767C636.1 746.8 611.5 687.15 646.0000000000001 627.6500000000001L798 364.3499999999999A41.199999999999996 41.199999999999996 0 0 1 871.8 400.45L869.35 405.45L829.25 475.0499999999998H888.7500000000001A40.99999999999999 40.99999999999999 0 0 1 929.85 516.1999999999999A40.99999999999999 40.99999999999999 0 0 1 893.8500000000001 556.9999999999999L888.7 557.3H781.7L672 747.15L660.5 766.95zM674.4000000000001 919.2A41.25 41.25 0 0 1 621.25 908.7L618.1500000000001 904.1L599.8000000000001 872.45L581.8500000000001 904.1A41.199999999999996 41.199999999999996 0 0 1 508.0500000000001 868L510.5000000000001 863L552.4 790.1500000000001L418.15 557.5000000000001H313.3A40.99999999999999 40.99999999999999 0 0 1 272.2 516.4000000000001C272.2 495.3500000000001 287.8 478.1000000000001 308.1500000000001 475.5500000000002L313.3 475.2500000000001H687.3000000000001C704.3000000000001 507.2500000000001 684.3 552.7 646.8 557.1500000000001L640.75 557.5000000000001H513.1L689.5 863.0000000000001A41.15 41.15 0 0 1 674.4000000000001 919.2z" />
    <glyph glyph-name="app-store-line"
      unicode="&#xEA3C;"
      horiz-adv-x="1200" d="M600 1100C876.15 1100 1100 876.15 1100 600S876.15 100 600 100S100 323.85 100 600S323.85 1100 600 1100zM600 1000A400 400 0 1 1 600 200A400 400 0 0 1 600 1000zM441.1500000000001 432.85L401.6500000000001 364.3499999999999A41.15 41.15 0 1 0 330.2500000000001 405.45L359.7000000000001 456.2499999999999C392.7000000000001 466.5499999999998 419.7500000000001 458.6499999999999 441.1500000000001 432.8499999999999zM660.5 767L781.6500000000001 557.3000000000001H888.7A40.99999999999999 40.99999999999999 0 0 0 929.85 516.2A40.99999999999999 40.99999999999999 0 0 0 888.7 475.0500000000001H829.1999999999999L869.35 405.5000000000001A41.199999999999996 41.199999999999996 0 0 0 798 364.3500000000002L646.0000000000001 627.6500000000001C611.5000000000001 687.1500000000001 636.1 746.8000000000002 660.5 767.0000000000002zM674.4000000000001 919.2C694.1500000000001 907.9 700.8000000000001 882.7 689.5 862.95L513.1 557.5H640.7500000000001C682.0500000000001 557.5 705.25 508.9000000000001 687.3000000000001 475.25H313.3000000000001A40.99999999999999 40.99999999999999 0 0 0 272.2000000000001 516.4000000000001A40.99999999999999 40.99999999999999 0 0 0 313.3000000000001 557.5H418.1500000000001L552.4000000000001 790.1500000000001L510.5000000000001 862.95A41.199999999999996 41.199999999999996 0 0 0 581.8500000000001 904.1L599.8000000000001 872.45L618.1500000000002 904.1A41.15 41.15 0 0 0 674.4000000000002 919.2z" />
    <glyph glyph-name="apple-fill"
      unicode="&#xEA3D;"
      horiz-adv-x="1200" d="M581.2 838.9C537.4000000000001 838.9 469.6 888.6999999999999 398.2000000000001 886.9C304 885.7 217.6 832.3 169 747.7C71.2000000000001 577.9 143.8000000000001 327.1000000000002 239.2000000000001 189.1C286.0000000000001 121.8999999999999 341.2000000000001 46.3000000000002 414.4000000000001 48.7C484.6 51.7 511.0000000000001 94.3 596.1999999999999 94.3C680.8 94.3 704.8 48.7 779.1999999999999 50.5C854.8 51.7 902.8 118.8999999999999 949 186.6999999999999C1002.4 264.6999999999998 1024.6000000000001 340.2999999999999 1025.8000000000002 344.4999999999999C1024 345.0999999999999 878.8000000000001 400.8999999999999 877.0000000000001 568.8999999999999C875.8000000000001 709.2999999999998 991.6 776.4999999999999 997.0000000000002 779.4999999999998C931 876.0999999999999 829.6000000000001 886.8999999999999 794.2 889.2999999999997C701.8 896.4999999999998 624.4 838.8999999999999 581.2 838.8999999999999zM737.2 980.5C776.1999999999999 1027.3 802 1092.7 794.8 1157.5C739 1155.1 671.8 1120.3 631.6 1073.5C595.5999999999999 1032.1 564.4 965.5 572.8 901.9C634.6 897.1 698.1999999999999 933.7 737.2 980.5z" />
    <glyph glyph-name="apple-line"
      unicode="&#xEA3E;"
      horiz-adv-x="1200" d="M786.4499999999999 789.5999999999999C762.8 791.45 737.4 785.8 698.5 770.95C701.8 772.2 661.3999999999999 756.45 650.0999999999999 752.45C624.9999999999999 743.7 604.35 738.9000000000001 581.1999999999999 738.9000000000001C558.3 738.9000000000001 537.1999999999999 743.5 512.9 751.6500000000001C505.15 754.3000000000002 497.35 757.1500000000001 487.6499999999999 760.95C483.5499999999999 762.5500000000001 468.55 768.55 465.2499999999999 769.8000000000001C432.8499999999999 782.5 414.5999999999999 787.3 399.45 786.9000000000001C341.8499999999999 786.1500000000001 287.3 752.9000000000001 255.6499999999999 697.8000000000001C191.0499999999999 585.6 226.7999999999999 382.85 321.2499999999999 246.25C371.5499999999999 174.0500000000002 399.0499999999999 148.25 410.1499999999999 148.6000000000001C421.2499999999999 149.1000000000001 429.3999999999999 151.4500000000001 449.2999999999999 159.8500000000001L457.6499999999999 163.4000000000003C507.8999999999999 184.8500000000001 543.1499999999997 194.3000000000002 596.1999999999998 194.3000000000002C647.2499999999999 194.3000000000002 681.3499999999998 185.0000000000001 729.5999999999998 164.2000000000001L737.9999999999998 160.6000000000001C757.8999999999997 152.1000000000001 765.0999999999997 150.2000000000003 777.5999999999997 150.5C795.4999999999998 150.75 817.5499999999997 171.3500000000001 866.4999999999998 243.2000000000001C879.8999999999997 262.7500000000001 891.7499999999997 283.3500000000002 901.9999999999998 304.2A367.7 367.7 0 0 0 882.3999999999999 321.5500000000001C817.9499999999997 382.9500000000002 778.0999999999998 465.7500000000001 776.9999999999998 568.0500000000001A331.25 331.25 0 0 0 847.4999999999998 777.1000000000001A206.19999999999996 206.19999999999996 0 0 1 786.4499999999998 789.6000000000001zM794.1999999999999 889.3C829.5999999999999 886.9 930.9999999999998 876.0999999999999 996.9999999999998 779.5C991.6 776.5 875.8 709.3 877 568.9C878.8000000000001 400.9000000000001 1024 345.1 1025.8 344.5C1024.6 340.3000000000001 1002.3999999999997 264.7000000000001 948.9999999999998 186.7000000000001C902.7999999999998 118.9000000000001 854.7999999999998 51.7 779.1999999999998 50.5C704.7999999999998 48.7 680.7999999999998 94.3000000000002 596.1999999999998 94.3000000000002C510.9999999999998 94.3000000000002 484.5999999999999 51.7 414.3999999999999 48.7000000000003C341.1999999999998 46.3000000000002 285.9999999999999 121.9000000000001 239.1999999999999 189.1000000000001C143.7999999999999 327.1000000000002 71.1999999999999 577.9000000000002 168.9999999999999 747.7000000000003C217.5999999999999 832.3000000000002 303.9999999999999 885.7000000000003 398.1999999999998 886.9000000000002C469.5999999999998 888.7000000000002 537.3999999999999 838.9000000000002 581.1999999999998 838.9000000000002C624.3999999999999 838.9000000000002 701.7999999999998 896.5000000000002 794.1999999999998 889.3000000000002zM737.1999999999999 980.5C698.1999999999999 933.7 634.5999999999999 897.0999999999999 572.7999999999998 901.9C564.4 965.5 595.5999999999999 1032.1 631.5999999999999 1073.5C671.8 1120.3 738.9999999999999 1155.1 794.7999999999998 1157.5C801.9999999999998 1092.7 776.1999999999998 1027.3 737.1999999999999 980.5z" />
    <glyph glyph-name="apps-2-fill"
      unicode="&#xEA3F;"
      horiz-adv-x="1200" d="M350 625A225 225 0 1 0 350 1075A225 225 0 0 0 350 625zM350 125A225 225 0 1 0 350 575A225 225 0 0 0 350 125zM850 625A225 225 0 1 0 850 1075A225 225 0 0 0 850 625zM850 125A225 225 0 1 0 850 575A225 225 0 0 0 850 125z" />
    <glyph glyph-name="apps-2-line"
      unicode="&#xEA40;"
      horiz-adv-x="1200" d="M325 625A225 225 0 1 0 325 1075A225 225 0 0 0 325 625zM350 125A225 225 0 1 0 350 575A225 225 0 0 0 350 125zM850 625A225 225 0 1 0 850 1075A225 225 0 0 0 850 625zM850 125A225 225 0 1 0 850 575A225 225 0 0 0 850 125zM325 725A125 125 0 1 1 325 975A125 125 0 0 1 325 725zM350 225A125 125 0 1 1 350 475A125 125 0 0 1 350 225zM850 725A125 125 0 1 1 850 975A125 125 0 0 1 850 725zM850 225A125 125 0 1 1 850 475A125 125 0 0 1 850 225z" />
    <glyph glyph-name="apps-fill"
      unicode="&#xEA41;"
      horiz-adv-x="1200" d="M337.5 1075A212.49999999999997 212.49999999999997 0 0 0 550 862.5V650H337.5A212.49999999999997 212.49999999999997 0 1 0 337.5 1075zM337.5 550H550V337.5A212.49999999999997 212.49999999999997 0 1 0 337.5 550zM862.5 1075A212.49999999999997 212.49999999999997 0 1 0 862.5 650H650V862.5A212.49999999999997 212.49999999999997 0 0 0 862.5 1075zM650 550H862.5A212.49999999999997 212.49999999999997 0 1 0 650 337.5V550z" />
    <glyph glyph-name="apps-line"
      unicode="&#xEA42;"
      horiz-adv-x="1200" d="M337.5 1075A212.49999999999997 212.49999999999997 0 0 0 550 862.5V650H337.5A212.49999999999997 212.49999999999997 0 1 0 337.5 1075zM450 750V862.5A112.5 112.5 0 1 1 337.5 750H450zM337.5 550H550V337.5A212.49999999999997 212.49999999999997 0 1 0 337.5 550zM337.5 450A112.5 112.5 0 1 1 450 337.5V450H337.5zM862.5 1075A212.49999999999997 212.49999999999997 0 1 0 862.5 650H650V862.5A212.49999999999997 212.49999999999997 0 0 0 862.5 1075zM862.5 750A112.5 112.5 0 1 1 750 862.5V750H862.5zM650 550H862.5A212.49999999999997 212.49999999999997 0 1 0 650 337.5V550zM750 450V337.5A112.5 112.5 0 1 1 862.5 450H750z" />
    <glyph glyph-name="archive-drawer-fill"
      unicode="&#xEA43;"
      horiz-adv-x="1200" d="M150 550H1050V149.8999999999999C1050 122.3499999999999 1027.75 99.9999999999998 1000.35 99.9999999999998H199.65A49.75000000000001 49.75000000000001 0 0 0 150 149.9000000000001V550zM150 1050.1C150 1077.65 172.25 1100 199.65 1100H1000.35C1027.75 1100 1049.9999999999998 1077.7 1049.9999999999998 1050.1V650H150V1050.1zM450 950V850H750V950H450zM450 400V300H750V400H450z" />
    <glyph glyph-name="archive-drawer-line"
      unicode="&#xEA44;"
      horiz-adv-x="1200" d="M150 1050.4C150 1077.8 172.25 1100 199.65 1100H1000.35A50 50 0 0 0 1049.9999999999998 1050.4V149.6000000000001A49.65 49.65 0 0 0 1000.35 100H199.65A50 50 0 0 0 150 149.6000000000001V1050.4zM950 650V1000H250V650H950zM950 550H250V200H950V550zM450 900H750V800H450V900zM450 450H750V350H450V450z" />
    <glyph glyph-name="archive-fill"
      unicode="&#xEA45;"
      horiz-adv-x="1200" d="M150 700H1050V199.8000000000001C1050 172.3000000000002 1027.75 150.0000000000002 1000.35 150.0000000000002H199.65A49.7 49.7 0 0 0 150 199.8V700zM450 600V500H750V600H450zM100 1000C100 1027.6 122.75 1050 149.6 1050H1050.3999999999999C1077.8 1050 1100 1027.8 1100 1000V800H100V1000z" />
    <glyph glyph-name="archive-line"
      unicode="&#xEA46;"
      horiz-adv-x="1200" d="M150 700H100V999.85C100 1027.55 122.75 1050 149.6 1050H1050.3999999999999A49.5 49.5 0 0 0 1100 999.85V700H1050V199.9500000000002A49.800000000000004 49.800000000000004 0 0 0 1000.35 150.0000000000002H199.65A49.800000000000004 49.800000000000004 0 0 0 150 199.9499999999999V700zM950 700H250V250H950V700zM200 950V800H1000V950H200zM450 600H750V500H450V600z" />
    <glyph glyph-name="arrow-down-circle-fill"
      unicode="&#xEA47;"
      horiz-adv-x="1200" d="M600 1100C876 1100 1100 876 1100 600S876 100 600 100S100 324 100 600S324 1100 600 1100zM650 600V800H550V600H400L600 400L800 600H650z" />
    <glyph glyph-name="arrow-down-circle-line"
      unicode="&#xEA48;"
      horiz-adv-x="1200" d="M600 1100C876 1100 1100 876 1100 600S876 100 600 100S100 324 100 600S324 1100 600 1100zM600 200C821.0000000000001 200 1000 378.9999999999999 1000 600S821.0000000000001 1000 600 1000S200 821 200 600S379 200 600 200zM650 600H800L600 400L400 600H550V800H650V600z" />
    <glyph glyph-name="arrow-down-fill"
      unicode="&#xEA49;"
      horiz-adv-x="1200" d="M650 600H1000L600 200L200 600H550V1000H650z" />
    <glyph glyph-name="arrow-down-line"
      unicode="&#xEA4A;"
      horiz-adv-x="1200" d="M650 391.4L918.2 659.6L988.9 588.9L600 200L211.1 588.9L281.8 659.5999999999999L550 391.4V1000H650V391.4z" />
    <glyph glyph-name="arrow-down-s-fill"
      unicode="&#xEA4B;"
      horiz-adv-x="1200" d="M600 400L300 700H900z" />
    <glyph glyph-name="arrow-down-s-line"
      unicode="&#xEA4C;"
      horiz-adv-x="1200" d="M600 541.4L847.5 788.8999999999999L918.2 718.1999999999999L600 400L281.8 718.2L352.5 788.9000000000001z" />
    <glyph glyph-name="arrow-drop-down-fill"
      unicode="&#xEA4D;"
      horiz-adv-x="1200" d="M600 500L400 700H800z" />
    <glyph glyph-name="arrow-drop-down-line"
      unicode="&#xEA4E;"
      horiz-adv-x="1200" d="M600 450L387.85 662.15L458.6 732.85L600 591.4L741.4 732.85L812.15 662.15z" />
    <glyph glyph-name="arrow-drop-left-fill"
      unicode="&#xEA4F;"
      horiz-adv-x="1200" d="M450 600L650 800V400z" />
    <glyph glyph-name="arrow-drop-left-line"
      unicode="&#xEA50;"
      horiz-adv-x="1200" d="M591.4 600L732.85 458.6L662.15 387.85L450 600L662.15 812.1500000000001L732.85 741.4L591.4 600z" />
    <glyph glyph-name="arrow-drop-right-fill"
      unicode="&#xEA51;"
      horiz-adv-x="1200" d="M700 600L500 400V800z" />
    <glyph glyph-name="arrow-drop-right-line"
      unicode="&#xEA52;"
      horiz-adv-x="1200" d="M608.6 600L467.15 741.4L537.85 812.15L750 600L537.85 387.8499999999999L467.15 458.5999999999999z" />
    <glyph glyph-name="arrow-drop-up-fill"
      unicode="&#xEA53;"
      horiz-adv-x="1200" d="M600 700L800 500H400z" />
    <glyph glyph-name="arrow-drop-up-line"
      unicode="&#xEA54;"
      horiz-adv-x="1200" d="M600 608.6L458.6 467.15L387.85 537.85L600 750L812.1500000000001 537.85L741.4000000000001 467.15L600 608.6z" />
    <glyph glyph-name="arrow-go-back-fill"
      unicode="&#xEA55;"
      horiz-adv-x="1200" d="M400 850V650L100 900L400 1150V950H650A400 400 0 1 0 650 150H200V250H650A300 300 0 1 1 650 850H400z" />
    <glyph glyph-name="arrow-go-back-line"
      unicode="&#xEA56;"
      horiz-adv-x="1200" d="M291.4000000000001 850L418.2000000000001 723.2L347.5 652.5L100 900L347.5 1147.5L418.2000000000001 1076.8L291.4000000000001 950H650A400 400 0 1 0 650 150H200V250H650A300 300 0 1 1 650 850H291.4000000000001z" />
    <glyph glyph-name="arrow-go-forward-fill"
      unicode="&#xEA57;"
      horiz-adv-x="1200" d="M800 850H550A300 300 0 1 1 550 250H1000V150H550A400 400 0 1 0 550 950H800V1150L1100 900L800 650V850z" />
    <glyph glyph-name="arrow-go-forward-line"
      unicode="&#xEA58;"
      horiz-adv-x="1200" d="M908.6 850H550A300 300 0 1 1 550 250H1000V150H550A400 400 0 1 0 550 950H908.6L781.8000000000001 1076.8L852.5 1147.5L1100 900L852.5 652.5L781.8000000000001 723.2L908.6 850z" />
    <glyph glyph-name="arrow-left-circle-fill"
      unicode="&#xEA59;"
      horiz-adv-x="1200" d="M600 1100C876 1100 1100 876 1100 600S876 100 600 100S100 324 100 600S324 1100 600 1100zM600 650V800L400 600L600 400V550H800V650H600z" />
    <glyph glyph-name="arrow-left-circle-line"
      unicode="&#xEA5A;"
      horiz-adv-x="1200" d="M600 1100C876 1100 1100 876 1100 600S876 100 600 100S100 324 100 600S324 1100 600 1100zM600 200C821.0000000000001 200 1000 378.9999999999999 1000 600S821.0000000000001 1000 600 1000S200 821 200 600S379 200 600 200zM600 650H800V550H600V400L400 600L600 800V650z" />
    <glyph glyph-name="arrow-left-down-fill"
      unicode="&#xEA5B;"
      horiz-adv-x="1200" d="M618 547.5L865.4999999999999 300H299.9000000000001V865.6L547.4 618.1L830.1999999999999 900.95L900.95 830.25z" />
    <glyph glyph-name="arrow-left-down-line"
      unicode="&#xEA5C;"
      horiz-adv-x="1200" d="M450 520.5L880.3499999999999 950.85L951.05 880.15L520.7 449.8000000000001H900V349.8000000000001H350V899.8000000000002H450V520.5500000000001z" />
    <glyph glyph-name="arrow-left-fill"
      unicode="&#xEA5D;"
      horiz-adv-x="1200" d="M600 550V200L200 600L600 1000V650H1000V550z" />
    <glyph glyph-name="arrow-left-line"
      unicode="&#xEA5E;"
      horiz-adv-x="1200" d="M391.4000000000001 650H1000V550H391.4000000000001L659.6 281.8L588.9 211.0999999999999L200 600L588.9 988.9L659.5999999999999 918.2z" />
    <glyph glyph-name="arrow-left-right-fill"
      unicode="&#xEA5F;"
      horiz-adv-x="1200" d="M800 400V600L1050 350L800 100V300H200V400H800zM400 1100V900.05L1000 900V800H400V600L150 850L400 1100z" />
    <glyph glyph-name="arrow-left-right-line"
      unicode="&#xEA60;"
      horiz-adv-x="1200" d="M802.5 597.5L1050 350L802.5 102.5L731.8000000000001 173.2000000000001L858.6 300.0500000000001L200 300V400H858.6L731.8000000000001 526.8L802.5 597.5zM397.5000000000001 1097.5L468.2 1026.8L341.4000000000001 900L1000 900V800H341.4000000000001L468.2 673.2L397.5 602.5L150 850L397.5 1097.5z" />
    <glyph glyph-name="arrow-left-s-fill"
      unicode="&#xEA61;"
      horiz-adv-x="1200" d="M400 600L700 900V300z" />
    <glyph glyph-name="arrow-left-s-line"
      unicode="&#xEA62;"
      horiz-adv-x="1200" d="M541.4 600L788.9 352.5L718.1999999999999 281.8L400 600L718.2 918.2L788.9 847.5z" />
    <glyph glyph-name="arrow-left-up-fill"
      unicode="&#xEA63;"
      horiz-adv-x="1200" d="M618 652.6500000000001L900.9 369.8500000000002L830.1500000000001 299.1000000000002L547.3500000000001 581.9500000000002L299.8500000000002 334.4500000000002V900.15H865.4999999999999z" />
    <glyph glyph-name="arrow-left-up-line"
      unicode="&#xEA64;"
      horiz-adv-x="1200" d="M470.7 800L901.05 369.6500000000001L830.3499999999999 298.95L400 729.3V350H300V900H850V800z" />
    <glyph glyph-name="arrow-right-circle-fill"
      unicode="&#xEA65;"
      horiz-adv-x="1200" d="M600 1100C876 1100 1100 876 1100 600S876 100 600 100S100 324 100 600S324 1100 600 1100zM600 650H400V550H600V400L800 600L600 800V650z" />
    <glyph glyph-name="arrow-right-circle-line"
      unicode="&#xEA66;"
      horiz-adv-x="1200" d="M600 650V800L800 600L600 400V550H400V650H600zM600 1100C876 1100 1100 876 1100 600S876 100 600 100S100 324 100 600S324 1100 600 1100zM600 200C821.0000000000001 200 1000 378.9999999999999 1000 600S821.0000000000001 1000 600 1000S200 821 200 600S379 200 600 200z" />
    <glyph glyph-name="arrow-right-down-fill"
      unicode="&#xEA67;"
      horiz-adv-x="1200" d="M581.85 547.5L299 830.25L369.7 901L652.55 618.15L900 865.65V300H334.35z" />
    <glyph glyph-name="arrow-right-down-line"
      unicode="&#xEA68;"
      horiz-adv-x="1200" d="M729.5 399.8L299.1 830.15L369.8 900.85L800.15 470.55V849.8H900.15V299.8000000000001H350.15V399.8000000000001z" />
    <glyph glyph-name="arrow-right-fill"
      unicode="&#xEA69;"
      horiz-adv-x="1200" d="M600 550H200V650H600V1000L1000 600L600 200z" />
    <glyph glyph-name="arrow-right-line"
      unicode="&#xEA6A;"
      horiz-adv-x="1200" d="M808.6 650L540.4 918.2L611.1 988.9L1000 600L611.1 211.1L540.4000000000001 281.8000000000002L808.6 550H200V650z" />
    <glyph glyph-name="arrow-right-s-fill"
      unicode="&#xEA6B;"
      horiz-adv-x="1200" d="M800 600L500 300V900z" />
    <glyph glyph-name="arrow-right-s-line"
      unicode="&#xEA6C;"
      horiz-adv-x="1200" d="M658.6 600L411.1000000000001 847.5L481.8000000000001 918.2L800 600L481.8 281.8L411.1 352.5z" />
    <glyph glyph-name="arrow-right-up-fill"
      unicode="&#xEA6D;"
      horiz-adv-x="1200" d="M652.5 582L369.7000000000001 299.0999999999999L299.0000000000001 369.8499999999999L581.85 652.6499999999999L334.35 900.1499999999999H900V334.5000000000001z" />
    <glyph glyph-name="arrow-right-up-line"
      unicode="&#xEA6E;"
      horiz-adv-x="1200" d="M800.2 729.3L369.8500000000001 298.95L299.1500000000001 369.6500000000001L729.45 800H350.2V900H900.1999999999999V350H800.1999999999999V729.3z" />
    <glyph glyph-name="arrow-up-circle-fill"
      unicode="&#xEA6F;"
      horiz-adv-x="1200" d="M600 1100C876 1100 1100 876 1100 600S876 100 600 100S100 324 100 600S324 1100 600 1100zM650 600H800L600 800L400 600H550V400H650V600z" />
    <glyph glyph-name="arrow-up-circle-line"
      unicode="&#xEA70;"
      horiz-adv-x="1200" d="M600 1100C876 1100 1100 876 1100 600S876 100 600 100S100 324 100 600S324 1100 600 1100zM600 200C821.0000000000001 200 1000 378.9999999999999 1000 600S821.0000000000001 1000 600 1000S200 821 200 600S379 200 600 200zM650 600V400H550V600H400L600 800L800 600H650z" />
    <glyph glyph-name="arrow-up-down-fill"
      unicode="&#xEA71;"
      horiz-adv-x="1200" d="M600 800H400.05L400 200H300V800H100L350 1050L600 800zM1100 400L850 150L600 400H800V1000H900V400H1100z" />
    <glyph glyph-name="arrow-up-down-line"
      unicode="&#xEA72;"
      horiz-adv-x="1200" d="M597.5 802.5L526.8 731.8L400 858.5999999999999L400 200H300V858.5999999999999L173.25 731.8L102.5 802.5L350 1050L597.5 802.5zM1097.5 397.5L850 150L602.5 397.5L673.2 468.1999999999999L800.0500000000001 341.4L800 1000H900V341.4L1026.8000000000002 468.1999999999999L1097.5000000000002 397.5z" />
    <glyph glyph-name="arrow-up-fill"
      unicode="&#xEA73;"
      horiz-adv-x="1200" d="M650 600V200H550V600H200L600 1000L1000 600z" />
    <glyph glyph-name="arrow-up-line"
      unicode="&#xEA74;"
      horiz-adv-x="1200" d="M650 808.5999999999999V200H550V808.5999999999999L281.8 540.4L211.1 611.1L600 1000L988.9 611.1L918.1999999999998 540.4000000000001L650 808.5999999999999z" />
    <glyph glyph-name="arrow-up-s-fill"
      unicode="&#xEA75;"
      horiz-adv-x="1200" d="M600 800L900 500H300z" />
    <glyph glyph-name="arrow-up-s-line"
      unicode="&#xEA76;"
      horiz-adv-x="1200" d="M600 658.6L352.5 411.1L281.8 481.8000000000001L600 800L918.2 481.8L847.5 411.1z" />
    <glyph glyph-name="artboard-2-fill"
      unicode="&#xEA77;"
      horiz-adv-x="1200" d="M300 900H900V300H300V900zM300 1100H400V950H300V1100zM300 250H400V100H300V250zM100 900H250V800H100V900zM100 400H250V300H100V400zM950 900H1100V800H950V900zM950 400H1100V300H950V400zM800 1100H900V950H800V1100zM800 250H900V100H800V250z" />
    <glyph glyph-name="artboard-2-line"
      unicode="&#xEA78;"
      horiz-adv-x="1200" d="M400 800V400H800V800H400zM300 900H900V300H300V900zM300 1100H400V950H300V1100zM300 250H400V100H300V250zM100 900H250V800H100V900zM100 400H250V300H100V400zM950 900H1100V800H950V900zM950 400H1100V300H950V400zM800 1100H900V950H800V1100zM800 250H900V100H800V250z" />
    <glyph glyph-name="artboard-fill"
      unicode="&#xEA79;"
      horiz-adv-x="1200" d="M429.3 350H150V450H1050V350H770.6999999999999L932.85 187.85L862.15 117.1500000000001L650 329.3V200H550V329.3L337.85 117.1499999999999L267.15 187.8499999999999L429.3 350zM250 1050H950A50 50 0 0 0 1000 1000V500H200V1000A50 50 0 0 0 250 1050z" />
    <glyph glyph-name="artboard-line"
      unicode="&#xEA7A;"
      horiz-adv-x="1200" d="M429.3 350H150V450H1050V350H770.6999999999999L932.85 187.85L862.15 117.1500000000001L650 329.3V200H550V329.3L337.85 117.1499999999999L267.15 187.8499999999999L429.3 350zM250 1050H950A50 50 0 0 0 1000 1000V500H200V1000A50 50 0 0 0 250 1050zM300 950V600H900V950H300z" />
    <glyph glyph-name="article-fill"
      unicode="&#xEA7B;"
      horiz-adv-x="1200" d="M1000 100H200A50 50 0 0 0 150 150V1050A50 50 0 0 0 200 1100H1000A50 50 0 0 0 1050 1050V150A50 50 0 0 0 1000 100zM350 900V700H550V900H350zM350 600V500H850V600H350zM350 400V300H850V400H350zM650 850V750H850V850H650z" />
    <glyph glyph-name="article-line"
      unicode="&#xEA7C;"
      horiz-adv-x="1200" d="M1000 100H200A50 50 0 0 0 150 150V1050A50 50 0 0 0 200 1100H1000A50 50 0 0 0 1050 1050V150A50 50 0 0 0 1000 100zM950 200V1000H250V200H950zM350 900H550V700H350V900zM350 600H850V500H350V600zM350 400H850V300H350V400zM650 850H850V750H650V850z" />
    <glyph glyph-name="aspect-ratio-fill"
      unicode="&#xEA7D;"
      horiz-adv-x="1200" d="M1050 1050A50 50 0 0 0 1100 1000V200A50 50 0 0 0 1050 150H150A50 50 0 0 0 100 200V1000A50 50 0 0 0 150 1050H1050zM900 600H800V450H650V350H900V600zM550 850H300V600H400V750H550V850z" />
    <glyph glyph-name="aspect-ratio-line"
      unicode="&#xEA7E;"
      horiz-adv-x="1200" d="M1050 1050A50 50 0 0 0 1100 1000V200A50 50 0 0 0 1050 150H150A50 50 0 0 0 100 200V1000A50 50 0 0 0 150 1050H1050zM1000 950H200V250H1000V950zM650 350V450H800V600H900V350H650zM550 850V750H400V600H300V850H550z" />
    <glyph glyph-name="asterisk"
      unicode="&#xEA7F;"
      horiz-adv-x="1200" d="M650 1050V686.65L964.7 868.3L1014.7 781.7L700.0500000000001 600.0500000000001L1014.7 418.3000000000001L964.7 331.7000000000001L650 513.4000000000001V150H550V513.4000000000001L235.3 331.7000000000001L185.3 418.3L499.95 600L185.3 781.7L235.3 868.3L550 686.65V1050z" />
    <glyph glyph-name="at-fill"
      unicode="&#xEA80;"
      horiz-adv-x="1200" d="M600 100C323.85 100 100 323.85 100 600S323.85 1100 600 1100S1100 876.15 1100 600S876.15 100 600 100zM1000 600A400 400 0 1 1 801.6 254.45L751.2 340.8A300 300 0 1 0 900 600V550A50 50 0 0 0 800 550V750H732.3000000000001A200 200 0 1 1 735.6 452.9999999999999A150 150 0 0 1 1000 550V600zM600 700A100 100 0 1 0 600 500A100 100 0 0 0 600 700z" />
    <glyph glyph-name="at-line"
      unicode="&#xEA81;"
      horiz-adv-x="1200" d="M1000 600A400 400 0 1 1 821.9 267.15L877.3999999999999 183.9499999999999A497.65 497.65 0 0 0 600 100C323.85 100 100 323.85 100 600S323.85 1100 600 1100S1100 876.15 1100 600V525A175 175 0 0 0 780.1999999999999 426.7000000000001A250 250 0 1 0 750 800H850V525A75 75 0 0 1 1000 525V600zM600 750A150 150 0 1 1 600 450A150 150 0 0 1 600 750z" />
    <glyph glyph-name="attachment-2"
      unicode="&#xEA82;"
      horiz-adv-x="1200" d="M741.4 812.1500000000001L458.6 529.3000000000001A50 50 0 1 1 529.3000000000001 458.6L812.1500000000001 741.4A150 150 0 1 1 600 953.55L317.15 670.6999999999999A250 250 0 1 1 670.6999999999999 317.2000000000001L953.55 600L1024.2500000000002 529.3000000000001L741.4000000000001 246.4500000000001A350 350 0 1 0 246.4000000000001 741.45L529.3000000000001 1024.25A250 250 0 0 0 882.8000000000001 670.7500000000001L600 387.8A150 150 0 1 0 387.85 600L670.6999999999999 882.85L741.4 812.1500000000001z" />
    <glyph glyph-name="attachment-fill"
      unicode="&#xEA83;"
      horiz-adv-x="1200" d="M1049.85 1050.4L1050 149.6000000000001A50 50 0 0 0 1000.35 100H199.65A49.65 49.65 0 0 0 150 149.6000000000001V1050.4A50 50 0 0 0 199.65 1100H1000.15C1027.6 1100 1049.85 1077.8 1049.85 1050.4zM450 550V750A50 50 0 1 0 550 750V550A50 50 0 0 1 650 550V750A150 150 0 0 1 350 750V550A250 250 0 0 1 850 550V800H750V550A150 150 0 0 0 450 550z" />
    <glyph glyph-name="attachment-line"
      unicode="&#xEA84;"
      horiz-adv-x="1200" d="M700 525V800A200 200 0 1 1 300 800V525A325 325 0 1 1 950 525V1000H1050V525A424.99999999999994 424.99999999999994 0 1 0 200 525V800A300 300 0 1 0 800 800V525A175 175 0 0 0 450 525V800H550V525A75 75 0 0 1 700 525z" />
    <glyph glyph-name="auction-fill"
      unicode="&#xEA85;"
      horiz-adv-x="1200" d="M700 200V100H100V200H700zM729.3000000000001 1165.7L1118.2 776.8L1047.5 706L994.5 723.6999999999999L870.65 600L1153.5 317.15L1082.8 246.45L800 529.3000000000001L679.8 409.1L693.9499999999999 352.5L623.1999999999999 281.8L234.3 670.6999999999999L305.05 741.3999999999999L361.55 727.3L676.2499999999999 1041.9499999999998L658.5999999999999 1094.9499999999998L729.3000000000001 1165.7z" />
    <glyph glyph-name="auction-line"
      unicode="&#xEA86;"
      horiz-adv-x="1200" d="M700 200V100H100V200H700zM729.3000000000001 1165.7L1118.2 776.8L1047.5 706L994.5 723.6999999999999L870.65 600L1153.5 317.15L1082.8 246.45L800 529.3000000000001L679.8 409.1L693.9499999999999 352.5L623.1999999999999 281.8L234.3 670.6999999999999L305.05 741.3999999999999L361.55 727.3L676.2499999999999 1041.9499999999998L658.5999999999999 1094.9499999999998L729.3000000000001 1165.7zM764.6500000000001 988.9L411.1000000000001 635.3999999999999L587.85 458.5999999999999L941.4 812.0999999999999L764.6500000000001 988.8999999999997z" />
    <glyph glyph-name="award-fill"
      unicode="&#xEA87;"
      horiz-adv-x="1200" d="M850 437.75V94.1500000000001A25 25 0 0 0 812.15 72.7000000000003L600 200L387.85 72.7000000000001A25 25 0 0 0 350 94.2000000000001V437.7000000000001A400 400 0 1 0 850 437.7000000000001zM600 450A300 300 0 1 1 600 1050A300 300 0 0 1 600 450zM600 550A200 200 0 1 0 600 950A200 200 0 0 0 600 550z" />
    <glyph glyph-name="award-line"
      unicode="&#xEA88;"
      horiz-adv-x="1200" d="M850 437.75V94.1500000000001A25 25 0 0 0 812.15 72.7000000000003L600 200L387.85 72.7000000000001A25 25 0 0 0 350 94.2000000000001V437.7000000000001A400 400 0 1 0 850 437.7000000000001zM450 379.1V226.6L600 316.6L750 226.6V379.1A398.90000000000003 398.90000000000003 0 0 0 600 350A398.90000000000003 398.90000000000003 0 0 0 450 379.1zM600 450A300 300 0 1 1 600 1050A300 300 0 0 1 600 450z" />
    <glyph glyph-name="baidu-fill"
      unicode="&#xEA89;"
      horiz-adv-x="1200" d="M296.35 575.15C399.5 597.3 385.45 720.5999999999999 382.35 747.55C377.3 789.05 328.45 861.6500000000001 262.1 855.9000000000001C178.6 848.4 166.4499999999999 727.85 166.4499999999999 727.85C155.15 672.1 193.4499999999999 553 296.3499999999999 575.15zM405.85 360.75C402.8499999999999 352.1000000000002 396.1 329.9500000000001 401.95 310.6500000000001C413.45 267.35 451.05 265.4 451.05 265.4H505.05V397.4H447.2000000000001C421.2000000000001 389.7000000000001 408.7000000000001 369.45 405.85 360.75zM487.7499999999999 781.85C544.75 781.85 590.75 847.45 590.75 928.5C590.75 1009.5 544.75 1075 487.7499999999999 1075C430.8999999999999 1075 384.75 1009.5 384.75 928.5C384.75 847.45 430.8999999999999 781.85 487.7499999999999 781.85zM733.15 772.2C809.2499999999999 762.3 858.2 843.55 867.95 905.15C877.9000000000002 966.65 828.7500000000001 1038.05 774.8500000000001 1050.35C720.8500000000001 1062.75 653.4000000000001 976.2 647.2500000000001 919.85C639.9000000000001 850.85 657.1 781.95 733.1500000000001 772.2zM733.15 599.8000000000001C639.9 745.05 507.5 685.95 463.15 612.05C419.1 538.1999999999999 350.35 491.55 340.6 479.15C330.7 466.95 198.3 395.5 227.7 264.95C257.05 134.5 360.3 136.9500000000001 360.3 136.9500000000001S436.35 129.4500000000001 524.5999999999999 149.25C612.9 168.8 688.9 144.3499999999999 688.9 144.3499999999999S895.15 75.3500000000001 951.55 208.25C1007.95 341.25 919.7 410.15 919.7 410.15S801.8999999999999 501.3 733.0999999999999 599.8zM432.7500000000001 212.3000000000001C374.8500000000001 223.8500000000001 351.8000000000001 263.3500000000002 348.9000000000001 270.1C346.0500000000001 276.9500000000001 329.6000000000001 308.7 338.3000000000001 362.7500000000001C363.3000000000001 443.7000000000002 434.6500000000001 449.5000000000001 434.6500000000001 449.5000000000001H506.0500000000001V537.25L566.8000000000001 536.2500000000001V212.3000000000001H432.8000000000002zM662.25 213.25C602.45 228.65 599.7 271.1500000000001 599.7 271.1500000000001V441.75L662.25 442.75V289.4500000000001C666.1 273.0500000000001 686.4000000000001 270.1 686.4000000000001 270.1H749.9500000000002V441.75H816.5500000000002V213.25H662.2500000000001zM1034.95 668.75C1034.95 698.25 1010.4500000000002 786.95 919.7 786.95C828.7500000000001 786.95 816.6 703.2 816.6 644C816.6 587.5 821.35 508.6500000000001 934.3 511.1500000000001C1047.3 513.6500000000001 1034.9499999999998 639.1500000000001 1034.9499999999998 668.75z" />
    <glyph glyph-name="baidu-line"
      unicode="&#xEA8A;"
      horiz-adv-x="1200" d="M378.2 236A484.49999999999994 484.49999999999994 0 0 1 503 246.8499999999999A440 440 0 0 0 652 253.3999999999999C679.35 250.0499999999999 701.25 245.15 716.4000000000001 240.5499999999999C770.3000000000001 226.7999999999999 846.9000000000001 229.3999999999999 866.6500000000001 261.0499999999999C881.2000000000002 284.4499999999998 879.3000000000001 300.3999999999998 865.3500000000001 320.9999999999999A94.3 94.3 0 0 1 854.7500000000001 334A1250.3 1250.3 0 0 0 817.6000000000001 364.8999999999999A1280.9 1280.9 0 0 0 729.9500000000002 447.8999999999999A807.55 807.55 0 0 0 651.1000000000001 542.55L649.3000000000002 545.2C612.2000000000002 602.15 571.4000000000002 598.55 549.2000000000003 561.05A480.2 480.2 0 0 0 501.4500000000003 494.5C480.9500000000003 470.4000000000001 459.9500000000003 450 436.2000000000003 429.65C430.0500000000003 424.4 411.0500000000003 408.65 415.6000000000003 412.4500000000001C415.4000000000003 412.3000000000001 414.7500000000003 411.7000000000001 418.1500000000003 416C413.2500000000003 410 370.6500000000003 372.1500000000001 358.1500000000003 357.9000000000001C332.4000000000003 328.7500000000001 322.0000000000003 303.9000000000001 325.9000000000002 283.9000000000001C329.5000000000003 265.1 336.8500000000003 254.5500000000001 348.4000000000002 246.65A71.6 71.6 0 0 1 372.4000000000002 236.35L378.2000000000002 236zM733.0999999999999 599.8C801.9 501.3 919.7 410.15 919.7 410.15S1022.85 322.7499999999999 951.55 208.25C880.25 93.75 688.9 144.3499999999999 688.9 144.3499999999999S612.9 168.8499999999999 524.5999999999999 149.25C436.3499999999999 129.5 360.3 137 360.3 137S250 149.25 227.7 264.95C205.4 380.65 330.7000000000001 466.9499999999999 340.6 479.1499999999999C350.35 491.4999999999999 416.2 532.8 463.2 612.0499999999998C510.1999999999999 691.3499999999999 642.35 739.05 733.0999999999999 599.8zM1010.05 670.8C1010.05 647.8999999999999 1019.55 551.15 932.4 549.1999999999999C845.3 547.3 841.6 608.0999999999999 841.6 651.6999999999999C841.6 697.3499999999999 851 761.9499999999999 921.1 761.9499999999999C991.1 761.9499999999999 1010.05 693.5 1010.05 670.75zM738.5500000000001 809.6499999999999C679.5500000000001 817.25 666.2 870.75 671.9 924.3C676.7 968.05 729.0500000000001 1035.25 770.95 1025.6C812.8 1016.1 850.95 960.6 843.2500000000001 912.9C835.7000000000002 865.05 797.7000000000002 802 738.5500000000002 809.65zM487.7500000000001 828C444.7500000000001 828 409.75 877.65 409.75 939C409.75 1000.35 444.7 1050 487.7500000000001 1050C530.9 1050 565.7500000000001 1000.35 565.7500000000001 939C565.7500000000001 877.65 530.9000000000001 828 487.7500000000001 828zM298.1 599.7C213.35 581.4499999999999 181.8000000000001 679.55 191.1 725.45C191.1 725.45 201.1 824.8 269.9000000000001 830.95C324.55 835.7 364.8 775.9000000000001 368.9500000000001 741.7C371.5000000000001 719.5 383.1 617.95 298.1 599.7z" />
    <glyph glyph-name="ball-pen-fill"
      unicode="&#xEA8B;"
      horiz-adv-x="1200" d="M892.45 609.6L857.1 644.95L362.1 149.9500000000001H150V362.1000000000003L715.65 927.8L998.5 644.95A50 50 0 0 0 998.5 574.2500000000001L644.9999999999999 220.7000000000001L574.25 291.4000000000001L892.45 609.6000000000001zM927.8 1069.2L1069.25 927.8A50 50 0 0 0 1069.25 857.1000000000001L998.5 786.35L786.4 998.5L857.1 1069.2A50 50 0 0 0 927.8 1069.2z" />
    <glyph glyph-name="ball-pen-line"
      unicode="&#xEA8C;"
      horiz-adv-x="1200" d="M892.45 609.6L857.1 644.95L362.1 149.9500000000001H150V362.1000000000003L715.65 927.8L998.5 644.95A50 50 0 0 0 998.5 574.2500000000001L644.9999999999999 220.7000000000001L574.25 291.4000000000001L892.45 609.6000000000001zM786.4 715.6500000000001L715.65 786.35L250 320.7000000000001V249.9500000000002H320.7L786.4 715.6500000000001zM927.8 1069.2L1069.25 927.8A50 50 0 0 0 1069.25 857.1000000000001L998.5 786.35L786.4 998.5L857.1 1069.2A50 50 0 0 0 927.8 1069.2z" />
    <glyph glyph-name="bank-card-2-fill"
      unicode="&#xEA8D;"
      horiz-adv-x="1200" d="M1100 650V200A50 50 0 0 0 1050 150H150A50 50 0 0 0 100 200V650H1100zM1100 850H100V1000A50 50 0 0 0 150 1050H1050A50 50 0 0 0 1100 1000V850z" />
    <glyph glyph-name="bank-card-2-line"
      unicode="&#xEA8E;"
      horiz-adv-x="1200" d="M150 1050H1050A50 50 0 0 0 1100 1000V200A50 50 0 0 0 1050 150H150A50 50 0 0 0 100 200V1000A50 50 0 0 0 150 1050zM1000 600H200V250H1000V600zM1000 800V950H200V800H1000z" />
    <glyph glyph-name="bank-card-fill"
      unicode="&#xEA8F;"
      horiz-adv-x="1200" d="M1100 700V200A50 50 0 0 0 1050 150H150A50 50 0 0 0 100 200V700H1100zM1100 800H100V1000A50 50 0 0 0 150 1050H1050A50 50 0 0 0 1100 1000V800zM750 400V300H950V400H750z" />
    <glyph glyph-name="bank-card-line"
      unicode="&#xEA90;"
      horiz-adv-x="1200" d="M150 1050H1050A50 50 0 0 0 1100 1000V200A50 50 0 0 0 1050 150H150A50 50 0 0 0 100 200V1000A50 50 0 0 0 150 1050zM1000 650H200V250H1000V650zM1000 750V950H200V750H1000zM700 450H900V350H700V450z" />
    <glyph glyph-name="bank-fill"
      unicode="&#xEA91;"
      horiz-adv-x="1200" d="M100 200H1100V100H100V200zM200 600H300V250H200V600zM450 600H550V250H450V600zM650 600H750V250H650V600zM900 600H1000V250H900V600zM100 850L600 1100L1100 850V650H100V850zM600 800A50 50 0 1 1 600 900A50 50 0 0 1 600 800z" />
    <glyph glyph-name="bank-line"
      unicode="&#xEA92;"
      horiz-adv-x="1200" d="M100 200H1100V100H100V200zM200 600H300V250H200V600zM450 600H550V250H450V600zM650 600H750V250H650V600zM900 600H1000V250H900V600zM100 850L600 1100L1100 850V650H100V850zM200 788.2V750H1000V788.2L600 988.2L200 788.2zM600 800A50 50 0 1 0 600 900A50 50 0 0 0 600 800z" />
    <glyph glyph-name="bar-chart-2-fill"
      unicode="&#xEA93;"
      horiz-adv-x="1200" d="M100 550H400V150H100V550zM450 1050H750V150H450V1050zM800 800H1100V150H800V800z" />
    <glyph glyph-name="bar-chart-2-line"
      unicode="&#xEA94;"
      horiz-adv-x="1200" d="M100 550H400V150H100V550zM800 800H1100V150H800V800zM450 1050H750V150H450V1050zM200 450V250H300V450H200zM550 950V250H650V950H550zM900 700V250H1000V700H900z" />
    <glyph glyph-name="bar-chart-box-fill"
      unicode="&#xEA95;"
      horiz-adv-x="1200" d="M150 1050H1050A50 50 0 0 0 1100 1000V200A50 50 0 0 0 1050 150H150A50 50 0 0 0 100 200V1000A50 50 0 0 0 150 1050zM350 550V350H450V550H350zM550 850V350H650V850H550zM750 700V350H850V700H750z" />
    <glyph glyph-name="bar-chart-box-line"
      unicode="&#xEA96;"
      horiz-adv-x="1200" d="M150 1050H1050A50 50 0 0 0 1100 1000V200A50 50 0 0 0 1050 150H150A50 50 0 0 0 100 200V1000A50 50 0 0 0 150 1050zM200 950V250H1000V950H200zM350 550H450V350H350V550zM550 850H650V350H550V850zM750 700H850V350H750V700z" />
    <glyph glyph-name="bar-chart-fill"
      unicode="&#xEA97;"
      horiz-adv-x="1200" d="M150 600H350V150H150V600zM850 800H1050V150H850V800zM500 1100H700V150H500V1100z" />
    <glyph glyph-name="bar-chart-grouped-fill"
      unicode="&#xEA98;"
      horiz-adv-x="1200" d="M100 600H200V150H100V600zM250 500H350V150H250V500zM800 800H900V150H800V800zM950 700H1050V150H950V700zM450 1100H550V150H450V1100zM600 1000H700V150H600V1000z" />
    <glyph glyph-name="bar-chart-grouped-line"
      unicode="&#xEA99;"
      horiz-adv-x="1200" d="M100 600H200V150H100V600zM250 500H350V150H250V500zM800 800H900V150H800V800zM950 700H1050V150H950V700zM450 1100H550V150H450V1100zM600 1000H700V150H600V1000z" />
    <glyph glyph-name="bar-chart-horizontal-fill"
      unicode="&#xEA9A;"
      horiz-adv-x="1200" d="M600 1050V850H150V1050H600zM800 350V150H150V350H800zM1100 700V500H150V700H1100z" />
    <glyph glyph-name="bar-chart-horizontal-line"
      unicode="&#xEA9B;"
      horiz-adv-x="1200" d="M600 1050V950H150V1050H600zM800 250V150H150V250H800zM1100 650V550H150V650H1100z" />
    <glyph glyph-name="bar-chart-line"
      unicode="&#xEA9C;"
      horiz-adv-x="1200" d="M150 600H250V150H150V600zM950 800H1050V150H950V800zM550 1100H650V150H550V1100z" />
    <glyph glyph-name="barcode-box-fill"
      unicode="&#xEA9D;"
      horiz-adv-x="1200" d="M150 1050H1050A50 50 0 0 0 1100 1000V200A50 50 0 0 0 1050 150H150A50 50 0 0 0 100 200V1000A50 50 0 0 0 150 1050zM300 850V350H450V850H300zM500 850V350H600V850H500zM650 850V350H700V850H650zM750 850V350H900V850H750z" />
    <glyph glyph-name="barcode-box-line"
      unicode="&#xEA9E;"
      horiz-adv-x="1200" d="M200 950V250H1000V950H200zM150 1050H1050A50 50 0 0 0 1100 1000V200A50 50 0 0 0 1050 150H150A50 50 0 0 0 100 200V1000A50 50 0 0 0 150 1050zM300 850H450V350H300V850zM500 850H600V350H500V850zM650 850H700V350H650V850zM750 850H900V350H750V850z" />
    <glyph glyph-name="barcode-fill"
      unicode="&#xEA9F;"
      horiz-adv-x="1200" d="M100 1000H200V200H100V1000zM300 1000H400V200H300V1000zM450 1000H600V200H450V1000zM650 1000H750V200H650V1000zM800 1000H900V200H800V1000zM950 1000H1100V200H950V1000z" />
    <glyph glyph-name="barcode-line"
      unicode="&#xEAA0;"
      horiz-adv-x="1200" d="M100 1000H200V200H100V1000zM300 1000H350V200H300V1000zM400 1000H500V200H400V1000zM550 1000H650V200H550V1000zM700 1000H800V200H700V1000zM850 1000H900V200H850V1000zM950 1000H1100V200H950V1000z" />
    <glyph glyph-name="barricade-fill"
      unicode="&#xEAA1;"
      horiz-adv-x="1200" d="M977.8 250H1050V150H150V250H222.2L266.7 450H933.3500000000003L977.8 250zM866.6499999999999 750L911.15 550H288.85L333.3 750H866.6zM844.4499999999999 850H355.5L391.25 1010.85A50 50 0 0 0 440.1 1050H759.9A50 50 0 0 0 808.6999999999999 1010.85L844.4499999999999 850z" />
    <glyph glyph-name="barricade-line"
      unicode="&#xEAA2;"
      horiz-adv-x="1200" d="M324.6500000000001 250H875.3499999999999L841.9999999999998 400H358L324.6500000000001 250zM977.8 250H1050V150H150V250H222.2L391.3 1010.85A50 50 0 0 0 440.1 1050H759.9A50 50 0 0 0 808.6999999999999 1010.85L977.8 250zM380.2 500H819.8000000000001L775.3 700H424.7L380.25 500zM446.9000000000001 800H753.1L719.8000000000001 950H480.1999999999999L446.8999999999999 800z" />
    <glyph glyph-name="base-station-fill"
      unicode="&#xEAA3;"
      horiz-adv-x="1200" d="M600 550L900 100H300L600 550zM547 672A75 75 0 1 0 652.9999999999999 778A75 75 0 0 0 546.9999999999999 671.9999999999999zM264.05 1060.85L334.8 990.1A375 375 0 0 1 334.8 459.8L264.05 389.05A474.99999999999994 474.99999999999994 0 0 0 264.05 1060.85zM935.85 1060.85A474.99999999999994 474.99999999999994 0 0 0 935.85 389.05L865.1 459.8A375 375 0 0 1 865.1 990.1L935.85 1060.85zM405.5 919.45L476.1999999999999 848.75A175 175 0 0 1 476.1999999999999 601.25L405.5 530.5500000000001A275 275 0 0 0 405.5 919.45zM794.3999999999999 919.45A275 275 0 0 0 794.3999999999999 530.5500000000001L723.6999999999999 601.25A175 175 0 0 1 723.6999999999999 848.75L794.3999999999999 919.45z" />
    <glyph glyph-name="base-station-line"
      unicode="&#xEAA4;"
      horiz-adv-x="1200" d="M600 550L900 100H300L600 550zM600 369.9999999999999L487 200H713L600 369.9999999999999zM547 671.9999999999999A75 75 0 1 0 652.9999999999999 778A75 75 0 0 0 546.9999999999999 671.9999999999999zM264.05 1060.85L334.8 990.1A375 375 0 0 1 334.8 459.8L264.05 389.05A474.99999999999994 474.99999999999994 0 0 0 264.05 1060.85zM935.85 1060.85A474.99999999999994 474.99999999999994 0 0 0 935.85 389.05L865.1 459.8A375 375 0 0 1 865.1 990.1L935.85 1060.85zM405.5 919.45L476.1999999999999 848.75A175 175 0 0 1 476.1999999999999 601.25L405.5 530.5500000000001A275 275 0 0 0 405.5 919.45zM794.3999999999999 919.45A275 275 0 0 0 794.3999999999999 530.5500000000001L723.6999999999999 601.25A175 175 0 0 1 723.6999999999999 848.75L794.3999999999999 919.45z" />
    <glyph glyph-name="basketball-fill"
      unicode="&#xEAA5;"
      horiz-adv-x="1200" d="M618.3 531.7L707.05 480.45A499 499 0 0 1 691.5 108.4500000000001A495.55 495.55 0 0 0 600 100A498.2 498.2 0 0 0 394.5 144L618.3 531.6999999999999zM794.15 430.1L1005.85 307.9000000000001A501.65 501.65 0 0 0 787.6999999999999 136.4000000000001A399.40000000000003 399.40000000000003 0 0 0 788.0999999999998 414.9000000000001L794.1499999999999 430.1000000000002zM443 632.9L531.75 581.7L307.95 194.2000000000001A501.3 501.3 0 0 0 128.45 433.4500000000001A498.9 498.9 0 0 1 432.7 619.1L443 632.9000000000001zM1095.3 669.2C1098.4499999999998 646.5500000000001 1100.05 623.45 1100.05 600A498.2 498.2 0 0 0 1056.05 394.5L844.2499999999999 516.75A399.25 399.25 0 0 0 1087.55 667.8000000000001L1095.3 669.2000000000002zM144.05 805.45L355.8 683.1999999999999A399.5 399.5 0 0 0 104.75 530.7A507.00000000000006 507.00000000000006 0 0 0 100 600C100 673.25 115.75 742.8 144 805.5zM892.0999999999999 1005.85A501.3 501.3 0 0 0 1071.6 766.6A499.25 499.25 0 0 1 767.3 580.85L757.05 567.0500000000001L668.2999999999998 618.3000000000001L892.0999999999999 1005.8zM600 1100C673.25 1100 742.8 1084.25 805.5 1056L581.7 668.3L492.95 719.5A499 499 0 0 1 508.5 1091.6000000000001A496.1 496.1 0 0 0 600 1100zM412.35 1063.5A399.6 399.6 0 0 0 411.85 785L405.85 769.8499999999999L194.15 892.0999999999999A501.8 501.8 0 0 0 402.35 1059.3999999999999L412.35 1063.55z" />
    <glyph glyph-name="basketball-line"
      unicode="&#xEAA6;"
      horiz-adv-x="1200" d="M600 1100C876.15 1100 1100 876.15 1100 600S876.15 100 600 100S100 323.85 100 600S323.85 1100 600 1100zM618.3 531.7L444.85 231.2000000000002A402.65000000000003 402.65000000000003 0 0 1 667.8 205.7000000000001A496.84999999999997 496.84999999999997 0 0 0 707 480.4L618.3 531.7zM794.2 430.15A397.80000000000007 397.80000000000007 0 0 1 764.85 235.45A401.1 401.1 0 0 1 918.7000000000002 358.25L794.2000000000002 430.15zM442.95 632.9A497.49999999999994 497.49999999999994 0 0 0 224.7 461.5A400.5 400.5 0 0 1 358.25 281.3000000000001L531.6999999999999 581.7L442.95 632.9000000000001zM998.1 639.4L985.2 633.4000000000001A397.35 397.35 0 0 1 844.2 516.75L968.8 444.8000000000001A398.74999999999994 398.74999999999994 0 0 1 998.1 639.45zM200 600C200 586.7 200.65 573.5 201.9 560.5500000000001A397.5 397.5 0 0 1 355.8 683.25L231.2 755.15A398.74999999999994 398.74999999999994 0 0 1 200 600zM841.75 918.7L668.3000000000001 618.3L757.0500000000001 567.05A497.49999999999994 497.49999999999994 0 0 0 975.35 738.55A400.75 400.75 0 0 1 854.4000000000001 908.65L841.75 918.7zM600 1000C576.85 1000 554.1999999999999 998 532.1500000000001 994.25A496.40000000000003 496.40000000000003 0 0 0 492.95 719.55L581.7 668.3L755.15 968.8A398.74999999999994 398.74999999999994 0 0 1 600 1000zM435.15 964.5L425.5999999999999 960.1A401.65 401.65 0 0 1 281.3 841.75L405.8 769.85A397.80000000000007 397.80000000000007 0 0 1 435.15 964.5z" />
    <glyph glyph-name="battery-2-charge-fill"
      unicode="&#xEAA7;"
      horiz-adv-x="1200" d="M450 1000V1050A50 50 0 0 0 500 1100H700A50 50 0 0 0 750 1050V1000H900A50 50 0 0 0 950 950V150A50 50 0 0 0 900 100H300A50 50 0 0 0 250 150V950A50 50 0 0 0 300 1000H450zM650 600V850L400 500H550V250L800 600H650z" />
    <glyph glyph-name="battery-2-charge-line"
      unicode="&#xEAA8;"
      horiz-adv-x="1200" d="M650 600H800L550 250V500H400L650 850V600zM550 900H350V200H850V900H650V1000H550V900zM450 1000V1050A50 50 0 0 0 500 1100H700A50 50 0 0 0 750 1050V1000H900A50 50 0 0 0 950 950V150A50 50 0 0 0 900 100H300A50 50 0 0 0 250 150V950A50 50 0 0 0 300 1000H450z" />
    <glyph glyph-name="battery-2-fill"
      unicode="&#xEAA9;"
      horiz-adv-x="1200" d="M450 1000V1050A50 50 0 0 0 500 1100H700A50 50 0 0 0 750 1050V1000H900A50 50 0 0 0 950 950V150A50 50 0 0 0 900 100H300A50 50 0 0 0 250 150V950A50 50 0 0 0 300 1000H450z" />
    <glyph glyph-name="battery-2-line"
      unicode="&#xEAAA;"
      horiz-adv-x="1200" d="M550 900H350V200H850V900H650V1000H550V900zM450 1000V1050A50 50 0 0 0 500 1100H700A50 50 0 0 0 750 1050V1000H900A50 50 0 0 0 950 950V150A50 50 0 0 0 900 100H300A50 50 0 0 0 250 150V950A50 50 0 0 0 300 1000H450z" />
    <glyph glyph-name="battery-charge-fill"
      unicode="&#xEAAB;"
      horiz-adv-x="1200" d="M600 650V950L350 550H500V250L750 650H600zM150 950H950A50 50 0 0 0 1000 900V300A50 50 0 0 0 950 250H150A50 50 0 0 0 100 300V900A50 50 0 0 0 150 950zM1050 750H1150V450H1050V750z" />
    <glyph glyph-name="battery-charge-line"
      unicode="&#xEAAC;"
      horiz-adv-x="1200" d="M400 250H150A50 50 0 0 0 100 300V900A50 50 0 0 0 150 950H481.25L422.9000000000001 850H200V350H400V250zM618.75 250L677.1 350H900V850H700V950H950A50 50 0 0 0 1000 900V300A50 50 0 0 0 950 250H618.75zM1050 750H1150V450H1050V750zM600 650H750L500 250V550H350L600 950V650z" />
    <glyph glyph-name="battery-fill"
      unicode="&#xEAAD;"
      horiz-adv-x="1200" d="M150 950H950A50 50 0 0 0 1000 900V300A50 50 0 0 0 950 250H150A50 50 0 0 0 100 300V900A50 50 0 0 0 150 950zM1050 750H1150V450H1050V750z" />
    <glyph glyph-name="battery-line"
      unicode="&#xEAAE;"
      horiz-adv-x="1200" d="M200 850V350H900V850H200zM150 950H950A50 50 0 0 0 1000 900V300A50 50 0 0 0 950 250H150A50 50 0 0 0 100 300V900A50 50 0 0 0 150 950zM1050 750H1150V450H1050V750z" />
    <glyph glyph-name="battery-low-fill"
      unicode="&#xEAAF;"
      horiz-adv-x="1200" d="M150 950H950A50 50 0 0 0 1000 900V300A50 50 0 0 0 950 250H150A50 50 0 0 0 100 300V900A50 50 0 0 0 150 950zM250 800V400H450V800H250zM1050 750H1150V450H1050V750z" />
    <glyph glyph-name="battery-low-line"
      unicode="&#xEAB0;"
      horiz-adv-x="1200" d="M200 850V350H900V850H200zM150 950H950A50 50 0 0 0 1000 900V300A50 50 0 0 0 950 250H150A50 50 0 0 0 100 300V900A50 50 0 0 0 150 950zM250 800H450V400H250V800zM1050 750H1150V450H1050V750z" />
    <glyph glyph-name="battery-saver-fill"
      unicode="&#xEAB1;"
      horiz-adv-x="1200" d="M700 1100A50 50 0 0 0 750 1050V1000H900A50 50 0 0 0 950 950V150A50 50 0 0 0 900 100H300A50 50 0 0 0 250 150V950A50 50 0 0 0 300 1000H450V1050A50 50 0 0 0 500 1100H700zM650 750H550V600H400V500H550V350H650V500H800V600H650V750z" />
    <glyph glyph-name="battery-saver-line"
      unicode="&#xEAB2;"
      horiz-adv-x="1200" d="M700 1100A50 50 0 0 0 750 1050V1000H900A50 50 0 0 0 950 950V150A50 50 0 0 0 900 100H300A50 50 0 0 0 250 150V950A50 50 0 0 0 300 1000H450V1050A50 50 0 0 0 500 1100H700zM650 1000H550V900H350V200H850V900H650V1000zM650 750V600H800V500H650V350H550V500H400V600H550V750H650z" />
    <glyph glyph-name="battery-share-fill"
      unicode="&#xEAB3;"
      horiz-adv-x="1200" d="M700 1100A50 50 0 0 0 750 1050V1000H900A50 50 0 0 0 950 950V640L750 800V650H700C592.9 650 500 560.5 500 450V300H600V450C600 502.5 647.5 550 700 550H750V400L950 560V150A50 50 0 0 0 900 100H300A50 50 0 0 0 250 150V950A50 50 0 0 0 300 1000H450V1050A50 50 0 0 0 500 1100H700z" />
    <glyph glyph-name="battery-share-line"
      unicode="&#xEAB4;"
      horiz-adv-x="1200" d="M700 1100A50 50 0 0 0 750 1050V1000H900A50 50 0 0 0 950 950V850H850V900H650V1000H550V900H350V200H850V350H950V150A50 50 0 0 0 900 100H300A50 50 0 0 0 250 150V950A50 50 0 0 0 300 1000H450V1050A50 50 0 0 0 500 1100H700zM750 800L1000 600L750 400V550H700C647.3 550 600 502.5 600 450V300H500V450A200 200 0 0 0 700 650H750V800z" />
    <glyph glyph-name="bear-smile-fill"
      unicode="&#xEAB5;"
      horiz-adv-x="1200" d="M875 1100A225 225 0 0 0 1022.55 705.15C1040.3 656.8 1050 604.5 1050 550A450 450 0 1 0 177.5 705.15A225 225 0 1 0 517.0500000000001 992.35A452.50000000000006 452.50000000000006 0 0 0 683.0500000000001 992.35A224.70000000000002 224.70000000000002 0 0 0 875 1100zM500 550H400A200 200 0 0 1 799.75 540L800 550H700A100 100 0 0 0 500.2499999999999 542.5L500 550z" />
    <glyph glyph-name="bear-smile-line"
      unicode="&#xEAB6;"
      horiz-adv-x="1200" d="M875 1100A225 225 0 0 0 1022.55 705.15C1040.3 656.8 1050 604.5 1050 550A450 450 0 1 0 177.5 705.15A225 225 0 1 0 517.0500000000001 992.35A452.50000000000006 452.50000000000006 0 0 0 683.0500000000001 992.35A224.70000000000002 224.70000000000002 0 0 0 875 1100zM875 1000C833.85 1000 796.25 980 773.1 947.4L768.3499999999999 940.2L732.4499999999999 881.4L664.6999999999999 894.05A352.5 352.5 0 0 1 551.3499999999999 896.65L535.55 894.05L467.7499999999999 881.3L431.7499999999999 940.1A125 125 0 1 1 236.5000000000001 786.75L243.0500000000001 780.6L295.1 735.4000000000001L271.3500000000001 670.65A350 350 0 1 1 950 550C950 585.8 944.65 620.8000000000001 934.3 654.15L928.7 670.65L904.95 735.4000000000001L956.95 780.6A125 125 0 0 1 875 1000zM500 550A100 100 0 1 1 700 550H800A200 200 0 1 0 400 550H500z" />
    <glyph glyph-name="behance-fill"
      unicode="&#xEAB7;"
      horiz-adv-x="1200" d="M372.15 932.5C404.1 932.5 433.65 930 460.65 922.6A191.5 191.5 0 0 0 529.5 895.4C549.2 883.05 563.95 865.6999999999999 573.75 843.45C583.5999999999999 821.2 588.5 793.95 588.5 764.3C588.5 729.65 581.15 700 563.95 677.75C549.2 655.45 524.5999999999999 635.7 495.1 620.85C536.9 608.45 568.8499999999999 586.2 588.5 556.55C608.1999999999999 526.85 620.5 489.75 620.5 447.7000000000001C620.5 413.0500000000001 613.1 383.4 600.8 358.6500000000001C588.5 333.9000000000001 568.85 311.65 546.6999999999999 296.8A253.9 253.9 0 0 0 468.05 262.2000000000001C438.55 254.75 409.05 249.8 379.55 249.8H50V932.5H372.15zM352.45 655.5C379.5 655.5 401.65 662.9 418.85 675.25C436.0499999999999 687.5999999999999 443.45 709.8999999999999 443.45 737.0999999999999C443.45 751.95 440.95 766.8 436.05 776.65C431.15 786.55 423.75 794 413.95 801.4C404.1 806.3499999999999 394.25 811.3 381.95 813.75C369.6500000000001 816.25 357.4000000000001 816.25 342.6 816.25H200V655.4499999999999H352.5zM359.85 363.5999999999999C374.6 363.5999999999999 389.35 366.0999999999999 401.65 368.55A86 86 0 0 1 436.05 383.4A88 88 0 0 1 460.65 410.6C465.5500000000001 422.95 470.5 437.8 470.5 455.1C470.5 489.75 460.65 514.5 441 531.8000000000001C421.3 546.6500000000001 394.25 554.0500000000001 362.3 554.0500000000001H200V363.5500000000001H359.85zM834.45 366.0999999999999C854.1 346.3 883.6 336.3999999999999 922.95 336.3999999999999C950 336.3999999999999 974.6 343.7999999999999 994.2499999999998 356.1499999999999C1013.9499999999998 370.9999999999999 1026.25 385.8499999999999 1031.1499999999999 400.7H1151.6499999999999C1131.95 341.3499999999999 1102.45 299.2999999999999 1063.1499999999999 272.0999999999998C1023.7499999999998 247.3499999999998 977.0499999999998 232.4999999999998 920.4999999999998 232.4999999999998A287.65000000000003 287.65000000000003 0 0 0 814.7499999999998 252.2999999999999A196.5 196.5 0 0 0 736.0499999999997 306.6999999999998A196.5 196.5 0 0 0 686.8999999999997 388.3499999999998C674.5999999999997 420.4999999999998 669.6499999999996 455.0999999999998 669.6499999999996 494.6999999999997C669.6499999999996 531.7999999999997 674.5999999999997 566.3999999999997 686.8999999999997 598.5999999999997A267 267 0 0 0 738.4999999999997 682.6999999999997C760.6499999999996 704.9499999999998 787.6999999999997 724.6999999999997 817.1999999999997 737.0999999999997A274.50000000000006 274.50000000000006 0 0 0 920.4999999999995 756.8999999999997C962.2999999999996 756.8999999999997 999.1999999999998 749.4499999999998 1031.1499999999996 732.1499999999997C1063.1499999999996 714.8499999999997 1087.6999999999998 695.0499999999998 1107.3999999999996 665.3499999999998A300.5 300.5 0 0 0 1151.6499999999996 571.3499999999998C1156.5499999999997 536.7499999999998 1158.9999999999995 502.0999999999998 1156.5499999999997 462.5499999999998H800C800 422.9499999999998 814.7500000000001 385.8499999999998 834.45 366.0499999999998zM989.35 625.8C972.1499999999997 643.0999999999999 945.1 652.9999999999999 913.1 652.9999999999999C891 652.9999999999999 873.7500000000001 648.05 859 640.65C844.2499999999999 633.1999999999999 834.45 623.3 824.6 613.4A66.1 66.1 0 0 1 807.4 578.8C804.9 566.4 802.4499999999999 556.55 802.4499999999999 546.6499999999999H1023.7500000000002C1018.8500000000003 583.7499999999999 1006.55 608.4499999999999 989.3500000000003 625.8zM772.9499999999999 885.5H1048.35V818.7H773V885.5z" />
    <glyph glyph-name="behance-line"
      unicode="&#xEAB8;"
      horiz-adv-x="1200" d="M375 650A100 100 0 1 1 375 850H150V650H375zM425 550H150V350H425A100 100 0 1 1 425 550zM528.15 621.4000000000001A200 200 0 0 0 425 250H50V950H375A200 200 0 0 0 528.15 621.4000000000001zM775 900H1050V825H775V900zM1150 475H775V462.5A137.5 137.5 0 0 1 1035 400H1141.7A237.60000000000002 237.60000000000002 0 0 0 675 462.5V537.5A237.49999999999997 237.49999999999997 0 1 0 1150 537.5V475zM1044.8 575A137.54999999999998 137.54999999999998 0 0 1 780.2 575H1044.8z" />
    <glyph glyph-name="bell-fill"
      unicode="&#xEAB9;"
      horiz-adv-x="1200" d="M670.6999999999999 670.6999999999999L694.7 646.4L717.95 622.15L740.9 597.5500000000001C913.8 409.35 1014.5 236.65 971.25 193.4000000000001C951.2500000000002 173.4000000000001 903.45 184.2000000000001 839.25 218.7500000000002A450.3 450.3 0 0 0 319.1 248.3500000000002L468.1 397.3500000000002A100 100 0 1 1 395.6 475.8000000000001L397.35 468.0500000000001L248.4 319.0500000000002A450.34999999999997 450.34999999999997 0 0 0 218.8 839.3000000000002C184.2 903.4500000000002 173.4 951.2000000000002 193.4 971.2500000000002C242.2500000000001 1020.0500000000002 455.9 885.5000000000001 670.6999999999999 670.7500000000001zM988.9 988.9A100 100 0 0 0 980.6999999999998 840.0999999999999A450.74999999999994 450.74999999999994 0 0 0 1011.0499999999998 416.5999999999999C951.5999999999998 514.3 857.5499999999998 625.3 741.3999999999997 741.4L714.5499999999997 768C608.1499999999997 871.95 506.7499999999997 956.2 416.6499999999998 1011A450.74999999999994 450.74999999999994 0 0 0 840.1999999999997 980.65A100 100 0 0 0 988.8999999999997 988.9z" />
    <glyph glyph-name="bell-line"
      unicode="&#xEABA;"
      horiz-adv-x="1200" d="M706.0500000000001 706.05C920.8500000000003 491.3000000000001 1047.5 269.6500000000001 988.9 211.05C965.1499999999997 187.35 914.6 194.05 848.55 224.7000000000001A450.4 450.4 0 0 0 319.05 248.4L317.15 246.4000000000001L246.45 317.15L248.35 319.15A450.3 450.3 0 0 0 224.75 848.5C194.05 914.6 187.35 965.15 211.1 988.9C267.5 1045.3 474.95 930.05 681.9499999999999 729.8L706.05 706.05zM635.35 635.35C541.15 729.55 443.5 807.9000000000001 361.8 856.5L352.5 847.5A350.09999999999997 350.09999999999997 0 0 1 319.65 390.4L411.9500000000001 482.7A100 100 0 1 0 482.7500000000001 411.9500000000001L390.3500000000001 319.6500000000001A350.09999999999997 350.09999999999997 0 0 1 847.5000000000001 352.5L856.45 361.9L853.8000000000001 366.3499999999999C805.0000000000001 447.0999999999999 727.8000000000001 542.8499999999999 635.35 635.3499999999999zM988.9 988.9A100 100 0 0 0 980.6999999999998 840.1A450.74999999999994 450.74999999999994 0 0 0 1013.7999999999998 422.85A1058.3999999999999 1058.3999999999999 0 0 1 944.4999999999998 538.1500000000001A349.50000000000006 349.50000000000006 0 0 1 847.4999999999998 847.5000000000001A349.6 349.6 0 0 1 538.1499999999997 944.5000000000002A1054.6 1054.6 0 0 1 422.8499999999997 1013.8000000000002A450.8 450.8 0 0 0 840.1999999999997 980.65A100 100 0 0 0 988.8999999999997 988.9z" />
    <glyph glyph-name="bike-fill"
      unicode="&#xEABB;"
      horiz-adv-x="1200" d="M275 600H200V850H100V950H400V850H300V710.25L790.65 841.7L761.65 950H600V1050H798.9A50 50 0 0 0 848.3000000000001 1012.95L925.95 723.15L829.3500000000001 697.3L816.5500000000002 745.0999999999999L275 600zM250 150A200 200 0 1 0 250 550A200 200 0 0 0 250 150zM250 300A50 50 0 1 1 250 400A50 50 0 0 1 250 300zM900 150A250 250 0 1 0 900 650A250 250 0 0 0 900 150zM900 350A50 50 0 1 1 900 450A50 50 0 0 1 900 350z" />
    <glyph glyph-name="bike-line"
      unicode="&#xEABC;"
      horiz-adv-x="1200" d="M275 600H200V850H100V950H400V850H300V710.25L790.65 841.7L761.65 950H600V1050H798.9A50 50 0 0 0 848.3000000000001 1012.95L925.95 723.15L829.3500000000001 697.3L816.5500000000002 745.0999999999999L275 600zM250 250A100 100 0 1 1 250 450A100 100 0 0 1 250 250zM250 150A200 200 0 1 0 250 550A200 200 0 0 0 250 150zM900 250A150 150 0 1 1 900 550A150 150 0 0 1 900 250zM900 150A250 250 0 1 0 900 650A250 250 0 0 0 900 150z" />
    <glyph glyph-name="bilibili-fill"
      unicode="&#xEABD;"
      horiz-adv-x="1200" d="M911.15 1045.7A62.5 62.5 0 0 0 911.15 957.3L853.9999999999999 900.2H912.5A187.5 187.5 0 0 0 1100 712.65V337.65A187.5 187.5 0 0 0 912.5 150.1500000000001H287.5A187.5 187.5 0 0 0 100 337.65V712.65A187.5 187.5 0 0 0 287.5 900.15H345.8L288.75 957.25A62.5 62.5 0 1 0 377.1 1045.65L509.6999999999999 913.05C513.65 909.1 516.9499999999999 904.8 519.6 900.2H680.25C682.9000000000001 904.8 686.25 909.2 690.2 913.1L822.7499999999999 1045.7A62.5 62.5 0 0 0 911.15 1045.7zM912.5 774.7H287.5A62.5 62.5 0 0 1 225.15 716.8499999999999L225 712.1500000000001V337.1500000000001C225 304.2000000000002 250.5 277.2000000000001 282.85 274.8500000000002L287.5 274.6500000000001H912.5A62.5 62.5 0 0 1 974.85 332.5000000000001L975 337.1500000000001V712.1500000000001C975 746.6500000000001 947.0000000000002 774.6500000000001 912.5 774.6500000000001zM412.5 649.7C447 649.7 475 621.6999999999999 475 587.2V524.7A62.5 62.5 0 1 0 350 524.7V587.2C350 621.6999999999999 378 649.7 412.5 649.7zM787.5 649.7C822.0000000000001 649.7 850 621.6999999999999 850 587.2V524.7A62.5 62.5 0 1 0 725 524.7V587.2C725 621.6999999999999 753 649.7 787.5 649.7z" />
    <glyph glyph-name="bilibili-line"
      unicode="&#xEABE;"
      horiz-adv-x="1200" d="M358.6 1062.15L520.6999999999999 900H679.25L841.4 1062.1A50 50 0 0 0 912.15 991.35L820.6999999999999 900L925 900A175 175 0 0 0 1100 725V325A175 175 0 0 0 925 150H275A175 175 0 0 0 100 325V725A175 175 0 0 0 275 900H379.25L287.85 991.45A50 50 0 0 0 358.6 1062.2zM925 800H275A75 75 0 0 1 200.35 732.2L200 725V325A75 75 0 0 1 267.8 250.35L275 250H925A75 75 0 0 1 999.65 317.8000000000001L1000 325V725A75 75 0 0 1 925 800zM400 650A50 50 0 0 0 450 600V500A50 50 0 0 0 350 500V600A50 50 0 0 0 400 650zM800 650A50 50 0 0 0 850 600V500A50 50 0 0 0 750 500V600A50 50 0 0 0 800 650z" />
    <glyph glyph-name="bill-fill"
      unicode="&#xEABF;"
      horiz-adv-x="1200" d="M1000 100H200A50 50 0 0 0 150 150V1050A50 50 0 0 0 200 1100H1000A50 50 0 0 0 1050 1050V150A50 50 0 0 0 1000 100zM400 750V650H800V750H400zM400 550V450H800V550H400z" />
    <glyph glyph-name="bill-line"
      unicode="&#xEAC0;"
      horiz-adv-x="1200" d="M1000 100H200A50 50 0 0 0 150 150V1050A50 50 0 0 0 200 1100H1000A50 50 0 0 0 1050 1050V150A50 50 0 0 0 1000 100zM950 200V1000H250V200H950zM400 750H800V650H400V750zM400 550H800V450H400V550z" />
    <glyph glyph-name="billiards-fill"
      unicode="&#xEAC1;"
      horiz-adv-x="1200" d="M600 1100C876.15 1100 1100 876.15 1100 600S876.15 100 600 100S100 323.85 100 600S323.85 1100 600 1100zM600 900A300 300 0 1 1 600 300A300 300 0 0 1 600 900zM600 812.5A125 125 0 0 0 694 605.1C722.2499999999999 582.3000000000001 740 549.25 740 512.5C740 443.5 677.3 387.5 600 387.5C522.7 387.5 459.9999999999999 443.5 459.9999999999999 512.5C459.9999999999999 549.25 477.75 582.3000000000001 505.9999999999999 605.15A125 125 0 0 0 600 812.5zM600 562.5C562.35 562.5 535 538.1 535 512.5S562.35 462.5 600 462.5S665 486.9 665 512.5S637.65 562.5 600 562.5zM600 737.5A50 50 0 1 1 600 637.5A50 50 0 0 1 600 737.5z" />
    <glyph glyph-name="billiards-line"
      unicode="&#xEAC2;"
      horiz-adv-x="1200" d="M600 1100C876.15 1100 1100 876.15 1100 600S876.15 100 600 100S100 323.85 100 600S323.85 1100 600 1100zM600 1000A400 400 0 1 1 600 200A400 400 0 0 1 600 1000zM600 900A300 300 0 1 0 600 300A300 300 0 0 0 600 900zM600 812.5A125 125 0 0 1 506.0000000000001 605.15C477.7500000000001 582.3 460.0000000000001 549.25 460.0000000000001 512.5C460.0000000000001 443.5 522.7 387.5 600 387.5C677.3 387.5 740 443.5 740 512.5C740 549.25 722.25 582.3000000000001 694 605.1A125 125 0 0 1 600 812.5zM600 562.5C637.65 562.5 665 538.1 665 512.5S637.65 462.5 600 462.5S535 486.9 535 512.5S562.35 562.5 600 562.5zM600 737.5A50 50 0 1 0 600 637.5A50 50 0 0 0 600 737.5z" />
    <glyph glyph-name="bit-coin-fill"
      unicode="&#xEAC3;"
      horiz-adv-x="1200" d="M600 100C323.85 100 100 323.85 100 600S323.85 1100 600 1100S1100 876.15 1100 600S876.15 100 600 100zM550 400V300H650V400H700A125 125 0 0 1 800 600A125 125 0 0 1 700 800H650V900H550V800H400V400H550zM500 550H700A25 25 0 1 0 700 500H500V550zM500 700H700A25 25 0 1 0 700 650H500V700z" />
    <glyph glyph-name="bit-coin-line"
      unicode="&#xEAC4;"
      horiz-adv-x="1200" d="M600 100C323.85 100 100 323.85 100 600S323.85 1100 600 1100S1100 876.15 1100 600S876.15 100 600 100zM600 200A400 400 0 1 1 600 1000A400 400 0 0 1 600 200zM550 400H400V800H550V900H650V800H700A125 125 0 0 0 800 600A125 125 0 0 0 700 400H650V300H550V400zM500 550V500H700A25 25 0 1 1 700 550H500zM500 700V650H700A25 25 0 1 1 700 700H500z" />
    <glyph glyph-name="blaze-fill"
      unicode="&#xEAC5;"
      horiz-adv-x="1200" d="M925 750C975 697 1000 630.3 1000 550C1000 376.7 815 336.2000000000001 725 100C691.65 128.75 675 170.4000000000001 675 225C675 399.0999999999999 925 489.5 925 750zM725 950C785 888.1 815 821.4 815 750C815 502.4499999999999 512.75 465.4 575 100C491.65 158 450 241.3500000000002 450 350C450 516.25 725 650 725 950zM500 1150C566.65 1066.65 600 991.65 600 925C600 612.5 175 513.9 400 100C269.2000000000001 129 175 250 175 400C175 725 500 775 500 1150z" />
    <glyph glyph-name="blaze-line"
      unicode="&#xEAC6;"
      horiz-adv-x="1200" d="M950 750C983.3500000000003 697 1000 630.3 1000 550C1000 400 825 350 750 100C716.65 128.75 700 170.4000000000001 700 225C700 399.0999999999999 950 489.5 950 750zM725 950A415.5 415.5 0 0 0 775 750C775 500 475 450 575 100C491.65 158 450 241.3500000000002 450 350C450 516.25 725 650 725 950zM500 1150C533.35 1083.35 550 1008.35 550 925C550 625 100 550 400 100C275 125 175 250 175 400C175 725 500 775 500 1150z" />
    <glyph glyph-name="bluetooth-connect-fill"
      unicode="&#xEAC7;"
      horiz-adv-x="1200" d="M717.05 598.5L934.1999999999998 381.3500000000002L651.4 98.5500000000002H551.4V432.8500000000002L333.2 214.6500000000001L262.45 285.3500000000003L551.4 574.2500000000001V622.7500000000002L262.45 911.75L333.2 982.45L551.4 764.25V1098.55H651.4L934.1999999999998 815.7L717.0499999999998 598.55zM651.4 522.8000000000001V239.95L792.8 381.3499999999999L651.4 522.8zM651.4 674.3000000000001L792.8 815.7L651.4 957.1V674.25zM975 525A75 75 0 1 0 975 675A75 75 0 0 0 975 525zM325 525A75 75 0 1 0 325 675A75 75 0 0 0 325 525z" />
    <glyph glyph-name="bluetooth-connect-line"
      unicode="&#xEAC8;"
      horiz-adv-x="1200" d="M717.05 598.5L934.1999999999998 381.3500000000002L651.4 98.5500000000002H551.4V432.8500000000002L333.2 214.6500000000001L262.45 285.3500000000003L551.4 574.2500000000001V622.7500000000002L262.45 911.75L333.2 982.45L551.4 764.25V1098.55H651.4L934.1999999999998 815.7L717.0499999999998 598.55zM651.4 522.8000000000001V239.95L792.8 381.3499999999999L651.4 522.8zM651.4 674.3000000000001L792.8 815.7L651.4 957.1V674.25zM975 525A75 75 0 1 0 975 675A75 75 0 0 0 975 525zM325 525A75 75 0 1 0 325 675A75 75 0 0 0 325 525z" />
    <glyph glyph-name="bluetooth-fill"
      unicode="&#xEAC9;"
      horiz-adv-x="1200" d="M717.05 598.5L934.1999999999998 381.3500000000002L651.4 98.5500000000002H551.4V432.8500000000002L333.2 214.6500000000001L262.45 285.3500000000003L551.4 574.2500000000001V622.7500000000002L262.45 911.75L333.2 982.45L551.4 764.25V1098.55H651.4L934.1999999999998 815.7L717.0499999999998 598.55zM651.4 522.8000000000001V239.95L792.8 381.3499999999999L651.4 522.8zM651.4 674.3000000000001L792.8 815.7L651.4 957.1V674.25z" />
    <glyph glyph-name="bluetooth-line"
      unicode="&#xEACA;"
      horiz-adv-x="1200" d="M717.05 598.5L934.1999999999998 381.3500000000002L651.4 98.5500000000002H551.4V432.8500000000002L333.2 214.6500000000001L262.45 285.3500000000003L551.4 574.2500000000001V622.7500000000002L262.45 911.75L333.2 982.45L551.4 764.25V1098.55H651.4L934.1999999999998 815.7L717.0499999999998 598.55zM651.4 522.8000000000001V239.95L792.8 381.3499999999999L651.4 522.8zM651.4 674.3000000000001L792.8 815.7L651.4 957.1V674.25z" />
    <glyph glyph-name="blur-off-fill"
      unicode="&#xEACB;"
      horiz-adv-x="1200" d="M271.6 857.7L69.65 1059.6L140.4 1130.35L1130.35 140.3499999999999L1059.6 69.6499999999999L907.7 221.6499999999999A450 450 0 0 0 271.6 857.6zM412.1500000000001 998.5L600 1186.4L918.2 868.2A450.1 450.1 0 0 0 1020.7 390L412.2 998.5z" />
    <glyph glyph-name="blur-off-line"
      unicode="&#xEACC;"
      horiz-adv-x="1200" d="M907.7 221.5999999999999A450 450 0 0 0 271.6 857.7L69.65 1059.6L140.4 1130.35L1130.35 140.3499999999999L1059.6 69.6499999999999L907.7 221.6499999999999zM342.35 786.9A350 350 0 0 1 836.9 292.4L342.4 786.9zM1020.7 390L940.7500000000002 469.95A349.75 349.75 0 0 1 847.5000000000001 797.45L600 1045L482.85 927.85L412.1500000000001 998.5L600 1186.4L918.2 868.2A450.1 450.1 0 0 0 1020.7 390z" />
    </font>
</defs>
</svg>
