<?xml version="1.0" encoding="utf-8"?>
<!-- Generator: Adobe Illustrator 15.0.0, SVG Export Plug-In . SVG Version: 6.00 Build 0)  -->
<!DOCTYPE svg PUBLIC "-//W3C//DTD SVG 1.1//EN" "http://www.w3.org/Graphics/SVG/1.1/DTD/svg11.dtd">
<svg version="1.1" id="Layer_1" xmlns="http://www.w3.org/2000/svg" xmlns:xlink="http://www.w3.org/1999/xlink" x="0px" y="0px"
	 width="103.542px" height="101.472px" viewBox="-0.001 0 103.542 101.472" enable-background="new -0.001 0 103.542 101.472"
	 xml:space="preserve">
<polyline fill="none" stroke="#45152D" stroke-width="3" stroke-miterlimit="10" points="96.409,57.894 100.325,61.002 
	96.409,64.113 "/>
<line fill="none" stroke="#45152D" stroke-width="3" stroke-miterlimit="10" stroke-dasharray="9.63,5.778" x1="91.884" y1="67.705" x2="57.948" y2="94.652"/>
<polyline fill="none" stroke="#45152D" stroke-width="3" stroke-miterlimit="10" points="55.686,96.448 51.771,99.557 
	47.854,96.448 "/>
<line fill="none" stroke="#45152D" stroke-width="3" stroke-miterlimit="10" stroke-dasharray="9.63,5.778" x1="43.329" y1="92.855" x2="9.393" y2="65.909"/>
<polyline fill="none" stroke="#45152D" stroke-width="3" stroke-miterlimit="10" points="7.131,64.112 3.216,61.003 7.131,57.894 
	"/>
<line fill="none" stroke="#45152D" stroke-width="3" stroke-miterlimit="10" stroke-dasharray="9.63,5.778" x1="11.656" y1="54.301" x2="45.592" y2="27.354"/>
<polyline fill="none" stroke="#45152D" stroke-width="3" stroke-miterlimit="10" points="47.854,25.558 51.771,22.449 
	55.686,25.558 "/>
<line fill="none" stroke="#45152D" stroke-width="3" stroke-miterlimit="10" stroke-dasharray="9.63,5.778" x1="60.211" y1="29.15" x2="94.147" y2="56.098"/>
<polygon fill="#FFFFFF" points="100.325,51.109 51.77,89.665 3.216,51.109 51.77,12.554 "/>
<polygon fill="none" stroke="#45152D" stroke-width="4" stroke-miterlimit="10" points="100.325,51.109 51.77,89.665 3.216,51.109 
	51.77,12.554 "/>
<polygon fill="#FFFFFF" points="100.325,41.109 51.77,79.665 3.216,41.109 51.77,2.554 "/>
<polygon fill="none" stroke="#45152D" stroke-width="4" stroke-miterlimit="10" points="100.325,41.109 51.77,79.665 3.216,41.109 
	51.77,2.554 "/>
<polygon fill="#FBAC46" points="83.714,52.72 68.041,66.393 20.688,27.637 36.36,14.965 "/>
<polygon fill="none" stroke="#45152D" stroke-width="4" stroke-miterlimit="10" points="83.714,52.72 68.041,66.393 20.688,27.637 
	36.36,14.965 "/>
<line fill="none" x1="43.159" y1="7.499" x2="91.714" y2="46.054"/>
<line fill="none" stroke="#45152D" stroke-width="4" stroke-miterlimit="10" x1="43.159" y1="7.499" x2="91.714" y2="46.054"/>
<g display="none">
	<g display="inline">
		<defs>
			<rect id="SVGID_1_" x="-420.892" y="322.033" width="1372.747" height="565.654"/>
		</defs>
		<clipPath id="SVGID_2_">
			<use xlink:href="#SVGID_1_"  overflow="visible"/>
		</clipPath>
		
			<linearGradient id="SVGID_3_" gradientUnits="userSpaceOnUse" x1="-279.0867" y1="-759.4055" x2="-278.0867" y2="-759.4055" gradientTransform="matrix(969.2234 969.2234 -969.2234 969.2234 -465755.0625 1006650.375)">
			<stop  offset="0" style="stop-color:#FBAC46"/>
			<stop  offset="1" style="stop-color:#EC519D"/>
		</linearGradient>
		<polygon clip-path="url(#SVGID_2_)" fill="url(#SVGID_3_)" points="265.481,-364.34 1234.682,604.861 265.481,1574.061 
			-703.719,604.861 		"/>
	</g>
</g>
<polyline display="none" fill="none" stroke="#45152D" stroke-width="3" stroke-miterlimit="10" points="96.409,611.505 
	100.325,614.615 96.409,617.724 "/>
<line display="none" fill="none" stroke="#45152D" stroke-width="3" stroke-miterlimit="10" stroke-dasharray="9.63,5.778" x1="91.884" y1="621.317" x2="57.948" y2="648.264"/>
<polyline display="none" fill="none" stroke="#45152D" stroke-width="3" stroke-miterlimit="10" points="55.686,650.06 
	51.771,653.169 47.854,650.06 "/>
<line display="none" fill="none" stroke="#45152D" stroke-width="3" stroke-miterlimit="10" stroke-dasharray="9.63,5.778" x1="43.329" y1="646.467" x2="9.393" y2="619.522"/>
<polyline display="none" fill="none" stroke="#45152D" stroke-width="3" stroke-miterlimit="10" points="7.131,617.724 
	3.216,614.615 7.131,611.505 "/>
<line display="none" fill="none" stroke="#45152D" stroke-width="3" stroke-miterlimit="10" stroke-dasharray="9.63,5.778" x1="11.656" y1="607.912" x2="45.592" y2="580.966"/>
<polyline display="none" fill="none" stroke="#45152D" stroke-width="3" stroke-miterlimit="10" points="47.854,579.169 
	51.771,576.06 55.686,579.169 "/>
<line display="none" fill="none" stroke="#45152D" stroke-width="3" stroke-miterlimit="10" stroke-dasharray="9.63,5.778" x1="60.211" y1="582.762" x2="94.147" y2="609.709"/>
<g display="none">
	<path display="inline" fill="#45152D" d="M136.354,578.343c4.958,0,8.846,1.136,11.665,3.403c2.817,2.27,4.228,5.402,4.228,9.4
		c0,2.198-0.59,4.107-1.769,5.728c-1.181,1.619-2.909,2.929-5.188,3.928c2.579,0.761,4.434,2.023,5.562,3.793
		c1.129,1.771,1.693,3.964,1.693,6.582v2.22c0,0.959,0.19,1.703,0.57,2.232c0.379,0.53,1.009,0.845,1.889,0.944l1.08,0.149V622
		h-4.527c-2.859,0-4.868-0.77-6.027-2.309c-1.16-1.539-1.739-3.528-1.739-5.968v-2.488c0-2.118-0.564-3.783-1.693-4.992
		s-2.725-1.845-4.782-1.904h-7.167v11.515l4.678,0.899V622h-18.081v-5.247l4.647-0.899V584.52l-4.647-0.898v-5.277h4.647
		L136.354,578.343L136.354,578.343z M130.148,597.593h6.057c2.439,0,4.269-0.52,5.487-1.559s1.829-2.538,1.829-4.498
		c0-1.959-0.605-3.523-1.814-4.692c-1.209-1.17-2.994-1.754-5.353-1.754h-6.207L130.148,597.593L130.148,597.593z"/>
	<path display="inline" fill="#45152D" d="M158.903,616.754l4.228-0.898v-20.12l-4.678-0.899v-5.277h13.434v26.298l4.197,0.898
		v5.247h-17.182L158.903,616.754L158.903,616.754z M171.887,581.791h-8.756v-6.566h8.756V581.791z"/>
	<path display="inline" fill="#45152D" d="M179.503,606.049c0-5.117,1.114-9.245,3.344-12.384c2.229-3.138,5.353-4.707,9.37-4.707
		c1.818,0,3.419,0.404,4.798,1.214c1.379,0.811,2.559,1.964,3.538,3.463l0.63-4.077h7.615v31.483c0,4.278-1.345,7.691-4.032,10.24
		c-2.688,2.549-6.383,3.822-11.079,3.822c-1.641,0-3.378-0.225-5.219-0.675c-1.84-0.45-3.537-1.063-5.097-1.844l1.619-6.146
		c1.399,0.6,2.798,1.073,4.198,1.425c1.398,0.35,2.879,0.523,4.438,0.523c2.14,0,3.738-0.648,4.797-1.948
		c1.06-1.301,1.59-3.108,1.59-5.428v-2.129c-0.959,1.22-2.09,2.148-3.389,2.788c-1.3,0.641-2.789,0.96-4.468,0.96
		c-3.978,0-7.082-1.464-9.311-4.393c-2.229-2.93-3.344-6.781-3.344-11.561L179.503,606.049L179.503,606.049z M188.259,606.679
		c0,2.839,0.479,5.072,1.439,6.701c0.959,1.63,2.519,2.444,4.678,2.444c1.339,0,2.475-0.245,3.403-0.734
		c0.93-0.49,1.674-1.204,2.234-2.145v-14.094c-0.561-0.979-1.305-1.738-2.234-2.277c-0.93-0.54-2.044-0.811-3.343-0.811
		c-2.14,0-3.703,0.949-4.693,2.849c-0.989,1.898-1.484,4.378-1.484,7.437V606.679z"/>
	<path display="inline" fill="#45152D" d="M213.566,616.754l4.228-0.898v-34.453l-4.678-0.899v-5.276h13.403v18.471
		c1.02-1.499,2.269-2.664,3.748-3.493c1.479-0.829,3.119-1.244,4.917-1.244c3.397,0,6.062,1.124,7.99,3.373
		c1.93,2.249,2.895,5.723,2.895,10.42v13.104l4.198,0.898v5.247h-16.731v-5.247l3.778-0.898v-13.167c0-2.52-0.445-4.304-1.334-5.353
		c-0.891-1.05-2.214-1.574-3.974-1.574c-1.22,0-2.283,0.221-3.192,0.659c-0.91,0.44-1.675,1.061-2.294,1.859v17.571l3.777,0.898
		v5.247h-16.731V616.754L213.566,616.754z"/>
	<path display="inline" fill="#45152D" d="M266.009,581.612v7.945h5.697v6.146h-5.697v16.521c0,1.261,0.261,2.159,0.78,2.699
		c0.52,0.539,1.22,0.811,2.1,0.811c0.6,0,1.125-0.025,1.573-0.075c0.449-0.05,0.955-0.135,1.515-0.255l0.75,6.327
		c-0.979,0.3-1.949,0.523-2.908,0.675c-0.959,0.148-2,0.225-3.118,0.225c-3.019,0-5.343-0.829-6.972-2.489
		c-1.629-1.658-2.444-4.287-2.444-7.886v-16.552h-4.768v-6.146h4.768v-7.945H266.009L266.009,581.612z"/>
</g>
<g display="none">
	<path display="inline" fill="#FFFFFF" d="M319.603,583.62l-0.182-0.061L303.2,622h-2.488l-16.191-38.26l-0.181,0.029l0.33,18.95
		v16.252l4.889,0.391v2.639h-13.345v-2.639l4.889-0.391v-37.57l-4.889-0.391v-2.669h4.889h4.707l16.042,38.44h0.181l16.102-38.44
		h9.625v2.669l-4.888,0.391v37.57l4.888,0.391v2.639h-13.343v-2.639l4.888-0.391V602.72L319.603,583.62z"/>
	<path display="inline" fill="#FFFFFF" d="M347.098,622.631c-4.077,0-7.456-1.494-10.136-4.482
		c-2.679-2.987-4.018-6.791-4.018-11.409v-1.648c0-4.638,1.334-8.485,4.003-11.545c2.669-3.058,5.892-4.587,9.67-4.587
		c3.979,0,7.106,1.259,9.386,3.777c2.278,2.52,3.418,5.877,3.418,10.074v3.06h-22.907v0.869c0,3.639,0.975,6.691,2.923,9.161
		c1.949,2.469,4.503,3.703,7.661,3.703c2.22,0,4.117-0.311,5.696-0.931c1.579-0.619,2.93-1.51,4.048-2.669l1.529,2.459
		c-1.219,1.279-2.758,2.294-4.617,3.043C351.896,622.256,349.677,622.631,347.098,622.631z M346.618,592.016
		c-2.639,0-4.862,1.017-6.672,3.044c-1.809,2.029-2.863,4.572-3.163,7.632l0.061,0.149h19.011v-0.898
		c0-2.819-0.83-5.179-2.488-7.077C351.705,592.966,349.457,592.016,346.618,592.016z"/>
	<path display="inline" fill="#FFFFFF" d="M389.377,599.573h-2.938l-0.419-4.588c-0.9-0.939-2.035-1.669-3.403-2.188
		c-1.37-0.52-2.944-0.78-4.723-0.78c-2.619,0-4.583,0.565-5.894,1.694c-1.31,1.13-1.964,2.454-1.964,3.974
		c0,1.499,0.564,2.738,1.694,3.719c1.129,0.979,3.383,1.84,6.762,2.578c3.857,0.859,6.746,2.034,8.665,3.522
		c1.919,1.49,2.879,3.514,2.879,6.072c0,2.698-1.095,4.883-3.283,6.552s-5.083,2.504-8.681,2.504c-2.399,0-4.583-0.335-6.552-1.005
		c-1.97-0.669-3.673-1.614-5.112-2.833v-6.537h2.908l0.51,4.618c0.96,0.959,2.174,1.654,3.645,2.083
		c1.469,0.431,3.003,0.646,4.603,0.646c2.599,0,4.647-0.569,6.146-1.71c1.499-1.139,2.249-2.519,2.249-4.138
		c0-1.519-0.625-2.849-1.874-3.987c-1.249-1.14-3.505-2.068-6.763-2.789c-3.857-0.84-6.722-1.953-8.591-3.344
		c-1.869-1.389-2.804-3.333-2.804-5.832c0-2.478,1.05-4.572,3.147-6.281c2.101-1.709,4.868-2.562,8.308-2.562
		c2.378,0,4.552,0.364,6.521,1.094c1.97,0.73,3.572,1.715,4.812,2.954L389.377,599.573z"/>
	<path display="inline" fill="#FFFFFF" d="M420.111,599.573h-2.938l-0.419-4.588c-0.899-0.939-2.034-1.669-3.402-2.188
		c-1.37-0.52-2.944-0.78-4.724-0.78c-2.619,0-4.583,0.565-5.893,1.694c-1.311,1.13-1.964,2.454-1.964,3.974
		c0,1.499,0.563,2.738,1.693,3.719c1.13,0.979,3.384,1.84,6.763,2.578c3.856,0.859,6.746,2.034,8.665,3.522
		c1.919,1.49,2.879,3.514,2.879,6.072c0,2.698-1.096,4.883-3.283,6.552c-2.189,1.669-5.083,2.504-8.681,2.504
		c-2.399,0-4.583-0.335-6.553-1.005c-1.97-0.669-3.673-1.614-5.111-2.833v-6.537h2.907l0.511,4.618
		c0.96,0.959,2.174,1.654,3.644,2.083c1.469,0.431,3.003,0.646,4.604,0.646c2.599,0,4.646-0.569,6.146-1.71
		c1.499-1.139,2.249-2.519,2.249-4.138c0-1.519-0.625-2.849-1.874-3.987c-1.249-1.14-3.504-2.068-6.762-2.789
		c-3.858-0.84-6.722-1.953-8.591-3.344c-1.869-1.389-2.805-3.333-2.805-5.832c0-2.478,1.051-4.572,3.148-6.281
		c2.1-1.709,4.868-2.562,8.307-2.562c2.378,0,4.553,0.364,6.521,1.094c1.969,0.73,3.572,1.715,4.812,2.954L420.111,599.573z"/>
	<path display="inline" fill="#FFFFFF" d="M449.707,622.001c-0.239-1.1-0.409-2.049-0.51-2.849s-0.149-1.608-0.149-2.43
		c-1.199,1.699-2.8,3.108-4.799,4.229c-1.998,1.12-4.247,1.68-6.745,1.68c-3.18,0-5.639-0.818-7.376-2.459
		c-1.739-1.639-2.609-3.856-2.609-6.656c0-2.999,1.29-5.378,3.868-7.137c2.579-1.759,6.077-2.639,10.495-2.639h7.166v-4.288
		c0-2.318-0.745-4.138-2.233-5.457c-1.49-1.319-3.573-1.979-6.252-1.979c-1.8,0-3.443,0.245-4.933,0.735
		c-1.49,0.49-2.734,1.154-3.733,1.994l-0.3,4.348h-2.969l0.029-6.236c1.499-1.159,3.293-2.1,5.383-2.818
		c2.089-0.72,4.312-1.079,6.672-1.079c3.577,0,6.456,0.909,8.636,2.729c2.179,1.819,3.269,4.428,3.269,7.825v15.951
		c0,0.66,0.016,1.295,0.045,1.904c0.03,0.609,0.096,1.205,0.195,1.784l3.238,0.21v2.639L449.707,622.001L449.707,622.001z
		 M437.893,619.452c2.599,0,4.888-0.601,6.866-1.799c1.979-1.199,3.407-2.748,4.288-4.647v-6.507h-7.228
		c-3.258,0-5.86,0.675-7.811,2.023c-1.949,1.35-2.924,3.054-2.924,5.111c0,1.739,0.604,3.146,1.813,4.213
		C434.109,618.918,435.773,619.452,437.893,619.452z"/>
	<path display="inline" fill="#FFFFFF" d="M461.342,606.049c0-5.177,1.104-9.32,3.312-12.429c2.208-3.108,5.271-4.662,9.19-4.662
		c2.298,0,4.292,0.505,5.98,1.514c1.689,1.011,3.084,2.436,4.185,4.273l0.419-5.188h3.028v32.023c0,4.178-1.13,7.477-3.389,9.896
		s-5.407,3.628-9.445,3.628c-1.56,0-3.224-0.189-4.991-0.568c-1.771-0.381-3.313-0.9-4.634-1.561l0.959-3.027
		c1.301,0.619,2.664,1.099,4.095,1.438c1.429,0.339,2.933,0.511,4.513,0.511c3.078,0,5.396-0.91,6.956-2.729
		c1.56-1.819,2.339-4.348,2.339-7.586v-4.107c-1.1,1.659-2.488,2.935-4.168,3.822c-1.679,0.891-3.648,1.335-5.907,1.335
		c-3.896,0-6.945-1.449-9.146-4.348c-2.2-2.899-3.298-6.768-3.298-11.604L461.342,606.049L461.342,606.049z M464.938,606.679
		c0,3.898,0.795,7.013,2.384,9.341c1.59,2.328,3.963,3.493,7.122,3.493c2.339,0,4.282-0.529,5.832-1.59
		c1.549-1.06,2.743-2.519,3.583-4.378v-15.052c-0.8-1.899-1.949-3.443-3.448-4.633c-1.499-1.19-3.469-1.784-5.906-1.784
		c-3.158,0-5.542,1.3-7.151,3.896c-1.609,2.601-2.414,5.958-2.414,10.075L464.938,606.679L464.938,606.679z"/>
	<path display="inline" fill="#FFFFFF" d="M509.916,622.631c-4.076,0-7.455-1.494-10.135-4.482
		c-2.679-2.987-4.018-6.791-4.018-11.409v-1.648c0-4.638,1.334-8.485,4.003-11.545c2.669-3.058,5.892-4.587,9.67-4.587
		c3.978,0,7.105,1.259,9.386,3.777c2.278,2.52,3.418,5.877,3.418,10.074v3.06h-22.908v0.869c0,3.639,0.976,6.691,2.924,9.161
		c1.948,2.469,4.503,3.703,7.661,3.703c2.22,0,4.117-0.311,5.696-0.931c1.579-0.619,2.93-1.51,4.048-2.669l1.529,2.459
		c-1.219,1.279-2.758,2.294-4.617,3.043C514.715,622.256,512.495,622.631,509.916,622.631z M509.437,592.016
		c-2.639,0-4.862,1.017-6.672,3.044c-1.81,2.029-2.863,4.572-3.163,7.632l0.06,0.149h19.012v-0.898c0-2.819-0.83-5.179-2.488-7.077
		C514.523,592.966,512.275,592.016,509.437,592.016z"/>
</g>
<polygon display="none" fill="#FFFFFF" points="100.325,604.721 51.77,643.276 3.216,604.721 51.77,566.166 "/>
<polygon display="none" fill="none" stroke="#45152D" stroke-width="4" stroke-miterlimit="10" points="100.325,604.721 
	51.77,643.276 3.216,604.721 51.77,566.166 "/>
<polygon display="none" fill="#FFFFFF" points="100.325,594.721 51.77,633.276 3.216,594.721 51.77,556.166 "/>
<polygon display="none" fill="none" stroke="#45152D" stroke-width="4" stroke-miterlimit="10" points="100.325,594.721 
	51.77,633.276 3.216,594.721 51.77,556.166 "/>
<polygon display="none" fill="#FBAC46" points="83.714,606.331 68.041,620.004 20.688,581.249 36.36,568.576 "/>
<polygon display="none" fill="none" stroke="#45152D" stroke-width="4" stroke-miterlimit="10" points="83.714,606.331 
	68.041,620.004 20.688,581.249 36.36,568.576 "/>
<line display="none" fill="none" x1="43.159" y1="561.111" x2="91.714" y2="599.665"/>
<line display="none" fill="none" stroke="#45152D" stroke-width="4" stroke-miterlimit="10" x1="43.159" y1="561.111" x2="91.714" y2="599.665"/>
</svg>
