<?xml version="1.0" encoding="utf-8"?>
<svg xmlns="http://www.w3.org/2000/svg" xmlns:xlink="http://www.w3.org/1999/xlink" version="1.1" id="Layer_1" x="0px" y="0px" viewBox="0 0 474 64.5" style="enable-background:new 0 0 474 64.5;">
<style type="text/css">
	.st0{fill:#32BAA6;}
	.st1{fill:#34C6B4;}
	.st2{fill:#34D1C1;}
	.st3{fill:#4BDBCA;}
	.st4{fill:#5AE0CD;}
	.st5{fill:#6BE8D6;}
	.st6{fill:#81EFDF;}
</style>
<g>
	<g>
		<g>
			<polygon class="st0" points="26.1,8.1 18,16.2 10,24.2 16.4,30.6 24.5,22.6 32.5,14.6 38.9,21 30.9,29 37.3,35.5 45.4,27.4      51.8,33.9 58.2,40.3 66.3,32.3 59.8,25.8 53.4,19.4 47,13 40.5,6.5 34.1,0.1    "/>
		</g>
		<g>
			
				<rect x="11.5" y="18.9" transform="matrix(0.7071 -0.7071 0.7071 0.7071 -11.5101 19.0349)" class="st0" width="11.4" height="9.1"/>
		</g>
		<g>
			
				<rect x="19.6" y="10.8" transform="matrix(0.7071 -0.7071 0.7071 0.7071 -3.4691 22.3656)" class="st1" width="11.4" height="9.1"/>
		</g>
		<g>
			
				<rect x="27.6" y="2.8" transform="matrix(0.7071 -0.7071 0.7071 0.7071 4.5719 25.6963)" class="st2" width="11.4" height="9.1"/>
		</g>
		<g>
			
				<rect x="34.1" y="9.2" transform="matrix(0.7071 -0.7071 0.7071 0.7071 1.9074 32.1291)" class="st3" width="11.4" height="9.1"/>
		</g>
		<g>
			
				<rect x="40.5" y="15.6" transform="matrix(0.7071 -0.7071 0.7071 0.7071 -0.7572 38.5619)" class="st4" width="11.4" height="9.1"/>
		</g>
		<g>
			
				<rect x="32.4" y="23.7" transform="matrix(0.7071 -0.7071 0.7071 0.7071 -8.7982 35.2312)" class="st5" width="11.4" height="9.1"/>
		</g>
		<g>
			
				<rect x="46.9" y="22.1" transform="matrix(0.7071 -0.7071 0.7071 0.7071 -3.4218 44.9947)" class="st5" width="11.4" height="9.1"/>
		</g>
		<g>
			
				<rect x="53.3" y="28.5" transform="matrix(0.7071 -0.7071 0.7071 0.7071 -6.0863 51.4276)" class="st6" width="11.4" height="9.1"/>
		</g>
		<g>
			<polygon points="35.9,49.8 29.5,43.3 23,36.9 16.6,30.5 10.2,24 2.1,32.1 8.6,38.5 15,44.9 21.4,51.4 27.9,57.8 34.3,64.2      42.3,56.2 50.4,48.2 43.9,41.7    "/>
		</g>
	</g>
	<path d="M110.5,50.3H87.2V14.2h7.6v29.8h15.8V50.3z"/>
	<path d="M113.4,42.6c0-4.9,3.8-7.7,10.4-8.1l6.8-0.4v-1.8c0-2.5-1.8-4-4.5-4c-2.7,0-4.5,1.4-4.8,3.3h-6.7c0.3-5.2,4.7-8.8,11.8-8.8   c6.9,0,11.4,3.6,11.4,9v18.4h-7v-4.1h-0.2c-1.5,2.9-4.8,4.5-8.2,4.5C117.2,50.7,113.4,47.4,113.4,42.6z M130.6,40.5v-1.9l-5.7,0.3   c-2.7,0.2-4.3,1.4-4.3,3.3c0,2,1.7,3.3,4.1,3.3C127.9,45.5,130.6,43.4,130.6,40.5z"/>
	<path d="M142.4,23.5h7.1v4.8h0.2c1-3.4,3.2-5.3,6.4-5.3c0.9,0,1.6,0.1,2.1,0.3v6.4c-0.6-0.3-1.6-0.4-2.6-0.4c-3.6,0-5.7,2.2-5.7,6   v15h-7.3V23.5z"/>
	<path d="M159.4,42.6c0-4.9,3.8-7.7,10.4-8.1l6.8-0.4v-1.8c0-2.5-1.8-4-4.5-4c-2.7,0-4.5,1.4-4.8,3.3h-6.7c0.3-5.2,4.7-8.8,11.8-8.8   c6.9,0,11.4,3.6,11.4,9v18.4h-7.1v-4.1h-0.2c-1.5,2.9-4.8,4.5-8.2,4.5C163.3,50.7,159.4,47.4,159.4,42.6z M176.6,40.5v-1.9   l-5.7,0.3c-2.7,0.2-4.3,1.4-4.3,3.3c0,2,1.7,3.3,4.1,3.3C174,45.5,176.6,43.4,176.6,40.5z"/>
	<path d="M203.7,50.3h-8.3l-9.3-26.8h7.8l5.6,20.4h0.2l5.5-20.4h7.6L203.7,50.3z"/>
	<path d="M239.1,42.1c-0.8,5.3-5.6,8.8-12.2,8.8c-8.3,0-13.2-5.3-13.2-13.9c0-8.6,5-14.1,12.9-14.1c7.8,0,12.7,5.3,12.7,13.4v2.2   h-18.5V39c0,3.8,2.4,6.5,6.2,6.5c2.7,0,4.7-1.3,5.4-3.4H239.1z M220.9,34.1h11.4c-0.2-3.4-2.4-5.8-5.6-5.8   C223.5,28.3,221.2,30.8,220.9,34.1z"/>
	<path d="M243.2,14.2h7.3v36.1h-7.3V14.2z"/>
	<path d="M266.6,50.3V14.2H288v3.1h-18v13.6h16.6v3.1H270v16.4H266.6z"/>
	<path d="M292.6,24.3h3.1v4.6h0.1c0.9-3.2,3.4-5.1,6.6-5.1c0.9,0,1.7,0.2,2.1,0.3v3.3c-0.4-0.2-1.4-0.4-2.5-0.4   c-3.7,0-6.1,2.9-6.1,7.1v16.2h-3.3V24.3z"/>
	<path d="M305.2,37.3c0-8.3,4.8-13.4,11.9-13.4c7.1,0,11.9,5.2,11.9,13.4c0,8.3-4.8,13.4-11.9,13.4C310,50.7,305.2,45.6,305.2,37.3z    M325.6,37.3c0-6.6-3.4-10.5-8.5-10.5c-5.1,0-8.5,3.9-8.5,10.5s3.4,10.5,8.5,10.5C322.2,47.8,325.6,43.9,325.6,37.3z"/>
	<path d="M333.3,24.3h3.1v4.8h0.1c1.3-3.2,4.4-5.2,8.6-5.2c5.7,0,9.2,3.7,9.2,9.6v16.9H351V34c0-4.6-2.5-7.2-6.9-7.2   c-4.5,0-7.5,3.3-7.5,8.1v15.4h-3.3V24.3z"/>
	<path d="M364.6,17.8v6.5h5.1v2.8h-5.1v16.7c0,2.7,1,3.8,3.5,3.8c0.4,0,1.6-0.1,1.8-0.1v2.8c-0.4,0.1-1.8,0.2-2.5,0.2   c-4.4,0-6.1-1.9-6.1-6.6V27.1h-3.9v-2.8h3.9v-6.5H364.6z"/>
	<path d="M394.8,42.9c-0.8,4.5-5,7.8-10.7,7.8c-7.3,0-11.8-5.1-11.8-13.4c0-8.1,4.6-13.5,11.6-13.5c6.9,0,11.3,5.1,11.3,12.8v1.4   h-19.5v0.2c0,5.9,3.3,9.5,8.5,9.5c3.9,0,6.7-2,7.4-4.9H394.8z M375.7,35.5h16.1c-0.1-5.1-3.2-8.7-7.9-8.7   C379.2,26.8,375.9,30.4,375.7,35.5z"/>
	<path d="M399.6,24.3h3.1v4.8h0.1c1.3-3.2,4.4-5.2,8.6-5.2c5.7,0,9.2,3.7,9.2,9.6v16.9h-3.3V34c0-4.6-2.5-7.2-6.9-7.2   c-4.5,0-7.5,3.3-7.5,8.1v15.4h-3.3V24.3z"/>
	<path d="M424.8,37.3c0-8.1,4.5-13.4,11.1-13.4c4.2,0,7.5,2.4,8.9,5.8h0.1V14.2h3.3v36.1H445v-5.5h-0.1c-1.5,3.5-4.8,5.9-9,5.9   C429.4,50.7,424.8,45.4,424.8,37.3z M428.2,37.3c0,6.4,3.3,10.5,8.3,10.5c5,0,8.4-4.2,8.4-10.5c0-6.3-3.4-10.5-8.4-10.5   C431.5,26.8,428.2,31,428.2,37.3z"/>
</g>
</svg>
