<svg xmlns="http://www.w3.org/2000/svg" xmlns:xlink="http://www.w3.org/1999/xlink" height="480" width="640" id="flag-icon-css-al">
  <path fill="#e41e20" d="M0 0h640v480H0z"/>
  <path id="a" d="M272.09 93.316c-4.667-.08-12.413 1.488-12.24 5.07-13-2.228-14.354 3.142-13.59 7.92 1.237-1.896 2.743-2.926 3.9-3.12 1.734-.288 3.548.272 5.4 1.41 1.853 1.138 3.894 2.974 4.8 4.11-4.588 1.097-8.133.39-11.73-.24-1.773-.31-4.254-1.308-5.73-2.34-1.475-1.033-1.94-2.004-4.26-4.38-2.735-2.8-5.647-2.013-4.74 2.34 2.098 4.042 5.603 5.845 10.02 6.57 2.126.35 5.292 1.106 8.88 1.11 3.59.004 7.618-.52 9.81-.06-1.317.827-2.807 2.252-5.76 2.82-3.002.577-7.567-1.786-10.35-2.43.354 2.34 3.307 4.53 9.12 5.67 9.554 2.08 17.492 3.66 22.74 6.51 5.248 2.85 8.557 6.415 10.92 9.21 4.703 5.56 4.95 9.83 5.25 10.77.968 8.885-2.13 13.884-7.89 15.42-2.88.768-7.994-.678-9.87-2.88-1.875-2.2-3.7-5.985-3.18-11.91.506-2.325 3.164-8.38.9-9.63-10.427-5.763-23.09-11.59-32.25-15.06-2.503-.948-4.566 2.455-5.37 3.78-15.562-1.895-29.594-12.426-35.91-23.64-4.3-7.637-11.39.016-10.2 7.23 1.925 8.052 8.06 13.874 15.42 18 7.555 4.16 16.998 8.253 26.55 8.04 5.147.974 5.096 7.632-1.08 8.88-12.077.077-21.712-.225-30.81-9-6.9-6.3-10.784 1.207-8.79 5.46 3.38 13.112 22.086 16.784 41.01 12.54 7.328-1.213 2.94 6.64.87 6.72-7.907 5.67-22.063 11.217-34.53-.06-5.705-4.368-9.562-.696-7.44 5.61 5.532 16.442 26.692 12.99 41.22 4.89 3.74-2.084 7.133 2.765 2.58 6.45-18.067 12.624-27.1 12.768-35.25 7.92-10.202-4.024-11.1 7.293-5.04 11.01 6.736 4.132 23.876 1.034 36.45-6.87 5.39-4.008 5.635 2.26 2.22 4.74-14.922 12.896-20.804 16.292-36.36 14.19-7.713-.6-7.598 8.91-1.53 12.63 8.285 5.08 24.464-3.353 37.02-13.77 5.285-2.824 6.153 1.807 3.54 7.29-7.672 9.68-14.873 15.387-21.81 18.03-6.936 2.643-13.608 2.222-18.33.6-5.76-1.98-6.482 4.007-3.3 9.45 1.92 3.28 9.87 4.332 18.45 1.29 8.582-3.043 17.795-10.18 24.12-18.54 5.504-4.82 4.82 1.654 2.31 6.21-12.666 20.024-24.25 27.452-39.51 26.19-6.765-1.15-8.302 4.112-3.99 8.97 7.572 6.28 17.04 6.082 25.32-.12 7.362-7.098 21.445-22.38 28.83-30.57 5.205-4.15 6.867-.06 5.34 8.37-1.388 4.826-4.865 9.91-14.34 13.62-6.472 3.694-1.612 8.785 3.24 8.88 2.67.05 8.092-3.07 12.24-7.74 5.457-6.145 5.782-10.27 8.79-19.83 2.843-4.66 7.92-2.486 7.92 2.4-2.435 9.576-4.527 11.293-9.45 15.21-4.708 4.42 3.28 5.894 5.97 4.08 7.786-5.25 10.63-12.037 13.23-18.21 1.878-4.456 7.325-2.296 4.8 4.98-6.034 17.388-15.95 24.234-33.3 27.75-1.758.312-2.83 1.35-2.22 3.39 2.33 2.417 4.662 4.61 6.99 7.02-10.728 3.123-19.444 4.878-30.18 8.01-5.267-3.453-9.522-6.383-14.79-9.84-1.39-3.247-2.036-8.203-9.81-4.71-5.267-2.433-7.697-1.54-10.62.9 4.22.157 6.056 1.287 7.71 3.21 2.16 5.69 7.14 6.24 12.24 4.62 3.317 2.794 5.084 4.938 8.4 7.74-6.19-.212-10.504-.322-16.68-.51-5.895-6.33-10.6-5.983-14.82-1.02-3.216.494-4.58.564-6.78 4.47 3.46-1.42 5.64-1.846 7.14-.3 6.268 3.634 10.362 2.823 13.47 0 6.047.37 11.496.683 17.55 1.08-2.224 1.89-5.276 2.893-7.5 4.8-9.082-2.598-13.822.9-15.42 8.31-1.217 2.992-1.787 6.07-1.26 9.27.88-2.926 2.293-5.442 4.89-7.02 8.095 2.057 11.14-1.248 11.58-6.09 3.902-3.183 9.786-3.885 13.68-7.11 4.553 1.458 6.755 2.36 11.34 3.81 1.63 4.955 5.32 6.916 11.31 5.64 7.13.224 5.872 3.15 6.45 5.49 1.895-3.36 1.842-6.63-2.55-9.6-1.598-4.34-5.138-6.316-9.78-3.81-4.37-1.24-5.517-3.023-9.87-4.26 11.01-3.51 18.82-4.298 29.82-7.8 2.754 2.598 4.936 4.463 7.71 6.78 1.462.873 2.862 1.093 3.72 0 6.894-9.977 9.973-18.77 16.38-25.35 2.448-2.722 5.54-6.394 8.97-7.29 1.715-.447 3.818-.174 5.16 1.29 1.343 1.465 2.398 4.164 1.95 8.19-.642 5.78-2.038 7.605-3.66 11.07-1.62 3.466-3.603 5.597-5.64 8.25-4.073 5.307-9.448 8.396-12.63 10.47-6.362 4.15-9.053 2.333-13.98 2.07-6.367.715-8.06 3.816-2.85 8.1 4.872 2.535 9.25 2.848 12.81 2.19 3.056-.565 6.632-4.51 9.18-6.63 2.868-3.313 7.624.616 4.38 4.47-5.893 7.003-11.783 11.62-19.05 11.52-7.636 1.028-6.208 5.32-1.14 7.41 9.12 3.765 17.357-3.286 21.54-7.92 3.228-3.53 5.52-3.67 4.95 1.8-3.204 9.9-7.583 13.726-14.73 14.22-5.797-.538-5.86 3.937-1.62 6.96 9.658 6.685 16.652-4.7 19.92-11.58 2.33-6.207 5.9-3.255 6.27 1.86.05 6.835-3.04 12.415-11.31 19.41 6.328 10.082 13.705 20.336 20.04 30.45l19.205-213.893-19.2-33.794c-2-1.847-8.763-9.815-10.53-10.92-.644-.69-1.036-1.176-.09-1.53.916-.344 3.06-.73 4.5-.99-4.072-4.08-7.56-5.388-15.27-7.62 1.88-.8 3.706-.335 9.24-.6-2.197-3.12-7.104-7.896-13.44-10.2 4.184-2.976 5-3.175 9.15-6.66-7.187-.51-13.325-1.88-19.5-3.75-3.904-1.827-9.327-3.377-11.97-3.42zm.69 8.37c3.8 0 6.15 1.302 6.15 2.88 0 1.606-2.35 2.91-6.15 2.91-3.782 0-6.18-1.423-6.18-3.03 0-1.578 2.398-2.76 6.18-2.76z"/>
  <use height="100%" width="100%" xlink:href="#a" transform="matrix(-1 0 0 1 640 0)"/>
</svg>
