<svg xmlns="http://www.w3.org/2000/svg" height="480" width="640" id="flag-icon-css-fj">
  <path d="M0 0v480h640V.079H402.442V0H0z" fill="#68bfe5"/>
  <g stroke-miterlimit="4.8">
    <path d="M420.887 193.236v136.357c0 44.599 80.581 71.08 80.581 71.08s80.582-26.483 80.582-71.08V193.236z" fill="#fff"/>
    <path d="M490.299 241.146v61.396h-69.412v22.34H490.3v71.539l11.17 4.252 11.17-4.252v-71.54h69.41v-22.339h-69.41v-61.396z" fill="#d21034"/>
    <path d="M420.887 193.236H582.05v52.657H420.887z" fill="#d21034"/>
    <g stroke-miterlimit="3">
      <g fill="#fff" stroke="#000" stroke-width=".805" transform="translate(-96.907 97.536) scale(.66486)">
        <ellipse ry="10.962" rx="13.623" cy="192.212" cx="798.23" stroke-width=".803"/>
        <ellipse ry="6.123" rx="12.114" cy="186.525" cx="798.23"/>
        <ellipse ry="6.123" rx="12.114" cy="198.769" cx="798.23"/>
        <ellipse ry="6.123" rx="12.114" cy="192.213" cx="798.23"/>
      </g>
      <path d="M578.06 235.448l-1.32-3.64s-3.612-1.474-3.887-3.393c-.643-5.115-2.47-7.032-5.206-7.764-2.742-.73-4.566.458-4.566.458-.825 1.188-4.937 1.188-7.22 1.278-2.283.093-2.322-.992-2.322-.992-1.774.013-2.52-1.291-2.52-1.291-1.16-2.319-2.025-3.186-2.598-3.48 2.963.044 5.195-1.323 8.54-4.833 3.652-3.837 6.26-2.353 6.26-2.353-1.774 3.583.589 3.266.589 3.266 4.84-2.464.638-8.677-.823-8.402-1.46.272-1.878-.711-1.878-.711.045 1.115-1.622 1.559-1.622 1.559 1.25-7.097-2.985-8.979-2.985-8.979-.64.64-1.007 1.918-1.007 1.918-1.186 4.293-5.114 3.654-9.501 1.552-4.383-2.1-16.076 2.194-19.728 3.655-3.657 1.462-10.324 3.746-16.353.365-6.027-3.382-7.492-2.742-9.866-2.101-2.376.638-6.574 1.646-8.126.822-1.555-.822-3.326-.873-3.326-.873.423-.236-.238-1.228-.238-1.228-1.826-2.465.238-3.976.238-3.976s-3.4.957-2.048 6.76l.622.871s.455 1.825 1.463 2.374l-.037.4s.86-.4 1.13.787c.278 1.187 1.556.091 2.105-.912 0 0-.916 5.298 5.663 6.576 0 0-.735-.822-.46-1.37.273-.548-.82-1.009-.728-1.828.09-.82-1.642-1.186-.275-1.828 1.368-.64 2.012-1.919 4.933-.183 2.922 1.736 5.208 1.373 5.208 1.373s-1.782-3.659-.8-3.656c.982.001 5.4 5.471 7.576 5.2 2.175-.267 6.378-2.734 8.48-1.82 0 0 .18-1.097 8.217-2.467 8.04-1.371 17.955-5.377 21.674-1.867 0 0 .435 2.78 1.986 3.513 0 0-.278 5.753-10.23 2.554l-3.61-.95s-.554-1.747-19.483 3.121c0 0-1.113.389-1.844.938-.733.546-1.739-.275-5.484 1.094-3.742 1.373-17.72 5.94-26.304 4.295l-.011.023c-1.891-.565-3.663-.273-3.734-.571-.093-.366 1.006.092 1.006.092-.639-.732-.914-.791-.914-.791-7.217-.792-5.941-4.052-5.941-4.052l.368 1.006c1.188-1.552-.46-5.206-.46-5.206l-.07.012a3.776 3.776 0 0 0-.067-.333l.597-.412c3.472-2.924 7.492-3.472 7.492-3.472-2.377-2.921-7.403-1.368-7.403-1.368.093-3.562-1.368-7.674-1.368-7.674-4.935.548-7.764 4.658-7.764 4.658-.183-3.653-4.843-5.752-4.843-5.752 1.734 2.1.64 7.123.64 7.123l.183.092c-.288-.008-.458 0-.458 0l-.103 1.077-.171-.072s-1.734.638-3.743 5.206c0 0-.203 1.08-.98 2.053-.007-.126.007-.24-.009-.372 0 0-2.244 2.94-7.43 0 0 0-7.047-4.18-9.523-4.026-2.477.154-4.105 1.316-3.947 2.012 0 0-5.654-.465-7.588 2.785 0 0-4.258 1.549-.619 5.033 0 0 .488 1.514 1.547 2.326 0 0-.15-3.181.62-2.246 0 0 .2.313.581.533.101.446.443 1.685 1.2 2.316l.544-.173c.083-.793.255-1.795.431-2.217l.18.024c-.024.023-.047.036-.07.057l1.006 1.549 1.16-.62c.544-.079 1.24.466 1.24.466l1.316-1.085c-.008-.012-.016-.014-.024-.027 1.296.217 1.65-2.296 1.65-2.296 1.165.306 2.254-.037 3.181-.598.565 2.084 5.18 4.318 5.18 4.318l.2-.016c-.391.25-.624.437-.624.437 2.1 1.464 6.029 1.098 6.029 1.098-1.643.64-1.413 3.68-1.413 3.68-.96.395-1.054 1.343-1.054 1.343 3.198 1.276 5.382.22 5.382.22.176 1.04-.083 1.15-.083 1.15-1.278 2.74-1.826 5.389-1.826 5.389.028.012.06.018.088.028-.04.072-.088.141-.118.215 0 0-5.574 1.935-8.051 4.645 0 0-.233-.775-.93-.775-.697 0-2.865-1.779-3.872-2.09-1.004-.308-2.476.311-2.864-.152-.35-.423-.193-3.594-.863-4.106l.013.003-.698-1.935c-.464 1.005-2.399.773-2.399.773-.076.046-.374.263-.795.577-.386.02-.83-.112-.83-.112-.2.04-.396.598-.54 1.14l-.235.177v-.543c-.385.31-1.16-.155-1.47-.155-.152 0-.34.443-.492.899-.788.146-1.831.185-1.831.185-.31.155-.08 2.555-.08 2.555-2.243 1.24-1.16 3.096-1.16 3.096 1.239 6.039 11.535 3.329 12.31 4.105.772.775 2.554.927 3.484.927.927 0 2.087 2.246 3.405 2.478 1.317.233 0-1.78 6.105-3.238 6.103-1.459 8.137-3.962 8.137-3.962 1.912-.368 2.444-2.691 2.587-3.63.018.433.07.911.139 1.456.275 2.102-1.177 2.867-1.177 2.867l5.289-1.588c2.099-.548 1.826-2.376 1.826-2.376 2.009 5.755 5.664 6.12 5.664 6.12.73-2.193.64-2.833.64-2.833l1.644-.089c.067-1.239-1.027-2.145-1.66-2.566l2.573 1.56 1.003-.182c0 .914 1.37 1.734 1.37 1.734l.185-1.185c1.188 1.553 3.38 1.004 3.38 1.004a7.34 7.34 0 0 0-.194-.853c4.681 2.889 12.158-.79 12.158-.79 2.009.455 2.283-.733 2.283-.733 2.284.273 2.813-1.287 2.813-1.287 5.375-.465 9.157-4.286 9.157-4.286 2.646-.183 2.732-2.075 2.732-2.075s2.654.523 5.213-2.675c5.935-8.493 14.813-4.071 14.813-4.071l-5.133.325c-13.426-.09-7.86 9.04-7.86 9.04l.828-.087c1.279.273 5.661 3.745 4.045 6.33-.025.046-.06.087-.09.129-2.737 3.747-7.807.173-9.251-2.989-1.464-3.196-4.388-2.464-4.388-2.464s-7.58 1.279-4.475 7.307l.114.004c.057 1.47.98 3.147 3.684 4.813 1.52 2.148 6.512 2.373 10.18 1.578 1.706-.373 10.711-4.244 10.711-4.244.661-1.962 2.899-1.51 4.908-4.341 2.009-2.832-2.832-3.838-3.928-5.389-1.098-1.555.275-1.28.275-1.28 4.383 2.375 4.748-5.207 4.748-5.207.458 4.383 4.293 5.571 4.293 5.571 2.377-2.372.643-7.215.643-7.215 5.664 10.14 9.094 8.525 9.094 8.525-3.049-1.888-1.514-4.415-1.514-4.415 2.737 10.779 13.977 1.371 13.977 1.371-.548 1.551.002 2.464 1.006 3.47 1.004 1.004 2.192 1.462 1.646 3.289-.55 1.826-5.753 1.462-5.753 1.462s-5.118-.273-4.659 4.02c.268 1.003 3.65 1.369 4.93 1.096 0 0-.528.115 1.363.368.633.08 1.398.094 2.177.069 2.18-.067 4.501-.437 4.501-.437 2.92-.638 2.465-1.646 2.465-1.646 4.472-.824 4.931-3.84 4.931-3.84z" fill="#ffd100" stroke="#000" stroke-width=".798"/>
      <path d="M429.633 216.743c.003-.005.24-.565.69-.632.349-.051.77.206 1.217.748l.244-.183c-.01-.019-1.206-1.76-.73-2.99.213-.547.741-.923 1.568-1.109l-.067-.3c-.933.213-1.533.651-1.786 1.3a2.09 2.09 0 0 0-.134.756c0 .6.211 1.21.428 1.677-.27-.17-.533-.24-.786-.202-.459.07-.682.4-.804.615zm140.981 23.925c-3.052.484-7.532.752-7.888-.171-.062-.165-.073-.824 2.426-2.45l-.292-.448c-2.084 1.358-2.924 2.34-2.633 3.09.64 1.661 7.18.712 8.486.504zm-58.374 1.762c-.696-1.065-.384-2.523.929-4.338l-.433-.312c-1.458 2.007-1.776 3.673-.945 4.943z"/>
      <path d="M508.117 237.835c.067 1.84 1.367 3.55 3.856 5.074l.28-.456c-2.33-1.425-3.54-2.985-3.602-4.636-.092-2.535 2.586-4.49 2.612-4.51l-.312-.435c-.12.085-2.938 2.138-2.834 4.963zm52.053.685c-.838 1.236-.558 2.733-.547 2.796l.525-.103c-.005-.015-.248-1.347.467-2.396.43-.631 1.121-1.04 2.06-1.218l-.097-.525c-1.087.205-1.895.691-2.409 1.446zm-119.257-23.376l-.165-.042-.023.17c-.004.017-.237 1.638-.973 2.08-.206.122-.428.136-.684.042l-1.248-.76c-.25-.219-.463-.38-.823-.275a1.801 1.801 0 0 1-.343-1.323c.089-.732.6-1.437 1.522-2.095l-.175-.25c-1 .715-1.554 1.491-1.652 2.314-.111.952.44 1.6.464 1.627l.074.086.101-.047c.278-.122.359-.05.63.19l1.347.819c.342.126.659.103.945-.068.761-.456 1.028-1.782 1.09-2.15 3.242.696 5.852-3.245 5.965-3.415l-.259-.167c-.023.041-2.686 4.078-5.793 3.264z"/>
      <path d="M433.14 214.539c-.161.656-.05 1.3.325 1.916.358.583.71.893 1.078.942.449.062.807-.27 1.123-.562.23-.215.448-.415.628-.402l.278.193.24-.191-.497-.306c-.313-.024-.577.22-.857.482-.28.257-.568.528-.874.485-.266-.036-.553-.307-.858-.801-.33-.542-.43-1.11-.29-1.683.35-1.447 2.08-2.51 2.098-2.52l-.157-.26c-.077.044-1.856 1.136-2.236 2.707zm-4.46 20.651c.154-.56.584-1.036 1.275-1.42-.136.013.678.675 1.376.6l.453-.244c.185.16 1.394 1.26 1.394 2.653 0 .294-.054.595-.185.9l.283.119c.884-2.094-1.34-3.952-1.36-3.972l-.082-.063-.137.088-.397.216c-.57.06-1.315-.545-1.32-.55-.94.41-1.419.95-1.597 1.595zm10.325-5.346c-.668.056-2.528.411-3.135 1.377-.22.35-.252.735-.092 1.152l.244.65c.579 1.557 1.18 3.167 1.836 3.531l.149-.266c-.557-.309-1.164-1.937-1.7-3.372l-.242-.65c-.125-.328-.104-.617.063-.883.498-.791 2.17-1.173 2.902-1.234.426-.034.565 1.538.65 2.478l.304-.028c-.122-1.385-.25-2.816-.98-2.755z"/>
      <path d="M433.905 231.373c-.39.35-.312.876-.307.899.003.144.177 4.034 2.024 4.838l.121-.28c-1.671-.728-1.84-4.55-1.842-4.588 0-.023-.055-.41.21-.643.281-.249.838-.268 1.61-.055l.082-.294c-.892-.246-1.53-.205-1.898.123z"/>
      <path d="M432.443 231.692c-.817.569-.784 2.192-.783 2.26l.305-.005c0-.017-.03-1.531.652-2.004.255-.176.59-.183.998-.019l.114-.282c-.51-.208-.943-.19-1.286.05z"/>
      <g transform="translate(-96.907 97.536) scale(.66486)">
        <path d="M862.33 169.49c.022.038 1.31 2.945 1.31 5.305 0 .419-.198.717-.291 1.081-.052-.135-.5-1.366-.5-1.366l-.39.987c-.017.055-.525 1.384.382 2.883 1.2 1.977 4.187 3.243 8.884 3.758h-.002c0 .004.059.055.066.065-.195.026-.341.08-.385.122l-.189.16.025.4c.122.488.678.512 1.784.554.187.01.49.055.705.066.275.077.557.153.557.153l-.094-.108c1.07.074 2.274.338 3.581.826-.289.076-.995.252-.995.252l1.162.458c.088.035 8.648 3.474 12.191 6.303-1.006.872-5.3 4.08-12.736 2.247l-1.246-.306.845.965c.052.058 4.896 5.614 5.9 8.983-1.687.017-8.185-.042-10.455-1.971l-.588.535c.03.05 3.115 4.576 3.804 8.105-.884.116-3 .203-4.252-1.433l-.577-.751-.313 2.037c-.605-.456-1.367-1.137-1.367-1.867v-.48l-1.833.333-3.765-2.283a7.975 7.975 0 0 0-.605-.365c-.004-.004-.035-.022-.035-.022l-.027-.016-.39.706s.448.267.577.348c.806.525 2.186 1.67 2.325 3.188-.595.035-2.448.136-2.448.136l.046.426v.067c0 .252-.08 1.304-.848 3.679-1.158-.276-5.37-1.744-7.858-8.874l-.775.192c.004.02.013.114.013.265 0 .65-.23 2.279-2.465 2.86-.013.004-4.15 1.248-6.452 1.937.43-.616.824-1.46.824-2.685 0-.26-.017-.54-.051-.837-.14-1.036-.224-1.899-.224-2.619 0-1.501.369-2.395 1.406-3.031l-.362-.716c-.097.038-9.618 3.82-14.339 2.25.216-.922 1.016-4.162 2.628-7.616l-.208.198c.31-.132.625-.615.364-2.166l-.086-.528-.484.233c-.03.015-3.052 1.363-7.417-.236.089-.358.32-1.001 1.235-1.38l.268-.108-.026-.292c0-.01-.01-.213-.01-.531 0-1.179.184-3.94 1.88-4.602l-.18-.777c-.055.007-5.161.415-8.257-1.307.812-.56 2.519-1.592 4.505-1.878l.318-.045.022-.318c.004-.016.011-.11.011-.26 0-.403-.156-1.219-.511-2.04 1.178.328 2.59.625 3.091.249l.17-.128-.146-3.099-.803.039.123 2.562c-.504.027-1.788-.23-3.035-.626l-1.234-.392.795 1.024c.645.829.727 1.858.737 2.331-2.79.519-4.976 2.251-5.07 2.33l-.41.337.435.303c2.4 1.672 6.153 1.817 8.08 1.775-1.136 1.28-1.328 3.421-1.328 4.492 0 .22.007.278.011.386-1.363.736-1.568 2.118-1.577 2.182l-.03.3.282.116c4.125 1.644 6.941.85 7.897.497.007.128.035.302.035.393 0 .378-.07.494-.07.494-2.026 4.248-2.875 8.286-2.885 8.324l-.066.334.313.124c3.828 1.53 10.705-.559 13.75-1.634-.399.689-.632 1.464-.632 2.429 0 .809.098 1.718.233 2.731.035.257.05.494.05.724 0 2.28-1.541 3.142-1.615 3.18l.306.741 7.955-2.389c1.84-.478 2.531-1.565 2.824-2.489 3.139 7.444 8.066 8.115 8.285 8.14l.32.027.1-.302c.766-2.287.943-3.449.978-4.01a439.55 439.55 0 0 0 2.462-.131l.02-.361c.004-.063.004-.123.004-.182 0-.658-.205-1.24-.49-1.764.498.3 1.377.834 1.377.834l1.318-.24c.344 1.33 1.923 2.374 2.127 2.499l.512.307s.188-1.212.267-1.74c1.965 1.758 4.753 1.235 4.885 1.202l.352-.09-.052-.357c-.4-2.688-2.204-5.886-3.265-7.596 3.491 1.587 9.85 1.471 10.163 1.461l.474-.016-.093-.465c-.564-2.825-4.094-7.272-5.57-9.04 8.201 1.541 12.606-2.714 12.795-2.907l.288-.306-.317-.278c-2.757-2.402-9.112-5.19-11.665-6.257l.894-.226-.883-.494c-2.135-1.2-4.398-1.349-5.928-1.415l-.007-.012c-.97-1.111-1.464-1.289-1.589-1.316-5.546-.612-7.579-2.166-8.317-3.366-.062-.099-.031-.166-.077-.262.12-.16.244-.318.244-.318.535-.697.726-1.63.726-2.617 0-2.547-1.294-5.457-1.367-5.625l-.738.334z"/>
        <path d="M836.8 167.86c-.017.08-.608 3.119-3.196 4.543-1.947 1.07-4.52.982-7.639-.266l-.351-.14.037.376c.008.078.213 1.864 1.897 3.172 1.402 1.092 3.408 1.475 5.922 1.2-.841.998-3.544 4.452-3.544 7.802 0 .177.011.354.028.528.344.247 4.58 1.395 6.544-1.116.07 1.077.379 4.522 1.724 5.87.737.733.91 1.804.91 2.66 0 .771-.146 1.367-.146 1.379l-.152.613.511-.372c.163-.119 4.057-2.971 5.302-6.707-.004.01.623-.937 1.825-1.325-.025.163-.046.33-.046.563 0 1.444.633 4.064 4.836 5.671l.345.132-.031-.367a7.135 7.135 0 0 1-.028-.726c0-1.055.146-2.993 1.15-3.997.662-.66.86-1.404.86-2.049 0-.507-.112-.918-.226-1.22.849.215 2.855.862 3.672 2.39 1.186 2.223 5.338.454 5.516.38l-.143-.437c-.017.004-1.746.391-2.837-.358-.48-.33-.768-.837-.869-1.51l-.192-2.31c-.042-1.047-.187-1.712-.713-2.271.55-.05 1.652-.031 2.118 1 .734 1.617 3.251 1.774 3.356 1.783l.861.045-.723-.468c-.024-.014-2.198-1.456-1.822-3.336l.313-1.376c.595-2.48 1.585-6.632.779-9.181l-.438.14c.2.636.282 1.39.282 2.196 0 2.26-.64 4.944-1.072 6.738l-.316 1.395a2.608 2.608 0 0 0-.052.538c0 1.217.79 2.146 1.405 2.705-.74-.16-1.766-.512-2.151-1.37-.605-1.326-2.229-1.387-3.004-1.23l-.542.109.462.307c.73.487.75 1.054.802 2.293l.195 2.358c.115.804.473 1.419 1.06 1.824.515.35 1.117.4 1.666.44-1.233.321-2.924.522-3.531-.62-1.145-2.132-4.292-2.702-4.424-2.727l-.48-.083.24.421c.026.046.358.652.358 1.422 0 .546-.167 1.171-.733 1.735-1.116 1.126-1.287 3.167-1.287 4.296 0 .221.011.252.015.387-3.595-1.511-4.231-3.749-4.231-5.016 0-.539.104-.898.118-.945l.105-.354-.365.062c-1.746.288-2.472 1.71-2.503 1.77-.999 2.991-3.71 5.359-4.691 6.148a6.88 6.88 0 0 0 .066-.895c0-.935-.202-2.126-1.05-2.976-1.43-1.429-1.624-5.973-1.624-6.019l-.03-.82-.4.712c-1.582 2.833-6.2 1.472-6.245 1.46-.195-3.58 3.866-8.16 3.908-8.206l.425-.472-.626.092c-2.652.384-4.712.03-6.123-1.06a4.63 4.63 0 0 1-1.644-2.499c3.076 1.146 5.656 1.21 7.642.113 2.774-1.534 3.383-4.675 3.407-4.807 2.913-6.606 5.458-7.649 5.486-7.656l-.16-.431c-.115.04-2.74 1.073-5.768 7.95z"/>
        <path d="M843.45 158.07l-.194.007-2.364 3.24.702.07c12.829 1.248 19.613 8.988 19.679 9.068l.296.344 2.326-2.527-.17-.26c-6.506-10.244-20.136-9.947-20.275-9.942zm.22.804c1.585.004 13.27.365 19.189 9.331-.29.313-.935 1.019-1.28 1.397-1.387-1.438-7.962-7.582-19.237-8.906a631.23 631.23 0 0 1 1.328-1.822z"/>
        <path d="M841.6 164.84c-1.096 1.495-2.114 3.707-2.114 4.742 0 .198.038.354.122.453.007.01.046.013.059.029-1.336 1.197-2.131 3.196-2.131 5.456 0 1.243.22 2.538.681 3.773l.257.695c1.259 3.424 2.344 6.384 7.788 4.641 5.244-1.675 5.45-2.011 6.77-4.189l.345-.564c.72-1.17 1.506-1.404 2.343-1.652.999-.3 2.034-.608 2.942-2.4l.883-1.324c.953-1.313 2.142-2.94 2.285-5.023l-.46-.031c-.132 1.95-1.28 3.518-2.197 4.78l-.922 1.388c-.82 1.616-1.715 1.884-2.664 2.167-.883.263-1.79.534-2.604 1.853l-.348.566c-1.27 2.096-1.431 2.366-6.512 3.994-5.027 1.606-5.946-.9-7.218-4.364l-.257-.702c-1.433-3.818-.313-7.669 1.55-9.049l.64-.475-.887.1c-.01-.038-.02-.071-.02-.131 0-.624.681-2.611 2.037-4.464 1.158-1.578 3.89-3.142 3.92-3.157l-.23-.399c-.115.069-2.845 1.63-4.058 3.287z"/>
        <path d="M839.16 178.65c.9.624 2.166.58 3.692 0 .007.544.129 1.7 1.078 2.538 1.116.988 2.965 1.178 5.5.574l-.108-.446c-2.375.567-4.089.407-5.087-.469-1.072-.945-.922-2.45-.918-2.463l.042-.394-.365.155c-1.537.662-2.74.702-3.575.125-1.495-1.04-1.383-3.755-1.38-3.786l-.46-.022c-.001.124-.127 3.002 1.581 4.188z"/>
        <path d="M842.07 174.99c-.656.156-.827.706-.827 1.13 0 .102.011.197.024.279.115 1.182 1.398 1.969 2.563 2.306 1.133.328 2.528.35 3.077-.356.22-.282.38-.79-.1-1.61-1.75-2.977-4.581-1.811-4.737-1.749zm1.888 3.271c-1.02-.291-2.142-.953-2.232-1.933-.022-.094-.132-.752.448-.89l.046-.015c.104-.047 2.611-1.136 4.19 1.55.281.48.327.845.132 1.093-.338.44-1.454.526-2.584.195zm-1.934-3.254c.004-.004.046-.018.046-.018l-.046.018zm1.626 5.973c-.295 2.514-.115 2.574.066 2.63l.16.05.18-.212 1.456-1.92-1.828-.866-.034.318zm.421.376l.737.348c-.198.253-.566.744-.845 1.11.007-.378.053-.912.108-1.458zm-4.211-2.396l-.097 2.376 1.995-2.413-1.887-.209-.011.246zm.449.266l.552.06c-.195.233-.324.392-.585.706.02-.37.027-.575.033-.766z"/>
        <path d="M838.53 178.2c.017.031 1.484 2.9 1.745 3.947.167.665 1.015 1.422 2.027 1.797 1.008.38 1.953.318 2.659-.174l1.325-1.101c.441-.425.588-.544.945-.483l.077-.453c-.601-.101-.894.179-1.34.603l-1.269 1.058c-.782.546-1.739.313-2.239.12-.946-.35-1.63-1.028-1.742-1.48-.275-1.094-1.721-3.92-1.78-4.04l-.408.206zm1.91-8.6c-1.62.748-2.305 2.713-2.333 2.796l.435.151c.007-.019.654-1.87 2.092-2.53.702-.322 1.488-.311 2.344.025l.17-.425c-.973-.393-1.884-.396-2.708-.017zm10.89 5.16c.128.096 3.188 2.414 1.43 5.243l.39.243c1.984-3.188-1.514-5.83-1.545-5.858l-.275.372zm-9.2.45s-.476 1.73 1.957 2.34c0 0-2.288-.02-2.433-.61-.154-.591.013-1.9.476-1.73zm7.44 2.07c0 .15-.122.274-.271.274a.275.275 0 0 1-.271-.274c0-.148.124-.271.27-.271.15 0 .272.123.272.271zm.27 1.08c0 .15-.122.275-.271.275a.272.272 0 0 1-.268-.275.27.27 0 0 1 .268-.27c.149 0 .271.125.271.27z"/>
        <circle r=".27" cy="177.825" cx="848.01"/>
        <path d="M848.75 179.45a.27.27 0 1 1-.539 0c0-.151.123-.275.268-.275.149 0 .271.123.271.275zm-7.1-7.32a.273.273 0 0 1-.546 0c0-.146.125-.271.271-.271.154 0 .275.125.275.271z"/>
        <circle r=".27" cy="173.22" cx="841.65"/>
        <circle r=".27" cy="172.68" cx="840.09"/>
        <path d="M840.83 174.3a.276.276 0 0 1-.275.271.273.273 0 0 1 0-.546.278.278 0 0 1 .275.275zm4.74-9.55s3.518 2.165.132 6.228c0 0 1.666-1.237 1.836-3.362.178-2.123-1.207-3.816-1.968-2.866zm13.5 5.84c-1.133.582-2.764-.496-3.58-1.514-.814-1.02-2.5-1.28-3.55.58-1.048 1.864-2.56 2.562-2.56 2.562s1.477-.872 2.998-2.503c1.512-1.627 2.385-.32 3.87.466 1.484.786 1.717.959 2.763.552l.059-.143z"/>
        <path d="M858.78 170.86c-.463.348-1.312.64-2.212-.09-.9-.727-1.658-1.715-2.792-1.134-1.138.584-3.293 2.212-3.293 2.212s3.495-2.417 4.165-1.892c.668.526 2.243 1.805 3.202 1.43.961-.383.93-.526.93-.526z"/>
        <path d="M856.1 172.34c-1.105-.844-2.212.989-3.143.76-.931-.237-1.69-1.779-1.69-1.779s.877 1.631 2.097 1.252c1.224-.377 2.069-1.135 2.824-.555.757.585-.088.322-.088.322z"/>
        <path d="M854.37 172.57c-2.183.226-2.399-1.813-2.399-1.834 0 0 .689 1.78 2.619 1.457l-.22.377z"/>
        <path d="M854.3 171.18c.143.552.112.803-.473.803-.588 0-.987-.196-.987-.766 0-.571 1.374-.392 1.46-.037zm-7.84-3.03c0 .38-.313.685-.7.685-.386 0-.462-.26-.462-.636 0-.375.076-.73.462-.73.387 0 .7.307.7.681z"/>
        <path d="M844.05 165.71s3.74.04 1.888 4.72c0 0 1.425-2.33.531-4.006-.897-1.674-2.305-1.252-2.305-1.252s-.343.317-.114.538z"/>
        <path d="M843.94 167.58c-.01.938.616 1.907 1.856 2.876l.286-.36c-1.123-.876-1.69-1.72-1.682-2.506.007-.786.612-1.253.619-1.26l-.275-.37c-.032.026-.79.604-.804 1.62z"/>
        <path d="M844.77 168.37c.16.539.577.946 1.244 1.212l.17-.425c-.527-.21-.855-.518-.972-.913-.237-.796.403-1.724.41-1.732l-.372-.267c-.036.048-.779 1.12-.48 2.125zm5.13 2.6s.696 1.512-.32 3.143c-1.02 1.63-.992 1.544-.992 1.544s1.224-2.241.759-3.175c-.462-.931.553-1.512.553-1.512zm14.55 15.79c3.842.724 12.51 7.52 12.6 7.59l.498-.636c-.365-.282-8.915-6.985-12.948-7.744l-.15.79zm3.41 9.59c.257 3.41 3.967 5.528 4.127 5.614l.392-.7c-.038-.018-3.49-1.996-3.72-4.975l-.799.061zm-9.21.71c0 3.824 3.584 8.45 3.738 8.647l.632-.497c-.034-.043-3.567-4.602-3.567-8.15h-.803zm-12.15.43c.632 1.262.566 1.902.403 2.215-.19.353-.58.407-.594.41l.094.801c.295-.035.887-.24 1.2-.816.383-.7.253-1.7-.383-2.964l-.72.354z"/>
      </g>
      <g fill="#fff" stroke="#000" stroke-width=".36">
        <path d="M429.57 216.3s.155 1.702 1.47 2.712c0 0-.154-1.861.234-2.633 0 0-.696-.774-1.704-.079zm2.627 1.084s.31 1.546 1.24 2.244l.544-.154s.232-1.937.541-2.169c.31-.23-1.315.697-2.325.08z" stroke-width=".239"/>
        <path d="M434.524 217.304l1.006 1.549 1.16-.62-.232-1.856s-.695-.157-1.934.927z" stroke-width=".239"/>
        <path d="M439.244 217.617l-1.316 1.084s-.696-.543-1.24-.465l.234-1.703s.93-.697 2.322 1.084zm-9.368 16.023s-.231-2.4.08-2.555c0 0 .926.31 1.314-.079 0 0 .543 1.937.387 2.711-.154.773-1.083.466-1.78-.077zm5.964-2.48s-.077-2.013.31-2.247c0 0 1.934.233 2.399-.772l.697 1.935s-2.168-.233-3.406 1.084z" stroke-width=".239"/>
        <path d="M433.752 231.546s.387-2.09.775-2.167c0 0 1.006.309 1.316-.08l-.077 2.557s.077-1.085-2.014-.31zm-2.247.312s.464-1.858.775-1.858 1.085.464 1.471.155v1.394s-1.706-.387-1.936 1.934l-.31-1.625z" stroke-width=".233"/>
      </g>
    </g>
    <g fill="#00a651" stroke="#000" stroke-width=".78">
      <path d="M461.683 270.4s5.262 4.887 3.886 9.147c0 0 3.382-7.268-.25-9.399-3.636-2.13-3.76-.497-3.636.252z" stroke-width=".519"/>
      <path d="M455.041 275.154s-1.376 1.884.125 3.261c0 0-1.627 2.377-.372 4.385 0 0-1.005 2.13-.753 4.386 0 0-.879 3.507 1 5.139 0 0 2.007 1.003 2.885.125 0 0 1.753-2.63.624-5.39 0 0 1.253-2.255-.124-5.137 0 0 .376-1.63-.752-3.507 0 0 .752-1.255.124-2.256 0 0-2.505-2.634-2.757-1.006z" fill="#964b36" stroke-width=".519"/>
      <path d="M456.544 269.017s-6.265-12.027-10.651-12.531c-4.387-.502-4.636-4.76-4.636-4.76s.5 2.004 4.01 2.004 10.276 4.886 11.027 8.645c.75 3.759 1.505 3.26 1.505 3.26l-1.255 3.382z" stroke-width=".519"/>
      <path d="M456.544 268.14s2.256-15.163 12.157-15.415c9.897-.252 6.642.752 9.02-.878 0 0-6.638 3.511-10.775 4.01-4.134.502-7.519 8.519-7.393 10.026.124 1.503-2.255 4.386-3.383 3.385-1.128-1.003.374-1.129.374-1.129z" stroke-width=".519"/>
      <path d="M458.798 273.784s2.254-6.015 6.14-4.008c0 0-3.01-5.767-8.397-.754 0 0 2.382 3.258 2.257 4.762zm-7.52-6.024s3.26 13.41-1.754 17.544c0 0 .124-6.888-2.883-11.024-3.005-4.138 3.007-8.646 4.637-6.52z" stroke-width=".519"/>
      <path d="M451.657 270.148s5.891 5.64 6.268 7.52c.376 1.879 1.753-5.64-1.003-7.768-2.757-2.133-5.764-2.508-5.764-2.508l.5 2.756z" stroke-width=".519"/>
      <path d="M440.793 284.927s.534 2.368 1.987 2.825c0 0 .075 1.76 1.375 2.293 0 0-.69 1.453.46 2.368 0 0-.232 2.903.838 3.516 0 0 2.6-.153 3.514-.918 0 0 .536-1.907-.913-3.82 0 0 .226-1.834-1.226-2.826 0 0 .459-2.448-1.375-3.363 0 0-.304-1.988-1.452-2.98 0 0-2.214 3.132-3.208 2.905z" fill="#964b36" stroke-width=".519"/>
      <path d="M443.692 282.022s-7.716-2.827-11.995 1.223c0 0 6.569.918 7.41 2.216.84 1.297 4.89-2.138 4.585-3.44z" stroke-width=".519"/>
      <path d="M441.325 286.836s-.61-.534-1.374-1.07c-.764-.534-7.257-2.292-8.177 3.973 0 0-2.37-6.188 1.07-7.03 3.44-.841 6.19 1.147 8.48 4.127m-5.078-12.806s2.378 5.137 3.257 5.391c.877.248 1.502-.626 1.502-.626s-3.131-4.637-4.76-4.765zm-1.756-7.892s-2.006-6.64-4.385-4.886c-2.381 1.754-1.755 6.514-1.755 6.514s-4.762-4.884-2.006-8.77c2.76-3.885 8.146.376 8.146 7.142z" stroke-width=".519"/>
      <path d="M439.882 279.795s0 1.253.878 1.627c.878.377 2.506 1 2.506.252 0-.751-1.252-3.634-1.756-3.257-.502.377-1.376.372-1.628 1.378z" fill="#964b36" stroke-width=".519"/>
      <path d="M438.38 272.03s-.25-5.764 3.506-7.897c0 0 .754.13 1.13-.998 0 0-3.01 7.265-2.132 10.9l-.124.501" stroke-width=".519"/>
      <path d="M439.131 265.008s6.766-14.036 15.038-9.15c0 0-8.646 1.756-11.777 7.896l-3.135 4.632-.125-3.378z" stroke-width=".519"/>
      <path d="M435.494 270.148s-2.005-9.398-3.258-10.649c-1.254-1.254-3.384-2.632-5.891-.503 0 0 4.387-3.886 9.023-.626 4.635 3.259 3.633 8.396 3.633 8.396l-.5 6.517-3.133-2.883" stroke-width=".519"/>
      <path d="M442.761 281.297s-8.27-15.659-13.657-4.508c0 0-1.006 2.88.122 4.006 0 0-3.008-2.253-1.629-7.767 1.377-5.511 10.524-3.007 13.158 1.505 2.63 4.51 3.384 6.768 3.008 7.016-.378.252-1.002-.252-1.002-.252zm23.31 4.515s6.018-12.407 9.524-6.769c0 0 1.001 2.756-.504 3.887 0 0-2.378-2.883-4.507.626-2.131 3.507-1.254 3.259-1.254 3.259s-2.256.626-3.259-1.004z" stroke-width=".519"/>
      <path d="M475.087 282.926s3.257 1.752 2.133 5.261c0 0 4.383-8.394-1.63-9.147 0 0 1.13 2.633-.503 3.886zm.379-8.516s7.896 2.253 8.146 5.64c0 0 1.38-6.52-3.133-8.524.001.001-5.39.88-5.013 2.883z" stroke-width=".519"/>
      <path d="M478.976 264.004c3.385-6.641 7.645 2.13 7.645 2.13s1.502-6.89-2.756-8.145c-4.263-1.253-7.018 14.66-7.018 14.66l-5.014 1.128s1.38-13.907 8.897-15.162l.876.127" stroke-width=".519"/>
      <path d="M472.96 268.013s-4.76-9.773-8.02-10.774c-3.259-1.003 1.757-2.507 3.761-.628 2.002 1.878 5.761 4.26 5.386 9.273l-1.128 2.13zm-4.888 13.411s1.378-6.64 5.137-8.646c3.759-2.006 7.268-1.252 7.268-1.252s-4.512 1-5.262 3.259c-.753 2.254-2.006 2.378-2.006 2.378l-5.137 4.26z" stroke-width=".519"/>
      <path d="M466.071 285.812s-2.13 4.01-1.63 4.635c0 0-2.254 3.258-1.378 4.887 0 0 2.257 1.754 3.26 1.001 0 0 2.628-3.632 1.877-5.638 0 0 1.754-2.379 1.13-3.882 0 0-2.63.125-3.259-1.003z" fill="#964b36" stroke-width=".519"/>
      <path d="M455.048 278.651c.141.072 1.406.686 2.258.402l.608-.52-.478-.238c-.312.62-1.69.109-2.15-.12l-.238.476zm-.206 3.889l-.104.525c.108.021 2.65.513 3.863-.564l-.356-.398c-1.013.9-3.378.445-3.403.438zm-.645 4.428l-.314.433c.03.023 2.985 2.127 4.876-.17l-.414-.34c-1.57 1.906-4.043.154-4.148.077zm-11.476.639l.111.286c.106-.044 2.61-1.049 2.769-2.88l-.304-.028c-.143 1.644-2.552 2.612-2.576 2.622zm1.416 2.287l.022.305c.097-.008 2.409-.18 2.812-1.796l-.298-.077c-.348 1.401-2.513 1.565-2.536 1.568zm.479 2.366l-.017.308c.111.005 2.7.139 3.579-1.295l-.261-.162c-.784 1.281-3.275 1.152-3.3 1.15zm19.634-1.621c.046.048 1.162 1.15 2.466 1.102.638-.023 1.204-.317 1.682-.866l-.404-.351c-.377.434-.814.665-1.295.683-1.068.04-2.064-.935-2.074-.947l-.375.379z" fill="#000" stroke="none"/>
    </g>
    <g fill="#964b36" stroke="#000" stroke-width=".279">
      <path d="M542.065 299.8a1.104 1.104 0 0 0-.405.268l.405-.268zm9.215-2.307c-.09-.229-.148-.132-.266-.234-.168-.138-.265-.582-.414-.748-.088-.101-.189-.003-.284-.028-.215-.474-.469-.973-.696-1.43a.397.397 0 0 0 .063-.213 7.61 7.61 0 0 0-.114-.4c-.064-.101-.166-.042-.229-.199-.07-.157-.016-.466-.041-.652-.019-.154-.08-.24-.07-.458.01-.189.111-.409.1-.575-.005-.103-.127-.337-.164-.425-.149-.358-.273-.696-.291-1.138-.019-.4.062-.644.091-.991.038-.416-.182-.618-.182-1.002.002-.293.126-.624.162-.887.048-.36.052-.883.022-1.252-.027-.354-.127-.567-.072-.964.014-.098.06-.176.072-.312-.003-.098-.003-.192-.003-.287v-.57c0-.185.019-.393.003-.574-.016-.15-.104-.305-.104-.423 0-.203.13-.3.102-.576-.018-.198-.047-.245-.092-.418-.088-.328-.028-.659-.082-1.01-.025-.168-.079-.222-.095-.414-.022-.226.048-.305.07-.465.023-.16.047-.37.025-.538-.025-.204-.122-.348-.095-.57l-.074 2.515c-.062-2.194-.15-4.225-.15-4.225l-3.336-1.567s-.283 6.126-.21 6.979c.066.855.353 6.699.21 7.41-.144.713-.495 4.275-.495 4.275s-1.631 1.14-2.27 2.42c-.64 1.283-.497 1.71-.712 1.71l1.585-.246-1.18.788a.721.721 0 0 1 .735.114c.027.022.203.173.226.173.062 0 .148-.159.224-.187.246-.083.453.378.686.343.125-.019.296-.15.398-.284.085-.114.117-.312.206-.388.081-.07.28.011.365.011.233 0 .47.007.702 0 .31-.009.562-.446.849-.693.266-.224.462-.303.747-.287.312.023.594.315.911.333.24.012.407.041.601-.21.134-.176.229-.437.356-.62l.788-.122c.156.065.316.137.45.132.201-.01.41-.034.609-.003.076.01.226.188.288.144.042-.033.114-.273.157-.345-.018-.096-.047-.337-.082-.417z"/>
      <path d="M544.532 299.687c.2 0 .385-.046.554.102l.079.154a.173.173 0 0 0 .167.024c.113.076.136.12.26.148.116.025.243-.005.359-.003.146.005.217.055.353.111.238.098.395.005.601-.143.239-.176.326-.042.555.178.171.164.136.149.29.037.024-.053.051-.104.077-.148.077-.032.155-.053.233-.067.128-.06.255-.053.375-.1.127-.049.22-.19.354-.164.115.023.248.118.358.153a.747.747 0 0 1 .24.122c.16-.328.512-.426.736-.584.234-.162.45.034.707.036.137 0 .192-.079.29-.11.108-.04.232.017.337-.026.11-.042.131-.148.253-.162.227-.028.48.341.706.41.127.043.715.175.628-.258-.083-.411-.452-.126-.53-.415-.043-.165.043-.398-.008-.583-.044-.168-.23-.363-.34-.4-.139-.043-.22.102-.337-.011-.098-.09-.135-.428-.22-.562-.114.083-.185.16-.335.13-.172-.042-.155-.1-.282-.262-.278-.348-.438.208-.694.12-.194-.062-.375-.552-.527-.752-.081-.106-.31-.45-.428-.374-.198.13-.018.504-.122.67-.074.116-.337-.002-.432.016-.15.033-.178.072-.287.252-.22.364-.347.652-.688.61-.162-.018-.284-.182-.442-.122-.169.065-.263.245-.449.266a.977.977 0 0 1-.42-.035c-.13-.058-.275-.3-.393-.367a.153.153 0 0 0-.16-.03 8.658 8.658 0 0 0-.194-.112c-.206-.06-.189-.052-.273.22-.048.168-.067.342-.129.502-.06.134-.191.3-.268.39-.144.154-.213.113-.4.169-.15.049-.35.282-.43-.018-.12-.454.333-1.131-.171-1.013-.132.03-.21.055-.291.25-.09.224-.018.37-.058.615-.053.31-.643.83-.526 1.11.078.197.342-.106.414-.058.12.083.085.28.17.412.179.273.708-.423.738-.046m-2.142-2.709c0-.039-.008-.076-.01-.117-.142-.025-.301-.175-.43-.178-.123-.007-.361.292-.445.434-.258.428-.187 1.01-.621 1.002-.107-.003-.356-.075-.45-.01-.163.116-.06.458-.06.691 0 .22.1 0-.017.285-.035.078-.141.104-.17.208-.087.372.223.254.36.25.35-.003.7-.003 1.047 0 .21.004.337-.07.533-.146.13-.044.405-.042.514-.157a2.21 2.21 0 0 0 .184-.407c.028-.144-.027-.317.008-.437.055-.21.243-.13.277-.414.09-.696-.653-.175-.536-.86"/>
    </g>
    <g stroke="#000" stroke-width=".519">
      <path d="M550.808 277.9c0 .901-.617 1.627-1.382 1.627-.756 0-1.378-.726-1.378-1.627 0-.9.622-1.63 1.378-1.63.764 0 1.382.73 1.382 1.63zm-4.508-2.008c0 .9-.617 1.627-1.379 1.627s-1.381-.728-1.381-1.627c0-.9.619-1.63 1.381-1.63s1.38.73 1.38 1.63z"/>
      <path d="M548.68 276.517c0 .901-.617 1.627-1.378 1.627-.762 0-1.378-.726-1.378-1.627 0-.902.616-1.63 1.378-1.63.76 0 1.378.73 1.378 1.63z"/>
      <path d="M546.373 278.006c0 .902-.62 1.632-1.38 1.632-.76 0-1.378-.731-1.378-1.632 0-.899.617-1.627 1.378-1.627.761 0 1.38.727 1.38 1.627z"/>
      <path d="M548.514 279.25c0 .899-.621 1.631-1.38 1.631-.76 0-1.38-.732-1.38-1.632 0-.899.62-1.627 1.38-1.627.758 0 1.38.728 1.38 1.627z"/>
    </g>
    <path d="M549.179 261.478s13.907-19.42 28.82.754c0 0 .125 2.006-1.253 4.135l-.377-1.628-.876.25-.25-1.003-1.633-.124.505-2.131-1.757 1.378.252-1.504-2.005 2.008.252-4.263-2.132 3.634.25-2.504-.75 1.125-.453-1.46-.674 1.46-1.005-.75v1.002l-1.752-1.503-.626 2.004-.877-2.129-.251 1.502-.88-1.754-.122 1.88-2.884-1.254.626 1.755-1.376-1 .25 1-1.877-.374.123 1.126-2.005-.376.377 1-2.758-.373.999 1.128-.278.458s15.066-4.968 16.069 13.827l-2.758 1.378.753-1.5-.753-.504-2.254-1.752.627-2.383-.751.252-.127-1.377-.375.25-.88-1.379-.249.502-.626-1.631-.626 1.13-.378-2.758-1 1.757-.128-1.003-.377.626-1.252-1.504-.373 1.002-.504-.751-.374.876-1.379-1.255v1.006l-.876-.754-.38.502-2.126-1.128-.13 1-1.125-1-.377 1s13.662 7.772 9.399 20.428l-.754 1.628-.247-4.258-1.253 2.254.871-4.887-.871.876-.13-1.877-1.123 1.877-.382-2.129-.497.627-.755-3.26-.627 1.38-1-3.634-.752 1.503-.502-3.13-.501 1.879-1.505-2.758-.248 1.125-.876-2.253-.504.754s-2.506-.128-3.257-.754c-.752-.624-2.883 3.76-2.883 3.76l.252-2.632-.876 1.752v-1.752l-1.63 5.261-.377-3.758-.877 3.257-.377-1-.25 1.38-.502-.504-.437 1.48-.818-.602v2.004l-.75-1.002-.627 3.007-.375-1.25v1.376l-.626-.749-.629 3.008-.876-1.252-.123 2.127.373 1.631-1.001-.502.377 2.628s-3.885-7.265.753-14.284c4.633-7.013 10.9-8.895 10.9-8.895l-.63-.624-.124-.628-3.759 1.879.127-1.13-1.003.877-.25-1.252-.629 1.128-.122-.502-.879 1.38-.503-2.006-.625 2.383-.591-1.667-1.288 3.544v-2.63l-1.003 2.757-.375-3.008-.75 3.507v-3.132l-1.131 3.132-.751-3.006-.502 2.88-.75-2.253-.755 3.382-1.125-3.008-.627 4.512-.75-1.756-.127 3.259-.875-2.004.875 4.258-1.128-1.628.377 2.63-1.628-2.882.125 3.387-.878-1.13-.378 1.253s-.372-13.032 8.521-15.54c8.9-2.505 14.664.754 14.664.754l-3.383-2.756.375-.879h-1.252l.5-1.002-2.63.126.751-1.002-2.006.25v-.626l-1.253 1 .502-1.126-1.755 1.125-.106-1.666-.897 1.42-.497-1.506-4.013 4.008 1.128-4.134-.751.879-.124-.879-1.129 1.756-.25-1.254-.503 1.503-.377-1.753-.874 1.753-.879-1.626-.374 2.13-.629-1.13-.751 1.63-1-1.004-.128 1.003-2.005-.877.502 1.504-1.505-1.252-.377 2.004-.874-1.003-.627 2.508-.626-2.382-.626 1.88s7.836-20.136 27.661-6.999c0 0 2.16 2.111 2.661 3.615.502 1.504.127.253.127.253l-.377-13.91.751 6.015.501-2.131-.124 3.133 2.002-4.387s-2.378 7.27-1.503 9.9c0 0 .88-8.394 3.889-9.398l-2.758 6.014.876-.126-.627 1.255h.752l-.909 1.988-.47 1.02.5 1 .757-.758z" fill="#00a651" stroke="#000" stroke-width=".519"/>
    <path d="M547.118 269.649l.395.356c.053-.055 1.292-1.376 3.373.381l.345-.41c-2.488-2.103-4.102-.346-4.113-.327zm-.605-6.822l-.082.482.967-.412c-.155.276-.664 1.162-.664 1.162l1.44-.48-1.786 2.34.425.328 2.843-3.724-1.766.59.758-1.334-1.528.657c.101-.618.316-1.911.316-1.911l-.53-.089-.393 2.391z"/>
    <path d="M543.86 262.98s.351.777.615 1.356c-.114-.047-.98-.394-.98-.394l2.891 5.115s.35-.446.37-.474c-.291.747-.582 1.5-.582 1.5l.5.195 1.245-3.206-.46-.261-1.003 1.285c-.27-.481-1.27-2.251-1.745-3.088.06.022.802.321.802.321l-.8-1.764 1.084.677v-1.906h-.534v.943l-1.77-1.105.367.806zm-1.822 6.423l.213.49c.783-.335 1.428-.391 1.918-.157.574.275.747.866.749.87l.515-.138c-.007-.034-.234-.83-1.026-1.211-.633-.305-1.43-.256-2.369.146zm2.245 5.418l-.44-2.802.53-.083.44 2.802zm3.849-.461l-.714-2.14.508-.17.714 2.14zm1.412 1.582l-.536-2.138.52-.13.536 2.138z"/>
    <path d="M442.568 340.237s-2.35-1.067-3.42-.286c-1.068.786-.922 1.923-1.85 1.852 0 0 3.56.783 4.343-.144.783-.922.927-1.21.927-1.21m.432.772s-1.546 2.067-1.011 3.278c.533 1.212 1.677 1.315 1.407 2.204 0 0 1.53-3.307.795-4.272-.735-.96-.98-1.16-.98-1.16m-2.817-5.774s-2.467.765-2.743 2.057c-.283 1.294.584 2.052-.154 2.614 0 0 3.179-1.782 3.15-2.996-.03-1.212-.11-1.518-.11-1.518m1.307.694s1.17-2.305.433-3.403c-.735-1.106-1.883-1.01-1.77-1.93 0 0-.94 3.52-.048 4.345.892.818 1.172.976 1.172.976m-2.207-.826s.056-2.577-1.085-3.25c-1.14-.675-2.134-.095-2.432-.976 0 0 .682 3.583 1.844 3.941 1.16.35 1.48.37 1.48.37m4.408 4.21s2.704-.929 2.92 1.993c.213 2.92-.144 1.924-.144 1.924s-1.424-3.134-2.99-3.633l.214-.284z" stroke-width=".519" fill="#00a651" stroke="#000"/>
    <path d="M442.954 341.268c0 .062.283 2.27.283 2.27l.38-.05-.286-2.208c.01.003.925-4.854.925-4.854l-.377-.069-.925 4.91z"/>
    <path d="M440.494 340.55l-.126.36c1.293.455 3.099-.967 3.174-1.027l-.24-.297c-.016.011-1.713 1.352-2.808.964zm3.39-2.85l-6.052-3.061.241-.477 6.052 3.061z"/>
    <path d="M439.496 337.013l-.377-.378 1.211-1.21.377.378zm2.119-.588l-1.282-2.78.485-.223 1.281 2.779zm1.791 3.4l.034.534c1.646-.111 2.048.955 2.05.967l.526-.11c-.062-.304-.721-1.518-2.61-1.391z"/>
    <path d="M471.17 341.055c2.018-1.13 2.423-5.091 2.423-5.091-.483 1.457-4.196 2.909-4.196 2.909 2.744-1.7 6.052-9.364 6.052-9.364-.887 2.745-8.07 5.004-12.673 7.587-4.603 2.581-2.18 10.011-2.18 10.011-1.29-.889-3.794-4.842-4.276-8.317-.488-3.47-1.86-4.84-5.007-5.245-3.15-.404-5.006 3.146-5.006 3.146l-4.681 2.425 4.76.16s3.395 1.132 3.395 3.796c0 2.665-2.987 13.32 1.934 19.295 3.426 4.152 16.067 6.538 16.067 6.538" fill="#fff" stroke="#000" stroke-width=".665"/>
    <path d="M461.89 349.286s.968-4.764 4.116-4.602c3.148.161 4.036-3.55 5.893-4.117 1.856-.564 11.463-3.146 12.513-7.75 0 0-.888 7.59-9.685 11.384 0 0 7.1-2.342 7.91-3.876 0 0-3.15 6.781-10.819 7.83 0 0 7.185-.564 8.235-2.5 0 0-3.23 4.277-8.556 4.844 0 0 4.923 2.017 6.216.321 0 0-2.665 3.148-5.976 3.389l.89.243s-3.148 3.715-6.62 1.211c-3.47-2.504-3.553.648-3.553.648" fill="#fff" stroke="#000" stroke-width=".665"/>
    <path d="M469.056 356.466s4.055 6.783 4.46 10.415c0 0 7.75 8.559 10.656 9.04 0 0-1.373.563-3.877-1.533 0 0 2.1 2.18 2.504 2.26.402.084-1.696-.161-2.02-.728 0 0 .89 1.295 1.453 1.456.567.162-.564-.16-.564-.16s-1.051-.163-1.535-.567c-.485-.402-.162 1.047-.162 1.047s-1.21-.323-1.613-.726c-.404-.402.162.89.162.89l-1.049-.243-.726.483s-.081.485-.569.081c-.481-.4-1.37 0-1.37 0s-.648.567-.97.162c-.32-.403-1.544 1.553-1.544 1.553l-5.083-12.27" fill="#fff" stroke="#000" stroke-width=".665"/>
    <path d="M473.88 378.724l-6.424-12.228.674-.354 6.425 12.228zm5.613-.824l-10.991-12.306.57-.51 10.992 12.306zm2.507-1.085l-12.542-11.688.52-.56 12.543 11.69z"/>
    <g transform="translate(-96.907 97.536) scale(.66486)">
      <path d="M823.44 360.84s-1.231-2.204-2.303-1.376c-1.069.825-1.685.976-1.87.919 0 0 1.076.059 1.687-.522.613-.586 1.656-.216 2.486.979zm-6.66-1.01s.676 1.398.685 1.422c-.068.004-.763 2.257-.763 2.257l.553.17.75-2.453c-.013-.213-.703-1.642-.703-1.642l-.522.246z"/>
      <path d="M823.16 360.5s-.918 1.075-2.176.766l-1.252-.306s1.066.06 1.776.093c.7.029 1.618-.337 1.652-.553z"/>
      <path d="M822.86 360.72s-1.132-1.195-1.9-.858c0 0 1.35-.43 2.116.73l-.216.128z"/>
      <path d="M822.67 360.5s-1.286.887-2.699-.09l-.086-.066.183-.059c.001.001 1.778.735 2.602.215z"/>
      <circle r=".383" cy="360.284" cx="821.573"/>
    </g>
    <path d="M450.015 359.625s-.662 1.219-.316 1.953c.351.734 1.922 1.114 2.13 2.092.212.98.736.978 1.469.842.735-.141.874-.175.874-.175s-3.075-1.645-3.88-4.296l-.277-.416z"/>
    <g fill="#964b36" stroke="#000" stroke-width=".48">
      <path d="M549.398 334.792s5.597-7.38 10.56-5.441c4.963 1.94 8.188 2.873 8.188 2.873s.094 4.97-2.545 4.97c-2.633 0-5.157-4.964-7.557-3.489-2.404 1.473-4.378 3.49-4.533 4.187-.155.696-6.357.852-4.112-3.1z" stroke-width=".319"/>
      <path d="M528.156 370.375s-1.548 1.626-.85 2.016c.7.386 2.092-.082 2.092-.622 0-.546-.928-1.548-1.242-1.394z" stroke-width=".519"/>
      <path d="M526.92 371.924s-2.867-1.632-5.116 2.245c-2.252 3.876-4.11 10.157-5.428 11.01-1.317.853 12.793-6.202 12.948-9.147 0 0 .929-3.8-.543-3.725-1.473.082-1.551.237-1.862-.383z" stroke-width=".519"/>
      <path d="M527.305 372.39s-2.945.693-3.565 4.878c-.62 4.19-4.73 6.36-4.961 6.513m49.375-51.555s-4.48 1.558-3.706 4.66" stroke-width=".319"/>
    </g>
    <path d="M533.74 341.3s.155-10.62 8.833-10.156c1.644.152.86 2.092.86 2.092s1.877-1.315 2.735.774c0 0 2.737-1.239 3.048 1.476 0 0 2.972-.386 2.58 2.015 0 0 2.032-.464 1.956 1.241 0 0 2.344-.93 2.108 1.473 0 0 2.58-1.706 2.192 1.394 0 0 2.658-1.858 3.592 1.242.938 3.1-2.656 9.69-6.174 11.395" fill="#fff200" stroke="#000" stroke-width=".319"/>
    <path d="M557.855 341.946c.012.083 1.17 8.31-3.495 11.32l.164.26c4.834-3.12 3.645-11.54 3.635-11.625l-.304.045zm-5.618 9.009l.216.22c2.954-2.876 3.59-10.623 3.612-10.95l-.302-.026c-.007.081-.65 7.961-3.526 10.755zm-2.759-1.842l.305.025c.38-4.784 4.12-10.256 4.159-10.312l-.252-.171c-.04.054-3.824 5.594-4.212 10.458zm-2.168-1.396l.305.03c.533-5.77 4.344-10.103 4.381-10.144l-.226-.205c-.04.043-3.917 4.447-4.46 10.32zm-3.024-1.928l.304.01c.303-6.813 4.774-10.158 4.818-10.19l-.18-.248c-.044.034-4.633 3.458-4.942 10.428zm-2.793-1.696l.307-.01c-.223-6.2 4.545-9.914 4.594-9.952l-.185-.242c-.049.04-4.942 3.843-4.716 10.204zm-5.033-2.267l.302.038c.831-6.713 6.806-8.46 6.866-8.477l-.083-.294c-.06.016-6.232 1.814-7.085 8.733z"/>
    <path d="M528.621 354.173s-1.47-9.849 4.42-12.947c0 0 1.089-.233 1.706 1.163 0 0 3.103-1.317 3.181 1.315 0 0 1.549-1.24 1.937.465 0 0 3.334-.696 2.714 1.784 0 0 2.79-.775 2.557 1.626 0 0 2.792-1.007 2.325 1.086 0 0 2.944-.695 2.249 1.707 0 0 3.645-.386 2.56 2.17 0 0 2.713-.696 2.091 1.397 0 0 3.567.622 1.937 2.87-1.627 2.245-5.737 5.657-9.764 7.13" fill="#00a651" stroke="#000" stroke-width=".319"/>
    <path d="M525.443 364.092s-2.404-8.214 2.174-10.311c0 0 .848-.234 1.003.622 0 0 1.01-1.32 1.787-.155 0 0 2.323-1.086 2.869.619 0 0 1.548-1.32 2.325.617 0 0 1.473-.617 1.473.931 0 0 2.015-.852 2.015 1.009 0 0 1.935-.775 1.55 1.317 0 0 2.946.465 2.093 1.86 0 0 2.64.696 1.628 1.784 0 0 2.867-.31 1.317 1.627 0 0 2.171-.695.932 1.71-1.242 2.4-5.116 5.036-7.83 5.346" fill="#00a651" stroke="#000" stroke-width=".319"/>
    <path d="M528.309 370.601s-5.116-4.96-2.71-6.433c0 0 1.082.308 1.47 1.394 0 0 1.24-1.782 1.94.077 0 0 1.862-.62 1.862.624l1.47 1.086s1.708-.157 1.399.93c0 0 1.86-.235 1.781.774 0 0 1.63.076 1.476 1.16 0 0 2.787.465 1.548 1.864 0 0-4.884 1.005-8.294-.389 0 0-1.787-.622-1.942-1.087z" fill="#00a651" stroke="#000" stroke-width=".319"/>
    <path d="M545.855 362.404l.109.284c3.03-1.168 8.296-8.354 8.52-8.66l-.247-.182c-.055.077-5.434 7.422-8.382 8.557zm-1.722-1.31l.148.266c2.638-1.472 7.89-8.428 8.111-8.724l-.243-.184c-.053.074-5.435 7.203-8.017 8.641zm-1.496-.612l.197.234c2.785-2.312 6.842-9.95 7.015-10.273l-.27-.144c-.04.078-4.202 7.91-6.942 10.184zm-1.37-1.762l.303.043c.53-3.861 5.953-9.938 6.006-9.998l-.227-.204c-.224.252-5.541 6.207-6.082 10.16zm-10.857-4.694l.305-.027c-.455-5.453 4.11-11.46 4.156-11.52l-.242-.184c-.049.059-4.683 6.158-4.22 11.731zm2.872.479l.303-.053c-.755-4.372 4.408-10.59 4.462-10.65l-.234-.2c-.217.26-5.308 6.387-4.53 10.903zm4.415 1.609l.305-.009c-.15-4.991 4.639-9.994 4.688-10.045l-.219-.213c-.049.05-4.93 5.147-4.774 10.267zm-10.532 9.042l.287-.107c-1.74-4.611 1.28-10.517 1.31-10.574l-.275-.142c-.03.061-3.11 6.083-1.322 10.823zm2.008.299l.291-.094c-1.516-4.697 1.054-10.993 1.082-11.055l-.285-.117c-.024.061-2.636 6.463-1.088 11.266zm8.311 4.695l.105.288c4.946-1.78 8.18-6.29 8.213-6.333l-.25-.179c-.03.045-3.208 4.48-8.068 6.223zm-1.017-1.078l.124.28c3.946-1.78 7.624-6.745 7.659-6.797l-.245-.178c-.038.05-3.667 4.948-7.538 6.695zm-.957-.372l.178.248c3.086-2.236 7.05-7.966 7.092-8.025l-.251-.17c-.04.058-3.974 5.742-7.02 7.946zm-4.947-2.879l.303-.044c-.682-4.929 2.508-10.776 2.543-10.834l-.268-.148c-.035.06-3.274 5.996-2.578 11.026zm2.147 1.336l.206.227c3.183-2.874 4.268-10.62 4.312-10.947l-.304-.042c-.01.079-1.112 7.965-4.214 10.763z"/>
    <path d="M534.891 368.075l.179.247c4.493-3.25 5.711-9.49 5.721-9.55l-.298-.058c-.012.06-1.208 6.18-5.602 9.361zm.519-13.45c0 .291.014.581.041.876-.005-.025-3.407 11.025-3.407 11.025l.29.09 3.417-11.086c-.527-5.359 4.186-11.208 4.233-11.266l-.236-.191c-.047.053-4.338 5.38-4.338 10.552z"/>
    <path d="M538.973 357.324c-.044.155-1.082 7.724-5.164 10.517l.173.252c4.198-2.871 5.218-10.335 5.26-10.65 1.811-2.156 5.986-9.716 6.029-9.792l-.268-.147c-.043.075-4.201 7.612-6.03 9.82zm-12.053 8.271c.03.159.712 3.92 1.493 5.247l.263-.154c-.755-1.281-1.446-5.107-1.453-5.146l-.304.053zm1.934.047c.033 1.872.042 4.944-.062 5.217l.284.111c.157-.393.097-4.51.085-5.33l-.307.002z"/>
    <path d="M529.027 371.007l.278.124c1.31-2.852 1.714-4.82 1.719-4.838l-.3-.06c-.005.016-.4 1.956-1.697 4.774z"/>
    <path d="M529.32 371.093l.154.264c2.432-1.413 2.996-3.87 3.016-3.974l-.298-.067c-.007.025-.559 2.435-2.873 3.777z"/>
    <path d="M529.772 371.306l.03.303c2.383-.238 4.006-3.133 4.075-3.255l-.269-.148c-.015.03-1.614 2.878-3.836 3.1z"/>
    <path d="M530.011 371.459l.018.305c3.826-.236 5.548-2.522 5.617-2.619l-.247-.18c-.016.02-1.713 2.27-5.388 2.494z"/>
    <path d="M530.284 371.539l-.063.298c.206.047 5.08 1.08 6.75-1.46l-.256-.167c-1.552 2.365-6.384 1.338-6.431 1.329z"/>
    <path d="M420.887 193.236v136.357c0 44.599 80.581 71.08 80.581 71.08s80.582-26.483 80.582-71.08V193.236z" fill="none" stroke="#000" stroke-width="2.792"/>
  </g>
  <path d="M0 0v240.339h358.036V0H0z" fill="#002868"/>
  <path style="line-height:normal;text-indent:0;text-align:start;text-decoration-line:none;text-decoration-style:solid;text-decoration-color:#000;text-transform:none;block-progression:tb;isolation:auto;mix-blend-mode:normal" d="M0 0v26.872l138.99 93.296L0 213.468v26.87h40.03l138.99-93.296 138.989 93.297h40.027v-26.872l-138.988-93.299 138.988-93.297V0H318.01L179.02 93.3 40.03 0H0z" color="#000" font-weight="400" font-family="sans-serif" white-space="normal" overflow="visible" fill="#fff"/>
  <path d="M0 0v14.867L169.725 99.73 0 184.592v14.867h29.732l169.725-84.863 169.727 84.863h29.732V184.59L229.191 99.729l169.725-84.862V0h-29.732L199.457 84.861 29.732 0H0z" style="line-height:normal;text-indent:0;text-align:start;text-decoration-line:none;text-decoration-style:solid;text-decoration-color:#000;text-transform:none;block-progression:tb;isolation:auto;mix-blend-mode:normal" color="#000" font-weight="400" font-family="sans-serif" white-space="normal" overflow="visible" fill="#ce1126" transform="scale(.89752 1.20495)"/>
  <path style="line-height:normal;text-indent:0;text-align:start;text-decoration-line:none;text-decoration-style:solid;text-decoration-color:#000;text-transform:none;block-progression:tb;isolation:auto;mix-blend-mode:normal" d="M149.182 0v80.113H0v80.113h149.182v80.113h59.673v-80.113h149.181V80.113H208.855V0h-59.673z" color="#000" font-weight="400" font-family="sans-serif" white-space="normal" overflow="visible" fill="#fff"/>
  <path style="line-height:normal;text-indent:0;text-align:start;text-decoration-line:none;text-decoration-style:solid;text-decoration-color:#000;text-transform:none;block-progression:tb;isolation:auto;mix-blend-mode:normal" d="M161.116 0v96.135H0v48.069h161.116v96.135h35.804v-96.135h161.116V96.135H196.92V0h-35.804z" color="#000" font-weight="400" font-family="sans-serif" white-space="normal" overflow="visible" fill="#ce1126"/>
</svg>
