<svg xmlns="http://www.w3.org/2000/svg" height="480" width="640" id="flag-icon-css-gq">
  <path fill="#e32118" d="M0 0h640v480H0z"/>
  <path fill="#fff" d="M0 0h640v320H0z"/>
  <path fill="#3e9a00" d="M0 0h640v160H0z"/>
  <path d="M0 0v480l180-240z" fill="#0073ce"/>
  <g stroke="#000">
    <path d="M281.563 191.76h76.6V272c0 27-35.2 6.2-38.2 20.6-5.2-14.8-38.2 6.6-38.2-22.2 0-28-.2-78.64-.2-78.64z" fill="#fff" stroke-width=".96"/>
    <path d="M325.363 279.8s-1 1-2.8.2c-1.8-.8-2-51.4-2-51.4 4-4.4 7.2-5.8 7.2-5.8l2.4 2c-9 4.6-8.2 11.2-7.4 22.6.2 4.2.2 9.6 1.2 14.8 1.4 6.6 4.2 12.2 4.4 16.4.2 2.6-3 1.2-3 1.2z" fill="#73452b" stroke-width=".2"/>
    <path d="M319.163 221.6h3.6c-3 29-.4 46.2-.4 54.6 0 2.8 1.6 3.8 1.4 3.8-3.6 4-5.4-.2-5.4-.2z" fill="#73452b" stroke-width=".2"/>
    <path d="M313.563 279.8c-3.4 1.6-3.8-1.6-3.6-2 7.4-15 10.6-48 3.8-51.6l.4-3.2c2.6.8 5 4.2 5 4.2 1 37 0 52.2-.6 52.8-3.6 3.8-5-.6-5.2-1" fill="#a36629" stroke-width=".2"/>
    <path d="M313.363 279.2c-.6-3.2 5.2-11.4 4.8-20m5 7c1.8 5 2.6 9.4 2.2 13.6" fill="none" stroke-width=".2"/>
    <path d="M330.963 208c1.2-1.4 1.2-1.4 3.4-1.4.4-3 5.4-3 5.8.8 4-.8 4.8 1.6 3.2 4 3.8-1 7.2 0 6.2 4.4 6.8 1.8 4.2 6.6 1.2 7.6-.4 3-3.2 4-7 2.8-4.8 3.4-7.6 2.2-9.8-1.2-5.4.8-5.8-.4-8.2-3.4-4.2 1.8-5 1.8-8.6-.4-.2 2.8-1.2 2-3 1.8.2 3.6-1.2 5.2-4.4 4 2.4 5-3.8 7.2-6.8 3-2.8.2-3-.6-4.4-1.6-1.2 4-5.6 3.4-6.4 1.2-5.6-.8-5-3.8-.4-4 .4-3.2 3.2-2.6 5-2.2.2-2 1.4-1.6 2.4-1.2-.6-1.4-.2-2.2 1.6-2.6-2.6-3.4-1-4.6 1.6-5.8-1.4-3.2 1-3 2.8-3.2-.2-3.4.8-4 4.4-4.4-.4-1.2.2-2.2 2.2-2.2-1.2-3.4.4-4.18 4-3.6.6-4.94 11.2-2.6 10.4 4.2 3 .4 4 1 4.8 3.4z" fill="#009a3b" stroke-width=".2"/>
    <path d="M309.563 206.2c.8.4 1.8 0 2 2.2 1.6-2.8 3.6-1.2 3.6 2m11-5.8c-.8 1.2-3.8 1.2-3.4 4.4-1-1.4-3-1.8-3.8-.4m12-.6c0 .8-.2 3.2-1 4.4m13.4-1c.2.2-2.8 0-4.2 1m11.6 11c-.8-.4-2.4-1.4-3.6.2 0-.8 0-3-2.2-3m-1.2 5.6c0-2-.4-2.6-.8-3.2m-5.8.4c-1.6-1.2-3.2.6-3.2 1.6m-8.4-3.4c0-.8-.6-2.4.8-3m-23.6 11.4c.4-2 1.8-2 1.6-3-.2-1.6-2-3-4.2-.8m4.2.8c1.2-.4 2.4-.2 2.8.4m-6.2-7.8c.8-.8 2.8-.6 4 0m0-4.8c1 0 2.8-.4 3.4 1.4 2.2-3.4 3.8-3 4.2-2.2m4-.4c1.6-.6 4.4 1 6 3.8.8-2.2 2-1.8 3.2-2m7.6 2c2.6-1.2 4.2 1.2 5 2.2 1.2-1.6 2.2-1.6 3.4-1.6m-32.6 4.2c.6-1 2-1.2 3-.6-.2-1.8 1-2.6 1.8-2.2" stroke-width=".2" fill="none"/>
    <path d="M317.363 180.52l-4.4.2-2.2 3.94-2.4-3.76-4.4.18 2-3.96-2.4-3.76 4.6-.2 2-3.94 2.4 3.76 4.4-.18-2 3.96zm-18.8 1.46l-4.4 1.08-1.2 4.26-3.2-3.2-4.2 1.04 1.2-4.26-3-3.24 4.2-1.06 1.2-4.28 3.2 3.2 4.4-1.04-1.4 4.28zm-18.2 3.74l-4 1.98-.2 4.44-3.8-2.44-4 1.96.4-4.44-3.8-2.46 4-2 .4-4.44 3.6 2.44 4-1.96-.2 4.44zm42.8-5.2l4.4.2 2 3.94 2.4-3.76 4.4.18-2-3.96 2.4-3.76-4.4-.2-2.2-3.94-2.4 3.76-4.4-.18 2 3.96zm18.8 1.46l4.2 1.08 1.2 4.26 3.2-3.2 4.2 1.04-1.2-4.26 3.2-3.24-4.4-1.06-1.2-4.28-3.2 3.2-4.2-1.04 1.2 4.28zm18 3.74l4 1.98.2 4.44 3.8-2.44 4 1.96-.2-4.44 3.6-2.46-4-2-.2-4.44-3.8 2.44-4-1.96.4 4.44z" stroke-width=".7" fill="gold"/>
    <g fill="#fff" stroke-width=".7">
      <path d="M365.363 270.4l5 7.2 4.6-6.8-3.2-5.8zm-31.8 21l.4 7.2s2 0 3.8-.6c1.6-.6 3-1.8 3-1.8l-.2-3.8zm-26.8 0l-.4 7s-1.8 0-3.6-.4c-1.6-.4-3-1.4-3-1.4l-2-4.8zm-32.2-21l-5.2 7.2-5.6-9.2 4.2-4.4z"/>
      <path d="M299.563 305.8c0 6.8 41.2 6.8 41.2 0v-9.6c0 5-41.2 4-41.2 0z"/>
      <path d="M262.763 283.6c3.6 18.4 36.8 18.8 36.8 18.8v-6.2c-.8-2.4.6-3.2 6-4 2.2-.2 1.2-3.4 1.2-3.4s-14.4 2.6-24.6-1.4c-13.8-5.6-15.8-16.4-15.8-16.4s-1 8.4-3.6 12.6zm114.6 0c-3.4 18.4-36.6 18.8-36.6 18.8v-6.2c.6-2.4-.8-3.2-6.2-4-2.2-.2-1-3.4-1-3.4s14.4 2.6 24.6-1.4c13.6-5.6 15.2-16.4 15.2-16.4s1.4 8.4 4 12.6z"/>
      <path d="M265.363 276.6c-9.2-5-2-10.2-1.2-25 1.4 9 11.6 12.8 10.4 18.6-4.2.2-6.2-6.2-8.2.8l-1 5.6zm109.4 0c9.2-5.2 1.6-10.2.8-25-1.4 9-11.4 12.8-10.2 18.6 4 .2 6-6.2 8 .8l1.4 5.4z"/>
    </g>
    <path d="M270.963 283.4l1 .8-2.2 2.4c-.88.96-1.093 1.596-.481 2.181.759.726 1.293.474 2.081-.381l2.4-2.6.8.8-2.397 2.798c-1.302 1.519-2.51 1.171-3.524.224-.883-.824-1.39-2.02-.09-3.49l2.42-2.72zm4 3.4l1 .6-.2 4.8 2.2-3.4 1 .6-3.2 5.2-1.2-.6.2-4.8-2.2 3.4-1-.6zm1.8 8.4l2.8-5.6 1 .6-2.6 5.4zm4.4-4.8l-2.208 5.796 2.208.804c2.058.75 3.024-.156 3.678-1.896.66-1.77.372-3.072-1.686-3.9l-1.992-.804zm.792 1.404c2.07.72 2.196 1.506 1.632 2.928-.546 1.35-1.056 1.878-3.024.864l1.392-3.792zm5.808.796l-3.6 5.4 1.392.408.804-1.404 2.4.6.204 1.404 1.392.192-1.392-6.396-1.2-.204zm.396 1.404l.396 2.4-1.596-.204 1.2-2.196zm3.024-.884l-.216 6.198 2.354.046c2.188.042 2.81-1.124 2.864-2.982.054-1.89-.642-3.03-2.86-3.143l-2.141-.12zm1.201 1.075c2.193.01 2.568.71 2.49 2.24-.073 1.454-.39 2.117-2.576 1.793l.086-4.033zm19.779 7.605v6.396h1.404v-2.4s1.2.072 2.196-.192c.786-.204 1.332-.708 1.35-1.95.018-1.218-.69-1.854-1.914-1.854h-3.04zm1.404.996l1.41.018c1.176 0 .954 1.782.036 1.782h-1.446v-1.8zm5.796-.996l-2.604 6.396h1.404l.6-1.596h2.604l.6 1.596h1.392l-2.6-6.4h-1.4zm.6 1.404l.996 2.4h-1.8l.804-2.4zm3.4 3.796l3.4-4.2h-3v-1h4.8v1l-3.6 4.2h3.6v1.2h-5.2zm20.2-12.4l1.2-.2.6 3.6c.214 1.28-.371 2.153-1.282 2.489-1.038.383-2.362.033-2.518-1.689l1-.2c.233 1.03.648 1.12 1.128.958.38-.128.577-.728.472-1.358zm2-.36l1.185-.225.548 2.996c.234 1.282.636 1.827 1.47 1.682 1.034-.18 1.148-.76.928-1.902l-.736-3.196 1.211-.183.804 3.324c.47 1.945-.546 2.716-1.91 2.97-1.187.222-2.45-.08-2.864-1.997zm6.2 2.76l1-.4c.491.881 1.256.836 1.851.573.827-.366.922-1.088.513-1.333-.583-.349-1.974.147-2.723-.127-.896-.327-1.281-.831-1.235-1.606.055-.933.876-1.446 1.769-1.723.999-.31 1.985-.2 2.625 1.016l-1.2.4c-.39-.657-.893-.626-1.339-.416-.373.177-.957.508-.644 1.042.255.436 1.725.153 2.5.184.8.033 1.447.567 1.555 1.338.151 1.073-.246 1.655-1.488 2.139-1.533.598-2.916-.072-3.183-1.087zm5.4-5l-1.6.8-.4-1 4.4-1.8.4.8-1.6.8 1.8 4.4-1 .6zm2.6-2.2l1-.6 2.8 5.2-1 .6zm6.8.4l1.2-.4c.565 1.186-.283 3.343-2.355 3.299-3.032-.065-3.36-3.406-2.884-4.508.801-1.85 3.045-1.815 4.04-.791l-1 .8c-.634-.813-2.043-.3-2.138.447-.155 1.222.382 2.358 1.474 2.897.926.457 2.352-.692 1.663-1.744zm-.6-4.2l1-.8 3.6 4.8-1 .8zm3.8-3l-.996.804 2.196 6 .996-.996-.6-1.2 1.8-1.608 1.2.6 1.008-.792-5.604-2.808zm.396 1.404l2.004.996-1.2 1.2-.804-2.196z" stroke="none"/>
  </g>
</svg>
