<svg xmlns="http://www.w3.org/2000/svg" height="480" width="640" id="flag-icon-css-sa">
  <defs>
    <clipPath id="a">
      <path fill-opacity=".67" d="M-85.333 0h682.67v512h-682.67z"/>
    </clipPath>
  </defs>
  <g clip-path="url(#a)" fill-rule="evenodd" transform="translate(80) scale(.9375)">
    <path fill="#199d00" d="M-128 0h768v512h-768z"/>
    <path d="M65.54 145.13c-.887 11.961-1.95 33.011 8.213 35.17 12.293 1.182 5.514-20.806 9.964-24.793.841-1.97 2.392-1.98 2.52.505v18.65c-.112 6.066 3.875 7.852 6.972 9.105 3.224-.249 5.376-.141 6.639 2.995l1.512 32.261s7.476 2.14 7.832-18.146c.357-11.91-2.38-21.88-.775-24.198.056-2.277 2.964-2.413 4.98-1.303 3.214 2.266 4.645 5.065 9.639 3.946 7.598-2.094 12.166-5.79 12.278-11.624-.444-5.545-1.066-11.09-3.468-16.635.335-1.009-1.467-3.621-1.133-4.63 1.366 2.139 3.444 1.961 3.916 0-1.293-4.261-3.3-8.344-6.553-10.112-2.688-2.368-6.623-1.884-8.064 3.056-.667 5.692 2.052 12.455 6.197 17.968.88 2.154 2.117 5.733 1.573 8.956-2.205 1.259-4.411.734-6.259-1.217 0 0-6.048-4.536-6.048-5.544 1.605-10.276.356-11.441-.533-14.293-.622-3.937-2.49-5.199-4.003-7.888-1.513-1.604-3.56-1.604-4.538 0-2.674 4.635-1.427 14.583.504 19.04 1.396 4.098 3.528 6.67 2.52 6.67-.829 2.316-2.544 1.781-3.792-.892-1.782-5.525-2.139-13.769-2.139-17.48-.534-4.603-1.122-14.42-4.151-16.914-1.848-2.516-4.587-1.289-5.544 1.008-.199 4.568-.22 9.135.295 13.345 2.077 7.383 2.73 13.876 3.738 21.437.28 10.128-5.856 4.394-5.576-.627 1.415-6.522 1.048-16.788-.21-19.39-.996-2.602-2.173-3.244-4.597-2.816-1.925-.117-6.878 5.291-8.269 14.262 0 0-1.186 4.618-1.691 8.718-.68 4.633-3.73 7.903-5.87-.652-1.848-6.217-2.984-21.524-6.08-17.939z" fill="#fff"/>
    <path d="M98.944 194.21c-10.848 5.303-21.339 10.25-32.01 15.375.39-7.256 15.219-20.354 25.331-20.538 6.582.184 4.928 2.55 6.679 5.164z" fill="#fff"/>
    <path d="M93.352 204.24c-16.87 43.487 39.505 49.546 45.805 1.781.593-1.96 2.97-3.92 3.386-.713-1.307 43.248-43.606 46.22-50.794 32.614-1.781-3.207-2.317-10.336-2.495-14.614-1.07-8.494-5.524-5.227-6.237 3.208-.714 4.693-.535 6.002-.535 10.516 2.257 34.159 56.736 19.486 65.587-8.733 4.693-15.625-.773-27.149 1.781-27.09 5.407 5.822 12.95.772 14.614-1.248.714-1.01 2.497-1.662 3.744-.356 4.217 3.032 11.645 1.603 13.189-3.743.892-5.228 1.605-10.634 1.783-16.217-3.447 1.07-6 1.781-6.238 3.208l-.713 4.633c-.296 1.486-3.269 1.544-3.386-.357-1.307-5.941-6.713-6.713-9.981 2.496-2.199 1.782-6.178 2.139-6.595-.534.534-6.179-1.961-7.011-6.95-4.1-1.605-12.238-3.208-23.94-4.813-36.179 2.08-.06 3.982 1.484 5.884-.892-2.082-6.474-6.477-19.723-8.914-20.674-1.188-1.425-2.2-.534-3.742-.178-2.614.832-5.05 3.09-4.279 7.486 3.09 18.772 5.11 33.09 8.2 51.863.474 2.198-1.367 5.107-3.743 4.81-4.04-2.732-5.047-8.256-11.94-8.02-4.991.06-10.696 5.466-11.407 10.696-.832 4.156-1.13 8.67-.002 12.296 3.507 4.217 7.725 3.803 11.408 2.852 3.03-1.247 5.524-4.277 6.594-3.565.714.892.177 10.87-14.259 18.535-8.732 3.92-15.684 4.813-19.425-2.317-2.317-4.456.178-21.387-5.527-17.465z" fill="#fff"/>
    <path d="M164.91 160.03c3.386-1.248 19.429-19.604 19.429-19.604-.833-.713-1.576-1.248-2.408-1.961-.892-.772-.802-1.544 0-2.317 3.98-2.316 2.703-7.396.624-9.712-3.446-1.546-6.446-1.04-8.645.088-2.792 2.674-3.444 6.95-1.245 9.624 2.14 1.01 4.277 3.179 2.85 4.367-6.563 7.01-24.535 19.1-22.455 19.515.444.594 11.495.564 11.85 0zM68.036 225c-6.016 9.584-6.54 23.903-3.22 28.172 1.764 2.017 4.662 2.9 6.806 2.269 3.78-1.64 5.434-9.298 4.537-12.1-1.262-1.974-2.255-2.287-3.515-.607-2.66 5.4-3.764 1.695-3.997-1.323-.408-5.723.131-10.994.752-15.168.662-4.278-.01-2.97-1.363-1.243zm257.084-15.35c-5.817-12.521-13.87-24.894-16.432-29.647-2.562-4.755-21.905-32.827-24.752-35.984-6.284-7.467 10.204 3.11-2.086-11.716-4.686-4.02-4.958-4.265-8.847-7.545-1.962-1.392-6.752-3.935-7.6.28-.427 3.717-.197 5.732.427 8.827.48 2.063 3.485 5.518 4.963 7.52 19.625 26.38 37.027 53.02 53.808 86.515 2.65-1.26 2.07-16.155.52-18.25z" fill="#fff"/>
    <path d="M299.59 251.54c-1.144 1.284 2.824 6.776 7.98 6.77 8.624-1 16.215-5.844 23.244-18.595 1.88-2.974 5.184-9.334 5.28-14.267.658-28.925-1.447-51.433-5.781-72.34-.278-2.036-.109-4.43.236-5.04.559-.667 2.452.003 3.457-1.644 1.474-1.505-3.914-13.97-6.986-18.771-1.09-2.144-1.47-3.576-3.276.252-1.899 3.11-3.174 8.538-3.025 13.61 4.114 28.483 5.378 53.399 8.066 81.882.22 2.754-.186 6.757-2.017 8.353-6.772 7.072-16.548 15.777-27.178 19.79zm116.49-.15c-6.189 3.577-6.196 7.692-1.192 7.841 8.623-1.001 18.813-1.717 25.84-12.329 1.881-2.974 4.115-11.015 4.212-15.948.657-28.925-.378-50.515-4.712-71.42-.277-2.037-1.178-6.724-.834-7.335.559-1.432 3.37.156 4.375-1.492 1.473-1.504-7.278-12.747-10.35-17.548-1.09-2.143-1.47-3.575-3.275.252-1.9 3.111-2.563 8.692-1.803 13.611 4.573 30.928 7.977 54.163 8.679 81.575-.394 2.602-.492 4.005-1.712 7.283-2.699 3.46-5.689 7.785-8.493 9.876-2.803 2.09-8.785 4.086-10.735 5.635z" fill="#fff"/>
    <path d="M420.72 223.66c-.071-7.233.102-13.479-.136-18.873-.238-5.395-1.191-9.788-3.058-13.617-1.767-4.106-.67-7.405-1.5-11.779-.829-4.372-.625-10.92-1.878-16.108-.343-2.026-1.396-8.515-1.07-9.137.51-1.448 2.456.045 3.406-1.633 1.423-1.552-4.937-18.008-8.163-22.707-1.16-2.107-3.267-1.385-5.864 2.04-2.41 2.255-1.516 7.396-.596 12.286 6.188 32.291 10.803 61.518 9.796 92.257-.309 2.614 9.127-7.795 9.063-12.729zM375 183.61c-3.892-.071-12.044-7.574-14.423-11.97-.899-2.521-.322-4.981.47-6.422 1.441-.937 3.659-1.99 5.316-.98 0 0 1.719 2.404 1.386 2.71 2.125 1.018 3.027.432 3.243-.432.145-1.514-.628-2.416-.637-4.083.901-4.52 6.068-5.223 8.014-2.34 1.424 1.757 1.946 5.492 2.162 8.013-.023 1.288-2.109-.223-3.293.087-1.186.31-1.471 1.678-1.563 2.915-.215 3.278-.603 8.538-.675 12.501zm-71.83 48.07c1.072-9.828-.396-27.331-.494-33.13-.394-13.7-2.631-40.162-3.696-44.583-1.2-8.333 3.427.914 2.786-3.93-1.5-8.321-6.116-13.962-11.542-21.584-1.75-2.48-1.69-2.985-4.391.608-2.99 6.78-.41 11.445.363 16.726 3.913 17.206 6.196 33.037 7.259 48.687 1.063 15.65 1.39 32.572.419 49.055 2.932.115 7.647-4.744 9.296-11.85z" fill="#fff"/>
    <path d="M433.97 215.94c-6.863-11.515-17.219-23.987-19.986-28.624-2.766-4.638-26.166-34.83-29.148-37.86-8.56-8.993 3.926-1.464-1.639-8.41-4.707-5.168-6.08-6.79-10.108-9.898-2.02-1.305-3.244-3.798-3.908.45-.264 3.732-.54 8.05-.289 11.195-.014 1.749 1.807 5.034 3.37 6.97 20.755 25.5 43.393 51.537 61.617 84.27 2.593-1.375 1.731-16.067.091-18.093z" fill="#fff"/>
    <path d="M122.59 194.69c-.494.866-1.594 1.988-1.225 3.149.77 1.044 1.386 1.256 2.67 1.313 1.114 0 2.67.263 3.005-.394.6-.66 1.055-2.009.556-3.281-1.16-2.9-4.4-1.82-5.006-.787z" fill="#1ba400"/>
    <path d="M354.17 362.54c9.178.338 15.185.419 23.348 1.39 0 0 7.04-.695 9.553-1.075 10.626-1.014 11.096 15.176 11.096 15.176-.116 9.495-3.781 9.992-8.46 10.995-2.673.34-4.078-1.601-5.483-3.668-1.763.738-4.16.844-7.064.441-3.825-.24-7.65-.224-11.474-.463-4.063-.358-6.224.423-10.288.065-.837 1.315-1.925 3.136-4.41 2.55-2.068-.229-4.517-6.033-3.796-10.446 1.493-3.164 1.083-2.146.927-3.537-37.525-.956-75.41-2.629-112.22-2.15-28.8.119-57.244 1.314-85.687 2.51-15.177-.24-26.769-2.63-34.776-14.342.717 0 38.72 2.151 49.835 1.434 20.555-.24 39.317-1.912 60.231-2.51 41.23.717 82.103.718 123.33 3.585-3.944-2.698-4.085-9.071 1.985-10.629.516-.355.782 3.169 1.69 3.103 4.857-.364 2.727 6.214 1.659 7.57zM188.64 135.28c-6.248 17.859 3.58 37.394 10.394 35.492 4.916 2.035 8.046-7.317 10.059-17.563 1.377-2.876 2.417-3.182 3.124-1.704-.181 13.625.979 16.643 4.482 20.779 7.814 6.029 14.278.77 14.785.262l6.084-6.084c1.354-1.425 3.157-1.508 5.07-.253 1.859 1.69 1.598 4.608 5.577 6.632 3.35 1.34 10.51.31 12.17-2.576 2.232-3.826 2.768-5.14 3.802-6.591 1.593-2.121 4.31-1.178 4.31-.508-.254 1.183-1.848 2.367-.76 4.497 1.894 1.421 2.332.507 3.453.191 3.964-1.895 6.94-10.518 6.94-10.518.176-3.208-1.622-2.943-2.788-2.282-1.521.93-1.62 1.227-3.142 2.157-1.938.288-5.698 1.573-7.557-1.305-1.898-3.461-1.924-8.29-3.375-11.78 0-.254-2.518-5.498-.174-5.834 1.182.22 3.706.888 4.107-1.237 1.241-2.072-2.656-7.938-5.323-10.901-2.315-2.542-5.523-2.848-8.62-.253-2.168 1.995-1.856 4.224-2.282 6.337-.552 2.426-.434 5.411 2.029 8.62 2.164 4.267 6.113 9.763 4.816 17.491 0 0-2.306 3.653-6.325 3.175-1.676-.365-4.392-1.076-5.843-11.794-1.099-8.112.259-19.463-3.184-24.784-1.244-3.213-2.152-6.316-5.183-.82-.814 2.158-4.309 5.433-1.774 12.169 2.074 4.27 2.918 11.22 1.977 18.954-1.437 2.197-1.756 2.941-3.64 5.139-2.646 2.845-5.518 2.119-7.717 1.056-2.055-1.385-3.664-2.101-4.602-6.501.17-7.013.56-18.494-.722-20.929-1.89-3.772-5.006-2.408-6.338-1.268-6.397 5.849-9.557 15.718-11.489 23.577-1.774 5.727-3.662 4.086-4.99 1.775-3.23-3.028-3.45-26.71-7.351-22.816z" fill="#fff"/>
    <path d="M207.45 174.1c2.837-2.01 1.511-3.414 5.754.828 5.312 9.082 8.727 20.845 9.239 31.266-.224 2.568 1.586 4.193 2.414 3.635.492-6.029 15.153-14.429 28.596-15.657 2.056-.447 1.056-4.387 1.391-6.396-.806-7.463 4.194-14.258 11.202-14.8 9.538 1.41 12.713 6.502 12.874 14.275-1.03 14.922-16.575 17.452-25.309 18.642-1.34.507-1.898 1.125 0 1.856l36.595.166 1.867 1.078c.224.873-.533.145-1.978 2.524-1.444 2.379-3.575 7.865-3.685 11.528-10.903 3.506-22.18 5.042-33.642 6.428-3.982 2.014-5.956 4.697-5.138 7.717 1.34 3.35 10.16 6.696 10.16 6.855 1.675 1.05 3.657 3.502-.474 8.525-17.85-.785-31.683-8.382-36.472-19.104-1.443-1.119-2.997-.006-3.993 1.443-6.969 8.984-13.826 17.074-25.708 21.369-7.086 1.77-14.339-1.087-17.765-5.727-2.293-2.641-2.206-5.557-3.048-6.189-3.83 1.694-36.785 15.697-32.608 9.174 8.02-8.585 21.906-14.89 34.169-23.363.885-2.839 2.494-12.442 7.337-15.57.28.023-.767 5.64-.662 8.008.055 1.944-.143 2.706.283 2.206.827-.528 15.707-12.22 16.857-15.805 1.45-2.056.435-7.263.435-7.421-2.79-7.192-6.705-7.803-8.156-11.376-1.306-4.747-.715-10.165 1.998-11.675 2.41-2.187 5.263-1.917 7.895.473 3.006 2.692 5.675 7.953 6.447 11.872-.516 1.55-3.933-1.03-5.118-.26 2.098 2.172 3.077 4.678 3.835 7.744 1.938 8.209 1.347 11.4-.604 16.708-6.606 13.89-15.049 18.035-22.436 23.181-.197.07-.328 3.525 2.45 5.393.958 1.006 4.811 1.522 9.342.07 8.755-4.774 17.843-13.569 22.355-23.367 1.31-7.411-.506-15.27-2.434-22.124-2.903-6.698-6.322-16.262-6.322-16.42-.113-4.177.227-5.626 2.059-7.71zm-95.81-38.63c4.212 2.009 12.131 1.154 11.796-5.638 0-.6-.153-2.632-.213-3.183-.86-2.002-3.205-1.507-3.737.56-.167.677.298 1.78-.315 2.12-.352.355-1.698.146-1.642-1.73 0-.598-.44-1.24-.706-1.62-.266-.174-.435-.222-.917-.222-.588.023-.578.176-.9.67-.137.502-.325.993-.325 1.563-.074.668-.326.906-.817 1.005-.549 0-.425.06-.87-.223-.264-.29-.594-.4-.594-.893 0-.511-.116-1.338-.27-1.675-.233-.308-.608-.45-1.03-.559-2.3.008-2.46 2.632-2.327 3.628-.173.188-.27 4.895 2.867 6.197z" fill="#fff"/>
    <path d="M235.11 187.73c4.212 2.009 14.238.853 11.796-5.638 0-.6-.153-2.633-.213-3.183-.86-2.002-3.205-1.507-3.737.56-.167.677.298 1.78-.315 2.12-.352.355-1.698.146-1.642-1.73 0-.598-.44-1.24-.706-1.62-.266-.174-.435-.222-.917-.222-.588.023-.578.176-.9.67-.137.502-.325.993-.325 1.563-.074.668-.326.906-.817 1.005-.549 0-.425.06-.87-.223-.264-.29-.594-.4-.594-.893 0-.511-.116-1.338-.27-1.675-.233-.308-.608-.45-1.03-.559-2.3.008-2.46 2.632-2.327 3.628-.173.188-.27 4.895 2.867 6.197zm72-21.63c4.212 2.009 12.131 1.154 11.796-5.638 0-.6-.153-2.632-.213-3.183-.86-2.002-3.205-1.507-3.737.56-.167.677.298 1.78-.315 2.12-.352.355-1.698.146-1.642-1.73 0-.598-.44-1.24-.706-1.62-.266-.174-.435-.222-.917-.222-.588.023-.578.176-.9.67-.137.502-.326.993-.326 1.563-.073.668-.325.906-.816 1.005-.549 0-.425.06-.87-.223-.264-.29-.595-.4-.595-.893 0-.511-.115-1.338-.269-1.675-.233-.308-.608-.45-1.03-.559-2.3.008-2.46 2.632-2.327 3.628-.173.188-.27 4.895 2.867 6.197zm37.29 54.33c-7.34 8.273-4.104 21.955-2.446 24.903 2.42 4.842 4.369 7.947 9.078 10.342 4.29 3.157 7.632 1.184 9.474-1.027 4.317-4.473 4.368-15.894 6.394-18.157 1.422-4.157 5-3.447 6.737-1.605 1.683 2.42 3.666 3.98 6.14 5.298 4.025 3.552 8.833 4.2 13.57.964 3.236-1.816 5.34-4.162 7.235-8.819 2.106-5.63.932-31.648.511-47.068-.162-1.21-4.184-21.205-4.184-21.428 0-.224-.532-10.205-.974-12.583-.078-.965-.317-1.242.694-1.12 1.073.903 1.22.96 1.89 1.257 1.082.198 2.051-1.645 1.398-3.34l-10.048-18.533c-.807-.794-1.848-1.666-3.127.224-1.222 1.071-2.523 3.01-2.483 5.503.297 4.392 1.07 8.86 1.366 13.253l4.02 22.552c1.266 16.076 1.583 29.233 2.848 45.309-.177 6.807-2.293 12.742-4.278 13.598 0 0-3.02 1.75-5.045-.183-1.473-.591-7.368-9.825-7.368-9.825-3.014-2.763-5.001-1.973-7.146 0-5.914 5.711-8.59 16.394-12.609 23.763-1.036 1.645-3.965 3.052-7.21-.12-8.242-11.258-3.411-27.277-4.437-23.158zM309 126.67c3.773 1.58 6.435 9.223 5.567 12.955-.751 4.617-2.752 9.603-4.191 8.954-1.564-.58 1.066-4.59-.437-8.796-.835-2.738-5.984-7.741-5.442-9.216-1.063-3.09 2.189-4.442 4.503-3.897z" fill="#fff"/>
    <path d="M356.55 224.96c.794-9.179-.546-14.776-.784-20.171s-6.102-46.559-7.291-50.641c-1.435-7.718 5.7-1.035 4.92-5.524-2.468-5.66-8.611-13.9-10.54-18.816-1.16-2.106-.673-3.98-3.271-.554-2.409 7.876-3.245 14.314-2.325 19.205 6.187 32.29 12.533 59.14 11.526 89.879 2.934.02 6.316-6.714 7.765-13.377zm64.47-85.28c3.44 1.71 5.455 11.289 5.075 14.026-.684 4.999-2.51 10.397-3.82 9.694-1.426-.628.285-7.413-.4-9.523-.76-2.964-5.454-8.38-4.96-9.977-.97-3.345 1.995-4.809 4.105-4.22zM165.35 207.6c3.29 1.256 5.22 8.295 4.856 10.307-.656 3.672-2.403 7.639-3.656 7.123-1.364-.462.274-5.448-.381-6.998-.278-3.76-4.845-5.707-4.75-7.331-.852-2.986 1.911-3.535 3.931-3.1z" fill="#fff"/>
    <path d="M244.86 218.17c4.247.27 6.37 3.602 2.391 5-3.924 1.343-7.695 2.393-7.713 8.064 1.452 7.902-1.99 5.19-4.044 4.117-2.419-1.737-9.208-5.92-10.176-14.95-.145-2.155 1.535-3.969 4.24-3.956 4.075 1.107 10.087 1.188 15.301 1.725z" fill="#1b9d00"/>
    <path d="M77.399 124.39c4.855 1.464 5.142 8.6 4.784 10.686-.647 3.808-2.367 7.92-3.602 7.384-1.344-.478-.053-5.647-.698-7.255-.72-2.258-4.822-6.384-4.357-7.6-.913-2.549 1.883-3.665 3.873-3.215zm95.881 33.64c-3.725 2.015-5.17 8.02-2.85 11.518 2.166 3.08 5.587 1.938 6.043 1.938 3.65.457 5.815-6.842 5.815-6.842s.115-2.052-4.219 1.826c-1.824.342-2.052-.343-2.508-1.37-.38-1.9-.304-3.8.57-5.701.646-1.824-.761-2.623-2.851-1.369zm27.94-36.4c-1.872 1.255-5.598 5.115-5.712 9.563-.113 2.509-.58 2.501 1.062 4.098 1.187 1.712 2.384 1.558 4.78.303 1.376-1.014 1.841-1.687 2.305-3.387.57-2.85-3.014 1.352-3.47-1.82-.798-2.946 1.504-4.152 3.67-7.002.072-1.953.03-3.336-2.635-1.755zm22.51 4c-.807 1.782-1.774 11.093-1.613 11.093-.644 2.774 2.903 3.961 4.516.395 2.419-6.537 2.419-9.31 2.58-12.084-.753-4.224-3.601-4.092-5.483.596zm141.92 72.22c.484-.484 19.998-14.353 19.998-14.353 1.989-.699 1.558 7.15.645 7.096.376 1.558-19.245 14.89-20.644 14.353-.967.699-1.935-5.375 0-7.096zm17.79-.12c3.44 1.71 4.81 11.773 4.43 14.51.122 5.322-3.315 9.59-4.627 8.888-1.426-.628.125-6.607-.56-8.717-.76-2.964-3.681-8.542-3.188-10.139-.969-3.345 1.835-5.131 3.945-4.542zm-116.07 43.34c1.357-1.984 5.55-4.839 5.645-4.839 1.934-.968 3.824.759 3.71.645.321 1.936-1.225 3.737-.74 6.318.422 1.04.732 2.195 2.638 1.755 3.099-2.438 5.97-2.595 9.068-2.75 2.374.143 2.468 4.163.967 4.193-5.721 1.243-8.285 2.775-12.37 4.334-1.936 1.129-3.596-.303-3.596-.464s-1.132-1.098-.342-3.662c.14-2.056-.687-3.183-2.4-2.95-1.29.698-2.426 1.16-3.071-.323-.254-1.095-.337-1.628.491-2.257zm136.6 5.42c.836 1.064 1.377 2.049-.067 3.797-1.369 1.254-2.333 1.945-3.701 3.199-.646 1.102-1.06 2.774.917 3.307 3.65 1.026 12.088-4.448 12.088-4.562 1.369-1.026.913-2.965.798-2.965-.798-.912-2.596-.37-3.805-.518-.576 0-2.465-.286-1.566-1.958.75-1.04 1.019-1.677 1.528-2.959.57-1.254.08-2.09-1.973-2.775-2.09-.38-2.926-.19-5.245 0-1.254.266-1.682.827-1.91 2.347.09 2.306 1.492 2.175 2.936 3.087z" fill="#fff"/>
    <path d="M268.117 189.743c-.535.925-2.344.88-4.04-.1s-2.638-2.527-2.103-3.453 2.344-.88 4.04.102 2.638 2.526 2.103 3.451zm-89.072-53.594c-1.014.248-2.339-.656-2.96-2.019s-.301-2.669.712-2.917 2.339.655 2.96 2.018.302 2.67-.712 2.918z" fill="#259f00"/>
    <path d="M355.24 374.97c9.351.456 18.137.106 27.488.563 1.694 1.44.484 4.975-.645 4.722-3.04-.077-4.792-.152-7.833-.229-.104-2.978-7.706-2.49-7.487.095-4.105.494-7.807-.143-11.912-.295-1.214-1.51-1.058-4.232.39-4.856z" fill="#209000"/>
  </g>
</svg>
