<svg height="632" viewBox="0 0 322.441 81.47999999999999" width="2500" xmlns="http://www.w3.org/2000/svg"><g fill="#00a1e3"><path d="M203.879 68.281h-8.758v-6.84c-4.8 4.2-10.922 6.84-17.762 6.84-14.64 0-26.52-11.879-26.52-26.52 0-14.64 11.88-26.519 26.52-26.519 14.641 0 26.52 11.88 26.52 26.52zM177.48 6c-19.44 0-35.16 15.84-35.16 35.16 0 19.442 15.72 35.16 35.16 35.16 5.282 0 10.32-1.199 14.762-3.238l2.399.961 17.879 7.437V41.16C212.52 21.84 196.8 6 177.48 6M31.078 62.281c-11.398 0-20.637-9.36-20.637-20.758 0-11.402 9.239-20.761 20.637-20.761 11.524 0 20.762 9.36 20.762 20.761 0 11.399-9.238 20.758-20.762 20.758m0-51.84C13.922 10.441 0 24.363 0 41.523s13.922 31.079 31.078 31.079c8.043 0 15.242-3 20.762-7.918v7.918H62.28V41.523c0-17.16-13.922-31.082-31.203-31.082M70.559 72.602h10.32V0h-10.32zm0 0M312.121 72.602h10.32V0h-10.32zm0 0M120.242 62.281c-11.402 0-20.64-9.36-20.64-20.758 0-11.402 9.238-20.761 20.64-20.761 5.758 0 10.918 2.398 14.758 6.12l7.32-7.32a31.102 31.102 0 0 0-22.078-9.12c-17.16 0-31.082 13.921-31.082 31.081s13.922 31.079 31.082 31.079c8.637 0 16.438-3.48 22.078-9.122L135 56.16c-3.84 3.723-9 6.121-14.758 6.121M231.242 10.441V0h-10.32v72.602h10.32v-51.84h10.317v-10.32M272.64 20.762c9.72 0 17.762 6.601 20.16 15.601h-40.198c2.398-9 10.437-15.601 20.039-15.601m15.718 34.199a20.45 20.45 0 0 1-15.718 7.32c-9.602 0-17.641-6.597-20.04-15.597h50.758c.243-1.684.48-3.364.48-5.16 0-17.16-13.917-31.083-31.198-31.083-17.16 0-31.082 13.922-31.082 31.082s13.921 31.079 31.082 31.079c12.359 0 23.039-7.2 28.078-17.641"/><path d="M177.36 23.762c-9.958 0-18 8.039-18 18s8.042 18 18 18c9.96 0 18-8.04 18-18s-8.04-18-18-18"/></g></svg>