<svg xmlns="http://www.w3.org/2000/svg" width="2500" height="700" viewBox="0 0 71.635 20.053"><g fill="#255398"><path d="M5.729 4.297L10.026 0l.477.478-4.297 4.297-.477-.478zM6.684 5.252L10.981.955l.477.478L7.161 5.73l-.477-.478zM7.639 6.207l4.297-4.297.477.478-4.297 4.297-.477-.478zM8.593 7.162l4.297-4.297.477.477-4.296 4.297-.478-.477zM9.548 8.117l4.297-4.297.477.477-4.296 4.298-.478-.478zM5.729 15.755l4.297-4.295.477.476-4.297 4.297-.477-.478zM6.684 16.71l4.297-4.296.477.477-4.297 4.297-.477-.478zM7.639 17.666l4.297-4.297.477.477-4.297 4.296-.477-.476zM8.593 18.62l4.297-4.297.477.478-4.296 4.297-.478-.478zM9.548 19.576l4.297-4.297.477.476-4.296 4.298-.478-.477zM15.755 14.323l-4.297-4.298.478-.476 4.296 4.297-.477.477zM16.71 13.369l-4.297-4.297.477-.477 4.298 4.296-.478.478zM17.665 12.414l-4.297-4.297.477-.478 4.298 4.297-.478.478zM18.62 11.459l-4.297-4.297.477-.478 4.297 4.297-.477.478zM19.575 10.505l-4.298-4.298.478-.477 4.297 4.295-.477.48zM4.297 14.323L0 10.025l.477-.476 4.297 4.297-.477.477zM5.252 13.369L.955 9.072l.477-.477 4.297 4.296-.477.478zM6.206 12.414L1.909 8.117l.478-.478 4.297 4.297-.478.478zM7.161 11.459L2.864 7.162l.478-.478 4.297 4.297-.478.478zM8.116 10.505L3.819 6.207l.478-.477 4.297 4.295-.478.48z"/><path d="M8.116 8.595l.478-.478 1.432 1.432 1.432-1.432.478.478-1.433 1.43 1.433 1.435-.478.476-1.432-1.431-1.432 1.431-.478-.476 1.433-1.435-1.433-1.43zM30.607 9.398c.274-.888.61-1.978.8-2.87h.048c.204.912.5 1.982.756 2.87.274.945 1.884 6.357 1.884 6.357h2.856L33.374 4.297h-4.588c.392.208.787.668.537 1.363l-3.542 10.095h2.783l.943-2.82h2.067l.716-2.307h-2.065l.382-1.23zM42.557 8.89c-1.57-.439-2.115-.655-2.115-1.373 0-.65.594-1.152 1.973-1.152 1.232 0 2.104.356 2.436 1.192l.807-2.823c-.844-.37-1.936-.74-3.648-.74-2.656 0-4.6 1.459-4.6 3.493 0 1.74.824 2.786 2.76 3.334 1.973.557 2.688.79 2.688 1.726 0 .881-.877 1.129-1.99 1.131-.955.002-1.932-.242-2.732-.519l-.643 2.245c1.094.373 2.398.642 3.611.642 3.07 0 4.678-1.605 4.678-3.528-.003-1.848-.761-2.938-3.225-3.628zM56.525 15.755s1.32-5.964 1.484-6.907c.15-.864.254-1.47.332-2.127h.047c.076.657.156 1.265.312 2.127.152.831 1.178 6.907 1.178 6.907h2.752L60.535 4.297h-4.867c.256.131.766.49.586 1.329-.443 1.876-1.045 4.426-1.318 5.713-.137.653-.24 1.12-.381 1.994h-.033c-.123-.868-.211-1.344-.326-1.994-.205-1.158-.215-1.168-1.408-7.042H47.93c.256.131.764.49.586 1.329l-2.123 10.129h2.711s1.16-6.075 1.305-6.907c.15-.864.238-1.47.314-2.127h.047c.078.657.18 1.263.33 2.127.164.94 1.387 6.907 1.387 6.907h4.038zM66.736 13.342V4.297h-3.543c.334.171.674.377.674 1.24v10.218h7.084l.684-2.413h-4.899z"/></g></svg>