<svg width="97" height="31" viewBox="0 0 97 31" fill="none" xmlns="http://www.w3.org/2000/svg">
<path d="M5.2076 5.08506H23.0794L28.2154 0.0619482C27.9529 0.0203521 27.6873 -0.000373997 27.4213 -2.62128e-05H5.0351C3.69971 -2.62128e-05 2.41901 0.517975 1.47475 1.44002C0.530486 2.36207 4.40844e-06 3.61264 4.40844e-06 4.91661V26.7761C-0.000351754 27.0359 0.0208737 27.2952 0.063472 27.5516L5.2076 22.5364V5.08506Z" fill="#445364"/>
<path d="M26.5472 25.9228H8.66724L3.53125 30.938C3.79391 30.9788 4.05944 30.9995 4.32541 31H26.7116C28.047 31 29.3277 30.482 30.2719 29.5599C31.2162 28.6379 31.7467 27.3873 31.7467 26.0833V4.22384C31.7462 3.96413 31.725 3.70485 31.6832 3.44836L26.5472 8.46353V25.9228Z" fill="#526071"/>
<path d="M13.6279 21.076H21.506V13.3849" fill="#526071"/>
<path d="M17.9611 10.0002H10.083V17.6914" fill="#445364"/>
<path d="M51.0477 23.8793V27.0145H38.2061V24.5356L45.4349 16.1547H38.3899V13.0194H50.7401V15.5L43.5097 23.8793H51.0477Z" fill="#445364"/>
<path d="M64.34 23.9603V27.0145H52.8296V13.0194H64.0731V16.08H56.8443V18.4335H63.2139V21.3939H56.8443V23.954L64.34 23.9603Z" fill="#445364"/>
<path d="M72.8609 23.2992H70.6477V27.0145H66.5923V13.0194H73.1473C74.4492 13.0194 75.5754 13.2313 76.5258 13.6551C77.4282 14.0306 78.1978 14.6566 78.739 15.4555C79.2695 16.2772 79.5401 17.2335 79.5169 18.2046C79.5393 19.138 79.2868 20.0579 78.7895 20.8552C78.2833 21.6263 77.5623 22.2404 76.7113 22.6255L79.8033 27.0241H75.4615L72.8609 23.2992ZM74.7861 16.6855C74.3608 16.3242 73.7327 16.1441 72.9016 16.1452H70.6477V20.245H72.9065C73.7375 20.245 74.3657 20.0681 74.791 19.7143C75.2163 19.3604 75.4278 18.8572 75.4257 18.2046C75.4224 17.5489 75.2092 17.0425 74.7861 16.6855Z" fill="#445364"/>
<path d="M84.8938 26.3598C83.7072 25.7552 82.7129 24.8445 82.0191 23.7268C81.3253 22.6091 80.9585 21.3271 80.9585 20.0202C80.9585 18.7132 81.3253 17.4312 82.0191 16.3135C82.7129 15.1958 83.7072 14.2851 84.8938 13.6805C86.1625 13.0618 87.5612 12.7397 88.9793 12.7397C90.3975 12.7397 91.7962 13.0618 93.0649 13.6805C94.2515 14.2851 95.2458 15.1958 95.9396 16.3135C96.6334 17.4312 97.0002 18.7132 97.0002 20.0202C97.0002 21.3271 96.6334 22.6091 95.9396 23.7268C95.2458 24.8445 94.2515 25.7552 93.0649 26.3598C91.7962 26.9785 90.3975 27.3006 88.9793 27.3006C87.5612 27.3006 86.1625 26.9785 84.8938 26.3598ZM90.946 23.5185C91.5345 23.1835 92.0162 22.6956 92.3374 22.109C92.675 21.4615 92.8509 20.7452 92.8509 20.0186C92.8509 19.292 92.675 18.5757 92.3374 17.9281C92.0158 17.3419 91.5342 16.854 90.946 16.5186C90.345 16.1904 89.6679 16.0181 88.9793 16.0181C88.2908 16.0181 87.6137 16.1904 87.0127 16.5186C86.4241 16.854 85.9419 17.3418 85.6196 17.9281C85.2837 18.5761 85.1087 19.2923 85.1087 20.0186C85.1087 20.7449 85.2837 21.461 85.6196 22.109C85.9415 22.6957 86.4237 23.1836 87.0127 23.5185C87.6137 23.8467 88.2908 24.019 88.9793 24.019C89.6679 24.019 90.345 23.8467 90.946 23.5185Z" fill="#445364"/>
<path d="M42.9705 8.53657H40.5213L40.0657 9.63621H38.396L40.9526 3.98224H42.5653L45.1301 9.63621H43.4262L42.9705 8.53657ZM42.4905 7.35746L41.7468 5.54908L41.0096 7.35746H42.4905Z" fill="#526071"/>
<path d="M46.8001 9.57909C46.4175 9.49134 46.0539 9.338 45.7261 9.1262L46.2631 7.9471C46.5422 8.12326 46.8458 8.2592 47.1647 8.35073C47.4909 8.45302 47.831 8.50659 48.1736 8.50964C48.8018 8.50964 49.1175 8.35073 49.1175 8.0488C49.1165 7.9689 49.0899 7.89132 49.0414 7.82692C48.993 7.76252 48.9251 7.71453 48.8474 7.68967C48.5676 7.58196 48.2784 7.49951 47.9832 7.44336C47.6129 7.37001 47.2481 7.27232 46.8913 7.15097C46.6012 7.04671 46.3427 6.87295 46.1394 6.64564C45.9186 6.38235 45.8065 6.04792 45.8253 5.70807C45.82 5.37303 45.9206 5.04452 46.1134 4.76733C46.3317 4.47177 46.6321 4.24346 46.9791 4.10945C47.4272 3.93618 47.9067 3.85399 48.3885 3.86791C48.7669 3.86768 49.1441 3.90926 49.513 3.99186C49.8557 4.06567 50.1849 4.18999 50.4894 4.36053L49.9849 5.54757C49.4959 5.2731 48.9442 5.12284 48.3803 5.11058C48.1345 5.09332 47.8885 5.14224 47.6692 5.252C47.6023 5.28875 47.5465 5.34201 47.5074 5.40643C47.4683 5.47086 47.4472 5.54419 47.4462 5.61908C47.4479 5.69564 47.4743 5.76973 47.5217 5.83078C47.569 5.89184 47.6348 5.93676 47.7098 5.95915C47.9859 6.06434 48.2714 6.14414 48.5626 6.19751C48.9344 6.2706 49.3004 6.36937 49.6578 6.49308C49.9467 6.59729 50.2053 6.76854 50.4113 6.99206C50.6371 7.25139 50.7534 7.58486 50.7367 7.92485C50.7401 8.2527 50.6395 8.57353 50.4487 8.84335C50.2283 9.13862 49.9271 9.3672 49.5797 9.50282C49.1322 9.67833 48.6525 9.76216 48.1704 9.74913C47.708 9.75028 47.2475 9.69313 46.8001 9.57909Z" fill="#526071"/>
<path d="M56.032 4.23648C56.4005 4.38668 56.7135 4.6429 56.9292 4.97106C57.1449 5.29922 57.2531 5.68375 57.2395 6.07346C57.2533 6.4622 57.145 6.84576 56.9292 7.17269C56.7133 7.49962 56.4003 7.75428 56.032 7.9025C55.6005 8.08089 55.1351 8.16757 54.6666 8.15676H53.6576V9.6362H52.0205V3.98222H54.6666C55.1351 3.97142 55.6005 4.05809 56.032 4.23648ZM55.3306 6.68367C55.4174 6.60724 55.4854 6.51269 55.5297 6.40705C55.5739 6.3014 55.5932 6.18738 55.5861 6.07346C55.5931 5.95908 55.5738 5.84462 55.5296 5.73848C55.4854 5.63234 55.4174 5.53721 55.3306 5.46008C55.1114 5.30013 54.8402 5.22333 54.5674 5.24396H53.6576V6.8982H54.5674C54.8399 6.91841 55.1108 6.84227 55.3306 6.68367Z" fill="#526071"/>
<path d="M58.3561 9.4503C58.2663 9.36578 58.1956 9.26389 58.1486 9.15115C58.1015 9.0384 58.079 8.9173 58.0827 8.79559C58.0779 8.67418 58.0993 8.55314 58.1456 8.44034C58.1919 8.32754 58.2619 8.22552 58.3512 8.14089C58.5379 7.98001 58.7784 7.89124 59.0274 7.89124C59.2764 7.89124 59.5168 7.98001 59.7036 8.14089C59.7921 8.22591 59.8614 8.32809 59.9071 8.44084C59.9528 8.55359 59.9738 8.67443 59.9688 8.79559C59.9726 8.91689 59.9507 9.03764 59.9045 9.15029C59.8583 9.26295 59.7888 9.36508 59.7003 9.4503C59.5176 9.61594 59.2775 9.70799 59.0282 9.70799C58.7789 9.70799 58.5388 9.61594 58.3561 9.4503Z" fill="#526071"/>
<path d="M66.8251 3.98224V9.63621H65.4776L62.921 6.61695V9.63621H61.3164V3.98224H62.6655L65.2205 7.00151V3.98224H66.8251Z" fill="#526071"/>
<path d="M73.1699 8.3999V9.63621H68.5205V3.98224H73.069V5.21696H70.1397V6.17041H72.711V7.36541H70.1397V8.3999H73.1699Z" fill="#526071"/>
<path d="M75.8505 5.24396H74.0718V3.97269H79.2533V5.24396H77.4876V9.62984H75.8505V5.24396Z" fill="#526071"/>
</svg>
