<svg width="200" height="200" viewBox="0 0 200 200" fill="none" xmlns="http://www.w3.org/2000/svg">
<g clip-path="url(#clip0)">
<path d="M166.79 39.11L56.4399 62.1C50.2278 63.3853 44.6484 66.772 40.6412 71.6899C36.6341 76.6078 34.444 82.7563 34.4399 89.1V169.52C34.4413 173.62 35.3566 177.668 37.119 181.37C38.8814 185.072 41.4468 188.335 44.6285 190.921C47.8102 193.507 51.5283 195.351 55.5123 196.32C59.4963 197.288 63.6461 197.357 67.6599 196.52L178 173.52C184.212 172.235 189.792 168.848 193.799 163.93C197.806 159.012 199.996 152.864 200 146.52V66.12C200 62.0201 199.086 57.9718 197.325 54.2695C195.563 50.5672 192.999 47.3039 189.818 44.717C186.638 42.1301 182.92 40.2846 178.937 39.3147C174.953 38.3448 170.804 38.2749 166.79 39.11V39.11Z" fill="#FBB03B"/>
<path d="M132.3 3.46L22 26.45C15.7879 27.7353 10.2084 31.1221 6.20126 36.0399C2.19411 40.9578 0.00408653 47.1063 0 53.45L0 133.87C0.00171554 137.969 0.916759 142.016 2.67862 145.717C4.44047 149.418 7.00487 152.68 10.1854 155.266C13.3659 157.852 17.0827 159.697 21.0654 160.666C25.0482 161.635 29.1969 161.705 33.21 160.87L143.56 137.87C149.772 136.585 155.352 133.198 159.359 128.28C163.366 123.362 165.556 117.214 165.56 110.87V30.47C165.561 26.3649 164.647 22.3113 162.882 18.6046C161.118 14.8979 158.549 11.6316 155.363 9.04378C152.176 6.45594 148.452 4.61182 144.462 3.64584C140.473 2.67986 136.317 2.61637 132.3 3.46V3.46Z" fill="#5C47C4"/>
<path d="M59.6701 115.74L65.2901 114.52V136.29L59.6701 137.51V134.94C58.8573 136.155 57.8125 137.197 56.5958 138.007C55.3791 138.817 54.0144 139.379 52.5801 139.66C51.2936 140.009 49.9416 140.04 48.6404 139.751C47.3392 139.462 46.1277 138.861 45.1101 138C44.0552 137.06 43.2272 135.893 42.6886 134.587C42.1499 133.281 41.9145 131.87 42.0001 130.46C41.9994 127.245 43.0966 124.126 45.1101 121.62C46.915 119.106 49.5682 117.33 52.5801 116.62C55.6301 115.96 57.9901 116.5 59.6701 118.26V115.74ZM49.3101 133.29C49.9214 133.74 50.6272 134.045 51.3739 134.182C52.1207 134.319 52.8888 134.284 53.6201 134.08C55.3482 133.732 56.8987 132.786 58.0001 131.41C59.1295 130.071 59.7399 128.371 59.7201 126.62C59.7698 125.865 59.6398 125.109 59.3408 124.413C59.0419 123.718 58.5824 123.103 58.0001 122.62C57.3856 122.168 56.676 121.863 55.9255 121.728C55.175 121.593 54.4035 121.631 53.6701 121.84C51.9695 122.206 50.4461 123.145 49.3541 124.499C48.2621 125.853 47.6677 127.54 47.6701 129.28C47.6147 130.03 47.734 130.782 48.0185 131.478C48.3031 132.174 48.7452 132.794 49.3101 133.29V133.29Z" fill="white"/>
<path d="M83.6999 115.92L78.7899 117V126C78.7522 126.283 78.7834 126.571 78.8809 126.839C78.9784 127.107 79.1393 127.347 79.3499 127.54C79.8543 127.824 80.4489 127.903 81.0099 127.76C81.9178 127.61 82.8161 127.406 83.6999 127.15V132.25C79.8499 133.52 77.1199 133.75 75.5399 132.93C73.9599 132.11 73.1699 130.21 73.1699 127.22V118.17L69.3799 118.99V113.59L73.1699 112.77V108.37L78.7899 105.46V111.55L83.6999 110.48V115.92Z" fill="white"/>
<path d="M91.3199 106.26C90.9067 106.367 90.4745 106.378 90.0565 106.291C89.6386 106.205 89.2463 106.023 88.9099 105.76C88.5807 105.499 88.3184 105.163 88.1445 104.781C87.9706 104.398 87.8902 103.98 87.9099 103.56C87.97 102.585 88.3342 101.654 88.9513 100.897C89.5684 100.14 90.4072 99.5954 91.3499 99.34C91.7711 99.2251 92.2135 99.2114 92.641 99.3001C93.0685 99.3887 93.469 99.5771 93.8099 99.85C94.1386 100.114 94.4005 100.451 94.5742 100.835C94.748 101.219 94.8287 101.639 94.8099 102.06C94.7978 103.03 94.4437 103.965 93.8099 104.7C93.1877 105.495 92.3067 106.047 91.3199 106.26ZM88.5399 131.26V109.47L94.1499 108.25V130L88.5399 131.26Z" fill="white"/>
<path d="M110.52 127.08C107.24 127.793 104.503 127.283 102.31 125.55C101.208 124.654 100.334 123.511 99.7584 122.212C99.1831 120.914 98.9232 119.498 99 118.08C99.003 114.818 100.166 111.664 102.28 109.18C104.341 106.579 107.244 104.779 110.49 104.09C112.406 103.619 114.416 103.713 116.28 104.36C117.954 104.928 119.372 106.073 120.28 107.59L115.45 111.47C115.017 110.675 114.304 110.069 113.45 109.77C112.485 109.43 111.442 109.382 110.45 109.63C108.796 109.977 107.317 110.894 106.27 112.22C105.18 113.519 104.592 115.165 104.61 116.86C104.561 117.593 104.686 118.328 104.974 119.004C105.263 119.68 105.707 120.278 106.27 120.75C106.86 121.193 107.544 121.493 108.27 121.625C108.996 121.756 109.742 121.717 110.45 121.51C111.546 121.28 112.574 120.798 113.45 120.1C114.323 119.434 115.011 118.556 115.45 117.55L120.33 119.28C119.37 121.214 118.006 122.919 116.33 124.28C114.641 125.659 112.65 126.618 110.52 127.08Z" fill="white"/>
<path d="M140.38 98.22L146 97V118.77L140.38 120V117.43C139.567 118.645 138.522 119.687 137.306 120.497C136.089 121.307 134.724 121.869 133.29 122.15C132 122.492 130.645 122.515 129.344 122.217C128.042 121.92 126.833 121.31 125.82 120.44C124.772 119.506 123.948 118.347 123.41 117.05C122.871 115.753 122.632 114.352 122.71 112.95C122.709 109.735 123.806 106.616 125.82 104.11C127.633 101.615 130.286 99.8577 133.29 99.16C136.34 98.5 138.7 99.04 140.38 100.8V98.22ZM130 115.77C130.611 116.22 131.317 116.525 132.064 116.662C132.811 116.799 133.579 116.764 134.31 116.56C136.021 116.203 137.553 115.259 138.64 113.89C139.769 112.551 140.38 110.851 140.36 109.1C140.41 108.345 140.28 107.589 139.981 106.893C139.682 106.198 139.222 105.583 138.64 105.1C138.025 104.648 137.316 104.343 136.565 104.208C135.815 104.073 135.043 104.111 134.31 104.32C132.609 104.686 131.086 105.625 129.994 106.979C128.902 108.333 128.308 110.02 128.31 111.76C128.261 112.514 128.388 113.269 128.681 113.965C128.974 114.661 129.426 115.279 130 115.77V115.77Z" fill="white"/>
</g>
<defs>
<clipPath id="clip0">
<rect width="200" height="200" fill="white"/>
</clipPath>
</defs>
</svg>
