<svg xmlns="http://www.w3.org/2000/svg" width="2500" height="2500" viewBox="0 0 192.756 192.756"><g fill-rule="evenodd" clip-rule="evenodd"><path fill="#fff" d="M0 0h192.756v192.756H0V0z"/><path d="M151.009 129.008v22.936h-8.442v-22.936h8.442zm-27.126 5.039c4.577 0 8.329 2.802 8.329 6.24 0 3.452-3.752 6.254-8.329 6.254s-8.328-2.802-8.328-6.254c0-3.438 3.751-6.24 8.328-6.24zm2.226-5.039l-6.916-7.804h10.317l9.504 12.843c.926 1.313 1.626 3.552 1.726 5.803.339 6.94-7.59 12.656-16.857 12.656s-16.857-5.69-16.857-12.656c-.001-6.978 6.802-12.431 19.083-10.842zm-39.667 12.844c0 3.113 2.888 4.689 5.264 4.689 2.376 0 5.541-1.751 5.541-4.689v-12.844h7.99v12.844c0 8.903-7.878 10.691-13.531 10.691-5.64 0-13.681-1.788-13.681-10.691v-12.844h8.417v12.844zm-25.338-20.648L80.5 151.943h-9.68l-3.414-5.402H48.649l-3.54 5.402H35.23l18.058-27.788-2.737-2.951h10.553zm2.852 19.809H52.213l5.953-9.142 5.79 9.142z" fill="#cc2229"/><path d="M149.982 97.618c2.376.188 4.602-.051 6.928-.588a27.719 27.719 0 0 0 3.852-1.401 26.115 26.115 0 0 0 3.452-2.101 26.57 26.57 0 0 0 2.977-2.714 27.33 27.33 0 0 0 2.413-3.226c.875-1.489 1.538-2.989 2.102-4.627.375-1.363.662-2.688.838-4.077.075-1.087.1-2.139.075-3.214-.125-1.788-.438-3.426-.913-5.151a39.54 39.54 0 0 0-1.127-2.852c-.937-1.851-2.037-3.439-3.388-5.015a27.994 27.994 0 0 0-2.977-2.702 24.546 24.546 0 0 0-4.377-2.527 28.242 28.242 0 0 0-3.926-1.225 28.427 28.427 0 0 0-5.741-.425c-3.227.262-6.466 1.25-9.192 3.026-.187.137-.399.312-.587.449 2.151 3.24 3.576 7.016 4.439 10.78.25 1.213.45 2.428.575 3.652.412 3.888.025 7.828-1.051 11.58-.913 3.089-2.326 6.215-4.189 8.854 2.826 2.029 6.366 3.253 9.817 3.504zM134.513 69.78a23.612 23.612 0 0 0-1.25-2.826c-1.126 2.126-1.938 4.389-2.302 6.778-.199 1.362-.287 2.739-.199 4.127.187 2.964 1.139 5.939 2.551 8.554.9-1.813 1.576-3.603 1.988-5.59.688-3.402.475-7.004-.552-10.331l-.236-.712zM118.08 97.419c2.639-.438 5.016-1.327 7.354-2.603l.899-.537c-.5-.676-.938-1.451-1.351-2.177a32.134 32.134 0 0 1-3.177-7.928 34.409 34.409 0 0 1-.838-4.914 31.32 31.32 0 0 1 .301-7.492c.763-4.489 2.427-8.703 4.988-12.455-1.087-.713-2.213-1.376-3.413-1.876-2.038-.851-4.189-1.426-6.402-1.589-4.603-.35-9.104.713-12.981 3.215 2.751 4.139 4.452 8.991 5.14 13.906.15 1.488.25 2.901.238 4.401-.075 2.94-.575 5.804-1.451 8.617-.938 2.989-2.326 5.729-4.026 8.354 4.302 2.827 9.629 3.878 14.719 3.078zM97.782 69.593a18.85 18.85 0 0 0-1.337-2.901c-.799 1.538-1.488 3.126-1.938 4.79-.438 1.712-.712 3.477-.712 5.252.012 1.126.112 2.264.325 3.364a23.577 23.577 0 0 0 2.389 6.528c.699-1.364 1.3-2.789 1.712-4.265.375-1.489.651-2.927.739-4.452.087-2.077-.063-4.152-.539-6.166-.162-.713-.4-1.462-.639-2.15zm-12.928-.35c.812-3.189 2.113-6.14 3.838-8.942l.664-.987.1-.15c-2.39-1.476-4.953-2.501-7.716-3.039-2.001-.388-4.177-.426-6.204-.263-2.825.401-5.515 1.277-7.94 2.777-.288.188-.601.4-.863.612 2.165 3.24 3.576 7.016 4.44 10.78a32.57 32.57 0 0 1 .738 6.104 33.206 33.206 0 0 1-.4 5.564 35.253 35.253 0 0 1-.814 3.564c-.912 3.089-2.326 6.215-4.189 8.854 6.59 4.716 16.22 4.765 22.886.15-2.551-3.814-4.29-8.004-5.052-12.531a31.427 31.427 0 0 1-.087-9.442c.16-1.026.36-2.038.599-3.051zm-24.125.199a22.635 22.635 0 0 0-1.125-2.488c-1.113 2.126-1.927 4.389-2.289 6.778-.201 1.362-.289 2.739-.201 4.127.189 2.964 1.139 5.939 2.539 8.554.676-1.363 1.251-2.701 1.651-4.177 1.176-4.09.951-8.803-.575-12.794zM47.748 82.361a32.16 32.16 0 0 1-.487-7.516 31.181 31.181 0 0 1 5.34-15.532c-1.076-.713-2.214-1.376-3.402-1.876-2.051-.851-4.202-1.426-6.403-1.589-1.638-.125-3.264-.036-4.89.163a31.602 31.602 0 0 0-3.039.713 24.933 24.933 0 0 0-4.639 2.101 26.277 26.277 0 0 0-3.214 2.413 25.585 25.585 0 0 0-2.714 2.978 23.81 23.81 0 0 0-2.514 4.377 27.617 27.617 0 0 0-1.238 3.926l-.175 1.038a26.969 26.969 0 0 0-.212 4.252c.063 1.063.212 2.101.388 3.151.488 2.051 1.139 3.877 2.114 5.753a32.59 32.59 0 0 0 1.639 2.55c1.05 1.352 2.176 2.514 3.464 3.64a28.623 28.623 0 0 0 3.352 2.264c1.538.776 3.088 1.4 4.752 1.863 1 .237 2.051.438 3.076.562 1.15.075 2.263.125 3.401.062a22.598 22.598 0 0 0 8.73-2.451l.712-.388.888-.537c-.838-1.151-1.539-2.501-2.189-3.777a33.155 33.155 0 0 1-2.74-8.14zm122.356 19.058a46.036 46.036 0 0 1-3.739 2.414 47.953 47.953 0 0 1-4.102 1.838c-1.439.488-2.89.913-4.378 1.251l-1.513.275c-2.651.325-5.315.463-7.967.175a31.769 31.769 0 0 1-9.229-2.476 34.176 34.176 0 0 1-5.903-3.427c-2.063 1.438-4.19 2.677-6.515 3.652a32.514 32.514 0 0 1-10.018 2.362 32.862 32.862 0 0 1-7.191-.375c-4.765-.862-9.253-2.713-13.205-5.539-1.688 1.188-3.452 2.251-5.34 3.113-3.901 1.776-8.029 2.752-12.318 2.852-2.826.037-5.628-.263-8.38-.975-3.876-1.014-7.416-2.739-10.691-5.091-1.727 1.2-3.465 2.251-5.353 3.139-3.915 1.813-8.191 2.839-12.506 2.927-1.801.025-3.564-.125-5.34-.338a45.403 45.403 0 0 1-4.478-1.038 48.893 48.893 0 0 1-4.202-1.65 43.473 43.473 0 0 1-3.864-2.227 41.354 41.354 0 0 1-4.565-3.764 46.635 46.635 0 0 1-2.913-3.364 47.3 47.3 0 0 1-2.401-3.739 52.721 52.721 0 0 1-1.863-4.103 47.177 47.177 0 0 1-1.25-4.376 47.868 47.868 0 0 1-.575-4.615l-.05-1.576.05-1.588.112-1.563.201-1.539.262-1.513.363-1.501.4-1.45.487-1.425.563-1.413.625-1.363.675-1.326.75-1.301.788-1.239.863-1.212.913-1.15c.975-1.137 2-2.2 3.063-3.227a53.523 53.523 0 0 1 3.502-2.751 51.474 51.474 0 0 1 3.864-2.227 49.655 49.655 0 0 1 4.202-1.664c1.477-.413 2.964-.776 4.478-1.024 2.214-.276 4.439-.426 6.666-.3 2.826.212 5.577.762 8.229 1.688a34.166 34.166 0 0 1 7.316 3.727l.512.363.413.3c4.415-3.289 9.705-5.351 15.183-5.965 3.276-.312 6.59-.176 9.816.525a32.144 32.144 0 0 1 8.266 3.064c1.251.689 2.439 1.464 3.602 2.276 1.964-1.476 4.165-2.701 6.429-3.651 4.339-1.839 9.179-2.602 13.894-2.326 1.514.112 3.052.325 4.527.637a30.964 30.964 0 0 1 9.954 4.09c.663.424 1.351.888 1.976 1.35a31.807 31.807 0 0 1 10.093-4.964c2.751-.788 5.54-1.138 8.404-1.176l1.625.038 1.613.126 1.575.2a46.96 46.96 0 0 1 4.553 1.024 40.83 40.83 0 0 1 4.239 1.664 39.67 39.67 0 0 1 3.877 2.227c1.2.862 2.351 1.762 3.464 2.751a38.5 38.5 0 0 1 3.015 3.202 39.825 39.825 0 0 1 2.525 3.626l.726 1.301.676 1.326.587 1.363.538 1.4.463 1.438.399 1.45c.338 1.515.601 3.002.788 4.553.112 1.576.149 3.151.112 4.727a43.867 43.867 0 0 1-.588 4.615l-.35 1.501-.412 1.451-.488 1.424a43.034 43.034 0 0 1-1.851 4.103 39.827 39.827 0 0 1-3.326 4.902 41.903 41.903 0 0 1-3.064 3.226l-1.126.964-1.162.911z" fill="#fff"/><path d="M60.091 94.029c-4.552-4.553-7.14-10.38-7.14-17.284 0-6.578 2.463-12.431 6.627-16.932 4.09 4.464 6.616 10.417 6.616 16.932 0 4.527-.875 8.342-3.002 12.005 3.165-10.054 2.251-17.133-1.625-22.748.7.988 2.601 6.528 2.251 10.742 0 4.665-1.426 9.005-3.853 12.606l.126 4.679zM181.56 76.746c0 16.446-13.419 29.838-29.852 29.838-6.878 0-13.231-2.339-18.421-6.314-5.201 3.927-11.593 6.314-18.533 6.314-6.854 0-13.182-2.339-18.396-6.202-5.215 3.902-11.504 6.202-18.308 6.202-6.878 0-13.23-2.339-18.421-6.314-5.19 3.927-11.593 6.314-18.521 6.314-16.446 0-29.864-13.393-29.864-29.838s13.418-29.864 29.864-29.864c6.928 0 13.331 2.39 18.457 6.391 5.141-4.001 11.556-6.391 18.485-6.391 6.928 0 13.244 2.376 18.383 6.278a29.762 29.762 0 0 1 18.321-6.278c6.94 0 13.332 2.39 18.459 6.391 5.151-4.001 11.567-6.391 18.495-6.391 17.058 0 29.852 13.382 29.852 29.864zm-29.852-26.737c-5.053 0-9.704 1.438-13.719 3.952 6.565-5.241 17.107-6.378 29.214-2.151-4.364-2.651-9.992-4.364-15.495-4.364-6.991 0-13.469 2.538-18.521 6.665l.075 3.364c-4.815-4.614-11.343-7.465-18.509-7.465a25.55 25.55 0 0 0-13.694 3.952c6.542-5.241 17.097-6.378 29.189-2.151-4.365-2.651-9.98-4.364-15.495-4.364-6.967 0-13.268 2.351-18.321 6.49v3.539c-4.801-4.614-11.217-7.465-18.383-7.465a25.586 25.586 0 0 0-13.706 3.952c6.552-5.241 17.095-6.378 29.2-2.151-4.365-2.651-9.979-4.364-15.494-4.364-6.979 0-13.456 2.538-18.521 6.665l.076 3.364c-4.802-4.614-11.331-7.465-18.496-7.465a25.656 25.656 0 0 0-13.718 3.952c6.565-5.241 17.107-6.378 29.212-2.151-4.364-2.651-9.992-4.364-15.494-4.364-16.133 0-29.301 13.181-29.301 29.3 0 5.603 1.95 11.73 5.264 16.67-6.69-13.193-3.314-23.223.952-29.463-1.639 3.664-3.777 8.566-3.664 12.793.413 14.545 12.03 26.738 26.75 26.738 7.465 0 13.768-2.651 18.721-7.654 4.902 5.115 10.643 7.654 18.221 7.654a25.92 25.92 0 0 0 18.482-7.741c4.767 4.777 10.981 7.741 18.222 7.741 7.479 0 13.77-2.651 18.721-7.654 4.915 5.115 10.643 7.654 18.233 7.654 14.72 0 26.725-12.018 26.725-26.738-.001-14.622-12.106-26.74-26.726-26.74zM92.906 93.917A22.637 22.637 0 0 1 78.05 99.47c-5.365-.089-7.767-1.026-10.055-2.151 6.553 5.102 21.11 3.126 24.823-.076-4.051 2.914-9.142 4.591-14.769 4.591-6.904 0-12.719-2.526-17.295-7.041 4.702-4.79 7.078-10.805 7.078-18.046 0-7.041-2.763-13.48-7.253-18.27 3.439-3.452 10.242-6.828 17.471-6.828 6.578 0 12.768 2.989 17.271 7.165h-3.315c-4.239 5.077-6.529 10.843-6.529 17.933 0 5.603 1.951 11.73 5.253 16.67-6.69-13.193-3.302-23.223.951-29.463-1.639 3.664-3.752 8.579-3.652 12.793.151 6.541 3.114 12.606 7.128 17.308l-2.251-.138zm3.514-.425c-4.227-4.502-6.74-10.168-6.74-16.746 0-6.578 2.563-12.593 6.752-17.083 4.265 4.477 6.704 10.417 6.704 17.083 0 4.527-.876 8.342-3.002 12.005 3.164-10.054 2.25-17.133-1.626-22.748.701.988 2.602 6.528 2.264 10.742 0 4.803-1.513 9.292-4.077 12.969l-.275 3.778zm1.301 1.324c4.428-4.727 7.065-11.042 7.065-18.071 0-7.041-2.575-13.118-7.065-17.933 4.502-4.426 10.255-7.165 17.033-7.165 6.541 0 12.668 2.463 17.133 6.603l-2.876.013a29.103 29.103 0 0 0-6.604 18.483c0 5.603 1.951 11.73 5.265 16.67-6.69-13.193-3.313-23.223.951-29.463-1.639 3.664-3.766 8.554-3.665 12.793.15 7.003 2.502 12.769 7.028 17.608l-2.588-.274c-3.952 3.34-9.079 5.391-14.645 5.391-5.365-.089-7.554-1.151-10.042-2.151 6.54 5.102 21.097 3.126 24.811-.076-4.052 2.914-9.142 4.591-14.769 4.591-7.215-.002-12.392-2.866-17.032-7.019zm4.302-.224c3.576 2.576 8.028 4.077 12.73 4.077 4.715 0 9.329-1.589 12.943-4.127-3.564-4.94-5.853-11.255-5.853-17.796 0-6.565 2.139-12.655 5.777-17.658a21.351 21.351 0 0 0-12.868-4.276c-4.702 0-9.055 1.438-12.631 4.001 3.438 4.853 5.765 11.468 5.765 17.933.002 6.541-2.299 12.906-5.863 17.846zm-5.514-6.04a21.72 21.72 0 0 0 3.464-11.806c0-4.427-1.227-8.566-3.54-11.905-2.226 3.514-3.601 7.566-3.601 11.905 0 4.252 1.55 8.416 3.677 11.806zm-5.754 5.952c-3.651-5.077-5.853-11.18-5.853-17.758a29.677 29.677 0 0 1 5.94-17.82c-3.577-2.489-8.141-4.114-12.78-4.114-5.566-.313-11.643 2.876-12.531 4.376 3.302 4.765 5.427 11.242 5.427 17.558 0 6.528-2.125 12.582-5.778 17.595 3.565 2.752 8.042 4.328 12.869 4.328 4.715 0 9.118-1.501 12.706-4.165zm-32.427-.15l-2.589-.274c-3.952 3.34-9.066 5.391-14.631 5.391-5.365-.089-6.955-1.364-10.068-2.151 6.555 5.102 21.11 3.126 24.837-.076-4.064 2.914-9.154 4.591-14.769 4.591-13.806 0-25.099-11.268-25.099-25.087 0-13.819 11.28-25.098 25.099-25.098 6.54 0 12.668 2.463 17.133 6.603l-2.889.013c-4.114 5.039-6.603 11.492-6.603 18.483 0 5.603 1.963 11.73 5.265 16.67-6.69-13.193-3.301-23.223.951-29.463-1.638 3.664-3.752 8.554-3.651 12.793.148 7 2.487 12.765 7.014 17.605zm1.338-5.99a21.695 21.695 0 0 0 3.363-11.619c0-4.276-1.237-8.29-3.401-11.718-2.138 3.352-3.513 7.442-3.513 11.718 0 4.19 1.487 8.317 3.551 11.619zm-5.615 6.178c-3.564-4.94-5.866-11.255-5.866-17.796 0-6.565 2.14-12.655 5.778-17.658a21.31 21.31 0 0 0-12.855-4.276c-12.081 0-21.935 9.854-21.935 21.934 0 12.082 9.854 21.923 21.935 21.923 4.703 0 9.33-1.589 12.943-4.127zm79.699-.513c-4.552-4.553-7.141-10.38-7.141-17.284 0-6.578 2.464-12.431 6.615-16.932 4.102 4.464 6.615 10.417 6.615 16.932 0 4.527-.874 8.342-3.001 12.005 3.177-10.054 2.251-17.133-1.613-22.748.688.988 2.602 6.528 2.251 10.742 0 4.665-1.425 9.005-3.852 12.606l.126 4.679zm.662.763c4.69-4.79 7.079-10.805 7.079-18.046 0-7.041-2.765-13.48-7.267-18.27 3.452-3.452 10.243-6.828 17.483-6.828 13.807 0 25.073 11.279 25.073 25.098 0 4.527-.862 8.342-2.988 12.005 3.164-10.054 2.238-17.133-1.625-22.748.688.988 2.601 6.528 2.25 10.742 0 12.518-10.204 22.724-22.71 22.724-5.365-.089-7.766-1.026-10.067-2.151 6.554 5.102 21.109 3.126 24.824-.076-4.052 2.914-9.142 4.591-14.757 4.591-6.902 0-12.718-2.526-17.295-7.041zm4.415-.451c3.576 2.752 8.053 4.328 12.881 4.328 12.067 0 21.923-9.842 21.923-21.923 0-12.08-9.855-21.934-21.923-21.934-5.565-.313-11.643 2.876-12.53 4.376 3.301 4.765 5.428 11.242 5.428 17.558-.001 6.527-2.127 12.581-5.779 17.595zm-5.502-5.977c2.125-3.389 3.363-7.366 3.363-11.619 0-4.276-1.25-8.29-3.401-11.718-2.151 3.352-3.515 7.442-3.515 11.718 0 4.19 1.477 8.317 3.553 11.619z" fill="#d0d1d3"/></g></svg>