<svg width="24" height="24" viewBox="0 0 24 24" fill="none" xmlns="http://www.w3.org/2000/svg">
<path d="M24 7.53601V11.0316C24 18.1932 18.6276 24 12 24C5.3724 24 0 18.1932 0 11.0316V7.53601L12.5256 20.4888L24 7.53601Z" fill="url(#paint0_linear)"/>
<path d="M0.5256 7.52039C0.3744 7.52039 0.2244 7.52039 0.0756 7.53239C0.0255227 7.97302 0.000282808 8.41612 0 8.85959C0 15.4596 5.3724 20.814 12 20.814C12.1512 20.814 12.3 20.814 12.45 20.8032C12.4995 20.3625 12.5247 19.9194 12.5256 19.476C12.5256 12.8736 7.1532 7.52039 0.5256 7.52039Z" fill="url(#paint1_linear)"/>
<path d="M23.9256 7.53599C17.5764 7.84799 12.5256 13.074 12.5256 19.476C12.5256 19.5876 12.5256 19.6992 12.5256 19.8108C12.5256 19.6992 12.5256 19.5876 12.5256 19.476C12.5256 19.7004 12.5184 19.9236 12.5052 20.1444C12.5184 19.9236 12.5256 19.7004 12.5256 19.476C12.5256 12.876 7.1532 7.52039 0.5256 7.52039C0.3744 7.52039 0.2244 7.52039 0.0756 7.53239C0.0255227 7.97302 0.000282808 8.41612 0 8.85959C0 15.4596 5.3724 20.814 12 20.814C12.1512 20.814 12.3 20.814 12.45 20.8032C12.5004 20.8032 12.5508 20.8032 12.6 20.8032C18.9492 20.4912 24 15.2652 24 8.86319C23.9996 8.41975 23.9748 7.97668 23.9256 7.53599Z" fill="url(#paint2_linear)"/>
<path d="M12 8.64C14.3859 8.64 16.32 6.70587 16.32 4.32C16.32 1.93413 14.3859 0 12 0C9.61415 0 7.68002 1.93413 7.68002 4.32C7.68002 6.70587 9.61415 8.64 12 8.64Z" fill="#6F4A9E"/>
<defs>
<linearGradient id="paint0_linear" x1="12" y1="25.1304" x2="12" y2="17.2404" gradientUnits="userSpaceOnUse">
<stop stop-color="#FF8A11"/>
<stop offset="1" stop-color="#E81894"/>
</linearGradient>
<linearGradient id="paint1_linear" x1="13.7652" y1="22.9548" x2="3.942" y2="11.4504" gradientUnits="userSpaceOnUse">
<stop stop-color="#B03B83"/>
<stop offset="1" stop-color="#6F4A9E"/>
</linearGradient>
<linearGradient id="paint2_linear" x1="2400" y1="2048.89" x2="2400" y2="1088.95" gradientUnits="userSpaceOnUse">
<stop stop-color="#FF8A11"/>
<stop offset="1" stop-color="#E81894"/>
</linearGradient>
</defs>
</svg>
