<svg xmlns="http://www.w3.org/2000/svg" width="2500" height="841" viewBox="0 0 85.291 28.685"><path d="M83.709 25.467c0-.327-.236-.49-.709-.49h-.818v.981h.547c.654 0 .98-.164.98-.491zm.381 0c0 .473-.307.709-.926.709l.873 1.309h-.383l-.818-1.309h-.654v1.309h-.326v-2.781h1.199c.328 0 .582.055.764.163.181.11.271.309.271.6zm.873.654c0-.618-.199-1.145-.6-1.582-.4-.436-.928-.654-1.582-.654-.58 0-1.09.219-1.525.654-.438.438-.654.964-.654 1.582s.209 1.137.627 1.555.936.627 1.553.627c.619 0 1.137-.209 1.555-.627s.626-.937.626-1.555zM17.015 15.433l-.055-6.871-3.49 6.871h3.545zm68.276 10.688c0 .69-.236 1.272-.709 1.745s-1.072.709-1.801.709c-.654 0-1.236-.236-1.744-.709-.51-.473-.764-1.055-.764-1.745s.246-1.281.736-1.772a2.417 2.417 0 0 1 1.771-.736c.729 0 1.328.236 1.801.709s.71 1.073.71 1.799zM83.273 2.562l-2.018 5.999c-1.127-.582-2.137-1.009-3.027-1.281-.891-.273-1.645-.409-2.264-.409-.689 0-1.217.109-1.58.327-.365.218-.619.491-.766.818-.217.328-.326.746-.326 1.254 0 .363.064.682.191.955.127.272.582.763 1.363 1.472a140.31 140.31 0 0 1 2.209 2.045c.689.654 1.135 1.145 1.336 1.472.199.327.445.873.736 1.637.289.764.436 1.617.436 2.563 0 1.163-.363 2.499-1.09 4.008-.729 1.509-1.973 2.763-3.736 3.763s-3.736 1.5-5.916 1.5c-1.891 0-3.572-.291-5.045-.873s-2.682-1.309-3.627-2.181l2.072-6.326a21.213 21.213 0 0 0 3.545 1.745c1.164.436 2.4.654 3.709.654.727 0 1.336-.209 1.826-.627s.736-.918.736-1.5c0-.691-.4-1.309-1.199-1.854-1.311-1.054-2.346-1.972-3.109-2.754-.764-.781-1.271-1.472-1.527-2.072a7.706 7.706 0 0 1-.518-1.718 9.205 9.205 0 0 1-.137-1.526c0-1.382.301-2.736.9-4.063s1.5-2.436 2.699-3.327 2.326-1.491 3.381-1.8A11.803 11.803 0 0 1 75.857 0c1.635 0 3.152.263 4.553.79 1.399.527 2.354 1.118 2.863 1.772zm-60.042 25.14h-6.053l-.055-6.38h-6.762l-3.217 6.38H0L14.07.6h8.889l.272 27.102zM52.57.6L38.501 27.702h-9.653L28.358.6h6.98l.273 18.923L45.426.6h7.144zm10.252 0l-9.107 27.103h-6.652L56.17.6h6.652z" fill-rule="evenodd" clip-rule="evenodd" fill="#cc2229"/></svg>