<svg xmlns="http://www.w3.org/2000/svg" width="2500" height="2500" viewBox="1 0.967 800.001 800.034"><path d="M801.001 400.984c0 220.923-179.086 400.017-400 400.017s-400-179.094-400-400.017C1.001 180.06 180.087.966 401.001.966s400 179.094 400 400.018z" fill="#fff"/><path d="M522.932 400.982c0-67.342-54.583-121.931-121.922-121.931-67.343 0-121.931 54.589-121.931 121.931 0 67.34 54.588 121.931 121.931 121.931 67.339 0 121.922-54.591 121.922-121.931" fill="#ed1c24"/><path d="M401.018.967c-38.11 0-74.924 5.442-109.841 15.397v216.222c31.58-20.638 69.288-32.681 109.833-32.681 111.043 0 201.072 90.025 201.072 201.077S512.053 602.059 401.01 602.059c-111.052 0-201.08-90.025-201.08-201.077 0-3.572.102-7.12.282-10.648l-.282.222V55.241C80.994 124.564 1 253.392 1 400.982 1 621.903 180.097 801 401.018 801 621.936 801 801 621.903 801 400.982 801 180.064 621.936.967 401.018.967" fill="#ed1c24"/></svg>