<?xml version="1.0" encoding="iso-8859-1"?>
<!-- Generator: Adobe Illustrator 19.0.0, SVG Export Plug-In . SVG Version: 6.00 Build 0)  -->
<svg version="1.1" id="Capa_1" xmlns="http://www.w3.org/2000/svg" xmlns:xlink="http://www.w3.org/1999/xlink" x="0px" y="0px"
	 viewBox="0 0 512 512" style="enable-background:new 0 0 512 512;" xml:space="preserve">
<path style="fill:#FF3C3C;" d="M285.765,512h-59.528c-95.765,0-173.674-77.91-173.674-173.674V57.716
	C52.562,25.891,78.453,0,110.278,0s57.716,25.891,57.716,57.716v280.61c0,32.115,26.128,58.243,58.243,58.243h59.528
	c32.115,0,58.242-26.127,58.242-58.243c0-32.115-26.127-58.242-58.242-58.242h-28.092c-31.825,0-57.716-25.891-57.716-57.716
	s25.89-57.716,57.716-57.716h28.092c95.764,0,173.673,77.91,173.673,173.673C459.438,434.09,381.529,512,285.765,512z"/>
<path style="fill:#DA0806;" d="M285.765,164.653h-14.442v115.431h14.442c32.115,0,58.242,26.127,58.242,58.242
	c0,32.115-26.127,58.243-58.242,58.243h-14.442V512h14.442c95.764,0,173.673-77.91,173.673-173.674
	C459.438,242.562,381.529,164.653,285.765,164.653z"/>
<g>
</g>
<g>
</g>
<g>
</g>
<g>
</g>
<g>
</g>
<g>
</g>
<g>
</g>
<g>
</g>
<g>
</g>
<g>
</g>
<g>
</g>
<g>
</g>
<g>
</g>
<g>
</g>
<g>
</g>
</svg>
