<svg width="20" height="20" viewBox="0 0 20 20" fill="none" xmlns="http://www.w3.org/2000/svg">
<g clip-path="url(#clip0)">
<path d="M9.177 5.00195C9.55453 5.51585 9.7433 6.12881 9.7433 6.84579C9.7433 7.58259 9.55453 8.17698 9.172 8.62524C8.95698 8.87415 8.64321 9.10447 8.22817 9.31127C8.85823 9.53664 9.33327 9.89203 9.65704 10.3775C9.97707 10.8629 10.1383 11.4535 10.1383 12.147C10.1383 12.8627 9.95457 13.5054 9.58704 14.0726C9.35452 14.4478 9.06199 14.766 8.71196 15.0223C8.31818 15.3171 7.85314 15.5189 7.3156 15.6291C6.77806 15.7381 6.19676 15.7913 5.56921 15.7913H0V3.71411H5.97299C7.48061 3.7364 8.54695 4.16486 9.177 5.00195ZM2.46395 5.81181V8.47665H5.4692C6.00424 8.47665 6.44053 8.37634 6.77681 8.17698C7.11058 7.97761 7.27935 7.62345 7.27935 7.11698C7.27935 6.55232 7.05808 6.18206 6.61554 6.00003C6.23301 5.87496 5.74547 5.81181 5.15417 5.81181H2.46395ZM2.46395 10.4753V13.6961H5.46545C6.00174 13.6961 6.42053 13.6255 6.71805 13.4831C7.2606 13.2181 7.53062 12.7179 7.53062 11.9749C7.53062 11.3446 7.26935 10.9136 6.7443 10.6784C6.44928 10.5483 6.03675 10.479 5.5067 10.4753H2.46395ZM17.6102 7.04269C18.249 7.32131 18.774 7.76214 19.1878 8.36396C19.5654 8.8952 19.8079 9.51064 19.9179 10.2103C19.9829 10.6189 20.0079 11.2121 19.9979 11.9835H13.3386C13.3786 12.8788 13.6936 13.5079 14.2962 13.867C14.6612 14.0911 15.0987 14.2038 15.615 14.2038C16.1576 14.2038 16.6001 14.0676 16.9401 13.7952C17.1277 13.6466 17.2914 13.4423 17.4327 13.181H19.8729C19.8079 13.7097 19.5116 14.2484 18.9878 14.7957C18.169 15.6626 17.0226 16.0972 15.5488 16.0972C14.3312 16.0972 13.2586 15.7319 12.3298 14.9988C11.3972 14.267 10.9334 13.0745 10.9334 11.4238C10.9334 9.87594 11.3534 8.6884 12.1923 7.86245C13.0336 7.03897 14.1212 6.62414 15.46 6.62414C16.2576 6.6229 16.9739 6.76283 17.6102 7.04269ZM14.0362 9.05989C13.6986 9.40043 13.4861 9.86108 13.3986 10.4418H17.5177C17.4739 9.82145 17.2602 9.35213 16.8814 9.02893C16.4976 8.70821 16.0263 8.54847 15.4625 8.54847C14.8512 8.54971 14.3737 8.72059 14.0362 9.05989ZM12.781 5.78085H18.0777V4.27754H12.781V5.78085Z" fill="#1976D2"/>
</g>
<defs>
<clipPath id="clip0">
<rect width="20" height="19.8113" fill="white"/>
</clipPath>
</defs>
</svg>
