<svg xmlns="http://www.w3.org/2000/svg" width="2500" height="2500" viewBox="0 0 192.756 192.756"><g fill-rule="evenodd" clip-rule="evenodd"><path fill="#fff" d="M0 0h192.756v192.756H0V0z"/><path d="M17.776 129.923h5.886c2.188 0 3.229 1.042 3.229 2.917 0 2.5-1.667 3.073-3.646 3.073h-5.469v-5.99zm-9.272 13.596h17.137c5.313 0 10.574-3.334 10.574-9.741 0-4.688-2.553-6.979-5.261-7.97 2.239-1.302 3.75-3.021 3.75-6.25 0-3.282-1.719-8.022-9.637-8.022H8.504v31.983zm9.272-24.378h4.948c1.875 0 3.178.573 3.178 2.188 0 2.084-1.25 2.656-3.178 2.656h-4.948v-4.844zM40.018 143.519h9.584v-11.147h5.104c3.803 0 4.063 3.177 4.323 6.198.157 1.667.313 3.334.782 4.949h9.636c-.885-1.511-.938-5.313-1.042-6.876-.365-3.959-1.979-6.929-4.584-7.97 3.177-1.198 4.636-4.688 4.636-7.97 0-6.042-4.688-9.168-10.157-9.168H40.018v31.984zm9.584-24.378h4.532c3.646 0 4.74 1.198 4.74 3.178 0 2.864-2.449 3.177-4.219 3.177h-5.053v-6.355zM70.594 127.526c0 9.741 6.615 16.721 16.46 16.721s16.459-6.979 16.459-16.721c0-9.74-6.615-16.721-16.459-16.721s-16.46 6.981-16.46 16.721zm10.001 0c0-7.136 3.906-8.751 6.459-8.751 2.552 0 6.459 1.615 6.459 8.751 0 7.137-3.907 8.751-6.459 8.751-2.553 0-6.459-1.614-6.459-8.751zM140.967 143.519h13.855c10.887 0 15.939-6.251 15.939-16.044 0-8.073-3.646-15.939-14.064-15.939h-15.73v31.983zm9.584-23.805h3.072c6.928 0 7.553 5.625 7.553 7.656 0 2.97-.885 7.97-6.875 7.97h-3.75v-15.626zM174.668 143.519h9.584v-31.984h-9.584v31.984zM106.848 143.519h9.533v-17.451h.103l10.053 17.451h9.793v-31.984h-9.531v17.086h-.106l-9.531-17.086h-10.314v31.984zM100.992 70.463l.779 1.68c.004.012 2.043 4.333 2.135 6.75-.002.626-.033 1.168-.168 1.556-.105.302-.312.587-.695.867l.002.001-22.817 15.8.023.034-1.74 1.206a30.932 30.932 0 0 0 18.283 5.938c17.137 0 30.993-13.855 30.993-30.94 0-6.615-2.031-12.71-5.572-17.763l-21.223 14.871zm19.854-8.431a26.623 26.623 0 0 1 2.514 11.322c0 14.637-11.875 26.513-26.565 26.513-3.547 0-6.931-.673-10.013-1.927L105.6 84.909l.053-.035c1.18-.865 1.859-1.857 2.248-2.974.355-1.017.43-2.013.43-3.076v-.078c-.076-2.11-1.088-4.953-1.814-6.744l14.329-9.97zM92.434 63.26l-2.496 1.75-.004-.005c-.351.266-.546.541-.647.836-.143.412-.176.967-.178 1.61.092 2.417 2.13 6.738 2.136 6.75l.777 1.68-1.511 1.057-15.85 11.085.047.072-3.646 2.5c-3.282-4.948-5.261-10.887-5.261-17.241 0-17.137 13.908-30.993 30.993-30.993a30.93 30.93 0 0 1 17.606 5.47l-1.803 1.292-.008.004L92.434 63.26zM72.521 84.119L86.5 74.342c-.726-1.791-1.736-4.634-1.813-6.744v-.077c0-1.098.074-2.108.42-3.113.389-1.126 1.07-2.119 2.257-2.989l.034-.035 18.544-13.002a26.782 26.782 0 0 0-9.149-1.593c-14.637 0-26.565 11.876-26.565 26.565.001 3.81.826 7.464 2.293 10.765z"/></g></svg>