<svg xmlns="http://www.w3.org/2000/svg" xmlns:xlink="http://www.w3.org/1999/xlink" width="2500" height="387" viewBox="40.977 79.204 920 142.328"><path d="M908.784 149.018c2.818 0 4.534 1.329 4.534 3.55 0 1.517-.797 3.255-3.651 3.726 1.801 1.106 2.16 1.323 4.16 6.142h-2c-2.403-5.271-3.129-5.894-6.167-5.894h-.774v5.894h-1.677v-13.417l5.575-.001m-1.676 6.182c3.117 0 4.272-.677 4.272-2.495 0-1.781-1.057-2.358-4.049-2.358h-2.446v4.854l2.223-.001zm14.034.374c0 7.06-5.749 12.766-12.754 12.766-7.066 0-12.792-5.706-12.792-12.766 0-7.04 5.726-12.755 12.792-12.755 7.005 0 12.754 5.715 12.754 12.755m-23.931 0c0 6.158 4.985 11.15 11.177 11.15 6.137 0 11.12-4.992 11.12-11.15 0-6.161-4.983-11.14-11.12-11.14-6.191.001-11.177 4.98-11.177 11.14" fill="#014898"/><path d="M956.425 215.166l4.552 4.15c-.977 1.55-4.912 2.216-11.426 2.216-29.438 0-111.778-13.364-216.072-17.011-62.951-3.133-133.753-6.097-204.317-6.097-77.109 0-153.934 3.532-219.977 14.251-31.892 4.7-67.001 8.157-86.17 8.157-7.65 0-12.772-.56-14.127-1.786l-4.563-4.148c1.373 1.242 6.477 1.789 14.127 1.789 19.181 0 54.283-3.459 86.188-8.158 66.031-10.713 142.856-14.246 219.978-14.246 70.563 0 141.365 2.956 204.305 6.098 104.314 3.641 186.65 17.002 216.065 17.002 6.532 0 10.45-.658 11.437-2.217" fill="#7e221f"/><defs><path id="a" d="M292.753 197.018c-44.678 4.252-89.392 4.189-88.796 17.193.105 1.732 5.563 2.477 14.493 2.477 19.181 0 54.295-3.451 86.188-8.158 66.031-10.719 142.856-14.245 219.978-14.245 70.552 0 141.364 2.956 204.305 6.098 104.314 3.64 186.646 17.002 216.065 17.002 7.898 0 11.996-.954 11.675-3.327-.437-1.068-37.244-7.64-94.522-14.021-57.35-5.613-134.359-9.5-213.271-11.314-38.784-1.302-78.076-2.619-115.757-2.619-115.646-.004-216.153 7.391-240.358 10.914"/></defs><clipPath id="b"><use xlink:href="#a" overflow="visible"/></clipPath><linearGradient id="c" gradientUnits="userSpaceOnUse" x1="78.272" y1="-39.631" x2="84.638" y2="-39.631" gradientTransform="translate(-9062.377 4893.273) scale(118.3794)"><stop offset="0" stop-color="#d51030"/><stop offset=".464" stop-color="#d51030"/><stop offset=".494" stop-color="#d51030"/><stop offset=".53" stop-color="#d61333"/><stop offset=".561" stop-color="#d71e3c"/><stop offset=".591" stop-color="#db304c"/><stop offset=".62" stop-color="#df4a62"/><stop offset=".647" stop-color="#e56a7e"/><stop offset=".675" stop-color="#ec92a1"/><stop offset=".702" stop-color="#f4c2ca"/><stop offset=".728" stop-color="#fef8f9"/><stop offset=".731" stop-color="#fff"/><stop offset=".741" stop-color="#f8d6db"/><stop offset=".753" stop-color="#f1adb8"/><stop offset=".766" stop-color="#ea8797"/><stop offset=".78" stop-color="#e4677b"/><stop offset=".796" stop-color="#df4b63"/><stop offset=".815" stop-color="#dc3550"/><stop offset=".836" stop-color="#d92442"/><stop offset=".862" stop-color="#d71938"/><stop offset=".898" stop-color="#d51232"/><stop offset="1" stop-color="#d51030"/></linearGradient><path clip-path="url(#b)" fill="url(#c)" d="M203.361 186.1h753.623v31.283H203.361z"/><path d="M287.189 90.561l3.788 49.516.094.459 2.254 2.259-.088-.459-3.787-49.521c-.211-2.663-.647-5.607-2.784-7.904a14.272 14.272 0 0 0-.174-.174c-.756-.751-1.502-1.502-2.259-2.26.062.057.118.113.168.174 2.148 2.297 2.577 5.242 2.788 7.91M248.665 158.417h-20.678l2.261 2.254h20.672l21.851-58.598-2.254-2.252z" fill="#5698d2"/><path d="M345.199 103.092l-2.261-2.254-40.499 48.777-1.491-1.225 1.367 1.372c-4.57 5.521-8.731 9.513-16.989 9.513-4.111 0-6.943-.92-8.719-2.694l2.255 2.269c1.782 1.768 4.614 2.688 8.724 2.688 8.321 0 12.481-4.049 17.076-9.624l-.311-.329.348.291 40.5-48.784zM369.695 89.841c.049-2.029-.777-3.837-2.111-5.166l-2.254-2.254c1.329 1.323 2.149 3.128 2.113 5.166 0 1.286-.274 2.645-.795 4.017l-25.397 66.813h-20.653l2.261 2.263h20.658l25.384-66.813c.527-1.381.794-2.734.794-4.026M402.878 100.57c.509-1.308.756-1.923 1.719-2.57 1.007-.607 1.498-.639 2.261-.639h27.602c.218-.005.446-.019.676-.019 2.571 0 5.763.447 6.869 1.564l-2.255-2.26c-1.118-1.118-4.311-1.559-6.88-1.559-.23 0-.453.005-.677.005h-27.596c-.77 0-1.266.032-2.265.647-.951.639-1.199 1.267-1.709 2.578l-7.066 18.67 2.261 2.269 7.06-18.686z" fill="#5698d2"/><path d="M461.806 108.979c1.447-3.864 3.1-8.744 3.1-13.402 0-2.88-.647-5.824-2.671-8.121a9.144 9.144 0 0 0-.732-.808l-2.26-2.259c.261.248.498.521.74.807 2.018 2.297 2.662 5.241 2.662 8.121 0 4.658-1.664 9.538-3.104 13.399-2.322 6.073-6.843 16.222-16.318 21.463-4.545 2.391-10.172 3.837-15.672 3.837h-39.705l-10.028 26.399h-20.641l2.254 2.262H380.072l10.035-26.402h39.703c5.495 0 11.136-1.441 15.687-3.837 9.466-5.239 13.975-15.385 16.309-21.459M501.194 80.068l-29.744 78.349H450.797l2.254 2.263h20.665l29.738-78.352zM528.751 102.458l-21.238 55.959h-20.144l2.274 2.263h20.143l21.224-55.973.338-.15-2.254-2.254zM565.984 138.17l-18.107-49.583a8.372 8.372 0 0 0-2.173-3.626l-2.248-2.262a8.752 8.752 0 0 1 2.174 3.628l18.106 49.594 2.248 2.249z" fill="#5698d2"/><path d="M605.109 80.068l-25.588 67.396c-3.205 8.464-11.154 11.812-18.729 11.812h-.658c-3.85 0-7.798-.789-10.518-3.502l2.271 2.26c2.708 2.72 6.656 3.503 10.507 3.503h.659c7.575 0 15.518-3.354 18.729-11.811l25.582-67.396-2.255-2.262zM622.949 140.747l2.26 2.251c-.893-.874-1.479-2.048-1.789-3.568-.122-.521-.211-1.26-.211-2.273-.036-2.669.671-7.388 3.564-14.964 3.963-10.464 7.786-15.302 9.929-17.232 5.011-4.886 12.064-7.6 21.194-7.6h40.262l5.713-15.039-2.26-2.249-5.714 15.02h-40.263c-9.133 0-16.194 2.727-21.188 7.607-2.147 1.931-5.984 6.782-9.939 17.232-2.889 7.576-3.583 12.295-3.56 14.972 0 1.011.094 1.738.212 2.259.312 1.534.896 2.703 1.79 3.584M691.44 120.324l-2.261-2.247-11.209 29.518c-1.62 4.289-4.438 6.959-6.923 8.356-3.409 1.797-7.458 2.438-10.276 2.466h-37.287c-10.333 0-16.281-3.161-19.561-6.407l2.26 2.256c3.278 3.26 9.229 6.414 19.561 6.414h37.288c2.826-.037 6.874-.671 10.276-2.459 2.482-1.41 5.304-4.074 6.918-8.371l11.214-29.526zM745.935 111.338l10.482-12.418-2.261-2.26-10.481 12.419-13.997 16.622-27.445 32.561-22.69.155 2.254 2.263 22.684-.157 27.47-32.567zM772.301 84.501c-.758-.757-1.503-1.516-2.261-2.259 1.744 1.738 2.608 4.185 2.919 7.089l7.886 69.086H759.54l2.266 2.254h21.298l-7.886-69.078c-.322-2.907-1.179-5.353-2.917-7.092M757.671 139.556h-25.758l2.273 2.252h25.745zM867.299 97.417l-2.255-2.254-50.233-.069 2.272 2.267zM894.901 84.686c-.746-.757-1.503-1.508-2.261-2.265a5.785 5.785 0 0 1 1.713 4.278c0 1.128-.246 2.329-.732 3.65-2.035 5.391-5.924 7.875-9.202 10.055l-64.254 42.955 2.259 2.254 64.257-42.956c3.278-2.174 7.18-4.658 9.202-10.054.484-1.316.732-2.514.732-3.645a5.818 5.818 0 0 0-1.714-4.272M866.399 158.417H802.23c-1.752 0-4.335-.028-6.72-.795-1.111-.31-2.285-.931-3.202-1.851l2.26 2.261c.918.925 2.086 1.54 3.197 1.845 2.392.766 4.976.794 6.726.794h64.168l5.713-15.057-2.259-2.254-5.714 15.057zM64.659 139.673a370.36 370.36 0 0 0 2.267 2.252 5.646 5.646 0 0 1-1.398-2.19c-.241-.677-.478-1.659-.478-3.247-.038-2.583.67-6.719 3.215-13.463 4.142-10.855 8.346-16.163 11.936-19.201 6.806-5.824 14.53-6.463 24.416-6.463h28.725l5.713-15.033-2.266-2.26-5.707 15.026h-28.731c-9.874 0-17.598.647-24.403 6.471-3.595 3.038-7.806 8.346-11.941 19.2-2.546 6.744-3.248 10.887-3.223 13.47 0 1.588.249 2.564.49 3.24.28.832.746 1.559 1.385 2.198M192.438 96.66l-51.962 61.602-22.596.155-9.445-.028-38.268.028c-7.552-.058-17.697-.646-24.093-7.028.757.744 1.515 1.504 2.266 2.26 6.385 6.379 16.537 6.976 24.087 7.031l38.263-.033 9.445.033 22.608-.154 51.949-61.612-2.254-2.254zM210.614 84.501c-.758-.757-1.51-1.516-2.254-2.259 1.733 1.738 2.602 4.185 2.942 7.089l7.893 69.086h-21.348l2.266 2.254h21.341l-7.897-69.078c-.336-2.907-1.2-5.353-2.943-7.092M195.984 139.556h-25.782l2.253 2.252h25.788z" fill="#5698d2"/><path d="M353.892 79.204h.514c3.49 0 6.562.498 8.949 1.789 2.428 1.23 4.147 3.682 4.078 6.589 0 1.292-.273 2.645-.794 4.022l-25.378 66.821h-20.665l22.342-57.593-40.492 48.782-1.498-1.225 1.466 1.262c-4.608 5.576-8.767 9.625-17.082 9.625-4.688 0-7.73-1.192-9.407-3.49-1.664-2.305-1.813-4.917-1.938-7.24l-3.478-48.724-21.845 58.604h-20.678l25.882-68.174C258.246 79.12 271 79.248 273.514 79.205c5.253 0 8.707 1.142 10.879 3.452 2.161 2.292 2.583 5.236 2.794 7.905l3.788 49.516.099.459c.361-.359.794-.857 1.28-1.373l41.504-49.677c6.838-8.587 13.787-10.283 20.034-10.283M459.988 85.197c2.017 2.297 2.656 5.241 2.656 8.121 0 4.658-1.666 9.538-3.104 13.399-2.322 6.073-6.843 16.222-16.318 21.463-4.539 2.396-10.183 3.837-15.667 3.837h-39.709l-10.022 26.399h-20.64l25.007-65.925c1.036-2.848 2.482-6.439 6.928-9.257 4.266-2.733 8.836-3.161 12.028-3.161h42.273c4.67.056 12.177-.155 16.568 5.124m-21.045 20.055c.794-2.062 1.564-4.57 1.564-6.322 0-.955-.217-1.602-.521-1.998-.827-1.329-4.341-1.845-7.116-1.845-.23 0-.453.005-.677.005h-27.596c-.77 0-1.266.032-2.265.647-.958.639-1.199 1.267-1.709 2.57l-7.066 18.678h29.371c3.466 0 6.776-.118 9.938-2.42 2.978-2.049 5.034-6.525 6.077-9.315M501.194 80.068l-29.744 78.349H450.797l29.73-78.349zM532.688 79.204c7.838 0 11.736 3.18 12.941 7.124l18.1 49.589 21.206-55.843h20.182l-25.595 67.39c-3.219 8.464-11.166 11.812-18.729 11.812h-.658c-5.326 0-10.854-1.502-13.026-7.575L529.1 102.305l-.347.155-21.238 55.967H487.37l25.747-67.864c2.731-7.239 10.033-11.357 18.913-11.357.285-.002.484-.002.658-.002M701.612 80.068l-5.714 15.026h-40.263c-9.133 0-16.194 2.727-21.188 7.607-2.147 1.931-5.984 6.774-9.939 17.232-2.889 7.57-3.583 12.295-3.571 14.972 0 1.011.105 1.744.225 2.265.979 4.898 4.969 6.096 11.922 6.189h21.658l.271.093.361.024c.795 0 2.148-.508 3.191-1.315 1.104-.765 1.722-1.868 1.657-2.023l8.315-22.069h20.632l-11.201 29.526c-1.62 4.284-4.438 6.959-6.923 8.364-3.409 1.789-7.451 2.43-10.276 2.458h-37.28c-10.34 0-16.288-3.161-19.566-6.407-3.678-3.652-4.992-8.351-4.992-13.125.023-6.656 2.422-13.71 4.794-19.9 4.633-12.203 11.536-26.795 27.817-34.16 6.961-3.216 14.841-4.757 23.708-4.757h46.362zM759.434 79.209h.41c3.925 0 6.953.521 9.277 2.244 2.372 1.743 3.465 4.5 3.838 7.878l7.886 69.086h-21.3l-1.874-18.861h-25.758l10.866-13.854h14.069l-2.693-29.041-10.48 12.418-13.997 16.623-27.444 32.562-22.689.154 61.249-70.129c5.488-6.422 10.65-9.08 18.64-9.08M884.822 80.068c2.143 0 4.292.249 6.167 1.204 1.898.858 3.439 2.906 3.364 5.423 0 1.134-.246 2.334-.732 3.655-2.035 5.391-5.924 7.875-9.202 10.055l-64.254 42.955h51.948l-5.714 15.058h-64.168c-1.752 0-4.335-.029-6.727-.795-2.328-.645-4.962-2.668-4.898-6.048 0-1.066.247-2.198.708-3.425 2.022-5.249 6.471-8.62 9.935-10.955l63.796-42.037-50.232-.063 5.713-15.026 64.296-.001zM197.765 79.209c4.311 0 7.347.521 9.669 2.244 2.372 1.743 3.476 4.5 3.868 7.878l7.893 69.086h-21.348l-1.863-18.861h-25.782l10.854-13.854h14.102l-2.72-29.041-51.967 61.603-22.59.154-9.445-.029-38.268.029c-8.47-.062-20.176-.795-26.216-9.6-2.174-3.278-2.975-7.021-2.975-10.759.007-6.533 2.334-13.188 4.342-18.435 4.011-10.67 9.605-22.107 20.144-29.832 12.549-9.234 26.959-9.723 33.369-9.723h37.963l-5.712 15.026h-28.724c-9.886 0-17.598.647-24.417 6.471-3.588 3.038-7.787 8.346-11.934 19.2-2.552 6.744-3.254 10.887-3.229 13.461 0 1.592.249 2.573.496 3.249 1.472 4.302 7.763 5.893 17.822 5.893.186 0 .385 0 .578-.008h32.469l16.809.062 48.154-55.133c5.513-6.423 10.643-9.081 18.658-9.081" fill="#014898"/></svg>