<svg xmlns="http://www.w3.org/2000/svg" width="2500" height="2500" viewBox="0 0 192.756 192.756"><g fill-rule="evenodd" clip-rule="evenodd"><path fill="#fff" d="M0 0h192.756v192.756H0V0z"/><path d="M21.563 19.441h149.628c2.92 0 5.307 2.388 5.307 5.306v143.261c0 2.919-2.387 5.306-5.307 5.306H21.563c-2.918 0-5.306-2.387-5.306-5.306V24.748c0-2.919 2.388-5.307 5.306-5.307z" fill="#fff"/><path d="M21.801 22.401h65.402c1.699 0 .701 1.12-1.511 3.557-8.972 9.884-12.521 21.113-12.779 34.505-.576 29.778 30.099 51.844 57.892 51.533 15.512-.174 26.271-4.252 38.346-14.069 2.979-2.422 4.391-3.399 4.365-.722l-.721 70.487c-.02 1.979-1.316 3.597-2.926 3.597H21.801c-1.611 0-2.927-1.618-2.927-3.597V25.998c0-1.978 1.316-3.597 2.927-3.597z" fill="#ce3e2d"/><path d="M126.766 24.571h39.404c2.443 0 4.434 1.339 4.443 2.973l.213 40.977c-8.922 11.99-18.867 22.872-37.223 22.967-17.443.091-32.6-12.434-32.748-32.238-.13-17.363 5.907-28.668 25.911-34.679z" fill="#b7cc4b"/><path d="M70.594 141.311h11.258s6.495 0 6.495 5.131c0 3.541-1.083 4.625-2.958 5.131l7.289 10.261h-6.784L78.1 151.066v-.289h.289c3.752 0 4.835-.578 5.124-2.963 0-2.963-2.959-2.746-4.835-2.746h-2.165c-.289 0-.289.289-.289.578v16.187h-5.629v-20.522h-.001zM153.516 158.076h.289-.289zm-16.454-25.842h5.412v24.468s0 .795.289 1.084c.504.29 1.082.29 1.082.29h9.959c2.67 0 4.041-1.084 4.041-2.747 0-4.552-10.248-.217-10.248-8.31 0-4.336 4.836-5.998 8.588-5.998 3.826 0 5.701.578 5.99.578v4.047s-8.66-2.457-8.66 1.084c0 3.469 9.959 1.084 9.959 8.094 0 5.925-5.629 7.009-8.877 7.009h-17.535v-29.599z" fill="#fff"/><path d="M61.934 155.329h-8.876l-2.67 6.504c-2.454.506-4.619.795-7.866.795-11.042.289-17.176-5.131-17.176-13.729 0-8.383 5.629-14.597 15.588-14.597 2.165 0 4.835 0 8.372.578v4.842c-2.959-.579-4.619-1.085-7.578-1.085-6.207.289-9.382 4.047-9.382 9.973 0 7.299 5.052 9.972 10.176 9.972 1.371 0 2.742-.288 3.536-1.084 1.372-.795 2.454-3.468 2.454-3.468l5.052-12.719h8.66l8.372 20.522h-5.99l-2.672-6.504zm-7.289-4.046h5.701l-2.453-6.215-.289-.217c-.217 0-.217.217-.217.217l-2.742 6.215zM118.227 151.572c0-3.758 2.453-6.721 5.412-6.721s5.34 2.963 5.34 6.721c0 3.757-2.381 7.009-5.34 7.009s-5.412-3.252-5.412-7.009zm-5.631 0c0-5.926 4.836-10.768 11.043-10.768 5.918 0 11.041 4.842 11.041 10.768 0 5.925-5.123 10.767-11.041 10.767-6.207 0-11.043-4.842-11.043-10.767z" fill="#fff"/><path d="M92.678 141.311h11.041s6.424 0 6.713 5.131c0 3.541-1.371 4.625-3.248 5.131l7.578 10.261h-6.785l-7.793-10.767v-.289h.289c3.752 0 4.834-.578 4.834-2.963 0-2.963-2.959-2.746-4.545-2.746h-2.166c-.578 0-.578.289-.578.578v16.187h-5.339v-20.523h-.001z" fill="#fff"/></g></svg>