<svg xmlns="http://www.w3.org/2000/svg" width="2500" height="2500" viewBox="0 0 192.756 192.756"><path fill-rule="evenodd" clip-rule="evenodd" fill="#fff" d="M0 0h192.756v192.756H0V0z"/><path d="M45.743 100.328v.955c0 3.559-.057 6.77-3.894 9.244-3.836 2.43-8.52 2.387-13.429 2.387-11.51 0-19.917-.434-19.917-12.326v-8.42c0-10.763 7.504-12.326 19.917-12.326 11.624 0 17.04.911 17.265 10.677v1.258H34.063v-1.258c-.395-2.908-3.047-3.125-6.884-3.125-6.432 0-7.052 1.519-7.052 6.163v5.078c0 4.861.282 6.729 7.052 6.729 4.683 0 6.94-.262 6.94-4.08v-.955h11.624v-.001zM57.919 107.055l-2.088 5.6H44.096l12.695-32.552h17.153l12.864 32.552h-11.51l-2.201-5.6H57.919zm7.674-20.442h-.113l-5.135 14.106H70.84l-5.247-14.106zM106.043 92.863c12.527.694 15.629 1.909 15.629 9.375 0 5.381.283 10.676-18.336 10.676-10.777 0-17.943-.174-17.943-10.85h10.833c0 3.385 1.581 3.732 7.11 3.732 5.303 0 7.053-.262 7.053-2.996 0-2.82-.621-2.777-5.924-3.037l-2.484-.131c-10.438-.564-16.531-.52-16.531-9.852 0-9.331 6.827-9.938 17.886-9.938 9.254 0 17.152.13 17.152 9.114v1.345h-10.834c0-3.342-1.805-3.342-6.318-3.342-6.094 0-6.602.955-6.602 2.778 0 2.604 1.637 2.691 4.627 2.864l4.682.262zM135.656 112.654h-11.283V80.103h11.283v32.551zM138.195 100.979v-9.201c0-10.025 8.125-11.935 19.578-11.935s19.578 1.91 19.578 11.935v9.201c0 10.025-8.125 11.936-19.578 11.936s-19.578-1.911-19.578-11.936zm27.534-.956v-7.334c0-4.817-2.086-5.295-7.955-5.295-5.867 0-7.785.478-7.955 5.295v7.334c.17 4.861 2.088 5.34 7.955 5.34 5.869 0 7.955-.478 7.955-5.34zM182.76 109.688h-1.268l-.959-1.508h-.012v1.508h-1.018v-3.916h1.521c.773 0 1.361.367 1.361 1.205 0 .539-.301 1.006-.857 1.105l1.232 1.606zm-2.239-2.161h.1c.332 0 .705-.062.705-.488s-.373-.488-.705-.488h-.1v.976z" fill-rule="evenodd" clip-rule="evenodd" fill="#295ba7"/><path d="M180.91 110.723c.781 0 1.49-.316 2.002-.83a2.83 2.83 0 0 0-2.002-4.836 2.83 2.83 0 0 0-2.834 2.834c0 .781.318 1.49.83 2.002.514.513 1.221.83 2.004.83zm2.363-.469a3.332 3.332 0 0 1-2.363.979 3.33 3.33 0 0 1-2.365-.979 3.336 3.336 0 0 1-.979-2.363c0-.924.375-1.76.979-2.363a3.334 3.334 0 0 1 2.365-.98c.922 0 1.758.375 2.363.98.605.604.979 1.439.979 2.363 0 .921-.373 1.757-.979 2.363z" fill="#295ba7"/></svg>