<svg viewBox="0 0 392.4509999999999 64.175" xmlns="http://www.w3.org/2000/svg" width="2500" height="409"><path d="M160.343 26.3l3.568-.082c3.495 0 4.628-1.983 4.628-6.941s-1.016-7.224-4.108-7.224h-4.086v52.122h-13.521l-.002-62.931h20.3c11.327 0 14.822 6.042 14.822 15.767 0 6.894-1.746 12.275-8.167 13.974 5.522.992 8.096 5.206 8.096 12.441v15.271c0 2.786.733 4.958 1.204 5.478H169.41c-.376-.544-.943-2.598-.943-5.383V42.056c0-2.997-1.536-5.239-4.794-5.239h-3.331V26.3M30.304 53.474c2.417-2.014 2.831-4.513 2.831-6.748v-9.408H19.999v12.766c0 1.824-1.481 3.304-3.304 3.304s-3.18-1.481-3.18-3.304V13.917c0-1.826 1.357-3.304 3.18-3.304s3.304 1.478 3.304 3.304V26.76h13.12V13.437C33.119 6.074 28.307.014 16.586 0 4.55 0 0 6.086 0 13.45v37.76c0 7.299 5.794 12.821 13.204 12.821h4.07zM369.697 26.183V12.02h4.106c3.092 0 4.108 2.266 4.108 7.224 0 4.955-1.133 6.939-4.628 6.939h-3.586l.046 10.599h3.304c3.256 0 4.792 2.242 4.792 5.239v16.737c0 2.786.567 4.84.943 5.383h13.669c-.474-.52-1.204-2.691-1.204-5.476V43.391c0-7.235-2.574-11.449-8.096-12.441 6.418-1.698 8.167-7.08 8.167-13.972 0-9.725-3.495-15.767-14.824-15.767h-20.3l.002 62.929h13.547V36.782zM336.454 53.009L335.078 41.5l-3.513-29.363-3.51 29.366 7.023-.003 1.376 11.509-9.778.007-1.33 11.124h-13.691l10.801-63.047h18.175l10.845 63.047h-13.691zM250.025 64.135V1.231h13.857v50.962h14.446v11.942zM228.829 64.135h13.857V1.231h-13.857z"/><path d="M250.025 64.135V1.231h13.857v50.962h14.446v11.942zM281.657 64.135V1.231h13.855v50.962h14.445v11.942zM224.183 20.211c0 11.046-2.1 18.978-14.539 18.978h-7.576L202.02 28l4.132.049c3.492 0 4.083-1.888 4.083-7.837 0-5.759-.591-8.167-4.108-8.167h-4.108V28l.049 11.19v24.974h-13.547l-.002-62.929h21.125c12.439 0 14.539 7.928 14.539 18.976M123.421 13.224v12.463h14.353v12.321h-14.353v13.974l17.038-.006.006 12.139-30.91.011V1.222h-.013 30.357v12.002zM82.089 54.957V13.461h-9.063V1.233h32.809v12.228h-9.112v50.495h-3.884z"/><path d="M87.967 64.045l-31.95-26.767-33.11 26.767z" fill="#fdb827"/><path d="M52.485 30.054l3.539-18.08 3.517 18.08h-7.056l3.539 3.069 20.705 17.348L65.136 1.304H46.832L36.167 49.147l19.857-16.024z"/></svg>