<svg xmlns="http://www.w3.org/2000/svg" width="2500" height="541" viewBox="0 0 72.3 15.66"><path d="M20.82.12c-4.27.029-7.735 3.496-7.74 7.8.005 4.249 3.471 7.716 7.74 7.74 4.283-.024 7.75-3.491 7.74-7.74.01-4.304-3.456-7.771-7.74-7.8zm0 12c-2.336.015-4.235-1.885-4.26-4.2.024-2.37 1.924-4.271 4.26-4.26 2.351-.011 4.25 1.89 4.26 4.26a4.231 4.231 0 0 1-4.26 4.2z"/><path d="M0 7.86c.015 2.77 1.402 7.713 6.601 7.739 4.439.056 6.539-2.907 6.72-5.819H9.66c-.345 2.237-1.958 2.312-2.82 2.34-.862-.027-3.188-.103-3.18-4.26-.008-4.168 2.318-4.392 3.18-4.38.862-.012 2.475.212 2.82 2.46h3.66C13.14 3.018 11.94-.02 6.72 0 1.515-.02.015 5.08 0 7.86zM29.22.78v14.64h3.48V7.08l4.08 8.34h3.96V.78h-3.42v8.4l-4.2-8.4zM53.82.78h3.6v5.64h-3.6zM53.82 6.78h3.6v1.74h-3.6zM53.82 9h3.6v1.26h-3.6zM53.82 10.98h3.6v1.08h-3.6zM53.82 12.96h3.6v.84h-3.6zM53.82 15h3.6v.42h-3.6zM69.48 10.26h-11.1V9H68.4c.691-.02 1.14.917 1.08 1.26zM58.38 10.98h3.601v1.08H58.38zM58.38 12.96h3.601v.84H58.38zM58.38 15h3.601v.42H58.38zM43.38 6.42h3.42l.36-1.32.42 1.32H51L49.14.78h-3.96zM43.26 6.78l-.6 1.74h3.48l.54-1.74zM42.54 9l-.42 1.26h10.14L51.84 9zM41.88 10.98l-.359 1.08H52.86l-.36-1.08zM41.22 12.96l-.3.84h3.66l.24-.84z"/><path d="M40.561 15h3.719l-.12.42h-3.72zM51.12 6.78l.54 1.74h-3.48l-.48-1.74zM53.16 12.96l.24.84h-3.66l-.24-.84zM53.82 15h-3.719l.119.42h3.72zM70.021 4.2C69.878 2.38 68.003.843 65.88.78h-7.5v7.74h9c1.748-.853 2.723-2.465 2.641-4.32zM65.04 6.78h-3.06V4.02h3.12c1.666.01 1.928 2.785-.06 2.76zM66 10.98h3.601v1.08H66zM66 12.96h3.601v.84H66zM69.96 15c.03.167.143.28.36.42h-3.6c-.217-.14-.33-.252-.36-.42h3.6zM71.04 1.56h.3c.171-.024.33.03.3.24.029.181-.167.2-.36.18h-.24v.12h.3l.36.54h.12l-.36-.54c.175-.036.312-.13.3-.3.012-.239-.106-.353-.359-.359h-.48V2.64h.12V1.56z"/><path d="M71.28 1.02c.58.015 1.03.464 1.02 1.02.011.561-.439 1.01-1.02 1.02a.98.98 0 0 1-.96-1.02.986.986 0 0 1 .96-1.02v.12c-.495-.016-.882.383-.9.9.018.512.411.921.9.9a.841.841 0 0 0 .9-.9c.028-.515-.357-.916-.9-.9v-.12z"/></svg>