<svg xmlns="http://www.w3.org/2000/svg" width="2500" height="692" viewBox="0 0 484.991 134.201"><path fill="#cf4044" d="M251.991 41.895l18.071-.678-15.159 49.957h32.416l15.16-49.957 17.66.678 7.197-23.721H259.19l-7.199 23.721zM184.868 54.868c-4.532 23.43-29.372 37.468-56.583 37.468s-46.62-14.038-42.086-37.468c4.438-22.946 29.565-37.855 56.658-37.855s46.451 14.909 42.011 37.855zm-66.092.387c-1.611 8.327 4.146 14.039 13.966 14.039s17.787-5.712 19.397-14.039c1.499-7.745-3.635-14.232-13.928-14.232-10.293 0-17.936 6.487-19.435 14.232z"/><path d="M174.793 85.655c9.251 4.163 21.778 6.681 33.018 6.681 19.285 0 40.354-8.616 43.726-26.043 2.397-12.393-6.379-18.396-19.616-20.913l-7.073-1.355c-2.391-.484-6.338-.872-5.814-3.583.581-3.001 4.89-3.873 7.729-3.873 6.98 0 12.782 2.42 17.743 5.519l12.37-18.686c-7.912-4.356-16.865-6.39-27.04-6.39-19.403 0-40.56 9.682-43.913 27.012-2.21 11.424 7.258 17.523 19.562 19.363l6.319.968c2.864.484 7.067.775 6.431 4.066-.637 3.293-5.931 4.357-9.125 4.357-7.453 0-13.853-3.002-18.938-6.681l-1.45-1.065-13.929 20.623zM390.443 20.014c-6.487-1.937-13.854-3.001-21.188-3.001-26.146 0-49.91 17.039-54.031 38.339-4.027 20.816 12.721 36.984 38.157 36.984 5.798 0 18.034-.871 23.633-2.904l6.229-27.303c-6.011 4.164-12.433 6.777-19.886 6.777-9.701 0-16.903-6.196-15.349-14.232 1.536-7.938 10.681-14.231 20.382-14.231 7.336 0 13.188 3.388 17.624 7.357l4.429-27.786zM442.345 17.013c-27.092 0-52.22 14.91-56.658 37.855-4.533 23.43 14.875 37.468 42.087 37.468s52.051-14.038 56.583-37.468c4.439-22.946-14.919-37.855-42.012-37.855zm-4.645 24.01c10.293 0 15.427 6.487 13.928 14.232-1.61 8.327-9.577 14.039-19.397 14.039-9.819 0-15.576-5.712-13.966-14.039 1.499-7.745 9.142-14.232 19.435-14.232zM94.559 3.628C86.467 1.288 77.28 0 68.132 0 35.521 0 5.883 20.598.744 46.345c-5.021 25.161 15.867 44.706 47.592 44.706 7.231 0 22.491-1.054 29.474-3.512l7.768-33.002c-7.496 5.031-15.505 8.191-24.801 8.191-12.1 0-21.082-7.49-19.143-17.203 1.916-9.596 13.32-17.204 25.42-17.204 9.148 0 16.447 4.097 21.981 8.894l5.524-33.587z" fill="#cf4044"/><path d="M165.091 100.867l1.24 19.582h.313c.642-2.001 1.353-4.09 2.351-6.049l6.75-13.533h10.969l1.658 19.582h.313c.572-1.914 1.214-3.916 2.092-5.787l6.591-13.795h14.886l-20.13 32.812h-12.483l-1.101-17.843h-.47c-.479 1.697-.898 3.351-1.674 4.961l-6.417 12.882h-12.17l-7.553-32.812h14.835z" fill="#2360a5"/><path fill="#2360a5" d="M211.208 100.867h13.789l-2.101 11.053h8.775l2.101-11.053h13.789l-6.237 32.813h-13.788l2.167-11.403h-8.774l-2.168 11.403h-13.789l6.236-32.813z"/><path d="M287.939 117.36c-2.002 10.531-12.968 16.841-24.981 16.841-12.013 0-20.581-6.31-18.579-16.841 1.96-10.314 13.054-17.016 25.014-17.016 11.961.001 20.506 6.702 18.546 17.016zm-29.177.174c-.712 3.742 1.83 6.31 6.165 6.31s7.853-2.567 8.563-6.31c.662-3.481-1.604-6.397-6.148-6.397s-7.919 2.916-8.58 6.397zM291.074 100.867h14.312l-4.236 22.28h12.014l-2.001 10.533h-26.324l6.235-32.813zM347.019 121.93l.641.478c2.244 1.654 5.07 3.003 8.36 3.003 1.41 0 3.747-.479 4.028-1.958s-1.574-1.609-2.839-1.827l-2.79-.436c-5.432-.826-9.611-3.568-8.636-8.703 1.48-7.79 10.821-12.142 19.387-12.142 4.493 0 8.444.913 11.938 2.871l-5.461 8.399c-2.19-1.393-4.752-2.48-7.833-2.48-1.254 0-3.156.392-3.413 1.74-.231 1.22 1.512 1.393 2.567 1.611l3.123.608c5.843 1.132 9.718 3.83 8.659 9.4-1.489 7.833-10.791 11.706-19.305 11.706-4.962 0-10.492-1.131-14.575-3.002l6.149-9.268z" fill="#2360a5"/><path d="M396.187 121.799l-.571-5.788c-.153-1.393-.142-2.828-.138-4.221h-.522l-4.514 10.009h5.745zm-12.461 11.881h-15.147l19.921-32.812h15.825l7.815 32.812h-15.147l-.528-4.092h-10.812l-1.927 4.092z" fill="#2360a5"/><path fill="#2360a5" d="M417.177 100.867h14.31l-4.234 22.28h12.014l-2.002 10.533H410.94l6.237-32.813zM446.159 100.867h26.482l-1.704 8.964h-12.065l-.596 3.134h11.021l-1.621 8.529h-11.021l-.612 3.221h12.483l-1.704 8.965h-26.898l6.235-32.813z"/><path fill="#2360a5" stroke="#2360a5" stroke-width=".216" stroke-miterlimit="2.613" d="M3.009 133.731h151.729l-.01-.051h-.125l-1.921-8.344H3.009v8.395zM3.009 121.808H151.87l-1.933-8.396H3.009v8.396zM3.009 109.828h146.055l-.656-3.059-1.344-5.836H3.009v8.895z"/><path fill="#2360a5" d="M320.058 100.867h26.48l-1.703 8.964h-12.066l-.595 3.134h11.02l-1.621 8.529h-11.02l-.613 3.221h12.484l-1.704 8.965h-26.899l6.237-32.813z"/><path fill="#cf4044" d="M471.817 90.351h-1.5l1.254-5.907h-2.169l.27-1.269h5.837l-.27 1.269h-2.168l-1.254 5.907zM481.764 90.351h-1.4l1.273-5.997h-.021l-2.611 5.997h-1.469l-.037-5.997h-.02l-1.273 5.997h-1.399l1.523-7.176h2.189l.098 5.657h.021l2.479-5.657h2.169l-1.522 7.176z"/></svg>