<svg xmlns="http://www.w3.org/2000/svg" width="2500" height="1402" viewBox="0 0 222.125 124.527"><path fill="#ea2d31" d="M0 0h222.125v124.528H0z"/><path d="M13.582 21.42v70.66H28.55c19.796 1.84 19.788-23.264 19.788-23.264V46.974c-.23-26.011-18.88-25.554-18.88-25.554H13.583zm13.903 10.942c7.73-.554 7.505 10.664 7.504 10.664v26.937c.23 13.352-8.294 11.296-8.294 11.296V32.442c.265-.044.54-.063.79-.08zM54.783 21.407h12.89v70.666h-12.89zM104.272 91.875V81.484H87.469V61.688h11.74V50.41h-11.51V32.686h16.114v-11.28H74.347v70.61zM128.209 41.662h11.279s1.38-21.866-16.344-21.866-16.801 17.032-16.801 17.032-2.302 13.81 12.43 24.858c0 0 15.422 8.979 9.668 18.645 0 0-9.208 8.287-9.44-8.286h-11.738s-2.071 22.788 17.264 21.868c0 0 15.88-.231 17.033-16.804 0 0 1.842-12.2-10.588-23.48 0 0-17.724-11.508-11.28-20.715.001 0 7.367-7.594 8.516 8.748zM145.642 21.407h29.488v11.508h-16.075V50.64h11.969v11.739h-12.2v19.105h16.804v11.049h-29.695zM181.79 21.407h12.939v60.077h13.584v11.049H181.79zM203.372 22.562c.289-.06.712-.1 1.098-.1.613 0 1.015.12 1.29.37.218.19.349.493.349.842 0 .578-.375.968-.835 1.125v.02c.337.119.54.435.65.896.146.617.25 1.045.338 1.216h-.593c-.073-.126-.17-.507-.29-1.06-.131-.611-.374-.842-.894-.862h-.54v1.922h-.571v-4.368h-.002zm.571 2.013h.586c.611 0 1-.334 1-.841 0-.573-.414-.822-1.02-.822-.277 0-.469.026-.566.054v1.609z" fill="#fff"/><path d="M208.515 24.86a3.893 3.893 0 0 1-3.893 3.893h-.002a3.89 3.89 0 0 1-3.894-3.891v-.002a3.891 3.891 0 0 1 3.892-3.893v-.002h.004v.002c1.074 0 2.047.436 2.752 1.14a3.873 3.873 0 0 1 1.14 2.75h.002v.003zm-.882 0v-.002c0-.83-.339-1.581-.884-2.125v-.002a2.992 2.992 0 0 0-2.127-.882h-.004c-.829 0-1.582.339-2.127.884a2.993 2.993 0 0 0-.884 2.128h.003v.003h-.003c.001.829.34 1.579.884 2.125a2.995 2.995 0 0 0 2.13.884v-.001h.001c.83 0 1.582-.336 2.13-.881h-.003a3.01 3.01 0 0 0 .883-2.13z" fill="#fff"/></svg>