<?xml version="1.0" encoding="iso-8859-1"?>
<!-- Generator: Adobe Illustrator 19.0.0, SVG Export Plug-In . SVG Version: 6.00 Build 0)  -->
<svg version="1.1" id="Capa_1" xmlns="http://www.w3.org/2000/svg" xmlns:xlink="http://www.w3.org/1999/xlink" x="0px" y="0px"
	 viewBox="0 0 512 512" style="enable-background:new 0 0 512 512;" xml:space="preserve">
<path style="fill:#6EE1FF;" d="M437.011,74.991C388.66,26.629,324.368,0.002,255.992,0.002c-68.386,0-132.668,26.627-181.03,74.989
	C33.866,116.087,7.778,170.47,1.497,228.14c-5.939,54.518,5.908,110,33.405,157.035L8.224,484.738
	c-1.441,5.369,0.093,11.09,4.021,15.018c3.928,3.928,9.65,5.462,15.018,4.022l99.563-26.679
	c39.096,22.854,84.047,34.898,129.424,34.898c9.193,0,18.418-0.498,27.612-1.493c57.669-6.281,112.053-32.369,153.149-73.465
	C485.373,388.678,512,324.396,512,256.01C512,187.634,485.373,123.342,437.011,74.991z"/>
<path style="fill:#05CDFF;" d="M270.475,0.418v511.178c4.465-0.249,8.93-0.608,13.387-1.091
	c57.669-6.281,112.053-32.369,153.149-73.465c48.362-48.362,74.988-112.643,74.988-181.03c0-68.376-26.627-132.668-74.988-181.019
	C392.09,30.06,333.407,3.906,270.475,0.418z"/>
<path style="fill:#FFFFFF;" d="M260.298,111.06H156.486c-8.582,0-15.547,6.965-15.547,15.547v258.796
	c0,8.592,6.965,15.547,15.547,15.547h103.813c79.932,0,144.95-65.018,144.95-144.94C405.249,176.078,340.231,111.06,260.298,111.06z
	 M238.398,208.509h21.901c26.192,0,47.501,21.31,47.501,47.501c0,26.181-21.31,47.491-47.501,47.491h-21.901V208.509z"/>
<path style="fill:#DCE1EB;" d="M270.475,111.423v98.196c21.316,4.673,37.324,23.694,37.324,46.392
	c0,22.689-16.008,41.709-37.324,46.382v98.196c75.201-5.24,134.773-68.076,134.773-144.577
	C405.249,179.5,345.676,116.663,270.475,111.423z"/>
<g>
</g>
<g>
</g>
<g>
</g>
<g>
</g>
<g>
</g>
<g>
</g>
<g>
</g>
<g>
</g>
<g>
</g>
<g>
</g>
<g>
</g>
<g>
</g>
<g>
</g>
<g>
</g>
<g>
</g>
</svg>
