<svg width="2500" height="474" viewBox="0 0 512 97" xmlns="http://www.w3.org/2000/svg" preserveAspectRatio="xMidYMid"><path d="M65.898 9.765c-2.574-1.428-9.952-.545-18.813 2.198-15.508 10.6-28.596 26.217-29.51 51.296-.166.6-1.695-.082-1.998-.267-4.188-8.027-5.847-16.479-2.35-28.672.652-1.085-1.48-2.42-1.862-2.04-.768.77-3.967 4.178-6.092 7.864C-5.261 58.417 1.627 81.83 20.057 92.077c18.425 10.262 41.692 3.642 51.951-14.789 11.869-21.272.848-63.637-6.11-67.522z" fill="#82B541"/><path d="M131.85 19.974c-21.846 0-37.704 16.242-37.704 38.62 0 22.56 15.816 38.318 38.466 38.318 11.44 0 20.497-3.577 27.7-10.941 2.152-2.323 2.383-4.562 2.383-5.418 0-3.648-2.713-6.298-6.45-6.298-1.885 0-3.46.712-5.268 2.383-4.079 3.8-9.45 7.683-18.365 7.683-12.398 0-22.48-9.308-23.115-21.26h49.342c5.365 0 7.972-2.51 7.972-7.667 0-1.52 0-2.615-.306-4.777-2.658-19.186-15.611-30.64-34.653-30.64l-.002-.003zm0 11.98c11.847 0 19.448 7.55 19.917 19.735h-42.255c1.11-11.277 10.644-19.735 22.338-19.735zM213.927 19.974c-9.924 0-19.75 5.707-23.59 13.633v-4.899c0-7.587-5.88-7.972-7.058-7.972-3.484 0-7.209 2.094-7.209 7.972v59.16c0 7.88 6.26 8.278 7.514 8.278 1.255 0 7.517-.398 7.517-8.278V56.154c0-13.798 7.82-23.436 19.015-23.436 10.843 0 16.116 7.116 16.116 21.757v33.393c0 7.88 6.262 8.278 7.517 8.278 1.254 0 7.514-.398 7.514-8.278V49.755c0-14.396-7.182-29.776-27.336-29.776v-.005zM309.272 20.737c-3.473 0-5.992 2.026-7.492 6.012l-20.564 51.712-20.408-51.712c-1.598-4.045-4.098-6.012-7.645-6.012-4.144 0-7.517 3.234-7.517 7.21 0 .983.112 2.26.944 4.252l23.633 55.802c2.816 6.732 7.448 8.145 10.84 8.145 3.389 0 8.024-1.413 10.846-8.141l23.786-56.113c.813-1.968.939-3.413.939-4.097 0-4.022-3.168-7.057-7.362-7.057zM352.963 19.974c-9.613 0-18.567 2.678-25.208 7.534-2.253 1.554-3.348 3.492-3.348 5.93 0 3.356 2.562 5.987 5.84 5.987 1.417 0 3.004-.564 4.46-1.584 5.71-3.806 11.075-5.581 16.882-5.581 11.113 0 17.493 5.652 17.493 15.508V49.4c-24.947.027-50.32 3.04-50.32 24.743 0 15.62 13.348 22.613 26.576 22.613 10.536 0 18.95-4.175 24.348-12.079v3.801c0 5.66 3.8 7.667 7.062 7.667.686 0 6.75-.215 6.75-7.667V48.68c0-17.978-11.418-28.71-30.536-28.71l.001.004zm12.957 40.493h3.162v3.463c0 12.664-8.064 20.846-20.54 20.846-3.387 0-14.44-.788-14.44-10.938 0-11.985 18.158-13.37 31.818-13.37zM422.648 34.395c6.576 0 6.909-5.118 6.909-6.143 0-3.043-1.816-6.296-6.91-6.296h-13.522V8.278c0-6.11-3.964-8.278-7.362-8.278-1.254 0-7.514.398-7.514 8.278v64.954c0 14.99 7.394 22.913 21.387 22.913 3.62 0 7.148-.64 9.454-1.715 2.646-1.32 4.161-3.49 4.161-5.952 0-3.473-2.519-5.992-5.992-5.992-.671 0-1.625.166-2.678.469-1.287.322-2.159.447-3.113.447-5.693 0-8.343-3.716-8.343-11.696V34.388h13.523v.007zM472.345 19.974c-22.734 0-39.227 16.114-39.227 38.312 0 10.808 3.997 20.659 11.25 27.736 7.197 7.021 17.132 10.887 27.978 10.887 22.45 0 39.38-16.604 39.38-38.622 0-22.199-16.566-38.312-39.38-38.312h-.001zm0 64.19c-15.59 0-23.742-13.018-23.742-25.88 0-17.672 12.307-25.72 23.742-25.72s23.742 8.048 23.742 25.72c0 17.783-12.307 25.88-23.742 25.88z"/></svg>