<svg enable-background="new 0 0 2316 1055" viewBox="0 0 2316 1055" xmlns="http://www.w3.org/2000/svg"><path d="m333.7 407.5v-158.2h110.2v22.7h-81v43.7h76.1v22.7h-76.1v46.4h81v22.6zm248.2-2.9c-11-3.3-20.4-7.9-28.1-14l10.2-20.9c8 5.8 16.4 10 25.1 12.8 8.7 2.7 18.2 4.1 28.6 4.1 11.4 0 20.3-1.9 26.5-5.8 6.3-3.9 9.4-9.2 9.4-16.2 0-5.9-2.9-10.5-8.7-13.7s-15.3-6.2-28.6-9c-20.7-4.3-35.7-9.8-45.1-16.6s-14.2-16.7-14.2-29.8c0-9.3 2.6-17.6 7.9-24.9 5.2-7.3 12.7-13 22.3-17.1s20.8-6.2 33.5-6.2c11.6 0 22.6 1.7 33 5s18.9 8 25.6 13.9l-10 20.9c-14.6-11.2-30.8-16.9-48.6-16.9-10.7 0-19.1 2.1-25.2 6.3-6.2 4.2-9.3 10-9.3 17.2 0 6.2 2.7 11 8.2 14.2 5.5 3.3 14.8 6.3 28.1 9.1 13.7 3.1 24.9 6.5 33.6 10.1 8.6 3.6 15.3 8.3 19.9 14s6.9 12.8 6.9 21.4c0 9.5-2.6 17.7-7.9 24.8-5.3 7-12.8 12.5-22.7 16.3-9.9 3.9-21.5 5.8-34.9 5.8-12.6.1-24.5-1.6-35.5-4.8zm221.4-155.3h71.5c17.7 0 31.5 4.1 41.4 12.3s14.8 19.4 14.8 33.6-5 25.5-14.9 33.7c-10 8.3-23.7 12.4-41.3 12.4h-41.7v65.9h-29.9v-157.9zm68 70c10.3 0 18.2-2 23.5-6.1s8-10 8-17.7c0-7.8-2.6-13.8-7.9-17.9-5.2-4.1-13.1-6.1-23.6-6.1h-38.2v47.7zm287.1 88.2-16.4-37.1h-80.5l-16.7 37.1h-30.1l74.5-158.1h24.3l74.8 158.1zm-87.1-59.3h60.7l-30.3-67.7zm289.1 51.3c-11.9-6.4-21.6-16.3-27.9-28.3-6.5-12.2-9.7-26.5-9.7-43 0-16.3 3.2-30.5 9.7-42.8 6.3-12 16-21.8 27.9-28.2 12.1-6.6 26.3-9.9 42.5-9.9 11.1 0 21.6 1.7 31.4 5s17.9 8 24.4 13.9l-9.7 20.9c-7.4-5.8-14.8-9.9-22.1-12.5-7.6-2.6-15.5-3.9-23.5-3.9-15.9 0-28.2 5-36.9 14.9s-13.1 24.1-13.1 42.6c0 18.7 4.3 33 13 43s21 15 37 15c8.3 0 16.2-1.3 23.5-3.9s14.7-6.8 22.1-12.5l9.7 20.9c-6.5 5.9-14.6 10.5-24.4 13.9-9.8 3.3-20.2 5-31.4 5-16.3-.1-30.4-3.5-42.5-10.1zm253.4 8v-158.2h29.9v158.1zm224.2-7.9c-11.8-6.6-20.9-16-27.3-28.2s-9.6-26.6-9.6-43.2c0-16.4 3.2-30.8 9.5-43s15.4-21.6 27.2-28.1 25.7-9.8 41.8-9.8 30 3.3 41.8 9.8 20.8 15.9 27.1 28.1 9.4 26.5 9.4 43c0 16.6-3.2 31-9.5 43.2s-15.4 21.6-27.1 28.2-25.6 9.9-41.7 9.9c-16 0-29.8-3.3-41.6-9.9zm77.2-28.1c8.5-10.1 12.7-24.5 12.7-43.3 0-18.7-4.3-33-12.7-43-8.5-10-20.4-15-35.7-15s-27.2 5-35.6 14.9c-8.5 9.9-12.7 24.3-12.7 43.1s4.2 33.2 12.7 43.3 20.4 15.1 35.6 15.1c15.3 0 27.2-5 35.7-15.1zm-1556.9 348.5c-19.3-19.3-28.9-47.6-28.9-84.8v-162.4h48.7v165.1c0 23.5 5.5 41.3 16.5 53.4s27.3 18.2 49 18.2c21.2 0 37.3-6.1 48.4-18.4s16.7-30 16.7-53.3v-165h48.6v162.4c0 37-9.7 65.3-29.1 84.7s-47.6 29.1-84.6 29.1c-37.6 0-66-9.7-85.3-29zm480.6 25.5h-52.1l-34.9-90.8c-3.1-8.4-7.8-14.3-14.2-17.6s-14.7-5-24.9-5h-49.4v113.4h-49v-272.7h116.8c30.9 0 54.4 6.8 70.5 20.3s24.1 32.9 24.1 58.2c0 18.1-4.8 33.5-14.4 46.2-9.6 12.6-23.2 21.6-40.8 27 16.1 3.3 27.7 14.6 34.8 33.7zm-114.5-151.7c18.6 0 32.4-3.4 41.4-10.3 8.9-6.9 13.4-17.4 13.4-31.4 0-13.8-4.4-24.1-13.2-30.8-8.8-6.8-22.7-10.2-41.6-10.2h-61.7v82.7zm363.3 34.9c8.6 11.5 12.8 25.7 12.8 42.5 0 23.2-8.2 41.4-24.7 54.6s-39.4 19.7-68.8 19.7h-123.7v-272.7h119.9c28.1 0 50.2 6.3 66.3 19 16.1 12.6 24.1 30.1 24.1 52.3 0 14.3-3.8 26.8-11.3 37.3-7.5 10.6-18 18.3-31.2 23.2 15.8 4.6 28 12.6 36.6 24.1zm-156.1-41h63.6c34.2 0 51.3-12.8 51.3-38.3 0-12.8-4.2-22.3-12.6-28.7s-21.3-9.6-38.7-9.6h-63.6zm109.3 109.9c8.3-6.4 12.4-16.5 12.4-30.3 0-14-4.1-24.4-12.4-31s-21.4-10-39.3-10h-70.1v80.8h70.1c17.9.1 31-3.1 39.3-9.5zm313.9 47.9-27.2-64h-133.3l-27.6 64h-49.7l123.3-272.7h40.2l123.7 272.7zm-144-102.3h100.4l-50.2-116.8zm406.5-170.4h46.3v272.7h-36.8l-147.1-191.1v191.1h-46v-272.7h36.8l146.7 190.8zm158 259.1c-19.5-11.4-34.6-27.6-45.2-48.7s-15.9-45.9-15.9-74.5c0-28.3 5.2-53 15.7-74.1s25.5-37.2 45-48.4 42.6-16.9 69.1-16.9c26.6 0 49.6 5.6 69.2 16.9 19.5 11.2 34.5 27.4 44.8 48.4 10.4 21.1 15.5 45.8 15.5 74.1 0 28.6-5.2 53.4-15.7 74.5s-25.4 37.3-44.8 48.7-42.4 17-69 17c-26.3.1-49.2-5.6-68.7-17zm127.7-48.4c14-17.4 21.1-42.3 21.1-74.7 0-32.2-7-56.9-21.1-74.1s-33.7-25.8-59-25.8-44.9 8.6-59 25.7c-14 17.1-21.1 41.9-21.1 74.3s7 57.3 21.1 74.7 33.7 26.1 59 26.1c25.3-.2 45-8.9 59-26.2z" fill="#1f1719"/><path d="m139.2 1055c-47.8-88.8-82.7-173.7-104-252.7-23.4-86.9-35.2-179.8-35.2-276.1s12.1-189.8 35.9-278c21.5-79.8 56.1-163.1 102.9-248.2h21.9c-33.3 88.6-57.6 169.9-72.4 242.3-18.8 92.4-28.4 188-28.4 283.9 0 95.1 9.5 190.4 28.4 283.2 14.8 73 38.7 155.3 71.2 245.5zm2037.6-1055c47.8 88.8 82.8 173.7 104 252.7 23.4 86.9 35.2 179.8 35.2 276.1s-12.1 189.8-35.9 278c-21.5 79.8-56.1 163.2-103 248.2h-21.9c33.3-88.6 57.6-169.8 72.4-242.3 18.8-92.4 28.4-188 28.4-283.9 0-95.1-9.5-190.4-28.4-283.2-14.8-73-38.7-155.3-71.1-245.6z" fill="#ff6e18"/></svg>