<svg xmlns="http://www.w3.org/2000/svg" width="2500" height="2500" viewBox="0 0 192.744 192.744"><path fill-rule="evenodd" clip-rule="evenodd" fill="#fff" d="M0 0h192.744v192.744H0V0z"/><path d="M17.578 102.734l20.554-18.063s-8.453-13.258-20.554-4.004c0 0-8.097 8.275-3.915 18.241 0 0 3.737 9.164 11.656 10.677 8.097 1.513 14.237-5.961 15.838-10.144" fill="none" stroke="#ca3132" stroke-width="8.998" stroke-linecap="round" stroke-linejoin="round" stroke-miterlimit="2.613"/><path fill="none" stroke="#383b92" stroke-width="11.996" stroke-linecap="round" stroke-linejoin="round" stroke-miterlimit="2.613" d="M55.927 63.762v46.446"/><path fill="none" stroke="#383b92" stroke-width="10.715" stroke-linecap="round" stroke-linejoin="round" stroke-miterlimit="2.613" d="M38.31 63.05h34.701"/><path d="M100.682 94.459c0 8.986-6.85 16.461-15.481 16.461-8.453 0-15.304-7.475-15.304-16.461 0-8.987 6.851-16.461 15.304-16.461 8.631 0 15.481 7.474 15.481 16.461z" fill="none" stroke="#383b92" stroke-width="10.068" stroke-linecap="round" stroke-linejoin="round" stroke-miterlimit="2.613"/><path d="M110.025 78.354l11.656 32.744m13.346-33.723l-15.303 41.286s-1.602 7.651-11.479 5.517" fill="none" stroke="#383b92" stroke-width="12.102" stroke-linecap="round" stroke-linejoin="round" stroke-miterlimit="2.613"/><path d="M154.426 93.48c-4.449 0-8.275-3.471-8.275-8.008 0-4.449 3.826-8.097 8.275-8.097a8.07 8.07 0 0 1 8.096 8.097m-8.274 8.186c4.893 0 8.809 3.826 8.809 8.631 0 4.627-3.916 8.453-8.809 8.453-4.807 0-8.811-3.826-8.811-8.453" fill="none" stroke="#383b92" stroke-width="8.745" stroke-linecap="round" stroke-linejoin="round" stroke-miterlimit="2.613"/><path fill-rule="evenodd" clip-rule="evenodd" fill="#ca3132" d="M127.109 129.516h2.491v-2.313h-2.491v2.313zM137.164 124c0-.179-.18-.623-.357-.801-.178-.356-.711-.534-1.244-.534-.713 0-1.246.355-1.602 1.156-.18.356-.18.89-.18 1.513 0 .801 0 1.157.18 1.513.355.801.889 1.157 1.602 1.157.533 0 .889-.179 1.244-.356.178-.444.357-.801.357-1.156h2.312c0 .533-.355 1.334-.711 1.868-.713.979-1.781 1.335-3.203 1.335-1.424 0-2.492-.356-3.203-1.067-.801-.802-.98-1.958-.98-3.115 0-1.512.357-2.669 1.158-3.47.711-.712 1.779-1.157 3.025-1.157 1.066 0 1.957.268 2.668.623.713.534 1.246 1.335 1.246 2.492h-2.312V124zM145.082 128.004c-.711 0-1.246-.179-1.602-.801-.355-.356-.533-1.068-.533-1.869 0-.979.178-1.513.533-1.957.355-.534.891-.712 1.602-.712.713 0 1.246.178 1.602.712.355.444.535.979.535 1.957 0 .801-.18 1.513-.535 1.869-.356.622-.889.801-1.602.801zm4.539-2.67c0-1.334-.445-2.313-1.158-3.292-.711-.712-1.779-1.335-3.381-1.335-1.424 0-2.668.623-3.381 1.335-.711.979-1.156 1.958-1.156 3.292 0 1.157.445 2.313 1.156 3.025.713.979 1.957 1.335 3.381 1.335 1.602 0 2.67-.356 3.381-1.335.713-.712 1.158-1.868 1.158-3.025zM162.344 121.152c.355.178.713.355.891.712.355.178.533.623.533 1.156.178.179.178.623.178 1.157v5.338h-2.49v-5.338-.801c-.357-.356-.713-.534-1.246-.534-.535 0-1.068.178-1.246.801-.178.178-.178.534-.178.89v4.982h-2.402v-4.982c0-.533 0-.89-.178-1.156-.178-.356-.535-.534-1.068-.534-.711 0-1.246.178-1.424.534 0 .267-.178.623-.178.979v5.16h-2.312v-8.363h2.312v1.067c.178-.355.533-.712.713-.89.533-.178 1.066-.445 1.779-.445.711 0 1.244.268 1.602.445.443.178.623.534.801.89.355-.355.711-.712 1.066-.89.535-.445 1.068-.445 1.602-.445.356 0 .889 0 1.245.267z"/><path d="M174.178 71.235c1.514 0 2.58.624 3.648 1.513.891 1.157 1.424 2.58 1.424 3.915 0 1.512-.533 2.669-1.424 3.826-1.068 1.157-2.135 1.513-3.648 1.513-1.424 0-2.49-.355-3.559-1.513-.891-.979-1.424-2.313-1.424-3.826 0-1.335.533-2.758 1.424-3.915 1.069-.889 2.135-1.513 3.559-1.513zm6.14 5.429c0-1.78-.535-3.292-1.781-4.627-1.244-1.156-2.668-1.957-4.359-1.957-1.602 0-3.025.623-4.092 1.78-1.246 1.334-1.959 2.847-1.959 4.805 0 1.869.535 3.381 1.779 4.538 1.246 1.335 2.67 1.958 4.271 1.958 1.691 0 3.115-.623 4.359-1.958 1.069-1.159 1.782-2.671 1.782-4.539zm-5.072-1.335c0 .356-.178.712-.355.89-.178 0-.535.178-.891.178h-.711V74.35h.355c.533 0 .889 0 1.068.178.356.178.534.356.534.801zm-1.957 4.983V77.82h1.424c.178.178.355.355.355.534.178.178.178.356.178.979 0 .355 0 .711.268.979h1.602v-.267l-.18-.178V78.888c0-.712-.178-1.067-.533-1.513a1.357 1.357 0 0 0-.889-.356c.355 0 .711-.178 1.066-.623.355-.178.535-.534.535-1.334 0-.712-.357-1.335-.891-1.691-.355-.178-.979-.178-1.512-.178 0 0-.535-.178-1.246-.178h-1.959v7.296h1.782v.001z" fill-rule="evenodd" clip-rule="evenodd" fill="#383b92"/></svg>