<svg xmlns="http://www.w3.org/2000/svg" width="2500" height="2500" viewBox="0 0 192.756 192.756"><g fill-rule="evenodd" clip-rule="evenodd"><path fill="#fff" d="M0 0h192.756v192.756H0V0z"/><path d="M58.663 88.547c3.459 0 10.474.096 10.474.096l.48-6.342H57.798c-4.228 0-10.666 3.651-10.858 10.858 0 7.399 3.844 15.374 14.414 15.374h6.438l1.249-17.584h-9.032l-.673 5.958h2.787l-.384 5.957c-2.114-.191-6.054-1.344-7.111-5.092-1.249-4.612-.192-6.15.289-7.015.479-.769 1.536-2.21 3.746-2.21zM85.568 82.301c-2.787.096-10.474 1.25-14.029 9.897-3.267 8.071-.864 14.606-.192 16.335h7.015c-1.345-1.826-1.826-5.285-1.922-7.975h7.687l-.672 7.975h6.438l2.114-26.232h-6.439zm-8.36 12.396c1.057-2.595 3.459-5.766 7.784-5.862 0-.096.096-.096.096-.192l-.48 6.054h-7.4zM107.861 98.443c1.633-1.057 4.805-2.882 6.148-6.822 2.211-6.438-4.805-8.359-6.244-8.744-1.154-.384-5.383-.48-6.822-.577h-6.727l-2.21 26.232h6.631l1.729-19.794c.865 0 2.979-.192 4.998.096 3.939.673 1.057 3.651.096 4.516-1.057.865-3.363 2.595-4.9 3.651 1.152 4.422 5.957 11.531 5.957 11.531h8.072c-.579.001-6.441-8.647-6.728-10.089z"/><path d="M127.752 90.468l-4.9-8.167h-6.92l-1.442 26.232h6.92l.961-15.662 4.611 7.494 5.862-7.494-.865 15.662h6.439l1.537-26.232h-5.574l-6.629 8.167zM149.66 82.301l-1.635 26.232h-6.918l1.635-26.232h6.918zM166.955 82.301l-.576 10.089-7.686-10.089h-6.246l-1.539 26.232h6.631l.961-16.143 7.207 9.13-.48 7.013h6.63l1.729-26.232h-6.631zM22.053 109.59a15.26 15.26 0 0 0 6.918 1.635c2.498 0 4.9-.576 6.918-1.635H22.053zM28.971 81.532c-2.595 0-5.093.672-7.207 1.922h1.634s.384-.096.865-.096v-.48l.48-.384.961.48 1.345-.48.577.384 3.459-.769 2.114.576-.384.577c.865.096 1.537.192 1.537.192h1.826c-2.114-1.249-4.613-1.922-7.207-1.922zM23.302 106.707l.865 1.635-1.729.191-1.634-1.826h-2.498c.769.865 1.634 1.539 2.595 2.115H37.14c.865-.576 1.73-1.25 2.499-2.115H23.302zM20.227 103.824h-4.132c.48.77.961 1.539 1.537 2.211h2.787l-.192-2.211zM20.131 102.096l-1.73-1.152h-3.555c.288.768.576 1.439.865 2.113h4.516l-.096-.961zM17.729 99.117l.289-.961H14.27c.096.768.192 1.441.384 2.113h3.171l-.096-1.152zM18.401 97.291l-2.306-.673-.577-1.153h-1.345v2.017h4.132l.096-.191zM24.167 85.76l-.288.288c.672 0 1.345 0 2.018-.096l-.48-1.633c-1.057-.096-2.018-.192-2.018-.192h-1.922l2.69 1.633zM21.38 86.241h.576l-.192-.385-.384.385zM40.213 104.209l-1.729.48.096-.865H24.455l-1.249 2.211H40.31c.577-.672 1.153-1.441 1.538-2.211h-1.441l-.194.385zM40.886 103.057h1.345a8.2 8.2 0 0 0 .865-2.113h-.769l-1.441 2.113zM38.869 101.135l-.289-.192H27.626l-.289.768-2.113.672-.385.674H38.58l.289-1.922zM42.808 100.27h.48v-.865l-.48.865zM38.196 100.27l.48-.768-.096-1.346h-6.918s-1.634.287-2.787.287-2.499-.287-2.499-.287h-1.441l.48.576 2.691 1.152-.192.385h10.282v.001zM38.484 97.482l-1.153-.382.577-.481-2.691-.288-2.114-.577v-.192c-1.826.096-3.556.192-4.228.192-1.345 0-7.014-.288-7.014-.288h-4.805l.096.769 6.822.961.289.287c.384-.096 3.555-.48 4.612-.48 1.153 0 4.228.48 4.228.48h5.381v-.001zM32.815 94.216l.672-.673v-.769c-1.826.096-3.844.192-4.612.192-1.441 0-7.687-.384-7.687-.384h-1.729l-.289.288.48 1.153-.289.384-1.441-1.153-1.633 1.153.384.289h5.189s5.861-.385 7.014-.385c.577 0 2.21.096 3.94.192v-.287h.001zM36.37 91.045l1.826.096 1.825.577.673-.769-.865-.192-1.057-.192-.577-.768-.192.768-.48.096.289-.384-.096-.48h-.096l-.672.288-1.73 1.153-.865-1.249.096-.096c-2.306.096-4.997.288-5.573.288-.672 0-3.94-.192-6.054-.288l-2.882 1.826v.192h1.249s6.534-.48 7.687-.48c.769 0 3.94.192 6.054.385l1.44-.771zM37.331 84.126h-3.075s-.96.097-2.114.192l-.288.384-2.114.769-.48.384c1.057 0 3.075.192 4.708.289l.192-.48.192.48c1.249 0 2.114.096 2.114.096h3.363c-.768-.768-1.537-1.537-2.498-2.114zM36.562 86.913s-.672.096-1.633.096l.288.384v1.153l-1.826.288.289-1.729c-1.922.096-4.132.192-4.805.192h-1.057l-.384.289-1.249-.289v-.096c-.961 0-2.114-.096-3.075-.096l-.384.48-.288-.577c-.961 0-1.537-.096-1.537-.096h-.192l-1.057 1.153v1.057h.769l.096-1.441.865-.385 2.113 1.634c2.018-.096 4.805-.192 5.381-.192.672 0 3.94.096 6.246.192l1.057-.769h1.441l.289-1.25h-1.347v.002zM173.682 107.188c0-1.344 1.154-2.402 2.498-2.402 1.25 0 2.402 1.059 2.402 2.402 0 1.441-1.152 2.402-2.402 2.402-1.344 0-2.498-.961-2.498-2.402zm2.498 2.019c1.059 0 1.922-.865 1.922-2.02 0-1.152-.863-2.018-1.922-2.018-1.152 0-2.018.865-2.018 2.018 0 1.155.865 2.02 2.018 2.02zm-.576-.578h-.383v-2.785h1.057c.672 0 .961.191.961.768 0 .48-.289.674-.674.77l.77 1.248h-.48l-.77-1.248h-.48v1.247h-.001zm.576-1.633c.289 0 .674 0 .674-.385s-.385-.48-.674-.48h-.576v.865h.576z"/></g></svg>