<svg xmlns="http://www.w3.org/2000/svg" width="2500" height="2500" viewBox="7.012 10.218 330.943 330.946"><g fill="#fefffe"><path d="M160.47 18.62c30.059-2.45 60.799 4.21 87.2 18.76 45.02 24.26 76.92 71.58 81.45 122.65 3.409 31.47-3.31 63.899-18.62 91.579-15.32 27.881-39.29 50.971-67.82 65.091-22.39 11.29-47.59 16.99-72.669 16.439-34.35-.29-68.36-12.58-95.25-33.91C51.62 280.87 33.72 255.99 23.92 228.1 8.64 185.21 13.14 135.63 36.45 96.45c15.65-27.16 39.78-49.26 68-62.86 17.54-8.39 36.62-13.58 56.02-14.97m-27.85 14.97c-27.11 7.32-52.42 23.27-68.5 46.57-10.83 15.32-17.06 33.46-20.26 51.82-1.52 11.46-2.15 23.96 3.58 34.43 2.65 5.2 7.28 9.13 9.56 14.529 2.17 4.791.63 11.271-4.04 14-4.38 3.141-10.57 1.94-14.53-1.33-5.71-4.479-8.13-11.789-9.35-18.689-2.41-15.54.72-31.26 4.68-46.26-3.1 1.29-2.65 5.58-3.82 8.3-6.77 26.25-6.72 54.31.7 80.42 7.01 24.94 21.32 48.101 41.98 63.979 15.56 12.311 34.63 19.311 53.93 23.101 11.64 1.96 24.3 2.74 35.21-2.56 5.41-2.71 9.46-7.431 14.759-10.301 4.461-2.319 10.271-1.56 13.76 2.12 4.031 4.021 4.101 10.91.82 15.41-3.539 4.82-9.24 7.5-14.869 9.05-12.42 3.11-25.411 1.71-37.84-.55-4.55-.72-8.86-2.74-13.51-2.729 2.49 2.46 6.14 2.89 9.35 3.85 24.39 6.01 50.28 6.05 74.709.21 28.111-6.76 54.711-22.58 71.41-46.55 10.82-14.88 16.78-32.66 20.461-50.52 1.959-13.19 2.949-28.101-5.061-39.601-3.73-5.49-9.721-10.77-8.52-18.1.51-6.85 8.18-11.18 14.479-8.95 8.229 2.67 12.08 11.49 13.761 19.31 3.199 16.2.02 32.851-4.261 48.54 1.12-.17 1.81-.8 2.069-1.88 7.381-23.04 8.66-47.89 4.4-71.67-4.89-27.87-17.77-55.05-39.199-73.98-12.86-11.73-28.711-20-45.471-24.57-13.959-4.15-29.07-7.021-43.48-3.45-7.09 1.55-12.6 6.52-18.279 10.69-4.81 3.71-12.51 3.96-16.85-.63-3.91-4.16-3.55-11.04-.18-15.42 4.479-5.9 11.89-8.63 18.95-9.9 11.27-1.68 22.79-.58 33.91 1.64 4.41.76 8.529 2.79 13.02 3.12-.93-.78-1.84-1.65-3.02-2.02-27.198-8.779-56.958-9.109-84.458-1.429z"/><path d="M136.34 89.34c6.08-3.2 13.85-4.16 20.05-.78 4.96 2.84 6.9 8.99 6.41 14.42-.88 10.78-6.09 20.72-12.64 29.14-7.08 8.56-15.81 16.14-26.27 20.2.8 3.34 3.32 6.899 7.1 6.88 6.62.24 12.36-3.94 17.12-8.1 3.42-2.6 3.6-7.15 5.2-10.82 2.33-5.74 5.5-11.86 11.28-14.76 2.71-1.44 6.85-1.72 8.72 1.17 2.04 3.9.19 8.37-1.77 11.9-2.68 5.12-6.92 9.13-10.29 13.74-1.27 4.28-1.5 8.78-1.58 13.22 4.68-2.07 8.88-5.02 13.29-7.58 7.67-4.96 15.63-9.58 22.75-15.32.819-2.77-.3-5.79-.17-8.67-.44-13.94 4.38-28.23 13.88-38.54 5.91-6.23 14.811-10.62 23.51-8.43 5.221.95 9.311 5.19 10.78 10.18 1.86 7.53-.72 15.4-4.681 21.81-6.819 10.67-16.739 18.82-26.779 26.32 1.34 3.34 3.25 7.13 6.859 8.37 5.17-.99 10.431-2.4 15.721-1.35 3.54.74 7.79 1.8 9.52 5.33 1.6 3.44-1.459 6.96-4.6 8.03-6.68 2.18-13.75.95-20.57.43-8.119 1.94-15.18 7.31-20.24 13.851-7.859 10.33-10.289 24-8.58 36.67 1.631 10.51 6.91 21.1 16.191 26.81 10.449 6.69 25.51 5.271 34.17-3.76 8.17-8.431 10.75-21.851 6.199-32.681-1.93-4.76-6.08-8.819-11.279-9.629-6.07-1.371-13.281 2.579-14.16 9.029-.881 4.96 2.6 9.07 5.539 12.62 2.271 2.351 2.541 6.69-.279 8.72-4.37 2.99-10.43.891-13.91-2.58-8.59-8.479-8.32-23.789-.09-32.449 10.459-12 31.289-12.23 41.99-.41 11.439 12.67 12.879 32.979 4.08 47.5-6.601 11.399-18.5 19.63-31.58 21.49-14.23 2.109-29.601-2.4-39.601-12.951-19.56-19.92-19.25-54.949-.59-75.359 4.989-5.97 11.58-10.22 18.19-14.16-1.43-1.93-2.93-3.81-4.451-5.68-12.84 9.31-26.269 17.77-40.089 25.54-2.34.86-1.92 3.68-2.26 5.67-1.23 17.01-2.68 34.739-11.14 49.94-5.72 10.739-14.37 20.58-25.97 25-9.2 3.47-20.33 3.779-28.77-1.811-8.08-5.07-11.75-15.189-11.13-24.41 1.28-11.73 7.95-22.32 16.43-30.279 11.64-10.631 25.75-17.98 39.6-25.28 2.82-1.57 5.89-2.76 8.41-4.79.93-2.54 1.07-5.271 1.33-7.93-7.18 4.34-16.25 7.83-24.51 4.5-6.75-2.6-10.95-9.06-13.1-15.68-6.37-.68-12.78-3.22-16.84-8.36-7.08-8.49-7.53-21.4-2.41-30.97 1.71-3.45 5.55-5.3 9.31-5.07.73 1.48 2.1 2.95 1.6 4.75-1.12 6.21-3.3 12.66-1.24 18.95 1.02 4.3 4.58 7.73 9 8.32.94-10.18 2.92-20.4 7.71-29.55 4.51-8.901 10.67-17.531 19.63-22.361m5.99 9.96c-6.04 4.11-9.72 10.68-12.9 17.07-3.42 7.21-6.18 14.96-6.49 23 2.31-1.02 4.49-2.35 6.36-4.06 7.56-6.58 14.17-14.42 18.6-23.46 1.56-3.27 2.91-6.98 2.02-10.64-1.15-2.97-5.16-3.75-7.59-1.91m78.17 3.14c-7.061 8.22-10.939 19.12-10.82 29.95 7.961-6.57 15.301-14.27 20.25-23.4 1.42-2.92 3.301-7.69-.3-9.82-3.28-1.69-6.98.79-9.13 3.27M113.45 207.49c-6.939 6.229-13.71 13.49-16.229 22.699-1.21 4.94-1.49 11.181 2.66 14.86 4.38 4 10.98 2.81 16.04.91 9.76-3.76 15.65-13.21 19.62-22.39 4.63-11.4 7.5-23.54 8.67-35.79-11.081 5.121-21.431 11.862-30.761 19.711z"/></g><g fill="#3a73b8"><path d="M160.51 10.68c32.65-2.49 65.97 5.14 94.31 21.53 22.67 13.07 42.27 31.51 56.459 53.52 17.621 26.91 26.941 59.12 26.67 91.28-.209 33.61-10.909 67.1-30.459 94.471-19.83 28.069-48.66 49.689-81.2 60.749-28.899 10-60.57 11.57-90.39 4.891-31.27-6.97-60.32-23.42-82.54-46.49C29.81 266.24 13.87 234.49 9 200.9c-4.79-29.92-.83-61.13 10.86-89.05C30.71 85.88 48.38 62.86 70.5 45.49c25.64-20.22 57.42-32.55 90.01-34.81m-.04 7.94c-19.4 1.39-38.48 6.58-56.021 14.97-28.22 13.6-52.35 35.7-68 62.86C13.14 135.63 8.64 185.21 23.92 228.1c9.8 27.891 27.7 52.771 50.84 71.13 26.89 21.33 60.9 33.62 95.25 33.91 25.08.551 50.28-5.149 72.669-16.439 28.53-14.12 52.5-37.21 67.82-65.091 15.311-27.68 22.029-60.109 18.62-91.579-4.53-51.07-36.431-98.39-81.45-122.65C221.27 22.83 190.529 16.17 160.47 18.62z"/><path d="M132.62 33.59c27.5-7.68 57.26-7.35 84.46 1.43 1.18.37 2.09 1.24 3.02 2.02-4.49-.33-8.609-2.36-13.02-3.12-11.12-2.22-22.641-3.32-33.91-1.64-7.06 1.27-14.47 4-18.95 9.9-3.37 4.38-3.73 11.26.18 15.42 4.34 4.59 12.04 4.34 16.85.63 5.68-4.17 11.189-9.14 18.279-10.69 14.41-3.57 29.521-.7 43.48 3.45 16.76 4.57 32.61 12.84 45.471 24.57 21.43 18.93 34.31 46.11 39.199 73.98 4.26 23.78 2.98 48.63-4.4 71.67-.26 1.08-.949 1.71-2.069 1.88 4.28-15.689 7.46-32.34 4.261-48.54-1.681-7.82-5.531-16.64-13.761-19.31-6.3-2.23-13.97 2.1-14.479 8.95-1.201 7.33 4.789 12.61 8.52 18.1 8.01 11.5 7.02 26.41 5.061 39.601-3.681 17.859-9.641 35.64-20.461 50.52-16.699 23.97-43.299 39.79-71.41 46.55-24.43 5.84-50.319 5.8-74.709-.21-3.21-.96-6.86-1.39-9.35-3.85 4.65-.011 8.96 2.01 13.51 2.729 12.43 2.26 25.42 3.66 37.84.55 5.629-1.55 11.33-4.229 14.869-9.05 3.28-4.5 3.211-11.39-.82-15.41-3.489-3.68-9.299-4.439-13.76-2.12-5.299 2.87-9.35 7.591-14.759 10.301-10.91 5.3-23.57 4.52-35.21 2.56-19.3-3.79-38.37-10.79-53.93-23.101-20.662-15.88-34.972-39.04-41.982-63.98-7.42-26.11-7.47-54.17-.7-80.42 1.17-2.72.72-7.01 3.82-8.3-3.96 15-7.09 30.72-4.68 46.26 1.22 6.9 3.64 14.21 9.35 18.689 3.96 3.271 10.15 4.471 14.53 1.33 4.67-2.729 6.21-9.209 4.04-14-2.28-5.399-6.91-9.33-9.56-14.529-5.73-10.47-5.1-22.97-3.58-34.43 3.2-18.36 9.43-36.5 20.26-51.82 16.08-23.3 41.39-39.25 68.5-46.57m3.72 55.75c-8.96 4.83-15.12 13.46-19.63 22.36-4.79 9.15-6.77 19.37-7.71 29.55-4.42-.59-7.98-4.02-9-8.32-2.06-6.29.12-12.74 1.24-18.95.5-1.8-.87-3.27-1.6-4.75-3.76-.23-7.6 1.62-9.31 5.07-5.12 9.57-4.67 22.48 2.41 30.97 4.061 5.14 10.47 7.68 16.84 8.36 2.15 6.62 6.35 13.08 13.1 15.68 8.26 3.33 17.33-.16 24.51-4.5-.26 2.66-.4 5.39-1.33 7.93-2.52 2.03-5.59 3.22-8.41 4.79-13.85 7.3-27.96 14.649-39.6 25.28-8.48 7.959-15.15 18.549-16.43 30.279-.62 9.221 3.05 19.34 11.13 24.41 8.439 5.59 19.57 5.28 28.77 1.811 11.6-4.42 20.25-14.261 25.97-25 8.46-15.201 9.91-32.931 11.14-49.94.34-1.99-.08-4.81 2.26-5.67 13.82-7.771 27.25-16.23 40.089-25.54 1.521 1.87 3.021 3.75 4.451 5.68-6.61 3.94-13.201 8.19-18.19 14.16-18.66 20.41-18.97 55.439.59 75.359 10 10.551 25.37 15.061 39.601 12.951 13.08-1.86 24.979-10.091 31.58-21.49 8.799-14.521 7.359-34.83-4.08-47.5-10.701-11.82-31.531-11.59-41.99.41-8.23 8.66-8.5 23.97.09 32.449 3.48 3.471 9.54 5.57 13.91 2.58 2.82-2.029 2.55-6.369.279-8.72-2.939-3.55-6.42-7.66-5.539-12.62.879-6.45 8.09-10.4 14.16-9.029 5.199.81 9.35 4.869 11.279 9.629 4.551 10.83 1.971 24.25-6.199 32.681-8.66 9.03-23.721 10.45-34.17 3.76-9.281-5.71-14.561-16.3-16.191-26.81-1.709-12.67.721-26.34 8.58-36.67 5.061-6.541 12.121-11.91 20.24-13.851 6.82.52 13.891 1.75 20.57-.43 3.141-1.07 6.199-4.59 4.6-8.03-1.729-3.53-5.979-4.59-9.52-5.33-5.29-1.05-10.551.36-15.721 1.35-3.609-1.24-5.52-5.03-6.859-8.37 10.04-7.5 19.96-15.65 26.779-26.32 3.961-6.41 6.541-14.28 4.681-21.81-1.47-4.99-5.56-9.23-10.78-10.18-8.699-2.19-17.6 2.2-23.51 8.43-9.5 10.31-14.32 24.6-13.88 38.54-.13 2.88.989 5.9.17 8.67-7.12 5.74-15.08 10.36-22.75 15.32-4.41 2.561-8.61 5.51-13.29 7.58.08-4.44.31-8.94 1.58-13.22 3.37-4.61 7.61-8.62 10.29-13.74 1.96-3.53 3.81-8 1.77-11.9-1.87-2.89-6.01-2.61-8.72-1.17-5.78 2.9-8.95 9.02-11.28 14.76-1.6 3.67-1.78 8.22-5.2 10.82-4.76 4.16-10.5 8.34-17.12 8.1-3.78.02-6.3-3.54-7.1-6.88 10.46-4.061 19.19-11.641 26.27-20.2 6.55-8.42 11.76-18.36 12.64-29.14.49-5.43-1.45-11.58-6.41-14.42-6.2-3.379-13.97-2.419-20.05.781z"/><path d="M142.33 99.3c2.43-1.84 6.44-1.06 7.59 1.91.89 3.66-.46 7.37-2.02 10.64-4.43 9.04-11.04 16.88-18.6 23.46-1.87 1.71-4.05 3.04-6.36 4.06.31-8.04 3.07-15.79 6.49-23 3.18-6.39 6.86-12.96 12.9-17.07zM220.5 102.44c2.15-2.48 5.85-4.96 9.13-3.27 3.601 2.13 1.72 6.9.3 9.82-4.949 9.13-12.289 16.83-20.25 23.4-.119-10.83 3.759-21.73 10.82-29.95zM113.45 207.49c9.33-7.85 19.68-14.59 30.76-19.71-1.17 12.25-4.04 24.39-8.67 35.79-3.97 9.18-9.86 18.63-19.62 22.39-5.06 1.899-11.66 3.09-16.04-.91-4.15-3.68-3.87-9.92-2.66-14.86 2.52-9.21 9.29-16.47 16.23-22.7z"/></g></svg>