<svg height="2500" width="2500" xmlns="http://www.w3.org/2000/svg" viewBox="0 0 512 512"><g fill="none"><path d="M64 238.545v34.91c0 17.673-14.327 32-32 32s-32-14.327-32-32v-34.91c0-17.673 14.327-32 32-32s32 14.327 32 32z" fill="#0066d9"/><path d="M448.013 239.455a32.6 32.6 0 0 1-.013-.91c0-17.673 14.327-32 32-32s32 14.327 32 32c0 .304-.004.608-.013.91H512v34.909h-.013c-.48 17.252-14.618 31.09-31.987 31.09s-31.506-13.838-31.987-31.09H448v-34.91h.013z" fill="#4285f4"/><path d="M174.545 343.273v34.909c0 17.673-14.326 32-32 32s-32-14.327-32-32v-34.91c0-17.672 14.327-32 32-32s32 14.328 32 32zM174.545 133.818V248h-.008c-.386 17.337-14.562 31.273-31.992 31.273S110.94 265.337 110.554 248h-.009V133.818c0-17.673 14.327-32 32-32s32 14.327 32 32z" fill="#ea4335"/><path d="M337.455 168.727c0 17.673 14.326 32 32 32s32-14.327 32-32v-34.909c0-17.673-14.327-32-32-32s-32 14.327-32 32z" fill="#34a853"/><path d="M224 66.91c0 17.672 14.327 32 32 32s32-14.328 32-32V32c0-17.673-14.327-32-32-32s-32 14.327-32 32zM224 445.09c0-17.672 14.327-32 32-32s32 14.328 32 32V480c0 17.673-14.327 32-32 32s-32-14.327-32-32z" fill="#fab908"/><path d="M337.455 264.727c0-17.673 14.326-32 32-32s32 14.327 32 32v113.455c0 17.673-14.327 32-32 32s-32-14.327-32-32z" fill="#34a853"/><path d="M288 162.91v186.18c0 17.674-14.327 32-32 32s-32-14.326-32-32V162.91c0-17.674 14.327-32 32-32s32 14.326 32 32z" fill="#fab908"/></g></svg>