<svg xmlns="http://www.w3.org/2000/svg" width="2500" height="2500" viewBox="0 0 192.756 192.756"><g fill-rule="evenodd" clip-rule="evenodd"><path fill="#fff" d="M0 0h192.756v192.756H0V0z"/><path d="M95.778 18.01c-29.661 0-53.851 24.19-53.851 53.924 0 29.589 24.19 53.852 53.851 53.852 29.663 0 53.925-24.263 53.925-53.852 0-29.734-24.262-53.924-53.925-53.924zm-4.39 100.431c-25.487 0-46.437-20.878-46.437-46.363 0-25.631 20.95-46.509 46.437-46.509 25.63 0 46.507 20.878 46.507 46.509 0 25.485-20.877 46.363-46.507 46.363z" fill="#ca2a2d"/><path d="M88.147 32.84c-21.598 0-39.236 17.64-39.236 39.238 0 21.526 17.639 39.164 39.236 39.164 21.527 0 39.166-17.638 39.166-39.164-.001-21.599-17.639-39.238-39.166-39.238zm-5.111 70.122c-17.135 0-31.102-13.966-31.102-31.028 0-17.206 13.967-31.174 31.102-31.174 17.064 0 31.031 13.968 31.031 31.174-.001 17.062-13.967 31.028-31.031 31.028z" fill="#ca2a2d"/><path d="M90.307 78.629H78.86v-7.487h24.91v.792c0 13.175-10.727 23.902-23.902 23.902S55.894 85.109 55.894 71.934s10.799-23.975 23.974-23.975c10.655 0 19.8 7.127 22.822 16.847H90.091a16.44 16.44 0 0 0-14.831-9.287c-9.143 0-16.559 7.342-16.559 16.486 0 8.999 7.416 16.416 16.559 16.416 6.696 0 12.455-4.032 15.047-9.792z" fill="#ca2a2d"/><path d="M131.707 152.984c.025-1.39 1.105-2.032 2.777-2.109 2.006.128 2.625.849 2.83 2.058l.025 13.968h6.354v-15.614c0-1.595-1.209-5.633-6.121-5.967-2.727 0-4.555.797-5.84 1.928l-.258-1.928h-6.148v21.557h6.381v-13.893zM84.889 137.447v8.771c-1.543-1.338-3.215-1.903-4.836-1.98-6.148.283-8.875 5.171-9.158 11.421.412 6.534 2.933 11.241 9.132 11.345 1.853 0 3.499-.721 4.862-1.903v1.8h6.663v-29.453h-6.663v-.001zm-3.601 24.31c-2.393.128-4.219-2.471-4.245-5.994.154-3.936 1.852-5.942 4.09-6.071 2.264.335 3.936 1.081 3.807 5.3.258 4.577-.54 6.379-3.652 6.765zM94.124 145.319h6.919V166.9h-6.919v-21.581zM94.149 137.473h6.894v5.659h-6.894v-5.659zM152.725 149.924h2.932v-4.117h-2.932v-6.61h-5.867v6.61h-2.084v4.117h2.084v12.759c.104 2.083 1.646 4.218 4.889 4.09 1.414 0 2.676.104 3.91.104V161.5c-.258-.025-.516-.025-.746-.025-1.441.025-2.135-.927-2.186-2.008v-9.543zM44.296 146.527l-.257-1.234h-6.405v21.583h6.663v-14.148c.18-1.519 1.363-2.188 4.733-2.393.489 0 .952.025 1.363.052v-5.378c-.643-.153-1.415-.204-2.161-.18-1.389.052-2.958.85-3.936 1.698zM69.249 163.505v-11.986c-.643-4.76-3.858-6.638-8.746-6.714-5.428-.412-8.901 2.598-8.695 6.38v1.105h5.66c.025-.283 0-.412.051-.952.155-1.337 1.029-2.006 2.676-1.981 1.672.078 2.804.901 2.804 2.291 0 .643-.309.796-.644.899l-3.755.694c-4.604.695-6.971 1.75-7.718 6.92.078 5.017 3.036 6.869 7.589 6.816 1.903-.129 3.344-.463 5.17-1.646.078.618.181 1.133.231 1.569h5.865a15.567 15.567 0 0 1-.488-3.395zm-6.123-4.243c0 1.312-1.08 3.061-3.112 3.061-1.158-.025-2.598-.309-2.701-2.418-.077-1.415 1.98-2.599 4.218-3.138.335-.078.875-.104 1.595-.206v2.701zM29.196 145.319v1.26c-1.363-1.107-2.598-1.672-4.579-1.774-4.707-.104-8.103 4.45-8.36 10.315.129 6.174 3.602 10.546 8.386 10.34 1.775-.077 3.292-.668 4.528-1.852l.025 4.09c-.18 1.44-.901 2.47-3.292 2.443-2.598.078-3.061-1.157-3.292-2.443l-5.865.026c.154 4.964 3.704 7.073 9.286 7.022 6.714.102 9.055-3.448 9.287-7.049v-22.379h-6.124v.001zm-3.601 15.254c-2.599.025-3.447-2.238-3.575-5.351.231-3.216 1.003-5.377 3.575-5.352 2.958.258 3.37 2.315 3.447 5.479.078 3.166-.977 5.121-3.447 5.224zM176.467 156.971c.051-1.337.025-1.491.025-2.237 0-5.607-4.449-10.161-10.059-10.161-5.787.129-10.109 4.013-10.213 10.984.027 7.255 4.863 11.627 10.703 11.474 3.215.205 6.969-1.184 9.439-5.067l-4.553-3.216c-1.004 1.646-2.625 2.881-4.449 3.034-2.033-.024-4.348-1.517-4.477-4.115v-.695h13.584v-.001zm-10.137-7.588c1.801 0 3.371 1.235 3.318 3.293h-6.609c.076-1.75 1.414-3.293 3.291-3.293zM123.398 156.971c.051-1.337.025-1.491.025-2.237 0-5.607-4.451-10.161-10.059-10.161-5.787.129-10.109 4.013-10.211 10.984.023 7.255 4.861 11.627 10.699 11.474 3.217.205 6.973-1.184 9.441-5.067l-4.555-3.216c-1.002 1.646-2.623 2.881-4.449 3.034-2.031-.024-4.348-1.517-4.477-4.115v-.695h13.586v-.001zm-10.134-7.588c1.799 0 3.367 1.235 3.316 3.293h-6.609c.076-1.75 1.414-3.293 3.293-3.293z"/></g></svg>