<svg xmlns="http://www.w3.org/2000/svg" width="2500" height="2500" viewBox="0 0 192.756 192.756"><g fill-rule="evenodd" clip-rule="evenodd"><path fill="#fff" d="M0 0h192.756v192.756H0V0z"/><path fill="#33348e" d="M14.198 99.361h8.743V86.224h7.372v13.137h8.744v-33.79h-8.744v11.815h-7.372V65.571h-8.743v33.79z"/><path d="M60.494 96.93l-.614-7.941c-2.788 2.458-5.624 3.639-8.176 3.639-.993 0-1.891-.142-2.789-.52l12.997-9.121c-1.796-5.341-5.907-8.318-11.012-8.318-6.994 0-12.477 5.577-12.477 12.76 0 7.137 4.868 12.295 12.43 12.295 3.497.001 6.711-.904 9.641-2.794zm-14.698-9.548a5.43 5.43 0 0 1-.142-1.229c0-2.646 2.269-5.057 4.963-5.057 1.087 0 1.89.284 2.552.945l-7.373 5.341z" fill="#33348e"/><path d="M72.588 99.291h6.806V83.6c0-6.522-2.126-8.696-10.066-8.696-2.08 0-4.207.189-6.333.473L62.049 81c1.749-.283 3.544-.377 5.388-.377 3.213 0 4.537.566 4.537 2.693 0 .236 0 .473-.048.709-1.229-.662-2.457-.993-3.592-.993-5.198 0-8.648 3.308-8.648 8.365 0 4.915 3.167 8.325 7.751 8.325 2.032 0 3.781-.717 5.151-2.086v1.655zm-2.741-5.861c-1.418 0-2.505-1.134-2.505-2.552 0-1.465 1.182-2.6 2.505-2.6 1.371 0 2.552 1.182 2.552 2.6 0 1.37-1.134 2.552-2.552 2.552z" fill="#33348e"/><path fill="#33348e" d="M83.602 99.293h9.83L99.387 75h-8.413l-2.505 14.793L86.012 75h-8.413l6.003 24.293z"/><path fill="#33348e" d="M102.018 107.229h8.884l9.737-32.287h-8.744l-2.741 11.957-3.592-11.957h-8.94l8.655 23.347-3.259 8.94z"/><path fill="#cc2229" d="M142.506 90.052H129.98V65.571h-8.742v33.79h18.526l2.742-9.309z"/><path d="M142.291 72.943h7.986V65.57h-7.986v7.373zm0 26.418h7.986V75.07h-7.986v24.291zM164.52 65.431c-.803-.048-1.465-.095-2.031-.095-6.238 0-9.453 3.024-9.453 9.074v.661h-1.889v7.231h1.889v17.06h7.988v-17.06h3.496v-7.231h-3.496v-.141c0-1.418.756-1.938 2.457-1.938.236 0 .568.047 1.039.047v-7.608zM177.117 99.344l1.465-8.413c-.566.095-1.039.095-1.418.095-1.889 0-2.268-.803-2.268-3.261v-5.482h3.025v-7.231h-3.025V67.82l-7.986 4.632v2.599h-1.514v7.231h1.514v8.791c0 6.001.85 8.562 6.947 8.562 1.039 0 2.079-.094 3.26-.291z" fill="#cc2229"/><path d="M25.104 111.451c-.344-.064-.646-.129-.925-.172a10.575 10.575 0 0 0-1.226-.064c-4.669 0-7.876 3.377-7.876 7.789 0 4.799 3.357 8.008 8.607 8.008.43 0 .86-.064 1.334-.129l.474-2.328c-.646.172-1.27.279-1.894.279-3.723 0-6.176-2.539-6.176-5.852 0-3.207 2.41-5.617 5.702-5.617.796 0 1.592.15 2.346.432l-.366-2.346zM34.421 110.848l-8.288 15.838 1.962.562 3.206-6.33h5.788l3.12 6.33 2.195-.562-7.983-15.838zm-.107 4.197l1.958 3.938h-3.981l2.023-3.938zM43.416 111.408v15.582l2.303-.197v-7.08l5.164 7.492 2.173-.928-4.691-6.371c2.216-.365 3.593-2.021 3.593-4.002 0-1.742-.861-3.205-2.152-3.895-.947-.494-2.065-.602-3.442-.602h-2.948v.001zm2.302 2.043h.882c2.022 0 3.056.818 3.056 2.367 0 1.551-1.076 2.518-3.099 2.518h-.839v-4.885zM67.86 113.344c-1.312-1.42-3.486-2.346-5.81-2.346-2.367 0-4.454.904-5.982 2.582a8.187 8.187 0 0 0-2.13 5.51c0 4.668 3.486 8.115 8.112 8.115 2.152 0 4.153-.777 6.132-2.328v-6.863h-5.465v2.088h3.185v3.527c-1.119.926-2.388 1.377-3.852 1.377-3.335 0-5.767-2.646-5.767-5.916 0-3.271 2.432-5.918 5.767-5.918 1.635 0 2.991.561 4.368 1.744l1.442-1.572zM78.231 110.998c-2.044 0-3.895.689-5.271 1.916-1.829 1.613-2.841 3.83-2.841 6.176 0 2.367 1.012 4.561 2.841 6.197 1.377 1.227 3.228 1.918 5.271 1.918 2.367 0 4.454-.906 5.982-2.586a8.275 8.275 0 0 0 2.13-5.529c0-2.346-.99-4.541-2.819-6.176-1.377-1.205-3.228-1.916-5.293-1.916zm0 2.174c3.335 0 5.767 2.646 5.767 5.918 0 3.27-2.453 5.916-5.767 5.916-3.335 0-5.767-2.625-5.767-5.916 0-3.272 2.432-5.918 5.767-5.918zM101.342 110.848l-8.289 15.838 1.961.562 3.206-6.33h5.789l3.119 6.33 2.195-.562-7.981-15.838zm-.11 4.197l1.959 3.938h-3.98l2.021-3.938zM112.787 111.193l-2.279.215v15.582l2.279-.197v-15.6zM116.059 111.408v15.582l2.303-.197v-7.08l5.164 7.492 2.174-.928-4.691-6.371c2.217-.365 3.594-2.021 3.594-4.002 0-1.742-.861-3.205-2.152-3.895-.947-.494-2.066-.602-3.443-.602h-2.949v.001zm2.302 2.043h.883c2.021 0 3.055.818 3.055 2.367 0 1.551-1.076 2.518-3.098 2.518h-.84v-4.885zM129.658 111.193l-2.303.215v15.385h8.241l.861-2.195h-6.799v-13.405zM140.395 111.193l-2.282.215v15.582l2.282-.197v-15.6zM143.666 110.826v16.164l2.303-.197v-10.285l10.07 10.912v-16.227l-2.281.215v10.307l-10.092-10.889zM159.158 111.408v15.385h7.94l.818-2.195h-6.455v-4.692h4.627v-2.15h-4.627v-4.262h5.787l-.559-2.086h-7.531zM177.836 113.473c-1.012-1.592-2.604-2.475-4.326-2.475-2.818 0-4.689 1.723-4.689 4.412 0 2.281 1.205 3.443 3.637 4.389 1.871.732 3.076 1.162 3.076 2.799 0 1.334-.969 2.344-2.41 2.344-1.162 0-2.195-.688-2.969-2.043l-1.744 1.635c1.312 1.766 2.842 2.607 4.713 2.607 2.732 0 4.777-2.004 4.777-4.674 0-1.807-.99-3.291-2.754-4.045-2.432-1.031-4.047-1.42-4.047-3.184 0-1.248.947-2.152 2.238-2.152 1.141 0 2.195.646 2.992 1.895l1.506-1.508z"/></g></svg>