<svg viewBox="0.85 0.85 431.99799999999993 432" xmlns="http://www.w3.org/2000/svg" width="2500" height="2500"><path d="M216.85 432.85c-2.147 0-4.285-.038-6.42-.1l44.144-121.318h60.75c10.663 0 22.368-8.197 26.015-18.212l47.89-131.546c7.836-21.537-4.5-39.157-27.417-39.157h-84.28L206.82 316.833h-.027l-40.09 110.153C71.594 404.376.85 318.878.85 216.85c0-99.085 66.72-182.58 157.683-208.026l-41.365 113.693h-.012L48.39 311.432l45.777.004 58.48-160.53h34.405l-58.48 160.53 45.76.008 54.498-149.77c7.84-21.537-4.497-39.157-27.393-39.157h-38.48L207.14 1.077c3.22-.143 6.454-.227 9.708-.227 119.294 0 216 96.706 216 216 0 119.293-96.706 216-216 216zm130.692-282.06h-34.395L264.98 282.948h34.396z"/></svg>