<svg xmlns="http://www.w3.org/2000/svg" width="2500" height="2500" viewBox="0 0 192.756 192.756"><g fill-rule="evenodd" clip-rule="evenodd"><path fill="#fff" d="M0 0h192.756v192.756H0V0z"/><path d="M144.014 117.51h-12.961V68.208h14.361l22.789 30.418V68.208h12.959v49.301h-13.74l-23.408-31.548v31.549zm-99.808 0H32.803V68.208H44.206V88.08l16.702-19.872h15.498l-20.65 22.466 38.831 47.498H78.151L44.192 95.334l.014 22.176zM11.594 68.208H22.997v49.301H11.594V68.208zm87.892 9.874c7.736 0 14.045 6.309 14.045 14.044 0 7.736-6.309 14.044-14.045 14.044-7.734 0-14.043-6.309-14.043-14.044 0-7.736 6.309-14.044 14.043-14.044zm0-12.158c15.184 0 27.564 11.77 27.564 26.201s-12.381 26.201-27.564 26.201c-15.181 0-27.563-11.77-27.563-26.201s12.382-26.201 27.563-26.201z" fill="#c6482c"/></g></svg>