<svg enable-background="new 0 0 1073.9 1074" viewBox="0 0 1073.9 1074" xmlns="http://www.w3.org/2000/svg"><path d="m1005.4 0h-936.8c-37.9 0-68.6 30.7-68.6 68.6v936.8c0 37.8 30.7 68.6 68.6 68.6h936.8c37.8 0 68.6-30.7 68.6-68.6v-936.9c-.1-37.8-30.8-68.5-68.6-68.5zm-517.8 605.3c0 29.8-2.8 55.3-8.5 76.3s-14.3 37.8-25.7 51c-11.5 13-25.8 22.6-42.9 28.6-17.1 6.1-37 9.1-59.7 9.1-20 0-38-3.2-54.2-9.4-31.7-11.9-56.5-37.4-67.4-69.4-6.4-17.9-9.5-36.7-9.2-55.7v-13.4h64.3c0 59.9 22.2 89.9 66.6 89.9 11.4 0 21.4-1.3 30.4-4 8.9-2.8 16.4-7.8 22.6-15.4 6.2-7.5 10.8-17.9 14-31.4s4.8-31 4.8-52.7v-335.2h65.1zm359.1 97.3c-6.8 13.7-16.4 25.8-28.2 35.5-13.2 10.6-28.4 18.7-44.6 23.7-17.5 5.6-37.1 8.4-58.8 8.4-96.1 0-146.8-37.9-152-113.9h63.2c.3 42.9 29.7 64.4 88.1 64.4 13 0 24.6-1.4 34.5-4.3 10-2.8 18.3-6.8 24.9-11.8 12.9-9.3 20.5-24.2 20.4-40.1.3-7-1.1-13.9-3.9-20.3-2.6-5.2-7.7-9.7-15.2-13.7-10-4.9-20.4-8.8-31.2-11.6-17.3-5-34.7-9.8-52.2-14.3-20.9-5.2-39-10.4-54.1-15.6-13.4-4.2-26-10.5-37.4-18.8-9.5-7.1-17-16.5-21.7-27.3-4.7-10.9-7-24.6-7-41.1 0-14.5 3.1-28 9.2-40.5 6.2-12.4 14.9-23.2 26.5-32.4 11.4-9.1 25.3-16.2 41.5-21.4 17.6-5.4 36-8 54.4-7.8 92.9 0 140.2 33 141.6 99.1h-62.2c-2.2-33-27.1-49.6-74.7-49.6-10.6 0-20.3 1.1-29.4 3.2s-16.8 5.1-23.5 9.1c-6.7 3.9-11.8 8.8-15.6 14.6-3.7 6-5.7 13-5.5 20.1 0 6.9.9 12.6 2.6 17 1.7 4.5 5.8 8.6 12.4 12.4 6.5 3.8 16.2 7.6 29 11.3s30.3 8.3 52.5 13.7c21.4 5.2 40.1 10.5 55.9 16.1 15.7 5.6 28.8 12.3 39.4 20.2 10.5 7.8 18.2 17.5 23.3 28.8 5 11.3 7.6 25.5 7.6 42.5.2 16.1-3.2 30.8-9.8 44.4z" fill="#030104"/></svg>