<svg xmlns="http://www.w3.org/2000/svg" width="2500" height="2500" viewBox="0 0 192.756 192.756"><g fill-rule="evenodd" clip-rule="evenodd"><path fill="#fff" d="M0 0h192.756v192.756H0V0z"/><path d="M31.71 78c5.034 0 10.083 1.297 14.375 3.983.185.108.247.339.139.556-2.439 3.875-4.462 8.755-6.438 13.818-3.644 9.635-10.175 10.701-18.729 10.979-.448.016-.524.588-.185.758 9.341 4.832 25.615 4.816 30.324-5.854 2.208-4.986.31-10.514-4.369-14.606-.124-.124-.155-.278-.093-.479a48.54 48.54 0 0 1 1.652-2.903.398.398 0 0 1 .602-.093c3.659 3.258 5.883 7.55 5.883 12.244 0 10.145-10.407 18.404-23.161 18.404-6.438 0-13.634-2.408-18.281-7.117-.17-.186-.17-.51.123-.648 2.44-1.02 12.522-5.559 15.657-13.402 1.528-3.675 3.165-7.458 4.987-11.179.124-.325-.093-.541-.309-.587-9.48-1.452-18.729 2.068-21.663 8.692-1.868 4.215-.803 8.817 2.393 12.6.185.246.078.539-.17.648-.972.354-1.96.695-2.949 1.02-.201.045-.34 0-.479-.172-1.575-2.484-2.471-5.295-2.471-8.26C8.55 86.26 18.957 78 31.71 78zM174.055 103.385c-.6 0-.871-.654-.49-1.088l10.445-12.786c.109-.108.164-.271.217-.489v-4.189c-.053-.327-.326-.653-.707-.653h-18.06c-.381.054-.654.326-.654.708v4.08c.055.272.273.49.6.544h9.629c.707 0 .871.762.543 1.143l-10.607 12.84c-.109.162-.164.271-.164.488v3.973c0 .326.273.652.654.652h18.06c.381 0 .707-.326.707-.652v-3.918c0-.326-.326-.652-.707-.652l-9.466-.001zm-46.787-.326h-1.088c-2.885-.055-3.973-1.307-4.027-3.973V84.942c0-.381-.326-.762-.707-.762h-4.297c-.381 0-.709.326-.762.708v16.103c0 3.209 2.338 7.344 7.018 7.617h11.533c.381 0 .707-.326.707-.652v-4.408c-.055-.217-.271-.434-.543-.488l-7.834-.001zm-49.617 0c2.829-.055 3.863-1.361 3.917-3.973V84.942c0-.381.326-.762.707-.762h4.298c.381 0 .707.326.761.708v16.103c.109 3.918-3.155 7.453-7.018 7.617h-6.093c-4.733-.273-7.126-4.408-7.018-7.617v-3.59c0-.436.326-.707.652-.707h4.461c.327 0 .598.217.653.543v2.395c.163 2.285 1.306 3.373 3.972 3.428l.708-.001zm25.46-13.221h-1.088c-2.447 0-3.59.925-3.916 2.829-.109.435.217.87.652.87h11.969c.436 0 .762.326.762.762V98.598c0 .379-.326.707-.762.707H98.814c-.436 0-.762.381-.707.869.271 1.904 1.469 2.83 3.916 2.885h8.922c.273.055.49.271.545.488v4.408c0 .326-.271.652-.707.652H99.25c-4.68-.273-7.073-4.408-6.965-7.617v-9.139c-.108-3.21 2.285-7.345 6.965-7.671H110.783c.436 0 .707.326.707.708v4.353c-.055.271-.271.543-.545.598l-7.834-.001zm48.366 13.221h-1.033c-2.885-.055-4.025-1.307-4.025-3.973v-5.331c0-2.611 1.141-3.917 4.025-3.917H159.311a.754.754 0 0 0 .598-.598v-.055h-.053v-4.298c0-.381-.273-.708-.654-.708H147.669c-4.732.326-7.127 4.461-7.018 7.671v9.139c-.109 3.209 2.285 7.344 7.018 7.617h11.533a.662.662 0 0 0 .654-.652v-4.299h.053v-.109c-.053-.217-.271-.434-.598-.488l-7.834.001z" fill="#164c82"/></g></svg>