<svg xmlns="http://www.w3.org/2000/svg" width="2500" height="612" viewBox="0 0 523.596 128.25"><path d="M223.9 46.171l.001-.005-3.352 11.88 3.351-11.875zM241.14 71.962l-3.693-.022 3.693.022zM240.19 89.703h.004l-22.131.08 22.127-.08zM244.83 71.984l-3.695-.022 3.695.022zM242.13 88.195l3.854-14.702-3.854 14.705v-.003zM323.61 20.49l-7.181 33.76 7.181-33.76zM305.15 20.49l-5.451 25.22 5.451-25.222v.002z" fill="#131b28"/><path d="M322.38 18.971h-15.356c-.852 0-1.697.684-1.88 1.517l-5.451 25.222-5.452 25.223c-.181.832-1.025 1.514-1.877 1.514h-10.869c-10.753 0-9.51-7.438-7.308-17.627l.066-.308.241-1.284.046-.242.49-2.615.526-2.803c.16-.845.402-2.08.562-2.856l2.478-12.109 2.48-12.109c.171-.835-.388-1.521-1.24-1.521h-15.762c-.852 0-1.695.686-1.87 1.519l-3.389 16.079-3.389 16.077c-.003.007-.004.017-.005.024l-.315 1.494c-3.903 17.822-2.868 34.817 18.348 35.349.347.01.615.013.615.013h33.302c.852 0 1.695-.684 1.874-1.519l7.181-33.757 7.182-33.76c.176-.837-.376-1.52-1.228-1.521zM383.64 72.621c.854 0 1.411.684 1.24 1.519l-1.491 7.288M381.9 88.719l1.491-7.292-1.492 7.295.001-.003zM380.03 90.253l.008-.002c-4.52.036-18.1.14-28.307.14 12.422 0 28.298-.137 28.299-.138zM342.57 63.234c-.012-.798.896-2.173 1.75-2.173l-1.918-.032c-.865 8.692.168 2.205.168 2.205z" fill="#131b28"/><path d="M353.13 90.387c-.098 0-.198 0-.296.002.098-.002.198-.002.296-.002zM383.64 72.621c.854 0 1.411.684 1.24 1.519l-1.491 7.288-.243 1.188M360.4 90.37h-.062.062zM356.63 90.382h-.219.219zM355.48 90.385c-.122 0-.241 0-.361.002.12-.002.239-.002.361-.002zM354.31 90.387h-.317.317zM356.41 90.382l-.931.002.931-.002zM360.34 90.37c-1.243.005-2.483.01-3.705.013 1.222-.002 2.464-.008 3.705-.013zM380.04 90.25zM381.9 88.723l1.249-6.106-1.25 6.11.001-.004zM355.12 90.387h-.811.811zM352.83 90.389h-1.097 1.097zM353.99 90.387h-.864.864zM129.36 63.417l2.386-10.574-2.728 12.087-2.617 12.312 2.294-10.793c.176-.835.477-2.2.665-3.032zM157.91 18.793h-16.864c-.854 0-1.704.681-1.895 1.511l-1.6 7.058-1.599 7.061c-.188.83.355 1.511 1.208 1.511h16.995c.853 0 1.699-.681 1.883-1.514l1.545-7.058 1.546-7.053v-.002c.183-.832-.365-1.514-1.219-1.514zM154.24 42.272v-.002l-4.946 22.882 4.946-22.88zM105.25 118.09s8.501.109 13.904.109c-4.104 0-10.885-.075-13.911-.111l.007.002zM134.13 42.269l-2.388 10.574 2.388-10.574z" fill="#131b28"/><path d="M153.02 40.756h-16.997c-.852 0-1.704.681-1.892 1.514l-2.388 10.574-2.386 10.574c-.188.832-.488 2.197-.665 3.032l-2.294 10.793-2.292 10.793a32.847 32.847 0 0 1-.818 2.985s-3.175 9.448-8.513 9.341c-.228-.005-.448-.007-.667-.013-2.587-.049-4.619-.085-4.619-.085h-.004c-.851-.013-1.706.651-1.905 1.479l-1.763 7.41-1.761 7.406c-.197.828.337 1.512 1.185 1.526 3.027.036 9.807.112 13.912.112 13.334 0 20.363-7.388 24.869-28.647l5.273-24.398 4.946-22.883c.18-.831-.37-1.513-1.221-1.513zM394.47 89.525c-.853 0-1.405-.684-1.226-1.52l12.786-59.89M412.24 88.004l5.171-25.562-5.171 25.562z" fill="#131b28"/><path d="M393.43 88.766c-.104-.417-.043-1.439.138-2.275l6.068-28.428-6.393 29.944c-.18.835.373 1.519 1.226 1.519h1.553c-.854-.001-2.49-.342-2.592-.76zM411.23 89.184c-.464.188-1.543.342-2.396.342h1.553c.853 0 1.689-.684 1.858-1.521l.308-1.519c-.171.834-.858 2.509-1.323 2.698zM414.83 75.223l2.282-11.282c-.001.007-.002.017-.004.022l-2.278 11.26zM465.28 32.128l.704 2.91c.194.833-.344 1.509-1.194 1.511M412.55 86.486l2.276-11.262-2.276 11.262zM464.579 29.147l.697 2.981-.697-2.981zM417.11 63.942c.17-.835.451-2.188.628-3.015l2.438-11.421-2.761 12.937-.305 1.499zM406.24 27.135c-.169.806-.387 1.824-.53 2.498l-6.068 28.43 6.393-29.946.205-.982z" fill="#131b28"/><path d="M465.98 35.038l-.704-2.91-.697-2.981-.353-1.509c-1.381-5.363-5.434-8.459-14.233-8.459l-13.7-.015-12.617-.015H409.48c-.852 0-1.695.681-1.871 1.516h-.001l-.628 2.966-.74 3.503-.207.981-6.393 29.946-6.068 28.428c-.181.836-.241 1.858-.138 2.275.103.418 1.738.76 2.592.76h12.808c.854 0 1.933-.154 2.396-.342.465-.188 1.152-1.863 1.322-2.698l2.276-11.262 2.279-11.26.004-.022.304-1.499 2.762-12.937 2.438-11.426c.181-.83 1.021-1.509 1.871-1.511l40.3-.02c.85 0 1.389-.677 1.194-1.509z" fill="#131b28"/><path d="M517.86 8.725c-.854.006-2.248.011-3.102.011h-12.899c-.854 0-1.945.576-2.427 1.28L470.91 51.803c-.482.706-1.031.601-1.221-.229l-2.099-9.207c-.189-.833-1.044-1.511-1.896-1.511h-18.338c-.853 0-1.358.669-1.125 1.489l8.217 28.784c.234.82.251 2.168.04 2.994l-3.581 13.931c-.213.827.312 1.504 1.166 1.504h18.122c.853 0 1.724-.677 1.936-1.504l3.583-13.931c.211-.826.804-2.061 1.318-2.742l46.306-61.459c.514-.681.235-1.235-.616-1.229l-4.862.032zM372.18 44.774l-.001-.017c-.107.925-.961 1.604-1.812 1.604h-23.248c-.804 0-1.213-.547-1.094-1.221.007-.02.01-.037.021-.054 0 0-.008.002-.015.007.005-.027.005-.052.013-.078l.106-.396c2.221-5.903 6.743-9.778 15.243-9.778 9.569.001 11.437 4.677 10.787 9.933zm-6.82-26.834c-29.841 0-36.912 18.113-40.879 36.394-3.967 18.633-3.625 36.055 27.253 36.055h1.097c.098-.002.197-.002.295-.002h1.992c.12-.002.239-.002.361-.002l.931-.002h.218c1.223-.002 2.463-.008 3.705-.012h.062c8.155-.032 16.334-.094 19.646-.12.848-.013 1.677-.696 1.851-1.523l1.25-6.11.243-1.189 1.492-7.287c.171-.836-.388-1.52-1.24-1.52h-27.762c-11.041 0-14.319-2.934-13.111-11.56h44.377l-.004.005c.011 0 .021-.005.03-.005.705-.013 1.357-.498 1.616-1.145.049-.125.091-.254.107-.388l-.005.005c6.589-24.854 4.699-41.592-23.528-41.592l.003-.002zM224.32 44.679l-.42 1.487-.001.005-3.351 11.875-3.35 11.873c-.231.82-1.118 1.491-1.973 1.491H197.49c-13.452 0-16.729-10.521-13.452-26.042 3.274-15.874 9.697-25.742 22.938-26.741 18.093-1.364 21.713 11.362 17.344 26.052zm12.163 25.818s8.362-20.303 10.262-32.031C249.334 22.767 241.474 0 211.114 0c-30.187 0-43.295 21.737-48.297 45.367-5.001 23.801 1.552 44.675 31.567 44.504l23.679-.088 22.131-.08c.853-.008 1.724-.684 1.941-1.507l3.854-14.705c.215-.825-.306-1.504-1.158-1.509l-3.695-.021-3.693-.022c-.726-.005-1.141-.474-1.053-1.097a1.5 1.5 0 0 1 .091-.347l.002.002z" fill="#131b28"/><path d="M385.92 56.908a1.018 1.018 0 1 1-2.036 0 1.018 1.018 0 0 1 2.036 0z" fill="#131b28"/><path d="M5.979 30.509c-8.335 11.98-7.298 27.566-.931 40.295.151.306.311.605.467.906.1.19.193.386.298.573.059.112.124.223.186.33.108.202.22.396.332.593.197.35.4.696.607 1.043.115.19.229.381.347.571.229.371.465.737.706 1.104.1.156.197.312.3.464.332.495.672.988 1.021 1.475l.029.039c.056.078.116.153.173.231.303.418.615.83.931 1.238.116.148.233.298.351.446a75.153 75.153 0 0 0 1.189 1.451 53.794 53.794 0 0 0 1.222 1.394c.018.02.032.031.046.051a58.825 58.825 0 0 0 2.583 2.632c.134.127.266.257.398.378a49.267 49.267 0 0 0 1.354 1.231c.077.068.156.133.232.198.397.345.803.687 1.21 1.022.166.135.335.267.502.4.333.267.67.53 1.01.789l.539.41c.375.275.752.547 1.133.813.14.1.273.197.413.292.039.027.074.055.113.081.361.249.731.488 1.1.728.159.105.316.215.477.317.566.359 1.142.713 1.723 1.055.157.091.317.179.476.269.428.247.857.488 1.293.726.235.127.478.246.715.368.308.161.613.325.926.481.07.034.144.068.214.103.125.061.252.119.378.183a59.307 59.307 0 0 0 1.777.819c.565.246 1.135.483 1.71.71.138.057.277.11.416.164a59.485 59.485 0 0 0 1.816.668c.595.208 1.195.4 1.8.589.144.042.289.088.435.13.615.186 1.224.407 1.857.524 40.311 7.351 52.02-24.224 52.02-24.224-9.834 12.812-27.29 16.19-43.829 12.429-.626-.142-1.234-.337-1.846-.518a53.388 53.388 0 0 1-2.237-.718l-.244-.088a57.277 57.277 0 0 1-1.567-.581c-.146-.059-.293-.114-.439-.173a51.415 51.415 0 0 1-1.692-.703c-.114-.049-.225-.101-.338-.149a77.238 77.238 0 0 1-1.84-.862c-.371-.181-.737-.373-1.104-.562-.245-.129-.494-.251-.737-.386a42.673 42.673 0 0 1-1.323-.742c-.147-.083-.298-.163-.446-.249a63.03 63.03 0 0 1-1.724-1.056c-.156-.1-.31-.206-.465-.31a47.36 47.36 0 0 1-1.226-.815c-.135-.09-.264-.188-.396-.277-.39-.275-.775-.555-1.159-.838-.174-.129-.345-.26-.514-.389a84.888 84.888 0 0 1-1.513-1.191 59.452 59.452 0 0 1-1.302-1.098l-.144-.12a59.96 59.96 0 0 1-1.369-1.245c-.131-.125-.258-.246-.386-.371a40.706 40.706 0 0 1-.984-.965c-.129-.129-.259-.256-.386-.385-.41-.42-.812-.846-1.207-1.277l-.06-.063a49.015 49.015 0 0 1-1.225-1.394c-.108-.13-.214-.254-.321-.381a51.13 51.13 0 0 1-.881-1.09 26.985 26.985 0 0 1-.323-.402c-.347-.45-.686-.899-1.018-1.355-9.183-12.524-12.481-29.8-5.143-43.987" fill="#0868ac"/><path d="M31.852 20.416c-6.027 8.674-5.7 20.286-.998 29.46a38.346 38.346 0 0 0 2.666 4.451c.903 1.294 1.904 2.834 3.103 3.875.435.479.889.945 1.353 1.404.117.12.237.234.356.352.45.437.908.867 1.382 1.284.02.015.037.034.056.049.006.005.011.007.014.013.523.459 1.064.901 1.614 1.335.122.093.242.19.366.286.55.422 1.112.837 1.688 1.233.018.012.032.024.049.037.254.176.513.339.771.508.123.08.24.166.365.241.411.264.827.521 1.251.767.061.037.118.068.177.103.365.21.735.417 1.106.617.13.073.261.137.394.205.256.135.513.271.773.4.039.02.079.037.117.054.531.262 1.066.514 1.613.752.117.052.238.098.356.146.438.186.879.367 1.323.537.188.071.379.14.566.208.403.149.808.286 1.215.423.185.059.365.119.55.176.579.18 1.152.407 1.756.508 31.123 5.156 38.309-18.807 38.309-18.807-6.478 9.329-19.021 13.779-32.405 10.305a38.002 38.002 0 0 1-2.292-.681 35.14 35.14 0 0 1-1.79-.633 40.373 40.373 0 0 1-1.327-.535c-.119-.051-.24-.098-.357-.151a37.454 37.454 0 0 1-1.623-.754c-.275-.134-.545-.276-.814-.415l-.47-.242a36.88 36.88 0 0 1-1.03-.581c-.081-.046-.165-.091-.247-.139-.421-.247-.836-.5-1.247-.762-.127-.081-.249-.168-.376-.251a49.173 49.173 0 0 1-.809-.535 45.035 45.035 0 0 1-1.682-1.23c-.127-.1-.254-.198-.379-.298-5.859-4.626-10.503-10.947-12.711-18.115-2.314-7.434-1.815-15.779 2.194-22.551" fill="#0868ac"/><path d="M53.613 12.875c-3.553 5.229-3.902 11.724-1.437 17.5 2.601 6.13 7.929 10.94 14.147 13.22.256.096.513.181.772.269.113.034.226.074.341.107.366.115.729.249 1.108.32 17.185 3.32 21.846-8.818 23.087-10.605-4.083 5.879-10.945 7.29-19.364 5.247a21.91 21.91 0 0 1-2.037-.629 24.899 24.899 0 0 1-2.419-1.005 25.021 25.021 0 0 1-4.241-2.588c-7.534-5.716-12.214-16.621-7.298-25.502M247.16 114.73l-4.954 11.281h-5.469l.448-10.251-4.026 10.251h-5.295l-.14-11.281.585-2.786h3.75l-.723 11.144 4.163-11.144h5.228l-.378 11.282 4.128-11.282h3.267l-.584 2.786zM255.79 118.07c.481-2.203.344-2.615-.791-2.615h-1.721l-1.101 5.161-1.686 5.397h-3.198l2.613-12.243.38-1.79h2.923l.379.825s1.686-.996 3.335-.996c3.51 0 3.234 2.646 2.477 6.26l-3.61.001zM266.18 110.189c-1.409 0-2.304-.412-1.96-2.131.378-1.721 1.479-2.134 2.854-2.134 1.378 0 2.306.413 1.928 2.134-.346 1.685-1.445 2.131-2.822 2.131zm-1.513 15.824h-3.166l.62-5.503 1.101-5.09-2.2-.483.618-2.991h6.019l-2.992 14.067zM278.39 114.93l-3.955.484-1.137 5.365c-.31 1.48-.31 1.893.999 1.893h2.647l-.551 2.819s-2.406.723-3.439.723c-4.059 0-4.025-2.235-3.301-5.573l1.101-5.262-2.202-.48.653-2.993h2.306l1.308-3.545h3.13l-.758 3.545h3.853l-.654 3.024zM286.61 115.109c-1.856 0-2.82.965-3.198 2.684l5.297-.447c.239-1.169-.001-2.237-2.099-2.237zm-3.713 5.228c-.243 1.722.411 2.305 2.612 2.305h5.537l-.55 2.614s-3.336.928-5.812.928c-6.157 0-6.227-3.471-5.435-7.188.791-3.646 2.2-7.256 8.15-7.256 5.746 0 6.021 3.473 4.61 8.597h-9.112zM304.63 126.01h-3.163l.619-5.503 2.236-10.457-2.204-.515.654-2.993h6.021l-4.163 19.468zM316.06 115.109c-1.859 0-2.821.965-3.2 2.684l5.298-.447c.239-1.169-.001-2.237-2.098-2.237zm-3.716 5.228c-.24 1.722.414 2.305 2.613 2.305h5.539l-.551 2.614s-3.338.928-5.814.928c-6.157 0-6.225-3.471-5.434-7.188.792-3.646 2.202-7.256 8.152-7.256 5.744 0 6.02 3.473 4.61 8.597h-9.115zM335.97 115.28s-4.024.034-5.125.034c-2.34 0-2.58.721-2.751 1.477l-.14.688 7.431.552s.034 2.373-.275 3.714c-.447 2.236-2.752 4.505-6.913 4.505-2.065 0-5.401-.789-5.401-.789l.584-2.717h5.126c2.271 0 2.581-.621 2.72-1.238l.171-.894-7.292-.552s-.275-1.824.103-3.645c.552-2.479 2.819-4.609 6.981-4.609 2.064 0 5.4.754 5.4.754l-.619 2.72zM349.8 115.28s-4.023.034-5.125.034c-2.339 0-2.579.721-2.751 1.477l-.14.688 7.432.552s.034 2.373-.275 3.714c-.447 2.236-2.752 4.505-6.914 4.505-2.063 0-5.4-.789-5.4-.789l.585-2.717h5.125c2.27 0 2.579-.621 2.719-1.238l.171-.894-7.293-.552s-.274-1.824.103-3.645c.552-2.479 2.82-4.609 6.984-4.609 2.062 0 5.398.754 5.398.754l-.619 2.72zM354.13 128.25h-2.75l.103-2.065c-.999-.065-1.514-.788-1.273-1.995.378-1.719 1.445-2.131 2.855-2.131 1.375 0 2.302.412 1.926 2.131l-.861 4.06zM372.53 115.42c-2.062 0-2.784 1.238-3.267 3.508-.481 2.271-.344 3.611 1.719 3.611h2.855l1.583-7.119h-2.89zm4.713 8.769l-.38 1.824-2.887-.035-.414-.893s-2.547 1.098-4.264 1.098c-4.404 0-4.611-3.61-3.82-7.256.791-3.715 2.512-7.224 6.88-7.224 1.584 0 3.715.791 3.715.791l1.754-5.95h3.166l-3.75 17.645zM388.63 115.28c-2.682 0-3.544 1.511-4.024 3.713-.447 2.236-.239 3.75 2.406 3.75 2.753 0 3.579-1.479 4.06-3.75.483-2.134.343-3.713-2.442-3.713zm-2.338 10.938c-5.676 0-6.124-3.542-5.367-7.224.792-3.68 2.787-7.188 8.463-7.188 5.64 0 6.157 3.508 5.364 7.188-.79 3.75-2.786 7.224-8.46 7.224zM418.49 126.01l.62-5.435.31-1.548c.447-2.062.723-3.576-1.445-3.576h-1.685c.069 1.066-.139 2.271-.413 3.542l-1.479 7.017h-3.199l.619-5.435.309-1.548c.448-2.062.722-3.576-1.442-3.576h-1.378l-2.271 10.559h-3.681l2.993-14.066h2.889l.447.859s1.962-1.033 3.544-1.033c1.203 0 2.098.552 2.408 1.238.687-.379 2.648-1.238 4.06-1.238 4.399 0 4.264 3.576 3.472 7.225l-1.479 7.016h-3.199v-.001zM433.11 115.28c-2.685 0-3.544 1.511-4.024 3.713-.447 2.236-.239 3.75 2.407 3.75 2.751 0 3.579-1.479 4.06-3.75.48-2.134.343-3.713-2.443-3.713zm-2.339 10.938c-5.678 0-6.123-3.542-5.366-7.224.791-3.68 2.786-7.188 8.462-7.188 5.643 0 6.157 3.508 5.365 7.188-.79 3.75-2.786 7.224-8.461 7.224zM448.79 118.07c.48-2.203.344-2.615-.79-2.615h-1.722l-1.101 5.161-1.687 5.397h-3.197l2.613-12.243.379-1.79h2.924l.377.825s1.687-.996 3.339-.996c3.507 0 3.231 2.646 2.475 6.26l-3.61.001zM461.11 115.109c-1.855 0-2.819.965-3.197 2.684l5.295-.447c.241-1.169-.001-2.237-2.098-2.237zm-3.715 5.228c-.239 1.722.413 2.305 2.614 2.305h5.538l-.55 2.614s-3.337.928-5.812.928c-6.157 0-6.226-3.471-5.438-7.188.793-3.646 2.204-7.256 8.153-7.256 5.743 0 6.021 3.473 4.609 8.597h-9.114zM469.6 126.22c-1.445 0-2.338-.412-1.959-2.097.342-1.724 1.408-2.134 2.854-2.134 1.341 0 2.269.41 1.927 2.134-.381 1.65-1.479 2.097-2.822 2.097z" fill="#0868ac"/></svg>