<?xml version="1.0" encoding="iso-8859-1"?>
<!-- Generator: Adobe Illustrator 21.0.0, SVG Export Plug-In . SVG Version: 6.00 Build 0)  -->
<svg xmlns="http://www.w3.org/2000/svg" xmlns:xlink="http://www.w3.org/1999/xlink" version="1.1" id="Capa_1" x="0px" y="0px" viewBox="0 0 512.081 512.081" style="enable-background:new 0 0 512.081 512.081;" xml:space="preserve" width="512" height="512">
<g>
	<path style="fill:#7FE881;" d="M358.862,257.382l89.399-112.402c29.7-38.099,24.001-95.099-16.198-126.299   c-39.899-30.601-96.002-22.5-126.002,16.199c-2.399,2.701-71.396,89.101-80.398,99.901c-0.3,0.601-0.601,0.899-0.601,0.899V90.081   c0-49.501-40.499-90-90-90s-90,40.499-90,90v332c0,49.499,40.499,90,90,90s90-40.501,90-90v-44.7   c2.402,2.999,80.698,99.7,80.999,99.7c30.901,39.3,86.704,46.5,126.002,15.899c40.499-31.5,45.597-86.8,16.198-125.199   L358.862,257.382z"/>
	<path style="fill:#5BC980;" d="M448.262,367.781c29.399,38.399,24.302,93.699-16.198,125.199   c-39.298,30.601-95.101,23.401-126.002-15.899c-0.3,0-78.596-96.7-80.999-99.7V135.68c0,0,0.3-0.298,0.601-0.899   c9.001-10.8,77.999-97.2,80.398-99.901c30-38.699,86.104-46.8,126.002-16.199c40.199,31.199,45.897,88.2,16.198,126.299   l-89.399,112.402L448.262,367.781z"/>
</g>















</svg>
