<?xml version="1.0" encoding="utf-8"?>
<!-- Generator: Adobe Illustrator 22.1.0, SVG Export Plug-In . SVG Version: 6.00 Build 0)  -->
<svg version="1.1" baseProfile="basic" id="Layer_1"
	 xmlns="http://www.w3.org/2000/svg" xmlns:xlink="http://www.w3.org/1999/xlink" x="0px" y="0px" viewBox="0 0 2500 444.8"
	 xml:space="preserve">
<g>
	<path fill="#21409A" d="M0,101.5h140.1V431H0V101.5z"/>
	<path fill="#21409A" d="M0,431V101.5h140.1V431L0,431L0,431z M210.1,101.5h155.7l-75.2,163.4l81.1,166H213.4l-73.3-166L210.1,101.5
		z"/>
	<path fill="#21409A" d="M210.1,101.5h155.7l-75.2,163.4l81.1,166H213.4l-73.3-166L210.1,101.5z"/>
	<path fill="#21409A" d="M526,313.6c25.8,0,46.8-20.9,46.8-46.8s-20.9-46.8-46.8-46.8c-25.8,0.4-46.5,21.6-46.1,47.5
		C480.3,292.9,500.7,313.3,526,313.6L526,313.6z M348,266.9c0-98.3,79.7-178,177.9-178c98.3,0,178,79.7,178,178s-79.7,178-178,178
		C427.7,444.8,348,365.2,348,266.9z"/>
	<path fill="#21409A" d="M526,313.6c25.8,0,46.8-20.9,46.8-46.8s-20.9-46.8-46.8-46.8c-25.8,0.4-46.5,21.6-46.1,47.5
		C480.3,292.9,500.7,313.3,526,313.6L526,313.6z M348,266.9c0-98.3,79.7-178,177.9-178c98.3,0,178,79.7,178,178s-79.7,178-178,178
		C427.7,444.8,348,365.2,348,266.9z M709.5,431l50.6-329.5h124.5L926.1,228l41.5-126.5h125.8l48.6,300.9l104.4-300.9h134.9
		L1496.8,431h-144l-38.3-153.1L1275.7,431h-258.8l-16.9-115.4L965,431h-77.8l-33.7-115.4L832.7,431H709.5z"/>
	<path fill="#21409A" d="M709.5,431l50.6-329.5h124.5L926.1,228l41.5-126.5h125.8l48.6,300.9l104.4-300.9h134.9L1496.8,431h-144
		l-38.3-153.1L1275.7,431h-258.8l-16.9-115.4L965,431h-77.8l-33.7-115.4L832.7,431H709.5z M1457.9,101.5h212.7V0h128.7v129.4h-127.1
		V431h-137.8V224.7h-76.5L1457.9,101.5z"/>
	<path fill="#21409A" d="M1457.9,101.5h212.7V0h128.7v129.4h-127.1V431h-137.8V224.7h-76.5L1457.9,101.5z"/>
	<path fill="#21409A" d="M2032.5,127.4l-34.4,90.1c0,0-36.3-26.5-82.7-28.5c-19.5-0.9-28.6,20.1,4.2,26.3
		c27.7,5.2,57.6,13.6,79.5,32.6c47.2,40.9,52.5,130.8-26.4,172.3c-52.5,27.6-158.9,22.5-228.3-24.2l35.7-88.8
		c0,0,55.1,38.6,101.2,37c19.5-0.7,28.6-23.3-4.2-29.5c-27.7-5.2-57.9-12.6-79.9-31.7c-47.2-40.9-51.5-128.9,26.4-172.3
		C1876.3,81.2,1959.3,81.6,2032.5,127.4"/>
	<path fill="#21409A" d="M2032.5,127.4l-34.4,90.1c0,0-36.3-26.5-82.7-28.5c-19.5-0.9-28.6,20.1,4.2,26.3
		c27.7,5.2,57.6,13.6,79.5,32.6c47.2,40.9,52.5,130.8-26.4,172.3c-52.5,27.6-158.9,22.5-228.3-24.2l35.7-88.8
		c0,0,55.1,38.6,101.2,37c19.5-0.7,28.6-23.3-4.2-29.5c-27.7-5.2-57.9-12.6-79.9-31.7c-47.2-40.9-51.5-128.9,26.4-172.3
		C1876.3,81.2,1959.3,81.6,2032.5,127.4L2032.5,127.4z M2067.6,101.5h136.8v201c0,23,34.4,23,34.4,0v-201H2375v217.9
		c0,10.4,0,116.1-152.4,116.1c-155,0-155-105.7-155-116.1L2067.6,101.5"/>
	<path fill="#21409A" d="M2067.6,101.5h136.8v201c0,23,34.4,23,34.4,0v-201H2375v217.9c0,10.4,0,116.1-152.4,116.1
		c-155,0-155-105.7-155-116.1L2067.6,101.5L2067.6,101.5z M2442.6,148.2v-16.9h11.2c5.7,0,11.8,1.3,11.8,8c0,8.4-6.2,8.9-13.2,8.9
		H2442.6z M2442.6,155.2h9.5l14.3,23.5h9.2l-15.4-23.8c8-1,14.1-5.2,14.1-15c0-10.7-6.4-15.5-19.2-15.5h-20.7v54.3h8.2L2442.6,155.2
		z M2452.6,198.5c25.6,0,47.4-19.8,47.4-47c0-27.1-21.8-46.8-47.4-46.8c-26,0-47.9,19.8-47.9,46.8
		C2404.7,178.7,2426.6,198.5,2452.6,198.5z M2414.1,151.5c0-22.3,16.9-39.1,38.5-39.1c21.3,0,38.1,16.7,38.1,39.1
		c0,22.6-16.7,39.2-38.1,39.2C2431,190.7,2414.1,174.1,2414.1,151.5z"/>
</g>
</svg>
