<svg xmlns="http://www.w3.org/2000/svg" width="2500" height="2500" viewBox="0 0 192.756 192.756"><path fill-rule="evenodd" clip-rule="evenodd" fill="#fff" d="M0 0h192.756v192.756H0V0z"/><path d="M140.795 82.271l-.002-.005a3.401 3.401 0 0 1-.434-1.665c0-1.87 1.506-3.387 3.367-3.387h37.158c1.859 0 3.367 1.517 3.367 3.387 0 .608-.158 1.179-.438 1.671h.002L165.27 114.59l-.053.074a3.356 3.356 0 0 1-4.6 1.239 3.37 3.37 0 0 1-1.221-1.218v.001l-18.601-32.415z" fill-rule="evenodd" clip-rule="evenodd" fill="#fff"/><path d="M140.795 82.271l-.002-.005a3.401 3.401 0 0 1-.434-1.665c0-1.87 1.506-3.387 3.367-3.387h37.158c1.859 0 3.367 1.517 3.367 3.387 0 .608-.158 1.179-.438 1.671h.002L165.27 114.59l-.053.074a3.357 3.357 0 0 1-5.821.021v.001l-18.601-32.415" fill="none" stroke="#000" stroke-width=".609" stroke-miterlimit="2.613"/><path d="M157.326 106.253c0-.726.584-1.315 1.307-1.315s1.307.59 1.307 1.315c0 .727-.584 1.315-1.307 1.314a1.309 1.309 0 0 1-1.307-1.314zm1.279 2.254a2.263 2.263 0 0 0 2.256-2.269 2.261 2.261 0 0 0-2.256-2.266 2.26 2.26 0 0 0-2.252 2.266 2.261 2.261 0 0 0 2.252 2.269z" fill-rule="evenodd" clip-rule="evenodd" fill="#cc222d" stroke="#000" stroke-width=".342" stroke-miterlimit="2.613"/><path d="M166.805 96.145l-5.047 8.942c-.494-.013-1.426-.391-2.033-.739-.604-.347-1.381-.95-1.729-1.425l5.059-8.926 3.75 2.148z" fill-rule="evenodd" clip-rule="evenodd" fill="#cc222d" stroke="#000" stroke-width=".427" stroke-miterlimit="2.613"/><path d="M173.182 85.75l-.881.249.242.883-5.352 9.484-4.488-2.568 5.35-9.48.834-.268-.195-.863c.006-.006-.004.008 0 0 .271-.477.635-1.124.682-1.206a5.41 5.41 0 0 1 2.553.734c1.064.608 1.68 1.286 1.936 1.829l-.681 1.206z" fill-rule="evenodd" clip-rule="evenodd" fill="#cc222d" stroke="#000" stroke-width=".427" stroke-miterlimit="2.613"/><path d="M172.377 82.086c.51.293.982.626 1.389.992l.898-1.588-2.922-1.682-.902 1.601a8.14 8.14 0 0 1 1.537.677zM174.303 78.697a8.48 8.48 0 0 0-1.541-.694l-.701 1.24 2.92 1.682.701-1.238a8.335 8.335 0 0 0-1.379-.99zM176.752 89.723c0 1.008-.783 1.827-1.752 1.827h-25.395c-.967 0-1.752-.818-1.752-1.827v-2.585c0-1.009.785-1.825 1.752-1.825H175c.969 0 1.752.816 1.752 1.825v2.585z" fill-rule="evenodd" clip-rule="evenodd"/><path d="M159.438 88.325c-.002-.559.268-.936.969-.936.703 0 .973.377.973.936 0 .557-.314.934-.973.934-.657 0-.971-.378-.969-.934zm-2.51 0c0 1.531 1.732 2.094 3.479 2.094 1.748 0 3.479-.563 3.479-2.094 0-.958-.672-2.096-3.479-2.096-2.805 0-3.479 1.137-3.479 2.096zM164.936 86.381h2.421l1.311 1.887h-.016v-1.887h2.219v4.011h-2.625l-1.105-1.635-.002.002v1.633h-2.203v-4.011zM171.988 86.381h2.35v4.011h-2.35v-4.011zM156.736 90.425l-1.777-2.123 1.732-1.886h-2.685l-1.223 1.653v-1.657h-2.426v4.017h2.426v-1.741l1.178 1.737h2.775z" fill-rule="evenodd" clip-rule="evenodd" fill="#fff"/><path d="M56.003 87.474c0-2.948 1.421-4.942 5.13-4.942 3.71 0 5.131 1.994 5.131 4.942 0 2.946-1.658 4.941-5.131 4.941-3.472 0-5.13-1.995-5.13-4.941zm-13.259 0c0 8.096 9.155 11.072 18.39 11.072 9.235 0 18.39-2.976 18.39-11.072 0-5.061-3.552-11.074-18.39-11.074-14.839 0-18.39 6.013-18.39 11.074zM122.207 76.849h12.416v21.194h-12.416V76.849zM84.112 76.876h12.812l7.07 10.213V76.876h11.508v21.193h-13.869l-6.088-8.977v8.977H84.112V76.876zM42.236 98.109l-9.391-11.222L42 76.916H27.794l-6.462 8.739v-8.76H8.508v21.237h12.824V88.92l6.225 9.189h14.679zM8.504 105.046H21.37v-.689H8.504v.689zM122.154 105.046h12.461v-.689h-12.461v.689z" fill-rule="evenodd" clip-rule="evenodd" fill="#cc222d"/><path d="M42.489 94.956c.195.197.372.426.408.73-.371.18-.708-.158-1.099-.14-2.482-.546-5.654-.236-7.277 2.067-.125.126-.053.304-.07.481.196.374.621.462.975.586 1.455.229 3.155.046 4.52.56 2.217.423 4.507 1.896 5.274 4.141.091.944.218 2.086-.542 2.747-1.271 1.981-3.557 2.576-5.54 3.348-.991.251-1.982.575-3.063.595-1.931.309-3.705-.062-5.69-.094a12.628 12.628 0 0 1-3.706-1.238c-.372-.141-.709-.39-1.063-.551-1.243-.833-2.894-1.775-3.075-3.396-.41-.962-.076-2.067.4-2.889.565-.731 1.362-1.339 2.354-1.076.39.179.729.445.817.873-.015.873-.828 1.393-.88 2.247-.141.84.198 1.462.696 2.013 3.124 2.168 7.483 2.104 11.273 1.471 1.948-.273 4.109-1.098 4.883-3.132.087-.534.016-1.105-.234-1.568-1.314-1.548-3.335-1.667-5.32-1.751-.621-.267-1.383-.211-2.003-.477-1.082-.192-2.218-.477-2.928-1.455-.517-.979-.609-2.424.099-3.334 1.713-2.411 4.865-3.096 7.613-2.372 1.153.352 2.288.69 3.178 1.614zM98.816 98.558c.514.854-.264 1.604-.74 2.283-.459.357-1.078.537-1.664.414-.354-.123-.816-.301-.888-.729.051-.963.828-1.697 1.571-2.215.532-.142 1.241-.109 1.721.247z" fill-rule="evenodd" clip-rule="evenodd"/><path d="M124.205 96.89c.928 2.833-1.211 4.888-2.641 6.978-.9 1.393-2.547 2.021-3.66 3.2-.107.375.338.497.533.693 1.809.798 3.775.224 5.617-.085.672-.002 1.436.05 1.863.655.037.516-.531.606-.832.911-2.531 1.29-6.357 1.728-8.93.129-.479-.23-.5-1.122-1.209-.906-1.539.966-3.166 1.683-4.92 2.097-.906-.031-1.988-.227-2.449-1.08-.318-.392-.039-1.428-.801-1.211-1.484 1.003-3.061 1.951-4.922 1.956-.939-.142-1.686-.853-2.324-1.546-.814-.123-1.346.645-2.035.896-1.486.683-3.293 1.471-4.995.745-1.03-.641-.927-1.923-.822-2.976-.32-.321-.728.037-1.046.18-1.875 1.04-3.841 1.847-5.824 2.582-1.558.433-3.558 1.399-5.068.245-.729-.767-.82-2.05-.415-3.013.123-.41.495-.679.512-1.144-.32-.23-.656.146-1.029.11a16.895 16.895 0 0 0-3.717 1.773c-1.734.825-3.291 2.06-5.239 2.402-1.453.538-3.296.543-4.802.153-.71-.247-1.101-.87-1.546-1.457-.78-.142-1.487.359-2.213.559-.389.214-.885.18-1.24.431-1.471.306-3.486 1.434-4.713-.095-.643-1.675 1.357-2.659 1.229-4.248-.195-.284-.584-.229-.867-.193-1.452.414-2.94.757-4.232 1.598-2.477 2.021-4.242 4.663-5.777 7.377-.495.464-1.132.786-1.824.592-.247-.054-.495-.159-.691-.391-.09-.569.458-.963.616-1.481 1.325-1.855 2.401-3.589 3.673-5.393.954-1.356 1.977-2.839 2.95-4.159-.001-.144.123-.286.034-.429-.55-.231-1.188-.015-1.683.182-.886.234-2.213 1.021-2.942.043.158-.553.778-.84 1.185-1.178 1.132-.772 2.318-1.38 3.647-1.65 1.345-.235 3.242-.239 3.972 1.113.125.624-.352 1.035-.279 1.587.407.268.779-.197 1.24-.145.938-.396 2.267-.327 3.206.027.481.302.941.711.943 1.316.145 1.104-.314 1.997-.719 2.854-.072.178.001.445.231.48 1.241.016 2.427-.381 3.597-.668.832-.483.898-1.554 1.466-2.25 1.536-1.841 3.641-3.359 6.141-3.277.745.141 1.454.62 1.828 1.314.338.854.216 1.711-.312 2.427-.814.928-1.857 1.57-2.85 2.182l-.176.214c.32.213.763.087 1.081-.038 2.48-.631 4.763-1.724 6.923-3.102.549-.18.938-.467 1.469-.664.672-.375 1.398-.592 2.106-.879 2.071-.735 4.746-1.615 6.893-.533.107.268.39.374.392.694 0 .304-.088.588-.354.731-2.018.647-4.161 1.687-5.395 3.579-.106.286-.07.535-.035.838.373.444.94.532 1.508.37 2.479-.843 4.671-2.346 6.992-3.582 1.379-.786 2.636-1.825 4.068-2.505.46-.233 1.046-.146 1.454.138 1.049 1.852-.983 3.283-.962 5.065.178.534.727.23 1.135.265 1.045-.306 2.07-.682 3.01-1.255.861-1.928 2.648-3.411 4.471-4.379 1.045-.571 2.25-.861 3.473-.881.992.033 2.092.226 2.697 1.08.568.927.465 2.192.219 3.227.018.428.127.821.375 1.14 1.119.711 2.375-.041 3.418-.382.551-.305 1.242-.484 1.611-1.056.615-2.195 1.797-4.158 2.998-6.069 1.166-1.375 2.582-3.002 4.332-3.486.601-.087 1.115.141 1.382.658zm-2.652 2.129c-1.557 1.145-2.6 2.823-3.338 4.554-.053.143-.088.339.037.445.795-.306 1.379-1.091 1.963-1.698.742-.964 1.518-2 1.711-3.23-.072-.125-.25-.036-.373-.071zm-51.751 4.868c-.955.323-1.841.808-2.619 1.575-.105.071-.089.285-.035.34.354.087.796-.021 1.133-.2.744-.251 1.7-.717 1.928-1.573-.124-.089-.249-.178-.407-.142zm37.479.532c-.654-.23-1.363.073-1.965.29-1.045.376-2.055 1.074-2.619 2.056-.088.252-.016.554.215.624 1.328.176 2.195-.914 3.275-1.434.389-.537 1.078-.77 1.166-1.43l-.072-.106z" fill-rule="evenodd" clip-rule="evenodd"/></svg>