<svg width="73" height="29" viewBox="0 0 73 29" fill="none" xmlns="http://www.w3.org/2000/svg">
<path fill-rule="evenodd" clip-rule="evenodd" d="M8.1357 22.6358L7.1947 20.3435L6.47873 22.6358H8.1357ZM37.0871 22.6358L36.806 17.9878L35.4301 22.6358H37.0871ZM20.3757 14.0393V0.457901H4.68115V14.193L5.20657 12.4422L5.32707 12.0405H9.869L9.6497 12.768C9.3038 13.9123 8.7993 15.5836 8.2521 17.3984L13.4002 12.2077L13.5654 12.0405H19.361L18.3159 13.0168L11.1874 19.6763L12.5739 22.6358H17.7822L20.3757 14.0393ZM22.0602 0.457901V12.0393H25.2291C27.664 12.0098 30.1817 11.9794 31.4674 13.5049C32.1993 14.3738 32.4075 15.5934 32.1047 17.2336C31.826 18.7423 30.4977 22.2489 24.1984 22.2423L22.15 22.2428L22.0598 22.5444V22.6362H31.4842L34.6084 12.4377L34.7305 12.0389H37.7548V0.457901H22.0602ZM46.2382 22.6358L47.5074 18.366L44.7476 22.6358H46.2382Z" fill="#445364"/>
<path fill-rule="evenodd" clip-rule="evenodd" d="M50.6467 22.6358H52.4423C52.4382 21.8407 52.5615 20.928 52.88 19.8796C53.5107 17.8033 54.28 16.2484 55.1349 15.0828V0.457901H39.4399V12.0385H40.5375L40.5863 12.5479C40.6113 12.8028 41.0769 17.707 40.9609 22.3604C42.0535 20.1349 43.9675 16.7316 47.1799 12.2725L47.3487 12.038H53.2874L53.1128 12.7385L50.6467 22.6358ZM56.8198 0.457901V13.3336C58.5616 11.9967 60.499 11.7225 62.3318 11.7225C64.6741 11.7225 66.5192 12.4995 67.5254 13.9102C68.2987 14.9947 68.4922 16.3439 68.0561 17.6115L67.9249 17.9927L67.5225 17.9923L64.44 17.9886L63.538 17.9873L63.931 17.1828C63.9384 17.1627 63.9503 17.1074 63.9589 17.0709C63.97 17.0164 63.9839 16.9554 64.0027 16.8914C64.1638 16.3504 64.1478 15.9377 63.9556 15.666C63.6867 15.2873 63.015 15.0615 62.0129 15.0143C59.7318 14.9065 58.2473 16.4787 57.2014 20.112C56.9899 20.8472 56.8628 21.5136 56.8202 22.1026V22.6358H62.3113L62.3322 22.5682H58.9871L59.2153 21.8366L59.9231 19.5677L60.0465 19.1714H67.5614L67.3606 19.8878L66.5897 22.6358H72.5156V0.457901H56.8198Z" fill="#445364"/>
<path fill-rule="evenodd" clip-rule="evenodd" d="M46.2387 22.6358L47.508 18.366L44.748 22.6358H46.2387Z" fill="#445364"/>
<path fill-rule="evenodd" clip-rule="evenodd" d="M52.5652 12.0386H47.3487L47.1798 12.273C43.9674 16.7317 42.0535 20.1355 40.9608 22.3609C41.0768 17.7076 40.6108 12.8034 40.5862 12.5484L40.5375 12.039H34.7312L34.6091 12.4378L30.0159 27.4311L29.793 28.1602H33.7943L33.9135 27.7565L36.8058 17.9879L37.3886 27.6299L37.4206 28.1602H41.178L41.3453 27.9024L47.5073 18.3658L44.8105 27.4352L44.5953 28.1602H49.27L49.3766 27.7324L53.1123 12.739L53.2869 12.0386H52.5652Z" fill="#445364"/>
<path fill-rule="evenodd" clip-rule="evenodd" d="M48.8294 27.5959H45.3523L49.1696 14.7551L40.8719 27.5959H37.9517L37.1759 14.753L33.3733 27.5959H30.5557L35.1484 12.603H40.0247C40.0247 12.603 40.769 20.2986 40.1977 25.5737C40.1977 25.5737 41.6481 20.9138 47.6372 12.603H52.5647L48.8294 27.5959Z" fill="#606E7E"/>
<path fill-rule="evenodd" clip-rule="evenodd" d="M67.5252 13.9101C66.519 12.4994 64.6739 11.7224 62.3317 11.7224C58.8841 11.7224 55.0652 12.6913 52.8799 19.8799C51.9315 22.9992 52.6901 24.9468 53.4946 26.0316C54.866 27.8829 57.2472 28.5419 59.0181 28.5419C60.9112 28.5419 63.8932 28.2329 64.901 27.8333L65.1604 27.7304L65.2358 27.4616L67.3605 19.8881L67.5613 19.1717H60.0464L59.923 19.568L59.2152 21.8369L58.987 22.5685H62.3321L61.546 25.048C61.3907 25.112 60.9177 25.2456 59.6689 25.2497C58.5468 25.2534 57.7484 24.9525 57.298 24.3558C56.673 23.5291 56.6402 22.0615 57.2013 20.1123C58.2476 16.4794 59.7316 14.9073 62.0128 15.0147C63.0149 15.0618 63.6866 15.2876 63.9555 15.6663C64.1477 15.938 64.1637 16.3507 64.0026 16.8917C63.9833 16.9553 63.9698 17.0167 63.9588 17.0712C63.9502 17.1081 63.9379 17.1635 63.9309 17.1831L63.5378 17.9877L64.4399 17.9889L67.5223 17.9926L67.9248 17.993L68.056 17.6118C68.4924 16.3438 68.2986 14.9946 67.5252 13.9101Z" fill="#445364"/>
<path fill-rule="evenodd" clip-rule="evenodd" d="M67.5228 17.4283L64.4403 17.4242C64.4907 17.3214 64.5075 17.1722 64.5428 17.0525C65.076 15.2648 63.976 14.5426 62.039 14.4508C59.1795 14.316 57.6323 16.5771 56.6589 19.9563C55.6101 23.5998 56.4925 25.824 59.6713 25.8134C62.1968 25.8048 62.0624 25.2847 62.0624 25.2847L63.103 22.0047H59.7537L60.4607 19.7358H66.8174L64.6928 27.3093C63.8436 27.6462 61.0234 27.9786 59.018 27.9786C56.0011 27.9786 51.6173 25.9679 53.4194 20.0444C55.5744 12.9573 59.3143 12.2864 62.332 12.2864C66.7424 12.2864 68.313 15.1312 67.5228 17.4283Z" fill="#606E7E"/>
<path fill-rule="evenodd" clip-rule="evenodd" d="M19.3616 12.0402H13.566L13.4008 12.2074L8.2528 17.3981C8.7995 15.5833 9.3044 13.912 9.6503 12.7677L9.8696 12.0402H5.32773L5.20723 12.4419L0.70429 27.4422L0.48584 28.168H5.0642L5.15887 27.7209C5.21297 27.5037 6.17815 24.2872 7.2421 20.7511L10.0942 27.8151L10.2364 28.1676H15.166L14.7898 27.3647L11.1877 19.6756L18.3161 13.0161L19.3616 12.0402Z" fill="#445364"/>
<path fill-rule="evenodd" clip-rule="evenodd" d="M4.60684 27.6048H1.24365L5.74661 12.6045H9.1094C9.1094 12.6045 4.672 27.297 4.60684 27.6048ZM7.2323 19.2305H7.2298L13.8013 12.6045H17.9317L10.5033 19.5444L14.2796 27.6048H10.6172L7.2303 19.2157L7.2323 19.2305Z" fill="#606E7E"/>
<path fill-rule="evenodd" clip-rule="evenodd" d="M31.4679 13.505C30.1823 11.9792 27.6646 12.0099 25.2297 12.0394H20.9792L20.8587 12.4407L16.334 27.4414L16.1147 28.1681H20.3788L20.4989 27.7656L22.1505 22.2425L24.1989 22.2421C30.4983 22.2491 31.8266 18.742 32.1053 17.2334C32.4081 15.5936 32.1999 14.3739 31.4679 13.505Z" fill="#445364"/>
<path fill-rule="evenodd" clip-rule="evenodd" d="M31.5505 17.1312C31.1033 19.5509 28.9889 21.6833 24.1991 21.678L21.731 21.6792L19.9593 27.6039H16.8735L21.3982 12.6032H25.2208C28.6791 12.5614 32.4046 12.5085 31.5505 17.1312Z" fill="#606E7E"/>
<path fill-rule="evenodd" clip-rule="evenodd" d="M22.314 19.4764C23.4283 19.4764 24.2427 19.4941 24.9927 19.4801C27.2469 19.4391 27.9379 18.66 28.4461 17.1317C29.3277 14.4797 27.071 14.7588 23.6886 14.7624L22.314 19.4764Z" fill="#445364"/>
</svg>
