<svg xmlns="http://www.w3.org/2000/svg" width="2500" height="2500" viewBox="0 0 192.756 192.756"><g fill-rule="evenodd" clip-rule="evenodd"><path fill="#fff" d="M0 0h192.756v192.756H0V0z"/><path d="M166.498 114.131c9.805 0 17.754-7.947 17.754-17.753 0-9.805-7.949-17.753-17.754-17.753s-17.754 7.948-17.754 17.753c0 9.806 7.949 17.753 17.754 17.753z" fill="#2d4f9e"/><path d="M169.402 99.904c4.748 0 8.6-3.851 8.6-8.6a8.601 8.601 0 0 0-17.202 0 8.602 8.602 0 0 0 8.602 8.6z" fill="#d9782d"/><path d="M172.475 101.627a8.473 8.473 0 0 0 2.789-1.414l-.004 7.072h-6.59v-3.145c2.406.001 3.268-1.21 3.805-2.513z" fill="#fff"/><path d="M156.795 104.168c1.896 0 3.375-.963 3.375-2.594v-9.459c0-2.026-1.479-3.086-3.375-3.086v-3.008h12.646v3.008c-1.896 0-3.375 1.06-3.375 3.086v15.17h-9.271v-3.117z" fill="#2d4f9e" stroke="#2d4f9e" stroke-width="1.778" stroke-miterlimit="2.613"/><path d="M156.795 104.168c1.896 0 3.375-.963 3.375-2.594v-9.459c0-2.026-1.479-3.086-3.375-3.086v-3.008h12.646v3.008c-1.896 0-3.375 1.06-3.375 3.086v15.17h-9.271v-3.117z" fill="#fff"/><path d="M92.052 91.252v-3.504h14.452v6.146h-3.871v-2.537h-3.869v3.034h3.217v3.426h-3.113v3.949h3.766v-2.98h3.871v6.484H92.053v-3.412h1.886V91.253h-1.887v-.001zm32.157 10.644c-.969 0-.777-1.559-1.1-2.982-.34-1.502-1.164-2.379-2.275-2.379 2.293-.898 3.102-2.206 3.102-4.345 0-2.638-2.086-4.495-3.887-4.495H108.49v3.531h1.908v10.54h-1.908v3.504h7.977v-3.373h-1.23v-3.713c1.832 0 2.615.039 2.812 1.189l.98 5.896h5.859v-3.373h-.679zm-5.506-8.794l-.002-.006c-.004 1.778-1.738 1.909-2.627 1.909-.758 0-.838-.144-.838-.144V91.37s.08-.144.838-.144c.889 0 2.623.091 2.627 1.87l.002-.006v.012zm21.746.582v-6.12h-3.436v1.098s-.723-1.43-3.939-1.43-6.947 1.752-6.947 9.093c0 7.34 4.191 9.297 8.123 9.297s6.697-1.635 6.697-7.049h-4.094v.211c0 2.588-1.662 3.311-2.604 3.311-1.857 0-3.295-2.736-3.295-5.77 0-3.034 1.438-5.771 3.295-5.771.92 0 2.523.688 2.6 3.128h3.6v.002zm-64.207 0v-6.12h-3.435v1.098s-.724-1.43-3.94-1.43-6.948 1.752-6.948 9.093c0 7.34 4.193 9.297 8.125 9.297s6.695-1.635 6.695-7.049h-4.093v.211c0 2.588-1.661 3.311-2.603 3.311-1.859 0-3.295-2.736-3.295-5.77 0-3.034 1.436-5.771 3.295-5.771.919 0 2.523.688 2.6 3.128h3.599v.002zm-34.745 8.082H38.66V91.252h1.975v-3.504h-8.684v3.504h1.831v10.514H31.99v3.504h13.038v-6.484h-3.531v2.98zm-18.54 0v-2.98h-3.871v2.98H15.32v-3.949h3.112v-3.426h-3.216v-3.034h3.87v2.537h3.871v-6.146H8.504v3.504h1.886v10.605H8.504v3.412h14.452v-3.503h.001zm37.321 0v-2.98h-3.871v2.98h-3.766v-3.949h3.112v-3.426h-3.217v-3.034h3.871v2.537h3.871v-6.146H45.825v3.504h1.886v10.605h-1.886v3.412h14.452v-3.503h.001zm27.446 0h-2.838V91.252h1.975v-3.504h-8.683v3.504h1.831v10.514h-1.792v3.504h13.038v-6.484h-3.531v2.98zm-62.586-.524v4.027h4.028v-4.027h-4.028z" fill="#2d4f9e"/></g></svg>