<svg xmlns="http://www.w3.org/2000/svg" width="2500" height="2500" viewBox="0 0 192.756 192.756"><path fill-rule="evenodd" clip-rule="evenodd" fill="#fff" d="M0 0h192.756v192.756H0V0z"/><path fill-rule="evenodd" clip-rule="evenodd" d="M2.834 76.366h8.311v21.956l9.129.035v8.284H2.834V76.366zM33.077 106.641h-8.345V84.685l-9.13-.072v-8.247h17.475v30.275z"/><path fill-rule="evenodd" clip-rule="evenodd" d="M12.393 73.795h2.068v10.854h-2.068V73.795zM21.593 98.252h2.033v10.816h-2.033V98.252z"/><path fill-rule="evenodd" clip-rule="evenodd" fill="#cc2229" stroke="#cc2229" stroke-width=".216" stroke-miterlimit="2.613" d="M43.776 75.259h7.061v32.704h-7.061V75.259zM103.084 83.863h6.99v2.392c2.354-2.249 3.781-2.785 7.383-2.999v5.462c-2.318.179-7.383 2-7.383 6.248v13.031h-6.99V83.863zM143.205 86.113l-.035-2.25h-7.025v24.135h7.025V93.039c-.107-2.178 6.098-5.676 6.17.5v14.459h7.061V91.361c-.001-7.105-6.421-9.747-13.196-5.248z"/><path d="M124.232 83.256c-1.391-.106-2.781-.106-4.066-.143v5.498c1.535-.071 2.961-.036 4.066.143 1.568.25 2.568.785 2.604 1.785v1.749c-.855-.535-1.713-.928-2.604-1.178-.678-.179-1.391-.25-2.141-.25-4.777 0-8.201 3.82-8.201 8.604 0 4.748 3.566 8.533 8.309 8.533.713 0 1.391-.035 2.033-.18a7.869 7.869 0 0 0 2.568-.998l.035 1.178h7.025V90.54c.001-5.677-4.848-6.962-9.628-7.284zm0 19.101c-1.961 0-3.566-1.572-3.566-3.535s1.605-3.57 3.566-3.57a3.531 3.531 0 0 1 3.531 3.57 3.519 3.519 0 0 1-3.531 3.535zM173.02 75.188l-.035 10.746c-1.178-.857-2.461-1.428-3.887-1.643-.393-.071-.82-.071-1.25-.071-5.598 0-10.162 5.213-10.162 11.603s4.564 11.603 10.162 11.603c.43 0 .857-.035 1.25-.107 1.461-.285 2.816-.963 3.957-1.82l-.035 2.393h7.062V75.188h-7.062zm-3.922 25.169c-2.605 0-4.709-2.213-4.709-4.927 0-2.677 2.104-4.891 4.709-4.891 2.604 0 4.742 2.214 4.742 4.891 0 2.715-2.139 4.927-4.742 4.927zM76.265 97.645c.107-.643.143-1.25.143-1.856 0-7.034-5.313-12.781-11.84-12.817h-.071c-6.526 0-11.876 5.748-11.876 12.817 0 7.032 5.35 12.78 11.876 12.78h.071c4.993-.035 9.272-3.498 10.984-8.211h-7.168c-.785 1-1.711 1.643-3.566 1.678h-.25c-1.783-.107-3.852-1.713-4.173-4.428h4.173l11.697.037zm-15.799-4.32c.464-2.82 1.819-4.07 4.102-4.213h.143c2.354-.143 3.566 1.606 3.958 4.177h-4.101l-4.102.036zM93.776 83.863l-.036 2.571c-1.176-1.107-2.675-1.928-4.386-2.214a7.105 7.105 0 0 0-1.248-.107c-5.92 0-10.735 5.213-10.735 11.603 0 6.354 4.815 11.567 10.735 11.567.428 0 .855 0 1.248-.035 1.64-.143 3.066-.643 4.422-1.643 1.142 3.285-1.462 6.961-4.422 6.748-1.177-.072-2.39-.75-3.424-2.285h-8.737c1.533 5.676 6.918 8.783 12.161 8.891 5.813.143 11.447-3.393 11.447-11.068V83.863h-7.025zm-4.422 17.172c-2.639 0-4.815-2.32-4.815-5.14 0-2.821 2.176-5.105 4.815-5.105 2.675 0 4.814 2.285 4.814 5.105 0 2.82-2.139 5.14-4.814 5.14z" fill-rule="evenodd" clip-rule="evenodd" fill="#cc2229"/><path d="M93.74 86.434l.036-2.571h7.025v24.027m0 .001c0 14.602-20.363 14.174-23.608 2.178m0-.001h8.737m0 0c3.709 5.426 9.415.107 7.846-4.463-1.712 1.25-3.459 1.678-5.67 1.678-5.92 0-10.735-5.213-10.735-11.567 0-6.39 4.815-11.603 10.735-11.603 2.21 0 4.173.928 5.634 2.321m-4.386 4.356c2.675 0 4.814 2.285 4.814 5.105 0 2.82-2.14 5.14-4.814 5.14-2.639 0-4.815-2.32-4.815-5.14 0-2.821 2.176-5.105 4.815-5.105" fill="none" stroke="#cc2229" stroke-width=".216" stroke-miterlimit="2.613"/><path d="M182.967 78.089c0-1.807 1.359-3.168 3.104-3.168 1.725 0 3.084 1.362 3.084 3.168 0 1.836-1.359 3.189-3.084 3.189-1.745 0-3.104-1.353-3.104-3.189zm3.103 3.825c2.076 0 3.852-1.615 3.852-3.825 0-2.19-1.775-3.804-3.852-3.804-2.096 0-3.871 1.614-3.871 3.804 0 2.21 1.776 3.825 3.871 3.825zm-.806-3.522h.766l1.16 1.907h.746l-1.25-1.938c.645-.081 1.139-.424 1.139-1.211 0-.868-.514-1.251-1.553-1.251H184.6v4.4h.664v-1.907zm0-.565v-1.362h.906c.465 0 .959.101.959.646 0 .676-.504.717-1.068.717h-.797v-.001z" fill-rule="evenodd" clip-rule="evenodd"/></svg>