<svg xmlns="http://www.w3.org/2000/svg" width="2500" height="2500" viewBox="0 0 192.756 192.756"><g fill-rule="evenodd" clip-rule="evenodd"><path fill="#fff" d="M0 0h192.756v192.756H0V0z"/><path fill="#cc222d" d="M8.504 42.022h175.748v108.711H8.504V42.022z"/><path d="M33.683 106.373H47.58c1.311 0 2.408 1.071 2.408 2.383a2.408 2.408 0 0 1-2.408 2.404l-16.309-.012c-1.329 0-2.378-1.06-2.378-2.401V79.979c0-1.333 1.05-2.414 2.378-2.414a2.419 2.419 0 0 1 2.412 2.414v26.394zM139.172 99.431l4.809-15.847 5.488 15.847h-10.297zm2.988-22.066c-.893 0-1.561.925-1.859 1.912l-8.828 28.996a2.373 2.373 0 0 0 1.586 2.97 2.398 2.398 0 0 0 2.998-1.6l1.646-5.423h13.426l1.9 5.547a2.4 2.4 0 0 0 3.053 1.476c1.258-.432 1.904-1.795 1.486-3.055l-9.994-28.939c-.295-.989-.965-1.884-1.869-1.884h-3.545zM88.673 108.747a2.407 2.407 0 0 0 2.405 2.413 2.4 2.4 0 0 0 2.398-2.413V79.985a2.39 2.39 0 0 0-2.398-2.401 2.398 2.398 0 0 0-2.405 2.401v28.762zM102.902 105.678a5.488 5.488 0 0 0 5.484 5.482h12.66a5.023 5.023 0 0 0 5.025-5.022v-2.269a2.406 2.406 0 0 0-2.406-2.411c-1.307 0-2.385 1.078-2.385 2.411v.887c0 .756-.625 1.382-1.371 1.382h-10.613c-.76 0-1.385-.626-1.385-1.382V83.987c0-.771.625-1.373 1.385-1.373h10.613c.746 0 1.371-.222 1.371.517v.925a2.388 2.388 0 0 0 2.385 2.397 2.39 2.39 0 0 0 2.406-2.397v-1.442a5.016 5.016 0 0 0-5.025-5.03h-12.66a5.48 5.48 0 0 0-5.484 5.484v22.61zM58.476 77.599h18.719a2.398 2.398 0 0 1 2.392 2.386c0 1.325-1.088 2.407-2.392 2.407H61.209v9.18h13.688a2.422 2.422 0 0 1 2.404 2.408 2.408 2.408 0 0 1-2.404 2.399H61.209v9.967h15.986a2.407 2.407 0 0 1 2.392 2.4 2.397 2.397 0 0 1-2.392 2.401H58.476a2.06 2.06 0 0 1-2.055-2.05V79.654a2.05 2.05 0 0 1 2.055-2.055zM118.146 117.748a.606.606 0 0 0-.605.611v5.56l-2.943-5.695a.776.776 0 0 0-.719-.476h-.211a.716.716 0 0 0-.48.217c-.189.183-.162.401-.162.57v7.063c0 .323.268.597.598.597s.598-.273.598-.597v-5.501l2.869 5.546v.016l.016.02c.082.131.283.49.715.49h.252c.205 0 .381-.026.52-.166.182-.199.148-.453.148-.536v-7.107a.608.608 0 0 0-.596-.612zM87.32 117.785h-4.672a.601.601 0 0 0 0 1.2h1.766v6.595c0 .326.263.594.594.594a.59.59 0 0 0 .589-.594v-6.595h1.723a.599.599 0 0 0 .598-.599.603.603 0 0 0-.598-.601zM49.464 117.785h-4.665a.609.609 0 0 0-.605.601c0 .33.274.599.605.599h1.765v6.595a.593.593 0 0 0 1.184 0v-6.595h1.716a.593.593 0 0 0 .594-.599.598.598 0 0 0-.594-.601zM64.415 123.245l1.208-3.962 1.366 3.962h-2.574zm.744-5.502c-.212 0-.382.227-.464.47l-2.203 7.229a.611.611 0 0 0 .401.749.603.603 0 0 0 .751-.403l.406-1.354h3.347l.476 1.385a.607.607 0 0 0 .764.372.61.61 0 0 0 .37-.767l-2.491-7.217c-.074-.249-.243-.465-.464-.465h-.893v.001zM51.843 125.565c0 .331.269.592.599.592a.589.589 0 0 0 .594-.592v-7.18a.596.596 0 1 0-1.193 0v7.18zM122.465 119.385a.35.35 0 0 1 .34-.354h2.736c.193 0 .34.163.34.354v5.178a.335.335 0 0 1-.34.342h-2.736a.338.338 0 0 1-.34-.342v-5.178zm3.361 6.772c.684 0 1.254-.559 1.254-1.253v-5.874c0-.688-.57-1.245-1.254-1.245h-3.309c-.697 0-1.248.557-1.248 1.245v5.874c0 .694.551 1.253 1.248 1.253h3.309zM30.233 119.385c0-.191.157-.354.346-.354h2.733c.188 0 .343.163.343.354v5.178a.34.34 0 0 1-.343.342H30.58a.342.342 0 0 1-.346-.342v-5.178h-.001zm3.367 6.772c.685 0 1.255-.559 1.255-1.253v-5.874c0-.688-.571-1.245-1.255-1.245h-3.3c-.701 0-1.255.557-1.255 1.245v5.874c0 .694.554 1.253 1.255 1.253h3.3zM137.619 119.385a.35.35 0 0 1 .338-.354h2.734c.191 0 .346.163.346.354v5.178a.34.34 0 0 1-.346.342h-2.734a.337.337 0 0 1-.338-.342v-5.178zm3.358 6.772c.693 0 1.256-.559 1.256-1.253v-5.874a1.25 1.25 0 0 0-1.256-1.245h-3.307a1.25 1.25 0 0 0-1.252 1.245v5.874c0 .694.562 1.253 1.252 1.253h3.307zM55.383 124.813c0 .752.611 1.359 1.37 1.359h3.167c.695 0 1.242-.558 1.242-1.247v-.57a.594.594 0 0 0-.585-.592.595.595 0 0 0-.599.592v.227a.342.342 0 0 1-.347.344h-2.647a.343.343 0 0 1-.341-.344v-5.18c0-.193.158-.341.341-.341h2.647c.195 0 .347-.058.347.132v.228c0 .328.264.597.599.597a.596.596 0 0 0 .585-.597v-.359c0-.695-.547-1.258-1.242-1.258h-3.167c-.759 0-1.37.612-1.37 1.368v5.641zM96.789 124.813c0 .752.61 1.359 1.375 1.359h3.16a1.25 1.25 0 0 0 1.25-1.247v-.57a.598.598 0 0 0-1.196 0v.227a.343.343 0 0 1-.346.344h-2.648a.342.342 0 0 1-.342-.344v-5.18a.34.34 0 0 1 .342-.341h2.648c.191 0 .346-.058.346.132v.228c0 .328.275.597.598.597.33 0 .598-.269.598-.597v-.359c0-.695-.562-1.258-1.25-1.258h-3.16c-.766 0-1.375.612-1.375 1.368v5.641zM71.656 124.965h3.474c.33 0 .606.266.606.601a.6.6 0 0 1-.606.592h-4.059a.601.601 0 0 1-.601-.602v-7.176a.6.6 0 0 1 .601-.595c.33 0 .585.269.585.595v6.585zM130.738 124.965h3.469c.336 0 .596.266.596.601 0 .331-.26.592-.596.592h-4.066a.605.605 0 0 1-.605-.602v-7.176c0-.326.275-.595.605-.595.332 0 .598.269.598.595v6.585h-.001zM89.943 117.785h4.671c.326 0 .589.275.589.601 0 .33-.264.599-.589.599h-3.986v2.289h3.406c.335 0 .598.276.598.602a.59.59 0 0 1-.598.593h-3.406v2.497h3.986a.59.59 0 0 1 .589.591.595.595 0 0 1-.589.602h-4.671a.513.513 0 0 1-.515-.51V118.3a.51.51 0 0 1 .515-.515zM37.396 125.572c0 .333.264.601.602.601a.603.603 0 0 0 .606-.601v-2.93h2.922c.973 0 1.559-.513 1.613-1.396l.004-1.881c.008-.444-.138-.847-.432-1.139a1.61 1.61 0 0 0-1.079-.462h-3.438c-.443 0-.798.336-.798.754v7.054zm4.551-4.41c-.015.183-.022.278-.421.278h-2.922v-2.472h3.028c.048.007.315.043.315.384v1.81zM149.887 120.098a.604.604 0 0 0 .637-.572 1.222 1.222 0 0 0 0-.242c-.008-.567-.223-.905-.416-1.094-.268-.276-.666-.424-1.098-.424h-2.676l-.016.005c-1.09.063-1.49.974-1.502 1.569v5.34c0 .412.143.787.418 1.062.316.317.723.431.979.431H149c.918 0 1.516-.574 1.523-1.465v-2.591c0-.08.031-.345-.178-.552-.209-.212-.471-.206-.613-.206h-1.723a.605.605 0 0 0-.602.599c0 .337.273.605.602.605h1.307v2.129c0 .212-.039.279-.316.279h-2.768c-.074-.012-.213-.067-.213-.287v-5.332c0-.086.031-.349.352-.384h2.639c.111 0 .203.035.244.071.043.041.062.141.062.279v.037a.236.236 0 0 1 0 .107.601.601 0 0 0 .571.636zM104.736 125.572a.6.6 0 1 0 1.202 0v-3.009h3.273v3.009c0 .333.268.601.594.601a.594.594 0 0 0 .604-.601v-7.194a.599.599 0 1 0-1.198 0v2.981h-3.273v-2.981a.605.605 0 0 0-.604-.612.603.603 0 0 0-.598.612v7.194zM157.643 117.872a.606.606 0 0 0-.834.197l-1.732 2.799-1.701-2.799a.59.59 0 0 0-.82-.197.588.588 0 0 0-.209.823l2.127 3.487v3.39c0 .333.271.601.604.601a.602.602 0 0 0 .605-.601v-3.388l2.154-3.485a.596.596 0 0 0-.194-.827z" fill="#fff"/></g></svg>