<svg xmlns="http://www.w3.org/2000/svg" width="2500" height="1223" viewBox="0 0 78.139 38.231"><g fill="#a50716"><path d="M46.71 30.402c-3.617.918-5.994 1.836-7.56 2.7-4.914-2.215-10.26-3.402-15.39-3.402-6.318 0-12.042 1.62-16.902 3.942L0 0h46.71M13.932 8.424H9.774v12.312h8.315V17.82h-4.157V8.424zm11.394 10.421c-1.89 0-2.322-.81-2.322-3.077h8.479c0-5.454-1.296-7.723-6.156-7.723-5.292 0-6.696 1.836-6.696 6.588 0 4.645 1.944 6.858 6.427 6.858 4.428 0 6.048-1.62 6.155-4.158h-3.888c-.001 1.027-.379 1.512-1.999 1.512zm-2.322-5.507c0-1.836.378-2.861 2.16-2.861 1.729 0 2.16.81 2.16 2.861h-4.32zm13.122-4.914H31.59l4.698 12.312h5.13l4.807-12.312h-4.429l-2.861 8.046-2.809-8.046z"/><path d="M46.656 0h31.482L70.74 33.642c-4.86-2.809-9.288-3.996-15.714-3.996-3.51 0-5.886.323-8.37.756m.756-22.032v12.366h4.05V8.37h-4.05zm7.128.81l-.216 1.241c1.296-.81 1.836-1.512 1.836-2.43 0-1.026-.702-1.566-1.728-1.566s-1.674.595-1.674 1.458c.001 1.135.756 1.297 1.782 1.297zm5.778 7.668h-4.374c.054 2.97 1.62 4.157 6.372 4.157 4.428 0 6.21-.972 6.21-4.05 0-4.86-8.208-2.43-8.208-5.346 0-.702.81-1.296 1.89-1.296 1.135 0 1.566.485 1.836 1.512h4.158c-.054-2.592-1.565-3.78-5.724-3.78-4.32 0-6.318 1.188-6.318 3.889 0 5.346 8.208 2.483 8.208 5.508 0 .918-.486 1.35-1.674 1.35-1.404 0-2.267-.54-2.376-1.944zm3.348 16.631c1.296 0 2.376 1.08 2.376 2.376s-1.08 2.376-2.376 2.376-2.376-1.026-2.376-2.376a2.398 2.398 0 0 1 2.376-2.376zm1.998 2.377c0-1.08-.863-1.944-1.998-1.944-1.134 0-1.998.864-1.998 1.944s.918 1.998 1.998 1.998a1.993 1.993 0 0 0 1.998-1.998zm-2.808 1.188v-2.376h.647c.648 0 1.135.162 1.135.756 0 .271-.162.486-.54.702l.432.918h-.432l-.378-.702h-.378v.702h-.486zm1.242-1.62c0-.162-.217-.27-.756-.27v.594c.378 0 .756 0 .756-.324z"/></g></svg>