<svg xmlns="http://www.w3.org/2000/svg" width="2500" height="2500" viewBox="0 0 192.756 192.756"><g fill-rule="evenodd" clip-rule="evenodd"><path fill="#fff" d="M0 0h192.756v192.756H0V0z"/><path fill="#cc2229" stroke="#cc2229" stroke-width=".37" stroke-miterlimit="2.613" d="M47.898 107.65l22.184-22.547 18.901 18.807 9.699-9.613.207 8.074-31.528 31.426-4.048-4.02 5.164-4.859-14.721-15.066-5.438 5.244-.42-7.446z"/><path fill="#1e71b8" stroke="#1e71b8" stroke-width=".37" stroke-miterlimit="2.613" d="M144.057 78.707h31.388v7.061h-4.953v25.168l19.36-10.592.07 18.492h-46.041v-7.307h5.164l.033-25.761h-4.986l-.035-7.061z"/><path d="M67.361 83.461c6.696 0 12.205-5.523 12.205-12.271 0-6.745-5.509-12.232-12.205-12.232-6.766 0-12.244 5.487-12.244 12.232 0 6.748 5.478 12.271 12.244 12.271z" fill="#cc2229" stroke="#cc2229" stroke-width=".37" stroke-miterlimit="2.613"/><path fill="#1e71b8" stroke="#1e71b8" stroke-width=".37" stroke-miterlimit="2.613" d="M3.01 79.163h31.357v7.059h-4.921v25.167l19.36-10.59.033 18.49H2.834v-7.271h5.128l.037-25.796H2.977l.033-7.059z"/><path d="M125.293 118.766H92.612v-7.096h5.544l-.105-25.657h-5.544v-6.957h32.958c9.557-.034 17.16 6.642 17.266 19.783-.069 13.567-8.51 19.927-17.438 19.927zm-6.525-12.411c3.805-.033 6.979-2.201 7.012-8.037 0-5.664-3.277-8.145-6.939-8.145l-.073 16.182z" fill="#1e71b8"/></g></svg>