<svg enable-background="new 0 0 212.4 85.2" viewBox="0 0 212.4 85.2" xmlns="http://www.w3.org/2000/svg"><path d="m212.4 85.2h-212.4v-85.2h212.4z"/><path d="m166.7 27.6c.2 2.5-1.8 6.1-3.2 6.8l-.9-.7c1.3-1.4 1.1-5.7 0-6.8v-.1c1 0 2.5.3 3.1.5.6.1.6.2 1 .3m17.4 21.6c0 4.7-3.5 8.2-9.4 8.2-2.3 0-5.5-.5-6.9-1.2 0 0-.1-.2-.1-1 0-2 .2-5.2.2-5.7h1c.1.6.3 1.5.6 2.5.8 2.7 3.1 3.7 5.7 3.7 3.1 0 5.2-1.5 5.2-4.6 0-2.2-1.5-3.5-4.2-5.6l-1.7-1.3c-3.5-2.7-5.9-5.3-5.9-9 0-4.1 3.3-7.4 8.9-7.4 1.9 0 3.7.2 5.6.7.3.1.5.1.5.4 0 .5-.2 2.6-.2 5.5h-.9c-.9-3.1-1.5-4.8-5.4-4.8-3.1 0-4.8 1.9-4.8 4 0 1.8 1.5 3.7 4.4 5.8l1.7 1.3c3.9 2.9 5.7 4.9 5.7 8.5m-64.1-5.5c-.6 1.3-.6 2.5-.6 3.7v3c0 .6 0 1.9.1 3.5.1 1.1.4 1.9 1.5 2 .5.1 1.8.1 2.3.1v.9h-12.3v-.9c.5 0 2-.1 2.3-.1.4-.1 1.2-.2 1.4-2 .1-1.5.1-2.9.1-3.5v-3c0-2-.4-2.8-.8-3.9-.3-.6-5.2-9.5-6.5-11.4-.9-1.4-1.8-2.1-2.5-2.5-.5-.3-1.6-.5-2.1-.5v-.9h7.7s.1.5 1.2 2.8c.5 1.1 5.5 10.5 6.1 11.5 0 0 5.2-9.8 7.5-14.3h5.5v.9c-1.8.1-2.7.6-3.9 2.1s-6.3 10.9-7 12.5m-48.8 7s-.8 4.2-1.1 5.3c-.2.8-.4.9-.4.9h-19.7v-.9c.6 0 1.8-.1 2.1-.2.7-.1 1.1-.7 1.2-1.8.2-1.3.2-4.4.2-7.8v-7.4c0-5.6 0-6.4-.1-7.5-.1-1.2-.3-1.8-1.5-2.1-.3-.1-1.3-.1-1.8-.1v-.9h8v3.1 7.5 7.4c0 5.1 0 7.2.7 7.9.6.5 2.2.8 5.1.8 2.6 0 3.5-.1 4.4-1 .7-.7 1.1-1.6 1.5-3.2zm-23.1 0s-.8 4.2-1.1 5.3c-.2.8-.4.9-.4.9h-19.6v-.9c.6 0 1.8-.1 2.1-.2.7-.1 1-.7 1.2-1.8.2-1.3.2-4.4.2-7.8v-7.4c0-5.6 0-6.4-.1-7.5-.1-1.2-.3-1.8-1.5-2.1-.3-.1-1.3-.1-1.8-.1v-.9h8v3.1 7.5 7.4c0 5.1 0 7.2.7 7.9.6.5 2.2.8 5.1.8 2.6 0 3.5-.1 4.4-1 .7-.7 1.1-1.6 1.5-3.2zm54.4-8.8c0 8.6-5.6 15.5-14.9 15.5-10.3 0-14.4-8-14.4-14.8 0-6.9 4.3-14.8 14.7-14.8 9.2-.1 14.6 5.7 14.6 14.1m-5.2 1.4c0-8.5-4.4-13.8-10.4-13.8-4.4 0-8.7 3.3-8.7 11.9 0 7.3 3.7 14.1 10.4 14.1 5.5 0 8.7-4.2 8.7-12.2m64.4-1.3c0 5-1.9 8.8-4 10.9-1.7 1.7-5.1 4-11.9 4h-14.2v-.9c2.5-.1 3.5 0 3.7-2.1.2-1.6.1-5.8.1-7.7v-7.4c0-5.6 0-6.4-.1-7.5-.1-1.2-.4-1.8-1.6-2.1-.3-.1-1.4-.1-1.9-.1v-.9h11.6c4.6 0 10.7 0 14.7 4.2 1.8 2 3.6 5 3.6 9.6m-4.9 1.3c0-9.3-5.9-13.3-14.1-13.3-.8 0-1.9.1-2.2.3s-.4.4-.4.8c0 1.3-.1 4.4-.1 7.4v10.6c0 3.9.2 4.7.7 5.2.6.6 1.9 1.2 4.5 1.2 7.9 0 11.6-4.1 11.6-12.2" fill="#fff"/></svg>