<svg width="80" height="48" viewBox="0 0 80 48" fill="none" xmlns="http://www.w3.org/2000/svg">
<rect width="80" height="48" rx="6" fill="#F6F8FA"/>
<g clip-path="url(#clip0)">
<path d="M47.129 35.9651H33.8779V12.2273H47.1292L47.129 35.9651Z" fill="#FF5F00"/>
<path d="M34.718 24.096C34.718 19.2808 36.9798 14.9914 40.502 12.2271C37.8359 10.1316 34.5384 8.99434 31.1432 8.99935C22.7796 8.99935 16 15.7583 16 24.096C16 32.4338 22.7796 39.1927 31.1432 39.1927C34.5385 39.1978 37.8361 38.0605 40.5022 35.9649C36.9803 33.2011 34.718 28.9115 34.718 24.096Z" fill="#EB001B"/>
<path d="M65.0061 24.0967C65.0061 32.4345 58.2265 39.1934 49.8629 39.1934C46.4673 39.1984 43.1693 38.0611 40.5027 35.9656C44.0258 33.2013 46.2876 28.9121 46.2876 24.0967C46.2876 19.2813 44.0258 14.9921 40.5027 12.2278C43.1693 10.1324 46.4671 8.9951 49.8627 9.00002C58.2263 9.00002 65.0059 15.7589 65.0059 24.0967" fill="#F79E1B"/>
</g>
<defs>
<clipPath id="clip0">
<rect width="49" height="38" fill="white" transform="translate(16 9)"/>
</clipPath>
</defs>
</svg>
