<svg xmlns="http://www.w3.org/2000/svg" width="2500" height="2500" viewBox="0 0 192.756 192.756"><g fill-rule="evenodd" clip-rule="evenodd"><path fill="#fff" d="M0 0h192.756v192.756H0V0z"/><path d="M182.977 71.045c-1.629 0-2.902 1.139-2.902 2.801 0 1.661 1.281 2.794 2.902 2.794s2.902-1.14 2.902-2.794c0-1.661-1.275-2.801-2.902-2.801zm0 4.801c-1.162 0-2.025-.851-2.025-1.999 0-1.149.855-2.006 2.025-2.006 1.154 0 2.025.87 2.025 2.006 0 1.128-.877 1.999-2.025 1.999zM106.926 65.681c-1.547 2.236-2.236 5.16-.172 6.365s4.299 0 5.674-1.548c1.377-1.548 2.064-4.816.689-6.193-1.377-1.377-4.472-1.549-6.191 1.376z"/><path d="M182.176 52.339l-5.508 6.199c-.861.861-.861.861-.516-.517l1.205-3.616-8.264 2.239s-3.441 9.644-4.818 12.744c-2.41 4.994-6.988 10.427-10.154 11.882-3.186 1.464-4.303-1.033-4.303-3.1 11.703-4.994 11.875-13.088 11.531-14.638-.344-2.238-2.467-4.28-8.777-1.033-6.025 3.1-10.242 11.71-10.672 16.188-1.377 3.789-4.82 7.578-5.68 7.578-.861 0-1.721.344-.689-3.1L146.89 51.65l-8.434 2.756s-9.293 24.282-11.359 29.448c-2.064 5.166-4.99 7.663-6.539 7.922-1.074.179-1.205-.172-.346-2.928l11.877-32.376-8.779 2.928s-9.982 24.626-12.047 30.481c-2.066 5.855-4.82 6.199-5.68 6.371-.861.173-1.723-.344-.689-3.443l5.852-15.671-8.434 2.583s-3.959 10.161-6.195 15.155c-2.238 4.994-5.508 8.008-8.176 8.008-1.549 0-1.205-1.722-.344-4.822l10.499-26.004c3.1-8.094-2.237-15.327-4.302-17.049L78.819 66.977c-.172-3.616-3.098-7.836-4.475-9.213L56.788 71.885c-1.205-3.789-3.442-7.233-6.541-10.333-8.778-6.716-20.344-7.129-33.907-.344C1.883 68.44 2.055 81.873 3.432 84.628c4.992 14.293 20.31 10.333 23.924 8.783 11.36-4.649 11.36-16.016 10.671-19.632l-14.286 7.578c1.721 4.133-1.549 7.75-4.131 8.783-2.582 1.033-10.155 1.206-12.393-6.544-2.237-7.749 3.27-15.154 12.909-19.459s18.761-2.239 23.752 3.272 3.442 14.293-1.033 24.282-21.171 37.542-22.547 39.781l15.663-5.166c3.27-5.339 16.351-30.481 18.933-37.542 1.537-4.205 2.237-9.3 2.065-13.088l7.659-6.2c2.237 2.411 1.463 7.405.603 9.816-2.41 11.882-14.975 38.92-17.212 42.708l13.941-4.821c1.894-1.723 12.221-27.727 13.77-33.409 1.289-4.729 2.754-8.611 2.754-12.572l7.315-5.941c2.753 1.55.947 8.868-.086 11.279 0 0-6.541 15.844-8.95 22.043-2.41 6.2-1.205 12.228 3.787 12.571 7.573-.344 13.167-8.18 14.716-9.901.688 1.55 2.554 4.048 5.164 3.271 3.184-.947 7.057-4.478 9.295-6.544 1.031 1.033 2.064 2.928 4.818 2.066 4.131-1.033 8.951-6.199 10.5-7.749 1.205 2.066 1.721 3.1 6.195 1.55s9.037-7.405 10.93-9.816c0 1.55 3.867 4.803 7.66 3.617 4.131-1.292 9.725-7.405 11.445-9.472l-1.205 4.478 7.66-2.239s3.957-10.677 6.539-15.499c2.363-4.413 3.615-2.239 4.303-1.378.689.861 1.377 1.55 3.443 1.378 4.303-.344 6.713-4.822 7.918-7.061-6.54-.001-6.712-3.101-7.745-5.512zM155.34 65.836c1.896-1.208 2.107-.136 1.725.95-.518 1.467-1.984 4.834-5.176 6.733-.861.345-.861-.172-.861-.604.603-2.158 2.413-5.87 4.312-7.079zM184.701 81.176l-.01.002L16.898 140.56l-.017.036.355.511.091-.031c35.14-13.148 80.417-22.858 104.646-16.758 11.514-14.952 45.02-35.319 62.891-42.451h.002l-.165-.691zM183.473 74.044c.41-.021.729-.232.729-.798 0-.729-.477-.913-1.273-.913h-1.145v3.027h.764v-1.289h.129l.695 1.289h.879l-.778-1.316zm-.491-.489h-.434v-.698h.365c.225 0 .482.027.482.319.001.311-.147.379-.413.379z"/></g></svg>