<svg xmlns="http://www.w3.org/2000/svg" width="2500" height="2500" viewBox="0 0 192.756 192.756"><path fill-rule="evenodd" clip-rule="evenodd" fill="#fff" d="M0 0h192.756v192.756H0V0z"/><path d="M19.346 121.782a6.434 6.434 0 1 1-8.818-9.372l43.097-40.552c3.958-3.725 10.859-.735 10.859 4.687v22.786l29.287-27.473c2.269-2.128 6.743-2.073 8.944.126l27.541 27.5V75.677c0-3.225 3.227-6.45 6.451-6.45h25.221c.404 0 .729.005.973.014h.025c7.43.291 12.865 3.708 16.465 8.745 3.299 4.615 4.861 10.527 4.861 16.438 0 .531-.008.981-.021 1.347v.021a34.841 34.841 0 0 1-.598 5.07 33.262 33.262 0 0 1-1.322 4.932c-3.188 8.994-10.111 16.017-20.209 16.017H150.36a6.45 6.45 0 0 1 0-12.899h11.742c3.781 0 6.594-3.245 8.066-7.4.352-.993.625-2.006.816-3.017.184-.967.299-2.043.346-3.206v-.021c.016-.365.021-.646.021-.843 0-3.413-.785-6.663-2.441-8.981-1.355-1.895-3.486-3.185-6.488-3.302v-.001a15.152 15.152 0 0 0-.494-.014h-18.771v32.887c0 5.488-7.09 8.449-10.984 4.561l-28.004-27.962v24.848a6.451 6.451 0 0 1-12.901 0V91.852L62.443 118.89c-3.961 3.716-10.859.732-10.859-4.686V91.449l-32.238 30.333z" fill="#cc262d"/><path d="M16.203 118.441a1.847 1.847 0 0 1-2.53-2.69L56.768 75.2c1.136-1.069 3.117-.211 3.117 1.345v33.391L96.915 75.2c.652-.611 1.935-.595 2.568.036l35.373 35.321v-34.88c0-.925.926-1.851 1.852-1.851h25.221c.297 0 .566.005.811.014h.008c5.852.229 10.107 2.887 12.908 6.804 2.713 3.796 3.998 8.759 3.998 13.78 0 .413-.006.802-.021 1.167v.021a30.374 30.374 0 0 1-.508 4.406 28.73 28.73 0 0 1-1.141 4.249c-2.576 7.269-8.035 12.944-15.881 12.944h-11.742a1.852 1.852 0 1 1 0-3.703h11.742c6.033 0 10.311-4.592 12.395-10.472.426-1.197.758-2.439.998-3.699.234-1.248.381-2.547.434-3.871l.002-.021c.014-.365.021-.707.021-1.022 0-4.303-1.062-8.502-3.305-11.639-2.156-3.016-5.463-5.063-10.045-5.242a16.41 16.41 0 0 0-.674-.015H138.56v37.485c0 1.575-2.035 2.425-3.154 1.309L99.568 80.54v35.92a1.85 1.85 0 1 1-3.703 0V81.247l-36.566 34.302c-1.137 1.066-3.117.21-3.117-1.345V80.822l-39.979 37.619z" fill="#fff"/></svg>