<svg width="51" height="42" viewBox="0 0 51 42" fill="none" xmlns="http://www.w3.org/2000/svg">
<g clip-path="url(#clip0)">
<path d="M44.7207 20.9999C44.7207 32.5182 35.2034 41.998 23.6382 41.998C12.0734 41.998 2.55566 32.5176 2.55566 20.9999C2.55566 9.48089 11.8508 0.00180054 23.6382 0.00180054C34.9797 0.00180054 44.7207 9.48142 44.7207 20.9999Z" fill="#445364"/>
<path d="M28.3936 32.0516C37.4007 35.7459 35.8379 26.4107 31.0366 19.2626C28.3152 15.2131 24.7663 11.8391 22.5279 10.211C15.1059 4.81028 10.5242 8.08584 15.7651 18.7367C17.4597 22.1804 19.636 24.5046 21.336 26.6953C22.6341 28.3679 25.1627 29.2053 24.272 29.9985C23.2681 30.8935 20.8377 26.9463 20.8377 26.9463C19.0427 24.788 17.3317 22.485 15.5683 19.3243C11.5397 12.1056 12.1206 4.73773 19.4131 7.94716C25.6018 10.6723 31.513 18.3154 33.89 23.7431C34.9876 26.2497 37.9805 36.1659 28.4481 32.1566" fill="#96A1AE"/>
<path d="M0.384766 27.2245C4.34722 24.5935 8.10406 22.8947 14.4973 20.7892C23.4812 17.8303 30.2425 15.8413 38.5391 11.6838C42.2527 9.82317 48.6962 5.65047 51.0002 2.02322C50.3104 3.42714 48.1732 6.15974 47.2063 7.36811C35.9499 21.4202 11.9728 20.6235 0.542992 27.3696" fill="#717E8C"/>
<path d="M6.13291 16.9541C9.75942 16.9824 9.40364 16.9468 9.44601 16.9892C9.5093 16.9892 12.3416 21.8521 12.3416 21.8944C12.3416 21.9149 12.3205 20.166 12.3205 17.9787C12.3205 17.7261 11.6235 16.9894 11.6442 16.9894C12.6794 16.9894 14.0322 17.0104 14.0322 17.0104C13.5254 17.5999 13.424 17.5512 13.4197 17.9158C13.4054 19.0869 13.3922 21.2519 13.4197 23.6833C13.4237 24.0478 13.6945 24.1886 14.1384 24.8202H10.8198C9.7419 23.0309 7.76667 19.6742 7.7765 19.684C7.7917 19.6994 7.73395 21.7895 7.79724 23.4731C7.81852 24.0295 8.07221 24.2099 8.53742 24.7154C8.53742 24.7154 9.07253 24.7011 5.9375 24.7362C6.88865 24.2309 6.76224 23.5995 6.76189 23.5785C6.72774 21.2519 6.75473 19.2628 6.75473 17.9787C6.75473 17.7682 6.74043 17.789 6.08554 16.9892L6.13291 16.9541ZM17.4719 20.5471C17.7764 19.4931 18.0365 18.5512 18.1601 17.9368C18.181 17.8315 17.9277 17.4527 17.5261 17.0737L17.4977 17.0149C19.4341 17.0211 21.4571 17.032 21.4571 17.032C21.9856 18.3158 23.1901 21.9154 24.099 24.1261C24.3393 24.7098 24.7543 24.8205 24.7543 24.8205C23.1057 24.7997 20.0463 24.8139 20.0625 24.7997C20.8866 24.0624 20.7809 24.0624 20.4215 22.9897H17.8433C17.3148 24.2104 18.0079 24.7833 18.0966 24.7788C17.5098 24.8091 15.5183 24.7788 15.5183 24.7788C16.5962 24.0205 16.5326 23.7892 16.5326 23.7892C16.8287 22.7389 17.1717 21.5883 17.4721 20.547L18.53 20.5471L18.0755 21.9995H20.1262L18.9846 19.0944L18.5302 20.5468L17.4723 20.5466L17.4719 20.5471ZM35.1843 20.6523C35.4883 19.5987 35.7486 18.6564 35.8721 18.042C35.8929 17.9368 35.6392 17.558 35.2378 17.1787L35.2094 17.1202C37.1463 17.1265 39.1697 17.1372 39.1697 17.1372C39.6973 18.4213 40.9021 22.0206 41.8107 24.2312C42.0508 24.8157 42.4654 24.9257 42.4654 24.9257C40.8179 24.9049 37.7583 24.9191 37.7742 24.9049C38.5984 24.1681 38.4931 24.1681 38.1338 23.0949H35.555C35.0265 24.3157 35.7193 24.8885 35.8079 24.8844C35.2217 24.9143 33.2297 24.8844 33.2297 24.8844C34.3076 24.1264 34.2444 23.8947 34.2444 23.8947C34.5405 22.8441 34.8834 21.694 35.1843 20.6523H36.242C36.0143 21.379 35.7879 22.1052 35.7879 22.1052H37.8375L36.696 19.1997C36.696 19.1997 36.4694 19.9257 36.242 20.6519L35.1843 20.6523ZM31.8501 18.9268C31.8081 17.4313 31.8501 16.9475 31.8501 16.9475C31.1947 17.4741 31.5256 17.4069 29.8849 17.137C25.1571 16.3593 24.7968 20.7598 27.3697 21.7468C29.5295 22.5756 30.2945 22.7382 29.9691 23.5148C29.8635 23.7683 27.8981 24.6942 25.8692 22.8204L25.9105 25.4309C26.1644 25.1705 26.8622 24.6942 26.8622 24.6942C26.8827 24.6942 29.0612 25.6508 31.0254 24.6521C34.0481 23.1157 32.5395 20.6286 29.3137 19.6421C26.6292 18.8211 29.1657 16.9053 31.8283 18.9475L31.8501 18.9268ZM23.9351 1.90874C23.9349 1.95412 23.9168 1.9976 23.8847 2.02971C23.8525 2.06183 23.8089 2.07999 23.7634 2.08022C23.7179 2.07994 23.6744 2.06177 23.6423 2.02966C23.6101 1.99756 23.592 1.9541 23.5918 1.90874C23.5918 1.81569 23.6696 1.73798 23.7634 1.73798C23.8088 1.73812 23.8524 1.75614 23.8845 1.78813C23.9167 1.82011 23.9348 1.86346 23.9351 1.90874ZM25.1258 4.50088C25.1258 4.61639 25.0296 4.71175 24.9145 4.71175C24.8584 4.71152 24.8047 4.68923 24.7651 4.64974C24.7255 4.61025 24.7031 4.55675 24.7028 4.50088C24.7028 4.38573 24.7982 4.29072 24.9145 4.29072C25.0298 4.29072 25.1258 4.38555 25.1258 4.50088ZM28.2149 8.73722C28.2149 8.85237 28.1201 8.94774 28.0034 8.94774C27.9475 8.94736 27.894 8.92507 27.8544 8.88568C27.8149 8.84628 27.7925 8.79295 27.792 8.73722C27.792 8.62171 27.8805 8.52617 27.9969 8.52617C28.1135 8.52653 28.2149 8.62171 28.2149 8.73722ZM23.2485 5.9613C23.2483 6.00661 23.2302 6.05001 23.198 6.08203C23.1659 6.11405 23.1223 6.1321 23.0769 6.13225C23.0314 6.1321 22.9878 6.11407 22.9556 6.08205C22.9234 6.05004 22.9052 6.00664 22.9049 5.9613C22.9049 5.86772 22.9827 5.79018 23.0769 5.79018C23.1224 5.79032 23.1659 5.80839 23.1981 5.84046C23.2303 5.87252 23.2484 5.91596 23.2485 5.9613ZM25.099 6.93509C25.0986 6.98031 25.0805 7.02358 25.0484 7.05554C25.0163 7.0875 24.9729 7.10558 24.9275 7.10586C24.8821 7.10563 24.8386 7.08758 24.8065 7.05562C24.7743 7.02366 24.7561 6.98036 24.7557 6.93509C24.7557 6.84151 24.8335 6.76415 24.9275 6.76415C25.0214 6.76415 25.099 6.84151 25.099 6.93509ZM22.6943 4.21122C22.6943 4.32673 22.5988 4.4221 22.483 4.4221C22.3671 4.4221 22.2716 4.32727 22.2716 4.21122C22.2716 4.09607 22.3671 4.00053 22.483 4.00053C22.5988 4.00053 22.6943 4.09572 22.6943 4.21122ZM19.8945 5.90872C19.8945 6.00266 19.8171 6.07984 19.7227 6.07984C19.6772 6.07961 19.6337 6.0615 19.6016 6.02946C19.5694 5.99742 19.5513 5.95403 19.551 5.90872C19.551 5.81514 19.6286 5.7376 19.7227 5.7376C19.7682 5.73774 19.8118 5.7558 19.8439 5.78786C19.8761 5.81992 19.8943 5.86336 19.8945 5.90872ZM20.3951 6.25043C20.3949 6.29585 20.3767 6.33935 20.3445 6.37147C20.3123 6.40359 20.2687 6.42172 20.2231 6.4219C20.1776 6.42167 20.1339 6.40353 20.1017 6.37142C20.0695 6.33931 20.0513 6.29583 20.0511 6.25043C20.0531 6.2063 20.0721 6.16465 20.1042 6.13413C20.1362 6.10362 20.1788 6.08659 20.2231 6.08659C20.2674 6.08659 20.31 6.10362 20.342 6.13413C20.3741 6.16465 20.3931 6.2063 20.3951 6.25043ZM20.8975 6.59267C20.8973 6.63804 20.8792 6.68153 20.8471 6.71364C20.8149 6.74576 20.7714 6.76391 20.7258 6.76415C20.6803 6.76391 20.6367 6.74577 20.6046 6.71365C20.5724 6.68154 20.5542 6.63806 20.554 6.59267C20.554 6.49944 20.6318 6.42208 20.7258 6.42208C20.8201 6.42208 20.8975 6.49927 20.8975 6.59267ZM20.1323 7.25078C20.1318 7.29608 20.1135 7.33939 20.0814 7.37139C20.0492 7.40339 20.0057 7.42153 19.9603 7.4219C19.9148 7.42167 19.8712 7.40357 19.839 7.37154C19.8069 7.33951 19.7886 7.29612 19.7883 7.25078C19.7883 7.15719 19.8659 7.07983 19.9603 7.07983C20.0541 7.07983 20.1323 7.15719 20.1323 7.25078ZM16.1425 10.0399C16.1422 10.0852 16.124 10.1286 16.0917 10.1606C16.0595 10.1926 16.0159 10.2106 15.9705 10.2107C15.8763 10.2107 15.7987 10.1336 15.7987 10.0399C15.7987 9.94613 15.8764 9.86859 15.9705 9.86859C16.0645 9.86859 16.1425 9.94595 16.1425 10.0399ZM16.8819 10.9349C16.8816 10.9802 16.8633 11.0235 16.8312 11.0555C16.799 11.0875 16.7555 11.1056 16.7101 11.1058C16.6647 11.1056 16.6212 11.0875 16.589 11.0555C16.5568 11.0235 16.5385 10.9802 16.5381 10.9349C16.5381 10.8408 16.6159 10.7638 16.7101 10.7638C16.8043 10.7638 16.8819 10.8408 16.8819 10.9349ZM16.2941 25.3813C16.2938 25.4266 16.2756 25.47 16.2434 25.502C16.2113 25.534 16.1677 25.5521 16.1223 25.5523C16.028 25.5523 15.9506 25.4749 15.9506 25.3813C15.9506 25.2877 16.028 25.21 16.1223 25.21C16.2167 25.21 16.2941 25.2877 16.2941 25.3813ZM16.3997 29.3669C16.3997 29.4824 16.3043 29.5776 16.1884 29.5776C16.0726 29.5776 15.9771 29.4829 15.9771 29.3669C15.9771 29.2517 16.0726 29.1565 16.1884 29.1565C16.2443 29.1568 16.2978 29.179 16.3374 29.2184C16.377 29.2578 16.3994 29.3111 16.3997 29.3669ZM14.1272 31.4082C14.1269 31.4534 14.1087 31.4967 14.0766 31.5287C14.0445 31.5606 14.0011 31.5787 13.9557 31.579C13.9103 31.5787 13.8668 31.5607 13.8347 31.5287C13.8025 31.4968 13.7843 31.4535 13.7839 31.4082C13.7839 31.3139 13.8617 31.2369 13.9557 31.2369C14.0496 31.2369 14.1272 31.3137 14.1272 31.4082ZM11.4064 32.2349C11.406 32.2908 11.3836 32.3442 11.344 32.3836C11.3043 32.4231 11.2507 32.4454 11.1947 32.4456C11.1387 32.4454 11.0851 32.4232 11.0455 32.3837C11.0059 32.3442 10.9836 32.2908 10.9834 32.2349C10.9834 32.1196 11.0789 32.0242 11.1947 32.0242C11.2507 32.0246 11.3043 32.0469 11.3439 32.0863C11.3835 32.1257 11.406 32.1791 11.4064 32.2349ZM10.8515 30.3938C10.8515 30.5087 10.756 30.6039 10.6405 30.6039C10.5846 30.6037 10.5311 30.5814 10.4916 30.5421C10.452 30.5028 10.4296 30.4495 10.4292 30.3938C10.4294 30.3379 10.4517 30.2844 10.4913 30.2449C10.5308 30.2053 10.5845 30.1829 10.6405 30.1825C10.756 30.1831 10.8515 30.2781 10.8515 30.3938ZM10.5348 31.5649C10.5348 31.6588 10.4571 31.7358 10.363 31.7358C10.269 31.7358 10.191 31.6588 10.191 31.5649C10.191 31.4717 10.269 31.3938 10.363 31.3938C10.4571 31.3938 10.5348 31.4711 10.5348 31.5649ZM8.50005 30.5918C8.49977 30.637 8.48164 30.6803 8.44958 30.7123C8.41753 30.7443 8.37413 30.7624 8.32877 30.7628C8.28331 30.7626 8.23975 30.7445 8.20755 30.7125C8.17535 30.6805 8.15711 30.6371 8.15678 30.5918C8.15678 30.4986 8.23437 30.4209 8.32877 30.4209C8.42246 30.4209 8.50005 30.498 8.50005 30.5918ZM15.6068 33.8804C15.6068 33.9743 15.5358 34.0517 15.442 34.0517C15.3478 34.0517 15.2634 33.9743 15.2634 33.8804C15.2634 33.7868 15.3411 33.7093 15.435 33.7093C15.5296 33.7093 15.6068 33.7866 15.6068 33.8804ZM17.7473 32.3153C17.7473 32.4308 17.6586 32.5264 17.5424 32.5264C17.4265 32.5264 17.3246 32.4314 17.3246 32.3153C17.3246 32.2002 17.4201 32.105 17.5359 32.105C17.5918 32.1053 17.6454 32.1275 17.6849 32.1669C17.7245 32.2063 17.7469 32.2596 17.7473 32.3153ZM17.9922 34.3278C17.9922 34.4217 17.9076 34.4995 17.8139 34.4995C17.7684 34.4992 17.7248 34.481 17.6926 34.4489C17.6604 34.4167 17.6422 34.3732 17.642 34.3278C17.642 34.2346 17.7195 34.1572 17.8139 34.1572C17.9076 34.157 17.9922 34.234 17.9922 34.3278ZM26.7885 32.4062C26.7882 32.4515 26.77 32.4948 26.738 32.5268C26.706 32.5589 26.6626 32.5771 26.6172 32.5775C26.5717 32.5773 26.5281 32.5591 26.4959 32.5271C26.4636 32.495 26.4453 32.4516 26.4449 32.4062C26.4449 32.3123 26.5225 32.2353 26.6172 32.2353C26.7109 32.2353 26.7885 32.3123 26.7885 32.4062ZM22.6943 33.8535C22.6941 33.8988 22.676 33.9422 22.6438 33.9742C22.6116 34.0062 22.5681 34.0243 22.5227 34.0244C22.4772 34.0242 22.4337 34.0061 22.4016 33.9741C22.3695 33.9421 22.3513 33.8987 22.351 33.8535C22.351 33.7602 22.4288 33.6825 22.5227 33.6825C22.6171 33.6825 22.6943 33.7599 22.6943 33.8535ZM33.7113 35.9337C33.7109 35.979 33.6927 36.0223 33.6605 36.0543C33.6284 36.0862 33.5849 36.1043 33.5395 36.1046C33.494 36.1044 33.4504 36.0864 33.4182 36.0544C33.386 36.0224 33.3677 35.979 33.3673 35.9337C33.3673 35.8403 33.4453 35.7627 33.5395 35.7627C33.6334 35.7627 33.7113 35.8399 33.7113 35.9337ZM34.6086 27.8412C34.6083 27.8971 34.5859 27.9505 34.5463 27.99C34.5066 28.0295 34.453 28.0518 34.397 28.0521C34.341 28.0517 34.2874 28.0294 34.2478 27.99C34.2082 27.9505 34.1858 27.897 34.1854 27.8412C34.1854 27.7257 34.2807 27.6303 34.397 27.6303C34.453 27.6306 34.5067 27.6529 34.5463 27.6923C34.586 27.7318 34.6084 27.7853 34.6086 27.8412ZM32.9191 28.9856C32.9188 29.031 32.9005 29.0744 32.8683 29.1065C32.8361 29.1385 32.7925 29.1566 32.7469 29.1569C32.6532 29.1569 32.5755 29.0793 32.5755 28.9856C32.5755 28.8918 32.6532 28.8148 32.7469 28.8148C32.8413 28.8148 32.9191 28.8916 32.9191 28.9856ZM34.584 29.3153C34.584 29.4307 34.4887 29.5264 34.3723 29.5264C34.2559 29.5264 34.1606 29.4312 34.1606 29.3153C34.1606 29.2002 34.2559 29.1047 34.3723 29.1047C34.4887 29.1047 34.584 29.2002 34.584 29.3153ZM32.9191 31.3545C32.9188 31.3999 32.9005 31.4433 32.8683 31.4753C32.836 31.5073 32.7924 31.5254 32.7469 31.5255C32.7016 31.5252 32.6581 31.5071 32.6261 31.4751C32.594 31.4431 32.5758 31.3998 32.5755 31.3545C32.5755 31.2606 32.6532 31.1832 32.7469 31.1832C32.8413 31.1832 32.9191 31.2604 32.9191 31.3545ZM37.2243 26.6968C37.2243 26.7902 37.1462 26.8679 37.0525 26.8679C37.0071 26.8676 36.9637 26.8494 36.9316 26.8174C36.8995 26.7854 36.8813 26.7421 36.881 26.6968C36.881 26.6031 36.9586 26.5261 37.0525 26.5261C37.1463 26.5261 37.2243 26.6031 37.2243 26.6968ZM37.6409 27.736C37.6409 27.8514 37.5527 27.9469 37.4363 27.9469C37.3203 27.9469 37.2182 27.8519 37.2182 27.736C37.2182 27.6205 37.3135 27.5255 37.4294 27.5255C37.5456 27.5259 37.6409 27.6205 37.6409 27.736ZM40.6069 28.9731C40.6069 29.0884 40.5125 29.1838 40.3954 29.1838C40.3394 29.1836 40.2857 29.1614 40.2461 29.1219C40.2064 29.0824 40.184 29.029 40.1837 28.9731C40.1841 28.9172 40.2065 28.8638 40.2461 28.8243C40.2858 28.7848 40.3394 28.7625 40.3954 28.7622C40.4515 28.7624 40.5052 28.7847 40.5448 28.8242C40.5844 28.8637 40.6067 28.9172 40.6069 28.9731ZM37.5942 31.1711C37.5938 31.2165 37.5755 31.2598 37.5433 31.2918C37.511 31.3238 37.4675 31.3418 37.422 31.3421C37.3766 31.3418 37.3331 31.3238 37.3009 31.2918C37.2688 31.2598 37.2505 31.2164 37.2502 31.1711C37.2502 31.0772 37.3282 30.9998 37.422 30.9998C37.5159 30.9998 37.5942 31.0767 37.5942 31.1711ZM39.4967 29.3813C39.4964 29.4266 39.4783 29.4699 39.4462 29.5019C39.4141 29.5339 39.3706 29.552 39.3252 29.5522C39.2798 29.552 39.2363 29.5339 39.2042 29.5019C39.1721 29.4699 39.1539 29.4266 39.1536 29.3813C39.1536 29.2879 39.2317 29.2102 39.3252 29.2102C39.4191 29.2102 39.4967 29.2874 39.4967 29.3813ZM39.1462 32.1442C39.146 32.1895 39.1279 32.2328 39.0958 32.2648C39.0637 32.2968 39.0202 32.3149 38.9748 32.3152C38.9293 32.3151 38.8856 32.297 38.8534 32.265C38.8212 32.233 38.8029 32.1896 38.8026 32.1442C38.8026 32.051 38.8802 31.9731 38.9748 31.9731C39.0687 31.9731 39.1462 32.0504 39.1462 32.1442ZM39.9526 27.5524C39.9526 27.697 39.8331 27.8155 39.6881 27.8155C39.5433 27.8155 39.4241 27.697 39.4241 27.5524C39.4241 27.408 39.5433 27.2895 39.6881 27.2895C39.8331 27.2895 39.9526 27.408 39.9526 27.5524Z" fill="#96A1AE"/>
<path d="M39.6874 26.7503L39.6089 27.4739L38.8889 27.553L39.6151 27.6314L39.6945 28.3817L39.7739 27.6314L40.4869 27.5391L39.7675 27.4733L39.6874 26.7503ZM38.1019 32.1298C38.1019 32.2745 37.9827 32.3934 37.8377 32.3934C37.7676 32.3931 37.7005 32.3653 37.651 32.3159C37.6015 32.2665 37.5735 32.1996 37.5732 32.1298C37.5732 31.9854 37.6927 31.8669 37.8377 31.8669C37.9076 31.8671 37.9745 31.8949 38.024 31.9441C38.0735 31.9934 38.1015 32.0601 38.1019 32.1298Z" fill="#96A1AE"/>
<path d="M37.8397 31.3278L37.7603 32.0517L37.0407 32.1303L37.7669 32.2095L37.8465 32.959L37.9259 32.2095L38.6385 32.1171L37.9185 32.0512L37.8397 31.3278ZM18.3947 10.395C18.3947 10.5394 18.2755 10.6581 18.1306 10.6581C18.0607 10.6579 17.9936 10.6301 17.9441 10.5809C17.8945 10.5316 17.8665 10.4648 17.8662 10.395C17.8662 10.2503 17.9853 10.1317 18.1306 10.1317C18.2755 10.1321 18.3947 10.2506 18.3947 10.395Z" fill="#96A1AE"/>
<path d="M18.1301 9.59235L18.0507 10.3159L17.3306 10.395L18.0572 10.4733L18.1365 11.2239L18.2156 10.4733L18.9289 10.3817L18.2088 10.3155L18.1301 9.59235ZM28.2224 4.02734C28.2224 4.17172 28.103 4.29061 27.958 4.29061C27.813 4.29061 27.6941 4.17172 27.6941 4.02734C27.6941 3.8826 27.8128 3.7637 27.958 3.7637C28.1032 3.7637 28.2224 3.88295 28.2224 4.02734Z" fill="#96A1AE"/>
<path d="M27.9578 3.22415L27.8792 3.94821L27.1594 4.02736L27.8858 4.10596L27.9644 4.85605L28.0438 4.10596L28.7568 4.01363L28.0368 3.94785L27.9578 3.22415ZM16.2741 36.3421C16.2741 36.4869 16.1548 36.6054 16.01 36.6054C15.94 36.6052 15.873 36.5774 15.8234 36.5281C15.7739 36.4787 15.7459 36.4119 15.7456 36.3421C15.7456 36.1979 15.8649 36.0787 16.01 36.0787C16.1548 36.0788 16.2741 36.1981 16.2741 36.3421Z" fill="#96A1AE"/>
<path d="M16.0163 35.5384L15.9373 36.2625L15.2173 36.3413L15.9437 36.4199L16.0229 37.17L16.1019 36.4199L16.8153 36.3279L16.0955 36.2619L16.0163 35.5384Z" fill="#96A1AE"/>
<path d="M50.9982 2.02344C47.7852 11.5264 34.9146 18.8645 24.0801 25.8695C17.5438 30.0971 11.0544 34.9628 6.58686 39.1029C5.40937 40.1947 6.8268 38.6945 6.37554 39.1557C12.6102 31.9987 19.782 27.7356 23.7452 25.052C30.4477 20.5121 34.26 19.3679 45.8236 8.74853" fill="#717E8C"/>
<path d="M3.0644 25.5668C1.91051 26.1292 0.876948 26.6851 0 27.2279L0.533499 27.4215C1.30049 26.9507 2.22124 26.4596 3.19116 26.027L3.0644 25.5668ZM9.15601 36.2011C8.05822 37.1555 6.97857 38.1305 5.91765 39.1255L5.86938 39.8512C6.87059 38.8225 8.10046 37.7125 9.51984 36.5343" fill="#717E8C"/>
<path d="M28.3937 32.0516C37.4008 35.7459 35.838 26.4106 31.0367 19.2625C28.3152 15.213 24.9594 12.0005 22.5279 10.2109C19.6887 8.12089 19.4116 7.94763 19.4116 7.94763C25.7518 10.9478 31.5116 18.3157 33.8882 23.7438C34.9861 26.2502 37.9788 36.1664 28.4463 32.1571" fill="#96A1AE"/>
</g>
<defs>
<clipPath id="clip0">
<rect width="51" height="42" fill="white"/>
</clipPath>
</defs>
</svg>
