<svg xmlns="http://www.w3.org/2000/svg" width="2500" height="2500" viewBox="0 0 192.756 192.756"><g fill-rule="evenodd" clip-rule="evenodd"><path fill="#fff" d="M0 0h192.756v192.756H0V0z"/><path d="M80.325 64.456c.773 0 1.396-.628 1.396-1.4a1.398 1.398 0 1 0-2.795 0c0 .772.622 1.4 1.399 1.4zM97.223 93.145c2.076 0 3.473-.28 4.598-.695 1.119-.416 1.979-.917 2.605-1.43.594-.486.971-.979 1.605-1.303.559-.289 1.346-.357 2.229-.357 1.268 0 2.695.392 3.738.966l.15-1.941c-.695-.343-3.145-1.202-5.273-1.202-2.418 0-3.332.652-4.225 1.458-1.039.942-2.352 2.062-5.902 2.062-.946 0-3.216-.256-4.138-.256-.56 0-.99.14-.99.14.169.531.531 1.994.531 1.994.85.106 2.333.564 5.072.564zM86.309 87.389c.719 0 2.81.319 5.225.551 1.372.129 2.84.231 4.226.231 2.713 0 5.684-1.29 8.311-2.637l-.514-1.869c-1.227.672-3.562 1.419-5.508 1.729-.479.078-1.87.097-2.266.034-.656-.102-1.443-.338-2.289-.492-1.188-.223-2.486-.276-3.255-.31-.849-.038-2.371.106-3.119.155-2.748.164-4.564.811-6.302 1.984-.878.594-1.999 1.564-2.864 2.738.445.033 1.714.387 1.714.387 1.874-1.594 4.69-2.501 6.641-2.501z" fill="#2463a9"/><path d="M53.195 88.292c1.338 0 1.875.434 2.613.878.517.319.923.671 1.309 1.02.826.738.59 1.415-.058 1.926-.333.265-.618.584-1.458 1.13-.405.267-1.105.696-1.583.898-.841.348-1.207.387-1.512.387-.309 0-.801-.048-1.077-.323l-2.139 1.308c.642.501 1.371.671 2.598.671 1.386 0 2.492-.299 3.858-.834 1.771-.701 3.762-2.078 4.423-2.455 1.353-.773 2.719-1.275 4.182-1.275 1.289 0 2.742.763 4.37 1.541 1.922.922 4.269 1.825 6.427 1.825 1.294 0 2.743-.189 4.26-.498 2.694-.55 5.591-1.458 8.426-2.419l-.921-1.655c-.691.255-3.058.921-5.603 1.487-2.11.463-4.25.882-5.36.882-.907 0-1.975-.066-2.931-.361-1.623-.488-3.081-1-3.081-2.304 0-.902.386-1.54 1.478-1.979 1.767-.71 4.52-.666 5.968-.666.271-.29 1.367-1.608 1.367-1.608a18.146 18.146 0 0 0-3.525-.357c-1.815 0-3.492.232-4.882.816-1.289.542-2.303 1.324-3.037 2.381-.295.42-.599.82-1.042.82-.735 0-2.01-.599-3.342-.599-.58 0-1.072.12-1.584.12-1.348 0-3.105-.98-4.67-1.815-.985-.526-1.999-1.019-3.177-1.019-.488 0-1.158.121-1.753.372-1.144.478-2.304 1.251-2.888 1.738l1.048.72c.611-.319 1.723-.753 3.296-.753zM147.803 103.324c-5.037-4.248-9.91-8.896-13.346-12.696-5.934-6.552-14.018-19.055-16.779-26.13-1.02-2.603-3.125-1.719-2.047.928 2.607 6.394 8.619 15.796 14.896 23.547-1.463-.648-3.277-1.518-4.258-1.951-.334.546-1.16 1.627-2.01 2.515-.984 1.024-1.998 1.854-2.312 2.144-.691.643-1.197.691-1.662-.023-.211-.339-.66-.946-.893-2l-1.334-1.689c-.715-.898-4.064-5.48-5.09-7.021-1.023-1.535-2.35-3.178-4.5-3.178-2.66 0-3.578 2.946-3.785 5.635l1.766-.768c.412-1.666 1.229-2.535 2.02-2.535.564 0 1.256.821 1.256 1.434-.256.72-.721 2.207-.947 3.356l1.74.59c0-.846.355-2.382.844-3.178 0 0 .482.41.662.744.115.216.975 1.53 1.971 3.278.889 1.56 1.877 3.487 2.785 5.022.439.739.943 1.401 1.279 1.922.449.687.852 1.168 1.279 1.411.4.221.832.227 1.18.227 1.125 0 1.641-.373 2.404-1.023 1.43-1.233 2.662-2.946 3.936-4.482l3.004 1.356a98.607 98.607 0 0 0 3.516 1.589c2.561 2.908 5.428 5.757 8.436 8.466l2.043 1.801c.557.482 1.115.955 1.682 1.424l2.264-.715z" fill="#2463a9"/><path d="M159.078 102.451c-5.145-11.262-11.924-25.112-17.723-33.596l-1.354-1.903c-1.936-2.611-4.031-4.776-6.084-6.876l-1.594-1.569c-4.018-3.893-8.527-7.785-11.963-10.558-3.031-2.442-5.186-8.074-12.129-8.074-6.258 0-8.398 4.254-9.098 6.747-.465 1.636-.666 2.201-1.102 2.815l-3.975 4.733 4.689-.377-2.376 3.945c1.362-.284 9.585-1.936 11.276.72 2.053 3.212.652 6.698 4.49 14.005l1.66 2.888c1.91 3.072 4.172 6.089 6.182 8.47l-1.922 4.148 1.334 1.689 2.988-6.301c-1.525-1.362-6.09-7.5-7.977-10.914-4.289-7.765-2.604-11.759-5.221-15.318-2.424-3.303-9.357-1.743-9.357-1.743l2.557-3.587-4.426.54L100 49.873c.436-.637.537-1.023.715-1.638.869-3.152 3.148-6.277 7.475-6.277 5.254 0 6.756 4.033 10.408 7.244 3.697 3.255 11.449 9.513 18.541 17.606 5.719 6.524 13.049 21.692 18.68 33.664-6.156-3-16.582-13.314-20.949-21.041l-2.061-.241c4.689 8.895 14.752 19.252 24.705 24.891l1.564-1.63z" fill="#2463a9"/><path d="M144.822 65.272c1.641-1.179 3.584-2.14 5.631-2.917 1.26 1.526 4.23 2.863 6.586 3.177l-.377 2.493c-2.613-1.319-7.232-2.662-11.84-2.753l-2.066 1.776c6.252.116 10.232 1.382 15.385 3.55l1.023-6.582c-2.043-.28-5.264-.864-6.379-2.448 4.713-1.435 9.604-1.976 12.492-1.936v-8.109c-1.289.754-2.912 1.459-4.443 1.933-1.873.574-3.576.826-4.045 0-.518-.908 2.066-2.526 4.729-3.941l-5.994-4.979c-.908 1.222-2.971 4.641-5.074 6.9-1.494 1.604-3.033 2.656-3.912 2-.461-.348-.479-1.352-.098-2.617.729-2.43 2.646-5.805 3.814-7.292l-8.285-.783c0 3.386-1.59 7.114-3.547 10.127-1.688 2.593-4.137 4.478-6.098 5.636l1.594 1.569c2.424-1.685 4.785-3.747 6.611-6.684 1.469-2.361 2.834-5.215 3.346-8.557l2.869.333c-1.193 2.187-2.541 5.583-2.643 7.804.072 1.511.363 1.781 1.141 2.356 1.439 1.077 3.221.353 4.92-1.101 1.873-1.599 3.715-4.279 5.584-6.704l2.422 2.02c-3.07 1.892-3.939 3.916-3.002 5.258.365.521 1.154.913 2.133.942.971.024 2.121-.262 3.377-.561.883-.213 1.84-.521 2.723-.792v3.226c-6.977.498-18.885 3.322-23.396 9.334l1.354 1.903c.391-.642.863-1.242 1.4-1.807l2.065-1.774zM53.587 49.423l.937.704c2.454-1.999 5.322-5.635 6.94-9.059l-.836-.594c-1.565 1.435-5.298 6.113-7.041 8.949z" fill="#2463a9"/><path d="M52.148 47.235c-1.376-4.857 2.153-7.765 5.838-7.495 1.382-2.661 3.549-3.192 5.853-1.811 2.144 1.29 1.965 4.568.178 6.104.638 2.921-1.955 7.084-5.982 6.877.478 4.032-4.468 6.326-7.466 3.693-2.492-2.186-1.971-5.827 1.579-7.368zm-1.705-.743c-1.279.28-1.946.922-2.516 2.309.382-3.154-1.714-6.177-5.167-5.945.338-5.635-5.244-8.991-10.18-6.248-2.916-2.497-6.176-1.99-8.137.333-1.874 2.221-1.811 5.968 1.976 7.968-.957 3.892 2.608 7.76 6.799 6.861.241 1.198 1.12 1.84 2.279 2.318-1.743.102-2.458 1.835-2.458 1.835-5.558-1.424-8.426 2.27-8.519 6.147-4.056 1.232-5.191 6.302-2.085 9.263 3.211 3.071 7.041 1.811 8.711-1.329 3.583 1.362 7.418-.85 7.518-4.809 3.994.376 5.525-2.772 5.153-6.089l-1.266-.102c-.545 3.081-2.009 4.409-5.351 4.409-.145 2.96-3.308 5.529-6.891 4.849-1.005 2.366-3.955 3.138-5.969 1.159-2.009-1.98-1.343-5.703 2.202-6.375-.145-3.631 3.389-5.881 8.436-5.64 1.434-1.777 2.593-2.531 4.742-2.323l.02-1.033c-2.014-.271-4.284-2.179-4.452-4.23-4.298.342-7.24-2.121-7.094-5.984-2.762-1.294-2.265-4.129-1.371-5.205 1.54-1.859 3.693-1.71 5.433-.208 4.911-1.878 8.865 1.999 8.865 6.234 0 0 2.295-.044 3.584 1.299 1.705 1.782 1.705 3.332 2.11 5.06.382 1.632 1.203 3.801 3.207 5.365 3.544 2.763 9.036 2.014 9.596-3.814 4.717.419 7.818-3.284 6.263-7.813 3.303-2.357 2.646-7.215-.459-9.094a5.798 5.798 0 0 0-8.46 2.41c-4.834-1.111-8.774 3.709-6.519 8.422zM72.251 74.727c.425-1.7-1.816-1.952-2.125-.386-.328 1.676-2.366 4.535-4.297 6.326l.69.744c2.535-1.894 5.187-4.515 5.732-6.684zM83.507 46.646a1.425 1.425 0 0 0 0-2.848c-.787 0-1.419.642-1.419 1.424 0 .787.632 1.424 1.419 1.424zM104.475 47.945a1.689 1.689 0 0 1 3.377 0 1.69 1.69 0 0 1-1.688 1.695c-.93 0-1.689-.758-1.689-1.695zM101.799 78.324c-10.99-.844-21.932-.154-21.932-.154l.771-2.014c10.508-.763 21.316 0 21.316 0l-.155 2.168z" fill="#2463a9"/><path d="M35.386 85.974s.623.832 1.594 1.865c.329.464.69.796 1.148 1.227 2.015 1.965 4.979 3.438 8.036 4.027.869.166 1.642.295 2.502.295 1.304 0 2.505-.7 3.273-1.387l-1.197-1.396c-.386.115-1.188.115-1.719.115-4.433 0-10.058-2.901-11.353-6.263-.131-.328-.285-.511-.154-.821.125-.309.29-.96.381-1.559.261.299.796.748 1.477 1.187 1.652 1.058 4.791 2.521 5.404 2.913a19.865 19.865 0 0 0 3.718-1.483c.922-.478 2.183-.908 3.641-.908 3.24 0 6.963 1.844 10.46 3.568l2.39-.937c-3.105-2.187-9.855-5.244-13.612-5.244-2.212 0-4.294 1.623-5.775 1.623-1.821 0-7.036-2.545-7.036-4.665 0-1.632 3.375-2.56 8.802-3.227a60.092 60.092 0 0 0-2.66 4.303l1.381.768c8.499-12.329 17.336-20.334 24.773-25.207 2.704-1.773 3.318-2.81 4.259-4.747 2.304-4.713 4.477-8.34 8.258-8.34 1.762 0 3.206.995 4.197 2.222l2.733.821-2.768 1.878 2.831 1.13c-3.695 1.038-8.741 4.636-10.788 9.914-3.936.208-5.834 3.4-7.118 6.075-.87 1.802-2.25 2.521-4.264 3.888L52.105 78.846l2.216.309 14.868-9.977c2.937-1.979 4.327-3.438 5.033-4.849 1.376-2.762 2.864-4.814 5.781-4.814 1.434 0 2.964.613 4.191 1.777l2.612.85-2.849 1.743 2.39 1.474c-6.828 2.14-11.054 7.036-13.507 16.394l1.806.406c.903-3.095 1.801-5.939 3.399-8.451 3.95-.043 7.955-.188 11.88-.188 10.479 0 19.18.444 23.874 1.83l-1.66-2.888c-5.021-.86-12.309-1.299-22.213-1.299-3.317 0-6.684.12-10.025.159 2.159-2.284 5.259-4.211 10.04-5.693l-3.39-1.869 3.766-2.096-5.133-1.913c-.898-.806-2.014-1.545-3.418-1.903 1.646-5.056 7.243-8.011 12.613-10.049l-3.761-1.541 3.79-2.076-5.838-1.865c-1.526-1.796-2.989-2.613-5.24-2.613-5.418 0-7.697 4.708-9.841 8.881-1.135 2.202-1.845 3.129-3.767 4.385-4.168 2.728-9.475 6.9-14.544 12.246-2.647-1.911-8.061-7.505-9.523-10.556-.58.719-1.154 2.285-1.154 2.285.556.583 6.925 7.03 9.295 9.763-.179.198-.356.396-.535.599-2.526.502-9.083 1.135-11.315.831l-1.255 2.227c1.665-.164 8.185-.933 10.889-1.092a78.5 78.5 0 0 0-2.41 3.081c-8.378.956-13.98 2.675-13.98 5.776 0 .512.207 1.091.207 1.636 0 1.299-.488 1.778-1.41 2.357-.599.382-.638.643-.381 1 1.39 2.246-2.927 3.361.081 7.379l2.55.154c-.001.001-2.488-1.446-.851-4.682zM32.081 41.366l-.83.85c1.193 1.705 6.476 6.438 9.155 8.196l.985-1.222c-1.757-2.067-6.751-6.524-9.31-7.824zM28.435 65.223l.782.854c2.014-.975 5.799-3.776 7.847-5.876l-.564-.836c-2.406 1.005-6.124 3.757-8.065 5.858z" fill="#2463a9"/><path d="M145.104 100.117a2.661 2.661 0 0 0-2.66-2.664l-3.939-.002a2.665 2.665 0 0 0-2.66 2.672l.002 41.205a2.66 2.66 0 0 0 2.66 2.666h3.939a2.664 2.664 0 0 0 2.658-2.67v-41.207zM150.125 101.213v1.959a1.47 1.47 0 0 0 1.475 1.465h27.182c1.238 0 2.244-1 2.244-2.24v-3.318c0-1.238-1.018-2.361-2.25-2.24 0 0-26.273 2.578-27.121 2.674-.979.108-1.53.889-1.53 1.7zM128.121 143.996c-6.762 0-11.018-5.127-11.018-10.836l-.006-16.486h-1.936a1.864 1.864 0 0 1-1.867-1.865v-2.76c0-1.031.84-1.859 1.869-1.859l1.934.002-.004-10.137a2.593 2.593 0 0 1 2.594-2.598h3.842a2.602 2.602 0 0 1 2.594 2.605l.002 10.129h5.99c1.033 0 1.873.83 1.873 1.861v2.76a1.862 1.862 0 0 1-1.867 1.861h-5.996l.004 15.25c0 2.994 1.814 5.037 5.059 5.037l.545-.004c1.119 0 2.029.902 2.029 2.021v2.996a2.02 2.02 0 0 1-2.027 2.021h-3.614v.002zM64.797 109.004c-10.931 0-17.062 8.555-17.062 17.568 0 9.605 6.567 18.064 17.133 18.064 7.232 0 14.361-3.811 15.708-10.07.182-.844-.387-1.951-1.577-1.955h-5.167c-.938 0-1.705.449-2.167 1.127-1.478 2.168-3.645 3.322-6.848 3.322-4.526 0-7.664-3.566-7.9-7.521h21.977c2.024 0 2.928-1.098 2.928-2.969.002-8.789-5.201-17.566-17.025-17.566zm0 7.055c4.035 0 7.518 2.871 7.871 6.756H56.986c.352-3.885 3.776-6.756 7.811-6.756zM164.939 109.004c-10.93 0-17.061 8.555-17.061 17.568 0 9.605 6.568 18.064 17.133 18.064 7.232 0 14.361-3.811 15.709-10.07.182-.844-.387-1.951-1.576-1.955h-5.168c-.938 0-1.705.449-2.168 1.127-1.477 2.168-3.645 3.322-6.848 3.322-4.525 0-7.662-3.566-7.9-7.521h21.979c2.023 0 2.928-1.098 2.928-2.969 0-8.789-5.203-17.566-17.028-17.566zm0 7.055c4.037 0 7.52 2.871 7.873 6.756h-15.684c.352-3.885 3.776-6.756 7.811-6.756z" fill="#fff"/><path d="M109.705 97.916H38.518a2.925 2.925 0 0 0-2.925 2.93l.245 27.959s-15.34-27.707-16.14-29.121c-.751-1.33-2.366-2.555-4.601-2.555H9.243a2.93 2.93 0 0 0-2.93 2.932l.003 41.002a2.93 2.93 0 0 0 2.928 2.932h3.755a2.933 2.933 0 0 0 2.926-2.939l-.236-28.742S31.177 140.298 31.84 141.4c.893 1.49 2.405 2.596 4.597 2.596h5.378a2.929 2.929 0 0 0 2.927-2.932l-.002-36.199 64.969.002a1.998 1.998 0 0 0 2.004-1.996v-2.957a2.004 2.004 0 0 0-2.008-1.998z" fill="#fff"/><path d="M98.184 115.717c3.096 0 5.41 1.123 6.244 3.062.4.932 1.176 1.111 2.242 1.111h4.256c.703 0 1.512-.605 1.512-1.525 0-4.947-5.9-9.365-14.26-9.365-8.643 0-14.32 4.117-14.32 10.678 0 5.018 3.966 8.004 8.841 9.279 2.222.58 6.016 1.518 7.863 2.004 1.992.521 3.773 1.131 3.773 2.836 0 2.693-2.838 3.609-5.938 3.609-2.937 0-5.862-1.311-6.701-3.406-.485-1.213-1.336-1.389-2.626-1.389h-4.329c-.755 0-1.624.648-1.624 1.633v.559c0 4.789 6.425 9.805 15.288 9.805 6.285 0 15.041-2.613 15.041-11.041 0-4.881-3.266-8.26-8.58-9.611-2.078-.527-7.074-1.797-8.161-2.078-1.937-.502-3.745-1.133-3.745-2.793.001-2.515 2.325-3.368 5.224-3.368z" fill="#fff"/><path d="M145.104 100.117a2.661 2.661 0 0 0-2.66-2.664l-3.939-.002a2.665 2.665 0 0 0-2.66 2.672l.002 41.205a2.66 2.66 0 0 0 2.66 2.666h3.939a2.664 2.664 0 0 0 2.658-2.67v-41.207zM150.125 101.213v1.959a1.47 1.47 0 0 0 1.475 1.465h27.182c1.238 0 2.244-1 2.244-2.24v-3.318c0-1.238-1.018-2.361-2.25-2.24 0 0-26.273 2.578-27.121 2.674-.979.108-1.53.889-1.53 1.7zM128.121 143.996c-6.762 0-11.018-5.127-11.018-10.836l-.006-16.486h-1.936a1.864 1.864 0 0 1-1.867-1.865v-2.76c0-1.031.84-1.859 1.869-1.859l1.934.002-.004-10.137a2.593 2.593 0 0 1 2.594-2.598h3.842a2.602 2.602 0 0 1 2.594 2.605l.002 10.129h5.99c1.033 0 1.873.83 1.873 1.861v2.76a1.862 1.862 0 0 1-1.867 1.861h-5.996l.004 15.25c0 2.994 1.814 5.037 5.059 5.037l.545-.004c1.119 0 2.029.902 2.029 2.021v2.996a2.02 2.02 0 0 1-2.027 2.021h-3.614v.002zM81.824 126.57c0-8.789-5.203-17.566-17.026-17.566-10.931 0-17.062 8.555-17.062 17.568 0 9.605 6.567 18.064 17.133 18.064 7.232 0 14.361-3.811 15.708-10.07.182-.844-.387-1.951-1.577-1.955h-5.167c-.938 0-1.705.449-2.167 1.127-1.478 2.168-3.645 3.322-6.848 3.322-4.526 0-7.664-3.566-7.9-7.521h21.977c2.024 0 2.929-1.098 2.929-2.969zm-24.838-3.756c.353-3.885 3.776-6.756 7.812-6.756 4.035 0 7.518 2.871 7.871 6.756H56.986zM181.967 126.57c0-8.789-5.203-17.566-17.027-17.566-10.93 0-17.061 8.555-17.061 17.568 0 9.605 6.568 18.064 17.133 18.064 7.232 0 14.361-3.811 15.709-10.07.182-.844-.387-1.951-1.576-1.955h-5.168c-.938 0-1.705.449-2.168 1.127-1.477 2.168-3.645 3.322-6.848 3.322-4.525 0-7.662-3.566-7.9-7.521h21.979c2.022 0 2.927-1.098 2.927-2.969zm-24.838-3.756c.352-3.885 3.775-6.756 7.811-6.756 4.037 0 7.52 2.871 7.873 6.756h-15.684z" fill="#2463a9"/><path d="M109.705 97.916H38.518a2.925 2.925 0 0 0-2.925 2.93l.245 27.959s-15.34-27.707-16.14-29.121c-.751-1.33-2.366-2.555-4.601-2.555H9.243a2.93 2.93 0 0 0-2.93 2.932l.003 41.002a2.93 2.93 0 0 0 2.928 2.932h3.755a2.933 2.933 0 0 0 2.926-2.939l-.236-28.742S31.177 140.298 31.84 141.4c.893 1.49 2.405 2.596 4.597 2.596h5.378a2.929 2.929 0 0 0 2.927-2.932l-.002-36.199 64.969.002a1.998 1.998 0 0 0 2.004-1.996v-2.957a2.004 2.004 0 0 0-2.008-1.998z" fill="#2463a9"/><path d="M98.184 115.717c3.096 0 5.41 1.123 6.244 3.062.4.932 1.176 1.111 2.242 1.111h4.256c.703 0 1.512-.605 1.512-1.525 0-4.947-5.9-9.365-14.26-9.365-8.643 0-14.32 4.117-14.32 10.678 0 5.018 3.966 8.004 8.841 9.279 2.222.58 6.016 1.518 7.863 2.004 1.992.521 3.773 1.131 3.773 2.836 0 2.693-2.838 3.609-5.938 3.609-2.937 0-5.862-1.311-6.701-3.406-.485-1.213-1.336-1.389-2.626-1.389h-4.329c-.755 0-1.624.648-1.624 1.633v.559c0 4.789 6.425 9.805 15.288 9.805 6.285 0 15.041-2.613 15.041-11.041 0-4.881-3.266-8.26-8.58-9.611-2.078-.527-7.074-1.797-8.161-2.078-1.937-.502-3.745-1.133-3.745-2.793.001-2.515 2.325-3.368 5.224-3.368zM185.02 142.264h-.965v-4.512h1.686c1.164 0 1.852.332 1.852 1.363 0 .83-.488 1.131-1.086 1.176l1.152 1.973h-1.143l-1.041-1.896h-.455v1.896zm.853-2.66c.434 0 .688-.09.688-.59 0-.465-.5-.498-.863-.498h-.678v1.088h.853zm-.156 4.599c-2.227 0-4.213-1.541-4.213-4.191 0-2.648 1.986-4.189 4.213-4.189 2.219 0 4.205 1.541 4.205 4.189 0 2.65-1.986 4.191-4.205 4.191zm0-7.406c-1.662 0-3.004 1.287-3.004 3.215 0 1.93 1.342 3.229 3.004 3.217v.012c1.621 0 2.994-1.299 2.994-3.229 0-1.928-1.373-3.215-2.994-3.215z" fill="#2463a9"/></g></svg>