<svg height="1441" width="2500" xmlns="http://www.w3.org/2000/svg" viewBox="1.077 0.924 141.733 80.75999999999999"><g fill="#3771c8"><path d="M109.398 11.824H95.244l-9.608 14.54V.924H74.74v45.957h10.897V30.583l11.19 16.298h14.12L95.413 28.516zM49.639 25.373c.286-2.94 2.149-7.098 6.739-7.098 5.017 0 6.164 4.443 6.164 7.098zm7.385-14.34c-12.19 0-17.71 9.824-17.71 18.711 0 10.969 6.813 17.85 18.712 17.85 4.73 0 9.105-.713 12.689-2.149l-1.434-7.381c-2.94.929-5.953 1.432-9.678 1.432-5.09 0-9.535-2.15-9.892-6.668h22.581c.143-.787.36-2.438.36-4.301 0-8.676-4.304-17.493-15.628-17.493M19.501 39.855c-4.346 0-6.82-3.932-7.134-9.35V28.17c.274-4.78 2.289-9.394 7.134-9.394 4.948 0 6.954 5.305 6.954 10.536 0 6.31-2.724 10.542-6.954 10.542zm.287-28.821c-2.713 0-5.2.43-7.42 1.23V.924H1.077v29.619c.433 10.75 8.178 17.125 18.139 17.125 9.39 0 18.494-5.88 18.494-18.712 0-10.537-7.168-17.922-17.923-17.922"/><path d="M124.602 39.855c-4.662 0-7.17-4.516-7.17-10.542 0-5.16 1.935-10.536 7.17-10.536 4.945 0 6.952 5.305 6.952 10.536 0 6.31-2.725 10.542-6.952 10.542zm.286-28.821c-11.255 0-18.71 7.241-18.71 18.568 0 11.326 7.882 18.066 18.136 18.066 9.39 0 18.496-5.88 18.496-18.712 0-10.537-7.17-17.922-17.922-17.922M1.078 70.681v11.003l137.726-19.356V51.326z"/></g></svg>