<svg width="2184" height="2500" viewBox="0 0 256 293" xmlns="http://www.w3.org/2000/svg" preserveAspectRatio="xMidYMid"><path d="M78.67 179.029c-4.65 2.907-11.656 7.619-17.076 12.743-8.898 8.403-10.76 20.059-6.066 22.782 4.342 2.517 14.479-.478 21.734-8.392 7.614-8.308 10.754-18.84 7.511-30.796-.381.227-.755.455-1.122.667l.008.017-.492.278c-1.893 1.13-3.44 2.063-4.497 2.7zm130.671-3.773c-2.634 5.725-2.766 7.566-1.966 8.14 3.822-1.373 10.145-4.682 10.195-13.55.008-1.328-.285-2.752-.755-4.242-4.086 3.618-6.441 7.406-7.474 9.652zm41.01-17.306c-10.21-1.19-18.177.242-24.36 2.818 1.145 2.98 2.025 6.083 2.149 9.21.287 6.863-4.437 11.942-9.36 15.569-2.875 2.114-5.934 3.523-8.502 4.374-2.053.865-4.782 1.76-6.719 1.365-4.27-.868-6.543-4.66-3.638-13.028 1.569-4.528 6.095-11.42 13.401-17.358-1.665-3.428-3.521-6.92-4.467-10.13-1.864-6.326-2.427-10.15-2.427-10.15s-6.022 12.486-13.791 23.84c-.448.66-.895 1.306-1.343 1.951 1.526 3.547 2.728 7.297 2.891 11.077.286 6.863-2.685 12.052-7.615 15.67-2.669 1.968-5.516 3.327-7.959 4.192-1.562.681-4.739 1.804-9.257 2.106-2.471.169-4.848.016-6.175-.99-1.827-1.38-2.047-3.084-1.101-5.41.8-1.976 6.785-8.808 11.803-14.79a123.815 123.815 0 0 0 3.887-4.903l-.029-.066s.909-1.173 2.384-3.221c-1.834-3.95-4.159-8.06-5.252-11.788-1.864-6.327-2.428-10.151-2.428-10.151s-6.104 15.649-12.463 28.14c-4.921 9.675-8.208 15.538-9.689 18.108l-.015.103s-.221.375-.602.962l-.285.476-.008-.044c-1.651 2.438-5.355 7.214-9.037 7.214-10.108 0-6.397-20.529-6.397-20.529s-2.955 7.605-6.286 14.13c-2.713 5.32-5.185 9.828-10.591 9.828-1.555 0-4.02-.044-6.067-1.99-4.643-4.411-8.193-15.612-7.497-24.287.594-7.376 1.731-12.486 3.286-16.748a336.981 336.981 0 0 0-9.242 5.219l-5.018 2.957.162.294c4.151 8.03 5.259 25.623-3.793 39.127-9.051 13.512-25.9 21.733-42.316 17.168-5.297-1.475-13.299-12.433-6.397-27.707 6.088-13.47 30.419-26.203 36.831-29.381l1.76-.97c-12.784-11.185-44.708-26.275-49.182-49.454-1.262-6.525 1.797-22.13 20.956-40.067 16.115-15.084 38.532-26.637 59.24-33.999 34.79-12.366 71.548-5.072 77.203 17.11 5.56 21.814-13.364 47.907-37.6 57.287-21.639 8.374-39.53 7.046-46.88 4.632-8.355-2.745-13.255-8.258-14.45-11.37-.47-1.219-1.278-3.266 0-3.97.784-.434 1.099-.33 3.197 1.989 1.996 2.202 10.02 8.11 25.263 6.4 40-4.484 64.095-35.584 56.481-52.319-5.332-11.713-36.162-16.998-74.68 2.21-47.019 23.442-49.571 42.768-49.974 50.108-1.101 20.192 24.902 30.813 38.972 45.829l.542.595c2.633-1.453 5.414-2.987 8.142-4.484a8176.293 8176.293 0 0 1 16.901-9.258c4.952-7.197 15-15.14 22.255-15.14 11.597 0 7.614 16.668 7.614 16.668s.235-.762.55-.77c.33-.008 1.607-2.196 5.187-.89 3.682 1.352 2.845 3.936 2.868 4.2.044.512-4.35 15.331-6.176 24.837-.874 4.536-.368 7.84-.11 7.84.359 0 1.093-1.154 1.775-2.393l-.015-.037s.513-.94 1.372-2.627l.169-.353.007.016a213.875 213.875 0 0 0 4.078-8.507c3.22-7.097 15.506-34.498 16.548-37.528 1.041-3.031 1.584-6.166 2.098-7.51.506-1.343 4.849-2.356 9.924-2.319 5.076.037 5.591 2.203 5.626 2.65.037.447-2.413 6.46-2.978 10.709-.557 4.25-.021 6.37.441 9.938.301 2.333 1.76 5.292 3.485 8.645 5.252-8.588 14.493-25.013 15.381-29.615.608-3.148 1.584-6.165 2.098-7.51.513-1.343 4.849-2.355 9.924-2.319 5.076.038 5.589 2.203 5.626 2.65.037.448-2.421 6.46-2.978 10.71-.558 4.242-.021 6.37.44 9.938.397 3.052 2.758 7.155 5.099 11.822 6.388-3.148 13.907-5.261 22.71-5.305 3.645-.022 7.878.344 10.064 1.026V80.055c0-4.954-2.539-9.52-6.829-11.993L134.616 1.855a13.78 13.78 0 0 0-13.812 0L6.573 68.03C2.289 70.504 0 75.076 0 80.022v132.47c0 4.946 2.303 9.519 6.58 11.992l114.415 66.225a13.645 13.645 0 0 0 13.76 0l114.467-66.226c4.283-2.48 6.778-7.047 6.778-11.992v-53.536c-1.453-.428-3.58-.765-5.649-1.006zm-123.232-6.938c-2.457 2.752-6.645 9.85-8.604 15.79-3.895 11.793-2.208 23.78.55 24.5 3.22.843 8.502-14.922 11.031-21.088 1.585-3.862 7.747-20.999 6.397-23.288-1.054-1.791-5.42-.345-9.374 4.087zm44.563 39.752s-.777.736-.441.94c.455.272 1.438-.08 2.509-.639 3.03-1.906 9.829-6.663 9.844-13.702 0-.206-.008-.404-.022-.617a276.359 276.359 0 0 1-4.284 5.475c-2.142 2.665-7.606 8.543-7.606 8.543z" fill="#8CC84B"/></svg>