<svg xmlns="http://www.w3.org/2000/svg" width="2500" height="2500" viewBox="0 0 192.756 192.756"><g fill-rule="evenodd" clip-rule="evenodd"><path fill="#fff" d="M0 0h192.756v192.756H0V0z"/><path d="M54.567 105.334c5.142 5.37 12.34 8.712 20.252 8.712 15.454 0 28.108-12.626 28.108-28.108 0-2.428 0-4.485-1.113-7.884H82.703c2.057 2.057 3.371 4.914 3.371 7.884 0 6.227-5.056 11.254-11.254 11.254s-11.255-5.027-11.255-11.254 5.056-11.255 11.255-11.255h33.735c6.199 0 11.256 5.028 11.256 11.255s-5.057 11.254-11.256 11.254h-5.627v16.854h5.627c7.342 0 14.711-3.056 19.854-8.227 5.141 5.171 12.512 8.227 19.852 8.227h5.285V97.192h-5.285c-6.197 0-11.254-5.027-11.254-11.254s5.057-11.255 11.254-11.255h10.912v39.363h16.854V74.683h12.369V57.83H148.26c-7.34 0-14.711 3.057-19.852 8.227-5.143-5.17-12.512-8.227-19.854-8.227l-33.878.086c-7.913 0-15.083 3.285-20.109 8.569v-8.684H37.684V76.94H19.688V57.801H2.834v56.245h16.854V93.793h17.996v20.253h16.883v-8.712z" fill="#33348e"/><path d="M3.437 118.66h4.445v2.438h-.083c-.188 0-.314.048-.379.144-.065.099-.099.302-.099.619v1.635h1.974v-1.635c0-.292-.031-.492-.091-.604-.07-.104-.203-.159-.395-.159h-.075v-2.438h4.445v2.438h-.533c-.189 0-.314.048-.382.144-.065.099-.099.305-.099.619v6.937c0 .279.031.479.091.604.073.104.2.158.389.158h.533v2.438H8.734v-2.438h.076a.516.516 0 0 0 .395-.158c.06-.111.091-.312.091-.604v-2.4H7.321v2.4c0 .279.031.479.091.604.07.104.2.158.387.158h.083v2.438H3.437v-2.438h.533c.174 0 .304-.055.39-.158.06-.125.091-.324.091-.604v-6.937c0-.279-.031-.479-.091-.604-.062-.104-.19-.159-.39-.159h-.533v-2.438zM14.271 118.66h4.676v2.438h-.312c-.189 0-.314.048-.382.144-.065.099-.099.305-.099.619v3.721h.088l2.109-6.921h3.518v2.438h-.524c-.185 0-.312.051-.382.15-.07.098-.106.304-.106.612v6.937c0 .285.031.482.096.593.062.111.192.169.393.169h.524v2.438h-4.676v-2.438h.312c.189 0 .316-.055.39-.158.064-.131.099-.331.099-.604v-3.375h-.114l-2.053 6.574h-3.556v-2.438h.532c.174 0 .304-.055.39-.158.06-.125.091-.324.091-.604v-6.937c0-.279-.031-.479-.091-.604-.062-.104-.189-.159-.39-.159h-.532v-2.437h-.001zM32.521 123.615a.934.934 0 0 0 .517-.158 1.38 1.38 0 0 0 .312-.454c.083-.206.153-.46.213-.762l.078-.327.052-.26.076-.324c.205-.851.467-1.565.79-2.143.322-.581.813-.87 1.473-.87.421 0 .852.114 1.294.343v3.124c-.286 0-.499.095-.639.289-.138.203-.294.536-.471 1-.174.46-.371.838-.59 1.13-.187.267-.514.477-.981.632v.222c.514 0 .927.22 1.244.654.317.432.515.965.59 1.6.052.34.112.594.185.756.07.165.208.248.41.248.06 0 .203-.038.426-.111v3.793c-.366.22-.792.328-1.278.328-.416 0-.766-.1-1.047-.299-.281-.197-.543-.581-.779-1.152-.133-.299-.262-.664-.392-1.096s-.263-.93-.4-1.501l-.161-.737a3.454 3.454 0 0 0-.192-.603.755.755 0 0 0-.268-.327c-.108-.066-.262-.102-.459-.102v2.289c0 .279.031.479.091.604.07.104.203.158.395.158h.343v2.438h-4.237v-2.438h.343c.171 0 .301-.055.387-.158.06-.111.091-.312.091-.604v-2.289a.949.949 0 0 0-.465.111c-.085.051-.174.165-.265.346l-.176.512c-.029.184-.085.45-.167.8-.26 1.124-.524 1.987-.8 2.597-.224.571-.473.955-.753 1.152-.278.199-.634.299-1.065.299-.517 0-.943-.108-1.278-.328v-3.793c.223.073.363.111.418.111.203 0 .346-.09.426-.261a4.06 4.06 0 0 0 .168-.746 3.627 3.627 0 0 1 .608-1.597c.31-.435.72-.654 1.234-.654v-.222c-.462-.149-.79-.353-.979-.613-.189-.26-.384-.641-.582-1.146-.176-.457-.34-.787-.486-.984-.132-.206-.345-.308-.642-.308v-3.143c.447-.216.878-.324 1.294-.324.66 0 1.156.289 1.486.863.33.578.587 1.292.777 2.149l.083.371.083.353.055.241c.07.324.143.559.218.708.073.185.176.337.314.454a.808.808 0 0 0 .494.158v-1.755c0-.292-.031-.492-.091-.601-.062-.107-.19-.162-.387-.162h-.343v-2.438h4.237v2.438h-.343a.513.513 0 0 0-.395.159.54.54 0 0 0-.065.203 2.253 2.253 0 0 0-.026.4v1.757h-.003zM38.586 118.66h7.672v4.286h-2.016a11.525 11.525 0 0 0-.06-.571 2.313 2.313 0 0 0-.046-.264c-.049-.267-.125-.419-.221-.457-.112-.067-.281-.103-.509-.103h-.936v2.232h1.871v2.892H42.47v2.419h.777c.257 0 .455-.044.592-.13.138-.073.247-.264.328-.568l.122-.743h1.93v4.343h-7.633v-2.438h.533c.174 0 .304-.055.39-.158.06-.125.091-.324.091-.604v-6.937c0-.279-.031-.479-.091-.604-.062-.104-.192-.159-.39-.159h-.533v-2.436zM51.23 121.552v7.245c0 .279.031.479.091.604.072.104.2.158.39.158h.532v2.438h-4.897v-2.438h.533c.174 0 .304-.055.389-.158.06-.125.091-.324.091-.604v-6.937c0-.279-.031-.479-.091-.604-.062-.104-.189-.159-.389-.159h-.533v-2.438h7.17v4.781h-1.933c-.055-.702-.096-1.137-.125-1.302a.943.943 0 0 0-.203-.447c-.117-.093-.281-.141-.494-.141h-.531v.002zM59.302 132.324a3.779 3.779 0 0 1-2.031-.578c-.621-.385-1.138-.972-1.554-1.766-.294-.597-.522-1.292-.686-2.092a15.49 15.49 0 0 1-.174-1.234 12.349 12.349 0 0 1 .198-3.771c.171-.848.408-1.56.707-2.128.447-.869.987-1.491 1.618-1.869.632-.378 1.273-.568 1.923-.568s1.289.193 1.917.578c.601.339 1.141.958 1.621 1.859.213.426.39.893.533 1.395.107.396.216.937.328 1.618.07.533.106 1.055.106 1.562 0 1.879-.307 3.428-.92 4.65-.397.788-.906 1.375-1.535 1.763a3.833 3.833 0 0 1-2.051.581zm0-11.105a.707.707 0 0 0-.592.279c-.169.185-.283.53-.343 1.032-.08.501-.122 1.226-.122 2.168v1.282c0 .801.021 1.416.06 1.848.042.429.14.804.293 1.121.156.314.39.473.704.473s.559-.165.73-.492c.132-.33.226-.729.281-1.2 0-.234.002-.422.008-.558a59.55 59.55 0 0 0 .039-1.191v-1.282c0-.515-.008-.946-.024-1.289a7.28 7.28 0 0 0-.083-.879c-.076-.489-.19-.832-.343-1.022a.726.726 0 0 0-.608-.29zM64.633 118.66h3.676c.792 0 1.468.066 2.023.197.585.11 1.091.326 1.522.65.432.32.769.784 1.014 1.385.244.6.366 1.355.366 2.26 0 1.076-.176 1.917-.527 2.518a2.866 2.866 0 0 1-1.483 1.276c-.268.11-.598.199-.993.263a7.62 7.62 0 0 1-1.265.099h-.449v1.489c0 .279.031.479.091.604.072.104.2.158.39.158h.532v2.438h-4.896v-2.438h.532c.174 0 .304-.055.39-.158.06-.125.091-.324.091-.604v-6.937c0-.279-.031-.479-.091-.604-.062-.104-.189-.159-.39-.159h-.532v-2.437h-.001zm3.884 5.756h.267c.746 0 1.117-.508 1.117-1.523 0-.893-.358-1.341-1.073-1.341h-.312v2.864h.001zM78.209 132.324a3.779 3.779 0 0 1-2.031-.578c-.621-.385-1.138-.972-1.554-1.766-.294-.597-.522-1.292-.686-2.092a15.49 15.49 0 0 1-.174-1.234 12.349 12.349 0 0 1 .198-3.771c.171-.848.408-1.56.707-2.128.447-.869.987-1.491 1.618-1.869.632-.378 1.273-.568 1.923-.568s1.289.193 1.917.578c.601.339 1.141.958 1.621 1.859.213.426.39.893.533 1.395.107.396.216.937.328 1.618.07.533.106 1.055.106 1.562 0 1.879-.307 3.428-.92 4.65-.397.788-.906 1.375-1.535 1.763a3.83 3.83 0 0 1-2.051.581zm0-11.105a.707.707 0 0 0-.592.279c-.169.185-.283.53-.343 1.032-.08.501-.122 1.226-.122 2.168v1.282c0 .801.021 1.416.06 1.848.042.429.14.804.293 1.121.156.314.39.473.704.473s.559-.165.73-.492c.132-.33.226-.729.281-1.2 0-.234.002-.422.008-.558a59.55 59.55 0 0 0 .039-1.191v-1.282c0-.515-.008-.946-.024-1.289a7.28 7.28 0 0 0-.083-.879c-.076-.489-.19-.832-.343-1.022a.725.725 0 0 0-.608-.29zM84.088 118.66h8.867v2.438h-.533c-.189 0-.314.048-.382.144-.065.099-.099.305-.099.619v6.482c0 .346.036.556.106.622.07.086.195.13.374.13h.548v5.86h-1.995l-.091-1.199c-.021-.268-.034-.474-.044-.616a3.623 3.623 0 0 0-.023-.241c-.037-.403-.104-.654-.203-.752-.099-.1-.304-.15-.618-.15h-3.617c-.366 0-.6.042-.701.121-.091.086-.158.308-.205.66l-.236 2.178h-2.008v-5.86c.325 0 .592-.107.803-.32s.369-.502.475-.86c.091-.312.172-.65.236-1.022l.182-1.542c.073-.645.112-1.025.122-1.137.037-.365.055-.667.055-.902 0-.222.005-.432.015-.622l.044-.882c0-.312-.042-.508-.122-.588-.081-.079-.239-.121-.471-.121h-.48v-2.44h.001zm4.983 10.435v-7.543h-1.619c0 .819-.018 1.578-.055 2.273a64.365 64.365 0 0 1-.15 2.2c-.099 1.234-.244 2.257-.437 3.069h2.261v.001zM98.145 132.324a3.781 3.781 0 0 1-2.031-.578c-.621-.385-1.138-.972-1.553-1.766-.294-.597-.522-1.292-.686-2.092a15.962 15.962 0 0 1-.174-1.234 12.349 12.349 0 0 1 .198-3.771c.171-.848.408-1.56.707-2.128.447-.869.987-1.491 1.619-1.869.631-.378 1.273-.568 1.921-.568.65 0 1.289.193 1.918.578.6.339 1.141.958 1.621 1.859.213.426.391.893.533 1.395.105.396.215.937.326 1.618.07.533.107 1.055.107 1.562 0 1.879-.307 3.428-.92 4.65-.398.788-.906 1.375-1.535 1.763a3.835 3.835 0 0 1-2.051.581zm0-11.105a.712.712 0 0 0-.592.279c-.168.185-.283.53-.342 1.032-.082.501-.123 1.226-.123 2.168v1.282c0 .801.021 1.416.061 1.848.041.429.139.804.293 1.121.156.314.391.473.703.473.314 0 .559-.165.73-.492.133-.33.227-.729.281-1.2 0-.234.002-.422.008-.558.025-.689.039-1.086.039-1.191v-1.282c0-.515-.008-.946-.023-1.289s-.043-.638-.084-.879c-.074-.489-.189-.832-.342-1.022a.727.727 0 0 0-.609-.29zM107.359 121.552v7.245c0 .279.031.479.092.604.07.104.199.158.387.158h.084v2.438h-4.445v-2.438h.531c.176 0 .305-.055.391-.158.061-.125.09-.324.09-.604v-6.937c0-.279-.029-.479-.09-.604-.062-.104-.189-.159-.391-.159h-.531v-2.438h9.742v2.438h-.533c-.189 0-.314.048-.383.144-.064.099-.098.305-.098.619v6.937c0 .279.031.479.092.604.072.104.199.158.389.158h.533v2.438h-4.445v-2.438h.074a.519.519 0 0 0 .396-.158c.059-.111.09-.312.09-.604v-7.245h-1.975zM114.041 118.66h9.236v4.67h-1.934l-.16-1.127a7.509 7.509 0 0 0-.047-.282 1.723 1.723 0 0 0-.029-.156.6.6 0 0 0-.18-.14c-.088-.047-.246-.073-.475-.073h-.359v7.245c0 .279.031.479.092.604.086.104.215.158.391.158h.531v2.438h-4.896v-2.438h.525a.516.516 0 0 0 .396-.158c.061-.111.092-.312.092-.604v-7.245h-.359c-.219 0-.373.02-.467.061a.345.345 0 0 0-.188.172l-.076.419-.16 1.127h-1.934v-4.671h.001zM128.756 118.66v2.438h-.168c-.148 0-.221.096-.221.29 0 .054.035.175.105.361l.596 1.254.607-1.254.145-.361v-.131c-.025-.104-.092-.159-.205-.159h-.174v-2.438h3.791v2.438h-.328a.641.641 0 0 0-.449.179c-.111.079-.26.305-.441.676l-.137.299-.131.241-1.025 2.111 1.688 3.673c.287.587.455.92.512.993a.528.528 0 0 0 .486.289h.375v2.438h-4.852v-2.438h.139c.158 0 .236-.114.236-.343 0-.111-.062-.312-.189-.597l-.557-1.216-.654 1.374a1.429 1.429 0 0 0-.146.492c0 .07.021.137.061.206.021.042.076.07.16.083h.221v2.438h-4.086v-2.438h.371c.205 0 .367-.048.488-.14.107-.066.258-.295.451-.68.039-.06.074-.133.105-.213l.1-.168.09-.175 1.188-2.457-1.605-3.447-.297-.66c-.082-.182-.145-.296-.191-.343a.299.299 0 0 0-.15-.14l-.268-.039h-.297v-2.438h4.656v.002zM139.109 132.324a3.774 3.774 0 0 1-2.031-.578c-.621-.385-1.139-.972-1.555-1.766-.293-.597-.521-1.292-.686-2.092a15.49 15.49 0 0 1-.174-1.234 12.349 12.349 0 0 1 .198-3.771c.172-.848.408-1.56.707-2.128.445-.869.986-1.491 1.617-1.869.633-.378 1.273-.568 1.924-.568.648 0 1.287.193 1.916.578.602.339 1.141.958 1.621 1.859.213.426.391.893.533 1.395.107.396.215.937.328 1.618.07.533.105 1.055.105 1.562 0 1.879-.307 3.428-.92 4.65-.396.788-.906 1.375-1.535 1.763a3.813 3.813 0 0 1-2.048.581zm0-11.105a.714.714 0 0 0-.594.279c-.168.185-.283.53-.342 1.032-.08.501-.123 1.226-.123 2.168v1.282c0 .801.021 1.416.061 1.848.041.429.141.804.293 1.121.156.314.391.473.705.473s.559-.165.729-.492c.133-.33.227-.729.281-1.2 0-.234.002-.422.008-.558.025-.689.039-1.086.039-1.191v-1.282c0-.515-.008-.946-.023-1.289s-.041-.638-.082-.879c-.076-.489-.191-.832-.344-1.022a.728.728 0 0 0-.608-.29zM148.365 126.435h-.371v-2.883c.416 0 .705-.024.875-.072.188-.025.338-.14.447-.347.102-.209.152-.508.152-.892 0-.261-.057-.505-.174-.736s-.363-.35-.74-.35c-.41 0-.695.175-.859.521-.08.165-.148.365-.201.598-.055.231-.08.501-.08.803h-2.785c0-.67.104-1.365.312-2.086a3.987 3.987 0 0 1 1.188-1.879c.584-.53 1.422-.794 2.52-.794.568 0 1.148.079 1.742.238.594.155 1.139.495 1.633 1.013.496.518.742 1.257.742 2.216 0 .609-.104 1.127-.312 1.556-.207.425-.443.739-.705.937a3.005 3.005 0 0 1-.885.485v.13c.209 0 .404.038.582.121.18.079.354.196.523.353.318.272.561.647.729 1.127.178.444.266.971.266 1.58 0 .502-.08 1.061-.238 1.68-.162.616-.539 1.2-1.131 1.749-.594.55-1.482.823-2.664.823-1.025 0-1.887-.242-2.588-.728a4.353 4.353 0 0 1-1.459-1.939 6.933 6.933 0 0 1-.459-2.518v-.482h2.824l-.016.231v.308c0 .819.121 1.413.363 1.778.244.365.557.549.941.549.238 0 .477-.107.721-.327.242-.216.365-.644.365-1.282 0-.989-.42-1.481-1.258-1.481zM153.789 118.66h9.236v4.67h-1.934l-.16-1.127a7.509 7.509 0 0 0-.047-.282 1.723 1.723 0 0 0-.029-.156.627.627 0 0 0-.18-.14c-.088-.047-.246-.073-.475-.073h-.359v7.245c0 .279.031.479.092.604.086.104.215.158.389.158h.533v2.438h-4.896v-2.438h.523c.17 0 .303-.055.398-.158.059-.111.09-.312.09-.604v-7.245h-.357c-.219 0-.375.02-.469.061a.347.347 0 0 0-.186.172l-.076.419-.16 1.127h-1.934v-4.671h.001zM168.086 132.324a3.774 3.774 0 0 1-2.031-.578c-.621-.385-1.139-.972-1.555-1.766-.293-.597-.521-1.292-.686-2.092a15.49 15.49 0 0 1-.174-1.234 12.349 12.349 0 0 1 .198-3.771c.172-.848.408-1.56.707-2.128.447-.869.986-1.491 1.617-1.869.633-.378 1.273-.568 1.924-.568.648 0 1.287.193 1.916.578.602.339 1.141.958 1.621 1.859.213.426.391.893.533 1.395.107.396.215.937.328 1.618.07.533.105 1.055.105 1.562 0 1.879-.307 3.428-.92 4.65-.396.788-.906 1.375-1.535 1.763a3.815 3.815 0 0 1-2.048.581zm0-11.105a.707.707 0 0 0-.592.279c-.17.185-.283.53-.344 1.032-.08.501-.123 1.226-.123 2.168v1.282c0 .801.021 1.416.061 1.848.041.429.141.804.293 1.121.156.314.391.473.705.473s.559-.165.73-.492c.131-.33.225-.729.279-1.2 0-.234.002-.422.008-.558.027-.689.039-1.086.039-1.191v-1.282c0-.515-.008-.946-.023-1.289s-.041-.638-.082-.879c-.076-.489-.189-.832-.344-1.022a.725.725 0 0 0-.607-.29zM173.416 118.66h3.676c.793 0 1.469.066 2.023.197.586.11 1.092.326 1.523.65.432.32.768.784 1.014 1.385.244.6.365 1.355.365 2.26 0 1.076-.176 1.917-.527 2.518a2.868 2.868 0 0 1-1.482 1.276c-.268.11-.598.199-.994.263a7.599 7.599 0 0 1-1.264.099h-.449v1.489c0 .279.029.479.09.604.072.104.201.158.391.158h.531v2.438h-4.896v-2.438h.533c.174 0 .303-.055.389-.158.061-.125.092-.324.092-.604v-6.937c0-.279-.031-.479-.092-.604-.062-.104-.189-.159-.389-.159h-.533v-2.437h-.001zm3.885 5.756h.268c.744 0 1.117-.508 1.117-1.523 0-.893-.359-1.341-1.074-1.341h-.311v2.864zM186.637 121.552v7.245c0 .279.031.479.092.604.072.104.199.158.389.158h.533v2.438h-4.898v-2.438h.533c.174 0 .305-.055.391-.158.059-.125.09-.324.09-.604v-6.937c0-.279-.031-.479-.09-.604-.062-.104-.191-.159-.391-.159h-.533v-2.438h7.172v4.781h-1.934c-.055-.702-.096-1.137-.125-1.302a.943.943 0 0 0-.203-.447c-.115-.093-.279-.141-.492-.141h-.534v.002z" fill="#cc2229"/></g></svg>