<svg xmlns="http://www.w3.org/2000/svg" width="2500" height="2500" viewBox="0 0 192.756 192.756"><g fill-rule="evenodd" clip-rule="evenodd"><path fill="#fff" d="M0 0h192.756v192.756H0V0z"/><path d="M10.945 93.343c1.857-3.115 5.076-3.524 9.006-3.524 3.909 0 8.38.159 8.38 5.229 0 2.343-.928 6.185-2.613 8.935-1.685 2.818-5.746 3.023-8.834 3.023-4.795 0-8.38-.158-8.38-5.229 0-2.341.908-5.842 2.441-8.434zm5.508 3.456c-.583 1.158-1.08 3-1.08 3.818 0 1.684 1.08 2.07 1.965 2.07 1.577 0 2.225-.297 2.873-1.547.237-.455 1.058-2.205 1.058-4.047 0-1.182-.605-1.909-2.095-1.909-1.059.001-1.945.068-2.721 1.615zm.323-11.049h4.018l-.691 2.887h-4.017l.69-2.887h9.353l-.691 2.887H21.42l.691-2.887h-5.335zM44.118 106.143c-2.247.568-5.724.863-7.517.863-3.952 0-7.84-.09-7.84-5.023 0-1.773.842-9.89 5.659-11.436 1.922-.637 3.78-.728 5.443-.728 2.765 0 5.507.364 8.186 1l-1.253 4.774c-1.49-.182-3.045-.409-4.579-.409-1.209 0-2.57 0-3.715.295-1.987.569-2.873 3.25-2.873 5.342 0 2.023 1.209 2.092 2.765 2.07l1.123-4.23h6.566l-1.965 7.482zM50.034 90.296h15.918l-1.274 5.139h-9.201l-.432 1.819h9.201l-.864 3.5h-9.201l-.367 1.455h9.201l-1.058 4.32H46.06l3.974-16.233zM67.914 90.296h12.743c2.938 0 3.564 1.318 3.564 3.615 0 4.093-2.16 5.956-4.946 5.956h-1.167l4.471 6.662h-7.71l-3.196-5.639-1.382 5.639h-6.588l4.211-16.233zm4.536 7.913h2.959c1.512 0 2.16-1.184 2.16-2.229 0-.773-.518-1.137-1.425-1.137h-2.873l-.821 3.366zM96.464 95.662h-4.363l1.383-5.366h15.42l-1.383 5.366h-4.339l-2.678 10.867h-6.718l2.678-10.867zM109.246 93.343c1.857-3.115 5.076-3.524 9.008-3.524 3.908 0 8.379.159 8.379 5.229 0 2.343-.928 6.185-2.613 8.935-1.684 2.818-5.744 3.023-8.834 3.023-4.795 0-8.379-.158-8.379-5.229 0-2.341.906-5.842 2.439-8.434zm5.508 3.456c-.584 1.158-1.08 3-1.08 3.818 0 1.684 1.08 2.07 1.965 2.07 1.578 0 2.225-.297 2.873-1.547.238-.455 1.059-2.205 1.059-4.047 0-1.182-.605-1.909-2.096-1.909-1.057.001-1.944.068-2.721 1.615zM143.414 102.256c-1.102 4.092-4.256 4.75-9.785 4.75-2.527 0-6.955-.227-6.955-3.842 0-.59.066-1.068.541-2.887l2.656-9.981h6.76l-2.549 9.571c-.172.615-.367 1.479-.367 1.842 0 .842.562 1.184 1.383 1.184 1.209 0 1.707-.729 2.008-1.844l2.873-10.752h6.631l-3.196 11.959zM148.574 90.296h12.744c2.938 0 3.562 1.318 3.562 3.615 0 4.093-2.16 5.956-4.945 5.956h-1.166l4.471 6.662h-7.711l-3.195-5.639-1.383 5.639h-6.588l4.211-16.233zm4.537 7.913h2.959c1.512 0 2.16-1.184 2.16-2.229 0-.773-.52-1.137-1.426-1.137h-2.873l-.82 3.366zM164.814 102.164c2.461.318 4.902.523 7.387.523.711 0 2.223 0 2.223-1.068 0-.797-.389-.955-4.254-.955-1.986 0-4.168-.705-4.168-3.252 0-3.501 1.729-6.343 4.318-7.116 1.447-.432 3.543-.478 5.141-.478 2.16 0 5.639.114 8.791.614l-1.361 5.024c-2.094-.272-4.168-.5-6.285-.5-2.57 0-3.174.387-3.174 1.161 0 .658.432.84 3.822.84 2.463 0 4.623.115 4.623 3.525 0 1.271-.562 3.045-1.016 3.818-1.34 2.273-3.5 2.705-7.754 2.705-3.455 0-6.393-.205-9.266-.75l.973-4.091z" fill="#cc2229"/></g></svg>