<?xml version="1.0" encoding="iso-8859-1"?>
<!-- Generator: Adobe Illustrator 19.0.0, SVG Export Plug-In . SVG Version: 6.00 Build 0)  -->
<svg version="1.1" id="Capa_1" xmlns="http://www.w3.org/2000/svg" xmlns:xlink="http://www.w3.org/1999/xlink" x="0px" y="0px"
	 viewBox="0 0 512 512" style="enable-background:new 0 0 512 512;" xml:space="preserve">
<path style="fill:#FF3C3C;" d="M170.473,512c-64.178,0-116.39-52.212-116.39-116.39V196.288C54.083,88.054,142.136,0,250.37,0
	h11.259c108.234,0,196.289,88.054,196.289,196.288c0,99.322-74.046,182.228-171.055,194.674v4.648
	C286.863,459.788,234.651,512,170.473,512z"/>
<path style="fill:#DA0806;" d="M261.629,0H256v474.462c19.147-20.752,30.863-48.457,30.863-78.852v-4.648
	c97.009-12.446,171.055-95.352,171.055-194.674C457.917,88.054,369.863,0,261.629,0z"/>
<path style="fill:#FFFFFF;" d="M261.629,59.849h-11.259c-75.232,0-136.44,61.209-136.44,136.44v199.318
	c0,31.182,25.362,56.544,56.544,56.544c31.172,0,56.534-25.362,56.534-56.544V332.73h34.62c75.232,0,136.44-61.209,136.44-136.44
	S336.861,59.849,261.629,59.849z M261.629,249.798h-49.699c-8.323,0-15.079-6.745-15.079-15.079v-38.43
	c0-29.514,24.005-53.519,53.519-53.519h11.259c29.514,0,53.519,24.005,53.519,53.519
	C315.148,225.793,291.143,249.798,261.629,249.798z"/>
<path style="fill:#DCE1EB;" d="M261.629,59.849H256v82.922h5.629c29.514,0,53.519,24.005,53.519,53.519
	c0,29.504-24.005,53.509-53.519,53.509H256v82.932h5.629c75.232,0,136.44-61.209,136.44-136.44S336.861,59.849,261.629,59.849z"/>
<g>
</g>
<g>
</g>
<g>
</g>
<g>
</g>
<g>
</g>
<g>
</g>
<g>
</g>
<g>
</g>
<g>
</g>
<g>
</g>
<g>
</g>
<g>
</g>
<g>
</g>
<g>
</g>
<g>
</g>
</svg>
