<svg width="196" height="95" viewBox="0 0 196 95" fill="none" xmlns="http://www.w3.org/2000/svg">
<path fill-rule="evenodd" clip-rule="evenodd" d="M26.9485 20.2367C26.9485 14.0341 31.9777 9.00492 38.1793 9.00492C44.383 9.00492 49.4111 14.0341 49.4111 20.2367C49.4111 20.9734 49.3302 21.6925 49.1922 22.3918L55.648 29.742C57.238 26.8264 58.0693 23.5577 58.0656 20.2367C58.0656 9.25601 49.1611 0.350452 38.1793 0.350452C27.1975 0.350452 18.2951 9.25601 18.2951 20.2367C18.2951 31.2175 27.1986 40.122 38.1803 40.122C38.833 40.122 39.4783 40.0846 40.1133 40.0244L36.8076 31.3306C31.2607 30.6458 26.9485 25.9704 26.9485 20.2367Z" fill="#2C5D9C"/>
<path fill-rule="evenodd" clip-rule="evenodd" d="M53.2543 36.6118L46.2517 41.3764L30.0986 17.6272L37.1012 12.8626L53.2543 36.6118ZM60.4759 12.9415H66.166V29.5127C66.166 29.5127 66.9026 32.6431 71.5054 32.6431C76.1081 32.6431 76.1081 29.881 76.1081 29.881V12.9415H82.7372V29.1444C82.7372 29.1444 81.8096 39.2712 71.5033 39.2712C61.1949 39.2712 60.2746 30.433 60.2746 30.433L60.4759 12.9415V12.9415ZM92.6793 39.2712H86.0512V12.9415H92.6793V39.2712ZM102.991 39.2712H96.73V4.47172H102.991V39.2712ZM92.6793 7.23376C92.6868 6.81795 92.6115 6.40479 92.4576 6.01843C92.3037 5.63207 92.0744 5.28024 91.783 4.9835C91.4916 4.68677 91.144 4.45106 90.7605 4.29016C90.377 4.12926 89.9653 4.04639 89.5494 4.04639C89.1335 4.04639 88.7218 4.12926 88.3383 4.29016C87.9548 4.45106 87.6072 4.68677 87.3158 4.9835C87.0245 5.28024 86.7951 5.63207 86.6412 6.01843C86.4873 6.40479 86.412 6.81795 86.4196 7.23376C86.4345 8.05399 86.7708 8.83557 87.3561 9.41035C87.9415 9.98513 88.7291 10.3072 89.5494 10.3072C90.3698 10.3072 91.1574 9.98513 91.7427 9.41035C92.328 8.83557 92.6643 8.05399 92.6793 7.23376V7.23376ZM119.308 12.5389C111.682 12.5389 105.499 18.7208 105.499 26.347C105.499 33.9743 111.682 40.1573 119.308 40.1573C126.936 40.1573 133.117 33.9743 133.117 26.347C133.117 18.7208 126.936 12.5389 119.308 12.5389V12.5389ZM119.308 32.4926C118.501 32.4926 117.702 32.3337 116.956 32.0248C116.211 31.716 115.533 31.2633 114.963 30.6926C114.392 30.1219 113.939 29.4444 113.631 28.6988C113.322 27.9532 113.163 27.154 113.163 26.347C113.163 22.9531 115.913 20.2025 119.308 20.2025C120.121 20.1919 120.929 20.3431 121.684 20.6471C122.439 20.9512 123.126 21.4022 123.705 21.9738C124.284 22.5455 124.744 23.2265 125.058 23.9773C125.372 24.7281 125.533 25.5338 125.533 26.3476C125.533 27.1613 125.372 27.967 125.058 28.7178C124.744 29.4686 124.284 30.1496 123.705 30.7213C123.126 31.293 122.439 31.7439 121.684 32.048C120.929 32.3521 120.121 32.5032 119.308 32.4926V32.4926ZM137.79 30.6167C139.239 27.4749 137.237 24.7243 138.526 20.6736C139.815 16.6228 144.97 12.9405 148.285 12.9405V19.7532C148.285 19.7532 145.706 20.3062 144.786 23.0673C143.865 25.8283 144.97 29.1433 144.05 31.7207C143.128 34.298 140.552 39.2691 133.738 39.2691V33.745C133.738 33.7471 136.683 33.0104 137.79 30.6167V30.6167ZM177.489 39.2214V26.347C177.489 18.7208 171.308 12.5389 163.68 12.5389C156.054 12.5389 149.871 18.7208 149.871 26.347C149.871 33.9743 156.054 40.1573 163.68 40.1573C164.343 40.1573 164.973 40.0535 165.607 39.9622V32.1544C164.987 32.3714 164.336 32.486 163.68 32.4937C162.873 32.4937 162.074 32.3347 161.328 32.0259C160.583 31.717 159.905 31.2643 159.335 30.6936C158.764 30.1229 158.312 29.4454 158.003 28.6998C157.694 27.9542 157.535 27.1551 157.535 26.3481C157.535 22.9542 160.285 20.2035 163.68 20.2035C167.075 20.2035 169.827 22.9542 169.827 26.3481C169.827 26.8233 169.76 27.2809 169.827 27.7239V39.2463L177.489 39.2214V39.2214ZM1.55371 65.7316V77.4002C1.55371 77.4002 15.3691 78.0144 51.9055 66.3479C60.3462 63.6522 80.7606 58.675 91.2007 56.8312C112.418 53.0845 132.943 51.9452 154.389 51.7097C171.314 51.5229 190.601 51.6671 194.662 53.1447C195.309 53.3823 194.97 49.7684 194.97 49.7684C194.97 49.7684 166.212 48.6737 145.645 48.2203C133.974 47.9651 123.148 48.5056 111.577 49.4644C101.309 50.3152 86.6717 51.8311 70.6317 55.2945C43.6152 61.1288 8.92157 66.958 1.55371 65.7316V65.7316Z" fill="#2C5D9C"/>
<path fill-rule="evenodd" clip-rule="evenodd" d="M0.940506 90.3274V94.5929C0.940506 94.5929 15.6742 93.6684 52.2095 82.0039C75.637 74.5219 99.8158 70.1444 124.356 70.0292C135.754 69.9763 182.849 72.1791 194.662 74.635C195.309 74.8727 194.97 64.1949 194.97 64.1949C194.97 64.1949 140.349 59.9917 124.972 60.8207C113.611 61.4329 90.3499 65.2024 62.9547 73.4076C34.1732 82.0289 8.30941 91.5518 0.940506 90.3274Z" fill="#FFF22D"/>
</svg>
