<svg xmlns="http://www.w3.org/2000/svg" width="2500" height="749" viewBox="1.464 25.444 498.152 149.23"><title>background</title><title>Layer 1</title><path fill="#443642" d="M178.463 83.987c0-14.818 10.804-25.165 30.438-25.165 11.98 0 21.783 3.825 27.094 7.572.76.535 2.116 1.833 1.303 4.247-1.042 2.6-2.953 6.51-4.324 9.05-.798 1.48-2.836 1.285-3.88.756-3.783-1.917-9.988-5.16-15.688-5.758a33.378 33.378 0 0 0-4.347-.188c-5.02.112-9.214 1.855-10.691 5.685a6.74 6.74 0 0 0-.477 2.274c-.138 5.047 6.886 6.872 15.395 8.334 15.819 2.71 27.787 7.348 27.787 23.63 0 13.827-10.989 26.323-32.52 25.94-14.194-.287-24.264-5.083-29.66-9.737-.184-.158-2.238-2.25-1.137-4.766 1.26-3.239 3.387-6.951 5.056-8.922.928-1.266 3.377-1.467 4.65-.678 4.448 2.764 11.768 7.196 20.206 7.49.666.023 1.326.027 1.974.01 7.59-.184 12.182-3.062 12.086-7.91-.082-4.271-6.1-6.766-15.683-8.572-15.284-2.879-27.58-7.917-27.58-23.292M317.316 105.086c-10.778.141-20.66 3.087-20.945 11.51-.003 6.684 5.419 9.967 13.029 9.537 7.3-.703 12.867-3.869 15.32-8.07.907-1.557 1.045-7.383.99-9.873-.014-.53-1.062-1.533-1.521-1.726-2.29-.965-3.985-1.263-6.874-1.38m-35.862-33.938c5.04-4.51 15.033-11.53 30.959-11.16 21.017.437 32.12 10.29 33.154 33.86.426 9.72-.28 36.832-.448 43.587-.025.969-.353 1.639-1.659 1.664-3.461.139-11.457.084-15.131.036-1.854-.09-2.069-1.01-2.093-1.973-.016-.63-.07-2.498-.109-4.021-.021-.808-.78-.785-.974-.578-4.93 5.264-13.004 7.806-21.59 7.806-13.05 0-26.06-7.677-26.02-22.88.04-15.57 11.08-23.25 23.208-25.061 7.766-1.156 16.52-.128 23.149 2.506.424.17 1.29-.076 1.297-.677.027-1.984-.069-5.765-.45-7.557-.973-4.566-4.782-8.24-12.784-9.23-1.648-.203-3.307-.27-4.968-.138-6.361.5-14.016 5.46-17.186 7.317-.746.436-1.914.117-2.292-.37-1.85-2.39-6.5-9.38-6.866-10.497-.366-1.114.15-2.052.801-2.638l.002.004zM352.496 100.13c-.125-21.715 15.005-40.034 39.573-40.195 15.33-.1 26.467 6.85 28.431 10.128.399.77.194 1.413-.082 2.188-1.298 2.74-4.576 8.034-6.912 11.034-.995 1.278-2.075.183-3.33-.652-3.483-2.32-10.101-5.157-16.614-5.157-11.816.002-20.615 8.104-20.517 23.01.092 14.304 8.52 22.165 20.558 22.45 6.293.158 12.39-3.459 15.67-6.422 1.03-.899 2.096-.449 3.273.471 2.31 2.361 5.623 6.006 7.46 8.515 1.203 1.394.303 2.758-.13 3.306-4.984 6.307-14.61 11.615-27.349 11.687-26.674.187-39.906-18.568-40.029-40.36M479.823 139.514c1.252-.094 14.613-1.938 18.714-2.877 1.018-.232 1.38-1.088.811-1.936-2.29-3.434-8.311-13.186-14.617-21.916-5.8-8.027-11.913-15.087-13.89-17.803-.482-.66-.456-1.31.069-1.822 3.761-3.68 19.493-19.105 25.408-25.475 2.29-2.478.915-3.544-1.03-4.123-3.757-1.12-9.834-2.516-13.29-3.245-1.457-.308-3.212-.2-4.486 1.11-5.914 5.515-23.963 23.63-29.351 29.045-.97.977-1.535.76-1.54-.636-.044-10.44-.25-55.138-.623-62.49-.026-.972-1.195-1.71-1.854-1.745-3.388-.177-11.947-.228-15.32-.03-.945.107-1.848 1.07-1.93 1.884-.778 11.756.33 98.054.792 110.126.033.873.683 1.55 1.512 1.599 3.365.195 11.688.182 15.574.109 1.912 0 2.146-1.344 2.146-1.344l.288-23.157s.197-1.03.516-1.37c1.37-1.475 5.16-5.537 6.776-7.107.388-.377 1-.35 1.396.183 1.92 2.59 7.395 11.01 12.47 18.53 4.663 6.908 9.016 13.039 9.32 13.472.702 1 1.522 1.04 2.14 1.021v-.003zM252.59 139.434c1.175.039 10.09.029 14.04.024 1.33.026 2.021-.981 2.065-1.87.839-16.926.48-97.512-.05-110.237-.044-1.1-.515-1.513-1.266-1.613-3.39-.454-13.024-.348-16.112.46-.604.157-.96.616-.979 1.206-.756 32.8-.246 108.42-.086 109.852.159 1.434.909 2.128 2.39 2.178h-.002z"/><path fill="#70CADB" d="M13.997 105.78c-5.494.042-10.148-3.232-11.864-8.342a13.67 13.67 0 0 1-.178-.583c-1.87-6.544 1.756-13.39 8.255-15.582L114.45 46.35a14.128 14.128 0 0 1 3.807-.556c5.64-.044 10.422 3.302 12.18 8.52l.156.504c1.95 6.816-2.895 12.9-8.7 14.85-.004.003-1.06.36-103.662 35.391a13.49 13.49 0 0 1-4.234.721z"/><path fill="#E01765" d="M31.372 157.045c-5.537.04-10.207-3.188-11.903-8.225a13.34 13.34 0 0 1-.18-.579c-1.896-6.622 1.726-13.54 8.247-15.735L131.78 97.263c1.347-.45 2.738-.68 4.137-.693 5.552-.042 10.43 3.35 12.151 8.444l.16.53c1.007 3.521.412 7.478-1.59 10.601-1.492 2.322-6.198 4.366-6.198 4.366L35.8 156.29a14.356 14.356 0 0 1-4.428.757v-.002z"/><path fill="#E8A723" d="M118.148 157.268a12.798 12.798 0 0 1-12.255-8.723l-34.79-103.34-.174-.58c-1.885-6.59 1.74-13.464 8.237-15.654 1.3-.437 2.644-.665 3.997-.677 2.01-.015 3.955.438 5.787 1.343a12.772 12.772 0 0 1 6.449 7.392l34.787 103.331.101.332c1.954 6.842-1.663 13.72-8.16 15.91a12.935 12.935 0 0 1-3.979.666z"/><path fill="#3EB890" d="M66.435 174.674a12.803 12.803 0 0 1-12.26-8.73L19.394 62.608a12.797 12.797 0 0 1 8.051-16.23 12.96 12.96 0 0 1 3.985-.668 12.796 12.796 0 0 1 12.257 8.723l34.782 103.34a12.797 12.797 0 0 1-8.06 16.233 12.88 12.88 0 0 1-3.978.667h.004z"/><path fill="#CC2027" d="M100.997 133.996l24.258-8.294-7.93-23.55-24.286 8.207 7.958 23.637z"/><path fill="#361238" d="M49.364 151.65l24.256-8.293-7.99-23.73-24.28 8.21 8.014 23.813z"/><path fill="#65863A" d="M83.727 82.7l24.26-8.283-7.837-23.275-24.305 8.143L83.727 82.7z"/><path fill="#1A937D" d="M32.088 100.33l24.26-8.283-7.933-23.572-24.305 8.142 7.978 23.713z"/></svg>