<svg width="28" height="28" viewBox="0 0 28 28" fill="none" xmlns="http://www.w3.org/2000/svg">
<path fill-rule="evenodd" clip-rule="evenodd" d="M10.2658 0C8.71798 0.00114169 7.46533 1.25472 7.46647 2.79943C7.46533 4.34414 8.71912 5.59772 10.2669 5.59886H13.0674V2.80057C13.0685 1.25586 11.8147 0.00228338 10.2658 0C10.2669 0 10.2669 0 10.2658 0V0ZM10.2658 7.46667H2.80019C1.25238 7.46781 -0.00141551 8.72139 -0.000271532 10.2661C-0.00255949 11.8108 1.25124 13.0644 2.79904 13.0667H10.2658C11.8136 13.0655 13.0674 11.8119 13.0662 10.2672C13.0674 8.72139 11.8136 7.46781 10.2658 7.46667Z" fill="#36C5F0"/>
<path fill-rule="evenodd" clip-rule="evenodd" d="M28 10.2661C28.0011 8.72139 26.7473 7.46781 25.1995 7.46667C23.6517 7.46781 22.3979 8.72139 22.3991 10.2661V13.0667H25.1995C26.7473 13.0655 28.0011 11.8119 28 10.2661ZM20.5332 10.2661V2.79943C20.5344 1.25586 19.2817 0.00228338 17.7339 0C16.1861 0.00114169 14.9323 1.25472 14.9334 2.79943V10.2661C14.9311 11.8108 16.1849 13.0644 17.7327 13.0667C19.2806 13.0655 20.5344 11.8119 20.5332 10.2661Z" fill="#2EB67D"/>
<path fill-rule="evenodd" clip-rule="evenodd" d="M17.7327 28.0002C19.2805 27.999 20.5343 26.7455 20.5332 25.2007C20.5343 23.656 19.2805 22.4024 17.7327 22.4013H14.9322V25.2007C14.9311 26.7443 16.1849 27.9979 17.7327 28.0002ZM17.7327 20.5323H25.1995C26.7473 20.5312 28.0011 19.2776 28 17.7329C28.0022 16.1882 26.7484 14.9346 25.2006 14.9323H17.7339C16.186 14.9335 14.9322 16.187 14.9334 17.7318C14.9322 19.2776 16.1849 20.5312 17.7327 20.5323Z" fill="#ECB22E"/>
<path fill-rule="evenodd" clip-rule="evenodd" d="M-6.78823e-05 17.7327C-0.00121186 19.2774 1.25259 20.531 2.80039 20.5321C4.34819 20.531 5.60199 19.2774 5.60085 17.7327V14.9332H2.80039C1.25259 14.9344 -0.00121186 16.188 -6.78823e-05 17.7327ZM7.46667 17.7327V25.1994C7.46439 26.7441 8.71819 27.9977 10.266 28C11.8138 27.9988 13.0676 26.7452 13.0664 25.2005V17.735C13.0687 16.1902 11.8149 14.9367 10.2671 14.9344C8.71819 14.9344 7.46553 16.188 7.46667 17.7327C7.46667 17.7327 7.46667 17.7338 7.46667 17.7327Z" fill="#E01E5A"/>
</svg>
