<svg xmlns="http://www.w3.org/2000/svg" width="2500" height="2500" viewBox="0 0 192.756 192.756"><g fill-rule="evenodd" clip-rule="evenodd"><path fill="#fff" d="M0 0h192.756v192.756H0V0z"/><path d="M15.616 87.758c4.539 0 7.338 1.899 7.414 5.772h-4.085s.227-2.43-3.329-2.43c-.983 0-2.572.456-2.572 1.595 0 1.823 4.01 1.747 5.825 2.203 2.648.683 4.69 2.202 4.69 5.239-.075 2.508-1.664 5.697-6.96 5.771-2.799.076-4.464-.607-5.825-1.518-1.378-.955-2.009-2.477-2.27-3.611v-1.4h4.161s-.076 3.037 3.631 3.037c1.589 0 2.875-.531 2.875-2.051 0-2.811-10.214-.912-10.516-6.607-.151-3.341 2.27-6 6.961-6zM33.697 87.758c2.119 0 6.128 1.14 6.128 6v11.771h-4.691V95.125c0-1.215-.681-3.19-2.875-3.19-2.042 0-3.253 1.671-3.253 2.886v10.708h-4.691V88.138h4.767v1.595c.908-.911 1.816-1.899 4.615-1.975zM116.918 87.911v4.177h-1.059c-2.422-.076-4.236 1.367-4.236 4.025v9.417h-4.918V88.138h4.842l.076 1.519c.982-1.519 3.328-2.506 5.295-1.746zM56.924 88.138h4.766l2.724 10.176 2.875-10.176h4.161l2.875 10.481 2.874-10.481h4.766l-5.295 17.391h-4.313l-2.95-11.011-3.178 11.011h-4.236l-5.069-17.391zM100.35 88.138h4.841v17.391h-4.841V88.138zM49.358 87.834c5.145 0 8.7 3.721 8.776 9.113.151 5.24-3.556 9.189-8.776 9.189-4.993.076-9.079-3.797-8.927-9.037.227-5.391 3.48-9.265 8.927-9.265zm.227 3.798c3.026.152 3.858 2.81 3.858 5.62.076 2.961-1.362 5.164-3.934 5.24-2.799.076-4.161-2.432-4.161-5.24 0-2.734 1.06-5.696 4.237-5.62zM82.419 81.759h4.767l-.076 7.67c.757-.684 2.951-1.671 4.918-1.671 4.994.152 7.49 4.329 7.49 9.341 0 5.164-2.799 8.809-7.717 8.961-2.042.076-3.858-1.139-4.463-1.746l-.076 1.215H82.42v-23.77h-.001zm8.398 10.025c2.497 0 3.934 2.05 3.934 5.24 0 3.037-1.589 5.164-3.783 5.164-2.497 0-4.01-2.658-3.934-5.24.001-2.507 1.287-5.164 3.783-5.164z"/><path d="M128.645 81.759h4.539v23.77h-4.539l-.074-1.443c-.531.531-2.271 2.127-4.842 2.051-4.842-.076-7.566-4.48-7.643-8.809-.074-4.633 2.498-9.494 7.566-9.57 2.043 0 3.783.684 4.992 1.747v-7.746h.001zm-3.858 10.1c3.025-.076 3.857 2.582 3.934 5.088 0 2.887-1.438 5.316-4.01 5.316-2.42 0-3.783-2.658-3.783-5.316 0-2.506 1.437-5.012 3.859-5.088z"/><path d="M157.697 96.264c0-4.48-3.633-8.125-8.096-8.125h-12.256l20.352 22.86V96.264z" fill="#52a5df" stroke="#52a5df" stroke-width=".086" stroke-miterlimit="2.613"/><path d="M159.438 96.264c0-4.48 3.631-8.125 8.094-8.125h12.258l-20.352 22.86V96.264z" fill="#89b14d" stroke="#89b14d" stroke-width=".086" stroke-miterlimit="2.613"/><path d="M182.512 91.404c.908 0 1.74-.759 1.74-1.747s-.832-1.747-1.74-1.747c-.982 0-1.74.759-1.74 1.747s.757 1.747 1.74 1.747zm-1.514-1.747c0-.835.682-1.519 1.514-1.519.756 0 1.438.684 1.438 1.519s-.682 1.443-1.438 1.443c-.832 0-1.514-.607-1.514-1.443zm.832.836h.303v-.684h.455l.227.684h.379l-.303-.76c.076-.076.303-.152.303-.456 0-.532-.379-.607-.758-.607h-.605v1.823h-.001zm.303-1.519h.379c.227 0 .303.152.303.304s-.076.228-.227.228h-.455v-.532z"/></g></svg>