<svg height="640" viewBox=".19 .265 64.974 16.21" width="2500" xmlns="http://www.w3.org/2000/svg"><path d="m14.587 2.055c-.858 0-2.046.362-2.91 1.536a2.435 2.435 0 0 0 -.364.756 3.09 3.09 0 0 0 .5 2.694c.445.593 1.01 1.04 1.51 1.43.246.191.763.677.93.882.25.309.44.491.666 1.172.136.413.157.954.09 1.262 1.565-1.568 3.274-3.604 3.274-5.818 0-2.544-1.843-3.914-3.696-3.914" fill="#dd1f26"/><path d="m11.32 10.582c-.65-.893-1.403-1.435-2.023-2.006-.27-.248-.567-.434-.786-.653-1.053-1.054-1.544-2.356-1.296-3.956.196-1.256.815-2.08 1.56-2.687-.89-.659-1.947-1.015-3.141-1.015-2.965 0-5.444 2.403-5.368 5.367.135 5.351 6.775 9.909 9.51 10.843 1.465-.759 2.242-2.172 2.242-3.621 0-1.057-.45-1.93-.699-2.272" fill="#bcc032"/><path d="m22.915 10.307c.515.36 1.53.822 2.25.822.553 0 1.028-.206 1.028-.797 0-.578-.745-.785-1.504-1.08-.874-.335-1.748-.861-1.748-2.25 0-1.85 1.376-2.827 3.369-2.827 1.31 0 2.48.655 3.084 1.35l-1.31 1.362c-.592-.502-1.248-.874-1.878-.874-.514 0-.899.205-.899.668 0 .63.553.785 1.49 1.17.9.372 1.826.913 1.826 2.237 0 1.799-1.465 2.957-3.548 2.957-1.465 0-2.7-.605-3.188-.99zm10.353-.617c.077-.412.102-.784.102-1.068 0-.617-.192-.99-.643-.99-.603 0-1.002.591-1.195 1.659-.077.412-.116.849-.116 1.183 0 .565.155 1.028.631 1.028.629 0 1.002-.553 1.221-1.813m-.18-3.599c.912 0 2.519.347 2.519 2.48a6.5 6.5 0 0 1 -.065.965c-.397 2.52-1.992 3.535-3.817 3.535-1.594 0-2.494-.925-2.494-2.57 0-.31.013-.682.077-1.042.476-2.699 2.301-3.368 3.78-3.368m5.03 6.775h-2.147l.938-5.335.052-1.247h1.723l.038.913c.476-.81 1.144-1.106 1.684-1.106.373 0 .772.09 1.029.257l-.618 1.787a1.907 1.907 0 0 0 -.874-.23c-.553 0-.99.332-1.105.937zm2.856 0 1.157-6.582h2.148l-1.157 6.582zm2.738-9.388c.605 0 .978.411.978.913 0 .68-.592 1.22-1.35 1.22-.617 0-.964-.372-.964-.886 0-.668.566-1.247 1.336-1.247m5.183 4.22a1.459 1.459 0 0 0 -.579-.103c-1.17 0-1.593 1.761-1.593 2.816 0 .617.141 1.118.758 1.118.437 0 .745-.283.874-.733zm1.44 3.78-.09 1.388h-1.813v-.604l-.064-.013c-.45.527-1.028.81-1.8.81-1.375 0-1.993-1.016-1.993-2.405 0-2.635 1.466-4.563 4.153-4.563.54 0 1.504.129 2.468.514zm1.109 1.388.926-5.258.077-1.324h1.774l.025.707c.502-.553 1.17-.9 2.032-.9 1.067 0 1.71.489 1.723 1.594 0 .206-.026.463-.065.707l-.797 4.474h-2.146l.668-3.844c.038-.205.102-.501.102-.746 0-.257-.102-.54-.489-.54-.552 0-.873.412-.964.951l-.732 4.179zm11.419-5.168a1.459 1.459 0 0 0 -.578-.103c-1.17 0-1.594 1.761-1.594 2.816 0 .617.14 1.118.758 1.118.437 0 .746-.283.874-.733zm1.44 3.78-.09 1.388h-1.813v-.604l-.064-.013c-.45.527-1.028.81-1.8.81-1.375 0-1.992-1.016-1.992-2.405 0-2.635 1.465-4.563 4.153-4.563.538 0 1.503.129 2.467.514z" fill="#dd1f26"/></svg>