<svg width="2500" height="654" viewBox="0 0 512 134" xmlns="http://www.w3.org/2000/svg" preserveAspectRatio="xMidYMid"><path d="M.643 118.995l7.976-9.648c5.532 4.63 11.32 7.461 18.396 7.461 5.532 0 8.876-2.187 8.876-5.789v-.129c0-3.473-2.058-5.145-12.478-7.847-12.221-3.216-20.326-6.69-20.326-18.91v-.129c0-11.192 9.005-18.653 21.612-18.653 9.006 0 16.595 2.83 22.899 7.847l-7.075 10.163c-5.403-3.73-10.806-6.046-16.08-6.046-5.147 0-7.977 2.444-7.977 5.403v.128c0 4.117 2.702 5.403 13.25 8.105 12.479 3.216 19.554 7.718 19.554 18.524v.129c0 12.221-9.39 19.168-22.64 19.168-9.135 0-18.525-3.216-25.987-9.777zm57.118-52.744h25.214c14.665 0 23.67 8.748 23.67 21.355v.129c0 14.28-11.063 21.74-24.957 21.74H71.397V128H57.761V66.251zm24.313 31.132c6.818 0 10.806-4.117 10.806-9.391v-.129c0-6.046-4.245-9.39-11.063-9.39H71.268v18.91h10.806zm43.74-31.518h12.477L164.792 128h-14.15l-5.661-13.893h-26.115L113.206 128H99.441l26.372-62.135zm14.278 36.278l-8.233-20.069-8.233 20.069h16.466zm31.132-35.892h28.173c7.847 0 13.893 2.187 18.01 6.304 3.473 3.473 5.274 8.233 5.274 14.15v.13c0 9.905-5.403 16.208-13.25 19.167L224.482 128H208.66l-13.25-19.682h-10.677V128h-13.637V66.251h.13zm27.272 29.974c6.561 0 10.42-3.473 10.42-8.748v-.128c0-5.79-4.116-8.877-10.677-8.877h-13.507v17.753h13.764zm96.354-29.974h22.384c13.636 0 22.899 6.947 22.899 18.91v.13c0 12.992-11.192 19.682-24.057 19.682h-16.595V128h-4.63V66.251zm21.484 34.477c11.449 0 19.168-6.047 19.168-15.18v-.129c0-9.777-7.59-14.923-18.654-14.923h-17.495v30.232h16.98zm97.254 18.267l2.959-3.473c6.818 6.303 12.993 9.133 22.126 9.133 9.263 0 15.566-5.145 15.566-12.22v-.13c0-6.56-3.473-10.29-17.495-13.121-14.794-2.959-20.84-7.976-20.84-17.367v-.129c0-9.133 8.361-16.209 19.81-16.209 9.006 0 14.923 2.445 21.098 7.462l-2.959 3.602c-5.789-5.017-11.578-6.947-18.396-6.947-9.133 0-15.051 5.146-15.051 11.578v.129c0 6.56 3.345 10.548 18.01 13.507 14.28 2.959 20.326 7.976 20.326 16.981v.129c0 9.905-8.49 16.852-20.455 16.852-9.776 0-17.366-3.216-24.7-9.777zm71.654-48.499H463.76v-4.245h47.598v4.245h-21.484V128h-4.63V70.496zM245.58 92.237l21.355-25.986h16.595l-25.086 29.33L285.331 128h-17.496l-22.255-27.658v27.53h-13.508v-61.75h13.508v26.115z" fill="#55555A"/><path d="M399.437 52.23c-6.818 5.145-8.233 14.279-8.362 20.453-10.806-12.607 20.069-49.527-15.05-72.297 21.74 28.173-31.004 55.96-31.004 97.511 0 16.338 10.163 30.618 32.547 35.635 21.87-4.631 32.804-19.297 32.804-35.635-.129-24.313-15.309-32.418-10.935-45.668zm-21.87 67.923c-11.963 0-21.611-9.648-21.611-21.612 0-11.964 9.648-21.612 21.612-21.612 11.964 0 21.612 9.648 21.612 21.612 0 11.964-9.777 21.612-21.612 21.612z" fill="#FA6423"/></svg>