<svg viewBox="0 0 200 42.040000000000006" xmlns="http://www.w3.org/2000/svg" width="2500" height="526"><g fill="#fc4c02"><path d="M19.16 40.4c-3.8 0-7.36-.53-10.65-1.58C5.23 37.77 2.4 36.2 0 34.1l6.67-7.95c2.03 1.56 4.17 2.7 6.4 3.36 2.25.7 4.47 1.03 6.68 1.03 1.14 0 1.95-.15 2.45-.43.5-.3.75-.68.75-1.17v-.1c0-.55-.37-1-1.1-1.35-.72-.35-2.1-.73-4.08-1.12-2.1-.42-4.1-.93-6-1.5-1.9-.56-3.58-1.3-5.02-2.18-1.44-.9-2.6-2-3.44-3.36-.85-1.36-1.27-3-1.27-4.97v-.1c0-1.8.34-3.44 1.04-4.97s1.7-2.87 3.04-4c1.34-1.14 3-2.03 4.98-2.68 1.97-.63 4.24-.95 6.8-.95 3.63 0 6.8.42 9.53 1.28 2.73.85 5.17 2.13 7.35 3.84l-6.1 8.43a19.09 19.09 0 0 0-5.64-2.81c-1.98-.6-3.83-.9-5.58-.9-.92 0-1.6.16-2.05.44-.45.3-.67.66-.67 1.12v.1c0 .5.34.94 1.02 1.3.67.35 2 .72 3.94 1.1 2.38.44 4.55.96 6.5 1.56 1.96.6 3.65 1.38 5.05 2.32 1.4.95 2.5 2.07 3.26 3.4.77 1.3 1.16 2.9 1.16 4.8v.1c0 1.96-.4 3.73-1.18 5.3-.78 1.56-1.9 2.88-3.3 3.97-1.43 1.1-3.16 1.92-5.2 2.5-2 .6-4.3.9-6.82.9z"/><path d="M45.95 12.9h-11V2.34h34.5V12.9h-11v26.8h-12.5zM89.1 20.12c1.48 0 2.66-.33 3.5-.97.86-.64 1.3-1.53 1.3-2.67v-.1c0-1.2-.44-2.1-1.3-2.7-.84-.58-2-.88-3.46-.88H83.7v7.32zM71.2 2.34h18.26c3.35 0 6.1.4 8.25 1.15 2.16.75 3.9 1.8 5.2 3.1 1.15 1.15 2 2.43 2.58 3.85.56 1.43.85 3.1.85 5.02v.1c0 2.75-.66 5.06-1.98 6.94-1.3 1.9-3.1 3.4-5.4 4.5l8.7 12.7H93.42l-7.04-10.67H83.7V39.7H71.2z"/><path d="M123.92 23.63l8.14 16.07h11.97L123.93 0l-20.1 39.7h11.95zM151.9 18.4l-8.13-16.06H131.8l20.1 39.7L172 2.34h-11.95zM179.9 23.63l8.13 16.07H200L179.9 0l-20.12 39.7h11.97l8.14-16.07z"/></g></svg>