<svg xmlns="http://www.w3.org/2000/svg" width="2500" height="2500" viewBox="0 0 192.756 192.756"><g fill-rule="evenodd" clip-rule="evenodd"><path fill="#fff" d="M0 0h192.756v192.756H0V0z"/><path d="M48.58 83.071l-2.71 15.367c-1.336 7.58-3.972 11.547-11.619 11.564-5.816.014-8.958-3.984-7.622-11.564l2.71-15.367h7.553L34.34 97.543c-.358 2.033-.619 5.115 1.393 5.115s2.383-3.082 2.742-5.115l2.552-14.472h7.553zM49.652 83.071h9.565c4.852 0 7.888 3.101 6.752 9.544-.936 5.307-4.166 8.613-8.383 8.613h-3.859l-1.379 7.822h-7.277l4.581-25.979z"/><path d="M54.881 94.682h.745c1.323 0 2.805-.275 3.176-2.377.358-2.033-1.167-2.137-2.408-2.137h-.717l-.796 4.514z" fill="#fff"/><path d="M68.729 83.071h13.115l-1.252 7.097h-5.291l-.437 2.482h4.739l-1.19 6.752h-4.74l-.45 2.551h5.511l-1.251 7.098H64.148l4.581-25.98zM83.33 83.071h9.124c4.687 0 8.218 2.48 7.064 9.027-.693 3.928-2.197 5.582-5.215 6.753l-.037.207c.319.379.715.793.995 1.551l3.033 8.441h-8.711l-1.837-8.338h-.138l-1.47 8.338H78.75l4.58-25.979z"/><path d="M88.688 94.579h.524c1.24 0 2.523-.241 2.863-2.17.353-1.999-.735-2.24-2.03-2.24h-.579l-.778 4.41z" fill="#fff"/><path d="M121.701 88.033c-1.57-1.654-3.961-2.55-6.408-2.55-5.822 0-11.125 4.858-12.139 10.613-1.002 5.686 2.551 10.543 8.34 10.543 2.549 0 5.166-.965 7.398-2.688l-.674 3.824c-2.205 1.172-4.869 1.826-7.145 1.826-7.408 0-12.502-5.891-11.178-13.402 1.355-7.685 8.58-13.68 16.229-13.68 2.275 0 4.486.551 6.238 1.757l-.661 3.757zM128.223 83.071l-2.703 15.333c-.748 4.238-.166 8.166 4.83 8.166s6.965-3.928 7.713-8.166l2.703-15.333h3.238l-2.898 16.435c-1.008 5.721-5.328 10.096-11.289 10.096s-8.738-4.375-7.73-10.096l2.898-16.435h3.238zM150.205 109.051h-3.238l4.058-23.017h-6.168l.524-2.963h15.574l-.523 2.963h-6.166l-4.061 23.017zM173.484 87.998c-.68-1.619-1.775-2.446-3.738-2.446-2.068 0-4.592 1.413-4.992 3.687-.359 2.033 1.451 3.101 2.961 3.721l1.734.724c3.432 1.447 5.83 3.479 5.064 7.823-.834 4.719-5.082 8.096-9.732 8.096-4.203 0-6.93-3.102-6.746-7.27l3.395-.689c-.539 2.859 1.371 4.928 4.162 4.928s5.203-2.344 5.682-5.064c.492-2.791-1.533-3.998-3.609-4.928l-1.658-.758c-2.738-1.275-5.129-2.963-4.49-6.582.74-4.204 4.906-6.719 8.834-6.719 2.895 0 5.021 1.413 5.992 3.928l-2.859 1.549zM26.486 84.5l-1.184 6.461s-2.369-1.346-4.092-1.346c-1.723 0-2.228 1.6-.431 3.176 1.561 1.37 5.169 3.607 4.738 9.045-.442 5.582-5.6 8.508-9.799 8.398-3.768-.096-7.214-2.26-7.214-2.26l1.292-7s3.123 2.531 5.491 2.154c2.34-.373 2.477-2.477 1.292-3.445-1.185-.971-5.384-3.5-5.384-8.238 0-4.738 4.038-8.722 9.961-8.722.001 0 3.285.162 5.33 1.777zM179.16 85.294a2.525 2.525 0 0 1 2.547-2.539 2.525 2.525 0 0 1 2.545 2.539 2.525 2.525 0 0 1-2.545 2.539 2.525 2.525 0 0 1-2.547-2.539z"/><path d="M179.574 85.294c0 1.195.969 2.126 2.133 2.126a2.125 2.125 0 0 0 2.131-2.126 2.12 2.12 0 0 0-2.131-2.125 2.12 2.12 0 0 0-2.133 2.125z" fill="#fff"/><path d="M182.869 86.742h-.471l-.73-1.318h-.529v1.318h-.414v-2.855h1.201c.518 0 .982.155.982.756 0 .562-.381.769-.762.782l.723 1.317z"/><path d="M181.139 84.3v.71h.439c.387 0 .916.064.916-.323 0-.362-.303-.388-.645-.388h-.71v.001z" fill="#fff"/></g></svg>