<svg xmlns="http://www.w3.org/2000/svg" width="2075" height="2500" viewBox="0 0 153.588 185.084"><path d="M55.487 39.154c1.426-4.656 5.037-2.28 5.037-2.28S69.882 44 95.549 60.333 153.215 54 153.215 54l-76-54c-33.334 35.333-76 48-76 48l.121.047 97.147 68.121c-1.426 4.656-5.037 2.281-5.037 2.281s-9.358-7.127-35.025-23.461C32.754 78.655.755 101.322.755 101.322l76 54c33.334-35.334 76-48 76-48l-.123-.048-97.145-68.12z" fill="#ff0016"/><g fill="#015cd0"><path d="M0 176.761l11.692.062c.201 1.1-.115 1.096.5 1.67.963.896 2.457 1.1 3.711.879 1.027-.18 2.619-.494 2.695-1.769.083-1.384-.875-1.866-2.077-2.024-1.662-.217-3.339-.274-4.996-.539-4.269-.701-6.539-1.015-8.357-2.174-1.834-1.16-1.992-3.686-1.992-5.484 0-1.182.469-2.297 1.407-3.35.938-1.049 2.349-1.875 4.232-2.478 1.884-.601 4.465-.899 7.746-.899 4.024 0 7.095.545 9.206 1.635 2.114 1.09 3.371 3.521 3.772 5.896h-9.941c.074-.141-.195-.777-.238-.936-.381-1.379-1.712-1.781-2.987-2.063-1.045-.231-2.239-.251-3.181.325-.573.352-1.018.723-1.018 1.227 0 .365.236.694.71.987.461.302 1.55.585 3.269.845 4.255.672 7.302 1.348 9.144 2.031 1.84.688 3.179 1.535 4.018 2.548.837 1.013 1.257 2.147 1.257 3.401 0 1.474-.559 2.832-1.677 4.074-1.116 1.242-2.677 2.188-4.682 2.83-2.006.643-4.533.963-7.583.963-5.355 0-9.066-.752-11.127-2.256C1.439 180.66.272 179.083 0 176.761zM47.439 161.087h8.641v16.246c0 3.334-2.071 5.695-6.214 7.09-1.917.636-4.215.66-6.817.66-2.333 0-4.426.043-6.362-.461-4.56-1.822-6.839-4.252-6.839-7.289v-16.246h8.702V175c0 2.533.336 4.418 4.5 4.418 4.248 0 4.333-1.967 4.333-4.5l.056-13.831zM103.938 161.087h8.642v16.246c0 3.334-2.071 5.695-6.214 7.09-1.916.636-4.215.66-6.817.66-2.333 0-4.427.043-6.362-.461-4.561-1.822-6.84-4.252-6.84-7.289v-16.246h8.702V175c0 2.533.337 4.418 4.5 4.418 4.248 0 4.333-1.967 4.333-4.5l.056-13.831zM57.858 161.255h26.766v4.994L71.549 178h13.076v6.541H57.858v-5.623l12.774-11.584h-12.75l-.024-6.079zM114.72 184.5v-23.285h8.579l-.002 8.619 9.253-8.619h10.737L130.966 172.5l12.834 12h-11.584l-8.834-8.332.084 8.332h-8.746zM153.588 161.212V184.5h-8.562v-23.285h8.562v-.003z"/></g></svg>