<svg height="511pt" viewBox="0 -10 511.99969 511" width="511pt" xmlns="http://www.w3.org/2000/svg"><path d="m143.726562 195.425781c15.390626 0 31.332032-1.617187 47.382813-4.800781 7.980469-1.582031 24.882813-5.96875 41.753906-11.289062 32.550781-10.265626 37.710938-15.402344 40.191407-17.871094 4.664062-4.648438 5.753906-11.796875 2.683593-17.625-1.925781-3.652344-3.605469-7.039063-5.234375-10.3125-3.535156-7.109375-6.871094-13.820313-12.011718-22.054688-9.171876-14.703125-17.882813-25.550781-30.074219-37.441406-15.070313-14.703125-29.566407-27.84375-54.410157-39.777344-23.351562-11.21875-51.75-17.652344-77.925781-17.652344-40.929687 0-73.101562 15.351563-88.269531 42.113282-14.566406 25.699218-8.746094 55.605468 17.296875 88.878906 15.792969 20.183594 47.9375 35.933594 71.117187 42.027344 14.652344 3.851562 30.632813 5.800781 47.496094 5.804687zm0 0" fill="#e7f0ef"/><path d="m329.8125 147.917969c.792969 0 1.597656-.0625 2.398438-.195313 12.695312-2.054687 37.585937-19.8125 37.820312-19.984375 11.164062-8.222656 19.792969-16.902343 27.976562-28.152343 16.90625-23.242188 20.976563-54.667969 9.898438-76.421876-7.335938-14.402343-20.355469-22.664062-35.71875-22.664062-10.355469 0-21.316406 3.738281-32.585938 11.105469-19.84375 12.972656-32.347656 35.96875-35.210937 64.753906-2.402344 24.132813 2.53125 48.949219 12.867187 64.765625 2.800782 4.28125 7.546876 6.792969 12.554688 6.792969zm0 0" fill="#c5e1e6"/><path d="m500.289062 279.285156c-23.25-56.121094-76.660156-92.921875-137.023437-94.921875-15.265625 38.96875-13.054687 92.722657 6.433594 143.472657 21.253906 55.339843 60.449219 99.433593 100.972656 115.230468 39.738281-42.753906 53.375-106.425781 29.617187-163.78125zm0 0" fill="#ff641a"/><path d="m341.691406 338.589844c-20.328125-52.933594-23.976562-107.652344-10.929687-151.859375-10.730469 1.949219-21.257813 5.046875-31.5 9.289062-24.023438 9.945313-51.5625 31.3125-78.195313 60.042969-.765625 38.300781 6.722656 78.898438 22.011719 118.726562 17.886719 46.5625 44.964844 87.304688 76.851563 116.5625 6.636718.277344 13.128906.441407 19.363281.441407 33.183593 0 59.332031-3.863281 77.726562-11.484375 10.304688-4.265625 19.890625-9.542969 28.710938-15.648438-43.152344-22.34375-81.894531-68.414062-104.039063-126.070312zm0 0" fill="#ff9f00"/><path d="m192.390625 290.382812c-2.46875 3.269532-4.914063 6.585938-7.332031 9.960938-35.945313 50.203125-57.410156 99.730469-57.410156 132.492188 0 14.398437 14.917968 22.488281 27.90625 27.929687 12.449218 5.210937 29.734374 10.429687 49.992187 15.089844 22.148437 5.09375 46.019531 9.132812 69.453125 11.871093-24.492188-28.792968-45.160156-63.734374-59.925781-102.183593-12.128907-31.59375-19.75-63.742188-22.683594-95.160157zm0 0" fill="#ff9f00"/><path d="m341.691406 338.589844c-20.328125-52.933594-23.976562-107.652344-10.929687-151.859375-10.730469 1.949219-21.257813 5.046875-31.5 9.289062-7 2.898438-14.304688 6.773438-21.792969 11.515625v233.839844c12.691406 18.921875 27.007812 35.804688 42.460938 49.980469 6.636718.277343 13.125.4375 19.363281.4375 33.183593 0 59.332031-3.863281 77.726562-11.480469 10.304688-4.269531 19.890625-9.542969 28.710938-15.648438-43.152344-22.347656-81.894531-68.417968-104.039063-126.074218zm0 0" fill="#ff641a"/></svg>