<svg xmlns="http://www.w3.org/2000/svg" width="200" height="200" viewBox="0 0 192.756 192.756"><g fill-rule="evenodd" clip-rule="evenodd"><path fill="#fff" d="M0 0h192.756v192.756H0V0z"/><path d="M19.667 95.128h-.524c-1.224-.77-2.281-1.25-3.172-1.442-.892-.192-1.669-.311-2.333-.341a4.064 4.064 0 0 0-.839.105 2.06 2.06 0 0 0-.944.472c-.279.245-.419.647-.419 1.207 0 .804.253 1.399.76 1.782a12.09 12.09 0 0 0 1.652 1.049c.035 0 .07.01.105.027a.42.42 0 0 1 .105.078c.035 0 .062.01.079.027.018.018.044.025.079.025.769.385 1.451.77 2.045 1.154a16 16 0 0 1 1.573 1.152c1.292 1.086 2.098 2.16 2.412 3.225.314 1.066.472 2.02.472 2.859 0 .209-.044.682-.131 1.416-.087.732-.353 1.541-.813 2.412-.518.98-1.407 1.861-2.648 2.648-1.241.785-3.062.943-5.427 1.178l-.524.053c-2.052.207-3.723-.166-4.981-.393-1.259-.227-2.377-.568-3.356-1.021v-6.451h.524l.892.445c.455.229 1.004.426 1.626.656.322.119.655.279 1.022.42.367.139.742.266 1.127.367.419.109.84.201 1.259.287.419.088.805.145 1.153.133.595-.023 1.041-.158 1.337-.367.297-.211.476-.449.603-.682.084-.154.167-.281.184-.42.018-.141.026-.262.026-.367 0-.596-.228-1.127-.682-1.6a6.816 6.816 0 0 0-1.52-1.18c-.109-.062-.201-.131-.289-.184s-.181-.119-.289-.184c-1.92-1.158-3.347-2.193-4.274-3.121-.926-.926-1.533-1.832-1.861-2.699-.161-.426-.289-.83-.341-1.232a9.603 9.603 0 0 1-.078-1.233c0-2.377.813-4.143 2.438-5.296 1.625-1.154 3.419-1.854 5.375-2.15.353-.053.699-.114 1.049-.131a20.4 20.4 0 0 1 1.049-.026h.524c.524 0 1.092.035 1.704.105.611.07 1.232.158 1.862.262a25.126 25.126 0 0 1 2.412.525v6.451h-.003zm15.938 21.27c-.777 2.289-1.809 4.002-3.085 5.121-1.276 1.127-3.068 1.686-5.366 1.686-1.599 0-3.067-.174-4.405-.523v-5.768c1.18.383 2.159.576 2.928.576 2.369 0 4.047-1.451 5.043-4.354l-9.177-24.96h7.289l5.191 16.886 4.667-16.886h6.975l-10.06 28.222zM55.619 90.86c2.43-1.949 4.772-3.015 7.027-3.208 4.851 0 7.28 2.832 7.28 8.504v17.611h-6.704V97.834c0-3.111-.979-4.667-2.928-4.667-1.363 0-2.919.909-4.676 2.727v17.874h-6.755V88.177h6.755v2.683h.001zm22.915 24.279c0 1.748 2.028 4.178 6.092 4.178 2.275 0 7.394-.596 7.394-3.705 0-.699-.437-1.111-1.302-1.26-.577-.113-2.333-.217-5.279-.314-2.936-.096-4.894-.201-5.855-.305-.7.402-1.05.872-1.05 1.406zm12.131-25.756c2.552 2.097 3.872 4.036 3.872 7.656 0 1.6-.455 3.051-1.363 4.352-.909 1.303-2.098 2.316-3.566 3.051-1.468.725-2.989 1.092-4.571 1.092-.367 0-.935-.035-1.705-.104a19.895 19.895 0 0 0-1.704-.096c-.341 0-.69.121-1.066.375-.367.254-.56.541-.56.873 0 .141.035.264.105.377.306.506 1.241.795 2.814.848 1.564.053 3.662.148 6.292.287 2.64.141 4.693.674 6.179 1.609 1.485.936 2.228 2.518 2.228 4.746 0 5.252-4.421 9.25-13.258 9.25-4.325 0-11.274-2.531-11.274-7.773 0-1.504.927-2.814 2.788-3.934-1.329-1.145-2.001-2.316-2.001-3.521 0-1.73 1.101-3.338 3.303-4.834-2.097-2.281-3.146-4.527-3.146-6.754 0-1.88.463-3.523 1.398-4.921.935-1.407 2.194-2.474 3.775-3.208 1.591-.734 3.304-1.102 5.156-1.102 2.065 0 4.431.191 6.304 1.731zm-6.354 11.693c1.232 0 2.142-.428 2.735-1.293.595-.855.892-1.949.892-3.277 0-2.962-1.206-4.449-3.627-4.449-1.232 0-2.149.438-2.761 1.302-.612.865-.918 1.914-.918 3.146 0 3.052 1.223 4.571 3.679 4.571zm27.015-8.337c-2.623 0-4.074 1.818-4.354 5.444h8.486c-.096-1.66-.438-2.98-1.014-3.968-.585-.986-1.624-1.476-3.118-1.476zm-4.572 9.798c0 1.713.395 3.232 1.182 4.561.795 1.32 1.986 2.135 3.592 2.211 1.965.094 4.174-.504 5.699-3.16l4.529 2.404c-1.807 3.611-6.975 5.738-10.553 5.738-2.49 0-4.588-.568-6.293-1.713-1.703-1.145-2.963-2.709-3.793-4.684-.82-1.984-1.232-4.223-1.232-6.713 0-2.352.42-4.562 1.26-6.633.83-2.062 2.098-3.723 3.783-4.99 1.695-1.268 3.732-1.906 6.119-1.906 2.314 0 4.221.385 5.723 1.163 1.496.769 2.648 1.826 3.453 3.173.805 1.337 1.373 2.884 1.688 4.631.314 1.74.471 3.715.471 5.918h-15.628zm26.211-11.677c2.43-1.949 4.771-3.015 7.027-3.208 4.85 0 7.279 2.832 7.279 8.504v17.611h-6.703V97.834c0-3.111-.979-4.667-2.928-4.667-1.363 0-2.918.909-4.676 2.727v17.874h-6.756V88.177h6.756v2.683h.001zm27.215-2.683h5.305v5.664h-5.305v11.117c0 1.18.158 2.115.463 2.797.307.691.963 1.066 1.959 1.137.891 0 1.854-.176 2.883-.525v5.297c-1.545.375-2.805.586-3.775.629-2.07 0-3.723-.375-4.945-1.137-1.215-.752-2.08-1.844-2.588-3.26-.498-1.424-.752-3.172-.752-5.262V93.84h-3.145v-5.664h3.145v-4.082l6.756-2.528v6.611h-.001zm14.334 18.553c0 .656.184 1.189.559 1.6.377.412.893.631 1.539.656 2.168 0 4.055-1.014 5.662-3.033v-3.355c-2.098.271-3.914.691-5.453 1.258-1.538.56-2.307 1.521-2.307 2.874zm15.408 7.038h-6.547c-.07-.166-.139-.367-.227-.604a38.727 38.727 0 0 1-.289-.926c-.121-.385-.209-.656-.262-.832-1.373.988-2.553 1.723-3.549 2.186-.986.463-2.123.699-3.383.699a9.634 9.634 0 0 1-4.09-.891c-1.275-.596-2.314-1.443-3.111-2.545-.795-1.109-1.188-2.393-1.188-3.854 0-1.783.471-3.285 1.424-4.5.943-1.215 2.168-2.178 3.672-2.885a22.402 22.402 0 0 1 4.543-1.572c1.529-.359 3.322-.691 5.357-1.016 0-1.423-.201-2.499-.594-3.215-.402-.717-1.268-1.075-2.604-1.075-1.154 0-2.072.227-2.744.681-.674.463-1.137 1.241-1.398 2.352l-6.504-.997c.586-1.827 1.365-3.26 2.326-4.3a7.636 7.636 0 0 1 3.469-2.194c1.363-.419 3.033-.629 5.008-.629a14.7 14.7 0 0 1 4.686.743c1.484.498 2.691 1.276 3.6 2.351.971 1.206 1.459 3.286 1.459 6.24v10.855c.001 2.221.317 4.197.946 5.928z" fill="#384793"/><path d="M103.271 84.915c3.531-4.193 4.459-11.116 6.379-15.857-7 1.096-19.276 4.578-19.177 13.599.02 1.801.108 4.353.368 5.743 3.996.473 9.616-.143 12.43-3.485z" fill="#5c9861"/></g></svg>
