<svg xmlns="http://www.w3.org/2000/svg" width="2500" height="2500" viewBox="0 0 192.756 192.756"><g fill-rule="evenodd" clip-rule="evenodd"><path fill="#fff" d="M0 0h192.756v192.756H0V0z"/><path d="M8.504 127.301h175.748V65.456H8.504v61.845z"/><path fill="#fff" d="M22.314 79.513h26.95v11.343h-6.736v23.327H29.291V90.645h-6.947l-.03-11.132zM69.141 79.513v11.765h-4.059V79.513h-13.21l-.051 34.67h13.261v-11.666h4.005l-.023 11.666h13.29v-34.67H69.141zM99.451 100.134c0 1.074.922 1.984 1.998 1.984 1.074 0 1.979-.91 1.979-1.984l.051-20.621h13.215l.023 20.621c0 8.426-6.848 15.298-15.268 15.298-8.419 0-15.244-6.834-15.244-15.262V79.513h13.213l.033 20.621zM120.334 79.513h13.033v23.107h7.496V79.513h22.785v9.05h-9.834v3.36h7.729v6.873h-7.729v3.824h9.834v11.563h-43.314v-34.67z"/><path d="M130.383 106.929a2.81 2.81 0 0 0-1.164-.234c-.557 0-1 .084-.977.497.045.743 2.061.467 2.156 2.052.092 1.451-1.227 1.826-2.443 1.826-.541 0-1.164-.128-1.631-.271l.264-1.065c.285.179.848.301 1.309.301.434 0 1.111-.083 1.074-.625-.055-.835-2.059-.52-2.15-2-.084-1.345 1.076-1.752 2.219-1.752.645 0 1.254.068 1.623.234l-.28 1.037zM131.188 105.749h1.384l.059 4.015h.015l1.309-4.015h1.781l.127 4.015h.016l1.248-4.015h1.404l-1.916 5.231h-1.795l-.144-4.104h-.014l-1.324 4.104h-1.795l-.355-5.231zM138.953 105.749h3.676l-.143.99h-2.298l-.176 1.076h2.181l-.158.994h-2.172l-.181 1.178h2.39l-.142.993h-3.78l.803-5.231zM143.367 105.749h1.811c1.662 0 2.707.705 2.789 2.097.135 2.188-1.18 3.135-3.143 3.135h-2.248l.791-5.232zm.774 4.193h.615c1.371 0 1.844-1.021 1.783-1.999-.062-.963-.73-1.157-1.588-1.157h-.344l-.466 3.156zM149.057 105.749h3.675l-.142.99h-2.301l-.172 1.076h2.18l-.158.994h-2.172l-.18 1.178h2.389l-.143.993h-3.781l.805-5.231zM153.463 105.749h1.742l1.295 3.622h.014l.511-3.622h1.315l-.787 5.231h-1.739l-1.316-3.623h-.014l-.504 3.623h-1.314l.797-5.231z"/><path d="M167.393 78.987A3.607 3.607 0 0 1 171 75.386a3.608 3.608 0 0 1 3.602 3.601A3.607 3.607 0 0 1 171 82.594a3.607 3.607 0 0 1-3.607-3.607zm6.328 0c0-1.684-1.219-2.902-2.721-2.902-1.512 0-2.73 1.219-2.73 2.902 0 1.692 1.219 2.909 2.73 2.909 1.502 0 2.721-1.217 2.721-2.909zm-4.112-2.052h1.518c.979 0 1.504.339 1.504 1.195 0 .699-.398 1.038-1.066 1.098l1.098 1.788h-.775l-1.059-1.758h-.459v1.758h-.76v-4.081h-.001zm.76 1.743h.67c.449 0 .832-.06.832-.607 0-.481-.434-.558-.826-.558h-.676v1.165z" fill="#fff"/></g></svg>