<svg height="974" viewBox=".132 -.47808746 33.58343234 13.07208746" width="2500" xmlns="http://www.w3.org/2000/svg"><path d="m.132 1.509h1.564v8.177h1.434v-8.176h1.562v-1.245h-4.56zm13.058.058a4.698 4.698 0 0 0 -1.536-1.042 4.597 4.597 0 0 0 -1.88-.393c-.666 0-1.295.133-1.882.393a4.69 4.69 0 0 0 -1.535 1.042 4.993 4.993 0 0 0 -1.041 1.533 4.724 4.724 0 0 0 -.377 1.88c0 .668.125 1.293.377 1.882.26.59.608 1.105 1.042 1.55.434.434.946.776 1.535 1.027.587.25 1.216.376 1.881.376a4.812 4.812 0 0 0 4.834-4.834c0-.666-.125-1.293-.377-1.881a4.677 4.677 0 0 0 -1.042-1.534m-.39 4.862a3.575 3.575 0 0 1 -.725 1.116 3.291 3.291 0 0 1 -1.041.723 3.005 3.005 0 0 1 -1.187.246c-.415 0-.825-.082-1.23-.246a3.61 3.61 0 0 1 -1.085-.723 3.77 3.77 0 0 1 -.783-1.116 3.58 3.58 0 0 1 -.288-1.461c0-.522.086-.995.26-1.418.174-.436.41-.806.709-1.115.299-.32.646-.565 1.042-.737a3.22 3.22 0 0 1 1.288-.262 3.215 3.215 0 0 1 2.346.999c.299.309.534.68.708 1.115.174.423.262.896.262 1.418a3.72 3.72 0 0 1 -.276 1.46m4.358-4.904h2.634v-1.245h-4.097v9.437h1.478v-3.084h3.025v-1.273h-3.04zm5.877-1.245-2.374 9.408h1.578l.332-1.535h2.287l.348 1.535h1.578l-2.374-9.408zm-.26 6.644.927-4.43.926 4.43zm9.582-1.202a2.666 2.666 0 0 0 -.449-.839 2.597 2.597 0 0 0 -.708-.637 5.442 5.442 0 0 0 -.912-.478 3.617 3.617 0 0 1 -.448-.187 2.072 2.072 0 0 1 -.42-.276 2.333 2.333 0 0 1 -.305-.376 1.044 1.044 0 0 1 -.058-.81.881.881 0 0 1 .189-.334c.087-.106.198-.191.333-.26.135-.068.3-.102.492-.102.415 0 .743.082.984.246.241.155.419.305.535.45v-1.738l-.506-.13a2.647 2.647 0 0 0 -.536-.073c-.193-.019-.4-.033-.623-.042-.25 0-.515.048-.795.144-.27.087-.525.232-.768.435-.23.192-.424.44-.578.738-.155.29-.232.637-.232 1.042 0 .453.083.835.247 1.142.173.3.391.556.65.768.262.213.536.4.826.565.299.154.578.313.84.477.26.164.472.347.637.55.172.203.26.458.26.767 0 .232-.044.453-.13.666a1.584 1.584 0 0 1 -.334.536 1.672 1.672 0 0 1 -1.186.477c-.203 0-.41-.028-.623-.086a4.43 4.43 0 0 1 -.607-.247 5.298 5.298 0 0 1 -.493-.318 1.464 1.464 0 0 1 -.318-.333v1.795c.086.058.206.12.362.188.164.067.342.13.535.188s.4.101.623.13c.221.039.443.058.665.058.405 0 .791-.081 1.158-.245a3.17 3.17 0 0 0 1.622-1.621c.164-.368.245-.748.245-1.144 0-.416-.058-.777-.174-1.086m-4.7 6.874h1.462l1.707-2.373h-1.838zm0 0" fill="#731e30"/></svg>