<svg width="200" height="200" viewBox="0 0 200 200" fill="none" xmlns="http://www.w3.org/2000/svg">
<g clip-path="url(#clip0)">
<path d="M14.25 166.09C29.31 191.09 65.55 191.7 80.59 166.65C85.3517 158.716 88.0281 149.707 88.37 140.46L88.85 127.65C88.85 127.65 66 148.5 56.58 147.22C53.4 146.79 55.82 140.89 56.97 137.97C61.34 126.97 87.89 99.91 87.89 99.91C87.89 99.91 90 61.58 93.75 51.07C95.69 45.63 97.94 43.14 100 42.15C102.06 43.15 104.31 45.63 106.25 51.07C110 61.58 112.11 99.91 112.11 99.91C112.11 99.91 138.66 126.91 143.03 137.97C144.18 140.89 146.6 146.79 143.42 147.22C133.99 148.5 111.15 127.65 111.15 127.65L111.63 140.46C111.991 150.228 114.957 159.723 120.22 167.96C135.32 191.58 170.37 190.96 185.12 167.13C194.739 151.589 199.888 133.697 200 115.42C200.41 61.14 156.68 15.95 102.4 14.68C84.5069 14.2515 66.8266 18.6332 51.2044 27.3678C35.5821 36.1025 22.5904 48.8699 13.5851 64.3377C4.57987 79.8056 -0.108954 97.4068 0.00799474 115.305C0.124944 133.203 5.04338 150.741 14.25 166.09V166.09Z" fill="black"/>
<path d="M14.25 166.09C29.31 191.09 65.55 191.7 80.59 166.65C85.3517 158.716 88.0281 149.707 88.37 140.46L88.85 127.65C88.85 127.65 66 148.5 56.58 147.22C53.4 146.79 55.82 140.89 56.97 137.97C61.34 126.97 87.89 99.91 87.89 99.91C87.89 99.91 90 61.58 93.75 51.07C95.69 45.63 97.94 43.14 100 42.15C102.06 43.15 104.31 45.63 106.25 51.07C110 61.58 112.11 99.91 112.11 99.91C112.11 99.91 138.66 126.91 143.03 137.97C144.18 140.89 146.6 146.79 143.42 147.22C133.99 148.5 111.15 127.65 111.15 127.65L111.63 140.46C111.991 150.228 114.957 159.723 120.22 167.96C135.32 191.58 170.37 190.96 185.12 167.13C194.739 151.589 199.888 133.697 200 115.42C200.41 61.14 156.68 15.95 102.4 14.68C84.5069 14.2515 66.8266 18.6332 51.2044 27.3678C35.5821 36.1025 22.5904 48.8699 13.5851 64.3377C4.57987 79.8056 -0.108954 97.4068 0.00799474 115.305C0.124944 133.203 5.04338 150.741 14.25 166.09V166.09Z" fill="#0085FF"/>
</g>
<defs>
<clipPath id="clip0">
<rect width="200" height="200" fill="white"/>
</clipPath>
</defs>
</svg>
