<svg width="200" height="200" viewBox="0 0 200 200" fill="none" xmlns="http://www.w3.org/2000/svg">
<g clip-path="url(#clip0)">
<path d="M191.28 111.44C189.7 85.32 180 65.34 164.07 55.19L163.37 54.76C153.37 48.89 138.15 44.26 121.6 41.66L137.16 31.66C137.57 31.38 138.04 31.04 138.44 30.71C140.98 28.5777 142.568 25.5239 142.856 22.2204C143.144 18.917 142.107 15.6345 139.975 13.095C137.843 10.5556 134.789 8.96719 131.486 8.67933C128.182 8.39146 124.9 9.42767 122.36 11.56L91.8001 37.25L52.7301 2.83001C52.5601 2.68001 52.3601 2.52001 52.1801 2.38001C51.0022 1.46798 49.6561 0.796897 48.2188 0.405075C46.7815 0.0132539 45.2811 -0.0916318 43.8032 0.0964068C40.8186 0.476168 38.107 2.02602 36.2651 4.40501C35.3531 5.58297 34.682 6.92903 34.2902 8.36634C33.8984 9.80365 33.7935 11.3041 33.9815 12.7819C34.3613 15.7665 35.9111 18.4781 38.2901 20.32L65.8901 41.71C49.0501 44.89 32.3301 51.94 21.8901 66.35L21.6501 66.69C7.15012 87.58 7.65012 116.9 9.23012 132.51C9.23012 132.65 9.23012 132.79 9.28012 132.93C13.0801 164 25.7501 184 47.0001 192.43L47.1501 192.49C59.6701 197.33 76.8601 200 95.5401 200C107 200 124.2 199 141.06 194.12C159.24 188.87 172.18 180.46 179.53 169.12C179.73 168.8 179.93 168.48 180.12 168.12C188.26 154 192.54 132.27 191.28 111.44ZM161 157.11C151.71 171.47 122.65 177.92 95.5401 177.92C80.0801 177.92 65.2601 175.83 55.1101 171.92C39.5001 165.75 33.4701 148.83 31.2301 130.3C29.3401 111.77 32.4401 91.63 41.0001 79.3C50.3701 66.3 70.5401 61.47 92.6601 61.47C116.06 61.47 140.33 66.89 152.24 73.85C173.87 87.58 173.07 136.16 161 157.11Z" fill="#7247C4"/>
<path d="M75.84 92.14C67.23 98.31 82.39 147.59 92.84 151.7C103.29 155.81 142.15 120.33 138.21 109.16C135 100 84.44 86 75.84 92.14Z" fill="#7247C4"/>
</g>
<defs>
<clipPath id="clip0">
<rect width="200" height="200" fill="white"/>
</clipPath>
</defs>
</svg>
