<svg xmlns="http://www.w3.org/2000/svg" width="2500" height="2500" viewBox="0 0 192.756 192.756"><g fill-rule="evenodd" clip-rule="evenodd"><path fill="#fff" d="M0 0h192.756v192.756H0V0z"/><path d="M15.743 78.482h16.811l.724-.081h1.77c.804 0 2.091 0 4.021-.081h.724c-.081 1.448-.161 2.011-.161 2.815v16.328c0 7.48-1.689 10.053-9.813 14.076-.322.16-4.504 2.252-4.906 2.492l-.402.162-.402.24-.482-.24-.402-.162c-1.689-.965-3.378-1.689-4.746-2.412-7.4-3.619-9.812-6.193-9.812-14.156V81.136c0-1.367-.081-1.85-.161-2.815h.724c1.85.081 3.217.081 4.021.081h1.689l.803.08z"/><path fill="#fff" d="M24.108 113.711l3.137-1.607h.081V97.223l.08.08h11.663v-6.434H27.326V78.964l-.081.081h-6.274l-.161-.081.081.161v11.744H9.228v6.434H20.81l.081-.08v14.8l-.081.081h.081l3.217 1.607z"/><path fill="#cf4037" d="M9.389 79.045l-.161-.081v11.905H20.891V78.964l-.081.081H9.389zM27.486 79.045l-.16-.081v11.905h11.743V78.964l-.081.081H27.486zM20.81 97.303H9.309l-.081-.08V98.028c0 6.436 2.171 9.572 8.767 12.709l2.091 1.045.724.322.081.08V97.223l-.081.08zM27.406 97.303l-.08-.08v14.881l.08-.08.644-.242c8.929-4.264 11.02-6.756 11.02-13.674v-.885l-.081.08H27.406z"/><path d="M11.158 91.432c0 .08 0 .08.081.08 0 .081 0 .081.08.081 0 0 0 .081.081.081 0 .081 0 .081.081.081l-.081.08-.081.081-.08.081-.081.081v.08c0 .804.241 1.368.724 1.689l.08.081-.08.08-.161-.08h-.403l-.08.724h-.161l-.08-.724h-.483l-.081.08c-.08 0-.08-.08-.08-.08v-.081l.161-.08c.161-.08.241-.241.402-.482 0-.161.081-.241.081-.322 0-.241 0-.402.08-.402V91.998l-.08-.081-.161-.081v-.08s.081 0 .081-.081c.161-.083.161-.083.241-.243zM14.938 91.432c.081.161.081.161.242.241 0 .081 0 .081.08.081l-.08.08-.08.08-.081.081-.081.081v.08l.081.402c0 .483.322 1.126.644 1.287l.081.081-.081.08-.161-.08H15.1l-.161.724h-.081l-.08-.724h-.483l-.081.08c-.081 0-.081-.08-.081-.08v-.081l.161-.08c.161-.08.161-.161.321-.482.081-.161.161-.241.161-.322 0-.241 0-.402.08-.402V92.077v-.081c-.08 0-.08-.081-.161-.081l-.081-.081v-.08l.081-.081.081-.081.08-.081c.002.001.002.001.082-.079zM13.008 93.684l.081.08.081.08.08.081.081.08-.161.161-.081.08v.081c0 .885.161 1.368.643 1.77h.081l-.081.081h-.241l-.161-.081h-.161l-.081.724h-.161l-.08-.724h-.081l-.161.081h-.402l.08-.081.161-.081c.322-.241.482-.964.482-1.688v-.081l-.08-.08-.081-.161h-.081l.324-.322zM16.789 93.684c.161.08.161.16.322.321l-.081.161-.08.08h-.081v.081c0 .563.161 1.207.322 1.448l.241.241.08.081h.081l-.081.081h-.241l-.16-.081h-.161l-.081.724h-.081l-.161-.724h-.081l-.161.081h-.403l.081-.081.161-.081c.322-.321.563-.964.563-1.688v-.081h-.08l-.081-.08-.081-.161h-.08c.08 0 .08-.08.161-.08 0 0 0-.081.081-.081l.08-.08v-.081h.002zM18.719 91.432c.08.161.08.161.241.241 0 .081 0 .081.081.081l-.081.08-.081.081-.081.081V92.559c0 .483.322 1.126.644 1.287l.081.081s0 .08-.081.08l-.08-.08h-.242-.24l-.081.724h-.161l-.081-.724h-.483l-.081.08c-.081 0-.081-.08-.081-.08l.081-.081.081-.08c.161-.08.241-.161.402-.482.081-.161.081-.241.081-.322 0-.241 0-.402.081-.402V91.997l-.081-.081-.081-.081s-.08 0-.08-.08c0 0 .08 0 .08-.081.081 0 .081-.081.081-.081s.081 0 .081-.081c.001 0 .081 0 .081-.08zM29.497 91.432l.081.08.081.081c0 .081.081.081.081.081 0 .081 0 .081.08.081l-.08.08-.081.081-.081.081v.081c0 .804.241 1.528.644 1.769.08 0 .08.081.08.081h-.16c-.161 0-.322 0-.483-.081l-.081.724h-.161l-.081-.724c-.161.081-.402.081-.483.081h-.161s0-.081.081-.081c.402-.241.644-.965.644-1.769v-.081l-.081-.081-.081-.081-.081-.08s.081 0 .081-.081c0 0 .081 0 .081-.081l.081-.081.08-.08zM33.278 91.432l.08.08.081.081.081.081.08.081v.08l-.161.081-.081.081v.081c0 .804.241 1.528.644 1.769.081 0 .081.081.081.081h-.161c-.081 0-.322 0-.483-.081l-.081.724h-.161l-.081-.724c-.161.081-.322.081-.482.081h-.161c0-.081.081-.081.081-.081.081-.08.241-.16.322-.321.161-.241.241-.482.241-.644s.081-.322.081-.322v-.402l.081-.161h-.081l-.241-.241.081-.081.08-.081.081-.081.079-.081zM31.428 93.684v.08c.081 0 .081 0 .081.08.08 0 .08 0 .08.081.081 0 .081 0 .161.08h-.081l-.081.081-.08.081-.081.08v.161l.081.322c0 .563.321 1.126.643 1.286 0 .081.081.081.081.162h-.242c-.081 0-.322-.081-.402-.081l-.161.724h-.081l-.161-.724c-.08.081-.321.081-.482.081-.08 0-.08 0-.08-.081l.08-.081c.081 0 .241-.16.322-.321.161-.242.242-.483.242-.563 0-.241 0-.402.08-.402v-.483l-.08-.08-.081-.081-.08-.081c0-.08.08-.08.08-.08.081-.161.161-.161.242-.241zM35.208 93.684c.081 0 .081 0 .081.08.08 0 .08 0 .08.08 0 0 .081 0 .081.081 0 0 .081 0 .081.08-.081.081-.081.081-.161.081 0 .081-.08.081-.08.081v.563c.08.563.322 1.126.644 1.286.08.081.08.081.08.162h-.161c-.081 0-.322-.081-.483-.081l-.08.724h-.161l-.08-.724c-.161.081-.322.081-.483.081-.081 0-.161 0-.161-.081 0 0 .08 0 .08-.081.081 0 .241-.16.322-.321.161-.242.241-.483.321-.563v-.724l.081-.161-.081-.08-.08-.081-.081-.081h-.081l.081-.08.241-.241zM37.138 91.432l.081.08.08.081.08.081.081.081-.081.08-.08.081-.08.081v.081c0 .804.241 1.528.643 1.769.081 0 .081.081.081.081h-.162c-.161 0-.321 0-.482-.081l-.08.724h-.161l-.08-.724c-.161.081-.402.081-.483.081h-.161c0-.081 0-.081.081-.081.081-.08.241-.16.322-.321.161-.241.242-.482.242-.644s0-.322.08-.322V91.997l-.08-.081-.161-.081v-.08l.08-.081.081-.081.08-.081.079-.08zM22.338 101.727c.081.082.081.162.242.242 0 .08.081.08.081.08l-.081.08-.081.08-.081.082v.562c0 .322.161.723.322.965.081.16.241.322.322.322s.081.08.081.08 0 .08-.161.08-.321-.08-.482-.08l-.081.643h-.161l-.081-.643c-.161 0-.322.08-.483.08h-.08c-.081 0-.081-.08-.081-.08s0-.08.081-.08c.08-.08.241-.162.322-.322.161-.322.241-.482.241-.562 0-.242.081-.402.081-.402v-.562l-.081-.082-.081-.08-.081-.08c.081 0 .081 0 .081-.08.081 0 .081-.08.081-.08s.081 0 .081-.08c0-.001.08-.001.08-.083zM25.878 101.727c.08.082.161.162.241.242l.081.08v.08l-.081.08-.081.082-.081.08V102.853c.081.322.161.723.322.965.161.16.241.322.322.322s.081.08.081.08 0 .08-.081.08c-.161 0-.402-.08-.482-.08l-.161.643h-.08l-.161-.643c-.081 0-.322.08-.402.08h-.08c-.081 0-.161-.08-.161-.08s.081-.08.161-.08c.08-.08.161-.162.241-.322.241-.322.322-.482.322-.562v-.402l.081-.402v-.08l-.081-.08-.161-.162-.08-.08c.08 0 .08 0 .08-.08.081 0 .081-.08.161-.08l.081-.08-.001-.083zM24.108 104.945v.16h.161l.08.16.081.082h-.081l-.08.08s0 .08-.08.08c0 0 0 .08-.081.08l.081.08v.402c0 .562.321 1.207.643 1.287l.081.08v.08h-.403c0-.08-.08-.08-.161-.08h-.08l-.08.725h-.161l-.081-.725h-.081l-.241.08h-.242c-.08 0-.08 0-.08-.08l.08-.08c.081 0 .241-.16.322-.322.161-.24.241-.482.241-.562 0-.242 0-.402.081-.402v-.562l-.081-.08-.081-.08h-.08l.08-.082.081-.16.081-.08.081-.081zM22.338 108.242l.081.08.081.082.081.16.081.08h-.082l-.081.08-.081.08V109.368c0 .562.322 1.125.644 1.287l.081.08-.081.08h-.081c-.08 0-.241-.08-.482-.08l-.081.723h-.161l-.081-.723c-.241 0-.402.08-.483.08-.161 0-.161 0-.161-.08l.081-.08c.08 0 .241-.162.322-.322.161-.242.241-.482.241-.564 0-.24 0-.4.081-.4V108.805c-.081 0-.081-.08-.081-.08l-.081-.08h-.081l.081-.08.081-.16.081-.082.081-.081zM25.878 108.242l.08.08.081.082.081.16.081.08-.081.08c-.081 0-.081.08-.081.08-.081 0-.081.082-.081.082V109.368c.081.32.161.723.322.965.161.16.241.322.322.322l.081.08c0 .08 0 .08-.081.08-.161 0-.322-.08-.482-.08l-.161.723h-.08l-.161-.723c-.241 0-.322.08-.402.08h-.08c-.081 0-.161 0-.161-.08 0 0 .081 0 .161-.08.08 0 .161-.162.241-.322.241-.242.322-.482.322-.564v-.4l.081-.402v-.08l-.081-.082-.081-.08-.081-.08h-.08l.08-.08.161-.16.081-.082v-.081h-.001zM24.108 98.51l.081.08.08.08.08.082.081.08-.081.08-.08.08-.08.08h-.081l.081.162v.32c0 .564.321 1.207.643 1.369 0 0 .081 0 .081.08h-.161c-.08 0-.241 0-.482-.08l-.08.723h-.161l-.081-.723c-.241.08-.402.08-.482.08h-.161c0-.08 0-.08.08-.08l.322-.322c.161-.322.241-.482.241-.645 0-.16 0-.402.081-.402v-.482l-.081-.08-.081-.08-.08-.08.08-.08.081-.082.081-.08.079-.08zM22.338 80.251v.08l.081.081c.081 0 .081.081.161.081v.161l-.08.08-.081.08s-.081 0-.081.081v.081l.081.402c0 .322.161.804.322.965l.161.241.08.081.161.08-.161.081-.08-.081H22.5l-.161.644-.08.08-.081-.724h-.483l-.08.081c-.081 0-.081-.081-.081-.081v-.08s.081 0 .161-.081c.161-.081.161-.161.322-.483.081-.161.161-.241.161-.322 0-.241 0-.402.081-.402V80.894l-.081-.081-.081-.08-.081-.081v-.081l.081-.08c.081-.079.161-.079.241-.24zM25.878 80.251c.08.161.161.161.241.241l.081.08v.081l-.081.081-.081.08-.081.081V81.378c.081.482.402 1.126.644 1.287.081 0 .081.08.081.08v.081l-.161-.081h-.403l-.161.724h-.08l-.161-.724-.081-.08-.161.08h-.161l-.08.081h-.081v-.081-.08l.161-.081c.161-.081.161-.161.322-.483.081-.161.161-.241.161-.322v-.402l.081-.402v-.081l-.081-.081-.081-.08c0-.081-.081-.081-.081-.081l-.08-.081c.08 0 .08 0 .08-.08.081 0 .081-.081.161-.081l.081-.081c.002.003.002.003.002-.078zM24.108 83.388v.08l.081.081c.08.08.08.08.16.08 0 .08 0 .08.081.08l-.081.081-.08.08-.08.081-.081.081v.08l.081.322c0 .563.321 1.207.643 1.368l.081.081h-.242c-.081 0-.322 0-.402-.081l-.161.724h-.08l-.081-.724c-.161.081-.402.081-.563.081h-.08s0-.081.08-.081c.081 0 .241-.161.322-.322.161-.241.241-.483.241-.563 0-.241 0-.402.081-.402V84.033c0-.081 0-.081-.081-.081v-.081l-.161-.08v-.081l.08-.08.081-.08.081-.081.08-.081zM22.258 86.525l.08.081.081.08.081.08.081.081-.081.16-.081.081h-.081v.08c0 .563.161 1.207.322 1.368l.241.322.08.08h.081l-.081.081h-.241l-.161-.081H22.5l-.161.724h-.08l-.161-.724h-.081l-.161.081h-.403l.081-.081.161-.08c.322-.322.563-.965.563-1.689v-.08h-.081l-.081-.081c0-.08-.081-.08-.081-.16h-.08c.08 0 .08-.081.161-.081 0 0 0-.08.081-.08l.081-.08v-.082zM25.878 86.525c.08 0 .08.081.08.081.081 0 .081.08.081.08s.081 0 .081.08l.081.081-.161.16-.081.081v.483c.081.563.242 1.045.644 1.367h.081l-.081.081h-.243l-.16-.081h-.161l-.081.724h-.161l-.081-.724c-.161 0-.161.081-.241.081h-.403l.081-.081.161-.08c.081-.161.161-.161.322-.563.081-.161.081-.241.081-.322 0-.161.081-.402.081-.402v-.322l.081-.161h-.081l-.081-.081-.081-.16h-.08c.08 0 .08-.081.08-.081l.242-.241zM18.397 84.917l.08.161c0 .081.081.241.081.322.081.563.241.724.483.724.161 0 .322-.161.322-.241l.08-.242.081-.08c.081 0 .161.161.161.402 0 .08 0 .241.08.482 0 .161.081.321.081.402 0 .16-.081.241-.081.321 0 .241.081.482.081.644 0 .241-.081.482-.161.563.08.161.08.241.08.402 0 .081 0 .241-.08.322v.643l-.242-.081-.161-.081c-.081-.08-.161-.08-.241-.161-.242.161-.242.161-.805.322-.081 0-.161 0-.161.08-.081 0-.161.081-.161.081-.08 0-.161-.161-.161-.483 0-.161.081-.402.081-.482-.161-.08-.241-.161-.322-.161 0 0-.08.081-.16.081h-.081v-.081-.241l.161-.242c0-.08.08-.161.241-.322.081-.08.161-.08.241-.161h.322c.241-.081.402-.161.402-.322s-.161-.241-.322-.322l-.482-.161c-.081 0-.241-.08-.322-.16-.241-.161-.321-.161-.401-.161-.081 0-.081 0-.081.161 0 .16.081.321.241.321.081 0 .081 0 .081-.08h.16s.081 0 .081.08l-.081.241c0 .081-.08.322-.321.563l-.08.161c-.081.322-.242.563-.483.724-.081.08-.161.08-.161.08s0 .081-.081.161c0 .08-.081.161-.161.241l-.241.241c-.161.081-.241.161-.241.161l-.081.161c0 .081-.081.081-.081.081-.081 0-.161-.081-.241-.241 0-.161-.081-.161-.161-.161h-.643c-.161 0-.402.081-.563.161h-.08s-.08 0-.08-.081v-.081c0-.161.08-.482.321-.804.081-.161.081-.161.241-.322a.63.63 0 0 0-.321-.322h-.161v-.081c0-.081.08-.081.241-.161.161-.161.402-.161.482-.161.241 0 .402 0 .563.161.241.241.321.241.482.241s.402-.161.402-.402c0-.081-.081-.241-.241-.482-.322-.402-.402-.563-.402-.804 0-.161.08-.402.161-.482l.081-.161v-.081c0-.081-.081-.161-.161-.161-.161 0-.482.161-.724.322-.081 0-.161.161-.161.161v.081l.161.081v.08l-.081.081-.161.242c-.081.08-.241.321-.402.401-.08.081-.08.081-.161.081 0 0 0 .08-.08.161 0 .161-.241.322-.402.482-.08.081-.161.081-.161.081s0 .081-.081.161c0 .081-.08.161-.08.242-.161.08-.242.241-.242.241l-.322.322c-.08.081-.161.241-.241.643l-.161.322c-.081 0-.081 0-.081-.081-.241-.242-.402-.322-.482-.322h-.081c-.081.08-.242.08-.322.161h-.322c-.322.08-.402.161-.563.321l-.08.081c-.081 0-.081-.081-.081-.081v-.161l.081-.242c0-.241.08-.482.16-.643l.161-.322c.081-.081.081-.081.081-.161 0-.241-.242-.402-.563-.482h-.081c0-.081.081-.161.161-.241.241-.161.483-.322.644-.322.161 0 .322.081.482.161l.242.081c.081 0 .161.081.161.081.241 0 .483-.241.805-.724.08-.241.161-.322.161-.483 0-.241-.161-.402-.322-.402s-.322.08-.482.161c-.081.081-.081.241-.081.322v.161c0 .08-.081.08-.081.08-.161 0-.241-.08-.644-.563-.321-.402-.402-.483-.402-.885-.322-.402-.402-.644-.402-.885v-.241c-.242-.241-.322-.402-.322-.724 0-.08.081-.08.081-.241-.081-.161-.161-.241-.161-.402l-.081-.161a.615.615 0 0 0-.161-.402c-.077-.079-.077-.159-.077-.159 0-.161.081-.161.402-.242v-.241c0-.08 0-.081.081-.241v-.402c.081-.081.081-.241.081-.322 0 0 0-.08-.081-.321 0-.081-.081-.161-.081-.161-.08-.08-.08-.161-.08-.161 0-.08 0-.08.08-.08.081 0 .322.161.644.402.563.482.644.643.724 1.206 0 .081.081.161.081.242a.843.843 0 0 1 .402.724c0 .161-.081.402-.241.644l-.161.242c-.081.16-.081.241-.081.401 0 .161.081.322.161.563.161.241.322.402.482.402.242 0 .483-.483.483-.966v-.321-.322c0-.161.081-.241.081-.241v-.402c0-.08-.081-.161-.161-.241l-.161-.241c-.322-.322-.483-.644-.483-.885 0-.322.161-.563.483-.563.08 0 .08.08.241.08v-.08c0-.402.081-.724.161-.724h.081l.161.16.241.081v.08c0-.08.081-.08.161-.241 0-.08.081-.08.161-.241 0-.081.08-.081.08-.081 0-.081 0-.081.081-.161 0 0 0-.081.081-.081 0 0 0 .081.08.161 0 .081 0 .081.161.241.08.081.161.081.161.161 0 0 0 .08.08.161v.08c.081-.08.161-.08.241-.161l.161-.08.08-.08s0 .08.081.08c0 .08 0 .08.081.161.08.16.08.241.08.321v.241c.322.081.483.322.483.644 0 .241-.161.563-.402.885-.161.161-.161.242-.161.322 0 .804.482 1.207 1.368 1.207h.724c.402 0 .643.08 1.045.161.483.161.644.241.724.241s.161 0 .161-.081c.081 0 .081 0 .081-.081 0-.161-.241-.241-1.045-.482-1.689-.482-2.333-1.126-2.333-2.172 0-.885.644-1.528 1.609-1.528.241 0 .724.081.965.161l.402.161c.081 0 .161.08.242.08.161 0 .161-.161.161-.402 0-.08.081-.161.161-.161s.322.161.482.402c.161.161.241.483.241.644 0 .241-.08.402-.322.483-.241.402-.563.482-.885.482s-.724-.161-1.367-.482c-.241-.161-.402-.242-.482-.242-.241 0-.322.161-.322.322 0 .08.081.241.402.321.402.161.563.161.724.402.483.081.724.161 1.046.402.885.241 1.448.885 1.448 1.528 0 .724-.483 1.206-1.126 1.206-.165.002-.245-.078-.487-.078zM37.058 84.917v.161c.08.081.08.241.08.322.161.563.241.724.563.724.161 0 .241-.161.321-.241v-.243c.081 0 .081-.08.161-.08s.161.161.161.402c0 .08 0 .241.081.482v.482c0 .08 0 .161-.081.241l.081.161v.321c0 .483 0 .563-.081.724v.724l-.08.321v.161c.08.081.08.081.08.161h-.08l-.161-.081-.241-.081c-.081-.08-.081-.08-.241-.161-.161.161-.161.161-.402.242-.322.081-.483.081-.563.161l-.08.081c-.081 0-.161-.161-.161-.402 0-.322 0-.483.081-.563-.241-.08-.322-.161-.402-.161l-.081.081h-.08l-.081-.081c0-.161.081-.322.161-.483.161-.241.402-.402.483-.482h.402c.241-.081.322-.161.322-.322s-.081-.241-.322-.322l-.402-.161c-.161-.08-.241-.08-.402-.16-.081-.081-.161-.161-.241-.161h-.081c-.081 0-.161 0-.161.161 0 .16.161.321.322.321 0 0 .08 0 .08-.08h.081c.081 0 .081.08.081.08 0 .161-.081.482-.241.644l-.081.161-.081.161a1.63 1.63 0 0 1-.563.724l-.081.08s-.08.081-.08.161-.081.161-.241.241l-.242.241-.161.161-.161.161c0 .081 0 .081-.08.081-.081 0-.161-.081-.161-.241-.08-.161-.08-.161-.161-.161h-.643c-.241 0-.482.081-.563.161h-.161s-.08-.081-.08-.161c0-.322.241-.804.563-1.126 0-.161-.081-.241-.241-.322h-.161l-.081-.081c0-.081.081-.161.242-.161.322-.161.402-.161.563-.161.161 0 .321 0 .482.161.322.241.402.241.482.241.241 0 .402-.161.402-.402 0-.081 0-.241-.241-.482-.241-.402-.322-.563-.322-.885 0-.161 0-.322.161-.563l.081-.081c0-.081-.081-.161-.241-.161-.081 0-.242.08-.402.161-.242.161-.483.242-.483.322 0 .081.081.081.081.081l.08.081v.161l-.241.242a.965.965 0 0 1-.402.401c0 .081-.081.081-.081.081l-.081.161c-.081.161-.241.322-.402.482-.08.081-.161.081-.161.081 0 .081-.081.081-.081.161-.081.161-.241.402-.402.483l-.241.322c-.081.081-.161.322-.322.643-.08.242-.08.322-.161.322l-.081-.081c-.161-.242-.321-.322-.402-.322h-.16c-.081.08-.161.08-.242.161h-.402c-.241.08-.402.161-.563.321 0 .081 0 .081-.081.081v-.242-.242c.081-.241.161-.482.242-.643l.161-.322s.081-.081.081-.161c0-.241-.241-.402-.563-.482-.081 0-.081 0-.081-.081l.161-.161c.242-.161.483-.322.644-.322.081 0 .242.081.402.161l.242.081c.08 0 .16.081.241.081.241 0 .482-.241.724-.724.161-.241.161-.322.161-.483 0-.241-.081-.402-.322-.402-.08 0-.241.08-.402.161-.081.081-.161.241-.161.322v.161c0 .08 0 .08-.081.08-.08 0-.16-.08-.321-.241-.081-.081-.161-.241-.322-.322-.241-.402-.322-.483-.322-.885-.322-.402-.402-.644-.402-.885v-.241c-.241-.321-.322-.402-.322-.644 0-.16 0-.241.081-.321-.161-.161-.161-.241-.241-.402v-.161c-.081-.161-.081-.322-.161-.402-.08-.081-.08-.161-.08-.161 0-.081.08-.161.321-.242h.081v-.241-.241l.081-.402v-.322-.321c-.081-.081-.081-.161-.161-.161v-.161s0-.08.081-.08c0 0 .081 0 .081.08.322.161.724.483.965.724s.322.483.322 1.046c.321.241.482.402.482.724 0 .242-.08.402-.241.644-.08.161-.161.242-.161.242-.08.16-.161.241-.161.401 0 .161.081.322.242.563.16.241.241.402.402.402.322 0 .563-.483.563-.966l-.081-.08v-.321l.081-.242v-.643c0-.08 0-.08-.322-.482-.322-.322-.483-.644-.483-.885 0-.322.242-.563.483-.563.081 0 .161.08.241.08v-.322l.081-.241c.08-.241.08-.241.161-.241l.241.16.161.081.081.08c0-.08 0-.161.161-.241 0-.08.081-.161.081-.241l.161-.081v-.161c.081 0 .081-.081.081-.081.081 0 .081.081.081.161.081.081.081.081.081.161l.161.08c.081.081.161.241.241.402l.161-.161.161-.08c.081 0 .081-.08.161-.08v.08c0 .08.08.08.08.161.161.241.161.241.161.402v.161c.321.081.402.241.402.644 0 .241-.081.563-.322.885-.161.161-.241.242-.241.402 0 .724.563 1.126 1.448 1.126h.643c.483 0 .724.08 1.126.161.402.161.562.241.724.241.08 0 .161-.081.161-.161 0-.161-.241-.241-1.046-.482-1.608-.482-2.333-1.126-2.333-2.172 0-.885.724-1.528 1.608-1.528.322 0 .724.081 1.046.161l.402.161c.081 0 .161.08.161.08.161 0 .241-.161.241-.402 0-.08.081-.161.161-.161s.241.161.402.402c.161.161.241.483.241.644 0 .241-.08.402-.322.483-.241.402-.482.482-.885.482-.241 0-.724-.161-1.367-.482-.241-.161-.322-.242-.482-.242-.161 0-.241.161-.241.322 0 .08.08.241.402.321.402.161.563.242.644.402.563.081.724.161 1.045.402.965.322 1.448.885 1.448 1.528 0 .724-.402 1.206-1.046 1.206-.166.003-.246-.077-.487-.077zM18.639 103.738c.081.24.081.322.081.482v.402c.08.402.161.643.482.643.081 0 .161 0 .161-.08l.161-.08c.081 0 .161 0 .161.08v.162c-.081.08 0 .24 0 .482v.4c0 .242 0 .322-.081.484.081.16.161.4.161.562 0 .24-.08.402-.161.482.081.242.081.242.081.402 0 .08 0 .242-.081.322V109.043s0 .08-.081.08l-.081-.08c-.08-.08-.161-.08-.161-.08-.081 0-.081 0-.241.32 0 .082-.081.162-.242.322-.08.16-.161.242-.161.322s-.081.16-.081.24h-.081c-.161 0-.322-.32-.482-1.045-.081-.16-.161-.24-.241-.24s-.161.08-.161.16l-.081.08c0 .08 0 .08-.08.08s-.161-.16-.241-.32c-.08-.162-.08-.322-.08-.482 0-.322.241-.564.884-.967.322-.16.402-.402.402-.723 0-.322-.081-.484-.322-.725-.241-.16-.322-.242-.482-.242-.081 0-.161.082-.161.162s.08.16.241.24c.081 0 .161.08.161.162 0 0 0 .16-.161.32a.623.623 0 0 1-.321.322c0 .322-.161.482-.483.645 0 .24-.081.24-.161.402l-.241.24c-.081.08-.161.242-.161.322 0 .16 0 .16-.081.16-.08 0-.241-.08-.402-.32-.081-.082-.081-.162-.161-.322-.081.08-.081.08-.322.08-.081.08-.161.08-.241.08-.161.08-.242.162-.242.162s-.08-.082-.08-.162v-.16c0-.322.161-.645.322-.885-.161-.162-.322-.242-.483-.322h-.08s0-.08.08-.16c.081-.082.161-.162.161-.242.161-.08.402-.16.644-.16.08 0 .322 0 .563.08.081.08.161.08.241.08.081 0 .161-.08.161-.16 0-.242-.081-.482-.322-.965-.161-.322-.161-.484-.161-.645 0-.322.161-.725.322-.805-.08-.08-.161-.08-.241-.08s-.161 0-.241.08c-.161.08-.242.162-.242.242 0 0 0 .08.081.08.081.08.081.08.081.16 0 .242-.241.564-.482.805-.081.322-.242.562-.563.725 0 .16-.08.24-.241.402-.241.402-.321.482-.321.723-.081.08-.081.162-.081.162-.08 0-.16-.082-.241-.162-.08-.16-.161-.16-.161-.24-.081-.08-.081-.08-.081-.322-.08 0-.161.08-.161.08l-.161-.08h-.081c-.241 0-.483.08-.563.16h-.081c-.081 0-.161-.08-.161-.24 0-.402.081-.645.322-1.045-.08 0-.08-.082-.161-.162l-.081-.08h-.081l-.08-.08c0-.08.161-.242.322-.322.161-.16.322-.16.482-.16.161 0 .241 0 .402.24.161.08.241.162.321.162.081 0 .161-.082.161-.082 0-.08.08-.16.08-.16 0-.24-.241-.562-.482-.725-.241-.08-.402-.16-.643-.16-.242 0-.483.16-.563.322l-.161.24c0 .082-.081.082-.081.082-.081 0-.081 0-.322-.242l-.241-.322c-.081-.08-.161-.16-.161-.24-.08-.082-.08-.162-.08-.162l-.081-.08c-.241-.16-.322-.402-.402-.805-.081-.08-.081-.08-.081-.16-.242-.322-.402-.643-.402-.965 0-.08 0-.08.08-.162-.161-.16-.161-.16-.322-.562-.081-.24-.081-.402-.241-.482v-.08c0-.08.081-.08.241-.162h.402v-.24-.482c0-.08.081-.162.081-.162 0-.08 0-.08-.081-.24v-.08-.162h.161c.161.082.322.242.402.322.402.242.644.643.644.885v.242c0 .08 0 .08.08.16l.081.16c.081.162.161.322.161.402 0 .082 0 .162-.161.322-.161.242-.161.322-.161.482 0 .162.08.402.161.645.161.16.241.32.402.32.241 0 .322-.24.322-.723.08-.322.08-.564.08-.805v-.08c0-.08 0-.162-.08-.242l-.322-.322c-.242-.32-.322-.482-.322-.723 0-.322.161-.482.402-.482h.161v-.082-.24c.081-.242.161-.402.241-.402l.081.08h.161c.081.08.081.08.242.162 0-.162.08-.242.161-.402.081-.162.241-.242.322-.242 0 0 .08 0 .161.08l.16.242s.081.08.081.16l.08.08c.081 0 .081-.08.081-.08.081 0 .161-.08.161-.08.161-.08.241-.08.241-.08l.081-.08s.081.08.161.402v.482c.322 0 .483.16.483.562 0 .322-.161.643-.483.965-.08.08-.08.162-.08.242 0 .885.241 1.205 1.368 1.287.724.08.884.16 1.689.4.482.082.724.162.885.162.161 0 .241-.08.241-.242 0-.16-.081-.24-.885-.402-1.85-.32-2.574-.965-2.574-2.252 0-.805.644-1.447 1.528-1.447.322 0 .724.08 1.207.402.563.322.644.322.724.322.161 0 .241-.082.241-.322 0-.08 0-.16.081-.16s.241.08.322.16c.161.24.241.322.241.562 0 .402-.161.645-.563.725l-.081.08c-.241.242-.402.322-.724.322s-.643-.08-.884-.242l-.482-.402c-.242-.08-.322-.16-.483-.16-.241 0-.322.08-.322.322 0 .16.081.32.322.402l.483.16c.16.08.241.08.401.16h.242c.241 0 .563.082.804.242.081 0 .161 0 .161.08h.322c.563.16.965.805.965 1.447 0 .725-.402 1.127-1.207 1.127h-.158v.006zM36.012 103.576c.161.242.402.402.563.402.08 0 .161 0 .321-.08h.081c.08 0 .08 0 .08.08 0 0 0 .082-.08.162v.24l-.081.162-.08.16-.161.16v.162c0 .24-.08.402-.322.562l-.08.08c0 .162-.081.322-.081.402 0 0-.081.08-.161.242-.161.16-.241.32-.241.402-.081.08-.081.16-.161.16-.081 0-.242-.16-.242-.322v.08l-.161.082-.161.16c-.081 0-.161.08-.161.08l-.161.16c-.08 0-.161-.08-.161-.24l-.081-.322c-.08-.08-.08-.24-.08-.322 0-.16 0-.24.08-.4-.241.08-.241.08-.402.08h-.081v-.162l.161-.32c.08-.322.402-.564.644-.564.08 0 .161.082.321.082h.081c.161 0 .241-.082.241-.162s0-.08-.081-.16c0 0-.161 0-.321-.08-.241-.08-.322-.08-.483-.322-.161-.16-.161-.242-.241-.242l-.081.082v.24c0 .242-.08.482-.241.885l-.321.482c-.081.242-.161.482-.161.645 0 .16.08.402.241.402h.08l.081.08v.16s-.081.08-.161.242c-.241.16-.322.24-.482.32-.161.322-.322.484-.724.564v.08c-.161.242-.402.402-.563.402h-.078c0 .16-.081.402-.322.482-.161.16-.241.16-.241.24v.082c-.08.08-.08.08-.161.08-.161 0-.241-.08-.241-.242-.08 0-.08 0-.08.08-.161.082-.241.082-.241.082s-.161.08-.322.08c-.241.08-.482.16-.562.32l-.081.082v.08c-.081 0-.081-.08-.161-.162 0-.24-.08-.482-.08-.562 0-.402.161-.643.482-.965v-.08c0-.562.402-.965 1.045-.965h.081l.322.08h.081c.161 0 .322-.08.563-.242.241-.24.241-.32.241-.562 0-.08 0-.16-.081-.402 0-.16-.08-.322-.08-.482 0-.402.322-.885.724-1.207.161-.08.161-.16.161-.24 0 0-.081 0-.081.08-.081 0-.161.08-.241.16l-.161.082-.241.08s-.081 0-.081.08l.081.08v.08s0 .08-.081.08l-.08.242c-.161.242-.242.322-.483.402-.08.322-.241.482-.482.562-.161.322-.322.482-.644.482a1.66 1.66 0 0 1-.321.482c-.081.08-.161.162-.161.162l-.081.16c-.081 0-.161-.08-.241-.16-.081 0-.081-.082-.081-.082l-.081-.16c-.08-.08-.08-.08-.161-.08h-.241c-.161 0-.322.16-.402.24l-.161.162v.08c-.08 0-.161-.242-.161-.562 0-.242.081-.482.161-.564l.242-.4c.08-.082.08-.162.08-.162 0-.08 0-.08-.08-.16 0-.08-.081-.08-.161-.08l-.161-.08h-.081s0-.082.081-.082c0-.08.161-.16.241-.24.241-.162.402-.162.563-.162.161 0 .322 0 .483.162l.321.16c0 .08.081.08.161.08s.241-.08.322-.32c.081-.162.081-.242.081-.402 0-.402-.241-.645-.644-.645-.161 0-.322.08-.483.162-.08.08-.08.08-.08.16l-.081.16-.081.082c-.081 0-.161-.162-.241-.322-.081-.162-.161-.242-.161-.402-.08-.162-.08-.322-.08-.482v-.242c-.161-.24-.161-.402-.161-.643 0-.08 0-.162.081-.322-.081-.16-.161-.322-.161-.482v-.16l.081-.082v-.16c-.081-.08-.081-.16-.241-.643 0-.242-.081-.322-.081-.402-.08 0-.08-.082-.08-.082 0-.08.161-.08.321-.08h.161c-.081-.08-.081-.16-.081-.24 0-.082.081-.242.081-.402.081-.08.081-.162.081-.242s0-.24-.081-.24l-.081-.242v-.08h.081c.161 0 .563.16.804.482.322.242.402.482.402.885v.242c.242.24.402.402.402.643 0 .162-.08.242-.241.402-.241.242-.321.402-.321.725 0 .562.161.803.482.803.241 0 .482-.24.482-.643v-.402c0-.08.081-.24.081-.322v-.32c0-.08-.081-.242-.322-.564-.241-.32-.402-.482-.402-.805 0-.24.241-.482.563-.482h.161c0-.16 0-.16.081-.4.08-.242.161-.322.241-.322h.08c0 .08.081.08.081.16h.08c.081.08.081.08.161.162 0-.242.08-.402.241-.564.161-.08.241-.16.241-.16s.081 0 .081.08l.161.162.161.16c0 .08.08.16.08.322l.081-.082.161-.08c.08 0 .08-.08.161-.08h.081l.081.242.161.32v.242h.081c.161 0 .402.24.402.562s-.322.805-.724 1.047v.24c0 .805.241.965 1.448 1.127.241.08.563.16.804.16 0 .08.322.16.804.322.242.08.402.08.563.08.161 0 .241 0 .241-.08 0-.162-.241-.242-.805-.482l-.885-.402c-.885-.322-1.287-.885-1.287-1.609 0-.965.644-1.689 1.609-1.689.322 0 .724.08 1.207.322.563.16.644.24.724.24.081 0 .161-.16.161-.32 0-.162.081-.162.161-.162.161 0 .241.082.321.242.081.16.161.402.161.562 0 .322-.161.562-.482.562-.241.322-.482.484-.805.484-.402 0-.563-.082-1.287-.564-.242-.16-.322-.16-.483-.16-.241 0-.482.16-.482.322 0 .24.161.32.482.402.241.08.241.08.322.16h.241c.322 0 .724.16 1.046.482.563.16 1.126.805 1.126 1.367 0 .645-.483 1.207-1.126 1.207-.161 0-.483-.08-.725-.162z"/><path d="M19.443 89.26c-.08-.081-.08-.161-.08-.241v-.081l.08-.161v-.081c0-.161-.08-.241-.08-.322l-.161-.161c0-.081-.081-.161-.081-.161v-.161h.162c.081.08.081.08.161.08 0 0 .081-.161.081-.322s-.081-.241-.081-.321l-.161-.161-.161-.08v-.081c0-.08 0-.08.081-.08h.241c.081 0 .081 0 .081-.08l-.081-.241v-.161l-.08-.081h-.322c-.322 0-.724-.241-.805-.644l-.161-.644c-.081-.161-.241-.322-.482-.563-.081-.081-.161-.081-.241-.161h-.241c0-.08.08-.08.16-.08h.322c.08 0 .321.08.562.161.242.081.483.161.644.161.483 0 .805-.322.805-.724 0-.321-.161-.644-.402-.885-.161-.161-.322-.241-.322-.241-.081 0-.081 0-.081.081v.081c0 .08 0 .161-.08.161 0 0-.081-.081-.161-.241-.161-.402-.482-.644-.804-.644l-.081.081s0 .081.081.161l.081.161v.081c-.081 0-.161 0-.161-.081l-.161-.161-.16-.161c-.081-.161-.161-.241-.402-.402-.161 0-.241-.081-.241-.081-.081 0-.081-.08-.161-.08v.161c.081.161.161.161.161.241l-.081.081c-.081 0-.241-.161-.402-.402-.08-.161-.161-.402-.161-.563 0-.402.322-.724.724-.724.241 0 .482.08.724.241l.483.241a.868.868 0 0 0 .563.241c.081 0 .161-.08.322-.08 0 0 .081 0 .081-.081h.081c0-.081 0-.081-.081-.081l-.241-.081c-.081 0-.161 0-.242-.081-.322-.08-.482-.161-.563-.241-.161-.08-.241-.161-.321-.161l-.081-.081v-.08h.161c.081.161.241.161.322.161l.402.161c.241.081.563.161.724.161.161 0 .322-.161.322-.322s-.08-.322-.161-.483h-.081c-.081 0-.081 0-.081.081v.16c0 .161-.08.242-.161.242h-.161l-.644-.242c-.562-.16-.804-.241-1.045-.241-.805 0-1.368.563-1.368 1.207 0 .804.563 1.367 1.93 1.85 1.368.402 1.528.563 1.528.885 0 .241-.241.402-.402.402h-.241c-.081-.081-.322-.081-.724-.161-.402-.161-.805-.161-1.207-.161-.965 0-1.528.161-2.011.644-.08.081-.161.081-.321.081h-.161c-.161 0-.241.08-.321.161-.081.241-.161.322-.161.322l-.081.081c-.161 0-.161-.081-.322-.322 0-.161-.08-.241-.161-.322l-.241-.161v-.081-.08c.08-.161.161-.241.161-.322s0-.081.081-.081.081 0 .081.241c0 .081 0 .161.08.322l.081.242h.161c.081 0 .161-.242.241-.483 0-.241.081-.241.081-.241h.08s0 .081.08.161c0 .081.081.081.081.161.08 0 .161.08.161.08.081 0 .081-.08.161-.241v-.08l-.08-.161v-.08c0-.081.08-.161.08-.161s.081 0 .081.08l.081.081c.08.08.161.08.241.08.08 0 .08 0 .08-.08 0 0 0-.081-.08-.241l-.081-.081c-.081-.16-.081-.241-.161-.241h-.161l-.08.081h-.081c0-.161 0-.242.161-.402.081-.161.081-.402.161-.805 0-.563.08-.885.161-.885 0 0 .081.081.081.161v.403c.08 0 .161-.161.241-.322.081-.08.081-.161.081-.241l-.242-.402-.161-.08h-.081v-.402l-.08-.08v-.083c-.241.081-.322.161-.402.242-.08.161-.161.161-.161.161h-.08c0-.08 0-.08.08-.161v-.081c0-.241-.16-.402-.402-.562v.08l-.081.08-.164.161s-.081.08-.081.161v.161c0 .081 0 .161-.08.161l-.081-.161-.081-.081-.161-.161h-.161v.081c0 .08-.081.08-.081.161v.322c0 .08 0 .161-.08.161l-.081-.081h-.161c-.161 0-.241.081-.241.242 0 .161 0 .402.161.482l.08.241c.081 0 .161.081.161 0v-.322l-.081-.08c0-.081.081-.161.081-.161.081 0 .081.081.161.241l.081.402.081.483c0 .08.081.241.081.402.08.161.161.241.161.322l.161.161c0 .081 0 .081-.081.081h-.081c0-.081-.081-.081-.081-.081h-.08c-.161 0-.242.161-.242.805 0 .402.081.965.242 1.207l.161.563c.081.081.081.161.081.241 0 .724-.965 1.85-2.011 2.413-.402.161-.562.322-.562.804v.081c.161-.081.241-.081.321-.081.322-.081.322-.161.402-.322l.08-.08c0-.081 0-.081.242-.242.081 0 .161-.08.161-.08 0-.081.081-.161.081-.161.081 0 .081 0 .081.081l-.161.322v.081c0 .161.161.321.322.482.081-.241.081-.322.161-.482l.161-.242c.081-.08.081-.241.081-.402v-.403c0-.081 0-.081.081-.081h.08v.241h.081c.161 0 .241-.08.402-.322 0-.08.081-.161.081-.241v-.161l-.081-.161c0-.081.081-.161.081-.161.08 0 .08.08.08.08l.081.242c0 .081 0 .081.081.081.08 0 .161-.081.241-.241.08-.081.08-.241.08-.402 0-.241.081-.241.161-.241l.08.161s0 .08.081.08c0 0 .161-.161.241-.322v-.081s0-.08-.081-.08c-.161-.161-.161-.161-.161-.241 0-.161.08-.242.161-.402 0-.081.081-.161.081-.242.161-.241.161-.241.241-.241.08 0 .08 0 .08.081v.081c-.08 0-.08.08-.08.08 0 .081.08.081.08.081.081 0 .081 0 .161-.081.08 0 .161 0 .322-.08l.322-.161h.403c.08.081.161.081.161.081.161 0 .241-.081.241-.161s-.08-.241-.161-.321l-.081-.081v-.081h.081c.081 0 .241.161.322.402.884 1.287 1.207 1.689 1.769 1.85.563.161.724.322.724.644 0 .161-.081.402-.322.724-.402.563-.482.804-.482 1.207v.08h.08c.081-.08.161-.08.161-.08l.241-.081c.081 0 .161-.081.161-.161v-.081l-.081-.161v-.081c0-.081.081-.161.161-.161v-.08c.081 0 .081.08.081.08l.161.322c.077.161.158.241.399.322zM11.319 82.021s-.08.08-.08.241v.161c-.081.161-.081.161-.081.242 0 .161.081.241.161.241.081 0 .161-.081.161-.241.081-.081.081-.161.081-.242 0-.08 0-.161-.081-.241 0-.081-.081-.161-.161-.161z" fill="#fadf3c"/><path d="M10.434 80.493v.08c0 .081 0 .241-.16.644v.161c0 .08 0 .161.08.241l.08.081.161.08v.402c.081.081.081.161.081.241v.161c-.081 0-.161-.161-.242-.241-.08-.242-.16-.402-.241-.402-.161 0-.241.081-.321.081v.08c0 .081.08.081.161.242l.081.241.161.322.16.161s.081 0 .161.081c.081 0 .081.08.081.08s0 .081-.081.081h-.161l-.08-.081v.161c0 .241.161.563.563.804.081.081.081.081.081.161 0 0 0 .081-.081.081l-.081-.081h-.08c-.081 0-.081 0-.081.081s0 .242.161.483a.632.632 0 0 0 .322.322l.483.161v.081s0 .081-.081.081h-.404c0 .08.081.241.161.322.161.241.242.322.242.322.081 0 .081 0 .081-.081l.161-.241s.081-.081.241-.161c.081-.081.161-.081.241-.081l.242-.08v-.724l-.081-.161v-.081c-.081 0-.081 0-.081.081-.161.241-.322.321-.482.321-.483 0-.885-.965-.885-2.171v-.482-.483c0-.563-.081-.885-.322-1.126l-.161-.161-.08-.084zM11.721 87.812c-.161-.081-.161-.081-.241-.081s-.161-.081-.241-.081c-.161-.08-.241-.161-.402-.161-.08 0-.241.081-.402.241h.081l.241.161.161.161c.081 0 .161.081.161.081.24.001.401-.08.642-.321zM15.582 89.582c.081-.08.081-.161.161-.241.322-.241.402-.402.402-.563v-.241c0-.081.08-.161.161-.161l.081.161s0 .08.081.08l.161-.161.081-.161c.08-.08.08-.08.08-.161v-.081c0-.081-.08-.081-.08-.161-.081-.081-.081-.161-.081-.161 0-.081.081-.161.081-.161.08 0 .08 0 .08.08l.081.081h.081c.08 0 .08 0 .08-.081l.081-.161c.08 0 .08-.081.08-.081l-.08-.08-.161-.081c-.161-.081-.322-.322-.322-.643 0 0 0-.081.081-.081l.08-.161v-.161c0-.081-.08-.241-.08-.322-.081-.081-.161-.161-.161-.242-.08-.08-.08-.161-.161-.161l-.081.081h-.161l-.081.161-.161.081a.617.617 0 0 0-.161.402c0 .241 0 .321.402.885.08.241.161.482.161.562 0 .402-.322.724-1.046.885l-.482.161c-.322.081-.563.241-.644.644.161-.081.241-.081.482-.081h.161c.161 0 .161 0 .241-.081a.627.627 0 0 1 .322-.321l.161-.081h.161v-.081l.081.081s-.081.081-.081.161c-.161.161-.161.241-.161.402-.001.083-.001.164.08.245z" fill="#fadf3c"/><path d="M14.295 88.053c.161.081.241.161.321.241.081.161.081.161.161.161h.161l.081-.081c.161 0 .241 0 .241-.081v-.08l-.16-.079-.081-.081c-.081-.081-.241-.161-.322-.161-.16.001-.241.081-.402.161zM17.512 88.616l.081-.08h.242c.241 0 .402-.161.402-.322 0-.081 0-.161-.161-.161-.242 0-.403.161-.564.563zM38.023 89.26v-.322-.402c0-.081 0-.081-.08-.161l-.081-.161c-.081-.081-.081-.161-.081-.322h.162c0 .08.08.08.08.08.081 0 .081-.08.081-.322 0-.241 0-.402-.161-.482l-.161-.08c0-.081-.08-.081-.08-.081 0-.08.08-.08.08-.08h.322v-.321c0-.161-.081-.242-.161-.242h-.322c-.322 0-.643-.241-.724-.644l-.241-.644c0-.161-.161-.402-.482-.563-.081-.081-.161-.081-.161-.161h-.242c0-.08 0-.08.081-.08.241 0 .563 0 .885.161.322.081.563.161.724.161.482 0 .724-.242.724-.724 0-.241 0-.482-.161-.644-.08-.161-.241-.321-.482-.482h-.08v.162c0 .08-.081.161-.081.161-.08 0-.08-.081-.16-.241-.161-.402-.483-.644-.805-.644-.081 0-.081.081-.081.081v.161c.081 0 .081.081.081.161.081 0 .081.081.081.081h-.081s-.081 0-.161-.081l-.161-.161-.081-.161-.402-.402-.242-.081c-.08 0-.161-.08-.161-.08l-.081.08.081.081c.081.081.081.161.081.241v.081c-.081 0-.241-.161-.402-.402-.161-.161-.161-.402-.161-.563 0-.402.322-.724.724-.724.161 0 .483.08.724.241l.482.241a.868.868 0 0 0 .563.241c.08 0 .08 0 .241-.08.08 0 .08 0 .161-.081 0-.081 0-.081-.081-.081-.161 0-.644-.241-.965-.402l-.322-.161c-.081-.081-.161-.081-.161-.161h.081l.482.161.402.161c.241.081.563.161.644.161.241 0 .321-.161.321-.322v-.322c-.08-.08-.161-.161-.241-.161v.241c0 .161-.08.242-.161.242h-.161l-.724-.242c-.563-.16-.724-.241-1.046-.241-.724 0-1.367.563-1.367 1.207 0 .804.563 1.367 1.931 1.85 1.367.402 1.528.563 1.528.885 0 .241-.161.402-.402.402h-.241c-.08-.081-.241-.081-.643-.161-.402-.161-.805-.161-1.287-.161-.965 0-1.448.161-1.93.644-.161.081-.161.081-.322.081h-.242c-.081 0-.161.08-.242.161l-.161.322c-.081 0-.081.081-.161.081s-.161-.081-.241-.322c-.081-.161-.081-.241-.161-.322l-.241-.161c0-.081-.081-.081-.081-.081l.081-.08c0-.081.08-.081.08-.161s.081-.08.081-.161v-.081h.081c.08 0 .08 0 .08.241 0 .081 0 .161.081.322l.081.242h.081c.08 0 .241-.242.241-.483.081-.241.081-.241.161-.241l.081.161.161.161c.08 0 .08.08.08.08h.081c.081 0 .081-.08.081-.241v-.321c0-.081 0-.161.081-.161l.08.08.081.081c.081.08.081.08.161.08.081 0 .161 0 .161-.08 0-.081 0-.081-.081-.241 0 0-.081 0-.081-.081-.08-.16-.161-.241-.241-.241h-.08l-.161.081h-.081c0-.161.081-.242.161-.402.081-.161.161-.402.161-.805l.081-.482c0-.322.081-.402.081-.402h.08v.322c0 .161 0 .241.081.241l.161-.161s.081-.081.081-.161.08-.241.08-.241c0-.241-.161-.402-.402-.482h-.08v-.242l-.081-.161v-.08l-.081-.081h-.08c-.161.161-.242.161-.322.242-.081.161-.081.161-.161.161v-.242c0-.241-.081-.402-.322-.562l-.081.08-.08.08-.081.161c-.081.08-.161.161-.161.322v.161l-.08-.161-.161-.081-.161-.161h-.081c-.08.161-.08.161-.08.483v.081c0 .08-.081.161-.081.161-.08 0-.08-.081-.161-.081h-.161c-.081 0-.241.081-.241.242 0 .161.08.322.161.482.081.161.241.241.241.241v-.402c0-.081 0-.161.081-.161 0 0 .08.081.08.241l.081.402.08.483c.081.08.081.241.161.402.08.161.161.241.161.322l.081.161v.081h-.081c-.081-.081-.081-.081-.161-.081h-.081c-.161 0-.161.161-.161.805 0 .402.08.965.161 1.207l.241.563c0 .081.081.161.081.241 0 .724-1.046 1.85-2.091 2.413-.402.161-.483.402-.563.885.241-.081.241-.081.402-.081.242-.081.322-.161.402-.322v-.08c0-.081.081-.081.242-.242.08 0 .16-.08.16-.08l.161-.161v.081l-.08.322v.081c0 .161.08.321.321.482v-.161c.081-.161.081-.241.161-.321l.161-.242c.081-.08.081-.161.081-.402v-.403c0-.081 0-.081.08-.081l.081.241h.08c.081 0 .241-.08.322-.322.081-.08.081-.161.081-.241v-.321c0-.081 0-.161.08-.161v.08l.081.242c.081.081.081.081.161.081.161 0 .322-.322.322-.644 0-.161 0-.241.08-.241h.081v.161c.081 0 .081.08.081.08.081 0 .081-.08.161-.161 0-.08.081-.08.081-.161v-.081c0-.08 0-.08-.081-.08-.08-.081-.08-.161-.08-.241 0-.161.08-.322.241-.644.161-.241.161-.322.241-.322 0 0 .081.081.081.161 0 0-.081 0-.081.081v.08c0 .081 0 .081.081.081 0 0 .08 0 .161-.081.081 0 .161 0 .242-.08.241-.081.321-.081.402-.161h.322c.161.081.241.081.241.081.08 0 .161-.081.161-.161s0-.161-.081-.161c0-.081-.08-.161-.08-.161v-.162c.08 0 .241.161.402.402.804 1.287 1.126 1.689 1.77 1.85.562.161.724.322.724.644 0 .161-.08.402-.321.724-.402.563-.563.885-.563 1.207v.08h.161c.08-.08.08-.08.161-.08l.241-.081c.08 0 .08-.081.08-.161v-.323c0-.081.08-.241.161-.241l.08.08.161.322c.075.16.155.24.316.321zM29.819 82.423v.242a.35.35 0 0 0 .081.241c.081 0 .161-.081.242-.241 0-.081.08-.242.08-.242 0-.08-.08-.161-.08-.241-.081-.081-.081-.161-.161-.161-.082 0-.082.161-.162.402z" fill="#fadf3c"/><path d="M29.095 80.493v.08c0 .081-.081.241-.081.402-.081.161-.081.241-.081.241v.161c0 .161.081.322.161.322l.08.08.081.161c-.081 0 0 .081 0 .241v.402s-.081-.161-.161-.241c-.081-.242-.161-.402-.322-.402-.081 0-.161.081-.322.081.161.161.161.322.322.563.161.322.241.402.482.563l.081.08-.081.081h-.161l-.081-.081s-.081.081-.081.161c0 .241.241.563.644.804 0 .081.081.081.081.161h-.081v.081c-.081 0-.081-.081-.161-.081h-.081s-.081 0-.081.081.081.242.241.483a.632.632 0 0 0 .322.322l.402.161c.08 0 .08.081.08.081l-.08.081h-.399c0 .08.081.161.161.322.08.241.161.322.241.322 0 0 .08 0 .08-.081l.081-.241s.08-.081.241-.161c.161-.081.241-.081.321-.081.241-.08.241-.08.241-.161v-.241s-.08-.081-.08-.161v-.402c0-.081 0-.081-.081-.081l-.081.081c-.08.161-.241.321-.402.321-.563 0-.965-.965-.965-2.252v-.402l.081-.402v-.241c0-.322-.161-.805-.322-.965l-.161-.161-.078-.082zM30.382 87.812l-.483-.161c-.161-.08-.322-.161-.402-.161-.161 0-.241.081-.402.241h.08l.161.161.241.161s.081.081.161.081c.161 0 .322-.081.644-.322zM34.163 89.582c.08-.08.08-.161.241-.241.241-.241.402-.402.402-.563v-.241c0-.081 0-.161.08-.161h.081l.081.161s0 .08.08.08c0 0 .081-.08.241-.322 0-.08.081-.08.081-.161s-.081-.081-.081-.081c0-.081 0-.081-.08-.161v-.161c0-.081 0-.161.08-.161 0 0 .081 0 .081.08l.081.081c.081 0 .161 0 .161-.081l.081-.161v-.079s0-.08-.081-.08l-.08-.081c-.161-.081-.322-.322-.322-.563v-.161l.08-.161v-.161c0-.081 0-.241-.08-.322-.081-.081-.081-.161-.081-.242-.081-.08-.081-.161-.161-.161 0 0-.081 0-.161.081h-.08l-.161.161-.081.081a.612.612 0 0 0-.161.402c0 .241 0 .321.321.885.161.241.242.482.242.562 0 .402-.402.724-1.126.885-.804.161-.965.322-1.045.804.161-.081.161-.081.402-.081h.161c.161 0 .161 0 .241-.081l.322-.321.161-.081h.161l.081-.081v.081s0 .081-.081.161c-.08.161-.161.241-.161.322-.001.162-.001.243.08.324z" fill="#fadf3c"/><path d="M32.956 88.053c.081.081.241.161.322.241.08.161.08.161.161.161h.161l.081-.081c.16 0 .241 0 .241-.081l-.081-.08-.08-.081-.161-.081c0-.081-.161-.161-.321-.161-.082.003-.162.083-.323.163zM36.173 88.616l.081-.08h.161l.081.08c.081 0 .161-.08.161-.08.081-.081.161-.161.161-.242.08 0 .08-.08.08-.08a.172.172 0 0 0-.161-.161c-.322 0-.483.161-.564.563zM18.397 109.689l.08-.16.161-.16c.081-.082.161-.242.161-.482v-.322c-.08-.08-.08-.16-.08-.16 0-.082.08-.162.08-.162.081 0 .081.08.081.08l.161.162c.08.08.161.16.241.16v-.322c0-.24-.081-.482-.161-.643-.08-.162-.161-.162-.161-.242 0 0 0-.08.081-.08v.08l.161.08c.081 0 .161-.16.161-.24a.726.726 0 0 0-.242-.562c-.08-.082-.08-.162-.08-.162-.081 0-.081-.08-.081-.08l.081-.08c.08 0 .08 0 .161.08h.081c.081 0 .081-.08.081-.402v-.24c0-.242 0-.322-.081-.322h-.081c-.482 0-.724-.242-.885-1.127-.081-.562-.322-.965-.563-1.125-.161 0-.242-.08-.242-.08 0-.082.081-.082.081-.082.08 0 .161 0 .241.082.402.16.724.24.965.24.483 0 .885-.402.885-.805s-.161-.723-.483-.965c-.081-.08-.161-.16-.241-.16h-.08l.081.16v.162h-.081l-.241-.322c-.081-.162-.402-.402-.644-.402-.081 0-.161.08-.161.08 0 .08.08.08.08.16a.253.253 0 0 1 .081.162v.08h-.081l-.241-.242c-.161-.24-.562-.4-.724-.4h-.081v.16c.081.08.161.08.161.16h-.08c-.081 0-.161-.08-.402-.24-.402-.322-.563-.564-.563-.885 0-.402.322-.725.644-.725.161 0 .483.08.643.24l.483.402c.241.162.563.242.804.242h.161l.08-.08s0-.08-.08-.08a.615.615 0 0 1-.402-.162l-.482-.402c-.241-.16-.322-.24-.402-.24-.321-.162-.321-.162-.321-.242h.16l.241.162c.081 0 .242.08.402.24.563.322.805.482 1.126.482s.482-.24.482-.562v-.16l-.081-.082v-.08l-.08.08v.162c0 .08 0 .08-.081.08v.16h-.241c-.161 0-.322-.08-.805-.32-.402-.322-.884-.482-1.207-.482a1.27 1.27 0 0 0-1.287 1.285c0 1.047.563 1.449 2.493 1.852.724.16 1.046.402 1.046.723 0 .322-.241.482-.563.482h-.322c-.081 0-.402-.16-1.045-.32-.402-.082-.885-.162-1.287-.162-.724 0-1.287.242-1.609.725-.081 0-.081.08-.081.08-.08 0-.08 0-.08-.08l-.161-.08a.615.615 0 0 0-.402-.162c-.08 0-.08.082-.161.082l-.081.08c-.08 0-.161-.08-.241-.242a1.29 1.29 0 0 1-.241-.723c0-.082.081-.162.081-.162.081 0 .081 0 .081.08l.08.322c.081.16.161.242.241.242 0 0 .081 0 .161-.082 0-.08 0-.08.08-.16 0-.16.081-.24.081-.24.08 0 .08.08.16.24 0 .08 0 .08.081.16 0 .082.08.162.08.242h.081c.161 0 .241-.16.241-.322h-.081v-.16c0-.08 0-.16.081-.16l.081.08c0 .08.08.08.161.16h.242v-.08c0-.08 0-.08-.081-.242-.08 0-.161-.16-.241-.32 0-.08-.08-.162-.08-.162h-.081l-.081.082h-.242c0-.082.081-.162.241-.242.081-.08.081-.16.081-.322 0-.16.081-.32.081-.32v-.322c.08-.162.161-.482.161-.645 0-.08.081-.08.081-.08v.322c0 .08.08.16.08.16.081 0 .081-.08.161-.16l.081-.242v-.16c0-.242-.081-.322-.242-.322h-.161s-.081-.08-.081-.16v-.322l-.08-.16v-.167l-.081.082-.081.08-.161.16-.161.08h-.081c-.08 0-.08 0-.08-.16s0-.242-.241-.482l-.081-.08v.08l-.081.16-.161.322v.16c0 .08 0 .08-.081.08l-.08-.08c-.161-.16-.161-.16-.402-.24v.08c-.081.08-.081.16-.081.16v.322c0 .08 0 .08-.081.08h-.08c0-.08-.081-.08-.081-.08-.241 0-.322.16-.322.322 0 .08.081.16.241.482l.161.16c.08 0 .08 0 .08-.08v-.16c0-.082-.08-.082-.08-.162l.08-.08c.081 0 .161.242.242.645v.32c0 .162.08.322.161.402.081.242.161.322.241.402.081.08.161.162.161.162 0 .08 0 .08-.081.08 0 0-.081 0-.161-.08h-.081c-.241 0-.322.08-.322.482 0 .4.322.965.644 1.205l.402.402c.241.162.482.482.482.725 0 .24-.322.562-.885.725l-.322.16c-.322.08-.402.24-.483.723.161 0 .161-.08.242-.08l.08.08h.161c.081 0 .241-.08.241-.24v-.08s0-.08.081-.08l.08-.082.161-.08h.08v.162c0 .08-.08.16-.08.32 0 .242.08.322.161.564 0-.082.08-.162.08-.162 0-.08.08-.16.161-.24.161-.242.241-.482.241-.645v-.24-.162h.08c.081 0 .081 0 .081.082l.081.08c.08 0 .161-.08.161-.162 0-.08.081-.16.081-.24 0 0 0-.08-.081-.08v-.162l.081-.08s.08 0 .08.08h.081c0 .08.081.08.081.08l.161-.16c.08-.08.08-.24.08-.24v-.082c-.241-.16-.402-.402-.402-.562 0 0 .081-.08.081-.16l.081-.242c.081-.16.081-.24.081-.24.081 0 .081 0 .081.08v.16c-.081 0-.081.08-.081.16 0 .082.081.082.161.082h.161c.241-.162.482-.242.644-.242.161 0 .241.08.402.16h.161v-.08s0-.08-.081-.08c-.08-.08-.08-.16-.08-.16 0-.08 0-.08.08-.08.161 0 .402.482.644 1.287.161.643.241.723.804 1.045.482.24.724.562.724.965 0 .482-.161 1.045-.402 1.85-.081.242-.161.402-.161.482 0 .162.081.242.161.482 0 .162 0 .242.081.242.003 0 .003.08.003.16z" fill="#fadf3c"/><path d="M16.146 108.242c0-.08.08-.16.161-.322.161-.24.241-.32.241-.482v-.16c0-.162 0-.242.081-.242 0 0 0 .08.081.08v.082h.08s.081 0 .081-.082c.081-.08.161-.24.161-.32v-.242c0-.08 0-.08.081-.08l.08.08c0 .08 0 .08.08.08l.081-.08.08-.08v-.08l.08-.08-.08-.082c-.241-.16-.321-.32-.321-.723v-.562s-.081-.162-.242-.402c0-.08-.081-.242-.081-.322 0-.16-.08-.16-.161-.16-.241 0-.482.24-.482.562 0 .16.08.482.241.805.161.482.241.643.241.803 0 .402-.161.564-.644.725-.563.16-.804.482-.965 1.047.081-.082.081-.082.161-.082h.08l.161-.08c.161 0 .241-.08.322-.16v-.162s0-.08.081-.08h.08l.081-.08v.402c-.002.239-.002.319.16.479zM10.756 99.072v.562c0 .162 0 .322.08.484v.402l-.08-.082c-.161-.08-.241-.16-.402-.16h-.161l.081.16.08.322.241.322.241.16.081.08v.082h-.242s-.081 0-.081.08c0 0 .081.08.081.24l.161.322.161.16.161.082c.081.08.081.08.081.16v.08h-.161v.08c0 .08.081.162.161.402.161.162.241.242.482.242h.081c.081 0 .161 0 .161.08s0 .08-.08.08c-.161.08-.241.08-.241.16l.08.082.081.08c.081.16.161.16.161.16.081 0 .161 0 .161-.08.081-.08.241-.16.322-.242.402-.08.402-.08.402-.16v-.08c-.081-.242-.161-.402-.161-.562 0-.082 0-.162-.081-.162l-.08.08c-.081.082-.242.162-.322.162-.322 0-.805-.482-.965-1.207-.081-.16-.081-.402-.081-.562s0-.402.081-.562c.08-.322.08-.484.08-.564v-.08c-.001-.24-.242-.561-.564-.803z" fill="#fadf3c"/><path d="M11.48 100.439a1.894 1.894 0 0 0-.161.645c0 .08.081.24.081.24.081 0 .081-.08.081-.08l.081-.24c.081 0 .081 0 .081-.08.08-.082.08-.082.08-.162s-.082-.241-.243-.323zM12.606 104.945l.081.08c.241.24.241.24.322.24s.322 0 .402-.08l.08-.08s-.08-.08-.161-.08l-.081-.162c-.08 0-.161-.08-.241-.08-.16 0-.241 0-.402.162zM14.858 106.715c.161.08.161.08.242.16.081 0 .161.08.161.08h.241l.242-.08.161-.08c.081 0 .161-.08.161-.08s-.081 0-.161-.082h-.161c-.242-.16-.242-.16-.322-.16a.728.728 0 0 0-.564.242zM17.432 108.725c.08-.16.08-.16.322-.16.241 0 .482-.482.482-.805v-.08l-.081.08c-.08 0-.08.08-.161.08l-.241.08c-.242.162-.402.402-.402.564.001.08.001.161.081.241zM35.61 106.393l.08-.162v-.08c0-.08.081-.16.081-.24.161-.08.161-.242.161-.482v-.162l-.081-.08s0-.08.081-.08c0 0 .08 0 .08.08.081 0 .081.08.161.08 0 0 .081-.08.081-.24v-.08c0-.082 0-.162-.081-.242v-.16s0-.08.081-.08c0 0 .08.08.08.16h.081c.081 0 .161-.08.161-.242 0-.08.08-.08.08-.16h-.241c-.161 0-.402-.16-.563-.242l-.241-.402c-.161-.08-.242-.32-.242-.32l-.241-.162c-.08 0-.08 0-.08-.08h.08c.081 0 .241 0 .563.162.242.08.724.24.965.24a.893.893 0 0 0 .885-.885c0-.24-.08-.482-.402-.805 0-.08-.16-.16-.16-.16-.081 0-.081.08-.081.08s0 .08.081.08v.162h-.081c-.08 0-.08-.08-.161-.242-.081-.24-.161-.402-.482-.482l-.322-.16s-.081 0-.081.08l.081.08c0 .08.08.16.08.242h-.08c-.081 0-.081 0-.242-.242 0-.08-.241-.24-.402-.322h-.241v.082l.08.08-.08.08c-.081 0-.241-.16-.402-.322-.161-.24-.241-.402-.241-.643 0-.322.321-.725.804-.725.081 0 .161.08.241.08l.322.16.402.322c.241.08.563.242.805.242 0 0 .08 0 .241-.08.16 0 .16-.082.16-.082l-.241-.08c-.08 0-.402-.08-.643-.24l-.402-.322-.402-.16c-.08 0-.08 0-.08-.082h.161l.402.082c.081.08.241.16.402.24.482.242.724.322.965.322.161 0 .322-.162.322-.402v-.242c0-.08 0-.08-.081-.16-.08 0-.08 0-.08.08v.08c0 .242-.081.242-.241.242-.161 0-.402 0-.885-.242-.483-.16-.805-.24-1.126-.24-.724 0-1.367.643-1.367 1.287 0 .643.402 1.045 1.207 1.447l.885.322c.644.322.885.482.885.805 0 .16-.161.32-.482.32-.161 0-.322 0-.644-.16-.805-.242-1.368-.322-1.77-.322-.724 0-1.287.162-1.689.645-.08.08-.08.08-.161.08 0 0-.081 0-.161-.08-.08 0-.161-.08-.161-.08-.081 0-.241.08-.241.16l-.161.16h-.08c-.081 0-.161-.08-.241-.24-.081-.08-.081-.162-.161-.242v-.482l.08-.16v-.242h.081s.08.08.08.162v.08c0 .32.081.562.241.562.081 0 .161-.16.241-.482 0-.08 0-.16.081-.16 0 0 0 .08.081.24 0 .08.081.242.161.322l.081.08c.081 0 .161-.16.161-.402 0-.16.08-.24.08-.24.081 0 .081 0 .081.08l.081.08.081.08c.08.08.08.08.161.08l.081-.08.081-.08s-.081 0-.081-.08c-.081-.08-.161-.162-.161-.322-.08-.08-.08-.16-.161-.24v-.082h-.081s-.081.082-.241.082h-.081c0-.082 0-.082.081-.162.241-.16.402-.562.402-1.045.08-.242.08-.402.241-.564l.081-.08V100.444l.08-.08.161-.08c.08-.08.161-.322.161-.402 0-.16-.081-.16-.081-.242l-.161-.16h-.081l-.08.08c-.081 0-.081-.08-.081-.08v-.24l-.081-.242v-.08l-.081-.08h-.08l-.081.08-.161.16-.161.162h-.081v-.082-.24a.87.87 0 0 0-.241-.562c-.241.24-.322.402-.322.643v.16h-.081-.08l-.081-.16-.161-.16s-.081 0-.081-.08l-.08.08c-.081.24-.081.32-.081.482 0 .16-.081.16-.081.16h-.08c-.161-.08-.161-.08-.241-.08-.161 0-.241.16-.241.322 0 .08 0 .16.08.32.081.162.241.322.322.322v-.402-.08c.081 0 .161.322.241.805s.161.805.402.965c.081.08.081.08.081.162h-.081l-.081-.082h-.161c-.08 0-.161.082-.161.242l-.161.562v.805c-.081.16 0 .322 0 .562.08.242.08.402.08.482 0 .645-.321 1.127-.965 1.287l-.644.162c-.402.16-.563.4-.644.885.081-.082.161-.082.322-.162h.161c.081 0 .161 0 .161-.08 0 0 .081 0 .081-.08l.161-.162.161-.16c.08 0 .08.08.08.08 0 .08 0 .08-.08.162 0 .08-.081.16-.081.24 0 .162.081.242.161.402 0-.08.081-.08.081-.08 0-.08.081-.16.161-.242.081-.16.241-.32.241-.402v-.24c.081 0 .081 0 .081.08v.08h.161c.081-.08.161-.08.161-.16.081 0 .081-.08.081-.16.081-.082.081-.162.081-.162v-.24c.08 0 .08.08.161.16h.161c.081-.16.161-.322.161-.402v-.16l-.08-.162c0-.08.08-.08.08-.08.081 0 .081.08.161.242l.08.08c.081 0 .081-.08.161-.16l.161-.162v-.08-.08l-.081-.16c-.08 0-.08-.082-.08-.082 0-.16.08-.32.161-.482.081-.16.161-.24.161-.24v-.082c.08 0 .08.082.08.082v.24c0 .08 0 .08.081.08h.081l.241-.16c.081 0 .161 0 .241-.08.402-.242.483-.242.724-.242.08 0 .241 0 .482.162h.081s.081 0 .081-.082v-.16c0-.08-.081-.16-.081-.16s0-.08.081-.08c0 0 0 .08.08.08 0 .08.081.16.241.402.161.32.402.562.644.643l.402.08c.161 0 .161.082.161.242 0 .322-.161.562-.402.725l-.322.24c-.161.08-.242.322-.242.482s0 .402.081.562v-.08l.241-.08.08-.16.081-.242.081-.16c.08-.162.08-.162.161-.162v.162c-.003.152.078.232.158.475z" fill="#fadf3c"/><path d="M29.739 109.369c.08-.082.08-.082.482-.162.241-.08.402-.16.402-.482.08-.16.08-.24.241-.32.08 0 .161-.082.161-.082 0-.08.081-.08.081-.08v.08s0 .082-.081.162v.16c0 .16 0 .322.081.402.08-.08.161-.16.241-.242.241-.16.322-.32.322-.643 0-.16.081-.242.081-.242h.08l.081.162h.081s.081 0 .081-.08l.161-.082c.081-.08.081-.24.081-.402 0-.08.081-.16.081-.16s.08 0 .08.08l.081.162v.08c.081 0 .081 0 .081-.08.081 0 .161-.082.161-.082.081-.08.081-.16.081-.24v-.162c0-.08 0-.08.081-.08v-.08s.081 0 .081.08v.08l.08.082c.081 0 .161-.082.241-.162 0 0 0-.08.081-.08v-.16a1.297 1.297 0 0 1-.241-.725c0-.322.161-.562.483-1.125.241-.322.402-.564.402-.805 0-.08 0-.08-.081-.08 0 0-.08 0-.161.08-.08 0-.08 0-.08-.08l-.08-.082-.081-.08h-.08-.162c-.08 0-.161.08-.161.162v.08c0 .08-.081.24-.161.322l-.161.16c-.241.24-.402.562-.402.805 0 .08 0 .24.081.402.081.32.081.482.081.562 0 .482-.724 1.125-2.091 1.77-.644.402-.804.562-.804 1.045v.162h-.006zM29.095 98.912v.24c0 .082-.081.082-.081.162v.24c0 .162 0 .242.161.482 0 .082.081.242.081.322s0 .08-.081.08l-.08-.16c-.081-.08-.161-.08-.322-.08h-.161a.6.6 0 0 1 .081.322c.081.32.161.402.322.562.161.16.161.16.161.24 0 0 0 .082-.08.082v-.082h-.081c-.081 0-.081.162-.081.242s0 .16.081.242v.16l.161.08v.08c0 .08 0 .08-.08.08h-.081-.081v.162l.081.32s0 .082.081.162l.161.16c.081 0 .161.08.161.08s.08 0 .08.082l-.08.08-.081-.08h-.161c-.08 0-.08 0-.08.08v.16l.08.16c0 .162.081.242.161.242h.081c.08-.16.402-.242.563-.242.241 0 .402.082.482.082h.081c.081 0 .081 0 .081-.082v-.16l.08-.322v-.402l-.08.082c-.161.16-.322.24-.482.24-.402 0-.724-.562-.724-1.447 0-.402.08-.885.161-1.529.081-.08.081-.16.081-.24-.003-.319-.244-.642-.566-.882z" fill="#fadf3c"/><path d="M29.739 101.164l.08-.08.081-.08c.081-.08.161-.242.161-.322s0-.08-.08-.16c0-.082-.081-.162-.081-.162-.081 0-.081.08-.081.242l-.08.16v.402zM28.854 105.266c.081 0 .161 0 .242.162.161.16.241.16.402.16h.242l.08-.08h.081c0-.08-.081-.16-.161-.242-.081 0-.161-.08-.242-.08-.08-.08-.161-.08-.241-.08-.162-.001-.242-.001-.403.16zM30.221 108.162c.161-.08.241-.08.402-.242.241-.08.321-.16.321-.16.161-.08.241-.16.241-.16 0-.082-.08-.162-.241-.162-.402 0-.724.322-.724.645v.079h.001zM34.243 105.588h.483l.081-.08.161-.16c.161-.082.241-.082.241-.162s-.081-.08-.241-.08c-.323-.001-.564.16-.725.482z" fill="#fadf3c"/><path d="M13.813 81.538l-.081-.081v-.08c0-.081.081-.161.161-.161.161-.08.241-.161.322-.241l.161-.081v.081c0 .081-.08.322-.241.563-.08.241-.161.322-.161.322-.08 0-.16-.081-.16-.161v-.161h-.001zM13.25 81.136l.161.161s.08 0 .08.081h-.08v.241c0 .161-.081.161-.161.161s0 0-.08-.08l-.242-.242c-.08-.08-.161-.241-.161-.482 0-.081 0-.081.081-.081 0 0 .08 0 .08.081l.322.16zM13.813 82.182l.16-.081h.081c.161 0 .161.081.161.161 0 .161-.081.241-.322.804-.08.161-.08.322-.241.322s-.241-.161-.402-.402l-.08-.321c-.081-.242-.161-.322-.161-.483 0 0 .081-.081.161-.081h.161l.081.081h.401zM32.473 81.619l-.08-.161v-.08c0-.081 0-.161.161-.161.081-.08.241-.161.322-.241l.081-.081c.081 0 .081 0 .081.081s-.161.322-.242.563c-.161.161-.161.322-.241.322s-.081-.081-.081-.161v-.081h-.001zM31.83 81.136l.161.161c.081 0 .081 0 .081.081v.241l-.081.161s0 .081-.081.081l-.161-.161-.161-.242-.161-.321v-.161-.081c.081 0 .081 0 .161.081l.242.16zM32.473 82.182l.161-.081c.161 0 .241.081.241.242 0 .08-.081.161-.161.241l-.081.482c-.081.242-.241.322-.322.322-.161 0-.322-.161-.402-.402-.081-.161-.081-.241-.161-.321-.081-.161-.081-.322-.081-.402s.081-.161.161-.161h.081a.25.25 0 0 0 .161.081h.403v-.001zM12.928 99.797v-.162h.161c0 .082.081.082.081.082.321.08.402.08.402.24l-.081.162v.16c0 .08 0 .08-.08.08 0 0-.161-.08-.241-.16l-.081-.162-.161-.24zM14.215 100.037l-.161.242-.081.08c-.08 0-.08-.16-.08-.24v-.242c0-.08 0-.08.161-.08.08-.08.161-.08.161-.08l.161-.082h.081l-.081.162-.161.24zM13.893 100.762l.161-.08h.08c.081 0 .161 0 .161.16 0 .082-.081.242-.241.482-.081.242-.241.402-.322.402-.161 0-.321-.24-.562-.643 0-.08-.081-.16-.081-.242 0-.16.081-.24.161-.24.081 0 .081 0 .161.08h.08c.081.08.161.08.241.08l.161.001zM31.267 99.555l.161.08c.081.082.081.082.161.082.161.08.241.08.241.16 0 0 0 .08-.08.16v.082c0 .16-.081.16-.161.16s-.161-.08-.241-.242c-.08-.08-.08-.32-.161-.402v-.08h.08zM32.634 99.877l-.241.242c-.081.08-.081.24-.081.24h-.162s-.08 0-.08-.08v-.322c0-.08 0-.16.08-.16l.242-.08.161-.082h.161v.082l-.08.16zM31.588 100.602l.161.08h.402l.081-.08h.081c.081 0 .161.08.161.16 0 .162-.08.322-.241.482l-.161.242c-.081.16-.161.16-.161.16-.161 0-.241 0-.402-.402-.081-.24-.161-.402-.161-.482 0-.16.081-.24.161-.24-.001-.001.079-.001.079.08z"/><path d="M13.571 82.503h-.161v.322l.08.161c0 .161.081.161.161.161s.161 0 .161-.161v-.241-.161-.081h-.241zM32.232 82.503h-.161c0 .081-.081.081-.081.081l.081.241.08.161c0 .161 0 .161.081.161s.161 0 .161-.161l.08-.241v-.161-.081h-.241zM13.652 101.004h-.081c-.081 0-.081 0-.081.08s.081.322.161.402c0 .08.08.08.08.08.081 0 .081-.16.161-.322v-.16c0-.08 0-.08-.08-.08h-.16zM31.75 101.084v.24c0 .082.08.162.161.162s.161-.162.161-.322v-.16c0-.08 0-.08-.081-.08h-.161c-.08 0-.08 0-.08.16z" fill="#fadf3c"/><path d="M20.489 91.432h1.045c.161-.242.322-.322.563-.322s.402.08.563.322h.804c.161-.242.322-.322.563-.322s.482.161.563.322h.804c.161-.242.322-.322.563-.322.161 0 .402.08.483.241l.08.081h1.126v5.229h-.965v1.93h-1.207v-1.93H22.58v1.93h-1.126v-2.01h-.965v-5.149z"/><path fill="#cf4037" d="M20.891 96.258h6.354v-4.425h-6.354v4.425z"/><path d="M21.534 92.879c-.161 0-.241.161-.241.322s.081.241.241.241.322-.081.322-.241-.161-.322-.322-.322zM26.521 92.879c-.161 0-.241.161-.241.322s.081.241.241.241c.161 0 .322-.081.322-.241s-.161-.322-.322-.322zM21.534 95.212c-.161 0-.241.161-.241.322s.081.322.241.322.322-.161.322-.322a.346.346 0 0 0-.322-.322zM26.521 95.212c-.161 0-.241.161-.241.322s.081.322.241.322a.346.346 0 0 0 .322-.322.346.346 0 0 0-.322-.322z" fill="#fadf3c" stroke="#000" stroke-width=".081" stroke-miterlimit="2.613"/><path d="M22.5 94.327c.402.482.965.724 1.608.724.563 0 .965-.161 1.448-.724-.483-.483-.965-.724-1.528-.724s-1.126.241-1.528.724z" fill="#fadf3c"/><path d="M22.821 94.327c.402-.322.804-.483 1.207-.483.482 0 .804.161 1.207.483-.402.402-.724.482-1.207.482s-.885-.16-1.207-.482z"/><path d="M23.304 94.247c.241.161.482.161.724.161s.482 0 .724-.161c-.241-.161-.482-.241-.724-.241s-.483.08-.724.241z" fill="#fadf3c"/><path d="M20.81 92.316h6.516v-.241H20.81v.241z"/><path d="M21.775 91.833v.563c0 .161.161.321.322.321s.241-.08.241-.321v-.563c0-.241-.08-.402-.241-.402h-.081l-.08.08c-.081 0-.081.081-.081.081 0 .081-.081.081-.081.081v.16h.001zM23.787 92.316v.081c0 .161.08.321.241.321s.321-.08.321-.321v-.563c0-.241-.16-.402-.241-.402-.241 0-.321.161-.321.402v.482zM25.717 91.833v.563c0 .161.081.321.241.321.161 0 .242-.08.242-.321v-.563c0-.241-.081-.402-.242-.402h-.08l-.081.08c-.081 0-.081.081-.081.081v.241h.001zM21.695 97.867h.563v-.805h-.563v.805zM21.695 98.27h.563v-.243h-.563v.243zM25.717 97.867h.563v-.805h-.563v.805zM25.717 98.27h.563v-.243h-.563v.243z" fill="#fadf3c"/><path d="M48.882 80.814c0-1.287-.644-1.287-1.287-1.287h-.241v-.482c.724 0 1.689.081 2.735.081 1.045 0 1.85-.081 2.574-.081v.482h-.241c-.644 0-1.368 0-1.368 1.287v5.872c0 2.091.805 3.619 3.218 3.619 2.252 0 3.298-1.447 3.298-3.699v-5.792c0-1.287-.644-1.287-1.287-1.287h-.323v-.482c.724 0 1.368.081 2.091.081.644 0 1.287-.081 1.931-.081v.482h-.322c-.482 0-1.126 0-1.126 1.287v5.39c0 3.86-2.011 4.986-4.585 4.986-3.217 0-5.067-1.206-5.067-4.263v-6.113zM71.805 87.571V81.136c0-1.367-.965-1.609-1.447-1.609h-.402v-.482c.804 0 1.608.081 2.413.081.644 0 1.367-.081 2.091-.081v.482h-.241c-.724 0-1.528.161-1.528 2.172v7.721c0 .644 0 1.207.081 1.77h-.644l-8.768-9.812v6.998c0 1.528.322 2.011 1.608 2.011h.322v.482h-4.504v-.482h.242c1.126 0 1.528-.805 1.528-2.172v-7.159c0-.965-.805-1.528-1.609-1.528h-.161v-.482c.644 0 1.287.081 1.931.081.482 0 .965-.081 1.528-.081l7.56 8.525zM75.264 90.386h.241c.563 0 1.207-.081 1.207-.966v-8.928c0-.885-.644-.965-1.207-.965h-.241v-.482c.644 0 1.689.081 2.493.081.885 0 1.851-.081 2.654-.081v.482h-.241c-.562 0-1.207.081-1.207.965v8.928c0 .885.644.966 1.207.966h.241v.482h-5.147v-.482zM86.123 79.527h-.402c-.563 0-.885.242-.885.483 0 .08.081.321.161.562l2.896 7.561h.081l2.735-7.078c.161-.563.161-.804.161-.965 0-.482-.482-.563-1.045-.563h-.322v-.482c.643 0 1.287.081 2.011.081.482 0 1.046-.081 1.528-.081v.482h-.161c-.322 0-.644.081-.885.643-.161.242-2.654 6.516-3.78 9.331-.161.562-.482 1.126-.644 1.688h-.643l-4.344-10.697c-.322-.805-.644-.965-1.367-.965h-.241v-.482c.885 0 1.77.081 2.654.081.804 0 2.011-.081 2.493-.081v.482h-.001zM93.683 90.386h.242c.644 0 1.287-.081 1.287-.966v-8.928c0-.885-.644-.965-1.287-.965h-.242v-.482c1.046 0 2.815.081 4.264.081 1.447 0 3.217-.081 4.342-.081v2.574l-.482.161c-.08-1.126-.24-2.01-2.09-2.01h-2.334v4.504h2.012c1.045 0 1.287-.644 1.367-1.528h.482c0 .644-.08 1.287-.08 2.011 0 .644.08 1.287.08 1.931l-.482.08c-.08-1.045-.16-1.689-1.367-1.689h-2.012v3.941c0 1.126.967 1.126 2.092 1.126 2.012 0 2.896-.161 3.459-2.092l.482.161c-.242.885-.482 1.77-.643 2.654h-9.09v-.483zM105.748 80.814c0-1.206-.643-1.287-1.205-1.287h-.322v-.482c.562 0 1.607.081 2.654.081 1.045 0 1.85-.081 2.734-.081 2.172 0 4.021.563 4.021 2.976 0 1.528-.965 2.493-2.332 2.976l2.895 4.344c.484.724.805.965 1.689 1.046v.482H112.586c-1.287-1.689-2.414-3.539-3.539-5.47h-1.127v3.62c0 1.287.645 1.368 1.447 1.368h.242v.482h-5.388v-.482h.322c.643 0 1.205-.241 1.205-.885v-8.688zm2.172 3.941h.885c1.689 0 2.574-.644 2.574-2.654 0-1.448-.965-2.493-2.494-2.493-.482 0-.723.08-.965.08v5.067zM122.801 81.538c-.16-1.126-.885-2.171-2.012-2.171-1.367 0-2.09.804-2.09 2.171 0 2.815 5.066 1.93 5.066 6.033 0 2.333-1.93 3.619-4.102 3.619-.965 0-1.85-.402-2.734-.804-.082-.885-.162-1.689-.242-2.574l.482-.081c.162 1.448.965 2.655 2.654 2.655 1.127 0 2.092-.724 2.092-1.931 0-2.976-5.068-2.091-5.068-6.193 0-2.172 1.609-3.458 3.781-3.458.482 0 1.93.161 2.494.241 0 .804 0 1.608.16 2.413l-.481.08zM125.455 90.386h.24c.564 0 1.207-.081 1.207-.966v-8.928c0-.885-.643-.965-1.207-.965h-.24v-.482c.643 0 1.689.081 2.494.081.885 0 1.85-.081 2.654-.081v.482h-.242c-.562 0-1.207.081-1.207.965v8.928c0 .885.645.966 1.207.966h.242v.482h-5.148v-.482zM133.258 79.849c-1.287 0-1.367.321-1.609 1.608h-.482c.08-.482.16-.965.16-1.447.08-.483.162-.965.162-1.448h.402c.16.483.562.483 1.045.483h8.768c.402 0 .885 0 .885-.563l.402.08c-.082.483-.162.965-.162 1.367-.08.483-.08.965-.08 1.368l-.482.241c0-.644-.08-1.689-1.287-1.689h-2.734v9.089c0 1.287.562 1.448 1.367 1.448h.322v.482h-5.63v-.482h.322c.965 0 1.447-.081 1.447-1.448v-9.089h-2.816zM148.619 85.399l-3.457-4.665c-.482-.724-.805-1.207-1.609-1.207h-.16v-.482c.885 0 1.77.081 2.652.081.887 0 1.689-.081 2.494-.081v.482h-.16c-.482 0-.885.161-.885.402 0 .161.16.402.24.563l2.574 3.619 2.172-3.056c.242-.483.482-.804.482-1.126 0-.321-.723-.402-.965-.402h-.322v-.482c.645 0 1.287.081 1.932.081.562 0 1.125-.081 1.689-.081v.482c-.645 0-1.127.402-1.369.804l-3.137 4.504v4.022c0 1.447.482 1.528 1.367 1.528h.322v.482h-5.63v-.482h.322c1.047 0 1.447-.241 1.447-1.368v-3.618h.001zM167.924 78.804c3.619 0 6.516 2.252 6.516 5.872 0 3.861-2.734 6.515-6.436 6.515-3.539 0-6.354-2.493-6.354-6.113 0-3.54 2.735-6.274 6.274-6.274zm.322 11.582c3.297 0 3.861-2.896 3.861-5.39 0-2.493-1.369-5.469-4.184-5.469-2.977 0-3.861 2.654-3.861 4.906 0 3.057 1.368 5.953 4.184 5.953zM179.266 84.273h2.332c.885 0 1.127-.563 1.127-1.448h.482c0 .643-.082 1.207-.082 1.85 0 .724.082 1.367.082 2.091h-.482c0-.965-.242-1.689-1.367-1.689h-2.092v4.343c0 .966.805.966 1.607.966h.242v.482h-5.55v-.482h.242c.643 0 1.287-.081 1.287-.966v-8.928c0-.885-.645-.965-1.287-.965h-.242v-.482c1.047 0 2.816.081 4.264.081s3.217-.081 4.344-.081v2.574l-.482.161c-.08-1.207-.402-2.01-1.689-2.01h-2.734v4.503h-.002zM61.108 102.049c-.563-2.092-1.528-3.861-4.746-3.861-3.539 0-5.389 2.816-5.389 6.596 0 3.539 1.77 7.16 5.872 7.16 2.252 0 3.781-1.449 4.343-3.539l.644.08c-.322 1.125-.482 2.332-.563 3.459-1.207.562-2.896.965-4.906.965-4.826 0-8.446-2.654-8.446-8.045 0-4.826 3.941-7.561 8.365-7.561 2.494 0 3.298.725 5.309 1.047 0 1.205 0 2.412.161 3.619l-.644.08zM66.336 109.529c-.241.725-.482 1.287-.482 1.689 0 .643.884.725 1.609.725h.241v.643c-.885-.08-1.77-.08-2.574-.08s-1.528 0-2.333.08v-.643h.161c.804 0 1.528-.484 1.85-1.369l3.378-9.893c.322-.805.724-1.85.804-2.654.724-.242 1.528-.645 2.011-.885 0-.08.081-.08.161-.08 0 0 .081 0 .161.08 0 .16.081.322.161.562l3.941 11.182c.242.723.483 1.527.805 2.17.241.645.724.887 1.367.887h.161v.643c-.965-.08-1.93-.08-2.976-.08s-2.091 0-3.218.08v-.643h.241c.483 0 1.368-.082 1.368-.645 0-.242-.241-.805-.482-1.529l-.805-2.492h-4.907l-.643 2.252zm3.137-9.492h-.081l-1.93 6.033h3.941l-1.93-6.033zM89.179 108.805l5.067-11.18c.644 0 1.448.08 2.172.08s1.529-.08 2.251-.08v.645h-.16c-.645 0-1.931 0-2.011.965 0 .562.081 1.205.161 1.689l.805 9.812c.08 1.045.562 1.125 1.85 1.207v.643c-.965-.08-2.012-.08-3.057-.08-1.207 0-2.333 0-3.539.08v-.643c1.126-.082 1.85-.082 1.85-1.047v-1.045l-.644-9.01-5.47 12.066h-.563l-5.147-11.824h-.081l-.724 9.41c0 .645.161 1.047.483 1.207s.724.242 1.368.242h.241v.643c-.965-.08-1.93-.08-2.896-.08-.884 0-1.689 0-2.574.08v-.643h.322c1.689-.082 1.769-.805 1.93-2.334l.644-5.951c.161-1.529.241-2.977.241-3.781 0-1.207-.885-1.607-1.85-1.607h-.241v-.645c.885 0 1.688.08 2.574.08.643 0 1.287-.08 1.93-.08l5.068 11.181zM100.682 111.943h.322c.723 0 1.607-.082 1.607-1.207V99.475c0-1.125-.885-1.205-1.607-1.205h-.322v-.645c.965 0 2.172.08 3.377.08 1.207 0 2.414-.08 3.379-.08 3.619 0 4.986 1.447 4.986 3.379 0 2.172-2.01 3.137-3.939 3.459 2.332 0 4.824 1.285 4.824 3.859 0 2.334-2.252 4.264-5.066 4.264-1.045 0-2.414-.08-3.781-.08-1.287 0-2.814.08-3.779.08v-.643h-.001zm4.664-1.931c0 1.447.242 1.77 1.932 1.77 1.77 0 3.137-1.447 3.137-3.377 0-2.334-1.609-3.459-3.701-3.459h-1.367v5.066h-.001zm0-5.871h1.047c1.77 0 3.137-.725 3.137-2.734 0-2.494-1.447-3.057-2.896-3.057h-1.287v5.791h-.001zM116.848 99.877c0-1.527-.885-1.607-1.527-1.607h-.402v-.645c.725 0 2.012.08 3.299.08 1.285 0 2.332-.08 3.457-.08 2.736 0 5.148.725 5.148 3.781 0 1.93-1.287 3.057-2.977 3.779l3.619 5.471c.645.885 1.047 1.125 2.092 1.287v.643c-.723 0-1.367-.08-2.092-.08-.643 0-1.367.08-2.01.08-1.689-2.172-3.057-4.504-4.424-6.998h-1.447v4.666c0 1.607.803 1.689 1.77 1.689h.402v.643c-1.287 0-2.494-.08-3.701-.08-1.045 0-2.092.08-3.137.08v-.643h.402c.805 0 1.527-.402 1.527-1.127V99.877h.001zm2.736 4.986h1.045c2.172 0 3.297-.803 3.297-3.377 0-1.852-1.205-3.137-3.137-3.137-.643 0-.885.08-1.205.08v6.434zM130.441 111.943h.322c.725 0 1.527-.082 1.527-1.207V99.475c0-1.125-.803-1.205-1.527-1.205h-.322v-.645c.805 0 2.092.08 3.137.08 1.127 0 2.414-.08 3.379-.08v.645h-.242c-.803 0-1.607.08-1.607 1.205v11.262c0 1.125.805 1.207 1.607 1.207h.242v.643c-1.045 0-2.332-.08-3.379-.08-1.045 0-2.332.08-3.137.08v-.644zM138.484 111.943h.322c.805 0 1.609-.082 1.609-1.207V99.475c0-1.125-.805-1.205-1.609-1.205h-.322v-.645c.645 0 2.092.08 3.459.08s2.574-.08 3.459-.08c5.309 0 8.525 2.977 8.525 7.4 0 4.344-3.619 7.801-7.963 7.561-.965-.08-2.412-.08-3.941-.08-1.447 0-2.975.08-3.539.08v-.643zm4.666-1.851c0 1.529.643 1.689 2.252 1.689 3.619 0 5.551-3.057 5.551-6.354 0-5.631-2.896-7.078-6.355-7.078-.482 0-.965.08-1.447.16v11.583h-.001zM169.371 101.809c-.643-2.656-2.492-3.621-4.986-3.621-3.861 0-5.711 2.896-5.711 6.436s1.689 7.32 5.791 7.32c.965 0 2.092-.162 2.334-.402v-3.459c0-.885-.805-1.127-1.609-1.127h-.242v-.643c1.047.08 2.092.08 3.219.08.965 0 1.85 0 2.814-.08v.643h-.242c-.803 0-1.205.322-1.205 1.127v3.217l.562.322v.322c-1.93.562-3.781.965-6.033.965-4.826 0-8.445-2.896-8.445-8.045 0-4.986 4.264-7.561 8.607-7.561 1.367 0 2.252.162 3.057.402.885.162 1.607.322 2.492.402 0 .725 0 2.414.242 3.619l-.645.083zM172.107 111.943h.24c.805 0 1.609-.082 1.609-1.207V99.475c0-1.125-.805-1.205-1.609-1.205h-.24v-.645c1.285 0 3.539.08 5.309.08s4.021-.08 5.469-.08c0 .885 0 2.332.08 3.299l-.643.16c-.162-1.449-.402-2.574-2.654-2.574h-2.977v5.631h2.574c1.287 0 1.527-.725 1.689-1.85h.643c-.08.803-.08 1.688-.08 2.492s0 1.609.08 2.494l-.643.08c-.162-1.287-.162-2.092-1.689-2.092h-2.574v4.988c0 1.367 1.287 1.367 2.654 1.367 2.574 0 3.699-.162 4.344-2.574l.562.16c-.24 1.127-.482 2.252-.725 3.379-1.367 0-3.779-.08-5.709-.08-1.932 0-4.506.08-5.711.08v-.642h.001z"/></g></svg>