<svg xmlns="http://www.w3.org/2000/svg" width="2500" height="2500" viewBox="0 0 192.756 192.756"><g fill-rule="evenodd" clip-rule="evenodd"><path fill="#fff" d="M0 0h192.756v192.756H0V0z"/><path d="M148.346 66.976l-14.48 39.215c-5.812-2.537-10.041-5.039-11.768-11.593l-10.957-41.363c-.846-3.171-2.678-5.672-5.531-7.258h8.455c5.109 0 7.4 2.254 8.527 7.152l8.279 36.114h.281l13.635-39.108c.705-2.008 2.186-3.241 4.334-3.241 2.115 0 3.312 1.374 3.982 3.241l13.986 39.108h.213l7.188-36.29c1.057-5.215 3.91-6.976 9.09-6.976h6.342c-2.537 1.515-4.229 3.523-4.934 6.447l-10.182 42.174c-1.305 5.497-5.637 8.456-10.43 10.853l-1.232.633-14.798-39.108zM58.08 46.083c-2.326 1.761-3.665 3.805-3.876 6.765L52.02 85.474c-.775 11.38-10.323 19.907-21.633 19.907-11.346 0-20.717-8.527-21.457-19.907L6.71 52.848c-.211-2.96-1.586-4.968-3.876-6.765 1.515-.071 2.995-.177 4.51-.177 7.575 0 10.429 2.361 10.922 9.971l1.797 28.116c.387 5.849 4.263 11.099 10.569 11.099 6.236 0 10.183-5.25 10.57-11.099L43 55.878c.493-7.223 2.889-9.971 10.323-9.971 1.444 0 2.924.071 4.369.141l.388.035zM76.577 77.898c6.166-1.973 14.657-6.588 14.657-13.917 0-6.307-6.659-8.984-12.049-8.984-.74 0-1.515.035-2.255.07l-1.233.106v42.385c0 5.918-6.659 7.188-11.275 8.633V53.905c0-3.171-1.339-5.743-3.77-7.716l.775-.035 5.637-.106c2.079-.035 4.157-.07 6.236-.07 7.681 0 15.961.07 22.796 4.016 4.439 2.572 7.363 7.681 7.363 12.79 0 7.469-5.637 11.943-11.979 14.516v.141c2.008 1.268 3.735 2.818 5.391 4.51l5.531 5.743c3.77 3.841 9.549 9.584 15.291 9.584.67 0 1.375-.035 2.043-.107l.494-.07-.635.74c-2.678 3.102-6.518 7.998-11.098 7.998-4.932 0-14.762-11.274-17.898-14.727-4.298-4.758-8.525-9.726-14.022-13.214zM16.681 127.119h-2.889c-.141-1.902-1.55-3.102-3.453-3.102-1.409 0-3.101.846-3.101 2.467 0 1.338 1.304 1.938 2.396 2.396l1.938.846c2.818 1.197 5.672 2.465 5.672 5.953 0 3.734-3.17 5.744-6.588 5.744-4.122 0-6.87-2.502-7.046-6.59h2.889c.176 2.361 1.726 3.982 4.157 3.982 1.585 0 3.523-.775 3.523-2.643 0-4.264-9.971-3.172-9.971-9.408 0-3.416 3.101-5.355 6.236-5.355 3.489.001 6.097 2.222 6.237 5.71zM19.183 134.201c0-3.734 2.466-7.258 6.448-7.258s6.413 3.523 6.413 7.258c0 3.77-2.466 7.223-6.413 7.223-3.982 0-6.448-3.453-6.448-7.223zM37.962 127.33h3.347v2.254h-3.312v11.486h-2.889v-11.486h-1.867v-2.254h1.867v-.881c0-2.643.811-5.18 3.946-5.18.951 0 1.832.213 2.713.529v2.432c-.705-.283-1.445-.494-2.185-.494-1.621 0-1.621 1.762-1.621 2.959v.635h.001zM46.911 127.33h3.03l-.07 2.254h-2.995l-.105 6.061c0 .354-.035.67-.035.986 0 1.094.105 2.221 1.444 2.221.74 0 1.41-.176 2.079-.459l-.07 2.396c-.881.387-1.868.564-2.854.564-2.501 0-3.523-1.691-3.523-3.982 0-.211 0-.457.035-.705v-1.021l.211-6.061h-2.114l.035-2.254h2.149l.106-3.945h2.748l-.071 3.945zM51.068 127.33h2.89l2.748 10.252 3.03-10.252h2.36l2.995 10.252 2.784-10.252h2.854l-4.053 13.846h-2.959l-2.854-9.406-2.818 9.406h-2.96l-4.017-13.846zM74.886 131.205h-2.749c.353-2.994 2.889-4.191 5.637-4.191 3.876 0 4.968 1.902 4.968 5.391v5.355c0 1.092-.035 2.254.423 3.311h-2.643a9.273 9.273 0 0 1-.246-1.691c-.775 1.445-2.361 2.01-3.911 2.01-2.396 0-4.686-1.305-4.686-3.912 0-4.086 4.721-4.686 7.822-5.25l.458-.105v-.387c0-1.586-.775-2.396-2.396-2.396-1.303-.002-2.431.527-2.677 1.865zM85.808 127.33h2.713c.141.705.211 1.41.211 2.113v.775c.705-1.549 1.832-3.205 3.735-3.205.458 0 .916.141 1.374.281v2.889c-.634-.387-1.304-.635-2.043-.635-2.607 0-2.959 3.312-2.959 5.25v6.271h-2.854V129.16c-.036-.598-.071-1.23-.177-1.83zM106.596 134.834H97.19c.105 2.186 1.162 4.264 3.629 4.264 1.303 0 2.359-.635 2.924-1.797l2.537.176c-.705 2.537-2.926 3.947-5.533 3.947-3.98 0-6.412-3.207-6.412-7.047 0-3.805 2.185-7.434 6.271-7.434 4.439 0 5.99 4.086 5.99 7.891zM125.902 131.77h2.291c0 .281.035.6.035.881 0 1.797-.352 3.629-1.445 5.074l2.502 3.346h-3.064l-1.057-1.549c-1.27 1.268-2.855 1.797-4.617 1.797-3.205 0-6.129-2.01-6.129-5.426 0-2.502 1.832-4.193 3.664-5.674l-.354-.457c-.846-1.129-1.727-2.291-1.727-3.771 0-2.465 2.186-3.945 4.475-3.945 2.291 0 4.193 1.48 4.193 3.875 0 2.045-1.41 3.594-2.959 4.793l3.594 4.896c.492-.986.598-2.078.598-3.17v-.67zM133.408 121.764h13.106v2.572h-5.073v16.734h-2.961v-16.734h-5.072v-2.572z"/><path d="M144.471 127.33h3.029l3.383 10.922 3.488-10.922h2.959l-4.58 13.072-.598 1.654c-1.059 3.031-3.102 4.793-6.342 4.793h-.986v-2.502c2.289.035 3.699-.6 4.473-2.889l-4.826-14.128zM158.74 146.779v-15.221c0-1.41.035-2.854-.281-4.229h2.713c.176.564.246 1.197.246 1.797.846-1.34 2.184-2.113 3.805-2.113 3.807 0 5.639 3.699 5.639 7.117 0 3.311-1.727 7.258-5.498 7.258-1.619 0-2.854-.775-3.805-2.01v7.4h-2.819v.001zM184.531 134.834h-9.373c.105 2.186 1.164 4.264 3.629 4.264 1.305 0 2.326-.635 2.926-1.797l2.535.176c-.668 2.537-2.994 3.947-5.531 3.947-4.016 0-6.412-3.242-6.412-7.047s2.186-7.434 6.271-7.434c4.053 0 5.99 3.629 5.99 7.258 0 .211-.035.422-.035.633z"/><path d="M22.107 134.201c0 2.113.952 4.896 3.488 4.896 2.572 0 3.523-2.748 3.523-4.896 0-2.115-.952-4.934-3.523-4.934-2.536.001-3.488 2.819-3.488 4.934zM79.959 134.096c-1.691.246-5.391.598-5.391 3.029 0 1.303 1.163 2.008 2.396 2.008 2.361 0 2.995-1.973 2.995-3.98v-1.057zM103.672 132.686c-.178-1.762-1.092-3.453-3.066-3.453-2.043 0-2.994 1.691-3.346 3.453h6.412zM120.195 128.951c.986-.811 2.043-1.797 2.043-3.172 0-.951-.809-1.549-1.727-1.549-.986 0-1.867.633-1.867 1.654.001 1.2.881 2.151 1.551 3.067zM119.666 132.334c-1.197.916-2.57 2.078-2.57 3.734 0 1.902 1.762 2.924 3.488 2.924 1.197 0 2.289-.459 3.1-1.34l-4.018-5.318zM164.871 138.957c2.396 0 3.1-2.748 3.1-4.721 0-2.01-.703-4.793-3.17-4.793s-3.277 2.748-3.277 4.793c-.001 2.043.845 4.721 3.347 4.721zM181.643 132.686c-.213-1.762-1.094-3.453-3.102-3.453-1.973 0-2.994 1.691-3.312 3.453h6.414z" fill="#fff"/></g></svg>