<svg xmlns="http://www.w3.org/2000/svg" width="2500" height="2157" viewBox="-0.001 0.001 1158.763 999.998"><title>Layer 1</title><path d="M1158.195 231.332c-5.193 112.53-83.965 266.609-236.312 462.239C764.34 897.856 631.034 999.999 521.967 999.999c-67.519 0-124.648-62.324-171.393-186.973l-93.486-342.784c-34.625-124.648-71.847-186.973-111.665-186.973-8.656 0-38.953 18.178-90.891 54.534L-.001 267.688a14811.618 14811.618 0 0 0 168.795-150.617C244.968 51.284 302.099 16.66 340.186 13.197 430.21 4.541 485.609 66 506.384 197.573c22.506 141.961 38.087 230.254 46.742 264.879 25.969 117.724 54.534 176.586 85.696 176.586 24.237 0 60.594-38.087 109.068-114.261 48.475-76.175 74.443-134.171 77.905-173.989 6.925-65.787-19.043-98.68-77.905-98.68-27.7 0-56.266 6.06-85.696 18.178C719.325 85.044 828.393-4.98 989.398.214c119.455 3.463 175.721 80.503 168.795 231.12l.002-.002z"/></svg>