<svg width="75" height="46" viewBox="0 0 75 46" fill="none" xmlns="http://www.w3.org/2000/svg">
<path fill-rule="evenodd" clip-rule="evenodd" d="M6.77189 36.7988L4.75058 42.5904L2.68293 36.7988H0.13232L3.28493 45.2676H6.08521L9.2558 36.7988H6.77189ZM22.203 41.0436C22.203 40.5909 22.339 40.1484 22.5938 39.772C22.8486 39.3956 23.2108 39.1022 23.6346 38.929C24.0583 38.7558 24.5246 38.7105 24.9744 38.7988C25.4243 38.8872 25.8375 39.1052 26.1618 39.4253C26.486 39.7455 26.7069 40.1533 26.7963 40.5973C26.8857 41.0414 26.8397 41.5016 26.6642 41.9198C26.4886 42.338 26.1913 42.6954 25.8099 42.9469C25.4285 43.1983 24.9801 43.3325 24.5215 43.3324C23.9066 43.3321 23.317 43.0909 22.8823 42.6617C22.4475 42.2325 22.2032 41.6505 22.203 41.0436ZM26.7429 33.3457V37.5034C26.7381 37.501 26.7349 37.4979 26.7313 37.4951C26.0267 36.9814 25.165 36.6612 24.2323 36.6612C21.8606 36.6612 19.938 38.6164 19.938 41.029C19.938 43.4409 21.8602 45.3961 24.2323 45.3961C25.1702 45.3961 26.0375 45.0905 26.7429 44.572V45.279H28.948V33.3457H26.7429ZM32.6914 41.0436C32.7027 40.4441 32.9519 39.8728 33.3855 39.4527C33.8191 39.0327 34.4024 38.7973 35.0099 38.7973C35.6175 38.7973 36.2008 39.0327 36.6344 39.4527C37.068 39.8728 37.3172 40.4441 37.3285 41.0436C37.3284 41.6507 37.084 42.2329 36.649 42.6621C36.2141 43.0913 35.6242 43.3324 35.0091 43.3324C34.3944 43.332 33.8049 43.0907 33.3703 42.6615C32.9357 42.2323 32.6915 41.6504 32.6914 41.0436ZM37.2306 36.8079V37.5034L37.219 37.4951C36.5159 36.9814 35.6523 36.6612 34.7199 36.6612C32.3483 36.6612 30.4256 38.6164 30.4256 41.029C30.4256 43.4409 32.3479 45.3961 34.7199 45.3961C35.6579 45.3961 36.5243 45.0905 37.2306 44.572V45.279H39.4365V36.8083H37.2306V36.8079ZM45.4465 36.8079H44.1254C44.1254 36.8079 44.1206 36.5366 44.1206 36.2933C44.1206 35.7567 44.1206 35.075 44.9867 35.075C45.2092 35.075 45.4229 35.1121 45.4229 35.1121V33.1422C45.4229 33.1422 45.061 33.1324 44.8145 33.1422C42.7868 33.2199 41.894 33.9032 41.894 35.9038V36.8079H40.9069V38.76H41.894V45.2656H44.1254V38.76H45.4465V36.8079ZM58.7943 37.546C59.4207 36.9829 60.3351 36.632 61.3166 36.632C63.3383 36.632 64.4959 37.9028 64.5015 39.5808L64.5023 40.5295V45.268H62.2265V40.3248C62.2265 39.0805 61.3481 38.7016 60.6534 38.7016C60.0135 38.7016 58.7903 39.0497 58.859 40.5689V45.268H56.5793V36.8079H58.7943V37.546ZM68.3496 41.7005C68.4579 42.7639 69.3591 43.5394 70.4632 43.5394C71.334 43.5394 71.9113 43.1999 72.2536 42.5829H74.6364C74.2549 43.9014 72.7529 45.3922 70.5395 45.3922C67.8758 45.3922 65.9987 43.4345 65.9987 41.0196C65.9987 38.6046 68.0108 36.6462 70.5395 36.6462C73.0689 36.6462 74.8681 38.7745 74.8681 41.0196C74.8681 41.4872 74.815 41.6973 74.815 41.6973L68.3496 41.7005ZM72.4633 40.0638C72.2708 39.1034 71.4547 38.5506 70.4628 38.5506C69.4394 38.5506 68.6388 39.1389 68.4083 40.0575L72.4633 40.0638ZM15.7663 36.9273C15.362 37.0148 15 37.2358 14.7401 37.5538C14.4803 37.8718 14.3381 38.2678 14.337 38.6764C14.337 38.6949 14.3418 38.7174 14.3422 38.7347C15.6309 39.006 16.2808 39.8635 16.2808 40.9936C16.2808 42.2643 15.2282 43.2946 13.9412 43.2946C12.6541 43.2946 11.4517 42.2344 11.4517 40.6631C11.4517 38.745 13.1179 36.9443 15.4927 36.8883C15.535 36.8875 15.603 36.8891 15.6721 36.8922C15.134 36.6904 14.5631 36.5873 13.9875 36.5883C11.4397 36.5883 9.3744 38.5612 9.3744 40.9939C9.3744 43.4274 11.4397 45.3996 13.9875 45.3996C16.5357 45.3996 18.601 43.4274 18.601 40.9939C18.601 39.1629 17.4309 37.5937 15.7663 36.9273ZM50.5565 36.6249C48.0083 36.6249 45.9422 38.5971 45.9422 41.0306C45.9422 42.8613 47.1126 44.4313 48.7784 45.096C49.1825 45.0086 49.5442 44.7877 49.8038 44.4698C50.0634 44.1519 50.2054 43.7561 50.2061 43.3478C50.2061 43.3293 50.2021 43.3076 50.2013 43.2895C48.9123 43.019 48.2623 42.1614 48.2623 41.0306C48.2623 39.7591 49.3149 38.7304 50.602 38.7304C51.8891 38.7304 53.0915 39.7894 53.0915 41.361C53.0915 43.28 51.4249 45.0791 49.0509 45.1367C48.991 45.1367 48.9312 45.1351 48.8715 45.1319C49.3928 45.3275 49.9609 45.4359 50.5561 45.4359C53.1035 45.4359 55.1687 43.4629 55.1687 41.0302C55.1691 38.5971 53.1039 36.6249 50.5565 36.6249ZM43.0736 1.6534C40.4803 2.2168 38.5265 4.5119 38.5265 7.2593C38.5265 7.3184 38.5404 7.3886 38.5428 7.4477C42.6438 8.3152 44.7118 11.0625 44.7118 14.6887C44.7118 18.7612 41.3623 22.0641 37.2665 22.0641C33.1716 22.0641 29.3459 18.6662 29.3459 13.6281C29.3459 7.4773 34.6472 1.7078 42.2016 1.5248C42.3382 1.5221 42.5535 1.5272 42.7744 1.5367C41.0631 0.8919 39.2465 0.562601 37.4147 0.565201C29.3079 0.565201 22.7351 6.8886 22.7351 14.6891C22.7351 22.49 29.3079 28.813 37.4147 28.813C45.5204 28.813 52.0928 22.4896 52.0928 14.6891C52.0928 8.8183 48.3706 3.7841 43.0736 1.6534Z" fill="#445364"/>
</svg>
