<svg width="200" height="200" viewBox="0 0 200 200" fill="none" xmlns="http://www.w3.org/2000/svg">
<path d="M100 0C126.522 0 151.957 10.5357 170.711 29.2893C189.464 48.043 200 73.4784 200 100C200 126.522 189.464 151.957 170.711 170.711C151.957 189.464 126.522 200 100 200H24C17.6348 200 11.5303 197.471 7.02944 192.971C2.52856 188.47 0 182.365 0 176L0 100C0 73.4784 10.5357 48.043 29.2893 29.2893C48.043 10.5357 73.4784 0 100 0V0Z" fill="url(#paint0_linear)"/>
<path d="M85.09 180.56L70.26 169.56L102.26 126.17C100.53 126.4 99.06 126.58 97.84 126.69C96.62 126.8 95.65 126.86 94.84 126.86C84.0267 126.86 74.6634 122.75 66.75 114.53C62.9332 110.646 59.9284 106.04 57.911 100.982C55.8936 95.9241 54.904 90.5148 55 85.07C54.9119 79.2182 56.0286 73.4109 58.2805 68.0091C60.5324 62.6072 63.8714 57.7264 68.09 53.67C72.1817 49.4523 77.0912 46.1141 82.5179 43.8599C87.9446 41.6056 93.7743 40.4828 99.65 40.56C105.546 40.5013 111.395 41.6141 116.857 43.8337C122.319 46.0533 127.286 49.3355 131.47 53.49C140.49 62.07 145 72.1933 145 83.86C145 94.2067 140.607 105.39 131.82 117.41L85.09 180.56ZM74.68 83.56C74.6376 86.9086 75.2617 90.2322 76.516 93.3373C77.7703 96.4424 79.6297 99.267 81.9861 101.647C84.3424 104.026 87.1486 105.913 90.2412 107.198C93.3339 108.483 96.6512 109.14 100 109.13C106.688 109.149 113.11 106.513 117.857 101.802C122.604 97.0903 125.288 90.688 125.32 84C125.319 80.6715 124.659 77.376 123.38 74.3032C122.1 71.2304 120.226 68.4409 117.864 66.0952C115.503 63.7495 112.701 61.8938 109.62 60.635C106.538 59.3761 103.239 58.7389 99.91 58.76C96.605 58.7073 93.3241 59.3303 90.2684 60.5907C87.2127 61.8512 84.4467 63.7225 82.14 66.09C79.7635 68.342 77.8751 71.0583 76.5918 74.0704C75.3086 77.0824 74.6578 80.326 74.68 83.6V83.56Z" fill="white"/>
<defs>
<linearGradient id="paint0_linear" x1="0" y1="100" x2="200" y2="100" gradientUnits="userSpaceOnUse">
<stop stop-color="#FF8A11"/>
<stop offset="1" stop-color="#E81894"/>
</linearGradient>
</defs>
</svg>
