<svg height="530" viewBox="-3.18775275 -15.95991052 153.03175275 46.10291052" width="2500" xmlns="http://www.w3.org/2000/svg"><path d="m11.561 21.58c-1.41-1.89-2.379-4.09-2.956-6.37a18.639 18.639 0 0 1 -.106-.44 18.924 18.924 0 0 1 .914-.732 17.769 17.769 0 0 1 4.374-2.406c3.725-1.407 7.97-1.571 11.8-.481a18.062 18.062 0 0 1 6.325 3.276c.1.08.2.161.298.243.161.136.037.338-.01.527a19.066 19.066 0 0 1 -1.005 2.936 17.653 17.653 0 0 1 -1.931 3.373c-2.335-2.323-5.508-3.706-8.814-3.706-3.341 0-6.546 1.415-8.889 3.78" fill="#e30613"/><path d="m125.738 1.469c-.526 0-5.537-.013-5.537 0-.006 2.097-.011 4.196-.018 6.293 0 .117.064.334-.073.334h-1.434c-.301 0-.398-.094-.398.203v4.017c0 .173.564.076.703.076h1.201v6.033c0 2.675-.144 6.42 2.775 7.691 1.009.439 2.14.55 3.229.573.744.015 1.487-.018 2.23-.073.43-.031.859-.071 1.287-.119.195-.02.15-.02.15-.188-.012-1.435-.02-2.873-.032-4.31-1.328.035-3.419.285-3.955-1.304-.26-.77-.128-1.76-.128-2.575v-5.434c0-.276-.057-.294.223-.294h3.434c.266 0 .145-.317.145-.548v-3.582c0-.037.025-.166-.022-.166h-3.77c-.02 0-.01-5.994-.01-6.627m-55.907 19.777c-2.137-.795-2.917-3.29-2.47-5.378.454-2.107 2.23-3.522 4.406-3.336 4.722.406 5.022 8.185.334 8.919-.749.119-1.559.066-2.27-.205m-7.761 4.824h5.12c.06 0 .391.045.435 0 .096-.098.006-.748.007-.884.002-.323.006-.644.009-.966 1.055 1.71 3.17 2.432 5.095 2.46 2.104.03 4.099-.84 5.555-2.35 3.25-3.368 3.656-9.214 1.175-13.13-1.331-2.103-3.531-3.505-6.039-3.635-1.2-.062-2.447.115-3.55.61-.94.42-1.629 1.076-2.252 1.878.002-2.885 0-5.768.009-8.652l-5.565-.006v24.674m-24.116-2.7c2.19-4.614 3.116-9.797 2.876-14.887a31.594 31.594 0 0 0 -1.331-7.757c-.044-.142-.123-.725-.29-.725h-7.528c2.34 4.48 2.894 9.858 1.823 14.77-.51 2.337-1.408 4.608-2.721 6.61a17.5 17.5 0 0 1 -.54.775c-.123.167-.237.188-.09.365a14.355 14.355 0 0 1 1.27 1.83c.6 1.033 1.07 2.142 1.396 3.29.234.824.345 1.664.509 2.503 1.906-1.969 3.47-4.293 4.626-6.774m-35.04.001c1.174 2.479 2.715 4.798 4.626 6.771.204-1.042.354-2.073.69-3.088a14.053 14.053 0 0 1 2.485-4.532c.146-.18.033-.2-.091-.366a16.027 16.027 0 0 1 -.784-1.162 18.973 18.973 0 0 1 -1.596-3.255c-1.79-4.72-1.869-10.138-.257-14.918.327-.968.725-1.915 1.2-2.821h-7.469c-.19 0-.145.076-.214.289a30.738 30.738 0 0 0 -.549 1.916 32.116 32.116 0 0 0 -.954 7.71c-.017 4.64.953 9.249 2.913 13.456m133.216-8.916c1.126-1.76 3.606-2.291 5.365-1.145 1.945 1.271 2.345 4.184 1.373 6.175-.992 2.034-3.653 2.774-5.587 1.581-2.023-1.247-2.383-4.257-1.356-6.254.062-.121.132-.241.205-.357m-5.85.004c-.59 2.35-.42 5.002.633 7.199.962 2.006 2.68 3.546 4.75 4.348 4.052 1.569 9.142.395 11.592-3.33 2.59-3.936 1.945-9.972-1.784-12.973-3.515-2.83-9.119-2.74-12.506.26-1.334 1.18-2.258 2.77-2.685 4.496m-26.538 11.27c2.244.9 4.838 1.085 7.235.93 1.965-.128 4.015-.783 5.321-2.331 1.314-1.558 1.772-4.065 1.047-5.983-.737-1.948-2.932-2.951-4.857-3.321-.927-.18-2.007-.208-2.776-.821-.897-.717-.437-2.117.525-2.508 1.23-.496 2.766-.169 4.019.045.624.108 1.245.234 1.86.39.249.064.507.171.761.205-.01-1.042-.022-2.086-.034-3.13 0-.236-.004-.474-.007-.712-.003-.27.024-.245-.268-.362-1.142-.452-2.374-.631-3.593-.711-2.157-.144-4.512-.196-6.517.731-1.874.867-2.9 2.59-3.08 4.617-.19 2.147.4 4.167 2.395 5.24.946.507 1.998.756 3.042.967.885.179 2.073.293 2.711 1.013.622.703.248 1.678-.485 2.113-.7.415-1.47.383-2.252.359-.914-.026-1.83-.09-2.733-.235-.782-.126-1.643-.295-2.312-.747l-.001 4.25m-13.27-4.481c-2.136-.795-2.917-3.29-2.468-5.378.452-2.107 2.228-3.522 4.405-3.336 4.721.406 5.021 8.185.335 8.919-.75.118-1.56.066-2.272-.205m-7.446 0c1.101 3.062 3.649 5.238 6.953 5.42 2.155.12 4.385-.79 5.766-2.48v1.55c0 .408-.089.443.302.443h5.095c.155 0 .158.029.158-.115v-17.914c0-.072-1.754-.032-1.906-.032h-3.387c-.365 0-.262.076-.262.455v1.489c-.458-.604-.935-1.15-1.59-1.547-.853-.516-1.84-.77-2.826-.86-1.994-.18-4.137.192-5.775 1.398-1.694 1.247-2.617 3.226-2.995 5.254-.429 2.285-.315 4.743.467 6.94m-35.548-2.124c-.02-.225-.03-.45-.03-.677h13.068c.09 0 .161-.83.17-.96 0-2.328-.566-4.702-1.989-6.583-2.657-3.513-7.982-4.448-11.904-2.653-4.12 1.885-5.553 6.648-4.887 10.873m7.006-6.79c2.199-1.72 5.481-.388 5.934 2.332l-7.295.002c.174-.908.626-1.76 1.361-2.335m-1.434 6.79c.078.858.334 1.733.95 2.36.627.643 1.52.905 2.393.974.91.073 1.842-.031 2.589-.602a3.61 3.61 0 0 0 .862-.99c.104-.17.088-.14.268-.14 1.857.002 3.715.002 5.572.002-.744 1.922-2.016 3.651-3.777 4.765-1.835 1.162-4.012 1.535-6.154 1.322-1.993-.195-3.945-.907-5.455-2.25-1.576-1.406-2.496-3.37-2.82-5.437" fill="#004f9f" fill-rule="evenodd"/></svg>