<svg height="549" width="2500" xmlns="http://www.w3.org/2000/svg" viewBox="0 0 438.2999999999999 96.29999999999998"><path d="M331.3 24.8c0-2.7 2.2-4.8 5.1-4.8 3.1 0 5.2 2.2 5.2 4.8s-2.2 4.8-5.2 4.8c-2.9.1-5.1-2.2-5.1-4.8zm8.8 10.5c.2 0 .4.2.4.4v31.5c0 .2-.2.4-.4.4h-7.3c-.2 0-.4-.2-.4-.4V35.7c0-.2.2-.4.4-.4zM73.7 59.8l25-31.8c.1-.1 0-.3-.2-.3H74.4c-.2 0-.4-.2-.4-.4v-6.9c0-.2.2-.4.4-.4h35.8c.2 0 .4.2.4.4v7.1c0 .1 0 .2-.1.3L85.2 59.6c-.1.1 0 .3.2.3h24.8c.2 0 .4.2.4.4v6.9c0 .2-.2.4-.4.4H74c-.2 0-.4-.2-.4-.4v-7.1c0-.1.1-.2.1-.3zm95.7-39.4c0-.2.2-.4.4-.4h14.9c13.7 0 19 5 19 13.6 0 8.9-6.4 12.6-10.7 13.1-.1 0-.2.1-.1.2L205 67.1c.1.2 0 .5-.3.5h-9.4c-.2 0-.4-.1-.4-.3l-10.8-19.7c-.1-.1-.2-.2-.3-.2H178c-.1 0-.2.1-.2.2v19.6c0 .2-.2.4-.4.4h-7.7c-.2 0-.4-.2-.4-.4V20.4zM185 40.1c6.2 0 10.3-1.4 10.3-6.6 0-4.4-2.9-6.3-10.1-6.3h-7.1c-.1 0-.2.1-.2.2v12.5c0 .1.1.2.2.2zm79.9 4.6c-.2.2-.4.2-.6 0-.9-.8-3.2-2.9-6.3-2.9-3.6 0-9 2.4-9 9.7 0 7.5 5.9 9.7 9.2 9.7 3 0 5.5-1.9 6.2-2.7.2-.2.4-.2.6 0l4.8 5.2c.2.2.1.4 0 .6-2.4 2.2-6.2 4.2-11.3 4.2-8.2 0-17.5-5.3-17.5-16.9 0-11.3 8.8-16.9 17.5-16.9 4.8 0 8.5 1.9 11.4 4.6.2.2.2.4 0 .6zm-51.5 9.6c-.1 0-.2.1-.2.2.4 3.7 4.4 7.4 8.6 7.4 4.4 0 6.5-1.8 8.4-4.1.1-.2.4-.2.5-.1l5.1 3.9c.2.1.2.4.1.6-3.3 3.8-7.5 6.1-13.4 6.1-9.3 0-17.5-6.3-17.5-16.9 0-10.2 7.7-16.9 17-16.9 8.8 0 15.6 7.4 15.6 17.5v1.8c0 .2-.2.4-.4.4zm16.1-6.1c.1 0 .2-.1.2-.2 0-3.9-3.5-7.5-7.9-7.5s-8 2.7-8.5 7.4c0 .1.1.2.2.2zm149.4 6.1c-.1 0-.2.1-.2.2.4 3.7 4.4 7.4 8.6 7.4 4.4 0 6.5-1.8 8.4-4.1.1-.2.4-.2.5-.1l5.1 3.9c.2.1.2.4.1.6-3.3 3.8-7.5 6.1-13.4 6.1-9.3 0-17.5-6.3-17.5-16.9 0-10.2 7.7-16.9 17-16.9 8.8 0 15.6 7.4 15.6 17.5v1.8c0 .2-.2.4-.4.4zm16.1-6.1c.1 0 .2-.1.2-.2 0-3.9-3.5-7.5-7.9-7.5s-8 2.7-8.5 7.4c0 .1.1.2.2.2zM274.4 35.3h6.3c.2 0 .4.1.4.3l.9 4.8h.1c3.4-6.6 11.4-5.6 12.1-5.5.2 0 .3.2.3.6v6.2c0 .2-.2.4-.4.4 0 0-1.5-.3-2.8-.3-5.2 0-8.9 4.7-9.3 11v14.3c0 .2-.2.4-.4.4h-7.3c-.2 0-.4-.2-.4-.4V35.7c.1-.2.3-.4.5-.4zm133.4 0h6.3c.2 0 .4.1.4.3l.9 4.8h.1c3.4-6.6 11.4-5.6 12.1-5.5.2 0 .3.2.3.6v6.2c0 .2-.2.4-.4.4 0 0-1.5-.3-2.8-.3-5.2 0-8.9 4.7-9.3 11v14.3c0 .2-.2.4-.4.4h-7.3c-.2 0-.4-.2-.4-.4V35.7c.1-.2.3-.4.5-.4zm-63.1 6.5v-6.1c0-.2.2-.4.4-.4h6.1c.1 0 .2-.1.2-.2v-5.9c0-.2.1-.3.3-.4l7.3-2.7c.3-.1.5.1.5.4v8.6c0 .1.1.2.2.2h8.3c.2 0 .4.2.4.4v6.1c0 .2-.2.4-.4.4h-8.3c-.1 0-.2.1-.2.2v13.9c0 2.8.5 5.2 4.5 5.2 1.5 0 3-.3 4-.7.2-.1.4.1.4.3V67c0 .2-.1.4-.3.5-1.3.6-3.8.9-6.1.9-3.9 0-6.5-.8-8-2.3-1.4-1.4-2.5-3.6-2.5-9.1V42.4c0-.1-.1-.2-.2-.2h-6.1c-.3 0-.5-.2-.5-.4zm-32.5 19.6c-3.2 0-5.9-2-6-5.6V35.7c0-.2-.2-.4-.4-.4h-7.3c-.2 0-.4.2-.4.4v19.2c0 7.9 5.9 13.5 14 13.5h.2c8.1 0 14-5.6 14-13.5V35.7c0-.2-.2-.4-.4-.4h-7.3c-.2 0-.4.2-.4.4v20.1c-.1 3.6-2.8 5.6-6 5.6zm-173.7 2.3c0-.1.2-.2.3-.1 2.1 2.7 6.3 4.8 10.9 4.8 7.8 0 15.6-6.1 15.6-16.9 0-11.5-7.8-16.9-15.9-16.9-5.1 0-9 2.5-11 5.5-.1.1-.2.1-.3-.1l-.9-4.3c0-.2-.2-.3-.4-.3h-5.9c-.2 0-.4.2-.4.4v46.8c0 .2.2.4.4.4h7.3c.2 0 .4-.2.4-.4V63.7zm10.2-2.6c-5.3 0-9.5-3.6-9.5-9.7s4.2-9.7 9.5-9.7c3.1 0 8.7 2.1 8.7 9.7s-5.8 9.7-8.7 9.7zm-33.9-36.3c0-2.7 2.2-4.8 5.1-4.8 3.1 0 5.2 2.2 5.2 4.8s-2.2 4.8-5.2 4.8c-2.9.1-5.1-2.2-5.1-4.8zm8.8 10.5c.2 0 .4.2.4.4v31.5c0 .2-.2.4-.4.4h-7.3c-.2 0-.4-.2-.4-.4V35.7c0-.2.2-.4.4-.4z" fill="#343e45"/><path clip-rule="evenodd" d="M52.9 26.5c-.6-.2-1.3-.1-2 .1l-2.7.9V2.4c0-1.3-1.1-2.4-2.4-2.4H10.3C9 0 7.9 1.1 7.9 2.4v25.2l-2.7-.9c-.7-.2-1.4-.3-2-.1-1 .2-3.2 1.2-3.2 5.1v21c.3 1.8 1.5 3.9 4.2 3.9h9c.9 1.1 3.1 2.9 7.3 3.2.1 3.1 1.9 5.7 4.6 6.8v5.9c0 .1-.1.2-.2.2-12.6.4-20.6 4.4-22.9 5.7C.6 79.2.3 80.9.3 82v4.6c.1 1.6 1.4 2.9 3.1 2.9 1.5 0 2.8-1.3 2.9-2.8S5.4 84 4 83.6c-.1 0-.2-.1-.2-.2v-1.7c0-.4.2-.8.6-1 3.4-1.9 12.1-2.8 18.7-3.2H25c.1 0 .2.1.2.2.3 5.3.9 9.8 1.1 12.6h-.2c-1.1 0-2.1 1.3-2.1 3s1 3 2.1 3h4c1.1 0 2.1-1.3 2.1-3s-1-3-2.1-3h-.2s.7-7.3 1.1-12.6c0-.1.1-.2.2-.2h1.9c6.6.3 15.3 1.3 18.7 3.2.4.2.6.6.6 1v1.7c0 .1-.1.2-.2.2-1.4.3-2.4 1.6-2.3 3.1s1.4 2.8 2.9 2.8c1.6 0 3-1.2 3.1-2.9V82c0-1.1-.3-2.7-1.7-3.6-2.3-1.3-10.4-5.3-22.9-5.8-.1 0-.2-.1-.2-.2v-5.9c2.7-1.1 4.5-3.7 4.6-6.8 4.1-.3 6.3-2.2 7.3-3.2h9c2.7 0 3.9-2.1 4.2-3.9v-21c-.1-3.9-2.3-4.8-3.3-5.1zm-45 21.8l-4.1 3.1c-.1.1-.2 0-.2-.1V31.6c0-.8.1-1.8.5-1.7l3.6 1.2c.1 0 .2.2.2.3zm44.5 3.1l-4.1-3.1V31.5c0-.1.1-.2.2-.3l3.6-1.2c.5-.1.5.9.5 1.7v19.7s-.1.1-.2 0z" fill="#b2e522" fill-rule="evenodd"/><g fill="#343e45"><path d="M428.7 30.7c0-.7.1-1.3.4-1.9s.6-1.1 1-1.5.9-.8 1.5-1c.6-.3 1.2-.4 1.9-.4s1.3.1 1.9.4 1.1.6 1.5 1 .8.9 1 1.5.4 1.2.4 1.9-.1 1.3-.4 1.9-.6 1.1-1 1.5-.9.8-1.5 1c-.6.3-1.2.4-1.9.4s-1.3-.1-1.9-.4-1.1-.6-1.5-1-.8-.9-1-1.5c-.3-.6-.4-1.3-.4-1.9zm.9 0c0 .5.1 1.1.3 1.5.2.5.5.9.9 1.3s.8.6 1.3.9 1 .3 1.5.3 1.1-.1 1.5-.3.9-.5 1.3-.9.6-.8.9-1.3c.2-.5.3-1 .3-1.5s-.1-1.1-.3-1.5-.5-.9-.9-1.3-.8-.6-1.3-.9-1-.3-1.5-.3-1.1.1-1.5.3-.9.5-1.3.9-.6.8-.9 1.3-.3.9-.3 1.5z"/><path d="M431.6 27.9h1.8c1.6 0 2.2.6 2.2 1.6s-.7 1.5-1.2 1.5l1.4 2.3v.1h-1.1l-1.3-2.3h-.7v2.3h-.9v-5.5zm1.8 2.3c.7 0 1.2-.2 1.2-.8 0-.5-.3-.7-1.2-.7h-.8v1.4h.8z"/></g></svg>