<svg width="32" height="32" viewBox="0 0 32 32" fill="none" xmlns="http://www.w3.org/2000/svg">
<path opacity="0.3" d="M5.33317 13.3333H10.6665V22.6666H13.3332V13.3333H18.6665V22.6666H21.3332V13.3333H26.6665V22.6666C28.1393 22.6666 29.3332 23.8605 29.3332 25.3333V26.6666C29.3332 28.1393 28.1393 29.3333 26.6665 29.3333H5.33317C3.86041 29.3333 2.6665 28.1393 2.6665 26.6666V25.3333C2.6665 23.8605 3.86041 22.6666 5.33317 22.6666V13.3333Z" fill="#000000"/>
<path d="M2.6665 9.8054C2.6665 8.71499 3.33037 7.73443 4.3428 7.32947L15.0095 3.0628C15.6452 2.80849 16.3545 2.80849 16.9902 3.0628L27.6569 7.32947C28.6693 7.73443 29.3332 8.71499 29.3332 9.8054V10.6666C29.3332 12.1394 28.1393 13.3333 26.6665 13.3333H5.33317C3.86041 13.3333 2.6665 12.1394 2.6665 10.6666V9.8054Z" fill="#000000"/>
</svg>
