<svg width="16" height="16" viewBox="0 0 16 16" fill="none" xmlns="http://www.w3.org/2000/svg">
<path d="M13.9466 0.215088H4.45502C3.44455 0.215088 2.62251 1.0396 2.62251 2.05311V2.62219H2.04736C1.03688 2.62219 0.214844 3.44671 0.214844 4.46078V13.9469C0.214844 14.9605 1.03688 15.785 2.04736 15.785H11.5393C12.553 15.785 13.3776 14.9605 13.3776 13.9469V13.3779H13.9466C14.9604 13.3779 15.7852 12.5534 15.7852 11.5393V2.05306C15.7852 1.0396 14.9604 0.215088 13.9466 0.215088ZM12.2526 13.9469C12.2526 14.3402 11.9326 14.6599 11.5393 14.6599H2.04736C1.65732 14.6599 1.33984 14.3402 1.33984 13.9469V4.46073C1.33984 4.06743 1.65738 3.74714 2.04736 3.74714H3.18501H11.5393C11.9326 3.74714 12.2526 4.06737 12.2526 4.46073V12.8153V13.9469ZM14.6602 11.5392C14.6602 11.9325 14.3402 12.2528 13.9466 12.2528H13.3775V4.46073C13.3775 3.44671 12.553 2.62214 11.5392 2.62214H3.74746V2.05306C3.74746 1.65976 4.06499 1.34003 4.45497 1.34003H13.9466C14.3402 1.34003 14.6602 1.65976 14.6602 2.05306V11.5392Z" fill="#B5B5C3"/>
</svg>
