<svg xmlns="http://www.w3.org/2000/svg" xmlns:xlink="http://www.w3.org/1999/xlink" height="512" width="512" id="flag-icon-css-al">
  <path fill="#e41e20" d="M0 0h512v512H0z"/>
  <path id="a" d="M204.896 99.537c-4.978-.084-13.24 1.587-13.056 5.408-13.867-2.376-15.31 3.35-14.496 8.448 1.32-2.023 2.926-3.12 4.16-3.328 1.85-.307 3.784.29 5.76 1.504 1.976 1.213 4.153 3.17 5.12 4.383-4.894 1.17-8.675.415-12.512-.256-1.89-.33-4.538-1.395-6.112-2.496-1.573-1.1-2.07-2.137-4.544-4.67-2.918-2.99-6.023-2.148-5.056 2.495 2.238 4.312 5.977 6.235 10.688 7.008 2.267.372 5.645 1.18 9.472 1.184 3.828.004 8.126-.553 10.464-.064-1.404.882-2.994 2.402-6.144 3.008-3.203.617-8.072-1.904-11.04-2.59.377 2.496 3.527 4.83 9.728 6.047 10.19 2.22 18.658 3.905 24.256 6.944 5.598 3.04 9.128 6.844 11.648 9.825 5.017 5.932 5.28 10.486 5.6 11.488 1.032 9.478-2.272 14.81-8.416 16.448-3.07.82-8.527-.723-10.528-3.07-2-2.35-3.946-6.385-3.392-12.705.54-2.48 3.375-8.938.96-10.272-11.122-6.147-24.628-12.364-34.4-16.064-2.67-1.012-4.87 2.618-5.728 4.03-16.6-2.02-31.566-13.254-38.304-25.215-4.588-8.146-12.15.017-10.88 7.712 2.053 8.59 8.597 14.8 16.448 19.2 8.06 4.437 18.13 8.803 28.32 8.576 5.49 1.04 5.436 8.14-1.152 9.472-12.882.082-23.16-.24-32.864-9.6-7.36-6.72-11.503 1.287-9.376 5.824 3.606 13.985 23.56 17.902 43.744 13.375 7.817-1.294 3.136 7.082.928 7.168-8.434 6.048-23.534 11.965-36.832-.064-6.085-4.66-10.2-.744-7.936 5.983 5.9 17.54 28.47 13.855 43.968 5.216 3.99-2.224 7.61 2.95 2.752 6.88-19.272 13.465-28.907 13.618-37.6 8.447-10.882-4.292-11.84 7.78-5.376 11.744 7.185 4.41 25.467 1.104 38.88-7.327 5.75-4.275 6.01 2.41 2.368 5.056-15.917 13.755-22.19 17.378-38.784 15.135-8.228-.64-8.104 9.503-1.632 13.472 8.837 5.42 26.095-3.576 39.488-14.688 5.638-3.013 6.564 1.927 3.776 7.775C159.08 236.71 151.4 242.798 144 245.617c-7.4 2.82-14.515 2.37-19.552.64-6.144-2.11-6.914 4.274-3.52 10.08 2.047 3.5 10.527 4.62 19.68 1.376 9.154-3.245 18.98-10.857 25.728-19.776 5.87-5.14 5.14 1.765 2.464 6.624-13.51 21.36-25.868 29.283-42.144 27.937-7.216-1.226-8.855 4.386-4.256 9.568 8.077 6.698 18.176 6.488 27.008-.128 7.853-7.57 22.874-23.873 30.752-32.61 5.552-4.424 7.325-.06 5.696 8.93-1.48 5.148-5.19 10.57-15.296 14.527-6.904 3.94-1.72 9.372 3.456 9.472 2.848.056 8.632-3.273 13.056-8.255 5.82-6.554 6.167-10.954 9.376-21.15 3.032-4.972 8.448-2.652 8.448 2.56-2.597 10.213-4.83 12.045-10.08 16.223-5.022 4.715 3.498 6.287 6.368 4.352 8.305-5.598 11.337-12.84 14.112-19.424 2.003-4.753 7.814-2.448 5.12 5.313-6.437 18.547-17.014 25.85-35.52 29.6-1.875.333-3.02 1.44-2.368 3.616 2.484 2.577 4.973 4.917 7.456 7.487-11.443 3.33-20.74 5.203-32.192 8.544-5.618-3.683-10.157-6.808-15.776-10.495-1.48-3.463-2.172-8.75-10.464-5.024-5.618-2.594-8.21-1.642-11.328.96 4.5.17 6.46 1.374 8.224 3.425 2.304 6.068 7.618 6.655 13.056 4.928 3.538 2.98 5.423 5.267 8.96 8.256-6.604-.227-11.205-.344-17.792-.545-6.288-6.75-11.307-6.382-15.808-1.088-3.43.527-4.884.6-7.232 4.768 3.692-1.515 6.014-1.97 7.616-.32 6.686 3.876 11.053 3.01 14.368 0 6.45.395 12.262.73 18.72 1.152-2.372 2.017-5.628 3.086-8 5.12-9.687-2.77-14.743.96-16.448 8.865-1.298 3.19-1.906 6.475-1.344 9.888.938-3.122 2.445-5.806 5.216-7.488 8.635 2.193 11.88-1.332 12.352-6.496 4.162-3.396 10.438-4.145 14.592-7.584 4.857 1.554 7.205 2.517 12.096 4.064 1.74 5.284 5.674 7.377 12.064 6.016 7.606.238 6.264 3.36 6.88 5.856 2.022-3.586 1.965-7.072-2.72-10.24-1.704-4.63-5.48-6.738-10.432-4.064-4.66-1.323-5.885-3.225-10.528-4.544 11.744-3.743 20.074-4.586 31.808-8.32 2.938 2.77 5.265 4.76 8.224 7.232 1.56.93 3.052 1.165 3.968 0 7.353-10.643 10.637-20.023 17.472-27.04 2.61-2.904 5.91-6.822 9.568-7.776 1.83-.478 4.072-.187 5.504 1.376 1.432 1.562 2.557 4.44 2.08 8.736-.684 6.165-2.174 8.112-3.904 11.808-1.73 3.696-3.843 5.97-6.016 8.8-4.345 5.66-10.078 8.955-13.472 11.168-6.786 4.425-9.657 2.488-14.912 2.207-6.792.764-8.6 4.072-3.04 8.64 5.197 2.705 9.868 3.04 13.664 2.337 3.26-.602 7.074-4.81 9.792-7.072 3.06-3.534 8.132.658 4.672 4.768-6.286 7.47-12.568 12.395-20.32 12.288-8.145 1.098-6.622 5.674-1.216 7.905 9.73 4.016 18.514-3.505 22.976-8.448 3.443-3.766 5.89-3.913 5.28 1.92-3.418 10.562-8.088 14.64-15.712 15.168-6.183-.574-6.25 4.2-1.728 7.424 10.302 7.13 17.763-5.013 21.248-12.353 2.484-6.62 6.294-3.472 6.688 1.984.052 7.292-3.242 13.244-12.064 20.705 6.75 10.754 14.618 21.692 21.376 32.48l20.485-228.153-20.48-36.047c-2.133-1.97-9.346-10.468-11.23-11.648-.69-.734-1.107-1.253-.097-1.632.976-.366 3.262-.776 4.8-1.056-4.344-4.352-8.066-5.747-16.29-8.128 2.005-.854 3.954-.357 9.857-.64-2.343-3.327-7.577-8.422-14.336-10.88 4.463-3.173 5.332-3.386 9.76-7.104-7.667-.544-14.214-2.005-20.8-4-4.165-1.948-9.95-3.6-12.77-3.648zm.737 8.928c4.05 0 6.56 1.39 6.56 3.072 0 1.713-2.51 3.104-6.56 3.104-4.035 0-6.592-1.517-6.592-3.23 0-1.684 2.558-2.945 6.593-2.945z"/>
  <use height="100%" width="100%" xlink:href="#a" transform="matrix(-1 0 0 1 512 0)"/>
</svg>
