<svg xmlns="http://www.w3.org/2000/svg" height="512" width="512" id="flag-icon-css-ba">
  <defs>
    <clipPath id="a">
      <path fill-opacity=".67" d="M0 0h512v512H0z"/>
    </clipPath>
  </defs>
  <g fill-rule="evenodd" clip-path="url(#a)">
    <path fill="#009" d="M0 0h512v512H0z"/>
    <path d="M77 .006l436.91 436.91V.006H77z" fill="#fc0"/>
    <path fill="#FFF" d="M461.41 470.395l-26.123-19.086-26.849 18.994 10.151-31.164-26.419-19.246 32.731.066 10.177-31.117 10.055 31.156 32.74.094-26.195 19.365 9.732 30.938zm76.714 10.447l-32.74-.094-10.055-31.156-10.177 31.117-32.731-.066 26.419 19.246-10.151 31.164 26.849-18.994 26.123 19.086-9.731-30.938 26.194-19.365zm-146.32-101.26l26.195-19.365-32.74-.094-10.055-31.156-10.177 31.117-32.731-.066 26.419 19.246-10.151 31.164 26.849-18.994 26.123 19.086-9.732-30.938zm-60.333-60.416l26.195-19.367-32.74-.092-10.055-31.156-10.177 31.117-32.731-.066 26.419 19.244-10.151 31.166 26.849-18.996 26.123 19.088-9.732-30.938zM271.804 259.5l26.195-19.368-32.74-.093-10.055-31.156L245.029 240l-32.732-.066 26.418 19.246-10.151 31.166 26.849-18.996 26.123 19.088-9.732-30.938zm-60.417-60.251l26.195-19.367-32.74-.093-10.055-31.156-10.177 31.117-32.731-.066 26.419 19.245-10.151 31.166 26.849-18.996 26.123 19.088-9.732-30.938zm-59.667-59.917l26.195-19.367-32.74-.093-10.055-31.156-10.177 31.117-32.731-.066 26.419 19.245-10.151 31.166 26.849-18.996 26.123 19.088-9.732-30.938zm-60-60l26.195-19.367-32.74-.093-10.054-31.156-10.177 31.117-32.731-.066 26.419 19.245-10.152 31.165 26.849-18.996 26.123 19.088-9.732-30.937zm-60-60L57.915-.035l-32.74-.093-10.054-31.156L4.944-.167l-32.731-.066 26.419 19.245-10.152 31.165 26.849-18.996 26.123 19.088-9.732-30.937z"/>
  </g>
</svg>
