<svg xmlns="http://www.w3.org/2000/svg" height="512" width="512" id="flag-icon-css-bt">
  <path fill="#ffd520" d="M0 0h512v512H0z"/>
  <path d="M0 512h512V0z" fill="#ff4e12"/>
  <g stroke="#000" stroke-width=".521">
    <g fill="#fff" stroke-width=".406">
      <path d="M281.885 162.5c-3.89-1.382-6.403.628-6.276 5.65.123 5.023 2.762 7.91 6.653 6.027l-.377-11.677z"/>
      <path d="M285.301 153.093c-3.24-2.558-6.263-1.462-7.758 3.335-1.495 4.796.075 8.379 4.365 7.845l3.393-11.18z"/>
      <path d="M290.699 143.99c-2.792-3.045-5.951-2.448-8.197 2.048-2.242 4.495-1.267 8.282 3.055 8.443l5.142-10.491zm-3.542 44.25c-4.77 1.758-5.274 8.287-2.258 12.305 3.012 4.018 8.538 4.771 11.55 0l-9.29-12.308z"/>
      <path d="M281.635 174.426c-4.52-1.507-8.593 4.565-9.292 10.045-.878 6.906-10.673 9.165-5.272 19.588 1.128-6.655 5.525-10.296 9.04-10.547 3.516-.252 8.79-1.005 11.05-5.274l-5.526-13.812zm14.313 26.871c-5.275 1.255-6.029 8.287-2.262 13.31 3.224 4.3 13.31 3.264 13.059-1.005l-10.797-12.305zm14.945 42.315c.25-4.52-7.03-6.278-10.547-5.4-3.516.88-10.234-.125-11.803-3.892-1.255 3.014.565 6.278 5.651 7.91 3.848 1.237 3.767 4.019 2.636 5.275 2.89.502 11.427.502 14.063-3.893z"/>
      <path d="M306.751 214.736c-5.148-2.26-8.2 1.183-10.17 4.52-2.889 4.897-11.803-1.38-14.816 5.149 4.081-1.758 8.235 1.99 10.17 3.264 5.524 3.641 16.197 2.511 17.705-6.027l-2.89-6.906z"/>
      <path d="M309.762 220.758c-5.148 3.892-7.157 8.538-7.03 11.677.127 3.14 4.52 10.045 9.292 10.422 2.763-5.65 4.144-17.58-2.262-22.1zm-21.341 24.234c0-1.883 2.763-2.636 4.644-2.009 1.885.628 4.771 2.512 3.767 4.52l-8.41-2.51zm-28.384-10.296c-.5-2.26 3.14-6.152 8.037-4.018 4.894 2.135 5.525 6.279 3.513 7.911l-11.55-3.892z"/>
      <path d="M271.963 238.838c-.377-1.256 3.15-3.764 9.168-2.26 6.026 1.507 7.504 5.387 7.283 8.413l-16.451-6.153zm-12.55-4.142c3.14-2.385 1.95-6.907-.88-8.287-5.149-2.511-3.264-9.04-6.53-10.296-3.263-1.256-6.403-3.516-6.53-5.776-1.63 3.139-.627 6.027 1.635 8.036 2.26 2.01-1.758 10.17 1.128 12.306l11.177 4.018zm-67.306-1.755c-2.637-4.143-8.916-3.39-11.552-.502-2.637 2.888-2.26 7.157.251 9.04l11.3-8.538zm15.069-6.154c-1.004-5.524-7.66-6.152-11.3-4.771-3.641 1.381-6.153 6.906-3.767 10.924l15.068-6.153z"/>
      <path d="M217.223 226.03c2.385-4.645-2.26-11.551-7.534-12.556-4.403-.837-9.606-.816-11.3-5.148-1.068 3.767 1.758 6.153 5.022 8.288 3.264 2.134-.628 7.66 4.646 10.798l9.166-1.381z"/>
      <path d="M216.724 226.194c-1.1-3.328 1.13-7.755 5.64-7.445 4.513.31 7.083 3.589 5.094 7.687l-10.735-.242z"/>
      <path d="M226.762 226.444c-.62-3.45 2.208-7.52 6.63-6.58 4.424.94 6.507 4.548 3.966 8.327l-10.596-1.747z"/>
      <path d="M236.738 228.027c-.448-3.476 2.58-7.4 6.952-6.24 4.371 1.16 6.273 4.867 3.543 8.513l-10.495-2.273zm-75.768 57.525c-8.414 0-10.468 2.003-11.678 10.673-1.507 10.798 13.184 12.054 11.677-10.673z"/>
      <path d="M164.737 274.25c-12.933-4.897-19.964 15.57-32.772 11.929 4.583 7.282 15.692.013 19.839.753 7.031 1.256 22.224-1.381 12.933-12.682zm-8.417 28.002c-6.403-2.888-13.31 6.906-12.054 11.175 1.595 5.423 16.198 1.005 12.054-11.175zm-29.881 42.19c3.516 1.001 7.784 3.013 7.031 9.792-.753 6.78-13.56 20.592-25.112 21.346-11.552.754-15.696 14.69-25.615 10.797 9.291-1.755 9.291-12.304 16.574-15.567-5.274-1.885-8.036 10.046-14.816 10.046-6.78 0-10.045 10.796-18.332 10.042-8.288-.75-9.16 13.146-25.74 13.312-12.682.124-28.377 14.94-34.028 8.538 12.306-1.758 17.271-8.577 24.61-16.074 11.804-12.051 25.114-6.653 29.634-17.326a30.86 30.86 0 0 1-17.83 5.275c-7.723-.16-16.198 12.304-24.862 6.78 5.023-.628 8.288-2.763 13.561-8.288 5.4-5.659 13.325-2.002 19.588-7.784 9.794-9.042 18.207-1.508 27.624-12.808-2.637-1.255-8.288-.377-13.561 2.385-5.274 2.763-12.054-1.885-18.081 1.381.753-7.407 14.816-3.169 23.606-8.287 9.92-5.776 18.144-4.082 25.992-3.39-10.924-.062-15.193-10.423-30.26-7.41-6.572 1.316-11.803-9.039-18.333-3.767.188-3.89 7.032-7.03 14.064-3.263 7.03 3.767 9.865-3.296 23.857 5.525 5.775 3.64 15.695-2.262 21.973 1.632-.816-2.386-4.395-3.894-8.601-3.578 2.637-5.399 19.65-4.71 27.059.692z"/>
      <path d="M137.616 336.276c-5.525-4.27-13.184.88-18.458-1.13 0 3.514 1.758 8.79 7.534 10.798 1.758-1.255 9.668-8.161 10.924-9.668z"/>
      <path d="M146.282 324.1c-8.664-4.395-10.17 6.529-16.951 4.269.251 3.14 2.763 7.032 8.287 7.91l8.665-12.179z"/>
      <path d="M151.43 314.178c-12.808-5.022-14.44 7.283-21.973 4.897 1.758 4.27 12.556 6.53 18.08 5.023l3.893-9.92zm17.573-53.866c-3.39-4.772-10.547-.88-11.677 4.77-1.13 5.651 1.632 13.562 6.404 11.804l5.273-16.574z"/>
      <path d="M177.67 245.242c-5.902-1.381-12.683-.753-11.93 5.023-2.26 1.004-2.887 8.413 3.265 10.044l8.664-15.068z"/>
      <path d="M181.561 241.35c-5.776-6.78-12.217-6.623-15.82-3.767-6.655 5.273-13.122 2.26-13.31 7.534 4.018-3.077 7.533.627 10.798-.503 3.265-1.13 5.65 5.148 14.691 2.512l3.641-5.776zm-13.938 101.337c.879 1.632 6.278 2.386 8.915-.377 3.495-3.663-.377-13.813-5.902-14.566-5.524-.754-6.026 11.427-3.013 14.943z"/>
      <path d="M161.344 342.937c7.91 2.886 11.3-3.643 7.031-7.786-1.13 1.382-5.274 6.404-7.031 7.786z"/>
      <path d="M131.712 353.732c-1.507 4.52-9.293 5.275-18.082 19.338-8.79 14.062-17.202 8.16-19.337 17.829 10.548-8.538 18.831-2.867 25.113-11.3 9.543-12.81 17.4-10.97 21.095-19.589 5.273-12.304 28.377-12.054 29.632-31.39-7.785-1.507-32.395 19.336-38.421 25.111zM329.855 163.88c10.045 3.265 10.296 16.323 21.846 20.592 11.554 4.27 12.685 14.565 22.1 12.054-8.789-2.385-8.162-12.556-17.327-15.068-10.75-2.945-14.817-19.337-23.357-21.847m42.82 72.449c1.758 4.018 1.508 11.175-4.771 13.059 3.39 2.134 8.41.125 11.173-4.52-4.143 9.165-1.38 17.453 5.148 19.085-3.14-6.403 3.894-9.417 1.635-13.56 4.144 1.757 7.784 7.408 7.657 10.923 5.402-6.027-4.017-14.063-2.259-19.713l-18.583-5.273zm-65.044 64.537c-6.152-5.4-8.778 1.412-11.804-.942-2.824-2.197-6.59-2.511-8.034-.314 5.275.189 2.698 4.27 12.932 5.274-10.235.69-8.35 12.117-15.194 11.552 7.283 6.906 11.05-6.153 16.952-4.018-1.758.502 2.762 4.646-.377 10.17 5.086-.125 7.156-7.157 7.787-10.798l-2.262-10.924zm-135.486 58.64c-2.26-1.881-8.79-2.762-11.3-1.254-2.512 1.505-1.633 1.882 1.38 2.135 3.014.25 6.906 5.125.377 5.398-3.013.124-2.008 7.407-8.287 7.911 2.574 3.14 9.92 1.066 12.556-2.385-.502 2.824 3.265 5.398 1.758 8.788 4.646.504 1.946-9.416 9.292-8.915-3.013.377-1.758 7.157 3.516 5.398-3.139 1.508-1.507 5.148 2.009 4.27-2.26.755-3.014 3.641.125 5.276 3.014-4.144-.376-18.96-11.426-26.62zM448.89 216.694c9.61 0 17.4-7.792 17.4-17.403 0-9.61-7.79-17.402-17.4-17.402-9.613 0-17.404 7.792-17.404 17.402 0 9.61 7.79 17.403 17.404 17.403z"/>
      <path d="M357.981 237.715c5.275-5.023 13.313-7.534 18.834-3.767 5.525 3.767 23.859 8.287 32.9 2.009 9.038-6.278 13.309-9.543 17.326-8.79 3.016 4.52 6.656 6.655 11.176 7.032 1.382 1.507 6.28 2.762 9.042 2.385 4.017 1.005 8.915-.25 12.805-4.52 6.03.88 11.678-3.641 13.813-10.421 6.402-.754 6.78-7.911 2.762-12.682-3.767-.754-.877-13.436-14.566-10.924 5.778 3.515 1.38 10.547 6.155 13.812-3.266 0-7.472 1.381-8.476 6.278 1.254-3.39-.189-5.65-1.07-6.403.127-2.888-6.275-9.983-12.304-7.409 4.332.942 1.885 7.911 5.025 10.547-2.262.126-4.648 1.256-6.029 3.265-1.632-2.888-7.407-5.901-10.923-6.153 0-1.004-.189-3.013-.627-4.017-1.57-3.014-2.89-6.592-2.262-11.175-3.013 3.264-5.525 7.785-7.03 11.049-4.771-3.265-16.575 1.507-22.1 2.762-5.525 1.256-24.108-1.757-28.378-6.278-4.268-4.52-12.555-7.283-20.339-9.542-10.705-3.107-10.8-14.817-22.604-22.853-.25 14.566 21.85 60.773 26.871 65.795zM234.929 348.709c9.292 0 16.825-7.534 16.825-16.826 0-9.291-7.533-16.824-16.825-16.824-9.292 0-16.826 7.533-16.826 16.824 0 9.293 7.533 16.826 16.826 16.826z"/>
      <path d="M194.743 335.776c3.39 4.395 9.166 4.145 11.552 3.768 2.01 5.272 8.412 5.148 11.175 8.034 2.763 2.89 12.178 2.639 14.94 1.004-2.508-.25-5.774-1.755-8.913-4.394-3.79-3.181-2.009-9.542-5.022-11.802 2.26-2.511 2.636-6.655 2.134-8.287 2.386-1.382 4.144-3.642 4.395-4.772 4.144-.25 7.784-2.385 9.292-4.018 2.135 2.01 7.533-.627 10.423 2.763.627-8.288-7.283-12.682-12.558-9.92-2.135-1.13-7.785-.376-8.789 1.13-1.758-.753-6.655 1.758-8.915 3.39 2.511-1.38 2.888-5.524 1.883-7.03 2.135-.88 4.52-3.768 4.771-5.902 3.014.502 7.533-1.507 9.542-1.005-3.263-4.269-8.662-5.776-14.187-5.399-5.714.314-8.161 4.332-8.915 8.664-3.39 2.009-4.52 8.79-3.264 11.175-1.947-.062-3.768 1.821-4.52 2.888-2.638-1.13-6.405-1.946-9.104-1.946m1.194-6.842c-1.13-3.264.367-6.203 1.13-8.789 1.946-6.591.754-8.287-5.148-7.408-.502 3.139 2.512 13.436 4.018 16.198z"/>
      <path d="M187.528 291.45c1.507 1.506 6.844 2.197 7.409-2.575.648-5.477-1.57-7.597-6.341-5.462-.377 1.256-.817 6.404-1.068 8.036z"/>
      <path d="M188.66 283.228c2.008.816 6.34 2.448 8.726-2.198 2.001-3.896-.628-6.906-4.771-6.655-1.005 1.13-3.014 5.149-3.956 8.853z"/>
      <path d="M192.364 274c.502 1.507 5.65 6.53 9.417 2.888 3.767-3.64 3.767-9.04-1.883-11.049-1.507.25-6.027 5.525-7.534 8.161z"/>
      <path d="M199.891 265.842c1.13 3.139 4.646 8.538 11.175 6.027 6.53-2.512 3.767-10.673.754-12.306-1.758.126-8.915 3.39-11.929 6.279z"/>
      <path d="M211.825 259.563c-.502 2.762 0 10.296 8.915 10.17 8.914-.125 6.405-10.547 4.144-12.054-3.642 0-9.794.125-13.06 1.883z"/>
      <path d="M225.257 258.05c-1.005 2.134-3.268 16.184 14.189 12.305 2.258-.502 8.16-13.436-14.19-12.305z"/>
      <path d="M234.796 259.305c-1.755 1.758 2.763 15.947 14.567 13.56 11.803-2.385 1.885-15.82-14.567-13.56z"/>
      <path d="M244.843 261.443c-1.882 3.892.945 15.443 15.508 15.443 13.199 0-.692-15.192-15.508-15.443z"/>
      <path d="M256.27 264.836c-.946 2.157-2.103 14.405 15.067 15.443 12.431.754 9.418-16.825-15.067-15.443z"/>
      <path d="M274.732 269.983c-2.132 3.768-4.394 13.185 14.44 13.938 12.068.483 4.648-13.686-14.44-13.938z"/>
      <path d="M290.426 272.87c-2.763 3.767-.728 11.156 6.275 12.556 8.792 1.758 10.046-6.53 4.02-10.547-6.028-4.018-10.295-2.01-10.295-2.01z"/>
      <path d="M298.967 274.624c-2.009 3.516-.764 12.055 12.554 12.055 2.763 0 13.313-10.799-12.554-12.055zM195.882 438.37c10.787 0 19.533-8.747 19.533-19.533 0-10.79-8.746-19.536-19.533-19.536-10.788 0-19.533 8.746-19.533 19.536 0 10.786 8.745 19.533 19.533 19.533z"/>
      <path d="M339.144 154.34c-1.508 1.508-4.644 6.028-5.274 7.786-6.53 19.588 10.9 34.219 21.095 55.247 8.038 16.574 7.033 42.692-5.525 59.266-4.296 5.669-3.012 7.282-8.537 13.058-2.12 2.216-4.521 5.023-3.767 13.06 3.516-1.257 8.538 2.008 9.542 4.77 2.512-1.255 6.028-.753 7.283.754 4.267-2.009 7.784-1.005 11.55 3.014 3.266-.503 6.783 0 10.046 3.515 1.758-3.515 5.274-4.771 7.783-4.018-.25-4.52 4.27-7.784 8.288-6.027-1.255-6.027 4.27-10.547 9.545-8.79 4.518-3.515 13.56-3.766 18.08 1.507-8.037-2.26-7.784 6.279-14.566 5.525 1.758 5.023-2.763 7.911-7.28 9.543 2.886-1.381 6.025-3.014 7.03-1.256 2.512-2.197 7.533-1.38 8.79-.25 3.325-1.068 6.53-.252 8.035 3.766 4.52 2.762 7.533 9.794 4.27 15.068-1.004-5.525-4.77-5.274-6.279-7.534-3.516 1.256-7.033 1.256-8.037-1.005-2.008 2.01-8.788 3.768-11.8.754-1.132 4.52-5.025 8.287-9.546 8.287 1.258 3.516-2.259 9.544-5.021 12.557 4.27 2.258 3.012 7.283 2.008 10.296 6.53 1.004 1.004 6.78 12.305 10.546-5.522 1.758-16.322 0-17.83-6.78-5.525-.25-9.292-5.775-9.038-11.554-4.27-4.017-4.898-9.792 1.004-13.81-5.025 1.507-7.787-6.529-15.07-3.264-3.62 1.624-13.182-1.13-13.056-4.52-1.508 2.51-10.673 1.507-11.93-2.763-3.014 1.633-10.046-1.13-9.92-5.273-3.894 1.758-9.165-1.382-8.915-5.4-3.64-.502-4.017-3.766-3.766-6.529-3.267-1.507-2.386-4.646-1.131-8.412-2.26-2.511-1.255-6.027.503-9.292-2.512-2.511-2.008-5.525-1.257-9.04-12.055-1.005-27.155-3.912-61.776-14.565-52.234-16.072-66.298 21.596-54.746 45.202 13.328 27.237-1.507 33.15 3.014 53.492 4.771 1.004 7.282 5.02 7.031 9.292 2.825.123 4.834 2.76 3.83 7.784 2.385-.44 5.462.25 7.47 2.258 1.759-3.263 7.535-4.017 10.549-.25 6.527-.504 9.793 4.771 9.543 11.3 3.513 6.28 2.259 13.94-1.508 18.834.377-2.635 0-6.402-.124-8.66-.234-4.157-6.028-5.025-5.4-8.415-3.014.25-5.902-1.381-6.906-3.64-1.758 1.505-4.27 2.008-6.404 1.254 3.39 1.508 6.027 7.534 5.022 11.55 1.758 3.016 1.382 8.541-.753 10.927-1.005 4.894-4.771 6.652-9.668 4.517 2.762-1.755 3.767-4.894 3.641-7.533-1.758-1.505-2.637-4.394-2.762-6.153-4.897.754-11.678-3.39-12.928-5.027-10.788 0-19.534 8.746-19.534 19.536-.502-4.02-5.583-7.979-4.956-11.369-3.013-9.292 1.256-17.956 13.561-19.711-1.506-3.517 3.767-7.16 1.758-11.177-2.566-5.132-7.282-11.804-14.314-19.588 4.27-7.283 3.014-17.076.503-23.103-3.607-8.655-7.032-6.53-19.84 7.533-20.872 22.918-48.718 16.575-73.329 31.642-6.54 4.004-13.058 5.525-6.027-1.505 7.032-7.033 25.615-14.062 37.669-20.091 22.573-11.287 41.687-30.135 49.22-66.8 17.704-86.158 82.868-57.758 124.052-41.686 38.665 15.09 31.642-19.086 12.054-39.678-23.543-24.75-18.834-44.198-7.784-59.768 19.838-2.762 57.886 4.144 50.226 10.799z"/>
      <path d="M409.087 365.994c11.869 0 21.492-9.62 21.492-21.49s-9.624-21.492-21.492-21.492c-11.87 0-21.492 9.623-21.492 21.493 0 11.869 9.623 21.489 21.492 21.489z"/>
    </g>
    <g fill="none" stroke-width=".406">
      <path d="M327.093 155.34c-4.77 21.094-.754 30.637 6.28 39.928 14.53 19.205 26.116 63.033 9.541 91.658"/>
      <g stroke-linecap="round">
        <path d="M352.202 262.2c2.008-.754 5.775-3.14 6.655-7.283m-5.15-1.883c.627-3.641 6.276-5.21 6.402-9.102m-6.277-5.094c-.377-3.767 5.651-7.157 4.77-10.924m-8.031-2.632c-.503-2.135 5.022-6.153 3.517-9.543m-7.658-3.639c-1.131-2.386 2.635-5.148 1.004-7.66m-7.034-2.894c-.377-1.632 1.947-5.21.692-7.344m-6.722-5.081c.501-.628 2.513-2.135 1.694-4.018m-5.835-5.085c.816-.44 3.263-1.193 2.95-3.013"/>
        <path d="M204.54 416.764c-5.023-1.759-11.3.754-12.556 5.024m3.766 3.891c.627-4.267 7.157-6.152 9.165-4.144-4.143-2.258-6.152 5.776-2.511 6.029m33.781-101.202c-3.013 1.507-3.89 7.031 0 11.176m4.515-9.92c-2.131 1.758-2.008 7.031 1.132 8.287-2.636-1.883 0-5.148 1.885-5.274 1.881-.125 3.136 2.135.877 4.395m172.526 5.017c-7.029-1.882-12.68 6.279-6.278 13.563-.124-7.033 4.898-11.678 11.05-10.424m-2.829 4.864c-1.729 0-2.7 1.352-2.7 2.668 0 1.381 1.192 2.7 3.139 2.7 1.257 0 2.262-1.442 2.262-2.573m22.096-156.954c1.13 4.269 7.032 6.027 11.676 5.022m0-2.76c-3.64.126-6.653-3.265-6.403-6.153 0 2.135 4.898 3.14 6.403 1.758" stroke-linejoin="round"/>
        <path d="M206.295 339.544c-1.004-2.512 3.014-5.024 3.14-7.41.125-2.385 4.52-4.268 9.04.252m-2.134-26.741c-.878.377-1.632.879-2.385 1.13m11.051 12.551c-1.067.064-3.264-.062-4.458-.879m.067 5.653c-.88.44-2.826 1.193-3.956 1.444m-39.116 74.395c-.126 2.262 2.135 5.525 3.39 6.53m6.407-11.928c-1.256 1.882-2.009 5.148-1.256 7.407m19.96.128c-2.26-1.508-.753-5.401-1.004-7.91-.251-2.513 2.637-6.53 8.287-3.14m-28.374-3.263c2.26-.377 4.646-.253 6.153.374m22.473-7.534c-1.004 1.381-1.255 2.89-1.38 3.893m11.926-4.143c-1.758 0-3.265 1.255-4.018 2.512m-20.342-66.799c2.01.69 7.22 3.892 7.409 7.22m13.94-23.546c-6.152-.125-8.538-6.403-3.892-6.403m14.945 14.812c-2.386 1.004-1.255 5.148 2.135 7.157m-16.831 32.272c-1.193-1.505.377-5.899 4.27-4.583m4.895 50.415c.25-3.828 5.086-6.09 7.033-1.758m-24.863 12.678c-.315-4.205 1.82-5.586 3.703-5.837 1.884-.25 4.584 1.317 5.84 4.08m-46.96 4.901c.251-2.512 2.386-5.148 4.646-4.771m225.134-106.73c-1.635 1.193-2.7 6.53 3.513 7.032m-13.053 1.759c0 .627.816 1.506 1.32 1.883m28.313 8.163c-1.632-1.255-5.84 3.83-2.009 7.534M381.334 357c-.942-3.578 2.386-4.52 5.525-3.767M373.3 331.635c1.882-1.256 3.767-2.637 6.153-3.265m-7.159 17.07c0-3.012 1.505-5.521 2.886-6.275m8.159-28.372c-.25 3.641 1.258 7.157 2.389 9.04m27.501-8.79c-1.824.565-3.455 1.255-4.144 2.762m2.131 7.534c.881-.754 1.885-1.633 2.324-2.26m45.14-107.361c0 3.515-4.395 5.399-7.28 3.138m16.826-3.014c1.944 1.507 8.661.064 7.092-3.829M460.06 232.06c-1.382-.251-3.767-1.758-4.771-3.013m18.584-7.407c-2.258.501-3.766 0-4.897-.503m-30.764 13.06c1.254 0 4.267-.502 6.34-1.569m-10.107-20.653c-1.632-.188-2.828.126-3.767.753m29.07 5.393c-.44 1.57-1.57 4.018-2.951 5.086"/>
        <path d="M430.178 223.652c3.14-1.382 7.033 9.29 14.566 5.524m.628-11.055c-1.004 1.382-1.631 3.516-1.758 5.4" stroke-linejoin="round"/>
      </g>
      <path d="M295.2 201.804c1.003-.126 2.762-.502 3.139-1.758M165.992 318.702c3.768 2.135 6.405 5.776 4.772 11.175m167.873-139.625c1.131.753 5.402.753 7.787-.125m3.016 2.637c-.126 1.758.377 8.412-3.012 9.793m1.257-.878c3.14 1.005 9.419.628 11.427-5.148m-4.399 4.891c1.632 2.51 2.132 7.408-2.762 10.044m4.018-5.895c3.64 1.256 12.054 1.381 11.173-5.776m-2.882 5.776c2.513 3.516 13.563 7.66 11.804.377m-21.974 9.787c4.266 1.004 10.295-1.884 7.783-9.417m12.051 3.769c.628 2.888 14.69 5.902 12.809-.627m-2.637 3.77c2.639 6.028 16.575 5.525 12.18-2.51m-2.259 6.27c2.763 3.39 15.07 1.382 10.173-6.78m-.134 6.656c7.66 5.775 16.575-2.512 6.906-8.539m4.396 6.659c6.783 5.399 15.07-4.395 9.168-7.157m-62.786 4.895c2.136.628 6.657.376 7.661-3.516m-1.693 2.634c-.25 5.714 9.357 7.911 11.804 1.32m-3.201 3.578c1.759 3.768 10.17 5.274 11.55-.125m-1.379 2.513c1.382 3.767 8.665 3.39 10.673-.503m-2.639 2.515c2.26 4.897 11.55 4.897 13.686-2.26m-1.627 3.134c3.64 2.26 11.427 1.38 10.797-5.65m-1.507 5.026c5.398 4.395 13.059.125 9.292-7.283m-.377 13.055c2.89-.503 4.394-6.278 1.382-7.785m-68.306 8.791c6.026-3.265 7.157-8.79 3.013-14.188m2.135 8.665c3.767 2.26 10.924-.125 12.179-5.65m-7.031 6.275c2.132 2.762 2.51 6.152-.253 9.29m2.008-5.773c6.653-4.143 14.94 3.516 8.789 8.162m-1.129-8.536c1.508-.377 4.144-3.14 4.394-6.278m-1.383 9.164c2.762-2.888 21.6 3.014 9.669 9.04m-.879-16.949c3.64 1.38 5.525 6.53 0 8.287m4.774 4.271c4.017-4.144 16.575-1.507 12.054 3.767m-3.014-5.405c2.259-7.66 15.695-2.888 11.3.25m-14.061-7.91c.377 1.507.5 5.274-2.008 7.283m13.31-8.788c.5 1.255.377 3.64-.754 5.148m9.287-5.023c.754 1.38 2.009 4.017-.754 6.152M312.78 165.51c.124 7.157 2.636 11.929 12.305 7.409m-9.294 1.132c-4.77 6.404.627 13.31 10.046 6.404m-24.741-3.268c6.53 7.031 18.207 1.883 10.673-8.79m7.914 14.819c-1.257 6.906 4.394 8.288 9.039 5.148m-33.398-10.046c1.19 6.943 8.288 12.43 15.194 8.162m-6.653 1.385c0 9.92 13.686 11.05 16.825.754m-4.899 6.274c4.394 9.04 13.936 5.4 17.076-.125m-26.747-14.313c1.757 4.395 5.274 9.292 13.435 5.65m-38.544-7.787c1.131 3.641 7.66 8.036 15.194 3.013m-10.553 1.636c-4.02 5.901 4.017 11.426 13.686 2.637m-8.912 4.648c1.631 8.288 4.894 14.942 16.698 4.27m-5.904 4.263c4.271 5.274 10.8 8.538 16.953-.376"/>
      <path d="M322.694 200.29c-.377 6.279.878 9.418 5.775 9.166 3.861-.197 7.534-3.264 9.67-6.529m-10.546 6.536c-.127 7.158 5.521 12.808 16.07 5.525m-11.679 2.884c-2.009 5.399 4.017 14.188 15.82 9.668M307 203.559c-.75 6.906 5.652 11.552 15.948 2.637m-10.924 5.022c.377 5.65 6.78 12.431 16.198 2.637m-11.682 4.524c-.754 9.668 8.161 12.43 15.694 5.022m-29.126-12.183c2.009.126 3.64-1.632 4.645-2.888m-.378 9.916c1.758.377 4.774-1.256 5.778-3.264m-1.379 14.691c2.009 2.135 8.788.628 9.666-2.26m-2.131 2.135c3.767 8.79 13.81 8.413 17.953-1.506m-1.885 3.518c1.882 5.149 6.656 8.413 14.44 6.655m-10.673-1.381c-4.394 7.157 1.382 15.57 11.174 7.282m-8.787 3.388c-.5 4.52 3.643 9.668 9.292 10.296m-27.879-23.478c-1.508 10.17 5.775 15.068 14.943 9.668m-25.614-4.77c2.386 1.884 6.656 2.135 10.673.628m4.896 5.901c-2.262 8.539 6.53 14.691 14.063 5.148m-26.239-10.296c.127 4.395 4.398 9.166 11.804 7.785m20.715 8.79c-5.025 3.39-6.03 9.417 1.004 13.309m-13.313-15.072c.254 5.148 2.64 8.036 8.288 8.538m-15.69-11.174c-7.534 6.906-.127 14.942 8.788 8.162m-3.515 2.134c-2.512 7.91 6.906 12.682 11.927 4.646m-27.496-21.471c-2.763 7.785.754 12.933 7.156 12.431m-17.078-13.936c.377 4.646 4.394 6.278 8.915 5.273m-6.029-.375c-3.39 6.53 1.759 10.045 8.541 7.534m20.592 14.563c-1.13 4.144-.503 7.158 5.649 8.54m-5.274-2.635c-7.41 3.39-8.037 10.548-2.262 15.193m-3.705-23.164c-3.89 3.515-3.14 9.604 1.13 11.99m-34.085-34.907c-4.27 4.207-.189 15.82 9.226 9.481m15.258 5.207c-5.779 4.771-3.14 13.435 6.402 11.049M316.665 257.8c-3.013 8.539-.124 11.552 6.656 11.677"/>
      <path d="M295.449 246.373c-5.148 3.892-3.767 9.417-1.505 11.928 2.259 2.512 6.526 1.382 7.908-1.883m-17.206-13.43c-5.775 7.408 0 16.197 8.164 13.56m22.732 8.412c-5.902 2.135-10.404 7.494-6.783 12.18 2.135 2.763 11.427 3.14 14.062-7.534m-17.958-11.556c-3.39 4.897-2.262 9.543 4.017 11.928m-4.391-2.756c-3.643 2.01-6.029 4.395-5.148 8.79m-3.011-16.449c-1.381 5.901.25 9.543 3.89 11.3m-4.015-4.273c-5.651-.376-8.537 2.01-6.656 7.534m.502-6.153c-5.525-2.009-6.406-6.78-4.02-11.803m-.753 7.412c-6.03.25-8.665 3.264-8.665 7.408"/>
      <path d="M277.111 240.094c-4.394 1.883-5.775 7.785-4.144 11.05 1.635 3.264 6.783 3.515 9.923 1.38m-18.08-17.071c-4.017 4.52.628 13.31 7.788 11.175m-18.083-14.693c-3.767 5.274.377 14.064 10.045 11.552m.5 24.484c-1.004-6.278 5.525-10.421 13.563-2.26m-3.891-12.677c-2.385 2.135-3.513 5.525-3.14 8.288m-27.373-32.398c-4.144 7.032.88 13.436 9.795 10.924m13.433 6.525c-5.902 5.901-3.894 11.803.5 15.193m-4.267-8.282c-8.915.125-9.416 10.421-2.132 13.686m-4.647-23.982c-3.64 2.511-4.77 9.417 1.508 12.18m-1.757 3.264c-3.767-1.758-8.288.376-7.911 4.771m2.256-4.646c-3.39-8.037-13.31-6.655-12.428 1.632m15.189-11.554c-2.132.377-6.403 1.632-8.034 4.897m.632-13.937c-4.017 4.52-.881 9.919 2.385 11.05m-14.311-23.733c-.754 5.4 1.38 8.036 8.16 7.534m-5.781-.623c-2.64 6.529.877 9.417 7.657 9.04m-6.152-1.006c-4.017 4.771-1.255 9.92 2.636 12.054m-4.516-6.025c-7.156-.879-8.287 7.408-5.902 11.3"/>
      <path d="M230.654 226.288c-4.393 1.883-6.904 7.408-4.518 10.798 2.386 3.39 7.157 2.26 9.793.502m-8.285 1.001c-3.641 5.524-.377 9.668 3.516 11.3"/>
      <path d="M213.58 225.656c-2.887 3.014-1.13 9.167 5.902 9.292 5.661.102 8.538-5.273 6.78-9.04m-7.783 9.038c-2.26 5.023-.88 10.422 7.659 9.542m3.642 7.914c-5.273-2.385-12.305 0-9.29 6.279m-.756-15.194c-2.134 3.013-1.38 7.283 1.005 9.92m-1.379-1.887c-3.516.629-6.906 2.512-4.772 8.037m-.508-4.518c-4.52-1.381-10.297 1.883-6.781 6.529m-.747-4.392c-3.892-.628-8.537 3.515-4.77 7.66m-1.509-3.393c-3.515.879-7.659 4.897-4.018 8.036m21.725-27.747c-5.023 2.26-5.526 7.91-3.14 12.054m-2.141-22.475c-7.534 2.888-7.408 12.933.879 16.072m-3.516-2.266c-4.52 2.637-5.399 7.66-2.385 10.924m-5.524-28.497c-3.014 1.004-2.762 10.296 5.274 10.045m-13.557-6.909c-6.028 4.017 1.255 14.188 11.05 6.905m-5.403 2.509c-.879 4.144.251 8.664 6.906 9.167m-6.532-3.637c-4.771 1.758-5.65 11.552 3.014 12.305m-18.2-21.22c-6.153 5.65 5.022 10.547 9.166 2.386m-17.707 7.028c-3.014 3.642 7.533 13.185 12.18-2.762m1.126-.248c.251 3.766 2.512 6.026 7.157 6.278m-.121 3.643c-7.408 1.13-9.794 10.422-1.507 12.431m-12.182-13.687c-.251 3.516 3.39 6.404 7.534 5.776m3.769 7.656c-6.78 1.507-7.66 10.296-1.633 9.794m-3.141 8.161c-5.651-1.694-5.777-8.413-.754-10.923"/>
      <path d="M184.705 277.26c-4.771 2.889-2.888 9.795-.377 10.8 2.511 1.004 4.52-.252 4.772-2.386m-.378 9.667c.502 3.265-11.615 2.01-5.4-8.16m-.068 8.729c-4.08 6.404 2.574 11.615 6.78 6.154m-6.211 1.569c-1.632 5.148 4.583 8.853 8.6 4.834m-22.163-53.054c-2.261 4.646 9.04 6.404 9.793-3.14m-12.93 10.051c-2.26 9.04 14.817 7.157 10.422-4.52m.374 6.026c2.385 1.38 9.543 1.506 11.3-6.153m-5.146 6.402c.502 2.385 2.637 5.273 4.645 6.152m-12.804-3.765c-.753 4.897 4.143 8.915 9.794 8.538m-8.92-3.764c-2.762 3.766-3.642 11.049 5.023 11.551m-18.205-10.296c-1.382 3.893 6.78 7.91 11.551 1.507m-14.063 8.407c-.691 2.951 6.655 6.906 10.798-5.65m-3.263 6.406c1.758 3.14 7.66 5.65 11.3-.502m-5.903 3.771c-1.506 4.394 2.637 8.538 7.66 7.282m-17.074-8.289c-1.005 6.279 6.278 9.92 10.798 6.655m-15.572-3.893c-2.134 8.036 8.162 11.05 12.054 5.022m-2.632 2.388c.378 4.52 7.41 8.412 12.934 4.646m-25.491-.879c-.502 2.009 7.91 4.018 9.165-3.014m-4.267 4.769c2.009 5.148 8.79 6.404 12.682.126m-2.261 2.51c.879 4.772 7.032 7.408 12.43 4.144m2.258 1.886c-1.382 6.404 5.273 11.552 9.416 8.036m-20.087-9.167c-2.009 7.032 6.78 11.05 11.677 7.157m-22.223-10.675c-.502 6.53 4.646 10.422 10.547 7.533m-21.724-6.901c-1.758 4.269 7.534 7.785 11.928 4.144m-17.708 7.532c2.386 2.763 10.673 0 11.426-6.152m-2.253 4.514c3.013 3.516 10.17 5.4 13.059-2.134m-2.514 3.897c-.125 5.4 9.544 9.292 12.682-.628m11.358 1.947c-.88 2.636 1.193 6.842 5.525 7.344m-13.497-8.974c-.627 3.013 3.768 7.218 8.414 5.524m.884 1.253c-1.255 3.265-.189 7.973 4.206 7.91m-3.769-1.817c-3.265 2.761-1.884 7.66 2.826 7.848m-4.519-3.208c-4.646 3.138-3.013 10.044 3.14 9.67M178.3 321.463c0 6.78 8.413 7.785 10.046 1.507m-3.267 4.016c-1.256 4.018 2.009 7.91 7.157 6.78m-6.151 41.689c1.13 1.635 5.776-1.128 4.52-3.89-1.255-2.763-6.176-1.261-5.65 1.631m4.515-2.764c.628-5.525-5.901-6.403-7.533-1.632m2.385-2.76c1.633-2.762-3.892-6.529-6.152-2.512m2.01-1.638c1.507-4.02-4.77-5.775-5.273-2.135m-1.38-5.275c.754-2.008 7.785-.753 4.772 3.39m5.399 5.027c2.763-2.512-1.883-7.66-4.77-5.775m23.35 13.434c-2.198.25-4.458 1.694-2.826 6.341 1.132 3.224 5.965 3.39 6.655 1.443"/>
      <path d="M199.08 372.88c-2.135-1.38-6.78.943-4.646 5.464 1.607 3.403 5.65 2.009 6.278.25m-13.628.753c1.066 1.882 6.402 1.07 7.345-1.004m-3.703-5.213c1.13-.754 3.202.186 3.641 1.128m-4.015-32.078c-3.641 2.386-1.381 9.669 4.269 7.784m-5.401-1.879c-2.887 2.258-.25 9.292 5.149 6.656m-4.267-.003c-2.009 2.009-.063 7.595 5.149 6.53m-5.905-3.768c-1.13-.504-4.082-.127-5.338 1.754m2.077-27.183c-2.762 2.637-1.444 8.037 3.704 8.476m-4.71-2.953c-3.956 1.946-3.956 9.792 3.955 10.107m-4.267-1.254c-2.197 1.758-1.13 8.538 4.52 7.657m-2.703-.247c-.816.815-.942 2.889-.25 3.767m-2.261-6.341c-2.009.062-4.646 1.508-5.337 3.578m-3.641-7.283c.753-2.009 6.97-1.882 7.408 4.02m.626-7.031c-.88.188-2.574 1.004-3.013 2.7m.314-21.092c-2.7 2.448-4.018 10.17 4.206 11.676m-9.666 4.267c0-2.074 5.588-3.832 7.534-.754m-11.114-10.486c.816 1.57 4.708 3.705 7.094 1.947m-27.311-14.248c-.126 3.642 2.888 6.906 7.031 6.404 4.144-.502 5.023-4.144 3.767-6.53m-3.139 6.655c-2.762 3.39.628 8.162 3.767 6.78m-.624-9.166c1.633-.629 7.032-1.382 8.665 1.13m-26.12-.125c-1.257 1.884 6.529 3.767 9.165.126m-2.637 1.879c-.252 2.511 1.004 6.78 7.408 5.023"/>
      <path d="M159.464 334.645c1.004-2.134-3.767-5.65-7.408-1.758-3.642 3.893.502 8.288 2.762 6.78m-12.054-13.43c-1.883 3.265 5.4 9.23 9.543 3.705"/>
      <path d="M137.928 331.884c-2.637 2.7.628 7.66 4.584 6.152 3.955-1.506 3.578-5.65 2.637-6.716"/>
      <path d="M132.843 336.907c-2.135 1.946-.064 6.528 2.887 6.528 2.95 0 4.772-2.32 4.206-5.271m4.895-1.631c-.377 2.888 3.892 4.896 6.655 2.199m.131-5.28c.377-.628.064-1.696-.564-2.198m-22.789 9.546c-2.448 1.946 2.826 7.345 6.153 2.385m12.739-3.454c-1.57 1.505.94 5.46 3.452 4.267m-12.048-1.506c.377 2.698 5.65 4.706 8.978.566m-6.092 2.133c-.816 1.696.817 4.397 2.825 4.02m47.149 11.494c-1.945 3.829 4.27 8.288 8.79 3.64m-4.273 2.07c-.942 2.07.188 4.96 1.883 6.025m-7.78-1.696c.44-1.885 3.139-3.644 5.588-2.763m-8.856-2.198c.376-1.693 2.636-3.39 4.332-2.948m143.516-75.403c-8.914.126-5.148 14.44 2.513 11.552m-5.399-.999c-1.758 2.888 1.632 7.472 5.399 4.772m-.999.563c-2.64 4.395 6.78 11.112 10.546 4.206m-3.012 2.635c.124 4.144 12.178 6.78 10.423-1.507m-1.133 4.518c2.886 4.897 13.686 5.4 12.555-1.883m-2.383 5.026c2.261 3.265 12.808 5.274 12.43-1.507m-55.253-39.801c1.505 3.892 6.653 5.273 12.305 3.013m-15.565-.252c3.516 2.26-1.632 12.556-7.03 8.412m7.03-2.008c3.893 1.883 8.664.502 10.046-5.023m-2.386 4.266c.377 2.888 4.52 5.148 9.919 4.018m-19.591-.999c5.024 4.269-2.26 13.058-5.525 9.04m7.412-5.78c2.386 1.758 8.538.753 9.165-3.892m-2.761 3.892c.504 3.013 2.89 4.143 6.279 4.27m-14.063-.128c2.509 3.516 8.788 4.52 11.55-.126m-2.768 2.637c-.25 3.39 3.517 6.153 7.41 5.4m-21.091 2.135c3.263 1.632 6.78-4.52 4.017-8.789m-.25 15.317c3.894.252 4.395-5.65.755-8.915m8.161 14.313c3.266-.753 2.259-7.91-5.652-8.538m15.566 13.819c3.14-.88.627-8.79-8.034-8.287m19.968 11.048c2.132-3.264-4.898-8.789-10.673-5.901m16.569 10.417c3.894 1.13 6.53-9.165-5.775-7.533m12.935 7.533c3.394-.878 5.78-7.031-4.14-5.022m11.676 5.529c3.012 1.507 4.394-7.282-4.775-4.896m-45.831-22.482c3.766 2.135 9.668-.376 9.164-5.148m-1.505 4.15c1.258 2.26.754 6.655-1.632 7.785m2.006-2.512c2.513 1.004 5.902.126 7.911-3.892m-3.511 3.892c.75 1.758 1.004 5.274-.63 7.032m1.261-4.022c2.763 1.507 6.026-.502 7.407-3.39m-1.759 2.51c2.008 1.255 3.766 7.156.377 9.543m1.885-2.758c2.385.126 5.902.126 8.16-2.888m-1.632 1.633c2.135.627 4.644 4.143 3.767 7.282m.125-1.136c2.39-.251 6.53-1.884 7.66-4.772m-1.131 1.886c2.012 1.13 3.393 3.515 3.14 6.278m-.004-2.012c2.385-.125 4.52-1.38 5.147-4.018m-.624 1.764c1.759.628 3.894 2.637 4.02 5.023m-.252-1.513c1.758-.251 3.013-1.381 4.144-3.139m4.771-.246c2.262 2.26-.75 9.794-5.398 8.413m-42.821-160.598c-4.648 2.762-17.833 1.883-11.304-9.04m12.56 1.63c-9.165 3.64-20.47-3.39-8.665-11.05m-3.137-2.507c-7.66 0-12.808 12.305-2.509 16.574m-27.248-11.426c-2.008 3.892 5.148 8.161 10.046 4.27 3.793-3.016 3.513-11.176 1.254-14.315m-15.192 19.335c-2.512 8.287 15.948 8.789 13.059-4.395m-14.065 16.703c.627 6.278 17.706 4.27 12.178-8.413m2.01-3.521c1.381 1.884 5.148 5.148 11.55 4.52m-8.539-13.435c.565 2.26 4.394 4.018 9.292 2.323M125.877 342.617c-4.331 3.078 2.324 7.91 4.771 2.574m-8.164-.187c-4.331 3.074 2.324 7.907 4.772 2.57m-8.352-.246c-4.333 3.078 2.322 7.91 4.771 2.574m-8.538-.437c-4.144 2.197.69 7.596 4.896 2.825m-8.976-.75c-4.144 2.194.691 7.595 4.897 2.824m16.14-9.298c-.064 3.201 6.027 4.52 8.223-.253m-4.393 3.209c-1.884 2.386 1.57 5.337 3.453 4.268m-11.557-4.712c-.19 2.7 5.084 4.27 7.659 1.32m-4.766 1.512c-1.695 2.196 1.632 5.147 3.767 4.266m-10.17-4.649c.187 2.135 3.2 4.582 6.466 3.201m-4.524-.315c-1.256 1.13-.628 3.77 1.13 4.586m-7.659-4.773c-.502 1.946 2.826 5.401 6.216 3.14m-5.529-.878c-2.01 1.57-1.759 3.955.815 4.267m-5.644-4.517c-.25 1.316 1.445 3.452 3.58 3.201m-14.321-3.326c-2.008 1.066 3.14 6.53 6.341 1.443m-11.301.812c-2.511 1.195 3.704 7.221 6.467 1.069m9.796-1.319c-1.947.439-3.202 3.266-1.57 4.394m-4.772-3.388c-.25 1.131 2.135 3.013 4.082 2.324m-5.712-1.817c-1.883 1.193-.879 4.518 1.319 4.017m-8.035-1.825c-1.758 1.316-.565 3.955 1.884 3.328m1.314-3.515c.064.689 1.633 1.758 2.952 1.32m-12.241-2.451c-2.197.942-2.072 6.467 5.337 3.454m-10.298-1.255c-3.077 1.508-2.072 5.652 4.646 1.697m.564.316c-.816.627-1.694 3.39 1.381 2.32m-7.028-1.01c-1.255 1.131-.439 3.455 2.324 2.574m-8.79-2.191c-2.26 1.319 2.699 3.077 6.027-.44m-4.522 2.07c-1.005 1.004-1.005 3.955 1.632 2.889m-8.036-1.696c-1.506 1.13 1.067 2.639 5.776.565m-3.896 1.065c-1.758 1.443-1.57 3.263 1.004 2.698m-6.215-1.879c-1.945 1.758.88 2.951 4.27 1.505m-4.207.445c-3.328 1.505-1.883 4.267.188 3.201m110.939 6.401c-.772 1.66 1.758 3.013 4.143 2.636 2.292-.361 4.484-2.25 2.763-4.895m.121 3.265c2.26 1.758 6.278-.25 6.278-2.89"/>
    </g>
    <g fill="#fff" stroke-width=".406">
      <path d="M331.984 116.667c-10.046-5.023-30.888-14.315-36.79-6.78 5.398-2.26 21.219.125 34.278 12.18l2.512-5.4z"/>
      <path d="M338.076 116.137c-11.616-13.531-18.457-10.502-26.81-15.163-7.845-4.379-20.341-5.274-22.762 1.69 11.463-5.582 21.986 3.003 28.45 4.041 8.879 1.426 13.89 8.29 16.488 11.447l4.634-2.015zm43.758-1.732c-6.03-13.812-18.918-10.205-24.612-16.072-8.285-8.538-29.253-16.448-37.918-10.547 19.084-1.005 27.212 13.155 37.417 18.081 7.283 3.516 15.067 11.05 25.113 8.539z"/>
      <path d="M359.237 112.9c-10.296-12.808-26.12-24.109-33.4-19.84 9.542.502 12.555 7.157 19.338 11.427 6.779 4.269 3.766 10.421 14.062 8.413zm-48.976 22.604c-10.8-4.018-31.893-6.027-41.688 6.278 16.325 2.763 40.934 1.256 41.688-6.278z"/>
      <path d="M308.256 140.278c-10.8-5.023-19.233 1.992-29.383 1.004-19.335-1.884-33.147-.754-34.905 8.538 11.05-9.919 29.634-1.758 37.167-3.766 7.534-2.01 35.409-.252 44.197 3.515-4.52-5.524-11.55-7.031-17.076-9.291zm33.899-28.759c-2.509-8.287-2.385-17.076 10.046-16.449-3.14-3.892-14.69-5.9-16.575 8.665-13.686-10.045-28.63-11.803-31.389-3.14 7.03-6.026 17.953-1.632 31.011 13.185 1.131-.628 4.144-1.883 6.907-2.26z"/>
      <path d="M323.326 122.946c-7.784-5.022-18.333-13.184.127-16.449-7.911-4.269-19.464-2.385-18.207 12.18-21.096-8.539-36.244-5.657-39.429 2.762-3.516 9.292 9.546 14.44 11.804 8.539-2.386 1.004-10.547-1.758-6.28-7.032 4.271-5.273 26.15-1.314 46.963 9.544 5.775 3.013 25.614 2.51 5.021-9.544z"/>
      <path d="M317.796 136.76c-6.006-12.263-25.49-1.13-29.416-13.009-5.366 17.403 27.706 7.773 29.416 13.009zm123.934 13.307c4.085 2.03 7.618-1.162 1.368-3.665 4.089 2.03 7.654-1.086 1.404-3.59 4.089 2.029 7.654-1.086 1.404-3.59-1.667 1.678-4.053 7.831-4.176 10.844zm2.13-23.603c9.04-9.543-.752-12.808 10.295-22.601 9.042-8.013 1.726-13.354 10.3-19.589 2.762-2.008 8.787-6.026 9.291-10.044 3.64 9.04-11.303 10.296-10.299 24.861.64 9.274-5.629 8.464-8.034 24.108-.504 3.265-2.762 10.548-11.554 3.265z"/>
      <path d="M447.884 130.73c5.021-10.798 10.787-10.59 13.559-14.816 5.274-8.036 16.448 1.382 25.867-5.776-1.632 10.17-14.313 6.53-19.838 13.06-5.525 6.528-10.046 9.542-19.588 7.533z"/>
      <path d="M449.14 134.248c8.791-7.032 15.268-2.34 21.346-6.027 15.318-9.292 21.473 1.883 35.158-2.511-3.643 8.789-23.858 1.256-32.646 7.785-8.791 6.529-39.679 12.807-23.858.753zm-25.615 50.099c-.127-4.018-3.894-9.166-9.169-9.793-5.271-.628-7.533-6.153-11.55-6.404-4.017-.251-6.656-8.287-12.181-8.162-5.525.126-7.784 7.283 5.148 13.812 12.935 6.53 27.248 14.064 27.752 10.548zM407.2 187.74c-5.526.252-6.28 8.288-11.551 8.54 7.28 3.892 12.555-1.759 16.321-6.781l-4.77-1.758z"/>
      <path d="M411.723 188.739c-4.77 4.018-6.152 12.43.754 14.816-4.144-5.713 7.283-8.288 3.767-13.561l-4.52-1.256z"/>
      <path d="M416.489 188.996c-3.767 7.283 5.902 8.161 3.39 13.687 5.525-1.256 6.405-11.677 1.38-14.44l-4.77.753z"/>
      <path d="M379.572 173.42c9.041-.502 17.31 4.389 22.854 12.305 3.516 5.022 15.317 7.031 19.337 3.013 4.017-4.018 1.759-12.556-8.287-9.793-2.512-4.27-9.795-2.763-13.31-6.279-3.516-3.515-17.078-13.56-20.594.754z"/>
      <path d="M413.478 178.95c-2.385.502-3.14 4.646-1.635 6.78m6.783-4.269c.754 1.256.25 3.014-.127 3.893m-24.607-11.552c4.645.251 5.525 3.642 10.547 4.897" stroke-linecap="round"/>
      <path d="M390.82 162.375c16.045 4.018 28.775 7.534 36.67 12.054 7.894 4.52 20.117 5.776 30.812 2.763 10.696-3.014 31.32-5.776 30.303 7.533 5.607-6.655-1.527-13.812-15.788-15.068.256-6.529-6.731-12.43-11.756-8.538 4.648-.628 8.658 8.036-.507 11.552 1.781-6.53-4.712-12.431-11.46-9.543 4.33 1.255 8.708 8.515-.978 11.3-6.113 1.759-15.025-.502-21.645-4.52-6.62-4.018-43.8-18.583-35.652-7.533z"/>
      <path d="M431.309 155.846c-5.021 2.26-1.758 7.534-9.542 10.547-7.787 3.014-13.185 9.92-11.427 15.821 5.275-11.552 14.567-11.05 17.83-15.57 3.266-4.52 8.037-11.174 3.139-10.798z"/>
      <path d="M432.69 156.595c-.25 9.166-7.466 5.827-4.648 18.71.88 4.017 2.512 10.546-.25 17.076 8.099-5.902 2.89-18.3 6.529-22.978 1.758-2.26 4.017-5.776 4.898-8.79-1.885 5.274-1.758 15.069 3.39 17.58-4.144-9.795 11.176-17.83.627-29.131-1.505 2.762-6.28 7.66-10.547 7.534zm-25.616-9.165c1.258 1.884 2.513 6.655 1.382 9.292 2.512-1.506 6.155-5.399 7.283-8.036 5.148.753 7.156 7.157 2.262 9.92 3.013 0 8.161 0 11.047-3.39-3.513-3.893-14.436-9.92-21.973-7.786z"/>
      <path d="M328.973 129.42c-.812-.74-2.184-1.444-4.644-1.95-7.602-1.559-3.676-8.411 2.795-8.35 13.809-15.068 21.564-3.453 38.389-8.224 5.889-1.67 9.932-1.176 13.14.212 7.533-5.023 16.37-3.62 22.776 2.282.712-1.132 1.667-1.996 3.01-2.368 5.898-1.639 10.669 3.39 12.3 9.92 4.6-.852 9.851 1.425 13.306 4.564 4.784-2.457 8.08-2.567 9.292-.04 4.27-2.01 9.802-3.27 12.564 3.511 2.763 6.78-6.529 4.772-8.037 19.086-.93 8.83-10.797 12.305-18.583 7.032-12.455-8.437-24.61-9.795-30.638 3.013-6.025 12.808-10.748 20.249-25.363 16.072-5.272-1.507-12.054.502-16.322 6.278-4.27 5.776-10.8.377-18.583 1.005 9.792-1.507 6.042-3.97 14.566-4.52 7.784-.503 5.776-7.785 10.797-8.79-19.588 5.023-18.834-2.26-34.905 2.762 7.03-9.04 18.08-4.018 23.605-9.291-14.566-.251-21.08-9.767-27.625-5.776-10.296 6.278-5.778 24.153-32.646 22.601-13.059-.753-21.346 1.005-29.13 8.79 13.563-28.126 32.01-12.674 40.934-21.596 5.275-5.274 9.292-9.293 12.054-14.315.972-1.768 2.288-2.778 3.932-3.169-22.35-7.032-8.833-17.985 13.017-18.738z"/>
      <path d="M439.327 125.465c.342.707.517 1.623.517 2.756 0 5.524-8.287 5.776-8.788 13.938-.263 4.269-.754 6.654-3.643 6.152-2.886-.502-5.399-5.022-2.636-10.296" stroke-linecap="round"/>
      <path d="M333.115 121.191c-2.08-1.462-4.16-2.055-6.026-2.073m51.515-8.051c6.65 2.878 9.893 9.785 19.553 10.124 9.298.326 15.07 13.812 30.637 5.022.423-.238.835-.46 1.235-.666m-28.602-12.156c-1.388 2.207-1.703 5.287-1.323 7.99m-29.066 20.402c-11.8 0-14.816 6.027-14.816 11.803 0 5.776 5.525 13.31 15.32 13.31 9.792 0 15.068-6.027 15.068-12.557s-6.03-12.556-15.572-12.556z"/>
      <path d="M373.168 166.642c-.25-3.265-6.152-2.763-5.902-5.274.25-2.512 3.266-3.516 3.266-7.032s5.272-3.767 7.03-1.004c1.758 2.762 7.033 8.16 8.164 5.399m-8.159-5.396c-2.762 2.762-4.017 8.412-.377 12.807m4.144-8.541c-.877 1.884-1.127 4.772-.123 6.53"/>
      <path d="M428.228 148.374c9.23.753 10.8-9.418 3.893-10.045m-15.25-17.388c-3.201-4.08-10.546-5.461-10.673 3.203" fill="none"/>
      <path d="M405.32 133.999c-3.14-7.785-11.177-8.916-15.448-5.023-3.552 3.24-3.64 11.677 4.02 13.435 2.636-3.138 7.784-7.282 11.428-8.412zm-3.456-4.899c-4.52-4.018-11.177 3.579-5.148 10.547m-80.846 8.477c3.025-.718 7.448.763 14.231 3.953 4.27 2.01 17.079 6.278 25.113 2.01-8.288 3.012-14.563-9.544-20.842-8.037-6.28 1.507-17.768 3.83-22.6-.754 11.8.754 18.147-8.596 31.638-.502 3.77 2.26 8.541 3.767 12.809 3.516-11.048-13.31-25.614-4.772-27.122-15.57 6.656 7.157 22.916-1.632 31.203 11.803m-28.815-9.796c-1.554-1.933-.852-3.86-2.519-5.386"/>
    </g>
    <path d="M416.871 120.941c-2.762-2.95-8.788-.628-7.095 5.337 1.32-2.762 4.144-5.085 7.095-5.337zm-17.074 16.084c1.901-1.38 3.864-2.514 5.519-3.028-.904-2.234-2.207-3.92-3.712-5.097-1.436-.992-5.564 4.559-1.807 8.125z" stroke="none"/>
    <path d="M392.38 126.838c-4.521-3.013-8.665-2.762-10.046-.25-3.263-.126-5.964 2.26-6.09 7.03m6.97 2.011c-5.398-3.704-12.808-2.323-12.304 5.964m-3.265 4.707c2.636-2.135 6.403-3.642 9.293.125m31.018-8.285c-1.004 1.381-1.758 3.516-.127 6.78-2.008-2.636-7.03-2.636-12.432 4.395m24.485-11.549c-6.53.753-6.402 5.022-1.131 6.906m-45.326-22.857c-5.525-1.13-9.541 2.135-1.881 4.897m12.426-8.664c-7.786-1.884-10.925.125-7.41 1.883m-15.069 29.387c-.25 2.762 1.255 6.404 5.776 2.26m-4.263 6.023c0 .754-.126 1.632-.63 2.26m-17.458-39.052c-4.77-1.381-5.648-5.776-.123-5.4m-1.507 15.571c-5.275-1.758-5.275-6.906-.88-6.404m10.677 3.768c-6.152-1.507-6.403-5.777-1.755-5.149m2.504-7.909c-3.263-.25-8.288 3.39.126 5.525m9.046 1.761c-7.66-1.13-7.533 2.009-3.016 4.018m8.788-11.304c-5.902-1.13-7.91 2.386-3.893 3.893m-14.686 17.831c-1.446-1.193-2.636-6.907 4.267-5.211m10.046 3.455c-4.644-1.255-9.039 3.265-4.771 5.902m10.917-11.299c-4.894-.88-9.038.502-6.402 2.26" stroke-width=".406" fill="none" stroke-linecap="round"/>
    <path d="M416.606 120.941c-2.76.512-5.232 2.133-6.835 5.335" fill="#fff" stroke-width=".406"/>
  </g>
</svg>
