<svg xmlns="http://www.w3.org/2000/svg" xmlns:xlink="http://www.w3.org/1999/xlink" height="512" width="512" id="flag-icon-css-eg">
  <path d="M0 341.333h512V512H0z"/>
  <path fill="#fff" d="M0 170.667h512v170.667H0z"/>
  <path fill="#ce1126" d="M0 0h512v170.667H0z"/>
  <g transform="translate(-128.004 .002) scale(.85333)" fill="#fff" stroke="#c09300">
    <path d="M450.81 302.4l68.488 63.58-4.876-115.47c-.716-17.5-15.924-13.486-26.97-7.173-11.192 7.172-23.96 7.172-37.447 2.437-13.485 4.735-26.253 4.735-37.444-2.437-11.045-6.313-26.25-10.328-26.97 7.172l-4.878 115.47 70.098-63.58z" stroke-width="1.27" stroke-linejoin="round"/>
    <path d="M393.47 246.49l-4.734 112.32-8.035 7.168 4.88-115.47c2.294-1.578 6.313-4.017 7.89-4.017zm9.62 8.04l-4.017 93.955-8.032 8.22 4.878-108.49c1.58 1.577 6.314 5.45 7.172 6.31zm8.75 7.17l-3.155 78.362-6.455 6.31 4.018-89.406c1.574 1.578 4.73 3.874 5.592 4.734zm9.47 4.02l-3.156 66.787-6.313 5.12 3.157-74.345c1.58.717 4.735 2.438 6.313 2.438zm8.75 0l-2.297 55.657-6.455 6.313 2.44-61.252c1.575 0 5.593 0 6.312-.718z" id="a" fill="#c09300" stroke="none"/>
    <use height="100%" width="100%" xlink:href="#a" transform="matrix(-1 0 0 1 900 0)"/>
    <path d="M453.16 315.06l9.613 43.755-3.158 3.155-3.3-2.44-5.45-39.017 2.294 39.018-3.157 4.017-3.157-4.016 2.296-39.017-5.45 39.018-3.303 2.44-3.155-3.155 9.61-43.755h6.315z" fill="#c09300" stroke-width="1.074"/>
    <g id="b" fill="none" stroke-width="1.27" stroke-linejoin="round">
      <path d="M428.48 295.84l-19.08 67.705 26.255 4.018 11.188-50.924-18.363-20.8z" fill="#fff" stroke-width="1.189"/>
      <path d="M422.17 318.94l2.296 5.593 12.405-11.848"/>
      <path d="M430.76 304.92l2.596 24.346 7.89-10.328m-3.156 4.012l4.31 14.875m1.69-5.465l-8.718 13.24m2.72 13.217l-2.79-13.198-2.437-13.424-5.84 7.91-2.562-9.12-8.174 8.385 4.156 15.252 5.738-9.435 3.155 9.612 5.89-9.163"/>
      <path d="M414.99 361.97l5.3-7.444 3.452 11.457 4.735-8.032 3.157 9.615"/>
    </g>
    <use height="100%" width="100%" xlink:href="#b" transform="matrix(-1 0 0 1 900 0)"/>
    <g stroke-width="1.27" stroke-linecap="round" stroke-linejoin="round">
      <path d="M450 393.81c19.943 0 39.024-1.578 50.213-4.734 4.735-.86 4.735-3.298 4.735-6.455 4.736-1.577 2.295-7.17 5.595-7.17-3.3.863-4.016-5.594-8.033-4.73 0-5.598-5.596-6.314-10.33-4.74-9.47 3.16-26.255 3.876-42.18 3.876-15.924-.717-32.567-.717-42.18-3.875-4.733-1.574-10.326-.858-10.326 4.74-4.018-.864-4.736 5.593-8.034 4.73 3.3 0 .86 5.593 5.594 7.17 0 3.158 0 5.597 4.878 6.456 11.045 3.156 30.128 4.734 50.068 4.734z" stroke-width="2.378"/>
      <path d="M422.89 363.54c6.454.86 13.628 1.578 19.225.86 3.153 0 5.45 5.452-.863 6.314-5.593.715-14.345 0-19.08-.862-4.017-.718-12.768-2.295-18.364-3.876-5.594-2.436-1.576-7.168 1.578-6.452 4.88 1.577 11.192 3.157 17.505 4.016zm54.23 0c-6.457.86-13.628 1.578-19.08.86-3.302 0-5.597 5.452.716 6.314 5.596.715 14.347 0 19.078-.862 4.02-.718 12.77-2.295 18.364-3.876 5.597-2.436 1.58-7.168-1.577-6.452-4.877 1.577-11.19 3.157-17.5 4.016z"/>
      <path d="M403.09 360.39c-4.877-.86-7.172 4.732-5.593 7.887.717-1.578 4.017-1.578 4.735-3.155.858-2.437-.718-2.437.858-4.732zm19.08 14.67c0-3.153 3.155-2.765 3.155-5.921 0-1.578-.86-4.02-2.437-4.02-1.58 0-3.158 1.58-3.158 3.157-.718 3.157 2.44 3.63 2.44 6.783zm22.71-9.08c4.73 0 4.262 6.314 1.966 9.47 0-2.295-4.017-3.156-4.017-4.732 0-2.442 3.625-2.442 2.05-4.738zm52.03-5.59c4.878-.86 7.174 4.732 5.595 7.887-.718-1.578-4.017-1.578-4.734-3.155-.86-2.437.72-2.437-.86-4.732zm-19.08 14.67c0-3.153-3.153-2.765-3.153-5.921 0-1.578.86-4.02 2.438-4.02 1.577 0 3.156 1.58 3.156 3.157.72 3.157-2.44 3.63-2.44 6.783zm-22.71-9.08c-4.732 0-4.263 6.314-1.967 9.47 0-2.295 4.015-3.156 4.015-4.732 0-2.442-3.626-2.442-2.048-4.738z"/>
      <path d="M404.67 361.97c1.58 0 4.018.718 4.735 1.577l-4.74-1.58zm7.88 2.44c.862 0 4.018.716 5.596 1.575l-5.6-1.58zm28.7 3.15c-1.578 0-4.734 0-5.593.715l5.59-.72zm-8.75 0c-.86-.862-4.016-.862-5.593 0h5.59zm62.84-5.59c-1.578 0-3.875.718-4.735 1.577l4.735-1.577zm-7.89 2.44c-.86 0-4.017.716-5.595 1.575l5.6-1.58zm-28.7 3.15c1.58 0 4.735 0 5.595.715l-5.6-.72zm8.75 0c.86-.862 4.018-.862 5.595 0h-5.6z" stroke-width=".891"/>
      <g fill="#c09300" stroke="none">
        <path d="M403.34 374.58c-.534-.102-.815-.525-.68-1.025.164-.61.65-.957 1.112-.794.294.105.83.646.832.84.003.222-.28.752-.402.754-.053 0-.135.046-.182.102-.1.118-.413.175-.68.124zm54.93 3.92c-.2-.074-.515-.518-.515-.724.002-.387.574-1.018.93-1.02.174-.002.654.247.833.433.325.337.254.892-.154 1.207-.2.155-.8.212-1.094.103zm.36 2.48c-.42-.142-.574-.348-.608-.814-.036-.485.012-.56.525-.84l.365-.2.347.155c.478.215.692.446.71.768.017.348-.24.704-.64.883-.353.16-.374.16-.7.05z"/>
        <path d="M407.75 370.09c-.346-.01-.82.307-1.094.47-.65.15-1.404.55-2.03.124-.618-.19-1.44-.04-1.532.718.158.652 1.07 1.025 1.625.594.41-.537 1.53-.853 1.655.063-.457.69-.405 1.608-.78 2.343-.062.457-.253.892-.5 1.28-.463.047-.955-.007-1.345.282-.626.034-1.265.345-1.625.875-.403.578-.79 1.165-.906 1.875.106.725.936.933 1.56.97.668.182 1.336.423 2 .624 1.087.242 2.103.634 3.19.874 1.583.477 3.247.697 4.842 1.125.168.054.325.103.5.124.663.137 1.008-.583 1.063-1.125.33-1.16.58-2.34.906-3.5.226-.467.498-1.518-.405-1.282-.515.308-.952.773-1.594.812-.873.05-.374.945-.03 1.313.076.587-.11 1.288-.5 1.75-.52.33-1.172-.057-1.72-.188-.573.01-1.722-.283-1.186-1.062.19-.577.207-1.21.437-1.782.295-.613.337-1.284.47-1.936-.36-.777-.98.256-1.47.344-.337.234-1.604.334-.936.937.575.437.134 1.197.03 1.75-.036.77-.837.954-1.468.78-.628-.03-1.5-.496-.97-1.186.122-.576.323-1.14.44-1.72.236-.698.436-1.363.686-2.062.11-.62.33-1.208.625-1.75.018-.686.478-1.276.47-1.97-.048-.338-.2-.46-.407-.468zm-3.594 7.25a.353.353 0 0 1 .22.03c.25.107.256.31 0 .532-.113.097-.24.19-.282.188-.468-.04-.606-.11-.625-.28-.02-.152.03-.196.342-.345a1.45 1.45 0 0 1 .344-.125zm-1.036 5.02c-.496-.466-.416-.806.317-1.353.314-.234.505-.208.863.12.553.504.575.823.087 1.255-.24.213-.346.257-.627.26-.293.003-.376-.034-.64-.282zm3.05.92a.86.86 0 0 1-.623-1.088c.13-.434.203-.477.84-.483.716-.008.854.11.86.74.005.355-.022.437-.2.6a1.07 1.07 0 0 1-.877.23zm89.11.08c-.227-.19-.273-.274-.275-.515-.003-.41.233-.712.746-.944.683-.307.96-.265 1.217.187.342.6.325.847-.084 1.252-.225.223-.268.236-.785.24-.507.004-.565-.01-.818-.22zm-85.06 1.15c-.364-.097-.552-.37-.557-.807-.004-.334.02-.387.253-.57.152-.118.39-.22.58-.245.266-.037.363-.013.578.138.55.387.668.77.35 1.14-.34.397-.663.488-1.204.344zm21.92.98c-.08-.1-.26-.16-.278-.287.032-.555.06-1.117.236-1.648.096-.523.012-1.07.194-1.58.187-.926.187-1.88.402-2.802.01-.475.055-.95.193-1.406.157-.722.013-1.476.226-2.19-.023-.267.285-.983.556-.56.393.578.91 1.046 1.42 1.517.438.252.036.624-.266.75-.416.163-.517.62-.487 1.022-.058.414-.225.806-.242 1.23-.087.622-.07 1.254-.15 1.876-.183.61-.114 1.26-.174 1.888.01.398-.18.76-.155 1.16-.048.406-.066.894-.407 1.172-.33.166-.804.138-1.068-.142zm29.7-9.8c-.482.365-.914.795-1.344 1.22-.592.448.487.71.625 1.093.158.586.15 1.21.19 1.812.178.552.257 1.138.217 1.72-.05.62-.863.49-1.218.843-.493.207-.69.69-1.064 1.03-.246.484-.312 1.077-.344 1.626.036.448-.302.95 0 1.344.04.055.086.132.125.187.102.145.343.03.5.063.504-.03 1.03.047 1.5-.157 1.21-.208 2.432-.225 3.657-.28.75.024 1.47-.237 2.218-.22.587.13.85-.505.844-.967-.332-.654-.045-1.43-.312-2.094-.235-.674-.143-1.43-.25-2.126-.015-.55-.71-.752-1.063-.344-.34.345-.892.414-1.155.844-.297.602.627.603.78 1.062.177.465.12.98.157 1.47.115.592-.53.625-.937.687-.537.2-1.29.336-1.594-.313-.19-.48-.164-.993-.218-1.5-.013-.892-.227-1.768-.28-2.656-.052-1.097-.242-2.187-.313-3.28-.01-.457-.072-1.2-.72-1.064zm-.625 8.25l.313.03.03.376.032.375-.406.126a3.28 3.28 0 0 1-.407.094 2.55 2.55 0 0 1-.187-.125c-.22-.16-.164-.385.125-.688.163-.17.24-.203.5-.187zm-29.965-9.28c-.38.135-.862.693-1.25.688-.88.062-.757.92-.125 1.218.083.26.005.588.03.875.124.79-.374 1.426-.28 2.22-.044.87-.307 1.718-.344 2.594-.246.903-.25 1.832-.405 2.75-.104.823-.7.533-1.22.312-.003-.356-.026-.705-.03-1.062.216-.817-.44-1.056-1.094-1.156-.685.065-1.022-.523-.874-1.125.295-.35 1.036-.254 1.5-.313.98.204.942-1.112.438-1.562-.345-.636-1.2-.91-1.438-1.563.096-.866-.48-1.732-1.187-2.156-1.09-.077-1.912.862-2.314 1.78-.452.13-.904.267-1.344.438-.71.177-1.72 1.407-.75 1.875.545.15 2.2.528 1.47 1.28-.413.708-1.202.72-1.907.532-.724 0-1.53-.352-1.5-1.187-.148-.75-.123-1.558-.47-2.25-.147-.84-1.1-.643-1.155.125-.733.534-.636 1.397-.125 2.03.32.73.003 1.578-.313 2.25-.19.876-1.155.906-1.843 1.188-.34.132-1.63-.077-1.158.658.754.265 1.653.505 2.438.312.823-.102 1.538-.665 1.938-1.375.552-.56 1.502-.267 2.218-.28.773-.003 1.563.54 2.313.186.216-.563 1.22-1.494 1.53-.53-.053.863.71 1.326 1.5 1.22.864-.05.544.61.53 1.124.058.934.66 1.425 1.44 1.812.264.072.544.048.81 0 .75-.235 1.555-.568 1.782-1.406.304-.68.31-1.45.532-2.156.177-1.13.406-2.26.437-3.406.277-1.04.198-2.136.407-3.188.133-.782.23-1.563.313-2.344-.092-.417-.272-.487-.5-.406zm-6.78 4.156c.15.02.234.204.25.53.015.366.205.662.436.72.183.046.167.24-.03.375-.116.08-.322.128-.688.126-.578-.003-.937-.153-1.25-.47l-.188-.186.28-.188c.143-.108.4-.332.564-.5.285-.29.473-.424.625-.406zm66.03-7.876a8.365 8.365 0 0 0-1.656.25c-1.04-.065-1.563 1.027-.563 1.563.603 1.534 1.542-.317 2.5-.188 1.44.28 1.56 1.832 1.783 3 .08 1.157.414 2.282.75 3.375.962 1.07-.72 1.74-1.438.906-.61-.664-1.92-1.48-2.656-.562-.905.382-.942 1.59-1.69 1.937-1.208.37-1.36-1.118-2-1.75-.586-.823-1.71-.895-2.624-1.186-.43-.87-.205-2.346-1.094-2.938-.745.304-2.113 1.702-.968 2.344 1.117.96-.488 1.4-1 2.063-.732.814-.85 1.936-.97 2.968-1.258.697-1.503-.786-1.655-1.717-.1-1.112-1.037-.786-1.69-.375-.95.385-1.427 1.29-2.092 2-.08.647.037 1.356.03 2.03.217.812 1.203.43 1.813.376.98-.41 1.38.627.595 1.22-.532.675-2.22.32-2.063 1.405.544.062 1.11.042 1.657 0 1.09-.3 2.26-1.07 2.374-2.282.143-1.06 1.667-.866 2.5-1.094 1.04-.3 2.294-.377 2.53.937.71.746 2.25 1.585 3.032.564.795-.485 1.176-1.338 1.125-2.25-.16-.785 1.27-.813 1.626-.375.52.857 2.15.604 2.938.124.836-.617 1.017-1.705 2.218-1.72 1.783-.533 3.635-.84 5.375-1.5 1.41-.306-.21-1.197-.562-1.718-1.074-.53-2.008 1.642-3.22.563-.935-.717-.87-2.078-1.218-3.126-.237-1.358-.177-2.923-1.156-4-.67-.715-1.585-.887-2.53-.844zm-6.813 9.47c.126-.004.268.058.5.186.44.242.75.643.75.97 0 .212-.054.226-.375.374-.197.09-.42.19-.5.188-.18-.002-.624-.357-.625-.5 0-.06-.058-.287-.125-.47-.117-.32-.1-.316.063-.53.103-.138.187-.216.313-.22zm6.532.343c.37-.025.592.09.75.375.18.33.057.58-.408.78-.203.09-.407.16-.437.157-.03-.003-.198-.102-.375-.22-.27-.176-.31-.263-.313-.467-.003-.316.35-.597.782-.625zm-8.94.093c.11-.017.21.04.345.156.18.155.237.28.28.594.033.22.028.502 0 .625-.047.227-.052.217-.56.22-.642.006-.7-.064-.69-.656.01-.377.013-.478.22-.688.16-.162.297-.233.406-.25zm-5.5 1.438a.57.57 0 0 1 .44.437c.064.32.007.463-.25.595-.223.113-.735.15-.876.063a.613.613 0 0 1-.188-.188c-.068-.12-.055-.18.03-.25.062-.05.127-.12.126-.156 0-.037.068-.163.157-.28a.543.543 0 0 1 .56-.22zm9.25 1.187c.18 0 .33.062.44.157.184.163.178.4-.033.563-.135.104-.87.095-1.125 0-.112-.042-.155-.1-.156-.22-.002-.14.038-.226.28-.343.206-.097.417-.155.595-.156zm-17.169 4.819c-.096-.063-.238-.117-.095-.222.173-.302.518-.407.825-.52a3.436 3.436 0 0 0 1.373-1.118c.05-.333.424-.513.422-.86.003-.476.032-.963-.084-1.427-.128-.426-.45-.752-.826-.974-.256-.203-.674-.26-.768-.615-.053-.343.253-.604.36-.91.223-.42.41-.863.65-1.275.26-.288.66-.015.794.263.19.277.357.576.45.897.303.332.57.72.68 1.162.148.31.383.602.37.966 0 .416.234.787.22 1.206.013.56.012 1.145-.192 1.674-.14.294-.42.47-.607.733-.318.296-.67.58-1.08.737-.288.092-.456.426-.818.345-.514.01-1.037.08-1.547-.004.032.054-.156-.092-.125-.058zm-6.85.45c-.243-.25-.295-.355-.298-.6-.003-.248.045-.346.282-.586.44-.443.653-.453 1.41-.07.722.365.967.4 1.032.14.062-.25.478-.48.874-.48a.82.82 0 0 1 .592.202c.25.196.263.227.27.68.004.463-.002.48-.29.736-.278.244-.323.26-.666.224-.437-.043-.7-.244-.77-.588-.052-.25-.14-.31-.206-.14-.02.055-.13.122-.24.15-.203.05-.548.268-.793.5-.093.087-.255.128-.52.13-.354.004-.404-.017-.677-.298zm-19.82-8.9c-.665.007-1.38.566-1.47 1.22.153.75.778 1.488.376 2.28.278 1.013-.76 1.397-1.47.813-.426-.972-.642-2.036-1.28-2.907-.804-.227-1.154 1.057-1.72 1.5.28.755 1.097 1.433 1.19 2.375.194.916-.362 1.932-1.157 2.407-.687.655-1.627.42-2.47.563-1.024.6.752.818 1.22.844 1.046.106 2.134-.032 2.905-.813.77-.366.71-1.696 1.625-1.843 1.588-.07 3.163.244 4.75.282.85.202 2.163-.102 2.75.53.002 1.107.94 1.79 1.844 2.22.498.137 1.024-.48 1.53-.595.966-.308.673-1.502 1.25-1.97 1.65-.088 3.317-.07 4.97-.093.314.008.407-.44.625-.625-.038-.638-.06-1.272-.158-1.906-.318-.805.052-1.843-.53-2.53-.83-.226-1.537.534-2.376.594-.926.412-1.706 1.268-1.75 2.312-.548.897-1.427-.16-1.125-.906-.033-.325.072-.704-.03-1-.507-.608-1.395-.41-2.094-.5-1.018.04-2.012-.18-3.03-.156-.894-.068-1.823.078-2.688-.156-1.032-.03-.89-1.04-1.063-1.75a1.018 1.018 0 0 0-.625-.188zm2 3.688c.343.006.667.05 1 .093.43.072.89-.147 1.313 0 .976.167 1.953.128 2.937.22.26-.004.446.185.625.344.002.683 0 1.38 0 2.062-.03.258.076.598-.156.78a.7.7 0 0 1-.25.126c-.272-.07-.56-.247-.69-.5-.04-.357.02-.704.032-1.062-.007-.093.04-.237 0-.313a1.248 1.248 0 0 0-.718-.25c-.85-.03-1.682-.09-2.53-.125-.708-.044-1.435.06-2.127-.125-.268-.097-.617-.064-.78-.343-.235-.273.103-.597.343-.72a2.28 2.28 0 0 1 1-.187zm11.28.25c.16-.003.21.05.282.343.046.19.1.418.125.5.037.12-.022.157-.187.22-.494.186-.986.168-1.156-.063-.078-.104.012-.434.156-.562.29-.26.61-.437.78-.438z"/>
      </g>
    </g>
    <path d="M449.98 327.23c32.642-25.106 29.843-61.883 29.843-61.883-.86.172-1.68.258-2.54.258-6.848 0-23.18-3.917-26.99-8.892-4.08 4.503-20.77 8.892-27.573 8.892-.86 0-1.722-.086-2.54-.258 0 0-2.843 36.776 29.8 61.883z" stroke-width="1.15"/>
    <path d="M477.22 268.04c-.28.018-.563.026-.848.026-6.205 0-20.62-3.183-26.175-7.957-5.82 4.41-20.47 7.956-26.576 7.956a4.7 4.7 0 0 1-.848-.086c-.015 1.39.058 2.832.144 4.144.323 4.9 1.183 9.82 2.488 14.552 4.108 14.895 12.516 27.553 24.572 37.155 12.066-9.61 20.484-22.28 24.6-37.185 1.308-4.732 2.17-9.65 2.496-14.55.086-1.285.157-2.692.148-4.055z" stroke-width=".916"/>
    <path d="M439.38 265.03c-5.872 1.845-12.23 3.03-15.75 3.03-.286 0-.563-.04-.844-.093-.014 1.39.07 2.846.156 4.157a72.77 72.77 0 0 0 2.47 14.53c2.764 10.026 7.506 19.033 13.968 26.782V265.03zm20.62-.09v49.25c6.794-7.92 11.733-17.206 14.594-27.562a72.952 72.952 0 0 0 2.47-14.53c.084-1.285.165-2.7.155-4.064-.282.018-.56.032-.845.032-3.73 0-10.42-1.17-16.375-3.125z" fill="#c09300" stroke="none"/>
    <g stroke-width="1.27">
      <path d="M462.31 253.09c.667.04-.902-3.568-.902-3.568 1.765 1.804 8.43 2.235 8.43 2.235-4-1.766-7.998-15.096-7.528-25.72.432-10.665-1.528-14.86-3.097-16.43-2-2-8.43-3.763-12.664-3.998-2.393-.12-2 1.802-2 1.802-4.43-1.137-8.86-1.568-10.862-.235-1.882 1.255-2.274 7.528-.9 6.43 3.33-2.666 6.233-.235 8.232 2.666 1.764 2.55 1.647 9.763-.902 18.192-2.666 8.86-9.96 17.722-9.96 17.722 3.96 0 9.53-3.528 9.53-3.528l-1.334 5.527c4.195-2 7.528-5.097 7.528-5.097l4 4.195c1.332-1.764 3.998-4.195 3.998-4.195s3.333 3.53 8.43 4z" stroke-width="1.218"/>
      <path d="M446.12 227.57s-2.235 16.428-6.43 21.094m9.96-21.524s-.863 16.623-3.764 21.956m6.894-21.286s0 18.192 1.098 21.29m2.862-20.39s.902 15.29 4.666 20.82" fill="none"/>
      <path d="M442.08 219.61c-.196-1.45-.55-2.588-1.06-3.333-1.998-2.9-4.9-5.332-8.232-2.666 0 0 1.137-3.528 3.568-3.645 1.882-.118 6.155 1.41 9.92 7.84 0 0-2.784-.626-3.45-.038-1.256 1.098-.746 1.843-.746 1.843z" fill="#c09300" stroke-width=".354"/>
      <path d="M432.44 209.26c.274-.902.706-1.725 1.255-2.078 2-1.333 6.43-.902 10.86.235 0 0-.392-1.92 2-1.803 4.234.235 10.664 2 12.663 4 .47.51 1.02 1.254 1.49 2.39h-.078c-.98-1.372-3.764-1.293-4.43-1.215-1.06.117-1.726.077-3.138.43-.666.157-1.686.353-2.235.784-.43.353-.784 1.647-1.45 1.647-1.06 0-.98-.273-1.255-.587-.353-.43-.55-1.06-.902-1.02-1.097.197-2.862-.666-5.096-2.43-2.235-1.765-3.098-2.196-6-2-2.86.235-3.763 1.843-3.763 1.843l.08-.196z" fill="#c09300" stroke-width=".354"/>
      <circle cx="448.824" cy="210.672" r="1.176" stroke="none"/>
    </g>
  </g>
</svg>
