<svg xmlns="http://www.w3.org/2000/svg" height="512" width="512" id="flag-icon-css-km">
  <defs>
    <clipPath id="a">
      <path fill-opacity=".67" d="M0 0h416.25v416.25H0z"/>
    </clipPath>
  </defs>
  <g clip-path="url(#a)" fill-rule="evenodd" transform="scale(1.23)">
    <path fill="#ff0" d="M0 0h625v104.06H0z"/>
    <path fill="#fff" d="M0 104.06h625v104.06H0z"/>
    <path fill="#be0027" d="M0 208.12h625v104.06H0z"/>
    <path fill="#3b5aa3" d="M0 312.19h625v104.06H0z"/>
    <path d="M0 0v416.238l310.45-207.533L0 0z" fill="#239e46"/>
    <path d="M127.81 114.98c-69.183-3.51-100.7 51.6-100.63 94.2-.159 50.38 47.582 91.93 91.71 89.43-23.794-11.26-52.85-42.82-53.117-89.64-.244-42.423 23.977-79.31 62.038-93.99z" fill="#fff"/>
    <path fill="#fff" d="M126.77 160.21l-9.75-7.63-11.82 3.72 4.24-11.64-7.18-10.09 12.38.43 7.37-9.95 3.41 11.91 11.75 3.94-10.28 6.93zm-.207 42.327l-9.75-7.63-11.82 3.72 4.24-11.64-7.18-10.09 12.38.43 7.37-9.95 3.41 11.91 11.75 3.94-10.28 6.93zm.207 42.742l-9.75-7.63-11.82 3.72 4.24-11.64-7.18-10.09 12.38.43 7.37-9.95 3.41 11.91 11.75 3.94-10.28 6.93zm-.207 43.161l-9.75-7.63-11.82 3.72 4.24-11.64-7.18-10.09 12.38.43 7.37-9.95 3.41 11.91 11.75 3.94-10.28 6.93z"/>
  </g>
</svg>
