<svg xmlns="http://www.w3.org/2000/svg" height="512" width="512" id="flag-icon-css-kz">
  <g fill-rule="evenodd">
    <path fill="#6fdcff" d="M0 0h512v512H0z"/>
    <g fill="#ffe400">
      <path d="M42.989 497.929c3.469 3.396 2.327 9.108 11.974 8.373 14.726 0 15.15-9.008 15.15-15.298 0-6.28-21.942-15.065-22.952-24.306-1.025-9.252 5.064-11.835 10.158-11.835 5.065 0 8.622 2.961 8.622 5.544s-2.532 3.33-6.09 3.33 1.523-1.849-1.522-3.33-5.079 2.216-5.079 4.443c0 2.216 7.612 2.95 12.691 1.291 1.025 4.989 1.523 5.367-5.592 13.862 5.094-3.329 5.578-4.064 11.184-2.215-5.592-4.81-1.405-14.608-1.215-17.102s-1.069-5.456-3.352-6.937c-4.07-3.696-12.955-3.863-18.283-1.48-7.758 3.462-8.139 13.672-6.104 17.012l21.503 22.046c1.523 2.594 2.05 9.797-7.085 10.165-9.646.735-12.954-12.414-14.667-16.79-2.298 4.776-4.86 17.959-14.506 17.224-9.149-.367-10.905-7.571-9.383-10.165l22.089-22.48c2.02-3.34 1.64-13.55-6.12-17.012-5.327-2.383-14.198-2.216-18.267 1.48-2.284 1.481-3.557 4.443-3.367 6.937s4.377 12.292-1.215 17.102c5.606-1.849 6.104-1.114 11.183 2.215-7.114-8.495-6.601-8.873-5.591-13.862 5.08 1.66 12.706.925 12.706-1.291 0-2.227-2.05-5.923-5.095-4.443-3.03 1.481 2.035 3.33-1.507 3.33-3.572 0-6.104-.746-6.104-3.33s3.557-5.544 8.636-5.544 11.169 2.583 10.144 11.835c-1.01 9.241-23.523 19.329-23.523 25.608 0 6.291 1.566 13.996 16.292 13.996 9.647.735 10.788-4.977 14.287-8.373z"/>
      <path d="M41.818 365.991c3.47-3.396 6.324-13.46 15.97-12.726 14.726 0 20.303 8.139 20.303 14.43 0 6.28-29.95 57.685-30.96 66.926-1.024 9.252 5.065 11.836 10.16 11.836 5.064 0 8.621-2.962 8.621-5.545s-2.532-3.33-6.09-3.33 1.523 1.849-1.522 3.33-5.08-2.216-5.08-4.443c0-2.215 7.613-2.95 12.692-1.291 1.025-4.988 1.522-5.367-5.592-13.862 5.094 3.33 5.577 4.064 11.184 2.216-5.592 4.81-1.405 14.607-1.215 17.101s-1.069 5.456-3.352 6.937c-4.07 3.696-12.955 3.863-18.283 1.48-7.758-3.462-8.139-13.672-6.104-17.012l28.94-62.495c1.521-2.594-2.533-11.1-11.667-11.468-9.647-.735-12.955 9.375-14.668 13.75l13.145-.957s.513 2.026 0 3.34c-6.792.445-13.145 1.681-13.145 1.681l-.497 6.658h6.484l-.512 2.95s-5.475-.367-5.972 0c-.513.368-1.025 6.67-1.025 6.67s-1.01.368-2.108.368c-1.112 0-2.122-.368-2.122-.368s-.513-6.302-1.01-6.67c-.513-.367-5.987 0-5.987 0l-.498-2.95h6.485l-.513-6.658s-6.353-1.236-13.145-1.681c-.497-1.314 0-3.34 0-3.34l13.145.957c-1.712-4.375-5.02-14.485-14.652-13.75-9.15.367-13.204 8.874-11.681 11.468L40.5 432.038c2.02 3.34 1.64 13.55-6.118 17.013-5.328 2.382-14.2 2.215-18.268-1.481-2.284-1.48-3.557-4.443-3.367-6.937s4.377-12.291-1.215-17.101c5.606 1.848 6.104 1.113 11.183-2.216-7.114 8.495-6.601 8.874-5.591 13.862 5.079-1.66 12.705-.924 12.705 1.291 0 2.227-2.049 5.924-5.094 4.443-3.03-1.481 2.035-3.33-1.507-3.33-3.572 0-6.104.747-6.104 3.33s3.557 5.545 8.636 5.545 11.169-2.584 10.144-11.836c-1.01-9.241-30.96-60.647-30.96-66.926 0-6.291 5.578-14.43 20.304-14.43 9.646-.735 13.071 9.33 16.57 12.726z"/>
      <path d="M41.818 340.517c3.469 3.395 6.323 13.46 15.97 12.726 14.726 0 20.303-8.14 20.303-14.43 0-6.28-29.95-57.685-30.96-66.926-1.024-9.253 5.065-11.836 10.16-11.836 5.064 0 8.62 2.962 8.62 5.545s-2.531 3.329-6.089 3.329 1.523-1.848-1.522-3.33-5.08 2.217-5.08 4.443c0 2.216 7.613 2.95 12.692 1.292 1.025 4.988 1.522 5.366-5.592 13.862 5.094-3.33 5.577-4.064 11.184-2.216-5.592-4.81-1.406-14.608-1.215-17.102s-1.069-5.455-3.352-6.936c-4.07-3.697-12.955-3.864-18.283-1.481-7.758 3.463-8.139 13.672-6.104 17.013l28.939 62.495c1.522 2.594-2.532 11.1-11.667 11.468-9.646.735-12.954-9.375-14.667-13.75l13.145.957s.512-2.027 0-3.34c-6.792-.446-13.145-1.682-13.145-1.682l-.497-6.658h6.484l-.512-2.95s-5.475.367-5.972 0c-.513-.368-1.025-6.67-1.025-6.67s-1.01-.367-2.108-.367c-1.112 0-2.123.368-2.123.368s-.512 6.301-1.01 6.669c-.512.367-5.986 0-5.986 0l-.498 2.95h6.484l-.512 6.658s-6.353 1.236-13.145 1.682c-.497 1.313 0 3.34 0 3.34l13.145-.958c-1.713 4.376-5.02 14.486-14.653 13.75-9.148-.367-13.203-8.873-11.68-11.467L40.5 274.47c2.02-3.34 1.64-13.55-6.118-17.013-5.329-2.383-14.2-2.216-18.269 1.48-2.283 1.482-3.557 4.443-3.366 6.937s4.376 12.292-1.215 17.102c5.606-1.848 6.104-1.113 11.183 2.216-7.114-8.496-6.602-8.874-5.592-13.862 5.08 1.659 12.706.924 12.706-1.292 0-2.226-2.05-5.923-5.094-4.442-3.03 1.48 2.035 3.329-1.508 3.329-3.571 0-6.104-.746-6.104-3.33s3.557-5.544 8.637-5.544 11.169 2.583 10.144 11.836c-1.01 9.24-30.96 60.646-30.96 66.926 0 6.29 5.578 14.43 20.304 14.43 9.646.735 13.071-9.33 16.57-12.726z"/>
      <path d="M41.818 171.146c3.47-3.396 6.324-13.46 15.97-12.726 14.726 0 20.303 8.139 20.303 14.43 0 6.28-29.95 57.685-30.96 66.926-1.024 9.252 5.065 11.836 10.16 11.836 5.064 0 8.621-2.962 8.621-5.545s-2.532-3.33-6.09-3.33 1.523 1.849-1.522 3.33-5.08-2.216-5.08-4.443c0-2.215 7.613-2.95 12.692-1.291 1.025-4.988 1.522-5.367-5.592-13.862 5.094 3.33 5.577 4.064 11.184 2.216-5.592 4.81-1.405 14.607-1.215 17.101s-1.069 5.456-3.352 6.937c-4.07 3.696-12.955 3.863-18.283 1.48-7.758-3.462-8.139-13.672-6.104-17.012l28.94-62.495c1.521-2.594-2.533-11.1-11.667-11.468-9.647-.735-12.955 9.375-14.668 13.75l13.145-.957s.513 2.026 0 3.34c-6.792.445-13.145 1.681-13.145 1.681l-.497 6.658h6.484l-.512 2.95s-5.475-.367-5.972 0c-.513.368-1.025 6.67-1.025 6.67s-1.01.368-2.108.368c-1.112 0-2.122-.368-2.122-.368s-.513-6.302-1.01-6.67c-.513-.367-5.987 0-5.987 0l-.498-2.95h6.485l-.513-6.658s-6.353-1.236-13.145-1.681c-.497-1.314 0-3.34 0-3.34l13.145.957c-1.712-4.375-5.02-14.485-14.652-13.75-9.15.367-13.204 8.874-11.681 11.468L40.5 237.193c2.02 3.34 1.64 13.55-6.118 17.013-5.328 2.382-14.2 2.215-18.268-1.481-2.284-1.48-3.557-4.443-3.367-6.937s4.377-12.291-1.215-17.101c5.606 1.848 6.104 1.113 11.183-2.216-7.114 8.495-6.601 8.874-5.591 13.862 5.079-1.66 12.705-.924 12.705 1.291 0 2.227-2.049 5.924-5.094 4.443-3.03-1.481 2.035-3.33-1.507-3.33-3.572 0-6.104.747-6.104 3.33s3.557 5.545 8.636 5.545 11.169-2.584 10.144-11.836c-1.01-9.241-30.96-60.647-30.96-66.926 0-6.291 5.578-14.43 20.304-14.43 9.646-.735 13.071 9.33 16.57 12.726z"/>
      <path d="M41.818 145.672c3.469 3.395 6.323 13.46 15.97 12.726 14.726 0 20.303-8.14 20.303-14.43 0-6.28-29.95-57.685-30.96-66.926-1.024-9.253 5.065-11.836 10.16-11.836 5.064 0 8.62 2.962 8.62 5.545s-2.531 3.329-6.089 3.329 1.523-1.848-1.522-3.33-5.08 2.217-5.08 4.443c0 2.216 7.613 2.95 12.692 1.292 1.025 4.988 1.522 5.366-5.592 13.862 5.094-3.33 5.577-4.064 11.184-2.216-5.592-4.81-1.406-14.608-1.215-17.102s-1.069-5.455-3.352-6.936c-4.07-3.697-12.955-3.864-18.283-1.481-7.758 3.463-8.139 13.672-6.104 17.013l28.939 62.495c1.522 2.594-2.532 11.1-11.667 11.468-9.646.735-12.954-9.375-14.667-13.75l13.145.957s.512-2.027 0-3.34c-6.792-.446-13.145-1.682-13.145-1.682l-.497-6.658h6.484l-.512-2.95s-5.475.367-5.972 0c-.513-.368-1.025-6.67-1.025-6.67s-1.01-.367-2.108-.367c-1.112 0-2.123.368-2.123.368s-.512 6.301-1.01 6.669c-.512.367-5.986 0-5.986 0l-.498 2.95h6.484l-.512 6.658s-6.353 1.236-13.145 1.682c-.497 1.313 0 3.34 0 3.34l13.145-.958c-1.713 4.376-5.02 14.486-14.653 13.75-9.148-.367-13.203-8.873-11.68-11.467L40.5 79.625c2.02-3.34 1.64-13.55-6.118-17.013-5.329-2.383-14.2-2.216-18.269 1.48-2.283 1.482-3.557 4.443-3.366 6.937s4.376 12.292-1.215 17.102c5.606-1.848 6.104-1.113 11.183 2.216-7.114-8.496-6.602-8.874-5.592-13.862 5.08 1.659 12.706.924 12.706-1.292 0-2.226-2.05-5.923-5.094-4.442-3.03 1.48 2.035 3.329-1.508 3.329-3.571 0-6.104-.746-6.104-3.33s3.557-5.544 8.637-5.544 11.169 2.583 10.144 11.836c-1.01 9.24-30.96 60.646-30.96 66.926 0 6.29 5.578 14.43 20.304 14.43 9.646.735 13.071-9.33 16.57-12.726z"/>
      <path d="M42.988 13.711c3.47-3.395 2.328-9.107 11.974-8.372 14.726 0 15.15 9.007 15.15 15.298 0 6.28-21.942 15.064-22.952 24.305-1.024 9.253 5.065 11.836 10.159 11.836 5.065 0 8.622-2.962 8.622-5.545s-2.533-3.33-6.09-3.33 1.523 1.85-1.522 3.33-5.08-2.216-5.08-4.443c0-2.215 7.612-2.95 12.692-1.291 1.024-4.988 1.522-5.367-5.592-13.862 5.094 3.33 5.577 4.064 11.183 2.216-5.591 4.81-1.405 14.608-1.214 17.102s-1.069 5.455-3.353 6.936c-4.069 3.697-12.954 3.864-18.282 1.48-7.759-3.462-8.14-13.672-6.104-17.012l21.503-22.045c1.522-2.594 2.05-9.798-7.085-10.166-9.646-.734-12.955 12.415-14.667 16.79-2.298-4.776-4.86-17.959-14.507-17.224-9.148.368-10.905 7.571-9.383 10.166l22.09 22.48c2.02 3.34 1.639 13.55-6.12 17.012-5.328 2.383-14.198 2.216-18.268-1.48-2.283-1.482-3.557-4.443-3.366-6.937s4.376-12.292-1.215-17.102c5.606 1.848 6.104 1.113 11.183-2.216-7.114 8.495-6.602 8.874-5.592 13.862 5.08-1.659 12.706-.924 12.706 1.291 0 2.227-2.05 5.924-5.094 4.443-3.03-1.48 2.035-3.33-1.508-3.33-3.571 0-6.104.747-6.104 3.33s3.557 5.545 8.637 5.545 11.169-2.583 10.144-11.836c-1.01-9.241-23.523-19.328-23.523-25.608 0-6.29 1.566-13.995 16.292-13.995 9.646-.735 10.788 4.977 14.286 8.372z"/>
    </g>
    <g fill="#ffe400" transform="translate(-220 40)">
      <rect rx="85.12" ry="80.648" height="161.3" width="170.24" y="104.45" x="425.9"/>
      <path d="M506.94 56.355c-.708-.007-4.534 26.842-6.013 32.876-1.325 13.43 18.07 12.94 14.897-.532l-8.88-32.344zm6.83 259.855c.706.053 6.49-26.479 8.408-32.401 2.306-13.31-17.078-14.098-14.9-.45l6.492 32.85zm-135.6-131.6c-.06.669 27.915 6.277 34.156 8.123 14.037 2.249 14.962-16.113.547-14.115l-34.703 5.992zm271.72 3.19c.03-.67-28.166-5.274-34.483-6.896-14.123-1.745-14.234 16.638.079 14.125l34.404-7.23zm-243.1-88.159c-.482.492 17.893 21.249 21.605 26.348 9.588 9.97 22.265-3.945 9.616-10.793l-31.22-15.559zM617.95 270.64c.435-.53-19.772-19.698-23.937-24.472-10.465-9.145-21.819 5.761-8.59 11.543l32.528 12.929zM448.97 70.619c-.644.28 7.966 26.114 9.34 32.171 4.84 12.685 22.167 4.414 13.24-6.493l-22.58-25.678zM571.98 302.96c.663-.237-6.032-26.575-6.96-32.708-3.897-12.973-21.79-5.862-13.682 5.606l20.642 27.101zm30.18-214.358c-.511-.465-22.711 16.61-28.152 20.045-10.676 8.923 3.807 21.156 11.236 9.282l16.916-29.327zM419.24 282.33c.476.497 23.874-15.076 29.553-18.145 11.304-8.199-2.247-21.355-10.528-9.999L419.24 282.33zm-35.09-144.17c-.29.612 24.124 14.715 29.362 18.422 12.449 6.543 19.765-10.482 5.47-13.139l-34.832-5.283zm253.92 98.44c.335-.591-22.987-16.266-27.941-20.309-11.939-7.347-20.486 9.156-6.419 12.748l34.36 7.561zm-80.7-172.881c-.657-.251-14.571 23.416-18.275 28.521-6.412 12.042 11.831 18.301 14.072 4.662l4.204-33.183zM463.52 307.97c.637.294 16.252-22.401 20.322-27.25 7.28-11.591-10.461-19.035-13.696-5.577l-6.626 32.826zm-77.48-69.29c.257.625 27.986-5.986 34.449-6.926 13.652-3.825 5.965-20.703-6.056-12.906L386.04 238.68zm252.09-102.57c-.21-.64-28.357 4.13-34.873 4.643-13.899 2.917-7.468 20.261 5.096 13.273l29.777-17.916z"/>
      <path d="M534.62 58.119c-.692-.141-10.14 25.429-12.87 31.058-4.149 12.903 14.954 16.119 14.705 2.318L534.62 58.12zM486.15 313.97c.68.187 11.979-24.7 15.115-30.136 5.085-12.599-13.736-17.064-14.5-3.28l-.615 33.416zm-9.77-253.331c-.692.144 1.918 27.122 1.9 33.317 1.88 13.37 20.668 8.783 14.395-3.675l-16.29-29.642zm68.01 251.821c.7-.098.075-27.183.546-33.362-.895-13.462-19.974-10.121-14.628 2.72l14.082 30.641zM428.16 83.092c-.58.384 12.765 24.345 15.26 30.07 7.154 11.661 22.642.589 11.8-8.63l-27.06-21.44zM593.02 290.86c.607-.345-10.95-25.126-13.019-31.002-6.283-12.104-22.545-2.077-12.404 7.834l25.423 23.168zM393 116.64c-.397.556 21.128 18.39 25.624 22.888 11.091 8.456 21.36-7.142 7.75-12.065L393 116.64zm234.19 139.62c.436-.529-19.729-19.736-23.885-24.519-10.445-9.165-21.832 5.72-8.615 11.526l32.5 12.992zm-249.62-97.73c-.181.649 26.336 10.784 32.143 13.63 13.409 4.53 17.693-13.4 3.13-13.809l-35.273.179zm267.47 57.82c.229-.635-25.482-12.49-31.067-15.712-13.045-5.4-18.632 12.204-4.135 13.57l35.202 2.143zm-268.34-6.39c.098.665 28.689.262 35.207.752 14.214-.753 10.823-18.853-2.767-13.879L376.7 209.96zm270.21-44.99c-.05-.67-28.601-2.149-35.067-3.067-14.235-.184-12.178 18.095 1.743 14.027l33.324-10.96zm-245.73 98.46c.395.557 25.926-11.641 32.015-13.899 12.438-6.562 1.04-21.438-8.89-11.338L401.18 263.43zm222.3-152.33c-.353-.582-26.717 9.907-32.956 11.759-12.889 5.727-2.61 21.318 8.037 11.896l24.92-23.654zM442.83 298.77c.597.362 18.872-20.474 23.505-24.846 8.643-10.718-8.072-20.052-12.925-7.037l-10.58 31.883zM582.54 75.063c-.569-.4-20.327 19.183-25.269 23.239-9.407 10.124 6.583 20.535 12.378 7.87l12.891-31.11z"/>
      <g transform="matrix(2.1824 0 0 2.0629 -405.01 -272.56)">
        <path d="M360.137 247.889c.625 2.5.781 16.562 14.844 30 14.062 13.437 37.969 16.406 37.969 16.406s.156 1.875-1.563 2.031c-1.719.157-9.844-1.562-13.906-2.812-4.063-1.25-7.656-3.438-8.125-3.281-.469.156-1.25 1.562-2.5 1.406s-7.031-6.25-9.531-7.813c-2.5-1.562-10.938-10.781-13.75-15.312-2.813-4.531-3.438-7.5-4.375-7.5-.938 0-4.219 2.187-4.219 2.187s-2.969-4.531-5.625-11.719c-2.656-7.187-2.344-11.406-1.719-11.718.625-.313.625 5.312 2.656 10.468 2.032 5.157 4.844 6.719 4.844 6.719s-1.875-2.656-3.281-9.375-1.875-13.125-.938-15.156c.938-2.031 1.875-2.656 2.032-2.5.156.156-1.719 3.125-.469 10.781s4.844 14.219 5.625 13.906c.781-.312-.469-1.875-1.094-6.406s.625-7.344 1.719-7.656c.469-.469 1.25 5 1.406 7.344zm-9.845 12.81c-2.656-2.5-6.875-11.25-7.812-10.781-.938.469 6.875 12.969 7.031 14.063.156 1.093 1.875 4.531.625 4.062s-10.625-10.312-9.531-8.437 8.125 10.468 7.656 10.937-5.781-4.688-5.937-4.062c-.157.625 5.312 5.781 5.156 6.406s-3.438-3.281-3.438-2.5 3.438 4.687 3.438 5.312-2.969-2.812-2.031-.937c.937 1.875 3.593 3.594 3.437 4.219s-2.187-.782-2.187-.469c0 .312 3.906 1.719 4.843 2.812.938 1.094 7.344 8.438 12.188 12.188s18.594 10.156 19.531 10.156c.938 0 2.344-2.031 2.031-2.812-.312-.782-13.75-5.313-17.5-8.75-3.75-3.438-12.968-11.563-13.75-12.032-.781-.468-2.812-.312-2.812-.781s2.656.313 2.5 0c-.156-.312-3.75-1.875-3.594-2.187.156-.313 2.5.625 2.5.312 0-.312-4.219-2.656-4.062-3.125.156-.469 3.125 1.406 3.125 1.094 0-.313-4.063-3.125-3.907-3.594.157-.469 3.125 2.188 2.969 1.563s-2.344-3.907-2.344-4.375c0-.469 3.594 3.437 3.907 2.656.312-.781-1.25-7.188-1.094-7.344s2.645 1.422 3.114.484c.468-.937-1.837-2.241-4.052-4.078zM396.4 309.9c-1.893.249-2.747-.393-1.672-1.934 1.488-.11 5.449-1.379 6.849-1.96s2.894-1.416 4.137-2.534c1.24-1.22 1.903.782 1.282 1.819-.515.73-2.838 2.044-4.545 2.739-2.479.825-4.61 1.967-6.051 1.87zm12.487-5.131c-1.25-1.407-.156-2.344 1.719-3.438 2.812-1.562 2.032-3.593 5.625-5.312 1.563-.938 23.906-10 31.25-14.844s27.813-20.313 33.281-30.938c5.469-10.625 2.813-11.406 3.594-11.875.781-.468 1.563 1.563 1.406 3.907-.156 2.343-1.875 9.375-1.406 10s8.281-5.469 11.406-12.969 5.625-15.313 7.188-15.313c1.562 0-2.656 12.813-5.313 17.813-2.656 5-5.781 7.5-5 8.594.782 1.093 8.594-5.469 11.25-10.313 2.657-4.844 5.157-9.219 5.625-8.281.469.937-2.5 11.25-6.718 16.094-4.219 4.843-9.219 8.281-8.438 9.062.781.782 6.406 1.563 12.344-2.5 5.937-4.062 6.562-10 7.344-9.687.781.312-.782 8.437-6.407 13.437s-13.281 5.469-12.968 6.563c.312 1.094 16.25-4.531 15.937-3.281-.312 1.25-20.625 9.218-20.782 10 .001.625 3.439.781 8.907-.469 5.469-1.25 10.626-5.468 11.407-4.531.155 1.406-3.907 4.844-10.157 6.406-6.25 1.563-9.375 3.75-9.531 4.219-.156.468 11.094-1.407 11.094-.782s-14.688 3.438-14.844 4.22c-.156.781 14.062-2.813 13.75-2.032-.313.781-19.219 6.406-19.063 6.719.157.312 15.782-3.438 15.469-2.813-.312.625-26.406 7.969-26.562 8.438-.157.468 22.968-5.157 22.812-4.688s-12.031 3.437-12.031 3.75c0 .312 9.531-1.562 9.375-1.094-.156.469-24.063 6.563-24.532 7.5-.468.938 12.344-2.5 12.188-.781s-27.656 11.094-27.813 9.375c-.156-1.719 16.719-6.094 16.563-6.562-.156-.469-9.687 1.093-9.844.156-.156-.938 6.25-2.969 5.782-3.438-.469-.468-5.313 1.406-4.844.313.469-1.094 9.531-5.313 9.375-5.625-.156-.313-3.281 1.093-2.969 0 .313-1.094 19.687-6.719 19.375-7.344-.313-.625-8.906 1.406-9.687 1.562-.313-.624 12.031-5.156 11.718-5.937-.312-.781-6.562 2.656-6.874 1.719-.313-.938 10.781-5.313 10.156-5.938s-5.781 1.719-6.406 1.094 10.468-8.437 8.749-8.594c-1.718-.156-3.75 2.345-4.062.782.313-2.032 8.75-5.313 6.875-6.875-2.969-.938-13.125.625-17.344 3.125s-18.125 16.406-21.563 18.593c-3.437 2.188-15 7.032-17.187 7.969-3.438 1.25-4.063 3.125-7.5 4.844-6.251 1.719-6.25 3.594-9.219 4.687-1.093.313-12.343 5.781-12.5 5.313zm-15.78 7.028c-1.875.938-3.593 3.438-2.501 4.375.626 1.25 2.501-2.656 4.063-2.5 1.563.156 3.75.157 7.969.47 4.219.312 6.406-.938 8.75-.782s7.657-1.25 10.157-1.25 2.968.312 3.281-.782c.312-1.093-7.813-.312-11.407-.468-3.593-.156-8.125.781-10.781.781-2.5-.156-6.875-.938-9.531.156z"/>
        <rect rx="1.719" ry="1.484" height="2.969" width="3.438" y="309.14" x="401.7"/>
        <path d="M445.02 307.731c1.718-.313 6.307 1.25 9.478 2.031 5.828 2.188 16.603 1.094 16.603 2.188s-.67 2.5-3.242 2.656-8.758-.937-8.587-.937 4.972 2.187 3.6 2.812-5.486-1.25-6.171-.781 3.771 1.406 3.086 1.719c-.686.312-3.782-.469-4.811-.312-1.028.155.868 1.249-.333 1.718-1.199.469-3.216-.624-4.073-.313-.857.314 1.845 2.032.645 2.188-1.2.156-4.089-.781-5.632-.937-1.543-.156 1.518 1.562.49 1.718-1.03.156-3.827-1.249-4.512-1.249s.054 1.874-.974 1.874c-1.029 0-2.239-1.562-2.753-1.562s.01 1.875-1.018 1.875-1.397-2.031-2.254-1.875c-1.014.157.025 2.656-1.346 2.5-1.371-.157-1.553-2.656-2.581-2.5-1.03.156.182 2.5-.847 2.5-1.028 0-1.195-2.344-2.224-2.5-1.028-.156-.52 2.187-1.205 2.187s-1.195-2.187-1.538-2.187c-.342 0-.004 2.187-1.205 2.031s-1.194-2.5-1.538-2.344c-.342.157-.348 1.719-1.204 1.719s-.853-1.562-1.195-1.406c-.344.156-1.548 2.187-2.405 1.875-.857-.313.206-1.875-.136-1.875-.343 0-1.406 1.093-2.092.937s.035-1.406-.137-1.406c-.171 0-1.75.781-2.435.781s-2.571 1.094-3.086.156c-.513-.937 1.342-.937 1.684-1.875.344-.937-.998-3.593.373-4.531 1.372-.937 5.658 1.25 12-.312 11.656-3.125 20.652-6.718 21.575-6.563z"/>
      </g>
    </g>
  </g>
</svg>
