<svg xmlns="http://www.w3.org/2000/svg" xmlns:xlink="http://www.w3.org/1999/xlink" height="512" width="512" id="flag-icon-css-li">
  <path fill="#002b7f" d="M0 0h512.1v256H0z"/>
  <path fill="#ce1126" d="M0 256h512.1v256H0z"/>
  <g transform="translate(-54) scale(.85333)" fill="#ffd83d" stroke="#000" stroke-width="2" stroke-linecap="round" stroke-linejoin="round">
    <g id="a">
      <path d="M216.377 122.29l-1.838 62.5h-63.42c-7.803-15.17-14.247-28.053-14.247-45.498 0-14.6 11.483-26.195 28.033-26.195 17.52 0 36.77 5.904 51.47 9.192z" stroke="none"/>
      <g stroke-width="1.5">
        <path d="M144.456 125.16v36.076m5.094-39.756v48.033m5.093-50.561v57.225m5.093-58.407v44.882m5.094-45.104v45.327m5.093-46.91v46.885m5.094-46.885v46.885m5.093-46.426v46.885m5.094-46.425v46.885m5.093-43.899v46.886m5.093-46.426v52.86m5.094-52.86v46.886m5.093-46.886v46.886"/>
        <path d="M176.395 117.923c10.764 1.775 34.407 12.837 31.71 27.803-3.82 21.21-16.208 12.698-32.63 9.65l-12.407 4.137c-4.44 4.532-10.978 8.683-15.395 3.217h-7.353v28.722h81.342V122.06z" fill="#000"/>
      </g>
      <circle cx="212.815" cy="112.983" r="4.94"/>
      <circle cx="201.713" cy="110.311" r="4.94"/>
      <circle cx="190.45" cy="107.482" r="4.94"/>
      <circle cx="179.143" cy="105.596" r="4.94"/>
      <circle cx="167.836" cy="104.481" r="4.94"/>
      <circle cx="156.749" cy="105.113" r="4.94"/>
      <circle cx="146.179" cy="108.732" r="4.94"/>
      <circle cx="137.276" cy="115.28" r="4.94"/>
      <circle cx="130.957" cy="124.414" r="4.94"/>
      <circle cx="127.912" cy="135.156" r="4.94"/>
      <circle cx="128.027" cy="146.301" r="4.94"/>
      <circle cx="130.152" cy="157.215" r="4.94"/>
      <path d="M214.998 119.53l-.46 6.435c-12.29-1.883-29.714-8.732-45.955-8.732-15.006 0-26.654 6.003-26.654 21.14 0 14.92 6.316 28.485 14.704 42.28l-8.73 4.136c-7.804-15.17-14.248-28.053-14.248-45.498 0-14.6 11.484-28.952 31.25-28.952 17.52 0 35.39 5.904 50.092 9.19z"/>
    </g>
    <use height="100%" width="100%" xlink:href="#a" transform="matrix(-1 0 0 1 443.938 0)"/>
    <path d="M221.97 53.125l-5.157 9.656 5.156 9.626 5.155-9.625-5.156-9.655zm0 24.375l-5.157 9.625 5.156 9.656 5.155-9.655-5.156-9.625zm-18.383-2.547l8.132 5.156 8.104-5.157-8.105-5.156-8.133 5.156zm20.526 0l8.106 5.156 8.13-5.157-8.13-5.156-8.107 5.156z"/>
    <circle cx="221.969" cy="75.069" r="3.906"/>
    <circle cx="221.969" cy="100" r="10.455"/>
    <path d="M219.344 89.875c0 3.114-.022 4.924-.03 6.625a62.506 62.506 0 0 0-7.44.78m20.19 0a62.126 62.126 0 0 0-7.44-.78v-6.625m-12.78 12.688a61.39 61.39 0 0 1 10.125-.844c3.45 0 6.83.292 10.124.843" fill="none" stroke-width="1.5"/>
    <path d="M211.75 117.688c-.992 17.082-3.01 34.48-9.656 47.124l10.812-4.375c3.777-14.328 4.57-32.842 5.72-41.593l-6.876-1.156zm20.438 0l-6.875 1.156c1.148 8.75 1.942 27.265 5.718 41.594l10.814 4.375c-6.648-12.646-8.665-30.043-9.656-47.125z"/>
    <path d="M221.953 154.688c-12.913 0-22.4 6.086-22.97 21.593-3.155-5.554-16.51-23.024-28.967-20.686-7.41 1.39-13.957 11.666-12.844 23.437-6.135-17.63-24.107-20.518-37.22-10.093 11.643 9.573 16.822 37.835 26.626 50.094h150.75c9.804-12.258 15.014-40.52 26.656-50.093-13.112-10.425-31.083-7.536-37.218 10.094 1.113-11.77-5.466-22.046-12.875-23.436-12.458-2.338-25.78 15.132-28.937 20.687-.57-15.506-10.086-21.593-23-21.593z"/>
    <g stroke-width="1.5">
      <path d="M297.107 219.026c0 5.58-33.662 11.718-75.138 11.718-41.477 0-75.14-6.137-75.14-11.718 0-5.58 33.663-8.502 75.14-8.502 41.475 0 75.137 2.92 75.137 8.502z" fill="#000"/>
      <circle cx="221.969" cy="114.445" r="3.504"/>
      <circle cx="221.969" cy="122.027" r="3.734"/>
      <circle cx="221.969" cy="130.184" r="4.079"/>
      <circle cx="221.969" cy="139.261" r="4.653"/>
      <circle cx="221.969" cy="149.371" r="5.113"/>
      <path d="M219.938 159.206c-.553-.007-1.076.46-.938 1.344.163 1.043.367 2.995.563 4.312.22 1.493 1.09 1.13 1.312-.03.22-1.162.132-1.907.188-4.064.027-1.078-.573-1.555-1.125-1.562zm4.062 0c-.553.007-1.153.484-1.125 1.562.055 2.157-.034 2.902.188 4.063.22 1.162 1.09 1.525 1.312.032.195-1.317.4-3.27.563-4.312.138-.885-.385-1.35-.938-1.344zm-7.687.562c-.506.07-1.03.58-1 1.125.055.996.33 2.19.437 3.688.11 1.55 1.202.948 1.313.063.11-.884.235-2.192.125-3.906-.042-.643-.323-.925-.657-.97a.84.84 0 0 0-.217 0zm11.093 0c-.334.043-.615.326-.656.97a20.13 20.13 0 0 0 .125 3.905c.11.885 1.202 1.486 1.313-.062.107-1.498.382-2.69.437-3.687.03-.544-.494-1.054-1-1.125a.84.84 0 0 0-.22 0zm-15.437 1.75c-.464.12-.89.677-.75 1.313.275 1.273.53 2.68.53 3.97 0 1.106.945.71 1-.063a59.76 59.76 0 0 0 .156-3.906c0-1.114-.474-1.43-.937-1.312zm19.686 0c-.33.09-.625.477-.625 1.313 0 1.494.103 3.133.158 3.907.055.774 1 1.17 1 .063 0-1.29.254-2.697.53-3.97.14-.635-.286-1.192-.75-1.312a.55.55 0 0 0-.312 0zm-59.093.17c-.555-.017-.943.735-.563 1.564.608 1.327 1.254 2.165 1.875 3.594.553 1.27 1.4.478 1.125-.407-.277-.885-.577-1.87-1.406-3.75-.31-.706-.7-.99-1.03-1zm98.812 0c-.332.012-.72.296-1.03 1-.83 1.88-1.13 2.867-1.407 3.75-.277.886.57 1.68 1.125.408.62-1.43 1.266-2.267 1.875-3.594.38-.83-.008-1.58-.563-1.563zm-94.812.064c-.408.124-.656.642-.407 1.25.498 1.216 1.217 2.463 1.72 3.78.44 1.162 1.425.833 1.093-.218-.333-1.05-.432-1.665-1.095-3.656-.332-.995-.905-1.28-1.312-1.156zm90.5 0c-.35.074-.752.41-1 1.156-.664 1.99-.763 2.606-1.094 3.656-.333 1.05.65 1.38 1.093.22.502-1.32 1.22-2.566 1.718-3.782.25-.608.003-1.126-.405-1.25a.592.592 0 0 0-.312 0zm-85.5.97c-.515.096-.913.88-.563 1.842.443 1.217 1.072 2.368 1.625 3.75.553 1.383 1.47 1.104 1.25.22-.22-.886-.492-2.352-1.156-4.563-.29-.967-.758-1.325-1.157-1.25zm80.812 0c-.4-.078-.866.28-1.156 1.25-.665 2.21-.936 3.676-1.157 4.56-.222.886.696 1.165 1.25-.218.553-1.382 1.182-2.533 1.625-3.75.35-.96-.05-1.746-.563-1.843zm-93.187.686c-.557.057-1.065.965-.72 1.656.554 1.106.904 1.483 1.438 2.657.553 1.217 1.16.275.938-.5-.222-.774-.505-1.675-.78-2.78-.204-.81-.542-1.066-.876-1.032zm105.562 0c-.334-.034-.672.22-.875 1.03-.276 1.107-.56 2.008-.78 2.783-.223.775.383 1.717.936.5.535-1.173.885-1.55 1.44-2.656.344-.69-.163-1.6-.72-1.656zm-67.03 2.798c-.585 0-1.21.774-1 1.5.33 1.16.843 2.19 1.218 3.687.33 1.327 1.274.666 1.218-.218-.055-.885-.207-2.09-.593-3.97-.146-.704-.494-1-.844-1zm28.5 0c-.352 0-.7.295-.845 1-.387 1.88-.538 3.084-.594 3.97-.054.883.888 1.544 1.22.217.374-1.496.887-2.526 1.22-3.687.206-.726-.417-1.5-1-1.5zm-14.25 1.187c-.72 0-.82.966-.845 1.75-.083 2.572-1.15 5.07-2.062 6.313-.913 1.244-2.256.913-3.5.25-1.245-.664-1.986-1.16-3.313-2.156-1.327-.996-2.334-.414-.75 1.843 4.617 6.58 9.625 12.205 9.625 22.938 0 1.39.242 1.813.844 1.813.6 0 .874-.424.874-1.812 0-10.732 4.976-16.356 9.594-22.937 1.583-2.257.577-2.84-.75-1.843-1.327.995-2.07 1.492-3.313 2.156-1.244.663-2.588.994-3.5-.25-.913-1.244-1.98-3.74-2.062-6.313-.026-.784-.125-1.75-.844-1.75zm-35.282-1.61a.592.592 0 0 0-.188.03c-.27.086-.448.41-.344.97.186 1.002.88 2.967 1.157 3.906.276.94 1.432.74 1.156-.532-.278-1.272-.263-1.656-.595-3.094-.18-.786-.747-1.27-1.187-1.28zm70.562 0c-.44.012-1.006.495-1.187 1.28-.332 1.44-.318 1.823-.594 3.095-.278 1.272.878 1.472 1.155.53.276-.938.97-2.903 1.156-3.905.105-.56-.074-.884-.342-.97a.598.598 0 0 0-.188-.03zm-91.53.406c-.58.045-.995.772-.407 1.843.633 1.157 1.72 2.608 2.218 3.438.5.83 1.36.27.75-.78-.607-1.05-.81-2.258-1.53-3.75-.27-.56-.684-.778-1.03-.75zm112.5 0c-.35-.028-.763.19-1.032.75-.72 1.492-.924 2.7-1.532 3.75-.608 1.05.253 1.61.75.78.498-.83 1.585-2.28 2.22-3.437.587-1.07.172-1.798-.407-1.844zm-144.19 3.328c-.667-.035-.876 1.17-.25 1.97.914 1.16 1.55 1.776 2.595 2.718.83.746 1.07-.222.656-.97-.413-.745-1.013-1.504-1.842-2.75-.455-.68-.853-.95-1.157-.968zm175.876 0c-.303.016-.7.287-1.156.97-.83 1.244-1.43 2.003-1.844 2.75-.414.746-.173 1.714.657.968 1.046-.942 1.68-1.558 2.593-2.72.627-.797.418-2.003-.25-1.968zm-170.843 1c-.533.007-.884.4-.47 1.313.595 1.307 1.378 2.787 1.876 3.782.496.995 2.013 1.33 1.405-.22-.608-1.547-.728-2.342-1.28-3.78-.278-.72-1-1.1-1.532-1.094zm165.812 0c-.532-.007-1.255.375-1.53 1.094-.554 1.438-.674 2.233-1.282 3.78-.61 1.55.908 1.215 1.406.22.497-.995 1.28-2.475 1.874-3.78.414-.914.063-1.307-.47-1.314zm-175.562.344c-.774.008-.84.784-.157 1.28.913.665 2 1.4 3.063 2.25 1.243.997 1.725.08 1.06-.75-.662-.828-1.308-1.67-2.967-2.5-.415-.206-.743-.282-1-.28zm185.312 0c-.258-.003-.585.074-1 .28-1.66.83-2.305 1.672-2.97 2.5-.662.83-.18 1.747 1.064.75 1.06-.85 2.15-1.585 3.06-2.25.685-.496.62-1.272-.155-1.28zm-109.656.72c-.434.06-.808.55-.626 1.186.33 1.16.708 2.392.937 3.594.223 1.162 1.566 1.176 1.345.125-.22-1.05-.332-2.365-.72-3.97-.144-.6-.447-.89-.75-.936a.62.62 0 0 0-.186 0zm33.81 0c-.3.046-.604.335-.75.936-.385 1.604-.497 2.92-.717 3.97-.222 1.05 1.122 1.036 1.343-.126.23-1.202.606-2.433.938-3.594.18-.635-.192-1.127-.625-1.187a.62.62 0 0 0-.19 0zm-63.905-1.986c-.34.094-.536.744-.28 1.656 1.41 5.06 1.84 7.724 1.593 8.97-.25 1.243-.932 1.413-1.844 1a18.844 18.844 0 0 1-2.813-1.595c-.828-.58-1.69.114-.5 1.094 6.056 4.977 10.253 10.665 11.876 17.563.332 1.41 1.218 1.576.97 0-1.373-8.69-1.637-15.833.437-20.312.78-1.683-.006-3.3-1.25-.562-.83 1.825-2.172 2.545-3.25.97-1.08-1.577-3.306-5.78-3.97-7.69-.248-.714-.555-1.045-.812-1.092a.352.352 0 0 0-.155 0zm94.03 0c-.255.047-.562.378-.81 1.093-.665 1.907-2.892 6.11-3.97 7.687-1.08 1.576-2.42.856-3.25-.97-1.244-2.736-2.03-1.12-1.25.564 2.074 4.48 1.81 11.623.438 20.313-.25 1.576.637 1.41.968 0 1.624-6.898 5.82-12.586 11.876-17.562 1.192-.98.33-1.674-.5-1.093-.83.58-1.9 1.18-2.812 1.594-.912.415-1.595.245-1.844-1-.25-1.244.184-3.91 1.594-8.968.254-.912.058-1.562-.28-1.656a.352.352 0 0 0-.158 0zm-124.467 2.422c-.547.007-1 .39-.75 1.22.398 1.328 1.223 2.764 1.5 3.593.276.83 1.165.443 1-.718-.166-1.16-.248-1.853-.47-3.125-.11-.636-.734-.976-1.28-.97zm155.062 0c-.546-.007-1.17.333-1.28.97-.223 1.27-.304 1.963-.47 3.124-.166 1.16.723 1.548 1 .72.276-.83 1.1-2.266 1.5-3.595.25-.83-.204-1.212-.75-1.22zm-136.28-1.735c-.636-.114-.728 1.524-.19 2.188.72.886 1.72 1.955 2.72 3.157.83.995 1.342.11.844-.72-.498-.83-1.236-1.71-2.563-3.81-.33-.527-.6-.776-.81-.814zm117.5 0c-.213.038-.482.287-.814.813-1.327 2.1-2.065 2.982-2.562 3.812-.498.83.014 1.714.844.72 1-1.203 2-2.272 2.718-3.157.54-.663.448-2.3-.187-2.187zm-132 3.954c-.395-.027-.73.292-.564 1.094.232 1.117.567 2.044.844 3.095.276 1.05 1 .87 1-.125 0-.996-.178-2.106-.344-3.157-.083-.525-.543-.878-.937-.906zm146.5 0c-.395.028-.856.38-.94.906-.165 1.05-.342 2.16-.342 3.157 0 .995.723 1.175 1 .125.276-1.05.612-1.978.843-3.094.167-.8-.167-1.12-.56-1.093zm-133.407 1.42c-.62.095-1.164.693-.438 1.626 1.16 1.493 2.432 2.54 2.875 3.094.442.553 1.563.35.844-.813-.735-1.186-1.846-2.615-2.344-3.5-.187-.33-.566-.462-.937-.406zm120.062 0c-.272.03-.548.16-.687.407-.498.885-1.61 2.314-2.344 3.5-.72 1.162.4 1.366.844.813.442-.553 1.713-1.6 2.875-3.094.725-.933.18-1.53-.438-1.625a.873.873 0 0 0-.25 0zm-140.72 4.174c-.487-.043-.656.35 0 1.25 1.494 2.047 3.14 5.143 3.25 6.47.112 1.327-.544 1.312-1.155 1.312-1.825 0-2.716-1.332-4.375-1.72-1.66-.386-1.9.487-.72 1.345 6.084 4.424 12.18 9.36 14.626 13.844.996 1.826 2.342 2.493 1.595.75-2.287-5.336-2.84-9.856-2.344-12.593.5-2.737 1.178-4.58 1.095-6.156-.083-1.575-.977-1.467-1.344 0-.248.996-.73 2.315-1.06 2.813-.333.498-1.667.777-2.94-.937-1.27-1.714-4.48-5.015-5.53-5.844-.394-.31-.8-.505-1.094-.53zm161.626 0c-.292.027-.7.22-1.092.532-1.05.83-4.26 4.13-5.532 5.844-1.272 1.714-2.606 1.435-2.937.937-.333-.498-.815-1.817-1.064-2.812-.367-1.467-1.26-1.575-1.343 0-.083 1.577.595 3.42 1.093 6.157s-.056 7.257-2.343 12.594c-.747 1.743.598 1.076 1.593-.75 2.447-4.484 8.543-9.42 14.625-13.843 1.182-.858.942-1.73-.717-1.344-1.66.387-2.55 1.72-4.375 1.72-.61 0-1.268.014-1.157-1.313.112-1.327 1.758-4.423 3.25-6.47.658-.9.49-1.293 0-1.25z" fill="#000" stroke="none"/>
      <path d="M150.127 212.65l1.95 6.175m2.06-7.344l1.728 6.24m2.605-6.952l1.187 6.365m2.833-7.17l1.27 6.35m3.886-6.858l1.032 6.392m4.452-6.385l1.112 6.378m4.242-8.19l.803 6.426m4.234-6.1l.804 6.425m4.07-7.073l.805 6.424m4.088-6.928l.442 6.46m4.786-6.462l.384 6.463m4.357-6.79l.326 6.467m4.9-6.793l.272 6.47m5.74-6.632l.272 6.47m79.044.176l-1.95 6.175m-2.06-7.344l-1.728 6.24m-2.604-6.952l-1.187 6.365m-2.832-7.17l-1.27 6.35m-3.886-6.858l-1.033 6.392m-4.453-6.385l-1.112 6.378m-4.24-8.19l-.805 6.426m-4.233-6.1l-.804 6.425m-4.07-7.073l-.804 6.424m-4.09-6.928l-.442 6.46m-4.787-6.462l-.382 6.463m-4.357-6.79l-.326 6.467m-4.9-6.793l-.27 6.47m-5.742-6.632l-.27 6.47m-7.203-6.89v7.122"/>
    </g>
  </g>
</svg>
