<svg xmlns="http://www.w3.org/2000/svg" height="512" width="512" id="flag-icon-css-mh">
  <g fill-rule="evenodd">
    <path fill="#3b5aa3" d="M0 0h511.9v512H0z"/>
    <path d="M139.06 1.24l-5.4 87.963-23.12-56.095 8.87 59.71-35.796-48.252L107.08 99.62 60.067 63.154l36.592 45.826-53.14-23.552 46.549 35.244-57.895-7.655 54.706 21.687-85.871 7.854 86.083 5.754-54.547 22.427 57.311-7.755-46.377 34.245 53.819-23.615-36.708 46.202 46.7-35.358-23.136 53.817 37.382-46.801-10.119 58.338L134.93 195.3l5.315 86.112 8.293-85.9 20.274 54.844-7.73-59.095 37.199 46.84-24.441-54.707 46.68 37.649-37.112-47.005 55.48 23.1-49.101-35.857 59.797 10.08-57.246-21.987 89.038-5.53-89.038-8.292 58.605-19.535-60.733 7.629 50.18-35.082-56.558 22.75 39.06-47.352-47.565 37.146 22.888-56.832-36.92 48.327 7.93-60.27-21.963 56.868-8.204-87.962z" fill="#fff"/>
    <path d="M0 498.22L511.94 0l-.03 92.71L0 512v-13.78z" fill="#e2ae57"/>
    <path d="M17.918 511.98l494.08-320.81-.11-101.85L-.002 512l17.918-.02z" fill="#fff"/>
  </g>
</svg>
