<svg xmlns="http://www.w3.org/2000/svg" height="512" width="512" id="flag-icon-css-mp">
  <defs>
    <clipPath id="a">
      <path fill-opacity=".67" d="M248.03 0h496.06v496.06H248.03z"/>
    </clipPath>
  </defs>
  <g clip-path="url(#a)" transform="translate(-256) scale(1.0321)">
    <path fill-rule="evenodd" fill="#0071bc" d="M0 0h992.13v496.06H0z"/>
    <path d="M553.43 392.43s17.493-18.502 34.313-14.97c5.046-19.511 24.053-21.025 24.053-21.025s-1.85-21.53 22.539-26.239c.673-14.634 15.475-26.744 15.475-26.744s-3.028-22.707 12.447-27.921c-9.42-17.998 3.196-31.118 3.028-31.454-.168-.336-15.98-28.426-1.85-36.5-14.97-12.615-10.093-26.912-10.093-26.912s-16.316-4.205-10.429-23.717c-13.456-2.355-16.147-24.053-16.147-24.053s-20.689 4.205-23.212-13.793c-13.624 2.187-15.138-11.269-15.306-11.269-.168 0-27.08 7.233-32.463-13.12-10.428 5.383-14.97-4.205-14.97-4.205s-14.97 7.4-23.885-6.896c-17.829 11.1-27.753-.505-27.753-.505s-23.38 15.475-31.117 3.532c-13.793 13.961-26.07 7.906-26.07 7.906s-10.43 18.502-27.25 13.792c-3.868 17.157-23.212 17.493-23.212 17.493s2.019 15.138-21.193 19.175c-3.027 17.829-15.138 20.857-15.138 20.857s1.178 17.325-9.755 22.875c3.868 9.756-6.224 21.698-6.224 21.698s10.765 13.456-3.868 28.594c14.129 3.7 3.868 28.09 3.868 28.09s19.511 8.746 7.233 24.894c13.96 4.541 9.587 15.643 9.756 22.203 8.914 4.037 16.82 2.018 12.952 20.016 27.417 3.028 14.465 18.166 14.465 18.166s12.783.505 7.737 10.597c23.38-.505 26.744 17.493 26.744 17.493s21.698-5.72 24.558 2.691c2.86 8.41-9.42 65.094-9.42 65.094s-18.333 0-31.957-14.633c-31.958-.84-24.894-21.866-25.4-21.866-.504 0-10.596 3.869-15.81-13.624-21.362 4.373-20.69-13.624-20.857-13.792-.169-.168-9.588-4.373-6.056-13.288-22.034 2.018-20.352-19.51-20.352-19.51-4.822-1.963-6.616-6.449-5.887-10.934-2.86-1.01-22.37-1.346-12.279-27.08-18.67-11.27-7.064-24.22-7.064-24.22s-25.735-13.289-5.887-28.595c-14.802-21.866 1.177-32.799 1.177-32.799s-20.521-20.857.336-35.659c-3.364-31.622 15.475-39.19 15.475-39.19s-9.923-25.736 16.988-36.5c1.682-26.072 20.521-26.745 20.521-26.745s.505-20.689 30.108-18.67c5.72-18.502 25.903-14.802 25.903-14.802s6.224-22.37 33.64-11.606c13.961-27.249 34.65-13.288 34.65-13.288s13.12-8.578 19.68-5.887c8.33-14.315 26.063-.555 37.53 2.215 4.155-1.616 18.986-12.812 30.424 1.317 15.138-9.924 28.09 7.906 28.09 7.906s20.857-10.596 30.613 13.624c44.237-4.037 37.845 24.894 37.845 24.894s34.818-7.906 27.25 26.744c31.621 2.186 28.425 23.044 28.425 23.044s20.016 15.138 11.27 28.762c17.828.84 11.268 17.998 11.268 17.998s13.624 5.214 2.355 26.408c26.071 20.857 5.046 41.546 4.878 41.378-.168-.168 13.961 16.82 1.178 36.332 3.868 30.949-11.774 38.855-11.774 38.855s4.036 20.016-13.456 25.735c-.337 23.548-22.54 26.408-22.54 26.408s5.888 10.229-16.146 20.994c-.87 15.757-23.885 17.02-23.885 17.02s-2.187 28.93-31.454 21.193c-7.104 23.212-41.378 16.316-42.05 15.979-.673-.337-6.56-49.788-6.56-49.956z" fill-rule="evenodd" stroke="#000" stroke-width="1.92" fill="#fff"/>
    <path stroke-linejoin="round" d="M340.86 114.83c.086 0 7.418 6.36 6.048 15.944-1.369 9.585-6.904 22.908-5.791 32.834.68 3.98.422 11.11.422 11.11s-6.647-9.445-6.732-19.543 7.197-19.686 7.197-27.131-1.315-13.385-1.144-13.214zm-3.64 2.86s-9.622 9.185-10.861 18.112c-.915 4.601-1.27 26.041-1.378 35.556-.216 2.92-1.426 14.444-1.683 18.637-.257 4.193 7.078-7.158 7.497-16.4-.23-9.567-.23-29.717.743-32.745.865-3.893.676-8.194 2.015-12.098 1.77-5.418 3.752-10.976 3.667-11.062z" fill-rule="evenodd" stroke="#000" stroke-width="1.92" fill="#217900"/>
    <g fill-rule="evenodd" stroke="#ef8a10" fill="#ffd200">
      <path d="M548.877 87.677s12.475-5.755 16.041-16.472-10.796-10.82-12.694-7.414c-1.897 3.407 1.619 11.888.713 14.13-.905 2.243-5.98 7.656-4.06 9.756z" stroke-width="1.92"/>
      <path d="M438.31 91.587s8.099-11.098 5.999-22.197c-2.1-11.097-14.697-4.199-14.697-.3 0 3.9 7.198 9.599 7.498 11.998.3 2.4-1.5 9.598 1.2 10.498zm-21.895 6.599s8.099-11.097 5.999-22.196c-2.1-11.098-14.697-4.2-14.697-.3 0 3.9 7.198 9.598 7.498 11.998.3 2.4-1.5 9.598 1.2 10.498zm-24.295 7.498s8.1-11.098 6-22.196c-2.1-11.098-14.697-4.2-14.697-.3 0 3.9 7.198 9.598 7.498 11.998.3 2.4-1.5 9.598 1.2 10.498zm-17.095 17.096s8.098-11.098 5.999-22.196c-2.1-11.098-14.697-4.2-14.697-.3 0 3.9 7.198 9.598 7.498 11.998.3 2.4-1.5 9.598 1.2 10.498zm-17.996 16.497s8.098-11.098 5.998-22.196c-2.1-11.098-14.697-4.2-14.697-.3 0 3.9 7.199 9.598 7.499 11.998.3 2.4-1.5 9.598 1.2 10.498z" stroke-width="2.559"/>
      <path d="M398.406 43.176s-10.785 8.511-11.747 19.765c-.962 11.253 13.026 7.997 14.075 4.24 1.048-3.755-4.352-11.18-3.996-13.571.356-2.392 4.026-8.841 1.667-10.434zm35.992-11.099s-10.785 8.511-11.747 19.764c-.962 11.254 13.027 7.997 14.075 4.242 1.049-3.756-4.352-11.18-3.996-13.572.357-2.392 4.026-8.841 1.668-10.434zM300.27 129.24s2.278 13.548 11.683 19.802 13.275-7.577 10.486-10.302-11.896-1.56-13.822-3.021c-1.926-1.463-5.817-7.78-8.347-6.479zm-17.975 46.003s.111 13.738 8.411 21.398c8.3 7.66 14.305-5.388 11.98-8.52s-11.5-3.416-13.171-5.164c-1.671-1.748-4.517-8.6-7.22-7.714zm41.471 51.393s-4.904-12.834-15.357-17.111c-10.453-4.278-11.52 10.045-8.25 12.167 3.272 2.122 11.97-.816 14.147.238 2.176 1.054 7.236 6.481 9.46 4.706zm-8.616-22.209s8.314-10.938 6.43-22.076c-1.883-11.136-14.612-4.484-14.688-.586-.076 3.899 7.01 9.737 7.263 12.142.254 2.404-1.686 9.566.996 10.519zM574.37 98.774s12.475-5.755 16.04-16.472-10.796-10.82-12.693-7.413c-1.898 3.406 1.618 11.887.713 14.13-.906 2.242-5.981 7.655-4.06 9.755zm37.72 18.816s7.338-11.615 4.5-22.548c-2.837-10.932-14.944-3.207-14.684.684.261 3.89 7.825 9.095 8.285 11.469.46 2.374-.855 9.677 1.899 10.394zm102.967 106.896s-4.92-12.826-15.38-17.09c-10.459-4.263-11.507 10.06-8.233 12.178 3.274 2.118 11.969-.832 14.147.219 2.177 1.051 7.244 6.472 9.466 4.693zm-50.351 7.967s.285-13.736 8.682-21.29c8.397-7.555 14.235 5.567 11.871 8.669-2.363 3.101-11.542 3.27-13.236 4.997-1.693 1.727-4.624 8.544-7.317 7.623zm-8.101-145.66s-12.843-4.878-22.99.08c-10.15 4.957-.168 15.283 3.593 14.253 3.76-1.03 7.355-9.478 9.59-10.402 2.235-.923 9.653-1.089 9.808-3.93zm-29.389-24.595s-12.843-4.879-22.99.078c-10.15 4.958-.168 15.284 3.593 14.254 3.76-1.03 7.355-9.478 9.59-10.402 2.235-.923 9.653-1.089 9.808-3.93zm-43.824-23.454s-10.888 8.378-11.988 19.618c-1.1 11.241 12.927 8.157 14.021 4.414 1.095-3.743-4.214-11.233-3.829-13.62.386-2.388 4.134-8.791 1.796-10.413zm-28.545-6.866s-4.965 12.81-.076 22.99c4.888 10.183 15.282.271 14.277-3.497-1.004-3.767-9.428-7.418-10.336-9.66-.908-2.241-1.024-9.66-3.865-9.834zM473.898 81.24s8.88-10.482 7.59-21.703c-1.29-11.22-14.354-5.253-14.636-1.364-.283 3.89 6.484 10.094 6.61 12.51.125 2.415-2.192 9.464.436 10.557z" stroke-width="1.92"/>
    </g>
    <path d="M522.23 103.74s21.288 1.34 22.33 13.547-5.061 19.651-5.061 19.651 2.68 26.35-18.162 34.091c-22.33 2.68-57.314.596-57.314.596s-10.273 2.53-14.44-18.757c-4.169-21.288-5.36-36.324-5.36-36.324s2.084-11.91 17.12-12.654c15.036-.745 60.738.148 60.887-.15z" fill-rule="evenodd" stroke="#000" stroke-width="1.92" fill="#8c8a8c"/>
    <path d="M539.35 136.79s-11.463 14.291-10.272 20.097" stroke="#000" stroke-linecap="round" stroke-width="1.92" fill="none"/>
    <path d="M524.02 170.28c2.829 2.382 5.508 5.061 6.104 13.845l1.19 17.567 14.887 133.98 13.1 96.914.894 15.036s-3.126 11.016-11.91 11.909c-6.4 13.398-41.087 17.269-44.511 17.12-3.127-.149-14.143-4.764-20.842-4.168-6.7.595-18.311 5.061-23.521 4.317-5.21-.744-16.971-4.764-19.055-13.25-14.59-4.614-16.971-15.78-16.971-15.78l15.78-112.1 15.333-141.72s1.786-18.905 9.378-21.734c7.89-.745 48.68.744 60.143-1.936z" fill-rule="evenodd" stroke="#000" stroke-width="1.92" fill="#8c8a8c"/>
    <path d="M443.63 364.26l-3.126 99.147m99.446-86.047l8.783 81.729" stroke="#000" stroke-width="1.92" fill="none"/>
    <path fill="none" stroke="#000" d="M285.28 312.74l-.327 1.144m412.167-4.734l.327 1.144"/>
    <path stroke-linejoin="round" d="M274.24 178.89s6.522 9.03 7.693 14.215c1.17 5.184 3.344 15.386 6.187 19.566 2.843 4.18 19.065 27.427 19.901 37.126.168 6.355-6.689 17.225-16.89 17.392-6.355-.167-22.744-4.348-23.413-18.396-.67-14.048 5.016-14.382 5.685-22.911.67-8.529.837-46.826.837-46.993z" stroke="#6b18b5" stroke-width="1.92" fill="none"/>
    <path stroke-linejoin="round" d="M386.28 55.917s-6.753.482-11.951 3.3c-4.028 2.484-10.851 6.057-15.619 12.668-12.127 9.454-30.371 13.865-36.125 21.719-3.444 5.343-3.233 18.194 5.397 23.636 5.517 3.159 21.693 8.1 29.562-3.555 7.87-11.657 3.185-14.897 7.044-22.532 6.368-17.501 21.605-35.093 21.692-35.236zm163.8-17.06s-5.043-4.516-10.684-6.29c-4.586-1.166-12.224-.659-20.128-1.435-15.227-2.135-30.926-13.148-40.57-11.818-6.234 1.243-15.319 10.334-13.226 20.32 1.568 6.16 8.458 18.62 22.306 16.165 13.848-2.454 13.728-5.475 21.898-8.014 19.926-11.173 40.241-8.89 40.404-8.928zM712.52 196.74c1.137-2.598-.957-7.482-2.444-13.206-1.444-4.507-3.6-11.501-8.872-17.718-6.264-14.042-5.19-33.299-11.433-40.771-4.36-4.627-16.885-7.507-24.24-.437-4.391 4.597-13.073 19.112-3.648 29.551 9.425 10.438 13.532 6.507 20.017 12.086 15.46 10.385 23.032 28.59 30.62 30.494zm-5.54 122.67c2.111-2.923 5.892-8.557 5.442-13.249-.356-3.716 1.703-14.982 1.928-19.897 1.397-15.313 10.982-27.742 8.376-41.046-1.542-6.167-10.575-14.964-20.447-12.391-6.078 1.864-19.61 9.31-16.49 23.023 3.122 13.713 7.553 13.486 10.483 21.523 8.413 16.616 3.03 36.354 10.708 42.036z" stroke="#6b18b5" fill="none"/>
    <path d="M594.29 416.76s-2.596 4.992 7.787 9.385m12.983-21.165s11.581-2.795 19.368 0m15.172-29.16c0 .2-1.597 5.192 7.588 12.38m-.998-25.35s6.789 4.992 18.17 4.792m-86.66 9.778s.4 13.178-6.39 19.368m29.15-39.738s11.182 2.795 20.367-1.797m51.323-17.563s2.396 3.394 14.776 2.796M633.83 329.9c.4.2 14.576 4.792 23.562.6m4.788-54.91s.599-.799 4.992 14.576m5.988-57.906s-.6 8.187-7.188 11.781m49.318-45.331s-9.584 7.787-7.787 10.982M667.57 193.12s4.992 8.386-3.195 14.177M643.41 157.18s8.586-.4 12.38 6.989m-28.55-31.349h6.59m27.55-29.95c0 .2 1.797 1.797-1.597 5.191m-59.703-4.391s4.593 7.188 3.794 15.974m22.766-40.336c1.997-.2 8.786-3.195 8.786-3.195M597.09 50.754c-.2 0-2.596 8.985 1.797 12.18M586.1 91.688c0 9.584 7.588 7.188 2.396 16.373M567.53 83.7c-.2 0-11.98 9.185-11.98 10.782m-18.77-15.773s4.992 4.992 3.794 11.781M522.21 74.715s-2.596 7.588-5.99 9.584m-20.57-11.581c-.2.4-4.193 8.985-6.989 10.583M459.31 72.918c.2 0 3.993 7.987-.998 13.778m-7.392-55.111c.2.2.799 6.19-2.995 11.381m-32.945 2.197c0 .2 1.597 6.79-8.985 8.985M394.62 106.06c.2.4 10.183 1.997 10.183 1.997M369.66 129.23c.2-.2 12.18-3.794 12.18-3.794M350.29 144.2c.4 0 8.386 1.398 10.383.4m-15.973 6.99s2.596 1.398.4 14.776m-39.34-49.916l4.792 7.188M289.39 153.39c0-.2 4.792 7.188 11.182 8.586m26.558 28.954c.2 0 7.787-1.598 8.985-2.396M323.73 218.08c.2 0-.2-4.992 5.99-8.386m-14.18 20.766c0 .2 5.79 7.388 9.784 8.386m-13.174 5.394c.599-.2 6.789-5.591 13.977-5.192M310.15 262.81s.2 6.19 18.57 4.593m-16.77 17.167c0-.2 5.391-12.38 16.373-16.972m-1.593 32.552s1.597-5.192 10.782-8.786m-.602 29.346s6.59-5.391 8.985-6.19m-.795 22.17s3.994 4.193 13.977-2.995m-62.107 6.385c1.198-.2 15.774-3.594 20.766 3.994m-14.966 7.986s15.375-1.997 17.372-.4m37.538 3.6s-1.997 4.193 16.972-2.795m6.588 10.385c-3.394 5.79.799 10.383-3.594 12.979m-54.116-4.999c.599-.4 6.989-2.596 5.99-11.781m-.2 25.561c.799-.2 11.381-4.792 13.578-2.396m7.192 15.776s1.398-9.385 4.393-10.383m11.577 24.553s8.786-.2 12.58-2.995m4.39-28.745c.2.2 8.187 4.393 25.159.2m-18.769 37.93s2.396 12.18 2.196 14.976" stroke="#000" stroke-width="1.92" fill="none"/>
    <g fill-rule="evenodd" stroke="#000" stroke-width="1pt" fill="#de2010">
      <path d="M232.84 119.03c.002-2.109-.794-4.058-2.087-5.114-1.294-1.055-2.888-1.055-4.18 0s-2.09 3.005-2.088 5.114c-.002 2.109.794 4.058 2.087 5.114 1.293 1.055 2.887 1.055 4.18 0s2.09-3.005 2.088-5.114z" transform="matrix(1.84875 -.23108 .23809 1.90478 237.273 58.345)"/>
      <path d="M232.84 119.03c.002-2.109-.794-4.058-2.087-5.114-1.294-1.055-2.888-1.055-4.18 0s-2.09 3.005-2.088 5.114c-.002 2.109.794 4.058 2.087 5.114 1.293 1.055 2.887 1.055 4.18 0s2.09-3.005 2.088-5.114z" transform="matrix(1.84875 -.23108 .23809 1.90478 235.622 38.06)"/>
      <path d="M232.84 119.03c.002-2.109-.794-4.058-2.087-5.114-1.294-1.055-2.888-1.055-4.18 0s-2.09 3.005-2.088 5.114c-.002 2.109.794 4.058 2.087 5.114 1.293 1.055 2.887 1.055 4.18 0s2.09-3.005 2.088-5.114z" transform="matrix(1.8213 -.39265 .40456 1.87649 218.076 57.381)"/>
      <path d="M232.84 119.03c.002-2.109-.794-4.058-2.087-5.114-1.294-1.055-2.888-1.055-4.18 0s-2.09 3.005-2.088 5.114c-.002 2.109.794 4.058 2.087 5.114 1.293 1.055 2.887 1.055 4.18 0s2.09-3.005 2.088-5.114z" transform="matrix(1.66103 -.84397 .86954 1.71136 192.536 159.48)"/>
      <path d="M232.84 119.03c.002-2.109-.794-4.058-2.087-5.114-1.294-1.055-2.888-1.055-4.18 0s-2.09 3.005-2.088 5.114c-.002 2.109.794 4.058 2.087 5.114 1.293 1.055 2.887 1.055 4.18 0s2.09-3.005 2.088-5.114z" transform="matrix(1.66103 -.84397 .86954 1.71136 184.518 141.318)"/>
      <path d="M232.84 119.03c.002-2.109-.794-4.058-2.087-5.114-1.294-1.055-2.888-1.055-4.18 0s-2.09 3.005-2.088 5.114c-.002 2.109.794 4.058 2.087 5.114 1.293 1.055 2.887 1.055 4.18 0s2.09-3.005 2.088-5.114z" transform="matrix(1.5836 -.9816 1.01134 1.63158 174.26 164.595)"/>
      <path d="M232.84 119.03c.002-2.109-.794-4.058-2.087-5.114-1.294-1.055-2.888-1.055-4.18 0s-2.09 3.005-2.088 5.114c-.002 2.109.794 4.058 2.087 5.114 1.293 1.055 2.887 1.055 4.18 0s2.09-3.005 2.088-5.114z" transform="matrix(1.48128 -1.1301 1.16435 1.52616 167.178 194.116)"/>
      <path d="M232.84 119.03c.002-2.109-.794-4.058-2.087-5.114-1.294-1.055-2.888-1.055-4.18 0s-2.09 3.005-2.088 5.114c-.002 2.109.794 4.058 2.087 5.114 1.293 1.055 2.887 1.055 4.18 0s2.09-3.005 2.088-5.114z" transform="matrix(1.30182 -1.3329 1.37328 1.34126 168.96 246.932)"/>
      <path d="M232.84 119.03c.002-2.109-.794-4.058-2.087-5.114-1.294-1.055-2.888-1.055-4.18 0s-2.09 3.005-2.088 5.114c-.002 2.109.794 4.058 2.087 5.114 1.293 1.055 2.887 1.055 4.18 0s2.09-3.005 2.088-5.114z" transform="matrix(1.17368 -1.44698 1.49084 1.20925 167.752 274.114)"/>
      <path d="M232.84 119.03c.002-2.109-.794-4.058-2.087-5.114-1.294-1.055-2.888-1.055-4.18 0s-2.09 3.005-2.088 5.114c-.002 2.109.794 4.058 2.087 5.114 1.293 1.055 2.887 1.055 4.18 0s2.09-3.005 2.088-5.114z" transform="matrix(.91718 -1.62175 1.6709 .94498 187.99 334.216)"/>
      <path d="M232.84 119.03c.002-2.109-.794-4.058-2.087-5.114-1.294-1.055-2.888-1.055-4.18 0s-2.09 3.005-2.088 5.114c-.002 2.109.794 4.058 2.087 5.114 1.293 1.055 2.887 1.055 4.18 0s2.09-3.005 2.088-5.114z" transform="matrix(.76579 -1.6985 1.74996 .78897 193.623 359.94)"/>
      <path d="M232.84 119.03c.002-2.109-.794-4.058-2.087-5.114-1.294-1.055-2.888-1.055-4.18 0s-2.09 3.005-2.088 5.114c-.002 2.109.794 4.058 2.087 5.114 1.293 1.055 2.887 1.055 4.18 0s2.09-3.005 2.088-5.114z" transform="matrix(.65019 -1.74601 1.79893 .66988 194.886 377.196)"/>
      <path d="M232.84 119.03c.002-2.109-.794-4.058-2.087-5.114-1.294-1.055-2.888-1.055-4.18 0s-2.09 3.005-2.088 5.114c-.002 2.109.794 4.058 2.087 5.114 1.293 1.055 2.887 1.055 4.18 0s2.09-3.005 2.088-5.114z" transform="matrix(.51503 -1.79055 1.84481 .53064 200.752 397.832)"/>
      <path d="M232.84 119.03c.002-2.109-.794-4.058-2.087-5.114-1.294-1.055-2.888-1.055-4.18 0s-2.09 3.005-2.088 5.114c-.002 2.109.794 4.058 2.087 5.114 1.293 1.055 2.887 1.055 4.18 0s2.09-3.005 2.088-5.114z" transform="matrix(.23314 -1.8485 1.90451 .2402 237.114 442.117)"/>
      <path d="M232.84 119.03c.002-2.109-.794-4.058-2.087-5.114-1.294-1.055-2.888-1.055-4.18 0s-2.09 3.005-2.088 5.114c-.002 2.109.794 4.058 2.087 5.114 1.293 1.055 2.887 1.055 4.18 0s2.09-3.005 2.088-5.114z" transform="matrix(.07476 -1.86165 1.91806 .07702 250.489 463.367)"/>
      <path d="M232.84 119.03c.002-2.109-.794-4.058-2.087-5.114-1.294-1.055-2.888-1.055-4.18 0s-2.09 3.005-2.088 5.114c-.002 2.109.794 4.058 2.087 5.114 1.293 1.055 2.887 1.055 4.18 0s2.09-3.005 2.088-5.114z" transform="matrix(.07476 -1.86165 1.91806 .07702 230.44 464.077)"/>
      <path d="M232.84 119.03c.002-2.109-.794-4.058-2.087-5.114-1.294-1.055-2.888-1.055-4.18 0s-2.09 3.005-2.088 5.114c-.002 2.109.794 4.058 2.087 5.114 1.293 1.055 2.887 1.055 4.18 0s2.09-3.005 2.088-5.114z" transform="matrix(-.41519 -1.81629 1.87134 -.42776 326.57 516.386)"/>
      <path d="M232.84 119.03c.002-2.109-.794-4.058-2.087-5.114-1.294-1.055-2.888-1.055-4.18 0s-2.09 3.005-2.088 5.114c-.002 2.109.794 4.058 2.087 5.114 1.293 1.055 2.887 1.055 4.18 0s2.09-3.005 2.088-5.114z" transform="matrix(-.56358 -1.77586 1.82969 -.58066 344.705 530.515)"/>
      <path d="M232.84 119.03c.002-2.109-.794-4.058-2.087-5.114-1.294-1.055-2.888-1.055-4.18 0s-2.09 3.005-2.088 5.114c-.002 2.109.794 4.058 2.087 5.114 1.293 1.055 2.887 1.055 4.18 0s2.09-3.005 2.088-5.114z" transform="matrix(-.77108 -1.69608 1.74749 -.79446 383.304 545.756)"/>
      <path d="M232.84 119.03c.002-2.109-.794-4.058-2.087-5.114-1.294-1.055-2.888-1.055-4.18 0s-2.09 3.005-2.088 5.114c-.002 2.109.794 4.058 2.087 5.114 1.293 1.055 2.887 1.055 4.18 0s2.09-3.005 2.088-5.114z" transform="matrix(-.91296 -1.62412 1.67333 -.94064 405.706 556.372)"/>
      <path d="M232.84 119.03c.002-2.109-.794-4.058-2.087-5.114-1.294-1.055-2.888-1.055-4.18 0s-2.09 3.005-2.088 5.114c-.002 2.109.794 4.058 2.087 5.114 1.293 1.055 2.887 1.055 4.18 0s2.09-3.005 2.088-5.114z" transform="matrix(-1.08406 -1.5153 1.56121 -1.1169 440.483 564.492)"/>
      <path d="M232.84 119.03c.002-2.109-.794-4.058-2.087-5.114-1.294-1.055-2.888-1.055-4.18 0s-2.09 3.005-2.088 5.114c-.002 2.109.794 4.058 2.087 5.114 1.293 1.055 2.887 1.055 4.18 0s2.09-3.005 2.088-5.114z" transform="matrix(-1.20839 -1.41812 1.4611 -1.245 464.319 570.02)"/>
      <path d="M232.84 119.03c.002-2.109-.794-4.058-2.087-5.114-1.294-1.055-2.888-1.055-4.18 0s-2.09 3.005-2.088 5.114c-.002 2.109.794 4.058 2.087 5.114 1.293 1.055 2.887 1.055 4.18 0s2.09-3.005 2.088-5.114z" transform="matrix(-1.30696 -1.32783 1.36808 -1.34656 483.304 576.796)"/>
      <path d="M232.84 119.03c.002-2.109-.794-4.058-2.087-5.114-1.294-1.055-2.888-1.055-4.18 0s-2.09 3.005-2.088 5.114c-.002 2.109.794 4.058 2.087 5.114 1.293 1.055 2.887 1.055 4.18 0s2.09-3.005 2.088-5.114z" transform="matrix(-1.41352 -1.21378 1.25056 -1.45636 509.16 580.77)"/>
      <path d="M232.84 119.03c.002-2.109-.794-4.058-2.087-5.114-1.294-1.055-2.888-1.055-4.18 0s-2.09 3.005-2.088 5.114c-.002 2.109.794 4.058 2.087 5.114 1.293 1.055 2.887 1.055 4.18 0s2.09-3.005 2.088-5.114z" transform="matrix(-1.5349 -1.05613 1.08813 -1.5814 544.923 576.815)"/>
      <path d="M232.84 119.03c.002-2.109-.794-4.058-2.087-5.114-1.294-1.055-2.888-1.055-4.18 0s-2.09 3.005-2.088 5.114c-.002 2.109.794 4.058 2.087 5.114 1.293 1.055 2.887 1.055 4.18 0s2.09-3.005 2.088-5.114z" transform="matrix(-1.69349 -.77677 .8003 -1.74482 606.254 551.496)"/>
      <path d="M232.84 119.03c.002-2.109-.794-4.058-2.087-5.114-1.294-1.055-2.888-1.055-4.18 0s-2.09 3.005-2.088 5.114c-.002 2.109.794 4.058 2.087 5.114 1.293 1.055 2.887 1.055 4.18 0s2.09-3.005 2.088-5.114z" transform="matrix(-1.75693 -.62003 .63882 -1.81018 632.437 543.952)"/>
      <path d="M232.84 119.03c.002-2.109-.794-4.058-2.087-5.114-1.294-1.055-2.888-1.055-4.18 0s-2.09 3.005-2.088 5.114c-.002 2.109.794 4.058 2.087 5.114 1.293 1.055 2.887 1.055 4.18 0s2.09-3.005 2.088-5.114z" transform="matrix(-1.85518 -.13795 .1773 -1.53226 703.463 438.739)"/>
      <path d="M232.84 119.03c.002-2.109-.794-4.058-2.087-5.114-1.294-1.055-2.888-1.055-4.18 0s-2.09 3.005-2.088 5.114c-.002 2.109.794 4.058 2.087 5.114 1.293 1.055 2.887 1.055 4.18 0s2.09-3.005 2.088-5.114z" transform="matrix(-1.81654 -.41408 .42661 -1.8716 666.606 524.698)"/>
    </g>
    <path d="M679.93 195.92c2.466-2.64 4.76-3.386 7.663-2.424-1.024-6.963-3.227-9.326-5.912-8.488-2.684.839-3.9 4.419-1.751 10.912zm3.77 21.01c2.658-2.446 5.002-3.018 7.824-1.839-.496-7.021-2.515-9.543-5.255-8.91-2.74.634-4.221 4.113-2.569 10.748zm-8.92-40.2c1.715-3.18 3.744-4.484 6.796-4.29-2.758-6.476-5.49-8.201-7.873-6.709-2.384 1.493-2.65 5.264 1.077 11zm-9.35-19.12c1.715-3.18 3.744-4.484 6.796-4.29-2.758-6.476-5.49-8.201-7.873-6.709-2.384 1.493-2.65 5.264 1.077 11zM643 122.57c1.181-3.414 2.975-5.027 6.019-5.327-3.764-5.948-6.737-7.212-8.85-5.356S638.4 117.51 643 122.57zm-14.66-15.27c1.052-3.456 2.783-5.136 5.813-5.55-3.986-5.802-7.005-6.953-9.045-5.018-2.041 1.935-1.556 5.684 3.232 10.568zm-30.83-26.01c-.064-3.612 1.066-5.744 3.82-7.07-5.578-4.293-8.804-4.458-10.15-1.989-1.346 2.47.27 5.887 6.33 9.059zm16.04 12.026c.562-3.568 2.044-5.472 4.987-6.303-4.75-5.193-7.9-5.914-9.653-3.715-1.753 2.2-.752 5.845 4.666 10.018zm-34.34-22.125c-.436-3.586.467-5.823 3.07-7.427-5.99-3.694-9.217-3.525-10.301-.93-1.084 2.595.877 5.827 7.23 8.357zm-18.7-8.164c-.945-3.487-.37-5.83 1.976-7.79-6.458-2.798-9.627-2.17-10.329.554-.701 2.723 1.702 5.642 8.353 7.236zm-20.15-6.243c-1.237-3.394-.863-5.778 1.31-7.93-6.673-2.24-9.777-1.346-10.245 1.427-.469 2.773 2.173 5.477 8.935 6.503zm-19.79-3.832c-1.479-3.296-1.279-5.7.733-8.004-6.817-1.753-9.849-.636-10.115 2.164-.267 2.8 2.563 5.306 9.382 5.84zm-20.96-1.606c-1.813-3.125-1.863-5.537-.101-8.037-6.962-1.036-9.862.39-9.836 3.201.025 2.813 3.1 5.012 9.937 4.836zm-41.04 3.091c-2.512-2.595-3.143-4.924-2.036-7.775-7.006.673-9.476 2.755-8.773 5.478.702 2.723 4.216 4.116 10.81 2.297zm20.2-2.659c-2.138-2.912-2.447-5.304-.965-7.979-7.033-.282-9.762 1.447-9.434 4.24.327 2.793 3.62 4.649 10.399 3.739zm-40.02 6.941c-2.859-2.208-3.816-4.423-3.13-7.403-6.837 1.67-8.983 4.085-7.897 6.679 1.085 2.595 4.763 3.47 11.027.724zM400.8 76.168c-3.227-1.624-4.588-3.616-4.48-6.672-6.396 2.94-8.043 5.719-6.484 8.059 1.56 2.34 5.337 2.5 10.964-1.387zm18.3-9.348c-3.005-2.004-4.115-4.147-3.637-7.167-6.705 2.142-8.678 4.7-7.414 7.212 1.264 2.513 4.994 3.13 11.051-.045zm-52.34 33.047c-3.494-.916-5.24-2.58-5.772-5.592-5.642 4.208-6.675 7.27-4.662 9.233 2.013 1.965 5.74 1.333 10.434-3.641zM383 86.576c-3.412-1.187-5.022-2.983-5.317-6.027-5.954 3.754-7.223 6.725-5.37 8.84 1.853 2.116 5.619 1.778 10.687-2.813zm-30.67 27.504c-3.563-.595-5.454-2.094-6.257-5.044-5.236 4.704-5.986 7.846-3.803 9.619 2.184 1.773 5.838.805 10.06-4.575zm-12.93 16.78c-3.602-.269-5.621-1.59-6.689-4.455-4.787 5.16-5.249 8.357-2.914 9.924 2.335 1.568 5.887.272 9.603-5.469zm-10.82 17.16c-3.601.286-5.798-.71-7.292-3.379-3.941 5.833-3.908 9.063-1.36 10.254 2.547 1.192 5.859-.632 8.652-6.875zm-9.5 18.33c-3.533.75-5.841.048-7.67-2.404-3.15 6.294-2.697 9.493-.017 10.343 2.68.851 5.728-1.387 7.687-7.94zm-7.6 18.81c-3.37 1.301-5.76.973-7.953-1.158-2.114 6.713-1.16 9.8 1.621 10.216 2.782.415 5.435-2.278 6.332-9.058zm-5.09 20.95c-3.275 1.524-5.682 1.356-8.013-.623-1.66 6.84-.501 9.856 2.302 10.084 2.803.228 5.27-2.636 5.711-9.461zm-2.07 17.45c-3.083 1.633-5.486 1.826-8.006.591-.917 5.575.551 7.778 3.353 7.58 2.802-.2 4.942-2.773 4.653-8.17zm352.76-82.99c1.233-3.395 3.05-4.982 6.098-5.235-3.672-6.004-6.626-7.313-8.767-5.49-2.14 1.825-1.854 5.595 2.669 10.725zM686 238.23c2.658-2.446 5.002-3.018 7.824-1.839-.496-7.021-2.515-9.543-5.255-8.91-2.74.634-4.221 4.113-2.569 10.748z" fill-rule="evenodd" fill="#ffe300"/>
    <path stroke-linejoin="round" d="M658.45 123.94c-.086 0-7.958 7.873-6.59 17.457 1.37 9.585 7.446 21.394 6.333 31.321-1.112 9.927-2.91 16.516-2.91 16.516s9.243-10.526 9.329-20.624c.085-10.098-6.333-23.362-6.333-30.807s.342-14.034.171-13.863zm14.63 32.17s-6.162 4.535-5.562 14.976c.599 10.44 11.38 29.609 11.38 29.609s7.874 16.174 7.617 20.367c-.257 4.193 1.455-4.022.685-13.264-.77-9.242-12.665-29.609-12.665-29.609s-2.568-4.193-2.311-11.125c.257-6.932.941-10.868.856-10.954z" fill-rule="evenodd" stroke="#000" stroke-width="1.92" fill="#217900"/>
    <path d="M487.93 26.748c0-2.16-2.43-3.913-5.428-3.913s-5.43 1.752-5.428 3.913c-.001 2.16 2.43 3.913 5.428 3.913s5.429-1.752 5.428-3.913zm2.32 9.1c0-2.072-2.502-3.752-5.588-3.752-3.086 0-5.588 1.68-5.588 3.752s2.502 3.752 5.588 3.752c3.086 0 5.588-1.68 5.588-3.752zm6.94-10.776s-6.386 4.79-3.752 6.705c2.634 1.916 9.899-4.15 9.899-4.15l-6.147-2.555zM684.88 134.73c.002-1.361-.636-2.62-1.674-3.302a3.006 3.006 0 0 0-3.353 0c-1.037.681-1.675 1.94-1.674 3.302-.002 1.361.637 2.62 1.674 3.302a3.006 3.006 0 0 0 3.353 0c1.038-.681 1.676-1.94 1.674-3.302zm-2.44-9.13c0-2.27-1.568-4.112-3.502-4.112s-3.503 1.841-3.503 4.112 1.568 4.112 3.502 4.112 3.503-1.841 3.503-4.112zm1.68 18.57c0-1.177-.614-2.132-1.37-2.132-.758 0-1.371.955-1.371 2.132s.613 2.132 1.37 2.132c.757 0 1.371-.955 1.371-2.132zm5.63-16.6c0-1.346-.614-2.437-1.37-2.437-.758 0-1.371 1.091-1.371 2.437s.613 2.437 1.37 2.437c.757 0 1.371-1.091 1.371-2.437zm-15.38 1.68c0-1.093-.614-1.98-1.37-1.98-.758 0-1.371.887-1.371 1.98s.613 1.98 1.37 1.98c.757 0 1.371-.887 1.371-1.98zm2.44 13.1c0-1.767-1.295-3.2-2.893-3.2s-2.894 1.433-2.894 3.2c0 1.767 1.295 3.2 2.894 3.2s2.893-1.433 2.893-3.2zm-7.62-5.79c0-1.514-1.09-2.741-2.437-2.741-1.345 0-2.436 1.227-2.436 2.741s1.09 2.741 2.436 2.741c1.346 0 2.437-1.227 2.437-2.741zm-1.21-7.77c.001-.817-.405-1.572-1.065-1.98a2.01 2.01 0 0 0-2.134 0c-.66.408-1.066 1.163-1.065 1.98-.001.817.405 1.572 1.065 1.98a2.01 2.01 0 0 0 2.134 0c.66-.408 1.066-1.163 1.065-1.98zm34.71 39.49c-3.146-4.151-8.181-5.9-11.248-3.907-3.066 1.994-3.002 6.975.143 11.126 3.146 4.151 8.181 5.9 11.248 3.907 3.067-1.994 3.002-6.975-.143-11.126zm8.94 76.59c.61-5.094-1.875-9.58-5.55-10.02-3.674-.44-7.147 3.333-7.756 8.428-.61 5.094 1.875 9.58 5.55 10.02 3.674.44 7.146-3.334 7.756-8.428zm1.89 44.58c1.047-5.022-1.04-9.706-4.663-10.461-3.623-.755-7.409 2.704-8.456 7.726-1.047 5.023 1.04 9.706 4.663 10.461 3.623.756 7.409-2.704 8.456-7.726zm8.59-41.73c0-2.018-1.364-3.655-3.046-3.655s-3.045 1.637-3.045 3.655 1.363 3.655 3.045 3.655 3.046-1.637 3.046-3.655zm-7.46 8.38l-6.244 7.081s-5.862.152-5.558 2.056c.305 1.903 8.071 7.614 7.995 9.899-.076 2.284 5.178-.533 5.178-.533s4.187-12.716 4.187-12.792c0-.077-.228-8.833-2.512-8.68-2.285.152-2.904 2.808-3.046 2.97zm-410.68-2.8a2.972 2.972 0 1 0-5.943 0 2.972 2.972 0 0 0 5.943 0zm2.8-9.08c0-1.732-1.33-3.137-2.972-3.137s-2.971 1.405-2.971 3.137 1.33 3.137 2.971 3.137 2.972-1.405 2.972-3.137zm-24.4-43.18c-1.115-2.498-3.435-3.89-5.184-3.11-1.748.78-2.262 3.437-1.148 5.935 1.115 2.498 3.435 3.89 5.184 3.11 1.748-.78 2.262-3.437 1.148-5.935zm7.37 26.9c-1.531-3.237-4.72-5.042-7.121-4.031s-3.108 4.455-1.577 7.693 4.719 5.042 7.12 4.03 3.109-4.455 1.578-7.692zm7.89 19.73c.496-4.044-1.18-7.758-3.743-8.297-2.563-.538-5.042 2.303-5.538 6.347-.496 4.044 1.18 7.758 3.742 8.297 2.563.538 5.043-2.303 5.539-6.347zm-12.66 2.88c1.585-3.753.992-7.785-1.326-9.005s-5.48.833-7.066 4.586-.991 7.785 1.326 9.005 5.48-.833 7.066-4.586z" fill-rule="evenodd" fill="#6b18b5"/>
    <path d="M279.2 242.07c0-1.915-1.478-3.467-3.302-3.467s-3.301 1.552-3.301 3.467 1.478 3.467 3.301 3.467 3.302-1.552 3.302-3.467zm-2.64-8.58c0-1.732-1.33-3.137-2.972-3.137-1.64 0-2.971 1.405-2.971 3.137s1.33 3.137 2.971 3.137 2.972-1.405 2.972-3.137zm2.81-16.51c0-2.918-1.294-5.283-2.889-5.283-1.596 0-2.889 2.365-2.889 5.283s1.293 5.283 2.889 5.283 2.889-2.365 2.889-5.283zm8.89-1.27c.385-2.892-.585-5.407-2.167-5.618-1.581-.21-3.176 1.964-3.56 4.856-.386 2.892.585 5.407 2.166 5.618 1.582.21 3.176-1.964 3.561-4.856zM351.6 89.333c1.177-4.096-.037-8.212-2.712-9.194-2.676-.982-5.8 1.542-6.977 5.638-1.177 4.096.037 8.212 2.713 9.194 2.675.982 5.799-1.542 6.976-5.638zm-12.03 18.227c3.529-3.003 5.036-7.156 3.367-9.275-1.67-2.12-5.883-1.403-9.411 1.6s-5.036 7.156-3.367 9.275c1.669 2.12 5.883 1.403 9.411-1.6zm-7.02-10.117c3.49-2.578 4.98-6.143 3.33-7.962s-5.818-1.205-9.307 1.373c-3.49 2.578-4.98 6.143-3.33 7.963s5.818 1.204 9.307-1.374zm27.06-17.794c2.353-1.799 3.358-4.286 2.245-5.556-1.113-1.27-3.923-.84-6.276.959s-3.358 4.286-2.245 5.556c1.113 1.269 3.923.84 6.276-.959z" fill-rule="evenodd" fill="#6b18b5"/>
    <path d="M345.5 96.89c1.61-2.487 1.717-5.167.241-5.987-1.475-.82-3.976.53-5.585 3.017s-1.717 5.168-.242 5.988c1.476.82 3.977-.531 5.586-3.018zm20.36-10.655c2.53-2.133 3.517-4.958 2.202-6.31-1.314-1.352-4.431-.72-6.961 1.413s-3.517 4.958-2.203 6.31c1.315 1.352 4.431.72 6.962-1.413zm-36.79 24.855c2.366-.118 4.151-1.296 3.988-2.632-.162-1.335-2.212-2.322-4.578-2.204-2.365.118-4.15 1.296-3.988 2.632.163 1.335 2.212 2.322 4.578 2.204zm44.54-38.064c1.61-2.487 1.717-5.167.241-5.987-1.475-.82-3.976.53-5.585 3.017s-1.717 5.168-.242 5.988c1.476.82 3.977-.531 5.586-3.018z" fill-rule="evenodd" fill="#6b18b5"/>
    <path d="M641.8 148.49s7.338-11.615 4.501-22.547c-2.837-10.933-14.945-3.207-14.685.684.26 3.89 7.824 9.095 8.284 11.47.46 2.374-.854 9.677 1.9 10.394z" fill-rule="evenodd" stroke="#ef8a10" fill="#ffd200"/>
    <path stroke-linejoin="round" d="M501.67 51.882s26.443 1.027 26.614 18.142c-.086 2.653 0 5.819-.941 13.435 5.22-2.824 8.728-10.697 8.044-15.746.085-17.372-23.62-29.267-33.717-15.832z" fill-rule="evenodd" stroke="#000" stroke-width="2.4" fill="#217900"/>
    <path stroke-linejoin="round" d="M484.9 51.112s21.308-4.45 21.479 12.665c.171 17.115-6.76 19.853-6.76 19.853s16.345-3.509 16.43-20.88c.085-17.372-21.051-25.073-31.15-11.638z" fill-rule="evenodd" stroke="#000" stroke-width="2.4" fill="#217900"/>
    <path stroke-linejoin="round" d="M557.285 420.343s99.739-28.174 129.855-150.581c-17.487 125.645-126.617 165.477-126.617 165.477l-3.238-14.896z" fill-rule="evenodd" stroke="#000" stroke-width="2.559" fill="#f7df73"/>
    <path d="M567.517 427.964c3.082 0 10.709-8.438 15.09-9.411 4.38-.974 4.867-5.355-.163-5.517-5.03-.162-9.41 5.679-9.41 5.679s-4.382 3.732-8.925 4.219c-4.543.487-1.622 6.165 3.408 5.03z" fill-rule="evenodd" fill="#8c1800"/>
    <path d="M624.951 385.118s-10.384 6.004-8.924 7.464c1.46 1.46 10.709-5.679 10.871-5.841.162-.162 3.894-4.706-1.947-1.623z" fill-rule="evenodd" stroke="#8c1800" stroke-width="2.559" fill="#8c1800"/>
    <path d="M588.767 412.396s-3.084-1.136 4.867-4.219c7.95-3.083 7.464-6.652 10.06-8.113 2.596-1.46 8.113-5.354 9.249-3.083s-5.841 6.815-7.464 7.302c-1.622.487-9.573 7.788-11.845 8.437-2.271.65-3.894.325-4.867-.324z" fill-rule="evenodd" fill="#8c1800"/>
    <path d="M640.365 369.877c-6.814 7.626-6.814 7.464-6.814 7.464" stroke="#8c1800" stroke-linecap="round" stroke-width="3.119" fill="none"/>
    <path d="M650.597 357.38l-6.49 7.95" stroke="#8c1800" stroke-linecap="round" stroke-width="2.879" fill="none"/>
    <path d="M660.81 341.16l-7.303 11.682" stroke="#8c1800" stroke-linecap="round" stroke-width="2.639" fill="none"/>
    <path d="M669.409 324.613l-6.004 12.007m9.901-20.78l-1.947 4.219" stroke="#8c1800" stroke-linecap="round" stroke-width="2.399" fill="none"/>
    <path d="M677.682 304.322l-1.622 5.03" stroke="#8c1800" stroke-linecap="round" stroke-width="1.44" fill="none"/>
    <path stroke-linejoin="round" d="M160.26 215.97s51.958-14.677 67.647-78.444c-9.11 65.454-65.96 86.204-65.96 86.204l-1.687-7.76z" fill-rule="evenodd" stroke="#000" stroke-width="1pt" fill="#f7df73" transform="matrix(-1.9021 0 0 1.9542 731.39 -4.333)"/>
    <path d="M416.421 425.474c-3.055 0-10.611-8.59-14.952-9.58-4.341-.992-4.823-5.452.16-5.617 4.985-.165 9.326 5.781 9.326 5.781s4.34 3.8 8.842 4.295c4.502.496 1.608 6.277-3.376 5.12z" fill-rule="evenodd" fill="#8c1800"/>
    <path d="M195.51 197.62s-5.41 3.127-4.649 3.888c.76.761 5.579-2.958 5.663-3.043.085-.084 2.029-2.451-1.014-.845z" fill-rule="evenodd" stroke="#8c1800" stroke-width="1pt" fill="#8c1800" transform="matrix(-1.9021 0 0 1.9542 731.39 -4.333)"/>
    <path d="M395.365 409.625s3.055-1.156-4.823-4.295c-7.878-3.138-7.396-6.772-9.969-8.259-2.572-1.486-8.039-5.45-9.164-3.138s5.788 6.938 7.396 7.433c1.608.496 9.486 7.929 11.737 8.59 2.25.66 3.858.33 4.823-.33z" fill-rule="evenodd" fill="#8c1800"/>
    <path d="M203.54 189.68c-3.55 3.973-3.55 3.888-3.55 3.888" stroke="#8c1800" stroke-linecap="round" stroke-width="1.625" fill="none" transform="matrix(-1.9021 0 0 1.9542 731.39 -4.333)"/>
    <path d="M208.87 183.17l-3.381 4.142" stroke="#8c1800" stroke-linecap="round" stroke-width="1.5" fill="none" transform="matrix(-1.9021 0 0 1.9542 731.39 -4.333)"/>
    <path d="M214.19 174.72l-3.804 6.086" stroke="#8c1800" stroke-linecap="round" stroke-width="1.375" fill="none" transform="matrix(-1.9021 0 0 1.9542 731.39 -4.333)"/>
    <path d="M218.67 166.1l-3.127 6.255m5.157-10.825l-1.014 2.198" stroke="#8c1800" stroke-linecap="round" stroke-width="1.25" fill="none" transform="matrix(-1.9021 0 0 1.9542 731.39 -4.333)"/>
    <path d="M222.98 155.53l-.845 2.62" stroke="#8c1800" stroke-linecap="round" stroke-width=".75" fill="none" transform="matrix(-1.9021 0 0 1.9542 731.39 -4.333)"/>
    <path stroke-linejoin="round" d="M691.89 247.23c.49 7.678 8.005 15.029 5.065 28.426-3.758 15.193-16.99 51.298-14.703 57.669-3.921-5.391-3.268-10.456-3.595-17.971-.326-7.515 10.946-35.451 11.926-44.926 0-8.495.817-20.094 1.307-23.198z" fill-rule="evenodd" stroke="#000" stroke-width="2.4" fill="#217900"/>
    <path stroke-linejoin="round" d="M691.89 247.39s12.253 15.52 11.599 27.773c-.653 12.253-7.515 26.629-5.228 33-3.92-5.391-4.9-8.822-5.228-16.337-.326-7.515 6.045-15.847 4.738-24.015-1.307-8.168-6.045-20.421-5.881-20.421zm-401.38 3.43c-.49 7.678-6.208 14.539-3.268 27.936 3.758 15.193 17.154 34.471 15.03 56.526 3.921-5.391 5.065-11.436 5.392-18.951.326-7.515-14.867-32.837-15.847-42.312 0-8.495-.817-20.094-1.307-23.198z" fill-rule="evenodd" stroke="#000" stroke-width="2.4" fill="#217900"/>
    <path stroke-linejoin="round" d="M290.51 250.99s-11.926 15.03-11.273 27.283c.163 8.168 15.193 42.312 12.906 48.684 3.92-5.391 5.064-4.738 4.9-12.906-4.41-20.911-12.252-34.308-10.945-42.476 1.307-8.168 4.574-20.584 4.411-20.584z" fill-rule="evenodd" stroke="#000" stroke-width="2.4" fill="#217900"/>
    <path stroke-linejoin="round" d="M99.959 125.78l22.172 68.231 71.743.003-58.04 42.172 22.167 68.233-58.041-42.15-58.044 42.16 22.168-68.23-58.04-42.17h71.743z" transform="matrix(1.3389 0 0 1.3391 360.43 -54.894)" stroke-dashoffset="1" stroke="#000" stroke-linecap="square" stroke-width="1.494" fill="#fff"/>
  </g>
</svg>
