<svg xmlns="http://www.w3.org/2000/svg" height="512" width="512" id="flag-icon-css-mw">
  <defs>
    <clipPath id="a">
      <path fill-opacity=".67" d="M179.71 0h708.66v708.66H179.71z"/>
    </clipPath>
  </defs>
  <g fill-rule="evenodd" clip-path="url(#a)" transform="translate(-129.84) scale(.72249)" stroke-width="1pt">
    <path fill="#f41408" d="M0 0h1063v708.66H0z"/>
    <path fill="#21873b" d="M0 472.44h1063v236.22H0z"/>
    <path d="M0 0h1063v236.22H0z"/>
    <path d="M401.415 214.037c30.876-75.192 116.965-111.159 192.157-80.283 37.867 15.549 64.692 42.36 80.258 80.228l-272.415.056zm-35.945 9.719c-32.459-2.415-66.953-9.857-72.58-11.907-5.63-2.05-5.846-5.472-5.152-8.093.693-2.622 4.285-5.599 8.48-4.49 7.864 2.081 39.845 10.54 69.253 24.49zM537.98 92.623c-5.825-32.024-7.295-67.28-6.727-73.243.569-5.963 3.827-7.033 6.538-7.021 2.712.012 6.496 2.74 6.477 7.079-.036 8.134-.18 41.215-6.288 73.185zm15.97.742c-3.059-32.404-1.503-67.657-.426-73.55 1.078-5.891 4.416-6.679 7.116-6.434 2.701.244 6.237 3.286 5.846 7.607-.732 8.102-3.711 41.049-12.536 72.378zm14.473 1.963c-.383-32.546 4.07-67.551 5.627-73.334 1.559-5.784 4.95-6.294 7.621-5.828 2.672.465 5.946 3.789 5.201 8.063-1.397 8.014-7.077 40.603-18.45 71.1zm15.245 3.409c2.482-32.454 9.996-66.932 12.057-72.556 2.06-5.624 5.484-5.834 8.104-5.135 2.62.699 5.59 4.297 4.471 8.49-2.097 7.86-10.622 39.823-24.633 69.202zm15.004 4.781c5.354-32.105 15.898-65.78 18.45-71.198 2.553-5.42 5.981-5.324 8.528-4.395 2.548.928 5.186 4.776 3.7 8.852-2.786 7.643-14.114 38.724-30.678 66.742zm14.007 5.849c8.078-31.53 21.463-64.18 24.47-69.36 3.005-5.182 6.413-4.793 8.872-3.65 2.459 1.143 4.758 5.202 2.93 9.136-3.43 7.376-17.375 37.375-36.273 63.875zm13.769 7.214c10.808-30.701 27-62.054 30.449-66.952 3.448-4.897 6.809-4.212 9.158-2.859 2.35 1.354 4.284 5.6 2.118 9.358-4.062 7.048-20.58 35.71-41.726 60.454zm13.032 8.347c13.442-29.643 32.305-59.466 36.167-64.044 3.862-4.579 7.15-3.603 9.373-2.05 2.222 1.554 3.78 5.951 1.294 9.507-4.66 6.667-23.613 33.781-46.835 56.588zm12.26 9.458c15.979-28.356 37.373-56.418 41.62-60.642 4.247-4.224 7.437-2.965 9.515-1.224 2.079 1.742 3.247 6.258.46 9.584-5.225 6.235-26.472 31.59-51.596 52.283zm11.425 10.519c18.398-26.85 42.165-52.933 46.765-56.769 4.6-3.836 7.668-2.304 9.586-.387 1.918 1.917 2.686 6.518-.38 9.587-5.75 5.754-29.134 29.154-55.972 47.57zm10.478 11.525c20.682-25.133 46.646-49.03 51.564-52.448 4.92-3.419 7.842-1.622 9.584.455 1.742 2.078 2.104 6.729-1.22 9.517-6.233 5.227-31.58 26.486-59.929 42.476zm9.026 11.807c22.713-23.312 50.587-44.952 55.774-47.946 5.188-2.995 7.95-.96 9.512 1.256 1.562 2.216 1.533 6.881-2.012 9.38-6.65 4.688-33.686 23.75-63.275 37.31zm8.166 12.799c24.626-21.284 54.248-40.46 59.673-43 5.425-2.539 8.002-.276 9.369 2.066 1.367 2.342.94 6.987-2.808 9.174-7.025 4.102-35.594 20.78-66.234 31.76zm7.573 14.593c26.49-18.913 57.76-35.264 63.397-37.29 5.637-2.026 7.994.466 9.138 2.924 1.144 2.459.288 7.044-3.645 8.875-7.375 3.434-37.365 17.396-68.89 25.491zm5.775 14.084c28.014-16.571 60.572-30.18 66.362-31.715 5.79-1.535 7.924 1.15 8.853 3.697.93 2.548-.317 7.043-4.392 8.53-7.643 2.788-38.72 14.127-70.824 19.488zm4.663 14.93c29.366-14.038 62.996-24.725 68.898-25.744 5.903-1.019 7.792 1.844 8.493 4.463.701 2.62-.936 6.988-5.127 8.11-7.858 2.103-39.814 10.66-72.265 13.171zM522.354 93.228c-8.762-31.347-13.487-66.317-13.472-72.307.014-5.99 3.16-7.357 5.86-7.595 2.702-.24 6.722 2.127 7.104 6.449.717 8.103 3.632 41.055.508 73.453zm-15.366 1.984c-11.464-30.462-19.224-64.886-19.732-70.854-.509-5.968 2.506-7.605 5.175-8.078 2.67-.474 6.882 1.533 7.64 5.804 1.421 8.01 7.202 40.582 6.918 73.13zm-15.274 3.361c-14.104-29.334-24.866-62.94-25.899-68.84-1.032-5.9 1.827-7.797 4.444-8.504 2.618-.707 6.99.921 8.121 5.11 2.122 7.853 10.75 39.79 13.334 72.235zm-14.385 4.494c-16.544-28.03-30.12-60.601-31.65-66.392-1.53-5.792 1.158-7.923 3.705-8.85 2.549-.927 7.043.324 8.526 4.4 2.78 7.646 14.09 38.734 19.42 70.843zm-14.071 5.76c-18.884-26.51-35.2-57.799-37.22-63.438-2.02-5.639.474-7.993 2.933-9.134 2.46-1.142 7.045-.28 8.871 3.654 3.426 7.379 17.355 37.385 25.416 68.92zm-14.208 7.335c-21.195-24.702-40.264-54.394-42.784-59.828-2.52-5.434-.247-8.003 2.1-9.362 2.346-1.358 6.99-.914 9.164 2.84 4.076 7.041 20.652 35.67 31.52 66.35zm-12.944 8.195c-23.248-22.78-44.809-50.715-47.788-55.911-2.98-5.197-.937-7.952 1.283-9.508 2.221-1.557 6.886-1.514 9.376 2.039 4.668 6.662 23.653 33.753 37.13 63.38zm-12.12 9.119c-25.107-20.713-48.972-46.706-52.384-51.629-3.412-4.923-1.613-7.843.467-9.583 2.08-1.74 6.731-2.096 9.515 1.232 5.22 6.239 26.447 31.611 42.403 59.98zM412.2 144.08c-26.853-18.392-52.942-42.153-56.779-46.752-3.837-4.6-2.305-7.668-.389-9.586 1.917-1.919 6.518-2.688 9.587.378 5.755 5.749 29.16 29.127 47.582 55.961zm-10.17 10.875c-28.301-16.077-56.289-37.568-60.498-41.83-4.21-4.26-2.94-7.447-1.191-9.52 1.749-2.072 6.27-3.224 9.585-.426 6.217 5.247 31.499 26.581 52.104 51.777zm-9.751 12.435c-29.618-13.497-59.406-32.415-63.977-36.285-4.572-3.87-3.59-7.157-2.033-9.376 1.558-2.22 5.958-3.77 9.51-1.278 6.658 4.674 33.737 23.676 56.5 46.94zm-8.73 13.466c-30.716-10.769-62.09-26.922-66.991-30.364-4.902-3.442-4.222-6.804-2.871-9.154 1.351-2.352 5.594-4.292 9.355-2.13 7.053 4.053 35.737 20.534 60.508 41.649zm-7.247 13.684c-31.537-8.051-64.2-21.408-69.383-24.41-5.183-3.001-4.798-6.41-3.657-8.87 1.14-2.46 5.198-4.762 9.134-2.937 7.38 3.423 37.39 17.342 63.906 36.218zm-5.812 13.72c-32.102-5.38-65.768-15.952-71.184-18.509-5.417-2.556-5.32-5.985-4.389-8.531.931-2.548 4.781-5.182 8.856-3.693 7.64 2.792 38.712 14.147 66.717 30.734z" fill="#f31509"/>
    <path d="M365.47 223.756c-32.459-2.415-66.953-9.857-72.58-11.907-5.63-2.05-5.846-5.472-5.152-8.093.693-2.622 4.285-5.599 8.48-4.49 7.864 2.081 39.845 10.54 69.253 24.49z" fill="#f31509"/>
    <path d="M275.33 214.74h527.66v19.174H275.33z"/>
  </g>
</svg>
