<svg xmlns="http://www.w3.org/2000/svg" height="512" width="512" id="flag-icon-css-nf">
  <g fill-rule="evenodd" stroke-width="1pt">
    <path fill="#fff" d="M155.831 0h200.355v512H155.831z"/>
    <path fill="#198200" d="M0 0h155.83v512H0zm356.185 0H512v512H356.185z"/>
  </g>
  <g stroke-linejoin="round" fill-rule="evenodd" stroke="#000">
    <path d="M242.961 332.355v41.025l16.581.171s-5.299-35.726-2.393-40.512c2.906-4.786 5.641-4.103 5.641-4.103s10.77 3.249 11.965 2.736c1.197-.513-.17-4.103 5.641-3.59 1.88-.684.855-3.932 2.565-4.103 1.709-.17 34.7 9.23 41.879.342-1.88-4.957-8.376-.342-10.085-.17-1.539 0-8.034-3.077-11.795 0-3.419-2.564-18.974-4.274-18.974-4.274-2.052-2.052 37.093 1.026 39.315-.513 4.615-4.615-8.546-4.102-10.598-2.564-3.646-2.222-8.22-2.05-11.012-.513-1.339-3.202-14.059-1.823-21.124-2.735-2.262-1.326-1.874-2.08-.342-2.906 14.758.627 29.443 2.542 44.273 1.88 4.008-5.225-5.05-7.185-10.598-2.735-3.257-5.356-9.914-.17-14.359-.683-4.444-.513-2.392-5.983 3.248-5.129 5.641.855 15.727-.341 17.607-2.905 1.88-2.564-1.123-5.169-10.427-2.735-3.15-3.078-10.086 0-13.333 1.025-4.321-2.41-14.359-.342-17.777.513-3.347-2.08 17.606-5.47 17.606-5.47 8.089-.143 12.65-1.538 15.213-2.222 12.228-6.554-.175-7.252-6.591-2.488-3.983-3.11-7.767.266-11.356 1.463-3.59 1.196-10.428 2.051-10.428 1.538 0-.513 9.744-6.496 9.744-6.496s11.965-.854 14.358-1.196c2.394-.342 14.641-6.628-2.051-2.393-5.812.513-9.23.17-11.453.342-12.887-1.333 1.197-2.564 1.197-2.564s18.246-1.677 18.46-2.564c.359-7.115-14.87-3.761-15.042-3.761.044-5.083-14.187.17-14.187 0-2.72-1.603 1.538-3.248 1.538-3.248 3.76-.911 9.382-1.179 10.853-2.377 0 0 10.62-.102 11.881-2.922-2.604-7.186-22.468 1.276-25.128 2.564-3.59 0 2.394-5.811 2.565-5.983.17-.17 16.41-.854 24.101-11.282.535-6.346-9.06 3.59-9.06 3.59-.715-8.231-10.426.513-16.067 1.197-5.64.684-5.811-2.564-1.88-3.077 3.931-.513 8.376-.17 10.598-6.154 2.222-5.983 8.889.342 10.085-1.88 1.197-2.222-2.393-4.103-2.393-4.103s4.957-5.128-3.077-4.957c-8.034.171-18.461-1.025-18.461-1.025s8.376-3.248 16.239-3.077c7.863.17 3.59-5.64-3.932-5.64-7.52 0-11.452-2.565-11.452-2.565l12.82-4.786-.855-3.59s7.522-5.983-3.076-4.616c-10.598 1.368-11.795 1.539-11.795 1.539s-21.196 3.248-21.367 3.248c-.17 0-5.812-1.71-.342-3.077 5.47-1.368 24.786-5.3 27.692-4.273 2.906 1.025-.342-7.18-10.598-8.206-10.256-1.025-16.581 2.565-16.581 2.565s-6.667-2.394-.513-4.445c6.154-2.05 15.897.684 15.897.684s10.94-3.248 1.88-4.615c-9.059-1.368-11.916 1.224-16.067 1.367-1.657-2.068 14.222-2.563 15.213-4.273-1.675-3.078-11.51 0-17.265 0-2.448-1.039-2.605-2.723.171-3.761 5.87-.228 11.38.117 17.249-.111-.171-3.134.016-6.84-.155-9.974-7.445-1.36-16.179.981-20.358.783 1.118-3.42 17.2-4.297 18.99-5.227 3.723-4.653-15.726 0-15.897 0-3.392-.502-3.173-2.644-1.025-3.932 4.957-.57 16.07.721 15.23-2.64-.645-3.15-7.71-1.463-10.615-.779-2.905.684-7.179.171-7.179.171-1.86-2.505 16.751-1.486 16.581-3.419-.243-2.219-11.795-.684-15.727-.513-3.072-2.12 14.757-3.518 15.043-3.76.644-5.683-11.965 0-14.359 0-2.393 0-1.196-3.59-1.196-3.59s4.957-2.222 4.786-2.564c-.17-.342-3.76-1.538-4.103-1.538-.341 0 0-3.932 0-3.932s4.103-3.077 3.761-3.931c-.342-.855-4.786.683-4.786.683v-3.418s3.248-.342 3.59-1.88c.342-1.54-3.932-1.71-3.932-1.71l-1.71-17.948-1.538 16.751-5.64.855s3.931 2.222 4.615 4.444c.683 2.223-4.787 1.539-4.787 1.539s4.445 3.76 4.787 5.128c.341 1.367-6.154 1.71-6.154 1.71s5.47 3.93 5.812 6.153c.342 2.222 0 3.419 0 3.419s-9.06-7.864-14.872-5.641c-3.02 1.578 6.919 2.308 13.504 8.034-.015 1.275-15.992-3.892-16.58-.684.37.893 17.06 3.289 18.29 5.47-6.097.228-18.707-1.334-18.29.683-1.275 2.33 11.909 1.007 17.435 2.907 1.62 1.84 1.45 3.395-1.368 3.59-5.326-2.547-17.236-4.449-17.264-1.198.072.868 12.312.305 16.751 3.249-5.925 1.347-26.022-2.743-26.149-.751.572.93 3.757 5.024 9.226 4.853 5.47-.171 18.119 2.222 18.974 3.932.855 1.709-16.41-3.59-22.905-.513-6.495 3.077 18.632 1.197 22.735 4.957s-8.205-.342-8.205-.342-17.094-2.393-19.658-1.197c-2.565 1.197-5.47 3.932-5.47 3.932s1.71 3.419 3.418 2.735c1.71-.684-.513 2.052-.513 2.052s23.932 5.81 29.231 10.94c5.3 5.128-30.426-8.035-30.426-8.035s-14.36 5.3.854 5.641c-1.75 2.56.855 4.102.855 4.102s25.299 5.3 27.863 9.402c2.564 4.103-17.265-3.932-21.71-6.153-4.444-2.223-17.093 1.367-16.922 2.221.17.855 6.154 2.052 6.324 3.59.17 1.538-7.35 2.051-7.35 3.419 0 1.368 31.965 8.034 40.512 15.213s-25.128-8.546-25.128-8.546 1.88 2.564 0 3.248c-1.88.683-8.547-9.573-19.487-3.248-1.992 2.602 9.544 4.67 12.479 4.957-1.003 2.577-1.88 3.419 2.222 5.983 4.102 2.564-8.035-3.76-8.035-3.42 0 .343.855 4.446.855 4.446-3.787-3.077-8.36-4.006-12.649-.855 0 0-.17 3.077 4.273 4.957-2.426 4.958 2.736 3.419 10.94 8.034-12.194-3.187-13.161 2.735-4.444 4.103 8.718 1.367 32.65 2.222 38.29 9.572 5.641 7.35-8.014-2.818-9.572-3.077-.342.171-.684 3.76-.684 3.76-3.647-2.11-7.007-4.006-11.37-4.9-.341.683-.253 1.653-.595 2.337-3.959-2.855-7.415-4.85-13.163-5.128l-.684 2.735s-4.786-5.983-14.188 0c-5.25 3.763 19.83 1.367 23.932 5.812 4.103 4.444.854 5.128.854 5.128l-10.256-3.761s-12.136-2.222-15.555.512c-3.419 2.736 49.914 9.402 51.452 16.752 1.037 3.987-12.534-4.185-24.273-7.692l-1.368 3.932s-4.661-4.683-9.914-5.47c-.17 0 1.026 4.615 1.026 4.615s-13.162-6.154-19.828-2.906c-6.668 3.248 23.247 4.957 25.982 8.034 2.735 3.077-9.06-2.05-10.085 0-1.026 2.052-15.556-3.76-15.385-1.026.171 2.736 2.051 4.274 2.051 4.274s30.256 2.906 31.283 6.495c1.025 3.59-16.752-2.051-16.752-2.051s-1.71 2.564-.342 3.76c1.367 1.198-10.256-6.837-9.23-1.538-3.77-1.5-13.505-6.153-12.137-2.563 1.367 3.59 27.52 8.718 27.52 8.718s-11.453.854-10.94 3.76c-14.733-8.976-14.358-3.248-14.016-3.077.342.17-18.974-4.786-4.445 3.077 14.53 7.863 7.863 6.495 8.035 6.667.17.17 1.538 3.931 1.196 3.931-.342 0-9.914-5.128-13.161-5.47-3.249-.342-18.633 4.274-2.223 11.453 16.41 7.18 26.496-1.71 35.555-.683 9.06 1.025 13.333 2.563 12.479 5.47-.855 2.905-9.256-9.523-18.097 1.228-10.057-1.99-16.883-3.145-11.691 4.246-16.425-6.138-26.451 1.876-5.767 5.124 20.325.599 32.82-4.958 32.82-4.958s3.418 6.325 8.375 1.88c4.958-4.444 5.129 1.71 5.3 1.71.17 0 4.786-2.051 4.786-2.051h1.196z" stroke-linecap="round" stroke-width=".742" fill="#198200"/>
    <path d="M244.963 308.085v-2.863s-6.456-1.145-9.605-.501c-1.865-1.069-3.627-2.476-5.856-1.288-.43.93 4.08 3.364 5.583 3.364 1.76 1.114 9.878 1.431 9.878 1.288zm-.075 4.654s-6.456-2.36-9.033.359c.421 2.891 7.602 4.293 9.105 3.506 1.504-.787 0-3.722-.072-3.865zm10.884 1.145v2.004s7.73 1.503 9.09-.143c1.36-1.646-6.155-2.72-9.09-1.861zm-.357-7.984l.285 2.26s6.657 1.503 9.234-2.147c2.577-3.65-5.85.03-9.518-.114zm.357-7.761v1.503s5.01.788 6.156-1.36c1.145-2.147-6.013 0-6.156-.143zm-10.469-4.625c-.771-1.1-3.492-3.823-10.793-4.61-5.074-.017 9.165 7.466 10.793 4.61zm10.325-7.616s-.286 2.075-.215 2.075c.072 0 17.18-5.082 21.187-4.724 3.58-1.012 4.295-3.507 4.152-3.507-3.056-2.227-17.823 1.79-25.124 6.156zm.357-6.086c-.072.358-.215 2.004-.215 2.004s12.097-2.362 15.318-4.652c3.22-2.291-14.96 2.72-15.103 2.648zm-.501-5.937l.002 2.018s8.074-.246 9.733-1.875c1.06-1.629-7.115-.232-9.735-.143zm16.85 16.947s4.194.586 4.981-.63c-.155-2.16-4.981.701-4.981.63zm-16.493-24.466c-.072.358.071 4.438.071 4.438s19.398-6.156 20.615-7.301c1.217-1.145 3.917-4.593-20.686 2.863zm-.575-6.155v3.221s7.802-.573 11.381-3.508c3.58-2.934-11.381.359-11.381.287zm-9.376-7.3l.5 2.935s-25.696-8.303-25.625-8.303c.072 0-1.294-4.23 25.124 5.368zm.43-10.308c-.071.286-.071 2.791-.143 2.72-.071-.072-17.822-7.445-18.467-6.8-2.357-5.524 18.61 4.223 18.61 4.08zm8.664 4.579c0 .072.286 2.505.286 2.505s10.88-2.29 11.525-3.364c.644-1.074-11.81.93-11.81.859zm.253 5.798c.101.615.315 2.578.315 2.578s4.367-.358 5.01-1.36c.645-1.003-5.325-1.146-5.325-1.218zm-.684-13.242c0 .215.07 2.434.07 2.434s11.955-2.362 13.243-3.507c1.288-1.146-13.528 1.073-13.313 1.073zm.069-6.587c0 .144-.43 2.434-.143 2.434.286 0 14.53-2.434 16.749-4.437 2.219-2.005-16.392 2.218-16.607 2.003zm-.213-11.591v2.506s9.234-1.933 10.952-3.866-10.952 1.503-10.952 1.36zm-1.576-16.895l.215 3.793s12.382-1.717 14.172-3.793c1.79-2.076-14.458 0-14.387 0zm-5.724-28.417v2.362s-5.87-.287-4.438-1.289c1.431-1.002 4.438-.859 4.438-1.073zm5.441 3.152l.144 3.221s7.587-.715 8.16-1.932c.573-1.217-8.16-1.289-8.303-1.289zm-.43 4.654s.142 2.004.285 2.004 3.007-.215 3.65-1.002-3.65-.859-3.936-1.002zm-6.444 9.158c0 .214.215 3.078.072 3.006-.143-.072-16.607-4.796-18.11-4.724-1.502.072-1.932-3.794 18.038 1.718zm1.358 5.373c0 .573.358 3.579-.215 3.436-.572-.143-11.165-3.508-10.092-4.51 1.073-1.002 10.307 1.289 10.307 1.074zm-.926 22.613l.071 2.72s-18.467-5.583-19.11-6.513c-.645-.93-2.434-5.297 19.039 3.793zm.713 6.662c0 .071.144 2.576.072 2.576s-25.123-8.804-25.123-8.804-2.005-6.585 25.052 6.227z" stroke-linecap="round" stroke-width=".792" fill="#fff"/>
    <path d="M217.046 314.73c0 .085-.085 2.74-.085 2.74s-4.883-1.37-6.425-4.111c2.827-.77 6.596 1.456 6.51 1.37z" stroke-width=".792" fill="#fff"/>
  </g>
</svg>
