<svg xmlns="http://www.w3.org/2000/svg" height="512" width="512" id="flag-icon-css-np">
  <defs>
    <clipPath id="b">
      <path fill-opacity=".67" d="M0-15.957h512v512H0z"/>
    </clipPath>
    <clipPath id="a">
      <path fill-opacity=".67" d="M0 0h512v512H0z"/>
    </clipPath>
  </defs>
  <g clip-path="url(#a)">
    <path style="width:0" fill="#fff" d="M0 0h512v512H0z"/>
    <g transform="translate(0 15.957)" clip-path="url(#b)">
      <g fill-rule="evenodd">
        <path d="M6.54 489.54l378.786-.01-247.927-251.42 257.263.302L6.561-9.474 6.54 489.54z" stroke="#000063" stroke-width="12.968" fill="#ce0000"/>
        <path fill="#fff" d="M180.737 355.803l-26.986 8.936 21.11 19.862-28.438-1.827 11.716 26.232-25.549-12.29.526 28.597-18.786-20.9-10.741 26.632-9.15-26.32-20.365 20.588 1.861-27.734-26.884 11.427 12.602-24.918-29.335.513 21.43-18.322-27.295-10.476 26.987-8.923-21.122-19.862 28.436 1.815-11.703-26.22 25.55 12.29-.527-28.61 18.787 20.901 10.728-26.62 9.162 26.32 20.365-20.6-1.873 27.734 26.896-11.414-12.601 24.917 29.322-.513-21.43 18.323zM148.32 171.125l-11.33 8.387 5.584 4.614c13.561-10.482 23.211-20.062 30.753-35.96 1.769 21.22-17.683 68.855-68.73 69.381-54.633-.046-73.59-50.587-71.482-70.276 10.037 18.209 16.161 27.088 31.916 36.568l4.82-4.424-10.671-8.891 13.737-3.572-7.39-12.44 14.391 1.05-1.808-14.486 12.616 7.383 3.948-13.484 9.065 10.86 8.491-10.296 4.624 13.99 11.79-8.203-1.512 14.228 14.133-1.659-6.626 13.153 13.682 4.077z"/>
      </g>
    </g>
  </g>
</svg>
