<svg xmlns="http://www.w3.org/2000/svg" height="512" width="512" id="flag-icon-css-pg">
  <defs>
    <clipPath id="a">
      <path fill-opacity=".67" d="M81.385 0h496.06v496.06H81.385z"/>
    </clipPath>
  </defs>
  <g clip-path="url(#a)" transform="translate(-84) scale(1.0321)">
    <g fill-rule="evenodd">
      <path d="M.514 0L0 496.06h659.05L.51 0z"/>
      <path d="M658.536 496.06L659.05 0H0l658.54 496.06z" fill="red"/>
    </g>
    <path d="M406.908 123.444l-8.778-.457c-2.698-6.355-10.317-8.74-15.003-6.066-4.252.366-26.518-.336-26.518-.336l16.276 7.133c4.024 10.881 18.014 13.441 18.014 13.441-1.241 20.06-20.302-2.588-36.304 8.842-11.43 6.858-11.565 15.048-17.741 28.28-1.92 3.678-9.967 13.17-9.967 13.17l13.441-1.144-4.297 5.715 16.002-2.286s-2.15 1.794-3.43 3.155c2.371.464 18.289-3.726 18.289-3.726l-1.143 5.143c8.16-3.269 18.288-6.583 18.288-6.583s3.589 2.994 6.858 4.297l2.286-9.144 9.144 2.286 2.286-9.144c13.716 18.288 18.288 36.576 43.434 41.148l-2.286-9.144c6.995 2.995 19.98 9.35 19.98 9.35l1.965-4.183c10.904 7.818 19.957 7.68 26.06 8.55 0 0-4.549-11.385-4.571-11.43.297.114 4.549 2.308 4.572 2.285l-6.858-18.288 6.858 2.286-9.144-13.716 3.429-2.286-1.143-6.858c13.716 4.572 32.004 11.43 34.29 27.432 2.286 25.146-25.146 32.004-43.434 29.718 13.716 11.43 38.862 6.858 50.292-4.572 4.572-4.572 6.858-11.43 9.144-18.288 2.286 6.858 6.858 16.002 6.858 25.146-2.286 20.574-29.718 27.432-48.006 29.718 20.574 11.43 57.15-2.286 59.436-32.004 0-25.146-16.002-36.576-22.86-48.006-1.03-4.16-2.286-12.298-2.286-12.298.887.261 6.858 3.177 6.858 3.177s-4.047-7.566-4.572-9.167c0 0-7.133-19.43-9.716-23.728.425-.24 5.144.8 5.144.8l-18.723-23.477s4.517-.411 5.304-.55c0 0-21.763-17.167-27.73-19.339l6.859-2.286c-13.716-6.858-29.718-2.286-43.434 6.858l2.286-6.858-4.184.389v-7.841l4.184-6.264-6.858-2.286 4.572-11.43-6.858 2.286 2.286-11.43s-5.121 2.378-8.23 2.035c.114.251 3.635-7.818 3.635-7.818-2.172-3.406.023-10.219.023-10.219-16.002 2.286-18.288 4.572-27.432 18.288-13.716 25.146-9.144 36.576-6.858 61.722z" stroke="#fc0" fill="#fc0" stroke-width="2.286"/>
    <path d="M493.273 161.021c1.191 1.965 14.166 8.215 23.93 13.752-2.62-10.537-21.67-12.859-23.93-13.752z" fill-rule="evenodd" stroke="red" stroke-width="3.048" fill="red"/>
    <path fill="#fff" fill-rule="evenodd" d="M178.98 412.394l-14.539-9.28-19.515 9.349 4.327-16.688-14.918-15.682 17.215-1.051 10.294-19.02 6.31 16.048 21.282 3.909-13.313 10.973zm37.314-81.587l-6.746-3.223-6.483 3.726.988-7.43-5.548-5.006 7.354-1.349 3.054-6.835 3.56 6.584 7.436.8-5.155 5.418zm32.88-46.794l-14.79-7.224-14.338 8.092 2.288-16.299-12.136-11.133 16.214-2.857 6.829-14.973 7.75 14.538 16.344 1.875-11.43 11.841zm-67.664-65.151l-17.423-8.73-17.067 9.402 2.919-19.267-14.22-13.327 19.228-3.178 8.283-17.64 8.963 17.304 19.335 2.426-13.686 13.871zm-62.611 67.665l-17.57-10.424-17.523 10.653 4.492-19.934-15.56-13.35 20.347-1.898 7.905-18.928 8.083 18.768 20.446 1.669-15.35 13.487z"/>
  </g>
</svg>
