<svg xmlns="http://www.w3.org/2000/svg" height="512" width="512" id="flag-icon-css-py">
  <path fill="#0038a8" d="M0 341.013h512V512H0z"/>
  <path fill="#fff" d="M0 170.667h512v170.667H0z"/>
  <path fill="#d52b1e" d="M0 0h512v170.667H0z"/>
  <g fill="none" stroke="#000" transform="translate(-208.955) scale(1.55152)">
    <circle cx="300" cy="165" r="42.2" stroke-width="1.076"/>
    <circle cx="300" cy="165" r="34.67" stroke-width=".478"/>
    <circle cx="300" cy="165" r="26.56" stroke-width=".438"/>
  </g>
  <path d="M221.638 281.26l-7.59 4.507-2.322-3.91c-.43-.724-.698-1.315-.8-1.772a2.058 2.058 0 0 1 .14-1.337c.197-.435.537-.796 1.02-1.083.422-.25.838-.376 1.25-.378.413 0 .807.098 1.183.3.24.128.502.343.79.644-.074-.334-.102-.593-.085-.776.01-.123.07-.327.176-.612.107-.285.2-.488.277-.608l1.527-2.44 1.575 2.65-1.577 2.63c-.206.338-.317.595-.333.773a1.15 1.15 0 0 0 .165.68l.123.206 3.08-1.83zm-5.914.325l-.587-.99c-.064-.106-.22-.293-.473-.56a.722.722 0 0 0-.464-.238.816.816 0 0 0-.528.114c-.245.146-.387.336-.426.57-.04.232.07.563.323.99l.61 1.03zm-7.149-5.865l-2.308-6.937 1.79-.595 1.443 4.343 1.332-.44-1.34-4.03 1.71-.568 1.338 4.028 1.652-.55-1.486-4.468 1.897-.63 2.35 7.063zm-3.025-10.317l-.516-4.505c-.113-.982.036-1.743.447-2.285.412-.542 1.048-.863 1.91-.96.885-.102 1.608.085 2.167.56.56.475.902 1.26 1.027 2.353l.17 1.483 3.255-.373.31 2.722zm3.427-3.15l-.076-.664c-.06-.524-.192-.88-.397-1.07a.883.883 0 0 0-.734-.238.98.98 0 0 0-.67.355c-.17.205-.226.56-.168 1.068l.088.772zm-3.707-13.42l.292-2.707 5.233.565c.52.057 1 .19 1.444.402.442.21.818.508 1.126.89.308.383.512.772.61 1.166.14.548.17 1.19.09 1.93-.047.427-.127.89-.242 1.388-.114.498-.278.908-.492 1.228-.215.32-.5.603-.858.85a2.798 2.798 0 0 1-1.074.468c-.577.107-1.08.138-1.512.09l-5.234-.563.292-2.707 5.36.577c.478.052.867-.04 1.165-.277.3-.236.473-.59.524-1.06.05-.468-.043-.848-.28-1.142-.236-.293-.598-.467-1.085-.52zm1.18-6.47l1.684-4.82c.28-.804.695-1.352 1.244-1.643a2.047 2.047 0 0 1 1.703-.128c.494.172.863.473 1.108.903.164.287.245.65.243 1.093.355-.548.756-.902 1.205-1.062.45-.16.94-.147 1.47.038.432.15.785.387 1.06.71.275.32.452.69.53 1.11.05.26.027.617-.068 1.073-.127.606-.224 1.004-.29 1.193l-1.554 4.446zm4.176-1.455l.39-1.12c.142-.402.17-.706.087-.91-.083-.207-.256-.356-.517-.447-.243-.084-.46-.07-.65.038-.193.11-.357.36-.493.75l-.397 1.137zm3.274 1.144l.46-1.313c.154-.445.185-.785.09-1.022-.092-.236-.272-.4-.537-.494a.778.778 0 0 0-.688.062c-.213.128-.398.417-.556.868l-.458 1.308zm-3.277-10.302l1.41-2.335 5.697 3.438 2.2-3.645 1.86 1.123-3.61 5.982zm5.337-8.083l1.75-2.1 6.782 5.652-1.75 2.1zm11.87-4.561l2.283-1.01c.315.613.49 1.202.52 1.768a3.293 3.293 0 0 1-.312 1.61c-.238.508-.658 1.02-1.258 1.534-.727.626-1.413 1.03-2.056 1.216-.643.184-1.36.154-2.154-.09-.793-.246-1.547-.784-2.26-1.615-.953-1.11-1.39-2.215-1.313-3.316.077-1.102.655-2.116 1.732-3.042.844-.725 1.653-1.124 2.43-1.198.775-.074 1.583.142 2.425.647l-1.478 1.978c-.24-.15-.435-.24-.586-.275a1.57 1.57 0 0 0-.74 0 1.61 1.61 0 0 0-.67.354c-.47.403-.667.9-.592 1.493.052.442.336.963.85 1.563.64.743 1.19 1.155 1.652 1.237.462.082.897-.052 1.305-.403.395-.34.6-.708.61-1.104.01-.397-.12-.846-.39-1.347zm9.4-3.383l-2.74 1.462.307 1.487-2.46 1.312-1.225-9.35 2.625-1.4 7.08 6.228-2.518 1.343zm-1.402-1.415l-2.354-2.342.638 3.257zm8.338-9.042l3.994-.69c.787-.136 1.442-.14 1.963-.01.522.13.976.368 1.36.713.387.344.696.77.93 1.275.234.506.403 1.055.505 1.648.16.93.18 1.67.056 2.218a3.634 3.634 0 0 1-.66 1.44c-.315.412-.678.713-1.09.902-.562.26-1.082.43-1.56.514l-3.995.69zm3.03 1.506l.82 4.753.66-.113c.56-.097.95-.23 1.165-.394.217-.166.365-.416.446-.75.08-.333.06-.848-.06-1.545-.158-.92-.417-1.526-.777-1.815-.36-.288-.888-.372-1.585-.252zm8.312-3.026l7.304.312-.08 1.883-4.573-.194-.06 1.402 4.24.18-.076 1.8-4.242-.18-.074 1.737 4.705.2-.085 2-7.437-.32zm10.628.837l2.65.65-1.582 6.463 4.135 1.012-.518 2.112-6.785-1.66zm14.164 4.702l3.905 2.307c.85.503 1.367 1.08 1.552 1.736.184.655.056 1.355-.386 2.102-.452.767-1.037 1.23-1.754 1.39-.717.16-1.55-.042-2.496-.6l-1.286-.76-1.667 2.82-2.358-1.396zm.445 4.634l.575.34c.453.267.817.376 1.093.327a.883.883 0 0 0 .632-.44.98.98 0 0 0 .12-.75c-.06-.26-.31-.518-.75-.778l-.668-.396zm7.655 10.291l-2.275-2.116-1.306.776-2.043-1.9 8.443-4.204 2.178 2.026-3.582 8.725-2.09-1.944zm.88-1.787l1.448-2.99-2.87 1.665zm1.06 5.867l7.28-4.994 2.572 3.75c.477.694.782 1.266.915 1.715.133.45.115.9-.053 1.345-.17.447-.485.83-.948 1.147-.404.277-.81.43-1.222.46a2.45 2.45 0 0 1-1.2-.222c-.248-.113-.524-.31-.83-.592.095.33.14.586.134.77-.003.123-.048.33-.135.622-.088.29-.166.5-.236.626l-1.364 2.535-1.745-2.54 1.4-2.73c.184-.35.278-.614.282-.792 0-.24-.068-.462-.21-.667l-.135-.197-2.955 2.027zm5.88-.71l.65.947c.07.103.24.28.51.528a.722.722 0 0 0 .478.208c.187.01.36-.04.52-.148.234-.16.363-.36.387-.594.024-.235-.106-.558-.387-.968l-.678-.988zm2.73 13.216l-1.15-2.886-1.513.143-1.034-2.59 9.43-.19 1.103 2.763-6.97 6.354-1.058-2.65zm1.562-1.24l2.586-2.08-3.307.274zm2.302 9.649l1.816-.272.624 4.17-3.722.556c-.664-.717-1.14-1.368-1.428-1.952-.288-.584-.495-1.297-.62-2.14-.156-1.035-.106-1.906.15-2.612.255-.706.706-1.29 1.35-1.755.646-.463 1.42-.763 2.326-.898.953-.143 1.812-.07 2.575.218a3.86 3.86 0 0 1 1.864 1.487c.37.55.63 1.324.78 2.325.143.965.164 1.7.06 2.204a2.843 2.843 0 0 1-.634 1.313c-.32.37-.75.676-1.29.92l-.854-2.534c.314-.156.54-.376.675-.658.136-.282.175-.622.115-1.02-.088-.59-.364-1.03-.828-1.32-.463-.29-1.14-.37-2.03-.236-.944.14-1.593.42-1.944.836-.352.416-.48.94-.386 1.577.046.3.132.583.26.844.13.26.325.55.588.873l.822-.123zm5.772 12.815l-.242 2.712-5.243-.467a4.437 4.437 0 0 1-1.45-.375 3.194 3.194 0 0 1-1.143-.87c-.316-.376-.526-.76-.632-1.153-.15-.545-.19-1.188-.125-1.928.04-.43.11-.893.215-1.393s.262-.913.47-1.237a3.19 3.19 0 0 1 .842-.865 2.798 2.798 0 0 1 1.065-.49c.575-.117 1.08-.157 1.51-.118l5.243.467-.242 2.71-5.368-.477c-.48-.043-.867.057-1.16.3-.294.24-.462.597-.504 1.07-.04.467.06.846.302 1.135.242.29.607.457 1.095.5zm-9.76 9.34l.97-2.95-1.25-.862.87-2.65 7.35 5.91-.928 2.827-9.423.394.892-2.712zm1.993.054l3.318.064-2.712-1.912zm3.159 7.176l-1.558 2.6-3.473-.004 1.64 3.06-1.547 2.584-2.637-5.582-3.17-1.9 1.404-2.346 3.172 1.9z"/>
  <g fill="#009b3a" stroke="#000" stroke-width=".155">
    <path d="M265.158 225.436s24.905 10.73 20.557 32.903c-4.35 22.172-18.215 22.023-23.652 24.474-5.437 2.45-9.188 5.957-11.333 5.467-2.145-.49-4.98-2.145-4.98-2.145s-.228 3.64 4.14 4.304c4.366.662 10.106-5.748 12.864-6.46 2.757-.713 19.685-2.55 23.805-25.112 4.806-24.083-21.246-32.725-21.4-33.432z"/>
    <path d="M277.726 230.152a3.42.81 75.104 0 1-1.64.126 3.42.81 75.104 1 1 1.64-.126z"/>
    <path d="M276.872 230.385a3.523.786 63.335 1 1-1.485.543 3.523.786 63.335 0 1 1.485-.543zm-2.497 1.645a3.336.83 17.053 0 1-.156 1.685 3.336.83 17.053 0 1 .155-1.685z"/>
    <path d="M274.747 231.114a3.508.79 34.225 1 1-.716 1.42 3.508.79 34.225 1 1 .717-1.42z"/>
    <path d="M275.802 230.68a3.567.776 46.194 1 1-1.084 1.11 3.567.776 46.194 0 1 1.084-1.11z"/>
    <path d="M277.54 233.814c.014.016-.96.542-1.182.62-.22.08-.52-.294-1.155.032-.635.326-1.07.92-1.21 1.27-.138.348.18.494.948.12.768-.372.97-.963 1.34-1.194.37-.232.99-.573 1.344-.698.153-.334.65-1.05.907-1.46.257-.412 1.265-1.09 1.632-1.88.32-.653.2-1.21-.23-.976-.427.232-.98.888-1.24 1.36-.257.47-.036 1.07-.322 1.512-.226.32-.772 1.293-.83 1.294zm7.71 2.546a1.15 5.128-1.585 1 1-2.313-.555 1.15 5.128-1.585 1 1 2.314.554z"/>
    <path d="M283.963 236.312a5.34 1.105 77.49 1 1-2.237.112 5.34 1.105 77.49 1 1 2.237-.112z"/>
    <path d="M279.975 237.553a4.976 1.186 34.91 1 1-.773 2.345 4.976 1.186 34.91 1 1 .773-2.345z"/>
    <path d="M280.782 236.42a5.32 1.11 50.904 0 1-1.462 1.714 5.32 1.11 50.904 1 1 1.462-1.713z"/>
    <path d="M282.396 236.265a5.436 1.085 61.837 1 1-1.87 1.107 5.436 1.085 61.837 1 1 1.87-1.107z"/>
    <path d="M283.76 241.525c.017.028-1.51.346-1.84.36-.332.014-.623-.654-1.61-.472-.988.183-1.788.84-2.096 1.277-.307.437.085.79 1.272.598 1.186-.19 1.66-.947 2.25-1.113.59-.166 1.562-.376 2.093-.398.32-.41 1.246-1.213 1.738-1.686.492-.473 2.11-.993 2.88-1.96.66-.79.678-1.642.008-1.5-.67.14-1.655.833-2.168 1.392-.513.56-.405 1.518-.948 2.022-.42.357-1.497 1.506-1.578 1.48zm5.54 5.167a1.146 5.15 8.74 1 1-2.16-.992 1.146 5.15 8.74 1 1 2.16.992z"/>
    <path d="M288.074 246.38a1.097 5.376-2.05 1 1-2.206-.317 1.097 5.376-2.05 1 1 2.206.318z"/>
    <path d="M283.947 246.847a5 1.18 46.026 1 1-1.18 2.167 5 1.18 46.026 1 1 1.18-2.167z"/>
    <path d="M284.94 245.885a5.36 1.1 61.79 1 1-1.738 1.412 5.36 1.1 61.79 1 1 1.738-1.412z"/>
    <path d="M286.523 246.04a5.478 1.077 72.543 1 1-2.027.734 5.478 1.077 72.543 1 1 2.027-.734z"/>
    <path d="M286.926 251.486c.01.03-1.538.05-1.865 0-.326-.05-.49-.765-1.487-.774-.998-.01-1.9.485-2.28.858-.378.373-.058.796 1.136.836 1.193.04 1.794-.616 2.4-.667.606-.052 1.594-.073 2.117.007.39-.343 1.438-.96 2.004-1.332.567-.373 2.244-.576 3.17-1.382.788-.656.958-1.492.278-1.482-.68.012-1.768.506-2.37.96-.603.454-.67 1.42-1.292 1.815-.474.272-1.735 1.2-1.81 1.16m2.683 6.719a1.145 5.152 31.31 0 1-1.57-1.813 1.145 5.152 31.31 0 1 1.57 1.814"/>
    <path d="M288.602 257.413a1.09 5.41 20.618 0 1-1.874-1.208 1.09 5.41 20.618 0 1 1.874 1.208m-3.91-1.273a5.082 1.16 69.934 0 1-1.91 1.522 5.082 1.16 69.934 0 1 1.91-1.522"/>
    <path d="M285.964 255.66a1.083 5.448-4.863 0 1-2.122.59 1.083 5.448-4.863 1 1 2.122-.59"/>
    <path d="M287.345 256.466a1.063 5.552 5.55 1 1-2.12-.158 1.063 5.552 5.55 1 1 2.12.158"/>
    <path d="M285.592 261.68c-.003.03-1.413-.59-1.69-.77-.275-.182-.146-.913-1.046-1.334-.9-.422-1.907-.336-2.395-.147-.488.188-.362.713.704 1.243 1.065.53 1.864.17 2.432.375.568.203 1.47.592 1.913.883.484-.156 1.673-.293 2.33-.405.657-.112 2.254.393 3.406.028.968-.283 1.447-.988.827-1.26-.62-.27-1.797-.262-2.52-.09-.72.172-1.157 1.04-1.872 1.15-.534.055-2.036.395-2.088.326m.914 8.208a1.34 5.868 48.457 1 1-1.134-2.57 1.34 5.868 48.457 1 1 1.134 2.57"/>
    <path d="M285.654 268.66a1.274 6.178 37.466 1 1-1.665-2.01 1.274 6.178 37.466 1 1 1.664 2.01"/>
    <path d="M281.775 265.837a1.332 5.91-3.478 1 1-2.6.99 1.332 5.91-3.478 1 1 2.6-.99"/>
    <path d="M283.327 265.76a1.25 6.29 11.633 0 1-2.53-.116 1.25 6.29 11.633 1 1 2.53.116"/>
    <path d="M284.584 267.14a1.234 6.377 22.12 1 1-2.282-.94 1.234 6.377 22.12 1 1 2.282.94"/>
    <path d="M280.937 272.276c-.014.034-1.36-1.16-1.606-1.46-.243-.3.14-1.06-.713-1.852-.852-.79-1.99-1.06-2.59-1.027-.598.032-.632.656.366 1.627 1 .97 1.996.863 2.555 1.293.558.43 1.424 1.186 1.815 1.667.586 0 1.94.28 2.7.395.76.113 2.352 1.248 3.74 1.262 1.158.038 1.917-.567 1.323-1.09-.593-.525-1.89-.94-2.742-1.012-.85-.072-1.617.73-2.44.59-.607-.13-2.372-.3-2.407-.394m-2.452 7.835a1.5 6.47 79.752 1 1 .31-3.098 1.5 6.47 79.752 1 1-.31 3.1"/>
    <path d="M278.362 278.45a1.432 6.78 68.504 0 1-.51-2.874 1.432 6.78 68.504 0 1 .51 2.875"/>
    <path d="M276.143 273.517a1.496 6.49 26.238 0 1-3.05-.563 1.496 6.49 26.238 1 1 3.05.563"/>
    <path d="M277.695 274.355a1.412 6.88 41.823 0 1-2.38-1.573 1.412 6.88 41.823 0 1 2.38 1.573"/>
    <path d="M278.145 276.403a1.392 6.974 52.67 1 1-1.69-2.214 1.392 6.974 52.67 0 1 1.69 2.213"/>
    <path d="M271.815 279.165c-.033.024-.68-1.89-.753-2.318-.072-.427.713-.93.322-2.174-.39-1.244-1.34-2.158-1.937-2.474-.596-.318-.97.257-.537 1.757.434 1.5 1.455 1.976 1.76 2.708.304.73.726 1.952.84 2.635.566.34 1.72 1.39 2.39 1.937.673.548 1.59 2.55 2.92 3.364 1.097.707 2.16.57 1.874-.27-.286-.842-1.312-1.988-2.094-2.548-.782-.56-1.96-.24-2.678-.85-.514-.476-2.125-1.657-2.107-1.767"/>
    <path d="M267.982 285.852a1.88 6.546 89.068 0 1 .01-3.762 1.88 6.546 89.068 0 1-.01 3.762"/>
    <path d="M267.113 279.972a1.817 6.774 37.587 0 1-2.79-2.334 1.817 6.774 37.587 1 1 2.79 2.334"/>
    <path d="M268.03 282.966a1.858 6.627 66.472 0 1-1.33-3.473 1.858 6.627 66.472 0 1 1.33 3.473m1.783-56.972a4.066.827 41.126 0 1-1.544.84 4.066.827 41.126 1 1 1.543-.84m-2 1.692a4.118.816 8.163 0 1 .313 1.69 4.118.816 8.163 1 1-.313-1.69"/>
    <path d="M268.618 226.615a4.307.78 26.817 1 1-.816 1.336 4.307.78 26.817 0 1 .816-1.335m-29.51 52.859s5.486 1.177 10.256 2.91c4.77 1.734 12.015 7.683 13.963 8.02 2.184.1 5.214-.646 6.364-3.8-3.364.897-5.38 2.26-8.593.495-1.135-.43-4.85-3.813-8.924-5.624-4.074-1.81-12.29-3.875-12.29-3.875l-.774 1.875m5.848-49.603c-.02-.047 6.315-3.332 6.315-3.332l-6.964 1.782-.81 1.225 1.458.326"/>
    <path d="M250.947 231.41c-2.445-.445-6.205-1.267-8.6-1.46 1.656-1.832 3.936-4.93 5.34-6.834-.927 1.815-2.384 4.208-2.958 5.945 1.684.91 4.333 1.622 6.217 2.35"/>
    <path d="M243.825 230.26c-.027-.042 5.612-4.344 5.612-4.344l-6.518 2.916-.58 1.347 1.485.08"/>
    <path d="M249.814 231.347c-2.462-.468-6.25-1.33-8.657-1.538 1.626-1.89 3.855-5.083 5.23-7.044-.898 1.872-2.314 4.34-2.858 6.132 1.708.946 4.38 1.692 6.284 2.45"/>
    <path d="M242.894 230.618c-.015-.048 6.608-2.768 6.608-2.768l-7.116 1.17-.918 1.15 1.426.448"/>
    <path d="M249.07 231.41c-2.49-.208-6.34-.673-8.744-.62 1.386-2.097 3.215-5.587 4.344-7.73-.667 2-1.778 4.663-2.105 6.544 1.8.776 4.532 1.242 6.504 1.805"/>
    <path d="M242.212 230.65c-.037-.038 4.476-5.456 4.476-5.456l-5.672 4.242-.264 1.446 1.46-.233"/>
    <path d="M249.038 231.766c-2.668-.05-6.806-.286-9.357-.06 1.264-2.385 2.857-6.323 3.84-8.742-.507 2.23-1.42 5.215-1.578 7.29 1.993.72 4.943 1.037 7.096 1.512"/>
    <path d="M241.312 231.937c-.035-.048 5.436-5.216 5.436-5.216l-6.578 3.64-.45 1.56 1.59.017"/>
    <path d="M247.844 231.937c-2.868.01-7.283-.145-10.08.168 1.856-2.66 4.39-7.037 5.952-9.726-1.01 2.468-2.612 5.778-3.213 8.07 2 .742 5.116 1.018 7.34 1.487"/>
    <path d="M239.48 232.325c-.026-.052 6.945-5.882 6.945-5.882l-7.85 4.174-.808 1.728 1.714-.02"/>
    <path d="M246.804 232.107c-2.84.41-7.236.872-9.963 1.567 1.46-2.85 3.343-7.47 4.505-10.31-.646 2.548-1.76 5.998-2.027 8.315 2.088.445 5.215.28 7.486.427"/>
    <path d="M238.55 233.488c-.04-.04 5.35-7.41 5.35-7.41l-6.677 6.037-.358 1.85 1.685-.477"/>
    <path d="M245.237 232.992c-2.86.266-7.277.507-10.04 1.064 1.617-2.773 3.758-7.292 5.08-10.067-.79 2.51-2.096 5.898-2.493 8.198 2.06.55 5.193.542 7.453.804"/>
    <path d="M237.588 234.264c-.028-.052 6.81-5.894 6.81-5.894l-7.727 4.165-.78 1.74 1.698-.012"/>
    <path d="M244.4 233.287c-2.85.6-7.273 1.362-9.996 2.237 1.332-2.91 3.006-7.597 4.04-10.475-.527 2.555-1.48 6.032-1.635 8.335 2.133.294 5.285-.086 7.59-.098"/>
    <path d="M236.455 234.574c-.046-.033 4.352-8.08 4.352-8.08l-5.89 6.987-.097 1.847 1.635-.753"/>
    <path d="M244.4 233.752c-3.06.795-7.824 1.84-10.71 2.934 1.11-3.31 2.376-8.616 3.16-11.876-.265 2.878-.89 6.804-.778 9.383 2.38.235 5.798-.327 8.327-.44"/>
    <path d="M235.602 236.436c-.046-.047 5.482-8.096 5.482-8.096l-7.01 6.544-.295 2.042 1.822-.49"/>
    <path d="M243.19 234.667c-3.007.95-7.7 2.24-10.52 3.476.948-3.33 1.962-8.642 2.59-11.905-.13 2.858-.568 6.77-.337 9.313 2.38.106 5.754-.634 8.266-.883"/>
    <path d="M234.5 237.63c-.053-.037 4.167-8.937 4.167-8.937l-5.924 7.698.027 2.056 1.73-.815"/>
    <path d="M242.04 235.893c-3.078.702-7.87 1.602-10.788 2.604 1.246-3.242 2.737-8.453 3.66-11.655-.39 2.838-1.18 6.703-1.182 9.256 2.36.3 5.787-.162 8.31-.205"/>
    <path d="M233.507 238.484c-.036-.055 6.81-6.994 6.81-6.994l-8.027 5.18-.654 1.963 1.872-.15"/>
    <path d="M240.675 237.103c-3.05.41-7.783.85-10.696 1.583 1.415-3.176 3.192-8.333 4.29-11.5-.556 2.85-1.565 6.705-1.723 9.303 2.286.537 5.66.407 8.128.613"/>
    <path d="M232.158 237.786c-.05-.042 4.632-8.752 4.632-8.752l-6.283 7.364-.098 2.086 1.748-.698"/>
    <path d="M241.048 236.064c-3.317 1.358-8.5 3.25-11.607 4.926 1.02-3.938 2.094-10.177 2.76-14.01-.12 3.32-.568 7.89-.29 10.815 2.634-.083 6.36-1.228 9.138-1.73"/>
    <path d="M231.522 240.44c-.054-.048 5.544-10.044 5.544-10.044l-7.32 8.498-.2 2.373 1.975-.828"/>
    <path d="M239.776 237.305c-3.25 1.528-8.34 3.69-11.367 5.516.84-3.937 1.636-10.144 2.13-13.96.03 3.28-.215 7.807.192 10.673 2.625-.232 6.294-1.574 9.044-2.228"/>
    <path d="M230.39 241.96c-.062-.035 4.045-10.81 4.045-10.81l-6.055 9.654.153 2.34 1.856-1.184"/>
    <path d="M238.348 238.205c-3.243 1.553-8.32 3.755-11.338 5.606.817-3.94 1.573-10.15 2.043-13.968.05 3.277-.166 7.803.26 10.663 2.625-.253 6.288-1.624 9.035-2.3"/>
    <path d="M229.474 243.247c-.05-.052 6.26-9.53 6.26-9.53l-7.893 7.8-.384 2.364 2.017-.633"/>
    <path d="M238.053 237.708c-2.89 2.31-7.465 5.702-10.073 8.238-.004-3.98-.537-10.112-.86-13.884.727 3.123 1.447 7.51 2.46 10.137 2.547-.908 5.892-3.148 8.473-4.49"/>
    <path d="M229.784 243.697c-.07-.01.725-11.42.725-11.42l-3.017 11.103.842 2.092 1.45-1.775"/>
    <path d="M237.23 238.763c-2.9 2.294-7.485 5.663-10.102 8.186.012-3.982-.495-10.12-.8-13.894.71 3.128 1.413 7.52 2.414 10.154 2.55-.894 5.903-3.117 8.49-4.447"/>
    <path d="M229.055 245.637c-.065-.028 2.917-11.16 2.917-11.16l-5.048 10.263.398 2.29 1.733-1.393"/>
    <path d="M236.905 239.027c-2.74 2.7-7.103 6.705-9.525 9.606-.43-4.083-1.636-10.315-2.372-14.15 1.084 3.123 2.296 7.54 3.623 10.123 2.536-1.224 5.752-3.905 8.275-5.58"/>
    <path d="M229.07 247.064c-.072-.01.546-11.87.546-11.87l-2.915 11.533.906 2.177 1.464-1.84"/>
    <path d="M236.036 240.998c-2.932 2.424-7.577 5.992-10.212 8.65-.092-4.135-.777-10.503-1.19-14.418.816 3.238 1.655 7.788 2.758 10.51 2.608-.965 6.01-3.323 8.645-4.742"/>
    <path d="M228.2 248.414c-.06-.04 4.133-11.164 4.133-11.164l-6.196 9.89.162 2.452 1.9-1.178"/>
    <path d="M235.99 241.044c-2.596 2.746-6.728 6.82-9.022 9.77-.41-4.14-1.558-10.457-2.258-14.34 1.03 3.16 2.182 7.637 3.44 10.25 2.403-1.247 5.45-3.975 7.84-5.68"/>
    <path d="M228.356 248.988c-.072 0-.488-11.802-.488-11.802l-1.912 11.754 1.096 2.044 1.305-1.996"/>
    <path d="M234.718 241.93c-2.512 2.77-6.52 6.882-8.723 9.853-.532-4.14-1.864-10.454-2.677-14.337 1.12 3.157 2.404 7.63 3.738 10.235 2.362-1.268 5.325-4.025 7.662-5.75"/>
    <path d="M227.69 250.167c-.067-.02 1.317-11.99 1.317-11.99l-3.515 11.34.7 2.33 1.497-1.68"/>
    <path d="M234.175 242.394c-2.296 3-5.983 7.48-7.958 10.65-.844-4.065-2.653-10.215-3.76-13.998 1.36 3.03 2.98 7.354 4.51 9.816 2.26-1.493 5.007-4.523 7.208-6.468"/>
    <path d="M227.643 251.284c-.07-.003-.76-12.004-.76-12.004l-1.512 11.91 1.09 2.097 1.183-2.003"/>
    <path d="M233.942 243.077c-2.155 3.14-5.633 7.847-7.457 11.142-1.054-4.05-3.182-10.15-4.485-13.9 1.518 2.98 3.364 7.248 5.026 9.647 2.196-1.62 4.803-4.816 6.916-6.89"/>
    <path d="M228.387 252.4c-.067-.02 1.222-12.057 1.222-12.057l-3.438 11.334.725 2.373 1.49-1.65"/>
    <path d="M233.507 244.194c-1.857 3.422-4.888 8.585-6.402 12.115-1.412-3.88-4.075-9.648-5.706-13.197 1.774 2.753 3.992 6.74 5.86 8.893 2.034-1.917 4.335-5.456 6.247-7.812"/>
    <path d="M227.97 253.394c-.07.02-3.37-11.435-3.37-11.435l1.138 12.052 1.518 1.7.712-2.318"/>
    <path d="M233.43 245.528c-1.936 3.412-5.09 8.56-6.674 12.078-1.42-3.868-4.11-9.617-5.76-13.155 1.803 2.745 4.05 6.72 5.952 8.867 2.106-1.91 4.5-5.44 6.482-7.79"/>
    <path d="M228.124 255.55c-.072 0-1.238-12.023-1.238-12.023l-1.113 12.025 1.203 2.06 1.148-2.06"/>
    <path d="M233.632 246.583c-1.99 3.367-5.227 8.44-6.868 11.92-1.357-3.9-3.954-9.713-5.545-13.29 1.757 2.786 3.94 6.813 5.805 9.006 2.137-1.863 4.586-5.335 6.607-7.637"/>
    <path d="M228.015 256.513c-.07.008-2.23-11.808-2.23-11.808l-.11 12.093 1.37 1.904.97-2.19"/>
    <path d="M232.778 248.29c-2.147 3.224-5.62 8.065-7.422 11.428-1.168-3.99-3.483-9.974-4.9-13.656 1.62 2.905 3.607 7.077 5.365 9.395 2.222-1.71 4.832-5.008 6.958-7.167"/>
    <path d="M226.976 257.832c-.07-.02.998-12.07.998-12.07l-3.29 11.445.796 2.332 1.496-1.708"/>
    <path d="M232.902 248.585c-1.835 3.49-4.838 8.767-6.318 12.35-1.532-3.804-4.39-9.435-6.14-12.9 1.88 2.665 4.243 6.542 6.206 8.607 2.05-2 4.338-5.627 6.252-8.057"/>
    <path d="M226.572 258.84c-.07.022-3.704-11.248-3.704-11.248l1.426 11.96 1.596 1.63.682-2.342"/>
    <path d="M232.406 249.484c-1.282 3.832-3.444 9.673-4.363 13.517-2.08-3.403-5.74-8.31-7.984-11.332 2.252 2.207 5.16 5.5 7.403 7.1 1.717-2.413 3.424-6.477 4.943-9.284"/>
    <path d="M229.86 259.755c-.067.025-4.01-11.093-4.01-11.093l1.753 11.897 1.64 1.562.618-2.367"/>
    <path d="M232.375 250.664c-1.254 3.844-3.374 9.707-4.265 13.56-2.105-3.38-5.8-8.25-8.066-11.248 2.27 2.184 5.2 5.445 7.455 7.022 1.7-2.43 3.377-6.512 4.875-9.334"/>
    <path d="M229.892 261.648c-.065.035-5.16-10.374-5.16-10.374l3.005 11.52 1.794 1.295.363-2.442"/>
    <path d="M231.987 251.626c-.802 3.99-2.23 10.107-2.67 14.055-2.478-3.05-6.704-7.347-9.297-9.994 2.502 1.84 5.786 4.652 8.204 5.892 1.406-2.652 2.602-6.94 3.763-9.952"/>
    <path d="M230.234 263.277c-.07.014-2.783-11.633-2.783-11.633l.46 12.078 1.457 1.807.867-2.252"/>
    <path d="M232.002 252.867c-.424 4.08-1.273 10.36-1.342 14.35-2.74-2.703-7.333-6.412-10.152-8.697 2.654 1.494 6.173 3.85 8.687 4.76 1.148-2.83 1.935-7.258 2.808-10.413"/>
    <path d="M230.373 264.13c-.055.054-7.355-8.398-7.355-8.398l5.543 10.172 2.026.692-.213-2.465"/>
    <path d="M232.158 254.294c-.44 4.078-1.314 10.353-1.4 14.342-2.73-2.72-7.308-6.453-10.118-8.755 2.648 1.51 6.158 3.888 8.67 4.81 1.16-2.822 1.963-7.246 2.848-10.396"/>
    <path d="M231.196 266.07c-.064.038-5.65-10.124-5.65-10.124l3.55 11.364 1.853 1.213.246-2.453"/>
    <path d="M232.483 255.97c-.268 4.102-.877 10.427-.795 14.42-2.84-2.553-7.564-6.008-10.465-8.138 2.706 1.348 6.31 3.51 8.853 4.28 1.04-2.89 1.657-7.36 2.407-10.562"/>
    <path d="M231.91 267.932c-.058.05-6.98-8.85-6.98-8.85l5.09 10.504 1.993.82-.104-2.474"/>
    <path d="M232.56 257.863c-.243 4.105-.814 10.435-.708 14.427-2.854-2.527-7.6-5.94-10.512-8.046 2.714 1.324 6.33 3.456 8.877 4.204 1.022-2.9 1.613-7.377 2.344-10.585"/>
    <path d="M232.546 269.437c-.067.03-4.894-10.67-4.894-10.67l2.708 11.68 1.76 1.404.426-2.413"/>
    <path d="M232.747 259.088c.14 4.12.163 10.497.64 14.456-3.068-2.13-8.092-4.89-11.18-6.593 2.817.954 6.602 2.59 9.2 2.99.743-3.025.913-7.56 1.34-10.852"/>
    <path d="M233.4 269.018c-.042.068-8.94-6.12-8.94-6.12l7.578 8.35 2.106.11-.745-2.34"/>
    <path d="M233.027 259.523c.355 4.1.71 10.456 1.395 14.383-3.182-2.008-8.358-4.568-11.537-6.148 2.87.843 6.744 2.33 9.367 2.632.586-3.044.52-7.57.775-10.867"/>
    <path d="M234.36 271.3c-.054.05-7.447-8.563-7.447-8.563l5.64 10.28 2.04.743-.232-2.46"/>
    <path d="M233.678 261.09c.528 4.083 1.15 10.424 1.998 14.314-3.255-1.818-8.52-4.07-11.755-5.46 2.895.67 6.82 1.927 9.445 2.07.456-3.08.198-7.608.313-10.924"/>
    <path d="M235.85 272.742c-.042.067-8.87-6.27-8.87-6.27l7.482 8.475 2.106.145-.718-2.35"/>
    <path d="M233.957 262.827c.795 4.036 1.835 10.32 2.935 14.133-3.354-1.51-8.733-3.265-12.038-4.35 2.92.398 6.9 1.282 9.518 1.177.248-3.126-.31-7.63-.415-10.96"/>
    <path d="M236.828 273.983c-.056.05-7.337-8.698-7.337-8.698l5.507 10.38 2.03.782-.2-2.464"/>
    <path d="M234.438 263.945c1.165 3.924 2.782 10.063 4.227 13.723-3.457-1.06-8.94-2.092-12.308-2.734 2.923.006 6.94.357 9.52-.097-.05-3.157-1.022-7.58-1.44-10.892"/>
    <path d="M237.216 273.998c-.016.08-10.25-2.195-10.25-2.195l9.747 4.846 1.97-.742-1.467-1.91"/>
    <path d="M235.106 265.17c1.15 3.93 2.742 10.077 4.173 13.745-3.455-1.08-8.934-2.143-12.3-2.803 2.922.023 6.94.396 9.52-.044-.035-3.156-.99-7.585-1.394-10.898"/>
    <path d="M238.89 275.084c-.03.073-9.806-4.736-9.806-4.736l8.796 7.13 2.108-.197-1.097-2.195"/>
    <path d="M234.594 265.853c1.947 3.58 4.795 9.23 6.962 12.49-3.593-.274-9.156-.074-12.576.042 2.854-.64 6.847-1.183 9.27-2.196-.7-3.078-2.565-7.19-3.656-10.337"/>
    <path d="M240.443 276.155c-.02.08-10.19-2.814-10.19-2.814l9.563 5.416 2.01-.614-1.383-1.987"/>
    <path d="M235.65 267.373c1.967 3.568 4.848 9.195 7.034 12.44-3.592-.243-9.15.004-12.566.15 2.848-.665 6.835-1.243 9.248-2.277-.718-3.073-2.607-7.173-3.717-10.312"/>
    <path d="M241.73 276.993c-.036.068-9.496-5.68-9.496-5.68l8.297 7.94 2.135.02-.934-2.28"/>
    <path d="M236.44 268.273c2.28 3.33 5.656 8.61 8.118 11.59-3.552.222-8.986 1.195-12.328 1.786 2.732-1.04 6.593-2.14 8.862-3.494-1.004-2.996-3.257-6.87-4.652-9.883"/>
    <path d="M242.43 277.83c-.004.084-10.252-.24-10.252-.24l10.14 2.996 1.805-1.12-1.694-1.635m5.941-49.664c.002-.032 7.376-1.23 7.376-1.23l-7.337.17-1.28.658 1.24.402"/>
    <path d="M252.42 229.734c-2.14-.647-5.373-1.73-7.57-2.207 2.335-.928 5.79-2.574 7.915-3.583-1.635 1.024-4.013 2.34-5.28 3.365 1.224.83 3.446 1.68 4.936 2.424"/>
    <path d="M248.045 228.415c-.008-.03 7.135-1.96 7.135-1.96l-7.392.942-1.114.765 1.37.253"/>
    <path d="M252.762 230.26c-2.5-.234-6.335-.714-8.802-.74 1.86-1.644 4.465-4.398 6.07-6.09-1.104 1.59-2.8 3.698-3.532 5.2 1.676.674 4.367 1.124 6.264 1.63"/>
    <path d="M245.392 228.927c.006-.033 7.416-.838 7.416-.838l-7.226-.232-1.35.594 1.16.475"/>
    <path d="M250.884 230.54c-2.273-.434-5.727-1.192-8.027-1.46 2.185-1.074 5.37-2.92 7.33-4.052-1.464 1.106-3.623 2.55-4.716 3.626 1.386.686 3.78 1.305 5.414 1.886"/>
    <path d="M244.756 228.85c-.02-.03 6.527-2.81 6.527-2.81l-7.15 1.887-.856.87 1.48.052"/>
    <path d="M250.667 231.363c-1.892-.782-4.79-2.105-6.662-2.656 1.45-1.348 3.492-3.71 4.75-5.16-.875 1.447-2.212 3.32-2.803 4.757 1.256 1.07 3.288 2.12 4.715 3.06"/>
    <path d="M245.128 229.33c-.014-.044 5.08-2.2 5.08-2.2l-5.532.757-.68.986 1.132.457m-4.251 47.554c.005.082-10.524.08-10.524.08l10.657 2.605 1.748-1.147-1.88-1.54"/>
    <path d="M242.77 277.567c-.012.077-10.69-2.486-10.69-2.486l10.266 5.033 2.01-.648-1.586-1.898"/>
    <path d="M244.523 278.28c0 .08-10.612-.534-10.612-.534l10.613 3.198 1.82-1.03-1.82-1.633"/>
    <path d="M237.79 270.787c2.76 3.042 6.896 7.89 9.793 10.574-3.564.54-8.932 1.98-12.235 2.86 2.625-1.26 6.382-2.684 8.495-4.21-1.423-2.833-4.23-6.41-6.053-9.223"/>
    <path d="M245.982 278.824c-.02.074-10.608-3.472-10.608-3.472l9.968 5.927 2.088-.44-1.448-2.016"/>
    <path d="M238.767 271.485c3.01 2.744 7.547 7.15 10.65 9.512-3.415.984-8.492 3.104-11.617 4.4 2.424-1.6 5.935-3.503 7.833-5.31-1.685-2.695-4.796-5.976-6.866-8.602"/>
    <path d="M246.85 279.475c.017.082-10.065 1.98-10.065 1.98l10.607.722 1.497-1.478-2.04-1.225"/>
    <path d="M244.756 278.84c.01.08-10.5.805-10.5.805l10.834 1.86 1.66-1.26-1.994-1.406"/>
    <path d="M246.695 279.398c-.007.077-10.855-1.74-10.855-1.74l10.623 4.306 1.96-.783-1.728-1.782z"/>
    <path d="M248.495 279.987c.006.08-10.632.2-10.632.2l10.832 2.455 1.738-1.153-1.938-1.503z"/>
    <path d="M241.203 272.974c2.984 2.843 7.476 7.39 10.57 9.864-3.518.782-8.768 2.59-11.998 3.693 2.525-1.436 6.168-3.114 8.162-4.78-1.633-2.726-4.704-6.098-6.734-8.776z"/>
    <path d="M250 280.422c-.014.075-10.848-2.728-10.848-2.728l10.394 5.22 2.05-.584-1.596-1.908z"/>
    <path d="M242.243 273.595c3.21 2.528 8.07 6.605 11.344 8.746-3.335 1.217-8.244 3.68-11.265 5.188 2.3-1.76 5.66-3.9 7.42-5.833-1.884-2.57-5.236-5.625-7.5-8.1z"/>
    <path d="M250.916 281.01c.022.082-9.898 2.67-9.898 2.67l10.64-.012 1.384-1.577-2.127-1.078z"/>
  </g>
  <path d="M264.584 266.117l-8.085-5.588-8.086 5.587 3.032-8.94-7.075-5.59h9.097l3.032-8.94 3.03 8.94h9.097l-7.075 5.59 3.032 8.94z" fill="#fedf00" stroke="#000" stroke-width=".464"/>
</svg>
