<svg xmlns="http://www.w3.org/2000/svg" height="512" width="512" id="flag-icon-css-sb">
  <defs>
    <clipPath id="a">
      <path fill-opacity=".67" d="M0 0h496.06v496.06H0z"/>
    </clipPath>
  </defs>
  <g fill-rule="evenodd" clip-path="url(#a)" transform="scale(1.0321)" stroke-width="1pt">
    <path d="M0 491.39L956.69 0H0v491.39z" fill="#0000d6"/>
    <path d="M992.13 0L26.33 496.06h965.8V0z" fill="#006000"/>
    <path d="M992.163 0h-53.167L0 470.248v25.815h53.15L992.146 26.732V-.002z" fill="#fc0"/>
    <path fill="#fff" d="M39.029 96.123l11.55-33.35-30.168-20.601 37.272.034L69.171 8.837l11.488 33.37 37.273-.025-30.175 20.592 11.546 33.354-30.137-20.641zm185.194 0l11.55-33.35-30.168-20.601 37.272.034 11.488-33.369 11.488 33.37 37.273-.025-30.175 20.592 11.546 33.354-30.137-20.641zm0 139.987l11.55-33.35-30.168-20.602 37.272.034 11.488-33.369 11.488 33.37 37.273-.025-30.175 20.592 11.546 33.354-30.137-20.641zm-92.054-69.176l11.55-33.35-30.168-20.601 37.272.034 11.488-33.369 11.488 33.37 37.273-.025-30.175 20.592 11.546 33.354-30.137-20.641zm-93.14 69.176l11.55-33.35-30.168-20.602 37.272.034 11.488-33.369 11.488 33.37 37.273-.025-30.175 20.592 11.546 33.354-30.137-20.641z"/>
  </g>
</svg>
