<svg xmlns="http://www.w3.org/2000/svg" height="512" width="512" id="flag-icon-css-sh">
  <defs>
    <clipPath id="a">
      <path fill-opacity=".67" d="M0 0h512v512H0z"/>
    </clipPath>
  </defs>
  <g clip-path="url(#a)">
    <path fill="#006" d="M1023.99 511.951V-.034H-.008V511.95H1023.99z"/>
    <path d="M-.008 85.267h107.986L-.008 31.078V-.03h61.784l151.058 75.303V-.03h85.06v75.303L448.953-.03h62.317v31.11L402.751 85.266H511.27v85.365H402.751l108.518 54.19v31.119h-62.317l-151.057-75.314v75.314h-85.061v-75.314L61.776 255.941H-.008v-31.12l107.986-54.189H-.008V85.267z" fill="#fff"/>
    <path fill="#ce1126" d="M471.07-.034L300.415 85.324h40.85L511.26-.034h-40.19zm40.21 255.974l-170.174-85.31h41.031l129.143 64.973v20.339zM170.967 85.303L-.015-.055v20.384l129.772 64.974h41.21zm-.356 85.301L-.019 255.916h40.83l170.654-85.312h-40.854z"/>
    <path fill="#ce1126" d="M-.008 102.975h230.96V-.035h49.984v103.01h230.333v49.986H280.936v102.976h-49.984V152.961H-.008v-49.986z"/>
    <path d="M399.67 640.77c-.046 16.332-2.623 33.927-23.764 42.308-21.142-8.381-23.719-25.976-23.765-42.308h47.529z" stroke-width="1.009" fill="#8fc5ff" transform="matrix(4.9436 0 0 4.9441 -1482.9 -2891.1)" stroke="#fff"/>
    <path fill="#366cc9" d="M375.9 683.08c9.584-3.799 15.353-9.493 18.8-16.104-.516.02-1.597-.011-2.064-.043-.52-.034-20.271-2.018-22.61-2.876-2.035-.746-9.799.634-13.423 1.929 3.381 7.032 9.237 13.106 19.297 17.094z" transform="matrix(4.9436 0 0 4.9441 -1482.9 -2891.1)" stroke="#000"/>
    <path fill="#5d3100" d="M361.13 672.95c.323-.105.94-.08 1.183-.036.286.052.338.078.442-.234s.338-.234.52-.078.649.078.831-.182c.182-.259.234-.233.416-.052.182.182.26.13.442.078.182-.051.494-.259.65-.545s.389-.39.519-.234.26.234.442.208.234.156.208.389c-.026.234.078.286.52-.077.39.389.519.233.519-.182 0-.416-.103-1.949-.259-2.157s-.312-.806-.338-1.274c-.049-.883-.052-.935-1.118-1.481 0-.312-.078-.442-.831-.39.026-.104-.104-.416-.26-.546s-.182-.182-.104-.545c.312.026.65-.026.832-.286.181-.26.779-.208 1.143-.052s.832.182 1.533.078c.26-.208.702-.442 1.17-.702.467-.26.597-.364.623-.728.067-.933-.26-2.001-.52-2.494-.259-.494-.337-1.118-.701-1.898-.396-.849-.39-1.065-.832-1.585-.121-.143-.26-.26-.286-.545-.026-.286-.13-.676-.441-.962-.786-.721-1.092-3.041-1.404-4.756-.179-.983-.052-3.3-.467-3.664-.702-.572-1.04-.468-1.508-.65-.338-.468-.493-1.403-.805-2.235-.494.078-.832.598-1.17.78s-.39.182-.39.65c0 .467-.26 1.117-.727 1.845-.468.727-1.248.52-1.897 1.611-1.43-1.741-1.456-2.235-1.56-2.729-.104-.493-.338-.597-1.143-1.299 0-.208-.104-1.039-.026-1.507-.598-.494-1.04-.416-1.325-.052-.286.364-.494.909-.936 1.117-.265.337-1.064 1.187-1.718 2.199.595 9.044 2.636 18.022 8.773 25.202z" transform="matrix(4.9436 0 0 4.9441 -1482.9 -2891.1)" stroke-width=".125" stroke="#000"/>
    <path d="M399.67 640.77c.018-6.152-.324-12.125-.168-17.359-7.9-3.535-18.295-4.262-23.596-4.262-5.302 0-15.697.727-23.597 4.262.156 5.234-.185 11.207-.168 17.359h47.529z" stroke-width=".98" transform="matrix(4.9436 0 0 4.9441 -1482.9 -2891.1)" stroke="#fff" fill="#ff0"/>
    <path d="M264.267 312.133c1.285 2.057 3.6 5.592 3.856 7.515.9-1.864 1.607-2.695 1.8-3.851s1.542-3.407 1.028-4.628-.9-2.185.514-1.286c1.409.9 1.137 2.458.83 4.757-.83 6.293-3.465 7.579-3.85 11.821 3.791 8.929.963 12.143 5.072 20.879.642.386 2.358-.302 2.872-.173 2.18-1.543 3.811-.984 6.891-.341 3.085.642 4.756 2.823 4.756 4.751s0 2.442.643 3.6 1.928 2.956 1.67 4.241c-.257 1.28.258 2.052.643 2.695s-.128 2.057-.514 2.956-.257 2.057 1.285 3.985c1.543 1.924 5.137 10.022 5.137 14.773 0 4.757.257 6.942 2.185 7.837 1.928.9 2.57 1.67 2.313 3.728s.9 12.72 1.157 14.392.9 1.285 1.671 2.185c.766.895 1.28 1.923 3.851 1.923s5.053-.34 6.724-.084c2.313 3.214 3.727 7.58 4.241 10.28s.47 6.382 1.37 6.382 1.799.129 1.542-3.214-.514-3.856-1.671-5.522c-1.157-1.671-1.8-2.443-1.157-3.471s.771-2.7.514-3.985-.642-3.209 1.543-.643c2.185 2.571 2.828 3.214 3.47 4.114s.895 2.57.771 4.113c-.128 1.538.124 2.18 1.024 1.41.9-.767 2.056.514 1.542 2.185s.129 2.7 1.671 3.213 2.185.9 2.57 2.057 1.672 1.666 1.672-.643c0-2.313-.9-7.198-1.543-8.736-.642-1.542-1.157-4.885-1.285-6.813s-.514-2.437-1.414-2.823-1.67-1.028-1.8-1.928-.9-1.221-1.478-1.221-1.087-.45-1.408-1.093-.643-.707-1.286-.771-1.67.321-1.992-.707-.771-2.507-1.414-3.342-1.221-1.093-1.285-3.98c-.065-2.893-.129-3.278-1.029-4.307s-2.442-3.723-3.084-4.88c-.638-1.157-1.28-2.313-1.28.129 0 2.437 0 3.723 1.537 4.623 1.542.9 1.928.9 1.285 2.185s0 2.185.257 3.085.771 1.8 0 2.695c-.771.9-1.542.642-1.414-.767.129-1.414-.385-3.085-1.023-4.242-.643-1.157-1.157-1.928-1.928-1.285s-1.414-.129-.9-.643.386-.9 0-1.285-.514-.772.129-1.543.642-1.157.257-2.952c-.386-1.8-3.214-10.793-4.499-12.85s-1.157-3.599.514-1.542 3.085 3.857 3.214 5.523c.128 1.67.514 2.7 1.028 3.342s.9.386 1.157-1.028 1.285-.9-.514-3.595c-1.8-2.7-5.142-7.198-6.427-15.292s-1.8-13.492-3.085-15.673c-1.28-2.185-1.666-2.7-1.795-4.756s0-4.113-.9-5.651c-.899-1.543-1.542-1.8-1.67.514-.129 2.309.128 7.45.771 8.35s.257 3.21.129 4.495-2.15 2.556 2.056 5.142c1.671 1.028 1.409 2.442 1.157 3.342-.257.895-.514.766-1.414-.643-.9-1.414-1.8-2.57-2.7-3.342s-1.027-1.285-.899-3.085.514-3.085 0-3.723c-.514-.643-.771-.129-1.028.895-.257 1.028-.514 3.856-1.028 4.628s-.772.257-1.157-1.414.128-4.238 1.028-7.194 1.414-6.042.643-9.893c-.772-3.857-.386-5.014-3.342-8.222-2.952-3.214-6.293-6.3-7.707-10.28-1.414-3.984-1.671-7.455-3.214-9.254-1.537-1.795-3.722-4.109-5.136-4.752v-5.908c0-1.414-.643-2.314-2.314-2.057s-2.699 1.671-3.722 3.595c-1.028 1.928-1.8 1.028-3.213 4.37s-3.47 5.009-3.47 8.608z" fill="#cf6200"/>
    <path d="M273.561 349.807c1.028.643 2.012 1.073 3.555.302s3.386-2.997 5.442-.811c2.052 2.18 3.209 5.78 3.209 8.607 0 2.824 0 8.094 3.213 11.05 3.214 2.952 4.88 6.037 5.008 9.894.129 3.851 1.542 9.764 1.928 11.307.386 1.537 1.285 3.337 2.314 4.365s1.8 3.985 1.928 7.066c.128 3.085-.386 5.27 0 6.813s0 2.828-1.157 2.056-1.414-1.157-2.057-2.442-1.414-1.028-.77.9 2.57 3.723 4.24 3.723 2.186.257 3.214 1.285c1.023 1.028 1.152 1.543 2.951 1.543s2.057 0 3.728.514 1.67.257 2.57 0 1.795.514 2.438 2.185 2.185 6.294 2.185 7.58 0 2.57.9 3.856.642 2.57-.386 1.8-1.028-.515-1.8-.386-1.285-.257-2.308-.9c-1.028-.643-.386-.514-1.414-2.057s-1.671-2.056-1.671-.9-.129 2.571-.9 1.929-1.157-.643-1.8 0-.899 1.157-1.67-.129-1.671-1.285-2.442-1.542-.771-.258-1.152-1.414c-.386-1.157-1.543-1.414-2.57-1.414s-1.543-.515-1.672-1.286c-.128-.766-.771-1.28-1.285-1.666s-.257-1.286-.386-2.185-.9-.515-1.414-.772-.9-.128-.9-1.414-.513-1.67-.899-2.57c-.38-.9 0-1.8.257-2.824.257-1.028.129-1.67-.638-2.57-.77-.9-.128-1.8-2.185-3.6s-3.085-.257-3.727-4.494c-.643-4.242-1.928-12.978-3.085-14.392s-1.923-2.443-3.08-2.828-1.928-.129-2.056-2.571c-.129-2.438-.9-5.523-2.443-7.065s-2.185-2.057-2.956-2.7-1.028-1.8 0-3.98c1.028-2.185.643-5.142.514-6.556-.128-1.409-.514-3.209-.257-4.751s.129-3.47-.257-4.5-.9-1.285-.257-2.056zm30.947-36.537c-1.74 2.24-3.594 4.114-5.992 5.824-2.397 1.716-5.482 3.085-3.772 5.997 1.716 2.913 3.085 3.259 3.426 5.483.346 2.225.86 4.114 2.571 4.628 1.715.51 2.398.168 2.398 3.768s0 4.968 1.542 6.338 1.37 2.739 2.057 5.997c.682 3.253.682 10.279 2.738 15.075s6.684 13.878 6.17 15.761-1.201 3.254.855 5.478c2.057 2.23 3.426 5.483 3.6 7.367.167 1.889.513 2.571 2.565 1.889 2.056-.687 3.085-1.375 3.772-2.23.682-.855 2.051-.682 3.94.341 1.883 1.029 4.795 2.057 6.506 1.029 1.715-1.029 2.57-2.566 4.113-2.566 2.397-1.716 3.253-5.315 3.767-6.339.514-1.028.173-1.028-.855-2.057s-.515-2.743-.688-4.454c-.168-1.716-.855-4.282-2.911-8.054-2.052-3.767-3.253-8.395-4.623-9.592-1.37-1.201-2.056-4.113-2.23-5.483-.167-1.37-1.71-2.57-2.738-3.599-1.028-1.023-2.057-2.566-3.253-8.563-1.201-5.997-2.056-10.279-2.056-11.307s-.173-1.202-1.202-1.543-1.542-2.057-1.196-2.912c.341-.855-.346-1.71-.687-2.739s0-2.912.687-3.94c.682-1.029.514-3.94-.173-6.339s-1.37-4.454-4.113-4.8c-2.739-.342-3.253-1.024-4.281-3.254-1.029-2.225-2.057-6.165-2.398-7.025-.341-.856-.855-1.029-2.912.687-2.056 1.71-2.739 2.28-2.739 5.483 0 2.057.342 2.739 1.024 3.94.687 1.197.86 1.543 1.374 4.796s3.426 8.395-.346 11.307c-3.767 2.912-3.253 3.6-3.08 5.651.168 2.057-1.028 3.427-1.715.515-.682-2.912 0-4.623 2.056-5.993 2.057-1.374 3.94-3.085 2.571-4.968-1.374-1.884-1.884-6.339-2.057-8.395s-.514-2.744-1.715-1.202z" fill="#cf6200"/>
    <path d="M273.957 356.926c-.094 1.395.217 2.927.326 4.158.128 1.414.514 4.371-.514 6.556-1.029 2.18-.771 3.338 0 3.98.044.035.084.07.123.104 2.096-.702 2.368-3.04 1.805-4.173-.598-1.196-.425-2.655.257-3.851.687-1.202.687-1.884.089-2.744-.603-.855-.603-.855.084-3.253.603-2.111-.92-2.097-2.17-.777zm21.949 33.224c-.385-1.542-1.8-7.455-1.928-11.306-.128-3.857-1.794-6.942-5.008-9.893-2.506-2.31-3.055-6.017-3.174-8.88-1.883-1.152-2.679-.628-2.52 1.513.167 2.309 2.48 3.426 2.14 6.763-.341 3.343-.341 2.487 1.285 4.114s2.225 3.169 1.37 3.856c-.856.683-.945 1.884.257 2.31 1.196.43 1.285 1.715 1.112 2.911-.173 1.202.944 1.459 1.626 2.314.688.855.772 2.912.09 4.114-.688 1.196-.772 3.08.425 2.056 1.2-1.028 1.715-.089 2.654 1.538.816 1.404 1.498.964 2.383.539a10.838 10.838 0 0 1-.712-1.948zm16.71 29.913c-.772 1.542-1.671 1.028-2.443.257s-1.67-.772-1.285-2.186.257-1.67-.771-2.442a7.709 7.709 0 0 0-.356-.247c-.321-.01-.697-.01-1.187-.01-1.799 0-1.928-.514-2.95-1.543a8.638 8.638 0 0 0-.634-.573c-.02.247-.01.573-.01.96 0 1.413 0 1.156-1.413 1.542s-1.157-1.414-1.414-2.571a4.247 4.247 0 0 0-.223-.692c-1.547-.297-3.178-1.929-3.762-3.674-.643-1.928.129-2.185.771-.9s.9 1.671 2.057 2.443 1.542-.515 1.157-2.057c-.124-.495-.154-1.068-.139-1.706-.277-.5-.652-.905-1.147-1.122-2.056-.9-1.414-1.157-1.285-2.828.129-1.666-.257-1.666-1.542-.771-1.286.9-1.414-.129-1.414-2.695 0-2.57-1.671-2.57-2.052-.771-.385 1.8-1.028.642-1.8-1.928s-1.799-3.214-1.927-.772c-.11 2.067-.683 2.561-2.027 1.414.237 1.493.445 2.888.613 3.985.642 4.237 1.67 2.695 3.727 4.494s1.414 2.7 2.185 3.6c.767.9.895 1.542.638 2.57-.257 1.024-.638 1.924-.257 2.824.386.9.9 1.285.9 2.57s.385 1.158.9 1.415c.32.158.736.069 1.038.197.33-.435.632-.969 1.018-1.354 1.542-1.543 3.856.128 4.627 2.056s1.666 2.443 2.823.9.771-1.285 2.057.129 1.799 1.157 1.799 1.157 1.285-.514 2.185.257 1.414.643 3.08-1.8c1.67-2.442-.766-1.67-1.537-.128zm4.548-70.503c.509-3.768.168-7.535 1.71-8.91 1.543-1.369 3.426-4.108 3.253 1.716-.168 5.824-.341 5.483-1.537 6.853-1.202 1.37-2.23 1.71-1.029 3.94 1.197 2.225 1.37 2.398 1.197 5.824-.168 3.427-.168 4.796 1.2 6.512 1.37 1.71 1.711 1.883 2.057 3.767.342 1.884 1.538 4.455 3.08 5.824s3.258 5.31 3.426 8.054c.173 2.74 2.57 3.426 4.796 5.31 2.23 1.884-.51 3.253-2.225 2.398-1.71-.855-1.028 0-2.057 1.196-1.028 1.202-1.369 1.375-2.224-.682s-3.772-3.426-5.142-3.94-2.565-2.744-3.767-4.97c-1.028-1.912-3.065-3.312-4.923-3.455.514 1.444.79 2.576.642 3.115-.514 1.883-1.201 3.253.855 5.478 2.057 2.23 3.426 5.483 3.6 7.367.167 1.888.514 2.57 2.565 1.888 2.057-.687 3.085-1.374 3.772-2.23.682-.855 2.052-.682 3.94.342 1.884 1.028 4.795 2.056 6.506 1.028 1.715-1.028 2.57-2.566 4.113-2.566 2.398-1.716 3.253-5.315 3.767-6.338.514-1.029.173-1.029-.855-2.057s-.514-2.744-.687-4.455c-.168-1.715-.856-4.281-2.912-8.054-2.052-3.767-3.253-8.395-4.622-9.591-1.37-1.202-2.057-4.114-2.23-5.483-.168-1.37-1.71-2.571-2.739-3.6-1.028-1.023-2.056-2.566-3.253-8.563-.939-4.687-1.666-8.32-1.938-10.18-1.23 1.963-2.07 2.443-2.516 1.098-.514-1.538-1.201-2.398-1.883-1.37-.687 1.029-.86-.855-.86-1.71 0-.86-.169-1.029-1.029-1.029-.855 0-.168-1.37-.514-3.94-.341-2.571-.855-2.912-1.196.173-.341 3.08-2.057 4.964-1.37 5.651.683.687.341 2.057-.346 4.114-.682 2.051-.34 3.253.173 4.622s-.34 3.94-.687 6.17c-.34 2.225 1.374 4.45 1.889.683zm-31.294-30.753c-1.27.094-2.14 1.207-1.413 5.098.455 2.408-1.37 1.884-2.052.682-.687-1.196-1.201-3.767-2.57-5.997-1.375-2.225-.688 1.543-.856 3.6-.173 2.056 1.197 2.056 2.398 3.767 1.196 1.715.168 2.402-1.201 2.402s-.683 2.74-.341 4.623-.342 2.23-1.375.687c-1.023-1.542-.34-3.94-.168-6.852.168-2.912.341-2.23-1.542-2.912-1.884-.687-1.543-1.029-.856-2.744.683-1.71 1.37-2.571.515-3.426-.86-.856-.688-1.37.682-1.543 1.37-.168.86-1.196 2.056-1.543 1.202-.34 1.716.174 1.884-2.051.143-1.86.766-3.001 2.16-2.438.84 2.863 1.933 7.318 2.68 8.647zm17.254 20.173c0 3.599 0 4.968 1.542 6.338s1.37 2.739 2.057 5.997c.682 3.253.682 10.279 2.739 15.075.613 1.428 1.458 3.243 2.323 5.131 1.137-.894 2.126-2.432 2.477-3.248.509-1.201-1.029-3.6-2.23-5.65-1.196-2.058.173-2.745 1.37-5.316 1.2-2.566-.169-2.739-2.052-3.426-1.888-.682-1.888-2.398-2.917-5.137s-.855-3.94-.168-5.483c.682-1.543.168-2.739-1.201-3.085-1.37-.341-1.028-1.37-.514-3.08.514-1.716.855-2.057-1.197-1.543-1.557.386-1.933.677-2.397 1.241.113.495.168 1.182.168 2.185z" fill="#00b800"/>
    <path fill="#5d3100" d="M322.849 346.148c-.188 2.057-.173 3.085-.687 3.768-.51.687-.168 1.715.346 2.744s.855 2.398.34 4.281.342 3.427 1.37 3.94 1.543 0 1.201 2.399c-.346 2.398 1.029 4.968 2.225 5.997 1.201 1.028 2.057 2.739 1.884 3.767-.169 1.029.86 2.057 2.056 2.571 1.201.514 1.028.687 1.028 1.37 0 .687.515.687 1.884 1.028s2.398 1.201 3.94 3.085 3.767 2.912 3.426.856 0-3.427-2.057-4.455c-2.051-1.028-3.594-5.997-4.454-9.424-.855-3.426-3.594-8.049-5.136-8.904-.173-2.403.173-3.6-1.37-4.8-1.542-1.197-2.056-2.74-2.056-3.941 0-1.197-.855-2.74-1.543-3.08-.682-.346-1.028-1.202-1.028-2.23s-1.196-.855-1.37 1.028z"/>
    <path d="M313.753 438.06c3.08-.258 11.434-2.7 12.329-3.472 2.056 1.414 5.655 3.343 7.198 3.343-2.957.642-4.885.257-5.656-.257.386.9 1.414 2.313 2.057 2.442-2.828-.129-6.036-.771-7.065-1.8-2.442 1.029-6.555 1.286-8.863-.257zm5.537 3.856c1.092.32 6.55 1.22 7.257 1.22-1.8 1.538-.257 3.017 2.763 2.76-1.478.192-3.09.751-1.992.964 2.635.514 9.763-1.414 11.177-2.186-2.442 3.15-14.321 6.042-19.206-2.758zm4.894 7.811c1.473-.771 5.136-.514 6.871.322-1.928.707-5.715.707-6.871-.322z" fill="#00d860"/>
    <path d="M329.67 449.628c2.636-.45 10.086 1.35 12.72-.257-.899 2.378-5.59 2.7-7.197 2.186-1.602-.515-3.144-1.157-4.237-1.093.579-.321-.385-.386-1.285-.836z"/>
    <path d="M332.39 453.287c1.992.316 9.12-.578 11.306-1.414 2.309.771 6.872 1.988 7.9 1.859-2.185 1.35-6.363.578-7.707 0-3.856 1.285-7.005 1.671-11.5-.445z" fill="#00d860"/>
    <path d="M335.801 454.474c2.852.642 5.285.183 8.093-.757.875.376 2.936.836 4.874.742 1.29.736 3.026 1.765 4.696 1.893-1.735.707-8.097 0-9.378-.707-3.213.065-8.74.772-10.084 1.864-.065-.9.519-2.15 1.799-3.035z" fill="#00d860"/>
    <path d="M332.39 439.987c2.225.742 10.278.386 14.386-1.542 1.621-.762 2.625.514.771 1.157-6.679 2.314-11.949 3.213-15.8 1.157-1.522-.811-1.67-1.543.643-.772z"/>
    <path d="M371.84 429.06c-9.892 4.624-16.448 6.038-30.19 1.8-1.281-.395-2.186 0-.772.9 1.414.895 8.992 2.952 10.792 3.08s1.157.965.064 1.286-1.414 1.093.064.514 9.734-.796 13.106.964c1.473.772 1.859.643 1.73.065s.643-.965 1.735-1.093 1.736-.514.9-.836-.964-.514-.321-.835.707-.643-.257-.836-1.607-.45-.707-.9c.9-.445 2.25-.77 3.277-.894.258-.707-.192-2.571.579-3.214z" fill="#00d860"/>
    <path d="M355.378 430.247c5.655.401 16.061-2.185 21.588-7.579 1.923 1.152 4.623 2.438 6.036 2.695s2.7 1.542.515 1.542-5.27-.9-6.68-1.542c-7.326 4.499-15.898 5.977-21.33 5.527-1.538-.128-1.924-.771-.13-.643z"/>
    <path d="M338.668 399.396c1.928 1.35 5.334 3.595 9.764 3.273 2.185 1.736 5.591 3.214 7.134 3.535-2.957 1.222-6.17 2.25-7.006 3.214-1.35-1.285-3.08-1.093-3.53-1.735-1.285 1.028-1.092 1.67-.256 2.185s7.321 1.607 8.928 1.157 2.037.88.707 1.345c-3.47 1.22-10.214.064-12.527-3.659-2.314-3.728-4.306-5.142-10.6-1.735-.706-1.8-.706-2.25-1.927-2.25s-3.47-1.607-1.736-1.543 6.877-.707 11.05-3.787z" fill="#00d860"/>
    <path d="M340.2 407.653c-1.072.267-4.112 1.928-5.2 2.057-1.092.128-3.02 1.67-1.028 1.735 1.987.064 4.558-2.12 5.972-2.314s1.542-1.8.257-1.478zm6.23 6.527c-.762.133-4.044.899-4.944.835s-1.8.193-1.735.835.321 1.029-1.028.9-2.507.386-2.828.771-.578.772.771.9 2.057.257 3.6-.45 3.02-1.8 4.69-1.864c1.667-.064 3.337-2.25 1.474-1.928z" fill="#00d860"/>
    <path d="M341.832 418.134c1.404.91 8.35 3.278 10.856 3.086s2.037 1.003.129 1.414c-3.92.83-8.706-.876-11.949-3.471-1.606-1.286-.128-1.736.964-1.029z"/>
    <path d="M374.707 421.546c-5.314 1.696-10.727 1.093-12.913.514s-4.177-.707-2.699.707c1.478 1.41 6.234 2.373 8.928 1.666-9.57 2.186-12.077 1.993-14.45 1.607-2.378-.386-6.842-.302-8.735-.128-1.414.128-3.342-.065-4.177-.579s-1.093-1.478 1.413-1.221c2.502.257 2.828-.257.643-.579s-5.206.579-2.25 2.443 9.443-.129 13.556 1.028c4.108 1.157 12.844 1.993 21.134-4.692.425-.34 1.157-1.28-.45-.766zm-26.102-7.812c.193.643.193 1.35 0 1.8s-.193 1.028.643.385 1.35-1.414 2.185-.964 2.956.386 3.915.257c.969-.128 1.285-.32-.124-.9-1.413-.578-2.827-.77-3.599-.706s-1.735-.129-2.377-.386-.836-.129-.643.514z" fill="#00d860"/>
    <path d="M362.299 416.206c-1.093.065-3.02-.642-4.05-1.092s-2.5-.515-1.408.964c1.088 1.478 5.843 2.314 7.514 1.607s.964-1.479 2.63-.45c1.671 1.028 3.406 1.735 4.627 1.735s1.671 0 .322-.771-1.992-.964-2.121-1.607-.321-1.028.9-.643 2.635 1.093 3.599.579 2.758-1.671 4.365-1.671l.385-.965c-2.313-.192-3.786.515-4.429.772s-1.8.385-3.02.193-2.828-.322-3.214-.643-.385-.579.643-.771 1.35-.9-.064-.643-5.201.128-7.193-.514c-1.993-.638-2.828-.702-3.664-.386-.835.321-.707 1.221.514 1.285s3.985.322 4.949 1.222.836.964-.257.514-3.085-.193-1.028 1.285z" fill="#00d860"/>
    <path d="M379.058 413.883l-.386.964c2.378-.065 8.162.514 10.02 1.67 1.8-1.413 1.479-1.863 2.764-1.606s2.892.707 3.599.321 1.221-.321 1.992-.193c.767.129 2.437-.192 3.401-.77s2.957-1.35 4.114-1.35 2.565-.258.45-.579c-2.121-.321-5.335.321-6.427.707-1.088.386-4.365.643-6.293.643s-4.558.964-6.744.385-5.205-.192-6.49-.192z" fill="#00d860"/>
    <path d="M408.818 412.745c-3.851 2.828-8.478 3.471-14 3.857-1.607.113-1.113.568.257.707 5.779.578 12.463-1.543 14.643-3.857.632-.667.563-1.775-.9-.707z"/>
    <path d="M382.567 419.321c1.671.064 7.45 1.543 9.314 2.185 1.414-.128 1.8-.45 1.543-.964s-.45-1.092 2.12-.964c2.566.129 8.479.064 9.571.064.9-.385 2.887-1.928 3.787-1.992-2.309.128-11.944.643-13.165.514s-1.864 0-2.635.45-1.22.643-2.185.257-2.699-.9-3.658-.321c-.964.578-2.956.064-4.692.771z" fill="#00d860"/>
    <path d="M405.11 419.618c.9-.386 2.887-1.929 3.787-1.993 1.671-.128 3.599.579 4.499.707s1.863-.064 1.22-.771-.063-1.928 2.571-1.607c2.63.321 3.98.771 6.55.514s3.728 1.671 8.608-.257c-.386 1.928.514 2.057 1.413 1.671s1.928-.257 3.47.9 10.921 1.286 13.106.9c2.18-.386 3.337.771 1.666 1.285-1.666.515-2.056 1.286-1.666 1.8.381.51.767 1.152-1.285.895-2.057-.257-2.442.386-3.47 1.157s-1.286 1.028-4.113.514c-2.823-.514-3.337-.128-4.88.129s-1.928.257-3.47-.257-4.88-1.029-6.936-.386-3.599 1.285-5.399.771-1.928-.257-.77-1.414 1.413-1.028 3.598-1.285c2.185-.252 3.856-.895 2.314-1.795s-2.057-.771-4.113.257-3.085 1.666-5.394.386c-2.313-1.286-3.47-1.029-5.013-.643s-4.108-.514-6.293-1.478zm7.712 3.856c-2.941.42-3.732-1.473-6.807-1.088-1.028.129-2.764 1.41-.386 1.217 2.373-.193 4.944 1.092 7.258.9s1.285-1.222-.065-1.029zm-3.411 2.225c1.548-.564 4.756.514 6.106.257s2.634.578 1.22 1.028-4.82-.835-6.362-.385-3.08-.129-.964-.9zm-30.7 8.306c2.121.07 9.764-.257 12.785-6.68.232-.494.45-.706 1.413-.064s4.5 2.764 11.114 3.342c1.854.164 3.856 1.093.128.836s-9.635-1.285-11.627-2.507c-3.342 5.266-9.344 5.889-13.813 5.78-2.694-.064-2.051-.771 0-.707z" fill="#00d860"/>
    <path d="M395.223 425.254c-1.028 1.414-4.563 3.856-6.17 3.985-1.601.128-6.421-.321-7.642-.771s-2.7-.322-.964.9 6.04 2.056 7.771 1.67c1.735-.385 3.727-.964 5.077-.128s3.856 2.437 5.33 2.116c1.477-.316 4.498-.316 5.462.129.964.45 2.635 1.8.128 1.028s-4.562-.129-5.72-.643c1.286 1.8 4.203 4.692 6.684 4.692.579 0 .964 1.029-.257 1.607 1.221.579 4.044 1.028 5.522-.321-.385.514-.192.835.45 1.157s1.414.77.257.9-3.786.45-4.558.128c2.502 1.602 8.993 4.173 15.607 2.887 1.26-.242 1.928-.766-.128-.707-4.242.129-4.494.065-5.265-.38-.771-.455-.643-.836.578-1.222 1.216-.385 4.301-.835 5.587-.835s2.57-.514-.065-.514-5.843 0-7.128-.45-2.25-1.029-.9-1.928 2.763-.643 3.406-1.479c-4.242-.064-9.447-2.314-6.555-4.365.672-.48.45-.515-.643-.643s-4.3-1.028-5.65-1.8-.45-1.414.642-1.607c-2.506.45-7.519-.9-10.856-3.406zm37.67-.099c-2.313 1.735-6.678 2.442-8.542 2.442s-2.121.643-.643.836 3.085.386 3.728.193 1.028-.257 1.987.193c.964.45 3.02.707 4.82.128s4.75-.835 5.972-.771 2.57.128.128-.579c-2.437-.707-6.421-.192-7.385.065s-3.6.064-2.185-.386 2.634-1.157 3.341-1.735c-.514-.129-.835-.257-1.22-.386zm-1.186 4.994c-1.992 1.478-4.88 2.887-7.836 3.016 2.7.964 4.949 3.727 6.679 3.599-.835.514-1.859 1.285-2.951 1.414 1.67.45 4.493-.064 6.807-1.35 3.856 1.093 8.864.386 10.535-1.028-2.507 0-5.522-.9-6.872-2.057 1.221 0 2.373-.771 2.952-1.473-2.887.509-7.836-.9-9.314-2.121z" fill="#00d860"/>
    <path d="M427.604 438.207c1.092-.128 2.116-.9 2.951-1.414-2.116.707-11.37-.77-14.129-3.213-2.763-2.438-2.763-.579-.835 1.157s5.329 4.37 12.013 3.47zm6.772 5.884c-1.156.643-6.678 1.028-8.478.643s-2.57-.193-2.12.514.642 1.35-.836 1.157-4.113.128-5.2.514c-1.093.386-2.443 1.35-.13.964 2.31-.386 4.43-.835 6.165-.386s7.9.579 9.121.065.386-.514-.193-.514-.835-.386 0-.772 1.479-1.478 1.671-2.185zm-53.44-7.466c-2.314 1.029-10.02 3.086-12.077 3.214-2.57 1.157-4.622 1.8-5.908 1.8.9.771 4.365 1.537 5.78 1.157-.772.766-2.566 1.666-3.21 2.051 2.053-.257 4.495.258 5.523.386-2.7 1.543-6.422 2.057-8.35 1.8.643.9 1.543 1.8 2.7 1.8-2.443.642-5.399.642-6.941.128.642 1.285 1.285 2.057 2.185 2.185-2.057.257-4.628.643-6.808-.643 1.666 2.186 5.394 2.952 10.92 2.314 5.523-.642 10.15-3.085 11.435-4.113-2.313.257-5.398.385-6.94.128 3.084-.77 9.763-3.599 10.92-4.756-1.285 0-2.566-.385-3.47-1.028 1.799.257 8.097-.51 10.025-1.28-2.314-.515-3.727-1.929-4.37-2.829 8.093 2.571 17.1 1.73 21.455.643 1.028-.257 1.152-1.562-.9-1.414-3.599.257-10.534-.771-12.334-1.671 1.671 1.285 3.728 2.057 5.141 2.314-3.341.9-7.964 1.542-14.776-2.186z" fill="#00d860"/>
    <path d="M365.512 444.882c.643-.386 2.437-1.285 3.208-2.052-1.413.38-4.879-.385-5.779-1.157 1.286 0 3.337-.642 5.908-1.8-4.622-.128-7.836-.128-9.507-1.028s-4.75-.642-5.907-.385-.771 2.185 4.108 1.67c-2.057 1.415-7.579 1.929-9.635 1.415.514 1.666.9 3.337.385 4.237 2.7 1.542 9.764 3.47 13.234 3.214-3.084-1.157-4.755-2.443-2.185-2.7s3.985-.771 6.17-1.414z" fill="#00d860"/>
    <path d="M357.553 453.238c6.15-.515 14.386-.623 20.94-6.17 1.672-1.415 2.794-.94 1.158.514-3.466 3.085-12.077 7.322-20.299 7.45-3.347.055-4.879-1.542-1.8-1.794z"/>
    <path d="M403.627 443.053c-1.542.578-5.848 1.285-7.128 1.092-1.286-.192-3.15-.257-4.178.386s-1.092 1.028.322 1.157 3.213.257 4.113.193c-1.157.642-1.928 1.542-2.185 1.928 2.056-.514 5.843.386 6.935 1.028-.835.257-1.8-.064-2.506-.45 3.47 3.664 13.748 3.664 15.42 3.021-.772.579-1.48 1.157-2.25 1.35 2.892.514 6.229.45 9.506-1.478-1.092.193-4.365-.129-5.2-.193.642-.643 1.601-1.221 2.501-1.478-1.28-.257-5.33-.129-6.293.385.385-.771 1.092-1.735 1.864-2.057-5.077 0-11.242-.064-13.491-1.285 3.598.386 7.583-1.735 9.249-1.735-2.823-.065-5.908-.707-6.679-1.864zm-12.903 2.817c-2.506.515-6.293 1.543-7.321 2.122s-2.12.9.128.9 8.35.257 9.7.45c-3.406-.515-8.029-.643-8.928-.643s-1.928-.064-.257-.579 3.856-1.67 6.678-2.25zm-5.092 5.983c.895 0 4.816 0 6.358-1.35 1.607 1.222 4.691 2.952 6.679 2.952 1.992 0 1.8.514.064.707-1.73.193-5.136-.83-6.872-2.116-2.313.836-4.236.129-6.229-.193zm-29.76 17.305c3.98 1.542 9.25 2.699 13.1 1.414 2.186 1.928 6.684 2.056 9.122 1.542 2.442-.514 4.627-.771 7.326.129 2.694.9 8.221.964 9.764 2.244-1.414.07-4.435 0-5.142.198-.707.188-.321.638.964 1.345-4.365-.257-11.884 1.607-14.193 3.6.83-1.993 3.401-4.693 7.45-4.693-2.313-.83-9.7-.895-12.077.579-.707-.772-1.543-2.052-1.607-2.566-3.915 2.244-11.627-.964-14.707-3.792zm-10.184-7.218c4.741-.678 7.97-2.186 9.383-3.6.836.771 4.301 1.542 8.093.386-.771.578-.836 1.67-.514 2.25-2.507.063-7.262 1.285-8.864 2.12-1.607.83-6.298 1.41-7.836.574-1.542-.831-1.606-1.538-.262-1.73z" fill="#00d860"/>
    <path d="M362.645 461c-2.507.064-7.262 1.285-8.864 2.12.321.644.514 1.667.578 2.374 4.623-1.671 15.222-2.695 19.27-2.052-1.928.129-5.59 2.116-7.642 2.373 5.007-.385 9.892.643 11.172.964 1.285.322 1.543 1.286.579 2.186s-1.41 1.028.642 1.092c2.057.065 6.298-.192 8.226-2.056-.77-.836-2.763-.515-3.341-1.093 1.35-.45 2.892-1.414 3.47-2.121-3.47-.064-4.756-.129-5.913-.386-1.156-.252-1.992-.578-.578-1.344 1.414-.772 2.057-1.414 2.506-1.929-2.506.707-6.421 1.286-9.699-1.285 1.221.321 4.108.128 5.136-.321-1.092-.579-1.987-1.029-2.887-1.029 2.63-1.285 7.836-2.442 14.258.129 3.213-.257 6.683-.129 9.12.514 1.029-1.028 3.214-3.47 4.37-4.114-7.578.643-21.197-.77-20.94-4.75-2.442 3.208-8.093 5.007-10.535 4.493-.257 1.157.771 2.571 1.67 3.343-2.57.514-6.94.9-8.992.514 1.157 1.157 3.337 2.185 4.623 2.056-2.695 0-4.108.515-6.23.322z" fill="#00d860"/>
    <path d="M378.365 470.048c2.057.064 6.299-.193 8.227-2.057-.772-.836-2.764-.514-3.342-1.093 1.35-.45 2.892-1.414 3.47-2.12 5.394-.446 10.214-.189 12.522-.896 2.314-.707 8.226-.321 9.383-.643-5.141.831-6.17 1.281-6.427 2.117s1.671 1.542 2.893 1.542c-2.314-.128-5.206 2.314-5.463 3.278-3.08-1.8-4.558.321-4.88 1.028-1.285-.514-5.526-.385-7.712 1.479-2.822-.836-4.686-1.286-7.514-.836 1.735-.385 1.414-1.542-1.157-1.8zm24.669-15.031c1.735-.064 5.522.129 6.872-.064-.9.45-2.052 1.286-2.31 1.671 4.366-.514 10.338-.835 12.073-.578-2.116-.322-4.3 1.028-5.393 1.735s-.45 1.157 1.028 1.35 3.47 1.35.771.964-8.028-.386-9.314-.193-1.992-.45-.128-.707 3.144-.9 4.044-1.414c-1.543.386-4.494.386-5.394.129s-1.478-.772-.45-1.029.322-.642-.77-.514-3.857 1.286-5.4 2.764c1.672-1.735 3.15-3.278 4.371-4.114z" fill="#00d860"/>
    <path d="M383.457 457.934c2.121 2.379 4.623 3.728 8.607 3.857.836.025 2.393 1.147.386 1.221-5.399.193-8.093-1.093-10.47-4.563-.49-.712.414-1.706 1.477-.515zm32.183-44.941c2.838 1.34 8.543 2.506 12.977 2.313.771-.034 2.324.791.38.965-5.007.45-9.506-.253-13.678-2.571-1.157-.643-.771-1.222.321-.707z"/>
    <path d="M418.507 412.943c4.366-.128 7.643-.064 8.993 1.221 2.501-.77 7-1.22 8.028-1.028s2.185-.257-.193-.836c-2.377-.573-7.9-.766-9.635-.445-1.735.317-7.133.51-8.928.317.771.128 1.28.257 1.735.771zm16.957 1.731c2.057-1.093 7.964-.065 9.764-.836-1.286 1.543 4.113 1.671 8.8.45-1.8 1.157-5.651 1.35-7.322 2.057s-2.57.193-3.856-.386-4.558-1.735-7.386-1.285z" fill="#00d860"/>
    <path d="M454.052 414.278c-4.687 1.221-10.085 1.093-8.8-.45-1.8.771-7.707-.257-9.763.836 2.12-1.286 3.727-.257 5.265-2.893.964.198 3.213.327 3.984-.702 1.35.322 3.728.9 4.435 1.602.707.707 1.794-.193.894-1.28 2.121-.772.777.914 5.72-.322 1.028-.257 3.535-.707 4.37-.77-1.67 1.349-3.663 2.822-6.105 3.98z" fill="#00d860"/>
    <path d="M373.36 664.19c-.017-1.966-.207-18.422-.207-22.226 0-.91-.468-.728-.468 0v22.122c.215.039.505.078.675.104zm7.23-23.42l.812 23.461-.142.188-.471.007-.513-23.656h.314zm6.84 19.81c-.066-2.389-.366-13.448-.482-18.9-.015-.727-.448-.6-.441.026.047 4.391.308 16.672.356 18.887.17 0 .463-.017.567-.013z" transform="matrix(4.9436 0 0 4.9441 -1482.9 -2891.1)" stroke-width=".125" stroke="#000" fill="#ff0"/>
    <path fill="#fff" d="M376.6 644.67l-6.913-.104c-.389 1.403 1.352 1.377 2.002 1.013.753.572 1.325.52 1.741.052.598.494 1.351.364 1.663.052.832.624 1.689 0 1.507-1.013zm.52 3.48l-7.069-.026c-1.221 1.169.364 1.741 1.716.935.182.39 1.013.624 1.663.312.598.468 1.351.13 1.741-.26.728.338 1.585.442 1.949-.961zm-.2 4.42l-6.809-.052c-.13 1.221 1.248 1.065 1.793.754.52.805 1.664.623 2.106.155.649.442 1.247.338 1.585-.078.754.65 1.377-.181 1.325-.779zm.34 4.42l-7.614-.13c-.416 1.299.753 1.533 1.299 1.221.182.754 1.195.494 1.455-.052.39.39.884.182 1.118-.078.104.702.987.728 1.663.13 1.377.962 2.677-.156 2.079-1.091zm6.75-1.82l-6.341-.052c.286 1.299.909 1.637 1.923.883.754.78 2.001.494 2.313.104 1.377 1.118 2.131-.182 2.105-.935zm-.65-4.34l-6.133-.182c.104 1.559 1.585 1.507 2.339.831.572.728 1.585.52 1.949 0 .78.78 2.053.312 1.845-.649zm.81-4.89h-6.601c.078 1.091 1.533 1.715 2.651.676.311 1.247 1.507.857 2.027.363.753.962 2.494-.129 1.923-1.039zm-.39-3.32l-5.899.078c-.104.961 1.299 1.377 1.819.597.286.494 1.273.442 1.559-.026.468.728 1.04.234 1.221 0 .676.494 1.404.26 1.3-.649zm6.91 2.15l-7.225-.078c-.026.753.754 1.065 1.221.753 0 .728 1.014.962 1.664.39.442.624 1.741.806 2.261-.052 1.065.884 2.209.26 2.079-1.013zm-.1 5.93l-7.069-.026c.052.987 1.195 1.325 1.845.805.156.832 1.04.884 1.559.468.624.702 1.664.754 2.235-.026.858.312 1.508-.416 1.43-1.221zm-.37 5.33l-5.588-.078c0 .988 1.17 1.118 1.69.598.545.65 1.377.65 1.845.13.753.65 1.897.468 2.053-.65z" transform="matrix(4.9436 0 0 4.9441 -1482.9 -2891.1)" stroke-width=".125" stroke="#000"/>
    <path d="M381.26 664.42c-3.014.052-6.081.052-8.16-.26s-2.734-.604-4.158-1.455c-2.131-1.273-2.651-1.585-5.665-3.352-.462-.271-.963.065-.312.493 3.04 2.001 4.192 2.743 5.639 3.691 1.507.987 2.479 1.864 3.404 2.91 1.196 1.352 2.079 1.378 2.625 1.17s1.404-.494 2.261-.286c.858.208 2.001.234 2.599.13.546.494 1.793.39 2.495.234.701-.156 1.221-.234 1.715-.13s1.247.026 1.741-.052 1.793-.208 2.703-.078c.909.13 1.845.052 2.443-.13.597-.182 1.689-.13 2.053-.026.519-.39.779-.884.909-1.403.611-.078.814-.154.949-.507.247-.65.48-1.287.559-1.572h.246l.078-.585-.506-.585.182-1.117.545-.13c.026-.338-.13-.858-.234-1.066-3.274.13-6.484.234-8.783.286-.26.208-.546.754-.598 1.092-1.403.233-2.235.337-2.599.415s-.567.107-.857.494c-.468.624-.91 1.351-1.274 1.819z" transform="matrix(4.9436 0 0 4.9441 -1482.9 -2891.1)" stroke-width=".125" stroke="#000"/>
    <path d="M391.78 660.45c.159-.551.584-2.035 1.354-4.84.129-.468-.325-.653-.493-.052-.916 3.275-1.262 4.503-1.378 4.912.176-.003.428-.022.517-.02z" transform="matrix(4.9436 0 0 4.9441 -1482.9 -2891.1)" stroke-width=".125" stroke="#000"/>
    <path d="M396.85 654.96c-1.105.571-1.638.792-2.144.597-.466-.179-1.151-.28-1.552-.083a.523.523 0 0 1-.021.135 493.286 493.286 0 0 1-1.048 3.768c.818.289 2.227.328 2.556-.025.337-.364 1.26-.286 1.728-.26.299-.39.416-.871.338-1.105s-.052-.649.065-.974.273-1.378.078-2.053z" transform="matrix(4.9436 0 0 4.9441 -1482.9 -2891.1)" stroke-width=".125" stroke="#000" fill="#fff"/>
    <path d="M371.69 645.58c-1.222 3.534-5.458 11.461-8.014 14.014m1.964 1.156c2.901-2.244 10.236-9.528 11.483-12.594m-7.013 4.364c-.337 2.677-1.11 7.452-1.526 9.973m2.656-4.013c-.987.962-2.387 2.641-3.427 3.551m12.727-8.891c-.831.805-1.78 1.744-2.611 1.978m3.091-1.848c.731.779 1.77 1.659 2.628 1.893m-3.198-6.203c-.753.649-1.871 1.413-2.884 1.699m3.314-1.549c.65.546 1.342 1.342 2.173 1.706m-5.333-4.876c.805-.234 2.004-.858 2.628-1.507m.362-.123c.705.805 2.056 1.455 2.732 1.637m-5.562-3.247c.831-.182 1.861-.624 2.407-1.404m.313-.216c.701.598 1.933 1.462 2.738 1.54m3.192.79c-.451.468-1.556 1.309-2.257 1.296m2.717-1.336c.325.52 1.144 1.316 1.612 1.381m-4.802 5.919c.909-.312 2.183-1.056 2.82-1.823m.5.063c.266.48 1.28 1.565 1.852 1.786m-4.092 5.254c.416-.09 1.547-.652 1.858-1.315m.522-.365c.429.533 1.481 1.507 2.131 1.741m-18.811.859c1.273-.403 3.846-1.965 5.12-3.447m-2.44 1.877c1.065.753 2.303 1.507 3.251 1.676m-6.171-4.456c.702-.299 1.624-.809 2.339-1.549m.541-.101c.286.402 2.388 1.686 3.284 1.699m-3.824-5.849c-.546.441-1.858 1.234-2.495 1.403m2.995-1.373c.728.506 2.167 1.4 3.154 1.4m-3.654-5.49c-.585.662-1.572 1.685-2.391 1.919m2.861-1.769c.455.728 1.673 1.712 2.466 1.842m8.054 2.528c1.822 3.359 5.201 7.465 8.618 9.622M378.2 643.46c2.767 3.976 8.199 12.695 13.367 15.914m.953-3.404a18.428 18.428 0 0 1-4.795 4.607m4.485-3.507c-1.741-2.78-2.641-6.295-3.943-10.924M374.15 658.51l2.144 5.899m-2.544-6.039l1.896 6.017m-2.306-6.297l1.76 6.262m-1.94-6.162l1.359 6.128m-.049-.218h1.699m-.219-.64h-1.602m1.422-.5h-1.546m1.366-.5h-1.475m1.275-.54h-1.404m-.096-.48h1.332m-1.432-.44h1.264m-1.374-.48h1.202m-1.292-.43h1.134m-1.234-.44h1.078m-1.168-.41h1.02m-1.12-.38h.991m-1.051-.32h.923m-2.593.01l-1.208 4.932m1.558-5.022l-1.037 5.21m1.317-5.4l-.839 5.549m1.199-5.659l-.609 5.803m.729-.333h-1.923m1.923-.53h-2.225m2.225-.55h-2.095m2.095-.52h-1.965m1.965-.53h-1.838m1.838-.59h-1.692m1.692-.51h-1.569m1.569-.52h-1.436m1.436-.5h-1.316m1.316-.44h-1.212m1.212-.35h-1.121m1.121 5.5v-5.88m6.47-1.94l-4.029 8.08m4.279-8.21l-3.43 8.254m3.68-8.344l-2.721 8.383m2.891-8.233l-2.116 8.238m.096-.378h-2.534m2.734-.74h-2.359m2.469-.6h-2.17m2.38-.65h-2.053m2.153-.52h-1.897m2.077-.6h-1.787m1.967-.7h-1.618m1.758-.53h-1.488m1.638-.61h-1.348m1.458-.41h-1.247m1.347-.39h-1.143m1.243-.4h-1.053m1.143-.35h-.968m1.058-.35h-.887m.987-.36h-.8m.88-.33h-.721m3.341-.12l1.763 5.58m-1.423-5.46l2.139 5.355M383 656.53l2.505 5.237m.605-.447l-2.763-4.888m2.763 4.878h-2.192m1.812-.66h-2.019m1.649-.66h-1.851m1.471-.67h-1.688m1.318-.66h-1.529m1.149-.66h-1.36m.99-.66h-1.194m.814-.67h-1.032m3.292.16l-1.725 5.173m2.245-5.403l-1.6 5.303m.74-.123l1.174-4.992m.306.172l-.988 4.75m-1.672-.3h1.731m-1.511-.65h1.65m-1.44-.64h1.572m-1.362-.64h1.491m-1.271-.65h1.41m-1.19-.64h1.329m-1.119-.64h1.248m-1.038-.65h1.027m.923.11l.846 3.547m-.536-3.717l1.169 3.697m-.769-3.707l1.275 3.702m-.755-3.502l1.277 3.477m-.117-.307h-1.638m1.448-.52h-1.556m1.366-.52h-1.491m1.301-.52h-1.43m1.23-.52h-1.358m1.168-.52h-1.284m1.094-.52h-1.218" transform="matrix(4.9436 0 0 4.9441 -1482.9 -2891.1)" stroke-width=".125" stroke="#000" fill="none"/>
    <path d="M357.948 402.956c3.985-2.566 10.792-2.052 14.263.514 4.113-2.309 11.563-1.67 15.033 1.414 5.265-3.594 9.764-4.108 14.9-.642 3.985-2.824 10.15-3.08 14.905.257 4.622-2.186 9.764-3.98 14.257.77-2.694-1.927-8.478-3.598-14.257.9-4.499-4.498-12.334-2.827-14.905.258-3.342-3.985-10.406-4.628-14.648.257-4.622-3.856-11.558-3.985-15.285-1.028-2.957-2.314-7.322-4.238-14.263-2.7z" fill="#00b800"/>
    <path d="M428.147 397.468c-20.427 3.53-64.944 1.028-74.707-1.414-3.357-.84-2.442-2.057.385-1.414 11.252 2.556 35.263 2.571 48.497 1.928 2.57-3.406 6.615-9.186 7.836-10.793s1.76-1.755 4.306-2.185c4.558-.771 7.163-1.187 11.113-1.864.064.514.064 1.157.064 1.543-.321.257-.643.707-.9.835 0 2.635.514 9.058 1.029 11.372.514-.065 1.156-.257 1.478-.322.9-.257 1.794 2.057.9 2.314z" fill="#cf6200"/>
    <path d="M461.616 398.457c.736-.02 2.274-.054 2.699-.064.835-.02 2.007-.594 2.521-1.88s2.106-6.036 2.684-8.028l-2.056-3.1c.45-2.556 1.028-6.022 1.092-6.73 1.029-.385 2.116-.77 2.63-.963.129-.579-.123-2.151-.642-2.665-8.8.336-35.134 1.25-39.954 1.315-1.157 0-1.676-.05-2.116 1.607-2.442 9.122.934 21.922 10.149 29.294.643.514 1.453.084.38-.9-1.537-1.414-3.915-4.307-5.521-7.164 1.8-.03 5.447-.09 6.54-.134.524 2.16 2.165 6.72 2.487 7.49s1.112.88.736-.271c-.885-2.7-1.35-5.775-1.735-7.253 1.67-.04 4.82-.01 6.748-.119.094 2.442.351 5.715.415 6.615s.836.964.85-.064c.02-1.028.04-5.374.025-6.655 2.175-.06 4.954-.153 5.982-.153-.143 1.39-.41 5.883-.51 6.595-.147 1.049.401 1.543.658.065s.772-4.935.915-6.685c.87-.025 3.159-.118 4.123-.143-.094 1.37-1.38 5.532-1.765 6.625s.237 1.127.672.094c.455-1.058 1.864-5.236 1.993-6.73z" fill="#cf6200"/>
    <path d="M432.448 397.419c-.707-1.414-2.892-6.442-3.084-10.101 1.863-.035 6.525-.124 8.774-.173.332 2.759 1.182 8.701 1.632 10.11-2.63.065-5.843.149-7.322.164zm7.218-10.333c.242 2.106 1.345 9.339 1.523 10.174 1.908-.113 6.327-.128 7.094-.192-.08-1.929-.39-9.162-.425-10.19-1.998.054-7.188.183-8.192.208zm-9.936-8.949c-.357 1.849-.42 5.8-.322 7.485 2.25.045 7.786-.089 8.552-.153-.187-1.919-.489-5.39-.682-7.555-1.834.08-6.328.188-7.549.223zm9.194-.247c.065 1.8.465 6.2.594 7.544 1.943-.054 6.698-.153 8.305-.207-.084-1.647-.346-6.952-.376-7.595-2.58.07-6.886.233-8.523.257zm10.184-.297c.08 1.67.292 6.388.228 7.609 2.061-.055 6.001-.094 7.222-.193.094-1.676.366-6.467.238-7.688-2.314.089-6.002.213-7.688.272zm9.097-.346c0 1.414-.178 6.383-.243 7.732 2.042-.079 6.68-.242 7.885-.272.322-1.656.964-5.957 1.157-7.772-1.928.065-7.39.272-8.8.312zm7.959 9.146c-2.635.084-6.872.198-8.306.252-.222 3.254-.627 8.875-.82 10.16 2.318-.049 7.005-.197 8.033-.227.771-1.542 2.442-6.358 2.828-7.836-.578-.9-1.028-1.414-1.735-2.349zm-16.759.445c0 1.157.203 9.439.252 10.146 1.508-.05 5.423-.104 6.002-.169.291-3.223.731-9.398.81-10.17-2.67.075-5.29.154-7.064.193zm-34.111-1.978l-3.347.594c-1.542 2.492-7.257 10.2-7.964 11.1 3.98-.114 10.204-.233 11.702-.376-.11-2.067-.386-10.294-.39-11.317zm1.483-.296c.08 2.635.331 9.656.396 11.52 1.972-.114 5.606-.351 7.084-.48-.341-3.312-.964-11.223-1.093-12.187-1.656.302-4.909.875-6.387 1.147z"/>
    <path d="M377.29 656.93c.091.001.103.079-.001.078l-7.678-.095c-.104-.001-.09-.079.001-.078l7.678.095zm6.04-6.15c.091.003.102.081-.002.078l-6.083-.167c-.104-.003-.089-.081.002-.078l6.083.167zm-6.42 1.76c.091.001.103.079-.001.078l-6.808-.05c-.104 0-.09-.078 0-.078l6.809.05zm.2-4.42c.091 0 .104.078 0 .078l-7.121-.037c-.104 0-.09-.078.001-.077l7.12.036zm-.49-3.49c.091.001.102.08-.001.078l-6.919-.104c-.104-.002-.09-.08.001-.078l6.919.104z" transform="matrix(4.9436 0 0 4.9441 -1482.9 -2891.1)" stroke-width=".125" stroke="#000"/>
    <path fill="#fff" d="M383.78 642.59c.091-.001.105.077.001.078l-5.938.057c-.104.001-.092-.077-.001-.078l5.938-.057z" transform="matrix(4.9436 0 0 4.9441 -1482.9 -2891.1)" stroke-width=".125" stroke="#000"/>
    <path d="M384.15 645.91c.091 0 .104.078 0 .078h-6.562c-.104 0-.091-.078 0-.078h6.562zm6.44 4.73c.091 0 .104.078 0 .078h-7.072c-.104 0-.091-.078 0-.078h7.072zm.1-5.91c.091.001.103.079-.001.078l-7.225-.071c-.104-.001-.09-.079.001-.078l7.225.071zm-6.68 10.39c.091.001.103.079-.001.078l-6.356-.042c-.104-.001-.09-.079.001-.078l6.356.042zm6.21.86c.091.001.103.079-.001.078l-5.587-.074c-.104-.001-.089-.079.002-.078l5.586.074z" transform="matrix(4.9436 0 0 4.9441 -1482.9 -2891.1)" stroke-width=".125" stroke="#000"/>
    <path d="M395.26 657.05c.157-.349.179-1.151.089-1.455a1.106 1.106 0 0 1-.647-.04 2.973 2.973 0 0 0-.341-.106c-.022.402-.168 1.426-.348 1.822-.314.089-.947-.015-1.307-.128l-.262.942a3.45 3.45 0 0 0 1.452-.009c-.035.601-.114 1.148-.439 1.526.531.012 1.006-.066 1.18-.252a.403.403 0 0 1 .053-.048c.245-.41.252-.944.311-1.304.181.013.415-.039.519-.143s.273-.156.442-.143c.154.012.394-.02.699-.143.008-.184.044-.384.107-.558.034-.095.071-.253.102-.444-.387.185-1.25.494-1.61.483z" transform="matrix(4.9436 0 0 4.9441 -1482.9 -2891.1)" stroke-width=".125" stroke="#000" fill="#ef072d"/>
    <path d="M370.46 623.2c-.791.023-2.513.039-2.875.242-.361.204-.52.294.113.407s1.704.414 2.291.776c.587.361 1.079 1.001.917 1.914-.485 2.743.949 5.381 3.027 6.376.201.096.249.169.204.542s-.181.995-.294 1.153c-.113.159-.169.419.192.294-.248.464-.802 1.391-.971 1.628-1.661-.203-3.016.023-3.141 1.763-.012.17.046.441.305.012.26-.43.554-.837 1.265-.95-.418.644-.553 1.221-.485 1.594.067.373.169.599.35.124.181-.474.514-.918.87-1.187.135-.101.226-.124.124.17s.045.927.249 1.142c.203.214.305.124.248-.226-.056-.351.032-1.084.463-1.312.621-.327 1.152-.158 1.401.272.248.429.463.022.192-.464s-.554-.825-1.006-.859c.396-.701.859-1.549.961-1.718.101-.17.26-.249.395-.147.136.102.226.09.362-.192.135-.283.372-1.119.711-1.458.17-.046.441-.113.542-.204.441.644.836 1.357.938 1.515.101.158.215.226.113.554s-.452 1.368-.508 1.594c-1.232.045-1.796.067-2.192.757-.173.301.102.418.396.26.293-.158.711-.294.926-.26.214.034.315.144.101.249-.756.373-1.229.847-1.197 1.503.011.237.109.355.294.034.26-.452.734-.904 1.31-1.029-.034.554.091 1.368.429 1.538.339.169.363-.003.237-.328-.203-.52.008-1.043.26-1.323.531-.588 1.74.226 1.966.43.226.203.432.288.305-.238-.17-.7-1.164-1.107-2.011-1.22.237-1.142.87-3.448 1.209-4.239.497.271.885-.444 1.717-.136 1.4.52 3.501 1.831 3.863 2.125.361.294.497.226.678.068.18-.158.497 0 .745.045.249.045.475.113.158-.52-.316-.633-1.084-1.741-2.372-2.6.768.068 1.808.068 1.808-.135 0-.204-1.198-.588-1.695-.633.475-.113 1.198-.385 1.536-.769.201-.227-.04-.28-.745-.294-2.169-.045-3.253-.028-4.383-.678-1.807-1.04-2.841-2.135-3.728-2.6-.474-.249-.763-.823-.946-1.319-.587-1.583-.558-2.295-1.936-2.815s-2.963.117-3.686.772z" transform="matrix(4.9436 0 0 4.9441 -1482.9 -2891.1)" stroke-width=".125" stroke="#000"/>
    <path d="M370.55 623.56c-.351-.013-1.04-.096-1.611-.039-.13.013-.286.078.026.117s1.156.246 1.455.35.169.26-.091.195-.356.031-.143.182c1.105.78 1.222 1.079.936 3.755.208.143.377.247.559.338s.13.221-.065.169-.377.065-.065.13.454.208.156.195c-.299-.013-.65.247-.065.182.584-.065.818.208.13.221-.689.013-.429.234-.065.234.649 0 .454.182.286.182-.169 0-.247.221.182.182.428-.039.597-.052.753-.026s.221.155-.013.169c-.234.012-.221.181.13.181s.497.106.182.169c-.13.026-.31.091.065.143.65.091.676.247.468.273s-.234.143.065.169c.298.026.558.117.312.182-.247.065-.377.208-.066.234.312.026.572.143.338.221s-.286.221.013.208.416.156.208.272c-.208.117-.351.195-.481-.012-.129-.208-.207-.273-.246-.117-.039.155-.13.052-.234-.182s-.286-.299-.234-.117-.182.208-.403.117c.819.831 2.027 1.585 3.95.805.164-.066.195 0 .325.273s.494.871.624 1.092.233.022.298-.195c.26-.858.455-1.495.533-1.728.078-.234.442-.468.325.35.286-.195 1.553-.379 2.534-.013 1.078.403 2.162 1.028 2.716 1.443a.624.624 0 0 0 .493.143c.26-.026.325-.065-.169-.52-.493-.455-.285-.676.026-.455.312.221.481.091.247-.182s-.792-.805-.974-.935-.208-.182-.624-.208-1.299-.026-1.559-.026-.338.026.234.234c.571.207 1.741.961 2.001 1.143s.442.598-.13.234-2.365-1.481-3.56-1.897c-2.729.182-4.886.546-6.497-1.221-.772-.846-.806-2.781.493-3.587-.26-.221-.221-.351-.117-.403s.143-.104.039-.234c-.103-.13-.091-.246 0-.298-.285-.156-.415-.338-.402-.533-.351-.078-.507-.494-.975-.364s-.702.026-.844-.091c-.144-.117-.26-.169-.52-.143s-.468-.078-.481-.208.22-.193.572-.039c.74.325 1.338.481 1.793-.13.455-.61-.13-1.182-1.001-1.351-.87-.169-1.507.468-1.832.767z" transform="matrix(4.9436 0 0 4.9441 -1482.9 -2891.1)" stroke-width=".125" stroke="#000" fill="#fff"/>
    <path d="M374.92 623.33c-.262-.284-.728-.546-.961-.624-.234-.078-.26.156-.13.273-.104.156-.143.533.039.637s.184.252.013.337c-.26.13-.172.82.22.624.13-.065.234-.039.208.065s.026.234.143.26.104.195.078.26.013.091.143.104.143.325-.091.429c.286 0 .364-.052.442.182.078.233.39.285.39.571s-.052.338-.39.286-.468.052-.572.182-.13.26.13.273.312.13.052.247-.688.039-.753.286c-.065.246 0 .363.194.272.195-.09.598-.259.754-.35s.299-.104.429.104.026.441-.195.26c-.221-.182-.325-.014-.455.09s-.325.169-.533.169c-.207 0-.35.027-.324.494.078 1.404 1.169 2.443 3.17 2.417s2.989-.052 3.288-.013c-.663-.364-1.079-.559-1.313-.533s-.429.065-.325-.117-.013-.182-.117-.26-.233-.182-.441.039-.702.468-.949.52-.546.039-.312-.195.754-.312.91-.416.156-.168.156-.246-.039-.299.26-.13c.597.338 1.533.844 1.78.831s.416-.117.195-.26-.286-.35-.221-.428.104-.156.494.065c.389.22 1.026.506 1.26.61s.546.065.065-.286c-.481-.35-1.975-1.338-2.391-1.65s-.234.065-.195.182-.286.26-.455.117-.286-.299-.052-.429.286-.143-.065-.455c-.35-.311-.454-.285-.376-.026.078.26.104.546-.26.403s-.546-.312-.312-.455c.234-.142.533-.22.143-.545s-.273 0-.364.182-.39.182-.559.039-.247-.286-.13-.403.104-.182.273-.091.429.039.117-.234-.429-.156-.364 0-.182.429-.571.065c-.185-.172-.182-.403.013-.442.194-.039.213-.14.077-.338-.792-1.156-.467-2.092-1.26-2.949z" transform="matrix(4.9436 0 0 4.9441 -1482.9 -2891.1)" stroke-width=".125" stroke="#000" fill="#fff"/>
    <path d="M371.197 191.497c-.336.504-.46.484-1.082.9-.767.509-.94 1.967.346 1.794.89-.118 1.409-.647 1.76-1.077a11.137 11.137 0 0 0-1.024-1.617zm-4.004-3.214c-.989.96-1.162 1.39-.658 1.39.599 0 .341.084-.089.77-.425.688.86 1.03 1.375.515s.598-.687.855 0c.208.559 1.053.03 1.587-.51-.875-.845-2.052-1.626-3.07-2.165zm-1.78 5.537c-1.285.643-.85 4.055 1.088 3.086.642-.322 1.157-.193 1.028.321-.07.272-.025.584.119.83a5.956 5.956 0 0 0 2.13-1.537c1.202-1.37.084-1.285-1.71-1.285-1.8 0-2.314-.341-.603-1.37 1.532-.92.534-1.557-1.587-1.26.306.434.153.91-.465 1.216zm7.367 7.565c-.945-1.028-.347-1.542.681-2.057.252-.123.425-.281.55-.47-.293-1.132-.525-2.22-.831-3.277-.54.153-1.167 1.354-1.345 1.948-.257.855-.514 1.37-1.37 1.112-.76-.227-1.522.628-1.68 1.543.118.05.301.084.543.108.356.035.534.52.426 1.034 2.318-.074 2.714 1.528 3.11 2.625.43 1.202.943 1.028 1.285.346.34-.687-.43-1.884-1.37-2.912z" fill="#cf6200"/>
    <path d="M373.422 214.833c-.42.95-.43.855-1.8.94-1.369.088-3.094.32-3.85 1.117-.411.425-2.779.539-2.784 1.582-.01 1.048 0 1.928 1.028 1.992 1.024.065 1.152.193.771.964-.39.772-.642 2.057 1.152 2.186 1.8.128 3.085-.45 3.535.573.45 1.029-.035 2.67.321 3.278s1.572.999 3.456 1.582c1.256.39 5.997.613 7.455.445 1.453-.173.91-1.043-.549-1.171-1.453-.129-2.526-.342-2.867-1.41-.341-1.072-.643-1.631.173-2.526.81-.9 1.626-1.587 1.157-3.085-.475-1.498-1.246-3.258-2.957-3.728-1.715-.47-1.171-2.813-2.872-3.04-.642-.085-1.196-.085-1.37.301z" fill="#ff0"/>
    <path d="M365.117 228.775c1.473.129 2.758.579 1.542.9-1.221.322-1.864 1.029-.326 1.157 1.542.129 2.827.707 1.67 1.093s-1.413 1.092.065 1.028 2.056.771 1.028 1.345c-1.028.578-1.735.964-2.378-.06-.637-1.028-1.023-1.35-1.216-.578-.193.767-.643.257-1.157-.9s-1.414-1.478-1.156-.578-.9 1.028-1.993.578c1.078 1.093 2.29 2.156 3.668 3.056 1.577-.54 3.318-.1 3.91-.04.643.065 2.636.514 3.728 1.093s1.8-.45 1.35-1.607c-.45-1.152-.514-.766-1.093-.128-.578.642-.707-.258-.642-1.602.054-1.137-.707-.836-.964-.129s-.836-.45-.514-1.157-.065-.964-.643-.771-.643 0-.707-1.286-.643-1.092-.836-.578-.706-.193-1.478-1.221c-.672-.9-1.448-.371-2.793.163.168.099.475.183.935.222z" fill="#cf6200"/>
    <path d="M380.738 236.735c-7.02 2.848-12.082 1.583-15.893-.944 1.577-.539 3.351-.079 3.945-.02.642.065 2.635.515 3.727 1.093s1.8-.45 1.35-1.607c.964 1.221 1.67 2.057 2.823 1.993 1.156-.065 3.084-.257 4.048-.515zm-14.978-32.334c-.43-1.454-.856-1.8-1.627-1.71-.771.083-1.113-.09-1.973-.43-.855-.342-1.967.083-2.14 1.626s-1.113 2.314-2.398 3.253c-1.285.944-2.056 1.716-2.056 3.258s-.342 1.968-1.197 3.085c-.38.495-.92 1.058-1.424 1.652.554.346 1.073.647 1.617.914.9.45.643 1.093-.321.836s-1.864.321-.322.643 2.245 1.028.771.964c-1.478-.065-3.213 1.22-.32.9 2.886-.322 4.043 1.028.642 1.092-3.406.064-2.121 1.157-.322 1.157 3.209 0 2.245.9 1.414.9-.835 0-1.22 1.093.9.9.03-.005.054-.01.09-.01.306-.317.533-.712.701-1.211.341-1.029.682-4.03 1.884-4.885 1.196-.856 1.8-2.057 1.8-2.912s1.794-4.623 2.995-5.567 1.715-2.996 1.285-4.455z" fill="#ff0"/>
    <path d="M363.238 204.45c-1.216-.81-2.398-.34-2.398 1.202s-.77 1.968-1.8 2.482c-1.022.514-1.967 1.8-2.14 3-.168 1.197.173 1.969-.682 2.913-.86.94-.944 1.71-.341 2.225.598.514.598.603.855 1.37.257.77 1.71-.085 1.71-.94s.347-.855 1.286-1.37c.944-.514 2.487-3 2.14-3.683-.34-.687-1.196-1.285-.083-2.23 1.112-.94 2.313-1.028 2.313-1.967 0-.945.341-1.286.682-1.627.346-.346-.77-.86-1.542-1.375z" fill="#cf6200"/>
    <path d="M363.238 203.214c-.8-.311-1.28 1.37-.168 1.627s1.285-1.201.168-1.627zm-.198 2.176c-.85.104-1.8 1.221-.385 1.028s1.992-1.221.385-1.028zm-1.68 2.076c-.876.44-.708 1.607.578.772s1.606-1.864-.579-.772zm-1.385 1.78c-.88.435-.707 1.602.579.772 1.285-.836 1.606-1.864-.579-.772z"/>
    <path d="M358.196 210.087c-.876.44-.322 1.607.964.771s1.22-1.864-.964-.771zm1.087 1.087c-.875.44-.321 1.607.964.772s1.221-1.864-.964-.772z"/>
    <path d="M357.75 211.62c-.874.44-.32 1.606.965.77s1.22-1.863-.964-.77zm.99 1.235c-.88.44-.322 1.607.958.772 1.286-.836 1.221-1.864-.959-.772z"/>
    <path d="M357.256 213.597c-.875.435-.321 1.602.964.766s1.221-1.859-.964-.766z"/>
    <path d="M357.355 214.734c-.875.44-.321 1.607.964.771s1.221-1.863-.964-.77z"/>
    <path d="M356.663 225.562c-.885.113-1.453 1.374-.341 1.631s1.37.341 1.37 1.197.345 2.057 1.542 2.14c1.201.09 2.23-1.285 1.201-1.71-1.028-.43-1.973-.771-2.057-1.716-.084-.94-1.028-1.626-1.715-1.542z" fill="#cf6200"/>
    <path d="M388.203 218.195c.158.198.356.415.584.608.835.707 2.442 0 2.249-.578s-1.093-2.443.964-.9 9.442 6.427 11.82 8.158c2.378 1.735.835 1.928-.321 1.414s-4.306-1.929-6.23-3.016c-1.927-1.093-2.12-.707-2.441-.322-.272.322-.055 1.098.652 1.756-1.147.168-3.01-.084-3.544-1.306-.643-1.478-2.185-3.278-3.278-4.692-.405-.524-.524-.85-.455-1.122z" fill="#ff0"/>
    <path d="M451.926 428.665c-1.602 1.093-3.722 3.021-2.313 5.716.168-.09.326-.193.489-.287 6.283-7.604 11.662-15.599 16.27-23.905.054-.286.103-.558.138-.796-1.8 1.543-4.627 3.08-5.784 3.466.771 2.057-2.823 4.756-4.751 5.528.771 1.285.514 3.213-1.157 3.599.386 1.152-.9 1.152-2.442 1.795s-2.314 1.157-2.823 1.928c.83-.45 1.988-.836 2.63-.643s.771 1.157-.385 1.414-1.923.9-2.314 1.414c1.671-.643 4.049-.321 2.442.771z" fill="#00d860"/>
    <path d="M375.97 628.41c-.384-.335-.481-.13-.325.078s.039.312-.299.364-.845.117-1.053.117-.454.286.039.26c.494-.026 1.326-.195 1.547-.286s.402-.26.091-.533zm.75.59c-.317-.285-.429-.208-.351 0s-.065.247-.272.312c-.208.065-1.027.338-1.378.377s-.429.286.091.273 1.52-.429 1.637-.507.156-.234.286-.156.247-.065-.013-.299zm.24.83c-.23.137-.805.389-1.039.454s-.429.325.065.286c.493-.039 1.078-.494 1.234-.584.156-.091.234-.156.364-.143s.364-.169-.065-.403-.689-.117-.481.065.052.247-.078.325z" transform="matrix(4.9436 0 0 4.9441 -1482.9 -2891.1)" stroke-width=".125" stroke="#000"/>
    <path d="M360.618 190.508c-3.14-2.062-6.723 2.26-3.253 4.628 3.04 2.076 6.254-2.655 3.253-4.628z"/>
    <path d="M356.712 192.387l.93.064c-.193.96.771 2.408 2.25 2.052-1.187.9-3.5-.129-3.18-2.116zm12.162 46.82c.949.277 4.246.614 5.363.668-.558 1.177-1.062 1.958-1.399 2.798-.336.836-.499.895-.558-.39-.055-1.29-.781-2.126-1.449-.786-.672 1.344-1.008 1.844-1.34 2.402-.336.56-.84.787-.672-.613s.114-2.852.055-4.079z" fill="#fff"/>
    <path d="M399.67 640.77c-.046 16.332-2.623 33.927-23.764 42.308-21.142-8.381-23.719-25.976-23.765-42.308h47.529zm0 0c.018-6.152-.324-12.125-.168-17.359-7.9-3.535-18.295-4.262-23.596-4.262-5.302 0-15.697.727-23.597 4.262.156 5.234-.185 11.207-.168 17.359h47.529z" transform="matrix(4.9436 0 0 4.9441 -1482.9 -2891.1)" stroke="#000" stroke-width=".25" fill="none"/>
  </g>
</svg>
