<svg xmlns="http://www.w3.org/2000/svg" height="512" width="512" id="flag-icon-css-tg">
  <defs>
    <clipPath id="a">
      <path fill-opacity=".67" d="M0-.241h496.3v496.3H0z"/>
    </clipPath>
  </defs>
  <g clip-path="url(#a)" fill-rule="evenodd" transform="translate(0 .248) scale(1.0316)">
    <path fill="#ffe300" d="M0-.241h744.09v496.3H0z"/>
    <path fill="#118600" d="M0 201.52h744.09v99.66H0zM0 0h744.09v99.66H0z"/>
    <path fill="#d80000" d="M0 0h297.12v301.18H0z"/>
    <path d="M130.3 124.25c0-.83 18.259-51.456 18.259-51.456l16.599 50.626s55.606 1.66 55.606.83-43.987 33.198-43.987 33.198 20.748 58.096 19.919 56.436c-.83-1.66-48.137-34.858-48.137-34.858s-48.136 33.198-47.306 33.198 18.258-54.776 18.258-54.776l-43.156-32.37 53.946-.83z" fill="#fff"/>
    <path fill="#118600" d="M0 396.4h744.09v99.66H0z"/>
  </g>
</svg>
