<svg xmlns="http://www.w3.org/2000/svg" height="512" width="512" id="flag-icon-css-tn">
  <defs>
    <clipPath id="a">
      <path fill-opacity=".67" d="M124.02 0h496.06v496.06H124.02z"/>
    </clipPath>
  </defs>
  <g fill-rule="evenodd" clip-path="url(#a)" transform="translate(-128) scale(1.0321)">
    <path fill="#e70013" d="M0 0h744.09v496.06H0z"/>
    <path d="M497.81 247.81c0 69.096-56.014 125.109-125.11 125.109s-125.108-56.014-125.108-125.11S303.605 122.7 372.7 122.7s125.11 56.014 125.11 125.11z" fill="#fff"/>
    <path d="M372.705 330.782c-45.799 0-82.969-37.17-82.969-82.969 0-45.8 37.17-82.97 82.969-82.97 11.45 0 24.483 2.634 33.336 9.136-60.681 2.284-76.029 53.75-76.029 74.492s9.813 67.001 76.028 73.833c-7.535 4.857-21.885 8.478-33.335 8.478z" fill="#e70013"/>
    <path fill="#e70013" d="M445.8 282.71l-37.68-13.74-24.92 31.41 1.43-40.07-37.58-14 38.56-11.02 1.69-40.07 22.4 33.27 38.63-10.77-24.71 31.58z"/>
  </g>
</svg>
