<svg xmlns="http://www.w3.org/2000/svg" height="512" width="512" id="flag-icon-css-us">
  <g fill-rule="evenodd">
    <g stroke-width="1pt">
      <path d="M0 0h247v10H0zm0 20h247v10H0zm0 20h247v10H0zm0 20h247v10H0zm0 20h247v10H0zm0 20h247v10H0zm0 20h247v10H0z" fill="#bd3d44" transform="scale(3.9385)"/>
      <path d="M0 10h247v10H0zm0 20h247v10H0zm0 20h247v10H0zm0 20h247v10H0zm0 20h247v10H0zm0 20h247v10H0z" fill="#fff" transform="scale(3.9385)"/>
    </g>
    <path fill="#192f5d" d="M0 0h98.8v70H0z" transform="scale(3.9385)"/>
    <g fill="#fff">
      <path d="M8.233 2.996l.9 2.767h2.908l-2.353 1.71.899 2.766-2.354-1.71-2.353 1.71.899-2.766-2.354-1.71h2.91zm16.467 0l.899 2.767h2.909l-2.353 1.71.898 2.766L24.7 8.53l-2.353 1.71.898-2.766-2.353-1.71h2.909zm16.467 0l.899 2.767h2.909l-2.353 1.71.899 2.766-2.354-1.71-2.353 1.71.899-2.766-2.354-1.71h2.91zm16.466 0l.899 2.767h2.909l-2.353 1.71.899 2.766-2.354-1.71-2.353 1.71.899-2.766-2.354-1.71h2.91zm16.467 0l.899 2.767h2.909l-2.354 1.71.9 2.766L74.1 8.53l-2.353 1.71.898-2.766-2.353-1.71h2.909zm16.467 0l.899 2.767h2.909l-2.354 1.71.9 2.766-2.354-1.71-2.353 1.71.898-2.766-2.353-1.71h2.909zm-74.1 7l.899 2.767h2.909l-2.353 1.71.898 2.766-2.353-1.71-2.353 1.71.898-2.766-2.353-1.71h2.909zm16.466 0l.899 2.767h2.909l-2.353 1.71.899 2.766-2.354-1.71-2.353 1.71.899-2.766-2.354-1.71h2.91zm16.467 0l.899 2.767h2.909l-2.353 1.71.899 2.766-2.354-1.71-2.353 1.71.899-2.766-2.354-1.71h2.91zm16.467 0l.899 2.767h2.909l-2.353 1.71.898 2.766-2.353-1.71-2.353 1.71.899-2.766-2.354-1.71h2.91zm16.466 0l.899 2.767h2.909l-2.354 1.71.9 2.766-2.354-1.71-2.353 1.71.898-2.766-2.353-1.71h2.909zm-74.1 7l.9 2.767h2.908l-2.353 1.71.899 2.766-2.354-1.71-2.353 1.71.899-2.766-2.354-1.71h2.91zm16.467 0l.899 2.767h2.909l-2.353 1.71.898 2.766-2.353-1.71-2.353 1.71.898-2.766-2.353-1.71h2.909zm16.467 0l.899 2.767h2.909l-2.353 1.71.899 2.766-2.354-1.71-2.353 1.71.899-2.766-2.354-1.71h2.91zm16.466 0l.899 2.767h2.909l-2.353 1.71.899 2.766-2.354-1.71-2.353 1.71.899-2.766-2.354-1.71h2.91zm16.467 0l.899 2.767h2.909l-2.354 1.71.9 2.766-2.354-1.71-2.353 1.71.898-2.766-2.353-1.71h2.909zm16.467 0l.899 2.767h2.909l-2.354 1.71.9 2.766-2.354-1.71-2.353 1.71.898-2.766-2.353-1.71h2.909zm-74.1 7l.899 2.767h2.909l-2.353 1.71.898 2.766-2.353-1.71-2.353 1.71.898-2.766-2.353-1.71h2.909zm16.466 0l.899 2.767h2.909l-2.353 1.71.899 2.766-2.354-1.71-2.353 1.71.899-2.766-2.354-1.71h2.91zm16.467 0l.899 2.767h2.909l-2.353 1.71.899 2.766-2.354-1.71-2.353 1.71.899-2.766-2.354-1.71h2.91zm16.467 0l.899 2.767h2.909l-2.353 1.71.898 2.766-2.353-1.71-2.353 1.71.899-2.766-2.354-1.71h2.91zm16.466 0l.899 2.767h2.909l-2.354 1.71.9 2.766-2.354-1.71-2.353 1.71.898-2.766-2.353-1.71h2.909zm-74.1 7l.9 2.767h2.908l-2.353 1.71.899 2.766-2.354-1.71-2.353 1.71.899-2.766-2.354-1.71h2.91zm16.467 0l.899 2.767h2.909l-2.353 1.71.898 2.766-2.353-1.71-2.353 1.71.898-2.766-2.353-1.71h2.909zm16.467 0l.899 2.767h2.909l-2.353 1.71.899 2.766-2.354-1.71-2.353 1.71.899-2.766-2.354-1.71h2.91zm16.466 0l.899 2.767h2.909l-2.353 1.71.899 2.766-2.354-1.71-2.353 1.71.899-2.766-2.354-1.71h2.91zm16.467 0l.899 2.767h2.909l-2.354 1.71.9 2.766-2.354-1.71-2.353 1.71.898-2.766-2.353-1.71h2.909zm16.467 0l.899 2.767h2.909l-2.354 1.71.9 2.766-2.354-1.71-2.353 1.71.898-2.766-2.353-1.71h2.909zm-74.1 7l.899 2.767h2.909l-2.353 1.71.898 2.766-2.353-1.71-2.353 1.71.898-2.766-2.353-1.71h2.909zm16.466 0l.899 2.767h2.909l-2.353 1.71.899 2.766-2.354-1.71-2.353 1.71.899-2.766-2.354-1.71h2.91zm16.467 0l.899 2.767h2.909l-2.353 1.71.899 2.766-2.354-1.71-2.353 1.71.899-2.766-2.354-1.71h2.91zm16.467 0l.899 2.767h2.909l-2.353 1.71.898 2.766-2.353-1.71-2.353 1.71.899-2.766-2.354-1.71h2.91zm16.466 0l.899 2.767h2.909l-2.354 1.71.9 2.766-2.354-1.71-2.353 1.71.898-2.766-2.353-1.71h2.909zM8.233 44.996l.9 2.767h2.908l-2.353 1.71.899 2.766-2.354-1.71-2.353 1.71.899-2.766-2.354-1.71h2.91zm16.467 0l.899 2.767h2.909l-2.353 1.71.898 2.766-2.353-1.71-2.353 1.71.898-2.766-2.353-1.71h2.909zm16.467 0l.899 2.767h2.909l-2.353 1.71.899 2.766-2.354-1.71-2.353 1.71.899-2.766-2.354-1.71h2.91zm16.466 0l.899 2.767h2.909l-2.353 1.71.899 2.766-2.354-1.71-2.353 1.71.899-2.766-2.354-1.71h2.91zm16.467 0l.899 2.767h2.909l-2.354 1.71.9 2.766-2.354-1.71-2.353 1.71.898-2.766-2.353-1.71h2.909zm16.467 0l.899 2.767h2.909l-2.354 1.71.9 2.766-2.354-1.71-2.353 1.71.898-2.766-2.353-1.71h2.909zm-74.1 7l.899 2.767h2.909l-2.353 1.71.898 2.766-2.353-1.71-2.353 1.71.898-2.766-2.353-1.71h2.909zm16.466 0l.899 2.767h2.909l-2.353 1.71.899 2.766-2.354-1.71-2.353 1.71.899-2.766-2.354-1.71h2.91zm16.467 0l.899 2.767h2.909l-2.353 1.71.899 2.766-2.354-1.71-2.353 1.71.899-2.766-2.354-1.71h2.91zm16.467 0l.899 2.767h2.909l-2.353 1.71.898 2.766-2.353-1.71-2.353 1.71.899-2.766-2.354-1.71h2.91zm16.466 0l.899 2.767h2.909l-2.354 1.71.9 2.766-2.354-1.71-2.353 1.71.898-2.766-2.353-1.71h2.909zM8.233 58.996l.9 2.767h2.908l-2.353 1.71.899 2.766-2.354-1.71-2.353 1.71.899-2.766-2.354-1.71h2.91zm16.467 0l.899 2.767h2.909l-2.353 1.71.898 2.766-2.353-1.71-2.353 1.71.898-2.766-2.353-1.71h2.909zm16.467 0l.899 2.767h2.909l-2.353 1.71.899 2.766-2.354-1.71-2.353 1.71.899-2.766-2.354-1.71h2.91zm16.466 0l.899 2.767h2.909l-2.353 1.71.899 2.766-2.354-1.71-2.353 1.71.899-2.766-2.354-1.71h2.91zm16.467 0l.899 2.767h2.909l-2.354 1.71.9 2.766-2.354-1.71-2.353 1.71.898-2.766-2.353-1.71h2.909zm16.467 0l.899 2.767h2.909l-2.354 1.71.9 2.766-2.354-1.71-2.353 1.71.898-2.766-2.353-1.71h2.909z" transform="scale(3.9385)"/>
    </g>
  </g>
</svg>
