<svg xmlns="http://www.w3.org/2000/svg" xmlns:xlink="http://www.w3.org/1999/xlink" height="512" width="512" id="flag-icon-css-vi">
  <path fill="#fff" d="M0 0h512v512H0z"/>
  <path d="M163.478 315.945s-.414-2.806 4.915-4.864c5.33-2.057 5.744-9.728 4.678-14.84 0 0-2.782 4.863-6.157 6.484 0 0-5.507 2.87-5.76 8.35 0 0-.043 2.002-.458 3.562-.227.853-2.664-6.86 1.954-12.598 4.766-5.92 6.1-10.726 2.31-20.08 0 0-.357 5.675-4.087 8.917-3.73 3.243-4.205 3.493-4.145 11.226 0 0 .06 2.682-1.362 3.555 0 0-2.902-4.24-3.672-7.047-.77-2.806-1.125-3.99 2.19-7.234 0 0 10.625-6.865 2.962-21.89 0 0-.237 5.177-3.908 8.233-3.67 3.056-3.375 5.114-3.553 10.414-.178 5.302-.533 4.928-.947 5.676 0 0-6.75-12.41-1.54-19.02 5.21-6.61 8.113-7.983 2.37-20.268 0 0 .254 6.3-4.345 9.417-4.598 3.118-3.532 10.414-3.532 10.414s.297 2.743-.65 4.74c0 0-6.505-12.688-.296-19.52 5.27-5.8 5.625-9.854 2.783-18.086 0 0-.355 3.804-3.257 5.862-2.902 2.058-5.21 4.116-4.678 12.036 0 0 .237 5.55-.474 7.11 0 0-2.724-5.052-3.493-8.357-.77-3.305-1.066-5.24.947-8.544 2.013-3.304 10.007-12.783.474-26.44 0 0-.296 4.427-2.724 8.42-2.428 3.99-1.303 8.73-.77 12.346.533 3.617-1.243 7.11-1.243 7.11s-4.146-7.61-3.258-16.34c.888-8.73-2.665-15.902-10.718-21.078 0 0-5.863 13.595 2.13 20.517 0 0 6.81 6.736 8.528 14.905 0 0-5.15-.5-9.83-9.604-4.677-9.105-14.39-7.67-15.04-7.733 0 0 1.6 14.094 16.52 18.085 0 0 9.535 1.622 11.31 8.606 0 0 1.6 4.802 2.25 7.36 0 0-3.02-1.186-5.802-5.302-2.783-4.116-2.428-4.615-11.843-5.55 0 0-3.79-.437-5.803-3.118 0 0 3.967 14.905 14.152 14.78 0 0 9.297-.998 14.508 11.225 0 0-1.007-.624-2.368-1.56-1.362-.935-4.797-2.682-11.607-1.87-6.81.81-8.705-.313-10.423-.874 0 0 6.87 12.597 16.58 8.856 9.712-3.742 14.403 9.902 14.51 10.165 0 0-1.304-.998-3.02-2.682-1.72-1.684-5.284-3.76-12.022-1.62 0 0-4.856 1.87-9.77.373 0 0 4.737 9.167 15.81 7.608 11.073-1.56 13.856 8.17 13.856 8.17s-1.48-.873-2.486-1.684c-1.006-.81-4.737-2.93-12.73-.56-7.995 2.368-10.897-.376-10.897-.376s4.44 8.107 12.968 9.043c0 0 4.738-.063 6.75-.812 2.014-.748 7.344-1.933 11.015 3.368 0 0-1.007.187-2.546-.5 0 0-5.685-2.057-10.008 1.56 0 0-3.85 3.93-9.297 3.18 0 0 7.046 6.86 18.238 1.06 0 0 3.79-2.743 6.573-.623 2.784 2.12 9.238-2.058 9.238-2.058z" stroke-miterlimit="10" fill="#369443" stroke="#010002" stroke-width="1.204"/>
  <g stroke-miterlimit="10" fill="#f4c53d" stroke="#010002" stroke-width="1.204">
    <path d="M225.77 146.942s-1.3-11.606 7.973-12.722c9.672-1.164 14.449.873 14.449.873l4.342 8.523-1.5 5.737-6 2.744s1.026-8.814-7.053-8.997c-2.048-.046-3.25.766-6.488.252-3.257-.517-4.999 3.061-5.724 3.59z"/>
    <path d="M291.023 175.67c-1.382 1.787-6.908 2.41-6.908 2.41s5.684 4.366 8.132 10.602c2.447 6.236-65.886.042-65.886.042s2.962-2.12 4.975-6.11c0 0-3.02 1.12-6.04-1.872 0 0 2.25.748 5.21-3.742 0 0 4.383-5.612 7.462-7.11 0 0-1.42.874-4.855-.997 0 0 5.92-.748 8.053-10.85 0 0 .355-2.246 2.605-5.49 2.25-3.242 1.777.625 5.922-4.364 0 0 1.895-3.535.237-5.697-1.66-2.162-3.436-1.372-6.91-3.45-3.474-2.08-5.013-3.243-3.83-6.444 1.185-3.202 4.265-2.704 4.7-2.704.433 0 .67-2.785 4.46-4.697 3.79-1.914 13.856-1.082 15.356-.25 1.5.83 7.58 2.618 11.132 11.598 3.553 8.98-.947 12.348 8.724 25.9 0 0-3.868.833-6.355.084 0 0 5.013 8.897 13.816 13.138z"/>
    <path d="M248.744 137.775c-7.875-.374-4.855-7.88-4.855-7.88" fill="none"/>
    <path d="M262.423 138.804s-1.392-.655-2.57-2.214c-1.65-2.188-5.336-3.243-7.32-1.185 0 0-2.013 2.245-3.79 2.37 0 0 2.014.623 3.406 1.902 1.39 1.278 2.84 2.214 4.914 1.933 2.072-.28 2.398-1.372 3.375-2.027.976-.655 1.983-.78 1.983-.78z"/>
  </g>
  <path d="M162.25 333.164s-.177-5.05 6.218-5.425l18.83 26.19s-.71 1.684-9.238 1.497c0 0-.903-.006-1.376.992-.728 1.53-14.433-23.256-14.433-23.256z" stroke-miterlimit="10" fill="#369443" stroke="#010002" stroke-width="1.204"/>
  <g id="a" transform="translate(2.878 84.937) scale(.12044)" fill="#f4c53d" stroke="#010002" stroke-width="10">
    <path d="M1494.918 1807.886s-49.82 85.606-110.13 86.987c0 0-103.74-12.628-133.073 14.498-20.454 18.916-41.3 34.52-49.82 82.846-8.523 48.326 16.387 58.682 22.287 60.753 0 0 4.59 34.518 38.676 25.543 0 0 1.967 35.9 62.276 18.64 60.31-17.26 85.22-11.736 97.02-71.8 11.8-60.06 22.693-59.078 33.43-66.275 14.423-9.665 41.518-18.8 61.62-30.376 18.062-10.4 87.187-45.565 110.786-48.326 23.6-2.76 18.355-82.154 18.355-82.154h-60.964l-29.498-43.493-60.964 53.156zm192.01-429.409s-60.965 49.707-112.096 0c0 0-20.65 24.853-61.948 17.604-41.3-7.248-48.182-28.995-52.115-41.42 0 0-35.728 20.84-65.882 4.38-30.155-16.463-30.155-41.316-30.155-41.316s-52.443 10.338-79.32-25.207c-26.876-35.545-10.488-70.754 3.934-74.897 0 0-56.7 14.854-72.11-33.828-13.11-41.422 16.39-62.824 16.39-62.824s-119.47-.574-168.473-37.97c0 0-40.643-25.544-16.388-52.468 0 0-107.507-17.26-134.384-60.062 0 0-11.8-11.736-7.866-32.448 0 0 .656-11.736 12.455-12.427 0 0-122.6-18.937-157.982-59.372 0 0-17.044-18.64-8.522-43.492 0 0 1.803-6.56 4.753-10.96 0 0-111.605-23.56-166.67-73.266 0 0-31.787-28.32-15.4-66.29 0 0-186.505-51.073-143.24-133.228 0 0-87.185-28.305-59.653-107.008 0 0-72.11-36.59-40.643-94.58 30.114-55.5 122.585 9.664 232.08 39.96 0 0 296.28 93.28 442.188 118.106l414.573 617.222 241.892 93.2 24.58 172.593z"/>
    <path d="M1689.878 923.866s-38.857-29.17-108.163 5.178c0 0-23.333 16.068-41.687-1.536-15.336-14.71-16.775-41.83 4.322-57.49 51.623-38.316 70.798-153.263-7.866-200.898 0 0-114.063-67.656-532.32-174.095 0 0-35.044-9.717-53.727-5.057-20.572 5.13-34.743 22.782-37.65 37.886 0 0-18.715 53.188 44.206 83.62 0 0 28.408 13 57.687 21.402 0 0-32.16-6.952-45.887 24.853-13.11 30.375 5.9 61.442 64.898 81.463 0 0 15.958 6.21 38.677 11.736 0 0-50.476 14.497-26.22 55.23 0 0 21.632 42.802 98 50.396 0 0-57.03 6.213-16.715 60.408 0 0 17.7 29.686 73.42 40.732 0 0-42.282 1.38-20.977 39.35 21.305 37.972 71.44 59.373 120.775 62.825 0 0 26.72 1.382 45.403-2.76 0 0-46.87 23.473-19.338 62.824 0 0 20.32 27.96 71.125 26.58 0 0-13.187 43.944 24.09 60.58 29.008 12.943 53.1-7.768 53.1-7.768s-9.834 47.118 32.448 63.687c0 0 21.14 10.873 52.606 0 0 0 24.09 53.85 109.638 16.05 85.545-37.798 20.156-355.197 20.156-355.197zm5.074 489.39s-12.552 67.393-112.09 152.22c0 0-76.8 67.745-74.834 145.757 2.003 79.44-13.766 88.368-43.92 115.292 0 0 62.275 4.833 92.43-36.59 0 0-1.312 69.037-10.49 75.25 0 0 19.532 1.246 47.854-29.685 0 0 17.044-17.95 32.777-24.853 0 0-18.356 47.636-3.934 91.82 0 0 4.59-17.26 28.843-24.854 0 0 43.92-8.975 60.964-72.49 0 0 11.144-42.112 79.975-79.392 0 0 78.007-29.42 76.04-67.87-1.965-38.447-173.618-244.604-173.618-244.604z"/>
    <path d="M2056.524 2282.172s-17.87 78.856-79.975 72.49c0 0-43.922-4.143-40.644-77.323 0 0-64.898 34.518-75.386-51.088 0 0-58.998 13.807-58.342-66.276 0 0-55.065 9.665-48.51-61.443 0 0-59.653 15.88-59.653-51.088 0 0-139.628-23.157 151.428-288.576l259.59 154.642-48.51 368.66z" stroke-miterlimit="10"/>
    <path d="M2085.368 1928.287s-43.265 38.385-74.075-18.915c0 0-41.954-2.07-48.51-33.828 0 0-34.087-3.452-40.642-35.9 0 0-46.542-4.832-45.23-44.183 0 0-84.62-6.53-.028-102.333 84.59-95.802 228.153 158.945 228.153 158.945l-19.667 76.215zm48.275-23.747c41.94 0 89.463 261.995 77.13 419.84-4.48 57.328-35.19 104.152-77.13 104.152s-72.65-46.824-77.13-104.15c-12.333-157.846 35.19-419.843 77.13-419.843"/>
    <ellipse ry="85.951" rx="58.032" cy="1902.468" cx="2133.643"/>
    <path d="M1935.906 2277.34s6.555-138.765 126.824-337.594m-202.21 286.506s-18.683-80.083 150.773-316.88c0 0-19.666-56.612 40.643-92.856m-249.76 343.46s-5.243-86.642 160.607-284.433c0 0-14.65-51.088 45.445-91.82m-254.56 314.81s6.228-87.677 168.472-258.89c0 0-8.117-52.468 50.023-84.916m-278.15 292.72s11.8-100.105 182.895-251.987c0 0-5.9-39.35 51.132-79.393" stroke-miterlimit="10" fill="none"/>
    <path d="M372.257 431.976s134.384 77.806 552.895 155.612M431.91 538.984S795.627 657.63 965.01 672.21m-389.86 0s213.37 66.98 463.238 109.247m-281.17 30.31s241.072 57.905 356.164 67.515m-194.41 46.31s203.908 42.526 255.572 47.64m-125.777 57.297s148.806 22.61 208.03 21.4m-23.17 69.038s60.166-2.826 89.08-7.626m-33.36 104.278s51.132-13.807 81.286-33.138m-5.9 133.242s39.333-15.188 58.343-56.61m37.693 93.545s30.48-27.27 32.448-57.647m81.614 81.464s-11.413-9.845-3.605-52.64m-11.145-62.825s-5.9-12.254-3.933-31.585m-211.082-581.293s68.83 27.615 91.775 65.585c22.944 37.97 7.833 74.873 0 96.047-3.936 10.64-52.443 104.16 4.59 171.816m-95.382 73.525s.33-.345 24.584-7.94m-169.784-91.473s41.026 8.26 81.286 8.63m-137.99-109.77s48.183 4.833 93.414 4.142m-165.194-109.77s69.486 13.808 106.852 14.5m-164.54-132.553s85.7 24.46 149.463 33.138m141.596 50.397s-61.62 57.3 12.455 110.46c0 0-30.81 48.325 30.81 98.722m-16.388 23.82s-9.177 92.154 103.574 92.16c0 0-21.633 82.157 87.186 79.396 0 0 12.455 65.585 91.12 52.468m-173.327 721.441s-17.84 3.97-56.54 0m-108.818 48.326s-54.41-8.286-51.787 109.768m84.565-82.845s-49.165-6.213-45.887 108.388m520.654-384.536s-23.6 4.833-39.988 23.473c-16.39 18.64-47.854 15.188-47.854 15.188s17.044-13.807 22.944-48.326c5.9-34.52 24.91-44.875 24.91-44.875m-56.3-32.688s-23.598 4.833-39.986 23.473c-16.388 18.64-47.854 15.188-47.854 15.188s17.044-13.807 22.944-48.326c5.9-34.52 24.91-44.874 24.91-44.874m23.76 188.537s-20.604 4.22-34.913 20.495c-14.31 16.275-41.783 13.26-41.783 13.26s14.882-12.055 20.033-42.194c5.15-30.14 21.75-39.18 21.75-39.18" fill="none"/>
  </g>
  <use transform="matrix(-1 0 0 1 517.756 0)" xlink:href="#a" width="100%" height="100%" stroke="#010002" stroke-width="10"/>
  <path fill="#0081c6" stroke="#010002" stroke-width="1.204" stroke-miterlimit="10" d="M379.721 272.736l-6.88-3.992-11.456 49.453-4.727-3.396 11.151-47.378-7.775.143 18.457-33.799 1.23 38.969zm26.991 13.375l-4.296-6.927-34.383 40.628-3.723-4.168 34.253-40.113-6.929-3.719 31.364-20.716-16.286 35.015z"/>
  <path fill="#0081c6" stroke="#010002" stroke-width="1.204" stroke-miterlimit="10" d="M399.754 263.368l-5.665-5.73-30.774 59.17-4.742-2.767 30.98-59.05-7.545-1.982 26.135-27.617-8.389 37.977zM355.7 334.857l-2.305 9.424 6.31 6.288-8.92 37.674-7.932-10.656-11.754 5.486 8.918-37.674 8.27-2.305 2.146-9.408s2.5-.98 5.266 1.172z"/>
  <path d="M357.813 328.642l-4.543 8.475 4.55 7.793-17.873 33.96-5.044-12.456-12.703 2.095 17.874-33.96 8.554.027 4.386-8.502s3.19-.006 4.8 2.567z" fill="#0081c6" stroke="#010002" stroke-width="1.204" stroke-miterlimit="10"/>
  <path d="M358.58 331.107l-12.083 15.35 2.77 8.67-24.67 28.855-2.254-13.33-12.825-.968 24.67-28.855 8.33 2.052 12.815-16.296s3.438 1.707 3.247 4.52zM52.42 295.12c2.88-1.177 4.954-2.312 4.945-5.386-.002-.733-.41-2.354-1.226-4.863l-19.343-59.113c-1.146-3.51-2.012-5.6-2.413-6.368-.87-1.666-2.577-2.344-4.876-3.3h24.584c-2.67 1.26-5.106 2.262-5.083 5.094.008 1.08.312 2.605.94 4.573l14.817 46.387 14.802-46.387c.626-1.968.95-3.492.94-4.573-.03-2.91-2.564-3.96-5.055-5.095h23.823c-2.177.872-3.953 1.555-4.865 3.3-.402.768-1.267 2.856-2.412 6.367L72.66 284.87c-.82 2.51-1.115 4.16-1.228 4.922 0 0-.89 3.738 4.947 5.327H52.42zm412.184-6.08v-66.93c0-1.158-.19-2.045-.572-2.663-.382-.617-2.043-2.397-4.414-3.358h22.15c-2.37.784-4.032 2.69-4.413 3.328-.382.637-.573 1.534-.573 2.692v66.93c0 1.196.198 2.113.593 2.75.395.636 2.023 2.19 4.394 3.33h-22.152c2.37-1.08 4.032-2.74 4.414-3.36.38-.616.572-1.524.572-2.72z" fill="#0081c6" stroke="#010002" stroke-width="1.204" stroke-miterlimit="10"/>
  <path d="M259.86 311.813s59.28-26.27 59.428-87.042h-118.86c.15 60.773 59.43 87.043 59.43 87.043z" fill="#fff" stroke="#010002" stroke-width="1.204"/>
  <g fill="#a60032" stroke="#010002" stroke-width="1.204">
    <path d="M209.568 224.769v38.83s4.54 9.005 9.143 14.653v-53.483h-9.143zM227.854 224.77v64.007s5.718 5.606 9.143 8.31v-72.318h-9.143zm18.286 0v79.118s6.523 4.213 9.143 5.596V224.77h-9.143zm64 0v38.828s-4.54 9.006-9.143 14.654V224.77h9.143zm-18.286 0v64.007s-5.718 5.606-9.143 8.31v-72.318h9.144zm-18.286 0v79.118s-6.523 4.213-9.143 5.596V224.77h9.143z"/>
  </g>
  <path d="M319.288 180.62s-29.09 15.215-59.43-1.25c-30.34 16.465-59.43 1.25-59.43 1.25v44.15h118.86v-44.15z" stroke-miterlimit="10" fill="#162667" stroke="#010002" stroke-width="1.204"/>
</svg>
