<svg xmlns="http://www.w3.org/2000/svg" height="512" width="512" id="flag-icon-css-vu">
  <defs>
    <clipPath id="a">
      <path fill-opacity=".67" d="M0 0h496.06v496.06H0z"/>
    </clipPath>
  </defs>
  <g clip-path="url(#a)" transform="scale(1.0321)">
    <g fill-rule="evenodd">
      <path d="M0 0l336.61 212.6h407.48v70.867H336.61L0 496.057V-.003z"/>
      <path d="M0 478.35l343.7-219.68h400.39v-21.259H343.7L0 17.721v31.886l322.44 198.42L0 446.457v31.889z" fill="#ff0"/>
      <path d="M0 496.06l343.7-219.68h400.39v219.68H0z" fill="#40aa40"/>
      <path d="M0 0l343.7 219.68h400.39V0H0z" fill="#ce0000"/>
      <path d="M92.826 258.33c1.189.262 1.502.602 2.68-1.126.253-.868.991-2.084 1.634-3.162.859-1.41 1.236-1.977 2.045-.903.523.612 2.606-.518 3.47.075 1.336.888.532.76 1.627-.201.841-1.79.1-1.579-1.085-2.393-.832-.57-2.956.607-3.788.036.29-1.789.86-1.98 1.89-2.328.779.535 3.047-.407 3.749-.392.99.207 1.872.318 2.184-1.137.49-1.03.276-.32-.117-1.068-.831-.571-2.956.606-3.787.035-1.08-.818-.903-1.122-.272-2.493.845-.464 1.474-.24 2.518.41 1.075.738 2.767-.696 3.71-.748.848-.965 1.848-1.286 1.216-2.461-.353-.893-.619-.994-1.782-1.223-1.19-.817-2.739.678-3.192-.544.944-1.351 1.296-1.062 2.44-.302.736.252 2.96-1.065 3.672-1.105 1.059-.306.546.885 1.293-1.748-.26-1.142-2.173.7-3.253.403-1.037.138-1.863-.23-1.96-1.346.015-1.502.76-1.605 1.827-1.382.94.169 3.061-.999 3.85-.982 1.123.597 1.479.374 2.363-1.014.651-1.64-.072-.962-1.186-1.803-.831-.57-2.956.607-3.788.036.146-.605.409-1.342.976-1.637.82.162 1.525.125 2.556.766 1.015.444 2.686-1.516 3.555-2.173-.165-.934-1.825.395-2.835-.298-.64-.44-1.442-.9-1.642-1.458.573-1.636.294-1.554 1.866-1.025.837-.217 2.256-.206 1.294-1.749-.154-.249-.982-.16-1.705-.51-.871-.6-1.71-1.203-2.634-1.48-.666-.102-1.634-.318-2.16-.165-.057.972.188 1.59.131 2.727.434.71 1.254.726 1.426.979-.872.766-1.343.373-2.262.424-1.095-.751-.467-3.08-1.759-2.525.298.684.19 3.27.745 3.806.584.402 1.33.794 1.464 1.335-.931 1.432-1.284 1.352-2.401.659-.934-.642-.64-2.745-1.442-2.638-.984.744-1 .71-.797 1.76.052 1.373-.496 3.284.605 4.04 1.324.939 1.492.828.45 2.616-.718.87-1.121.711-1.945.313-.886-.609-.694-2.85-1.38-3.584-1.297-.775-.545-.747-1.626.202-.334 1.217-.091 1.537.45 2.615.44.67.412 2.957 1.163 3.106 1.212.693 1.254.554-.124 1.892-1.083.043-1.548.34-2.378-.644-1.007-.76-.378-3.102-1.658-3.116-1.186.097-1.444.128-1.294 1.749.205 1.427-.325 3.67.822 4.519 1.073.49 1.723.458 2.1 1.112-.335.293-.964 1.2-1.333 1.392-.751.054-1.527-.466-2.378-.644-1.012-.466-.554-1.37-1.363-1.925-.936.303-.952-1.004-1.449.324.192 1.09-.177 2.514.845 3.216.832.571 1.563 1.732 2.394 2.303.954 1.13.58 1.326-.007 2.961-.796.023-1.729-.527-2.595-1.122-.832-.571-.688-2.78-1.52-3.35-.719-.708-.51-1.31-1.626.201-.105 1.073.095 1.15.372 1.904.032 1.096-.262 3.116.745 3.807 1.017.205 2.114.737 2.912 1.01.766.898.1.723-.758 2.116-.54 1.395-.545 1.642-1.394 2.339-.736.981-1.028 1.412-.364 2.717z" fill="#ff0"/>
      <path d="M117.158 259.518c.712-1.158 1.15-1.354.032-3.296-.697-.616-1.519-1.886-2.253-2.999-.953-1.476-1.323-2.103-.015-2.533.77-.31.562-2.974 1.45-3.655 1.347-1.063.91-.261.463-1.808-1.308-1.608-1.409-.738-2.628.196-.855.655-.62 3.382-1.475 4.037-1.527-1.024-1.476-1.705-1.385-2.937.801-.613.84-3.4 1.132-4.138.585-.97 1.037-1.861-.174-2.774-.751-.931-.183-.42-1.028-.304-.855.655-.619 3.382-1.474 4.037-1.181.82-1.39.51-2.397-.708-.09-1.082.367-1.66 1.378-2.51 1.106-.846.463-3.216.79-4.239-.548-1.286-.445-2.476-1.775-2.274-.96.018-1.159.26-1.833 1.403-1.223.937-.467 3.18-1.769 3.172-.865-1.542-.46-1.8.694-2.712.524-.68.2-3.568.447-4.34.14-1.248 1.03-.226-1.09-2.073-1.152-.18-.222 2.588-.925 3.616-.286 1.157-.952 1.887-2.016 1.544-1.372-.616-1.17-1.449-.54-2.493.528-.931.3-3.65.63-4.481.995-.954.931-1.421.009-2.914-1.246-1.348-.912-.309-2.127.538-.855.655-.62 3.382-1.475 4.037-.497-.397-1.069-.97-1.114-1.69.475-.806.721-1.57 1.72-2.409.812-.9-.322-3.459-.58-4.644-.923-.198-.363 2.096-1.402 2.892-.658.504-1.4 1.171-1.991 1.161-1.274-1.262-1.31-.933-.199-2.392.134-.975.71-2.477-1.09-2.072-.29.063-.539.978-1.148 1.606-.896.686-1.784 1.336-2.406 2.206-.36.666-.943 1.608-1.012 2.229.87.448 1.534.435 2.557.95.824-.178 1.165-1.042 1.465-1.123.356 1.232-.191 1.575-.51 2.571-1.126.863-3.014-.735-3.019.859.747-.043 3.078 1.106 3.791.73.601-.46 1.258-1.095 1.808-1.02.944 1.56.73 1.902-.351 2.812-.96.736-2.775-.417-2.995.477.291 1.342.253 1.346 1.298 1.55 1.282.493 2.818 1.84 3.95.972 1.389-1.03 1.354-1.253 2.58.568.514 1.11.207 1.475-.486 2.19-.911.698-2.893-.402-3.839.033-1.229 1.068-.903.281-.462 1.808.984.841 1.375.712 2.58.568.79-.2 2.878.744 3.313.006 1.12-1.01 1.008-1.11 1.689.888-.392 1.167-.305 1.779-1.538 2.268-1.099.766-2.999-.838-3.52.516-.384 1.298-.458 1.583 1.09 2.072 1.391.353 3.24 1.812 4.476.933.877-.944 1.106-1.646 1.856-1.785.136.472.719 1.504.748 1.971-.25.82-1.036 1.436-1.538 2.268-.83.889-1.477.042-2.31.68-.094 1.114-1.3.609-.28 1.667 1.079.232 2.239 1.193 3.29.388.855-.655 2.212-.967 3.067-1.622 1.416-.561 1.448-.085 2.716 1.191-.297.854-1.173 1.625-2.064 2.308-.855.654-2.825-.381-3.68.274-.936.48-1.406.019-.462 1.808.943.54 1.094.359 1.895.365 1.019.405 2.757 1.524 3.791.731.594-.998 1.519-1.95 2.088-2.689 1.128-.455.702.183 1.64 1.652 1.066 1.13 1.29 1.234 1.592 2.414.608 1.174.888 1.656 2.35 1.472z" fill="#ff0"/>
      <path d="M94.96 304.722c0-5.154-.8-10.307 0-10.307 45.353 0 56.69-30.924 56.69-51.541 0-20.616-15.754-41.23-45.353-41.23-34.016 0-45.354 20.14-45.354 41.23 0 20.616 17.008 36.079 34.016 36.079 22.677 0 28.347-5.154 45.354-25.77-5.67 25.77-34.016 36.079-45.354 36.079-22.677 0-45.353-15.462-45.353-46.386 0-25.77 17.008-51.538 56.694-51.538 34.016 0 56.691 25.77 56.691 51.538 0 36.079-28.346 61.848-68.032 61.848z" fill="#ff0"/>
    </g>
  </g>
</svg>
