<?xml version="1.0" standalone="no"?>
<!DOCTYPE svg PUBLIC "-//W3C//DTD SVG 1.1//EN" "http://www.w3.org/Graphics/SVG/1.1/DTD/svg11.dtd" >
<svg xmlns="http://www.w3.org/2000/svg">
<metadata>
This is a custom SVG font generated by IcoMoon.
8
</metadata>
<defs>
<font id="icomoon" horiz-adv-x="512" >
<font-face units-per-em="512" ascent="480" descent="-32" />
<missing-glyph horiz-adv-x="512" />
<glyph unicode="&#xf000;" d="M 1.50,404.25q 5.00,11.75 17.50,11.75l 345.50,0.00 q 12.75,0.00 18.00-11.75q 5.00-11.75 -4.25-21.00l-152.50-152.50l0.00-160.25 l 62.00,0.00 q 8.25,0.00 13.875-5.625t 5.625-13.375q0.00-8.25 -5.625-13.875t-13.875-5.625l-192.00,0.00 q-7.75,0.00 -13.375,5.625t-5.625,13.875q0.00,7.75 5.625,13.375t 13.375,5.625l 62.50,0.00 l0.00,160.25 l-152.50,152.50q-9.25,9.25 -4.25,21.00z" horiz-adv-x="384" />
<glyph unicode="&#xf004;" d="M0.00,300.25q0.00,28.25 8.50,51.25t 24.375,38.875t 38.375,24.625t 50.50,8.75q 14.75,0.00 29.25-4.625t 27.50-12.125t 24.75-17.125t 22.00-19.375q 9.75,9.75 21.75,19.375t 25.125,17.125t 27.25,12.125t 28.875,4.625q 28.25,0.00 51.00-8.75t 38.625-24.625t 24.25-38.875t 8.375-51.25q0.00-16.50 -4.625-32.50t-12.75-31.125t-18.625-28.75t-21.75-24.875l-153.75-153.00 q-5.75-5.75 -13.75-5.75q-7.75,0.00 -14.25,5.75l-153.75,153.50q-11.25,11.25 -21.75,24.875t-18.375,28.50t-12.50,31.00t-4.625,32.375z" horiz-adv-x="450.5" />
<glyph unicode="&#xf005;" d="M 0.25,271.875q 2.25,6.875 13.50,8.375l 126.50,18.50l 56.75,114.75q 5.00,10.25 12.25,10.25t 12.50-10.25l 56.75-114.75l 126.50-18.50q 11.25-1.50 13.50-8.375t-5.75-15.125l-91.75-89.00l 21.50-126.00q 2.00-11.25 -3.875-15.625t-16.125,1.375l-113.00,59.25l-113.25-59.25q-10.25-5.75 -16.125-1.375t-3.875,15.625l 21.50,126.00l-91.00,89.00q-8.75,8.25 -6.50,15.125z" horiz-adv-x="418.75" />
<glyph unicode="&#xf006;" d="M0.00,269.00q0.00,5.75 4.625,8.00t 9.125,3.25l 126.50,18.50l 56.75,114.75q 1.50,3.50 5.00,6.875t 7.50,3.375q 4.50,0.00 7.625-3.375t 4.625-6.875l 56.75-114.75l 126.50-18.50q 4.50-1.00 9.125-3.25t 4.625-8.00q0.00-3.50 -1.75-6.625t-4.25-5.625l-91.75-89.00l 21.50-126.00q0.00-1.00 0.25-2.25t 0.25-3.00q0.00-5.00 -2.25-8.625t-8.00-3.625t-10.25,3.25l-113.00,59.25l-113.25-59.25 q-4.50-3.00 -9.75-3.25q-5.75,0.00 -8.25,3.625t-2.50,8.625q0.00,1.50 0.25,2.875t 0.25,2.375l 21.50,126.00l-91.00,89.00q-2.50,2.50 -4.625,5.625t-2.125,6.625zM 72.25,248.50l 68.50-67.00l-16.25-94.25l 85.00,44.50l 85.00-44.50l-16.50,94.25l 68.50,67.00l-94.50,14.00l-42.50,86.00l-42.50-86.00z" horiz-adv-x="418.75" />
<glyph unicode="&#xf009;" d="M0.00,51.50l0.00,134.00 q0.00,8.25 5.625,13.875t 13.875,5.625l 172.50,0.00 q 8.25,0.00 13.875-5.625t 5.625-13.875l0.00-134.00 q0.00-8.25 -5.625-13.875t-13.875-5.625l-172.50,0.00 q-8.25,0.00 -13.875,5.625t-5.625,13.875zM0.00,262.50l0.00,134.50 q0.00,7.75 5.625,13.375t 13.875,5.625l 172.50,0.00 q 8.25,0.00 13.875-5.625t 5.625-13.375l0.00-134.50 q0.00-8.25 -5.625-13.625t-13.875-5.375l-172.50,0.00  q-8.25,0.00 -13.875,5.375t-5.625,13.625zM 249.75,51.50l0.00,134.00 q0.00,8.25 5.375,13.875t 13.625,5.625l 173.00,0.00 q 7.75,0.00 13.375-5.625t 5.625-13.875l0.00-134.00 q0.00-8.25 -5.625-13.875t-13.375-5.625l-173.00,0.00 q-8.25,0.00 -13.625,5.625t-5.375,13.875zM 249.75,262.50l0.00,134.50 q0.00,7.75 5.375,13.375t 13.625,5.625l 173.00,0.00 q 7.75,0.00 13.375-5.625t 5.625-13.375l0.00-134.50  q0.00-8.25 -5.625-13.625t-13.375-5.375l-173.00,0.00 q-8.25,0.00 -13.625,5.375t-5.375,13.625z" horiz-adv-x="460.75" />
<glyph unicode="&#xf00a;" d="M0.00,51.50l0.00,67.50 q0.00,8.25 5.625,13.625t 13.875,5.375l 89.50,0.00 q 7.75,0.00 13.375-5.375t 5.625-13.625l0.00-67.50 q0.00-8.25 -5.625-13.875t-13.375-5.625l-89.50,0.00 q-8.25,0.00 -13.875,5.625t-5.625,13.875zM0.00,195.75l0.00,56.50 q0.00,8.25 5.625,13.50t 13.875,5.25l 89.50,0.00 q 7.75,0.00 13.375-5.375t 5.625-13.375l0.00-56.50 q0.00-8.25 -5.625-13.75t-13.375-5.50l-89.50,0.00 q-8.25,0.00 -13.875,5.625 t-5.625,13.625zM0.00,329.00l0.00,68.00 q0.00,7.75 5.625,13.375t 13.875,5.625l 89.50,0.00 q 7.75,0.00 13.375-5.625t 5.625-13.375l0.00-68.00 q0.00-8.25 -5.625-13.875t-13.375-5.625l-89.50,0.00 q-8.25,0.00 -13.875,5.625t-5.625,13.875zM 166.50,51.50l0.00,67.50 q0.00,8.25 5.625,13.625t 13.625,5.375l 89.75,0.00 q 7.75,0.00 13.375-5.375t 5.625-13.625l0.00-67.50 q0.00-8.25 -5.625-13.875t-13.375-5.625 l-89.75,0.00 q-8.25,0.00 -13.75,5.625t-5.50,13.875zM 166.50,195.75l0.00,56.50 q0.00,8.25 5.625,13.50t 13.625,5.25l 89.75,0.00 q 7.75,0.00 13.375-5.375t 5.625-13.375l0.00-56.50 q0.00-8.25 -5.625-13.75t-13.375-5.50l-89.75,0.00 q-8.25,0.00 -13.75,5.625t-5.50,13.625zM 166.50,329.00l0.00,68.00 q0.00,7.75 5.625,13.375t 13.625,5.625l 89.75,0.00 q 7.75,0.00 13.375-5.625t 5.625-13.375l0.00-68.00 q0.00-8.25 -5.625-13.875 t-13.375-5.625l-89.75,0.00 q-8.25,0.00 -13.75,5.625t-5.50,13.875zM 332.75,51.50l0.00,67.50 q0.00,8.25 5.625,13.625t 13.875,5.375l 89.50,0.00 q 7.75,0.00 13.375-5.375t 5.625-13.625l0.00-67.50 q0.00-8.25 -5.625-13.875t-13.375-5.625l-89.50,0.00 q-8.25,0.00 -13.875,5.625t-5.625,13.875zM 332.75,195.75l0.00,56.50 q0.00,8.25 5.625,13.50t 13.875,5.25l 89.50,0.00 q 7.75,0.00 13.375-5.375t 5.625-13.375l0.00-56.50  q0.00-8.25 -5.625-13.75t-13.375-5.50l-89.50,0.00 q-8.25,0.00 -13.875,5.625t-5.625,13.625zM 332.75,329.00l0.00,68.00 q0.00,7.75 5.625,13.375t 13.875,5.625l 89.50,0.00 q 7.75,0.00 13.375-5.625t 5.625-13.375l0.00-68.00 q0.00-8.25 -5.625-13.875t-13.375-5.625l-89.50,0.00 q-8.25,0.00 -13.875,5.625t-5.625,13.875z" horiz-adv-x="460.75" />
<glyph unicode="&#xf00b;" d="M0.00,51.50l0.00,67.50 q0.00,8.25 5.625,13.625t 13.875,5.375l 74.25,0.00 q 7.75,0.00 13.375-5.375t 5.625-13.625l0.00-67.50 q0.00-8.25 -5.625-13.875t-13.375-5.625l-74.25,0.00 q-8.25,0.00 -13.875,5.625t-5.625,13.875zM0.00,195.75l0.00,56.50 q0.00,8.25 5.625,13.50t 13.875,5.25l 74.25,0.00 q 7.75,0.00 13.375-5.375t 5.625-13.375l0.00-56.50 q0.00-8.25 -5.625-13.75t-13.375-5.50l-74.25,0.00 q-8.25,0.00 -13.875,5.625 t-5.625,13.625zM0.00,329.00l0.00,68.00 q0.00,7.75 5.625,13.375t 13.875,5.625l 74.25,0.00 q 7.75,0.00 13.375-5.625t 5.625-13.375l0.00-68.00 q0.00-8.25 -5.625-13.875t-13.375-5.625l-74.25,0.00 q-8.25,0.00 -13.875,5.625t-5.625,13.875zM 151.00,51.50l0.00,67.50 q0.00,8.25 5.625,13.625t 13.875,5.375l 271.25,0.00 q 7.75,0.00 13.375-5.375t 5.625-13.625l0.00-67.50 q0.00-8.25 -5.625-13.875t-13.375-5.625 l-271.25,0.00 q-8.25,0.00 -13.875,5.625t-5.625,13.875zM 151.00,195.75l0.00,56.50 q0.00,8.25 5.625,13.50t 13.875,5.25l 271.25,0.00 q 7.75,0.00 13.375-5.375t 5.625-13.375l0.00-56.50 q0.00-8.25 -5.625-13.75t-13.375-5.50l-271.25,0.00 q-8.25,0.00 -13.875,5.625t-5.625,13.625zM 151.00,329.00l0.00,68.00 q0.00,7.75 5.625,13.375t 13.875,5.625l 271.25,0.00 q 7.75,0.00 13.375-5.625t 5.625-13.375l0.00-68.00  q0.00-8.25 -5.625-13.875t-13.375-5.625l-271.25,0.00 q-8.25,0.00 -13.875,5.625t-5.625,13.875z" horiz-adv-x="460.75" />
<glyph unicode="&#xf00d;" d="M0.00,80.125q0.00,9.625 7.25,16.875l 127.00,127.50l-127.00,125.00q-7.25,7.25 -7.25,16.875t 7.25,16.875l 25.00,25.00q 7.25,7.25 17.00,7.25t 16.75-7.25l 126.00-126.00l 126.00,126.00q 7.25,7.25 16.875,7.25t 16.875-7.25l 25.00-25.00q 7.25-7.25 7.25-17.00t-7.25-16.75l-127.00-127.50l 127.00-125.00q 7.25-7.25 7.25-16.625t-7.25-16.625l-25.00-25.50q-7.25-7.25 -17.00-7.25t-16.75,7.25l-126.00,126.25 l-126.50-126.25q-7.25-7.25 -16.625-7.25t-16.625,7.25l-25.00,25.00q-7.25,7.25 -7.25,16.875z" horiz-adv-x="384" />
<glyph unicode="&#xf011;" d="M0.00,210.25q0.00,46.50 21.50,87.25t 60.00,66.75q 3.00,2.50 7.00,1.50q 4.50-1.00 6.25-4.00l 22.50-32.75q 2.50-3.00 1.50-6.875t-4.00-6.375q-26.50-18.00 -41.125-45.625t-14.625-59.875q0.00-26.00 9.875-49.375t 27.125-40.50t 40.50-27.125t 49.25-10.00t 49.375,10.00t 40.875,27.125t 27.375,40.375t 9.875,49.50q0.00,32.25 -14.75,59.875t-41.00,45.625 q-3.50,2.50 -4.00,6.00q-1.00,4.00 1.50,7.25l 22.00,32.75q 2.50,3.00 6.375,3.75t 7.375-1.25q 38.50-26.00 60.00-66.75t 21.50-87.25q0.00-38.50 -14.625-72.25t-40.00-59.125t-59.375-40.00t-72.50-14.625t-72.25,14.625t-59.00,40.00t-39.875,59.125t-14.625,72.25zM 156.75,230.25l0.00,176.00 q0.00,4.00 2.75,6.875t 7.00,2.875l 39.25,0.00 q 4.00,0.00 6.875-2.875t 2.875-6.875l0.00-176.00  q0.00-4.00 -2.75-6.875t-7.00-2.875l-39.25,0.00 q-4.00,0.00 -6.875,2.75t-2.875,7.00z" horiz-adv-x="372" />
<glyph unicode="&#xf014;" d="M0.00,325.875l0.00,8.625 l0.00,9.00 t 0.50,9.00q 6.25,3.50 17.75,5.875t 24.50,3.875t 25.625,2.25t 19.625,1.25q-2.00,20.50 2.875,32.00t 14.875,17.125t 24.625,7.25t 32.875,1.625q 13.75,0.00 27.375-0.75t 24.375-5.125t 17.125-13.625t 6.375-26.25l0.00-6.00 t-0.50-6.25q 7.25-0.50 19.75-1.25t 25.625-2.25t 24.875-3.875t 18.00-5.875l0.00-18.00 l0.00-17.25 q-9.25-5.00 -30.75-8.125t-46.375-4.75t-48.375-1.875 t-37.50-0.25q-13.75,0.00 -37.50,0.25t-48.625,1.875t-46.125,4.625t-30.50,8.25q-0.50,4.00 -0.50,8.625zM 33.25,70.50l0.00,209.25 q 30.75-4.00 61.00-5.25t 61.00-1.25l 8.00,0.00 q 32.25,0.50 64.50,1.50t 64.50,5.00l0.00-209.25 q0.00-15.75 -11.00-27.125t-26.75-11.375l-182.75,0.00 q-15.75,0.00 -27.125,11.25t-11.375,27.25zM 75.75,81.75q0.00-4.00 2.625-6.625t 6.625-2.625l 9.75,0.00 q 4.00,0.00 6.875,2.50t 2.875,6.75l0.00,153.50  q0.00,4.00 -2.875,6.875t-6.875,2.875l-9.75,0.00 q-4.00,0.00 -6.625-2.875t-2.625-6.875l0.00-153.50 zM 126.00,378.00q0.00-2.50 0.25-5.50t 0.75-5.75q 36.00,0.50 72.75,0.00q0.00,3.00 0.50,5.875t0.00,5.375l0.00,3.75 q-8.75,2.50 -18.50,2.75t-18.50,0.25q-9.25,0.00 -18.875-0.25t-18.375-2.75l0.00-3.75 zM 149.00,81.75q0.00-4.00 2.50-6.625t 6.75-2.625l 9.75,0.00 q 4.00,0.00 6.875,2.50t 2.875,6.75l0.00,153.50 q0.00,4.00 -2.875,6.875 t-6.875,2.875l-9.75,0.00 q-4.00,0.00 -6.625-2.875t-2.625-6.875l0.00-153.50 zM 221.75,81.75q0.00-4.00 2.75-6.625t 7.00-2.625l 9.75,0.00 q 4.00,0.00 6.875,2.50t 2.875,6.75l0.00,153.50 q0.00,4.00 -2.875,6.875t-6.875,2.875l-9.75,0.00 q-4.00,0.00 -6.875-2.875t-2.875-6.875l0.00-153.50 z" horiz-adv-x="326" />
<glyph unicode="&#xf015;" d="M0.00,234.375q 0.50,3.875 3.50,6.625l 216.75,177.50q 6.75,5.00 14.75,5.25q 8.25,0.00 14.75-5.25l 60.00-49.00l0.00,25.50 q0.00,4.00 2.875,6.875t 6.875,2.875l 55.75,0.00 q 4.00,0.00 6.625-2.875t 2.625-6.875l0.00-87.00 l 82.00-67.00q 3.00-2.50 3.50-6.375t-2.00-7.125l-11.25-13.25q-2.50-3.50 -7.25-3.50l-16.25,0.00 q-4.00,0.00 -6.25,2.00l-185.75,152.00q-6.25,5.00 -12.50,0.00l-185.75-152.00q-2.00-2.00 -6.25-2.00 l-16.25,0.00 q-4.50,0.00 -7.25,3.50l-11.25,13.25q-2.50,3.00 -2.00,6.875zM 66.50,51.00l0.00,155.50 l 168.50,138.25l 168.50-138.25l0.00-155.50 q0.00-8.25 -5.375-13.625t-13.625-5.375l-105.50,0.00 l0.00,124.50 l-88.00,0.00 l0.00-124.50 l-105.50,0.00 q-8.25,0.00 -13.625,5.375t-5.375,13.625z" horiz-adv-x="470" />
<glyph unicode="&#xf018;" d="M 0.50,40.75l 148.50,366.50q 1.50,3.50 5.375,6.125t 7.875,2.625l 48.75,0.00 l-2.00-42.50l 43.00,0.00 l-2.25,42.50l 48.75,0.00 q 4.00,0.00 7.875-2.50t 5.375-6.25l 148.50-366.50q 1.50-3.50 -0.25-6.125t-5.75-2.625l-185.00,0.00 l-6.50,128.00l-64.50,0.00 l-6.75-128.00l-184.75,0.00 q-4.00,0.00 -5.875,2.50t-0.375,6.25zM 201.75,231.25l 57.25,0.00 l-5.00,103.25l-47.25,0.00 z" horiz-adv-x="460.75" />
<glyph unicode="&#xf026;" d="M0.00,176.50l0.00,95.00 q0.00,4.00 2.875,6.875t 6.875,2.875l 105.00,0.00 l 81.25,81.50q 12.25,12.75 21.00,9.25t 8.75-21.50l0.00-253.00 q0.00-18.00 -8.625-21.50t-21.125,9.25l-81.25,81.50l-105.00,0.00 q-4.00,0.00 -6.875,2.75t-2.875,7.00z" horiz-adv-x="226.25" />
<glyph unicode="&#xf027;" d="M0.00,176.50l0.00,95.00 q0.00,4.00 2.875,6.875t 6.875,2.875l 105.00,0.00 l 81.25,81.50q 12.25,12.75 21.00,9.25t 8.75-21.50l0.00-253.00 q0.00-18.00 -8.625-21.50t-21.125,9.25l-81.25,81.50l-105.00,0.00 q-4.00,0.00 -6.875,2.75t-2.875,7.00zM 256.75,133.50q-2.25,8.00 1.75,15.25q 21.00,36.25 21.00,75.25t-21.00,75.25q-4.00,7.25 -1.75,15.25t 9.50,12.00t 15.125,2.00t 12.125-9.25q 26.00-45.50 26.00-95.25q0.00-50.25 -26.00-95.25 q-5.75-10.25 -17.50-10.25q-5.00,0.00 -9.75,3.00q-7.25,4.00 -9.50,12.00z" horiz-adv-x="319.25" />
<glyph unicode="&#xf028;" d="M0.00,176.50l0.00,95.00 q0.00,4.00 2.875,6.875t 6.875,2.875l 105.00,0.00 l 81.25,81.50q 12.25,12.75 21.00,9.25t 8.75-21.50l0.00-253.00 q0.00-18.00 -8.625-21.50t-21.125,9.25l-81.25,81.50l-105.00,0.00 q-4.00,0.00 -6.875,2.75t-2.875,7.00zM 256.75,133.50q-2.25,8.00 1.75,15.25q 21.00,36.25 21.00,75.25t-21.00,75.25q-4.00,7.25 -1.75,15.25t 9.50,12.00t 15.125,2.00t 12.125-9.25q 26.00-45.50 26.00-95.25q0.00-50.25 -26.00-95.25 q-5.75-10.25 -17.50-10.25q-5.00,0.00 -9.75,3.00q-7.25,4.00 -9.50,12.00zM 321.25,86.75q-1.75,8.25 2.75,15.50q 35.25,56.25 35.50,121.75q0.00,65.50 -35.50,121.75q-4.50,7.25 -2.75,15.50t 9.00,12.25q 7.25,4.50 15.25,2.75t 12.50-9.00q 20.50-32.75 30.875-68.75t 10.375-74.50q0.00-77.25 -41.75-143.25q-2.50-4.50 -7.25-6.875t-9.25-2.375q-6.25,0.00 -10.75,3.00q-7.25,4.00 -9.00,12.25zM 385.00,40.25 q-1.50,8.25 3.00,14.75q 25.00,38.50 38.125,81.25t 13.125,87.75t-13.00,87.75t-38.25,80.75q-4.50,7.25 -3.00,15.375t 8.75,12.625q 7.25,4.00 15.25,2.625t 12.50-8.125q 28.75-43.50 43.25-91.625t 14.50-99.375t-14.625-99.375t-43.125-91.125q-2.50-4.50 -7.25-6.875t-9.25-2.375q-6.25,0.00 -11.25,3.25q-7.25,4.50 -8.75,12.75z" horiz-adv-x="479" />
<glyph unicode="&#xf029;" d="M0.00,32.00l0.00,174.50 l 174.50,0.00 l0.00-174.50 l-174.50,0.00 zM0.00,241.50l0.00,174.50 l 174.50,0.00 l0.00-174.50 l-174.50,0.00 zM 34.75,66.75l 105.00,0.00 l0.00,105.00 l-105.00,0.00 l0.00-105.00 zM 34.75,276.25l 105.00,0.00 l0.00,105.00 l-105.00,0.00 l0.00-105.00 zM 69.75,101.75l0.00,35.25 l 35.25,0.00 l0.00-35.25 l-35.25,0.00 zM 69.75,311.00l0.00,34.75 l 35.25,0.00 l0.00-34.75 l-35.25,0.00 zM 209.50,32.00l0.00,174.50 l 104.25,0.00 l0.00-34.75 l 35.50,0.00 l0.00,34.75 l 34.75,0.00 l0.00-104.75 l-105.00,0.00 l0.00,34.75 l-34.75,0.00 l0.00-104.50 l-34.75,0.00 zM 209.50,241.50l0.00,174.50 l 174.50,0.00 l0.00-174.50 l-174.50,0.00 z M 244.25,276.25l 105.00,0.00 l0.00,105.00 l-105.00,0.00 l0.00-105.00 zM 279.00,32.00l0.00,34.75 l 34.75,0.00 l0.00-34.75 l-34.75,0.00 zM 279.00,311.00l0.00,34.75 l 34.75,0.00 l0.00-34.75 l-34.75,0.00 zM 349.25,32.00l0.00,34.75 l 34.75,0.00 l0.00-34.75 l-34.75,0.00 z" horiz-adv-x="384" />
<glyph unicode="&#xf02b;" d="M0.00,272.25l0.00,113.50 q0.00,12.25 8.75,21.25t 21.50,9.00l 113.50,0.00 q 12.75,0.00 28.25-6.125t 23.50-15.375l 168.00-187.00q 8.25-9.75 8.50-22.00t-8.50-21.00l-131.50-131.50q-8.75-8.75 -21.50-9.00t-21.50,9.00l-167.50,187.50q-8.75,9.25 -15.125,24.00t-6.375,27.75zM 49.25,337.75q0.00-12.25 8.375-20.75t 20.625-8.50t 20.75,8.50t 8.50,20.75t-8.50,20.625t-20.75,8.375t-20.625-8.375t-8.375-20.625z" horiz-adv-x="372" />
<glyph unicode="&#xf02c;" d="M0.00,272.25l0.00,113.50 q0.00,12.25 8.75,21.25t 21.50,9.00l 113.50,0.00 q 6.25,0.00 13.375-1.50t 14.375-4.625t 13.625-7.00t 10.375-8.375l 167.50-187.00q 8.25-9.25 8.50-21.50t-8.50-21.00l-131.50-131.00q-8.75-8.75 -21.625-9.25t-20.875,9.25l-167.50,186.50q-8.75,9.75 -15.125,24.50t-6.375,27.25zM 48.75,337.75q0.00-11.75 8.625-20.50t 20.875-8.75q 11.75,0.00 20.50,8.75t 8.75,20.50q0.00,12.25 -8.75,20.875 t-20.50,8.625q-12.25,0.00 -20.875-8.625t-8.625-20.875zM 197.75,415.50l 43.50,0.00 q 12.75,0.00 28.125-6.125t 23.375-15.375l 167.50-187.00q 8.75-9.25 8.75-21.75t-8.75-21.25l-131.00-131.00q-8.75-8.75 -21.50-9.00t-21.50,9.00l-3.00,3.50l 128.50,128.50q 8.75,8.75 8.625,21.125t-8.625,21.375l-167.50,187.00q-7.75,8.75 -21.00,14.125t-25.50,6.875z" horiz-adv-x="468.75" />
<glyph unicode="&#xf031;" d="M0.00,32.00l 0.50,20.00q 2.50,1.00 7.375,2.00t 12.125,2.00q 23.00,4.50 27.00,8.25q 4.00,2.50 12.50,17.00l 58.25,153.50l 69.25,181.25l 18.25,0.00 l 13.25,0.00 l 2.75-5.00l 50.50-120.50q 8.25-19.50 16.00-37.875t 14.75-36.375q 7.25-18.00 13.125-32.50t 10.625-25.75q 3.00-7.25 7.125-17.50t 9.125-23.50q 5.75-16.50 16.00-37.50q 6.25-12.25 8.50-14.25q 5.00-4.50 17.00-6.00q 6.25-0.50 12.375-2.375t 13.125-4.375 q 1.50-9.25 1.75-13.75l0.00-2.625 t-0.75-4.125q-10.75,0.00 -22.50,0.50t-24.50,1.50q-13.25,1.00 -24.75,1.50t-21.75,0.50l-20.00,0.00 t-13.25-0.50l-49.75-2.50l-14.25-0.50q0.00,5.00 0.25,9.875t 0.75,9.625l 32.25,6.50q 14.25,3.50 16.75,6.25q 3.00,2.00 3.25,6.75q0.00,3.50 -1.75,7.50l-11.75,28.75l-22.50,56.75l-111.50,0.50q-3.00-7.25 -9.25-24.00t-16.50-44.50q-5.75-15.75 -5.50-21.00q0.00-6.75 4.00-10.75q 3.50-2.50 10.00-4.375t 15.75-3.375 q 3.50-1.00 21.00-3.00l0.00-14.75 q0.00-4.00 -0.50-6.75q-8.75,0.00 -30.25,1.25t-56.00,4.00l-12.25-2.25q-10.75-2.00 -20.75-2.75t-20.25-0.75l-5.00,0.00 zM 137.25,195.75q 33.75-0.50 54.00-1.00t 26.25,0.00l 7.25,0.50q-4.50,12.75 -10.125,27.875t-12.875,32.625t-12.875,30.50t-9.625,21.75z" horiz-adv-x="411" />
<glyph unicode="&#xf032;" d="M0.00,32.00l 0.50,23.50q 6.75,1.50 17.00,3.00q 9.75,1.50 17.375,3.375t 13.875,4.375q 2.00,3.50 3.25,6.625t 1.75,6.125q 1.50,8.25 2.00,20.25t 0.50,28.00l-0.50,124.50q-0.50,9.75 -0.75,34.75t-1.25,66.50q-1.00,22.00 -3.00,27.25q-1.00,2.00 -3.25,2.50q-5.00,3.50 -17.25,4.00q-5.75,0.00 -28.75,3.25l-1.00,21.00l 65.50,1.50l 95.75,3.00l 11.25,0.00 q 2.00,0.50 3.875,0.50l 3.375,0.00 t 5.375-0.25t 9.875-0.25l 19.00,0.00 q 23.00,0.00 48.25-6.75q 4.50-1.00 10.625-3.25 t 13.375-6.50q 15.75-7.75 26.00-18.75q 11.25-11.75 16.50-26.25q 2.50-7.25 3.75-14.625t 1.25-15.625q0.00-18.00 -8.00-32.25q-7.75-14.25 -23.75-26.00q-4.00-3.00 -13.50-7.625t-24.25-11.875q 44.50-10.25 67.00-36.25q 23.00-26.00 23.00-59.00q0.00-18.00 -7.00-40.50q-5.75-16.50 -18.00-29.00q-16.50-18.00 -35.25-27.25q-19.50-8.75 -51.25-14.75q-17.50-3.00 -49.75-2.75l-49.75,1.25 q-15.75,0.50 -34.50-0.625t-40.75-2.625q-6.25-0.50 -23.25-1.00t-45.25-1.50zM 134.25,386.75q0.00-3.00 0.25-7.875t 0.75-11.125q 0.50-12.75 1.00-29.875t0.00-39.625l0.00-24.50 l0.00-19.50 q 6.25-1.00 13.125-1.50t 14.375-0.50q 44.00,0.00 66.75,16.25q 22.50,16.50 22.50,56.25q0.00,28.25 -21.50,46.75q-21.00,19.00 -64.50,19.00q-13.25,0.00 -32.75-3.75zM 136.25,146.25l 1.00-67.75q0.00-4.00 2.50-10.75q 18.50-8.25 35.25-8.00 q 32.75,0.00 55.00,10.25q 20.50,9.75 30.50,28.00q 4.50,9.25 7.125,20.50t 2.625,25.00q0.00,28.25 -10.75,45.25q-14.75,23.50 -35.25,31.25q-20.00,8.25 -62.50,8.00q-9.25,0.00 -15.375-0.75t-10.125-1.75l0.00-35.75 l0.00-43.50 z" horiz-adv-x="354.75" />
<glyph unicode="&#xf033;" d="M0.00,32.00l 4.50,21.00q 3.00,1.00 8.00,2.25t 11.50,2.75q 10.25,2.50 17.75,4.875t 12.50,4.875q 7.25,9.75 10.25,25.75l 7.25,34.25l 14.25,67.00l 3.00,16.00q 5.75,29.75 10.375,44.50t 4.625,15.75l 7.50,39.00l 4.25,16.00l 5.50,33.75l 2.25,12.25l0.00,9.75 q-11.25,5.75 -37.00,7.00q-3.50,0.00 -5.875,0.375t-4.375,0.375l 5.25,26.00l 81.25-3.50q 7.75-0.50 12.375-0.50l 6.625,0.00 q 8.75,0.00 22.25,0.50t 33.00,1.50q 10.25,1.00 17.125,1.50t 9.625,0.50 q-0.50-2.50 -0.75-4.875t-0.75-4.875q-1.00-2.50 -1.875-5.625t-1.875-7.125q-12.25-4.00 -27.50-7.75q-16.50-4.00 -26.25-7.75q-3.00-8.25 -6.00-22.00q-1.50-6.25 -2.375-11.25t-1.375-9.25q-5.75-25.00 -10.00-43.875t-6.75-32.375l-16.00-77.75l-9.75-39.50l-10.75-58.75l-3.50-11.25l0.00-2.625 t 0.50-4.125q 8.75-2.00 16.125-3.25t 14.625-2.25q 1.00,0.00 5.375-0.625 l 11.375-1.625q-0.50-4.50 -0.75-8.125t-0.75-6.625q-0.50-1.50 -1.00-4.125t-1.50-5.625q-2.00,0.00 -3.50-0.25t-2.50-0.25q-4.50-0.50 -7.125-0.50l-3.625,0.00 l-2.875,0.00 t-4.375,1.00q-2.00,0.00 -11.25,1.00t-26.25,3.00l-50.50,0.50q-15.25,0.00 -45.25-3.00q-9.75-1.00 -15.875-1.50t-9.125-0.50z" horiz-adv-x="263.5" />
<glyph unicode="&#xf034;" d="M0.00,319.75q 3.50,9.25 8.625,27.625t 11.375,46.125q 2.00,8.25 3.25,13.625t 2.25,7.875l 14.50,0.00 q 1.00-1.50 1.50-2.50t 1.00-2.25q 7.25-14.25 10.25-17.75q 4.00-1.00 32.25-1.00q 8.75,0.00 16.625,0.25t 15.125,0.25l 5.00,0.50l 28.25,0.50l 53.25-0.50l 72.25,0.00 l 13.75,2.50q 2.50,2.00 6.75,13.25q 0.50,1.50 1.00,3.125t 1.50,4.125l 10.75,0.50l 2.625,0.00 t 4.125-0.50q 0.50-9.75 0.25-24.375t 0.25-34.625l0.00-25.00 l0.00-14.25 q0.00-3.50 -0.25-6.875t-0.75-5.875 q-5.00-2.00 -9.25-2.875t-7.75-1.875q-6.75,12.75 -13.25,32.25q-7.25,20.50 -9.25,23.00q-3.00,3.50 -6.75,5.25q-2.50,1.00 -15.00,1.00l-34.50,0.00 l-7.75,0.00 t-8.75-1.00q-1.50-10.75 -1.50-18.00l 0.50-37.75l0.00-83.50 l 0.50-89.75l0.00-36.75 q0.00-18.00 2.50-29.25q 2.00-1.00 5.375-2.00t 8.625-2.00q 1.00,0.00 5.25-1.00t 12.50-3.25q 6.75-2.50 12.25-4.50q 1.00-5.00 1.00-8.375l0.00-4.375 l0.00-2.875 t-0.50-4.375l-8.50,0.00 q-11.75,0.00 -22.00,0.50 t-19.00,1.50t-23.875,1.50t-37.125,0.50q-4.00,0.00 -14.25-1.00t-27.25-2.50q-7.25-0.50 -11.25-0.75t-6.00-0.25q0.00,2.50 -0.375,4.125t-0.375,2.625l-0.50,6.00l0.00,2.50 q 4.50,7.75 20.00,12.50q 23.50,6.75 33.75,12.25q 1.00,2.50 1.625,6.375t 1.125,7.875q 1.00,17.00 1.50,44.125t0.00,63.875l-1.00,107.00q-0.50,22.50 -0.50,35.625t-1.00,18.125q0.00,2.00 -1.75,3.75q-1.00,1.50 -3.00,1.50q-4.00,1.00 -15.75,1.00l-31.75,0.00 q-22.50,0.00 -29.75-5.25 q-10.25-7.25 -30.25-38.25q-5.75-8.75 -8.75-8.75q-5.75,3.00 -9.00,5.875t-4.75,4.875zM 345.75,358.375q-1.25,3.375 3.50,8.375l 46.00,46.25q 3.50,3.00 8.25,3.00q 3.50,0.00 7.75-3.00l 46.00-46.25q 4.50-5.00 3.25-8.375t-8.50-3.375l-29.50,0.00 l0.00-262.00 l 29.50,0.00 q 7.25,0.00 8.50-3.375t-3.25-7.875l-46.00-46.75q-4.00-3.00 -8.25-3.00q-4.00,0.00 -7.75,3.00l-46.00,46.75 q-4.50,4.50 -3.25,7.875t 7.75,3.375l 30.25,0.00 l0.00,262.00 l-30.25,0.00 q-6.75,0.00 -8.00,3.375z" horiz-adv-x="460.75" />
<glyph unicode="&#xf035;" d="M0.00,90.25q0.00,4.50 3.00,7.75l 46.75,46.25q 4.50,5.00 7.875,3.50t 3.375-8.25l0.00-30.25 l 262.00,0.00 l0.00,30.25 q0.00,6.75 3.375,8.25t 8.375-3.50l 46.25-46.25q 3.00-3.00 3.00-7.75q0.00-4.50 -3.00-7.50l-46.25-46.75q-5.00-4.50 -8.375-3.25t-3.375,8.50l0.00,29.75 l-262.00,0.00 l0.00-29.75 q0.00-7.25 -3.375-8.50t-7.875,3.25l-46.75,46.75q-3.00,3.00 -3.00,7.50zM0.00,340.25q 3.50,7.25 8.375,21.75 t 11.125,36.50q 1.50,6.75 2.75,10.875t 2.25,6.625l 14.00,0.00 q 2.00-3.00 2.50-3.50q 6.75-11.75 9.25-14.50q 0.50,0.00 8.875-0.25t 19.375-0.25l 22.625,0.00 l 18.625,0.00 l 30.75,0.00 l 4.75,0.50l 27.00,0.00 l 50.75,0.00 l 104.00,0.00 l 13.25,1.50q 3.00,2.50 6.00,11.50l 1.125,2.25l 1.625,3.25l 9.75,0.00 l 7.00,0.00 l0.00-47.00 l0.00-20.00 l0.00-11.25 q0.00-3.00 -0.25-5.375t-0.75-4.875q-8.25-2.50 -15.75-3.75q-6.25,9.25 -13.00,25.75q-6.75,14.75 -8.50,18.50q-3.00,2.50 -6.75,3.50q-1.50,0.50 -10.50,0.75 t-21.25,0.25l-25.875,0.00 l-24.375,0.00 l-7.125,0.00 t-8.625-0.50q-0.50-4.50 -0.75-8.125t-0.25-6.125l 1.00-111.25l-0.50-29.75q0.00-15.25 3.00-23.00q 3.00-1.50 13.25-3.00q 1.00,0.00 5.125-1.00t 11.375-2.50q 3.50-1.00 6.625-1.875t 5.625-1.875q 0.50-4.00 0.75-6.375t 0.25-3.375t-0.25-2.50t-0.25-3.50l-8.25,0.00 q-23.50,0.00 -39.25,1.50q-16.50,1.50 -59.00,1.50q-3.50,0.00 -13.25-0.75t-26.25-1.75q-6.75-0.50 -10.75-0.75 t-6.00-0.25q0.00,4.00 -0.50,5.00l0.00,5.25 l0.00,2.00 q 5.00,6.75 18.25,9.75q 22.50,5.00 33.00,10.25q 1.00,2.00 1.50,4.75t 1.00,6.50q0.00,4.50 0.25,17.625t 0.25,30.00t-0.25,35.50t-0.50,34.75t-0.50,26.875t-0.25,11.75q0.00,2.00 -1.50,3.25q-0.50,0.50 -3.25,1.50q-3.50,0.50 -14.75,0.50l-30.75,0.00 q-5.00,0.00 -15.50-0.25t-21.25-0.50t-19.50-1.00t-10.25-1.75q-10.25-6.25 -29.25-30.75q-5.00-7.25 -8.25-7.25q-5.75,2.50 -8.75,4.875t-4.50,3.875z" horiz-adv-x="384" />
<glyph unicode="&#xf036;" d="M0.00,51.50l0.00,28.75 q0.00,7.75 5.625,13.25t 13.875,5.50l 422.25,0.00 q 7.75,0.00 13.375-5.625t 5.625-13.125l0.00-28.75 q0.00-8.25 -5.625-13.875t-13.375-5.625l-422.25,0.00 q-8.25,0.00 -13.875,5.625t-5.625,13.875zM0.00,157.00l0.00,28.50 q0.00,8.25 5.625,13.875t 13.875,5.625l 268.75,0.00 q 7.75,0.00 13.375-5.625t 5.625-13.875l0.00-28.50 q0.00-8.25 -5.625-13.875t-13.375-5.625l-268.75,0.00  q-8.25,0.00 -13.875,5.625t-5.625,13.875zM0.00,262.50l0.00,28.50 q0.00,8.25 5.625,13.875t 13.875,5.625l 384.00,0.00 q 7.75,0.00 13.375-5.625t 5.625-13.875l0.00-28.50 q0.00-8.25 -5.625-13.625t-13.375-5.375l-384.00,0.00 q-8.25,0.00 -13.875,5.375t-5.625,13.625zM0.00,367.75l0.00,29.25 q0.00,7.75 5.625,13.375t 13.875,5.625l 230.25,0.00 q 7.75,0.00 13.375-5.625t 5.625-13.375l0.00-29.25 q0.00-7.75 -5.625-13.25 t-13.375-5.50l-230.25,0.00 q-8.25,0.00 -13.875,5.625t-5.625,13.125z" horiz-adv-x="460.75" />
<glyph unicode="&#xf037;" d="M0.00,51.50l0.00,28.75 q0.00,7.75 5.625,13.25t 13.875,5.50l 422.25,0.00 q 7.75,0.00 13.375-5.625t 5.625-13.125l0.00-28.75 q0.00-8.25 -5.625-13.875t-13.375-5.625l-422.25,0.00 q-8.25,0.00 -13.875,5.625t-5.625,13.875zM 19.50,262.50l0.00,28.50 q0.00,8.25 5.375,13.875t 13.625,5.625l 384.00,0.00 q 8.25,0.00 13.75-5.625t 5.50-13.875l0.00-28.50 q0.00-8.25 -5.625-13.625t-13.625-5.375l-384.00,0.00  q-8.25,0.00 -13.625,5.375t-5.375,13.625zM 76.75,157.00l0.00,28.50 q0.00,8.25 5.625,13.875t 13.875,5.625l 268.75,0.00 q 7.75,0.00 13.375-5.625t 5.625-13.875l0.00-28.50 q0.00-8.25 -5.625-13.875t-13.375-5.625l-268.75,0.00 q-8.25,0.00 -13.875,5.625t-5.625,13.875zM 96.25,367.75l0.00,29.25 q0.00,7.75 5.375,13.375t 13.625,5.625l 230.25,0.00 q 8.25,0.00 13.875-5.625t 5.625-13.375l0.00-29.25  q0.00-7.75 -5.625-13.25t-13.875-5.50l-230.25,0.00 q-8.25,0.00 -13.625,5.625t-5.375,13.125z" horiz-adv-x="460.75" />
<glyph unicode="&#xf038;" d="M0.00,51.50l0.00,28.75 q0.00,7.75 5.625,13.25t 13.875,5.50l 422.25,0.00 q 7.75,0.00 13.375-5.625t 5.625-13.125l0.00-28.75 q0.00-8.25 -5.625-13.875t-13.375-5.625l-422.25,0.00 q-8.25,0.00 -13.875,5.625t-5.625,13.875zM 38.50,262.50l0.00,28.50 q0.00,8.25 5.625,13.875t 13.625,5.625l 384.00,0.00 q 7.75,0.00 13.375-5.625t 5.625-13.875l0.00-28.50 q0.00-8.25 -5.625-13.625t-13.375-5.375l-384.00,0.00  q-8.25,0.00 -13.75,5.375t-5.50,13.625zM 153.50,157.00l0.00,28.50 q0.00,8.25 5.625,13.875t 13.875,5.625l 268.75,0.00 q 7.75,0.00 13.375-5.625t 5.625-13.875l0.00-28.50 q0.00-8.25 -5.625-13.875t-13.375-5.625l-268.75,0.00 q-8.25,0.00 -13.875,5.625t-5.625,13.875zM 192.00,367.75l0.00,29.25 q0.00,7.75 5.625,13.375t 13.875,5.625l 230.25,0.00 q 7.75,0.00 13.375-5.625t 5.625-13.375l0.00-29.25 q0.00-7.75 -5.625-13.25 t-13.375-5.50l-230.25,0.00 q-8.25,0.00 -13.875,5.625t-5.625,13.125z" horiz-adv-x="460.75" />
<glyph unicode="&#xf039;" d="M0.00,51.50l0.00,28.75 q0.00,7.75 5.625,13.25t 13.875,5.50l 422.25,0.00 q 7.75,0.00 13.375-5.625t 5.625-13.125l0.00-28.75 q0.00-8.25 -5.625-13.875t-13.375-5.625l-422.25,0.00 q-8.25,0.00 -13.875,5.625t-5.625,13.875zM0.00,157.00l0.00,28.50 q0.00,8.25 5.625,13.875t 13.875,5.625l 422.25,0.00 q 7.75,0.00 13.375-5.625t 5.625-13.875l0.00-28.50 q0.00-8.25 -5.625-13.875t-13.375-5.625l-422.25,0.00  q-8.25,0.00 -13.875,5.625t-5.625,13.875zM0.00,262.50l0.00,28.50 q0.00,8.25 5.625,13.875t 13.875,5.625l 422.25,0.00 q 7.75,0.00 13.375-5.625t 5.625-13.875l0.00-28.50 q0.00-8.25 -5.625-13.625t-13.375-5.375l-422.25,0.00 q-8.25,0.00 -13.875,5.375t-5.625,13.625zM0.00,367.75l0.00,29.25 q0.00,7.75 5.625,13.375t 13.875,5.625l 422.25,0.00 q 7.75,0.00 13.375-5.625t 5.625-13.375l0.00-29.25  q0.00-7.75 -5.625-13.25t-13.375-5.50l-422.25,0.00 q-8.25,0.00 -13.875,5.625t-5.625,13.125z" horiz-adv-x="460.75" />
<glyph unicode="&#xf03b;" d="M0.00,221.00l0.00,18.75 q0.00,9.75 9.75,9.75l 53.25,0.00 l0.00,38.50 q0.00,7.75 4.125,9.25t 9.625-4.25l 53.75-53.75q 4.00-4.00 4.25-9.00q0.00-4.50 -4.25-8.75l-53.75-53.75q-5.75-5.75 -9.75-4.25t-4.00,9.75l0.00,38.00 l-53.25,0.00 q-9.75,0.00 -9.75,9.75zM 153.50,41.75l0.00,364.50 q0.00,9.75 9.75,9.75l 19.00,0.00 q 9.75,0.00 9.75-9.75l0.00-364.50 q0.00-9.75 -9.75-9.75l-19.00,0.00 q-9.75,0.00 -9.75,9.75zM 230.50,51.50l0.00,28.75 q0.00,7.75 5.625,13.25t 13.625,5.50 l 192.00,0.00 q 7.75,0.00 13.375-5.625t 5.625-13.125l0.00-28.75 q0.00-8.25 -5.625-13.875t-13.375-5.625l-192.00,0.00 q-8.25,0.00 -13.75,5.625t-5.50,13.875zM 230.50,157.00l0.00,28.50 q0.00,8.25 5.625,13.875t 13.625,5.625l 153.75,0.00 q 7.75,0.00 13.375-5.625t 5.625-13.875l0.00-28.50 q0.00-8.25 -5.625-13.875t-13.375-5.625l-153.75,0.00 q-8.25,0.00 -13.75,5.625t-5.50,13.875zM 230.50,262.50l0.00,28.50  q0.00,8.25 5.625,13.875t 13.625,5.625l 172.75,0.00 q 8.25,0.00 13.75-5.625t 5.50-13.875l0.00-28.50 q0.00-8.25 -5.625-13.625t-13.625-5.375l-172.75,0.00 q-8.25,0.00 -13.75,5.375t-5.50,13.625zM 230.50,367.75l0.00,29.25 q0.00,7.75 5.625,13.375t 13.625,5.625l 134.25,0.00 q 8.25,0.00 13.875-5.625t 5.625-13.375l0.00-29.25 q0.00-7.75 -5.625-13.25t-13.875-5.50l-134.25,0.00 q-8.25,0.00 -13.75,5.625t-5.50,13.125z" horiz-adv-x="460.75" />
<glyph unicode="&#xf03c;" d="M0.00,51.50l0.00,28.75 q0.00,7.75 5.625,13.25t 13.375,5.50l 192.00,0.00 q 8.25,0.00 13.875-5.625t 5.625-13.125l0.00-28.75 q0.00-8.25 -5.625-13.875t-13.875-5.625l-192.00,0.00 q-7.75,0.00 -13.375,5.625t-5.625,13.875zM0.00,157.00l0.00,28.50 q0.00,8.25 5.625,13.875t 13.375,5.625l 153.50,0.00 q 8.25,0.00 13.875-5.625t 5.625-13.875l0.00-28.50 q0.00-8.25 -5.625-13.875t-13.875-5.625l-153.50,0.00  q-7.75,0.00 -13.375,5.625t-5.625,13.875zM0.00,262.50l0.00,28.50 q0.00,8.25 5.625,13.875t 13.375,5.625l 173.00,0.00 q 7.75,0.00 13.375-5.625t 5.625-13.875l0.00-28.50 q0.00-8.25 -5.625-13.625t-13.375-5.375l-173.00,0.00 q-7.75,0.00 -13.375,5.375t-5.625,13.625zM0.00,367.75l0.00,29.25 q0.00,7.75 5.625,13.375t 13.375,5.625l 134.50,0.00 q 7.75,0.00 13.375-5.625t 5.625-13.375l0.00-29.25 q0.00-7.75 -5.625-13.25 t-13.375-5.50l-134.50,0.00 q-7.75,0.00 -13.375,5.625t-5.625,13.125zM 268.75,41.75l0.00,364.50 q0.00,9.75 9.75,9.75l 19.00,0.00 q 4.00,0.00 6.875-2.875t 2.875-6.875l0.00-364.50 q0.00-4.00 -2.875-6.875t-6.875-2.875l-19.00,0.00 q-9.75,0.00 -9.75,9.75zM 326.25,217.75q0.00,4.00 3.50,8.75l 54.25,53.75q 5.75,5.75 9.50,4.25t 3.75-9.75l0.00-38.00 l 53.75,0.00 q 4.00,0.00 6.875-2.75t 2.875-7.00l0.00-18.75 q0.00-4.00 -2.75-6.875 t-7.00-2.875l-53.75,0.00 l0.00-38.50 q0.00-7.75 -3.75-9.50t-9.50,3.75l-54.25,54.50q-3.50,4.50 -3.50,9.00z" horiz-adv-x="460.75" />
<glyph unicode="&#xf042;" d="M0.00,224.00q0.00,41.50 15.625,77.875t 42.75,63.50t 63.50,42.75t 77.875,15.625t 77.75-15.625t 63.50-42.75t 42.75-63.50t 15.50-77.875t-15.50-77.875t-42.75-63.50t-63.50-42.75t-77.75-15.625t-77.875,15.625t-63.50,42.75t-42.75,63.50t-15.625,77.875zM 60.00,224.00q0.00-29.25 11.00-54.50t 29.875-44.25t 44.25-30.00t 54.625-11.00l0.00,279.50 q-29.25,0.00 -54.625-11.00 t-44.25-30.00t-29.875-44.25t-11.00-54.50z" horiz-adv-x="399.25" />
<glyph unicode="&#xf045;" d="M0.00,108.75l0.00,230.50 q0.00,15.75 6.125,29.875t 16.375,24.375t 24.375,16.375t 29.875,6.125l 209.00,0.00 q-1.50-7.75 -1.50-15.75l0.00-13.00 q-41.00-5.00 -77.50-19.50l-130.00,0.00 q-11.75,0.00 -20.125-8.375t-8.375-20.125l0.00-230.50 q0.00-11.75 8.375-20.125t 20.125-8.375l 268.75,0.00 q 11.75,0.00 20.25,8.375t 8.50,20.125l0.00,27.75 q 4.00,2.50 7.875,5.375t 8.125,6.875l 32.25,31.75l0.00-71.75 q0.00-15.75 -6.25-29.625 t-16.75-24.375t-24.25-16.625t-29.75-6.125l-268.75,0.00 q-15.75,0.00 -29.875,6.125t-24.375,16.625t-16.375,24.375t-6.125,29.625zM 96.25,129.125l0.00,9.375 q0.00,41.50 14.125,78.125t 43.25,64.00t 73.375,43.25t 104.75,16.375l0.00,57.75 q0.00,14.25 7.125,17.375t 17.375-7.125l 98.00-97.75q 6.75-6.25 6.50-16.25q0.00-9.75 -6.50-16.00l-98.00-97.75q-10.25-10.25 -17.375-7.125 t-7.125,17.375l0.00,65.00 q-51.75,0.00 -91.125-10.75t-66.50-29.125t-42.50-43.50t-19.375-53.875q-1.00-6.75 -7.75-6.75q-6.25,0.00 -7.25,6.75q-1.00,5.75 -1.00,10.625z" horiz-adv-x="460.75" />
<glyph unicode="&#xf046;" d="M0.00,108.75l0.00,230.50 q0.00,15.75 6.125,29.875t 16.375,24.375t 24.375,16.375t 29.875,6.125l 268.75,0.00 q 6.75,0.00 13.00-1.50l-46.75-46.75l-235.00,0.00 q-11.75,0.00 -20.125-8.375t-8.375-20.125l0.00-230.50 q0.00-11.75 8.375-20.125t 20.125-8.375l 268.75,0.00 q 11.75,0.00 20.25,8.375t 8.50,20.125l0.00,81.50 l 48.25,48.00l0.00-129.50 q0.00-15.75 -6.25-29.625t-16.75-24.375t-24.25-16.625t-29.75-6.125l-268.75,0.00  q-15.75,0.00 -29.875,6.125t-24.375,16.625t-16.375,24.375t-6.125,29.625zM 96.25,273.625q0.00,8.125 5.75,13.875l 24.50,24.50q 5.75,5.75 13.875,5.75t 13.625-5.75l 85.00-85.00l 163.50,164.00q 5.75,5.75 14.125,5.625t 13.875-5.625l 24.75-24.75q 5.75-5.75 5.625-13.875t-5.625-13.625l-177.75-177.75l-24.50-24.50q-5.75-5.75 -13.875-5.75t-13.875,5.75l-25.00,24.50l-98.25,98.75 q-5.75,5.75 -5.75,13.875z" horiz-adv-x="460.75" />
<glyph unicode="&#xf047;" d="M0.00,224.00q0.00,6.25 4.50,10.75l 64.00,64.00q 6.75,6.75 11.375,4.875t 4.625-11.625l0.00-42.50 l 90.00,0.00 l0.00,89.75 l-43.00,0.00 q-9.25,0.00 -11.25,4.625t 4.75,11.125l 64.00,64.00q 4.50,4.50 10.75,4.75q 6.25,0.00 10.75-4.75l 64.00-64.00q 6.75-6.75 4.875-11.25t-11.625-4.50l-43.00,0.00 l0.00-89.75 l 90.25,0.00 l0.00,42.50 q0.00,9.75 4.50,11.625t 11.25-4.875l 64.00-64.00q 4.50-4.50 4.50-10.75t-4.50-10.75l-64.00-64.00 q-6.75-6.75 -11.25-4.875t-4.50,11.625l0.00,44.00 l-90.25,0.00 l0.00-91.25 l 43.00,0.00 q 9.75,0.00 11.75-4.625t-5.00-11.125l-64.00-64.00q-4.50-4.50 -10.75-4.75q-6.25,0.00 -10.75,4.75l-64.00,64.00q-6.75,6.75 -5.00,11.25t 11.50,4.50l 43.00,0.00 l0.00,91.25 l-90.00,0.00 l0.00-44.00 q0.00-9.75 -4.625-11.625t-11.375,4.875l-64.00,64.00q-4.50,4.50 -4.50,10.75z" horiz-adv-x="399.25" />
<glyph unicode="&#xf048;" d="M0.00,51.00q0.00-7.75 5.625-13.375t 13.375-5.625l 38.25,0.00 q 8.25,0.00 13.875,5.625t 5.625,13.375l0.00,345.50 q0.00,8.25 -5.625,13.875t-13.875,5.625l-38.25,0.00 q-7.75,0.00 -13.375-5.625t-5.625-13.875l0.00-345.50 zM 76.875,224.00q-0.125,6.75 4.125,10.75l 163.25,176.75q 3.50,4.50 10.25,4.50q 1.50,0.00 5.50-1.00q 8.75-4.50 8.75-14.75l0.00-353.00 q0.00-10.25 -8.75-14.25q-9.75-3.50 -15.75,3.50l-163.25,176.25 q-4.00,4.50 -4.125,11.25z" horiz-adv-x="268.75" />
<glyph unicode="&#xf049;" d="M0.00,51.00q0.00-7.75 5.625-13.375t 13.375-5.625l 38.25,0.00 q 8.25,0.00 13.875,5.625t 5.625,13.375l0.00,345.50 q0.00,8.25 -5.625,13.875t-13.875,5.625l-38.25,0.00 q-7.75,0.00 -13.375-5.625t-5.625-13.875l0.00-345.50 zM 76.875,224.00q-0.125,6.75 4.125,10.75l 163.25,176.75q 3.50,4.50 10.25,4.50q 1.50,0.00 5.50-1.00q 8.75-4.50 8.75-14.75l0.00-353.00 q0.00-10.25 -8.75-14.25q-9.75-3.50 -15.75,3.50l-163.25,176.25 q-4.00,4.50 -4.125,11.25zM 268.875,224.00q-0.125,6.75 4.125,10.75l 163.25,176.75q 3.50,4.50 10.25,4.50q 1.50,0.00 5.50-1.00q 8.75-4.50 8.75-14.75l0.00-353.00 q0.00-10.25 -8.75-14.25q-9.75-3.50 -15.75,3.50l-163.25,176.25q-4.00,4.50 -4.125,11.25z" horiz-adv-x="460.75" />
<glyph unicode="&#xf04a;" d="M0.00,223.75q0.00,6.50 4.00,11.00l 163.50,176.75q 3.50,4.50 10.25,4.50q 2.50,0.00 5.50-1.50q 8.75-3.50 8.75-14.25l0.00-353.00 q0.00-10.25 -8.75-14.25q-9.25-4.00 -15.75,3.50l-163.50,176.25q-4.00,4.50 -4.00,11.00zM 192.00,223.75q0.00,6.50 4.00,11.00l 163.50,176.75q 3.50,4.50 10.25,4.50q 2.50,0.00 5.50-1.50q 8.75-3.50 8.75-14.25l0.00-353.00 q0.00-10.25 -8.75-14.25q-9.25-4.00 -15.75,3.50l-163.50,176.25q-4.00,4.50 -4.00,11.00z" horiz-adv-x="384" />
<glyph unicode="&#xf04b;" d="M0.00,49.50l0.00,349.00 q0.00,9.75 8.75,15.00q 9.25,5.75 17.25,0.00l 302.75-174.25q 8.75-6.25 8.75-15.25q0.00-9.25 -8.75-15.25l-302.75-174.25q-4.00-2.50 -8.50-2.50t-8.75,2.50q-8.75,5.00 -8.75,15.00z" horiz-adv-x="337.25" />
<glyph unicode="&#xf04c;" d="M0.00,49.50l0.00,349.00 q0.00,7.25 5.125,12.375t 12.375,5.125l 122.25,0.00 q 7.25,0.00 12.375-5.125t 5.125-12.375l0.00-349.00 q0.00-7.25 -5.125-12.375t-12.375-5.125l-122.25,0.00 q-7.25,0.00 -12.375,5.125t-5.125,12.375zM 226.75,49.50l0.00,349.00 q0.00,7.25 5.125,12.375t 12.375,5.125l 122.25,0.00 q 7.25,0.00 12.375-5.125t 5.125-12.375l0.00-349.00 q0.00-7.25 -5.125-12.375t-12.375-5.125l-122.25,0.00  q-7.25,0.00 -12.375,5.125t-5.125,12.375z" horiz-adv-x="384" />
<glyph unicode="&#xf04d;" d="M0.00,49.50l0.00,349.00 q0.00,7.25 5.125,12.375t 12.375,5.125l 349.00,0.00 q 7.25,0.00 12.375-5.125t 5.125-12.375l0.00-349.00 q0.00-7.25 -5.125-12.375t-12.375-5.125l-349.00,0.00 q-7.25,0.00 -12.375,5.125t-5.125,12.375z" horiz-adv-x="384" />
<glyph unicode="&#xf04e;" d="M0.00,47.25l0.00,353.50 q0.00,9.75 8.75,14.25q 9.75,3.50 15.75-3.50l 163.50-176.25q 4.00-4.50 4.00-11.25t-4.00-11.25l-163.50-176.25q-4.00-4.50 -10.25-4.50q-1.50,0.00 -5.50,1.00q-8.75,4.00 -8.75,14.25zM 192.00,47.25l0.00,353.50 q0.00,9.75 8.75,14.25q 9.75,3.50 15.75-3.50l 163.50-176.25q 4.00-4.50 4.00-11.25t-4.00-11.25l-163.50-176.25q-4.00-4.50 -10.25-4.50q-1.50,0.00 -5.50,1.00q-8.75,4.00 -8.75,14.25z" horiz-adv-x="384" />
<glyph unicode="&#xf050;" d="M0.00,47.25l0.00,353.50 q0.00,9.75 8.75,14.25q 9.75,3.50 15.75-3.50l 163.50-176.25q 4.00-4.50 4.00-11.25t-4.00-11.25l-163.50-176.25q-4.00-4.50 -10.25-4.50q-1.50,0.00 -5.50,1.00q-8.75,4.00 -8.75,14.25zM 192.00,47.25l0.00,353.50 q0.00,9.75 8.75,14.25q 9.75,3.50 15.75-3.50l 163.50-176.25q 4.00-4.50 4.00-11.25t-4.00-11.25l-163.50-176.25q-4.00-4.50 -10.25-4.50q-1.50,0.00 -5.50,1.00q-8.75,4.00 -8.75,14.25zM 384.00,51.00 q0.00-7.75 5.625-13.375t 13.375-5.625l 38.25,0.00 q 8.25,0.00 13.875,5.625t 5.625,13.375l0.00,345.50 q0.00,8.25 -5.625,13.875t-13.875,5.625l-38.25,0.00 q-7.75,0.00 -13.375-5.625t-5.625-13.875l0.00-345.50 z" horiz-adv-x="460.75" />
<glyph unicode="&#xf051;" d="M0.00,47.25l0.00,353.50 q0.00,9.75 8.75,14.25q 9.75,3.50 15.75-3.50l 163.50-176.25q 4.00-4.50 4.00-11.25t-4.00-11.25l-163.50-176.25q-4.00-4.50 -10.25-4.50q-1.50,0.00 -5.50,1.00q-8.75,4.00 -8.75,14.25zM 192.00,51.00q0.00-7.75 5.625-13.375t 13.375-5.625l 38.25,0.00 q 8.25,0.00 13.875,5.625t 5.625,13.375l0.00,345.50 q0.00,8.25 -5.625,13.875t-13.875,5.625l-38.25,0.00 q-7.75,0.00 -13.375-5.625t-5.625-13.875 l0.00-345.50 z" horiz-adv-x="268.75" />
<glyph unicode="&#xf052;" d="M0.00,49.50l0.00,49.50 q0.00,7.25 5.125,12.375t 12.375,5.125l 349.00,0.00 q 7.25,0.00 12.375-5.125t 5.125-12.375l0.00-49.50 q0.00-7.25 -5.125-12.375t-12.375-5.125l-349.00,0.00 q-7.25,0.00 -12.375,5.125t-5.125,12.375zM 1.50,180.50q-4.50,10.75 3.50,19.00l 174.75,174.50q 5.00,5.00 12.25,5.125t 12.25-5.125l 174.75-174.50q 8.25-8.25 3.50-19.00q-4.00-10.75 -16.00-10.75l-349.00,0.00 q-11.75,0.00 -16.00,10.75z" horiz-adv-x="384" />
<glyph unicode="&#xf053;" d="M0.00,223.25q0.00,9.50 7.25,16.50l 167.75,168.50q 7.25,7.25 17.00,7.25t 17.00-7.25l 25.00-25.00q 7.25-7.25 7.25-17.00t-7.25-16.75l-127.00-127.50l 127.00-125.00q 7.25-7.25 7.25-16.625t-7.25-16.625l-25.00-25.50q-7.25-7.25 -17.00-7.25t-17.00,7.25l-167.75,168.25q-7.25,7.25 -7.25,16.75z" horiz-adv-x="241" />
<glyph unicode="&#xf054;" d="M0.00,80.625q0.00,9.625 7.25,16.875l 127.00,127.00l-127.00,125.50q-7.25,7.25 -7.25,16.625t 7.25,16.625l 25.00,25.50q 7.25,7.25 17.00,7.25t 16.75-7.25l 168.00-168.25q 7.25-7.25 7.25-17.00t-7.25-17.00l-168.00-167.75q-7.25-7.25 -16.875-7.25t-16.875,7.25l-25.00,25.00q-7.25,7.25 -7.25,16.875z" horiz-adv-x="241" />
<glyph unicode="&#xf05c;" d="M0.00,224.00q0.00,41.50 15.625,77.875t 42.75,63.50t 63.50,42.75t 77.875,15.625t 77.75-15.625t 63.50-42.75t 42.75-63.50t 15.50-77.875t-15.50-77.875t-42.75-63.50t-63.50-42.75t-77.75-15.625t-77.875,15.625t-63.50,42.75t-42.75,63.50t-15.625,77.875zM 60.00,224.00q0.00-29.25 11.00-54.50t 29.875-44.25t 44.25-30.00t 54.625-11.00t 54.50,11.00t 44.25,30.00t 30.00,44.25 t 11.00,54.50t-11.00,54.50t-30.00,44.25t-44.375,30.00t-54.375,11.00q-29.25,0.00 -54.625-11.00t-44.25-30.00t-29.875-44.25t-11.00-54.50zM 112.75,175.375q0.00,4.125 3.00,7.125l 41.50,41.50l-41.50,41.50q-3.00,3.00 -3.00,7.125t 3.00,7.125l 28.00,28.25q 7.25,7.25 14.50,0.00l 41.50-41.50l 41.50,41.50q 7.25,7.25 14.25,0.00l 28.25-28.25q 7.25-7.25 0.00-14.25l-41.50-41.50l 41.50-41.50 q 7.25-7.25 0.00-14.25l-28.25-28.25q-3.00-3.00 -7.125-3.00t-7.125,3.00l-41.50,41.50l-41.50-41.50q-3.00-3.00 -7.125-3.00t-7.375,3.00l-28.00,28.25q-3.00,3.00 -3.00,7.125z" horiz-adv-x="399.25" />
<glyph unicode="&#xf05d;" d="M0.00,224.00q0.00,41.50 15.625,77.875t 42.75,63.50t 63.50,42.75t 77.875,15.625t 77.75-15.625t 63.50-42.75t 42.75-63.50t 15.50-77.875t-15.50-77.875t-42.75-63.50t-63.50-42.75t-77.75-15.625t-77.875,15.625t-63.50,42.75t-42.75,63.50t-15.625,77.875zM 60.00,224.00q0.00-29.25 11.00-54.50t 29.875-44.25t 44.25-30.00t 54.625-11.00t 54.50,11.00t 44.25,30.00t 30.00,44.25 t 11.00,54.50t-11.00,54.50t-30.00,44.25t-44.375,30.00t-54.375,11.00q-29.25,0.00 -54.625-11.00t-44.25-30.00t-29.875-44.25t-11.00-54.50zM 83.00,211.375q0.00,4.375 2.50,6.875l 28.75,28.75q 2.50,2.50 6.875,2.50t 6.875-2.50l 44.50-45.00q 7.25-6.25 14.50,0.00l 84.25,85.00q 2.50,2.50 6.875,2.50t 7.125-2.50l 28.50-28.75q 2.50-2.50 2.625-6.875t-2.625-6.875l-102.25-102.50 q-3.00-3.00 -8.125-5.00t-9.375-2.00l-28.50,0.00 q-4.00,0.00 -9.25,2.00t-8.25,5.00l-62.50,62.50q-2.50,2.50 -2.50,6.875z" horiz-adv-x="399.25" />
<glyph unicode="&#xf064;" d="M0.00,65.75q0.00,52.25 17.875,98.375t 54.50,80.625t 92.75,54.75t 132.875,20.75l0.00,73.25 q0.00,18.00 9.00,21.75t 22.25-9.00l 122.75-123.25q 8.75-8.25 8.75-20.50q0.00-11.75 -8.75-20.50l-122.75-123.50q-12.75-12.75 -22.00-8.875t-9.25,21.625l0.00,82.50 q-65.50-0.50 -115.25-14.125t-84.00-36.875t-53.75-54.75t-24.50-67.75q-1.00-8.25 -9.25-8.25l-0.50,0.00 q-8.25,0.00 -9.25,8.25q-1.50,12.75 -1.50,25.50z" horiz-adv-x="460.75" />
<glyph unicode="&#xf065;" d="M0.00,53.50l0.00,130.50 q0.00,13.25 6.625,16.125t 16.375-6.375l 41.50-41.50l 68.50,68.75q 3.00,3.00 7.75,3.00t 8.25-3.00l 40.00-40.00q 3.00-3.50 3.00-8.125t-3.00-7.875l-68.75-68.50l 41.50-41.50q 9.75-9.75 6.75-16.375t-16.50-6.625l-130.00,0.00 q-9.25,0.00 -15.25,6.25q-6.75,6.75 -6.75,15.25zM 192.00,275.125q0.00,4.625 3.00,7.875l 68.75,68.50l-41.50,41.50q-9.75,9.75 -6.75,16.375t 16.50,6.625 l 130.00,0.00 q 9.25,0.00 15.25-6.25q 6.75-6.75 6.75-15.25l0.00-130.50 q0.00-13.25 -6.625-16.125t-16.375,6.375l-41.50,41.50l-68.50-68.25q-3.00-3.50 -7.75-3.50t-8.25,3.50l-40.00,39.50q-3.00,3.50 -3.00,8.125z" horiz-adv-x="384" />
<glyph unicode="&#xf066;" d="M0.00,82.625q0.00,4.625 3.00,8.375l 68.75,68.00l-41.50,41.50q-9.75,9.75 -6.75,16.375t 16.50,6.625l 130.00,0.00 q 9.50,0.00 15.25-6.25q 6.75-6.75 6.75-15.25l0.00-130.50 q0.00-13.25 -6.625-16.125t-16.375,6.875l-41.50,41.50l-68.50-68.75q-3.00-3.50 -7.75-3.50t-8.25,3.50l-40.00,40.00q-3.00,3.00 -3.00,7.625zM 192.00,245.50l0.00,130.50 q0.00,13.25 6.625,16.125t 16.375-6.875l 41.50-41.50l 68.50,68.75 q 3.00,3.50 7.75,3.50t 8.25-3.50l 40.00-40.00q 3.00-3.00 3.00-7.625t-3.00-8.375l-68.75-68.00l 41.50-41.50q 9.75-9.75 6.75-16.375t-16.50-6.625l-130.00,0.00 q-10.25,0.00 -15.25,6.25q-6.75,6.75 -6.75,15.25z" horiz-adv-x="384" />
<glyph unicode="&#xf067;" d="M0.00,206.00l0.00,36.00 q0.00,9.75 6.875,16.625t 16.625,6.875l 127.00,0.00 l0.00,126.50 q0.00,10.25 6.625,17.125t 16.875,6.875l 36.00,0.00 q 9.75,0.00 16.625-6.875t 6.875-16.625l0.00-127.00 l 127.00,0.00 q 9.75,0.00 16.625-6.875t 6.875-16.625l0.00-36.00 q0.00-9.75 -6.875-16.625t-16.625-6.875l-127.00,0.00 l0.00-126.50 q0.00-10.25 -6.875-17.125t-16.625-6.875l-36.00,0.00 q-9.75,0.00 -16.625,6.875t-6.875,16.625l0.00,127.00  l-126.50,0.00 q-10.25,0.00 -17.125,6.625t-6.875,16.875z" horiz-adv-x="384" />
<glyph unicode="&#xf068;" d="M0.00,206.00l0.00,36.00 q0.00,9.75 6.875,16.625t 16.625,6.875l 337.00,0.00 q 9.75,0.00 16.625-6.875t 6.875-16.625l0.00-36.00 q0.00-9.75 -6.875-16.625t-16.625-6.875l-336.50,0.00 q-10.25,0.00 -17.125,6.625t-6.875,16.875z" horiz-adv-x="384" />
<glyph unicode="&#xf069;" d="M 0.50,286.50q-2.50,9.25 2.50,18.00l 18.00,31.00q 5.00,8.75 14.50,11.125t 18.25-2.375l 83.00-48.00l0.00,95.75 q0.00,10.25 6.875,17.125t 17.125,6.875l 35.25,0.00 q 10.25,0.00 17.25-6.875t 7.00-16.625l0.00-96.25 l 82.75,48.00q 8.75,4.50 18.25,2.25t 14.50-11.00l 17.50-31.00q 5.00-8.75 2.75-18.00t-11.00-14.25l-83.25-48.25l 83.25-48.25q 8.75-5.00 11.125-14.25t-2.375-18.00l-18.00-31.00q-5.00-8.75 -14.50-11.125 t-18.25,2.375l-82.75,48.00l0.00-95.75 q0.00-10.25 -7.00-17.125t-17.25-6.875l-35.25,0.00 q-10.25,0.00 -17.125,6.875t-6.875,16.625l0.00,96.25 l-83.00-48.00q-8.75-5.00 -18.25-2.50t-14.50,11.25l-18.00,31.00q-4.50,8.75 -2.25,18.00t 11.00,14.25l 83.50,48.25l-83.50,48.25q-8.75,5.00 -11.25,14.25z" horiz-adv-x="356.75" />
<glyph unicode="&#xf06e;" d="M0.00,212.50q0.00,11.00 6.25,20.75q 19.50,31.25 44.50,56.00t 54.00,42.00t 60.625,26.125t 65.125,8.875q 33.75,0.00 65.50-8.875t 60.375-25.875t 53.75-41.75t 45.125-56.50q 5.75-9.75 5.625-20.75t-5.625-20.25q-20.00-31.75 -45.125-56.625t-53.75-41.75t-60.375-25.75t-65.50-8.875q-33.25,0.00 -65.00,8.875t-60.75,26.00t-54.125,42.00t-44.375,56.125 q-6.25,9.25 -6.25,20.25zM 38.50,212.75q 16.50-26.00 37.375-47.625t 45.50-36.375t 52.00-23.00t 57.125-8.25t 57.125,8.25t 51.875,23.00t 45.50,36.25t 37.50,47.75q-20.00,32.25 -46.875,56.625t-59.125,39.125q 12.75-14.75 19.875-33.25t 7.125-40.00q0.00-24.00 -8.875-44.75t-24.75-36.625t-36.875-24.875t-44.75-9.00q-24.00,0.00 -44.75,9.00t-36.625,24.875t-24.75,36.625 t-8.875,44.75q0.00,19.50 6.375,37.125t 17.125,32.125q-29.25-14.75 -54.375-38.125t-43.875-53.625zM 153.50,235.25q0.00-5.75 4.125-10.00t 10.375-4.25t 10.25,4.375t 4.00,9.875q0.00,19.50 13.375,32.75t 32.625,13.25q 6.25,0.00 10.375,4.375t 4.125,10.125q0.00,6.25 -4.125,10.25t-10.375,4.00q-15.25,0.00 -29.125-5.875t-23.75-15.875t-15.875-23.875t-6.00-29.125z" horiz-adv-x="460.75" />
<glyph unicode="&#xf070;" d="M0.00,223.75q0.00,11.00 6.25,20.75q 19.50,31.25 44.50,56.125t 54.00,42.00t 60.625,26.00t 65.125,8.875q 13.25,0.00 26.25-1.75t 25.75-4.25l 22.25,39.50q 2.00,3.50 6.00,4.50q 3.00,1.50 7.25-0.50l 33.25-19.00q 3.50-2.00 4.875-5.875t-0.875-7.375l-193.50-345.75q-1.50-3.50 -5.50-4.50q-1.00-0.50 -2.75-0.50q-1.50,0.00 -4.50,1.00l-33.75,19.00q-3.50,2.00 -4.625,5.875t 0.875,7.375l 16.50,28.75 q-36.25,17.00 -67.25,44.625t-54.50,64.875q-6.25,9.25 -6.25,20.25zM 38.50,224.00q 20.50-32.75 47.875-57.375t 60.125-39.375l 14.25,26.00q-21.50,15.75 -34.50,39.875t-13.00,53.375q0.00,19.50 6.375,37.125t 17.125,32.625q-29.25-15.25 -54.375-38.375t-43.875-53.875zM 153.50,246.50q0.00-5.75 4.125-10.00t 10.375-4.25t 10.25,4.375t 4.00,9.875q0.00,19.50 13.375,32.75 t 32.625,13.25q 6.25,0.00 10.375,4.375t 4.125,10.125q0.00,6.25 -4.125,10.25t-10.375,4.00q-15.25,0.00 -29.125-5.875t-23.75-15.875t-15.875-23.875t-6.00-29.125zM 232.00,70.50l 22.00,39.75q 52.25,6.25 95.50,36.25t 73.00,77.50q-27.25,42.50 -65.75,70.75l 19.00,34.25q 23.00-16.50 43.00-37.50t 36.50-47.00q 5.75-9.75 5.625-20.75t-5.625-20.25q-40.00-63.50 -98.125-98.00 t-125.125-35.00zM 270.25,139.50l 71.25,127.50q 1.00-5.00 1.50-9.875t 0.50-10.625q0.00-18.50 -5.375-35.125t-15.125-30.375t-23.25-24.50t-29.50-17.00z" horiz-adv-x="460.75" />
<glyph unicode="&#xf076;" d="M0.00,187.25l0.00,72.00 q0.00,4.00 2.875,6.875t 6.875,2.875l 97.75,0.00 q 4.00,0.00 7.125-2.75t 3.125-7.00l0.00-72.00 q0.00-7.25 5.625-15.00t 15.875-14.625t 24.625-11.25t 32.125-4.375q 17.50,0.00 32.125,4.375t 24.875,11.25t 15.875,14.625t 5.625,15.00l0.00,72.00 q0.00,9.75 9.75,9.75l 97.75,0.00 q 4.00,0.00 6.875-2.75t 2.875-7.00l0.00-72.00 q0.00-33.75 -15.375-63.50t-42.00-51.75t-62.25-34.875 t-76.125-12.875q-41.00,0.00 -76.50,12.875t-62.125,34.875t-42.00,51.625t-15.375,63.625zM0.00,308.50l0.00,97.75 q0.00,4.00 2.875,6.875t 6.875,2.875l 97.75,0.00 q 4.00,0.00 7.125-2.875t 3.125-6.875l0.00-97.75 q0.00-4.00 -3.125-6.875t-7.125-2.875l-97.75,0.00 q-4.00,0.00 -6.875,2.875t-2.875,6.875zM 274.50,308.50l0.00,97.75 q0.00,4.00 2.75,6.875t 7.00,2.875l 97.75,0.00  q 4.00,0.00 6.875-2.875t 2.875-6.875l0.00-97.75 q0.00-4.00 -2.875-6.875t-6.875-2.875l-97.75,0.00 q-9.75,0.00 -9.75,9.75z" horiz-adv-x="391.5" />
<glyph unicode="&#xf077;" d="M-0.25,152.875q-0.25,9.375 7.00,16.625l 168.25,168.50q 7.25,7.25 17.00,7.125t 17.00-7.125l 167.75-168.50q 7.25-7.25 7.25-16.75t-7.25-16.50l-25.00-25.75q-7.25-7.25 -17.00-7.125t-16.75,7.125l-127.00,127.50l-125.00-127.50q-7.25-7.25 -16.875-7.125t-16.875,7.125l-25.00,25.75q-7.25,7.25 -7.50,16.625z" horiz-adv-x="384" />
<glyph unicode="&#xf078;" d="M0.00,293.625q0.00,9.375 7.25,16.625l 25.00,25.50q 7.25,7.25 17.00,7.25t 16.75-7.25l 127.00-127.25l 125.00,127.25q 7.25,7.25 16.875,7.25t 16.875-7.25l 25.00-25.50q 7.25-7.25 7.50-16.625t-7.00-16.625l-168.25-168.50q-7.25-7.25 -17.00-7.125t-17.00,7.125l-167.75,168.50q-7.25,7.25 -7.25,16.625z" horiz-adv-x="384" />
<glyph unicode="&#xf07d;" d="M 0.50,124.125q 2.50,5.625 14.25,5.625l 50.75,0.00 l0.00,188.50 l-50.75,0.00 q-11.75,0.00 -14.25,5.625t 6.25,14.375l 79.75,79.75q 5.75,5.75 13.25,5.75q 7.75,0.00 13.50-5.75l 80.25-79.75q 8.25-8.75 5.625-14.375t-14.375-5.625l-50.50,0.00 l0.00-188.50 l 50.50,0.00 q 11.75,0.00 14.375-5.625t-6.125-14.375l-79.75-79.75q-5.75-5.75 -13.50-5.75t-13.25,5.75l-80.25,79.75q-8.25,8.75 -5.75,14.375z" horiz-adv-x="199.5" />
<glyph unicode="&#xf07e;" d="M0.00,214.25q0.00,7.75 5.75,13.25l 79.75,80.50q 8.75,8.25 14.375,5.875t 5.625-14.125l0.00-51.25 l 188.50,0.00 l0.00,50.75 q0.00,11.75 5.625,14.375t 14.125-5.625l 80.00-80.50q 5.75-5.75 5.50-13.25q0.00-7.75 -5.50-13.25l-80.00-80.50q-8.75-8.25 -14.25-5.625t-5.50,14.375l0.00,50.75 l-188.50,0.00 l0.00-50.75 q0.00-11.75 -5.625-14.25t-14.375,6.00l-79.75,80.00q-5.75,5.75 -5.75,13.25z" horiz-adv-x="399.25" />
<glyph unicode="&#xf087;" d="M0.00,80.25l0.00,160.75 q0.00,12.25 8.75,20.875t 21.00,8.625l 87.00,0.00 q 6.75,3.50 10.75,7.625t 8.75,9.875q 4.00,5.00 8.125,9.625t 8.625,9.375q 8.25,8.75 19.00,17.125t 16.50,18.625q 4.00,7.25 5.75,16.125t 3.125,17.875t 3.125,17.50t 5.875,15.125t 11.75,10.50t 20.375,3.875q 15.25,0.00 27.875-6.375t 21.375-17.125t 13.625-24.625t 4.875-28.125q0.00-14.75 -4.375-28.125t-10.625-26.875 q 8.75,0.50 17.50,1.125t 17.50,0.625q 13.75,0.00 26.75-2.625t 23.25-8.75t 16.625-16.875t 6.375-27.25q0.00-7.25 -1.25-14.25t-3.75-14.25q 4.50-10.75 4.50-22.50q0.00-19.50 -10.25-35.50q 2.50-14.75 -1.75-29.625t-14.50-26.125q-1.00-21.00 -11.25-34.875t-25.625-22.25t-33.75-11.75t-35.875-3.375q-18.00,0.00 -36.125,2.625t-35.625,7.125q-17.50,5.00 -34.875,10.75t-35.625,5.75l-93.75,0.00  q-12.25,0.00 -21.00,8.625t-8.75,21.125zM 59.00,101.00q0.00-8.75 5.50-14.25t 14.25-5.50q 8.25,0.00 14.125,5.625t 5.875,14.125q0.00,8.25 -5.875,14.125t-14.125,5.875q-8.75,0.00 -14.25-5.875t-5.50-14.125zM 123.00,80.25q 17.50,0.00 34.00-4.125t 33.375-8.75t 35.375-8.75t 40.00-4.125q 11.25,0.00 24.50,1.50t 24.875,6.625t 19.50,14.125t 7.875,23.75q0.00,2.50 -0.25,4.625t-0.75,4.625 q 8.75,4.00 13.375,13.25t 4.625,18.50q0.00,9.75 -5.25,17.00q 15.00,12.25 15.00,30.75q0.00,5.75 -3.125,10.75t-6.625,8.75q 4.00,7.25 7.125,14.375t 3.125,15.625q0.00,8.75 -4.375,13.875t-10.75,7.75t-14.125,3.125t-14.25,0.50q-11.25,0.00 -22.625-0.75t-22.625-0.75q-7.75,0.00 -15.375,0.75t-14.625,3.75q0.00,10.25 4.00,19.50t 8.875,18.625t 8.75,19.625t 3.875,22.75q0.00,8.25 -2.625,16.375t-7.375,14.75t-11.75,11.00 t-16.25,4.375l-2.75,0.00 t-2.75-0.50q-2.00-1.00 -2.25-2.00t-0.75-3.25q-3.00-14.75 -5.625-30.875t-9.875-29.375q-7.25-12.75 -18.50-22.00t-21.50-19.50q-7.25-7.75 -12.25-14.125t-10.375-12.00t-12.125-10.50t-16.25-8.875l-0.50,0.00 l0.00-160.75 z" horiz-adv-x="399.25" />
<glyph unicode="&#xf088;" d="M0.00,205.25q0.00,7.25 1.25,14.375t 3.75,14.375q-4.50,10.75 -4.50,22.50q0.00,19.50 10.25,35.25q-2.50,14.75 1.875,29.75t 14.625,26.25q 1.00,21.00 11.25,34.75t 25.50,22.25t 33.75,11.75t 36.00,3.25q 18.00,0.00 36.125-2.50t 35.375-7.25q 17.50-5.00 34.875-10.625t 35.875-5.625l 93.75,0.00 q 12.25,0.00 20.875-8.75t 8.625-21.00l0.00-160.75 q0.00-12.25 -8.625-21.00t-20.875-8.75l-87.25,0.00 q-6.75-3.50 -10.75-7.625 t-8.50-9.625q-4.00-5.00 -8.125-9.75t-8.875-9.25q-8.25-8.75 -19.00-17.25t-16.25-18.50q-6.25-10.75 -7.75-24.875t-4.625-26.625t-11.00-21.00t-26.875-8.50q-15.25,0.00 -27.875,6.375t-21.25,17.125t-13.50,24.625t-4.875,28.125q0.00,14.75 4.375,28.125t 10.375,26.625q-8.75-0.50 -17.375-1.00t-17.375-0.50q-13.75,0.00 -26.875,2.625t-23.375,8.75t-16.625,16.875 t-6.375,27.00zM 29.75,205.25q0.00-8.75 4.375-13.875t 10.75-7.625t 14.00-3.00t 14.375-0.50q 11.75,0.00 22.75,0.75t 22.25,0.75q 7.75,0.00 15.375-0.75t 14.875-3.75q0.00-10.25 -4.125-19.50t-9.00-18.75t-8.625-19.75t-3.75-22.50q0.00-8.25 2.50-16.375t 7.375-14.75t 11.75-10.75t 16.125-4.125q 1.00,0.00 2.875-0.25t 2.875,0.25q 2.00,1.00 2.25,2.00l 0.75,3.00q 3.00,14.75 5.625,31.00t 9.625,29.50q 7.25,12.75 18.50,22.00 t 21.50,19.50q 7.25,7.75 12.375,14.125t 10.50,12.00t 11.75,10.50t 16.625,8.875l 0.50,0.00 l0.00,160.75 q-18.00,0.00 -34.375,4.125t-33.25,9.00t-35.25,9.00t-39.875,4.125q-11.25,0.00 -24.625-1.875t-24.875-6.75t-19.50-14.00t-8.00-24.125q0.00-2.50 0.25-4.50t 0.75-4.75q-8.75-4.00 -13.25-13.25t-4.50-18.50q0.00-9.75 5.00-16.75q-14.75-12.25 -14.75-30.75q0.00-5.75 3.00-10.875t 6.75-8.625 q-4.00-7.25 -7.125-14.375t-3.125-15.875zM 300.50,343.00q0.00-8.25 5.875-14.125t 14.125-5.875q 8.75,0.00 14.375,5.875t 5.625,14.125q0.00,8.75 -5.625,14.375t-14.375,5.625q-8.25,0.00 -14.125-5.625t-5.875-14.375z" horiz-adv-x="399.25" />
<glyph unicode="&#xf0a4;" d="M0.00,80.25l0.00,160.75 q0.00,12.25 8.75,20.875t 21.00,8.625l 87.00,0.00 q 6.75,3.50 10.50,7.625t 8.50,9.875q 4.00,5.00 8.375,9.625t 8.375,9.375q 8.75,8.75 19.25,17.125t 16.25,18.625q 6.25,10.75 7.375,24.875t 4.25,26.625t 11.00,21.00t 27.375,8.50q 15.25,0.00 27.875-6.375t 21.375-17.125t 13.625-24.625t 4.875-28.125q0.00-13.25 -3.875-26.125t-9.625-24.625l 33.50,0.00 l 94.00-0.50 q 12.25,0.00 23.375-4.375t 19.00-12.375t 12.50-18.75t 4.625-23.50q0.00-12.25 -4.625-23.00t-12.50-18.625t-18.875-12.25t-23.50-4.375l-50.00,0.00 q-2.50-14.75 -9.75-26.75q 2.50-14.75 -1.875-29.375t-14.125-25.875q0.00-19.00 -7.125-32.75t-18.875-22.50t-27.375-13.125t-33.125-4.375q-19.50,0.00 -37.125,4.125t-34.00,9.00t-32.00,9.00t-30.875,4.125l-93.75,0.00  q-12.25,0.00 -21.00,8.625t-8.75,21.125zM 58.25,101.00q0.00-8.75 5.625-14.25t 14.375-5.50q 8.25,0.00 14.125,5.625t 5.875,14.125q0.00,8.25 -5.875,14.125t-14.125,5.875q-8.75,0.00 -14.375-5.875t-5.625-14.125zM 122.25,80.25q 17.50,0.00 34.125-4.125t 33.25-8.75t 33.25-8.75t 34.625-4.125q 10.75,0.00 21.00,2.00t 18.00,6.875t 12.50,13.125t 4.75,20.50q0.00,3.50 -0.25,6.625t-0.75,6.125 q 8.75,4.00 13.375,13.25t 4.625,18.50q0.00,9.75 -5.00,17.00q 14.75,12.25 14.75,30.75q0.00,5.75 -3.125,10.875t-6.625,8.625q 22.50,0.00 44.50,0.25t 44.50,0.25q 12.75,0.00 21.00,7.625t 8.25,20.375q0.00,13.25 -8.125,21.25t-21.125,8.00q-43.00,0.00 -85.00,0.25t-84.50,0.25q0.00,10.25 4.125,19.50t 8.75,18.625t 8.50,19.625t 3.875,22.75q0.00,8.25 -2.625,16.375t-7.25,14.75t-11.50,11.00t-16.125,4.375l-2.75,0.00 t-2.75-0.50 q-2.00-1.00 -2.25-2.00t-0.75-3.25q-3.00-14.75 -5.625-30.875t-9.875-29.375q-7.25-12.75 -18.25-22.00t-21.25-19.50q-7.25-7.75 -12.25-14.125t-10.375-12.00t-12.125-10.50t-16.25-8.875l-1.25,0.00 l0.00-160.75 z" horiz-adv-x="479" />
<glyph unicode="&#xf0a5;" d="M0.00,237.25q0.00,12.75 4.625,23.50t 12.50,18.75t 18.875,12.375t 23.50,4.375l 94.00,0.50l 33.50,0.00 q-5.75,11.75 -9.625,24.50t-3.875,26.25q0.00,14.25 4.875,28.125t 13.625,24.625t 21.25,17.125t 28.00,6.375q 19.50,0.00 27.375-8.50t 10.875-21.00t 4.375-26.625t 7.375-24.875q 5.75-10.25 16.25-18.625t 19.25-17.125q 4.00-4.50 8.375-9.25t 8.375-9.75q 4.50-5.75 8.375-9.75t 10.625-7.75l 87.00,0.00  q 12.25,0.00 21.00-8.625t 8.75-20.875l0.00-160.75 q0.00-12.25 -8.75-21.00t-21.00-8.75l-93.75,0.00 q-15.25,0.00 -30.875-4.125t-32.00-9.00t-34.00-9.00t-37.125-4.125q-17.50,0.00 -33.125,4.375t-27.375,13.125t-18.875,22.50t-7.125,32.75q-9.75,11.25 -14.125,25.875t-1.875,29.375q-7.25,11.75 -9.75,26.75l-50.00,0.00 q-12.25,0.00 -23.375,4.375t-19.00,12.25t-12.50,18.625t-4.625,23.00z M 30.25,237.25q0.00-12.75 8.125-20.375t 21.125-7.625q 22.50,0.00 44.50-0.25t 44.50-0.25q-3.50-3.50 -6.625-8.75t-3.125-10.75q0.00-18.50 14.75-30.75q-5.00-7.25 -5.00-17.00q0.00-9.25 4.625-18.375t 13.375-13.375q-0.50-3.00 -0.75-6.125t-0.25-6.625q0.00-12.25 4.75-20.50t 12.50-13.125t 18.00-6.875t 21.00-2.00q 17.50,0.00 34.375,4.125t 33.50,8.75t 33.25,8.75t 33.875,4.125l0.00,160.75 l-1.00,0.00  q-10.25,4.00 -16.625,8.875t-11.75,10.50t-10.50,12.00t-12.125,14.125q-10.25,10.25 -21.25,19.50t-18.25,22.00q-7.25,13.25 -9.75,29.375t-5.75,30.875q-0.50,2.00 -0.75,3.125t-2.25,2.125q-1.00,0.50 -2.75,0.50l-2.75,0.00 q-9.25,0.00 -16.25-4.375t-11.50-11.00t-7.125-14.875t-2.625-16.25q0.00-12.25 3.875-22.625t 8.50-19.75t 8.625-18.625t 4.00-19.50q-42.50,0.00 -84.375-0.25t-84.875-0.25 q-12.75,0.00 -21.00-8.00t-8.25-21.25zM 381.00,101.00q0.00-8.75 5.875-14.25t 14.125-5.50q 8.75,0.00 14.25,5.625t 5.50,14.125q0.00,8.25 -5.625,14.125t-14.125,5.875q-8.25,0.00 -14.125-5.875t-5.875-14.125z" horiz-adv-x="479" />
<glyph unicode="&#xf0a6;" d="M0.00,214.50q0.00,15.25 6.375,27.875t 17.125,21.375t 24.625,13.50t 28.125,4.75q 13.25,0.00 26.125-3.75t 24.625-9.50l0.00,33.25 l 0.50,94.25q0.00,12.25 4.375,23.25t 12.25,19.00t 18.625,12.625t 23.50,4.625q 12.25,0.00 23.125-4.625t 18.75-12.625t 12.25-19.00t 4.375-23.25l0.00-50.25 q 14.75-2.50 26.50-9.50q 14.75,2.50 29.50-1.875t 26.00-14.125q 19.00,0.00 32.75-7.125t 22.50-19.00t 13.00-27.375t 4.25-33.00 q0.00-19.50 -4.00-37.125t-8.875-34.00t-9.00-32.00t-4.125-31.125l0.00-93.50 q0.00-12.25 -8.75-21.00t-21.00-8.75l-160.75,0.00 q-12.25,0.00 -21.00,8.625t-8.75,21.125l0.00,87.00 q-3.50,6.75 -7.625,10.50t-9.625,8.50q-5.00,4.00 -9.75,8.375t-9.25,8.375q-8.75,8.75 -17.125,19.25t-18.625,16.00q-10.75,6.25 -24.875,7.50t-26.625,4.375t-21.00,11.00t-8.50,27.375zM 30.00,211.75q-0.25-1.75 0.25-2.75 q 1.00-2.00 2.00-2.375t 3.00-0.875q 14.75-3.00 31.00-5.50t 29.50-9.75q 12.75-7.25 22.00-18.25t 19.50-21.25q 7.75-7.25 14.125-12.25t 12.00-10.375t 10.50-12.125t 8.875-16.50l0.00-1.00 l 160.75,0.00 q0.00,17.50 4.125,34.125t 8.75,33.25t 8.75,33.25t 4.125,34.625q0.00,10.75 -2.125,21.00t-7.00,17.875t-13.00,12.50t-20.375,4.875q-3.50,0.00 -6.625-0.25t-6.375-0.75q-4.00,8.75 -13.25,13.375t-18.50,4.625 q-9.75,0.00 -16.75-5.25q-12.25,14.75 -30.75,15.00q-5.75,0.00 -10.875-3.125t-8.625-6.625q0.00,22.50 -0.25,44.50t-0.25,44.50q0.00,12.75 -7.625,21.00t-20.625,8.25q-13.25,0.00 -21.125-8.25t-7.875-21.00q0.00-43.00 -0.25-85.00t-0.25-84.50q-10.25,0.00 -19.50,4.125t-18.75,8.75t-19.75,8.50t-22.50,3.875q-8.25,0.00 -16.375-2.625t-14.75-7.25t-10.75-11.50t-4.125-16.125q0.00-1.00 -0.25-2.75z M 302.50,54.75q0.00-8.75 5.875-14.375t 14.125-5.625q 8.75,0.00 14.375,5.625t 5.625,14.375q0.00,8.25 -5.625,14.125t-14.375,5.875q-8.25,0.00 -14.125-5.875t-5.875-14.125z" horiz-adv-x="399.25" />
<glyph unicode="&#xf0a7;" d="M0.00,210.00q0.00,19.50 8.50,27.375t 21.00,11.00t 26.625,4.375t 24.875,7.25q 10.25,5.75 18.625,16.25t 17.125,19.25q 4.50,4.00 9.125,8.375t 9.875,8.375q 5.75,4.50 9.75,8.375t 7.50,10.625l0.00,87.00 q0.00,12.25 8.75,21.00t 21.00,8.75l 160.75,0.00 q 12.25,0.00 21.00-8.75t 8.75-21.00l0.00-93.75 q0.00-15.25 4.125-30.875t 9.00-32.00t 8.875-34.00t 4.00-37.125q0.00-17.50 -4.25-33.125t-13.00-27.375t-22.625-18.875 t-32.625-7.125q-11.25-9.75 -25.875-14.125t-29.625-1.875q-11.75-7.25 -26.50-9.75l0.00-50.00 q0.00-12.25 -4.375-23.375t-12.25-19.00t-18.625-12.50t-23.25-4.625q-12.75,0.00 -23.50,4.625t-18.625,12.50t-12.25,18.875t-4.375,23.50l-0.50,94.00l0.00,33.50 q-11.75-5.75 -24.625-9.625t-26.125-3.875q-14.25,0.00 -28.125,4.875t-24.625,13.625t-17.125,21.25t-6.375,28.00z M 30.00,212.75q 0.25-1.75 0.25-2.75q0.00-9.25 4.125-16.125t 10.75-11.50t 14.75-7.25t 16.375-2.625q 12.25,0.00 22.50,3.875t 19.75,8.50t 18.75,8.75t 19.50,4.125q0.00-42.50 0.25-84.50t 0.25-85.00q0.00-12.75 7.875-21.00t 21.125-8.25q 12.75,0.00 20.50,8.125t 7.75,21.125q0.00,22.50 0.25,44.50t 0.25,44.50q 3.50-3.50 8.625-6.625t 10.875-3.125q 18.50,0.00 30.75,14.75q 7.25-5.00 16.75-5.00q 9.25,0.00 18.50,4.625t 13.25,13.375 q 3.00-0.50 6.125-0.75t 6.875-0.25q 12.25,0.00 20.375,4.75t 13.00,12.50t 7.00,18.00t 2.125,21.00q0.00,17.50 -4.125,34.375t-8.75,33.50t-8.75,33.25t-4.125,34.125l-160.75,0.00 l0.00-1.25 q-4.00-10.25 -8.875-16.625t-10.50-11.75t-12.00-10.50t-14.125-12.125q-10.25-10.25 -19.50-21.25t-22.00-18.25q-13.25-7.25 -29.375-9.75t-31.125-5.75l-3.00-0.75t-2.00-2.25q-0.50-1.00 -0.25-2.75zM 302.50,369.75 q0.00-8.25 5.875-14.125t 14.125-5.875q 8.75,0.00 14.375,5.875t 5.625,14.125q0.00,8.75 -5.625,14.375t-14.375,5.625q-8.25,0.00 -14.125-5.75t-5.875-14.25z" horiz-adv-x="399.25" />
<glyph unicode="&#xf0a1;" d="M0.00,220.50l0.00,57.25 q0.00,15.75 11.25,27.125t 27.25,11.375l 124.75,0.00 q 28.75,0.00 61.25,8.375t 63.75,22.50t 58.875,32.00t 46.625,36.875q 15.75,0.00 27.125-11.25t 11.375-27.25l0.00-92.00 q 12.25-3.00 20.375-13.125t 8.125-23.375t-8.125-23.25t-20.375-13.00l0.00-92.25 q0.00-15.75 -11.375-27.00t-27.125-11.25q-17.00,17.00 -41.00,33.00t-51.625,29.375t-56.875,22.875t-56.75,12.50 q-10.75-3.00 -17.50-10.00t-9.25-15.625t-0.50-17.625t 9.25-16.25q-6.25-10.25 -5.75-18.875t 5.125-16.625t 12.375-15.375t 16.50-14.625q-5.00-10.75 -17.375-16.375t-26.50-6.375t-27.625,2.625t-21.25,10.875q-4.50,15.25 -10.00,31.25t-9.00,32.625t-3.50,34.50t 6.00,37.875l-50.00,0.00 q-15.75,0.00 -27.125,11.25t-11.375,27.25zM 201.75,217.25q 25.50-4.00 51.625-12.25t 51.25-19.50 t 47.875-24.75t 41.25-28.00l0.00,232.50 q-19.00-14.75 -41.50-28.375t-47.625-24.625t-51.25-19.375t-51.625-12.125l0.00-63.50 z" horiz-adv-x="460.75" />
<glyph unicode="&#xf0a3;" d="M0.00,175.25q0.00,8.25 5.75,14.00l 35.75,34.75l-35.75,34.75q-5.75,5.75 -5.75,14.00q0.00,6.25 4.125,11.25t 10.125,6.50l 48.75,12.25q-1.50,4.50 -3.875,12.00t-4.625,15.25t-4.00,14.875t-1.75,11.625q0.00,7.75 5.375,13.125t 12.875,5.375q 4.50,0.00 11.75-1.75t 15.00-4.125t 15.125-4.625t 11.875-3.75l 12.25,48.50q 1.50,6.25 6.75,10.375t 11.25,4.125q 8.75,0.00 13.25-5.75l 35.50-35.75l 34.75,35.75q 5.75,5.75 13.25,5.75 q 6.75,0.00 11.875-3.875t 6.625-10.625l 12.25-48.50q 4.50,1.50 12.00,3.75t 15.125,4.625t 14.875,4.125t 11.75,1.75q 7.25,0.00 12.875-5.375t 5.625-13.125q0.00-4.50 -1.75-11.625t-4.125-14.875t-4.625-15.125t-3.75-12.125l 48.50-12.25q 6.25-1.50 10.25-6.625t 4.00-11.125q0.00-8.25 -5.50-14.00l-36.25-34.75l 36.25-34.75q 5.75-5.75 5.50-14.00q0.00-6.25 -4.00-11.25t-10.25-6.50 l-48.50-12.25q 1.50-4.50 3.75-12.00t 4.625-15.25t 4.125-14.875t 1.75-11.625q0.00-7.25 -5.375-12.875t-13.125-5.625q-4.50,0.00 -11.75,1.75t-14.875,4.125t-15.00,4.625t-12.125,3.75l-12.25-48.50q-1.50-6.25 -6.625-10.375t-11.375-4.125q-8.25,0.00 -13.75,5.75l-34.75,35.75l-35.50-35.75q-4.50-5.75 -13.25-5.75q-6.25,0.00 -11.25,4.125t-6.75,10.375l-12.25,48.50 q-4.50-1.50 -11.875-3.75t-15.125-4.625t-14.875-4.125t-11.875-1.75q-7.75,0.00 -13.00,5.625t-5.25,12.875q0.00,4.50 1.75,11.625t 4.00,14.875t 4.625,15.125t 3.875,12.125l-48.75,12.25q-6.25,1.50 -10.25,6.625t-4.00,11.125z" horiz-adv-x="399.25" />
<glyph unicode="&#xf0a8;" d="M0.00,224.00q0.00,41.50 15.625,77.875t 42.75,63.50t 63.50,42.75t 77.875,15.625t 77.75-15.625t 63.50-42.75t 42.75-63.50t 15.50-77.875t-15.50-77.875t-42.75-63.50t-63.50-42.75t-77.75-15.625t-77.875,15.625t-63.50,42.75t-42.75,63.50t-15.625,77.875zM 60.00,224.00q0.00-7.25 5.00-12.25l 122.50-122.50q 5.00-5.00 12.125-5.00t 12.375,5.00l 18.50,18.50q 5.00,5.00 5.00,12.00 t-5.00,12.50l-61.50,61.50l 153.00,0.00 q 7.25,0.00 12.375,4.875t 5.125,12.125l0.00,26.00 q0.00,7.25 -5.125,12.375t-12.375,5.125l-153.00,0.00 l 61.50,61.50q 5.00,5.00 5.00,12.125t-5.00,12.375l-18.50,18.50q-5.00,5.00 -12.00,5.00t-12.50-5.00l-122.50-122.50q-5.00-5.00 -5.00-12.25z" horiz-adv-x="399.25" />
<glyph unicode="&#xf0a9;" d="M0.00,224.00q0.00,41.50 15.625,77.875t 42.75,63.50t 63.50,42.75t 77.875,15.625t 77.75-15.625t 63.50-42.75t 42.75-63.50t 15.50-77.875t-15.50-77.875t-42.75-63.50t-63.50-42.75t-77.75-15.625t-77.875,15.625t-63.50,42.75t-42.75,63.50t-15.625,77.875zM 60.00,211.25q0.00-7.25 5.125-12.375t 12.125-5.125l 153.25,0.00 l-61.50-61.50q-5.00-5.00 -5.125-12.125 t 5.125-12.375l 18.50-18.50q 5.00-5.00 11.875-5.00t 12.625,5.00l 122.25,122.50q 5.00,5.00 5.125,12.25t-5.125,12.25l-122.25,122.50q-5.00,5.00 -12.25,5.00t-12.25-5.00l-18.50-18.50q-5.00-5.00 -5.125-12.00t 5.125-12.50l 61.50-61.50l-153.25,0.00 q-7.25,0.00 -12.25-4.875t-5.00-12.125l0.00-26.00 z" horiz-adv-x="399.25" />
<glyph unicode="&#xf0aa;" d="M0.00,224.00q0.00,41.50 15.625,77.875t 42.75,63.50t 63.50,42.75t 77.875,15.625t 77.75-15.625t 63.50-42.75t 42.75-63.50t 15.50-77.875t-15.50-77.875t-42.75-63.50t-63.50-42.75t-77.75-15.625t-77.875,15.625t-63.50,42.75t-42.75,63.50t-15.625,77.875zM 60.00,224.00q0.00-7.25 5.00-12.25l 18.50-18.50q 5.00-5.00 12.00-5.00t 12.50,5.00l 61.50,61.50l0.00-153.00 q0.00-7.25 4.875-12.375 t 11.875-5.125l 26.25,0.00 q 7.25,0.00 12.375,5.125t 5.125,12.375l0.00,153.00 l 61.25-61.50q 5.00-5.00 12.25-5.00t 12.50,5.00l 18.25,18.50q 5.00,5.00 5.125,12.00t-5.125,12.50l-122.25,122.50q-5.00,5.00 -12.25,5.00t-12.25-5.00l-122.50-122.50q-5.00-5.00 -5.00-12.25z" horiz-adv-x="399.25" />
<glyph unicode="&#xf0ab;" d="M0.00,224.00q0.00,41.50 15.625,77.875t 42.75,63.50t 63.50,42.75t 77.875,15.625t 77.75-15.625t 63.50-42.75t 42.75-63.50t 15.50-77.875t-15.50-77.875t-42.75-63.50t-63.50-42.75t-77.75-15.625t-77.875,15.625t-63.50,42.75t-42.75,63.50t-15.625,77.875zM 60.00,224.25q0.00-7.00 5.00-12.50l 122.50-122.50q 5.00-5.00 12.125-5.00t 12.375,5.00l 122.25,122.50q 5.00,5.00 5.125,12.25 t-5.125,12.25l-18.25,18.50q-5.00,5.00 -12.00,5.00t-12.75-5.00l-61.25-61.50l0.00,153.00 q0.00,7.25 -4.875,12.375t-12.125,5.125l-26.00,0.00 q-7.25,0.00 -12.375-5.125t-5.125-12.375l0.00-153.00 l-61.50,61.50q-5.00,5.00 -12.25,5.00t-12.25-5.00l-18.50-18.50q-5.00-5.00 -5.00-12.00z" horiz-adv-x="399.25" />
<glyph unicode="&#xf0ae;" d="M0.00,51.00l0.00,54.25 q0.00,7.75 5.625,13.375t 13.375,5.625l 422.25,0.00 q 8.25,0.00 13.875-5.625t 5.625-13.375l0.00-54.25 q0.00-7.75 -5.625-13.375t-13.875-5.625l-422.25,0.00 q-7.75,0.00 -13.375,5.625t-5.625,13.375zM0.00,197.50l0.00,53.75 q0.00,7.75 5.625,13.25t 13.375,5.50l 422.25,0.00 q 8.25,0.00 13.875-5.625t 5.625-13.125l0.00-53.75 q0.00-8.25 -5.625-13.875t-13.875-5.625l-422.25,0.00  q-7.75,0.00 -13.375,5.625t-5.625,13.875zM0.00,342.75l0.00,54.25 q0.00,7.75 5.625,13.375t 13.375,5.625l 422.25,0.00 q 8.25,0.00 13.875-5.625t 5.625-13.375l0.00-54.25 q0.00-7.75 -5.625-13.375t-13.875-5.625l-422.25,0.00 q-7.75,0.00 -13.375,5.625t-5.625,13.375zM 188.00,205.00l 249.75,0.00 l0.00,38.50 l-249.75,0.00 l0.00-38.50 zM 264.75,59.25l 173.00,0.00 l0.00,38.25 l-173.00,0.00 l0.00-38.25 zM 341.50,350.50l 96.25,0.00 l0.00,38.25 l-96.25,0.00 l0.00-38.25 z " horiz-adv-x="460.75" />
<glyph unicode="&#xf008;" d="M0.00,60.75l0.00,326.50 q0.00,11.75 8.50,20.25t 20.25,8.50l 403.50,0.00 q 11.75,0.00 20.125-8.50t 8.375-20.25l0.00-326.50 q0.00-11.75 -8.375-20.25t-20.125-8.50l-403.50,0.00 q-11.75,0.00 -20.25,8.50t-8.50,20.25zM 28.75,70.50q0.00-4.00 2.75-6.875t 7.00-2.875l 38.25,0.00 q 4.00,0.00 6.875,2.75t 2.875,7.00l0.00,38.25 q0.00,4.00 -2.75,6.875t-7.00,2.875l-38.25,0.00 q-4.00,0.00 -6.875-2.75t-2.875-7.00l0.00-38.25 zM 28.75,160.00 q0.00-4.00 2.75-6.875t 7.00-2.875l 38.25,0.00 q 4.00,0.00 6.875,2.875t 2.875,6.875l0.00,38.50 q0.00,4.00 -2.75,6.875t-7.00,2.875l-38.25,0.00 q-4.00,0.00 -6.875-2.875t-2.875-6.875l0.00-38.50 zM 28.75,249.50q0.00-4.00 2.75-6.875t 7.00-2.875l 38.25,0.00 q 4.00,0.00 6.875,2.875t 2.875,6.875l0.00,38.50 q0.00,4.00 -2.75,6.875t-7.00,2.875l-38.25,0.00 q-4.00,0.00 -6.875-2.875t-2.875-6.875l0.00-38.50 z M 28.75,339.25q0.00-4.00 2.75-6.875t 7.00-2.875l 38.25,0.00 q 4.00,0.00 6.875,2.75t 2.875,7.00l0.00,38.25 q0.00,4.00 -2.75,6.875t-7.00,2.875l-38.25,0.00 q-4.00,0.00 -6.875-2.75t-2.875-7.00l0.00-38.25 zM 115.25,70.50q0.00-4.00 2.75-6.875t 7.00-2.875l 210.75,0.00 q 4.00,0.00 6.875,2.75t 2.875,7.00l0.00,128.00 q0.00,4.00 -2.75,6.875t-7.00,2.875l-210.75,0.00 q-4.00,0.00 -6.875-2.875t-2.875-6.875l0.00-128.00 z M 115.25,249.50q0.00-4.00 2.75-6.875t 7.00-2.875l 210.75,0.00 q 4.00,0.00 6.875,2.875t 2.875,6.875l0.00,128.00 q0.00,4.00 -2.75,6.875t-7.00,2.875l-210.75,0.00 q-4.00,0.00 -6.875-2.75t-2.875-7.00l0.00-128.00 zM 374.25,70.50q0.00-4.00 2.875-6.875t 6.875-2.875l 38.50,0.00 q 4.00,0.00 6.875,2.75t 2.875,7.00l0.00,38.25 q0.00,4.00 -2.875,6.875t-6.875,2.875l-38.50,0.00 q-4.00,0.00 -6.875-2.75t-2.875-7.00l0.00-38.25  zM 374.25,160.00q0.00-4.00 2.875-6.875t 6.875-2.875l 38.50,0.00 q 4.00,0.00 6.875,2.875t 2.875,6.875l0.00,38.50 q0.00,4.00 -2.875,6.875t-6.875,2.875l-38.50,0.00 q-4.00,0.00 -6.875-2.875t-2.875-6.875l0.00-38.50 zM 374.25,249.50q0.00-4.00 2.875-6.875t 6.875-2.875l 38.50,0.00 q 4.00,0.00 6.875,2.875t 2.875,6.875l0.00,38.50 q0.00,4.00 -2.875,6.875t-6.875,2.875l-38.50,0.00  q-4.00,0.00 -6.875-2.875t-2.875-6.875l0.00-38.50 zM 374.25,339.25q0.00-4.00 2.875-6.875t 6.875-2.875l 38.50,0.00 q 4.00,0.00 6.875,2.75t 2.875,7.00l0.00,38.25 q0.00,4.00 -2.875,6.875t-6.875,2.875l-38.50,0.00 q-4.00,0.00 -6.875-2.75t-2.875-7.00l0.00-38.25 z" horiz-adv-x="460.75" />
<glyph unicode="&#xf00c;" d="M0.00,215.125q0.00,8.375 5.75,13.875l 43.50,43.75q 5.75,5.75 14.125,5.625t 13.875-5.625l 91.25-91.25q 5.75-5.75 14.125-5.75t 13.875,5.75l 186.50,186.25q 5.75,5.75 14.125,5.75t 14.125-5.75l 43.50-43.50q 5.75-5.75 5.625-14.125t-5.625-13.875l-227.50-227.50q-5.75-5.75 -15.625-9.75t-18.125-4.00l-22.00,0.00 q-8.75,0.00 -18.75,4.125t-15.50,9.625l-131.50,132.25 q-5.75,5.75 -5.75,14.125z" horiz-adv-x="460.75" />
<glyph unicode="&#xf02d;" d="M 2.50,109.75q 0.50,4.00 1.00,7.875t 1.00,8.625q0.00,2.50 -1.00,5.125t-0.50,5.125q 0.50,4.00 3.875,7.875t 6.375,8.875q 5.75,9.25 11.375,22.625t 8.125,23.125q 1.00,4.00 -0.25,7.625t-0.25,6.625q 1.00,4.00 4.125,6.875t 5.125,5.875q 2.50,4.50 5.375,10.50t 5.375,12.375t 4.00,12.50t 2.00,10.125t-0.50,8.25t0.00,7.25q 1.50,4.00 5.125,6.625t 6.125,6.125q 2.50,3.00 5.375,8.625t 5.75,12.375t 4.875,13.125 t 2.50,11.375q 0.50,3.00 -1.00,6.125t-0.50,6.875q 1.00,3.50 4.625,7.375t 6.625,7.875q 4.00,6.25 7.125,14.625t 7.50,15.25t 11.50,10.75t 19.375,0.375l-0.50-1.00q 7.75,2.50 13.50,2.50l 195.00,0.00 q 19.50,0.00 29.75-14.25q 10.25-13.25 4.50-32.25l-70.75-226.50q-4.50-15.75 -19.375-26.75t-31.625-11.00l-223.25,0.00 q-2.50,0.00 -5.125-0.50t-4.625-3.00q-3.00-5.00 0.00-14.00q 4.00-10.75 15.00-18.875t 21.75-8.125l 236.50,0.00  q 7.25,0.00 14.375,5.375t 9.375,11.875l 77.25,246.75q 1.00,4.00 1.25,7.375t-0.25,7.125q 10.25-3.50 15.25-10.75q 10.25-13.25 4.75-32.25l-70.75-226.25q-4.50-16.50 -19.375-27.25t-31.875-10.75l-236.50,0.00 q-10.25,0.00 -19.875,3.625t-18.375,9.75t-15.375,14.50t-10.375,18.125q-6.25,17.00 -0.50,31.75zM 125.00,272.25q-2.50-9.75 6.50-9.75l 153.75,0.00 q 4.00,0.00 7.625,2.75t 4.625,7.00l 6.00,18.75 q 1.00,4.00 -0.75,6.875t-5.75,2.875l-153.75,0.00 q-4.00,0.00 -7.875-2.75t-4.875-7.00zM 142.25,329.50q-1.00-4.00 0.875-6.625t 5.875-2.625l 153.50,0.00 q 4.00,0.00 7.625,2.625t 5.375,6.625l 5.50,19.50q 1.00,4.00 -0.75,6.875t-6.00,2.875l-153.50,0.00 q-4.00,0.00 -7.625-2.875t-5.125-6.875z" horiz-adv-x="427.5" />
<glyph unicode="&#xf0d7;" d="M 1.50,273.75q 5.00,11.75 18.00,11.75l 268.75,0.00 q 12.50,0.00 17.50-11.75t-4.25-21.00l-134.00-134.25q-6.75-5.75 -14.00-5.50q-7.25,0.00 -13.75,5.50l-134.00,134.25q-9.25,9.25 -4.25,21.00z" horiz-adv-x="307" />
<glyph unicode="&#xf0d8;" d="M 1.50,156.75q-5.00,11.75 4.25,21.00l 134.00,134.00q 5.75,5.75 13.75,5.75q 7.75,0.00 13.50-5.75l 134.50-134.00q 9.25-9.25 4.25-21.00t-17.50-11.75l-269.25,0.00 q-12.50,0.00 -17.50,11.75z" horiz-adv-x="307" />
<glyph unicode="&#xf0d9;" d="M0.00,224.00q0.00,8.25 5.75,13.75l 134.50,134.25q 4.00,4.00 9.50,5.25t 11.00-1.25q 5.75-2.00 9.00-6.875t 3.25-10.375l0.00-269.00 q0.00-6.25 -3.25-10.75t-9.00-7.00t-11.00-1.25t-9.50,5.25l-134.50,134.75q-5.75,5.75 -5.75,13.25z" horiz-adv-x="173" />
<glyph unicode="&#xf0da;" d="M0.00,89.75l0.00,269.00 q0.00,12.25 11.75,17.25t 21.00-4.00l 134.75-134.25q 5.75-5.75 5.50-13.75q0.00-7.75 -5.50-13.25l-134.75-134.75q-9.25-9.25 -21.00-4.00q-11.75,5.00 -11.75,17.75z" horiz-adv-x="173" />
<glyph unicode="&#xf0dc;" d="M0.00,178.00q0.00,7.75 5.625,13.625t 13.375,5.875l 268.75,0.00 q 8.25,0.00 13.875-5.75t 5.625-13.75q0.00-8.25 -5.75-14.00l-134.00-134.00q-5.75-5.75 -14.00-5.75t-13.75,5.75l-134.00,134.00q-5.75,5.75 -5.75,14.00zM0.00,270.00q0.00,8.25 5.75,14.00l 134.00,134.00q 5.75,5.75 13.75,5.75q 8.25,0.00 14.00-5.75l 134.00-134.00q 5.75-5.75 5.75-14.00q0.00-7.75 -5.625-13.625t-13.875-5.875l-268.75,0.00  q-7.75,0.00 -13.375,5.75t-5.625,13.75z" horiz-adv-x="307" />
<glyph unicode="&#xf0de;" d="M0.00,142.00q0.00,8.25 5.75,14.00l 134.00,134.00q 5.75,5.75 13.75,5.75q 8.25,0.00 14.00-5.75l 134.00-134.00q 5.75-5.75 5.75-14.00q0.00-7.75 -5.625-13.625t-13.375-5.875l-269.25,0.00 q-7.75,0.00 -13.375,5.75t-5.625,13.75z" horiz-adv-x="307" />
<glyph unicode="&#xf0dd;" d="M0.00,242.00q0.00,7.75 5.625,13.625t 13.375,5.875l 269.25,0.00 q 7.75,0.00 13.375-5.75t 5.625-13.75q0.00-8.25 -5.75-14.00l-134.00-134.00q-5.75-5.75 -14.00-5.75q-8.75,0.00 -13.25,5.75l-134.50,134.00q-5.75,5.75 -5.75,14.00z" horiz-adv-x="307" />
<glyph unicode="&#xf0d0;" d="M0.00,81.25q0.00,9.75 7.25,15.25l 394.75,311.75q 5.00,4.25 11.75,4.25q 8.75,0.00 14.75-7.25q 2.50-3.00 7.375-8.375t 9.50-11.00t 8.00-11.875t 3.375-10.75q0.00-9.75 -7.25-15.25l-394.75-312.00q-5.00-4.00 -11.75-4.00q-9.25,0.00 -14.75,7.25q-2.50,3.00 -7.50,8.375t-9.50,11.00t-7.875,11.75t-3.375,10.875zM 64.00,262.50l 29.25,9.00l 9.25,29.25l 8.50-29.25l 29.75-9.00l-29.75-9.25l-8.50-29.25 l-9.25,29.25zM 93.25,339.25l 58.75,17.75l 18.00,59.00l 18.00-59.00l 58.75-17.75l-58.75-18.00l-18.00-58.75l-18.00,58.75zM 235.50,377.50l 29.25,9.25l 9.25,29.25l 9.25-29.25l 29.00-9.25l-29.00-9.00l-9.25-29.25l-9.25,29.25zM 321.50,320.25l 23.50-30.25l 92.25,72.75l-23.50,30.25zM 384.00,253.25l 29.25,8.75l 9.25,29.50l 9.00-29.50l 29.25-8.75l-29.25-9.25l-9.00-29.25l-9.25,29.25z" horiz-adv-x="460.75" />
<glyph unicode="&#xf085;" d="M0.00,232.25l0.00,45.00 q0.00,2.00 5.625,3.875t 13.00,2.875t 14.125,1.75t 9.25,0.75q 3.00,12.25 9.25,22.00q-5.75,7.75 -11.375,15.375t-11.625,14.875l-1.00,2.50q0.00,1.50 5.125,7.375t 11.75,12.50t 12.50,11.75t 7.375,5.125q 0.50,0.00 5.125-3.25t 10.25-7.625t 10.75-8.50t 6.125-5.125q 10.75,6.25 22.50,9.25q0.00,2.00 0.75,9.25t 1.75,14.375t 2.625,13.00t 4.125,5.875l 44.50,0.00 q 2.00,0.00 3.875-5.875t 2.875-13.00t 1.75-14.375 t 1.25-9.25q 11.25-3.00 21.50-8.75q 7.75,5.75 15.625,11.375t 15.125,11.625l 2.00,1.00q 1.00,0.00 6.875-5.375t 12.375-11.75t 11.875-12.25t 5.375-7.375q0.00-1.00 -3.375-5.625t-7.50-10.00t-8.00-10.25t-4.875-6.375q 5.75-9.75 9.75-23.00q 2.50-0.50 9.25-1.25t 13.875-2.125t 12.75-2.875t 5.625-3.50l0.00-44.50 q0.00-2.50 -5.625-4.125t-12.75-2.875t-14.125-1.75t-9.00-1.00 q-3.50-10.75 -9.25-22.00q 5.75-7.75 11.125-15.125t 12.125-14.625l 0.50-2.50q0.00-1.50 -5.125-7.50t-11.875-12.625t-12.625-11.75t-7.375-5.125q-0.50,0.00 -5.125,3.375t-10.25,7.75t-10.50,8.125t-6.375,5.00q-11.25-5.75 -22.00-9.25q0.00-2.50 -0.75-9.25t-2.00-14.125t-3.125-13.00t-3.875-5.625l-44.50,0.00 q-2.00,0.00 -3.875,5.625t-2.875,13.00t-1.75,14.00t-0.75,9.375 q-11.25,3.00 -22.00,9.25q-7.75-5.75 -15.375-11.625t-14.875-12.125l-2.50-0.50q-1.00,0.00 -6.875,5.125t-12.25,11.75t-11.50,12.625t-5.125,7.50q0.00,0.50 3.25,5.125t 7.375,10.00t 7.75,10.25t 4.625,6.375q-5.75,10.75 -9.75,23.50q-2.50,0.50 -9.25,1.25t-13.875,1.75t-12.75,2.625t-5.625,3.625zM 105.00,254.25q0.00-9.25 3.625-17.50t 9.75-14.375t 14.50-9.625t 17.625-3.50t 17.50,3.50t 14.375,9.625 t 9.625,14.375t 3.50,17.50t-3.50,17.625t-9.625,14.50t-14.375,9.75t-17.50,3.625q-19.00,0.00 -32.25-13.25t-13.25-32.25zM 278.50,125.25q0.00,1.50 3.375,3.25t 7.75,3.625t 8.375,3.125t 5.50,1.75q 1.00,5.75 2.375,9.75t 3.875,9.25q-1.00,1.00 -3.25,4.25t-4.625,6.875t-4.125,7.00t-1.75,4.375t 4.625,5.875t 10.75,10.25t 11.75,10.00t 7.125,6.125l 2.00,1.00q 1.00,0.00 4.125-2.125t 6.375-4.875t 6.375-5.375 t 4.125-3.625q 8.75,3.00 19.00,4.75q 0.50,1.50 2.25,5.375t 4.125,7.625t 4.375,6.875t 3.50,3.125q 1.00,0.00 8.50-1.75t 15.875-4.625t 15.125-5.875t 6.75-5.75q0.00-5.75 -1.375-11.75t-2.375-11.75q 4.00-3.00 7.125-6.625t 5.625-7.625q 6.25,0.50 12.375,0.75t 11.875,0.25q 2.00,0.00 4.50-6.625t 4.375-15.125t 3.125-16.125t 1.25-9.875q0.00-1.50 -3.375-3.25t-7.375-3.25t-8.125-3.125 t-5.625-2.125q-2.25-9.50 -5.75-17.75q 0.50-1.50 2.875-4.625t 4.625-6.75t 4.00-6.875t 1.75-4.50q0.00-1.00 -4.625-5.875t-10.75-10.25t-11.75-10.125t-7.125-6.50l-2.00-1.00q-1.00,0.00 -4.125,2.125t-6.375,4.875t-6.375,5.375t-4.125,3.625q-9.25-3.00 -19.50-4.75q-0.50-1.50 -2.25-5.375t-3.875-7.625t-4.125-6.875t-3.50-3.125t-8.75,1.875t-15.625,4.625 t-15.00,5.875t-6.625,5.625q0.00,5.75 1.25,11.875t 2.25,11.625q-4.00,3.00 -7.125,6.625t-5.625,7.625q-5.75-0.50 -11.375-0.75t-11.125-0.25l-3.625,0.00 t-2.125,2.75q-0.50,2.00 -2.00,8.875t-3.375,14.50t-3.125,13.875t-1.25,7.25zM 298.00,348.00q0.00,1.50 3.125,3.00t 7.375,2.50t 8.375,1.50t 5.625,1.00q 2.50,8.25 7.75,16.00q-0.50,1.00 -2.00,4.375t-3.125,6.875t-2.875,6.375t-1.25,3.875 q0.00,1.50 5.375,5.625t 12.25,8.75t 12.875,8.125t 7.00,3.50t 3.25-2.25t 5.125-5.375t 5.125-5.875t 3.25-3.75q 3.50,1.00 7.125,1.50t 7.375,0.00l 3.50,0.00 q 0.50,1.00 2.75,4.125t 4.625,6.375t 4.375,5.875t 3.00,2.625t 7.50-2.875t 13.875-6.50t 13.25-7.125t 5.875-5.00q0.00-1.00 -1.00-3.875t-2.00-6.50t-2.125-6.875t-1.625-4.25q 5.00-6.25 9.75-15.00q 12.75-1.00 18.50-1.75t 7.25-4.625t 1.25-13.00 t 0.75-26.625q0.00-1.50 -3.125-3.125t-7.125-2.625t-8.125-1.50t-5.625-1.00q-3.25-9.00 -7.75-15.75q 0.50-1.00 2.00-4.125t 3.375-6.75t 3.125-6.625t 1.25-3.50q0.00-1.50 -5.625-5.875t-12.50-9.00t-12.875-8.25t-6.50-3.625q-1.00,0.00 -3.50,2.375t-5.375,5.375t-5.125,5.875t-3.25,3.875q-3.50-1.00 -7.125-1.50t-7.375,0.00l-3.50,0.00 q-1.00-1.00 -3.00-4.125t-4.375-6.50 t-4.625-5.875t-3.25-2.50t-7.50,2.75t-13.625,6.375t-13.00,7.25t-5.875,5.125q0.00,0.50 0.75,3.625t 2.00,6.625t 2.25,6.875t 1.50,4.375q-5.75,5.75 -9.50,14.75q-13.25,0.50 -18.75,1.25t-7.25,4.625t-1.25,13.125t-1.00,27.25zM 349.25,123.75q0.00-12.25 8.625-21.25t 21.125-9.00q 12.25,0.00 21.125,8.625t 8.875,21.625q0.00,12.25 -8.625,20.875t-21.375,8.625q-12.25,0.00 -21.00-8.625t-8.75-20.875z M 361.50,333.50q0.00-11.75 7.875-19.625t 19.125-7.875q 11.75,0.00 19.75,7.875t 8.00,19.125q0.00,11.75 -7.875,19.75t-19.375,8.00q-11.75,0.00 -19.625-8.00t-7.875-19.25z" horiz-adv-x="479" />
<glyph unicode="&#xe05a;" d="M 224.00,192.00L 224.00,416.00 C 100.288,416.00,0.00,315.712,0.00,192.00s 100.288-224.00, 224.00-224.00s 224.00,100.288, 224.00,224.00c0.00,36.017-8.514,70.042-23.618,100.191
		L 224.00,192.00zM 456.382,356.191C 419.606,429.599, 343.695,480.00, 256.00,480.00l0.00-224.00 L 456.382,356.191z" />
<glyph unicode="&#xe05b;" d="M 256.00,480.00C 114.615,480.00,0.00,365.385,0.00,224.00s 114.615-256.00, 256.00-256.00s 256.00,114.615, 256.00,256.00S 397.385,480.00, 256.00,480.00z M 160.00,224.00
	c0.00,53.02, 42.98,96.00, 96.00,96.00s 96.00-42.98, 96.00-96.00s-42.98-96.00-96.00-96.00S 160.00,170.98, 160.00,224.00z M 462.99,138.262L 462.99,138.262l-88.71,36.745
	C 380.539,190.099, 384.00,206.645, 384.00,224.00s-3.461,33.901-9.72,48.993l 61.063,25.293l 27.647,11.452C 473.944,283.327, 480.00,254.373, 480.00,224.00
	C 480.00,193.627, 473.943,164.673, 462.99,138.262L 462.99,138.262z M 341.739,430.99L 341.739,430.99L 341.739,430.99l-36.745-88.71
	C 289.902,348.539, 273.356,352.00, 256.00,352.00s-33.901-3.461-48.993-9.72l-17.23,41.599l-19.515,47.112C 196.673,441.943, 225.628,448.00, 256.00,448.00
	C 286.373,448.00, 315.327,441.943, 341.739,430.99z M 49.01,309.738l 47.112-19.515l 41.599-17.23C 131.462,257.901, 128.00,241.355, 128.00,224.00
	s 3.461-33.901, 9.72-48.993l-88.71-36.745C 38.057,164.673, 32.00,193.627, 32.00,224.00C 32.00,254.373, 38.057,283.327, 49.01,309.738z
	 M 170.262,17.01l 11.452,27.647l 25.293,61.063C 222.099,99.461, 238.645,96.00, 256.00,96.00s 33.901,3.461, 48.993,9.72l 36.745-88.71l0.00,0.00l0.00,0.00
	C 315.327,6.058, 286.373,0.00, 256.00,0.00C 225.628,0.00, 196.673,6.057, 170.262,17.01z" />
<glyph unicode="&#xe05c;" d="M 399.601,362.781c0.00,54.784,0.00,60.136,0.00,60.136c0.00,20.196-64.183,57.052-143.36,57.052c-79.18,0.00-143.36-36.856-143.36-57.052
		c0.00,0.00,0.00-5.351,0.00-60.136c0.00-54.776, 99.244-100.027, 99.244-138.812c0.00-38.788-99.244-84.037-99.244-138.817s0.00-60.136,0.00-60.136
		c0.00-20.196, 64.18-57.048, 143.36-57.048c 79.176,0.00, 143.36,36.853, 143.36,57.048c0.00,0.00,0.00,5.357,0.00,60.136S 300.353,185.18, 300.353,223.968
		C 300.353,262.752, 399.601,308.004, 399.601,362.781z M 152.324,420.356c 17.812,11.236, 51.204,27.704, 105.315,27.704
		s 102.56-27.704, 102.56-27.704c 3.62-2.204, 17.868-9.82, 8.119-15.591c-21.472-12.716-63.452-26.104-112.08-26.104
		c-48.632,0.00-89.208,14.76-110.68,27.476C 135.808,411.912, 152.324,420.356, 152.324,420.356z M 269.071,223.968
		c0.00-30.54, 25.504-50.212, 52.509-76.456c 19.727-19.176, 46.74-45.429, 46.74-62.36l0.00-34.00 
		c-24.812,12.364-99.112,24.468-99.112,64.096c0.00,20.064-25.94,20.064-25.94,0.00c0.00-39.628-74.299-51.732-99.108-64.096l0.00,34.00 
		c0.00,16.932, 27.008,43.184, 46.74,62.36c 27.00,26.244, 52.504,45.916, 52.504,76.456S 217.90,274.176, 190.90,300.42
		c-19.732,19.176-46.74,45.432-46.74,62.36l-1.211,25.592c 26.272-14.14, 67.909-27.633, 113.291-27.633
		s 87.216,13.492, 113.48,27.633l-1.40-25.592c0.00-16.928-27.012-43.184-46.74-62.36C 294.576,274.176, 269.071,254.508, 269.071,223.968
		z" />
<glyph unicode="&#xe05d;" d="M 352.00,480.00c-88.365,0.00-160.00-71.634-160.00-160.00c0.00-10.013, 0.929-19.808, 2.688-29.312L0.00,96.00l0.00-96.00 c0.00-17.673, 14.327-32.00, 32.00-32.00
	l 32.00,0.00 l0.00,32.00 l 64.00,0.00 l0.00,64.00 l 64.00,0.00 l0.00,64.00 l 64.00,0.00 l 41.521,41.521C 314.526,163.363, 332.869,160.00, 352.00,160.00c 88.365,0.00, 160.00,71.634, 160.00,160.00S 440.365,480.00, 352.00,480.00z
	 M 399.937,319.937c-26.51,0.00-48.00,21.49-48.00,48.00s 21.49,48.00, 48.00,48.00s 48.00-21.49, 48.00-48.00S 426.447,319.937, 399.937,319.937z" />
<glyph unicode="&#xe05e;" d="M 475.377,377.571l-440.32,0.00 c-19.712,0.00-35.84-16.132-35.84-35.84l0.00-235.524 c0.00-19.712, 16.128-35.84, 35.84-35.84l 440.32,0.00 c 19.708,0.00, 35.84,16.128, 35.84,35.84L 511.217,341.731 
	C 511.217,361.44, 495.085,377.571, 475.377,377.571z M 280.817,326.371l 51.20,0.00 l0.00-51.204 l-51.20,0.00 L 280.817,326.371 z M 357.617,249.568l0.00-51.20 l-51.20,0.00 l0.00,51.20 
	L 357.617,249.568 z M 204.016,326.371l 51.20,0.00 l0.00-51.204 l-51.20,0.00 L 204.016,326.371 z M 280.817,249.568l0.00-51.20 l-51.20,0.00 l0.00,51.20 L 280.817,249.568 z M 127.216,326.371l 51.20,0.00 l0.00-51.204 l-51.20,0.00 
	L 127.216,326.371 z M 204.016,249.568l0.00-51.20 l-51.20,0.00 l0.00,51.20 L 204.016,249.568 z M 50.416,326.371l 51.20,0.00 l0.00-51.204 l-51.20,0.00 L 50.416,326.371 z M 127.216,249.568l0.00-51.20 l-51.20,0.00 l0.00,51.20 
	L 127.216,249.568 z M 101.616,121.568l-51.20,0.00 l0.00,51.20 l 51.20,0.00 L 101.616,121.568 z M 383.217,121.568l-256.00,0.00 l0.00,51.20 l 256.00,0.00 L 383.217,121.568 z M 460.017,121.568l-51.20,0.00 l0.00,51.20 l 51.20,0.00 
	L 460.017,121.568 z M 383.217,198.368l0.00,51.20 l 51.20,0.00 l0.00-51.20 L 383.217,198.368 z M 460.017,275.168l-102.40,0.00 L 357.617,326.371 l 102.40,0.00 L 460.017,275.168 z" />
<glyph unicode="&#xe05f;" d="M 325.825,75.488c0.00,107.348, 101.08,151.128, 92.741,259.452
	C 413.304,403.292, 373.424,479.971, 255.207,479.971c-118.228,0.00-158.096-76.68-163.364-145.032
	c-8.356-108.324, 98.392-148.205, 98.392-259.452L 325.825,75.487 z M 187.408-10.777c 18.996-13.067, 41.00-21.908, 67.80-21.216
	c 26.792-0.692, 48.788,8.148, 67.788,21.216l0.00,50.424 l-135.588,0.00 L 187.408-10.777 z" />
<glyph unicode="&#xe060;" d="M 160.00,128.00c 8.80-8.80, 23.637-8.363, 32.971,0.971L 351.03,287.029C 360.364,296.363, 360.80,311.20, 352.00,320.00
		s-23.637,8.363-32.971-0.971L 160.971,160.971C 151.637,151.637, 151.20,136.80, 160.00,128.00zM 238.444,142.444c 2.28-4.525, 3.495-9.58, 3.495-14.848c0.00-8.808-3.372-17.03-9.496-23.154l-81.691-81.691
		c-6.124-6.124-14.347-9.496-23.154-9.496s-17.03,3.372-23.154,9.496l-49.691,49.691c-6.124,6.124-9.496,14.347-9.496,23.154
		s 3.372,17.03, 9.496,23.154l 81.691,81.691c 6.124,6.124, 14.347,9.497, 23.154,9.497c 5.268,0.00, 10.322-1.215, 14.848-3.495l 32.669,32.669
		c-13.935,10.705-30.72,16.08-47.517,16.08c-19.993,0.00-39.986-7.583-55.154-22.751l-81.691-81.691
		c-30.335-30.335-30.335-79.974,0.00-110.309l 49.691-49.691C 87.611-24.416, 107.604-32.00, 127.597-32.00
		c 19.994,0.00, 39.987,7.584, 55.154,22.751l 81.691,81.691c 27.91,27.91, 30.119,72.149, 6.672,102.672L 238.444,142.444zM 489.249,407.558l-49.691,49.691C 424.391,472.417, 404.398,480.00, 384.404,480.00c-19.993,0.00-39.986-7.583-55.154-22.751l-81.691-81.691
		c-27.91-27.91-30.119-72.149-6.671-102.671l 32.669,32.67c-2.279,4.525-3.494,9.58-3.494,14.847c0.00,8.808, 3.372,17.03, 9.496,23.154
		l 81.691,81.691c 6.124,6.124, 14.347,9.497, 23.154,9.497s 17.03-3.373, 23.154-9.497l 49.691-49.691
		c 6.124-6.124, 9.496-14.347, 9.496-23.154s-3.372-17.03-9.496-23.154l-81.691-81.691c-6.124-6.124-14.347-9.496-23.154-9.496
		c-5.268,0.00-10.322,1.215-14.848,3.495l-32.669-32.669c 13.936-10.705, 30.72-16.08, 47.517-16.08c 19.994,0.00, 39.987,7.584, 55.154,22.751
		l 81.691,81.691C 519.584,327.584, 519.584,377.223, 489.249,407.558z" />
<glyph unicode="&#xe061;" d="M 238.444,142.443c 2.28-4.524, 3.495-9.579, 3.495-14.848c0.00-8.808-3.372-17.029-9.496-23.154l-81.69-81.69
		c-6.124-6.124-14.348-9.496-23.154-9.496s-17.03,3.372-23.154,9.496l-49.69,49.69c-6.124,6.125-9.496,14.348-9.496,23.154
		s 3.372,17.03, 9.496,23.154l 81.69,81.691c 6.124,6.123, 14.348,9.496, 23.154,9.496c 5.269,0.00, 10.322-1.215, 14.848-3.494l 32.669,32.668
		c-13.935,10.705-30.72,16.08-47.517,16.08c-19.993,0.00-39.986-7.583-55.154-22.751l-81.69-81.691
		c-30.335-30.335-30.335-79.975,0.00-110.309l 49.69-49.691c 15.167-15.166, 35.16-22.75, 55.153-22.75
		c 19.994,0.00, 39.987,7.584, 55.154,22.751l 81.69,81.69c 27.91,27.91, 30.119,72.149, 6.672,102.673L 238.444,142.443zM 489.248,407.558l-49.69,49.691C 424.391,472.417, 404.398,480.00, 384.404,480.00c-19.993,0.00-39.985-7.583-55.153-22.751l-81.691-81.691
		c-27.91-27.91-30.119-72.149-6.671-102.671l 32.669,32.67c-2.279,4.525-3.494,9.58-3.494,14.847c0.00,8.808, 3.372,17.03, 9.496,23.154
		l 81.691,81.691c 6.123,6.124, 14.347,9.497, 23.153,9.497c 8.808,0.00, 17.03-3.373, 23.154-9.497l 49.69-49.691
		c 6.124-6.124, 9.496-14.347, 9.496-23.154c0.00-8.807-3.372-17.03-9.496-23.154l-81.69-81.691c-6.124-6.124-14.347-9.496-23.154-9.496
		c-5.268,0.00-10.322,1.215-14.848,3.495l-32.669-32.669c 13.936-10.705, 30.72-16.08, 47.517-16.08c 19.994,0.00, 39.987,7.584, 55.154,22.752
		l 81.69,81.69C 519.584,327.584, 519.584,377.223, 489.248,407.558zM 116.684,340.688L 20.687,436.685L 43.315,459.313L 139.312,363.316zM 192.00,480.00L 224.00,480.00L 224.00,384.00L 192.00,384.00zM0.00,288.00L 96.00,288.00L 96.00,256.00L0.00,256.00zM 395.316,107.312L 491.314,11.314L 468.686-11.314L 372.688,84.684zM 288.00,64.00L 320.00,64.00L 320.00-32.00L 288.00-32.00zM 416.00,192.00L 512.00,192.00L 512.00,160.00L 416.00,160.00z" />
<glyph unicode="&#xe062;" d="M 240.00,128.00c 44.183,0.00, 80.00,35.817, 80.00,80.00L 320.00,400.00 c0.00,44.183-35.817,80.00-80.00,80.00s-80.00-35.817-80.00-80.00l0.00-192.00 C 160.00,163.817, 195.818,128.00, 240.00,128.00zM 352.00,256.00l0.00-48.00 c0.00-61.855-50.145-112.00-112.00-112.00c-61.856,0.00-112.00,50.145-112.00,112.00l0.00,48.00 L 96.00,256.00 l0.00-48.00 c0.00-74.119, 56.002-135.15, 128.00-143.11L 224.00,0.00 
		l-64.00,0.00 l0.00-32.00 l 64.00,0.00 l 32.00,0.00 l 64.00,0.00 l0.00,32.00 l-64.00,0.00 l0.00,64.89 c 71.997,7.96, 128.00,68.991, 128.00,143.11l0.00,48.00 L 352.00,256.00 z" />
<glyph unicode="&#xe063;" d="M 320.00,440.571L 320.00,288.00 L 192.00,288.00 L 192.00,440.571 C 144.201,429.454, 96.00,403.976, 96.00,352.00l0.00-212.00 c0.00-77.318, 71.634-140.00, 160.00-140.00c 88.363,0.00, 160.00,62.682, 160.00,140.00
		L 416.00,352.00 C 416.00,403.976, 367.799,429.454, 320.00,440.571zM 288.00,446.067C 276.277,447.421, 265.321,448.00, 256.00,448.00c-9.32,0.00-20.276-0.579-32.00-1.933L 224.00,320.00 l 64.00,0.00 L 288.00,446.067 z" />
<glyph unicode="&#xe064;" d="M 384.00,480.00L 96.00,480.00 C 78.40,480.00, 64.00,465.601, 64.00,448.00l0.00-448.00 c0.00-17.60, 14.399-32.00, 32.00-32.00l 288.00,0.00 c 17.60,0.00, 32.00,14.40, 32.00,32.00L 416.00,448.00 C 416.00,465.601, 401.60,480.00, 384.00,480.00z
	 M 240.00-8.891c-13.746,0.00-24.891,11.145-24.891,24.891s 11.145,24.891, 24.891,24.891s 24.891-11.145, 24.891-24.891
	S 253.746-8.891, 240.00-8.891z M 384.00,64.00L 96.00,64.00 L 96.00,416.00 l 288.00,0.00 L 384.00,64.00 z" />
<glyph unicode="&#xe065;" d="M 352.00,480.00L 160.00,480.00 C 124.656,480.00, 96.00,451.344, 96.00,416.00l0.00-384.00 c0.00-35.344, 28.656-64.00, 64.00-64.00l 192.00,0.00 c 35.344,0.00, 64.00,28.656, 64.00,64.00L 416.00,416.00 
			C 416.00,451.344, 387.344,480.00, 352.00,480.00z M 264.00,432.00l 48.00,0.00 C 316.40,432.00, 320.00,428.416, 320.00,424.00C 320.00,419.584, 316.40,416.00, 312.00,416.00l-48.00,0.00 C 259.584,416.00, 256.00,419.584, 256.00,424.00
			C 256.00,428.416, 259.584,432.00, 264.00,432.00z M 208.00,448.00c 8.832,0.00, 16.00-7.168, 16.00-16.00s-7.168-16.00-16.00-16.00s-16.00,7.168-16.00,16.00S 199.168,448.00, 208.00,448.00z M 288.00,16.00c0.00-8.848-7.152-16.00-16.00-16.00l-32.00,0.00 
			c-8.832,0.00-16.00,7.152-16.00,16.00l0.00,32.00 c0.00,8.848, 7.168,16.00, 16.00,16.00l 32.00,0.00 c 8.848,0.00, 16.00-7.152, 16.00-16.00L 288.00,16.00 z M 384.00,112.00c0.00-8.848-7.152-16.00-16.00-16.00L 144.00,96.00 c-8.832,0.00-16.00,7.152-16.00,16.00L 128.00,368.00 
			c0.00,8.832, 7.168,16.00, 16.00,16.00l 224.00,0.00 c 8.848,0.00, 16.00-7.168, 16.00-16.00L 384.00,112.00 z" />
<glyph unicode="&#xe066;" d="M 321.788,108.854c-11.188-6.236-20.175-2.064-32.764,4.572c-11.46,8.748-45.402,35.438-81.226,71.188
		c-26.156,33.084-46.162,64.288-55.375,79.293c-0.625,1.66-0.944,2.632-0.944,2.632c-5.397,13.476-8.771,22.92-1.324,33.521
		c 6.854,9.727, 9.50,12.383, 18.24,20.108L 80.605,450.292c-10.604-7.728-27.018-25.106-40.509-44.378
		c-12.538-18.317-23.154-38.587-26.049-53.055c 15.295-55.117, 52.258-157.896, 120.583-231.325l-0.021-0.308
		C 200.339,40.198, 304.774-10.204, 360.18-32.00c 14.679,1.385, 35.938,9.844, 55.456,20.404c 20.598,11.415, 39.567,25.945, 48.329,35.685
		L 343.677,124.918C 335.08,117.008, 332.179,114.664, 321.788,108.854zM 205.61,351.342c 7.241,5.302, 5.313,14.944, 1.926,20.245L 140.957,473.50c-4.344,5.291-13.396,8.064-21.252,5.579L 92.272,460.698
		l 88.034-129.879L 205.61,351.342zM 492.949,82.154l-94.473,76.788c-4.93,3.918-14.313,6.838-20.325,0.188l-23.046-23.05l 120.047-101.015l 21.136,25.357
		C 499.573,67.986, 497.755,77.279, 492.949,82.154z" />
<glyph unicode="&#xe067;" d="M 219.744,363.456c0.00,27.248, 21.616,49.328, 48.288,49.328c 26.656,0.00, 48.288-22.08, 48.288-49.328
	c0.00-27.264-21.632-49.344-48.288-49.344C 241.36,314.112, 219.744,336.208, 219.744,363.456z M 260.432,224.40L 512.00,289.184
	C 481.568,403.36, 380.848,479.856, 260.752,480.00C 140.672,480.144, 39.744,403.904, 9.024,289.792c-30.736-114.096, 18.592-229.424, 123.024-287.664
	c 104.432-58.272, 230.48-40.752, 314.384,43.664L 260.432,224.40z" />
<glyph unicode="&#xe068;" d="M 284.00,197.432l 224.00,95.568L-4.00,484.00l 191.00-512.00l 95.568,224.00L 284.00,196.00 L 284.00,197.432 z M 60.00,420.00
			L 59.00,421.00L 61.736,420.00L 60.00,420.00 z M 252.00,228.00l0.00,32.00 l-32.00,0.00 l0.00,32.00 l-32.00,0.00 l0.00,32.00 l-32.00,0.00 l0.00,32.00 l-32.00,0.00 l0.00,32.00 l-32.00,0.00 L 92.00,408.944 l 320.00-116.944L 252.00,228.00z M 379.00,36.00l 1.00,160.00
			l-96.00-53.00L 379.00,36.00z" />
<glyph unicode="&#xe069;" d="M 142.311-27.864c-33.66,0.00-65.16,14.28-87.912,37.032C 10.32,53.248-1.968,130.195, 59.831,191.996
		c 36.208,36.208, 181.248,181.244, 253.648,253.652c 25.70,25.704, 58.42,35.624, 89.739,27.236
		c 30.76-8.24, 55.972-33.44, 64.212-64.201c 8.388-31.336-1.532-64.044-27.232-89.744L 197.632,76.368
		c-13.852-13.852-29.492-22.052-45.22-23.712c-15.572-1.639-30.44,3.38-40.84,13.78
		c-18.872,18.86-21.56,54.371, 9.808,85.731l 170.38,170.384c 7.00,7.00, 18.34,7.00, 25.34,0.00
		c 7.00-6.992, 7.00-18.344,0.00-25.34L 146.72,126.823c-14.728-14.72-16.08-28.776-9.808-35.048
		c 2.747-2.753, 6.92-3.992, 11.728-3.48c 7.38,0.779, 15.78,5.552, 23.652,13.408l 242.568,242.576
		c 16.64,16.644, 23.02,36.22, 17.952,55.124c-4.992,18.619-20.239,33.868-38.86,38.86c-18.90,5.068-38.48-1.312-55.132-17.956
		C 266.42,347.90, 121.38,202.855, 85.172,166.656c-47.261-47.261-35.939-101.632-5.431-132.151
		c 30.512-30.508, 84.88-41.827, 132.151,5.431l 253.648,253.652c 7.00,7.00, 18.34,7.00, 25.34,0.00
		c 7.00-6.996, 7.00-18.344,0.00-25.34L 237.232,14.596C 207.331-15.304, 173.872-27.864, 142.311-27.864z" />
<glyph unicode="&#xe06a;" d="M 256.24,403.168c-98.968,0.00-179.20-80.237-179.20-179.20c0.00-98.973, 80.232-179.20, 179.20-179.20c 98.963,0.00, 179.20,80.227, 179.20,179.20
		C 435.441,322.932, 355.204,403.168, 256.24,403.168z" />
<glyph unicode="&#xe06b;" d="M 208.00,416.00L 256.00,416.00L 256.00,384.00L 208.00,384.00zM 160.00,384.00L 208.00,384.00L 208.00,352.00L 160.00,352.00zM 208.00,352.00L 256.00,352.00L 256.00,320.00L 208.00,320.00zM 160.00,320.00L 208.00,320.00L 208.00,288.00L 160.00,288.00zM 208.00,288.00L 256.00,288.00L 256.00,256.00L 208.00,256.00zM 160.00,256.00L 208.00,256.00L 208.00,224.00L 160.00,224.00zM 208.00,224.00l0.00-32.00 l-48.00,0.00 l0.00-112.00 c0.00-8.837, 7.163-16.00, 16.00-16.00l 64.00,0.00 c 8.837,0.00, 16.00,7.163, 16.00,16.00L 256.00,224.00 L 208.00,224.00 z M 240.00,96.00l-64.00,0.00 l0.00,32.00 l 64.00,0.00 L 240.00,96.00 zM 451.716,380.285l-71.432,71.431C 364.728,467.272, 334.00,480.00, 312.00,480.00L 72.00,480.00 C 50.00,480.00, 32.00,462.00, 32.00,440.00l0.00-432.00 c0.00-22.00, 18.00-40.00, 40.00-40.00l 368.00,0.00 
		c 22.00,0.00, 40.00,18.00, 40.00,40.00L 480.00,312.00 C 480.00,334.00, 467.272,364.729, 451.716,380.285z M 429.089,357.657c 1.565-1.565, 3.125-3.487, 4.64-5.657L 352.00,352.00 L 352.00,433.728 
		c 2.17-1.515, 4.092-3.075, 5.657-4.64L 429.089,357.657z M 448.00,8.00c0.00-4.336-3.664-8.00-8.00-8.00L 72.00,0.00 c-4.336,0.00-8.00,3.664-8.00,8.00L 64.00,440.00 
		c0.00,4.336, 3.664,8.00, 8.00,8.00l 240.00,0.00 c 2.416,0.00, 5.127-0.305, 8.00-0.852L 320.00,320.00 l 127.148,0.00 c 0.547-2.873, 0.852-5.583, 0.852-8.00L 448.00,8.00 z" />
<glyph unicode="&#xe06c;" d="M 174.388-6.396c-4.96,3.228, 80.736,183.296, 77.78,191.20c-2.952,7.888-93.808,36.776-98.248,50.672
		C 149.479,249.376, 333.308,458.34, 338.14,454.308c 4.82-4.027-80.109-185.30-77.78-191.188
		c 2.319-5.892, 95.44-35.984, 98.248-50.677C 361.42,197.741, 179.347-9.628, 174.388-6.396z" />
<glyph unicode="&#xe06d;" d="M 96.00,101.333c0.00-14.731, 11.947-26.667, 26.667-26.667s 26.667,11.936, 26.667,26.667
	c0.00,14.709-11.947,26.667-26.667,26.667S 96.00,116.043, 96.00,101.333z M 358.187,352.00L 94.187,467.829c-11.84,4.48-24.853-1.387-28.907-13.12c-4.16-11.733, 2.133-24.96, 13.973-29.44
	L 246.293,352.00L 42.667,352.00 c-23.573,0.00-42.667-19.093-42.667-42.667l0.00-288.00 c0.00-23.584, 19.093-42.667, 42.667-42.667l 384.00,0.00 c 23.573,0.00, 42.667,19.083, 42.667,42.667L 469.333,170.667 l 19.20,0.00 c 13.013,0.00, 23.467,10.453, 23.467,23.456l0.00,59.733 
	c0.00,13.013-10.453,23.467-23.467,23.467L 469.333,277.323 l0.00,32.00 c0.00,23.573-19.093,42.667-42.667,42.667L 358.187,351.989 z M 76.80,298.667l 315.733,0.00 c 13.013,0.00, 23.467-10.453, 23.467-23.467l0.00-38.40 c0.00-13.013-10.453-23.467-23.467-23.467L 181.333,213.333 
	l-32.00,32.00l-32.00-32.00L 76.80,213.333 C 63.787,213.333, 53.333,223.776, 53.333,236.80l0.00,38.40 C 53.333,288.213, 63.787,298.667, 76.80,298.667z M 362.667,144.00c0.00,14.709, 11.947,26.667, 26.667,26.667s 26.667-11.957, 26.667-26.667
	c0.00-14.731-11.947-26.667-26.667-26.667S 362.667,129.269, 362.667,144.00z M 53.333,101.333c0.00,38.293, 31.04,69.333, 69.333,69.333s 69.333-31.04, 69.333-69.333S 160.96,32.00, 122.667,32.00S 53.333,63.04, 53.333,101.333z" />
<glyph unicode="&#xe06e;" d="M 400.00,320.00c-5.312,0.00-10.562-0.375-15.792-1.125
	C 354.334,359.583, 307.188,384.00, 256.00,384.00s-98.312-24.417-128.208-65.125C 122.562,319.625, 117.312,320.00, 112.00,320.00C 50.25,320.00,0.00,269.75,0.00,208.00
	c0.00-61.75, 50.25-112.00, 112.00-112.00c 13.688,0.00, 27.084,2.50, 39.709,7.333C 180.666,78.083, 217.50,64.00, 256.00,64.00
	c 38.542,0.00, 75.333,14.083, 104.291,39.333C 372.916,98.50, 386.312,96.00, 400.00,96.00c 61.75,0.00, 112.00,50.25, 112.00,112.00
	C 512.00,269.75, 461.75,320.00, 400.00,320.00z" />
<glyph unicode="&#xe06f;" d="M 400.00,384.00c-5.312,0.00-10.562-0.375-15.792-1.125
			C 354.334,423.583, 307.188,448.00, 256.00,448.00s-98.312-24.417-128.208-65.125C 122.562,383.625, 117.312,384.00, 112.00,384.00C 50.25,384.00,0.00,333.75,0.00,272.00
			c0.00-61.75, 50.25-112.00, 112.00-112.00c 13.688,0.00, 27.084,2.50, 39.709,7.333C 180.666,142.083, 217.50,128.00, 256.00,128.00
			c 38.542,0.00, 75.333,14.083, 104.291,39.333C 372.916,162.50, 386.312,160.00, 400.00,160.00c 61.75,0.00, 112.00,50.25, 112.00,112.00
			C 512.00,333.75, 461.75,384.00, 400.00,384.00z M 224.00,32.00c0.00-17.688, 14.312-32.00, 32.00-32.00s 32.00,14.312, 32.00,32.00s-32.00,64.00-32.00,64.00S 224.00,49.688, 224.00,32.00z" />
<glyph unicode="&#xe070;" d="M 400.00,416.00c-5.312,0.00-10.562-0.375-15.792-1.125C 354.334,455.583, 307.188,480.00, 256.00,480.00
	c-51.188,0.00-98.312-24.417-128.208-65.125C 122.562,415.625, 117.312,416.00, 112.00,416.00C 50.25,416.00,0.00,365.75,0.00,304.00s 50.25-112.00, 112.00-112.00
	c 13.688,0.00, 27.084,2.50, 39.709,7.333c 21.541-18.771, 47.416-31.291, 75.104-36.521L 192.00,128.00l 32.00-32.00l-32.00-96.00l 96.00,96.00l-32.00,32.00l 11.00,32.999
	c 34.458,2.438, 67.125,15.543, 93.291,38.334C 372.916,194.50, 386.312,192.00, 400.00,192.00c 61.75,0.00, 112.00,50.25, 112.00,112.00S 461.75,416.00, 400.00,416.00z" />
<glyph unicode="&#xe071;" d="M 400.00,416.00c-5.312,0.00-10.562-0.375-15.792-1.125
			C 354.334,455.583, 307.188,480.00, 256.00,480.00s-98.312-24.417-128.208-65.125C 122.562,415.625, 117.312,416.00, 112.00,416.00C 50.25,416.00,0.00,365.75,0.00,304.00
			s 50.25-112.00, 112.00-112.00c 13.688,0.00, 27.084,2.50, 39.709,7.333C 180.666,174.083, 217.50,160.00, 256.00,160.00c 38.542,0.00, 75.333,14.083, 104.291,39.333
			C 372.916,194.50, 386.312,192.00, 400.00,192.00c 61.75,0.00, 112.00,50.25, 112.00,112.00S 461.75,416.00, 400.00,416.00z M 225.00,0.00c0.00-17.688, 14.312-32.00, 32.00-32.00
			s 32.00,14.312, 32.00,32.00s-32.00,64.00-32.00,64.00S 225.00,17.688, 225.00,0.00z M 352.00,32.00c0.00-17.688, 14.312-32.00, 32.00-32.00s 32.00,14.312, 32.00,32.00s-32.00,64.00-32.00,64.00
			S 352.00,49.688, 352.00,32.00z M 96.00,96.00c0.00-17.688, 14.312-32.00, 32.00-32.00s 32.00,14.312, 32.00,32.00s-32.00,64.00-32.00,64.00S 96.00,113.688, 96.00,96.00z" />
<glyph unicode="&#xe072;" d="M 208.00,416.00c 8.833,0.00, 16.00,7.167, 16.00,16.00L 224.00,464.00 c0.00,8.833-7.167,16.00-16.00,16.00s-16.00-7.167-16.00-16.00l0.00-32.00 
			C 192.00,423.167, 199.167,416.00, 208.00,416.00z M 332.438,373.833l 22.625,22.625c 6.249,6.25, 6.249,16.375,0.00,22.625
			c-6.25,6.25-16.375,6.25-22.625,0.00l-22.625-22.625c-6.25-6.25-6.25-16.375,0.00-22.625
			C 316.062,367.583, 326.188,367.583, 332.438,373.833z M 16.00,256.00l 32.00,0.00 c 8.833,0.00, 16.00,7.167, 16.00,16.00s-7.167,16.00-16.00,16.00L 16.00,288.00 
			c-8.833,0.00-16.00-7.167-16.00-16.00S 7.167,256.00, 16.00,256.00z M 352.00,272.00c0.00-8.833, 7.167-16.00, 16.00-16.00l 32.00,0.00 c 8.833,0.00, 16.00,7.167, 16.00,16.00s-7.167,16.00-16.00,16.00l-32.00,0.00 
			C 359.167,288.00, 352.00,280.833, 352.00,272.00z M 83.541,373.833c 6.251-6.25, 16.376-6.25, 22.625,0.00c 6.251,6.25, 6.251,16.375,0.00,22.625
			L 83.541,419.083c-6.25,6.25-16.374,6.25-22.625,0.00c-6.25-6.25-6.25-16.375,0.00-22.625L 83.541,373.833z M 400.00,224.00
			c-5.312,0.00-10.562-0.375-15.792-1.125c-16.771,22.875-39.124,40.333-64.458,51.50C 318.459,335.00, 268.938,384.00, 208.00,384.00
			c-61.75,0.00-112.00-50.25-112.00-112.00c0.00-17.438, 4.334-33.75, 11.50-48.438C 47.875,221.125,0.00,172.188,0.00,112.00c0.00-61.75, 50.25-112.00, 112.00-112.00
			c 13.688,0.00, 27.084,2.50, 39.709,7.333C 180.666-17.917, 217.50-32.00, 256.00-32.00c 38.542,0.00, 75.333,14.083, 104.291,39.333
			C 372.916,2.50, 386.312,0.00, 400.00,0.00c 61.75,0.00, 112.00,50.25, 112.00,112.00S 461.75,224.00, 400.00,224.00z M 256.00,288.00c-45.938,0.00-88.50-19.812-118.375-53.25
			C 131.688,245.917, 128.00,258.458, 128.00,272.00c0.00,44.188, 35.812,80.00, 80.00,80.00c 39.812,0.00, 72.562-29.167, 78.708-67.25
			C 276.688,286.75, 266.459,288.00, 256.00,288.00z" />
<glyph unicode="&#xe073;" d="M 435.062,217.834c 4.875,3.625, 9.812,7.187, 14.229,11.604c 13.208,13.229, 23.271,29.333, 29.792,47.854
	c 2.083,5.792, 0.604,12.292-3.772,16.625c-4.354,4.375-10.812,5.854-16.623,3.792c-35.396-12.50-73.688-4.00-99.896,22.25
	c-26.249,26.25-34.791,64.521-22.249,99.896c 2.042,5.812, 0.583,12.271-3.792,16.646c-4.333,4.333-10.812,5.833-16.625,3.791
	c-18.542-6.583-34.625-16.625-47.834-29.833c-33.541-33.50-43.979-81.00-32.479-123.792c-43.25-5.521-82.125-28.50-108.021-63.792
	c-5.229,0.75-10.479,1.125-15.792,1.125c-61.75,0.00-112.00-50.249-112.00-112.00c0.00-61.75, 50.25-112.00, 112.00-112.00c 13.688,0.00, 27.084,2.501, 39.709,7.334
	C 180.665-17.916, 217.499-32.00, 255.999-32.00c 38.542,0.00, 75.333,14.084, 104.291,39.334c 12.625-4.833, 26.021-7.334, 39.709-7.334
	c 61.75,0.00, 112.00,50.25, 112.00,112.00C 512.00,161.438, 479.583,203.021, 435.062,217.834z M 290.916,387.833c 2.542,2.583, 5.271,4.979, 8.146,7.229
	c-2.25-35.979, 10.729-71.375, 37.104-97.729c 26.376-26.375, 61.771-39.333, 97.751-37.104c-13.792-17.584-32.792-28.521-53.126-33.188
	c-27.375,34.75-67.604,56.624-111.958,60.187C 256.562,321.187, 263.75,360.667, 290.916,387.833z" />
</font>
</defs>
</svg>
