<?xml version="1.0" encoding="UTF-8"?>
<svg width="24px" height="24px" viewBox="0 0 24 24" version="1.1" xmlns="http://www.w3.org/2000/svg" xmlns:xlink="http://www.w3.org/1999/xlink">
    <g id="Stockholm-icons-/-Food-/-Beer" stroke="none" stroke-width="1" fill="none" fill-rule="evenodd">
        <rect id="bound" x="0" y="0" width="24" height="24"></rect>
        <path d="M22,7 L22,9 L19,9 C18.4477153,9 18,9.44771525 18,10 L18,13 C18,13.5522847 18.4477153,14 19,14 L22,14 L22,16 L19,16 C17.3431458,16 16,14.6568542 16,13 L16,10 C16,8.34314575 17.3431458,7 19,7 L22,7 Z" id="Path-52" fill="#000000" fill-rule="nonzero" opacity="0.3" transform="translate(19.000000, 11.500000) scale(-1, 1) translate(-19.000000, -11.500000) "></path>
        <path d="M4.75777452,5 C5.56503586,3.79401426 6.93979195,3 8.5,3 C10.0602081,3 11.4349641,3.79401426 12.2422255,5 L4.75777452,5 Z" id="Combined-Shape" fill="#000000" opacity="0.3"></path>
        <path d="M7,5 C7,2.790861 8.790861,1 11,1 C13.209139,1 15,2.790861 15,5 L7,5 Z" id="Combined-Shape" fill="#000000" opacity="0.3"></path>
        <path d="M12.0500091,5 C12.2816442,3.85887984 13.290521,3 14.5,3 C15.709479,3 16.7183558,3.85887984 16.9499909,5 L12.0500091,5 Z" id="Combined-Shape" fill="#000000" opacity="0.3"></path>
        <path d="M8,8 L8,8 C8.55228475,8 9,8.44771525 9,9 L9,18 C9,18.5522847 8.55228475,19 8,19 L8,19 C7.44771525,19 7,18.5522847 7,18 L7,9 C7,8.44771525 7.44771525,8 8,8 Z M13,8 L13,8 C13.5522847,8 14,8.44771525 14,9 L14,18 C14,18.5522847 13.5522847,19 13,19 L13,19 C12.4477153,19 12,18.5522847 12,18 L12,9 C12,8.44771525 12.4477153,8 13,8 Z M4.06055214,5 L16.9394479,5 C17.4917326,5 17.9394479,5.44771525 17.9394479,6 C17.9394479,6.01958668 17.9388724,6.03916914 17.9377222,6.05872202 L17.1107386,20.117444 C17.0485547,21.1745693 16.1731425,22 15.1141898,22 L5.88581016,22 C4.82685754,22 3.95144525,21.1745693 3.88926141,20.117444 L3.06227777,6.05872202 C3.02984649,5.50739031 3.4504984,5.0341569 4.00183012,5.00172563 C4.021383,5.00057546 4.04096546,5 4.06055214,5 Z" id="Combined-Shape" fill="#000000"></path>
    </g>
</svg>
