<?xml version="1.0" encoding="UTF-8"?>
<svg width="24px" height="24px" viewBox="0 0 24 24" version="1.1" xmlns="http://www.w3.org/2000/svg" xmlns:xlink="http://www.w3.org/1999/xlink">
       <g id="Group" transform="translate(12.000000, 12.500000) rotate(-315.000000) translate(-12.000000, -12.500000) translate(5.000000, 1.000000)" fill="#000000">
            <path fill="#000000" d="M7,1.77635684e-15 L7,1.77635684e-15 C10.2482778,1.17965788e-15 12.8815273,2.63324947 12.8815273,5.88152731 C12.8815273,6.47647336 12.7912576,7.06797572 12.6138001,7.63583982 L10.894825,13.1365601 C10.3624694,14.840098 8.78478119,16 7,16 L7,16 C5.21521881,16 3.63753062,14.840098 3.10517502,13.1365601 L1.38619995,7.63583982 C0.417319895,4.53542367 2.14527132,1.2366073 5.24568748,0.267727252 C5.81355158,0.090269721 6.40505394,1.88564666e-15 7,1.77635684e-15 Z"></path>

            <path fill="#000000" d="M5.5,20.0853529 L5.5,18 L8.5,18 L8.5,20.0853529 C9.08259619,20.2912711 9.5,20.8468906 9.5,21.5 C9.5,22.3284271 8.82842712,23 8,23 C7.61582278,23 7.26537825,22.8555732 7,22.6180533 C6.73462175,22.8555732 6.38417722,23 6,23 C5.17157288,23 4.5,22.3284271 4.5,21.5 C4.5,20.8468906 4.91740381,20.2912711 5.5,20.0853529 Z" opacity="0.3"></path>
        </g>
</svg>
