<svg width="62" height="62" viewBox="0 0 62 62" fill="none" xmlns="http://www.w3.org/2000/svg">
<path d="M15.5 0C13.3687 0 11.625 1.74375 11.625 3.875V58.125C11.625 60.2562 13.3687 62 15.5 62H54.25C56.3812 62 58.125 60.2562 58.125 58.125V15.5L42.625 0H15.5Z" fill="#E2E5E7"/>
<path d="M46.5 15.5H58.125L42.625 0V11.625C42.625 13.7563 44.3687 15.5 46.5 15.5Z" fill="#B0B7BD"/>
<path d="M58.125 27.125L46.5 15.5H58.125V27.125Z" fill="#CAD1D8"/>
<path d="M50.375 50.375C50.375 51.4406 49.5031 52.3125 48.4375 52.3125H5.8125C4.74687 52.3125 3.875 51.4406 3.875 50.375V31C3.875 29.9344 4.74687 29.0625 5.8125 29.0625H48.4375C49.5031 29.0625 50.375 29.9344 50.375 31V50.375Z" fill="#F15642"/>
<path d="M11.8825 38.1048C12.239 35.0978 16.7766 34.5573 18.9137 36.2003C19.9677 37.0508 18.8536 38.3993 17.9217 37.7173C16.7766 36.9907 14.1726 36.6498 13.8471 38.2579C13.4286 40.7999 20.1692 39.3448 20.0588 43.4659C19.9503 47.4009 14.2501 47.492 12.1111 45.7269C11.5996 45.3084 11.6151 44.6284 11.8961 44.2079C12.2971 43.8069 12.7466 43.6674 13.2736 44.1014C14.5446 44.9674 17.8132 45.6184 18.0457 43.4174C17.8461 41.1273 11.402 42.5049 11.8825 38.1048Z" fill="white"/>
<path d="M32.1485 44.7349L32.3965 45.0274C33.4175 45.9574 32.0865 47.4764 31.048 46.4999L30.5229 46.0834C29.7169 46.6394 28.7733 46.9049 27.5178 46.9049C24.7918 46.9049 21.6763 45.0274 21.6763 41.2164C21.6763 37.4053 24.7743 35.4697 27.5178 35.4697C30.397 35.4697 33.218 37.4053 33.218 41.2164C33.218 42.6889 32.844 43.7758 32.1485 44.7349ZM31.2165 41.2164C31.2165 38.7538 29.281 37.5002 27.5159 37.5002C25.6113 37.5002 23.7358 38.7519 23.7358 41.2164C23.7358 43.0938 25.3304 44.8744 27.5159 44.8744C28.072 44.8744 28.6145 44.7349 29.157 44.5954L27.3919 42.9679C26.5704 41.9759 27.8724 40.5654 28.909 41.4799L30.6605 43.2294C31.046 42.6889 31.2165 42.0224 31.2165 41.2164Z" fill="white"/>
<path d="M35.5005 36.7097C35.5005 36.1982 35.9345 35.7642 36.477 35.7642C36.973 35.7642 37.3915 36.2001 37.3915 36.7097V44.4713H41.6056C43.1226 44.4713 43.1556 46.4998 41.6056 46.4998H36.4789C35.9364 46.4998 35.5024 46.1143 35.5024 45.5563V36.7097H35.5005Z" fill="white"/>
<path d="M48.4375 52.3125H11.625V54.25H48.4375C49.5031 54.25 50.375 53.3781 50.375 52.3125V50.375C50.375 51.4406 49.5031 52.3125 48.4375 52.3125Z" fill="#CAD1D8"/>
</svg>
