<svg width="62" height="62" viewBox="0 0 62 62" fill="none" xmlns="http://www.w3.org/2000/svg">
<path d="M15.5 0C13.3687 0 11.625 1.74375 11.625 3.875V58.125C11.625 60.2562 13.3687 62 15.5 62H54.25C56.3812 62 58.125 60.2562 58.125 58.125V15.5L42.625 0H15.5Z" fill="#E2E5E7"/>
<path d="M46.5 15.5H58.125L42.625 0V11.625C42.625 13.7563 44.3687 15.5 46.5 15.5Z" fill="#B0B7BD"/>
<path d="M58.125 27.125L46.5 15.5H58.125V27.125Z" fill="#CAD1D8"/>
<path d="M50.375 50.375C50.375 51.4406 49.5031 52.3125 48.4375 52.3125H5.8125C4.74687 52.3125 3.875 51.4406 3.875 50.375V31C3.875 29.9344 4.74687 29.0625 5.8125 29.0625H48.4375C49.5031 29.0625 50.375 29.9344 50.375 31V50.375Z" fill="#50BEE8"/>
<path d="M15.8971 39.498L18.5941 36.121C19.3982 35.0689 20.9637 36.4155 20.0821 37.423C19.1541 38.5235 18.1776 39.717 17.2456 40.9376L20.4076 44.8726C21.2582 46.0351 19.5551 47.1511 18.7181 46.0041L15.8681 42.3481L13.0645 46.0816C12.274 47.2112 10.5225 45.9421 11.4079 44.8881L14.5215 40.9376C13.545 39.715 12.5995 38.5235 11.6559 37.423C10.6794 36.2605 12.4929 35.0689 13.204 36.1539L15.8971 39.498Z" fill="white"/>
<path d="M24.3717 39.6994V45.4306C24.3717 46.1145 23.8137 46.5001 23.2576 46.5001C22.7616 46.5001 22.3276 46.1145 22.3276 45.4306V36.7099C22.3276 35.9039 23.0116 35.6384 23.2576 35.6384C23.7052 35.6384 23.9687 35.9039 24.2322 36.1984L27.6422 40.798L31.1723 36.0259C31.6858 35.3924 32.9393 35.6384 32.9393 36.7099V45.4306C32.9393 46.1145 32.5053 46.5001 32.0113 46.5001C31.4533 46.5001 31.0193 46.1145 31.0193 45.4306V39.6994L28.4463 42.9525C27.8902 43.6364 27.1927 43.6364 26.6812 42.9525L24.3717 39.6994Z" fill="white"/>
<path d="M35.6362 36.7099C35.6362 36.1984 36.0702 35.7644 36.6127 35.7644C37.1087 35.7644 37.5272 36.2003 37.5272 36.7099V44.4715H41.7413C43.2583 44.4715 43.2913 46.5001 41.7413 46.5001H36.6147C36.0722 46.5001 35.6382 46.1145 35.6382 45.5546V36.7099H35.6362Z" fill="white"/>
<path d="M48.4375 52.3125H11.625V54.25H48.4375C49.5031 54.25 50.375 53.3781 50.375 52.3125V50.375C50.375 51.4406 49.5031 52.3125 48.4375 52.3125Z" fill="#CAD1D8"/>
</svg>
