<svg width="24" height="24" viewBox="0 0 24 24" fill="none" xmlns="http://www.w3.org/2000/svg">
<path d="M16.0546 7.08943H17.8078L15.2088 2.39571C14.9994 2.01537 14.5354 1.88571 14.1741 2.11045C13.8128 2.33088 13.6896 2.81927 13.9031 3.1996L16.0546 7.08943Z" fill="#E4E6EF"/>
<path d="M10.1051 3.19921C10.3145 2.81887 10.1954 2.33048 9.83411 2.11006C9.47279 1.88963 9.00882 2.01497 8.79942 2.39531L6.20037 7.09336H7.9536L10.1051 3.19921Z" fill="#E4E6EF"/>
<path d="M20.7107 8.52869H3.28516C2.57483 8.52869 2 9.13377 2 9.88148V11.3812C2 12.1289 2.57483 12.734 3.28516 12.734H3.68754L4.92753 19.8092C5.08356 20.6433 5.8062 21.3046 6.55759 21.3046H7.0503H10.2858C10.6142 21.3046 11.0413 21.3046 11.4765 21.3046H11.8707H12.2648C12.7001 21.3046 13.1271 21.3046 13.4556 21.3046H16.691H17.1837C17.9351 21.3046 18.6578 20.6433 18.8138 19.8092L20.062 12.7297H20.7148C21.4252 12.7297 22 12.1246 22 11.3769V9.87716C21.9959 9.13377 21.4211 8.52869 20.7107 8.52869ZM9.09505 15.5995V18.6509C9.09505 19.0874 8.75837 19.4159 8.3683 19.4159C7.9536 19.4159 7.64155 19.0615 7.64155 18.6509V17.3716V14.3721C7.64155 13.9356 7.97824 13.6071 8.3683 13.6071C8.783 13.6071 9.09505 13.9615 9.09505 14.3721V15.5995ZM11.4272 15.5995V18.6509C11.4272 19.0874 11.0905 19.4159 10.7005 19.4159C10.2858 19.4159 9.97372 19.0615 9.97372 18.6509V17.3716V14.3721C9.97372 13.9356 10.3104 13.6071 10.7005 13.6071C11.0905 13.6071 11.4272 13.9615 11.4272 14.3721V15.5995ZM13.7717 17.3716V18.6509C13.7717 19.0615 13.4597 19.4159 13.045 19.4159C12.6549 19.4159 12.3182 19.0874 12.3182 18.6509V15.5995V14.3721C12.3182 13.9615 12.6549 13.6071 13.045 13.6071C13.435 13.6071 13.7717 13.9356 13.7717 14.3721V17.3716ZM16.1039 17.3716V18.6509C16.1039 19.0615 15.7918 19.4159 15.3771 19.4159C14.9871 19.4159 14.6504 19.0874 14.6504 18.6509V15.5995V14.3721C14.6504 13.9615 14.9624 13.6071 15.3771 13.6071C15.7672 13.6071 16.1039 13.9356 16.1039 14.3721V17.3716Z" fill="#E4E6EF"/>
</svg>
