<?xml version="1.0" encoding="UTF-8"?>
<svg width="24px" height="24px" viewBox="0 0 24 24" version="1.1" xmlns="http://www.w3.org/2000/svg" xmlns:xlink="http://www.w3.org/1999/xlink">
    <g id="Stockholm-icons-/-Shopping-/-Sale2" stroke="none" stroke-width="1" fill="none" fill-rule="evenodd">
        <rect id="bound" x="0" y="0" width="24" height="24"></rect>
        <polygon id="Combined-Shape" fill="#000000" opacity="0.3" points="12 20.0218549 8.47346039 21.7286168 6.86905972 18.1543453 3.07048824 17.1949849 4.13894342 13.4256452 1.84573388 10.2490577 5.08710286 8.04836581 5.3722735 4.14091196 9.2698837 4.53859595 12 1.72861679 14.7301163 4.53859595 18.6277265 4.14091196 18.9128971 8.04836581 22.1542661 10.2490577 19.8610566 13.4256452 20.9295118 17.1949849 17.1309403 18.1543453 15.5265396 21.7286168"></polygon>
        <polygon id="Stroke-1" fill="#000000" points="14.0890818 8.60255815 8.36079737 14.7014391 9.70868621 16.049328 15.4369707 9.950447"></polygon>
        <path d="M10.8543431,9.1753866 C10.8543431,10.1252593 10.085524,10.8938719 9.13585777,10.8938719 C8.18793881,10.8938719 7.41737243,10.1252593 7.41737243,9.1753866 C7.41737243,8.22551387 8.18793881,7.45690126 9.13585777,7.45690126 C10.085524,7.45690126 10.8543431,8.22551387 10.8543431,9.1753866" id="Fill-2" fill="#000000" opacity="0.3"></path>
        <path d="M14.8641422,16.6221564 C13.9162233,16.6221564 13.1456569,15.8535438 13.1456569,14.9036711 C13.1456569,13.9520555 13.9162233,13.1851857 14.8641422,13.1851857 C15.8138085,13.1851857 16.5826276,13.9520555 16.5826276,14.9036711 C16.5826276,15.8535438 15.8138085,16.6221564 14.8641422,16.6221564 Z" id="Fill-4" fill="#000000" opacity="0.3"></path>
    </g>
</svg>
