<?xml version="1.0" encoding="UTF-8"?>
<svg width="24px" height="24px" viewBox="0 0 24 24" version="1.1" xmlns="http://www.w3.org/2000/svg" xmlns:xlink="http://www.w3.org/1999/xlink">
    <g id="Stockholm-icons-/-Shopping-/-Sale1" stroke="none" stroke-width="1" fill="none" fill-rule="evenodd">
        <rect id="bound" x="0" y="0" width="24" height="24"></rect>
        <path d="M16.0322024,5.68722152 L5.75790403,15.945742 C5.12139076,16.5812778 5.12059836,17.6124773 5.75613416,18.2489906 C5.75642891,18.2492858 5.75672377,18.2495809 5.75701875,18.2498759 L5.75701875,18.2498759 C6.39304347,18.8859006 7.42424328,18.8859006 8.060268,18.2498759 C8.06056298,18.2495809 8.06085784,18.2492858 8.0611526,18.2489906 L18.3196731,7.9746922 C18.9505124,7.34288268 18.9501191,6.31942463 18.3187946,5.68810005 L18.3187946,5.68810005 C17.68747,5.05677547 16.6640119,5.05638225 16.0322024,5.68722152 Z" id="Stroke-1" fill="#000000" fill-rule="nonzero"></path>
        <path d="M9.85714286,6.92857143 C9.85714286,8.54730513 8.5469533,9.85714286 6.93006028,9.85714286 C5.31316726,9.85714286 4,8.54730513 4,6.92857143 C4,5.30983773 5.31316726,4 6.93006028,4 C8.5469533,4 9.85714286,5.30983773 9.85714286,6.92857143 Z M20,17.0714286 C20,18.6901623 18.6898104,20 17.0729174,20 C15.4560244,20 14.1428571,18.6901623 14.1428571,17.0714286 C14.1428571,15.4497247 15.4560244,14.1428571 17.0729174,14.1428571 C18.6898104,14.1428571 20,15.4497247 20,17.0714286 Z" id="Combined-Shape" fill="#000000" opacity="0.3"></path>
    </g>
</svg>
