<?xml version="1.0" encoding="UTF-8"?>
<svg width="24px" height="24px" viewBox="0 0 24 24" version="1.1" xmlns="http://www.w3.org/2000/svg" xmlns:xlink="http://www.w3.org/1999/xlink">
    <g id="Stockholm-icons-/-Shopping-/-Wallet3" stroke="none" stroke-width="1" fill="none" fill-rule="evenodd">
        <rect id="bound" x="0" y="0" width="24" height="24"></rect>
        <path d="M4,4 L20,4 C21.1045695,4 22,4.8954305 22,6 L22,18 C22,19.1045695 21.1045695,20 20,20 L4,20 C2.8954305,20 2,19.1045695 2,18 L2,6 C2,4.8954305 2.8954305,4 4,4 Z" id="Combined-Shape" fill="#000000" opacity="0.3"></path>
        <path d="M18.5,11 L5.5,11 C4.67157288,11 4,11.6715729 4,12.5 L4,13 L8.58578644,13 C8.85100293,13 9.10535684,13.1053568 9.29289322,13.2928932 L10.2928932,14.2928932 C10.7456461,14.7456461 11.3597108,15 12,15 C12.6402892,15 13.2543539,14.7456461 13.7071068,14.2928932 L14.7071068,13.2928932 C14.8946432,13.1053568 15.1489971,13 15.4142136,13 L20,13 L20,12.5 C20,11.6715729 19.3284271,11 18.5,11 Z" id="Path" fill="#000000"></path>
        <path d="M5.5,6 C4.67157288,6 4,6.67157288 4,7.5 L4,8 L20,8 L20,7.5 C20,6.67157288 19.3284271,6 18.5,6 L5.5,6 Z" id="Path" fill="#000000"></path>
    </g>
</svg>
