<?xml version="1.0" encoding="UTF-8"?>
<svg width="24px" height="24px" viewBox="0 0 24 24" version="1.1" xmlns="http://www.w3.org/2000/svg" xmlns:xlink="http://www.w3.org/1999/xlink">
    <g id="Stockholm-icons-/-Text-/-Font" stroke="none" stroke-width="1" fill="none" fill-rule="evenodd">
        <rect id="bound" x="0" y="0" width="24" height="24"></rect>
        <path d="M0.18,19 L7.1,4.64 L14.02,19 L12.06,19 L10.3,15.28 L3.9,15.28 L2.14,19 L0.18,19 Z M7.1,8.52 L4.7,13.6 L9.5,13.6 L7.1,8.52 Z" id="Aa" fill="#000000"></path>
        <path d="M21.34,19 L21.34,18 C20.5,18.76 19.38,19.16 18.16,19.16 C15.22,19.16 13.06,16.9 13.06,14 C13.06,11.1 15.22,8.84 18.16,8.84 C19.38,8.84 20.5,9.24 21.34,10 L21.34,9 L23.06,9 L23.06,19 L21.34,19 Z M18.2,17.54 C19.64,17.54 20.76,16.86 21.34,15.92 L21.34,12.08 C20.76,11.14 19.64,10.46 18.2,10.46 C16.24,10.46 14.84,12.02 14.84,14 C14.84,15.98 16.24,17.54 18.2,17.54 Z" id="Combined-Shape" fill="#000000" opacity="0.3"></path>
    </g>
</svg>
