<?xml version="1.0" encoding="UTF-8"?>
<svg width="24px" height="24px" viewBox="0 0 24 24" version="1.1" xmlns="http://www.w3.org/2000/svg">
        <rect id="Rectangle-2" fill="#000000" opacity="0.3" x="5" y="15" width="14" height="2" rx="1"></rect>
        <path d="M6.5,15 C7.88071187,15 9,13.8807119 9,12.5 C9,11.1192881 7.88071187,10 6.5,10 C5.11928813,10 4,11.1192881 4,12.5 C4,13.8807119 5.11928813,15 6.5,15 Z M6.5,17 C4.01471863,17 2,14.9852814 2,12.5 C2,10.0147186 4.01471863,8 6.5,8 C8.98528137,8 11,10.0147186 11,12.5 C11,14.9852814 8.98528137,17 6.5,17 Z" id="Oval-Copy" fill="#000000" fill-rule="nonzero"></path>
        <path d="M17.5,15 C18.8807119,15 20,13.8807119 20,12.5 C20,11.1192881 18.8807119,10 17.5,10 C16.1192881,10 15,11.1192881 15,12.5 C15,13.8807119 16.1192881,15 17.5,15 Z M17.5,17 C15.0147186,17 13,14.9852814 13,12.5 C13,10.0147186 15.0147186,8 17.5,8 C19.9852814,8 22,10.0147186 22,12.5 C22,14.9852814 19.9852814,17 17.5,17 Z" id="Oval" fill="#000000" fill-rule="nonzero"></path>
</svg>
