<?xml version="1.0" encoding="UTF-8"?>
<svg width="24px" height="24px" viewBox="0 0 24 24" version="1.1" xmlns="http://www.w3.org/2000/svg">
       <rect id="Combined-Shape" fill="#000000" opacity="0.3" x="2" y="6" width="20" height="14" rx="2"></rect>
        <path d="M5,4 L7,4 C7.55228475,4 8,4.44771525 8,5 L8,6 L4,6 L4,5 C4,4.44771525 4.44771525,4 5,4 Z M17,4 L19,4 C19.5522847,4 20,4.44771525 20,5 L20,6 L16,6 L16,5 C16,4.44771525 16.4477153,4 17,4 Z" id="Combined-Shape" fill="#000000"></path>
        <path d="M7,12 L7,11 C7,10.4477153 7.44771525,10 8,10 C8.55228475,10 9,10.4477153 9,11 L9,12 L10,12 C10.5522847,12 11,12.4477153 11,13 C11,13.5522847 10.5522847,14 10,14 L9,14 L9,15 C9,15.5522847 8.55228475,16 8,16 C7.44771525,16 7,15.5522847 7,15 L7,14 L6,14 C5.44771525,14 5,13.5522847 5,13 C5,12.4477153 5.44771525,12 6,12 L7,12 Z" id="Combined-Shape" fill="#000000"></path>
        <rect id="Rectangle-46-Copy" fill="#000000" x="14" y="12" width="4" height="2" rx="1"></rect>
</svg>
