<?xml version="1.0" encoding="UTF-8"?>
<svg width="24px" height="24px" viewBox="0 0 24 24" version="1.1" xmlns="http://www.w3.org/2000/svg">
       <path d="M19.366142,13.9305937 L17.2619853,15.6656848 C15.9733542,14.1029531 14.0626842,13.1818182 11.9984835,13.1818182 C9.94104045,13.1818182 8.03600715,14.0968752 6.74725784,15.6508398 L4.64798148,13.9098472 C6.44949126,11.7375997 9.12064835,10.4545455 11.9984835,10.4545455 C14.8857906,10.4545455 17.5648042,11.7460992 19.366142,13.9305937 Z M23.5459782,10.4257575 L21.4473503,12.1675316 C19.1284914,9.37358605 15.6994058,7.72727273 11.9984835,7.72727273 C8.30267753,7.72727273 4.87785708,9.36900008 2.55893241,12.1563207 L0.462362714,10.4120696 C3.29407133,7.00838857 7.48378666,5 11.9984835,5 C16.519438,5 20.7143528,7.01399004 23.5459782,10.4257575 Z" id="Combined-Shape" fill="#000000" fill-rule="nonzero" opacity="0.3"></path>
        <path d="M15.1189503,17.3544974 L13.0392442,19.1188213 L11.9619232,20 L10.9331836,19.1485815 L8.80489611,17.4431757 C9.57552634,16.4814558 10.741377,15.9090909 11.9984835,15.9090909 C13.215079,15.9090909 14.347452,16.4450896 15.1189503,17.3544974 Z" id="Oval-21" fill="#000000"></path>
   
</svg>
