<svg xmlns="http://www.w3.org/2000/svg" id="flag-icons-bt" viewBox="0 0 640 480">
  <path fill="#ffd520" d="M.1 0h640.1v480H.1z"/>
  <path fill="#ff4e12" d="M.1 480h640.1V0z"/>
  <g stroke="#000" stroke-width=".5">
    <g fill="#fff" stroke-width=".4">
      <path d="M345.4 150c-4-1.3-6.6.7-6.4 5.9 0 5.1 2.8 8 6.8 6.1l-.4-12z"/>
      <path d="M348.9 140.4c-3.3-2.6-6.4-1.5-8 3.4-1.5 5 .1 8.6 4.5 8l3.5-11.4z"/>
      <path d="M354.4 131c-2.8-3-6-2.4-8.4 2.2-2.3 4.6-1.3 8.5 3.2 8.7l5.2-10.8zm-3.6 45.5c-4.9 1.8-5.4 8.5-2.3 12.6 3 4.1 8.7 4.9 11.8 0l-9.5-12.6z"/>
      <path d="M345.1 162.3c-4.6-1.5-8.8 4.7-9.5 10.3-.9 7-11 9.4-5.4 20.1 1.2-6.8 5.7-10.6 9.3-10.8 3.6-.3 9-1 11.3-5.4l-5.7-14.2zm14.7 27.6c-5.4 1.3-6.2 8.5-2.3 13.6 3.3 4.4 13.7 3.4 13.4-1l-11-12.6zm15.3 43.4c.3-4.7-7.2-6.5-10.8-5.6-3.6 1-10.5-.1-12-4-1.4 3.1.5 6.5 5.7 8.2 4 1.2 3.9 4 2.7 5.4 3 .5 11.7.5 14.4-4z"/>
      <path d="M370.9 203.7c-5.3-2.4-8.4 1.2-10.4 4.6-3 5-12.1-1.4-15.2 5.3 4.2-1.8 8.4 2 10.4 3.3 5.7 3.7 16.6 2.6 18.2-6.2l-3-7z"/>
      <path d="M374 209.8c-5.3 4-7.4 8.8-7.2 12 .1 3.2 4.6 10.3 9.5 10.7 2.8-5.8 4.3-18-2.3-22.7zm-22 24.9c0-2 2.8-2.7 4.8-2 1.9.6 4.9 2.5 3.8 4.6l-8.6-2.6zM323 224c-.5-2.3 3.2-6.3 8.2-4.1 5 2.2 5.7 6.4 3.6 8.1l-11.8-4z"/>
      <path d="M335.2 228.4c-.4-1.3 3.3-3.9 9.4-2.4 6.2 1.6 7.7 5.6 7.5 8.7l-16.9-6.3zm-12.9-4.3c3.3-2.4 2-7-.9-8.5-5.2-2.6-3.3-9.2-6.7-10.5-3.3-1.3-6.5-3.6-6.7-6-1.6 3.3-.6 6.2 1.7 8.3 2.3 2-1.8 10.4 1.2 12.6l11.4 4.1zm-69-1.8c-2.7-4.2-9.1-3.5-11.8-.5-2.7 3-2.3 7.3.2 9.3l11.6-8.8zm15.5-6.3c-1-5.7-7.9-6.3-11.6-4.9-3.8 1.4-6.3 7.1-3.9 11.2l15.5-6.3z"/>
      <path d="M279 215.2c2.5-4.7-2.3-11.8-7.7-12.8-4.5-1-9.8-.9-11.6-5.3-1 3.8 1.8 6.3 5.2 8.5 3.3 2.2-.6 7.8 4.8 11l9.4-1.4z"/>
      <path d="M278.6 215.4c-1.2-3.4 1.1-8 5.7-7.6 4.7.3 7.3 3.6 5.3 7.9l-11-.3z"/>
      <path d="M288.9 215.7c-.7-3.6 2.2-7.8 6.8-6.8 4.5 1 6.6 4.7 4 8.5l-10.8-1.8z"/>
      <path d="M299 217.3c-.4-3.6 2.7-7.6 7.2-6.4 4.5 1.2 6.4 5 3.6 8.7l-10.7-2.3zm-77.6 59c-8.7 0-10.8 2-12 11-1.6 11 13.5 12.3 12-11z"/>
      <path d="M225.2 264.7c-13.2-5-20.4 16-33.6 12.2 4.7 7.5 16.1 0 20.4.8 7.2 1.3 22.8-1.4 13.2-13zm-8.6 28.7c-6.6-3-13.6 7-12.4 11.5 1.7 5.5 16.7 1 12.4-11.5zM186 336.7c3.6 1 8 3 7.2 10-.8 7-14 21.1-25.8 22-11.8.7-16 15-26.3 11 9.6-1.8 9.6-12.6 17-16-5.4-2-8.2 10.3-15.2 10.3s-10.3 11.1-18.8 10.3c-8.5-.7-9.3 13.5-26.4 13.7-13 .1-29 15.3-34.9 8.7 12.7-1.8 17.8-8.8 25.3-16.5 12-12.3 25.7-6.8 30.4-17.7a31.6 31.6 0 0 1-18.3 5.4c-8-.2-16.6 12.6-25.5 7 5.1-.7 8.5-2.9 13.9-8.6 5.5-5.8 13.7-2 20.1-8 10-9.2 18.7-1.5 28.3-13-2.7-1.4-8.5-.5-13.9 2.4-5.4 2.8-12.3-2-18.5 1.4.7-7.6 15.2-3.3 24.2-8.5 10.2-6 18.6-4.2 26.6-3.5-11.2 0-15.5-10.7-31-7.6-6.7 1.4-12.1-9.3-18.8-3.9.2-4 7.2-7.2 14.4-3.3 7.2 3.9 10.1-3.4 24.5 5.7 6 3.7 16.1-2.4 22.5 1.6-.8-2.4-4.5-4-8.8-3.6 2.7-5.6 20.2-4.9 27.8.7z"/>
      <path d="M197.4 328.3c-5.6-4.4-13.5.9-19-1.2 0 3.6 1.9 9 7.8 11.1 1.8-1.3 10-8.4 11.2-9.9z"/>
      <path d="M206.3 315.8c-8.9-4.5-10.4 6.7-17.4 4.4.3 3.2 2.9 7.2 8.5 8.1l9-12.5z"/>
      <path d="M211.6 305.6c-13.1-5.1-14.8 7.5-22.5 5 1.8 4.4 12.8 6.8 18.5 5.2l4-10.2zm18-55.2c-3.5-5-10.8-1-12 4.9-1.1 5.8 1.7 13.9 6.6 12l5.4-17z"/>
      <path d="M238.5 235c-6-1.5-13-.8-12.2 5-2.4 1.1-3 8.7 3.3 10.4l8.9-15.5z"/>
      <path d="M242.5 231c-6-7-12.5-6.9-16.2-4-6.9 5.5-13.5 2.4-13.7 7.8 4.1-3.2 7.8.6 11-.5 3.4-1.2 5.9 5.3 15.2 2.6l3.7-6zm-14.3 103.9c.9 1.7 6.4 2.4 9.1-.4 3.6-3.8-.3-14.2-6-15-5.7-.7-6.2 11.8-3.1 15.4z"/>
      <path d="M221.8 335.1c8 3 11.5-3.7 7.2-8a80 80 0 0 1-7.2 8z"/>
      <path d="M191.4 346.2c-1.6 4.7-9.6 5.4-18.6 19.8-9 14.5-17.6 8.4-19.8 18.3 10.8-8.7 19.3-3 25.8-11.6 9.7-13.1 17.8-11.2 21.6-20 5.4-12.7 29-12.4 30.4-32.3-8-1.5-33.3 19.9-39.4 25.8zm203.2-194.7c10.3 3.4 10.5 16.7 22.4 21.1 11.8 4.4 13 15 22.7 12.4-9-2.5-8.4-12.9-17.8-15.5-11-3-15.2-19.8-24-22.4m44 74.3c1.8 4.2 1.5 11.5-5 13.4 3.5 2.2 8.7.2 11.5-4.6-4.2 9.4-1.4 17.9 5.3 19.6-3.2-6.6 4-9.7 1.7-14 4.2 1.9 8 7.7 7.8 11.3 5.6-6.2-4-14.5-2.3-20.3l-19-5.4zM375 287.6c-6.3-5.5-9 1.5-12-1-3-2.2-6.8-2.5-8.3-.3 5.4.2 2.8 4.4 13.3 5.4-10.5.7-8.6 12.5-15.6 11.9 7.4 7 11.3-6.3 17.4-4.1-1.8.5 2.8 4.7-.4 10.4 5.2-.1 7.3-7.3 8-11l-2.4-11.3zm-139 60.2c-2.2-2-9-2.9-11.5-1.3-2.6 1.5-1.7 2 1.4 2.2 3.1.2 7 5.2.4 5.5-3.1.1-2 7.6-8.5 8.1 2.6 3.2 10.2 1.1 12.9-2.4-.5 2.9 3.3 5.5 1.8 9 4.7.5 2-9.7 9.5-9.2-3 .4-1.8 7.4 3.6 5.6-3.2 1.5-1.5 5.3 2 4.4-2.2.7-3 3.7.2 5.4 3.1-4.3-.4-19.5-11.7-27.3zm280.6-142.1a17.9 17.9 0 1 0 0-35.7 17.9 17.9 0 0 0 0 35.7z"/>
      <path d="M423.4 227.2c5.5-5.1 13.7-7.7 19.4-3.8 5.6 3.8 24.4 8.4 33.7 2 9.3-6.4 13.7-9.8 17.8-9 3 4.6 6.8 6.8 11.4 7.2 1.4 1.6 6.5 2.8 9.3 2.5 4.1 1 9.1-.3 13.1-4.7 6.2 1 12-3.7 14.2-10.7 6.6-.7 7-8 2.8-13-3.8-.7-.9-13.8-14.9-11.2 6 3.6 1.4 10.8 6.3 14.2-3.3 0-7.7 1.4-8.7 6.4 1.3-3.4-.2-5.8-1-6.5 0-3-6.5-10.3-12.7-7.6 4.4 1 2 8 5.2 10.8a8.1 8.1 0 0 0-6.2 3.3c-1.7-3-7.6-6-11.2-6.3 0-1-.2-3-.7-4.1-1.6-3.1-3-6.8-2.3-11.5a48 48 0 0 0-7.2 11.4c-4.9-3.4-17 1.5-22.7 2.8-5.6 1.3-24.7-1.8-29-6.4a49.2 49.2 0 0 0-21-9.8c-11-3.2-11-15.2-23.1-23.5-.3 15 22.4 62.4 27.5 67.5zM297.2 341.1a17.3 17.3 0 1 0 0-34.6 17.3 17.3 0 0 0 0 34.6z"/>
      <path d="M256 327.8c3.5 4.5 9.4 4.2 11.9 3.9 2 5.4 8.6 5.2 11.4 8.2 2.9 3 12.5 2.7 15.3 1-2.5-.2-5.9-1.8-9-4.5-4-3.2-2.2-9.8-5.2-12a11 11 0 0 0 2.2-8.6c2.4-1.4 4.2-3.7 4.4-4.9a15 15 0 0 0 9.6-4.1c2.2 2 7.7-.6 10.7 2.8.6-8.5-7.5-13-13-10.1-2.1-1.2-7.9-.4-9 1.1-1.7-.8-6.8 1.8-9 3.5 2.5-1.4 2.9-5.7 1.9-7.2 2.2-1 4.6-3.9 4.9-6 3 .5 7.7-1.6 9.7-1.1-3.3-4.4-8.8-6-14.5-5.5-5.9.3-8.4 4.4-9.2 8.8-3.4 2.1-4.6 9-3.3 11.5-2 0-3.9 1.9-4.6 3a26.7 26.7 0 0 0-9.4-2m1.3-7c-1.2-3.4.3-6.4 1.1-9 2-6.8.8-8.6-5.3-7.7a47 47 0 0 0 4.2 16.7z"/>
      <path d="M248.6 282.3c1.6 1.6 7 2.3 7.6-2.6.7-5.6-1.6-7.8-6.5-5.6-.4 1.3-.8 6.5-1 8.2z"/>
      <path d="M249.8 273.9c2 .8 6.5 2.5 9-2.3 2-4-.7-7-5-6.8-1 1.2-3 5.3-4 9.1z"/>
      <path d="M253.6 264.4c.5 1.6 5.8 6.7 9.6 3 3.9-3.7 3.9-9.3-1.9-11.3-1.5.2-6.2 5.6-7.7 8.3z"/>
      <path d="M261.3 256c1.1 3.3 4.8 8.8 11.5 6.3 6.7-2.6 3.8-11 .7-12.7a33 33 0 0 0-12.2 6.5z"/>
      <path d="M273.5 249.6c-.5 2.9 0 10.6 9.2 10.5 9.1-.2 6.6-10.9 4.2-12.4-3.7 0-10 .1-13.4 2z"/>
      <path d="M287.3 248c-1 2.3-3.3 16.7 14.6 12.7 2.3-.5 8.3-13.8-14.6-12.6z"/>
      <path d="M297.1 249.4c-1.8 1.8 2.8 16.3 15 13.9 12-2.5 1.9-16.3-15-14z"/>
      <path d="M307.4 251.6c-2 4 1 15.8 15.9 15.8 13.5 0-.7-15.6-15.9-15.8z"/>
      <path d="M319.1 255c-1 2.3-2.1 14.8 15.5 15.9 12.7.8 9.6-17.3-15.5-15.9z"/>
      <path d="M338 260.3c-2.1 3.9-4.4 13.5 14.9 14.3 12.3.5 4.7-14-14.8-14.3z"/>
      <path d="M354.1 263.3c-2.8 3.8-.7 11.4 6.5 12.8 9 1.8 10.3-6.7 4.1-10.8-6.2-4-10.6-2-10.6-2z"/>
      <path d="M363 265c-2.1 3.7-.9 12.4 12.8 12.4 2.8 0 13.6-11-12.9-12.3zM257.1 433a20 20 0 1 0 0-40 20 20 0 0 0 0 40z"/>
      <path d="M404.1 141.7a35.2 35.2 0 0 0-5.4 8c-6.7 20 11.2 35 21.6 56.7a63 63 0 0 1-5.6 60.7c-4.4 5.8-3.1 7.5-8.8 13.4-2.2 2.3-4.6 5.2-3.8 13.4 3.6-1.3 8.7 2 9.7 5 2.6-1.4 6.2-.9 7.5.7 4.4-2 8-1 11.9 3 3.3-.4 7 0 10.3 3.7 1.8-3.6 5.4-5 8-4.1-.3-4.7 4.3-8 8.4-6.2a7.6 7.6 0 0 1 9.8-9c4.7-3.6 14-3.9 18.6 1.5-8.3-2.3-8 6.5-15 5.7 1.8 5.1-2.8 8.1-7.4 9.8 3-1.4 6.2-3.1 7.2-1.3 2.6-2.3 7.7-1.4 9-.3 3.4-1 6.7-.2 8.2 3.9 4.7 2.8 7.8 10 4.4 15.4-1-5.6-4.9-5.4-6.4-7.7-3.6 1.3-7.2 1.3-8.3-1-2 2-9 3.9-12 .8-1.2 4.6-5.2 8.5-9.9 8.5 1.3 3.6-2.3 9.7-5.1 12.8 4.4 2.3 3 7.5 2 10.6 6.8 1 1 7 12.7 10.8-5.7 1.8-16.8 0-18.3-7-5.7-.2-9.5-5.9-9.3-11.8-4.4-4.1-5-10 1-14.2-5.1 1.6-8-6.7-15.4-3.3-3.7 1.7-13.5-1.2-13.4-4.6-1.5 2.5-11 1.5-12.2-2.9-3.1 1.7-10.3-1.1-10.2-5.4-4 1.8-9.4-1.4-9.1-5.5-3.8-.5-4.2-3.9-4-6.7-3.3-1.6-2.4-4.8-1-8.6-2.4-2.6-1.4-6.2.4-9.6-2.5-2.6-2-5.6-1.3-9.3-12.3-1-27.8-4-63.3-14.9-53.6-16.5-68 22.2-56.2 46.4 13.7 28-1.5 34 3.1 54.8 5 1 7.5 5.2 7.2 9.6 3 .1 5 2.8 4 8a9 9 0 0 1 7.6 2.3c1.8-3.4 7.8-4.2 10.8-.3 6.7-.5 10.1 5 9.8 11.6a18 18 0 0 1-1.5 19.3c.4-2.7 0-6.5-.1-8.9-.3-4.2-6.2-5.1-5.6-8.6-3 .3-6-1.4-7-3.7a6.8 6.8 0 0 1-6.6 1.3c3.4 1.5 6.2 7.7 5.1 11.8 1.8 3.1 1.4 8.8-.7 11.2-1 5-5 6.8-10 4.6 2.9-1.8 3.9-5 3.8-7.7a10 10 0 0 1-2.9-6.3c-5 .8-12-3.5-13.2-5.2a20 20 0 0 0-20 20.1c-.6-4.1-5.8-8.2-5.1-11.7-3.1-9.5 1.3-18.4 13.9-20.2-1.6-3.6 3.8-7.3 1.8-11.4a97 97 0 0 0-14.7-20.1c4.4-7.5 3-17.5.5-23.7-3.7-8.9-7.2-6.7-20.3 7.7-21.4 23.5-50 17-75.2 32.5-6.7 4-13.4 5.6-6.2-1.6s26.2-14.4 38.6-20.6c23.2-11.6 42.8-30.9 50.5-68.5 18.1-88.4 85-59.2 127.2-42.8 39.7 15.5 32.5-19.5 12.4-40.7-24.2-25.3-19.3-45.3-8-61.3 20.3-2.8 59.4 4.3 51.5 11.1z"/>
      <path d="M475.9 358.8a22 22 0 1 0 0-44.1 22 22 0 0 0 0 44z"/>
    </g>
    <g fill="none" stroke-width=".4">
      <path d="M391.8 142.7c-5 21.7-.8 31.5 6.4 41 14.9 19.7 26.8 64.6 9.8 94"/>
      <g stroke-linecap="round">
        <path d="M417.5 252.3c2-.7 6-3.2 6.8-7.4m-5.2-2c.6-3.7 6.4-5.3 6.5-9.3m-6.4-5.2c-.4-3.9 5.8-7.4 4.9-11.2m-8.3-2.7c-.5-2.2 5.2-6.3 3.6-9.8m-7.8-3.8c-1.2-2.4 2.7-5.2 1-7.8m-7.2-3c-.4-1.6 2-5.3.7-7.5m-6.9-5.2c.5-.7 2.6-2.2 1.8-4.1m-6-5.3c.8-.4 3.3-1.2 3-3"/>
        <path stroke-linejoin="round" d="M266 410.9c-5-1.8-11.5.7-12.8 5.1m3.9 4c.6-4.4 7.3-6.3 9.3-4.3-4.2-2.3-6.3 6-2.5 6.2m34.6-103.8c-3 1.6-4 7.2 0 11.5m4.6-10.2c-2.1 1.8-2 7.2 1.2 8.5-2.7-2 0-5.3 2-5.4 1.9-.1 3.2 2.2.8 4.5m177 5.2c-7.2-2-13 6.4-6.4 13.9-.2-7.2 5-12 11.3-10.7m-3 5a2.7 2.7 0 0 0-2.7 2.7c0 1.4 1.2 2.8 3.2 2.8 1.3 0 2.4-1.5 2.4-2.7m22.6-161c1.2 4.4 7.2 6.3 12 5.2m0-2.8c-3.7.1-6.8-3.4-6.6-6.3 0 2.2 5 3.2 6.6 1.8"/>
        <path d="M267.9 331.7c-1-2.6 3-5.2 3.2-7.6.1-2.5 4.6-4.4 9.3.2m-2.2-27.4-2.5 1.2m11.4 12.8c-1.1 0-3.4 0-4.6-.9m0 5.8c-.8.5-2.8 1.2-4 1.5m-40.1 76.3c-.2 2.3 2.2 5.7 3.4 6.7m6.6-12.2a10 10 0 0 0-1.3 7.6m20.5 0c-2.3-1.5-.8-5.4-1-8-.3-2.6 2.7-6.7 8.5-3.2M246 381c2.3-.4 4.7-.3 6.3.4m23-7.7a8.3 8.3 0 0 0-1.4 4m12.3-4.3c-1.8 0-3.4 1.3-4.2 2.6m-20.8-68.5c2 .7 7.4 4 7.6 7.4m14.3-24.2c-6.3-.1-8.8-6.5-4-6.5m15.3 15.2c-2.4 1-1.3 5.2 2.2 7.3m-17.3 33.1c-1.2-1.6.4-6 4.4-4.7m5 51.7c.3-4 5.2-6.2 7.2-1.8m-25.5 13c-.3-4.3 2-5.7 3.8-6 2-.2 4.7 1.4 6 4.2m-48.1 5c.2-2.6 2.4-5.3 4.7-4.9m231-109.4c-1.7 1.2-2.8 6.7 3.5 7.2M458 296c0 .6.8 1.5 1.3 2m29 8.3c-1.6-1.3-6 4-2 7.7m-39 35.6c-.9-3.7 2.5-4.7 5.8-3.9m-14-22.2c2-1.2 4-2.7 6.4-3.3m-7.4 17.5c0-3 1.6-5.7 3-6.4m8.4-29.1a16 16 0 0 0 2.4 9.2m28.2-9c-1.9.6-3.5 1.3-4.2 2.9m2.1 7.7c1-.8 2-1.7 2.4-2.3m46.3-110.2c0 3.6-4.5 5.6-7.5 3.3m17.3-3.1c2 1.5 8.9 0 7.3-4M528 221.4a11 11 0 0 1-4.9-3m19.1-7.7c-2.3.5-3.9 0-5-.5m-31.6 13.4a17 17 0 0 0 6.5-1.6M502 200.8c-1.7-.2-3 .1-3.9.8m29.8 5.5a11 11 0 0 1-3 5.2"/>
        <path stroke-linejoin="round" d="M497.5 212.8c3.2-1.4 7.2 9.5 15 5.7m.6-11.4a11.3 11.3 0 0 0-1.8 5.6"/>
      </g>
      <path d="M359 190.4c1-.2 2.9-.5 3.3-1.8M226.5 310.3c3.9 2.2 6.6 5.9 5 11.4m172.1-143.2c1.2.8 5.5.8 8 0m3 2.6c0 1.8.5 8.6-3 10m1.3-.8c3.2 1 9.6.6 11.7-5.3m-4.5 5c1.7 2.6 2.2 7.6-2.8 10.3m4-6c3.8 1.2 12.4 1.4 11.5-6m-3 6c2.7 3.5 14 7.8 12.2.3m-22.5 10c4.3 1.1 10.5-1.9 8-9.6m12.3 3.9c.6 3 15 6 13.1-.7m-2.7 3.9c2.7 6.2 17 5.7 12.5-2.6m-2.3 6.5c2.8 3.4 15.5 1.4 10.4-7m-.1 6.8c7.9 6 17-2.5 7-8.7m4.6 6.8c7 5.5 15.5-4.5 9.4-7.3m-64.4 5c2.2.6 6.8.4 7.9-3.6m-1.8 2.7c-.2 5.8 9.6 8 12.1 1.3m-3.3 3.7c1.8 3.9 10.5 5.4 11.9-.1m-1.4 2.6c1.4 3.8 8.9 3.4 11-.6m-2.8 2.6c2.3 5 11.9 5 14-2.3m-1.6 3.2c3.7 2.3 11.7 1.4 11-5.8m-1.5 5.2c5.6 4.5 13.4.1 9.5-7.5m-.3 13.4c3-.5 4.5-6.4 1.4-8m-70 9c6-3.3 7.3-9 3-14.5m2.2 8.9c3.9 2.3 11.2-.2 12.5-5.8m-7.2 6.4c2.2 2.8 2.6 6.3-.3 9.5m2-5.9c6.9-4.2 15.4 3.6 9 8.4m-1-8.8c1.5-.4 4.2-3.2 4.4-6.4m-1.4 9.4c2.9-3 22.2 3 10 9.3m-1-17.4c3.8 1.4 5.7 6.7 0 8.5m5 4.4c4-4.3 17-1.6 12.3 3.8m-3.1-5.5c2.3-7.9 16.1-3 11.6.2m-14.4-8c.4 1.5.5 5.3-2 7.4m13.6-9a6.1 6.1 0 0 1-.8 5.3m9.5-5.2c.8 1.4 2 4.1-.8 6.3m-109.4-65.5c.1 7.3 2.7 12.2 12.6 7.6m-9.5 1.1c-5 6.6.6 13.7 10.3 6.6M365 165c6.7 7.2 18.7 2 11-9m8 15.2c-1.2 7.1 4.6 8.5 9.3 5.3m-34.2-10.3c1.2 7.1 8.5 12.7 15.6 8.4m-6.9 1.4c0 10.2 14 11.3 17.3.8m-5 6.4c4.5 9.3 14.3 5.5 17.5-.1m-27.4-14.7c1.8 4.5 5.4 9.5 13.7 5.8m-39.5-8c1.2 3.7 7.9 8.2 15.6 3m-10.8 1.8c-4.2 6 4 11.7 14 2.7m-9.1 4.7c1.6 8.5 5 15.4 17 4.4m-6 4.4c4.4 5.4 11.1 8.7 17.4-.4"/>
      <path d="M387.3 188.8c-.4 6.5.8 9.7 5.9 9.4 4-.2 7.7-3.3 9.9-6.7m-10.8 6.7c-.2 7.4 5.6 13.2 16.5 5.7m-12 3c-2 5.5 4.1 14.5 16.2 9.9m-41.9-24.6c-.7 7 5.8 11.8 16.4 2.7m-11.2 5.1c.4 5.8 7 12.8 16.6 2.7m-12 4.7c-.7 9.9 8.4 12.7 16.1 5.1M367.2 200c2 .2 3.7-1.6 4.7-3m-.4 10.2c1.8.4 5-1.2 6-3.3m-1.4 15c2 2.3 9 .7 9.9-2.3m-2.2 2.2c3.8 9 14.1 8.7 18.4-1.5m-2 3.6c2 5.3 6.9 8.6 14.9 6.8m-11-1.4c-4.5 7.3 1.4 16 11.5 7.5m-9 3.5c-.5 4.6 3.7 9.9 9.5 10.5m-28.6-24c-1.5 10.4 6 15.4 15.3 9.8m-26.2-4.8c2.4 1.9 6.8 2.1 11 .6m5 6c-2.4 8.8 6.6 15.1 14.3 5.3M380 230.2c.2 4.5 4.5 9.4 12.1 8m21.3 9c-5.2 3.4-6.2 9.6 1 13.6m-13.6-15.4c.2 5.2 2.7 8.2 8.5 8.7m-16.1-11.4c-7.8 7-.2 15.3 9 8.3m-3.6 2.2c-2.6 8.1 7 13 12.2 4.8m-28.2-22c-2.8 8 .8 13.2 7.4 12.7m-17.6-14.3c.4 4.8 4.5 6.5 9.2 5.4m-6.2-.4c-3.5 6.7 1.8 10.3 8.8 7.8m21 15c-1 4.2-.4 7.2 5.9 8.7m-5.4-2.7c-7.6 3.4-8.3 10.8-2.4 15.5m-3.8-23.7a7.6 7.6 0 0 0 1.2 12.3m-35-35.8c-4.3 4.3-.2 16.2 9.5 9.7m15.7 5.3c-6 5-3.3 13.8 6.5 11.4m-16.3-15c-3.1 8.7-.2 11.8 6.8 11.9"/>
      <path d="M359.3 236.1a8.2 8.2 0 0 0-1.5 12.2c2.3 2.6 6.7 1.4 8-1.9m-17.6-13.8c-5.9 7.6 0 16.6 8.4 14m23.3 8.6c-6 2.1-10.7 7.6-7 12.5 2.3 2.8 11.8 3.2 14.5-7.8M369 248.1c-3.5 5-2.4 9.8 4 12.2m-4.4-2.8c-3.8 2-6.2 4.5-5.3 9m-3.1-16.9c-1.4 6 .3 9.8 4 11.6m-4.1-4.4c-5.8-.4-8.8 2-6.8 7.8m.5-6.4c-5.7-2-6.6-7-4.1-12m-.8 7.6c-6.2.2-9 3.3-9 7.5"/>
      <path d="M340.5 229.7c-4.5 1.9-6 8-4.3 11.3 1.7 3.3 7 3.6 10.2 1.4M328 224.9c-4.1 4.6.6 13.7 8 11.5m-18.6-15.1c-3.8 5.4.4 14.4 10.3 11.8m.5 25.1c-1-6.4 5.7-10.6 14-2.3m-4-13a10.1 10.1 0 0 0-3.3 8.5m-28-33.2c-4.3 7.2.9 13.8 10 11.2m13.8 6.7c-6 6-4 12.1.5 15.6m-4.4-8.5c-9.1.1-9.6 10.7-2.2 14m-4.7-24.6c-3.8 2.6-5 9.7 1.5 12.5m-1.8 3.4c-3.9-1.8-8.5.4-8.1 4.9m2.3-4.8c-3.5-8.2-13.6-6.8-12.7 1.7m15.5-11.9c-2.1.4-6.5 1.7-8.2 5m.6-14.3a7 7 0 0 0 2.5 11.4M296.7 216c-.8 5.6 1.4 8.3 8.4 7.8m-6-.7c-2.6 6.7 1 9.7 8 9.3m-6.4-1c-4.1 4.9-1.3 10.1 2.7 12.3m-4.6-6.1c-7.4-1-8.5 7.6-6 11.5"/>
      <path d="M292.9 215.5c-4.5 2-7.1 7.6-4.7 11 2.5 3.5 7.4 2.4 10 .6m-8.4 1c-3.8 5.7-.4 10 3.6 11.6"/>
      <path d="M275.3 214.8c-3 3.1-1.1 9.4 6 9.6 5.9 0 8.8-5.4 7-9.3m-8 9.3c-2.3 5.1-.8 10.7 8 9.8m3.6 8c-5.3-2.4-12.6 0-9.5 6.5m-.7-15.6c-2.2 3.1-1.5 7.5 1 10.2m-1.4-2c-3.6.7-7.1 2.6-5 8.3m-.5-4.6c-4.6-1.4-10.5 2-7 6.7m-.7-4.5c-4-.7-8.7 3.6-4.9 7.8m-1.5-3.5c-3.6 1-7.9 5-4.1 8.3m22.3-28.5c-5.2 2.3-5.7 8.1-3.3 12.4m-2.2-23c-7.7 3-7.6 13.2 1 16.4m-3.7-2.3c-4.6 2.7-5.5 7.9-2.4 11.2m-5.7-29.2c-3 1-2.8 10.5 5.4 10.3m-13.9-7.1c-6.2 4.1 1.3 14.5 11.3 7m-5.5 2.7c-.9 4.2.3 8.8 7.1 9.4m-6.7-3.8c-4.9 1.8-5.8 11.9 3 12.7m-18.6-21.8c-6.3 5.8 5.2 10.8 9.4 2.4m-18.1 7.2c-3.1 3.8 7.7 13.6 12.5-2.8m1.1-.3c.3 4 2.6 6.2 7.3 6.5m0 3.7c-7.7 1.2-10.1 10.7-1.6 12.8m-12.5-14c-.3 3.5 3.5 6.5 7.7 5.9m3.9 7.8c-7 1.6-7.9 10.6-1.7 10m-3.2 8.4c-5.8-1.7-6-8.6-.8-11.2"/>
      <path d="M245.7 267.8c-4.9 3-3 10-.4 11s4.7-.2 5-2.4m-.5 10c.6 3.3-11.9 2-5.5-8.4m0 8.9c-4.2 6.6 2.6 12 6.9 6.3m-6.4 1.6c-1.7 5.3 4.7 9.1 8.8 5M231 245.4c-2.3 4.7 9.3 6.5 10-3.3m-13.2 10.3c-2.3 9.3 15.2 7.4 10.7-4.6m.4 6.2a8.2 8.2 0 0 0 11.6-6.3m-5.3 6.6a10 10 0 0 0 4.7 6.3m-13.1-3.9c-.8 5 4.3 9.2 10 8.8m-9.1-3.9c-2.8 3.9-3.7 11.3 5.2 11.8M224 263c-1.4 4 7 8.1 11.8 1.5m-14.4 8.7c-.7 3 6.8 7 11-5.8m-3.3 6.5c1.8 3.2 7.9 5.8 11.6-.5m-6 3.9c-1.6 4.5 2.7 8.7 7.8 7.5m-17.5-8.5c-1 6.4 6.5 10.1 11 6.8m-15.9-4c-2.2 8.2 8.4 11.3 12.4 5.1m-2.7 2.5c.4 4.6 7.6 8.6 13.2 4.8m-26.1-1c-.5 2.1 8.1 4.2 9.4-3m-4.4 4.9c2 5.2 9 6.5 13 0m-2.3 2.6c1 5 7.2 7.7 12.8 4.3m2.3 2c-1.4 6.5 5.4 11.8 9.6 8.2m-20.6-9.4c-2 7.2 7 11.3 12 7.3m-22.8-11c-.5 6.8 4.8 10.8 10.8 7.8m-22.3-7c-1.8 4.3 7.8 7.9 12.3 4.2m-18.2 7.7c2.5 2.8 11 0 11.7-6.3m-2.3 4.6c3.1 3.6 10.5 5.6 13.4-2.2m-2.6 4c0 5.6 9.8 9.6 13-.6m11.7 2c-1 2.7 1.2 7 5.7 7.5m-13.9-9.2c-.6 3 3.9 7.4 8.7 5.7m.9 1.3c-1.3 3.3-.2 8.1 4.3 8m-3.9-1.8c-3.4 2.8-2 7.9 2.9 8m-4.6-3.2c-4.8 3.2-3.1 10.3 3.2 9.9M239 313c0 7 8.7 8 10.3 1.6m-3.3 4c-1.3 4.2 2 8.2 7.3 7m-6.3 42.8c1.2 1.7 6-1.2 4.7-4-1.3-2.8-6.4-1.3-5.8 1.7m4.6-2.9c.6-5.6-6-6.5-7.7-1.6m2.4-2.9c1.7-2.8-4-6.7-6.3-2.5m2-1.7c1.6-4.1-4.8-6-5.3-2.2m-1.5-5.4c.8-2 8-.8 5 3.5m5.5 5.1c2.8-2.6-2-7.8-5-6m24 13.9c-2.2.2-4.5 1.7-2.9 6.5 1.2 3.3 6.1 3.4 6.9 1.5"/>
      <path d="M260.5 365.9c-2.2-1.5-7 1-4.8 5.6 1.6 3.5 5.8 2 6.4.2m-14 .8c1.2 2 6.6 1 7.6-1m-3.8-5.4c1.2-.8 3.3.2 3.7 1.2m-4-33c-3.8 2.5-1.5 10 4.3 8m-5.6-1.9c-3 2.3-.2 9.6 5.3 6.8m-4.3 0c-2.1 2.1-.1 7.8 5.2 6.7m-6-3.8c-1.2-.5-4.2-.2-5.5 1.8m2.1-28c-2.8 2.8-1.4 8.3 3.8 8.8m-4.8-3c-4 2-4 10 4 10.3m-4.3-1.3c-2.3 1.8-1.2 8.8 4.6 7.9m-2.8-.3c-.8.9-1 3-.2 3.9m-2.3-6.5c-2 0-4.8 1.5-5.5 3.7m-3.7-7.5c.7-2 7.1-2 7.6 4.1m.6-7.2c-.9.2-2.6 1-3 2.8m.2-21.7c-2.7 2.6-4 10.5 4.3 12m-9.9 4.4c0-2.1 5.8-4 7.8-.8M232 322.8c.8 1.6 4.8 3.8 7.2 2m-28-14.6a6.3 6.3 0 0 0 7.2 6.5c4.3-.5 5.2-4.2 3.9-6.7m-3.2 6.9c-2.9 3.4.6 8.3 3.8 6.9m-.6-9.4c1.7-.6 7.2-1.4 8.9 1.2m-26.8-.2c-1.3 2 6.7 3.9 9.4.2m-2.7 1.9c-.3 2.6 1 7 7.6 5.1"/>
      <path d="M219.8 326.6c1-2.2-3.8-5.8-7.6-1.8-3.7 4 .6 8.5 2.9 7M202.7 318c-2 3.4 5.5 9.5 9.8 3.8"/>
      <path d="M197.7 323.8c-2.7 2.8.7 7.9 4.7 6.3 4.1-1.5 3.7-5.8 2.7-6.9"/>
      <path d="M192.5 329c-2.2 2 0 6.6 3 6.6s4.9-2.3 4.3-5.4m5-1.6c-.4 3 4 5 6.9 2.2m0-5.4c.5-.6.2-1.7-.5-2.3m-23.4 9.8c-2.5 2 3 7.6 6.3 2.5m13.1-3.5c-1.6 1.5 1 5.5 3.6 4.3m-12.4-1.5c.4 2.7 5.8 4.8 9.2.6m-6.3 2.1c-.8 1.8.9 4.5 3 4.2m48.3 11.8c-2 3.9 4.4 8.5 9 3.7m-4.4 2.1c-1 2.1.2 5.1 2 6.2m-8-1.7c.4-2 3.2-3.8 5.7-2.9m-9-2.2c.3-1.8 2.6-3.5 4.4-3m147.2-77.4c-9.2.1-5.3 14.8 2.6 11.9m-5.6-1c-1.8 2.9 1.7 7.6 5.6 4.8m-1 .6c-2.8 4.5 6.9 11.4 10.8 4.3m-3.1 2.7c0 4.3 12.5 7 10.7-1.5m-1.2 4.6c3 5 14 5.5 12.9-2m-2.5 5.2c2.3 3.4 13.2 5.4 12.8-1.5m-56.7-40.8c1.5 4 6.8 5.4 12.6 3m-16-.2c3.7 2.3-1.6 12.9-7.1 8.6m7.2-2c4 1.9 8.9.5 10.3-5.2m-2.5 4.4c.4 3 4.7 5.3 10.2 4.1m-20.1-1c5.2 4.4-2.3 13.4-5.7 9.3m7.6-6c2.5 1.8 8.8.8 9.4-4m-2.8 4c.5 3.1 3 4.3 6.4 4.4m-14.4-.1c2.6 3.6 9 4.6 11.9-.1m-2.9 2.7c-.2 3.4 3.6 6.3 7.6 5.5M375 295c3.3 1.7 7-4.7 4.1-9m-.2 15.7c4 .2 4.5-5.8.7-9.2m8.4 14.7c3.4-.8 2.3-8.1-5.8-8.7m16 14.1c3.2-.9.6-9-8.3-8.5m20.5 11.4c2.2-3.4-5-9-11-6m17 10.6c4 1.2 6.8-9.4-5.9-7.7m13.3 7.7c3.5-1 6-7.2-4.2-5.2m12 5.7c3 1.6 4.4-7.5-5-5m-47-23c3.9 2.1 10-.4 9.4-5.3m-1.5 4.2c1.3 2.3.8 6.8-1.7 8m2-2.6c2.6 1 6.1.1 8.2-4m-3.6 4c.7 1.8 1 5.4-.7 7.2m1.3-4.1c2.9 1.6 6.2-.5 7.6-3.5m-1.8 2.6c2 1.3 3.9 7.3.4 9.8m2-2.8c2.4 0 6 0 8.3-3m-1.7 1.7c2.2.6 4.8 4.2 3.9 7.4m.1-1.1c2.5-.3 6.7-2 7.9-5m-1.2 2a6.6 6.6 0 0 1 3.2 6.5m0-2.1c2.5-.1 4.7-1.4 5.3-4.1m-.6 1.8c1.8.6 4 2.7 4.1 5.1m-.3-1.5c1.8-.3 3.1-1.4 4.3-3.2m4.9-.3c2.3 2.3-.8 10-5.6 8.6m-43.9-164.7c-4.7 2.9-18.3 2-11.6-9.2m13 1.6c-9.5 3.8-21-3.5-9-11.3m-3.2-2.6c-7.8 0-13.1 12.6-2.6 17M348.6 138c-2 4 5.3 8.4 10.3 4.4 3.9-3.1 3.6-11.5 1.3-14.7m-15.6 19.8c-2.6 8.5 16.4 9 13.4-4.5m-14.4 17.2c.6 6.4 18.1 4.3 12.5-8.7m2-3.6c1.4 2 5.3 5.3 11.9 4.6m-9-13.5c.6 2.3 4.5 4 9.5 2.3M185.4 334.8c-4.5 3.1 2.4 8.1 4.9 2.6m-8.4-.2c-4.4 3.2 2.4 8.2 4.9 2.7m-8.6-.3c-4.4 3.2 2.4 8.1 5 2.7m-8.8-.5c-4.3 2.3.7 7.8 5 3m-9.2-.9c-4.3 2.3.7 7.8 5 3m16.6-9.6c-.1 3.3 6.1 4.6 8.4-.3m-4.5 3.3c-2 2.5 1.6 5.5 3.5 4.4m-11.8-4.8c-.2 2.8 5.2 4.4 7.8 1.3m-4.9 1.6c-1.7 2.2 1.7 5.3 4 4.4m-10.5-4.8c.2 2.2 3.3 4.7 6.6 3.3m-4.6-.3c-1.3 1.1-.7 3.8 1.1 4.7m-7.8-5c-.5 2 2.9 5.6 6.4 3.3m-5.7-1c-2 1.7-1.8 4.1.8 4.5m-5.8-4.7c-.2 1.4 1.5 3.6 3.7 3.3m-14.7-3.4c-2 1.1 3.2 6.7 6.5 1.5m-11.6.8c-2.6 1.2 3.8 7.4 6.7 1.1m10-1.3c-2 .4-3.3 3.3-1.6 4.5m-5-3.5c-.2 1.2 2.3 3 4.3 2.4m-5.9-1.9c-2 1.2-.9 4.6 1.4 4.1m-8.3-1.8c-1.8 1.3-.5 4 2 3.4m1.3-3.6c0 .7 1.7 1.8 3 1.3m-12.5-2.5c-2.3 1-2.1 6.6 5.5 3.6m-10.6-1.3c-3.2 1.5-2.1 5.8 4.8 1.7m.5.3c-.8.7-1.7 3.5 1.5 2.4m-7.2-1c-1.3 1.1-.5 3.5 2.3 2.6m-9-2.2c-2.3 1.3 2.8 3.1 6.2-.5m-4.6 2.1c-1 1-1 4.1 1.6 3m-8.2-1.7c-1.5 1.1 1 2.7 6 .5m-4 1.1c-1.9 1.5-1.7 3.4 1 2.8m-6.4-2c-2 1.9.9 3.1 4.4 1.6m-4.4.5c-3.4 1.5-1.9 4.4.2 3.3m113.8 6.5c-.8 1.7 1.8 3.1 4.3 2.7 2.3-.3 4.6-2.3 2.8-5m.1 3.4c2.4 1.8 6.5-.3 6.5-3"/>
    </g>
    <g fill="#fff" stroke-width=".4">
      <path d="M396.8 103c-10.3-5-31.7-14.6-37.8-6.9 5.6-2.3 21.8.1 35.2 12.5l2.6-5.5z"/>
      <path d="M403 102.5c-11.9-13.9-19-10.8-27.5-15.5-8-4.5-20.8-5.4-23.3 1.7 11.7-5.7 22.5 3 29.2 4.2 9 1.4 14.2 8.5 16.9 11.7l4.7-2zm44.9-1.8c-6.2-14.1-19.4-10.4-25.2-16.4-8.5-8.8-30-17-39-10.9 19.6-1 28 13.5 38.4 18.6 7.5 3.6 15.5 11.3 25.8 8.7z"/>
      <path d="M424.7 99.2c-10.5-13.1-26.8-24.7-34.2-20.4 9.8.6 12.9 7.4 19.8 11.8 7 4.3 3.9 10.7 14.4 8.6zm-50.2 23.2c-11-4.1-32.7-6.2-42.8 6.4 16.8 2.9 42 1.3 42.8-6.4z"/>
      <path d="M372.4 127.3c-11-5.2-19.7 2-30.1 1-19.8-2-34-.8-35.8 8.8 11.3-10.2 30.4-1.8 38.1-3.9 7.7-2 36.3-.3 45.3 3.6-4.6-5.7-11.8-7.2-17.5-9.5zm34.8-29.5c-2.6-8.5-2.4-17.5 10.3-16.9-3.2-4-15-6-17 8.9-14-10.3-29.4-12.1-32.2-3.2 7.2-6.2 18.4-1.7 31.8 13.5a23.8 23.8 0 0 1 7.1-2.3z"/>
      <path d="M387.9 109.5c-8-5.2-18.8-13.5.1-16.9-8-4.3-20-2.4-18.7 12.5-21.6-8.7-37.1-5.8-40.4 2.9-3.6 9.5 9.8 14.8 12.1 8.7-2.4 1-10.8-1.8-6.4-7.2s26.8-1.3 48.1 9.8c6 3 26.3 2.6 5.2-9.8z"/>
      <path d="M382.2 123.7c-6.1-12.6-26.1-1.2-30.1-13.4-5.6 17.9 28.4 8 30.1 13.4zm127.1 13.6c4.2 2.1 7.8-1.2 1.4-3.7 4.2 2 7.9-1.1 1.5-3.7 4.2 2 7.8-1.1 1.4-3.7-1.7 1.7-4.1 8-4.3 11.1zm2.2-24.2c9.3-9.8-.7-13.1 10.6-23.2 9.3-8.2 1.8-13.7 10.5-20 2.9-2.1 9-6.2 9.6-10.4 3.7 9.3-11.6 10.6-10.6 25.5.7 9.5-5.8 8.7-8.2 24.8-.5 3.3-2.9 10.8-11.9 3.3z"/>
      <path d="M515.6 117.5c5.2-11 11.1-10.9 14-15.2 5.4-8.3 16.8 1.4 26.5-6-1.7 10.5-14.7 6.8-20.4 13.5-5.6 6.7-10.3 9.7-20 7.7z"/>
      <path d="M517 121.1c9-7.2 15.6-2.4 21.8-6.2 15.7-9.5 22 2 36-2.6-3.6 9-24.4 1.3-33.4 8s-40.7 13.2-24.5.8zm-26.3 51.4c-.2-4.1-4-9.4-9.4-10-5.4-.7-7.8-6.4-11.9-6.6-4.1-.3-6.8-8.5-12.5-8.4-5.6.1-8 7.5 5.3 14.2 13.3 6.7 28 14.4 28.5 10.8zm-16.8 3.5c-5.6.2-6.4 8.5-11.8 8.7 7.4 4 12.9-1.8 16.7-7L474 176z"/>
      <path d="M478.6 177c-5 4.1-6.4 12.7.7 15.2-4.2-5.9 7.5-8.5 3.9-14l-4.6-1.2z"/>
      <path d="M483.4 177.3c-3.8 7.4 6.1 8.3 3.5 14 5.7-1.3 6.6-12 1.4-14.8l-4.9.7z"/>
      <path d="M445.6 161.3c9.3-.5 17.7 4.5 23.4 12.6 3.6 5.1 15.7 7.2 19.9 3 4-4 1.8-12.8-8.5-10-2.6-4.3-10-2.8-13.7-6.4-3.6-3.6-17.5-13.9-21.1.8z"/>
      <path stroke-linecap="round" d="M480.4 167c-2.5.5-3.3 4.7-1.7 6.9m7-4.4c.7 1.3.2 3.1-.2 4m-25.2-11.8c4.7.2 5.6 3.7 10.8 5"/>
      <path d="M457.1 150a161 161 0 0 1 37.6 12.3c8.1 4.6 20.7 6 31.6 2.8 11-3 32.2-5.9 31.1 7.8 5.8-6.9-1.5-14.2-16.2-15.5.3-6.7-6.9-12.7-12-8.7 4.7-.7 8.8 8.2-.6 11.8a8.4 8.4 0 0 0-11.7-9.8c4.4 1.3 9 8.8-1 11.6-6.3 1.8-15.4-.5-22.2-4.6-6.8-4.1-45-19-36.6-7.8z"/>
      <path d="M498.6 143.3c-5.1 2.3-1.8 7.7-9.7 10.8-8 3-13.6 10.1-11.8 16.2 5.4-11.9 15-11.3 18.3-16 3.4-4.6 8.3-11.4 3.2-11z"/>
      <path d="M500 144c-.2 9.4-7.6 6-4.7 19.2.9 4.1 2.6 10.8-.3 17.5 8.3-6 3-18.7 6.7-23.5 1.8-2.4 4.2-6 5-9-1.9 5.3-1.7 15.4 3.5 18-4.2-10 11.5-18.3.7-30-1.6 3-6.5 8-10.8 7.8zm-26.2-9.4c1.3 2 2.6 6.8 1.4 9.6 2.6-1.6 6.3-5.6 7.5-8.3 5.3.8 7.3 7.3 2.3 10.2 3 0 8.4 0 11.3-3.5-3.6-4-14.8-10.2-22.5-8z"/>
      <path d="M393.7 116.1a10 10 0 0 0-4.8-2c-7.8-1.6-3.7-8.6 2.9-8.5 14.2-15.5 22.1-3.6 39.4-8.4 6-1.8 10.2-1.3 13.4.2 7.8-5.2 16.8-3.8 23.4 2.3a5.3 5.3 0 0 1 3-2.4c6.1-1.7 11 3.4 12.7 10.1 4.7-.8 10.1 1.5 13.7 4.7 4.9-2.5 8.2-2.6 9.5 0 4.4-2 10-3.4 12.9 3.6s-6.7 4.9-8.3 19.6c-1 9-11 12.6-19 7.2-12.8-8.7-25.3-10-31.5 3-6.1 13.2-11 20.8-26 16.5a16 16 0 0 0-16.7 6.5c-4.4 6-11 .4-19 1 10-1.5 6.1-4 14.9-4.6 8-.5 5.9-8 11-9-20 5.1-19.3-2.4-35.8 2.8 7.2-9.3 18.6-4.1 24.2-9.5-14.9-.3-21.6-10-28.3-6-10.5 6.5-6 24.8-33.5 23.2-13.4-.7-21.9 1-29.8 9 13.9-28.8 32.8-13 42-22.1a68 68 0 0 0 12.3-14.7 6.1 6.1 0 0 1 4-3.2c-22.9-7.2-9-18.5 13.4-19.3z"/>
      <path stroke-linecap="round" d="M506.9 112c.3.8.5 1.8.5 3 0 5.6-8.5 5.8-9 14.2-.3 4.4-.8 6.8-3.7 6.3-3-.5-5.6-5.1-2.8-10.5"/>
      <path d="M398 107.7a10.9 10.9 0 0 0-6.2-2.1m52.8-8.3c6.8 3 10.1 10 20 10.4 9.6.3 15.5 14.2 31.5 5.1a38 38 0 0 1 1.2-.6M468 99.7a12.7 12.7 0 0 0-1.4 8.2m-29.8 21c-12 0-15.2 6.1-15.2 12 0 6 5.7 13.7 15.7 13.7s15.5-6.2 15.5-12.9-6.2-12.9-16-12.9z"/>
      <path d="M439 154.3c-.2-3.3-6.3-2.8-6-5.4.2-2.6 3.3-3.6 3.3-7.2s5.4-3.9 7.2-1c1.8 2.8 7.2 8.3 8.4 5.5m-8.4-5.5a9.9 9.9 0 0 0-.4 13.1m4.3-8.8c-1 2-1.2 5-.1 6.8"/>
      <path fill="none" d="M495.5 135.6c9.5.8 11-9.7 4-10.3m-15.7-17.8c-3.2-4.2-10.8-5.6-11 3.2"/>
      <path d="M472 120.8c-3.2-8-11.5-9.1-15.8-5.1-3.7 3.3-3.8 12 4 13.8 2.8-3.3 8-7.5 11.8-8.7zm-3.5-5c-4.7-4.1-11.5 3.7-5.3 10.8m-83 8.7c3.2-.7 7.7.8 14.7 4 4.3 2.1 17.5 6.5 25.7 2.1-8.5 3.1-15-9.7-21.4-8.2-6.4 1.6-18.2 4-23.1-.8 12 .8 18.5-8.8 32.4-.5a24 24 0 0 0 13.1 3.6c-11.3-13.6-26.2-4.9-27.8-16 6.8 7.4 23.5-1.6 32 12.1m-29.5-10c-1.6-2-1-4-2.6-5.5"/>
    </g>
    <path stroke="none" d="M483.8 107.5c-2.8-3-9-.7-7.2 5.4a9.6 9.6 0 0 1 7.2-5.5zM466.3 124a21.1 21.1 0 0 1 5.7-3.2 12.4 12.4 0 0 0-3.8-5.2c-1.5-1-5.7 4.7-1.9 8.3z"/>
    <path fill="none" stroke-linecap="round" stroke-width=".4" d="M458.7 113.5c-4.6-3.1-8.9-2.8-10.3-.3-3.3 0-6.1 2.4-6.2 7.2m7.1 2.1c-5.5-3.8-13.1-2.4-12.6 6.1m-3.4 4.9c2.7-2.2 6.6-3.8 9.6 0m31.8-8.4c-1 1.4-1.8 3.6-.1 7-2-2.8-7.2-2.8-12.8 4.4m25.1-11.8c-6.7.8-6.5 5.2-1.1 7m-46.5-23.4c-5.7-1.1-9.8 2.2-2 5m12.8-8.8c-8-2-11.2.1-7.6 2m-15.5 30c-.2 2.9 1.3 6.6 6 2.4m-4.4 6.1c0 .8-.1 1.7-.7 2.4m-17.9-40c-4.9-1.5-5.8-6 0-5.6m-1.6 16c-5.4-1.9-5.4-7.1-1-6.6m11 3.8c-6.3-1.5-6.5-5.9-1.8-5.2m2.6-8.2c-3.4-.2-8.5 3.5.1 5.7m9.3 1.8c-7.9-1.1-7.7 2-3.1 4.1m9-11.6c-6-1.1-8.1 2.5-4 4m-15 18.3c-1.5-1.2-2.7-7 4.3-5.3m10.3 3.5c-4.7-1.3-9.2 3.4-4.9 6m11.2-11.5c-5-1-9.2.5-6.5 2.3"/>
    <path fill="#fff" stroke-width=".4" d="M483.6 107.5a9.6 9.6 0 0 0-7 5.4"/>
  </g>
</svg>
