<svg xmlns="http://www.w3.org/2000/svg" xmlns:xlink="http://www.w3.org/1999/xlink" id="flag-icons-cy" viewBox="0 0 640 480">
  <path fill="#fff" d="M0 0h640v480H0z"/>
  <path id="a" fill="#435125" d="M307.8 398.6a.8.8 0 0 1-.2-.2h-.1l-1.3-1.4-3.8-4.5-4.9-6.3-.6-.9-6.2-1.9-4.6-2.1 2.4-2.7 8.4 3.5 6.2 1.3 11.5 8.5-3.3 2.9a37.2 37.2 0 0 0-3.3 3.5l.7-.5.8.6-1.6.2zm-42.6-12.8a31.7 31.7 0 0 1-16-4.5s.7-1.3 2.3-2.4c1.6-1.2 4.4-2.5 9-2.6 5.4 0 12 1.9 19.5 5.4a28.8 28.8 0 0 1-14.8 4zm-23.5-5.2c-1 0-2-.4-2.6-1a5.2 5.2 0 0 1-1.1-2.4 11.7 11.7 0 0 1-.3-3.4 3.5 3.5 0 0 1 1.3-.2c2 0 3.6 1.7 4.3 3.4.4 1 .5 1.8.2 2.5-.2.6-1 1-1.8 1zm41.3-4.8c-13.9-2-19.8-7-22.3-10.9-2.6-4.1-2-8-2-8s.8-.2 2-.2c3.8 0 13.2 1.9 22.3 19zm-28.5-2.8c-5.9 0-10.4-1-13.4-3a8.3 8.3 0 0 1-3-3.3 5.4 5.4 0 0 1-.4-1.6 18.2 18.2 0 0 1 7.2-1.4 27 27 0 0 1 18.9 8.7c-3.4.4-6.5.6-9.3.6zm-28.7-1c-6.2 0-14.8-2-20.2-7.3 0 0 5.9-1.5 12.4-1.7h1.2c5.9 0 10.4 1.1 13.4 3.4 1 .8 1.6 1.5 1.7 2.2.1.6-.2 1.2-.8 1.7-1.4 1-3.8 1.6-7.2 1.6h-.5zm-20.3-10.5a2.6 2.6 0 0 1-2-1 4.7 4.7 0 0 1-.8-2c-.3-1.4-.2-2.8-.2-2.9a2.4 2.4 0 0 1 1-.2c.9 0 1.6.5 2 1a5.6 5.6 0 0 1 1.4 2c.2.9.3 1.6 0 2.2 0 .4-.6 1-1.3 1zm46.9-1c-1 0-2-.4-2.6-1a5.2 5.2 0 0 1-1.1-2.4 11.7 11.7 0 0 1-.3-3.4 3.5 3.5 0 0 1 1.3-.2c2 0 3.7 1.7 4.3 3.4.4 1 .5 1.8.3 2.5-.3.6-1 1-2 1zm-22.8-1c-12.6-.4-19.2-4-22.4-7a14.6 14.6 0 0 1-3.4-4.3c-.5-1-.7-1.8-.7-2s1.2-.4 3-.4h.4c4.2 0 12.9 1.8 23 13.7zm13.6-1.2a30.8 30.8 0 0 1-18.9-9.3 19.4 19.4 0 0 1-4.1-7s1.2-.3 3-.4a14.2 14.2 0 0 1 1 0c5 .1 14.3 2.4 19 16.7zm-52-5a42 42 0 0 1-9.5-1c-5.3-1.4-7.6-3.4-8.6-4.9a5 5 0 0 1-.8-2 3.4 3.4 0 0 1 0-.8s3.5-1 8.4-1.1a35 35 0 0 1 7.4.6 21.7 21.7 0 0 1 12.8 8.1s-4 1.2-9.7 1.2zm23.5-8.4a3.4 3.4 0 0 1-2.5-1 5.2 5.2 0 0 1-1.1-2.4c-.4-1.6-.3-3.2-.3-3.4a3.5 3.5 0 0 1 1.2-.3h.1c2 0 3.6 1.8 4.3 3.5.4 1 .4 1.8.2 2.4-.3.7-1 1.1-1.9 1.1zm-17.6-2.5a38.6 38.6 0 0 1-9.6-4.2c-4.4-2.7-9.9-7.5-10.5-15l1-.1h.3c1.3 0 4 .3 7.3 2.8 4.2 3.2 8 8.8 11.5 16.5zm11.5-.4a31.2 31.2 0 0 1-7.6-4.9 48.5 48.5 0 0 1-13.3-18.6s.9-.5 2.3-.6a3.3 3.3 0 0 1 .2 0h.4c2 0 4.9.9 8.1 4.4 3.8 4 7.1 10.6 10 19.7zm-29.9-.9c-3.9 0-5.2-2-5.6-3a6 6 0 0 1-.4-3 8.5 8.5 0 0 1 2-.2 8 8 0 0 1 6.5 3c.2.4.8 1.4.3 2.3-.4.6-1.3 1-2.8 1zm-8.5-10.8a51.1 51.1 0 0 1-9-.7c-3.4-.6-5.3-3.5-6.4-5.9-1-2.5-1.4-5-1.4-5 10.6.3 15.7 3.4 18 6a9.4 9.4 0 0 1 2.6 5.5s-1.6.2-3.8.2zm11-11a42.7 42.7 0 0 1-2.4-3.4c-1.3-2-2.4-4-2.4-5.6 0-1.7-.4-5-.6-7l-.6-4.5c.3 0 6.6 2.4 6.6 8.4s-.6 12-.6 12v.1zm-8.2-.6h-.2a43.7 43.7 0 0 1-18.2-10.8c-1.7-2-2.8-5.2-3.1-9.4-.2-3 0-5.5 0-5.8a3.3 3.3 0 0 1 1.1-.1c1.4 0 3 .6 5 2a39.6 39.6 0 0 1 5.2 4.4c3.2 3.2 5.7 6.4 5.7 6.4.3.4 2 3.7 3.5 6.9a22 22 0 0 1 1.6 4.6c.1.6.2 1 0 1.4a.7.7 0 0 1-.3.4.9.9 0 0 1-.4 0z"/>
  <use xlink:href="#a" width="100%" height="100%" transform="matrix(-1 0 0 1 593.7 0)"/>
  <path fill="#d47600" d="m519 76.4-1.8.7-.8.3-2.2-.1-2.2 1-3.8 2.6-.1.1-1.5.4-1.3-.6-.7.4-.3 1.5-.7 1.1-.9.6-3 .3-2.5 1.4-3.4-1-1.5.7-3.3 3-1.7.7h-.5l-2.3-.1-.9.3-1.4 1.3-2.6.2-.9.6-1.3 2.6L476 96l-.8.1-.8-.3-.7.1-.3 1.7-.6.7-1.8.6-1.4 1.2-1.3.6h-2l-1.7 1-3.1.2-1.3 1.2-.3.3-.6.3-1 .6-.2.2-1.2-.2-1.4.5-.6-.8-1 .5-1.2.1-1.6-.7-1.3-.6-.9.2-.3 1.5v.2l-1 1.2-1.7 1.1-.2.3-2 2.6-3.8 4-3.2 1.6-3.3 1-2.3 1.9-6 3-9.7 4.8-2 .6-2.8.4-5 1.9-4.4 1.3-.3.1-.8.3-6.3 1.9-2.9-.4-1.7.7-4.5-.5h-3.1l-2 .4-3.7 1.8-6.3 3-2 2-3.2 1.6-3.8 1.2v-1.6l-1.3.4-1 .3-3 .4h-1.7l-1.1-.3h-.2l-6.2 2.1-7 .7-3.5 1.1H333l-1.6.5-3.2.4-1.2-.3-.2-.1-9.4.4-4.3-.5-2 .5-3.5-1.2-5-.6-1.2-.3-2.6-.8-1.2.7-1 .1-2-.8h-.8l-1.8.6-1-.2-1-.8-2.1-.3-1.4-1.1-7.5 1-2-.6-6.9-2h-1l-1.4 1-2 .8-1.9.4-2.4.1-2.8-.7-2.8-1.4-1.1-.3-2.4.3h-.7l-4.4-2.3-5.6-3.5-3.8-1.9-1.5-.2-.2.7.7 2.2.3 2.3v2l-.1 1.3.3 1.1 1.4 1.6.6 1.5.4 4.2v4.3l-.7 6.8-.2 1-.8 3.6-.7 3.3-2.9 8.7-.7 1-2 1.3-4.3 3-3.2 1.8-1 .4-2.6.2H219l-2-1.1-2-.5-2.6-1.9-2.8-.6-3.2-1.8-.8-1-1.7-.2-2.4-.7-.9-.3-.6-.1-3-.1-2.9-1.3-1.5-.4h-2l-2.1 1-1.1.4-1.4-.5h-1l-1 1.7-.2.3-.8.4h-1.7l-.8.3-1.1.5-1 .4-.5.2h-.3l-.5.2h-.6l-1.2-.6-.6-.3-1-.2-.5.3-.1 1.9-.5 1.1-1.6 1.4-1.6 1.4-1 1.6-3 6.7-1.9 2.7-.5.7-2 2.1-1.7 1.3-3.9 3-3.7 1.5-3.2.6h-1.6l-3-.4-2.6-.8-3-1.8-3.1-2.6-4.7-4.5-.6-.4-.2-.1-1.4-1h-1.1l-.4.8-.3 1-.2.9-.5 5v.3l.3 2.1 3.6 5 1 2.6.2.3.7 1.2.6 1 1.3 3.6-.9 2 .4 1.4-1 .8-.2 1.2 3.1 4 .7 1.7-.7 2.4-1.3 1.4-.3.3.2 1 1.4 1.4 2.5 2.2 1.3 3.2 1 1 1.2-.3.6.5h1l1 1 .6.2 1 .5.8 1 .1 3.2 1.5 3.8v2.5l1 1.5.2 1.2-.5 3.3 1.2 1 1.2-.2.8.1 1.3 1.1 1.6 2.4 1.6-.2 1 .4 4.7 4.3 1 .6.9.4 1 1 1.4-1h.2l1.6-.2.7.5 1.4.9h1.7l4 1.2 1.6.4 3.4 2.1 1.5.9.8.7 1.2 1 2.2 1 2 .4 1 .2.9.3 4.2 1.7 2.3.5 2 .8 1.6.5h1.2l1.6-1.3h1.5l1.3.2 1.3-.2 2-1.2.3-.6 1.4-.6 4.8-.6 1.4.4 3.6-1.5 2.4.6 2-.7 4.7 1 1.2.9 1.4 1.5h1.7l-.7 1.1 2 2.2 1.9 2.7.1.4 1.3 3.9 1 1.4.7 1.9v1.2l-1 .9-.2.4v.2l.2.5.4-.2.7-.4 1-.2 1.6.2 1.1.1 1.7-.8 1.2-.6 1.8.8h2l.9.3 2.4 1.1 1.2.1.4-.3.3-.6-.1-.8-1-1.1-2-2.4-.8-1.2-.6-1.7-.2-2.2-.2-1.5.3-2 .5-.7.4-1.6.1-.4 1.2-1.5 3-2 3.2-2.8 2.5-1.7 2.6-1.1v-.3l.4.1 6.6-2.3 3-.5 20 1.4.7-.2.7-1.9.3-.3.3-.2 2.2-1 1-.2 2.8.7 1.2.3 1.9-1h1.3l2.7-1.5h1.7l.7-.2 3.3-2.4 3.1-.9.8-.4.3-.2 3.3-1.7 2-1.6 1.8-1 2-.4 5-.4 1.1-1.7 2.2-.3 1.3-1.5 1.5-.6 1.1-1.6 1-1.3 1.2-.7 4.1-.3 4.8.6.7-.4 1-3.9 1.2-.7 3-4.5v-1.6l.1-1.4.5-2-.3-3.4.4-3.6 1.9-4.5 1.7-1.8 2.7-1.9 1.4-.6 2-.3h.2l.5-.2h9.2l2.3-.1 5.7 1h.4l1.9.7 2.2 1.7 2.4 2.3.4.4 1.5.7.5.2 1.2-.2 1.8-1 1.4-1 1.8-1v-.2l1.1-1.5.4-.7 3.6-1.4 4.2-.2.5-.3h.2l1.1-1.4h1l2.6 1 1.7-.4 1.4.5 1.1-.1 2-.3 2.3 1.6 1.3.2 4.5 2.6h.4l.2.1.5-.2.8-.2h.1l.1.1.6.7.7.1.8-1-.3-.6-.1-.2-1.7-.3-1.4-2.5 1.4-1.5-2.2-2.6-.4-.5v-.1l-.8-1.2-3.8-5.8-5-4-1.7-1.3-.6-.5-2.7-2.7-1.9-2.5-.2-.5-.4-.9-1.1-2.4-2-1.5-1.6-1.8-3.4-4.6-.5-.7-.8-.5h-1.7l-.1-.2h-.1v-.1l.8-.8 1-.2.3-.9-1.7-4.9v-.2l-.1-1.5 1.3-7.1.2-.9 2.4-4.7 1.4-1.2 1.6-3.1 1.4-2 1.3-1.3.2-.1 2.3-1.4 2-.3 1.9-.3 3.3 1h3l.7-.1 1.4-.2 2.3-.7 1.1-.7.6-.8 1.2-4 .4-1.3.7-1.4 4.3-4.9 3.2-3 7.2-5.2 3.5-2.1 1.8-1.1 16.1-7.2 4.2-4.2 2.2-2.2 3.8-2.6 4.5-1.9 4-3 .8-1.1 1-3.5 1-.2.7-1.7.3-.5 3.1-2.2.4-.2 12.3-6.2 1.8.3 1-1.5 3.5-.6h.7l.9-.5.7-1.3v-.3l.1-3.4.8-.9.4-2.2.4-.6.4-.5 1-.7-.2-.4z"/>
</svg>
