<svg xmlns="http://www.w3.org/2000/svg" id="flag-icons-us" viewBox="0 0 640 480">
  <g fill-rule="evenodd">
    <g stroke-width="1pt">
      <path fill="#bd3d44" d="M0 0h912v37H0zm0 73.9h912v37H0zm0 73.8h912v37H0zm0 73.8h912v37H0zm0 74h912v36.8H0zm0 73.7h912v37H0zM0 443h912V480H0z"/>
      <path fill="#fff" d="M0 37h912v36.9H0zm0 73.8h912v36.9H0zm0 73.8h912v37H0zm0 73.9h912v37H0zm0 73.8h912v37H0zm0 73.8h912v37H0z"/>
    </g>
    <path fill="#192f5d" d="M0 0h364.8v258.5H0z"/>
    <path fill="#fff" d="m30.4 11 3.4 10.3h10.6l-8.6 6.3 3.3 10.3-8.7-6.4-8.6 6.3L25 27.6l-8.7-6.3h10.9zm60.8 0 3.3 10.3h10.8l-8.7 6.3 3.2 10.3-8.6-6.4-8.7 6.3 3.3-10.2-8.6-6.3h10.6zm60.8 0 3.3 10.3H166l-8.6 6.3 3.3 10.3-8.7-6.4-8.7 6.3 3.3-10.2-8.7-6.3h10.8zm60.8 0 3.3 10.3h10.8l-8.7 6.3 3.3 10.3-8.7-6.4-8.7 6.3 3.4-10.2-8.8-6.3h10.7zm60.8 0 3.3 10.3h10.7l-8.6 6.3 3.3 10.3-8.7-6.4-8.7 6.3 3.3-10.2-8.6-6.3h10.7zm60.8 0 3.3 10.3h10.8l-8.8 6.3 3.4 10.3-8.7-6.4-8.7 6.3 3.4-10.2-8.8-6.3h10.8zM60.8 37l3.3 10.2H75l-8.7 6.2 3.2 10.3-8.5-6.3-8.7 6.3 3.1-10.3-8.4-6.2h10.7zm60.8 0 3.4 10.2h10.7l-8.8 6.2 3.4 10.3-8.7-6.3-8.7 6.3 3.3-10.3-8.7-6.2h10.8zm60.8 0 3.3 10.2h10.8l-8.7 6.2 3.3 10.3-8.7-6.3-8.7 6.3 3.3-10.3-8.6-6.2H179zm60.8 0 3.4 10.2h10.7l-8.8 6.2 3.4 10.3-8.7-6.3-8.6 6.3 3.2-10.3-8.7-6.2H240zm60.8 0 3.3 10.2h10.8l-8.7 6.2 3.3 10.3-8.7-6.3-8.7 6.3 3.3-10.3-8.6-6.2h10.7zM30.4 62.6l3.4 10.4h10.6l-8.6 6.3 3.3 10.2-8.7-6.3-8.6 6.3L25 79.3 16.3 73h10.9zm60.8 0L94.5 73h10.8l-8.7 6.3 3.2 10.2-8.6-6.3-8.7 6.3 3.3-10.3-8.6-6.3h10.6zm60.8 0 3.3 10.3H166l-8.6 6.3 3.3 10.2-8.7-6.3-8.7 6.3 3.3-10.3-8.7-6.3h10.8zm60.8 0 3.3 10.3h10.8l-8.7 6.3 3.3 10.2-8.7-6.3-8.7 6.3 3.4-10.3-8.8-6.3h10.7zm60.8 0 3.3 10.3h10.7l-8.6 6.3 3.3 10.2-8.7-6.3-8.7 6.3 3.3-10.3-8.6-6.3h10.7zm60.8 0 3.3 10.3h10.8l-8.8 6.3 3.4 10.2-8.7-6.3-8.7 6.3 3.4-10.3-8.8-6.3h10.8zM60.8 88.6l3.3 10.2H75l-8.7 6.3 3.3 10.3-8.7-6.4-8.7 6.3 3.3-10.2-8.6-6.3h10.7zm60.8 0 3.4 10.2h10.7l-8.8 6.3 3.4 10.3-8.7-6.4-8.7 6.3 3.3-10.2-8.7-6.3h10.8zm60.8 0 3.3 10.2h10.8l-8.7 6.3 3.3 10.3-8.7-6.4-8.7 6.3 3.3-10.2-8.6-6.3H179zm60.8 0 3.4 10.2h10.7l-8.7 6.3 3.3 10.3-8.7-6.4-8.6 6.3 3.2-10.2-8.7-6.3H240zm60.8 0 3.3 10.2h10.8l-8.7 6.3 3.3 10.3-8.7-6.4-8.7 6.3 3.3-10.2-8.6-6.3h10.7zM30.4 114.5l3.4 10.2h10.6l-8.6 6.3 3.3 10.3-8.7-6.4-8.6 6.3L25 131l-8.7-6.3h10.9zm60.8 0 3.3 10.2h10.8l-8.7 6.3 3.2 10.2-8.6-6.3-8.7 6.3 3.3-10.2-8.6-6.3h10.6zm60.8 0 3.3 10.2H166l-8.6 6.3 3.3 10.3-8.7-6.4-8.7 6.3 3.3-10.2-8.7-6.3h10.8zm60.8 0 3.3 10.2h10.8l-8.7 6.3 3.3 10.3-8.7-6.4-8.7 6.3 3.4-10.2-8.8-6.3h10.7zm60.8 0 3.3 10.2h10.7L279 131l3.3 10.3-8.7-6.4-8.7 6.3 3.3-10.2-8.6-6.3h10.7zm60.8 0 3.3 10.2h10.8l-8.8 6.3 3.4 10.3-8.7-6.4-8.7 6.3L329 131l-8.8-6.3h10.8zM60.8 140.3l3.3 10.3H75l-8.7 6.2 3.3 10.3-8.7-6.4-8.7 6.4 3.3-10.3-8.6-6.3h10.7zm60.8 0 3.4 10.3h10.7l-8.8 6.2 3.4 10.3-8.7-6.4-8.7 6.4 3.3-10.3-8.7-6.3h10.8zm60.8 0 3.3 10.3h10.8l-8.7 6.2 3.3 10.3-8.7-6.4-8.7 6.4 3.3-10.3-8.6-6.3H179zm60.8 0 3.4 10.3h10.7l-8.7 6.2 3.3 10.3-8.7-6.4-8.6 6.4 3.2-10.3-8.7-6.3H240zm60.8 0 3.3 10.3h10.8l-8.7 6.2 3.3 10.3-8.7-6.4-8.7 6.4 3.3-10.3-8.6-6.3h10.7zM30.4 166.1l3.4 10.3h10.6l-8.6 6.3 3.3 10.1-8.7-6.2-8.6 6.2 3.2-10.2-8.7-6.3h10.9zm60.8 0 3.3 10.3h10.8l-8.7 6.3 3.3 10.1-8.7-6.2-8.7 6.2 3.4-10.2-8.7-6.3h10.6zm60.8 0 3.3 10.3H166l-8.6 6.3 3.3 10.1-8.7-6.2-8.7 6.2 3.3-10.2-8.7-6.3h10.8zm60.8 0 3.3 10.3h10.8l-8.7 6.3 3.3 10.1-8.7-6.2-8.7 6.2 3.4-10.2-8.8-6.3h10.7zm60.8 0 3.3 10.3h10.7l-8.6 6.3 3.3 10.1-8.7-6.2-8.7 6.2 3.3-10.2-8.6-6.3h10.7zm60.8 0 3.3 10.3h10.8l-8.8 6.3 3.4 10.1-8.7-6.2-8.7 6.2 3.4-10.2-8.8-6.3h10.8zM60.8 192l3.3 10.2H75l-8.7 6.3 3.3 10.3-8.7-6.4-8.7 6.3 3.3-10.2-8.6-6.3h10.7zm60.8 0 3.4 10.2h10.7l-8.8 6.3 3.4 10.3-8.7-6.4-8.7 6.3 3.3-10.2-8.7-6.3h10.8zm60.8 0 3.3 10.2h10.8l-8.7 6.3 3.3 10.3-8.7-6.4-8.7 6.3 3.3-10.2-8.6-6.3H179zm60.8 0 3.4 10.2h10.7l-8.7 6.3 3.3 10.3-8.7-6.4-8.6 6.3 3.2-10.2-8.7-6.3H240zm60.8 0 3.3 10.2h10.8l-8.7 6.3 3.3 10.3-8.7-6.4-8.7 6.3 3.3-10.2-8.6-6.3h10.7zM30.4 217.9l3.4 10.2h10.6l-8.6 6.3 3.3 10.2-8.7-6.3-8.6 6.3 3.2-10.3-8.7-6.3h10.9zm60.8 0 3.3 10.2h10.8l-8.7 6.3 3.3 10.2-8.7-6.3-8.7 6.3 3.4-10.3-8.7-6.3h10.6zm60.8 0 3.3 10.2H166l-8.4 6.3 3.3 10.2-8.7-6.3-8.7 6.3 3.3-10.3-8.7-6.3h10.8zm60.8 0 3.3 10.2h10.8l-8.7 6.3 3.3 10.2-8.7-6.3-8.7 6.3 3.4-10.3-8.8-6.3h10.7zm60.8 0 3.3 10.2h10.7l-8.6 6.3 3.3 10.2-8.7-6.3-8.7 6.3 3.3-10.3-8.6-6.3h10.7zm60.8 0 3.3 10.2h10.8l-8.8 6.3 3.4 10.2-8.7-6.3-8.7 6.3 3.4-10.3-8.8-6.3h10.8z"/>
  </g>
</svg>
