<?xml version="1.0" encoding="UTF-8"?>
<svg width="24px" height="24px" viewBox="0 0 24 24" version="1.1" xmlns="http://www.w3.org/2000/svg">
        <path d="M10.8282576,15.0671975 L7.33347115,17.0849134 C6.00446565,17.8522151 4.3050729,17.3968642 3.53777122,16.0678586 C2.77046953,14.7388531 3.22582045,13.0394604 4.55482595,12.2721587 L8.18619607,10.1755862 L8.18619607,5.25184384 C8.18619607,4.83763028 8.52198251,4.50184384 8.93619607,4.50184384 L12.556049,4.50184384 C12.9702626,4.50184384 13.306049,4.83763028 13.306049,5.25184384 L13.306049,13.5671975 C13.306049,14.3956246 12.6344761,15.0671975 11.806049,15.0671975 L10.8282576,15.0671975 Z" id="Combined-Shape-Copy" fill="#000000" opacity="0.3" transform="translate(8.306049, 11.001844) rotate(-350.000000) translate(-8.306049, -11.001844) "></path>
        <path d="M15.4588076,18.1510716 L10.7536806,20.867578 C8.93662868,21.9166534 6.61317343,21.2940854 5.56409802,19.4770335 C4.51502262,17.6599816 5.13759058,15.3365264 6.95464248,14.287451 L11.7267568,11.5322695 L11.7267568,5.15107164 C11.7267568,4.59878689 12.174472,4.15107164 12.7267568,4.15107164 L17.7267568,4.15107164 C18.2790415,4.15107164 18.7267568,4.59878689 18.7267568,5.15107164 L18.7267568,16.1510716 C18.7267568,17.2556411 17.8313263,18.1510716 16.7267568,18.1510716 L15.4588076,18.1510716 Z" id="Combined-Shape" fill="#000000" transform="translate(11.890623, 12.764129) rotate(-350.000000) translate(-11.890623, -12.764129) "></path>
</svg>