<?xml version="1.0" encoding="UTF-8"?>
<svg width="24px" height="24px" viewBox="0 0 24 24" version="1.1" xmlns="http://www.w3.org/2000/svg" xmlns:xlink="http://www.w3.org/1999/xlink">
    <g id="Stockholm-icons-/-Files-/-Folder-heart" stroke="none" stroke-width="1" fill="none" fill-rule="evenodd">
        <rect id="bound" x="0" y="0" width="24" height="24"></rect>
        <path d="M3.5,21 L20.5,21 C21.3284271,21 22,20.3284271 22,19.5 L22,8.5 C22,7.67157288 21.3284271,7 20.5,7 L10,7 L7.43933983,4.43933983 C7.15803526,4.15803526 6.77650439,4 6.37867966,4 L3.5,4 C2.67157288,4 2,4.67157288 2,5.5 L2,19.5 C2,20.3284271 2.67157288,21 3.5,21 Z" id="Combined-Shape" fill="#000000" opacity="0.3"></path>
        <path d="M14.35,10.5 C13.54525,10.5 12.604125,11.4123161 12.1,12 C11.595875,11.4123161 10.65475,10.5 9.85,10.5 C8.4255,10.5 7.6,11.6110899 7.6,13.0252044 C7.6,14.5917348 9.1,16.25 12.1,18 C15.1,16.25 16.6,14.625 16.6,13.125 C16.6,11.7108856 15.7745,10.5 14.35,10.5 Z" id="Shape" fill="#000000" fill-rule="nonzero" opacity="0.3"></path>
    </g>
</svg>
