<?xml version="1.0" encoding="UTF-8"?>
<svg width="24px" height="24px" viewBox="0 0 24 24" version="1.1" xmlns="http://www.w3.org/2000/svg" xmlns:xlink="http://www.w3.org/1999/xlink">
    <g id="Stockholm-icons-/-Files-/-Group-folders" stroke="none" stroke-width="1" fill="none" fill-rule="evenodd">
        <rect id="bound" x="0" y="0" width="24" height="24"></rect>
        <path d="M4.5,21 L21.5,21 C22.3284271,21 23,20.3284271 23,19.5 L23,8.5 C23,7.67157288 22.3284271,7 21.5,7 L11,7 L8.43933983,4.43933983 C8.15803526,4.15803526 7.77650439,4 7.37867966,4 L4.5,4 C3.67157288,4 3,4.67157288 3,5.5 L3,19.5 C3,20.3284271 3.67157288,21 4.5,21 Z" id="Combined-Shape" fill="#000000" opacity="0.3"></path>
        <path d="M2.5,19 L19.5,19 C20.3284271,19 21,18.3284271 21,17.5 L21,6.5 C21,5.67157288 20.3284271,5 19.5,5 L9,5 L6.43933983,2.43933983 C6.15803526,2.15803526 5.77650439,2 5.37867966,2 L2.5,2 C1.67157288,2 1,2.67157288 1,3.5 L1,17.5 C1,18.3284271 1.67157288,19 2.5,19 Z" id="Combined-Shape-Copy" fill="#000000"></path>
    </g>
</svg>
