<?xml version="1.0" encoding="UTF-8"?>
<svg width="24px" height="24px" viewBox="0 0 24 24" version="1.1" xmlns="http://www.w3.org/2000/svg" xmlns:xlink="http://www.w3.org/1999/xlink">
    <g id="Stockholm-icons-/-Files-/-Media" stroke="none" stroke-width="1" fill="none" fill-rule="evenodd">
        <polygon id="Shape" points="0 0 24 0 24 24 0 24"></polygon>
        <path d="M5.85714286,2 L13.7364114,2 C14.0910962,2 14.4343066,2.12568431 14.7051108,2.35473959 L19.4686994,6.3839416 C19.8056532,6.66894833 20,7.08787823 20,7.52920201 L20,20.0833333 C20,21.8738751 19.9795521,22 18.1428571,22 L5.85714286,22 C4.02044787,22 4,21.8738751 4,20.0833333 L4,3.91666667 C4,2.12612489 4.02044787,2 5.85714286,2 Z" id="Combined-Shape" fill="#000000" fill-rule="nonzero" opacity="0.3"></path>
        <path d="M10.782158,15.8052934 L15.1856088,12.7952868 C15.4135806,12.6394552 15.4720618,12.3283211 15.3162302,12.1003494 C15.2814587,12.0494808 15.2375842,12.0054775 15.1868178,11.970557 L10.783367,8.94156929 C10.5558531,8.78507001 10.2445489,8.84263875 10.0880496,9.07015268 C10.0307022,9.15352258 10,9.25233045 10,9.35351969 L10,15.392514 C10,15.6686564 10.2238576,15.892514 10.5,15.892514 C10.6006894,15.892514 10.699033,15.8621141 10.782158,15.8052934 Z" id="Path-10" fill="#000000"></path>
    </g>
</svg>
