<?xml version="1.0" encoding="UTF-8"?>
<svg width="24px" height="24px" viewBox="0 0 24 24" version="1.1" xmlns="http://www.w3.org/2000/svg" xmlns:xlink="http://www.w3.org/1999/xlink">
    <g id="Stockholm-icons-/-Files-/-Pictures1" stroke="none" stroke-width="1" fill="none" fill-rule="evenodd">
        <rect id="bound" x="0" y="0" width="24" height="24"></rect>
        <path d="M3.5,21 L20.5,21 C21.3284271,21 22,20.3284271 22,19.5 L22,8.5 C22,7.67157288 21.3284271,7 20.5,7 L10,7 L7.43933983,4.43933983 C7.15803526,4.15803526 6.77650439,4 6.37867966,4 L3.5,4 C2.67157288,4 2,4.67157288 2,5.5 L2,19.5 C2,20.3284271 2.67157288,21 3.5,21 Z" id="Combined-Shape" fill="#000000" opacity="0.3"></path>
        <polygon id="Path" fill="#000000" opacity="0.3" points="4 19 10 11 16 19"></polygon>
        <polygon id="Path-Copy" fill="#000000" points="11 19 15 14 19 19"></polygon>
        <path d="M18,12 C18.8284271,12 19.5,11.3284271 19.5,10.5 C19.5,9.67157288 18.8284271,9 18,9 C17.1715729,9 16.5,9.67157288 16.5,10.5 C16.5,11.3284271 17.1715729,12 18,12 Z" id="Path" fill="#000000" opacity="0.3"></path>
    </g>
</svg>
