<?xml version="1.0" encoding="UTF-8"?>
<svg width="24px" height="24px" viewBox="0 0 24 24" version="1.1" xmlns="http://www.w3.org/2000/svg" >
    <path d="M8.37867966,15.1213203 C9.35499039,16.0976311 9.35499039,17.6805435 8.37867966,18.6568542 L6.25735931,20.7781746 C5.28104858,21.7544853 3.69813614,21.7544853 2.72182541,20.7781746 C1.74551468,19.8018639 1.74551468,18.2189514 2.72182541,17.2426407 L4.84314575,15.1213203 C5.81945648,14.1450096 7.40236893,14.1450096 8.37867966,15.1213203 Z M3.81784105,19.7528699 C4.30599642,20.2410253 5.09745264,20.2410253 5.58560801,19.7528699 C6.07376337,19.2647145 6.07376337,18.4732583 5.58560801,17.9851029 C5.09745264,17.4969476 4.30599642,17.4969476 3.81784105,17.9851029 C3.32968569,18.4732583 3.32968569,19.2647145 3.81784105,19.7528699 Z" id="Combined-Shape" fill="#000000" opacity="0.3"></path>
    <path d="M14.3890873,1.33273811 L22.1672619,9.1109127 C22.9483105,9.89196129 22.9483105,11.1582912 22.1672619,11.9393398 L12.9748737,21.131728 C12.1938252,21.9127766 10.9274952,21.9127766 10.1464466,21.131728 L2.36827202,13.3535534 C1.58722343,12.5725048 1.58722343,11.3061748 2.36827202,10.5251263 L11.5606602,1.33273811 C12.3417088,0.551689527 13.6080387,0.551689527 14.3890873,1.33273811 Z" id="Rectangle-134" fill="#000000"></path>
</svg>
