<?xml version="1.0" encoding="UTF-8"?>
<svg width="24px" height="24px" viewBox="0 0 24 24" version="1.1" xmlns="http://www.w3.org/2000/svg" >
        <path d="M7.0365148,2.21226948 L7.74351388,2.19992877 L10.0646842,8.08940609 C10.6609841,9.60239072 9.91786435,11.3123037 8.40487972,11.9086037 C8.06104051,12.0441181 7.69476342,12.1136927 7.32518316,12.1136927 C5.71931048,12.1136927 4.41749347,10.8118757 4.41749347,9.20600299 C4.41749347,8.82960553 4.4905735,8.45678844 4.63267698,8.10824627 L7.0365148,2.21226948 Z M7.32518316,10.6851213 C8.12149664,10.6851213 8.76703627,10.045528 8.76703627,9.25654983 C8.76703627,8.46757161 8.12149664,7.8279784 7.32518316,7.8279784 C6.52886967,7.8279784 5.88333004,8.46757161 5.88333004,9.25654983 C5.88333004,10.045528 6.52886967,10.6851213 7.32518316,10.6851213 Z" id="Combined-Shape" fill="#000000" opacity="0.3" transform="translate(7.344027, 7.156811) rotate(-584.000000) translate(-7.344027, -7.156811) "></path>
        <path d="M9.93933983,19.9246212 C7.20566979,17.1909512 7.20566979,12.7587963 9.93933983,10.0251263 C12.6730099,7.29145622 17.1051647,7.29145622 19.8388348,10.0251263 C22.5725048,12.7587963 22.5725048,17.1909512 19.8388348,19.9246212 C17.1051647,22.6582912 12.6730099,22.6582912 9.93933983,19.9246212 Z M15,20.5 C18.0375661,20.5 20.5,18.0375661 20.5,15 C20.5,11.9624339 18.0375661,9.5 15,9.5 C11.9624339,9.5 9.5,11.9624339 9.5,15 C9.5,18.0375661 11.9624339,20.5 15,20.5 Z M15,19.5 C12.5147186,19.5 10.5,17.4852814 10.5,15 C10.5,12.5147186 12.5147186,10.5 15,10.5 C17.4852814,10.5 19.5,12.5147186 19.5,15 C19.5,17.4852814 17.4852814,19.5 15,19.5 Z" id="Combined-Shape" fill="#000000"></path>
</svg>
