<?xml version="1.0" encoding="UTF-8"?>
<svg width="24px" height="24px" viewBox="0 0 24 24" version="1.1" xmlns="http://www.w3.org/2000/svg" >
        <path d="M7.92847669,8.37139068 L6.07152331,7.62860932 L6.95735128,5.4140394 C7.78213616,3.3520772 9.77919874,2 12,2 C14.2208013,2 16.2178638,3.3520772 17.0426487,5.4140394 L17.9284767,7.62860932 L16.0715233,8.37139068 L15.1856953,6.15682075 C14.6646372,4.85417531 13.4029921,4 12,4 C10.5970079,4 9.33536284,4.85417531 8.81430466,6.15682075 L7.92847669,8.37139068 Z" id="Path-115" fill="#000000" fill-rule="nonzero" opacity="0.3"></path>
        <path d="M7.61683158,7 L16.3831684,7 C17.326244,7 18.1411715,7.65880026 18.3387732,8.58094182 L20.4816304,18.5809418 C20.7130698,19.6609925 20.0251345,20.7241654 18.9450837,20.9556048 C18.8073508,20.985119 18.6668852,21 18.5260256,21 L5.47397444,21 C4.36940494,21 3.47397444,20.1045695 3.47397444,19 C3.47397444,18.8591403 3.48885541,18.7186748 3.51836961,18.5809418 L5.66122675,8.58094182 C5.85882852,7.65880026 6.67375601,7 7.61683158,7 Z M6,19 C6.55228475,19 7,18.5522847 7,18 C7,17.4477153 6.55228475,17 6,17 C5.44771525,17 5,17.4477153 5,18 C5,18.5522847 5.44771525,19 6,19 Z M8,15 C8.55228475,15 9,14.5522847 9,14 C9,13.4477153 8.55228475,13 8,13 C7.44771525,13 7,13.4477153 7,14 C7,14.5522847 7.44771525,15 8,15 Z M10,11 C10.5522847,11 11,10.5522847 11,10 C11,9.44771525 10.5522847,9 10,9 C9.44771525,9 9,9.44771525 9,10 C9,10.5522847 9.44771525,11 10,11 Z M14,11 C14.5522847,11 15,10.5522847 15,10 C15,9.44771525 14.5522847,9 14,9 C13.4477153,9 13,9.44771525 13,10 C13,10.5522847 13.4477153,11 14,11 Z M12,15 C12.5522847,15 13,14.5522847 13,14 C13,13.4477153 12.5522847,13 12,13 C11.4477153,13 11,13.4477153 11,14 C11,14.5522847 11.4477153,15 12,15 Z M16,15 C16.5522847,15 17,14.5522847 17,14 C17,13.4477153 16.5522847,13 16,13 C15.4477153,13 15,13.4477153 15,14 C15,14.5522847 15.4477153,15 16,15 Z M10,19 C10.5522847,19 11,18.5522847 11,18 C11,17.4477153 10.5522847,17 10,17 C9.44771525,17 9,17.4477153 9,18 C9,18.5522847 9.44771525,19 10,19 Z M14,19 C14.5522847,19 15,18.5522847 15,18 C15,17.4477153 14.5522847,17 14,17 C13.4477153,17 13,17.4477153 13,18 C13,18.5522847 13.4477153,19 14,19 Z M18,19 C18.5522847,19 19,18.5522847 19,18 C19,17.4477153 18.5522847,17 18,17 C17.4477153,17 17,17.4477153 17,18 C17,18.5522847 17.4477153,19 18,19 Z" id="Combined-Shape" fill="#000000"></path>
</svg>
