<?xml version="1.0" encoding="UTF-8"?>
<svg width="24px" height="24px" viewBox="0 0 24 24" version="1.1" xmlns="http://www.w3.org/2000/svg" >
        <path d="M2,9 L12,9 C12.5522847,9 13,9.44771525 13,10 L13,13 C13,15.209139 11.209139,17 9,17 L5,17 C2.790861,17 1,15.209139 1,13 L1,10 C1,9.44771525 1.44771525,9 2,9 Z" id="Rectangle-203" fill="#000000"></path>
        <path d="M14.9984604,9.44452998 L21.5023095,9.08320503 C22.2847837,9.03973424 22.9543445,9.63881491 22.9978153,10.4212892 C22.9992715,10.4475009 23,10.4737479 23,10.5 L23,10.5 C23,11.2836808 22.3647011,11.9189797 21.5810203,11.9189797 C21.5547682,11.9189797 21.5285212,11.9182512 21.5023095,11.916795 L14.9984604,11.55547 C14.4382868,11.5243493 14,11.0610373 14,10.5 L14,10.5 C14,9.93896268 14.4382868,9.47565073 14.9984604,9.44452998 Z" id="Rectangle-206" fill="#000000" opacity="0.3"></path>
</svg>
