<svg width="18" height="18" viewBox="0 0 18 18" fill="none" xmlns="http://www.w3.org/2000/svg">
<path d="M1 11.9478V11.9483C1.00961 12.2147 1.01281 12.4827 1.07251 12.7474C1.13605 13.0275 1.22687 13.3006 1.40013 13.5548C1.63439 13.8989 1.95509 14.1896 2.36225 14.4268C2.65381 14.5972 2.97234 14.7325 3.32494 14.8179C3.83902 14.9422 4.36943 14.9898 4.90759 14.9921C5.24335 14.9937 5.57891 15 5.9148 14.9989C8.35401 14.9913 10.7933 15.0121 13.2326 14.9877C13.5563 14.9844 13.8747 14.9548 14.1924 14.9112C14.8012 14.8277 15.3393 14.6328 15.7997 14.3252C16.3363 13.9666 16.6983 13.5276 16.8618 12.9979C16.9687 12.6516 16.9955 12.3003 17 11.9478V11.8774C17 11.8502 16.9862 5.88732 16.9849 5.8085C16.9814 5.59201 16.96 5.37711 16.9059 5.16408C16.84 4.90449 16.7469 4.65153 16.5811 4.41671C16.4059 4.16854 16.1865 3.94548 15.915 3.7505C15.4993 3.45179 15.0197 3.24058 14.461 3.12884C13.9567 3.02803 13.4421 3.00557 12.9238 3.00595C12.9221 3.0042 12.9211 3.00214 12.9209 3H5.07624C5.07624 3.00202 5.07624 3.00398 5.07579 3.00595C4.7816 3.00998 4.48703 3.0083 4.19438 3.03552C3.8738 3.06538 3.55623 3.11035 3.25282 3.19436C2.77487 3.32684 2.35956 3.5332 2.00484 3.80877C1.60292 4.12078 1.31949 4.48184 1.16935 4.90219C1.03516 5.27722 1.00596 5.6597 1.00525 6.04491" fill="white"/>
<path d="M9.39878 15.9817L5.70588 15.9057C4.5102 15.8793 3.31154 15.9321 2.13931 15.6579C0.356065 15.2483 0.229734 13.2399 0.097542 11.5553C-0.0846053 9.18684 -0.0140906 6.77543 0.329645 4.42677C0.523695 3.10893 1.28736 2.32257 2.46834 2.237C6.45503 1.92645 10.4682 1.96325 14.4461 2.10813C14.8662 2.12141 15.2892 2.19401 15.7034 2.27664C17.7483 2.67966 17.7981 4.95561 17.9307 6.87154C18.0629 8.80724 18.007 10.7529 17.7544 12.6754C17.5517 14.2672 17.1638 15.6021 15.5271 15.7309C13.4764 15.8994 11.4728 16.0351 9.41636 15.9919C9.41645 15.9817 9.40464 15.9817 9.39878 15.9817ZM7.22771 11.9517C8.77308 10.954 10.289 9.973 11.8255 8.98203C10.2772 7.98438 8.76424 7.00335 7.22771 6.01238V11.9517Z" fill="#FF0000"/>
</svg>
