<svg width="351" height="320" viewBox="0 0 351 320" fill="none" xmlns="http://www.w3.org/2000/svg">
<path d="M348.85 312.428H58.8485C58.4173 312.428 58.0645 312.075 58.0645 311.644C58.0645 311.213 58.4173 310.86 58.8485 310.86H348.85C349.281 310.86 349.634 311.213 349.634 311.644C349.634 312.075 349.281 312.428 348.85 312.428Z" fill="#1D1D1B"/>
<path d="M260.886 175.463C259.632 175.463 258.378 175.424 257.123 175.267C256.81 175.228 256.574 174.914 256.614 174.601C256.653 174.287 256.966 174.052 257.28 174.091C257.358 174.091 264.493 175.11 274.175 172.288C283.113 169.662 296.088 163.154 307.221 146.886C307.417 146.651 307.809 146.573 308.044 146.808C308.279 147.004 308.318 147.318 308.201 147.553C296.872 164.134 283.583 170.759 274.45 173.425C270.098 174.718 265.512 175.424 260.886 175.463Z" fill="black"/>
<path d="M284.25 184.322C277.664 184.322 273.313 182.676 273.156 182.598C272.843 182.48 272.686 182.166 272.764 181.853C272.882 181.539 273.195 181.382 273.509 181.461C273.548 181.461 273.548 181.461 273.587 181.5C273.783 181.578 291.345 188.164 309.142 174.17C309.377 173.974 309.769 174.013 309.965 174.248C310.161 174.483 310.122 174.875 309.887 175.071C309.887 175.071 309.887 175.071 309.847 175.11C300.283 182.637 290.796 184.283 284.563 184.322H284.25Z" fill="black"/>
<path d="M221.098 156.647C221.098 156.647 220.667 169.858 230.232 168.133C239.796 166.408 260.259 162.488 264.179 176.835C268.099 191.182 266.335 193.809 276.801 194.671C287.268 195.534 304.163 215.29 279.82 231.754C255.476 248.218 201.498 168.133 201.498 168.133L203.772 160.254L221.098 156.647Z" fill="#6C32AD"/>
<path d="M221.099 156.647C221.099 156.647 220.707 168.29 228.586 168.29C229.135 168.29 229.684 168.251 230.232 168.133C234.231 167.427 240.111 166.291 245.912 166.291C254.027 166.291 261.906 168.447 264.219 176.835C268.139 191.222 266.375 193.809 276.841 194.671C287.308 195.534 304.203 215.291 279.86 231.755C277.625 233.244 275.038 234.028 272.333 233.989C245.912 233.989 201.499 168.094 201.499 168.094L203.772 160.215L221.099 156.647ZM221.138 155.471C221.06 155.471 220.981 155.471 220.903 155.511L203.537 159.117C203.106 159.195 202.753 159.509 202.636 159.94L200.401 167.819C200.323 168.172 200.362 168.525 200.558 168.799C208.476 180.285 217.022 191.3 226.156 201.845C245.52 223.954 261.044 235.165 272.372 235.165C275.273 235.204 278.135 234.342 280.526 232.735C294.403 223.327 294.285 213.487 292.952 208.431C290.796 200.12 282.917 194.005 276.92 193.495C269.276 192.868 269.04 191.771 267.041 183.421C266.571 181.461 266.061 179.187 265.316 176.483C263.239 168.917 256.732 165.075 245.873 165.075C240.15 165.075 234.27 166.134 230.35 166.839L229.997 166.918C229.527 166.996 229.017 167.075 228.547 167.075C227.175 167.114 225.842 166.565 224.862 165.585C222.079 162.684 222.236 156.726 222.236 156.647C222.275 155.981 221.765 155.471 221.099 155.432C221.138 155.471 221.138 155.471 221.138 155.471Z" fill="black"/>
<path d="M282.446 229.912C281.505 208.078 248.107 183.813 237.209 179.893C226.312 175.973 213.258 169.897 211.533 165.075C209.808 160.293 217.766 158.529 217.766 158.529L215.453 157.784L203.811 160.215L201.537 168.094C201.537 168.094 255.516 248.219 279.898 231.755C280.76 231.167 281.623 230.539 282.446 229.912Z" fill="#59298F"/>
<path d="M179.036 182.088C179.036 182.088 170.765 185.577 175.547 190.359C180.33 195.142 187.699 191.967 191.423 189.654C191.423 189.654 190.365 195.612 198.205 194.711C206.045 193.809 212.121 191.653 211.258 182.088H179.036Z" fill="white"/>
<path d="M211.259 182.088C212.121 191.653 206.045 193.848 198.205 194.711C197.696 194.789 197.225 194.789 196.716 194.789C190.522 194.789 191.424 189.615 191.424 189.615C189.111 191.065 185.426 192.829 181.82 192.829C179.468 192.907 177.194 192.006 175.548 190.32C170.765 185.538 179.037 182.049 179.037 182.049L211.259 182.088ZM211.259 180.912H179.076C178.919 180.912 178.762 180.951 178.605 180.991C178.096 181.187 173.666 183.147 173 186.518C172.686 188.125 173.274 189.693 174.764 191.183C176.645 193.064 179.193 194.083 181.859 194.005C185.113 194.005 188.288 192.711 190.405 191.614C190.561 192.476 190.953 193.26 191.502 193.927C192.639 195.259 194.403 195.965 196.794 195.965C197.343 195.965 197.892 195.926 198.401 195.887C201.929 195.495 205.967 194.789 208.789 192.594C211.729 190.32 212.945 186.831 212.513 181.971C212.396 181.383 211.886 180.912 211.259 180.912Z" fill="black"/>
<path d="M246.656 115.566C246.617 115.566 246.578 115.566 246.538 115.527C246.264 115.409 246.146 115.095 246.264 114.821C247.401 112.116 247.518 109.568 246.617 107.334C244.97 103.296 240.502 101.415 240.462 101.375C240.188 101.258 240.07 100.944 240.149 100.67C240.227 100.395 240.58 100.278 240.854 100.356C241.05 100.435 245.794 102.434 247.636 106.903C248.694 109.451 248.577 112.234 247.283 115.252C247.166 115.487 246.891 115.605 246.656 115.566Z" fill="black"/>
<path d="M233.916 113.88H233.876C233.563 113.841 233.328 113.567 233.328 113.253C233.563 109.882 232.818 107.255 231.054 105.413C228.153 102.434 223.528 102.551 223.488 102.551C223.175 102.551 222.9 102.316 222.861 102.003C222.822 101.689 223.096 101.415 223.41 101.375C223.606 101.375 228.624 101.219 231.838 104.59C233.837 106.667 234.739 109.607 234.464 113.331C234.464 113.645 234.229 113.919 233.916 113.88Z" fill="white"/>
<path d="M298.596 306.274C298.596 306.274 300.007 298.238 317.961 294.475C335.914 290.711 349.164 310.076 349.164 310.076H298.596V306.274Z" fill="#6C32AD"/>
<path d="M350.301 310.664H298.008V306.195C298.086 305.842 299.693 297.728 317.843 293.926C325.369 292.358 333.249 294.592 340.657 300.433C344.068 303.098 347.086 306.274 349.634 309.762L350.301 310.664ZM299.184 309.488H347.988C345.087 305.725 333.209 291.848 318.078 295.062C301.497 298.551 299.301 305.764 299.145 306.352V309.488H299.184Z" fill="#1D1E1B"/>
<path d="M325.525 286.909C329.328 285.027 338.305 286.909 340.186 290.711C342.068 294.514 338.775 297.336 335.482 298.277C332.189 299.218 327.564 294.553 327.564 294.553L325.525 286.909Z" fill="#FFCDB2"/>
<path d="M334.542 298.983C331.132 298.983 327.329 295.141 327.133 294.945L327.016 294.827L324.82 286.595L325.252 286.399C329.328 284.361 338.619 286.282 340.696 290.437C341.402 291.77 341.48 293.338 340.892 294.749C339.952 296.905 337.521 298.277 335.6 298.826C335.287 298.904 334.895 298.943 334.542 298.983ZM328.074 294.2C329.368 295.494 332.935 298.355 335.287 297.689C336.972 297.219 339.05 296.043 339.834 294.279C340.304 293.22 340.226 291.966 339.638 290.947C337.952 287.575 329.956 285.811 326.192 287.223L328.074 294.2Z" fill="#1D1D1B"/>
<path d="M228.193 129.208C235.554 129.208 241.521 123.24 241.521 115.88C241.521 108.519 235.554 102.552 228.193 102.552C220.832 102.552 214.865 108.519 214.865 115.88C214.865 123.24 220.832 129.208 228.193 129.208Z" fill="#6C32AD"/>
<path d="M230.467 102.787C237.719 104.041 242.58 110.94 241.325 118.192C240.071 125.444 233.172 130.305 225.92 129.051C218.668 127.796 213.807 120.897 215.061 113.645C215.061 113.645 215.061 113.645 215.061 113.606C216.355 106.354 223.254 101.532 230.467 102.787ZM230.663 101.689C222.823 100.317 215.375 105.57 214.003 113.41C212.631 121.25 217.884 128.698 225.724 130.07C233.564 131.442 241.012 126.189 242.384 118.349C243.756 110.548 238.503 103.061 230.663 101.689Z" fill="black"/>
<path d="M312.787 294.004C312.787 294.004 314.669 285.968 321.294 285.027C327.918 284.087 333.563 287.379 333.132 294.004C332.701 300.629 324.625 301.57 320.392 300.159C316.158 298.747 312.787 294.004 312.787 294.004Z" fill="#FFCDB2"/>
<path d="M324.114 301.295C322.782 301.295 321.41 301.099 320.116 300.707C315.726 299.257 312.394 294.553 312.276 294.357L312.119 294.161L312.198 293.887C312.276 293.534 314.275 285.459 321.214 284.439C325.212 283.891 328.818 284.792 331.131 286.948C333.013 288.712 333.914 291.182 333.718 294.043C333.601 296.278 332.425 298.355 330.543 299.571C328.701 300.786 326.349 301.295 324.114 301.295ZM313.413 293.887C314.118 294.827 317.019 298.434 320.508 299.61C323.134 300.472 327.172 300.433 329.838 298.63C331.406 297.611 332.425 295.886 332.464 294.004C332.66 291.495 331.876 289.379 330.269 287.85C328.23 285.929 324.977 285.145 321.331 285.655C315.882 286.399 313.805 292.554 313.413 293.887Z" fill="#1D1D1B"/>
<path d="M173.665 126.894C173.665 126.894 171.039 114.938 179.153 110.587C187.268 106.236 188.601 108.157 192.717 105.57C196.833 102.982 206.045 104.198 210.709 110.352C210.709 110.352 222.195 110.313 227.565 116.977C232.936 123.641 232.936 128.541 230.976 135.166C229.016 141.79 229.173 145.514 227.957 150.218C226.742 154.922 221.372 166.682 201.654 163.664C181.897 160.646 173.665 126.894 173.665 126.894Z" fill="#6C32AD"/>
<path d="M200.791 104.59C204.437 105.217 208.239 107.098 210.748 110.391C212.316 110.43 213.884 110.587 215.452 110.862C219.255 111.528 224.468 113.135 227.604 117.016C233.014 123.68 232.975 128.58 230.975 135.205C228.976 141.83 229.172 145.554 227.957 150.258C226.742 154.962 221.371 166.722 201.654 163.703L201.301 163.625C181.819 160.214 173.704 126.894 173.704 126.894C173.704 126.894 171.078 114.938 179.192 110.587C187.307 106.275 188.639 108.157 192.755 105.57C194.637 104.433 197.655 104.041 200.791 104.59ZM200.987 103.531C197.577 102.943 194.284 103.374 192.167 104.707C190.482 105.726 189.384 105.962 187.816 106.275C185.817 106.667 183.308 107.216 178.643 109.646C174.998 111.606 172.763 115.252 172.293 120.27C172.058 122.543 172.175 124.856 172.607 127.13V127.169C174.175 133.166 176.409 138.968 179.192 144.495C181.819 149.67 184.798 153.942 187.934 157.235C191.971 161.39 196.362 163.899 201.066 164.722L201.458 164.801C210.278 166.173 217.334 164.801 222.391 160.763C225.644 158.176 227.957 154.57 228.976 150.571C229.447 148.65 229.839 146.69 230.074 144.73C230.466 141.634 231.132 138.576 231.995 135.558C234.033 128.737 234.111 123.406 228.427 116.35C225.095 112.194 219.607 110.509 215.609 109.803C214.159 109.529 212.708 109.372 211.258 109.333C208.827 106.314 205.103 104.237 200.987 103.531Z" fill="black"/>
<path d="M126.313 169.426C150.538 161.861 211.22 173.542 228.272 195.024C237.993 207.254 247.872 230.03 257.672 258.489C261.827 270.523 269.275 281.774 283.348 280.441C292.442 279.539 301.929 285.929 300.596 292.122C298.009 304.274 276.331 312.193 276.331 312.193L104.753 311.448C104.753 311.448 84.8783 271.974 103.773 232.342C103.773 232.342 66.4935 248.022 51.2055 241.202C35.9175 234.381 15.9255 192.672 31.1743 188.399L28.1559 178.05L51.9111 164.566L56.9287 170.916C56.9287 170.916 64.6511 161.743 70.0607 168.407C75.4703 175.071 84.0159 188.674 84.0159 188.674C84.0159 188.674 89.8959 180.834 126.313 169.426Z" fill="#FFAD00"/>
<path d="M276.37 312.742L104.752 312.036C104.517 312.036 104.321 311.918 104.243 311.722C104.204 311.605 99.2252 301.609 96.5988 286.87C94.2468 273.542 93.4628 253.628 102.596 233.44C97.03 235.674 76.3716 243.514 61.2012 243.514C57.3204 243.514 53.7924 243.005 50.97 241.75C39.0924 236.458 24.1572 210.077 25.1764 196.239C25.49 191.966 27.2932 189.183 30.4684 188.046L27.6068 178.246C27.5284 177.972 27.646 177.698 27.8812 177.58L51.6364 164.095C51.8716 163.938 52.2244 164.017 52.3812 164.252L56.9676 170.054C58.222 168.721 61.7108 165.428 65.4348 165.428H65.474C67.3948 165.428 69.0804 166.33 70.4916 168.094C75.1956 173.895 82.2908 184.989 84.094 187.772C86.2108 185.694 95.2268 178.599 126.156 168.956L126.312 169.505L126.156 168.956C137.916 165.271 159.084 166.016 180.134 170.838C203.184 176.13 220.902 184.832 228.781 194.71C237.797 206.039 247.44 226.854 258.26 258.371C263.552 273.777 271.98 281.029 283.308 279.931C289.071 279.382 295.539 281.695 298.988 285.615C300.87 287.732 301.654 290.123 301.184 292.318C298.557 304.627 277.428 312.506 276.527 312.82C276.488 312.742 276.448 312.742 276.37 312.742ZM105.144 310.86L276.252 311.566C277.82 310.978 297.656 303.255 300.047 291.966C300.556 289.614 299.263 287.575 298.126 286.282C294.872 282.636 288.836 280.48 283.426 280.99C282.642 281.068 281.858 281.107 281.074 281.107C270.333 281.107 262.297 273.581 257.162 258.646C246.343 227.246 236.778 206.549 227.84 195.338C220.118 185.655 202.635 177.07 179.86 171.857C159.005 167.074 138.072 166.33 126.469 169.936C90.8364 181.069 84.486 188.87 84.4468 188.948C84.3292 189.105 84.1332 189.183 83.9372 189.183C83.7412 189.183 83.5844 189.066 83.4668 188.909C83.3884 188.791 74.882 175.267 69.5508 168.682C68.3748 167.231 67.0028 166.486 65.4348 166.447H65.3956C61.3972 166.447 57.3988 171.112 57.3596 171.151C57.242 171.308 57.0852 171.386 56.8892 171.386C56.6932 171.386 56.5364 171.308 56.4188 171.151L51.7148 165.193L28.822 178.207L31.6836 188.125C31.7228 188.282 31.7228 188.438 31.6444 188.595C31.566 188.713 31.4484 188.83 31.2916 188.87C28.2732 189.693 26.5876 192.162 26.3132 196.2C25.294 209.685 39.8372 235.4 51.4012 240.574C66.2972 247.199 103.145 231.833 103.498 231.676C103.812 231.558 104.125 231.715 104.282 231.99C104.36 232.146 104.36 232.303 104.282 232.46C94.5996 252.805 95.3836 273.071 97.7356 286.478C100.088 299.727 104.282 309.057 105.144 310.86Z" fill="#1D1D1B"/>
<path d="M177.938 167.898C177.938 167.898 168.53 169.27 172.842 177.933C177.154 186.596 185.543 183.97 185.543 183.97C185.543 183.97 202.163 202.002 207.259 179.462L177.938 167.898Z" fill="white"/>
<path d="M197.853 191.418C192.247 191.418 186.602 185.93 185.348 184.636C183.623 185.028 176.293 186.165 172.294 178.207C170.922 175.463 170.726 173.072 171.706 171.19C173.353 168.015 177.625 167.388 177.821 167.349L177.978 167.31L207.927 179.109L207.809 179.618C206.32 186.282 203.615 190.163 199.852 191.182C199.225 191.3 198.558 191.418 197.853 191.418ZM185.74 183.303L186.014 183.578C186.093 183.656 193.541 191.614 199.617 190.006C202.831 189.144 205.183 185.734 206.594 179.814L177.9 168.525C177.194 168.682 174.019 169.387 172.804 171.739C171.981 173.307 172.177 175.306 173.392 177.698C177.469 185.812 185.073 183.538 185.387 183.421L185.74 183.303Z" fill="#1D1D1B"/>
<path d="M199.224 245.984C200.696 245.984 201.89 244.791 201.89 243.318C201.89 241.846 200.696 240.653 199.224 240.653C197.752 240.653 196.559 241.846 196.559 243.318C196.559 244.791 197.752 245.984 199.224 245.984Z" fill="#FFC140"/>
<path d="M148.695 203.021C150.167 203.021 151.361 201.827 151.361 200.355C151.361 198.883 150.167 197.69 148.695 197.69C147.223 197.69 146.029 198.883 146.029 200.355C146.029 201.827 147.223 203.021 148.695 203.021Z" fill="#FFC140"/>
<path d="M131.054 249.277C132.526 249.277 133.72 248.084 133.72 246.611C133.72 245.139 132.526 243.946 131.054 243.946C129.582 243.946 128.389 245.139 128.389 246.611C128.389 248.084 129.582 249.277 131.054 249.277Z" fill="#FFC140"/>
<path d="M159.396 239.32C160.868 239.32 162.062 238.127 162.062 236.655C162.062 235.182 160.868 233.989 159.396 233.989C157.924 233.989 156.73 235.182 156.73 236.655C156.73 238.127 157.924 239.32 159.396 239.32Z" fill="#FFC140"/>
<path d="M219.216 206.392C220.689 206.392 221.882 205.199 221.882 203.727C221.882 202.254 220.689 201.061 219.216 201.061C217.744 201.061 216.551 202.254 216.551 203.727C216.551 205.199 217.744 206.392 219.216 206.392Z" fill="#FFC140"/>
<path d="M189.855 216.819C191.327 216.819 192.521 215.626 192.521 214.154C192.521 212.681 191.327 211.488 189.855 211.488C188.383 211.488 187.189 212.681 187.189 214.154C187.189 215.626 188.383 216.819 189.855 216.819Z" fill="#FFC140"/>
<path d="M148.343 187.89C149.816 187.89 151.009 186.696 151.009 185.224C151.009 183.752 149.816 182.559 148.343 182.559C146.871 182.559 145.678 183.752 145.678 185.224C145.678 186.696 146.871 187.89 148.343 187.89Z" fill="#FFC140"/>
<path d="M91.8941 212.39C93.3663 212.39 94.5597 211.196 94.5597 209.724C94.5597 208.252 93.3663 207.059 91.8941 207.059C90.422 207.059 89.2285 208.252 89.2285 209.724C89.2285 211.196 90.422 212.39 91.8941 212.39Z" fill="#FFC140"/>
<path d="M64.1402 192.084C65.6124 192.084 66.8058 190.891 66.8058 189.419C66.8058 187.946 65.6124 186.753 64.1402 186.753C62.668 186.753 61.4746 187.946 61.4746 189.419C61.4746 190.891 62.668 192.084 64.1402 192.084Z" fill="#FFC140"/>
<path d="M43.8746 203.256C45.3468 203.256 46.5402 202.063 46.5402 200.591C46.5402 199.118 45.3468 197.925 43.8746 197.925C42.4024 197.925 41.209 199.118 41.209 200.591C41.209 202.063 42.4024 203.256 43.8746 203.256Z" fill="#FFC140"/>
<path d="M223.49 207.49C224.962 207.49 226.155 206.296 226.155 204.824C226.155 203.352 224.962 202.158 223.49 202.158C222.018 202.158 220.824 203.352 220.824 204.824C220.824 206.296 222.018 207.49 223.49 207.49Z" fill="#FFC140"/>
<path d="M29.3301 178.521L51.8309 165.428L56.9269 171.622C56.9269 171.622 50.5765 186.792 31.9173 188.399L29.3301 178.521Z" fill="#E89D00"/>
<path d="M101.264 238.732C101.225 238.732 101.146 238.732 101.107 238.693C100.794 238.614 100.637 238.262 100.715 237.987C104.126 225.953 119.061 203.648 119.727 202.707C119.923 202.433 120.276 202.355 120.55 202.551C120.825 202.747 120.903 203.099 120.707 203.374C120.55 203.609 105.262 226.502 101.852 238.34C101.774 238.575 101.538 238.732 101.264 238.732Z" fill="#1D1E1B"/>
<path d="M95.1096 191.026C94.4432 191.026 93.9336 190.516 93.9336 189.85C93.9336 189.497 94.1296 189.144 94.404 188.909C112.044 175.895 128.626 172.563 139.445 172.092C151.205 171.543 158.653 174.091 159.006 174.209C159.633 174.444 159.946 175.111 159.711 175.699C159.476 176.326 158.81 176.639 158.222 176.404C158.143 176.365 150.774 173.895 139.445 174.444C129.018 174.954 112.946 178.168 95.8152 190.791C95.58 190.947 95.3448 191.026 95.1096 191.026Z" fill="white"/>
<path d="M278.721 307.41C278.721 307.41 280.485 297.297 303.064 292.554C325.643 287.81 342.264 312.154 342.264 312.154H278.721V307.41Z" fill="#6C32AD"/>
<path d="M343.401 312.742H278.133V307.293C278.211 306.862 280.25 296.748 302.946 291.966C312.354 290.006 322.233 292.789 331.484 300.119C335.757 303.49 339.559 307.45 342.734 311.84L343.401 312.742ZM279.309 311.566H341.127C338.109 307.646 334.62 304.078 330.739 301.021C324.467 296.082 314.589 290.711 303.182 293.142C281.974 297.61 279.466 306.783 279.309 307.489V311.566V311.566Z" fill="#1D1E1B"/>
<path d="M312.551 283.067C317.294 280.676 328.584 283.067 330.975 287.81C333.366 292.554 329.172 296.121 325.056 297.297C320.94 298.473 315.138 292.593 315.138 292.593L312.551 283.067Z" fill="#FFCDB2"/>
<path d="M323.88 298.042C319.686 298.042 314.903 293.22 314.707 293.024L314.59 292.907L311.885 282.715L312.316 282.519C314.707 281.343 318.706 281.186 322.822 282.166C327.094 283.185 330.348 285.184 331.524 287.536C332.425 289.183 332.504 291.143 331.798 292.828C330.622 295.494 327.643 297.179 325.213 297.846C324.782 298.003 324.35 298.042 323.88 298.042ZM315.648 292.319C316.432 293.103 321.41 297.767 324.899 296.748C327.055 296.121 329.721 294.671 330.701 292.358C331.289 291.025 331.21 289.575 330.465 288.046C329.446 286.007 326.506 284.243 322.547 283.303C319.019 282.44 315.452 282.479 313.296 283.342L315.648 292.319Z" fill="#1D1D1B"/>
<path d="M296.52 291.966C296.52 291.966 298.911 281.852 307.221 280.676C315.531 279.5 322.666 283.655 322.078 291.966C321.49 300.276 311.376 301.452 306.045 299.688C300.714 297.924 296.52 291.966 296.52 291.966Z" fill="#FFCDB2"/>
<path d="M310.789 300.982C309.103 300.982 307.457 300.747 305.849 300.237C300.361 298.395 296.206 292.554 296.049 292.279L295.893 292.083L295.971 291.809C296.089 291.378 298.519 281.303 307.143 280.088C312.121 279.383 316.59 280.519 319.491 283.185C321.843 285.38 322.941 288.399 322.705 292.005C322.588 294.788 321.098 297.336 318.785 298.865C316.473 300.355 313.572 300.982 310.789 300.982ZM297.147 291.848C297.931 292.907 301.655 297.611 306.202 299.139C309.495 300.237 314.63 300.159 318.08 297.885C320.118 296.552 321.373 294.357 321.49 291.927C321.725 288.712 320.745 286.007 318.668 284.047C316.041 281.617 311.925 280.598 307.3 281.264C300.205 282.283 297.617 290.28 297.147 291.848Z" fill="#1D1D1B"/>
<path d="M278.094 299.688C273.037 302.197 272.135 307.41 272.763 312.154C273.39 316.897 279.309 321.052 284.64 318.7C289.972 316.348 287.62 310.39 284.64 307.41C281.661 304.431 287.031 299.688 289.971 303.843C292.912 307.998 301.261 307.41 306.004 303.843C310.748 300.276 307.18 291.378 300.673 288.986C294.166 286.595 286.992 285.419 284.052 291.966C281.112 298.512 280.485 298.512 278.094 299.688Z" fill="#FFCDB2"/>
<path d="M281.427 319.955C279.82 319.955 278.252 319.523 276.841 318.739C274.293 317.289 272.49 314.819 272.176 312.232C271.627 307.842 272.176 302.001 277.86 299.179L278.252 298.983C280.212 298.003 280.839 297.728 283.544 291.731C286.915 284.361 295.069 286.321 300.91 288.438C304.908 289.888 308.123 293.769 308.711 297.924C309.103 300.629 308.279 302.903 306.398 304.314C303.066 306.666 298.989 307.685 294.951 307.175C292.521 306.783 290.639 305.764 289.503 304.196C288.562 302.863 287.503 302.707 286.759 302.824C285.7 303.02 284.799 303.726 284.446 304.745C284.171 305.529 284.407 306.431 285.034 306.979C287.033 308.979 288.836 312.311 288.287 315.211C287.974 316.975 286.759 318.387 284.838 319.249C283.779 319.719 282.603 319.994 281.427 319.955ZM278.37 300.198C273.313 302.746 272.842 308.038 273.352 312.075C273.626 314.271 275.195 316.427 277.429 317.72C279.546 318.975 282.133 319.131 284.407 318.151C285.975 317.446 286.915 316.387 287.151 314.976C287.621 312.507 285.935 309.527 284.211 307.803C283.27 306.94 282.917 305.607 283.348 304.392C283.858 302.942 285.112 301.883 286.602 301.648C287.464 301.531 289.111 301.57 290.443 303.491C291.619 305.176 293.619 305.764 295.108 305.999C298.832 306.47 302.595 305.529 305.653 303.334C307.182 302.197 307.848 300.315 307.535 298.042C306.986 294.396 304.007 290.79 300.479 289.496C291.894 286.36 286.837 287.223 284.603 292.162C281.819 298.277 281.114 298.826 278.762 300.002L278.37 300.198Z" fill="#1D1D1B"/>
<path d="M3.14584 144.378C3.14584 144.378 -5.20376 164.605 25.7642 175.385C25.7642 175.385 42.777 180.52 51.0482 172.68V170.524C51.0482 170.524 63.2394 163.115 61.0834 154.844C61.0834 154.844 52.381 151.787 42.3458 161.822C42.3458 161.822 37.1322 146.573 21.021 146.573C21.021 146.573 14.4746 142.653 11.8874 146.142C11.8482 146.103 8.82984 142.183 3.14584 144.378Z" fill="#FFCDB2"/>
<path d="M6.47767 143.711C8.51607 143.711 10.4761 144.574 11.8481 146.103C12.6321 145.044 13.8081 144.652 15.0625 144.652C17.8457 144.652 20.9817 146.534 20.9817 146.534C37.0929 146.534 42.3065 161.783 42.3065 161.783C48.5393 155.55 54.2625 154.374 57.7121 154.374C58.8489 154.335 59.9857 154.491 61.0441 154.805C63.2393 163.076 51.0089 170.485 51.0089 170.485V172.68C47.4417 176.091 42.1889 177.031 37.4065 177.031C33.4473 176.992 29.5273 176.443 25.7249 175.385C-5.20394 164.605 3.10646 144.378 3.10646 144.378C4.20406 143.947 5.34087 143.751 6.47767 143.711ZM6.47767 142.535C5.18407 142.535 3.92967 142.81 2.75367 143.28C2.44007 143.398 2.20487 143.633 2.08727 143.947C0.362465 148.925 0.636866 154.374 2.83207 159.195C6.20327 166.643 13.7689 172.484 25.4113 176.522H25.4505C29.3705 177.619 33.4081 178.168 37.4849 178.207C43.7569 178.207 48.6177 176.639 51.8713 173.503C52.1065 173.307 52.2241 172.994 52.2241 172.68V171.151C54.7329 169.505 64.2977 162.567 62.1809 154.531C62.0633 154.139 61.7889 153.864 61.4361 153.707C60.2209 153.355 58.9665 153.198 57.7121 153.198C54.1057 153.198 48.6569 154.374 42.7377 159.744C41.6401 157.431 40.2289 155.315 38.5825 153.394C34.2705 148.337 27.9593 145.397 21.2953 145.358C20.3937 144.848 17.6497 143.476 15.0625 143.476C13.9257 143.437 12.7889 143.79 11.8089 144.417C10.3193 143.202 8.43767 142.535 6.47767 142.535Z" fill="black"/>
<path d="M40.1511 169.348C39.7983 169.348 39.5631 169.074 39.5631 168.721C39.5631 168.643 39.6023 167.114 38.0343 165.585C36.3095 163.939 32.4287 162.096 23.6479 162.802C23.4127 162.802 23.2167 162.723 23.0991 162.527C23.0207 162.41 16.9839 152.492 11.4175 146.495C11.2215 146.22 11.2999 145.867 11.5743 145.671C11.8095 145.515 12.0839 145.554 12.2799 145.711C17.3759 151.199 22.8247 159.862 23.9223 161.587C31.1743 161.077 36.1919 162.135 38.8967 164.762C40.8175 166.643 40.7391 168.682 40.7391 168.76C40.7391 169.113 40.4647 169.348 40.1511 169.348Z" fill="black"/>
<path d="M31.8792 159.744C31.644 159.744 31.4088 159.587 31.3304 159.391C31.2912 159.313 28.6648 152.923 20.6288 146.573C20.3544 146.377 20.3152 146.024 20.5112 145.75C20.7072 145.475 21.06 145.436 21.3344 145.632L21.3736 145.671C29.684 152.218 32.3496 158.725 32.428 158.96C32.5456 159.274 32.3888 159.587 32.1144 159.705C32.036 159.744 31.9576 159.744 31.8792 159.744Z" fill="black"/>
<path d="M25.0967 172.602C25.0575 172.602 25.0183 172.602 24.9791 172.602C12.5527 170.367 5.96712 158.294 5.69272 157.784C5.49672 157.392 5.61432 156.922 6.00632 156.726C6.39832 156.53 6.86872 156.647 7.06472 157.039C7.14312 157.157 13.5719 168.917 25.2143 170.994C25.6455 171.034 25.9591 171.426 25.9199 171.857C25.8807 172.288 25.5279 172.641 25.0967 172.602Z" fill="white"/>
<path d="M185.424 159.195L176.487 172.798C176.487 172.798 182.916 189.889 205.965 177.541C205.965 177.541 197.537 167.074 204.084 153.041C204.084 153.041 210.081 156.138 213.06 150.924C216.04 145.71 212.982 141.908 209.807 141.359C209.807 141.359 196.479 140.262 202.437 115.487C202.437 115.487 190.403 111.763 180.838 119.486C171.273 127.208 164.217 139.517 168.804 148.494C173.39 157.47 185.424 159.195 185.424 159.195Z" fill="#FFCDB2"/>
<path d="M200.282 115.017C201.027 115.134 201.733 115.291 202.438 115.487C196.989 138.106 207.652 140.967 209.533 141.32C209.729 141.359 209.808 141.359 209.808 141.359C212.983 141.908 216.001 145.71 213.061 150.924C211.336 153.982 208.553 154.178 206.554 153.825C205.692 153.668 204.869 153.433 204.085 153.041C197.538 167.035 205.966 177.541 205.966 177.541C198.165 181.735 192.246 182.558 187.856 181.774C179.31 180.285 176.488 172.798 176.488 172.798L185.425 159.195C185.425 159.195 185.308 159.195 185.151 159.156C183.308 158.842 173.038 156.686 168.883 148.533C164.297 139.556 171.352 127.247 180.917 119.486C187.973 113.762 196.401 114.35 200.282 115.017ZM200.478 113.919C196.009 113.135 187.464 112.743 180.173 118.662C175.077 122.818 170.96 127.914 168.569 133.088C165.825 139.007 165.59 144.534 167.864 149.003C171.627 156.412 180.016 159.078 183.583 159.94L175.547 172.17C175.351 172.445 175.312 172.837 175.429 173.15C177.585 178.246 182.211 181.853 187.621 182.794C192.991 183.734 199.302 182.284 206.437 178.442C206.985 178.168 207.181 177.502 206.868 176.992C206.829 176.914 206.789 176.874 206.75 176.835C205.3 174.797 204.202 172.523 203.536 170.132C202.046 164.918 202.399 159.666 204.594 154.452C205.143 154.648 205.731 154.805 206.319 154.922C209.651 155.51 212.356 154.295 213.963 151.473C215.452 148.807 215.727 146.142 214.669 143.907C213.767 142.026 212.042 140.654 209.965 140.262H209.847L209.651 140.222C208.867 140.105 206.24 139.438 204.241 136.42C201.458 132.186 201.184 125.052 203.418 115.722C203.536 115.174 203.222 114.586 202.673 114.429C202.046 114.272 201.301 114.076 200.478 113.919Z" fill="black"/>
<path d="M184.837 160.058C184.484 159.979 184.131 159.901 183.779 159.823C183.504 159.744 183.308 159.431 183.387 159.156C183.465 158.882 183.779 158.686 184.053 158.764C187.581 159.744 192.167 158.686 192.207 158.647C192.481 158.568 192.795 158.764 192.873 159.039C192.951 159.313 192.755 159.627 192.481 159.705C192.324 159.783 188.404 160.685 184.837 160.058Z" fill="black"/>
<path d="M206.085 151.081C205.772 151.042 205.576 150.728 205.654 150.454C205.693 150.258 205.811 150.101 206.007 150.023C208.045 149.278 209.221 148.337 209.496 147.2C209.848 145.554 208.28 143.986 208.241 143.986C208.006 143.79 208.006 143.437 208.241 143.202C208.437 142.967 208.79 142.967 209.025 143.202C209.104 143.28 211.064 145.24 210.554 147.435C210.201 148.964 208.79 150.179 206.36 151.042C206.281 151.081 206.164 151.081 206.085 151.081Z" fill="black"/>
<path d="M190.717 129.09C195.421 134.068 204.516 136.812 204.437 139.674C204.359 142.535 201.537 144.495 198.126 143.084C194.716 141.673 191.776 139.517 186.053 134.852C180.329 130.187 175.037 125.13 177.977 122.386C180.917 119.642 183.818 121.72 190.717 129.09Z" fill="#FFB49F"/>
<path d="M187.23 129.952C186.955 129.913 186.759 129.678 186.759 129.403C186.838 127.796 186.406 126.463 185.466 125.483C183.584 123.484 180.291 123.445 180.252 123.445C179.938 123.445 179.703 123.21 179.703 122.896C179.703 122.582 179.938 122.347 180.252 122.347C180.409 122.347 184.054 122.386 186.25 124.738C187.386 125.954 187.935 127.561 187.857 129.482C187.818 129.756 187.582 129.991 187.269 129.952H187.23V129.952Z" fill="black"/>
<path d="M200.399 140.889C200.164 140.85 200.007 140.693 199.968 140.458C198.792 134.264 193.265 134.656 193.03 134.656C192.716 134.695 192.481 134.46 192.442 134.146C192.403 133.833 192.638 133.598 192.951 133.558C193.03 133.558 199.694 133.049 201.066 140.222C201.105 140.497 200.948 140.81 200.635 140.85C200.517 140.889 200.478 140.889 200.399 140.889Z" fill="black"/>
<path d="M190.758 122.739C189.66 122.543 188.601 122.19 187.661 121.642C187.386 121.485 187.308 121.132 187.465 120.897C187.621 120.622 187.974 120.544 188.209 120.701C189.425 121.367 190.836 121.759 192.247 121.798C192.561 121.798 192.796 122.034 192.796 122.347C192.796 122.661 192.561 122.896 192.247 122.896C191.777 122.857 191.267 122.818 190.758 122.739Z" fill="black"/>
<path d="M188.131 149.591C186.445 149.278 184.916 148.376 183.858 147.043C183.662 146.808 183.701 146.455 183.936 146.298C184.172 146.102 184.524 146.142 184.681 146.377C184.681 146.377 184.681 146.416 184.72 146.416C184.838 146.573 187.504 150.218 192.796 147.749C193.07 147.592 193.384 147.71 193.54 147.984C193.697 148.258 193.58 148.572 193.305 148.729C193.266 148.729 193.266 148.768 193.227 148.768C191.267 149.67 189.542 149.826 188.131 149.591Z" fill="black"/>
<path d="M211.061 141.634C208.984 141.32 207.063 140.536 205.338 139.36C205.103 139.164 205.103 138.811 205.299 138.576C205.495 138.38 205.769 138.341 206.004 138.498C210.395 141.83 218.274 140.693 218.352 140.693C218.666 140.654 218.94 140.85 218.98 141.163C219.019 141.477 218.823 141.751 218.509 141.79C216.04 142.065 213.531 142.065 211.061 141.634Z" fill="black"/>
<path d="M211.494 138.929C211.455 138.929 211.377 138.89 211.337 138.89C200.126 133.166 204.713 120.466 204.791 120.309C204.909 120.035 205.222 119.878 205.497 119.995C205.771 120.113 205.928 120.427 205.81 120.701C205.614 121.171 201.498 132.618 211.847 137.91C212.121 138.027 212.239 138.38 212.082 138.654C211.965 138.85 211.729 138.968 211.494 138.929Z" fill="white"/>
<path d="M182.132 137.831C181.976 137.792 181.858 137.714 181.78 137.635C181.623 137.4 181.662 137.047 181.897 136.891L190.874 130.383C191.109 130.187 191.462 130.227 191.658 130.462C191.854 130.697 191.815 131.05 191.58 131.246C191.54 131.246 191.54 131.285 191.501 131.285L182.524 137.792C182.446 137.831 182.289 137.871 182.132 137.831Z" fill="black"/>
<path d="M206.32 156.804C207.533 156.804 208.515 155.821 208.515 154.609C208.515 153.397 207.533 152.414 206.32 152.414C205.108 152.414 204.125 153.397 204.125 154.609C204.125 155.821 205.108 156.804 206.32 156.804Z" fill="#FFAD00"/>
<path d="M206.673 152.453C207.849 152.649 208.672 153.786 208.437 154.962C208.241 156.138 207.104 156.961 205.928 156.726C204.752 156.53 203.929 155.393 204.164 154.217C204.36 153.041 205.497 152.257 206.673 152.453ZM206.869 151.395C205.105 151.081 203.38 152.257 203.066 154.06C202.753 155.863 203.929 157.549 205.732 157.863C207.535 158.176 209.221 157 209.534 155.197C209.848 153.394 208.672 151.708 206.869 151.395Z" fill="black"/>
<path d="M180.565 285.419C181.864 285.419 182.917 284.366 182.917 283.067C182.917 281.768 181.864 280.715 180.565 280.715C179.266 280.715 178.213 281.768 178.213 283.067C178.213 284.366 179.266 285.419 180.565 285.419Z" fill="#FFC140"/>
<path d="M120.706 283.106C122.004 283.106 123.058 282.053 123.058 280.754C123.058 279.455 122.004 278.402 120.706 278.402C119.407 278.402 118.354 279.455 118.354 280.754C118.354 282.053 119.407 283.106 120.706 283.106Z" fill="#FFC140"/>
<path d="M152.418 280.205C153.717 280.205 154.77 279.152 154.77 277.853C154.77 276.554 153.717 275.501 152.418 275.501C151.119 275.501 150.066 276.554 150.066 277.853C150.066 279.152 151.119 280.205 152.418 280.205Z" fill="#FFC140"/>
<path d="M225.842 310.311H100.95C95.8543 310.311 91.7383 306.195 91.7383 301.099V225.796C91.7383 220.7 95.8543 216.584 100.95 216.584H225.881C230.977 216.584 235.093 220.7 235.093 225.796V301.099C235.054 306.195 230.938 310.311 225.842 310.311Z" fill="#6C32AD"/>
<path d="M225.84 310.899H100.948C95.5388 310.899 91.1484 306.509 91.1484 301.099V225.796C91.1484 220.386 95.5388 215.996 100.948 215.996H225.879C231.288 215.996 235.679 220.386 235.679 225.796V301.099C235.64 306.509 231.249 310.899 225.84 310.899ZM100.948 217.172C96.166 217.172 92.3244 221.013 92.3244 225.796V301.099C92.3244 305.882 96.166 309.723 100.948 309.723H225.879C230.661 309.723 234.503 305.882 234.503 301.099V225.796C234.503 221.013 230.661 217.172 225.879 217.172H100.948Z" fill="#1D1E1B"/>
<path d="M240.305 310.507H91.2669C86.7589 310.507 83.1133 306.862 83.1133 302.354H248.537C248.498 306.822 244.813 310.507 240.305 310.507Z" fill="#59298F"/>
<path d="M240.305 311.095H91.267C86.4454 311.095 82.5254 307.175 82.5254 302.353V301.765H249.086V302.353C249.086 307.175 245.166 311.095 240.305 311.095ZM83.7014 302.902C84.015 306.861 87.3078 309.88 91.267 309.88H240.345C244.304 309.88 247.597 306.822 247.91 302.902H83.7014Z" fill="#1D1D1B"/>
<path d="M96.8733 294.082C96.2069 294.082 95.6973 293.573 95.6973 292.906V231.519C95.6973 230.853 96.2069 230.343 96.8733 230.343C97.5397 230.343 98.0493 230.853 98.0493 231.519V292.906C98.0493 293.573 97.5397 294.082 96.8733 294.082Z" fill="white"/>
<path d="M156.614 256.921H164.375C166.57 256.921 168.374 258.724 168.374 260.919V268.681C168.374 270.876 166.57 272.679 164.375 272.679H156.614C154.418 272.679 152.615 270.876 152.615 268.681V260.88C152.615 258.685 154.418 256.921 156.614 256.921Z" fill="#59298F"/>
<path d="M164.375 273.228H156.614C154.105 273.228 152.027 271.189 152.027 268.641V260.88C152.027 258.371 154.066 256.293 156.614 256.293H164.375C166.884 256.293 168.962 258.332 168.962 260.88V268.641C168.962 271.189 166.923 273.228 164.375 273.228ZM156.614 257.509C154.732 257.509 153.243 259.037 153.203 260.88V268.641C153.203 270.523 154.732 272.052 156.614 272.052H164.375C166.257 272.052 167.786 270.523 167.786 268.641V260.88C167.786 258.998 166.257 257.469 164.375 257.469L156.614 257.509Z" fill="#1D1D1B"/>
<path d="M77.5083 13.1751C69.4331 5.45272 60.2995 1.53271 50.3427 1.53271C45.6779 1.53271 40.1115 3.21831 33.3691 6.66791C25.1371 10.8623 21.1387 15.3311 21.1387 20.3095C21.1387 23.0143 22.1579 25.6015 24.0003 27.5615C25.8035 29.6783 28.4691 30.9327 31.2523 30.9327C32.5459 30.9327 34.3883 30.5407 41.2483 25.9935C46.0307 22.8183 48.8531 22.1519 50.3427 22.1519C54.8899 22.1519 59.1627 23.9943 63.3571 27.7967C67.6299 31.6383 69.7075 35.5975 69.7075 39.9487C69.7075 43.0455 67.0811 46.9655 62.1419 51.2383L45.9131 63.4687L45.8739 63.5079C39.0531 68.8783 35.8779 73.3863 35.8779 77.6983C35.9955 83.3431 40.5427 87.8903 46.1875 88.0079C49.0099 88.0079 51.5579 86.6751 53.7923 84.0879C56.3403 81.1479 61.0443 77.1887 67.7475 72.3279C74.9603 67.1927 79.8211 63.0767 82.5651 59.7447C87.2691 54.2175 89.7779 47.2007 89.7387 39.9879C89.6995 29.9135 85.5835 20.9367 77.5083 13.1751Z" fill="#D9CFFF"/>
<path d="M46.1485 88.5568C40.1901 88.4 35.3685 83.6176 35.2509 77.6592C35.2509 73.1512 38.5045 68.5256 45.4821 62.9984L45.5605 62.9592L61.7893 50.768C66.6109 46.6128 69.1589 42.8496 69.1589 39.9488C69.1589 35.7936 67.1597 31.952 63.0045 28.228C58.9277 24.5432 54.8117 22.74 50.3821 22.74C48.9709 22.74 46.2661 23.4064 41.6013 26.5032C34.5845 31.168 32.7029 31.56 31.2525 31.56C28.2733 31.56 25.4901 30.2664 23.5301 27.9928C21.6093 25.9152 20.5117 23.1712 20.5117 20.3488C20.5117 15.1352 24.6277 10.4704 33.0557 6.15842C39.9157 2.66962 45.5605 0.944824 50.3037 0.944824C60.4565 0.944824 69.7077 4.90402 77.9005 12.744C86.1325 20.6232 90.2877 29.7568 90.2877 39.9096C90.3661 47.2792 87.7397 54.4528 82.9965 60.0584C80.2133 63.4296 75.3133 67.5848 68.0613 72.7592C61.3973 77.5808 56.7325 81.54 54.2237 84.4408C51.8717 87.1456 49.1277 88.5568 46.1485 88.5568ZM50.3037 21.5248C55.0077 21.5248 59.3981 23.4064 63.7101 27.3264C68.1005 31.2856 70.2565 35.4016 70.2565 39.9096C70.2565 43.2024 67.5517 47.24 62.4949 51.6304L62.4557 51.6696L46.1877 63.9392C39.5237 69.192 36.4269 73.5432 36.4269 77.6592C36.5837 82.9904 40.8565 87.2632 46.1485 87.3808C48.7749 87.3808 51.2053 86.1264 53.3221 83.6568C55.9093 80.6776 60.6133 76.6792 67.3557 71.8184C74.5293 66.7224 79.3509 62.6456 82.0557 59.3528C86.6421 53.9432 89.1509 47.044 89.1117 39.9488C89.1117 30.1488 85.0741 21.2896 77.0773 13.6456C69.1197 6.04083 60.1037 2.19922 50.3037 2.19922C45.7173 2.19922 40.2685 3.84562 33.6045 7.25602C25.5685 11.3328 21.6877 15.6448 21.6877 20.388C21.6877 22.936 22.6285 25.4056 24.3925 27.248C26.0781 29.2472 28.5869 30.384 31.2133 30.4232C32.3501 30.4232 34.1533 30.0312 40.8957 25.5624C45.7957 22.2304 48.7357 21.5248 50.3037 21.5248Z" fill="#1D1E1B"/>
<path d="M41.3265 92.0847C38.7001 92.0847 34.9761 93.0255 32.0753 97.3767C30.2329 100.16 29.2529 103.453 29.2921 106.824C29.2921 109.725 30.5465 112.273 32.8985 114.233C34.9761 116.036 37.6809 117.016 40.4249 117.016C42.8553 117.016 46.3049 116.114 48.9313 111.842C50.4209 109.294 51.2049 106.354 51.1657 103.414C51.1657 93.1823 44.2665 92.0847 41.3265 92.0847Z" fill="#D9CFFF"/>
<path d="M40.4252 117.604C37.5244 117.604 34.702 116.585 32.5068 114.703C29.998 112.626 28.6652 109.921 28.6652 106.824C28.626 103.335 29.6452 99.925 31.566 97.0242C34.6236 92.4378 38.5436 91.4578 41.2876 91.4578C44.4236 91.4578 51.7148 92.6338 51.7148 103.375C51.754 106.432 50.9308 109.451 49.402 112.116C46.658 116.663 43.0124 117.604 40.4252 117.604ZM41.3268 92.673C38.8572 92.673 35.3292 93.5354 32.5852 97.7298C30.782 100.435 29.8412 103.61 29.8804 106.863C29.8804 109.568 31.0564 111.959 33.2908 113.841C35.29 115.566 37.838 116.467 40.4644 116.467C42.738 116.467 45.9916 115.605 48.4612 111.567C49.9116 109.098 50.6564 106.315 50.6172 103.453C50.578 93.6922 44.11 92.673 41.3268 92.673Z" fill="#1D1E1B"/>
<path d="M84.172 49.3961C84.0936 49.3961 84.0152 49.3961 83.9368 49.3569C83.3096 49.2393 82.8784 48.6121 82.996 47.9849C85.0344 37.2049 83.5448 28.3457 78.6056 21.5641C70.7656 10.8625 56.7321 9.02011 56.5753 9.02011C55.9089 8.94171 55.4777 8.35371 55.5561 7.68731C55.6345 7.02091 56.2224 6.58971 56.8888 6.66811C57.516 6.74651 72.0593 8.62811 80.5265 20.1529C85.8968 27.4833 87.504 37.0089 85.348 48.4553C85.2304 49.0041 84.7208 49.3961 84.172 49.3961Z" fill="white"/>
<path d="M95.0312 113.37C93.6984 109.019 91.2288 105.805 87.7008 103.845C86.0544 102.904 83.7416 102.434 80.6448 102.277C76.8816 102.12 74.5688 102.904 73.5888 104.707C73.04 105.648 72.8832 106.785 73.1576 107.843C73.3928 108.941 74.0984 109.921 75.0784 110.47C75.5488 110.705 76.2544 110.94 79.6256 110.705C81.9384 110.509 83.0752 110.862 83.624 111.136C85.2312 112.038 86.368 113.527 87.1128 115.722C87.8576 117.918 87.8184 119.76 86.956 121.289C86.3288 122.386 84.6432 123.249 82.0168 123.798L73.824 124.934H73.7848C70.296 125.483 68.2576 126.463 67.4344 127.992C66.376 130.03 67.0816 132.539 69.0416 133.715C70.0608 134.264 71.2368 134.303 72.5304 133.833C74.02 133.284 76.4896 132.814 79.8216 132.422C83.3888 132.03 85.9368 131.52 87.5832 130.893C90.3272 129.874 92.64 127.874 94.0512 125.287C96.0504 121.759 96.364 117.722 95.0312 113.37Z" fill="#D9CFFF"/>
<path d="M70.8055 134.774C70.0999 134.774 69.3943 134.617 68.7671 134.264C66.4935 132.931 65.7095 130.07 66.9247 127.757C67.8655 126.071 70.0215 125.013 73.7063 124.425H73.7455L81.8991 123.327C84.2903 122.818 85.8975 122.034 86.4071 121.132C87.1911 119.76 87.2303 118.074 86.5247 116.036C85.8191 113.998 84.7607 112.586 83.2711 111.763C82.8791 111.567 81.8991 111.214 79.6255 111.41C76.0975 111.685 75.3135 111.41 74.7647 111.097C73.6279 110.47 72.8047 109.372 72.5695 108.078C72.2559 106.863 72.4519 105.609 73.0399 104.511C74.1375 102.512 76.6463 101.65 80.6447 101.806C83.8199 101.924 86.2111 102.473 87.9751 103.414C91.6599 105.491 94.2079 108.784 95.6191 113.292C96.9911 117.8 96.6383 121.994 94.5999 125.679C93.1103 128.384 90.719 130.462 87.8183 131.559C86.1327 132.226 83.5455 132.735 79.8999 133.127C76.6071 133.519 74.1767 133.99 72.7263 134.499C72.0991 134.617 71.4719 134.774 70.8055 134.774ZM80.8799 110.078C82.2127 110.078 83.2319 110.274 83.8983 110.626C85.6623 111.606 86.8775 113.214 87.6615 115.526C88.4455 117.839 88.4063 119.878 87.4655 121.563C86.7599 122.857 84.9567 123.758 82.1343 124.346H82.0951L73.9023 125.483C70.6095 125.993 68.6887 126.894 67.9439 128.227C67.0423 129.991 67.6303 132.147 69.3551 133.127C70.1783 133.598 71.1975 133.637 72.3343 133.206C73.8631 132.657 76.3719 132.186 79.7431 131.755C83.2711 131.363 85.7799 130.893 87.3479 130.266C89.9743 129.286 92.1695 127.404 93.5415 124.934C95.4623 121.524 95.7366 117.682 94.4822 113.488C93.2279 109.294 90.7975 106.197 87.4263 104.315C85.8583 103.453 83.6239 102.943 80.6447 102.826C77.1167 102.669 74.9999 103.374 74.1375 104.942C73.6671 105.766 73.5495 106.746 73.7847 107.686C73.9807 108.627 74.5687 109.45 75.4311 109.921C75.8231 110.156 76.6071 110.313 79.6255 110.078C80.0175 110.078 80.4879 110.078 80.8799 110.078Z" fill="#1D1E1B"/>
<path d="M65.8661 136.224C64.9253 135.715 63.4357 135.283 61.5149 136.263C60.2997 136.891 59.3197 137.87 58.6533 139.086C58.0653 140.105 58.0261 141.359 58.4573 142.418C58.8493 143.476 59.5941 144.338 60.5741 144.887C61.4365 145.358 62.8477 145.75 64.6117 144.73C65.6309 144.103 66.4933 143.241 67.0813 142.182C69.1589 138.576 66.9245 136.812 65.8661 136.224Z" fill="#D9CFFF"/>
<path d="M62.4564 145.985C61.7116 145.985 61.006 145.789 60.3396 145.436C59.242 144.809 58.3796 143.829 57.9484 142.653C57.4388 141.399 57.5172 139.987 58.1836 138.811C58.8892 137.518 59.9868 136.459 61.2804 135.754C63.3972 134.656 65.122 135.127 66.1804 135.715C67.1212 136.224 70.022 138.263 67.67 142.496C67.0428 143.633 66.102 144.613 65.0044 145.279C64.1812 145.75 63.3188 145.985 62.4564 145.985ZM63.8284 136.303C63.1228 136.303 62.4564 136.499 61.8292 136.851C60.7316 137.439 59.7908 138.302 59.2028 139.399C58.7324 140.262 58.654 141.32 59.046 142.261C59.3988 143.202 60.0652 143.947 60.9276 144.456C61.986 145.044 63.162 145.005 64.4164 144.299C65.3572 143.751 66.1412 142.927 66.6508 141.987C68.3756 138.929 66.7292 137.439 65.6316 136.812C65.0436 136.459 64.4556 136.303 63.8284 136.303Z" fill="#1D1E1B"/>
<path d="M92.0124 125.444C91.346 125.444 90.8364 124.934 90.8364 124.268C90.8364 124.111 90.8756 123.994 90.9148 123.837C92.6788 119.407 92.7964 115.605 91.3068 112.626C89.1508 108.353 84.3292 107.02 84.29 106.981C83.6628 106.824 83.2708 106.158 83.4668 105.53C83.6236 104.903 84.29 104.511 84.9172 104.707C85.1524 104.786 90.7972 106.314 93.4236 111.528C95.266 115.174 95.1876 119.603 93.1492 124.699C92.9532 125.17 92.522 125.444 92.0124 125.444Z" fill="white"/>
</svg>
